<?xml version="1.0" encoding="utf-8" ?>
<svg baseProfile="tiny" height="100%" version="1.2" width="100%" xmlns="http://www.w3.org/2000/svg" xmlns:ev="http://www.w3.org/2001/xml-events" xmlns:xlink="http://www.w3.org/1999/xlink"><defs /><line stroke="rgb(0%,0%,0%)" x1="351.9" x2="351.9" y1="0.5" y2="0.932" /><line stroke="rgb(0%,0%,0%)" x1="351.9" x2="351.9" y1="0.932" y2="100.5" /><line stroke="rgb(0%,0%,0%)" x1="351.1497" x2="351.7412" y1="100.5" y2="100.5" /><line stroke="rgb(0%,0%,0%)" x1="351.7412" x2="351.7618" y1="100.5" y2="100.5" /><line stroke="rgb(0%,0%,0%)" x1="351.7618" x2="351.7854" y1="100.5" y2="100.5" /><line stroke="rgb(0%,0%,0%)" x1="351.7854" x2="351.8115" y1="100.5" y2="100.5" /><line stroke="rgb(0%,0%,0%)" x1="351.8115" x2="351.8398" y1="100.5" y2="100.5" /><line stroke="rgb(0%,0%,0%)" x1="351.8398" x2="351.8695" y1="100.5" y2="100.5" /><line stroke="rgb(0%,0%,0%)" x1="351.8695" x2="351.9" y1="100.5" y2="100.5" /><line stroke="rgb(0%,0%,0%)" x1="351.1497" x2="1.5061" y1="100.5" y2="100.5" /><line stroke="rgb(0%,0%,0%)" x1="1.5061" x2="0.5" y1="100.5" y2="100.5" /><line stroke="rgb(0%,0%,0%)" x1="0.5" x2="1.5061" y1="0.5" y2="0.5" /><line stroke="rgb(0%,0%,0%)" x1="1.5061" x2="351.1497" y1="0.5" y2="0.5" /><line stroke="rgb(0%,0%,0%)" x1="351.1497" x2="351.7412" y1="0.5" y2="0.5" /><line stroke="rgb(0%,0%,0%)" x1="351.7412" x2="351.7618" y1="0.5" y2="0.5" /><line stroke="rgb(0%,0%,0%)" x1="351.7618" x2="351.7854" y1="0.5" y2="0.5" /><line stroke="rgb(0%,0%,0%)" x1="351.7854" x2="351.8115" y1="0.5" y2="0.5" /><line stroke="rgb(0%,0%,0%)" x1="351.8115" x2="351.8398" y1="0.5" y2="0.5" /><line stroke="rgb(0%,0%,0%)" x1="351.8398" x2="351.8695" y1="0.5" y2="0.5" /><line stroke="rgb(0%,0%,0%)" x1="351.8695" x2="351.9" y1="0.5" y2="0.5" /><line stroke="rgb(0%,0%,0%)" x1="0.5" x2="0.5" y1="0.5" y2="100.0002" /><line stroke="rgb(0%,0%,0%)" x1="0.5" x2="0.5" y1="100.0002" y2="100.5" /><line stroke="rgb(0%,0%,0%)" x1="165.1722" x2="165.4967" y1="47.3813" y2="50.4688" /><line stroke="rgb(0%,0%,0%)" x1="165.4967" x2="165.5" y1="50.4688" y2="50.5" /><line stroke="rgb(0%,0%,0%)" x1="165.5" x2="165.1755" y1="50.5" y2="53.5875" /><line stroke="rgb(0%,0%,0%)" x1="165.1755" x2="165.1722" y1="53.5875" y2="53.6187" /><line stroke="rgb(0%,0%,0%)" x1="165.1722" x2="164.2129" y1="53.6187" y2="56.5712" /><line stroke="rgb(0%,0%,0%)" x1="164.2129" x2="164.2032" y1="56.5712" y2="56.6011" /><line stroke="rgb(0%,0%,0%)" x1="164.2032" x2="162.6509" y1="56.6011" y2="59.2896" /><line stroke="rgb(0%,0%,0%)" x1="162.6509" x2="162.6353" y1="59.2896" y2="59.3168" /><line stroke="rgb(0%,0%,0%)" x1="162.6353" x2="160.5579" y1="59.3168" y2="61.6239" /><line stroke="rgb(0%,0%,0%)" x1="160.5579" x2="160.537" y1="61.6239" y2="61.6472" /><line stroke="rgb(0%,0%,0%)" x1="160.537" x2="158.0254" y1="61.6472" y2="63.472" /><line stroke="rgb(0%,0%,0%)" x1="158.0254" x2="158.0" y1="63.472" y2="63.4904" /><line stroke="rgb(0%,0%,0%)" x1="158.0" x2="155.1639" y1="63.4904" y2="64.7531" /><line stroke="rgb(0%,0%,0%)" x1="155.1639" x2="155.1353" y1="64.7531" y2="64.7658" /><line stroke="rgb(0%,0%,0%)" x1="155.1353" x2="152.0986" y1="64.7658" y2="65.4113" /><line stroke="rgb(0%,0%,0%)" x1="152.0986" x2="152.0679" y1="65.4113" y2="65.4178" /><line stroke="rgb(0%,0%,0%)" x1="152.0679" x2="148.9634" y1="65.4178" y2="65.4178" /><line stroke="rgb(0%,0%,0%)" x1="148.9634" x2="148.9321" y1="65.4178" y2="65.4178" /><line stroke="rgb(0%,0%,0%)" x1="148.9321" x2="145.8954" y1="65.4178" y2="64.7724" /><line stroke="rgb(0%,0%,0%)" x1="145.8954" x2="145.8647" y1="64.7724" y2="64.7658" /><line stroke="rgb(0%,0%,0%)" x1="145.8647" x2="143.0286" y1="64.7658" y2="63.5031" /><line stroke="rgb(0%,0%,0%)" x1="143.0286" x2="143.0" y1="63.5031" y2="63.4904" /><line stroke="rgb(0%,0%,0%)" x1="143.0" x2="140.4884" y1="63.4904" y2="61.6656" /><line stroke="rgb(0%,0%,0%)" x1="140.4884" x2="140.463" y1="61.6656" y2="61.6472" /><line stroke="rgb(0%,0%,0%)" x1="140.463" x2="138.3857" y1="61.6472" y2="59.3401" /><line stroke="rgb(0%,0%,0%)" x1="138.3857" x2="138.3647" y1="59.3401" y2="59.3168" /><line stroke="rgb(0%,0%,0%)" x1="138.3647" x2="136.8125" y1="59.3168" y2="56.6282" /><line stroke="rgb(0%,0%,0%)" x1="136.8125" x2="136.7968" y1="56.6282" y2="56.6011" /><line stroke="rgb(0%,0%,0%)" x1="136.7968" x2="135.8375" y1="56.6011" y2="53.6485" /><line stroke="rgb(0%,0%,0%)" x1="135.8375" x2="135.8278" y1="53.6485" y2="53.6187" /><line stroke="rgb(0%,0%,0%)" x1="135.8278" x2="135.5033" y1="53.6187" y2="50.5312" /><line stroke="rgb(0%,0%,0%)" x1="135.5033" x2="135.5" y1="50.5312" y2="50.5" /><line stroke="rgb(0%,0%,0%)" x1="135.5" x2="135.8245" y1="50.5" y2="47.4125" /><line stroke="rgb(0%,0%,0%)" x1="135.8245" x2="135.8278" y1="47.4125" y2="47.3813" /><line stroke="rgb(0%,0%,0%)" x1="135.8278" x2="136.7871" y1="47.3813" y2="44.4288" /><line stroke="rgb(0%,0%,0%)" x1="136.7871" x2="136.7968" y1="44.4288" y2="44.3989" /><line stroke="rgb(0%,0%,0%)" x1="136.7968" x2="138.3491" y1="44.3989" y2="41.7104" /><line stroke="rgb(0%,0%,0%)" x1="138.3491" x2="138.3647" y1="41.7104" y2="41.6832" /><line stroke="rgb(0%,0%,0%)" x1="138.3647" x2="140.4421" y1="41.6832" y2="39.3761" /><line stroke="rgb(0%,0%,0%)" x1="140.4421" x2="140.463" y1="39.3761" y2="39.3528" /><line stroke="rgb(0%,0%,0%)" x1="140.463" x2="142.9746" y1="39.3528" y2="37.528" /><line stroke="rgb(0%,0%,0%)" x1="142.9746" x2="143.0" y1="37.528" y2="37.5096" /><line stroke="rgb(0%,0%,0%)" x1="143.0" x2="145.8361" y1="37.5096" y2="36.2469" /><line stroke="rgb(0%,0%,0%)" x1="145.8361" x2="145.8647" y1="36.2469" y2="36.2342" /><line stroke="rgb(0%,0%,0%)" x1="145.8647" x2="148.9014" y1="36.2342" y2="35.5887" /><line stroke="rgb(0%,0%,0%)" x1="148.9014" x2="148.9321" y1="35.5887" y2="35.5822" /><line stroke="rgb(0%,0%,0%)" x1="148.9321" x2="152.0366" y1="35.5822" y2="35.5822" /><line stroke="rgb(0%,0%,0%)" x1="152.0366" x2="152.0679" y1="35.5822" y2="35.5822" /><line stroke="rgb(0%,0%,0%)" x1="152.0679" x2="155.1046" y1="35.5822" y2="36.2276" /><line stroke="rgb(0%,0%,0%)" x1="155.1046" x2="155.1353" y1="36.2276" y2="36.2342" /><line stroke="rgb(0%,0%,0%)" x1="155.1353" x2="157.9714" y1="36.2342" y2="37.4969" /><line stroke="rgb(0%,0%,0%)" x1="157.9714" x2="158.0" y1="37.4969" y2="37.5096" /><line stroke="rgb(0%,0%,0%)" x1="158.0" x2="160.5116" y1="37.5096" y2="39.3344" /><line stroke="rgb(0%,0%,0%)" x1="160.5116" x2="160.537" y1="39.3344" y2="39.3528" /><line stroke="rgb(0%,0%,0%)" x1="160.537" x2="162.6143" y1="39.3528" y2="41.6599" /><line stroke="rgb(0%,0%,0%)" x1="162.6143" x2="162.6353" y1="41.6599" y2="41.6832" /><line stroke="rgb(0%,0%,0%)" x1="162.6353" x2="164.1875" y1="41.6832" y2="44.3718" /><line stroke="rgb(0%,0%,0%)" x1="164.1875" x2="164.2032" y1="44.3718" y2="44.3989" /><line stroke="rgb(0%,0%,0%)" x1="164.2032" x2="165.1625" y1="44.3989" y2="47.3515" /><line stroke="rgb(0%,0%,0%)" x1="165.1625" x2="165.1722" y1="47.3515" y2="47.3813" /><line stroke="rgb(0%,0%,0%)" x1="65.1722" x2="65.4967" y1="47.3813" y2="50.4688" /><line stroke="rgb(0%,0%,0%)" x1="65.4967" x2="65.5" y1="50.4688" y2="50.5" /><line stroke="rgb(0%,0%,0%)" x1="65.5" x2="65.1755" y1="50.5" y2="53.5875" /><line stroke="rgb(0%,0%,0%)" x1="65.1755" x2="65.1722" y1="53.5875" y2="53.6187" /><line stroke="rgb(0%,0%,0%)" x1="65.1722" x2="64.2129" y1="53.6187" y2="56.5712" /><line stroke="rgb(0%,0%,0%)" x1="64.2129" x2="64.2032" y1="56.5712" y2="56.6011" /><line stroke="rgb(0%,0%,0%)" x1="64.2032" x2="62.6509" y1="56.6011" y2="59.2896" /><line stroke="rgb(0%,0%,0%)" x1="62.6509" x2="62.6352" y1="59.2896" y2="59.3168" /><line stroke="rgb(0%,0%,0%)" x1="62.6352" x2="60.5579" y1="59.3168" y2="61.6239" /><line stroke="rgb(0%,0%,0%)" x1="60.5579" x2="60.537" y1="61.6239" y2="61.6472" /><line stroke="rgb(0%,0%,0%)" x1="60.537" x2="58.0254" y1="61.6472" y2="63.472" /><line stroke="rgb(0%,0%,0%)" x1="58.0254" x2="58.0" y1="63.472" y2="63.4904" /><line stroke="rgb(0%,0%,0%)" x1="58.0" x2="55.1639" y1="63.4904" y2="64.7531" /><line stroke="rgb(0%,0%,0%)" x1="55.1639" x2="55.1353" y1="64.7531" y2="64.7658" /><line stroke="rgb(0%,0%,0%)" x1="55.1353" x2="52.0986" y1="64.7658" y2="65.4113" /><line stroke="rgb(0%,0%,0%)" x1="52.0986" x2="52.0679" y1="65.4113" y2="65.4178" /><line stroke="rgb(0%,0%,0%)" x1="52.0679" x2="48.9634" y1="65.4178" y2="65.4178" /><line stroke="rgb(0%,0%,0%)" x1="48.9634" x2="48.9321" y1="65.4178" y2="65.4178" /><line stroke="rgb(0%,0%,0%)" x1="48.9321" x2="45.8954" y1="65.4178" y2="64.7724" /><line stroke="rgb(0%,0%,0%)" x1="45.8954" x2="45.8647" y1="64.7724" y2="64.7658" /><line stroke="rgb(0%,0%,0%)" x1="45.8647" x2="43.0286" y1="64.7658" y2="63.5031" /><line stroke="rgb(0%,0%,0%)" x1="43.0286" x2="43.0" y1="63.5031" y2="63.4904" /><line stroke="rgb(0%,0%,0%)" x1="43.0" x2="40.4884" y1="63.4904" y2="61.6656" /><line stroke="rgb(0%,0%,0%)" x1="40.4884" x2="40.463" y1="61.6656" y2="61.6472" /><line stroke="rgb(0%,0%,0%)" x1="40.463" x2="38.3857" y1="61.6472" y2="59.3401" /><line stroke="rgb(0%,0%,0%)" x1="38.3857" x2="38.3647" y1="59.3401" y2="59.3168" /><line stroke="rgb(0%,0%,0%)" x1="38.3647" x2="36.8125" y1="59.3168" y2="56.6282" /><line stroke="rgb(0%,0%,0%)" x1="36.8125" x2="36.7968" y1="56.6282" y2="56.6011" /><line stroke="rgb(0%,0%,0%)" x1="36.7968" x2="35.8375" y1="56.6011" y2="53.6485" /><line stroke="rgb(0%,0%,0%)" x1="35.8375" x2="35.8278" y1="53.6485" y2="53.6187" /><line stroke="rgb(0%,0%,0%)" x1="35.8278" x2="35.5033" y1="53.6187" y2="50.5312" /><line stroke="rgb(0%,0%,0%)" x1="35.5033" x2="35.5" y1="50.5312" y2="50.5" /><line stroke="rgb(0%,0%,0%)" x1="35.5" x2="35.8245" y1="50.5" y2="47.4125" /><line stroke="rgb(0%,0%,0%)" x1="35.8245" x2="35.8278" y1="47.4125" y2="47.3813" /><line stroke="rgb(0%,0%,0%)" x1="35.8278" x2="36.7871" y1="47.3813" y2="44.4288" /><line stroke="rgb(0%,0%,0%)" x1="36.7871" x2="36.7968" y1="44.4288" y2="44.3989" /><line stroke="rgb(0%,0%,0%)" x1="36.7968" x2="38.3491" y1="44.3989" y2="41.7104" /><line stroke="rgb(0%,0%,0%)" x1="38.3491" x2="38.3647" y1="41.7104" y2="41.6832" /><line stroke="rgb(0%,0%,0%)" x1="38.3647" x2="40.4421" y1="41.6832" y2="39.3761" /><line stroke="rgb(0%,0%,0%)" x1="40.4421" x2="40.463" y1="39.3761" y2="39.3528" /><line stroke="rgb(0%,0%,0%)" x1="40.463" x2="42.9746" y1="39.3528" y2="37.528" /><line stroke="rgb(0%,0%,0%)" x1="42.9746" x2="43.0" y1="37.528" y2="37.5096" /><line stroke="rgb(0%,0%,0%)" x1="43.0" x2="45.8361" y1="37.5096" y2="36.2469" /><line stroke="rgb(0%,0%,0%)" x1="45.8361" x2="45.8647" y1="36.2469" y2="36.2342" /><line stroke="rgb(0%,0%,0%)" x1="45.8647" x2="48.9014" y1="36.2342" y2="35.5887" /><line stroke="rgb(0%,0%,0%)" x1="48.9014" x2="48.9321" y1="35.5887" y2="35.5822" /><line stroke="rgb(0%,0%,0%)" x1="48.9321" x2="52.0366" y1="35.5822" y2="35.5822" /><line stroke="rgb(0%,0%,0%)" x1="52.0366" x2="52.0679" y1="35.5822" y2="35.5822" /><line stroke="rgb(0%,0%,0%)" x1="52.0679" x2="55.1046" y1="35.5822" y2="36.2276" /><line stroke="rgb(0%,0%,0%)" x1="55.1046" x2="55.1353" y1="36.2276" y2="36.2342" /><line stroke="rgb(0%,0%,0%)" x1="55.1353" x2="57.9714" y1="36.2342" y2="37.4969" /><line stroke="rgb(0%,0%,0%)" x1="57.9714" x2="58.0" y1="37.4969" y2="37.5096" /><line stroke="rgb(0%,0%,0%)" x1="58.0" x2="60.5116" y1="37.5096" y2="39.3344" /><line stroke="rgb(0%,0%,0%)" x1="60.5116" x2="60.537" y1="39.3344" y2="39.3528" /><line stroke="rgb(0%,0%,0%)" x1="60.537" x2="62.6143" y1="39.3528" y2="41.6599" /><line stroke="rgb(0%,0%,0%)" x1="62.6143" x2="62.6352" y1="41.6599" y2="41.6832" /><line stroke="rgb(0%,0%,0%)" x1="62.6352" x2="64.1875" y1="41.6832" y2="44.3718" /><line stroke="rgb(0%,0%,0%)" x1="64.1875" x2="64.2032" y1="44.3718" y2="44.3989" /><line stroke="rgb(0%,0%,0%)" x1="64.2032" x2="65.1625" y1="44.3989" y2="47.3515" /><line stroke="rgb(0%,0%,0%)" x1="65.1625" x2="65.1722" y1="47.3515" y2="47.3813" /></svg>