<?xml version="1.0" encoding="utf-8" ?>
<svg baseProfile="tiny" height="100%" version="1.2" width="100%" xmlns="http://www.w3.org/2000/svg" xmlns:ev="http://www.w3.org/2001/xml-events" xmlns:xlink="http://www.w3.org/1999/xlink"><defs /><line stroke="rgb(0%,0%,0%)" x1="351.9" x2="351.9" y1="0.5" y2="8.7084" /><line stroke="rgb(0%,0%,0%)" x1="351.9" x2="351.9" y1="8.7084" y2="100.5" /><line stroke="rgb(0%,0%,0%)" x1="337.6448" x2="348.8825" y1="100.5" y2="100.5" /><line stroke="rgb(0%,0%,0%)" x1="348.8825" x2="349.2744" y1="100.5" y2="100.5" /><line stroke="rgb(0%,0%,0%)" x1="349.2744" x2="349.7222" y1="100.5" y2="100.5" /><line stroke="rgb(0%,0%,0%)" x1="349.7222" x2="350.2191" y1="100.5" y2="100.5" /><line stroke="rgb(0%,0%,0%)" x1="350.2191" x2="350.7558" y1="100.5" y2="100.5" /><line stroke="rgb(0%,0%,0%)" x1="350.7558" x2="351.3207" y1="100.5" y2="100.5" /><line stroke="rgb(0%,0%,0%)" x1="351.3207" x2="351.9" y1="100.5" y2="100.5" /><line stroke="rgb(0%,0%,0%)" x1="337.6448" x2="19.616" y1="100.5" y2="100.5" /><line stroke="rgb(0%,0%,0%)" x1="19.616" x2="0.5" y1="100.5" y2="100.5" /><line stroke="rgb(0%,0%,0%)" x1="0.5" x2="19.616" y1="0.5" y2="0.5" /><line stroke="rgb(0%,0%,0%)" x1="19.616" x2="337.6448" y1="0.5" y2="0.5" /><line stroke="rgb(0%,0%,0%)" x1="337.6448" x2="348.8825" y1="0.5" y2="0.5" /><line stroke="rgb(0%,0%,0%)" x1="348.8825" x2="349.2744" y1="0.5" y2="0.5" /><line stroke="rgb(0%,0%,0%)" x1="349.2744" x2="349.7222" y1="0.5" y2="0.5" /><line stroke="rgb(0%,0%,0%)" x1="349.7222" x2="350.2191" y1="0.5" y2="0.5" /><line stroke="rgb(0%,0%,0%)" x1="350.2191" x2="350.7558" y1="0.5" y2="0.5" /><line stroke="rgb(0%,0%,0%)" x1="350.7558" x2="351.3207" y1="0.5" y2="0.5" /><line stroke="rgb(0%,0%,0%)" x1="351.3207" x2="351.9" y1="0.5" y2="0.5" /><line stroke="rgb(0%,0%,0%)" x1="0.5" x2="0.5" y1="0.5" y2="91.0033" /><line stroke="rgb(0%,0%,0%)" x1="0.5" x2="0.5" y1="91.0033" y2="100.5" /><line stroke="rgb(0%,0%,0%)" x1="165.1722" x2="165.4377" y1="47.3813" y2="49.9077" /><line stroke="rgb(0%,0%,0%)" x1="165.4377" x2="165.5" y1="49.9077" y2="50.5" /><line stroke="rgb(0%,0%,0%)" x1="165.5" x2="165.2345" y1="50.5" y2="53.0263" /><line stroke="rgb(0%,0%,0%)" x1="165.2345" x2="165.1722" y1="53.0263" y2="53.6187" /><line stroke="rgb(0%,0%,0%)" x1="165.1722" x2="164.3872" y1="53.6187" y2="56.0346" /><line stroke="rgb(0%,0%,0%)" x1="164.3872" x2="164.2032" y1="56.0346" y2="56.6011" /><line stroke="rgb(0%,0%,0%)" x1="164.2032" x2="162.9331" y1="56.6011" y2="58.801" /><line stroke="rgb(0%,0%,0%)" x1="162.9331" x2="162.6353" y1="58.801" y2="59.3168" /><line stroke="rgb(0%,0%,0%)" x1="162.6353" x2="160.9355" y1="59.3168" y2="61.2046" /><line stroke="rgb(0%,0%,0%)" x1="160.9355" x2="160.537" y1="61.2046" y2="61.6472" /><line stroke="rgb(0%,0%,0%)" x1="160.537" x2="158.4818" y1="61.6472" y2="63.1403" /><line stroke="rgb(0%,0%,0%)" x1="158.4818" x2="158.0" y1="63.1403" y2="63.4904" /><line stroke="rgb(0%,0%,0%)" x1="158.0" x2="155.6794" y1="63.4904" y2="64.5236" /><line stroke="rgb(0%,0%,0%)" x1="155.6794" x2="155.1353" y1="64.5236" y2="64.7658" /><line stroke="rgb(0%,0%,0%)" x1="155.1353" x2="152.6505" y1="64.7658" y2="65.294" /><line stroke="rgb(0%,0%,0%)" x1="152.6505" x2="152.0679" y1="65.294" y2="65.4178" /><line stroke="rgb(0%,0%,0%)" x1="152.0679" x2="149.5277" y1="65.4178" y2="65.4178" /><line stroke="rgb(0%,0%,0%)" x1="149.5277" x2="148.9321" y1="65.4178" y2="65.4178" /><line stroke="rgb(0%,0%,0%)" x1="148.9321" x2="146.4473" y1="65.4178" y2="64.8897" /><line stroke="rgb(0%,0%,0%)" x1="146.4473" x2="145.8647" y1="64.8897" y2="64.7658" /><line stroke="rgb(0%,0%,0%)" x1="145.8647" x2="143.5441" y1="64.7658" y2="63.7326" /><line stroke="rgb(0%,0%,0%)" x1="143.5441" x2="143.0" y1="63.7326" y2="63.4904" /><line stroke="rgb(0%,0%,0%)" x1="143.0" x2="140.9449" y1="63.4904" y2="61.9973" /><line stroke="rgb(0%,0%,0%)" x1="140.9449" x2="140.463" y1="61.9973" y2="61.6472" /><line stroke="rgb(0%,0%,0%)" x1="140.463" x2="138.7633" y1="61.6472" y2="59.7594" /><line stroke="rgb(0%,0%,0%)" x1="138.7633" x2="138.3647" y1="59.7594" y2="59.3168" /><line stroke="rgb(0%,0%,0%)" x1="138.3647" x2="137.0946" y1="59.3168" y2="57.1169" /><line stroke="rgb(0%,0%,0%)" x1="137.0946" x2="136.7968" y1="57.1169" y2="56.6011" /><line stroke="rgb(0%,0%,0%)" x1="136.7968" x2="136.0118" y1="56.6011" y2="54.1851" /><line stroke="rgb(0%,0%,0%)" x1="136.0118" x2="135.8278" y1="54.1851" y2="53.6187" /><line stroke="rgb(0%,0%,0%)" x1="135.8278" x2="135.5623" y1="53.6187" y2="51.0923" /><line stroke="rgb(0%,0%,0%)" x1="135.5623" x2="135.5" y1="51.0923" y2="50.5" /><line stroke="rgb(0%,0%,0%)" x1="135.5" x2="135.7655" y1="50.5" y2="47.9737" /><line stroke="rgb(0%,0%,0%)" x1="135.7655" x2="135.8278" y1="47.9737" y2="47.3813" /><line stroke="rgb(0%,0%,0%)" x1="135.8278" x2="136.6128" y1="47.3813" y2="44.9654" /><line stroke="rgb(0%,0%,0%)" x1="136.6128" x2="136.7968" y1="44.9654" y2="44.3989" /><line stroke="rgb(0%,0%,0%)" x1="136.7968" x2="138.0669" y1="44.3989" y2="42.199" /><line stroke="rgb(0%,0%,0%)" x1="138.0669" x2="138.3647" y1="42.199" y2="41.6832" /><line stroke="rgb(0%,0%,0%)" x1="138.3647" x2="140.0645" y1="41.6832" y2="39.7954" /><line stroke="rgb(0%,0%,0%)" x1="140.0645" x2="140.463" y1="39.7954" y2="39.3528" /><line stroke="rgb(0%,0%,0%)" x1="140.463" x2="142.5181" y1="39.3528" y2="37.8597" /><line stroke="rgb(0%,0%,0%)" x1="142.5181" x2="143.0" y1="37.8597" y2="37.5096" /><line stroke="rgb(0%,0%,0%)" x1="143.0" x2="145.3206" y1="37.5096" y2="36.4764" /><line stroke="rgb(0%,0%,0%)" x1="145.3206" x2="145.8647" y1="36.4764" y2="36.2342" /><line stroke="rgb(0%,0%,0%)" x1="145.8647" x2="148.3495" y1="36.2342" y2="35.706" /><line stroke="rgb(0%,0%,0%)" x1="148.3495" x2="148.9321" y1="35.706" y2="35.5822" /><line stroke="rgb(0%,0%,0%)" x1="148.9321" x2="151.4723" y1="35.5822" y2="35.5822" /><line stroke="rgb(0%,0%,0%)" x1="151.4723" x2="152.0679" y1="35.5822" y2="35.5822" /><line stroke="rgb(0%,0%,0%)" x1="152.0679" x2="154.5527" y1="35.5822" y2="36.1103" /><line stroke="rgb(0%,0%,0%)" x1="154.5527" x2="155.1353" y1="36.1103" y2="36.2342" /><line stroke="rgb(0%,0%,0%)" x1="155.1353" x2="157.4559" y1="36.2342" y2="37.2674" /><line stroke="rgb(0%,0%,0%)" x1="157.4559" x2="158.0" y1="37.2674" y2="37.5096" /><line stroke="rgb(0%,0%,0%)" x1="158.0" x2="160.0551" y1="37.5096" y2="39.0027" /><line stroke="rgb(0%,0%,0%)" x1="160.0551" x2="160.537" y1="39.0027" y2="39.3528" /><line stroke="rgb(0%,0%,0%)" x1="160.537" x2="162.2367" y1="39.3528" y2="41.2406" /><line stroke="rgb(0%,0%,0%)" x1="162.2367" x2="162.6353" y1="41.2406" y2="41.6832" /><line stroke="rgb(0%,0%,0%)" x1="162.6353" x2="163.9054" y1="41.6832" y2="43.8831" /><line stroke="rgb(0%,0%,0%)" x1="163.9054" x2="164.2032" y1="43.8831" y2="44.3989" /><line stroke="rgb(0%,0%,0%)" x1="164.2032" x2="164.9882" y1="44.3989" y2="46.8149" /><line stroke="rgb(0%,0%,0%)" x1="164.9882" x2="165.1722" y1="46.8149" y2="47.3813" /><line stroke="rgb(0%,0%,0%)" x1="65.1722" x2="65.4377" y1="47.3813" y2="49.9077" /><line stroke="rgb(0%,0%,0%)" x1="65.4377" x2="65.5" y1="49.9077" y2="50.5" /><line stroke="rgb(0%,0%,0%)" x1="65.5" x2="65.2345" y1="50.5" y2="53.0263" /><line stroke="rgb(0%,0%,0%)" x1="65.2345" x2="65.1722" y1="53.0263" y2="53.6187" /><line stroke="rgb(0%,0%,0%)" x1="65.1722" x2="64.3872" y1="53.6187" y2="56.0346" /><line stroke="rgb(0%,0%,0%)" x1="64.3872" x2="64.2032" y1="56.0346" y2="56.6011" /><line stroke="rgb(0%,0%,0%)" x1="64.2032" x2="62.933" y1="56.6011" y2="58.801" /><line stroke="rgb(0%,0%,0%)" x1="62.933" x2="62.6352" y1="58.801" y2="59.3168" /><line stroke="rgb(0%,0%,0%)" x1="62.6352" x2="60.9355" y1="59.3168" y2="61.2046" /><line stroke="rgb(0%,0%,0%)" x1="60.9355" x2="60.537" y1="61.2046" y2="61.6472" /><line stroke="rgb(0%,0%,0%)" x1="60.537" x2="58.4819" y1="61.6472" y2="63.1403" /><line stroke="rgb(0%,0%,0%)" x1="58.4819" x2="58.0" y1="63.1403" y2="63.4904" /><line stroke="rgb(0%,0%,0%)" x1="58.0" x2="55.6794" y1="63.4904" y2="64.5236" /><line stroke="rgb(0%,0%,0%)" x1="55.6794" x2="55.1353" y1="64.5236" y2="64.7658" /><line stroke="rgb(0%,0%,0%)" x1="55.1353" x2="52.6505" y1="64.7658" y2="65.294" /><line stroke="rgb(0%,0%,0%)" x1="52.6505" x2="52.0679" y1="65.294" y2="65.4178" /><line stroke="rgb(0%,0%,0%)" x1="52.0679" x2="49.5277" y1="65.4178" y2="65.4178" /><line stroke="rgb(0%,0%,0%)" x1="49.5277" x2="48.9321" y1="65.4178" y2="65.4178" /><line stroke="rgb(0%,0%,0%)" x1="48.9321" x2="46.4473" y1="65.4178" y2="64.8897" /><line stroke="rgb(0%,0%,0%)" x1="46.4473" x2="45.8647" y1="64.8897" y2="64.7658" /><line stroke="rgb(0%,0%,0%)" x1="45.8647" x2="43.5441" y1="64.7658" y2="63.7326" /><line stroke="rgb(0%,0%,0%)" x1="43.5441" x2="43.0" y1="63.7326" y2="63.4904" /><line stroke="rgb(0%,0%,0%)" x1="43.0" x2="40.9449" y1="63.4904" y2="61.9973" /><line stroke="rgb(0%,0%,0%)" x1="40.9449" x2="40.463" y1="61.9973" y2="61.6472" /><line stroke="rgb(0%,0%,0%)" x1="40.463" x2="38.7633" y1="61.6472" y2="59.7594" /><line stroke="rgb(0%,0%,0%)" x1="38.7633" x2="38.3647" y1="59.7594" y2="59.3168" /><line stroke="rgb(0%,0%,0%)" x1="38.3647" x2="37.0946" y1="59.3168" y2="57.1169" /><line stroke="rgb(0%,0%,0%)" x1="37.0946" x2="36.7968" y1="57.1169" y2="56.6011" /><line stroke="rgb(0%,0%,0%)" x1="36.7968" x2="36.0118" y1="56.6011" y2="54.1851" /><line stroke="rgb(0%,0%,0%)" x1="36.0118" x2="35.8278" y1="54.1851" y2="53.6187" /><line stroke="rgb(0%,0%,0%)" x1="35.8278" x2="35.5623" y1="53.6187" y2="51.0923" /><line stroke="rgb(0%,0%,0%)" x1="35.5623" x2="35.5" y1="51.0923" y2="50.5" /><line stroke="rgb(0%,0%,0%)" x1="35.5" x2="35.7655" y1="50.5" y2="47.9737" /><line stroke="rgb(0%,0%,0%)" x1="35.7655" x2="35.8278" y1="47.9737" y2="47.3813" /><line stroke="rgb(0%,0%,0%)" x1="35.8278" x2="36.6128" y1="47.3813" y2="44.9654" /><line stroke="rgb(0%,0%,0%)" x1="36.6128" x2="36.7968" y1="44.9654" y2="44.3989" /><line stroke="rgb(0%,0%,0%)" x1="36.7968" x2="38.0669" y1="44.3989" y2="42.199" /><line stroke="rgb(0%,0%,0%)" x1="38.0669" x2="38.3647" y1="42.199" y2="41.6832" /><line stroke="rgb(0%,0%,0%)" x1="38.3647" x2="40.0645" y1="41.6832" y2="39.7954" /><line stroke="rgb(0%,0%,0%)" x1="40.0645" x2="40.463" y1="39.7954" y2="39.3528" /><line stroke="rgb(0%,0%,0%)" x1="40.463" x2="42.5181" y1="39.3528" y2="37.8597" /><line stroke="rgb(0%,0%,0%)" x1="42.5181" x2="43.0" y1="37.8597" y2="37.5096" /><line stroke="rgb(0%,0%,0%)" x1="43.0" x2="45.3206" y1="37.5096" y2="36.4764" /><line stroke="rgb(0%,0%,0%)" x1="45.3206" x2="45.8647" y1="36.4764" y2="36.2342" /><line stroke="rgb(0%,0%,0%)" x1="45.8647" x2="48.3495" y1="36.2342" y2="35.706" /><line stroke="rgb(0%,0%,0%)" x1="48.3495" x2="48.9321" y1="35.706" y2="35.5822" /><line stroke="rgb(0%,0%,0%)" x1="48.9321" x2="51.4723" y1="35.5822" y2="35.5822" /><line stroke="rgb(0%,0%,0%)" x1="51.4723" x2="52.0679" y1="35.5822" y2="35.5822" /><line stroke="rgb(0%,0%,0%)" x1="52.0679" x2="54.5527" y1="35.5822" y2="36.1103" /><line stroke="rgb(0%,0%,0%)" x1="54.5527" x2="55.1353" y1="36.1103" y2="36.2342" /><line stroke="rgb(0%,0%,0%)" x1="55.1353" x2="57.4559" y1="36.2342" y2="37.2674" /><line stroke="rgb(0%,0%,0%)" x1="57.4559" x2="58.0" y1="37.2674" y2="37.5096" /><line stroke="rgb(0%,0%,0%)" x1="58.0" x2="60.0551" y1="37.5096" y2="39.0027" /><line stroke="rgb(0%,0%,0%)" x1="60.0551" x2="60.537" y1="39.0027" y2="39.3528" /><line stroke="rgb(0%,0%,0%)" x1="60.537" x2="62.2367" y1="39.3528" y2="41.2406" /><line stroke="rgb(0%,0%,0%)" x1="62.2367" x2="62.6352" y1="41.2406" y2="41.6832" /><line stroke="rgb(0%,0%,0%)" x1="62.6352" x2="63.9054" y1="41.6832" y2="43.8831" /><line stroke="rgb(0%,0%,0%)" x1="63.9054" x2="64.2032" y1="43.8831" y2="44.3989" /><line stroke="rgb(0%,0%,0%)" x1="64.2032" x2="64.9882" y1="44.3989" y2="46.8149" /><line stroke="rgb(0%,0%,0%)" x1="64.9882" x2="65.1722" y1="46.8149" y2="47.3813" /></svg>