<?xml version="1.0" encoding="utf-8" ?>
<svg baseProfile="tiny" height="100%" version="1.2" width="100%" xmlns="http://www.w3.org/2000/svg" xmlns:ev="http://www.w3.org/2001/xml-events" xmlns:xlink="http://www.w3.org/1999/xlink"><defs /><line stroke="rgb(0%,0%,0%)" x1="351.9" x2="351.9" y1="0.5" y2="86.4721" /><line stroke="rgb(0%,0%,0%)" x1="351.9" x2="351.9" y1="86.4721" y2="100.5" /><line stroke="rgb(0%,0%,0%)" x1="202.5953" x2="320.2959" y1="100.5" y2="100.5" /><line stroke="rgb(0%,0%,0%)" x1="320.2959" x2="324.4008" y1="100.5" y2="100.5" /><line stroke="rgb(0%,0%,0%)" x1="324.4008" x2="329.0903" y1="100.5" y2="100.5" /><line stroke="rgb(0%,0%,0%)" x1="329.0903" x2="334.2949" y1="100.5" y2="100.5" /><line stroke="rgb(0%,0%,0%)" x1="334.2949" x2="339.9166" y1="100.5" y2="100.5" /><line stroke="rgb(0%,0%,0%)" x1="339.9166" x2="345.8322" y1="100.5" y2="100.5" /><line stroke="rgb(0%,0%,0%)" x1="345.8322" x2="351.9" y1="100.5" y2="100.5" /><line stroke="rgb(0%,0%,0%)" x1="202.5953" x2="200.7154" y1="100.5" y2="100.5" /><line stroke="rgb(0%,0%,0%)" x1="200.7154" x2="0.5" y1="100.5" y2="100.5" /><line stroke="rgb(0%,0%,0%)" x1="0.5" x2="200.7154" y1="0.5" y2="0.5" /><line stroke="rgb(0%,0%,0%)" x1="200.7154" x2="202.5953" y1="0.5" y2="0.5" /><line stroke="rgb(0%,0%,0%)" x1="202.5953" x2="320.2959" y1="0.5" y2="0.5" /><line stroke="rgb(0%,0%,0%)" x1="320.2959" x2="324.4008" y1="0.5" y2="0.5" /><line stroke="rgb(0%,0%,0%)" x1="324.4008" x2="329.0903" y1="0.5" y2="0.5" /><line stroke="rgb(0%,0%,0%)" x1="329.0903" x2="334.2949" y1="0.5" y2="0.5" /><line stroke="rgb(0%,0%,0%)" x1="334.2949" x2="339.9166" y1="0.5" y2="0.5" /><line stroke="rgb(0%,0%,0%)" x1="339.9166" x2="345.8322" y1="0.5" y2="0.5" /><line stroke="rgb(0%,0%,0%)" x1="345.8322" x2="351.9" y1="0.5" y2="0.5" /><line stroke="rgb(0%,0%,0%)" x1="0.5" x2="0.5" y1="0.5" y2="1.035" /><line stroke="rgb(0%,0%,0%)" x1="0.5" x2="0.5" y1="1.035" y2="100.5" /><line stroke="rgb(0%,0%,0%)" x1="135.8278" x2="135.5035" y1="47.3813" y2="50.4666" /><line stroke="rgb(0%,0%,0%)" x1="135.5035" x2="135.5" y1="50.4666" y2="50.5" /><line stroke="rgb(0%,0%,0%)" x1="135.5" x2="135.8243" y1="50.5" y2="53.5853" /><line stroke="rgb(0%,0%,0%)" x1="135.8243" x2="135.8278" y1="53.5853" y2="53.6187" /><line stroke="rgb(0%,0%,0%)" x1="135.8278" x2="136.7864" y1="53.6187" y2="56.5691" /><line stroke="rgb(0%,0%,0%)" x1="136.7864" x2="136.7968" y1="56.5691" y2="56.6011" /><line stroke="rgb(0%,0%,0%)" x1="136.7968" x2="138.348" y1="56.6011" y2="59.2877" /><line stroke="rgb(0%,0%,0%)" x1="138.348" x2="138.3647" y1="59.2877" y2="59.3168" /><line stroke="rgb(0%,0%,0%)" x1="138.3647" x2="140.4406" y1="59.3168" y2="61.6222" /><line stroke="rgb(0%,0%,0%)" x1="140.4406" x2="140.463" y1="61.6222" y2="61.6472" /><line stroke="rgb(0%,0%,0%)" x1="140.463" x2="142.9729" y1="61.6472" y2="63.4707" /><line stroke="rgb(0%,0%,0%)" x1="142.9729" x2="143.0" y1="63.4707" y2="63.4904" /><line stroke="rgb(0%,0%,0%)" x1="143.0" x2="145.8341" y1="63.4904" y2="64.7522" /><line stroke="rgb(0%,0%,0%)" x1="145.8341" x2="145.8647" y1="64.7522" y2="64.7658" /><line stroke="rgb(0%,0%,0%)" x1="145.8647" x2="148.8992" y1="64.7658" y2="65.4109" /><line stroke="rgb(0%,0%,0%)" x1="148.8992" x2="148.9321" y1="65.4109" y2="65.4178" /><line stroke="rgb(0%,0%,0%)" x1="148.9321" x2="152.0344" y1="65.4178" y2="65.4178" /><line stroke="rgb(0%,0%,0%)" x1="152.0344" x2="152.0679" y1="65.4178" y2="65.4178" /><line stroke="rgb(0%,0%,0%)" x1="152.0679" x2="155.1024" y1="65.4178" y2="64.7728" /><line stroke="rgb(0%,0%,0%)" x1="155.1024" x2="155.1353" y1="64.7728" y2="64.7658" /><line stroke="rgb(0%,0%,0%)" x1="155.1353" x2="157.9693" y1="64.7658" y2="63.504" /><line stroke="rgb(0%,0%,0%)" x1="157.9693" x2="158.0" y1="63.504" y2="63.4904" /><line stroke="rgb(0%,0%,0%)" x1="158.0" x2="160.5098" y1="63.4904" y2="61.6669" /><line stroke="rgb(0%,0%,0%)" x1="160.5098" x2="160.537" y1="61.6669" y2="61.6472" /><line stroke="rgb(0%,0%,0%)" x1="160.537" x2="162.6128" y1="61.6472" y2="59.3417" /><line stroke="rgb(0%,0%,0%)" x1="162.6128" x2="162.6353" y1="59.3417" y2="59.3168" /><line stroke="rgb(0%,0%,0%)" x1="162.6353" x2="164.1864" y1="59.3168" y2="56.6301" /><line stroke="rgb(0%,0%,0%)" x1="164.1864" x2="164.2032" y1="56.6301" y2="56.6011" /><line stroke="rgb(0%,0%,0%)" x1="164.2032" x2="165.1618" y1="56.6011" y2="53.6506" /><line stroke="rgb(0%,0%,0%)" x1="165.1618" x2="165.1722" y1="53.6506" y2="53.6187" /><line stroke="rgb(0%,0%,0%)" x1="165.1722" x2="165.4965" y1="53.6187" y2="50.5334" /><line stroke="rgb(0%,0%,0%)" x1="165.4965" x2="165.5" y1="50.5334" y2="50.5" /><line stroke="rgb(0%,0%,0%)" x1="165.5" x2="165.1757" y1="50.5" y2="47.4147" /><line stroke="rgb(0%,0%,0%)" x1="165.1757" x2="165.1722" y1="47.4147" y2="47.3813" /><line stroke="rgb(0%,0%,0%)" x1="165.1722" x2="164.2135" y1="47.3813" y2="44.4309" /><line stroke="rgb(0%,0%,0%)" x1="164.2135" x2="164.2032" y1="44.4309" y2="44.3989" /><line stroke="rgb(0%,0%,0%)" x1="164.2032" x2="162.652" y1="44.3989" y2="41.7123" /><line stroke="rgb(0%,0%,0%)" x1="162.652" x2="162.6353" y1="41.7123" y2="41.6832" /><line stroke="rgb(0%,0%,0%)" x1="162.6353" x2="160.5594" y1="41.6832" y2="39.3778" /><line stroke="rgb(0%,0%,0%)" x1="160.5594" x2="160.537" y1="39.3778" y2="39.3528" /><line stroke="rgb(0%,0%,0%)" x1="160.537" x2="158.0271" y1="39.3528" y2="37.5293" /><line stroke="rgb(0%,0%,0%)" x1="158.0271" x2="158.0" y1="37.5293" y2="37.5096" /><line stroke="rgb(0%,0%,0%)" x1="158.0" x2="155.1659" y1="37.5096" y2="36.2478" /><line stroke="rgb(0%,0%,0%)" x1="155.1659" x2="155.1353" y1="36.2478" y2="36.2342" /><line stroke="rgb(0%,0%,0%)" x1="155.1353" x2="152.1007" y1="36.2342" y2="35.5891" /><line stroke="rgb(0%,0%,0%)" x1="152.1007" x2="152.0679" y1="35.5891" y2="35.5822" /><line stroke="rgb(0%,0%,0%)" x1="152.0679" x2="148.9656" y1="35.5822" y2="35.5822" /><line stroke="rgb(0%,0%,0%)" x1="148.9656" x2="148.9321" y1="35.5822" y2="35.5822" /><line stroke="rgb(0%,0%,0%)" x1="148.9321" x2="145.8976" y1="35.5822" y2="36.2272" /><line stroke="rgb(0%,0%,0%)" x1="145.8976" x2="145.8647" y1="36.2272" y2="36.2342" /><line stroke="rgb(0%,0%,0%)" x1="145.8647" x2="143.0306" y1="36.2342" y2="37.496" /><line stroke="rgb(0%,0%,0%)" x1="143.0306" x2="143.0" y1="37.496" y2="37.5096" /><line stroke="rgb(0%,0%,0%)" x1="143.0" x2="140.4902" y1="37.5096" y2="39.3331" /><line stroke="rgb(0%,0%,0%)" x1="140.4902" x2="140.463" y1="39.3331" y2="39.3528" /><line stroke="rgb(0%,0%,0%)" x1="140.463" x2="138.3872" y1="39.3528" y2="41.6583" /><line stroke="rgb(0%,0%,0%)" x1="138.3872" x2="138.3647" y1="41.6583" y2="41.6832" /><line stroke="rgb(0%,0%,0%)" x1="138.3647" x2="136.8136" y1="41.6832" y2="44.3699" /><line stroke="rgb(0%,0%,0%)" x1="136.8136" x2="136.7968" y1="44.3699" y2="44.3989" /><line stroke="rgb(0%,0%,0%)" x1="136.7968" x2="135.8382" y1="44.3989" y2="47.3494" /><line stroke="rgb(0%,0%,0%)" x1="135.8382" x2="135.8278" y1="47.3494" y2="47.3813" /><line stroke="rgb(0%,0%,0%)" x1="35.8278" x2="35.5035" y1="47.3813" y2="50.4666" /><line stroke="rgb(0%,0%,0%)" x1="35.5035" x2="35.5" y1="50.4666" y2="50.5" /><line stroke="rgb(0%,0%,0%)" x1="35.5" x2="35.8243" y1="50.5" y2="53.5853" /><line stroke="rgb(0%,0%,0%)" x1="35.8243" x2="35.8278" y1="53.5853" y2="53.6187" /><line stroke="rgb(0%,0%,0%)" x1="35.8278" x2="36.7864" y1="53.6187" y2="56.5691" /><line stroke="rgb(0%,0%,0%)" x1="36.7864" x2="36.7968" y1="56.5691" y2="56.6011" /><line stroke="rgb(0%,0%,0%)" x1="36.7968" x2="38.348" y1="56.6011" y2="59.2877" /><line stroke="rgb(0%,0%,0%)" x1="38.348" x2="38.3647" y1="59.2877" y2="59.3168" /><line stroke="rgb(0%,0%,0%)" x1="38.3647" x2="40.4406" y1="59.3168" y2="61.6222" /><line stroke="rgb(0%,0%,0%)" x1="40.4406" x2="40.463" y1="61.6222" y2="61.6472" /><line stroke="rgb(0%,0%,0%)" x1="40.463" x2="42.9729" y1="61.6472" y2="63.4707" /><line stroke="rgb(0%,0%,0%)" x1="42.9729" x2="43.0" y1="63.4707" y2="63.4904" /><line stroke="rgb(0%,0%,0%)" x1="43.0" x2="45.8341" y1="63.4904" y2="64.7522" /><line stroke="rgb(0%,0%,0%)" x1="45.8341" x2="45.8647" y1="64.7522" y2="64.7658" /><line stroke="rgb(0%,0%,0%)" x1="45.8647" x2="48.8992" y1="64.7658" y2="65.4109" /><line stroke="rgb(0%,0%,0%)" x1="48.8992" x2="48.9321" y1="65.4109" y2="65.4178" /><line stroke="rgb(0%,0%,0%)" x1="48.9321" x2="52.0344" y1="65.4178" y2="65.4178" /><line stroke="rgb(0%,0%,0%)" x1="52.0344" x2="52.0679" y1="65.4178" y2="65.4178" /><line stroke="rgb(0%,0%,0%)" x1="52.0679" x2="55.1024" y1="65.4178" y2="64.7728" /><line stroke="rgb(0%,0%,0%)" x1="55.1024" x2="55.1353" y1="64.7728" y2="64.7658" /><line stroke="rgb(0%,0%,0%)" x1="55.1353" x2="57.9693" y1="64.7658" y2="63.504" /><line stroke="rgb(0%,0%,0%)" x1="57.9693" x2="58.0" y1="63.504" y2="63.4904" /><line stroke="rgb(0%,0%,0%)" x1="58.0" x2="60.5098" y1="63.4904" y2="61.6669" /><line stroke="rgb(0%,0%,0%)" x1="60.5098" x2="60.537" y1="61.6669" y2="61.6472" /><line stroke="rgb(0%,0%,0%)" x1="60.537" x2="62.6128" y1="61.6472" y2="59.3417" /><line stroke="rgb(0%,0%,0%)" x1="62.6128" x2="62.6352" y1="59.3417" y2="59.3168" /><line stroke="rgb(0%,0%,0%)" x1="62.6352" x2="64.1864" y1="59.3168" y2="56.6301" /><line stroke="rgb(0%,0%,0%)" x1="64.1864" x2="64.2032" y1="56.6301" y2="56.6011" /><line stroke="rgb(0%,0%,0%)" x1="64.2032" x2="65.1618" y1="56.6011" y2="53.6506" /><line stroke="rgb(0%,0%,0%)" x1="65.1618" x2="65.1722" y1="53.6506" y2="53.6187" /><line stroke="rgb(0%,0%,0%)" x1="65.1722" x2="65.4965" y1="53.6187" y2="50.5334" /><line stroke="rgb(0%,0%,0%)" x1="65.4965" x2="65.5" y1="50.5334" y2="50.5" /><line stroke="rgb(0%,0%,0%)" x1="65.5" x2="65.1757" y1="50.5" y2="47.4147" /><line stroke="rgb(0%,0%,0%)" x1="65.1757" x2="65.1722" y1="47.4147" y2="47.3813" /><line stroke="rgb(0%,0%,0%)" x1="65.1722" x2="64.2135" y1="47.3813" y2="44.4309" /><line stroke="rgb(0%,0%,0%)" x1="64.2135" x2="64.2032" y1="44.4309" y2="44.3989" /><line stroke="rgb(0%,0%,0%)" x1="64.2032" x2="62.652" y1="44.3989" y2="41.7123" /><line stroke="rgb(0%,0%,0%)" x1="62.652" x2="62.6352" y1="41.7123" y2="41.6832" /><line stroke="rgb(0%,0%,0%)" x1="62.6352" x2="60.5594" y1="41.6832" y2="39.3778" /><line stroke="rgb(0%,0%,0%)" x1="60.5594" x2="60.537" y1="39.3778" y2="39.3528" /><line stroke="rgb(0%,0%,0%)" x1="60.537" x2="58.0271" y1="39.3528" y2="37.5293" /><line stroke="rgb(0%,0%,0%)" x1="58.0271" x2="58.0" y1="37.5293" y2="37.5096" /><line stroke="rgb(0%,0%,0%)" x1="58.0" x2="55.1659" y1="37.5096" y2="36.2478" /><line stroke="rgb(0%,0%,0%)" x1="55.1659" x2="55.1353" y1="36.2478" y2="36.2342" /><line stroke="rgb(0%,0%,0%)" x1="55.1353" x2="52.1007" y1="36.2342" y2="35.5891" /><line stroke="rgb(0%,0%,0%)" x1="52.1007" x2="52.0679" y1="35.5891" y2="35.5822" /><line stroke="rgb(0%,0%,0%)" x1="52.0679" x2="48.9656" y1="35.5822" y2="35.5822" /><line stroke="rgb(0%,0%,0%)" x1="48.9656" x2="48.9321" y1="35.5822" y2="35.5822" /><line stroke="rgb(0%,0%,0%)" x1="48.9321" x2="45.8976" y1="35.5822" y2="36.2272" /><line stroke="rgb(0%,0%,0%)" x1="45.8976" x2="45.8647" y1="36.2272" y2="36.2342" /><line stroke="rgb(0%,0%,0%)" x1="45.8647" x2="43.0307" y1="36.2342" y2="37.496" /><line stroke="rgb(0%,0%,0%)" x1="43.0307" x2="43.0" y1="37.496" y2="37.5096" /><line stroke="rgb(0%,0%,0%)" x1="43.0" x2="40.4902" y1="37.5096" y2="39.3331" /><line stroke="rgb(0%,0%,0%)" x1="40.4902" x2="40.463" y1="39.3331" y2="39.3528" /><line stroke="rgb(0%,0%,0%)" x1="40.463" x2="38.3872" y1="39.3528" y2="41.6583" /><line stroke="rgb(0%,0%,0%)" x1="38.3872" x2="38.3647" y1="41.6583" y2="41.6832" /><line stroke="rgb(0%,0%,0%)" x1="38.3647" x2="36.8136" y1="41.6832" y2="44.3699" /><line stroke="rgb(0%,0%,0%)" x1="36.8136" x2="36.7968" y1="44.3699" y2="44.3989" /><line stroke="rgb(0%,0%,0%)" x1="36.7968" x2="35.8381" y1="44.3989" y2="47.3494" /><line stroke="rgb(0%,0%,0%)" x1="35.8381" x2="35.8278" y1="47.3494" y2="47.3813" /></svg>