<?xml version="1.0" encoding="utf-8" ?>
<svg baseProfile="tiny" height="100%" version="1.2" width="100%" xmlns="http://www.w3.org/2000/svg" xmlns:ev="http://www.w3.org/2001/xml-events" xmlns:xlink="http://www.w3.org/1999/xlink"><defs /><line stroke="rgb(0%,0%,0%)" x1="351.9" x2="351.9" y1="0.5" y2="87.3362" /><line stroke="rgb(0%,0%,0%)" x1="351.9" x2="351.9" y1="87.3362" y2="100.5" /><line stroke="rgb(0%,0%,0%)" x1="201.7923" x2="202.6882" y1="100.5" y2="100.5" /><line stroke="rgb(0%,0%,0%)" x1="202.6882" x2="202.86" y1="100.5" y2="100.5" /><line stroke="rgb(0%,0%,0%)" x1="202.86" x2="203.0751" y1="100.5" y2="100.5" /><line stroke="rgb(0%,0%,0%)" x1="203.0751" x2="203.3426" y1="100.5" y2="100.5" /><line stroke="rgb(0%,0%,0%)" x1="203.3426" x2="203.6707" y1="100.5" y2="100.5" /><line stroke="rgb(0%,0%,0%)" x1="203.6707" x2="319.9783" y1="100.5" y2="100.5" /><line stroke="rgb(0%,0%,0%)" x1="319.9783" x2="324.1244" y1="100.5" y2="100.5" /><line stroke="rgb(0%,0%,0%)" x1="324.1244" x2="328.8611" y1="100.5" y2="100.5" /><line stroke="rgb(0%,0%,0%)" x1="328.8611" x2="334.1179" y1="100.5" y2="100.5" /><line stroke="rgb(0%,0%,0%)" x1="334.1179" x2="339.7961" y1="100.5" y2="100.5" /><line stroke="rgb(0%,0%,0%)" x1="339.7961" x2="345.7713" y1="100.5" y2="100.5" /><line stroke="rgb(0%,0%,0%)" x1="345.7713" x2="351.9" y1="100.5" y2="100.5" /><line stroke="rgb(0%,0%,0%)" x1="202.6882" x2="201.7923" y1="0.5" y2="0.5" /><line stroke="rgb(0%,0%,0%)" x1="203.6707" x2="319.9783" y1="0.5" y2="0.5" /><line stroke="rgb(0%,0%,0%)" x1="319.9783" x2="324.1244" y1="0.5" y2="0.5" /><line stroke="rgb(0%,0%,0%)" x1="324.1244" x2="328.8611" y1="0.5" y2="0.5" /><line stroke="rgb(0%,0%,0%)" x1="328.8611" x2="334.1179" y1="0.5" y2="0.5" /><line stroke="rgb(0%,0%,0%)" x1="334.1179" x2="339.7961" y1="0.5" y2="0.5" /><line stroke="rgb(0%,0%,0%)" x1="339.7961" x2="345.7713" y1="0.5" y2="0.5" /><line stroke="rgb(0%,0%,0%)" x1="345.7713" x2="351.9" y1="0.5" y2="0.5" /><line stroke="rgb(0%,0%,0%)" x1="203.6707" x2="203.3426" y1="0.5" y2="0.5" /><line stroke="rgb(0%,0%,0%)" x1="203.3426" x2="203.0751" y1="0.5" y2="0.5" /><line stroke="rgb(0%,0%,0%)" x1="203.0751" x2="202.86" y1="0.5" y2="0.5" /><line stroke="rgb(0%,0%,0%)" x1="202.86" x2="202.6882" y1="0.5" y2="0.5" /><line stroke="rgb(0%,0%,0%)" x1="201.7923" x2="201.7923" y1="100.5" y2="97.5394" /><line stroke="rgb(0%,0%,0%)" x1="201.7923" x2="201.7923" y1="97.5394" y2="0.5" /></svg>