<?xml version="1.0" encoding="utf-8" ?>
<svg baseProfile="tiny" height="100%" version="1.2" width="100%" xmlns="http://www.w3.org/2000/svg" xmlns:ev="http://www.w3.org/2001/xml-events" xmlns:xlink="http://www.w3.org/1999/xlink"><defs /><line stroke="rgb(0%,0%,0%)" x1="351.9" x2="351.9" y1="0.5" y2="88.2002" /><line stroke="rgb(0%,0%,0%)" x1="351.9" x2="351.9" y1="88.2002" y2="100.5" /><line stroke="rgb(0%,0%,0%)" x1="201.7923" x2="204.6158" y1="100.5" y2="100.5" /><line stroke="rgb(0%,0%,0%)" x1="204.6158" x2="205.1572" y1="100.5" y2="100.5" /><line stroke="rgb(0%,0%,0%)" x1="205.1572" x2="205.8351" y1="100.5" y2="100.5" /><line stroke="rgb(0%,0%,0%)" x1="205.8351" x2="206.6779" y1="100.5" y2="100.5" /><line stroke="rgb(0%,0%,0%)" x1="206.6779" x2="207.7119" y1="100.5" y2="100.5" /><line stroke="rgb(0%,0%,0%)" x1="207.7119" x2="319.6607" y1="100.5" y2="100.5" /><line stroke="rgb(0%,0%,0%)" x1="319.6607" x2="323.848" y1="100.5" y2="100.5" /><line stroke="rgb(0%,0%,0%)" x1="323.848" x2="328.6318" y1="100.5" y2="100.5" /><line stroke="rgb(0%,0%,0%)" x1="328.6318" x2="333.941" y1="100.5" y2="100.5" /><line stroke="rgb(0%,0%,0%)" x1="333.941" x2="339.6757" y1="100.5" y2="100.5" /><line stroke="rgb(0%,0%,0%)" x1="339.6757" x2="345.7103" y1="100.5" y2="100.5" /><line stroke="rgb(0%,0%,0%)" x1="345.7103" x2="351.9" y1="100.5" y2="100.5" /><line stroke="rgb(0%,0%,0%)" x1="204.6158" x2="201.7923" y1="0.5" y2="0.5" /><line stroke="rgb(0%,0%,0%)" x1="207.7119" x2="319.6607" y1="0.5" y2="0.5" /><line stroke="rgb(0%,0%,0%)" x1="319.6607" x2="323.848" y1="0.5" y2="0.5" /><line stroke="rgb(0%,0%,0%)" x1="323.848" x2="328.6318" y1="0.5" y2="0.5" /><line stroke="rgb(0%,0%,0%)" x1="328.6318" x2="333.941" y1="0.5" y2="0.5" /><line stroke="rgb(0%,0%,0%)" x1="333.941" x2="339.6757" y1="0.5" y2="0.5" /><line stroke="rgb(0%,0%,0%)" x1="339.6757" x2="345.7103" y1="0.5" y2="0.5" /><line stroke="rgb(0%,0%,0%)" x1="345.7103" x2="351.9" y1="0.5" y2="0.5" /><line stroke="rgb(0%,0%,0%)" x1="207.7119" x2="206.6779" y1="0.5" y2="0.5" /><line stroke="rgb(0%,0%,0%)" x1="206.6779" x2="205.8351" y1="0.5" y2="0.5" /><line stroke="rgb(0%,0%,0%)" x1="205.8351" x2="205.1572" y1="0.5" y2="0.5" /><line stroke="rgb(0%,0%,0%)" x1="205.1572" x2="204.6158" y1="0.5" y2="0.5" /><line stroke="rgb(0%,0%,0%)" x1="201.7923" x2="201.7923" y1="100.5" y2="91.1699" /><line stroke="rgb(0%,0%,0%)" x1="201.7923" x2="201.7923" y1="91.1699" y2="0.5" /></svg>