<?xml version="1.0" encoding="utf-8" ?>
<svg baseProfile="tiny" height="100%" version="1.2" width="100%" xmlns="http://www.w3.org/2000/svg" xmlns:ev="http://www.w3.org/2001/xml-events" xmlns:xlink="http://www.w3.org/1999/xlink"><defs /><line stroke="rgb(0%,0%,0%)" x1="351.9" x2="351.9" y1="0.5" y2="89.0642" /><line stroke="rgb(0%,0%,0%)" x1="351.9" x2="351.9" y1="89.0642" y2="100.5" /><line stroke="rgb(0%,0%,0%)" x1="201.7923" x2="206.5433" y1="100.5" y2="100.5" /><line stroke="rgb(0%,0%,0%)" x1="206.5433" x2="207.4543" y1="100.5" y2="100.5" /><line stroke="rgb(0%,0%,0%)" x1="207.4543" x2="208.595" y1="100.5" y2="100.5" /><line stroke="rgb(0%,0%,0%)" x1="208.595" x2="210.0132" y1="100.5" y2="100.5" /><line stroke="rgb(0%,0%,0%)" x1="210.0132" x2="211.7532" y1="100.5" y2="100.5" /><line stroke="rgb(0%,0%,0%)" x1="211.7532" x2="319.3431" y1="100.5" y2="100.5" /><line stroke="rgb(0%,0%,0%)" x1="319.3431" x2="323.5717" y1="100.5" y2="100.5" /><line stroke="rgb(0%,0%,0%)" x1="323.5717" x2="328.4026" y1="100.5" y2="100.5" /><line stroke="rgb(0%,0%,0%)" x1="328.4026" x2="333.7641" y1="100.5" y2="100.5" /><line stroke="rgb(0%,0%,0%)" x1="333.7641" x2="339.5553" y1="100.5" y2="100.5" /><line stroke="rgb(0%,0%,0%)" x1="339.5553" x2="345.6493" y1="100.5" y2="100.5" /><line stroke="rgb(0%,0%,0%)" x1="345.6493" x2="351.9" y1="100.5" y2="100.5" /><line stroke="rgb(0%,0%,0%)" x1="206.5433" x2="201.7923" y1="0.5" y2="0.5" /><line stroke="rgb(0%,0%,0%)" x1="211.7532" x2="319.3431" y1="0.5" y2="0.5" /><line stroke="rgb(0%,0%,0%)" x1="319.3431" x2="323.5717" y1="0.5" y2="0.5" /><line stroke="rgb(0%,0%,0%)" x1="323.5717" x2="328.4026" y1="0.5" y2="0.5" /><line stroke="rgb(0%,0%,0%)" x1="328.4026" x2="333.7641" y1="0.5" y2="0.5" /><line stroke="rgb(0%,0%,0%)" x1="333.7641" x2="339.5553" y1="0.5" y2="0.5" /><line stroke="rgb(0%,0%,0%)" x1="339.5553" x2="345.6493" y1="0.5" y2="0.5" /><line stroke="rgb(0%,0%,0%)" x1="345.6493" x2="351.9" y1="0.5" y2="0.5" /><line stroke="rgb(0%,0%,0%)" x1="211.7532" x2="210.0132" y1="0.5" y2="0.5" /><line stroke="rgb(0%,0%,0%)" x1="210.0132" x2="208.595" y1="0.5" y2="0.5" /><line stroke="rgb(0%,0%,0%)" x1="208.595" x2="207.4543" y1="0.5" y2="0.5" /><line stroke="rgb(0%,0%,0%)" x1="207.4543" x2="206.5433" y1="0.5" y2="0.5" /><line stroke="rgb(0%,0%,0%)" x1="201.7923" x2="201.7923" y1="100.5" y2="84.8005" /><line stroke="rgb(0%,0%,0%)" x1="201.7923" x2="201.7923" y1="84.8005" y2="0.5" /></svg>