<?xml version="1.0" encoding="utf-8" ?>
<svg baseProfile="tiny" height="100%" version="1.2" width="100%" xmlns="http://www.w3.org/2000/svg" xmlns:ev="http://www.w3.org/2001/xml-events" xmlns:xlink="http://www.w3.org/1999/xlink"><defs /><line stroke="rgb(0%,0%,0%)" x1="351.9" x2="351.9" y1="0.5" y2="89.9283" /><line stroke="rgb(0%,0%,0%)" x1="351.9" x2="351.9" y1="89.9283" y2="100.5" /><line stroke="rgb(0%,0%,0%)" x1="201.7923" x2="208.4709" y1="100.5" y2="100.5" /><line stroke="rgb(0%,0%,0%)" x1="208.4709" x2="209.7514" y1="100.5" y2="100.5" /><line stroke="rgb(0%,0%,0%)" x1="209.7514" x2="211.355" y1="100.5" y2="100.5" /><line stroke="rgb(0%,0%,0%)" x1="211.355" x2="213.3485" y1="100.5" y2="100.5" /><line stroke="rgb(0%,0%,0%)" x1="213.3485" x2="215.7944" y1="100.5" y2="100.5" /><line stroke="rgb(0%,0%,0%)" x1="215.7944" x2="319.0254" y1="100.5" y2="100.5" /><line stroke="rgb(0%,0%,0%)" x1="319.0254" x2="323.2953" y1="100.5" y2="100.5" /><line stroke="rgb(0%,0%,0%)" x1="323.2953" x2="328.1733" y1="100.5" y2="100.5" /><line stroke="rgb(0%,0%,0%)" x1="328.1733" x2="333.5871" y1="100.5" y2="100.5" /><line stroke="rgb(0%,0%,0%)" x1="333.5871" x2="339.4348" y1="100.5" y2="100.5" /><line stroke="rgb(0%,0%,0%)" x1="339.4348" x2="345.5883" y1="100.5" y2="100.5" /><line stroke="rgb(0%,0%,0%)" x1="345.5883" x2="351.9" y1="100.5" y2="100.5" /><line stroke="rgb(0%,0%,0%)" x1="208.4709" x2="201.7923" y1="0.5" y2="0.5" /><line stroke="rgb(0%,0%,0%)" x1="215.7944" x2="319.0254" y1="0.5" y2="0.5" /><line stroke="rgb(0%,0%,0%)" x1="319.0254" x2="323.2953" y1="0.5" y2="0.5" /><line stroke="rgb(0%,0%,0%)" x1="323.2953" x2="328.1733" y1="0.5" y2="0.5" /><line stroke="rgb(0%,0%,0%)" x1="328.1733" x2="333.5871" y1="0.5" y2="0.5" /><line stroke="rgb(0%,0%,0%)" x1="333.5871" x2="339.4348" y1="0.5" y2="0.5" /><line stroke="rgb(0%,0%,0%)" x1="339.4348" x2="345.5883" y1="0.5" y2="0.5" /><line stroke="rgb(0%,0%,0%)" x1="345.5883" x2="351.9" y1="0.5" y2="0.5" /><line stroke="rgb(0%,0%,0%)" x1="215.7944" x2="213.3485" y1="0.5" y2="0.5" /><line stroke="rgb(0%,0%,0%)" x1="213.3485" x2="211.355" y1="0.5" y2="0.5" /><line stroke="rgb(0%,0%,0%)" x1="211.355" x2="209.7514" y1="0.5" y2="0.5" /><line stroke="rgb(0%,0%,0%)" x1="209.7514" x2="208.4709" y1="0.5" y2="0.5" /><line stroke="rgb(0%,0%,0%)" x1="201.7923" x2="201.7923" y1="100.5" y2="78.4311" /><line stroke="rgb(0%,0%,0%)" x1="201.7923" x2="201.7923" y1="78.4311" y2="0.5" /></svg>