<?xml version="1.0" encoding="utf-8" ?>
<svg baseProfile="tiny" height="100%" version="1.2" width="100%" xmlns="http://www.w3.org/2000/svg" xmlns:ev="http://www.w3.org/2001/xml-events" xmlns:xlink="http://www.w3.org/1999/xlink"><defs /><line stroke="rgb(0%,0%,0%)" x1="351.9" x2="351.9" y1="0.5" y2="90.7923" /><line stroke="rgb(0%,0%,0%)" x1="351.9" x2="351.9" y1="90.7923" y2="100.5" /><line stroke="rgb(0%,0%,0%)" x1="201.7923" x2="210.3984" y1="100.5" y2="100.5" /><line stroke="rgb(0%,0%,0%)" x1="210.3984" x2="212.0486" y1="100.5" y2="100.5" /><line stroke="rgb(0%,0%,0%)" x1="212.0486" x2="214.1149" y1="100.5" y2="100.5" /><line stroke="rgb(0%,0%,0%)" x1="214.1149" x2="216.6837" y1="100.5" y2="100.5" /><line stroke="rgb(0%,0%,0%)" x1="216.6837" x2="219.8356" y1="100.5" y2="100.5" /><line stroke="rgb(0%,0%,0%)" x1="219.8356" x2="318.7078" y1="100.5" y2="100.5" /><line stroke="rgb(0%,0%,0%)" x1="318.7078" x2="323.0189" y1="100.5" y2="100.5" /><line stroke="rgb(0%,0%,0%)" x1="323.0189" x2="327.9441" y1="100.5" y2="100.5" /><line stroke="rgb(0%,0%,0%)" x1="327.9441" x2="333.4102" y1="100.5" y2="100.5" /><line stroke="rgb(0%,0%,0%)" x1="333.4102" x2="339.3144" y1="100.5" y2="100.5" /><line stroke="rgb(0%,0%,0%)" x1="339.3144" x2="345.5273" y1="100.5" y2="100.5" /><line stroke="rgb(0%,0%,0%)" x1="345.5273" x2="351.9" y1="100.5" y2="100.5" /><line stroke="rgb(0%,0%,0%)" x1="210.3984" x2="201.7923" y1="0.5" y2="0.5" /><line stroke="rgb(0%,0%,0%)" x1="219.8356" x2="318.7078" y1="0.5" y2="0.5" /><line stroke="rgb(0%,0%,0%)" x1="318.7078" x2="323.0189" y1="0.5" y2="0.5" /><line stroke="rgb(0%,0%,0%)" x1="323.0189" x2="327.9441" y1="0.5" y2="0.5" /><line stroke="rgb(0%,0%,0%)" x1="327.9441" x2="333.4102" y1="0.5" y2="0.5" /><line stroke="rgb(0%,0%,0%)" x1="333.4102" x2="339.3144" y1="0.5" y2="0.5" /><line stroke="rgb(0%,0%,0%)" x1="339.3144" x2="345.5273" y1="0.5" y2="0.5" /><line stroke="rgb(0%,0%,0%)" x1="345.5273" x2="351.9" y1="0.5" y2="0.5" /><line stroke="rgb(0%,0%,0%)" x1="219.8356" x2="216.6837" y1="0.5" y2="0.5" /><line stroke="rgb(0%,0%,0%)" x1="216.6837" x2="214.1149" y1="0.5" y2="0.5" /><line stroke="rgb(0%,0%,0%)" x1="214.1149" x2="212.0486" y1="0.5" y2="0.5" /><line stroke="rgb(0%,0%,0%)" x1="212.0486" x2="210.3984" y1="0.5" y2="0.5" /><line stroke="rgb(0%,0%,0%)" x1="201.7923" x2="201.7923" y1="100.5" y2="72.0617" /><line stroke="rgb(0%,0%,0%)" x1="201.7923" x2="201.7923" y1="72.0617" y2="0.5" /></svg>