<?xml version="1.0" encoding="utf-8" ?>
<svg baseProfile="tiny" height="100%" version="1.2" width="100%" xmlns="http://www.w3.org/2000/svg" xmlns:ev="http://www.w3.org/2001/xml-events" xmlns:xlink="http://www.w3.org/1999/xlink"><defs /><line stroke="rgb(0%,0%,0%)" x1="351.9" x2="351.9" y1="0.5" y2="91.6564" /><line stroke="rgb(0%,0%,0%)" x1="351.9" x2="351.9" y1="91.6564" y2="100.5" /><line stroke="rgb(0%,0%,0%)" x1="201.7923" x2="212.326" y1="100.5" y2="100.5" /><line stroke="rgb(0%,0%,0%)" x1="212.326" x2="214.3457" y1="100.5" y2="100.5" /><line stroke="rgb(0%,0%,0%)" x1="214.3457" x2="216.8749" y1="100.5" y2="100.5" /><line stroke="rgb(0%,0%,0%)" x1="216.8749" x2="220.019" y1="100.5" y2="100.5" /><line stroke="rgb(0%,0%,0%)" x1="220.019" x2="223.8769" y1="100.5" y2="100.5" /><line stroke="rgb(0%,0%,0%)" x1="223.8769" x2="318.3902" y1="100.5" y2="100.5" /><line stroke="rgb(0%,0%,0%)" x1="318.3902" x2="322.7425" y1="100.5" y2="100.5" /><line stroke="rgb(0%,0%,0%)" x1="322.7425" x2="327.7148" y1="100.5" y2="100.5" /><line stroke="rgb(0%,0%,0%)" x1="327.7148" x2="333.2333" y1="100.5" y2="100.5" /><line stroke="rgb(0%,0%,0%)" x1="333.2333" x2="339.1939" y1="100.5" y2="100.5" /><line stroke="rgb(0%,0%,0%)" x1="339.1939" x2="345.4664" y1="100.5" y2="100.5" /><line stroke="rgb(0%,0%,0%)" x1="345.4664" x2="351.9" y1="100.5" y2="100.5" /><line stroke="rgb(0%,0%,0%)" x1="212.326" x2="201.7923" y1="0.5" y2="0.5" /><line stroke="rgb(0%,0%,0%)" x1="223.8769" x2="318.3902" y1="0.5" y2="0.5" /><line stroke="rgb(0%,0%,0%)" x1="318.3902" x2="322.7425" y1="0.5" y2="0.5" /><line stroke="rgb(0%,0%,0%)" x1="322.7425" x2="327.7148" y1="0.5" y2="0.5" /><line stroke="rgb(0%,0%,0%)" x1="327.7148" x2="333.2333" y1="0.5" y2="0.5" /><line stroke="rgb(0%,0%,0%)" x1="333.2333" x2="339.1939" y1="0.5" y2="0.5" /><line stroke="rgb(0%,0%,0%)" x1="339.1939" x2="345.4664" y1="0.5" y2="0.5" /><line stroke="rgb(0%,0%,0%)" x1="345.4664" x2="351.9" y1="0.5" y2="0.5" /><line stroke="rgb(0%,0%,0%)" x1="223.8769" x2="220.019" y1="0.5" y2="0.5" /><line stroke="rgb(0%,0%,0%)" x1="220.019" x2="216.8749" y1="0.5" y2="0.5" /><line stroke="rgb(0%,0%,0%)" x1="216.8749" x2="214.3457" y1="0.5" y2="0.5" /><line stroke="rgb(0%,0%,0%)" x1="214.3457" x2="212.326" y1="0.5" y2="0.5" /><line stroke="rgb(0%,0%,0%)" x1="201.7923" x2="201.7923" y1="100.5" y2="65.6923" /><line stroke="rgb(0%,0%,0%)" x1="201.7923" x2="201.7923" y1="65.6923" y2="0.5" /></svg>