<?xml version="1.0" encoding="utf-8" ?>
<svg baseProfile="tiny" height="100%" version="1.2" width="100%" xmlns="http://www.w3.org/2000/svg" xmlns:ev="http://www.w3.org/2001/xml-events" xmlns:xlink="http://www.w3.org/1999/xlink"><defs /><line stroke="rgb(0%,0%,0%)" x1="351.9" x2="351.9" y1="0.5" y2="92.5204" /><line stroke="rgb(0%,0%,0%)" x1="351.9" x2="351.9" y1="92.5204" y2="100.5" /><line stroke="rgb(0%,0%,0%)" x1="201.7923" x2="214.2535" y1="100.5" y2="100.5" /><line stroke="rgb(0%,0%,0%)" x1="214.2535" x2="216.6429" y1="100.5" y2="100.5" /><line stroke="rgb(0%,0%,0%)" x1="216.6429" x2="219.6348" y1="100.5" y2="100.5" /><line stroke="rgb(0%,0%,0%)" x1="219.6348" x2="223.3543" y1="100.5" y2="100.5" /><line stroke="rgb(0%,0%,0%)" x1="223.3543" x2="227.9181" y1="100.5" y2="100.5" /><line stroke="rgb(0%,0%,0%)" x1="227.9181" x2="318.0725" y1="100.5" y2="100.5" /><line stroke="rgb(0%,0%,0%)" x1="318.0725" x2="322.4662" y1="100.5" y2="100.5" /><line stroke="rgb(0%,0%,0%)" x1="322.4662" x2="327.4856" y1="100.5" y2="100.5" /><line stroke="rgb(0%,0%,0%)" x1="327.4856" x2="333.0563" y1="100.5" y2="100.5" /><line stroke="rgb(0%,0%,0%)" x1="333.0563" x2="339.0735" y1="100.5" y2="100.5" /><line stroke="rgb(0%,0%,0%)" x1="339.0735" x2="345.4054" y1="100.5" y2="100.5" /><line stroke="rgb(0%,0%,0%)" x1="345.4054" x2="351.9" y1="100.5" y2="100.5" /><line stroke="rgb(0%,0%,0%)" x1="214.2535" x2="201.7923" y1="0.5" y2="0.5" /><line stroke="rgb(0%,0%,0%)" x1="227.9181" x2="318.0725" y1="0.5" y2="0.5" /><line stroke="rgb(0%,0%,0%)" x1="318.0725" x2="322.4662" y1="0.5" y2="0.5" /><line stroke="rgb(0%,0%,0%)" x1="322.4662" x2="327.4856" y1="0.5" y2="0.5" /><line stroke="rgb(0%,0%,0%)" x1="327.4856" x2="333.0563" y1="0.5" y2="0.5" /><line stroke="rgb(0%,0%,0%)" x1="333.0563" x2="339.0735" y1="0.5" y2="0.5" /><line stroke="rgb(0%,0%,0%)" x1="339.0735" x2="345.4054" y1="0.5" y2="0.5" /><line stroke="rgb(0%,0%,0%)" x1="345.4054" x2="351.9" y1="0.5" y2="0.5" /><line stroke="rgb(0%,0%,0%)" x1="227.9181" x2="223.3543" y1="0.5" y2="0.5" /><line stroke="rgb(0%,0%,0%)" x1="223.3543" x2="219.6348" y1="0.5" y2="0.5" /><line stroke="rgb(0%,0%,0%)" x1="219.6348" x2="216.6429" y1="0.5" y2="0.5" /><line stroke="rgb(0%,0%,0%)" x1="216.6429" x2="214.2535" y1="0.5" y2="0.5" /><line stroke="rgb(0%,0%,0%)" x1="201.7923" x2="201.7923" y1="100.5" y2="59.3228" /><line stroke="rgb(0%,0%,0%)" x1="201.7923" x2="201.7923" y1="59.3228" y2="0.5" /></svg>