<?xml version="1.0" encoding="utf-8" ?>
<svg baseProfile="tiny" height="100%" version="1.2" width="100%" xmlns="http://www.w3.org/2000/svg" xmlns:ev="http://www.w3.org/2001/xml-events" xmlns:xlink="http://www.w3.org/1999/xlink"><defs /><line stroke="rgb(0%,0%,0%)" x1="351.9" x2="351.9" y1="0.5" y2="93.3845" /><line stroke="rgb(0%,0%,0%)" x1="351.9" x2="351.9" y1="93.3845" y2="100.5" /><line stroke="rgb(0%,0%,0%)" x1="201.7923" x2="216.1811" y1="100.5" y2="100.5" /><line stroke="rgb(0%,0%,0%)" x1="216.1811" x2="218.94" y1="100.5" y2="100.5" /><line stroke="rgb(0%,0%,0%)" x1="218.94" x2="222.3948" y1="100.5" y2="100.5" /><line stroke="rgb(0%,0%,0%)" x1="222.3948" x2="226.6896" y1="100.5" y2="100.5" /><line stroke="rgb(0%,0%,0%)" x1="226.6896" x2="231.9593" y1="100.5" y2="100.5" /><line stroke="rgb(0%,0%,0%)" x1="231.9593" x2="317.7549" y1="100.5" y2="100.5" /><line stroke="rgb(0%,0%,0%)" x1="317.7549" x2="322.1898" y1="100.5" y2="100.5" /><line stroke="rgb(0%,0%,0%)" x1="322.1898" x2="327.2563" y1="100.5" y2="100.5" /><line stroke="rgb(0%,0%,0%)" x1="327.2563" x2="332.8794" y1="100.5" y2="100.5" /><line stroke="rgb(0%,0%,0%)" x1="332.8794" x2="338.9531" y1="100.5" y2="100.5" /><line stroke="rgb(0%,0%,0%)" x1="338.9531" x2="345.3444" y1="100.5" y2="100.5" /><line stroke="rgb(0%,0%,0%)" x1="345.3444" x2="351.9" y1="100.5" y2="100.5" /><line stroke="rgb(0%,0%,0%)" x1="216.1811" x2="201.7923" y1="0.5" y2="0.5" /><line stroke="rgb(0%,0%,0%)" x1="231.9593" x2="317.7549" y1="0.5" y2="0.5" /><line stroke="rgb(0%,0%,0%)" x1="317.7549" x2="322.1898" y1="0.5" y2="0.5" /><line stroke="rgb(0%,0%,0%)" x1="322.1898" x2="327.2563" y1="0.5" y2="0.5" /><line stroke="rgb(0%,0%,0%)" x1="327.2563" x2="332.8794" y1="0.5" y2="0.5" /><line stroke="rgb(0%,0%,0%)" x1="332.8794" x2="338.9531" y1="0.5" y2="0.5" /><line stroke="rgb(0%,0%,0%)" x1="338.9531" x2="345.3444" y1="0.5" y2="0.5" /><line stroke="rgb(0%,0%,0%)" x1="345.3444" x2="351.9" y1="0.5" y2="0.5" /><line stroke="rgb(0%,0%,0%)" x1="231.9593" x2="226.6896" y1="0.5" y2="0.5" /><line stroke="rgb(0%,0%,0%)" x1="226.6896" x2="222.3948" y1="0.5" y2="0.5" /><line stroke="rgb(0%,0%,0%)" x1="222.3948" x2="218.94" y1="0.5" y2="0.5" /><line stroke="rgb(0%,0%,0%)" x1="218.94" x2="216.1811" y1="0.5" y2="0.5" /><line stroke="rgb(0%,0%,0%)" x1="201.7923" x2="201.7923" y1="100.5" y2="52.9534" /><line stroke="rgb(0%,0%,0%)" x1="201.7923" x2="201.7923" y1="52.9534" y2="0.5" /></svg>