<?xml version="1.0" encoding="utf-8" ?>
<svg baseProfile="tiny" height="100%" version="1.2" width="100%" xmlns="http://www.w3.org/2000/svg" xmlns:ev="http://www.w3.org/2001/xml-events" xmlns:xlink="http://www.w3.org/1999/xlink"><defs /><line stroke="rgb(0%,0%,0%)" x1="351.9" x2="351.9" y1="0.5" y2="94.2485" /><line stroke="rgb(0%,0%,0%)" x1="351.9" x2="351.9" y1="94.2485" y2="100.5" /><line stroke="rgb(0%,0%,0%)" x1="201.7923" x2="218.1087" y1="100.5" y2="100.5" /><line stroke="rgb(0%,0%,0%)" x1="218.1087" x2="221.2372" y1="100.5" y2="100.5" /><line stroke="rgb(0%,0%,0%)" x1="221.2372" x2="225.1547" y1="100.5" y2="100.5" /><line stroke="rgb(0%,0%,0%)" x1="225.1547" x2="230.0249" y1="100.5" y2="100.5" /><line stroke="rgb(0%,0%,0%)" x1="230.0249" x2="236.0005" y1="100.5" y2="100.5" /><line stroke="rgb(0%,0%,0%)" x1="236.0005" x2="317.4373" y1="100.5" y2="100.5" /><line stroke="rgb(0%,0%,0%)" x1="317.4373" x2="321.9134" y1="100.5" y2="100.5" /><line stroke="rgb(0%,0%,0%)" x1="321.9134" x2="327.0271" y1="100.5" y2="100.5" /><line stroke="rgb(0%,0%,0%)" x1="327.0271" x2="332.7025" y1="100.5" y2="100.5" /><line stroke="rgb(0%,0%,0%)" x1="332.7025" x2="338.8326" y1="100.5" y2="100.5" /><line stroke="rgb(0%,0%,0%)" x1="338.8326" x2="345.2834" y1="100.5" y2="100.5" /><line stroke="rgb(0%,0%,0%)" x1="345.2834" x2="351.9" y1="100.5" y2="100.5" /><line stroke="rgb(0%,0%,0%)" x1="218.1087" x2="201.7923" y1="0.5" y2="0.5" /><line stroke="rgb(0%,0%,0%)" x1="236.0005" x2="317.4373" y1="0.5" y2="0.5" /><line stroke="rgb(0%,0%,0%)" x1="317.4373" x2="321.9134" y1="0.5" y2="0.5" /><line stroke="rgb(0%,0%,0%)" x1="321.9134" x2="327.0271" y1="0.5" y2="0.5" /><line stroke="rgb(0%,0%,0%)" x1="327.0271" x2="332.7025" y1="0.5" y2="0.5" /><line stroke="rgb(0%,0%,0%)" x1="332.7025" x2="338.8326" y1="0.5" y2="0.5" /><line stroke="rgb(0%,0%,0%)" x1="338.8326" x2="345.2834" y1="0.5" y2="0.5" /><line stroke="rgb(0%,0%,0%)" x1="345.2834" x2="351.9" y1="0.5" y2="0.5" /><line stroke="rgb(0%,0%,0%)" x1="236.0005" x2="230.0249" y1="0.5" y2="0.5" /><line stroke="rgb(0%,0%,0%)" x1="230.0249" x2="225.1547" y1="0.5" y2="0.5" /><line stroke="rgb(0%,0%,0%)" x1="225.1547" x2="221.2372" y1="0.5" y2="0.5" /><line stroke="rgb(0%,0%,0%)" x1="221.2372" x2="218.1087" y1="0.5" y2="0.5" /><line stroke="rgb(0%,0%,0%)" x1="201.7923" x2="201.7923" y1="100.5" y2="46.584" /><line stroke="rgb(0%,0%,0%)" x1="201.7923" x2="201.7923" y1="46.584" y2="0.5" /></svg>