<?xml version="1.0" encoding="utf-8" ?>
<svg baseProfile="tiny" height="100%" version="1.2" width="100%" xmlns="http://www.w3.org/2000/svg" xmlns:ev="http://www.w3.org/2001/xml-events" xmlns:xlink="http://www.w3.org/1999/xlink"><defs /><line stroke="rgb(0%,0%,0%)" x1="351.9" x2="351.9" y1="0.5" y2="9.5724" /><line stroke="rgb(0%,0%,0%)" x1="351.9" x2="351.9" y1="9.5724" y2="100.5" /><line stroke="rgb(0%,0%,0%)" x1="336.1442" x2="348.5649" y1="100.5" y2="100.5" /><line stroke="rgb(0%,0%,0%)" x1="348.5649" x2="348.9981" y1="100.5" y2="100.5" /><line stroke="rgb(0%,0%,0%)" x1="348.9981" x2="349.4929" y1="100.5" y2="100.5" /><line stroke="rgb(0%,0%,0%)" x1="349.4929" x2="350.0422" y1="100.5" y2="100.5" /><line stroke="rgb(0%,0%,0%)" x1="350.0422" x2="350.6354" y1="100.5" y2="100.5" /><line stroke="rgb(0%,0%,0%)" x1="350.6354" x2="351.2597" y1="100.5" y2="100.5" /><line stroke="rgb(0%,0%,0%)" x1="351.2597" x2="351.9" y1="100.5" y2="100.5" /><line stroke="rgb(0%,0%,0%)" x1="336.1442" x2="21.6283" y1="100.5" y2="100.5" /><line stroke="rgb(0%,0%,0%)" x1="21.6283" x2="0.5" y1="100.5" y2="100.5" /><line stroke="rgb(0%,0%,0%)" x1="0.5" x2="21.6283" y1="0.5" y2="0.5" /><line stroke="rgb(0%,0%,0%)" x1="21.6283" x2="336.1442" y1="0.5" y2="0.5" /><line stroke="rgb(0%,0%,0%)" x1="336.1442" x2="348.5649" y1="0.5" y2="0.5" /><line stroke="rgb(0%,0%,0%)" x1="348.5649" x2="348.9981" y1="0.5" y2="0.5" /><line stroke="rgb(0%,0%,0%)" x1="348.9981" x2="349.4929" y1="0.5" y2="0.5" /><line stroke="rgb(0%,0%,0%)" x1="349.4929" x2="350.0422" y1="0.5" y2="0.5" /><line stroke="rgb(0%,0%,0%)" x1="350.0422" x2="350.6354" y1="0.5" y2="0.5" /><line stroke="rgb(0%,0%,0%)" x1="350.6354" x2="351.2597" y1="0.5" y2="0.5" /><line stroke="rgb(0%,0%,0%)" x1="351.2597" x2="351.9" y1="0.5" y2="0.5" /><line stroke="rgb(0%,0%,0%)" x1="0.5" x2="0.5" y1="0.5" y2="90.0037" /><line stroke="rgb(0%,0%,0%)" x1="0.5" x2="0.5" y1="90.0037" y2="100.5" /><line stroke="rgb(0%,0%,0%)" x1="165.1722" x2="165.4312" y1="47.3813" y2="49.8453" /><line stroke="rgb(0%,0%,0%)" x1="165.4312" x2="165.5" y1="49.8453" y2="50.5" /><line stroke="rgb(0%,0%,0%)" x1="165.5" x2="165.241" y1="50.5" y2="52.964" /><line stroke="rgb(0%,0%,0%)" x1="165.241" x2="165.1722" y1="52.964" y2="53.6187" /><line stroke="rgb(0%,0%,0%)" x1="165.1722" x2="164.4066" y1="53.6187" y2="55.975" /><line stroke="rgb(0%,0%,0%)" x1="164.4066" x2="164.2032" y1="55.975" y2="56.6011" /><line stroke="rgb(0%,0%,0%)" x1="164.2032" x2="162.9644" y1="56.6011" y2="58.7467" /><line stroke="rgb(0%,0%,0%)" x1="162.9644" x2="162.6353" y1="58.7467" y2="59.3168" /><line stroke="rgb(0%,0%,0%)" x1="162.6353" x2="160.9774" y1="59.3168" y2="61.158" /><line stroke="rgb(0%,0%,0%)" x1="160.9774" x2="160.537" y1="61.158" y2="61.6472" /><line stroke="rgb(0%,0%,0%)" x1="160.537" x2="158.5326" y1="61.6472" y2="63.1034" /><line stroke="rgb(0%,0%,0%)" x1="158.5326" x2="158.0" y1="63.1034" y2="63.4904" /><line stroke="rgb(0%,0%,0%)" x1="158.0" x2="155.7366" y1="63.4904" y2="64.4981" /><line stroke="rgb(0%,0%,0%)" x1="155.7366" x2="155.1353" y1="64.4981" y2="64.7658" /><line stroke="rgb(0%,0%,0%)" x1="155.1353" x2="152.7118" y1="64.7658" y2="65.281" /><line stroke="rgb(0%,0%,0%)" x1="152.7118" x2="152.0679" y1="65.281" y2="65.4178" /><line stroke="rgb(0%,0%,0%)" x1="152.0679" x2="149.5904" y1="65.4178" y2="65.4178" /><line stroke="rgb(0%,0%,0%)" x1="149.5904" x2="148.9321" y1="65.4178" y2="65.4178" /><line stroke="rgb(0%,0%,0%)" x1="148.9321" x2="146.5087" y1="65.4178" y2="64.9027" /><line stroke="rgb(0%,0%,0%)" x1="146.5087" x2="145.8647" y1="64.9027" y2="64.7658" /><line stroke="rgb(0%,0%,0%)" x1="145.8647" x2="143.6014" y1="64.7658" y2="63.7581" /><line stroke="rgb(0%,0%,0%)" x1="143.6014" x2="143.0" y1="63.7581" y2="63.4904" /><line stroke="rgb(0%,0%,0%)" x1="143.0" x2="140.9956" y1="63.4904" y2="62.0341" /><line stroke="rgb(0%,0%,0%)" x1="140.9956" x2="140.463" y1="62.0341" y2="61.6472" /><line stroke="rgb(0%,0%,0%)" x1="140.463" x2="138.8052" y1="61.6472" y2="59.806" /><line stroke="rgb(0%,0%,0%)" x1="138.8052" x2="138.3647" y1="59.806" y2="59.3168" /><line stroke="rgb(0%,0%,0%)" x1="138.3647" x2="137.126" y1="59.3168" y2="57.1712" /><line stroke="rgb(0%,0%,0%)" x1="137.126" x2="136.7968" y1="57.1712" y2="56.6011" /><line stroke="rgb(0%,0%,0%)" x1="136.7968" x2="136.0312" y1="56.6011" y2="54.2448" /><line stroke="rgb(0%,0%,0%)" x1="136.0312" x2="135.8278" y1="54.2448" y2="53.6187" /><line stroke="rgb(0%,0%,0%)" x1="135.8278" x2="135.5688" y1="53.6187" y2="51.1547" /><line stroke="rgb(0%,0%,0%)" x1="135.5688" x2="135.5" y1="51.1547" y2="50.5" /><line stroke="rgb(0%,0%,0%)" x1="135.5" x2="135.759" y1="50.5" y2="48.036" /><line stroke="rgb(0%,0%,0%)" x1="135.759" x2="135.8278" y1="48.036" y2="47.3813" /><line stroke="rgb(0%,0%,0%)" x1="135.8278" x2="136.5934" y1="47.3813" y2="45.025" /><line stroke="rgb(0%,0%,0%)" x1="136.5934" x2="136.7968" y1="45.025" y2="44.3989" /><line stroke="rgb(0%,0%,0%)" x1="136.7968" x2="138.0356" y1="44.3989" y2="42.2533" /><line stroke="rgb(0%,0%,0%)" x1="138.0356" x2="138.3647" y1="42.2533" y2="41.6832" /><line stroke="rgb(0%,0%,0%)" x1="138.3647" x2="140.0225" y1="41.6832" y2="39.842" /><line stroke="rgb(0%,0%,0%)" x1="140.0225" x2="140.463" y1="39.842" y2="39.3528" /><line stroke="rgb(0%,0%,0%)" x1="140.463" x2="142.4674" y1="39.3528" y2="37.8966" /><line stroke="rgb(0%,0%,0%)" x1="142.4674" x2="143.0" y1="37.8966" y2="37.5096" /><line stroke="rgb(0%,0%,0%)" x1="143.0" x2="145.2634" y1="37.5096" y2="36.5019" /><line stroke="rgb(0%,0%,0%)" x1="145.2634" x2="145.8647" y1="36.5019" y2="36.2342" /><line stroke="rgb(0%,0%,0%)" x1="145.8647" x2="148.2882" y1="36.2342" y2="35.719" /><line stroke="rgb(0%,0%,0%)" x1="148.2882" x2="148.9321" y1="35.719" y2="35.5822" /><line stroke="rgb(0%,0%,0%)" x1="148.9321" x2="151.4096" y1="35.5822" y2="35.5822" /><line stroke="rgb(0%,0%,0%)" x1="151.4096" x2="152.0679" y1="35.5822" y2="35.5822" /><line stroke="rgb(0%,0%,0%)" x1="152.0679" x2="154.4913" y1="35.5822" y2="36.0973" /><line stroke="rgb(0%,0%,0%)" x1="154.4913" x2="155.1353" y1="36.0973" y2="36.2342" /><line stroke="rgb(0%,0%,0%)" x1="155.1353" x2="157.3986" y1="36.2342" y2="37.2419" /><line stroke="rgb(0%,0%,0%)" x1="157.3986" x2="158.0" y1="37.2419" y2="37.5096" /><line stroke="rgb(0%,0%,0%)" x1="158.0" x2="160.0044" y1="37.5096" y2="38.9659" /><line stroke="rgb(0%,0%,0%)" x1="160.0044" x2="160.537" y1="38.9659" y2="39.3528" /><line stroke="rgb(0%,0%,0%)" x1="160.537" x2="162.1948" y1="39.3528" y2="41.194" /><line stroke="rgb(0%,0%,0%)" x1="162.1948" x2="162.6353" y1="41.194" y2="41.6832" /><line stroke="rgb(0%,0%,0%)" x1="162.6353" x2="163.874" y1="41.6832" y2="43.8288" /><line stroke="rgb(0%,0%,0%)" x1="163.874" x2="164.2032" y1="43.8288" y2="44.3989" /><line stroke="rgb(0%,0%,0%)" x1="164.2032" x2="164.9688" y1="44.3989" y2="46.7552" /><line stroke="rgb(0%,0%,0%)" x1="164.9688" x2="165.1722" y1="46.7552" y2="47.3813" /><line stroke="rgb(0%,0%,0%)" x1="65.1722" x2="65.4312" y1="47.3813" y2="49.8453" /><line stroke="rgb(0%,0%,0%)" x1="65.4312" x2="65.5" y1="49.8453" y2="50.5" /><line stroke="rgb(0%,0%,0%)" x1="65.5" x2="65.241" y1="50.5" y2="52.964" /><line stroke="rgb(0%,0%,0%)" x1="65.241" x2="65.1722" y1="52.964" y2="53.6187" /><line stroke="rgb(0%,0%,0%)" x1="65.1722" x2="64.4066" y1="53.6187" y2="55.975" /><line stroke="rgb(0%,0%,0%)" x1="64.4066" x2="64.2032" y1="55.975" y2="56.6011" /><line stroke="rgb(0%,0%,0%)" x1="64.2032" x2="62.9644" y1="56.6011" y2="58.7467" /><line stroke="rgb(0%,0%,0%)" x1="62.9644" x2="62.6352" y1="58.7467" y2="59.3168" /><line stroke="rgb(0%,0%,0%)" x1="62.6352" x2="60.9774" y1="59.3168" y2="61.158" /><line stroke="rgb(0%,0%,0%)" x1="60.9774" x2="60.537" y1="61.158" y2="61.6472" /><line stroke="rgb(0%,0%,0%)" x1="60.537" x2="58.5326" y1="61.6472" y2="63.1034" /><line stroke="rgb(0%,0%,0%)" x1="58.5326" x2="58.0" y1="63.1034" y2="63.4904" /><line stroke="rgb(0%,0%,0%)" x1="58.0" x2="55.7366" y1="63.4904" y2="64.4981" /><line stroke="rgb(0%,0%,0%)" x1="55.7366" x2="55.1353" y1="64.4981" y2="64.7658" /><line stroke="rgb(0%,0%,0%)" x1="55.1353" x2="52.7118" y1="64.7658" y2="65.281" /><line stroke="rgb(0%,0%,0%)" x1="52.7118" x2="52.0679" y1="65.281" y2="65.4178" /><line stroke="rgb(0%,0%,0%)" x1="52.0679" x2="49.5904" y1="65.4178" y2="65.4178" /><line stroke="rgb(0%,0%,0%)" x1="49.5904" x2="48.9321" y1="65.4178" y2="65.4178" /><line stroke="rgb(0%,0%,0%)" x1="48.9321" x2="46.5087" y1="65.4178" y2="64.9027" /><line stroke="rgb(0%,0%,0%)" x1="46.5087" x2="45.8647" y1="64.9027" y2="64.7658" /><line stroke="rgb(0%,0%,0%)" x1="45.8647" x2="43.6014" y1="64.7658" y2="63.7581" /><line stroke="rgb(0%,0%,0%)" x1="43.6014" x2="43.0" y1="63.7581" y2="63.4904" /><line stroke="rgb(0%,0%,0%)" x1="43.0" x2="40.9956" y1="63.4904" y2="62.0341" /><line stroke="rgb(0%,0%,0%)" x1="40.9956" x2="40.463" y1="62.0341" y2="61.6472" /><line stroke="rgb(0%,0%,0%)" x1="40.463" x2="38.8052" y1="61.6472" y2="59.806" /><line stroke="rgb(0%,0%,0%)" x1="38.8052" x2="38.3647" y1="59.806" y2="59.3168" /><line stroke="rgb(0%,0%,0%)" x1="38.3647" x2="37.126" y1="59.3168" y2="57.1712" /><line stroke="rgb(0%,0%,0%)" x1="37.126" x2="36.7968" y1="57.1712" y2="56.6011" /><line stroke="rgb(0%,0%,0%)" x1="36.7968" x2="36.0312" y1="56.6011" y2="54.2448" /><line stroke="rgb(0%,0%,0%)" x1="36.0312" x2="35.8278" y1="54.2448" y2="53.6187" /><line stroke="rgb(0%,0%,0%)" x1="35.8278" x2="35.5688" y1="53.6187" y2="51.1547" /><line stroke="rgb(0%,0%,0%)" x1="35.5688" x2="35.5" y1="51.1547" y2="50.5" /><line stroke="rgb(0%,0%,0%)" x1="35.5" x2="35.759" y1="50.5" y2="48.036" /><line stroke="rgb(0%,0%,0%)" x1="35.759" x2="35.8278" y1="48.036" y2="47.3813" /><line stroke="rgb(0%,0%,0%)" x1="35.8278" x2="36.5934" y1="47.3813" y2="45.025" /><line stroke="rgb(0%,0%,0%)" x1="36.5934" x2="36.7968" y1="45.025" y2="44.3989" /><line stroke="rgb(0%,0%,0%)" x1="36.7968" x2="38.0356" y1="44.3989" y2="42.2533" /><line stroke="rgb(0%,0%,0%)" x1="38.0356" x2="38.3647" y1="42.2533" y2="41.6832" /><line stroke="rgb(0%,0%,0%)" x1="38.3647" x2="40.0225" y1="41.6832" y2="39.842" /><line stroke="rgb(0%,0%,0%)" x1="40.0225" x2="40.463" y1="39.842" y2="39.3528" /><line stroke="rgb(0%,0%,0%)" x1="40.463" x2="42.4674" y1="39.3528" y2="37.8966" /><line stroke="rgb(0%,0%,0%)" x1="42.4674" x2="43.0" y1="37.8966" y2="37.5096" /><line stroke="rgb(0%,0%,0%)" x1="43.0" x2="45.2634" y1="37.5096" y2="36.5019" /><line stroke="rgb(0%,0%,0%)" x1="45.2634" x2="45.8647" y1="36.5019" y2="36.2342" /><line stroke="rgb(0%,0%,0%)" x1="45.8647" x2="48.2882" y1="36.2342" y2="35.719" /><line stroke="rgb(0%,0%,0%)" x1="48.2882" x2="48.9321" y1="35.719" y2="35.5822" /><line stroke="rgb(0%,0%,0%)" x1="48.9321" x2="51.4096" y1="35.5822" y2="35.5822" /><line stroke="rgb(0%,0%,0%)" x1="51.4096" x2="52.0679" y1="35.5822" y2="35.5822" /><line stroke="rgb(0%,0%,0%)" x1="52.0679" x2="54.4913" y1="35.5822" y2="36.0973" /><line stroke="rgb(0%,0%,0%)" x1="54.4913" x2="55.1353" y1="36.0973" y2="36.2342" /><line stroke="rgb(0%,0%,0%)" x1="55.1353" x2="57.3986" y1="36.2342" y2="37.2419" /><line stroke="rgb(0%,0%,0%)" x1="57.3986" x2="58.0" y1="37.2419" y2="37.5096" /><line stroke="rgb(0%,0%,0%)" x1="58.0" x2="60.0044" y1="37.5096" y2="38.9659" /><line stroke="rgb(0%,0%,0%)" x1="60.0044" x2="60.537" y1="38.9659" y2="39.3528" /><line stroke="rgb(0%,0%,0%)" x1="60.537" x2="62.1948" y1="39.3528" y2="41.194" /><line stroke="rgb(0%,0%,0%)" x1="62.1948" x2="62.6352" y1="41.194" y2="41.6832" /><line stroke="rgb(0%,0%,0%)" x1="62.6352" x2="63.874" y1="41.6832" y2="43.8288" /><line stroke="rgb(0%,0%,0%)" x1="63.874" x2="64.2032" y1="43.8288" y2="44.3989" /><line stroke="rgb(0%,0%,0%)" x1="64.2032" x2="64.9688" y1="44.3989" y2="46.7552" /><line stroke="rgb(0%,0%,0%)" x1="64.9688" x2="65.1722" y1="46.7552" y2="47.3813" /></svg>