<?xml version="1.0" encoding="utf-8" ?>
<svg baseProfile="tiny" height="100%" version="1.2" width="100%" xmlns="http://www.w3.org/2000/svg" xmlns:ev="http://www.w3.org/2001/xml-events" xmlns:xlink="http://www.w3.org/1999/xlink"><defs /><line stroke="rgb(0%,0%,0%)" x1="351.9" x2="351.9" y1="0.5" y2="95.1125" /><line stroke="rgb(0%,0%,0%)" x1="351.9" x2="351.9" y1="95.1125" y2="100.5" /><line stroke="rgb(0%,0%,0%)" x1="201.7923" x2="220.0362" y1="100.5" y2="100.5" /><line stroke="rgb(0%,0%,0%)" x1="220.0362" x2="223.5343" y1="100.5" y2="100.5" /><line stroke="rgb(0%,0%,0%)" x1="223.5343" x2="227.9147" y1="100.5" y2="100.5" /><line stroke="rgb(0%,0%,0%)" x1="227.9147" x2="233.3602" y1="100.5" y2="100.5" /><line stroke="rgb(0%,0%,0%)" x1="233.3602" x2="240.0418" y1="100.5" y2="100.5" /><line stroke="rgb(0%,0%,0%)" x1="240.0418" x2="317.1197" y1="100.5" y2="100.5" /><line stroke="rgb(0%,0%,0%)" x1="317.1197" x2="321.6371" y1="100.5" y2="100.5" /><line stroke="rgb(0%,0%,0%)" x1="321.6371" x2="326.7979" y1="100.5" y2="100.5" /><line stroke="rgb(0%,0%,0%)" x1="326.7979" x2="332.5255" y1="100.5" y2="100.5" /><line stroke="rgb(0%,0%,0%)" x1="332.5255" x2="338.7122" y1="100.5" y2="100.5" /><line stroke="rgb(0%,0%,0%)" x1="338.7122" x2="345.2224" y1="100.5" y2="100.5" /><line stroke="rgb(0%,0%,0%)" x1="345.2224" x2="351.9" y1="100.5" y2="100.5" /><line stroke="rgb(0%,0%,0%)" x1="220.0362" x2="201.7923" y1="0.5" y2="0.5" /><line stroke="rgb(0%,0%,0%)" x1="240.0418" x2="317.1197" y1="0.5" y2="0.5" /><line stroke="rgb(0%,0%,0%)" x1="317.1197" x2="321.6371" y1="0.5" y2="0.5" /><line stroke="rgb(0%,0%,0%)" x1="321.6371" x2="326.7979" y1="0.5" y2="0.5" /><line stroke="rgb(0%,0%,0%)" x1="326.7979" x2="332.5255" y1="0.5" y2="0.5" /><line stroke="rgb(0%,0%,0%)" x1="332.5255" x2="338.7122" y1="0.5" y2="0.5" /><line stroke="rgb(0%,0%,0%)" x1="338.7122" x2="345.2224" y1="0.5" y2="0.5" /><line stroke="rgb(0%,0%,0%)" x1="345.2224" x2="351.9" y1="0.5" y2="0.5" /><line stroke="rgb(0%,0%,0%)" x1="240.0418" x2="233.3602" y1="0.5" y2="0.5" /><line stroke="rgb(0%,0%,0%)" x1="233.3602" x2="227.9147" y1="0.5" y2="0.5" /><line stroke="rgb(0%,0%,0%)" x1="227.9147" x2="223.5343" y1="0.5" y2="0.5" /><line stroke="rgb(0%,0%,0%)" x1="223.5343" x2="220.0362" y1="0.5" y2="0.5" /><line stroke="rgb(0%,0%,0%)" x1="201.7923" x2="201.7923" y1="100.5" y2="40.2146" /><line stroke="rgb(0%,0%,0%)" x1="201.7923" x2="201.7923" y1="40.2146" y2="0.5" /></svg>