<?xml version="1.0" encoding="utf-8" ?>
<svg baseProfile="tiny" height="100%" version="1.2" width="100%" xmlns="http://www.w3.org/2000/svg" xmlns:ev="http://www.w3.org/2001/xml-events" xmlns:xlink="http://www.w3.org/1999/xlink"><defs /><line stroke="rgb(0%,0%,0%)" x1="351.9" x2="351.9" y1="0.5" y2="95.9766" /><line stroke="rgb(0%,0%,0%)" x1="351.9" x2="351.9" y1="95.9766" y2="100.5" /><line stroke="rgb(0%,0%,0%)" x1="201.7923" x2="221.9638" y1="100.5" y2="100.5" /><line stroke="rgb(0%,0%,0%)" x1="221.9638" x2="225.8315" y1="100.5" y2="100.5" /><line stroke="rgb(0%,0%,0%)" x1="225.8315" x2="230.6746" y1="100.5" y2="100.5" /><line stroke="rgb(0%,0%,0%)" x1="230.6746" x2="236.6955" y1="100.5" y2="100.5" /><line stroke="rgb(0%,0%,0%)" x1="236.6955" x2="244.083" y1="100.5" y2="100.5" /><line stroke="rgb(0%,0%,0%)" x1="244.083" x2="316.802" y1="100.5" y2="100.5" /><line stroke="rgb(0%,0%,0%)" x1="316.802" x2="321.3607" y1="100.5" y2="100.5" /><line stroke="rgb(0%,0%,0%)" x1="321.3607" x2="326.5686" y1="100.5" y2="100.5" /><line stroke="rgb(0%,0%,0%)" x1="326.5686" x2="332.3486" y1="100.5" y2="100.5" /><line stroke="rgb(0%,0%,0%)" x1="332.3486" x2="338.5918" y1="100.5" y2="100.5" /><line stroke="rgb(0%,0%,0%)" x1="338.5918" x2="345.1614" y1="100.5" y2="100.5" /><line stroke="rgb(0%,0%,0%)" x1="345.1614" x2="351.9" y1="100.5" y2="100.5" /><line stroke="rgb(0%,0%,0%)" x1="221.9638" x2="201.7923" y1="0.5" y2="0.5" /><line stroke="rgb(0%,0%,0%)" x1="244.083" x2="316.802" y1="0.5" y2="0.5" /><line stroke="rgb(0%,0%,0%)" x1="316.802" x2="321.3607" y1="0.5" y2="0.5" /><line stroke="rgb(0%,0%,0%)" x1="321.3607" x2="326.5686" y1="0.5" y2="0.5" /><line stroke="rgb(0%,0%,0%)" x1="326.5686" x2="332.3486" y1="0.5" y2="0.5" /><line stroke="rgb(0%,0%,0%)" x1="332.3486" x2="338.5918" y1="0.5" y2="0.5" /><line stroke="rgb(0%,0%,0%)" x1="338.5918" x2="345.1614" y1="0.5" y2="0.5" /><line stroke="rgb(0%,0%,0%)" x1="345.1614" x2="351.9" y1="0.5" y2="0.5" /><line stroke="rgb(0%,0%,0%)" x1="244.083" x2="236.6955" y1="0.5" y2="0.5" /><line stroke="rgb(0%,0%,0%)" x1="236.6955" x2="230.6746" y1="0.5" y2="0.5" /><line stroke="rgb(0%,0%,0%)" x1="230.6746" x2="225.8315" y1="0.5" y2="0.5" /><line stroke="rgb(0%,0%,0%)" x1="225.8315" x2="221.9638" y1="0.5" y2="0.5" /><line stroke="rgb(0%,0%,0%)" x1="201.7923" x2="201.7923" y1="100.5" y2="33.8451" /><line stroke="rgb(0%,0%,0%)" x1="201.7923" x2="201.7923" y1="33.8451" y2="0.5" /></svg>