<?xml version="1.0" encoding="utf-8" ?>
<svg baseProfile="tiny" height="100%" version="1.2" width="100%" xmlns="http://www.w3.org/2000/svg" xmlns:ev="http://www.w3.org/2001/xml-events" xmlns:xlink="http://www.w3.org/1999/xlink"><defs /><line stroke="rgb(0%,0%,0%)" x1="351.9" x2="351.9" y1="0.5" y2="96.8406" /><line stroke="rgb(0%,0%,0%)" x1="351.9" x2="351.9" y1="96.8406" y2="100.5" /><line stroke="rgb(0%,0%,0%)" x1="201.7923" x2="223.8913" y1="100.5" y2="100.5" /><line stroke="rgb(0%,0%,0%)" x1="223.8913" x2="228.1286" y1="100.5" y2="100.5" /><line stroke="rgb(0%,0%,0%)" x1="228.1286" x2="233.4345" y1="100.5" y2="100.5" /><line stroke="rgb(0%,0%,0%)" x1="233.4345" x2="240.0308" y1="100.5" y2="100.5" /><line stroke="rgb(0%,0%,0%)" x1="240.0308" x2="248.1242" y1="100.5" y2="100.5" /><line stroke="rgb(0%,0%,0%)" x1="248.1242" x2="316.4844" y1="100.5" y2="100.5" /><line stroke="rgb(0%,0%,0%)" x1="316.4844" x2="321.0843" y1="100.5" y2="100.5" /><line stroke="rgb(0%,0%,0%)" x1="321.0843" x2="326.3394" y1="100.5" y2="100.5" /><line stroke="rgb(0%,0%,0%)" x1="326.3394" x2="332.1716" y1="100.5" y2="100.5" /><line stroke="rgb(0%,0%,0%)" x1="332.1716" x2="338.4713" y1="100.5" y2="100.5" /><line stroke="rgb(0%,0%,0%)" x1="338.4713" x2="345.1005" y1="100.5" y2="100.5" /><line stroke="rgb(0%,0%,0%)" x1="345.1005" x2="351.9" y1="100.5" y2="100.5" /><line stroke="rgb(0%,0%,0%)" x1="223.8913" x2="201.7923" y1="0.5" y2="0.5" /><line stroke="rgb(0%,0%,0%)" x1="248.1242" x2="316.4844" y1="0.5" y2="0.5" /><line stroke="rgb(0%,0%,0%)" x1="316.4844" x2="321.0843" y1="0.5" y2="0.5" /><line stroke="rgb(0%,0%,0%)" x1="321.0843" x2="326.3394" y1="0.5" y2="0.5" /><line stroke="rgb(0%,0%,0%)" x1="326.3394" x2="332.1716" y1="0.5" y2="0.5" /><line stroke="rgb(0%,0%,0%)" x1="332.1716" x2="338.4713" y1="0.5" y2="0.5" /><line stroke="rgb(0%,0%,0%)" x1="338.4713" x2="345.1005" y1="0.5" y2="0.5" /><line stroke="rgb(0%,0%,0%)" x1="345.1005" x2="351.9" y1="0.5" y2="0.5" /><line stroke="rgb(0%,0%,0%)" x1="248.1242" x2="240.0308" y1="0.5" y2="0.5" /><line stroke="rgb(0%,0%,0%)" x1="240.0308" x2="233.4345" y1="0.5" y2="0.5" /><line stroke="rgb(0%,0%,0%)" x1="233.4345" x2="228.1286" y1="0.5" y2="0.5" /><line stroke="rgb(0%,0%,0%)" x1="228.1286" x2="223.8913" y1="0.5" y2="0.5" /><line stroke="rgb(0%,0%,0%)" x1="201.7923" x2="201.7923" y1="100.5" y2="27.4757" /><line stroke="rgb(0%,0%,0%)" x1="201.7923" x2="201.7923" y1="27.4757" y2="0.5" /></svg>