<?xml version="1.0" encoding="utf-8" ?>
<svg baseProfile="tiny" height="100%" version="1.2" width="100%" xmlns="http://www.w3.org/2000/svg" xmlns:ev="http://www.w3.org/2001/xml-events" xmlns:xlink="http://www.w3.org/1999/xlink"><defs /><line stroke="rgb(0%,0%,0%)" x1="351.9" x2="351.9" y1="0.5" y2="97.7047" /><line stroke="rgb(0%,0%,0%)" x1="351.9" x2="351.9" y1="97.7047" y2="100.5" /><line stroke="rgb(0%,0%,0%)" x1="201.7923" x2="225.8189" y1="100.5" y2="100.5" /><line stroke="rgb(0%,0%,0%)" x1="225.8189" x2="230.4257" y1="100.5" y2="100.5" /><line stroke="rgb(0%,0%,0%)" x1="230.4257" x2="236.1945" y1="100.5" y2="100.5" /><line stroke="rgb(0%,0%,0%)" x1="236.1945" x2="243.3661" y1="100.5" y2="100.5" /><line stroke="rgb(0%,0%,0%)" x1="243.3661" x2="252.1655" y1="100.5" y2="100.5" /><line stroke="rgb(0%,0%,0%)" x1="252.1655" x2="316.1668" y1="100.5" y2="100.5" /><line stroke="rgb(0%,0%,0%)" x1="316.1668" x2="320.8079" y1="100.5" y2="100.5" /><line stroke="rgb(0%,0%,0%)" x1="320.8079" x2="326.1101" y1="100.5" y2="100.5" /><line stroke="rgb(0%,0%,0%)" x1="326.1101" x2="331.9947" y1="100.5" y2="100.5" /><line stroke="rgb(0%,0%,0%)" x1="331.9947" x2="338.3509" y1="100.5" y2="100.5" /><line stroke="rgb(0%,0%,0%)" x1="338.3509" x2="345.0395" y1="100.5" y2="100.5" /><line stroke="rgb(0%,0%,0%)" x1="345.0395" x2="351.9" y1="100.5" y2="100.5" /><line stroke="rgb(0%,0%,0%)" x1="225.8189" x2="201.7923" y1="0.5" y2="0.5" /><line stroke="rgb(0%,0%,0%)" x1="252.1655" x2="316.1668" y1="0.5" y2="0.5" /><line stroke="rgb(0%,0%,0%)" x1="316.1668" x2="320.8079" y1="0.5" y2="0.5" /><line stroke="rgb(0%,0%,0%)" x1="320.8079" x2="326.1101" y1="0.5" y2="0.5" /><line stroke="rgb(0%,0%,0%)" x1="326.1101" x2="331.9947" y1="0.5" y2="0.5" /><line stroke="rgb(0%,0%,0%)" x1="331.9947" x2="338.3509" y1="0.5" y2="0.5" /><line stroke="rgb(0%,0%,0%)" x1="338.3509" x2="345.0395" y1="0.5" y2="0.5" /><line stroke="rgb(0%,0%,0%)" x1="345.0395" x2="351.9" y1="0.5" y2="0.5" /><line stroke="rgb(0%,0%,0%)" x1="252.1655" x2="243.3661" y1="0.5" y2="0.5" /><line stroke="rgb(0%,0%,0%)" x1="243.3661" x2="236.1945" y1="0.5" y2="0.5" /><line stroke="rgb(0%,0%,0%)" x1="236.1945" x2="230.4257" y1="0.5" y2="0.5" /><line stroke="rgb(0%,0%,0%)" x1="230.4257" x2="225.8189" y1="0.5" y2="0.5" /><line stroke="rgb(0%,0%,0%)" x1="201.7923" x2="201.7923" y1="100.5" y2="21.1063" /><line stroke="rgb(0%,0%,0%)" x1="201.7923" x2="201.7923" y1="21.1063" y2="0.5" /></svg>