<?xml version="1.0" encoding="utf-8" ?>
<svg baseProfile="tiny" height="100%" version="1.2" width="100%" xmlns="http://www.w3.org/2000/svg" xmlns:ev="http://www.w3.org/2001/xml-events" xmlns:xlink="http://www.w3.org/1999/xlink"><defs /><line stroke="rgb(0%,0%,0%)" x1="351.9" x2="351.9" y1="0.5" y2="98.5687" /><line stroke="rgb(0%,0%,0%)" x1="351.9" x2="351.9" y1="98.5687" y2="100.5" /><line stroke="rgb(0%,0%,0%)" x1="201.7923" x2="227.7464" y1="100.5" y2="100.5" /><line stroke="rgb(0%,0%,0%)" x1="227.7464" x2="232.7229" y1="100.5" y2="100.5" /><line stroke="rgb(0%,0%,0%)" x1="232.7229" x2="238.9544" y1="100.5" y2="100.5" /><line stroke="rgb(0%,0%,0%)" x1="238.9544" x2="246.7014" y1="100.5" y2="100.5" /><line stroke="rgb(0%,0%,0%)" x1="246.7014" x2="256.2067" y1="100.5" y2="100.5" /><line stroke="rgb(0%,0%,0%)" x1="256.2067" x2="315.8491" y1="100.5" y2="100.5" /><line stroke="rgb(0%,0%,0%)" x1="315.8491" x2="320.5316" y1="100.5" y2="100.5" /><line stroke="rgb(0%,0%,0%)" x1="320.5316" x2="325.8809" y1="100.5" y2="100.5" /><line stroke="rgb(0%,0%,0%)" x1="325.8809" x2="331.8178" y1="100.5" y2="100.5" /><line stroke="rgb(0%,0%,0%)" x1="331.8178" x2="338.2305" y1="100.5" y2="100.5" /><line stroke="rgb(0%,0%,0%)" x1="338.2305" x2="344.9785" y1="100.5" y2="100.5" /><line stroke="rgb(0%,0%,0%)" x1="344.9785" x2="351.9" y1="100.5" y2="100.5" /><line stroke="rgb(0%,0%,0%)" x1="227.7464" x2="201.7923" y1="0.5" y2="0.5" /><line stroke="rgb(0%,0%,0%)" x1="256.2067" x2="315.8491" y1="0.5" y2="0.5" /><line stroke="rgb(0%,0%,0%)" x1="315.8491" x2="320.5316" y1="0.5" y2="0.5" /><line stroke="rgb(0%,0%,0%)" x1="320.5316" x2="325.8809" y1="0.5" y2="0.5" /><line stroke="rgb(0%,0%,0%)" x1="325.8809" x2="331.8178" y1="0.5" y2="0.5" /><line stroke="rgb(0%,0%,0%)" x1="331.8178" x2="338.2305" y1="0.5" y2="0.5" /><line stroke="rgb(0%,0%,0%)" x1="338.2305" x2="344.9785" y1="0.5" y2="0.5" /><line stroke="rgb(0%,0%,0%)" x1="344.9785" x2="351.9" y1="0.5" y2="0.5" /><line stroke="rgb(0%,0%,0%)" x1="256.2067" x2="246.7014" y1="0.5" y2="0.5" /><line stroke="rgb(0%,0%,0%)" x1="246.7014" x2="238.9544" y1="0.5" y2="0.5" /><line stroke="rgb(0%,0%,0%)" x1="238.9544" x2="232.7229" y1="0.5" y2="0.5" /><line stroke="rgb(0%,0%,0%)" x1="232.7229" x2="227.7464" y1="0.5" y2="0.5" /><line stroke="rgb(0%,0%,0%)" x1="201.7923" x2="201.7923" y1="100.5" y2="14.7369" /><line stroke="rgb(0%,0%,0%)" x1="201.7923" x2="201.7923" y1="14.7369" y2="0.5" /></svg>