<?xml version="1.0" encoding="utf-8" ?>
<svg baseProfile="tiny" height="100%" version="1.2" width="100%" xmlns="http://www.w3.org/2000/svg" xmlns:ev="http://www.w3.org/2001/xml-events" xmlns:xlink="http://www.w3.org/1999/xlink"><defs /><line stroke="rgb(0%,0%,0%)" x1="351.9" x2="351.9" y1="0.5" y2="99.4327" /><line stroke="rgb(0%,0%,0%)" x1="351.9" x2="351.9" y1="99.4327" y2="100.5" /><line stroke="rgb(0%,0%,0%)" x1="201.7923" x2="229.674" y1="100.5" y2="100.5" /><line stroke="rgb(0%,0%,0%)" x1="229.674" x2="235.02" y1="100.5" y2="100.5" /><line stroke="rgb(0%,0%,0%)" x1="235.02" x2="241.7144" y1="100.5" y2="100.5" /><line stroke="rgb(0%,0%,0%)" x1="241.7144" x2="250.0367" y1="100.5" y2="100.5" /><line stroke="rgb(0%,0%,0%)" x1="250.0367" x2="260.2479" y1="100.5" y2="100.5" /><line stroke="rgb(0%,0%,0%)" x1="260.2479" x2="315.5315" y1="100.5" y2="100.5" /><line stroke="rgb(0%,0%,0%)" x1="315.5315" x2="320.2552" y1="100.5" y2="100.5" /><line stroke="rgb(0%,0%,0%)" x1="320.2552" x2="325.6516" y1="100.5" y2="100.5" /><line stroke="rgb(0%,0%,0%)" x1="325.6516" x2="331.6408" y1="100.5" y2="100.5" /><line stroke="rgb(0%,0%,0%)" x1="331.6408" x2="338.11" y1="100.5" y2="100.5" /><line stroke="rgb(0%,0%,0%)" x1="338.11" x2="344.9175" y1="100.5" y2="100.5" /><line stroke="rgb(0%,0%,0%)" x1="344.9175" x2="351.9" y1="100.5" y2="100.5" /><line stroke="rgb(0%,0%,0%)" x1="229.674" x2="201.7923" y1="0.5" y2="0.5" /><line stroke="rgb(0%,0%,0%)" x1="260.2479" x2="315.5315" y1="0.5" y2="0.5" /><line stroke="rgb(0%,0%,0%)" x1="315.5315" x2="320.2552" y1="0.5" y2="0.5" /><line stroke="rgb(0%,0%,0%)" x1="320.2552" x2="325.6516" y1="0.5" y2="0.5" /><line stroke="rgb(0%,0%,0%)" x1="325.6516" x2="331.6408" y1="0.5" y2="0.5" /><line stroke="rgb(0%,0%,0%)" x1="331.6408" x2="338.11" y1="0.5" y2="0.5" /><line stroke="rgb(0%,0%,0%)" x1="338.11" x2="344.9175" y1="0.5" y2="0.5" /><line stroke="rgb(0%,0%,0%)" x1="344.9175" x2="351.9" y1="0.5" y2="0.5" /><line stroke="rgb(0%,0%,0%)" x1="260.2479" x2="250.0367" y1="0.5" y2="0.5" /><line stroke="rgb(0%,0%,0%)" x1="250.0367" x2="241.7144" y1="0.5" y2="0.5" /><line stroke="rgb(0%,0%,0%)" x1="241.7144" x2="235.02" y1="0.5" y2="0.5" /><line stroke="rgb(0%,0%,0%)" x1="235.02" x2="229.674" y1="0.5" y2="0.5" /><line stroke="rgb(0%,0%,0%)" x1="201.7923" x2="201.7923" y1="100.5" y2="8.3674" /><line stroke="rgb(0%,0%,0%)" x1="201.7923" x2="201.7923" y1="8.3674" y2="0.5" /></svg>