<?xml version="1.0" encoding="utf-8" ?>
<svg baseProfile="tiny" height="100%" version="1.2" width="100%" xmlns="http://www.w3.org/2000/svg" xmlns:ev="http://www.w3.org/2001/xml-events" xmlns:xlink="http://www.w3.org/1999/xlink"><defs /><line stroke="rgb(0%,0%,0%)" x1="351.9" x2="351.9" y1="0.5" y2="100.2968" /><line stroke="rgb(0%,0%,0%)" x1="351.9" x2="351.9" y1="100.2968" y2="100.5" /><line stroke="rgb(0%,0%,0%)" x1="201.7923" x2="231.6015" y1="100.5" y2="100.5" /><line stroke="rgb(0%,0%,0%)" x1="231.6015" x2="237.3172" y1="100.5" y2="100.5" /><line stroke="rgb(0%,0%,0%)" x1="237.3172" x2="244.4743" y1="100.5" y2="100.5" /><line stroke="rgb(0%,0%,0%)" x1="244.4743" x2="253.372" y1="100.5" y2="100.5" /><line stroke="rgb(0%,0%,0%)" x1="253.372" x2="264.2892" y1="100.5" y2="100.5" /><line stroke="rgb(0%,0%,0%)" x1="264.2892" x2="315.2139" y1="100.5" y2="100.5" /><line stroke="rgb(0%,0%,0%)" x1="315.2139" x2="319.9788" y1="100.5" y2="100.5" /><line stroke="rgb(0%,0%,0%)" x1="319.9788" x2="325.4224" y1="100.5" y2="100.5" /><line stroke="rgb(0%,0%,0%)" x1="325.4224" x2="331.4639" y1="100.5" y2="100.5" /><line stroke="rgb(0%,0%,0%)" x1="331.4639" x2="337.9896" y1="100.5" y2="100.5" /><line stroke="rgb(0%,0%,0%)" x1="337.9896" x2="344.8565" y1="100.5" y2="100.5" /><line stroke="rgb(0%,0%,0%)" x1="344.8565" x2="351.9" y1="100.5" y2="100.5" /><line stroke="rgb(0%,0%,0%)" x1="231.6015" x2="201.7923" y1="0.5" y2="0.5" /><line stroke="rgb(0%,0%,0%)" x1="264.2892" x2="315.2139" y1="0.5" y2="0.5" /><line stroke="rgb(0%,0%,0%)" x1="315.2139" x2="319.9788" y1="0.5" y2="0.5" /><line stroke="rgb(0%,0%,0%)" x1="319.9788" x2="325.4224" y1="0.5" y2="0.5" /><line stroke="rgb(0%,0%,0%)" x1="325.4224" x2="331.4639" y1="0.5" y2="0.5" /><line stroke="rgb(0%,0%,0%)" x1="331.4639" x2="337.9896" y1="0.5" y2="0.5" /><line stroke="rgb(0%,0%,0%)" x1="337.9896" x2="344.8565" y1="0.5" y2="0.5" /><line stroke="rgb(0%,0%,0%)" x1="344.8565" x2="351.9" y1="0.5" y2="0.5" /><line stroke="rgb(0%,0%,0%)" x1="264.2892" x2="253.372" y1="0.5" y2="0.5" /><line stroke="rgb(0%,0%,0%)" x1="253.372" x2="244.4743" y1="0.5" y2="0.5" /><line stroke="rgb(0%,0%,0%)" x1="244.4743" x2="237.3172" y1="0.5" y2="0.5" /><line stroke="rgb(0%,0%,0%)" x1="237.3172" x2="231.6015" y1="0.5" y2="0.5" /><line stroke="rgb(0%,0%,0%)" x1="201.7923" x2="201.7923" y1="100.5" y2="1.998" /><line stroke="rgb(0%,0%,0%)" x1="201.7923" x2="201.7923" y1="1.998" y2="0.5" /></svg>