<?xml version="1.0" encoding="utf-8" ?>
<svg baseProfile="tiny" height="100%" version="1.2" width="100%" xmlns="http://www.w3.org/2000/svg" xmlns:ev="http://www.w3.org/2001/xml-events" xmlns:xlink="http://www.w3.org/1999/xlink"><defs /><line stroke="rgb(0%,0%,0%)" x1="341.6641" x2="341.6641" y1="100.5" y2="55.4975" /><line stroke="rgb(0%,0%,0%)" x1="341.6641" x2="341.6641" y1="55.4975" y2="0.5" /><line stroke="rgb(0%,0%,0%)" x1="201.7933" x2="201.7933" y1="0.5" y2="99.5067" /><line stroke="rgb(0%,0%,0%)" x1="201.7933" x2="201.7933" y1="99.5067" y2="100.5" /><line stroke="rgb(0%,0%,0%)" x1="204.0283" x2="233.5291" y1="100.5" y2="100.5" /><line stroke="rgb(0%,0%,0%)" x1="233.5291" x2="239.6143" y1="100.5" y2="100.5" /><line stroke="rgb(0%,0%,0%)" x1="239.6143" x2="247.2343" y1="100.5" y2="100.5" /><line stroke="rgb(0%,0%,0%)" x1="201.7933" x2="202.8405" y1="100.5" y2="100.5" /><line stroke="rgb(0%,0%,0%)" x1="202.8405" x2="203.0201" y1="100.5" y2="100.5" /><line stroke="rgb(0%,0%,0%)" x1="203.0201" x2="203.2596" y1="100.5" y2="100.5" /><line stroke="rgb(0%,0%,0%)" x1="203.2596" x2="203.5832" y1="100.5" y2="100.5" /><line stroke="rgb(0%,0%,0%)" x1="203.5832" x2="204.0283" y1="100.5" y2="100.5" /><line stroke="rgb(0%,0%,0%)" x1="247.2343" x2="256.7073" y1="100.5" y2="100.5" /><line stroke="rgb(0%,0%,0%)" x1="256.7073" x2="268.3304" y1="100.5" y2="100.5" /><line stroke="rgb(0%,0%,0%)" x1="268.3304" x2="314.8963" y1="100.5" y2="100.5" /><line stroke="rgb(0%,0%,0%)" x1="314.8963" x2="319.7024" y1="100.5" y2="100.5" /><line stroke="rgb(0%,0%,0%)" x1="319.7024" x2="325.1932" y1="100.5" y2="100.5" /><line stroke="rgb(0%,0%,0%)" x1="325.1932" x2="331.287" y1="100.5" y2="100.5" /><line stroke="rgb(0%,0%,0%)" x1="331.287" x2="337.8691" y1="100.5" y2="100.5" /><line stroke="rgb(0%,0%,0%)" x1="337.8691" x2="341.6641" y1="100.5" y2="100.5" /><line stroke="rgb(0%,0%,0%)" x1="202.8405" x2="201.7933" y1="0.5" y2="0.5" /><line stroke="rgb(0%,0%,0%)" x1="233.5291" x2="204.0283" y1="0.5" y2="0.5" /><line stroke="rgb(0%,0%,0%)" x1="204.0283" x2="203.5832" y1="0.5" y2="0.5" /><line stroke="rgb(0%,0%,0%)" x1="203.5832" x2="203.2596" y1="0.5" y2="0.5" /><line stroke="rgb(0%,0%,0%)" x1="268.3304" x2="314.8963" y1="0.5" y2="0.5" /><line stroke="rgb(0%,0%,0%)" x1="314.8963" x2="319.7024" y1="0.5" y2="0.5" /><line stroke="rgb(0%,0%,0%)" x1="319.7024" x2="325.1932" y1="0.5" y2="0.5" /><line stroke="rgb(0%,0%,0%)" x1="325.1932" x2="331.287" y1="0.5" y2="0.5" /><line stroke="rgb(0%,0%,0%)" x1="331.287" x2="337.8691" y1="0.5" y2="0.5" /><line stroke="rgb(0%,0%,0%)" x1="337.8691" x2="341.6641" y1="0.5" y2="0.5" /><line stroke="rgb(0%,0%,0%)" x1="268.3304" x2="256.7073" y1="0.5" y2="0.5" /><line stroke="rgb(0%,0%,0%)" x1="256.7073" x2="247.2343" y1="0.5" y2="0.5" /><line stroke="rgb(0%,0%,0%)" x1="247.2343" x2="239.6143" y1="0.5" y2="0.5" /><line stroke="rgb(0%,0%,0%)" x1="239.6143" x2="233.5291" y1="0.5" y2="0.5" /><line stroke="rgb(0%,0%,0%)" x1="203.2596" x2="203.0201" y1="0.5" y2="0.5" /><line stroke="rgb(0%,0%,0%)" x1="203.0201" x2="202.8405" y1="0.5" y2="0.5" /></svg>