<?xml version="1.0" encoding="utf-8" ?>
<svg baseProfile="tiny" height="100%" version="1.2" width="100%" xmlns="http://www.w3.org/2000/svg" xmlns:ev="http://www.w3.org/2001/xml-events" xmlns:xlink="http://www.w3.org/1999/xlink"><defs /><line stroke="rgb(0%,0%,0%)" x1="335.8253" x2="335.8253" y1="100.5" y2="71.8083" /><line stroke="rgb(0%,0%,0%)" x1="335.8253" x2="335.8253" y1="71.8083" y2="0.5" /><line stroke="rgb(0%,0%,0%)" x1="201.7947" x2="201.7947" y1="0.5" y2="98.208" /><line stroke="rgb(0%,0%,0%)" x1="201.7947" x2="201.7947" y1="98.208" y2="100.5" /><line stroke="rgb(0%,0%,0%)" x1="206.9519" x2="235.4566" y1="100.5" y2="100.5" /><line stroke="rgb(0%,0%,0%)" x1="235.4566" x2="241.9115" y1="100.5" y2="100.5" /><line stroke="rgb(0%,0%,0%)" x1="241.9115" x2="249.9942" y1="100.5" y2="100.5" /><line stroke="rgb(0%,0%,0%)" x1="201.7947" x2="204.211" y1="100.5" y2="100.5" /><line stroke="rgb(0%,0%,0%)" x1="204.211" x2="204.6255" y1="100.5" y2="100.5" /><line stroke="rgb(0%,0%,0%)" x1="204.6255" x2="205.1783" y1="100.5" y2="100.5" /><line stroke="rgb(0%,0%,0%)" x1="205.1783" x2="205.925" y1="100.5" y2="100.5" /><line stroke="rgb(0%,0%,0%)" x1="205.925" x2="206.9519" y1="100.5" y2="100.5" /><line stroke="rgb(0%,0%,0%)" x1="249.9942" x2="260.0426" y1="100.5" y2="100.5" /><line stroke="rgb(0%,0%,0%)" x1="260.0426" x2="272.3716" y1="100.5" y2="100.5" /><line stroke="rgb(0%,0%,0%)" x1="272.3716" x2="314.5786" y1="100.5" y2="100.5" /><line stroke="rgb(0%,0%,0%)" x1="314.5786" x2="319.4261" y1="100.5" y2="100.5" /><line stroke="rgb(0%,0%,0%)" x1="319.4261" x2="324.9639" y1="100.5" y2="100.5" /><line stroke="rgb(0%,0%,0%)" x1="324.9639" x2="331.11" y1="100.5" y2="100.5" /><line stroke="rgb(0%,0%,0%)" x1="331.11" x2="335.8253" y1="100.5" y2="100.5" /><line stroke="rgb(0%,0%,0%)" x1="204.211" x2="201.7947" y1="0.5" y2="0.5" /><line stroke="rgb(0%,0%,0%)" x1="235.4566" x2="206.9519" y1="0.5" y2="0.5" /><line stroke="rgb(0%,0%,0%)" x1="206.9519" x2="205.925" y1="0.5" y2="0.5" /><line stroke="rgb(0%,0%,0%)" x1="205.925" x2="205.1783" y1="0.5" y2="0.5" /><line stroke="rgb(0%,0%,0%)" x1="272.3716" x2="314.5786" y1="0.5" y2="0.5" /><line stroke="rgb(0%,0%,0%)" x1="314.5786" x2="319.4261" y1="0.5" y2="0.5" /><line stroke="rgb(0%,0%,0%)" x1="319.4261" x2="324.9639" y1="0.5" y2="0.5" /><line stroke="rgb(0%,0%,0%)" x1="324.9639" x2="331.11" y1="0.5" y2="0.5" /><line stroke="rgb(0%,0%,0%)" x1="331.11" x2="335.8253" y1="0.5" y2="0.5" /><line stroke="rgb(0%,0%,0%)" x1="272.3716" x2="260.0426" y1="0.5" y2="0.5" /><line stroke="rgb(0%,0%,0%)" x1="260.0426" x2="249.9942" y1="0.5" y2="0.5" /><line stroke="rgb(0%,0%,0%)" x1="249.9942" x2="241.9115" y1="0.5" y2="0.5" /><line stroke="rgb(0%,0%,0%)" x1="241.9115" x2="235.4566" y1="0.5" y2="0.5" /><line stroke="rgb(0%,0%,0%)" x1="205.1783" x2="204.6255" y1="0.5" y2="0.5" /><line stroke="rgb(0%,0%,0%)" x1="204.6255" x2="204.211" y1="0.5" y2="0.5" /></svg>