<?xml version="1.0" encoding="utf-8" ?>
<svg baseProfile="tiny" height="100%" version="1.2" width="100%" xmlns="http://www.w3.org/2000/svg" xmlns:ev="http://www.w3.org/2001/xml-events" xmlns:xlink="http://www.w3.org/1999/xlink"><defs /><line stroke="rgb(0%,0%,0%)" x1="331.5567" x2="331.5567" y1="100.5" y2="9.9308" /><line stroke="rgb(0%,0%,0%)" x1="331.5567" x2="331.5567" y1="9.9308" y2="0.5" /><line stroke="rgb(0%,0%,0%)" x1="201.7961" x2="201.7961" y1="0.5" y2="96.9093" /><line stroke="rgb(0%,0%,0%)" x1="201.7961" x2="201.7961" y1="96.9093" y2="100.5" /><line stroke="rgb(0%,0%,0%)" x1="209.8756" x2="237.3842" y1="100.5" y2="100.5" /><line stroke="rgb(0%,0%,0%)" x1="237.3842" x2="244.2086" y1="100.5" y2="100.5" /><line stroke="rgb(0%,0%,0%)" x1="244.2086" x2="252.7542" y1="100.5" y2="100.5" /><line stroke="rgb(0%,0%,0%)" x1="201.7961" x2="205.5815" y1="100.5" y2="100.5" /><line stroke="rgb(0%,0%,0%)" x1="205.5815" x2="206.231" y1="100.5" y2="100.5" /><line stroke="rgb(0%,0%,0%)" x1="206.231" x2="207.0969" y1="100.5" y2="100.5" /><line stroke="rgb(0%,0%,0%)" x1="207.0969" x2="208.2667" y1="100.5" y2="100.5" /><line stroke="rgb(0%,0%,0%)" x1="208.2667" x2="209.8756" y1="100.5" y2="100.5" /><line stroke="rgb(0%,0%,0%)" x1="252.7542" x2="263.3779" y1="100.5" y2="100.5" /><line stroke="rgb(0%,0%,0%)" x1="263.3779" x2="276.4129" y1="100.5" y2="100.5" /><line stroke="rgb(0%,0%,0%)" x1="276.4129" x2="314.261" y1="100.5" y2="100.5" /><line stroke="rgb(0%,0%,0%)" x1="314.261" x2="319.1497" y1="100.5" y2="100.5" /><line stroke="rgb(0%,0%,0%)" x1="319.1497" x2="324.7347" y1="100.5" y2="100.5" /><line stroke="rgb(0%,0%,0%)" x1="324.7347" x2="330.9331" y1="100.5" y2="100.5" /><line stroke="rgb(0%,0%,0%)" x1="330.9331" x2="331.5567" y1="100.5" y2="100.5" /><line stroke="rgb(0%,0%,0%)" x1="205.5815" x2="201.7961" y1="0.5" y2="0.5" /><line stroke="rgb(0%,0%,0%)" x1="237.3842" x2="209.8756" y1="0.5" y2="0.5" /><line stroke="rgb(0%,0%,0%)" x1="209.8756" x2="208.2667" y1="0.5" y2="0.5" /><line stroke="rgb(0%,0%,0%)" x1="208.2667" x2="207.0969" y1="0.5" y2="0.5" /><line stroke="rgb(0%,0%,0%)" x1="276.4129" x2="314.261" y1="0.5" y2="0.5" /><line stroke="rgb(0%,0%,0%)" x1="314.261" x2="319.1497" y1="0.5" y2="0.5" /><line stroke="rgb(0%,0%,0%)" x1="319.1497" x2="324.7347" y1="0.5" y2="0.5" /><line stroke="rgb(0%,0%,0%)" x1="324.7347" x2="330.9331" y1="0.5" y2="0.5" /><line stroke="rgb(0%,0%,0%)" x1="330.9331" x2="331.5567" y1="0.5" y2="0.5" /><line stroke="rgb(0%,0%,0%)" x1="276.4129" x2="263.3779" y1="0.5" y2="0.5" /><line stroke="rgb(0%,0%,0%)" x1="263.3779" x2="252.7542" y1="0.5" y2="0.5" /><line stroke="rgb(0%,0%,0%)" x1="252.7542" x2="244.2086" y1="0.5" y2="0.5" /><line stroke="rgb(0%,0%,0%)" x1="244.2086" x2="237.3842" y1="0.5" y2="0.5" /><line stroke="rgb(0%,0%,0%)" x1="207.0969" x2="206.231" y1="0.5" y2="0.5" /><line stroke="rgb(0%,0%,0%)" x1="206.231" x2="205.5815" y1="0.5" y2="0.5" /></svg>