<?xml version="1.0" encoding="utf-8" ?>
<svg baseProfile="tiny" height="100%" version="1.2" width="100%" xmlns="http://www.w3.org/2000/svg" xmlns:ev="http://www.w3.org/2001/xml-events" xmlns:xlink="http://www.w3.org/1999/xlink"><defs /><line stroke="rgb(0%,0%,0%)" x1="351.9" x2="351.9" y1="0.5" y2="10.4365" /><line stroke="rgb(0%,0%,0%)" x1="351.9" x2="351.9" y1="10.4365" y2="100.5" /><line stroke="rgb(0%,0%,0%)" x1="334.6437" x2="348.2473" y1="100.5" y2="100.5" /><line stroke="rgb(0%,0%,0%)" x1="348.2473" x2="348.7217" y1="100.5" y2="100.5" /><line stroke="rgb(0%,0%,0%)" x1="348.7217" x2="349.2637" y1="100.5" y2="100.5" /><line stroke="rgb(0%,0%,0%)" x1="349.2637" x2="349.8652" y1="100.5" y2="100.5" /><line stroke="rgb(0%,0%,0%)" x1="349.8652" x2="350.515" y1="100.5" y2="100.5" /><line stroke="rgb(0%,0%,0%)" x1="350.515" x2="351.1987" y1="100.5" y2="100.5" /><line stroke="rgb(0%,0%,0%)" x1="351.1987" x2="351.9" y1="100.5" y2="100.5" /><line stroke="rgb(0%,0%,0%)" x1="334.6437" x2="23.6405" y1="100.5" y2="100.5" /><line stroke="rgb(0%,0%,0%)" x1="23.6405" x2="0.5" y1="100.5" y2="100.5" /><line stroke="rgb(0%,0%,0%)" x1="0.5" x2="23.6405" y1="0.5" y2="0.5" /><line stroke="rgb(0%,0%,0%)" x1="23.6405" x2="334.6437" y1="0.5" y2="0.5" /><line stroke="rgb(0%,0%,0%)" x1="334.6437" x2="348.2473" y1="0.5" y2="0.5" /><line stroke="rgb(0%,0%,0%)" x1="348.2473" x2="348.7217" y1="0.5" y2="0.5" /><line stroke="rgb(0%,0%,0%)" x1="348.7217" x2="349.2637" y1="0.5" y2="0.5" /><line stroke="rgb(0%,0%,0%)" x1="349.2637" x2="349.8652" y1="0.5" y2="0.5" /><line stroke="rgb(0%,0%,0%)" x1="349.8652" x2="350.515" y1="0.5" y2="0.5" /><line stroke="rgb(0%,0%,0%)" x1="350.515" x2="351.1987" y1="0.5" y2="0.5" /><line stroke="rgb(0%,0%,0%)" x1="351.1987" x2="351.9" y1="0.5" y2="0.5" /><line stroke="rgb(0%,0%,0%)" x1="0.5" x2="0.5" y1="0.5" y2="89.004" /><line stroke="rgb(0%,0%,0%)" x1="0.5" x2="0.5" y1="89.004" y2="100.5" /><line stroke="rgb(0%,0%,0%)" x1="165.1722" x2="165.4246" y1="47.3813" y2="49.783" /><line stroke="rgb(0%,0%,0%)" x1="165.4246" x2="165.5" y1="49.783" y2="50.5" /><line stroke="rgb(0%,0%,0%)" x1="165.5" x2="165.2476" y1="50.5" y2="52.9016" /><line stroke="rgb(0%,0%,0%)" x1="165.2476" x2="165.1722" y1="52.9016" y2="53.6187" /><line stroke="rgb(0%,0%,0%)" x1="165.1722" x2="164.426" y1="53.6187" y2="55.9153" /><line stroke="rgb(0%,0%,0%)" x1="164.426" x2="164.2032" y1="55.9153" y2="56.6011" /><line stroke="rgb(0%,0%,0%)" x1="164.2032" x2="162.9957" y1="56.6011" y2="58.6924" /><line stroke="rgb(0%,0%,0%)" x1="162.9957" x2="162.6353" y1="58.6924" y2="59.3168" /><line stroke="rgb(0%,0%,0%)" x1="162.6353" x2="161.0194" y1="59.3168" y2="61.1114" /><line stroke="rgb(0%,0%,0%)" x1="161.0194" x2="160.537" y1="61.1114" y2="61.6472" /><line stroke="rgb(0%,0%,0%)" x1="160.537" x2="158.5833" y1="61.6472" y2="63.0666" /><line stroke="rgb(0%,0%,0%)" x1="158.5833" x2="158.0" y1="63.0666" y2="63.4904" /><line stroke="rgb(0%,0%,0%)" x1="158.0" x2="155.7939" y1="63.4904" y2="64.4726" /><line stroke="rgb(0%,0%,0%)" x1="155.7939" x2="155.1353" y1="64.4726" y2="64.7658" /><line stroke="rgb(0%,0%,0%)" x1="155.1353" x2="152.7732" y1="64.7658" y2="65.2679" /><line stroke="rgb(0%,0%,0%)" x1="152.7732" x2="152.0679" y1="65.2679" y2="65.4178" /><line stroke="rgb(0%,0%,0%)" x1="152.0679" x2="149.6531" y1="65.4178" y2="65.4178" /><line stroke="rgb(0%,0%,0%)" x1="149.6531" x2="148.9321" y1="65.4178" y2="65.4178" /><line stroke="rgb(0%,0%,0%)" x1="148.9321" x2="146.57" y1="65.4178" y2="64.9157" /><line stroke="rgb(0%,0%,0%)" x1="146.57" x2="145.8647" y1="64.9157" y2="64.7658" /><line stroke="rgb(0%,0%,0%)" x1="145.8647" x2="143.6587" y1="64.7658" y2="63.7836" /><line stroke="rgb(0%,0%,0%)" x1="143.6587" x2="143.0" y1="63.7836" y2="63.4904" /><line stroke="rgb(0%,0%,0%)" x1="143.0" x2="141.0463" y1="63.4904" y2="62.071" /><line stroke="rgb(0%,0%,0%)" x1="141.0463" x2="140.463" y1="62.071" y2="61.6472" /><line stroke="rgb(0%,0%,0%)" x1="140.463" x2="138.8472" y1="61.6472" y2="59.8526" /><line stroke="rgb(0%,0%,0%)" x1="138.8472" x2="138.3647" y1="59.8526" y2="59.3168" /><line stroke="rgb(0%,0%,0%)" x1="138.3647" x2="137.1573" y1="59.3168" y2="57.2254" /><line stroke="rgb(0%,0%,0%)" x1="137.1573" x2="136.7968" y1="57.2254" y2="56.6011" /><line stroke="rgb(0%,0%,0%)" x1="136.7968" x2="136.0506" y1="56.6011" y2="54.3044" /><line stroke="rgb(0%,0%,0%)" x1="136.0506" x2="135.8278" y1="54.3044" y2="53.6187" /><line stroke="rgb(0%,0%,0%)" x1="135.8278" x2="135.5754" y1="53.6187" y2="51.217" /><line stroke="rgb(0%,0%,0%)" x1="135.5754" x2="135.5" y1="51.217" y2="50.5" /><line stroke="rgb(0%,0%,0%)" x1="135.5" x2="135.7524" y1="50.5" y2="48.0984" /><line stroke="rgb(0%,0%,0%)" x1="135.7524" x2="135.8278" y1="48.0984" y2="47.3813" /><line stroke="rgb(0%,0%,0%)" x1="135.8278" x2="136.574" y1="47.3813" y2="45.0847" /><line stroke="rgb(0%,0%,0%)" x1="136.574" x2="136.7968" y1="45.0847" y2="44.3989" /><line stroke="rgb(0%,0%,0%)" x1="136.7968" x2="138.0042" y1="44.3989" y2="42.3076" /><line stroke="rgb(0%,0%,0%)" x1="138.0042" x2="138.3647" y1="42.3076" y2="41.6832" /><line stroke="rgb(0%,0%,0%)" x1="138.3647" x2="139.9806" y1="41.6832" y2="39.8886" /><line stroke="rgb(0%,0%,0%)" x1="139.9806" x2="140.463" y1="39.8886" y2="39.3528" /><line stroke="rgb(0%,0%,0%)" x1="140.463" x2="142.4167" y1="39.3528" y2="37.9334" /><line stroke="rgb(0%,0%,0%)" x1="142.4167" x2="143.0" y1="37.9334" y2="37.5096" /><line stroke="rgb(0%,0%,0%)" x1="143.0" x2="145.2061" y1="37.5096" y2="36.5274" /><line stroke="rgb(0%,0%,0%)" x1="145.2061" x2="145.8647" y1="36.5274" y2="36.2342" /><line stroke="rgb(0%,0%,0%)" x1="145.8647" x2="148.2268" y1="36.2342" y2="35.7321" /><line stroke="rgb(0%,0%,0%)" x1="148.2268" x2="148.9321" y1="35.7321" y2="35.5822" /><line stroke="rgb(0%,0%,0%)" x1="148.9321" x2="151.3469" y1="35.5822" y2="35.5822" /><line stroke="rgb(0%,0%,0%)" x1="151.3469" x2="152.0679" y1="35.5822" y2="35.5822" /><line stroke="rgb(0%,0%,0%)" x1="152.0679" x2="154.43" y1="35.5822" y2="36.0842" /><line stroke="rgb(0%,0%,0%)" x1="154.43" x2="155.1353" y1="36.0842" y2="36.2342" /><line stroke="rgb(0%,0%,0%)" x1="155.1353" x2="157.3413" y1="36.2342" y2="37.2164" /><line stroke="rgb(0%,0%,0%)" x1="157.3413" x2="158.0" y1="37.2164" y2="37.5096" /><line stroke="rgb(0%,0%,0%)" x1="158.0" x2="159.9537" y1="37.5096" y2="38.929" /><line stroke="rgb(0%,0%,0%)" x1="159.9537" x2="160.537" y1="38.929" y2="39.3528" /><line stroke="rgb(0%,0%,0%)" x1="160.537" x2="162.1528" y1="39.3528" y2="41.1474" /><line stroke="rgb(0%,0%,0%)" x1="162.1528" x2="162.6353" y1="41.1474" y2="41.6832" /><line stroke="rgb(0%,0%,0%)" x1="162.6353" x2="163.8427" y1="41.6832" y2="43.7746" /><line stroke="rgb(0%,0%,0%)" x1="163.8427" x2="164.2032" y1="43.7746" y2="44.3989" /><line stroke="rgb(0%,0%,0%)" x1="164.2032" x2="164.9494" y1="44.3989" y2="46.6956" /><line stroke="rgb(0%,0%,0%)" x1="164.9494" x2="165.1722" y1="46.6956" y2="47.3813" /><line stroke="rgb(0%,0%,0%)" x1="65.1722" x2="65.4246" y1="47.3813" y2="49.783" /><line stroke="rgb(0%,0%,0%)" x1="65.4246" x2="65.5" y1="49.783" y2="50.5" /><line stroke="rgb(0%,0%,0%)" x1="65.5" x2="65.2476" y1="50.5" y2="52.9016" /><line stroke="rgb(0%,0%,0%)" x1="65.2476" x2="65.1722" y1="52.9016" y2="53.6187" /><line stroke="rgb(0%,0%,0%)" x1="65.1722" x2="64.426" y1="53.6187" y2="55.9153" /><line stroke="rgb(0%,0%,0%)" x1="64.426" x2="64.2032" y1="55.9153" y2="56.6011" /><line stroke="rgb(0%,0%,0%)" x1="64.2032" x2="62.9957" y1="56.6011" y2="58.6924" /><line stroke="rgb(0%,0%,0%)" x1="62.9957" x2="62.6352" y1="58.6924" y2="59.3168" /><line stroke="rgb(0%,0%,0%)" x1="62.6352" x2="61.0194" y1="59.3168" y2="61.1114" /><line stroke="rgb(0%,0%,0%)" x1="61.0194" x2="60.537" y1="61.1114" y2="61.6472" /><line stroke="rgb(0%,0%,0%)" x1="60.537" x2="58.5833" y1="61.6472" y2="63.0666" /><line stroke="rgb(0%,0%,0%)" x1="58.5833" x2="58.0" y1="63.0666" y2="63.4904" /><line stroke="rgb(0%,0%,0%)" x1="58.0" x2="55.7939" y1="63.4904" y2="64.4726" /><line stroke="rgb(0%,0%,0%)" x1="55.7939" x2="55.1353" y1="64.4726" y2="64.7658" /><line stroke="rgb(0%,0%,0%)" x1="55.1353" x2="52.7732" y1="64.7658" y2="65.2679" /><line stroke="rgb(0%,0%,0%)" x1="52.7732" x2="52.0679" y1="65.2679" y2="65.4178" /><line stroke="rgb(0%,0%,0%)" x1="52.0679" x2="49.6531" y1="65.4178" y2="65.4178" /><line stroke="rgb(0%,0%,0%)" x1="49.6531" x2="48.9321" y1="65.4178" y2="65.4178" /><line stroke="rgb(0%,0%,0%)" x1="48.9321" x2="46.57" y1="65.4178" y2="64.9157" /><line stroke="rgb(0%,0%,0%)" x1="46.57" x2="45.8647" y1="64.9157" y2="64.7658" /><line stroke="rgb(0%,0%,0%)" x1="45.8647" x2="43.6587" y1="64.7658" y2="63.7836" /><line stroke="rgb(0%,0%,0%)" x1="43.6587" x2="43.0" y1="63.7836" y2="63.4904" /><line stroke="rgb(0%,0%,0%)" x1="43.0" x2="41.0463" y1="63.4904" y2="62.071" /><line stroke="rgb(0%,0%,0%)" x1="41.0463" x2="40.463" y1="62.071" y2="61.6472" /><line stroke="rgb(0%,0%,0%)" x1="40.463" x2="38.8472" y1="61.6472" y2="59.8526" /><line stroke="rgb(0%,0%,0%)" x1="38.8472" x2="38.3647" y1="59.8526" y2="59.3168" /><line stroke="rgb(0%,0%,0%)" x1="38.3647" x2="37.1573" y1="59.3168" y2="57.2254" /><line stroke="rgb(0%,0%,0%)" x1="37.1573" x2="36.7968" y1="57.2254" y2="56.6011" /><line stroke="rgb(0%,0%,0%)" x1="36.7968" x2="36.0506" y1="56.6011" y2="54.3044" /><line stroke="rgb(0%,0%,0%)" x1="36.0506" x2="35.8278" y1="54.3044" y2="53.6187" /><line stroke="rgb(0%,0%,0%)" x1="35.8278" x2="35.5754" y1="53.6187" y2="51.217" /><line stroke="rgb(0%,0%,0%)" x1="35.5754" x2="35.5" y1="51.217" y2="50.5" /><line stroke="rgb(0%,0%,0%)" x1="35.5" x2="35.7524" y1="50.5" y2="48.0984" /><line stroke="rgb(0%,0%,0%)" x1="35.7524" x2="35.8278" y1="48.0984" y2="47.3813" /><line stroke="rgb(0%,0%,0%)" x1="35.8278" x2="36.574" y1="47.3813" y2="45.0847" /><line stroke="rgb(0%,0%,0%)" x1="36.574" x2="36.7968" y1="45.0847" y2="44.3989" /><line stroke="rgb(0%,0%,0%)" x1="36.7968" x2="38.0042" y1="44.3989" y2="42.3076" /><line stroke="rgb(0%,0%,0%)" x1="38.0042" x2="38.3647" y1="42.3076" y2="41.6832" /><line stroke="rgb(0%,0%,0%)" x1="38.3647" x2="39.9806" y1="41.6832" y2="39.8886" /><line stroke="rgb(0%,0%,0%)" x1="39.9806" x2="40.463" y1="39.8886" y2="39.3528" /><line stroke="rgb(0%,0%,0%)" x1="40.463" x2="42.4167" y1="39.3528" y2="37.9334" /><line stroke="rgb(0%,0%,0%)" x1="42.4167" x2="43.0" y1="37.9334" y2="37.5096" /><line stroke="rgb(0%,0%,0%)" x1="43.0" x2="45.2061" y1="37.5096" y2="36.5274" /><line stroke="rgb(0%,0%,0%)" x1="45.2061" x2="45.8647" y1="36.5274" y2="36.2342" /><line stroke="rgb(0%,0%,0%)" x1="45.8647" x2="48.2268" y1="36.2342" y2="35.7321" /><line stroke="rgb(0%,0%,0%)" x1="48.2268" x2="48.9321" y1="35.7321" y2="35.5822" /><line stroke="rgb(0%,0%,0%)" x1="48.9321" x2="51.3469" y1="35.5822" y2="35.5822" /><line stroke="rgb(0%,0%,0%)" x1="51.3469" x2="52.0679" y1="35.5822" y2="35.5822" /><line stroke="rgb(0%,0%,0%)" x1="52.0679" x2="54.43" y1="35.5822" y2="36.0842" /><line stroke="rgb(0%,0%,0%)" x1="54.43" x2="55.1353" y1="36.0842" y2="36.2342" /><line stroke="rgb(0%,0%,0%)" x1="55.1353" x2="57.3413" y1="36.2342" y2="37.2164" /><line stroke="rgb(0%,0%,0%)" x1="57.3413" x2="58.0" y1="37.2164" y2="37.5096" /><line stroke="rgb(0%,0%,0%)" x1="58.0" x2="59.9537" y1="37.5096" y2="38.929" /><line stroke="rgb(0%,0%,0%)" x1="59.9537" x2="60.537" y1="38.929" y2="39.3528" /><line stroke="rgb(0%,0%,0%)" x1="60.537" x2="62.1528" y1="39.3528" y2="41.1474" /><line stroke="rgb(0%,0%,0%)" x1="62.1528" x2="62.6352" y1="41.1474" y2="41.6832" /><line stroke="rgb(0%,0%,0%)" x1="62.6352" x2="63.8427" y1="41.6832" y2="43.7746" /><line stroke="rgb(0%,0%,0%)" x1="63.8427" x2="64.2032" y1="43.7746" y2="44.3989" /><line stroke="rgb(0%,0%,0%)" x1="64.2032" x2="64.9494" y1="44.3989" y2="46.6956" /><line stroke="rgb(0%,0%,0%)" x1="64.9494" x2="65.1722" y1="46.6956" y2="47.3813" /></svg>