<?xml version="1.0" encoding="utf-8" ?>
<svg baseProfile="tiny" height="100%" version="1.2" width="100%" xmlns="http://www.w3.org/2000/svg" xmlns:ev="http://www.w3.org/2001/xml-events" xmlns:xlink="http://www.w3.org/1999/xlink"><defs /><line stroke="rgb(0%,0%,0%)" x1="328.3669" x2="328.3669" y1="100.5" y2="62.7175" /><line stroke="rgb(0%,0%,0%)" x1="328.3669" x2="328.3669" y1="62.7175" y2="0.5" /><line stroke="rgb(0%,0%,0%)" x1="201.7975" x2="201.7975" y1="0.5" y2="95.6106" /><line stroke="rgb(0%,0%,0%)" x1="201.7975" x2="201.7975" y1="95.6106" y2="100.5" /><line stroke="rgb(0%,0%,0%)" x1="212.7993" x2="239.3118" y1="100.5" y2="100.5" /><line stroke="rgb(0%,0%,0%)" x1="239.3118" x2="246.5058" y1="100.5" y2="100.5" /><line stroke="rgb(0%,0%,0%)" x1="246.5058" x2="255.5141" y1="100.5" y2="100.5" /><line stroke="rgb(0%,0%,0%)" x1="201.7975" x2="206.9521" y1="100.5" y2="100.5" /><line stroke="rgb(0%,0%,0%)" x1="206.9521" x2="207.8364" y1="100.5" y2="100.5" /><line stroke="rgb(0%,0%,0%)" x1="207.8364" x2="209.0155" y1="100.5" y2="100.5" /><line stroke="rgb(0%,0%,0%)" x1="209.0155" x2="210.6085" y1="100.5" y2="100.5" /><line stroke="rgb(0%,0%,0%)" x1="210.6085" x2="212.7993" y1="100.5" y2="100.5" /><line stroke="rgb(0%,0%,0%)" x1="255.5141" x2="266.7132" y1="100.5" y2="100.5" /><line stroke="rgb(0%,0%,0%)" x1="266.7132" x2="280.4541" y1="100.5" y2="100.5" /><line stroke="rgb(0%,0%,0%)" x1="280.4541" x2="313.9434" y1="100.5" y2="100.5" /><line stroke="rgb(0%,0%,0%)" x1="313.9434" x2="318.8733" y1="100.5" y2="100.5" /><line stroke="rgb(0%,0%,0%)" x1="318.8733" x2="324.5054" y1="100.5" y2="100.5" /><line stroke="rgb(0%,0%,0%)" x1="328.3669" x2="324.5054" y1="100.5" y2="100.5" /><line stroke="rgb(0%,0%,0%)" x1="206.9521" x2="201.7975" y1="0.5" y2="0.5" /><line stroke="rgb(0%,0%,0%)" x1="239.3118" x2="212.7993" y1="0.5" y2="0.5" /><line stroke="rgb(0%,0%,0%)" x1="212.7993" x2="210.6085" y1="0.5" y2="0.5" /><line stroke="rgb(0%,0%,0%)" x1="210.6085" x2="209.0155" y1="0.5" y2="0.5" /><line stroke="rgb(0%,0%,0%)" x1="280.4541" x2="313.9434" y1="0.5" y2="0.5" /><line stroke="rgb(0%,0%,0%)" x1="313.9434" x2="318.8733" y1="0.5" y2="0.5" /><line stroke="rgb(0%,0%,0%)" x1="318.8733" x2="324.5054" y1="0.5" y2="0.5" /><line stroke="rgb(0%,0%,0%)" x1="324.5054" x2="328.3669" y1="0.5" y2="0.5" /><line stroke="rgb(0%,0%,0%)" x1="280.4541" x2="266.7132" y1="0.5" y2="0.5" /><line stroke="rgb(0%,0%,0%)" x1="266.7132" x2="255.5141" y1="0.5" y2="0.5" /><line stroke="rgb(0%,0%,0%)" x1="255.5141" x2="246.5058" y1="0.5" y2="0.5" /><line stroke="rgb(0%,0%,0%)" x1="246.5058" x2="239.3118" y1="0.5" y2="0.5" /><line stroke="rgb(0%,0%,0%)" x1="209.0155" x2="207.8364" y1="0.5" y2="0.5" /><line stroke="rgb(0%,0%,0%)" x1="207.8364" x2="206.9521" y1="0.5" y2="0.5" /></svg>