<?xml version="1.0" encoding="utf-8" ?>
<svg baseProfile="tiny" height="100%" version="1.2" width="100%" xmlns="http://www.w3.org/2000/svg" xmlns:ev="http://www.w3.org/2001/xml-events" xmlns:xlink="http://www.w3.org/1999/xlink"><defs /><line stroke="rgb(0%,0%,0%)" x1="325.3711" x2="325.3711" y1="100.5" y2="18.141" /><line stroke="rgb(0%,0%,0%)" x1="325.3711" x2="325.3711" y1="18.141" y2="0.5" /><line stroke="rgb(0%,0%,0%)" x1="201.7989" x2="201.7989" y1="0.5" y2="94.3119" /><line stroke="rgb(0%,0%,0%)" x1="201.7989" x2="201.7989" y1="94.3119" y2="100.5" /><line stroke="rgb(0%,0%,0%)" x1="215.7229" x2="241.2393" y1="100.5" y2="100.5" /><line stroke="rgb(0%,0%,0%)" x1="241.2393" x2="248.8029" y1="100.5" y2="100.5" /><line stroke="rgb(0%,0%,0%)" x1="248.8029" x2="258.2741" y1="100.5" y2="100.5" /><line stroke="rgb(0%,0%,0%)" x1="201.7989" x2="208.3226" y1="100.5" y2="100.5" /><line stroke="rgb(0%,0%,0%)" x1="208.3226" x2="209.4418" y1="100.5" y2="100.5" /><line stroke="rgb(0%,0%,0%)" x1="209.4418" x2="210.9342" y1="100.5" y2="100.5" /><line stroke="rgb(0%,0%,0%)" x1="210.9342" x2="212.9502" y1="100.5" y2="100.5" /><line stroke="rgb(0%,0%,0%)" x1="212.9502" x2="215.7229" y1="100.5" y2="100.5" /><line stroke="rgb(0%,0%,0%)" x1="258.2741" x2="270.0485" y1="100.5" y2="100.5" /><line stroke="rgb(0%,0%,0%)" x1="270.0485" x2="284.4953" y1="100.5" y2="100.5" /><line stroke="rgb(0%,0%,0%)" x1="284.4953" x2="313.6257" y1="100.5" y2="100.5" /><line stroke="rgb(0%,0%,0%)" x1="313.6257" x2="318.5969" y1="100.5" y2="100.5" /><line stroke="rgb(0%,0%,0%)" x1="318.5969" x2="324.2762" y1="100.5" y2="100.5" /><line stroke="rgb(0%,0%,0%)" x1="325.3711" x2="324.2762" y1="100.5" y2="100.5" /><line stroke="rgb(0%,0%,0%)" x1="208.3226" x2="201.7989" y1="0.5" y2="0.5" /><line stroke="rgb(0%,0%,0%)" x1="241.2393" x2="215.7229" y1="0.5" y2="0.5" /><line stroke="rgb(0%,0%,0%)" x1="215.7229" x2="212.9502" y1="0.5" y2="0.5" /><line stroke="rgb(0%,0%,0%)" x1="212.9502" x2="210.9342" y1="0.5" y2="0.5" /><line stroke="rgb(0%,0%,0%)" x1="284.4953" x2="313.6257" y1="0.5" y2="0.5" /><line stroke="rgb(0%,0%,0%)" x1="313.6257" x2="318.5969" y1="0.5" y2="0.5" /><line stroke="rgb(0%,0%,0%)" x1="318.5969" x2="324.2762" y1="0.5" y2="0.5" /><line stroke="rgb(0%,0%,0%)" x1="324.2762" x2="325.3711" y1="0.5" y2="0.5" /><line stroke="rgb(0%,0%,0%)" x1="284.4953" x2="270.0485" y1="0.5" y2="0.5" /><line stroke="rgb(0%,0%,0%)" x1="270.0485" x2="258.2741" y1="0.5" y2="0.5" /><line stroke="rgb(0%,0%,0%)" x1="258.2741" x2="248.8029" y1="0.5" y2="0.5" /><line stroke="rgb(0%,0%,0%)" x1="248.8029" x2="241.2393" y1="0.5" y2="0.5" /><line stroke="rgb(0%,0%,0%)" x1="210.9342" x2="209.4418" y1="0.5" y2="0.5" /><line stroke="rgb(0%,0%,0%)" x1="209.4418" x2="208.3226" y1="0.5" y2="0.5" /></svg>