<?xml version="1.0" encoding="utf-8" ?>
<svg baseProfile="tiny" height="100%" version="1.2" width="100%" xmlns="http://www.w3.org/2000/svg" xmlns:ev="http://www.w3.org/2001/xml-events" xmlns:xlink="http://www.w3.org/1999/xlink"><defs /><line stroke="rgb(0%,0%,0%)" x1="322.8111" x2="322.8111" y1="100.5" y2="79.31" /><line stroke="rgb(0%,0%,0%)" x1="322.8111" x2="322.8111" y1="79.31" y2="0.5" /><line stroke="rgb(0%,0%,0%)" x1="201.8003" x2="201.8003" y1="0.5" y2="93.0132" /><line stroke="rgb(0%,0%,0%)" x1="201.8003" x2="201.8003" y1="93.0132" y2="100.5" /><line stroke="rgb(0%,0%,0%)" x1="218.6466" x2="243.1669" y1="100.5" y2="100.5" /><line stroke="rgb(0%,0%,0%)" x1="243.1669" x2="251.1001" y1="100.5" y2="100.5" /><line stroke="rgb(0%,0%,0%)" x1="251.1001" x2="261.034" y1="100.5" y2="100.5" /><line stroke="rgb(0%,0%,0%)" x1="201.8003" x2="209.6932" y1="100.5" y2="100.5" /><line stroke="rgb(0%,0%,0%)" x1="209.6932" x2="211.0473" y1="100.5" y2="100.5" /><line stroke="rgb(0%,0%,0%)" x1="211.0473" x2="212.8528" y1="100.5" y2="100.5" /><line stroke="rgb(0%,0%,0%)" x1="212.8528" x2="215.292" y1="100.5" y2="100.5" /><line stroke="rgb(0%,0%,0%)" x1="215.292" x2="218.6466" y1="100.5" y2="100.5" /><line stroke="rgb(0%,0%,0%)" x1="261.034" x2="273.3838" y1="100.5" y2="100.5" /><line stroke="rgb(0%,0%,0%)" x1="273.3838" x2="288.5366" y1="100.5" y2="100.5" /><line stroke="rgb(0%,0%,0%)" x1="288.5366" x2="313.3081" y1="100.5" y2="100.5" /><line stroke="rgb(0%,0%,0%)" x1="313.3081" x2="318.3206" y1="100.5" y2="100.5" /><line stroke="rgb(0%,0%,0%)" x1="318.3206" x2="322.8111" y1="100.5" y2="100.5" /><line stroke="rgb(0%,0%,0%)" x1="209.6932" x2="201.8003" y1="0.5" y2="0.5" /><line stroke="rgb(0%,0%,0%)" x1="243.1669" x2="218.6466" y1="0.5" y2="0.5" /><line stroke="rgb(0%,0%,0%)" x1="218.6466" x2="215.292" y1="0.5" y2="0.5" /><line stroke="rgb(0%,0%,0%)" x1="215.292" x2="212.8528" y1="0.5" y2="0.5" /><line stroke="rgb(0%,0%,0%)" x1="288.5366" x2="313.3081" y1="0.5" y2="0.5" /><line stroke="rgb(0%,0%,0%)" x1="313.3081" x2="318.3206" y1="0.5" y2="0.5" /><line stroke="rgb(0%,0%,0%)" x1="318.3206" x2="322.8111" y1="0.5" y2="0.5" /><line stroke="rgb(0%,0%,0%)" x1="288.5366" x2="273.3838" y1="0.5" y2="0.5" /><line stroke="rgb(0%,0%,0%)" x1="273.3838" x2="261.034" y1="0.5" y2="0.5" /><line stroke="rgb(0%,0%,0%)" x1="261.034" x2="251.1001" y1="0.5" y2="0.5" /><line stroke="rgb(0%,0%,0%)" x1="251.1001" x2="243.1669" y1="0.5" y2="0.5" /><line stroke="rgb(0%,0%,0%)" x1="212.8528" x2="211.0473" y1="0.5" y2="0.5" /><line stroke="rgb(0%,0%,0%)" x1="211.0473" x2="209.6932" y1="0.5" y2="0.5" /></svg>