<?xml version="1.0" encoding="utf-8" ?>
<svg baseProfile="tiny" height="100%" version="1.2" width="100%" xmlns="http://www.w3.org/2000/svg" xmlns:ev="http://www.w3.org/2001/xml-events" xmlns:xlink="http://www.w3.org/1999/xlink"><defs /><line stroke="rgb(0%,0%,0%)" x1="320.5366" x2="320.5366" y1="100.5" y2="44.2418" /><line stroke="rgb(0%,0%,0%)" x1="320.5366" x2="320.5366" y1="44.2418" y2="0.5" /><line stroke="rgb(0%,0%,0%)" x1="201.8017" x2="201.8017" y1="0.5" y2="91.7145" /><line stroke="rgb(0%,0%,0%)" x1="201.8017" x2="201.8017" y1="91.7145" y2="100.5" /><line stroke="rgb(0%,0%,0%)" x1="221.5702" x2="245.0944" y1="100.5" y2="100.5" /><line stroke="rgb(0%,0%,0%)" x1="245.0944" x2="253.3972" y1="100.5" y2="100.5" /><line stroke="rgb(0%,0%,0%)" x1="253.3972" x2="263.794" y1="100.5" y2="100.5" /><line stroke="rgb(0%,0%,0%)" x1="201.8017" x2="211.0637" y1="100.5" y2="100.5" /><line stroke="rgb(0%,0%,0%)" x1="211.0637" x2="212.6527" y1="100.5" y2="100.5" /><line stroke="rgb(0%,0%,0%)" x1="212.6527" x2="214.7714" y1="100.5" y2="100.5" /><line stroke="rgb(0%,0%,0%)" x1="214.7714" x2="217.6337" y1="100.5" y2="100.5" /><line stroke="rgb(0%,0%,0%)" x1="217.6337" x2="221.5702" y1="100.5" y2="100.5" /><line stroke="rgb(0%,0%,0%)" x1="263.794" x2="276.7191" y1="100.5" y2="100.5" /><line stroke="rgb(0%,0%,0%)" x1="276.7191" x2="292.5778" y1="100.5" y2="100.5" /><line stroke="rgb(0%,0%,0%)" x1="292.5778" x2="312.9905" y1="100.5" y2="100.5" /><line stroke="rgb(0%,0%,0%)" x1="312.9905" x2="318.0442" y1="100.5" y2="100.5" /><line stroke="rgb(0%,0%,0%)" x1="318.0442" x2="320.5366" y1="100.5" y2="100.5" /><line stroke="rgb(0%,0%,0%)" x1="211.0637" x2="201.8017" y1="0.5" y2="0.5" /><line stroke="rgb(0%,0%,0%)" x1="245.0944" x2="221.5702" y1="0.5" y2="0.5" /><line stroke="rgb(0%,0%,0%)" x1="221.5702" x2="217.6337" y1="0.5" y2="0.5" /><line stroke="rgb(0%,0%,0%)" x1="217.6337" x2="214.7714" y1="0.5" y2="0.5" /><line stroke="rgb(0%,0%,0%)" x1="292.5778" x2="312.9905" y1="0.5" y2="0.5" /><line stroke="rgb(0%,0%,0%)" x1="312.9905" x2="318.0442" y1="0.5" y2="0.5" /><line stroke="rgb(0%,0%,0%)" x1="318.0442" x2="320.5366" y1="0.5" y2="0.5" /><line stroke="rgb(0%,0%,0%)" x1="292.5778" x2="276.7191" y1="0.5" y2="0.5" /><line stroke="rgb(0%,0%,0%)" x1="276.7191" x2="263.794" y1="0.5" y2="0.5" /><line stroke="rgb(0%,0%,0%)" x1="263.794" x2="253.3972" y1="0.5" y2="0.5" /><line stroke="rgb(0%,0%,0%)" x1="253.3972" x2="245.0944" y1="0.5" y2="0.5" /><line stroke="rgb(0%,0%,0%)" x1="214.7714" x2="212.6527" y1="0.5" y2="0.5" /><line stroke="rgb(0%,0%,0%)" x1="212.6527" x2="211.0637" y1="0.5" y2="0.5" /></svg>