<?xml version="1.0" encoding="utf-8" ?>
<svg baseProfile="tiny" height="100%" version="1.2" width="100%" xmlns="http://www.w3.org/2000/svg" xmlns:ev="http://www.w3.org/2001/xml-events" xmlns:xlink="http://www.w3.org/1999/xlink"><defs /><line stroke="rgb(0%,0%,0%)" x1="318.262" x2="318.262" y1="100.5" y2="9.1736" /><line stroke="rgb(0%,0%,0%)" x1="318.262" x2="318.262" y1="9.1736" y2="0.5" /><line stroke="rgb(0%,0%,0%)" x1="201.8031" x2="201.8031" y1="0.5" y2="90.4158" /><line stroke="rgb(0%,0%,0%)" x1="201.8031" x2="201.8031" y1="90.4158" y2="100.5" /><line stroke="rgb(0%,0%,0%)" x1="224.4939" x2="247.022" y1="100.5" y2="100.5" /><line stroke="rgb(0%,0%,0%)" x1="247.022" x2="255.6943" y1="100.5" y2="100.5" /><line stroke="rgb(0%,0%,0%)" x1="255.6943" x2="266.5539" y1="100.5" y2="100.5" /><line stroke="rgb(0%,0%,0%)" x1="201.8031" x2="212.4342" y1="100.5" y2="100.5" /><line stroke="rgb(0%,0%,0%)" x1="212.4342" x2="214.2581" y1="100.5" y2="100.5" /><line stroke="rgb(0%,0%,0%)" x1="214.2581" x2="216.69" y1="100.5" y2="100.5" /><line stroke="rgb(0%,0%,0%)" x1="216.69" x2="219.9755" y1="100.5" y2="100.5" /><line stroke="rgb(0%,0%,0%)" x1="219.9755" x2="224.4939" y1="100.5" y2="100.5" /><line stroke="rgb(0%,0%,0%)" x1="266.5539" x2="280.0544" y1="100.5" y2="100.5" /><line stroke="rgb(0%,0%,0%)" x1="280.0544" x2="296.619" y1="100.5" y2="100.5" /><line stroke="rgb(0%,0%,0%)" x1="296.619" x2="312.6729" y1="100.5" y2="100.5" /><line stroke="rgb(0%,0%,0%)" x1="312.6729" x2="317.7678" y1="100.5" y2="100.5" /><line stroke="rgb(0%,0%,0%)" x1="317.7678" x2="318.262" y1="100.5" y2="100.5" /><line stroke="rgb(0%,0%,0%)" x1="212.4342" x2="201.8031" y1="0.5" y2="0.5" /><line stroke="rgb(0%,0%,0%)" x1="247.022" x2="224.4939" y1="0.5" y2="0.5" /><line stroke="rgb(0%,0%,0%)" x1="224.4939" x2="219.9755" y1="0.5" y2="0.5" /><line stroke="rgb(0%,0%,0%)" x1="219.9755" x2="216.69" y1="0.5" y2="0.5" /><line stroke="rgb(0%,0%,0%)" x1="296.619" x2="312.6729" y1="0.5" y2="0.5" /><line stroke="rgb(0%,0%,0%)" x1="312.6729" x2="317.7678" y1="0.5" y2="0.5" /><line stroke="rgb(0%,0%,0%)" x1="317.7678" x2="318.262" y1="0.5" y2="0.5" /><line stroke="rgb(0%,0%,0%)" x1="296.619" x2="280.0544" y1="0.5" y2="0.5" /><line stroke="rgb(0%,0%,0%)" x1="280.0544" x2="266.5539" y1="0.5" y2="0.5" /><line stroke="rgb(0%,0%,0%)" x1="266.5539" x2="255.6943" y1="0.5" y2="0.5" /><line stroke="rgb(0%,0%,0%)" x1="255.6943" x2="247.022" y1="0.5" y2="0.5" /><line stroke="rgb(0%,0%,0%)" x1="216.69" x2="214.2581" y1="0.5" y2="0.5" /><line stroke="rgb(0%,0%,0%)" x1="214.2581" x2="212.4342" y1="0.5" y2="0.5" /></svg>