<?xml version="1.0" encoding="utf-8" ?>
<svg baseProfile="tiny" height="100%" version="1.2" width="100%" xmlns="http://www.w3.org/2000/svg" xmlns:ev="http://www.w3.org/2001/xml-events" xmlns:xlink="http://www.w3.org/1999/xlink"><defs /><line stroke="rgb(0%,0%,0%)" x1="316.342" x2="316.342" y1="100.5" y2="78.5928" /><line stroke="rgb(0%,0%,0%)" x1="316.342" x2="316.342" y1="78.5928" y2="0.5" /><line stroke="rgb(0%,0%,0%)" x1="201.8045" x2="201.8045" y1="0.5" y2="89.1171" /><line stroke="rgb(0%,0%,0%)" x1="201.8045" x2="201.8045" y1="89.1171" y2="100.5" /><line stroke="rgb(0%,0%,0%)" x1="227.4175" x2="248.9495" y1="100.5" y2="100.5" /><line stroke="rgb(0%,0%,0%)" x1="248.9495" x2="257.9915" y1="100.5" y2="100.5" /><line stroke="rgb(0%,0%,0%)" x1="257.9915" x2="269.3139" y1="100.5" y2="100.5" /><line stroke="rgb(0%,0%,0%)" x1="201.8045" x2="213.8048" y1="100.5" y2="100.5" /><line stroke="rgb(0%,0%,0%)" x1="213.8048" x2="215.8636" y1="100.5" y2="100.5" /><line stroke="rgb(0%,0%,0%)" x1="215.8636" x2="218.6087" y1="100.5" y2="100.5" /><line stroke="rgb(0%,0%,0%)" x1="218.6087" x2="222.3172" y1="100.5" y2="100.5" /><line stroke="rgb(0%,0%,0%)" x1="222.3172" x2="227.4175" y1="100.5" y2="100.5" /><line stroke="rgb(0%,0%,0%)" x1="269.3139" x2="283.3897" y1="100.5" y2="100.5" /><line stroke="rgb(0%,0%,0%)" x1="283.3897" x2="300.6602" y1="100.5" y2="100.5" /><line stroke="rgb(0%,0%,0%)" x1="300.6602" x2="312.3552" y1="100.5" y2="100.5" /><line stroke="rgb(0%,0%,0%)" x1="312.3552" x2="316.342" y1="100.5" y2="100.5" /><line stroke="rgb(0%,0%,0%)" x1="213.8048" x2="201.8045" y1="0.5" y2="0.5" /><line stroke="rgb(0%,0%,0%)" x1="248.9495" x2="227.4175" y1="0.5" y2="0.5" /><line stroke="rgb(0%,0%,0%)" x1="227.4175" x2="222.3172" y1="0.5" y2="0.5" /><line stroke="rgb(0%,0%,0%)" x1="222.3172" x2="218.6087" y1="0.5" y2="0.5" /><line stroke="rgb(0%,0%,0%)" x1="300.6602" x2="312.3552" y1="0.5" y2="0.5" /><line stroke="rgb(0%,0%,0%)" x1="312.3552" x2="316.342" y1="0.5" y2="0.5" /><line stroke="rgb(0%,0%,0%)" x1="300.6602" x2="283.3897" y1="0.5" y2="0.5" /><line stroke="rgb(0%,0%,0%)" x1="283.3897" x2="269.3139" y1="0.5" y2="0.5" /><line stroke="rgb(0%,0%,0%)" x1="269.3139" x2="257.9915" y1="0.5" y2="0.5" /><line stroke="rgb(0%,0%,0%)" x1="257.9915" x2="248.9495" y1="0.5" y2="0.5" /><line stroke="rgb(0%,0%,0%)" x1="218.6087" x2="215.8636" y1="0.5" y2="0.5" /><line stroke="rgb(0%,0%,0%)" x1="215.8636" x2="213.8048" y1="0.5" y2="0.5" /></svg>