<?xml version="1.0" encoding="utf-8" ?>
<svg baseProfile="tiny" height="100%" version="1.2" width="100%" xmlns="http://www.w3.org/2000/svg" xmlns:ev="http://www.w3.org/2001/xml-events" xmlns:xlink="http://www.w3.org/1999/xlink"><defs /><line stroke="rgb(0%,0%,0%)" x1="314.5384" x2="314.5384" y1="100.5" y2="49.4867" /><line stroke="rgb(0%,0%,0%)" x1="314.5384" x2="314.5384" y1="49.4867" y2="0.5" /><line stroke="rgb(0%,0%,0%)" x1="201.8059" x2="201.8059" y1="0.5" y2="87.8184" /><line stroke="rgb(0%,0%,0%)" x1="201.8059" x2="201.8059" y1="87.8184" y2="100.5" /><line stroke="rgb(0%,0%,0%)" x1="230.3412" x2="250.8771" y1="100.5" y2="100.5" /><line stroke="rgb(0%,0%,0%)" x1="250.8771" x2="260.2886" y1="100.5" y2="100.5" /><line stroke="rgb(0%,0%,0%)" x1="260.2886" x2="272.0738" y1="100.5" y2="100.5" /><line stroke="rgb(0%,0%,0%)" x1="201.8059" x2="215.1753" y1="100.5" y2="100.5" /><line stroke="rgb(0%,0%,0%)" x1="215.1753" x2="217.469" y1="100.5" y2="100.5" /><line stroke="rgb(0%,0%,0%)" x1="217.469" x2="220.5273" y1="100.5" y2="100.5" /><line stroke="rgb(0%,0%,0%)" x1="220.5273" x2="224.6589" y1="100.5" y2="100.5" /><line stroke="rgb(0%,0%,0%)" x1="224.6589" x2="230.3412" y1="100.5" y2="100.5" /><line stroke="rgb(0%,0%,0%)" x1="272.0738" x2="286.725" y1="100.5" y2="100.5" /><line stroke="rgb(0%,0%,0%)" x1="286.725" x2="304.7015" y1="100.5" y2="100.5" /><line stroke="rgb(0%,0%,0%)" x1="304.7015" x2="312.0376" y1="100.5" y2="100.5" /><line stroke="rgb(0%,0%,0%)" x1="312.0376" x2="314.5384" y1="100.5" y2="100.5" /><line stroke="rgb(0%,0%,0%)" x1="215.1753" x2="201.8059" y1="0.5" y2="0.5" /><line stroke="rgb(0%,0%,0%)" x1="250.8771" x2="230.3412" y1="0.5" y2="0.5" /><line stroke="rgb(0%,0%,0%)" x1="230.3412" x2="224.6589" y1="0.5" y2="0.5" /><line stroke="rgb(0%,0%,0%)" x1="224.6589" x2="220.5273" y1="0.5" y2="0.5" /><line stroke="rgb(0%,0%,0%)" x1="304.7015" x2="312.0376" y1="0.5" y2="0.5" /><line stroke="rgb(0%,0%,0%)" x1="312.0376" x2="314.5384" y1="0.5" y2="0.5" /><line stroke="rgb(0%,0%,0%)" x1="304.7015" x2="286.725" y1="0.5" y2="0.5" /><line stroke="rgb(0%,0%,0%)" x1="286.725" x2="272.0738" y1="0.5" y2="0.5" /><line stroke="rgb(0%,0%,0%)" x1="272.0738" x2="260.2886" y1="0.5" y2="0.5" /><line stroke="rgb(0%,0%,0%)" x1="260.2886" x2="250.8771" y1="0.5" y2="0.5" /><line stroke="rgb(0%,0%,0%)" x1="220.5273" x2="217.469" y1="0.5" y2="0.5" /><line stroke="rgb(0%,0%,0%)" x1="217.469" x2="215.1753" y1="0.5" y2="0.5" /></svg>