<?xml version="1.0" encoding="utf-8" ?>
<svg baseProfile="tiny" height="100%" version="1.2" width="100%" xmlns="http://www.w3.org/2000/svg" xmlns:ev="http://www.w3.org/2001/xml-events" xmlns:xlink="http://www.w3.org/1999/xlink"><defs /><line stroke="rgb(0%,0%,0%)" x1="312.7349" x2="312.7349" y1="100.5" y2="20.3806" /><line stroke="rgb(0%,0%,0%)" x1="312.7349" x2="312.7349" y1="20.3806" y2="0.5" /><line stroke="rgb(0%,0%,0%)" x1="201.8073" x2="201.8073" y1="0.5" y2="86.5197" /><line stroke="rgb(0%,0%,0%)" x1="201.8073" x2="201.8073" y1="86.5197" y2="100.5" /><line stroke="rgb(0%,0%,0%)" x1="233.2648" x2="252.8046" y1="100.5" y2="100.5" /><line stroke="rgb(0%,0%,0%)" x1="252.8046" x2="262.5858" y1="100.5" y2="100.5" /><line stroke="rgb(0%,0%,0%)" x1="262.5858" x2="274.8338" y1="100.5" y2="100.5" /><line stroke="rgb(0%,0%,0%)" x1="201.8073" x2="216.5459" y1="100.5" y2="100.5" /><line stroke="rgb(0%,0%,0%)" x1="216.5459" x2="219.0744" y1="100.5" y2="100.5" /><line stroke="rgb(0%,0%,0%)" x1="219.0744" x2="222.4459" y1="100.5" y2="100.5" /><line stroke="rgb(0%,0%,0%)" x1="222.4459" x2="227.0007" y1="100.5" y2="100.5" /><line stroke="rgb(0%,0%,0%)" x1="227.0007" x2="233.2648" y1="100.5" y2="100.5" /><line stroke="rgb(0%,0%,0%)" x1="274.8338" x2="290.0603" y1="100.5" y2="100.5" /><line stroke="rgb(0%,0%,0%)" x1="290.0603" x2="308.7427" y1="100.5" y2="100.5" /><line stroke="rgb(0%,0%,0%)" x1="308.7427" x2="311.72" y1="100.5" y2="100.5" /><line stroke="rgb(0%,0%,0%)" x1="311.72" x2="312.7349" y1="100.5" y2="100.5" /><line stroke="rgb(0%,0%,0%)" x1="216.5459" x2="201.8073" y1="0.5" y2="0.5" /><line stroke="rgb(0%,0%,0%)" x1="252.8046" x2="233.2648" y1="0.5" y2="0.5" /><line stroke="rgb(0%,0%,0%)" x1="233.2648" x2="227.0007" y1="0.5" y2="0.5" /><line stroke="rgb(0%,0%,0%)" x1="227.0007" x2="222.4459" y1="0.5" y2="0.5" /><line stroke="rgb(0%,0%,0%)" x1="308.7427" x2="311.72" y1="0.5" y2="0.5" /><line stroke="rgb(0%,0%,0%)" x1="311.72" x2="312.7349" y1="0.5" y2="0.5" /><line stroke="rgb(0%,0%,0%)" x1="308.7427" x2="290.0603" y1="0.5" y2="0.5" /><line stroke="rgb(0%,0%,0%)" x1="290.0603" x2="274.8338" y1="0.5" y2="0.5" /><line stroke="rgb(0%,0%,0%)" x1="274.8338" x2="262.5858" y1="0.5" y2="0.5" /><line stroke="rgb(0%,0%,0%)" x1="262.5858" x2="252.8046" y1="0.5" y2="0.5" /><line stroke="rgb(0%,0%,0%)" x1="222.4459" x2="219.0744" y1="0.5" y2="0.5" /><line stroke="rgb(0%,0%,0%)" x1="219.0744" x2="216.5459" y1="0.5" y2="0.5" /></svg>