<?xml version="1.0" encoding="utf-8" ?>
<svg baseProfile="tiny" height="100%" version="1.2" width="100%" xmlns="http://www.w3.org/2000/svg" xmlns:ev="http://www.w3.org/2001/xml-events" xmlns:xlink="http://www.w3.org/1999/xlink"><defs /><line stroke="rgb(0%,0%,0%)" x1="311.038" x2="311.038" y1="100.5" y2="92.5575" /><line stroke="rgb(0%,0%,0%)" x1="311.038" x2="311.038" y1="92.5575" y2="0.5" /><line stroke="rgb(0%,0%,0%)" x1="201.8087" x2="201.8087" y1="0.5" y2="85.221" /><line stroke="rgb(0%,0%,0%)" x1="201.8087" x2="201.8087" y1="85.221" y2="100.5" /><line stroke="rgb(0%,0%,0%)" x1="236.1885" x2="254.7322" y1="100.5" y2="100.5" /><line stroke="rgb(0%,0%,0%)" x1="254.7322" x2="264.8829" y1="100.5" y2="100.5" /><line stroke="rgb(0%,0%,0%)" x1="264.8829" x2="277.5937" y1="100.5" y2="100.5" /><line stroke="rgb(0%,0%,0%)" x1="201.8087" x2="217.9164" y1="100.5" y2="100.5" /><line stroke="rgb(0%,0%,0%)" x1="217.9164" x2="220.6799" y1="100.5" y2="100.5" /><line stroke="rgb(0%,0%,0%)" x1="220.6799" x2="224.3646" y1="100.5" y2="100.5" /><line stroke="rgb(0%,0%,0%)" x1="224.3646" x2="229.3424" y1="100.5" y2="100.5" /><line stroke="rgb(0%,0%,0%)" x1="229.3424" x2="236.1885" y1="100.5" y2="100.5" /><line stroke="rgb(0%,0%,0%)" x1="277.5937" x2="293.3956" y1="100.5" y2="100.5" /><line stroke="rgb(0%,0%,0%)" x1="293.3956" x2="311.038" y1="100.5" y2="100.5" /><line stroke="rgb(0%,0%,0%)" x1="217.9164" x2="201.8087" y1="0.5" y2="0.5" /><line stroke="rgb(0%,0%,0%)" x1="254.7322" x2="236.1885" y1="0.5" y2="0.5" /><line stroke="rgb(0%,0%,0%)" x1="236.1885" x2="229.3424" y1="0.5" y2="0.5" /><line stroke="rgb(0%,0%,0%)" x1="229.3424" x2="224.3646" y1="0.5" y2="0.5" /><line stroke="rgb(0%,0%,0%)" x1="311.038" x2="293.3956" y1="0.5" y2="0.5" /><line stroke="rgb(0%,0%,0%)" x1="293.3956" x2="277.5937" y1="0.5" y2="0.5" /><line stroke="rgb(0%,0%,0%)" x1="277.5937" x2="264.8829" y1="0.5" y2="0.5" /><line stroke="rgb(0%,0%,0%)" x1="264.8829" x2="254.7322" y1="0.5" y2="0.5" /><line stroke="rgb(0%,0%,0%)" x1="224.3646" x2="220.6799" y1="0.5" y2="0.5" /><line stroke="rgb(0%,0%,0%)" x1="220.6799" x2="217.9164" y1="0.5" y2="0.5" /></svg>