<?xml version="1.0" encoding="utf-8" ?>
<svg baseProfile="tiny" height="100%" version="1.2" width="100%" xmlns="http://www.w3.org/2000/svg" xmlns:ev="http://www.w3.org/2001/xml-events" xmlns:xlink="http://www.w3.org/1999/xlink"><defs /><line stroke="rgb(0%,0%,0%)" x1="309.571" x2="309.571" y1="100.5" y2="67.4993" /><line stroke="rgb(0%,0%,0%)" x1="309.571" x2="309.571" y1="67.4993" y2="0.5" /><line stroke="rgb(0%,0%,0%)" x1="201.8101" x2="201.8101" y1="0.5" y2="83.9223" /><line stroke="rgb(0%,0%,0%)" x1="201.8101" x2="201.8101" y1="83.9223" y2="100.5" /><line stroke="rgb(0%,0%,0%)" x1="239.1121" x2="256.6597" y1="100.5" y2="100.5" /><line stroke="rgb(0%,0%,0%)" x1="256.6597" x2="267.1801" y1="100.5" y2="100.5" /><line stroke="rgb(0%,0%,0%)" x1="267.1801" x2="280.3536" y1="100.5" y2="100.5" /><line stroke="rgb(0%,0%,0%)" x1="201.8101" x2="219.2869" y1="100.5" y2="100.5" /><line stroke="rgb(0%,0%,0%)" x1="219.2869" x2="222.2853" y1="100.5" y2="100.5" /><line stroke="rgb(0%,0%,0%)" x1="222.2853" x2="226.2832" y1="100.5" y2="100.5" /><line stroke="rgb(0%,0%,0%)" x1="226.2832" x2="231.6842" y1="100.5" y2="100.5" /><line stroke="rgb(0%,0%,0%)" x1="231.6842" x2="239.1121" y1="100.5" y2="100.5" /><line stroke="rgb(0%,0%,0%)" x1="280.3536" x2="296.7309" y1="100.5" y2="100.5" /><line stroke="rgb(0%,0%,0%)" x1="296.7309" x2="309.571" y1="100.5" y2="100.5" /><line stroke="rgb(0%,0%,0%)" x1="219.2869" x2="201.8101" y1="0.5" y2="0.5" /><line stroke="rgb(0%,0%,0%)" x1="256.6597" x2="239.1121" y1="0.5" y2="0.5" /><line stroke="rgb(0%,0%,0%)" x1="239.1121" x2="231.6842" y1="0.5" y2="0.5" /><line stroke="rgb(0%,0%,0%)" x1="231.6842" x2="226.2832" y1="0.5" y2="0.5" /><line stroke="rgb(0%,0%,0%)" x1="309.571" x2="296.7309" y1="0.5" y2="0.5" /><line stroke="rgb(0%,0%,0%)" x1="296.7309" x2="280.3536" y1="0.5" y2="0.5" /><line stroke="rgb(0%,0%,0%)" x1="280.3536" x2="267.1801" y1="0.5" y2="0.5" /><line stroke="rgb(0%,0%,0%)" x1="267.1801" x2="256.6597" y1="0.5" y2="0.5" /><line stroke="rgb(0%,0%,0%)" x1="226.2832" x2="222.2853" y1="0.5" y2="0.5" /><line stroke="rgb(0%,0%,0%)" x1="222.2853" x2="219.2869" y1="0.5" y2="0.5" /></svg>