<?xml version="1.0" encoding="utf-8" ?>
<svg baseProfile="tiny" height="100%" version="1.2" width="100%" xmlns="http://www.w3.org/2000/svg" xmlns:ev="http://www.w3.org/2001/xml-events" xmlns:xlink="http://www.w3.org/1999/xlink"><defs /><line stroke="rgb(0%,0%,0%)" x1="351.9" x2="351.9" y1="0.5" y2="11.3005" /><line stroke="rgb(0%,0%,0%)" x1="351.9" x2="351.9" y1="11.3005" y2="100.5" /><line stroke="rgb(0%,0%,0%)" x1="333.1431" x2="347.9296" y1="100.5" y2="100.5" /><line stroke="rgb(0%,0%,0%)" x1="347.9296" x2="348.4453" y1="100.5" y2="100.5" /><line stroke="rgb(0%,0%,0%)" x1="348.4453" x2="349.0345" y1="100.5" y2="100.5" /><line stroke="rgb(0%,0%,0%)" x1="349.0345" x2="349.6883" y1="100.5" y2="100.5" /><line stroke="rgb(0%,0%,0%)" x1="349.6883" x2="350.3945" y1="100.5" y2="100.5" /><line stroke="rgb(0%,0%,0%)" x1="350.3945" x2="351.1377" y1="100.5" y2="100.5" /><line stroke="rgb(0%,0%,0%)" x1="351.1377" x2="351.9" y1="100.5" y2="100.5" /><line stroke="rgb(0%,0%,0%)" x1="333.1431" x2="25.6527" y1="100.5" y2="100.5" /><line stroke="rgb(0%,0%,0%)" x1="25.6527" x2="0.5" y1="100.5" y2="100.5" /><line stroke="rgb(0%,0%,0%)" x1="0.5" x2="25.6527" y1="0.5" y2="0.5" /><line stroke="rgb(0%,0%,0%)" x1="25.6527" x2="333.1431" y1="0.5" y2="0.5" /><line stroke="rgb(0%,0%,0%)" x1="333.1431" x2="347.9296" y1="0.5" y2="0.5" /><line stroke="rgb(0%,0%,0%)" x1="347.9296" x2="348.4453" y1="0.5" y2="0.5" /><line stroke="rgb(0%,0%,0%)" x1="348.4453" x2="349.0345" y1="0.5" y2="0.5" /><line stroke="rgb(0%,0%,0%)" x1="349.0345" x2="349.6883" y1="0.5" y2="0.5" /><line stroke="rgb(0%,0%,0%)" x1="349.6883" x2="350.3945" y1="0.5" y2="0.5" /><line stroke="rgb(0%,0%,0%)" x1="350.3945" x2="351.1377" y1="0.5" y2="0.5" /><line stroke="rgb(0%,0%,0%)" x1="351.1377" x2="351.9" y1="0.5" y2="0.5" /><line stroke="rgb(0%,0%,0%)" x1="0.5" x2="0.5" y1="0.5" y2="88.0044" /><line stroke="rgb(0%,0%,0%)" x1="0.5" x2="0.5" y1="88.0044" y2="100.5" /><line stroke="rgb(0%,0%,0%)" x1="165.1722" x2="165.4181" y1="47.3813" y2="49.7206" /><line stroke="rgb(0%,0%,0%)" x1="165.4181" x2="165.5" y1="49.7206" y2="50.5" /><line stroke="rgb(0%,0%,0%)" x1="165.5" x2="165.2541" y1="50.5" y2="52.8393" /><line stroke="rgb(0%,0%,0%)" x1="165.2541" x2="165.1722" y1="52.8393" y2="53.6187" /><line stroke="rgb(0%,0%,0%)" x1="165.1722" x2="164.4454" y1="53.6187" y2="55.8557" /><line stroke="rgb(0%,0%,0%)" x1="164.4454" x2="164.2032" y1="55.8557" y2="56.6011" /><line stroke="rgb(0%,0%,0%)" x1="164.2032" x2="163.0271" y1="56.6011" y2="58.6381" /><line stroke="rgb(0%,0%,0%)" x1="163.0271" x2="162.6353" y1="58.6381" y2="59.3168" /><line stroke="rgb(0%,0%,0%)" x1="162.6353" x2="161.0613" y1="59.3168" y2="61.0648" /><line stroke="rgb(0%,0%,0%)" x1="161.0613" x2="160.537" y1="61.0648" y2="61.6472" /><line stroke="rgb(0%,0%,0%)" x1="160.537" x2="158.634" y1="61.6472" y2="63.0297" /><line stroke="rgb(0%,0%,0%)" x1="158.634" x2="158.0" y1="63.0297" y2="63.4904" /><line stroke="rgb(0%,0%,0%)" x1="158.0" x2="155.8512" y1="63.4904" y2="64.4471" /><line stroke="rgb(0%,0%,0%)" x1="155.8512" x2="155.1353" y1="64.4471" y2="64.7658" /><line stroke="rgb(0%,0%,0%)" x1="155.1353" x2="152.8345" y1="64.7658" y2="65.2549" /><line stroke="rgb(0%,0%,0%)" x1="152.8345" x2="152.0679" y1="65.2549" y2="65.4178" /><line stroke="rgb(0%,0%,0%)" x1="152.0679" x2="149.7158" y1="65.4178" y2="65.4178" /><line stroke="rgb(0%,0%,0%)" x1="149.7158" x2="148.9321" y1="65.4178" y2="65.4178" /><line stroke="rgb(0%,0%,0%)" x1="148.9321" x2="146.6313" y1="65.4178" y2="64.9288" /><line stroke="rgb(0%,0%,0%)" x1="146.6313" x2="145.8647" y1="64.9288" y2="64.7658" /><line stroke="rgb(0%,0%,0%)" x1="145.8647" x2="143.7159" y1="64.7658" y2="63.8091" /><line stroke="rgb(0%,0%,0%)" x1="143.7159" x2="143.0" y1="63.8091" y2="63.4904" /><line stroke="rgb(0%,0%,0%)" x1="143.0" x2="141.0971" y1="63.4904" y2="62.1078" /><line stroke="rgb(0%,0%,0%)" x1="141.0971" x2="140.463" y1="62.1078" y2="61.6472" /><line stroke="rgb(0%,0%,0%)" x1="140.463" x2="138.8891" y1="61.6472" y2="59.8992" /><line stroke="rgb(0%,0%,0%)" x1="138.8891" x2="138.3647" y1="59.8992" y2="59.3168" /><line stroke="rgb(0%,0%,0%)" x1="138.3647" x2="137.1887" y1="59.3168" y2="57.2797" /><line stroke="rgb(0%,0%,0%)" x1="137.1887" x2="136.7968" y1="57.2797" y2="56.6011" /><line stroke="rgb(0%,0%,0%)" x1="136.7968" x2="136.07" y1="56.6011" y2="54.364" /><line stroke="rgb(0%,0%,0%)" x1="136.07" x2="135.8278" y1="54.364" y2="53.6187" /><line stroke="rgb(0%,0%,0%)" x1="135.8278" x2="135.5819" y1="53.6187" y2="51.2794" /><line stroke="rgb(0%,0%,0%)" x1="135.5819" x2="135.5" y1="51.2794" y2="50.5" /><line stroke="rgb(0%,0%,0%)" x1="135.5" x2="135.7459" y1="50.5" y2="48.1607" /><line stroke="rgb(0%,0%,0%)" x1="135.7459" x2="135.8278" y1="48.1607" y2="47.3813" /><line stroke="rgb(0%,0%,0%)" x1="135.8278" x2="136.5546" y1="47.3813" y2="45.1443" /><line stroke="rgb(0%,0%,0%)" x1="136.5546" x2="136.7968" y1="45.1443" y2="44.3989" /><line stroke="rgb(0%,0%,0%)" x1="136.7968" x2="137.9729" y1="44.3989" y2="42.3619" /><line stroke="rgb(0%,0%,0%)" x1="137.9729" x2="138.3647" y1="42.3619" y2="41.6832" /><line stroke="rgb(0%,0%,0%)" x1="138.3647" x2="139.9386" y1="41.6832" y2="39.9352" /><line stroke="rgb(0%,0%,0%)" x1="139.9386" x2="140.463" y1="39.9352" y2="39.3528" /><line stroke="rgb(0%,0%,0%)" x1="140.463" x2="142.366" y1="39.3528" y2="37.9703" /><line stroke="rgb(0%,0%,0%)" x1="142.366" x2="143.0" y1="37.9703" y2="37.5096" /><line stroke="rgb(0%,0%,0%)" x1="143.0" x2="145.1488" y1="37.5096" y2="36.5529" /><line stroke="rgb(0%,0%,0%)" x1="145.1488" x2="145.8647" y1="36.5529" y2="36.2342" /><line stroke="rgb(0%,0%,0%)" x1="145.8647" x2="148.1655" y1="36.2342" y2="35.7451" /><line stroke="rgb(0%,0%,0%)" x1="148.1655" x2="148.9321" y1="35.7451" y2="35.5822" /><line stroke="rgb(0%,0%,0%)" x1="148.9321" x2="151.2842" y1="35.5822" y2="35.5822" /><line stroke="rgb(0%,0%,0%)" x1="151.2842" x2="152.0679" y1="35.5822" y2="35.5822" /><line stroke="rgb(0%,0%,0%)" x1="152.0679" x2="154.3687" y1="35.5822" y2="36.0712" /><line stroke="rgb(0%,0%,0%)" x1="154.3687" x2="155.1353" y1="36.0712" y2="36.2342" /><line stroke="rgb(0%,0%,0%)" x1="155.1353" x2="157.2841" y1="36.2342" y2="37.1909" /><line stroke="rgb(0%,0%,0%)" x1="157.2841" x2="158.0" y1="37.1909" y2="37.5096" /><line stroke="rgb(0%,0%,0%)" x1="158.0" x2="159.9029" y1="37.5096" y2="38.8922" /><line stroke="rgb(0%,0%,0%)" x1="159.9029" x2="160.537" y1="38.8922" y2="39.3528" /><line stroke="rgb(0%,0%,0%)" x1="160.537" x2="162.1109" y1="39.3528" y2="41.1008" /><line stroke="rgb(0%,0%,0%)" x1="162.1109" x2="162.6353" y1="41.1008" y2="41.6832" /><line stroke="rgb(0%,0%,0%)" x1="162.6353" x2="163.8113" y1="41.6832" y2="43.7203" /><line stroke="rgb(0%,0%,0%)" x1="163.8113" x2="164.2032" y1="43.7203" y2="44.3989" /><line stroke="rgb(0%,0%,0%)" x1="164.2032" x2="164.93" y1="44.3989" y2="46.636" /><line stroke="rgb(0%,0%,0%)" x1="164.93" x2="165.1722" y1="46.636" y2="47.3813" /><line stroke="rgb(0%,0%,0%)" x1="65.1722" x2="65.4181" y1="47.3813" y2="49.7206" /><line stroke="rgb(0%,0%,0%)" x1="65.4181" x2="65.5" y1="49.7206" y2="50.5" /><line stroke="rgb(0%,0%,0%)" x1="65.5" x2="65.2541" y1="50.5" y2="52.8393" /><line stroke="rgb(0%,0%,0%)" x1="65.2541" x2="65.1722" y1="52.8393" y2="53.6187" /><line stroke="rgb(0%,0%,0%)" x1="65.1722" x2="64.4453" y1="53.6187" y2="55.8557" /><line stroke="rgb(0%,0%,0%)" x1="64.4453" x2="64.2032" y1="55.8557" y2="56.6011" /><line stroke="rgb(0%,0%,0%)" x1="64.2032" x2="63.0271" y1="56.6011" y2="58.6381" /><line stroke="rgb(0%,0%,0%)" x1="63.0271" x2="62.6352" y1="58.6381" y2="59.3168" /><line stroke="rgb(0%,0%,0%)" x1="62.6352" x2="61.0614" y1="59.3168" y2="61.0648" /><line stroke="rgb(0%,0%,0%)" x1="61.0614" x2="60.537" y1="61.0648" y2="61.6472" /><line stroke="rgb(0%,0%,0%)" x1="60.537" x2="58.634" y1="61.6472" y2="63.0297" /><line stroke="rgb(0%,0%,0%)" x1="58.634" x2="58.0" y1="63.0297" y2="63.4904" /><line stroke="rgb(0%,0%,0%)" x1="58.0" x2="55.8512" y1="63.4904" y2="64.4471" /><line stroke="rgb(0%,0%,0%)" x1="55.8512" x2="55.1353" y1="64.4471" y2="64.7658" /><line stroke="rgb(0%,0%,0%)" x1="55.1353" x2="52.8345" y1="64.7658" y2="65.2549" /><line stroke="rgb(0%,0%,0%)" x1="52.8345" x2="52.0679" y1="65.2549" y2="65.4178" /><line stroke="rgb(0%,0%,0%)" x1="52.0679" x2="49.7158" y1="65.4178" y2="65.4178" /><line stroke="rgb(0%,0%,0%)" x1="49.7158" x2="48.9321" y1="65.4178" y2="65.4178" /><line stroke="rgb(0%,0%,0%)" x1="48.9321" x2="46.6313" y1="65.4178" y2="64.9288" /><line stroke="rgb(0%,0%,0%)" x1="46.6313" x2="45.8647" y1="64.9288" y2="64.7658" /><line stroke="rgb(0%,0%,0%)" x1="45.8647" x2="43.7159" y1="64.7658" y2="63.8091" /><line stroke="rgb(0%,0%,0%)" x1="43.7159" x2="43.0" y1="63.8091" y2="63.4904" /><line stroke="rgb(0%,0%,0%)" x1="43.0" x2="41.0971" y1="63.4904" y2="62.1078" /><line stroke="rgb(0%,0%,0%)" x1="41.0971" x2="40.463" y1="62.1078" y2="61.6472" /><line stroke="rgb(0%,0%,0%)" x1="40.463" x2="38.8891" y1="61.6472" y2="59.8992" /><line stroke="rgb(0%,0%,0%)" x1="38.8891" x2="38.3647" y1="59.8992" y2="59.3168" /><line stroke="rgb(0%,0%,0%)" x1="38.3647" x2="37.1887" y1="59.3168" y2="57.2797" /><line stroke="rgb(0%,0%,0%)" x1="37.1887" x2="36.7968" y1="57.2797" y2="56.6011" /><line stroke="rgb(0%,0%,0%)" x1="36.7968" x2="36.0699" y1="56.6011" y2="54.364" /><line stroke="rgb(0%,0%,0%)" x1="36.0699" x2="35.8278" y1="54.364" y2="53.6187" /><line stroke="rgb(0%,0%,0%)" x1="35.8278" x2="35.5819" y1="53.6187" y2="51.2794" /><line stroke="rgb(0%,0%,0%)" x1="35.5819" x2="35.5" y1="51.2794" y2="50.5" /><line stroke="rgb(0%,0%,0%)" x1="35.5" x2="35.7459" y1="50.5" y2="48.1607" /><line stroke="rgb(0%,0%,0%)" x1="35.7459" x2="35.8278" y1="48.1607" y2="47.3813" /><line stroke="rgb(0%,0%,0%)" x1="35.8278" x2="36.5546" y1="47.3813" y2="45.1443" /><line stroke="rgb(0%,0%,0%)" x1="36.5546" x2="36.7968" y1="45.1443" y2="44.3989" /><line stroke="rgb(0%,0%,0%)" x1="36.7968" x2="37.9729" y1="44.3989" y2="42.3619" /><line stroke="rgb(0%,0%,0%)" x1="37.9729" x2="38.3647" y1="42.3619" y2="41.6832" /><line stroke="rgb(0%,0%,0%)" x1="38.3647" x2="39.9386" y1="41.6832" y2="39.9352" /><line stroke="rgb(0%,0%,0%)" x1="39.9386" x2="40.463" y1="39.9352" y2="39.3528" /><line stroke="rgb(0%,0%,0%)" x1="40.463" x2="42.366" y1="39.3528" y2="37.9703" /><line stroke="rgb(0%,0%,0%)" x1="42.366" x2="43.0" y1="37.9703" y2="37.5096" /><line stroke="rgb(0%,0%,0%)" x1="43.0" x2="45.1488" y1="37.5096" y2="36.5529" /><line stroke="rgb(0%,0%,0%)" x1="45.1488" x2="45.8647" y1="36.5529" y2="36.2342" /><line stroke="rgb(0%,0%,0%)" x1="45.8647" x2="48.1655" y1="36.2342" y2="35.7451" /><line stroke="rgb(0%,0%,0%)" x1="48.1655" x2="48.9321" y1="35.7451" y2="35.5822" /><line stroke="rgb(0%,0%,0%)" x1="48.9321" x2="51.2842" y1="35.5822" y2="35.5822" /><line stroke="rgb(0%,0%,0%)" x1="51.2842" x2="52.0679" y1="35.5822" y2="35.5822" /><line stroke="rgb(0%,0%,0%)" x1="52.0679" x2="54.3687" y1="35.5822" y2="36.0712" /><line stroke="rgb(0%,0%,0%)" x1="54.3687" x2="55.1353" y1="36.0712" y2="36.2342" /><line stroke="rgb(0%,0%,0%)" x1="55.1353" x2="57.2841" y1="36.2342" y2="37.1909" /><line stroke="rgb(0%,0%,0%)" x1="57.2841" x2="58.0" y1="37.1909" y2="37.5096" /><line stroke="rgb(0%,0%,0%)" x1="58.0" x2="59.9029" y1="37.5096" y2="38.8922" /><line stroke="rgb(0%,0%,0%)" x1="59.9029" x2="60.537" y1="38.8922" y2="39.3528" /><line stroke="rgb(0%,0%,0%)" x1="60.537" x2="62.1109" y1="39.3528" y2="41.1008" /><line stroke="rgb(0%,0%,0%)" x1="62.1109" x2="62.6352" y1="41.1008" y2="41.6832" /><line stroke="rgb(0%,0%,0%)" x1="62.6352" x2="63.8113" y1="41.6832" y2="43.7203" /><line stroke="rgb(0%,0%,0%)" x1="63.8113" x2="64.2032" y1="43.7203" y2="44.3989" /><line stroke="rgb(0%,0%,0%)" x1="64.2032" x2="64.93" y1="44.3989" y2="46.636" /><line stroke="rgb(0%,0%,0%)" x1="64.93" x2="65.1722" y1="46.636" y2="47.3813" /></svg>