<?xml version="1.0" encoding="utf-8" ?>
<svg baseProfile="tiny" height="100%" version="1.2" width="100%" xmlns="http://www.w3.org/2000/svg" xmlns:ev="http://www.w3.org/2001/xml-events" xmlns:xlink="http://www.w3.org/1999/xlink"><defs /><line stroke="rgb(0%,0%,0%)" x1="308.104" x2="308.104" y1="100.5" y2="42.4412" /><line stroke="rgb(0%,0%,0%)" x1="308.104" x2="308.104" y1="42.4412" y2="0.5" /><line stroke="rgb(0%,0%,0%)" x1="201.8115" x2="201.8115" y1="0.5" y2="82.6236" /><line stroke="rgb(0%,0%,0%)" x1="201.8115" x2="201.8115" y1="82.6236" y2="100.5" /><line stroke="rgb(0%,0%,0%)" x1="242.0358" x2="258.5873" y1="100.5" y2="100.5" /><line stroke="rgb(0%,0%,0%)" x1="258.5873" x2="269.4772" y1="100.5" y2="100.5" /><line stroke="rgb(0%,0%,0%)" x1="269.4772" x2="283.1136" y1="100.5" y2="100.5" /><line stroke="rgb(0%,0%,0%)" x1="201.8115" x2="220.6575" y1="100.5" y2="100.5" /><line stroke="rgb(0%,0%,0%)" x1="220.6575" x2="223.8907" y1="100.5" y2="100.5" /><line stroke="rgb(0%,0%,0%)" x1="223.8907" x2="228.2018" y1="100.5" y2="100.5" /><line stroke="rgb(0%,0%,0%)" x1="228.2018" x2="234.0259" y1="100.5" y2="100.5" /><line stroke="rgb(0%,0%,0%)" x1="234.0259" x2="242.0358" y1="100.5" y2="100.5" /><line stroke="rgb(0%,0%,0%)" x1="283.1136" x2="300.0661" y1="100.5" y2="100.5" /><line stroke="rgb(0%,0%,0%)" x1="300.0661" x2="308.104" y1="100.5" y2="100.5" /><line stroke="rgb(0%,0%,0%)" x1="220.6575" x2="201.8115" y1="0.5" y2="0.5" /><line stroke="rgb(0%,0%,0%)" x1="258.5873" x2="242.0358" y1="0.5" y2="0.5" /><line stroke="rgb(0%,0%,0%)" x1="242.0358" x2="234.0259" y1="0.5" y2="0.5" /><line stroke="rgb(0%,0%,0%)" x1="234.0259" x2="228.2018" y1="0.5" y2="0.5" /><line stroke="rgb(0%,0%,0%)" x1="308.104" x2="300.0661" y1="0.5" y2="0.5" /><line stroke="rgb(0%,0%,0%)" x1="300.0661" x2="283.1136" y1="0.5" y2="0.5" /><line stroke="rgb(0%,0%,0%)" x1="283.1136" x2="269.4772" y1="0.5" y2="0.5" /><line stroke="rgb(0%,0%,0%)" x1="269.4772" x2="258.5873" y1="0.5" y2="0.5" /><line stroke="rgb(0%,0%,0%)" x1="228.2018" x2="223.8907" y1="0.5" y2="0.5" /><line stroke="rgb(0%,0%,0%)" x1="223.8907" x2="220.6575" y1="0.5" y2="0.5" /></svg>