<?xml version="1.0" encoding="utf-8" ?>
<svg baseProfile="tiny" height="100%" version="1.2" width="100%" xmlns="http://www.w3.org/2000/svg" xmlns:ev="http://www.w3.org/2001/xml-events" xmlns:xlink="http://www.w3.org/1999/xlink"><defs /><line stroke="rgb(0%,0%,0%)" x1="306.637" x2="306.637" y1="100.5" y2="17.383" /><line stroke="rgb(0%,0%,0%)" x1="306.637" x2="306.637" y1="17.383" y2="0.5" /><line stroke="rgb(0%,0%,0%)" x1="201.8129" x2="201.8129" y1="0.5" y2="81.3249" /><line stroke="rgb(0%,0%,0%)" x1="201.8129" x2="201.8129" y1="81.3249" y2="100.5" /><line stroke="rgb(0%,0%,0%)" x1="244.9594" x2="260.5149" y1="100.5" y2="100.5" /><line stroke="rgb(0%,0%,0%)" x1="260.5149" x2="271.7744" y1="100.5" y2="100.5" /><line stroke="rgb(0%,0%,0%)" x1="271.7744" x2="285.8735" y1="100.5" y2="100.5" /><line stroke="rgb(0%,0%,0%)" x1="201.8129" x2="222.028" y1="100.5" y2="100.5" /><line stroke="rgb(0%,0%,0%)" x1="222.028" x2="225.4961" y1="100.5" y2="100.5" /><line stroke="rgb(0%,0%,0%)" x1="225.4961" x2="230.1204" y1="100.5" y2="100.5" /><line stroke="rgb(0%,0%,0%)" x1="230.1204" x2="236.3677" y1="100.5" y2="100.5" /><line stroke="rgb(0%,0%,0%)" x1="236.3677" x2="244.9594" y1="100.5" y2="100.5" /><line stroke="rgb(0%,0%,0%)" x1="285.8735" x2="303.4014" y1="100.5" y2="100.5" /><line stroke="rgb(0%,0%,0%)" x1="303.4014" x2="306.637" y1="100.5" y2="100.5" /><line stroke="rgb(0%,0%,0%)" x1="222.028" x2="201.8129" y1="0.5" y2="0.5" /><line stroke="rgb(0%,0%,0%)" x1="260.5149" x2="244.9594" y1="0.5" y2="0.5" /><line stroke="rgb(0%,0%,0%)" x1="244.9594" x2="236.3677" y1="0.5" y2="0.5" /><line stroke="rgb(0%,0%,0%)" x1="236.3677" x2="230.1204" y1="0.5" y2="0.5" /><line stroke="rgb(0%,0%,0%)" x1="306.637" x2="303.4014" y1="0.5" y2="0.5" /><line stroke="rgb(0%,0%,0%)" x1="303.4014" x2="285.8735" y1="0.5" y2="0.5" /><line stroke="rgb(0%,0%,0%)" x1="285.8735" x2="271.7744" y1="0.5" y2="0.5" /><line stroke="rgb(0%,0%,0%)" x1="271.7744" x2="260.5149" y1="0.5" y2="0.5" /><line stroke="rgb(0%,0%,0%)" x1="230.1204" x2="225.4961" y1="0.5" y2="0.5" /><line stroke="rgb(0%,0%,0%)" x1="225.4961" x2="222.028" y1="0.5" y2="0.5" /></svg>