<?xml version="1.0" encoding="utf-8" ?>
<svg baseProfile="tiny" height="100%" version="1.2" width="100%" xmlns="http://www.w3.org/2000/svg" xmlns:ev="http://www.w3.org/2001/xml-events" xmlns:xlink="http://www.w3.org/1999/xlink"><defs /><line stroke="rgb(0%,0%,0%)" x1="305.2536" x2="305.2536" y1="100.5" y2="93.2693" /><line stroke="rgb(0%,0%,0%)" x1="305.2536" x2="305.2536" y1="93.2693" y2="0.5" /><line stroke="rgb(0%,0%,0%)" x1="201.8143" x2="201.8143" y1="0.5" y2="80.0262" /><line stroke="rgb(0%,0%,0%)" x1="201.8143" x2="201.8143" y1="80.0262" y2="100.5" /><line stroke="rgb(0%,0%,0%)" x1="247.8831" x2="262.4424" y1="100.5" y2="100.5" /><line stroke="rgb(0%,0%,0%)" x1="262.4424" x2="274.0715" y1="100.5" y2="100.5" /><line stroke="rgb(0%,0%,0%)" x1="274.0715" x2="288.6335" y1="100.5" y2="100.5" /><line stroke="rgb(0%,0%,0%)" x1="201.8143" x2="223.3986" y1="100.5" y2="100.5" /><line stroke="rgb(0%,0%,0%)" x1="223.3986" x2="227.1016" y1="100.5" y2="100.5" /><line stroke="rgb(0%,0%,0%)" x1="227.1016" x2="232.0391" y1="100.5" y2="100.5" /><line stroke="rgb(0%,0%,0%)" x1="232.0391" x2="238.7094" y1="100.5" y2="100.5" /><line stroke="rgb(0%,0%,0%)" x1="238.7094" x2="247.8831" y1="100.5" y2="100.5" /><line stroke="rgb(0%,0%,0%)" x1="305.2536" x2="288.6335" y1="100.5" y2="100.5" /><line stroke="rgb(0%,0%,0%)" x1="223.3986" x2="201.8143" y1="0.5" y2="0.5" /><line stroke="rgb(0%,0%,0%)" x1="262.4424" x2="247.8831" y1="0.5" y2="0.5" /><line stroke="rgb(0%,0%,0%)" x1="247.8831" x2="238.7094" y1="0.5" y2="0.5" /><line stroke="rgb(0%,0%,0%)" x1="238.7094" x2="232.0391" y1="0.5" y2="0.5" /><line stroke="rgb(0%,0%,0%)" x1="288.6335" x2="305.2536" y1="0.5" y2="0.5" /><line stroke="rgb(0%,0%,0%)" x1="288.6335" x2="274.0715" y1="0.5" y2="0.5" /><line stroke="rgb(0%,0%,0%)" x1="274.0715" x2="262.4424" y1="0.5" y2="0.5" /><line stroke="rgb(0%,0%,0%)" x1="232.0391" x2="227.1016" y1="0.5" y2="0.5" /><line stroke="rgb(0%,0%,0%)" x1="227.1016" x2="223.3986" y1="0.5" y2="0.5" /></svg>