<?xml version="1.0" encoding="utf-8" ?>
<svg baseProfile="tiny" height="100%" version="1.2" width="100%" xmlns="http://www.w3.org/2000/svg" xmlns:ev="http://www.w3.org/2001/xml-events" xmlns:xlink="http://www.w3.org/1999/xlink"><defs /><line stroke="rgb(0%,0%,0%)" x1="304.0429" x2="304.0429" y1="100.5" y2="71.1059" /><line stroke="rgb(0%,0%,0%)" x1="304.0429" x2="304.0429" y1="71.1059" y2="0.5" /><line stroke="rgb(0%,0%,0%)" x1="201.8157" x2="201.8157" y1="0.5" y2="78.7275" /><line stroke="rgb(0%,0%,0%)" x1="201.8157" x2="201.8157" y1="78.7275" y2="100.5" /><line stroke="rgb(0%,0%,0%)" x1="250.8067" x2="264.37" y1="100.5" y2="100.5" /><line stroke="rgb(0%,0%,0%)" x1="264.37" x2="276.3686" y1="100.5" y2="100.5" /><line stroke="rgb(0%,0%,0%)" x1="276.3686" x2="291.3934" y1="100.5" y2="100.5" /><line stroke="rgb(0%,0%,0%)" x1="201.8157" x2="224.7691" y1="100.5" y2="100.5" /><line stroke="rgb(0%,0%,0%)" x1="224.7691" x2="228.707" y1="100.5" y2="100.5" /><line stroke="rgb(0%,0%,0%)" x1="228.707" x2="233.9577" y1="100.5" y2="100.5" /><line stroke="rgb(0%,0%,0%)" x1="233.9577" x2="241.0512" y1="100.5" y2="100.5" /><line stroke="rgb(0%,0%,0%)" x1="241.0512" x2="250.8067" y1="100.5" y2="100.5" /><line stroke="rgb(0%,0%,0%)" x1="304.0429" x2="291.3934" y1="100.5" y2="100.5" /><line stroke="rgb(0%,0%,0%)" x1="224.7691" x2="201.8157" y1="0.5" y2="0.5" /><line stroke="rgb(0%,0%,0%)" x1="264.37" x2="250.8067" y1="0.5" y2="0.5" /><line stroke="rgb(0%,0%,0%)" x1="250.8067" x2="241.0512" y1="0.5" y2="0.5" /><line stroke="rgb(0%,0%,0%)" x1="241.0512" x2="233.9577" y1="0.5" y2="0.5" /><line stroke="rgb(0%,0%,0%)" x1="291.3934" x2="304.0429" y1="0.5" y2="0.5" /><line stroke="rgb(0%,0%,0%)" x1="291.3934" x2="276.3686" y1="0.5" y2="0.5" /><line stroke="rgb(0%,0%,0%)" x1="276.3686" x2="264.37" y1="0.5" y2="0.5" /><line stroke="rgb(0%,0%,0%)" x1="233.9577" x2="228.707" y1="0.5" y2="0.5" /><line stroke="rgb(0%,0%,0%)" x1="228.707" x2="224.7691" y1="0.5" y2="0.5" /></svg>