<?xml version="1.0" encoding="utf-8" ?>
<svg baseProfile="tiny" height="100%" version="1.2" width="100%" xmlns="http://www.w3.org/2000/svg" xmlns:ev="http://www.w3.org/2001/xml-events" xmlns:xlink="http://www.w3.org/1999/xlink"><defs /><line stroke="rgb(0%,0%,0%)" x1="302.8321" x2="302.8321" y1="100.5" y2="48.9426" /><line stroke="rgb(0%,0%,0%)" x1="302.8321" x2="302.8321" y1="48.9426" y2="0.5" /><line stroke="rgb(0%,0%,0%)" x1="201.8171" x2="201.8171" y1="0.5" y2="77.4288" /><line stroke="rgb(0%,0%,0%)" x1="201.8171" x2="201.8171" y1="77.4288" y2="100.5" /><line stroke="rgb(0%,0%,0%)" x1="253.7304" x2="266.2975" y1="100.5" y2="100.5" /><line stroke="rgb(0%,0%,0%)" x1="266.2975" x2="278.6658" y1="100.5" y2="100.5" /><line stroke="rgb(0%,0%,0%)" x1="278.6658" x2="294.1534" y1="100.5" y2="100.5" /><line stroke="rgb(0%,0%,0%)" x1="201.8171" x2="226.1396" y1="100.5" y2="100.5" /><line stroke="rgb(0%,0%,0%)" x1="226.1396" x2="230.3124" y1="100.5" y2="100.5" /><line stroke="rgb(0%,0%,0%)" x1="230.3124" x2="235.8763" y1="100.5" y2="100.5" /><line stroke="rgb(0%,0%,0%)" x1="235.8763" x2="243.3929" y1="100.5" y2="100.5" /><line stroke="rgb(0%,0%,0%)" x1="243.3929" x2="253.7304" y1="100.5" y2="100.5" /><line stroke="rgb(0%,0%,0%)" x1="302.8321" x2="294.1534" y1="100.5" y2="100.5" /><line stroke="rgb(0%,0%,0%)" x1="226.1396" x2="201.8171" y1="0.5" y2="0.5" /><line stroke="rgb(0%,0%,0%)" x1="266.2975" x2="253.7304" y1="0.5" y2="0.5" /><line stroke="rgb(0%,0%,0%)" x1="253.7304" x2="243.3929" y1="0.5" y2="0.5" /><line stroke="rgb(0%,0%,0%)" x1="243.3929" x2="235.8763" y1="0.5" y2="0.5" /><line stroke="rgb(0%,0%,0%)" x1="294.1534" x2="302.8321" y1="0.5" y2="0.5" /><line stroke="rgb(0%,0%,0%)" x1="294.1534" x2="278.6658" y1="0.5" y2="0.5" /><line stroke="rgb(0%,0%,0%)" x1="278.6658" x2="266.2975" y1="0.5" y2="0.5" /><line stroke="rgb(0%,0%,0%)" x1="235.8763" x2="230.3124" y1="0.5" y2="0.5" /><line stroke="rgb(0%,0%,0%)" x1="230.3124" x2="226.1396" y1="0.5" y2="0.5" /></svg>