<?xml version="1.0" encoding="utf-8" ?>
<svg baseProfile="tiny" height="100%" version="1.2" width="100%" xmlns="http://www.w3.org/2000/svg" xmlns:ev="http://www.w3.org/2001/xml-events" xmlns:xlink="http://www.w3.org/1999/xlink"><defs /><line stroke="rgb(0%,0%,0%)" x1="301.6214" x2="301.6214" y1="100.5" y2="26.7792" /><line stroke="rgb(0%,0%,0%)" x1="301.6214" x2="301.6214" y1="26.7792" y2="0.5" /><line stroke="rgb(0%,0%,0%)" x1="201.8185" x2="201.8185" y1="0.5" y2="76.1301" /><line stroke="rgb(0%,0%,0%)" x1="201.8185" x2="201.8185" y1="76.1301" y2="100.5" /><line stroke="rgb(0%,0%,0%)" x1="256.654" x2="268.2251" y1="100.5" y2="100.5" /><line stroke="rgb(0%,0%,0%)" x1="268.2251" x2="280.9629" y1="100.5" y2="100.5" /><line stroke="rgb(0%,0%,0%)" x1="280.9629" x2="296.9133" y1="100.5" y2="100.5" /><line stroke="rgb(0%,0%,0%)" x1="201.8185" x2="227.5102" y1="100.5" y2="100.5" /><line stroke="rgb(0%,0%,0%)" x1="227.5102" x2="231.9179" y1="100.5" y2="100.5" /><line stroke="rgb(0%,0%,0%)" x1="231.9179" x2="237.7949" y1="100.5" y2="100.5" /><line stroke="rgb(0%,0%,0%)" x1="237.7949" x2="245.7346" y1="100.5" y2="100.5" /><line stroke="rgb(0%,0%,0%)" x1="245.7346" x2="256.654" y1="100.5" y2="100.5" /><line stroke="rgb(0%,0%,0%)" x1="301.6214" x2="296.9133" y1="100.5" y2="100.5" /><line stroke="rgb(0%,0%,0%)" x1="227.5102" x2="201.8185" y1="0.5" y2="0.5" /><line stroke="rgb(0%,0%,0%)" x1="268.2251" x2="256.654" y1="0.5" y2="0.5" /><line stroke="rgb(0%,0%,0%)" x1="256.654" x2="245.7346" y1="0.5" y2="0.5" /><line stroke="rgb(0%,0%,0%)" x1="245.7346" x2="237.7949" y1="0.5" y2="0.5" /><line stroke="rgb(0%,0%,0%)" x1="296.9133" x2="301.6214" y1="0.5" y2="0.5" /><line stroke="rgb(0%,0%,0%)" x1="296.9133" x2="280.9629" y1="0.5" y2="0.5" /><line stroke="rgb(0%,0%,0%)" x1="280.9629" x2="268.2251" y1="0.5" y2="0.5" /><line stroke="rgb(0%,0%,0%)" x1="237.7949" x2="231.9179" y1="0.5" y2="0.5" /><line stroke="rgb(0%,0%,0%)" x1="231.9179" x2="227.5102" y1="0.5" y2="0.5" /></svg>