<?xml version="1.0" encoding="utf-8" ?>
<svg baseProfile="tiny" height="100%" version="1.2" width="100%" xmlns="http://www.w3.org/2000/svg" xmlns:ev="http://www.w3.org/2001/xml-events" xmlns:xlink="http://www.w3.org/1999/xlink"><defs /><line stroke="rgb(0%,0%,0%)" x1="300.4107" x2="300.4107" y1="100.5" y2="4.6159" /><line stroke="rgb(0%,0%,0%)" x1="300.4107" x2="300.4107" y1="4.6159" y2="0.5" /><line stroke="rgb(0%,0%,0%)" x1="201.8199" x2="201.8199" y1="0.5" y2="74.8314" /><line stroke="rgb(0%,0%,0%)" x1="201.8199" x2="201.8199" y1="74.8314" y2="100.5" /><line stroke="rgb(0%,0%,0%)" x1="259.5777" x2="270.1526" y1="100.5" y2="100.5" /><line stroke="rgb(0%,0%,0%)" x1="270.1526" x2="283.2601" y1="100.5" y2="100.5" /><line stroke="rgb(0%,0%,0%)" x1="283.2601" x2="299.6733" y1="100.5" y2="100.5" /><line stroke="rgb(0%,0%,0%)" x1="201.8199" x2="228.8807" y1="100.5" y2="100.5" /><line stroke="rgb(0%,0%,0%)" x1="228.8807" x2="233.5233" y1="100.5" y2="100.5" /><line stroke="rgb(0%,0%,0%)" x1="233.5233" x2="239.7136" y1="100.5" y2="100.5" /><line stroke="rgb(0%,0%,0%)" x1="239.7136" x2="248.0764" y1="100.5" y2="100.5" /><line stroke="rgb(0%,0%,0%)" x1="248.0764" x2="259.5777" y1="100.5" y2="100.5" /><line stroke="rgb(0%,0%,0%)" x1="300.4107" x2="299.6733" y1="100.5" y2="100.5" /><line stroke="rgb(0%,0%,0%)" x1="228.8807" x2="201.8199" y1="0.5" y2="0.5" /><line stroke="rgb(0%,0%,0%)" x1="270.1526" x2="259.5777" y1="0.5" y2="0.5" /><line stroke="rgb(0%,0%,0%)" x1="259.5777" x2="248.0764" y1="0.5" y2="0.5" /><line stroke="rgb(0%,0%,0%)" x1="248.0764" x2="239.7136" y1="0.5" y2="0.5" /><line stroke="rgb(0%,0%,0%)" x1="299.6733" x2="300.4107" y1="0.5" y2="0.5" /><line stroke="rgb(0%,0%,0%)" x1="299.6733" x2="283.2601" y1="0.5" y2="0.5" /><line stroke="rgb(0%,0%,0%)" x1="283.2601" x2="270.1526" y1="0.5" y2="0.5" /><line stroke="rgb(0%,0%,0%)" x1="239.7136" x2="233.5233" y1="0.5" y2="0.5" /><line stroke="rgb(0%,0%,0%)" x1="233.5233" x2="228.8807" y1="0.5" y2="0.5" /></svg>