<?xml version="1.0" encoding="utf-8" ?>
<svg baseProfile="tiny" height="100%" version="1.2" width="100%" xmlns="http://www.w3.org/2000/svg" xmlns:ev="http://www.w3.org/2001/xml-events" xmlns:xlink="http://www.w3.org/1999/xlink"><defs /><line stroke="rgb(0%,0%,0%)" x1="299.3666" x2="299.3666" y1="100.5" y2="84.1978" /><line stroke="rgb(0%,0%,0%)" x1="299.3666" x2="299.3666" y1="84.1978" y2="0.5" /><line stroke="rgb(0%,0%,0%)" x1="201.8213" x2="201.8213" y1="0.5" y2="73.5327" /><line stroke="rgb(0%,0%,0%)" x1="201.8213" x2="201.8213" y1="73.5327" y2="100.5" /><line stroke="rgb(0%,0%,0%)" x1="262.5013" x2="272.0802" y1="100.5" y2="100.5" /><line stroke="rgb(0%,0%,0%)" x1="272.0802" x2="285.5572" y1="100.5" y2="100.5" /><line stroke="rgb(0%,0%,0%)" x1="285.5572" x2="299.3666" y1="100.5" y2="100.5" /><line stroke="rgb(0%,0%,0%)" x1="201.8213" x2="230.2513" y1="100.5" y2="100.5" /><line stroke="rgb(0%,0%,0%)" x1="230.2513" x2="235.1287" y1="100.5" y2="100.5" /><line stroke="rgb(0%,0%,0%)" x1="235.1287" x2="241.6322" y1="100.5" y2="100.5" /><line stroke="rgb(0%,0%,0%)" x1="241.6322" x2="250.4181" y1="100.5" y2="100.5" /><line stroke="rgb(0%,0%,0%)" x1="250.4181" x2="262.5013" y1="100.5" y2="100.5" /><line stroke="rgb(0%,0%,0%)" x1="230.2513" x2="201.8213" y1="0.5" y2="0.5" /><line stroke="rgb(0%,0%,0%)" x1="272.0802" x2="262.5013" y1="0.5" y2="0.5" /><line stroke="rgb(0%,0%,0%)" x1="262.5013" x2="250.4181" y1="0.5" y2="0.5" /><line stroke="rgb(0%,0%,0%)" x1="250.4181" x2="241.6322" y1="0.5" y2="0.5" /><line stroke="rgb(0%,0%,0%)" x1="285.5572" x2="299.3666" y1="0.5" y2="0.5" /><line stroke="rgb(0%,0%,0%)" x1="285.5572" x2="272.0802" y1="0.5" y2="0.5" /><line stroke="rgb(0%,0%,0%)" x1="241.6322" x2="235.1287" y1="0.5" y2="0.5" /><line stroke="rgb(0%,0%,0%)" x1="235.1287" x2="230.2513" y1="0.5" y2="0.5" /></svg>