<?xml version="1.0" encoding="utf-8" ?>
<svg baseProfile="tiny" height="100%" version="1.2" width="100%" xmlns="http://www.w3.org/2000/svg" xmlns:ev="http://www.w3.org/2001/xml-events" xmlns:xlink="http://www.w3.org/1999/xlink"><defs /><line stroke="rgb(0%,0%,0%)" x1="298.3606" x2="298.3606" y1="100.5" y2="64.1776" /><line stroke="rgb(0%,0%,0%)" x1="298.3606" x2="298.3606" y1="64.1776" y2="0.5" /><line stroke="rgb(0%,0%,0%)" x1="201.8227" x2="201.8227" y1="0.5" y2="72.234" /><line stroke="rgb(0%,0%,0%)" x1="201.8227" x2="201.8227" y1="72.234" y2="100.5" /><line stroke="rgb(0%,0%,0%)" x1="265.425" x2="274.0077" y1="100.5" y2="100.5" /><line stroke="rgb(0%,0%,0%)" x1="274.0077" x2="287.8544" y1="100.5" y2="100.5" /><line stroke="rgb(0%,0%,0%)" x1="287.8544" x2="298.3606" y1="100.5" y2="100.5" /><line stroke="rgb(0%,0%,0%)" x1="201.8227" x2="231.6218" y1="100.5" y2="100.5" /><line stroke="rgb(0%,0%,0%)" x1="231.6218" x2="236.7342" y1="100.5" y2="100.5" /><line stroke="rgb(0%,0%,0%)" x1="236.7342" x2="243.5508" y1="100.5" y2="100.5" /><line stroke="rgb(0%,0%,0%)" x1="243.5508" x2="252.7599" y1="100.5" y2="100.5" /><line stroke="rgb(0%,0%,0%)" x1="252.7599" x2="265.425" y1="100.5" y2="100.5" /><line stroke="rgb(0%,0%,0%)" x1="231.6218" x2="201.8227" y1="0.5" y2="0.5" /><line stroke="rgb(0%,0%,0%)" x1="274.0077" x2="265.425" y1="0.5" y2="0.5" /><line stroke="rgb(0%,0%,0%)" x1="265.425" x2="252.7599" y1="0.5" y2="0.5" /><line stroke="rgb(0%,0%,0%)" x1="252.7599" x2="243.5508" y1="0.5" y2="0.5" /><line stroke="rgb(0%,0%,0%)" x1="287.8544" x2="298.3606" y1="0.5" y2="0.5" /><line stroke="rgb(0%,0%,0%)" x1="287.8544" x2="274.0077" y1="0.5" y2="0.5" /><line stroke="rgb(0%,0%,0%)" x1="243.5508" x2="236.7342" y1="0.5" y2="0.5" /><line stroke="rgb(0%,0%,0%)" x1="236.7342" x2="231.6218" y1="0.5" y2="0.5" /></svg>