<?xml version="1.0" encoding="utf-8" ?>
<svg baseProfile="tiny" height="100%" version="1.2" width="100%" xmlns="http://www.w3.org/2000/svg" xmlns:ev="http://www.w3.org/2001/xml-events" xmlns:xlink="http://www.w3.org/1999/xlink"><defs /><line stroke="rgb(0%,0%,0%)" x1="297.3546" x2="297.3546" y1="100.5" y2="44.1575" /><line stroke="rgb(0%,0%,0%)" x1="297.3546" x2="297.3546" y1="44.1575" y2="0.5" /><line stroke="rgb(0%,0%,0%)" x1="201.8241" x2="201.8241" y1="0.5" y2="70.9353" /><line stroke="rgb(0%,0%,0%)" x1="201.8241" x2="201.8241" y1="70.9353" y2="100.5" /><line stroke="rgb(0%,0%,0%)" x1="268.3486" x2="275.9353" y1="100.5" y2="100.5" /><line stroke="rgb(0%,0%,0%)" x1="275.9353" x2="290.1515" y1="100.5" y2="100.5" /><line stroke="rgb(0%,0%,0%)" x1="290.1515" x2="297.3546" y1="100.5" y2="100.5" /><line stroke="rgb(0%,0%,0%)" x1="201.8241" x2="232.9923" y1="100.5" y2="100.5" /><line stroke="rgb(0%,0%,0%)" x1="232.9923" x2="238.3396" y1="100.5" y2="100.5" /><line stroke="rgb(0%,0%,0%)" x1="238.3396" x2="245.4695" y1="100.5" y2="100.5" /><line stroke="rgb(0%,0%,0%)" x1="245.4695" x2="255.1016" y1="100.5" y2="100.5" /><line stroke="rgb(0%,0%,0%)" x1="255.1016" x2="268.3486" y1="100.5" y2="100.5" /><line stroke="rgb(0%,0%,0%)" x1="232.9923" x2="201.8241" y1="0.5" y2="0.5" /><line stroke="rgb(0%,0%,0%)" x1="275.9353" x2="268.3486" y1="0.5" y2="0.5" /><line stroke="rgb(0%,0%,0%)" x1="268.3486" x2="255.1016" y1="0.5" y2="0.5" /><line stroke="rgb(0%,0%,0%)" x1="255.1016" x2="245.4695" y1="0.5" y2="0.5" /><line stroke="rgb(0%,0%,0%)" x1="290.1515" x2="297.3546" y1="0.5" y2="0.5" /><line stroke="rgb(0%,0%,0%)" x1="290.1515" x2="275.9353" y1="0.5" y2="0.5" /><line stroke="rgb(0%,0%,0%)" x1="245.4695" x2="238.3396" y1="0.5" y2="0.5" /><line stroke="rgb(0%,0%,0%)" x1="238.3396" x2="232.9923" y1="0.5" y2="0.5" /></svg>