<?xml version="1.0" encoding="utf-8" ?>
<svg baseProfile="tiny" height="100%" version="1.2" width="100%" xmlns="http://www.w3.org/2000/svg" xmlns:ev="http://www.w3.org/2001/xml-events" xmlns:xlink="http://www.w3.org/1999/xlink"><defs /><line stroke="rgb(0%,0%,0%)" x1="351.9" x2="351.9" y1="0.5" y2="12.1646" /><line stroke="rgb(0%,0%,0%)" x1="351.9" x2="351.9" y1="12.1646" y2="100.5" /><line stroke="rgb(0%,0%,0%)" x1="331.6426" x2="347.612" y1="100.5" y2="100.5" /><line stroke="rgb(0%,0%,0%)" x1="347.612" x2="348.1689" y1="100.5" y2="100.5" /><line stroke="rgb(0%,0%,0%)" x1="348.1689" x2="348.8052" y1="100.5" y2="100.5" /><line stroke="rgb(0%,0%,0%)" x1="348.8052" x2="349.5114" y1="100.5" y2="100.5" /><line stroke="rgb(0%,0%,0%)" x1="349.5114" x2="350.2741" y1="100.5" y2="100.5" /><line stroke="rgb(0%,0%,0%)" x1="350.2741" x2="351.0767" y1="100.5" y2="100.5" /><line stroke="rgb(0%,0%,0%)" x1="351.0767" x2="351.9" y1="100.5" y2="100.5" /><line stroke="rgb(0%,0%,0%)" x1="331.6426" x2="27.6649" y1="100.5" y2="100.5" /><line stroke="rgb(0%,0%,0%)" x1="27.6649" x2="0.5" y1="100.5" y2="100.5" /><line stroke="rgb(0%,0%,0%)" x1="0.5" x2="27.6649" y1="0.5" y2="0.5" /><line stroke="rgb(0%,0%,0%)" x1="27.6649" x2="331.6426" y1="0.5" y2="0.5" /><line stroke="rgb(0%,0%,0%)" x1="331.6426" x2="347.612" y1="0.5" y2="0.5" /><line stroke="rgb(0%,0%,0%)" x1="347.612" x2="348.1689" y1="0.5" y2="0.5" /><line stroke="rgb(0%,0%,0%)" x1="348.1689" x2="348.8052" y1="0.5" y2="0.5" /><line stroke="rgb(0%,0%,0%)" x1="348.8052" x2="349.5114" y1="0.5" y2="0.5" /><line stroke="rgb(0%,0%,0%)" x1="349.5114" x2="350.2741" y1="0.5" y2="0.5" /><line stroke="rgb(0%,0%,0%)" x1="350.2741" x2="351.0767" y1="0.5" y2="0.5" /><line stroke="rgb(0%,0%,0%)" x1="351.0767" x2="351.9" y1="0.5" y2="0.5" /><line stroke="rgb(0%,0%,0%)" x1="0.5" x2="0.5" y1="0.5" y2="87.0047" /><line stroke="rgb(0%,0%,0%)" x1="0.5" x2="0.5" y1="87.0047" y2="100.5" /><line stroke="rgb(0%,0%,0%)" x1="165.1722" x2="165.4115" y1="47.3813" y2="49.6583" /><line stroke="rgb(0%,0%,0%)" x1="165.4115" x2="165.5" y1="49.6583" y2="50.5" /><line stroke="rgb(0%,0%,0%)" x1="165.5" x2="165.2607" y1="50.5" y2="52.7769" /><line stroke="rgb(0%,0%,0%)" x1="165.2607" x2="165.1722" y1="52.7769" y2="53.6187" /><line stroke="rgb(0%,0%,0%)" x1="165.1722" x2="164.4647" y1="53.6187" y2="55.7961" /><line stroke="rgb(0%,0%,0%)" x1="164.4647" x2="164.2032" y1="55.7961" y2="56.6011" /><line stroke="rgb(0%,0%,0%)" x1="164.2032" x2="163.0584" y1="56.6011" y2="58.5838" /><line stroke="rgb(0%,0%,0%)" x1="163.0584" x2="162.6353" y1="58.5838" y2="59.3168" /><line stroke="rgb(0%,0%,0%)" x1="162.6353" x2="161.1033" y1="59.3168" y2="61.0182" /><line stroke="rgb(0%,0%,0%)" x1="161.1033" x2="160.537" y1="61.0182" y2="61.6472" /><line stroke="rgb(0%,0%,0%)" x1="160.537" x2="158.6847" y1="61.6472" y2="62.9929" /><line stroke="rgb(0%,0%,0%)" x1="158.6847" x2="158.0" y1="62.9929" y2="63.4904" /><line stroke="rgb(0%,0%,0%)" x1="158.0" x2="155.9085" y1="63.4904" y2="64.4216" /><line stroke="rgb(0%,0%,0%)" x1="155.9085" x2="155.1353" y1="64.4216" y2="64.7658" /><line stroke="rgb(0%,0%,0%)" x1="155.1353" x2="152.8958" y1="64.7658" y2="65.2419" /><line stroke="rgb(0%,0%,0%)" x1="152.8958" x2="152.0679" y1="65.2419" y2="65.4178" /><line stroke="rgb(0%,0%,0%)" x1="152.0679" x2="149.7785" y1="65.4178" y2="65.4178" /><line stroke="rgb(0%,0%,0%)" x1="149.7785" x2="148.9321" y1="65.4178" y2="65.4178" /><line stroke="rgb(0%,0%,0%)" x1="148.9321" x2="146.6926" y1="65.4178" y2="64.9418" /><line stroke="rgb(0%,0%,0%)" x1="146.6926" x2="145.8647" y1="64.9418" y2="64.7658" /><line stroke="rgb(0%,0%,0%)" x1="145.8647" x2="143.7732" y1="64.7658" y2="63.8346" /><line stroke="rgb(0%,0%,0%)" x1="143.7732" x2="143.0" y1="63.8346" y2="63.4904" /><line stroke="rgb(0%,0%,0%)" x1="143.0" x2="141.1478" y1="63.4904" y2="62.1447" /><line stroke="rgb(0%,0%,0%)" x1="141.1478" x2="140.463" y1="62.1447" y2="61.6472" /><line stroke="rgb(0%,0%,0%)" x1="140.463" x2="138.9311" y1="61.6472" y2="59.9458" /><line stroke="rgb(0%,0%,0%)" x1="138.9311" x2="138.3647" y1="59.9458" y2="59.3168" /><line stroke="rgb(0%,0%,0%)" x1="138.3647" x2="137.22" y1="59.3168" y2="57.334" /><line stroke="rgb(0%,0%,0%)" x1="137.22" x2="136.7968" y1="57.334" y2="56.6011" /><line stroke="rgb(0%,0%,0%)" x1="136.7968" x2="136.0893" y1="56.6011" y2="54.4236" /><line stroke="rgb(0%,0%,0%)" x1="136.0893" x2="135.8278" y1="54.4236" y2="53.6187" /><line stroke="rgb(0%,0%,0%)" x1="135.8278" x2="135.5885" y1="53.6187" y2="51.3417" /><line stroke="rgb(0%,0%,0%)" x1="135.5885" x2="135.5" y1="51.3417" y2="50.5" /><line stroke="rgb(0%,0%,0%)" x1="135.5" x2="135.7393" y1="50.5" y2="48.2231" /><line stroke="rgb(0%,0%,0%)" x1="135.7393" x2="135.8278" y1="48.2231" y2="47.3813" /><line stroke="rgb(0%,0%,0%)" x1="135.8278" x2="136.5353" y1="47.3813" y2="45.2039" /><line stroke="rgb(0%,0%,0%)" x1="136.5353" x2="136.7968" y1="45.2039" y2="44.3989" /><line stroke="rgb(0%,0%,0%)" x1="136.7968" x2="137.9416" y1="44.3989" y2="42.4162" /><line stroke="rgb(0%,0%,0%)" x1="137.9416" x2="138.3647" y1="42.4162" y2="41.6832" /><line stroke="rgb(0%,0%,0%)" x1="138.3647" x2="139.8967" y1="41.6832" y2="39.9818" /><line stroke="rgb(0%,0%,0%)" x1="139.8967" x2="140.463" y1="39.9818" y2="39.3528" /><line stroke="rgb(0%,0%,0%)" x1="140.463" x2="142.3153" y1="39.3528" y2="38.0071" /><line stroke="rgb(0%,0%,0%)" x1="142.3153" x2="143.0" y1="38.0071" y2="37.5096" /><line stroke="rgb(0%,0%,0%)" x1="143.0" x2="145.0915" y1="37.5096" y2="36.5784" /><line stroke="rgb(0%,0%,0%)" x1="145.0915" x2="145.8647" y1="36.5784" y2="36.2342" /><line stroke="rgb(0%,0%,0%)" x1="145.8647" x2="148.1042" y1="36.2342" y2="35.7581" /><line stroke="rgb(0%,0%,0%)" x1="148.1042" x2="148.9321" y1="35.7581" y2="35.5822" /><line stroke="rgb(0%,0%,0%)" x1="148.9321" x2="151.2215" y1="35.5822" y2="35.5822" /><line stroke="rgb(0%,0%,0%)" x1="151.2215" x2="152.0679" y1="35.5822" y2="35.5822" /><line stroke="rgb(0%,0%,0%)" x1="152.0679" x2="154.3074" y1="35.5822" y2="36.0582" /><line stroke="rgb(0%,0%,0%)" x1="154.3074" x2="155.1353" y1="36.0582" y2="36.2342" /><line stroke="rgb(0%,0%,0%)" x1="155.1353" x2="157.2268" y1="36.2342" y2="37.1654" /><line stroke="rgb(0%,0%,0%)" x1="157.2268" x2="158.0" y1="37.1654" y2="37.5096" /><line stroke="rgb(0%,0%,0%)" x1="158.0" x2="159.8522" y1="37.5096" y2="38.8553" /><line stroke="rgb(0%,0%,0%)" x1="159.8522" x2="160.537" y1="38.8553" y2="39.3528" /><line stroke="rgb(0%,0%,0%)" x1="160.537" x2="162.0689" y1="39.3528" y2="41.0542" /><line stroke="rgb(0%,0%,0%)" x1="162.0689" x2="162.6353" y1="41.0542" y2="41.6832" /><line stroke="rgb(0%,0%,0%)" x1="162.6353" x2="163.78" y1="41.6832" y2="43.666" /><line stroke="rgb(0%,0%,0%)" x1="163.78" x2="164.2032" y1="43.666" y2="44.3989" /><line stroke="rgb(0%,0%,0%)" x1="164.2032" x2="164.9107" y1="44.3989" y2="46.5764" /><line stroke="rgb(0%,0%,0%)" x1="164.9107" x2="165.1722" y1="46.5764" y2="47.3813" /><line stroke="rgb(0%,0%,0%)" x1="65.1722" x2="65.4115" y1="47.3813" y2="49.6583" /><line stroke="rgb(0%,0%,0%)" x1="65.4115" x2="65.5" y1="49.6583" y2="50.5" /><line stroke="rgb(0%,0%,0%)" x1="65.5" x2="65.2607" y1="50.5" y2="52.7769" /><line stroke="rgb(0%,0%,0%)" x1="65.2607" x2="65.1722" y1="52.7769" y2="53.6187" /><line stroke="rgb(0%,0%,0%)" x1="65.1722" x2="64.4647" y1="53.6187" y2="55.7961" /><line stroke="rgb(0%,0%,0%)" x1="64.4647" x2="64.2032" y1="55.7961" y2="56.6011" /><line stroke="rgb(0%,0%,0%)" x1="64.2032" x2="63.0584" y1="56.6011" y2="58.5838" /><line stroke="rgb(0%,0%,0%)" x1="63.0584" x2="62.6352" y1="58.5838" y2="59.3168" /><line stroke="rgb(0%,0%,0%)" x1="62.6352" x2="61.1033" y1="59.3168" y2="61.0182" /><line stroke="rgb(0%,0%,0%)" x1="61.1033" x2="60.537" y1="61.0182" y2="61.6472" /><line stroke="rgb(0%,0%,0%)" x1="60.537" x2="58.6847" y1="61.6472" y2="62.9929" /><line stroke="rgb(0%,0%,0%)" x1="58.6847" x2="58.0" y1="62.9929" y2="63.4904" /><line stroke="rgb(0%,0%,0%)" x1="58.0" x2="55.9085" y1="63.4904" y2="64.4216" /><line stroke="rgb(0%,0%,0%)" x1="55.9085" x2="55.1353" y1="64.4216" y2="64.7658" /><line stroke="rgb(0%,0%,0%)" x1="55.1353" x2="52.8958" y1="64.7658" y2="65.2419" /><line stroke="rgb(0%,0%,0%)" x1="52.8958" x2="52.0679" y1="65.2419" y2="65.4178" /><line stroke="rgb(0%,0%,0%)" x1="52.0679" x2="49.7784" y1="65.4178" y2="65.4178" /><line stroke="rgb(0%,0%,0%)" x1="49.7784" x2="48.9321" y1="65.4178" y2="65.4178" /><line stroke="rgb(0%,0%,0%)" x1="48.9321" x2="46.6926" y1="65.4178" y2="64.9418" /><line stroke="rgb(0%,0%,0%)" x1="46.6926" x2="45.8647" y1="64.9418" y2="64.7658" /><line stroke="rgb(0%,0%,0%)" x1="45.8647" x2="43.7732" y1="64.7658" y2="63.8346" /><line stroke="rgb(0%,0%,0%)" x1="43.7732" x2="43.0" y1="63.8346" y2="63.4904" /><line stroke="rgb(0%,0%,0%)" x1="43.0" x2="41.1478" y1="63.4904" y2="62.1447" /><line stroke="rgb(0%,0%,0%)" x1="41.1478" x2="40.463" y1="62.1447" y2="61.6472" /><line stroke="rgb(0%,0%,0%)" x1="40.463" x2="38.9311" y1="61.6472" y2="59.9458" /><line stroke="rgb(0%,0%,0%)" x1="38.9311" x2="38.3647" y1="59.9458" y2="59.3168" /><line stroke="rgb(0%,0%,0%)" x1="38.3647" x2="37.22" y1="59.3168" y2="57.334" /><line stroke="rgb(0%,0%,0%)" x1="37.22" x2="36.7968" y1="57.334" y2="56.6011" /><line stroke="rgb(0%,0%,0%)" x1="36.7968" x2="36.0893" y1="56.6011" y2="54.4236" /><line stroke="rgb(0%,0%,0%)" x1="36.0893" x2="35.8278" y1="54.4236" y2="53.6187" /><line stroke="rgb(0%,0%,0%)" x1="35.8278" x2="35.5885" y1="53.6187" y2="51.3417" /><line stroke="rgb(0%,0%,0%)" x1="35.5885" x2="35.5" y1="51.3417" y2="50.5" /><line stroke="rgb(0%,0%,0%)" x1="35.5" x2="35.7393" y1="50.5" y2="48.2231" /><line stroke="rgb(0%,0%,0%)" x1="35.7393" x2="35.8278" y1="48.2231" y2="47.3813" /><line stroke="rgb(0%,0%,0%)" x1="35.8278" x2="36.5353" y1="47.3813" y2="45.2039" /><line stroke="rgb(0%,0%,0%)" x1="36.5353" x2="36.7968" y1="45.2039" y2="44.3989" /><line stroke="rgb(0%,0%,0%)" x1="36.7968" x2="37.9415" y1="44.3989" y2="42.4162" /><line stroke="rgb(0%,0%,0%)" x1="37.9415" x2="38.3647" y1="42.4162" y2="41.6832" /><line stroke="rgb(0%,0%,0%)" x1="38.3647" x2="39.8967" y1="41.6832" y2="39.9818" /><line stroke="rgb(0%,0%,0%)" x1="39.8967" x2="40.463" y1="39.9818" y2="39.3528" /><line stroke="rgb(0%,0%,0%)" x1="40.463" x2="42.3153" y1="39.3528" y2="38.0071" /><line stroke="rgb(0%,0%,0%)" x1="42.3153" x2="43.0" y1="38.0071" y2="37.5096" /><line stroke="rgb(0%,0%,0%)" x1="43.0" x2="45.0915" y1="37.5096" y2="36.5784" /><line stroke="rgb(0%,0%,0%)" x1="45.0915" x2="45.8647" y1="36.5784" y2="36.2342" /><line stroke="rgb(0%,0%,0%)" x1="45.8647" x2="48.1042" y1="36.2342" y2="35.7581" /><line stroke="rgb(0%,0%,0%)" x1="48.1042" x2="48.9321" y1="35.7581" y2="35.5822" /><line stroke="rgb(0%,0%,0%)" x1="48.9321" x2="51.2215" y1="35.5822" y2="35.5822" /><line stroke="rgb(0%,0%,0%)" x1="51.2215" x2="52.0679" y1="35.5822" y2="35.5822" /><line stroke="rgb(0%,0%,0%)" x1="52.0679" x2="54.3074" y1="35.5822" y2="36.0582" /><line stroke="rgb(0%,0%,0%)" x1="54.3074" x2="55.1353" y1="36.0582" y2="36.2342" /><line stroke="rgb(0%,0%,0%)" x1="55.1353" x2="57.2268" y1="36.2342" y2="37.1654" /><line stroke="rgb(0%,0%,0%)" x1="57.2268" x2="58.0" y1="37.1654" y2="37.5096" /><line stroke="rgb(0%,0%,0%)" x1="58.0" x2="59.8522" y1="37.5096" y2="38.8553" /><line stroke="rgb(0%,0%,0%)" x1="59.8522" x2="60.537" y1="38.8553" y2="39.3528" /><line stroke="rgb(0%,0%,0%)" x1="60.537" x2="62.0689" y1="39.3528" y2="41.0542" /><line stroke="rgb(0%,0%,0%)" x1="62.0689" x2="62.6352" y1="41.0542" y2="41.6832" /><line stroke="rgb(0%,0%,0%)" x1="62.6352" x2="63.78" y1="41.6832" y2="43.666" /><line stroke="rgb(0%,0%,0%)" x1="63.78" x2="64.2032" y1="43.666" y2="44.3989" /><line stroke="rgb(0%,0%,0%)" x1="64.2032" x2="64.9107" y1="44.3989" y2="46.5764" /><line stroke="rgb(0%,0%,0%)" x1="64.9107" x2="65.1722" y1="46.5764" y2="47.3813" /></svg>