<?xml version="1.0" encoding="utf-8" ?>
<svg baseProfile="tiny" height="100%" version="1.2" width="100%" xmlns="http://www.w3.org/2000/svg" xmlns:ev="http://www.w3.org/2001/xml-events" xmlns:xlink="http://www.w3.org/1999/xlink"><defs /><line stroke="rgb(0%,0%,0%)" x1="296.3486" x2="296.3486" y1="100.5" y2="24.1374" /><line stroke="rgb(0%,0%,0%)" x1="296.3486" x2="296.3486" y1="24.1374" y2="0.5" /><line stroke="rgb(0%,0%,0%)" x1="201.8255" x2="201.8255" y1="0.5" y2="69.6366" /><line stroke="rgb(0%,0%,0%)" x1="201.8255" x2="201.8255" y1="69.6366" y2="100.5" /><line stroke="rgb(0%,0%,0%)" x1="271.2723" x2="277.8628" y1="100.5" y2="100.5" /><line stroke="rgb(0%,0%,0%)" x1="277.8628" x2="292.4487" y1="100.5" y2="100.5" /><line stroke="rgb(0%,0%,0%)" x1="292.4487" x2="296.3486" y1="100.5" y2="100.5" /><line stroke="rgb(0%,0%,0%)" x1="201.8255" x2="234.3629" y1="100.5" y2="100.5" /><line stroke="rgb(0%,0%,0%)" x1="234.3629" x2="239.945" y1="100.5" y2="100.5" /><line stroke="rgb(0%,0%,0%)" x1="239.945" x2="247.3881" y1="100.5" y2="100.5" /><line stroke="rgb(0%,0%,0%)" x1="247.3881" x2="257.4434" y1="100.5" y2="100.5" /><line stroke="rgb(0%,0%,0%)" x1="257.4434" x2="271.2723" y1="100.5" y2="100.5" /><line stroke="rgb(0%,0%,0%)" x1="234.3629" x2="201.8255" y1="0.5" y2="0.5" /><line stroke="rgb(0%,0%,0%)" x1="277.8628" x2="271.2723" y1="0.5" y2="0.5" /><line stroke="rgb(0%,0%,0%)" x1="271.2723" x2="257.4434" y1="0.5" y2="0.5" /><line stroke="rgb(0%,0%,0%)" x1="257.4434" x2="247.3881" y1="0.5" y2="0.5" /><line stroke="rgb(0%,0%,0%)" x1="292.4487" x2="296.3486" y1="0.5" y2="0.5" /><line stroke="rgb(0%,0%,0%)" x1="292.4487" x2="277.8628" y1="0.5" y2="0.5" /><line stroke="rgb(0%,0%,0%)" x1="247.3881" x2="239.945" y1="0.5" y2="0.5" /><line stroke="rgb(0%,0%,0%)" x1="239.945" x2="234.3629" y1="0.5" y2="0.5" /></svg>