<?xml version="1.0" encoding="utf-8" ?>
<svg baseProfile="tiny" height="100%" version="1.2" width="100%" xmlns="http://www.w3.org/2000/svg" xmlns:ev="http://www.w3.org/2001/xml-events" xmlns:xlink="http://www.w3.org/1999/xlink"><defs /><line stroke="rgb(0%,0%,0%)" x1="295.3426" x2="295.3426" y1="100.5" y2="4.1173" /><line stroke="rgb(0%,0%,0%)" x1="295.3426" x2="295.3426" y1="4.1173" y2="0.5" /><line stroke="rgb(0%,0%,0%)" x1="201.8269" x2="201.8269" y1="0.5" y2="68.3379" /><line stroke="rgb(0%,0%,0%)" x1="201.8269" x2="201.8269" y1="68.3379" y2="100.5" /><line stroke="rgb(0%,0%,0%)" x1="274.1959" x2="279.7904" y1="100.5" y2="100.5" /><line stroke="rgb(0%,0%,0%)" x1="279.7904" x2="294.7458" y1="100.5" y2="100.5" /><line stroke="rgb(0%,0%,0%)" x1="294.7458" x2="295.3426" y1="100.5" y2="100.5" /><line stroke="rgb(0%,0%,0%)" x1="201.8269" x2="235.7334" y1="100.5" y2="100.5" /><line stroke="rgb(0%,0%,0%)" x1="235.7334" x2="241.5505" y1="100.5" y2="100.5" /><line stroke="rgb(0%,0%,0%)" x1="241.5505" x2="249.3067" y1="100.5" y2="100.5" /><line stroke="rgb(0%,0%,0%)" x1="249.3067" x2="259.7851" y1="100.5" y2="100.5" /><line stroke="rgb(0%,0%,0%)" x1="259.7851" x2="274.1959" y1="100.5" y2="100.5" /><line stroke="rgb(0%,0%,0%)" x1="235.7334" x2="201.8269" y1="0.5" y2="0.5" /><line stroke="rgb(0%,0%,0%)" x1="279.7904" x2="274.1959" y1="0.5" y2="0.5" /><line stroke="rgb(0%,0%,0%)" x1="274.1959" x2="259.7851" y1="0.5" y2="0.5" /><line stroke="rgb(0%,0%,0%)" x1="259.7851" x2="249.3067" y1="0.5" y2="0.5" /><line stroke="rgb(0%,0%,0%)" x1="294.7458" x2="295.3426" y1="0.5" y2="0.5" /><line stroke="rgb(0%,0%,0%)" x1="294.7458" x2="279.7904" y1="0.5" y2="0.5" /><line stroke="rgb(0%,0%,0%)" x1="249.3067" x2="241.5505" y1="0.5" y2="0.5" /><line stroke="rgb(0%,0%,0%)" x1="241.5505" x2="235.7334" y1="0.5" y2="0.5" /></svg>