<?xml version="1.0" encoding="utf-8" ?>
<svg baseProfile="tiny" height="100%" version="1.2" width="100%" xmlns="http://www.w3.org/2000/svg" xmlns:ev="http://www.w3.org/2001/xml-events" xmlns:xlink="http://www.w3.org/1999/xlink"><defs /><line stroke="rgb(0%,0%,0%)" x1="294.4759" x2="294.4759" y1="100.5" y2="85.4272" /><line stroke="rgb(0%,0%,0%)" x1="294.4759" x2="294.4759" y1="85.4272" y2="0.5" /><line stroke="rgb(0%,0%,0%)" x1="201.8283" x2="201.8283" y1="0.5" y2="67.0392" /><line stroke="rgb(0%,0%,0%)" x1="201.8283" x2="201.8283" y1="67.0392" y2="100.5" /><line stroke="rgb(0%,0%,0%)" x1="277.1196" x2="281.718" y1="100.5" y2="100.5" /><line stroke="rgb(0%,0%,0%)" x1="281.718" x2="294.4759" y1="100.5" y2="100.5" /><line stroke="rgb(0%,0%,0%)" x1="201.8283" x2="237.104" y1="100.5" y2="100.5" /><line stroke="rgb(0%,0%,0%)" x1="237.104" x2="243.1559" y1="100.5" y2="100.5" /><line stroke="rgb(0%,0%,0%)" x1="243.1559" x2="251.2253" y1="100.5" y2="100.5" /><line stroke="rgb(0%,0%,0%)" x1="251.2253" x2="262.1269" y1="100.5" y2="100.5" /><line stroke="rgb(0%,0%,0%)" x1="262.1269" x2="277.1196" y1="100.5" y2="100.5" /><line stroke="rgb(0%,0%,0%)" x1="237.104" x2="201.8283" y1="0.5" y2="0.5" /><line stroke="rgb(0%,0%,0%)" x1="281.718" x2="277.1196" y1="0.5" y2="0.5" /><line stroke="rgb(0%,0%,0%)" x1="277.1196" x2="262.1269" y1="0.5" y2="0.5" /><line stroke="rgb(0%,0%,0%)" x1="262.1269" x2="251.2253" y1="0.5" y2="0.5" /><line stroke="rgb(0%,0%,0%)" x1="294.4759" x2="281.718" y1="0.5" y2="0.5" /><line stroke="rgb(0%,0%,0%)" x1="251.2253" x2="243.1559" y1="0.5" y2="0.5" /><line stroke="rgb(0%,0%,0%)" x1="243.1559" x2="237.104" y1="0.5" y2="0.5" /></svg>