<?xml version="1.0" encoding="utf-8" ?>
<svg baseProfile="tiny" height="100%" version="1.2" width="100%" xmlns="http://www.w3.org/2000/svg" xmlns:ev="http://www.w3.org/2001/xml-events" xmlns:xlink="http://www.w3.org/1999/xlink"><defs /><line stroke="rgb(0%,0%,0%)" x1="293.6398" x2="293.6398" y1="100.5" y2="67.0303" /><line stroke="rgb(0%,0%,0%)" x1="293.6398" x2="293.6398" y1="67.0303" y2="0.5" /><line stroke="rgb(0%,0%,0%)" x1="201.8297" x2="201.8297" y1="0.5" y2="65.7405" /><line stroke="rgb(0%,0%,0%)" x1="201.8297" x2="201.8297" y1="65.7405" y2="100.5" /><line stroke="rgb(0%,0%,0%)" x1="280.0432" x2="283.6455" y1="100.5" y2="100.5" /><line stroke="rgb(0%,0%,0%)" x1="283.6455" x2="293.6398" y1="100.5" y2="100.5" /><line stroke="rgb(0%,0%,0%)" x1="201.8297" x2="238.4745" y1="100.5" y2="100.5" /><line stroke="rgb(0%,0%,0%)" x1="238.4745" x2="244.7613" y1="100.5" y2="100.5" /><line stroke="rgb(0%,0%,0%)" x1="244.7613" x2="253.144" y1="100.5" y2="100.5" /><line stroke="rgb(0%,0%,0%)" x1="253.144" x2="264.4686" y1="100.5" y2="100.5" /><line stroke="rgb(0%,0%,0%)" x1="264.4686" x2="280.0432" y1="100.5" y2="100.5" /><line stroke="rgb(0%,0%,0%)" x1="238.4745" x2="201.8297" y1="0.5" y2="0.5" /><line stroke="rgb(0%,0%,0%)" x1="283.6455" x2="280.0432" y1="0.5" y2="0.5" /><line stroke="rgb(0%,0%,0%)" x1="280.0432" x2="264.4686" y1="0.5" y2="0.5" /><line stroke="rgb(0%,0%,0%)" x1="264.4686" x2="253.144" y1="0.5" y2="0.5" /><line stroke="rgb(0%,0%,0%)" x1="293.6398" x2="283.6455" y1="0.5" y2="0.5" /><line stroke="rgb(0%,0%,0%)" x1="253.144" x2="244.7613" y1="0.5" y2="0.5" /><line stroke="rgb(0%,0%,0%)" x1="244.7613" x2="238.4745" y1="0.5" y2="0.5" /></svg>