<?xml version="1.0" encoding="utf-8" ?>
<svg baseProfile="tiny" height="100%" version="1.2" width="100%" xmlns="http://www.w3.org/2000/svg" xmlns:ev="http://www.w3.org/2001/xml-events" xmlns:xlink="http://www.w3.org/1999/xlink"><defs /><line stroke="rgb(0%,0%,0%)" x1="292.8038" x2="292.8038" y1="100.5" y2="48.6335" /><line stroke="rgb(0%,0%,0%)" x1="292.8038" x2="292.8038" y1="48.6335" y2="0.5" /><line stroke="rgb(0%,0%,0%)" x1="201.8311" x2="201.8311" y1="0.5" y2="64.4418" /><line stroke="rgb(0%,0%,0%)" x1="201.8311" x2="201.8311" y1="64.4418" y2="100.5" /><line stroke="rgb(0%,0%,0%)" x1="282.9669" x2="285.5731" y1="100.5" y2="100.5" /><line stroke="rgb(0%,0%,0%)" x1="285.5731" x2="292.8038" y1="100.5" y2="100.5" /><line stroke="rgb(0%,0%,0%)" x1="201.8311" x2="239.845" y1="100.5" y2="100.5" /><line stroke="rgb(0%,0%,0%)" x1="239.845" x2="246.3667" y1="100.5" y2="100.5" /><line stroke="rgb(0%,0%,0%)" x1="246.3667" x2="255.0626" y1="100.5" y2="100.5" /><line stroke="rgb(0%,0%,0%)" x1="255.0626" x2="266.8103" y1="100.5" y2="100.5" /><line stroke="rgb(0%,0%,0%)" x1="266.8103" x2="282.9669" y1="100.5" y2="100.5" /><line stroke="rgb(0%,0%,0%)" x1="239.845" x2="201.8311" y1="0.5" y2="0.5" /><line stroke="rgb(0%,0%,0%)" x1="285.5731" x2="282.9669" y1="0.5" y2="0.5" /><line stroke="rgb(0%,0%,0%)" x1="282.9669" x2="266.8103" y1="0.5" y2="0.5" /><line stroke="rgb(0%,0%,0%)" x1="266.8103" x2="255.0626" y1="0.5" y2="0.5" /><line stroke="rgb(0%,0%,0%)" x1="292.8038" x2="285.5731" y1="0.5" y2="0.5" /><line stroke="rgb(0%,0%,0%)" x1="255.0626" x2="246.3667" y1="0.5" y2="0.5" /><line stroke="rgb(0%,0%,0%)" x1="246.3667" x2="239.845" y1="0.5" y2="0.5" /></svg>