<?xml version="1.0" encoding="utf-8" ?>
<svg baseProfile="tiny" height="100%" version="1.2" width="100%" xmlns="http://www.w3.org/2000/svg" xmlns:ev="http://www.w3.org/2001/xml-events" xmlns:xlink="http://www.w3.org/1999/xlink"><defs /><line stroke="rgb(0%,0%,0%)" x1="291.9677" x2="291.9677" y1="100.5" y2="30.2367" /><line stroke="rgb(0%,0%,0%)" x1="291.9677" x2="291.9677" y1="30.2367" y2="0.5" /><line stroke="rgb(0%,0%,0%)" x1="201.8325" x2="201.8325" y1="0.5" y2="63.1431" /><line stroke="rgb(0%,0%,0%)" x1="201.8325" x2="201.8325" y1="63.1431" y2="100.5" /><line stroke="rgb(0%,0%,0%)" x1="285.8905" x2="287.5006" y1="100.5" y2="100.5" /><line stroke="rgb(0%,0%,0%)" x1="287.5006" x2="291.9677" y1="100.5" y2="100.5" /><line stroke="rgb(0%,0%,0%)" x1="201.8325" x2="241.2156" y1="100.5" y2="100.5" /><line stroke="rgb(0%,0%,0%)" x1="241.2156" x2="247.9722" y1="100.5" y2="100.5" /><line stroke="rgb(0%,0%,0%)" x1="247.9722" x2="256.9812" y1="100.5" y2="100.5" /><line stroke="rgb(0%,0%,0%)" x1="256.9812" x2="269.1521" y1="100.5" y2="100.5" /><line stroke="rgb(0%,0%,0%)" x1="269.1521" x2="285.8905" y1="100.5" y2="100.5" /><line stroke="rgb(0%,0%,0%)" x1="241.2156" x2="201.8325" y1="0.5" y2="0.5" /><line stroke="rgb(0%,0%,0%)" x1="287.5006" x2="285.8905" y1="0.5" y2="0.5" /><line stroke="rgb(0%,0%,0%)" x1="285.8905" x2="269.1521" y1="0.5" y2="0.5" /><line stroke="rgb(0%,0%,0%)" x1="269.1521" x2="256.9812" y1="0.5" y2="0.5" /><line stroke="rgb(0%,0%,0%)" x1="291.9677" x2="287.5006" y1="0.5" y2="0.5" /><line stroke="rgb(0%,0%,0%)" x1="256.9812" x2="247.9722" y1="0.5" y2="0.5" /><line stroke="rgb(0%,0%,0%)" x1="247.9722" x2="241.2156" y1="0.5" y2="0.5" /></svg>