<?xml version="1.0" encoding="utf-8" ?>
<svg baseProfile="tiny" height="100%" version="1.2" width="100%" xmlns="http://www.w3.org/2000/svg" xmlns:ev="http://www.w3.org/2001/xml-events" xmlns:xlink="http://www.w3.org/1999/xlink"><defs /><line stroke="rgb(0%,0%,0%)" x1="291.1317" x2="291.1317" y1="100.5" y2="11.8398" /><line stroke="rgb(0%,0%,0%)" x1="291.1317" x2="291.1317" y1="11.8398" y2="0.5" /><line stroke="rgb(0%,0%,0%)" x1="201.8339" x2="201.8339" y1="0.5" y2="61.8444" /><line stroke="rgb(0%,0%,0%)" x1="201.8339" x2="201.8339" y1="61.8444" y2="100.5" /><line stroke="rgb(0%,0%,0%)" x1="288.8142" x2="289.4282" y1="100.5" y2="100.5" /><line stroke="rgb(0%,0%,0%)" x1="289.4282" x2="291.1317" y1="100.5" y2="100.5" /><line stroke="rgb(0%,0%,0%)" x1="201.8339" x2="242.5861" y1="100.5" y2="100.5" /><line stroke="rgb(0%,0%,0%)" x1="242.5861" x2="249.5776" y1="100.5" y2="100.5" /><line stroke="rgb(0%,0%,0%)" x1="249.5776" x2="258.8999" y1="100.5" y2="100.5" /><line stroke="rgb(0%,0%,0%)" x1="258.8999" x2="271.4938" y1="100.5" y2="100.5" /><line stroke="rgb(0%,0%,0%)" x1="271.4938" x2="288.8142" y1="100.5" y2="100.5" /><line stroke="rgb(0%,0%,0%)" x1="242.5861" x2="201.8339" y1="0.5" y2="0.5" /><line stroke="rgb(0%,0%,0%)" x1="289.4282" x2="288.8142" y1="0.5" y2="0.5" /><line stroke="rgb(0%,0%,0%)" x1="288.8142" x2="271.4938" y1="0.5" y2="0.5" /><line stroke="rgb(0%,0%,0%)" x1="271.4938" x2="258.8999" y1="0.5" y2="0.5" /><line stroke="rgb(0%,0%,0%)" x1="291.1317" x2="289.4282" y1="0.5" y2="0.5" /><line stroke="rgb(0%,0%,0%)" x1="258.8999" x2="249.5776" y1="0.5" y2="0.5" /><line stroke="rgb(0%,0%,0%)" x1="249.5776" x2="242.5861" y1="0.5" y2="0.5" /></svg>