<?xml version="1.0" encoding="utf-8" ?>
<svg baseProfile="tiny" height="100%" version="1.2" width="100%" xmlns="http://www.w3.org/2000/svg" xmlns:ev="http://www.w3.org/2001/xml-events" xmlns:xlink="http://www.w3.org/1999/xlink"><defs /><line stroke="rgb(0%,0%,0%)" x1="351.9" x2="351.9" y1="0.5" y2="13.0286" /><line stroke="rgb(0%,0%,0%)" x1="351.9" x2="351.9" y1="13.0286" y2="100.5" /><line stroke="rgb(0%,0%,0%)" x1="330.142" x2="347.2944" y1="100.5" y2="100.5" /><line stroke="rgb(0%,0%,0%)" x1="347.2944" x2="347.8926" y1="100.5" y2="100.5" /><line stroke="rgb(0%,0%,0%)" x1="347.8926" x2="348.576" y1="100.5" y2="100.5" /><line stroke="rgb(0%,0%,0%)" x1="348.576" x2="349.3344" y1="100.5" y2="100.5" /><line stroke="rgb(0%,0%,0%)" x1="349.3344" x2="350.1537" y1="100.5" y2="100.5" /><line stroke="rgb(0%,0%,0%)" x1="350.1537" x2="351.0157" y1="100.5" y2="100.5" /><line stroke="rgb(0%,0%,0%)" x1="351.0157" x2="351.9" y1="100.5" y2="100.5" /><line stroke="rgb(0%,0%,0%)" x1="330.142" x2="29.6771" y1="100.5" y2="100.5" /><line stroke="rgb(0%,0%,0%)" x1="29.6771" x2="0.5" y1="100.5" y2="100.5" /><line stroke="rgb(0%,0%,0%)" x1="0.5" x2="29.6771" y1="0.5" y2="0.5" /><line stroke="rgb(0%,0%,0%)" x1="29.6771" x2="330.142" y1="0.5" y2="0.5" /><line stroke="rgb(0%,0%,0%)" x1="330.142" x2="347.2944" y1="0.5" y2="0.5" /><line stroke="rgb(0%,0%,0%)" x1="347.2944" x2="347.8926" y1="0.5" y2="0.5" /><line stroke="rgb(0%,0%,0%)" x1="347.8926" x2="348.576" y1="0.5" y2="0.5" /><line stroke="rgb(0%,0%,0%)" x1="348.576" x2="349.3344" y1="0.5" y2="0.5" /><line stroke="rgb(0%,0%,0%)" x1="349.3344" x2="350.1537" y1="0.5" y2="0.5" /><line stroke="rgb(0%,0%,0%)" x1="350.1537" x2="351.0157" y1="0.5" y2="0.5" /><line stroke="rgb(0%,0%,0%)" x1="351.0157" x2="351.9" y1="0.5" y2="0.5" /><line stroke="rgb(0%,0%,0%)" x1="0.5" x2="0.5" y1="0.5" y2="86.0051" /><line stroke="rgb(0%,0%,0%)" x1="0.5" x2="0.5" y1="86.0051" y2="100.5" /><line stroke="rgb(0%,0%,0%)" x1="165.1722" x2="165.405" y1="47.3813" y2="49.5959" /><line stroke="rgb(0%,0%,0%)" x1="165.405" x2="165.5" y1="49.5959" y2="50.5" /><line stroke="rgb(0%,0%,0%)" x1="165.5" x2="165.2672" y1="50.5" y2="52.7146" /><line stroke="rgb(0%,0%,0%)" x1="165.2672" x2="165.1722" y1="52.7146" y2="53.6187" /><line stroke="rgb(0%,0%,0%)" x1="165.1722" x2="164.4841" y1="53.6187" y2="55.7365" /><line stroke="rgb(0%,0%,0%)" x1="164.4841" x2="164.2032" y1="55.7365" y2="56.6011" /><line stroke="rgb(0%,0%,0%)" x1="164.2032" x2="163.0898" y1="56.6011" y2="58.5295" /><line stroke="rgb(0%,0%,0%)" x1="163.0898" x2="162.6353" y1="58.5295" y2="59.3168" /><line stroke="rgb(0%,0%,0%)" x1="162.6353" x2="161.1452" y1="59.3168" y2="60.9716" /><line stroke="rgb(0%,0%,0%)" x1="161.1452" x2="160.537" y1="60.9716" y2="61.6472" /><line stroke="rgb(0%,0%,0%)" x1="160.537" x2="158.7355" y1="61.6472" y2="62.956" /><line stroke="rgb(0%,0%,0%)" x1="158.7355" x2="158.0" y1="62.956" y2="63.4904" /><line stroke="rgb(0%,0%,0%)" x1="158.0" x2="155.9657" y1="63.4904" y2="64.3961" /><line stroke="rgb(0%,0%,0%)" x1="155.9657" x2="155.1353" y1="64.3961" y2="64.7658" /><line stroke="rgb(0%,0%,0%)" x1="155.1353" x2="152.9571" y1="64.7658" y2="65.2288" /><line stroke="rgb(0%,0%,0%)" x1="152.9571" x2="152.0679" y1="65.2288" y2="65.4178" /><line stroke="rgb(0%,0%,0%)" x1="152.0679" x2="149.8411" y1="65.4178" y2="65.4178" /><line stroke="rgb(0%,0%,0%)" x1="149.8411" x2="148.9321" y1="65.4178" y2="65.4178" /><line stroke="rgb(0%,0%,0%)" x1="148.9321" x2="146.754" y1="65.4178" y2="64.9549" /><line stroke="rgb(0%,0%,0%)" x1="146.754" x2="145.8647" y1="64.9549" y2="64.7658" /><line stroke="rgb(0%,0%,0%)" x1="145.8647" x2="143.8305" y1="64.7658" y2="63.8601" /><line stroke="rgb(0%,0%,0%)" x1="143.8305" x2="143.0" y1="63.8601" y2="63.4904" /><line stroke="rgb(0%,0%,0%)" x1="143.0" x2="141.1985" y1="63.4904" y2="62.1815" /><line stroke="rgb(0%,0%,0%)" x1="141.1985" x2="140.463" y1="62.1815" y2="61.6472" /><line stroke="rgb(0%,0%,0%)" x1="140.463" x2="138.973" y1="61.6472" y2="59.9924" /><line stroke="rgb(0%,0%,0%)" x1="138.973" x2="138.3647" y1="59.9924" y2="59.3168" /><line stroke="rgb(0%,0%,0%)" x1="138.3647" x2="137.2514" y1="59.3168" y2="57.3883" /><line stroke="rgb(0%,0%,0%)" x1="137.2514" x2="136.7968" y1="57.3883" y2="56.6011" /><line stroke="rgb(0%,0%,0%)" x1="136.7968" x2="136.1087" y1="56.6011" y2="54.4833" /><line stroke="rgb(0%,0%,0%)" x1="136.1087" x2="135.8278" y1="54.4833" y2="53.6187" /><line stroke="rgb(0%,0%,0%)" x1="135.8278" x2="135.595" y1="53.6187" y2="51.4041" /><line stroke="rgb(0%,0%,0%)" x1="135.595" x2="135.5" y1="51.4041" y2="50.5" /><line stroke="rgb(0%,0%,0%)" x1="135.5" x2="135.7328" y1="50.5" y2="48.2854" /><line stroke="rgb(0%,0%,0%)" x1="135.7328" x2="135.8278" y1="48.2854" y2="47.3813" /><line stroke="rgb(0%,0%,0%)" x1="135.8278" x2="136.5159" y1="47.3813" y2="45.2635" /><line stroke="rgb(0%,0%,0%)" x1="136.5159" x2="136.7968" y1="45.2635" y2="44.3989" /><line stroke="rgb(0%,0%,0%)" x1="136.7968" x2="137.9102" y1="44.3989" y2="42.4705" /><line stroke="rgb(0%,0%,0%)" x1="137.9102" x2="138.3647" y1="42.4705" y2="41.6832" /><line stroke="rgb(0%,0%,0%)" x1="138.3647" x2="139.8547" y1="41.6832" y2="40.0284" /><line stroke="rgb(0%,0%,0%)" x1="139.8547" x2="140.463" y1="40.0284" y2="39.3528" /><line stroke="rgb(0%,0%,0%)" x1="140.463" x2="142.2645" y1="39.3528" y2="38.044" /><line stroke="rgb(0%,0%,0%)" x1="142.2645" x2="143.0" y1="38.044" y2="37.5096" /><line stroke="rgb(0%,0%,0%)" x1="143.0" x2="145.0343" y1="37.5096" y2="36.6039" /><line stroke="rgb(0%,0%,0%)" x1="145.0343" x2="145.8647" y1="36.6039" y2="36.2342" /><line stroke="rgb(0%,0%,0%)" x1="145.8647" x2="148.0429" y1="36.2342" y2="35.7712" /><line stroke="rgb(0%,0%,0%)" x1="148.0429" x2="148.9321" y1="35.7712" y2="35.5822" /><line stroke="rgb(0%,0%,0%)" x1="148.9321" x2="151.1588" y1="35.5822" y2="35.5822" /><line stroke="rgb(0%,0%,0%)" x1="151.1588" x2="152.0679" y1="35.5822" y2="35.5822" /><line stroke="rgb(0%,0%,0%)" x1="152.0679" x2="154.246" y1="35.5822" y2="36.0451" /><line stroke="rgb(0%,0%,0%)" x1="154.246" x2="155.1353" y1="36.0451" y2="36.2342" /><line stroke="rgb(0%,0%,0%)" x1="155.1353" x2="157.1695" y1="36.2342" y2="37.1399" /><line stroke="rgb(0%,0%,0%)" x1="157.1695" x2="158.0" y1="37.1399" y2="37.5096" /><line stroke="rgb(0%,0%,0%)" x1="158.0" x2="159.8015" y1="37.5096" y2="38.8185" /><line stroke="rgb(0%,0%,0%)" x1="159.8015" x2="160.537" y1="38.8185" y2="39.3528" /><line stroke="rgb(0%,0%,0%)" x1="160.537" x2="162.027" y1="39.3528" y2="41.0076" /><line stroke="rgb(0%,0%,0%)" x1="162.027" x2="162.6353" y1="41.0076" y2="41.6832" /><line stroke="rgb(0%,0%,0%)" x1="162.6353" x2="163.7486" y1="41.6832" y2="43.6117" /><line stroke="rgb(0%,0%,0%)" x1="163.7486" x2="164.2032" y1="43.6117" y2="44.3989" /><line stroke="rgb(0%,0%,0%)" x1="164.2032" x2="164.8913" y1="44.3989" y2="46.5167" /><line stroke="rgb(0%,0%,0%)" x1="164.8913" x2="165.1722" y1="46.5167" y2="47.3813" /><line stroke="rgb(0%,0%,0%)" x1="65.1722" x2="65.405" y1="47.3813" y2="49.5959" /><line stroke="rgb(0%,0%,0%)" x1="65.405" x2="65.5" y1="49.5959" y2="50.5" /><line stroke="rgb(0%,0%,0%)" x1="65.5" x2="65.2672" y1="50.5" y2="52.7146" /><line stroke="rgb(0%,0%,0%)" x1="65.2672" x2="65.1722" y1="52.7146" y2="53.6187" /><line stroke="rgb(0%,0%,0%)" x1="65.1722" x2="64.4841" y1="53.6187" y2="55.7365" /><line stroke="rgb(0%,0%,0%)" x1="64.4841" x2="64.2032" y1="55.7365" y2="56.6011" /><line stroke="rgb(0%,0%,0%)" x1="64.2032" x2="63.0898" y1="56.6011" y2="58.5295" /><line stroke="rgb(0%,0%,0%)" x1="63.0898" x2="62.6352" y1="58.5295" y2="59.3168" /><line stroke="rgb(0%,0%,0%)" x1="62.6352" x2="61.1453" y1="59.3168" y2="60.9716" /><line stroke="rgb(0%,0%,0%)" x1="61.1453" x2="60.537" y1="60.9716" y2="61.6472" /><line stroke="rgb(0%,0%,0%)" x1="60.537" x2="58.7355" y1="61.6472" y2="62.956" /><line stroke="rgb(0%,0%,0%)" x1="58.7355" x2="58.0" y1="62.956" y2="63.4904" /><line stroke="rgb(0%,0%,0%)" x1="58.0" x2="55.9657" y1="63.4904" y2="64.3961" /><line stroke="rgb(0%,0%,0%)" x1="55.9657" x2="55.1353" y1="64.3961" y2="64.7658" /><line stroke="rgb(0%,0%,0%)" x1="55.1353" x2="52.9571" y1="64.7658" y2="65.2288" /><line stroke="rgb(0%,0%,0%)" x1="52.9571" x2="52.0679" y1="65.2288" y2="65.4178" /><line stroke="rgb(0%,0%,0%)" x1="52.0679" x2="49.8411" y1="65.4178" y2="65.4178" /><line stroke="rgb(0%,0%,0%)" x1="49.8411" x2="48.9321" y1="65.4178" y2="65.4178" /><line stroke="rgb(0%,0%,0%)" x1="48.9321" x2="46.754" y1="65.4178" y2="64.9549" /><line stroke="rgb(0%,0%,0%)" x1="46.754" x2="45.8647" y1="64.9549" y2="64.7658" /><line stroke="rgb(0%,0%,0%)" x1="45.8647" x2="43.8305" y1="64.7658" y2="63.8601" /><line stroke="rgb(0%,0%,0%)" x1="43.8305" x2="43.0" y1="63.8601" y2="63.4904" /><line stroke="rgb(0%,0%,0%)" x1="43.0" x2="41.1985" y1="63.4904" y2="62.1815" /><line stroke="rgb(0%,0%,0%)" x1="41.1985" x2="40.463" y1="62.1815" y2="61.6472" /><line stroke="rgb(0%,0%,0%)" x1="40.463" x2="38.973" y1="61.6472" y2="59.9924" /><line stroke="rgb(0%,0%,0%)" x1="38.973" x2="38.3647" y1="59.9924" y2="59.3168" /><line stroke="rgb(0%,0%,0%)" x1="38.3647" x2="37.2513" y1="59.3168" y2="57.3883" /><line stroke="rgb(0%,0%,0%)" x1="37.2513" x2="36.7968" y1="57.3883" y2="56.6011" /><line stroke="rgb(0%,0%,0%)" x1="36.7968" x2="36.1087" y1="56.6011" y2="54.4833" /><line stroke="rgb(0%,0%,0%)" x1="36.1087" x2="35.8278" y1="54.4833" y2="53.6187" /><line stroke="rgb(0%,0%,0%)" x1="35.8278" x2="35.595" y1="53.6187" y2="51.4041" /><line stroke="rgb(0%,0%,0%)" x1="35.595" x2="35.5" y1="51.4041" y2="50.5" /><line stroke="rgb(0%,0%,0%)" x1="35.5" x2="35.7328" y1="50.5" y2="48.2854" /><line stroke="rgb(0%,0%,0%)" x1="35.7328" x2="35.8278" y1="48.2854" y2="47.3813" /><line stroke="rgb(0%,0%,0%)" x1="35.8278" x2="36.5159" y1="47.3813" y2="45.2635" /><line stroke="rgb(0%,0%,0%)" x1="36.5159" x2="36.7968" y1="45.2635" y2="44.3989" /><line stroke="rgb(0%,0%,0%)" x1="36.7968" x2="37.9102" y1="44.3989" y2="42.4705" /><line stroke="rgb(0%,0%,0%)" x1="37.9102" x2="38.3647" y1="42.4705" y2="41.6832" /><line stroke="rgb(0%,0%,0%)" x1="38.3647" x2="39.8547" y1="41.6832" y2="40.0284" /><line stroke="rgb(0%,0%,0%)" x1="39.8547" x2="40.463" y1="40.0284" y2="39.3528" /><line stroke="rgb(0%,0%,0%)" x1="40.463" x2="42.2645" y1="39.3528" y2="38.044" /><line stroke="rgb(0%,0%,0%)" x1="42.2645" x2="43.0" y1="38.044" y2="37.5096" /><line stroke="rgb(0%,0%,0%)" x1="43.0" x2="45.0343" y1="37.5096" y2="36.6039" /><line stroke="rgb(0%,0%,0%)" x1="45.0343" x2="45.8647" y1="36.6039" y2="36.2342" /><line stroke="rgb(0%,0%,0%)" x1="45.8647" x2="48.0429" y1="36.2342" y2="35.7712" /><line stroke="rgb(0%,0%,0%)" x1="48.0429" x2="48.9321" y1="35.7712" y2="35.5822" /><line stroke="rgb(0%,0%,0%)" x1="48.9321" x2="51.1588" y1="35.5822" y2="35.5822" /><line stroke="rgb(0%,0%,0%)" x1="51.1588" x2="52.0679" y1="35.5822" y2="35.5822" /><line stroke="rgb(0%,0%,0%)" x1="52.0679" x2="54.246" y1="35.5822" y2="36.0451" /><line stroke="rgb(0%,0%,0%)" x1="54.246" x2="55.1353" y1="36.0451" y2="36.2342" /><line stroke="rgb(0%,0%,0%)" x1="55.1353" x2="57.1695" y1="36.2342" y2="37.1399" /><line stroke="rgb(0%,0%,0%)" x1="57.1695" x2="58.0" y1="37.1399" y2="37.5096" /><line stroke="rgb(0%,0%,0%)" x1="58.0" x2="59.8015" y1="37.5096" y2="38.8185" /><line stroke="rgb(0%,0%,0%)" x1="59.8015" x2="60.537" y1="38.8185" y2="39.3528" /><line stroke="rgb(0%,0%,0%)" x1="60.537" x2="62.027" y1="39.3528" y2="41.0076" /><line stroke="rgb(0%,0%,0%)" x1="62.027" x2="62.6352" y1="41.0076" y2="41.6832" /><line stroke="rgb(0%,0%,0%)" x1="62.6352" x2="63.7486" y1="41.6832" y2="43.6117" /><line stroke="rgb(0%,0%,0%)" x1="63.7486" x2="64.2032" y1="43.6117" y2="44.3989" /><line stroke="rgb(0%,0%,0%)" x1="64.2032" x2="64.8913" y1="44.3989" y2="46.5167" /><line stroke="rgb(0%,0%,0%)" x1="64.8913" x2="65.1722" y1="46.5167" y2="47.3813" /></svg>