<?xml version="1.0" encoding="utf-8" ?>
<svg baseProfile="tiny" height="100%" version="1.2" width="100%" xmlns="http://www.w3.org/2000/svg" xmlns:ev="http://www.w3.org/2001/xml-events" xmlns:xlink="http://www.w3.org/1999/xlink"><defs /><line stroke="rgb(0%,0%,0%)" x1="351.9" x2="351.9" y1="0.5" y2="13.8926" /><line stroke="rgb(0%,0%,0%)" x1="351.9" x2="351.9" y1="13.8926" y2="100.5" /><line stroke="rgb(0%,0%,0%)" x1="328.6415" x2="346.9767" y1="100.5" y2="100.5" /><line stroke="rgb(0%,0%,0%)" x1="346.9767" x2="347.6162" y1="100.5" y2="100.5" /><line stroke="rgb(0%,0%,0%)" x1="347.6162" x2="348.3467" y1="100.5" y2="100.5" /><line stroke="rgb(0%,0%,0%)" x1="348.3467" x2="349.1575" y1="100.5" y2="100.5" /><line stroke="rgb(0%,0%,0%)" x1="349.1575" x2="350.0332" y1="100.5" y2="100.5" /><line stroke="rgb(0%,0%,0%)" x1="350.0332" x2="350.9548" y1="100.5" y2="100.5" /><line stroke="rgb(0%,0%,0%)" x1="350.9548" x2="351.9" y1="100.5" y2="100.5" /><line stroke="rgb(0%,0%,0%)" x1="328.6415" x2="31.6893" y1="100.5" y2="100.5" /><line stroke="rgb(0%,0%,0%)" x1="31.6893" x2="0.5" y1="100.5" y2="100.5" /><line stroke="rgb(0%,0%,0%)" x1="0.5" x2="31.6893" y1="0.5" y2="0.5" /><line stroke="rgb(0%,0%,0%)" x1="31.6893" x2="328.6415" y1="0.5" y2="0.5" /><line stroke="rgb(0%,0%,0%)" x1="328.6415" x2="346.9767" y1="0.5" y2="0.5" /><line stroke="rgb(0%,0%,0%)" x1="346.9767" x2="347.6162" y1="0.5" y2="0.5" /><line stroke="rgb(0%,0%,0%)" x1="347.6162" x2="348.3467" y1="0.5" y2="0.5" /><line stroke="rgb(0%,0%,0%)" x1="348.3467" x2="349.1575" y1="0.5" y2="0.5" /><line stroke="rgb(0%,0%,0%)" x1="349.1575" x2="350.0332" y1="0.5" y2="0.5" /><line stroke="rgb(0%,0%,0%)" x1="350.0332" x2="350.9548" y1="0.5" y2="0.5" /><line stroke="rgb(0%,0%,0%)" x1="350.9548" x2="351.9" y1="0.5" y2="0.5" /><line stroke="rgb(0%,0%,0%)" x1="0.5" x2="0.5" y1="0.5" y2="85.0055" /><line stroke="rgb(0%,0%,0%)" x1="0.5" x2="0.5" y1="85.0055" y2="100.5" /><line stroke="rgb(0%,0%,0%)" x1="165.1722" x2="165.3984" y1="47.3813" y2="49.5336" /><line stroke="rgb(0%,0%,0%)" x1="165.3984" x2="165.5" y1="49.5336" y2="50.5" /><line stroke="rgb(0%,0%,0%)" x1="165.5" x2="165.2738" y1="50.5" y2="52.6522" /><line stroke="rgb(0%,0%,0%)" x1="165.2738" x2="165.1722" y1="52.6522" y2="53.6187" /><line stroke="rgb(0%,0%,0%)" x1="165.1722" x2="164.5035" y1="53.6187" y2="55.6768" /><line stroke="rgb(0%,0%,0%)" x1="164.5035" x2="164.2032" y1="55.6768" y2="56.6011" /><line stroke="rgb(0%,0%,0%)" x1="164.2032" x2="163.1211" y1="56.6011" y2="58.4752" /><line stroke="rgb(0%,0%,0%)" x1="163.1211" x2="162.6353" y1="58.4752" y2="59.3168" /><line stroke="rgb(0%,0%,0%)" x1="162.6353" x2="161.1872" y1="59.3168" y2="60.925" /><line stroke="rgb(0%,0%,0%)" x1="161.1872" x2="160.537" y1="60.925" y2="61.6472" /><line stroke="rgb(0%,0%,0%)" x1="160.537" x2="158.7862" y1="61.6472" y2="62.9192" /><line stroke="rgb(0%,0%,0%)" x1="158.7862" x2="158.0" y1="62.9192" y2="63.4904" /><line stroke="rgb(0%,0%,0%)" x1="158.0" x2="156.023" y1="63.4904" y2="64.3706" /><line stroke="rgb(0%,0%,0%)" x1="156.023" x2="155.1353" y1="64.3706" y2="64.7658" /><line stroke="rgb(0%,0%,0%)" x1="155.1353" x2="153.0185" y1="64.7658" y2="65.2158" /><line stroke="rgb(0%,0%,0%)" x1="153.0185" x2="152.0679" y1="65.2158" y2="65.4178" /><line stroke="rgb(0%,0%,0%)" x1="152.0679" x2="149.9038" y1="65.4178" y2="65.4178" /><line stroke="rgb(0%,0%,0%)" x1="149.9038" x2="148.9321" y1="65.4178" y2="65.4178" /><line stroke="rgb(0%,0%,0%)" x1="148.9321" x2="146.8153" y1="65.4178" y2="64.9679" /><line stroke="rgb(0%,0%,0%)" x1="146.8153" x2="145.8647" y1="64.9679" y2="64.7658" /><line stroke="rgb(0%,0%,0%)" x1="145.8647" x2="143.8878" y1="64.7658" y2="63.8856" /><line stroke="rgb(0%,0%,0%)" x1="143.8878" x2="143.0" y1="63.8856" y2="63.4904" /><line stroke="rgb(0%,0%,0%)" x1="143.0" x2="141.2492" y1="63.4904" y2="62.2184" /><line stroke="rgb(0%,0%,0%)" x1="141.2492" x2="140.463" y1="62.2184" y2="61.6472" /><line stroke="rgb(0%,0%,0%)" x1="140.463" x2="139.015" y1="61.6472" y2="60.0389" /><line stroke="rgb(0%,0%,0%)" x1="139.015" x2="138.3647" y1="60.0389" y2="59.3168" /><line stroke="rgb(0%,0%,0%)" x1="138.3647" x2="137.2827" y1="59.3168" y2="57.4426" /><line stroke="rgb(0%,0%,0%)" x1="137.2827" x2="136.7968" y1="57.4426" y2="56.6011" /><line stroke="rgb(0%,0%,0%)" x1="136.7968" x2="136.1281" y1="56.6011" y2="54.5429" /><line stroke="rgb(0%,0%,0%)" x1="136.1281" x2="135.8278" y1="54.5429" y2="53.6187" /><line stroke="rgb(0%,0%,0%)" x1="135.8278" x2="135.6016" y1="53.6187" y2="51.4664" /><line stroke="rgb(0%,0%,0%)" x1="135.6016" x2="135.5" y1="51.4664" y2="50.5" /><line stroke="rgb(0%,0%,0%)" x1="135.5" x2="135.7262" y1="50.5" y2="48.3478" /><line stroke="rgb(0%,0%,0%)" x1="135.7262" x2="135.8278" y1="48.3478" y2="47.3813" /><line stroke="rgb(0%,0%,0%)" x1="135.8278" x2="136.4965" y1="47.3813" y2="45.3232" /><line stroke="rgb(0%,0%,0%)" x1="136.4965" x2="136.7968" y1="45.3232" y2="44.3989" /><line stroke="rgb(0%,0%,0%)" x1="136.7968" x2="137.8789" y1="44.3989" y2="42.5248" /><line stroke="rgb(0%,0%,0%)" x1="137.8789" x2="138.3647" y1="42.5248" y2="41.6832" /><line stroke="rgb(0%,0%,0%)" x1="138.3647" x2="139.8128" y1="41.6832" y2="40.075" /><line stroke="rgb(0%,0%,0%)" x1="139.8128" x2="140.463" y1="40.075" y2="39.3528" /><line stroke="rgb(0%,0%,0%)" x1="140.463" x2="142.2138" y1="39.3528" y2="38.0808" /><line stroke="rgb(0%,0%,0%)" x1="142.2138" x2="143.0" y1="38.0808" y2="37.5096" /><line stroke="rgb(0%,0%,0%)" x1="143.0" x2="144.977" y1="37.5096" y2="36.6294" /><line stroke="rgb(0%,0%,0%)" x1="144.977" x2="145.8647" y1="36.6294" y2="36.2342" /><line stroke="rgb(0%,0%,0%)" x1="145.8647" x2="147.9815" y1="36.2342" y2="35.7842" /><line stroke="rgb(0%,0%,0%)" x1="147.9815" x2="148.9321" y1="35.7842" y2="35.5822" /><line stroke="rgb(0%,0%,0%)" x1="148.9321" x2="151.0962" y1="35.5822" y2="35.5822" /><line stroke="rgb(0%,0%,0%)" x1="151.0962" x2="152.0679" y1="35.5822" y2="35.5822" /><line stroke="rgb(0%,0%,0%)" x1="152.0679" x2="154.1847" y1="35.5822" y2="36.0321" /><line stroke="rgb(0%,0%,0%)" x1="154.1847" x2="155.1353" y1="36.0321" y2="36.2342" /><line stroke="rgb(0%,0%,0%)" x1="155.1353" x2="157.1122" y1="36.2342" y2="37.1144" /><line stroke="rgb(0%,0%,0%)" x1="157.1122" x2="158.0" y1="37.1144" y2="37.5096" /><line stroke="rgb(0%,0%,0%)" x1="158.0" x2="159.7508" y1="37.5096" y2="38.7816" /><line stroke="rgb(0%,0%,0%)" x1="159.7508" x2="160.537" y1="38.7816" y2="39.3528" /><line stroke="rgb(0%,0%,0%)" x1="160.537" x2="161.985" y1="39.3528" y2="40.9611" /><line stroke="rgb(0%,0%,0%)" x1="161.985" x2="162.6353" y1="40.9611" y2="41.6832" /><line stroke="rgb(0%,0%,0%)" x1="162.6353" x2="163.7173" y1="41.6832" y2="43.5574" /><line stroke="rgb(0%,0%,0%)" x1="163.7173" x2="164.2032" y1="43.5574" y2="44.3989" /><line stroke="rgb(0%,0%,0%)" x1="164.2032" x2="164.8719" y1="44.3989" y2="46.4571" /><line stroke="rgb(0%,0%,0%)" x1="164.8719" x2="165.1722" y1="46.4571" y2="47.3813" /><line stroke="rgb(0%,0%,0%)" x1="65.1722" x2="65.3984" y1="47.3813" y2="49.5336" /><line stroke="rgb(0%,0%,0%)" x1="65.3984" x2="65.5" y1="49.5336" y2="50.5" /><line stroke="rgb(0%,0%,0%)" x1="65.5" x2="65.2738" y1="50.5" y2="52.6522" /><line stroke="rgb(0%,0%,0%)" x1="65.2738" x2="65.1722" y1="52.6522" y2="53.6187" /><line stroke="rgb(0%,0%,0%)" x1="65.1722" x2="64.5035" y1="53.6187" y2="55.6768" /><line stroke="rgb(0%,0%,0%)" x1="64.5035" x2="64.2032" y1="55.6768" y2="56.6011" /><line stroke="rgb(0%,0%,0%)" x1="64.2032" x2="63.1211" y1="56.6011" y2="58.4752" /><line stroke="rgb(0%,0%,0%)" x1="63.1211" x2="62.6352" y1="58.4752" y2="59.3168" /><line stroke="rgb(0%,0%,0%)" x1="62.6352" x2="61.1872" y1="59.3168" y2="60.925" /><line stroke="rgb(0%,0%,0%)" x1="61.1872" x2="60.537" y1="60.925" y2="61.6472" /><line stroke="rgb(0%,0%,0%)" x1="60.537" x2="58.7862" y1="61.6472" y2="62.9192" /><line stroke="rgb(0%,0%,0%)" x1="58.7862" x2="58.0" y1="62.9192" y2="63.4904" /><line stroke="rgb(0%,0%,0%)" x1="58.0" x2="56.023" y1="63.4904" y2="64.3706" /><line stroke="rgb(0%,0%,0%)" x1="56.023" x2="55.1353" y1="64.3706" y2="64.7658" /><line stroke="rgb(0%,0%,0%)" x1="55.1353" x2="53.0185" y1="64.7658" y2="65.2158" /><line stroke="rgb(0%,0%,0%)" x1="53.0185" x2="52.0679" y1="65.2158" y2="65.4178" /><line stroke="rgb(0%,0%,0%)" x1="52.0679" x2="49.9038" y1="65.4178" y2="65.4178" /><line stroke="rgb(0%,0%,0%)" x1="49.9038" x2="48.9321" y1="65.4178" y2="65.4178" /><line stroke="rgb(0%,0%,0%)" x1="48.9321" x2="46.8153" y1="65.4178" y2="64.9679" /><line stroke="rgb(0%,0%,0%)" x1="46.8153" x2="45.8647" y1="64.9679" y2="64.7658" /><line stroke="rgb(0%,0%,0%)" x1="45.8647" x2="43.8878" y1="64.7658" y2="63.8856" /><line stroke="rgb(0%,0%,0%)" x1="43.8878" x2="43.0" y1="63.8856" y2="63.4904" /><line stroke="rgb(0%,0%,0%)" x1="43.0" x2="41.2492" y1="63.4904" y2="62.2184" /><line stroke="rgb(0%,0%,0%)" x1="41.2492" x2="40.463" y1="62.2184" y2="61.6472" /><line stroke="rgb(0%,0%,0%)" x1="40.463" x2="39.015" y1="61.6472" y2="60.0389" /><line stroke="rgb(0%,0%,0%)" x1="39.015" x2="38.3647" y1="60.0389" y2="59.3168" /><line stroke="rgb(0%,0%,0%)" x1="38.3647" x2="37.2827" y1="59.3168" y2="57.4426" /><line stroke="rgb(0%,0%,0%)" x1="37.2827" x2="36.7968" y1="57.4426" y2="56.6011" /><line stroke="rgb(0%,0%,0%)" x1="36.7968" x2="36.1281" y1="56.6011" y2="54.5429" /><line stroke="rgb(0%,0%,0%)" x1="36.1281" x2="35.8278" y1="54.5429" y2="53.6187" /><line stroke="rgb(0%,0%,0%)" x1="35.8278" x2="35.6016" y1="53.6187" y2="51.4664" /><line stroke="rgb(0%,0%,0%)" x1="35.6016" x2="35.5" y1="51.4664" y2="50.5" /><line stroke="rgb(0%,0%,0%)" x1="35.5" x2="35.7262" y1="50.5" y2="48.3478" /><line stroke="rgb(0%,0%,0%)" x1="35.7262" x2="35.8278" y1="48.3478" y2="47.3813" /><line stroke="rgb(0%,0%,0%)" x1="35.8278" x2="36.4965" y1="47.3813" y2="45.3232" /><line stroke="rgb(0%,0%,0%)" x1="36.4965" x2="36.7968" y1="45.3232" y2="44.3989" /><line stroke="rgb(0%,0%,0%)" x1="36.7968" x2="37.8789" y1="44.3989" y2="42.5248" /><line stroke="rgb(0%,0%,0%)" x1="37.8789" x2="38.3647" y1="42.5248" y2="41.6832" /><line stroke="rgb(0%,0%,0%)" x1="38.3647" x2="39.8128" y1="41.6832" y2="40.075" /><line stroke="rgb(0%,0%,0%)" x1="39.8128" x2="40.463" y1="40.075" y2="39.3528" /><line stroke="rgb(0%,0%,0%)" x1="40.463" x2="42.2138" y1="39.3528" y2="38.0808" /><line stroke="rgb(0%,0%,0%)" x1="42.2138" x2="43.0" y1="38.0808" y2="37.5096" /><line stroke="rgb(0%,0%,0%)" x1="43.0" x2="44.977" y1="37.5096" y2="36.6294" /><line stroke="rgb(0%,0%,0%)" x1="44.977" x2="45.8647" y1="36.6294" y2="36.2342" /><line stroke="rgb(0%,0%,0%)" x1="45.8647" x2="47.9815" y1="36.2342" y2="35.7842" /><line stroke="rgb(0%,0%,0%)" x1="47.9815" x2="48.9321" y1="35.7842" y2="35.5822" /><line stroke="rgb(0%,0%,0%)" x1="48.9321" x2="51.0961" y1="35.5822" y2="35.5822" /><line stroke="rgb(0%,0%,0%)" x1="51.0961" x2="52.0679" y1="35.5822" y2="35.5822" /><line stroke="rgb(0%,0%,0%)" x1="52.0679" x2="54.1847" y1="35.5822" y2="36.0321" /><line stroke="rgb(0%,0%,0%)" x1="54.1847" x2="55.1353" y1="36.0321" y2="36.2342" /><line stroke="rgb(0%,0%,0%)" x1="55.1353" x2="57.1122" y1="36.2342" y2="37.1144" /><line stroke="rgb(0%,0%,0%)" x1="57.1122" x2="58.0" y1="37.1144" y2="37.5096" /><line stroke="rgb(0%,0%,0%)" x1="58.0" x2="59.7508" y1="37.5096" y2="38.7816" /><line stroke="rgb(0%,0%,0%)" x1="59.7508" x2="60.537" y1="38.7816" y2="39.3528" /><line stroke="rgb(0%,0%,0%)" x1="60.537" x2="61.985" y1="39.3528" y2="40.9611" /><line stroke="rgb(0%,0%,0%)" x1="61.985" x2="62.6352" y1="40.9611" y2="41.6832" /><line stroke="rgb(0%,0%,0%)" x1="62.6352" x2="63.7173" y1="41.6832" y2="43.5574" /><line stroke="rgb(0%,0%,0%)" x1="63.7173" x2="64.2032" y1="43.5574" y2="44.3989" /><line stroke="rgb(0%,0%,0%)" x1="64.2032" x2="64.8719" y1="44.3989" y2="46.4571" /><line stroke="rgb(0%,0%,0%)" x1="64.8719" x2="65.1722" y1="46.4571" y2="47.3813" /></svg>