<?xml version="1.0" encoding="utf-8" ?>
<svg baseProfile="tiny" height="100%" version="1.2" width="100%" xmlns="http://www.w3.org/2000/svg" xmlns:ev="http://www.w3.org/2001/xml-events" xmlns:xlink="http://www.w3.org/1999/xlink"><defs /><line stroke="rgb(0%,0%,0%)" x1="351.9" x2="351.9" y1="0.5" y2="14.7567" /><line stroke="rgb(0%,0%,0%)" x1="351.9" x2="351.9" y1="14.7567" y2="100.5" /><line stroke="rgb(0%,0%,0%)" x1="327.1409" x2="346.6591" y1="100.5" y2="100.5" /><line stroke="rgb(0%,0%,0%)" x1="346.6591" x2="347.3398" y1="100.5" y2="100.5" /><line stroke="rgb(0%,0%,0%)" x1="347.3398" x2="348.1175" y1="100.5" y2="100.5" /><line stroke="rgb(0%,0%,0%)" x1="348.1175" x2="348.9806" y1="100.5" y2="100.5" /><line stroke="rgb(0%,0%,0%)" x1="348.9806" x2="349.9128" y1="100.5" y2="100.5" /><line stroke="rgb(0%,0%,0%)" x1="349.9128" x2="350.8938" y1="100.5" y2="100.5" /><line stroke="rgb(0%,0%,0%)" x1="350.8938" x2="351.9" y1="100.5" y2="100.5" /><line stroke="rgb(0%,0%,0%)" x1="327.1409" x2="33.7015" y1="100.5" y2="100.5" /><line stroke="rgb(0%,0%,0%)" x1="33.7015" x2="0.5" y1="100.5" y2="100.5" /><line stroke="rgb(0%,0%,0%)" x1="0.5" x2="33.7015" y1="0.5" y2="0.5" /><line stroke="rgb(0%,0%,0%)" x1="33.7015" x2="327.1409" y1="0.5" y2="0.5" /><line stroke="rgb(0%,0%,0%)" x1="327.1409" x2="346.6591" y1="0.5" y2="0.5" /><line stroke="rgb(0%,0%,0%)" x1="346.6591" x2="347.3398" y1="0.5" y2="0.5" /><line stroke="rgb(0%,0%,0%)" x1="347.3398" x2="348.1175" y1="0.5" y2="0.5" /><line stroke="rgb(0%,0%,0%)" x1="348.1175" x2="348.9806" y1="0.5" y2="0.5" /><line stroke="rgb(0%,0%,0%)" x1="348.9806" x2="349.9128" y1="0.5" y2="0.5" /><line stroke="rgb(0%,0%,0%)" x1="349.9128" x2="350.8938" y1="0.5" y2="0.5" /><line stroke="rgb(0%,0%,0%)" x1="350.8938" x2="351.9" y1="0.5" y2="0.5" /><line stroke="rgb(0%,0%,0%)" x1="0.5" x2="0.5" y1="0.5" y2="84.0058" /><line stroke="rgb(0%,0%,0%)" x1="0.5" x2="0.5" y1="84.0058" y2="100.5" /><line stroke="rgb(0%,0%,0%)" x1="165.1722" x2="165.3919" y1="47.3813" y2="49.4712" /><line stroke="rgb(0%,0%,0%)" x1="165.3919" x2="165.5" y1="49.4712" y2="50.5" /><line stroke="rgb(0%,0%,0%)" x1="165.5" x2="165.2803" y1="50.5" y2="52.5899" /><line stroke="rgb(0%,0%,0%)" x1="165.2803" x2="165.1722" y1="52.5899" y2="53.6187" /><line stroke="rgb(0%,0%,0%)" x1="165.1722" x2="164.5228" y1="53.6187" y2="55.6172" /><line stroke="rgb(0%,0%,0%)" x1="164.5228" x2="164.2032" y1="55.6172" y2="56.6011" /><line stroke="rgb(0%,0%,0%)" x1="164.2032" x2="163.1525" y1="56.6011" y2="58.4209" /><line stroke="rgb(0%,0%,0%)" x1="163.1525" x2="162.6353" y1="58.4209" y2="59.3168" /><line stroke="rgb(0%,0%,0%)" x1="162.6353" x2="161.2291" y1="59.3168" y2="60.8784" /><line stroke="rgb(0%,0%,0%)" x1="161.2291" x2="160.537" y1="60.8784" y2="61.6472" /><line stroke="rgb(0%,0%,0%)" x1="160.537" x2="158.8369" y1="61.6472" y2="62.8823" /><line stroke="rgb(0%,0%,0%)" x1="158.8369" x2="158.0" y1="62.8823" y2="63.4904" /><line stroke="rgb(0%,0%,0%)" x1="158.0" x2="156.0803" y1="63.4904" y2="64.3451" /><line stroke="rgb(0%,0%,0%)" x1="156.0803" x2="155.1353" y1="64.3451" y2="64.7658" /><line stroke="rgb(0%,0%,0%)" x1="155.1353" x2="153.0798" y1="64.7658" y2="65.2027" /><line stroke="rgb(0%,0%,0%)" x1="153.0798" x2="152.0679" y1="65.2027" y2="65.4178" /><line stroke="rgb(0%,0%,0%)" x1="152.0679" x2="149.9665" y1="65.4178" y2="65.4178" /><line stroke="rgb(0%,0%,0%)" x1="149.9665" x2="148.9321" y1="65.4178" y2="65.4178" /><line stroke="rgb(0%,0%,0%)" x1="148.9321" x2="146.8766" y1="65.4178" y2="64.9809" /><line stroke="rgb(0%,0%,0%)" x1="146.8766" x2="145.8647" y1="64.9809" y2="64.7658" /><line stroke="rgb(0%,0%,0%)" x1="145.8647" x2="143.945" y1="64.7658" y2="63.9111" /><line stroke="rgb(0%,0%,0%)" x1="143.945" x2="143.0" y1="63.9111" y2="63.4904" /><line stroke="rgb(0%,0%,0%)" x1="143.0" x2="141.2999" y1="63.4904" y2="62.2552" /><line stroke="rgb(0%,0%,0%)" x1="141.2999" x2="140.463" y1="62.2552" y2="61.6472" /><line stroke="rgb(0%,0%,0%)" x1="140.463" x2="139.0569" y1="61.6472" y2="60.0855" /><line stroke="rgb(0%,0%,0%)" x1="139.0569" x2="138.3647" y1="60.0855" y2="59.3168" /><line stroke="rgb(0%,0%,0%)" x1="138.3647" x2="137.314" y1="59.3168" y2="57.4969" /><line stroke="rgb(0%,0%,0%)" x1="137.314" x2="136.7968" y1="57.4969" y2="56.6011" /><line stroke="rgb(0%,0%,0%)" x1="136.7968" x2="136.1475" y1="56.6011" y2="54.6025" /><line stroke="rgb(0%,0%,0%)" x1="136.1475" x2="135.8278" y1="54.6025" y2="53.6187" /><line stroke="rgb(0%,0%,0%)" x1="135.8278" x2="135.6081" y1="53.6187" y2="51.5288" /><line stroke="rgb(0%,0%,0%)" x1="135.6081" x2="135.5" y1="51.5288" y2="50.5" /><line stroke="rgb(0%,0%,0%)" x1="135.5" x2="135.7197" y1="50.5" y2="48.4101" /><line stroke="rgb(0%,0%,0%)" x1="135.7197" x2="135.8278" y1="48.4101" y2="47.3813" /><line stroke="rgb(0%,0%,0%)" x1="135.8278" x2="136.4771" y1="47.3813" y2="45.3828" /><line stroke="rgb(0%,0%,0%)" x1="136.4771" x2="136.7968" y1="45.3828" y2="44.3989" /><line stroke="rgb(0%,0%,0%)" x1="136.7968" x2="137.8475" y1="44.3989" y2="42.5791" /><line stroke="rgb(0%,0%,0%)" x1="137.8475" x2="138.3647" y1="42.5791" y2="41.6832" /><line stroke="rgb(0%,0%,0%)" x1="138.3647" x2="139.7708" y1="41.6832" y2="40.1216" /><line stroke="rgb(0%,0%,0%)" x1="139.7708" x2="140.463" y1="40.1216" y2="39.3528" /><line stroke="rgb(0%,0%,0%)" x1="140.463" x2="142.1631" y1="39.3528" y2="38.1177" /><line stroke="rgb(0%,0%,0%)" x1="142.1631" x2="143.0" y1="38.1177" y2="37.5096" /><line stroke="rgb(0%,0%,0%)" x1="143.0" x2="144.9197" y1="37.5096" y2="36.6549" /><line stroke="rgb(0%,0%,0%)" x1="144.9197" x2="145.8647" y1="36.6549" y2="36.2342" /><line stroke="rgb(0%,0%,0%)" x1="145.8647" x2="147.9202" y1="36.2342" y2="35.7972" /><line stroke="rgb(0%,0%,0%)" x1="147.9202" x2="148.9321" y1="35.7972" y2="35.5822" /><line stroke="rgb(0%,0%,0%)" x1="148.9321" x2="151.0335" y1="35.5822" y2="35.5822" /><line stroke="rgb(0%,0%,0%)" x1="151.0335" x2="152.0679" y1="35.5822" y2="35.5822" /><line stroke="rgb(0%,0%,0%)" x1="152.0679" x2="154.1234" y1="35.5822" y2="36.0191" /><line stroke="rgb(0%,0%,0%)" x1="154.1234" x2="155.1353" y1="36.0191" y2="36.2342" /><line stroke="rgb(0%,0%,0%)" x1="155.1353" x2="157.055" y1="36.2342" y2="37.0889" /><line stroke="rgb(0%,0%,0%)" x1="157.055" x2="158.0" y1="37.0889" y2="37.5096" /><line stroke="rgb(0%,0%,0%)" x1="158.0" x2="159.7001" y1="37.5096" y2="38.7448" /><line stroke="rgb(0%,0%,0%)" x1="159.7001" x2="160.537" y1="38.7448" y2="39.3528" /><line stroke="rgb(0%,0%,0%)" x1="160.537" x2="161.9431" y1="39.3528" y2="40.9145" /><line stroke="rgb(0%,0%,0%)" x1="161.9431" x2="162.6353" y1="40.9145" y2="41.6832" /><line stroke="rgb(0%,0%,0%)" x1="162.6353" x2="163.6859" y1="41.6832" y2="43.5031" /><line stroke="rgb(0%,0%,0%)" x1="163.6859" x2="164.2032" y1="43.5031" y2="44.3989" /><line stroke="rgb(0%,0%,0%)" x1="164.2032" x2="164.8525" y1="44.3989" y2="46.3975" /><line stroke="rgb(0%,0%,0%)" x1="164.8525" x2="165.1722" y1="46.3975" y2="47.3813" /><line stroke="rgb(0%,0%,0%)" x1="65.1722" x2="65.3919" y1="47.3813" y2="49.4712" /><line stroke="rgb(0%,0%,0%)" x1="65.3919" x2="65.5" y1="49.4712" y2="50.5" /><line stroke="rgb(0%,0%,0%)" x1="65.5" x2="65.2803" y1="50.5" y2="52.5899" /><line stroke="rgb(0%,0%,0%)" x1="65.2803" x2="65.1722" y1="52.5899" y2="53.6187" /><line stroke="rgb(0%,0%,0%)" x1="65.1722" x2="64.5228" y1="53.6187" y2="55.6172" /><line stroke="rgb(0%,0%,0%)" x1="64.5228" x2="64.2032" y1="55.6172" y2="56.6011" /><line stroke="rgb(0%,0%,0%)" x1="64.2032" x2="63.1525" y1="56.6011" y2="58.4209" /><line stroke="rgb(0%,0%,0%)" x1="63.1525" x2="62.6352" y1="58.4209" y2="59.3168" /><line stroke="rgb(0%,0%,0%)" x1="62.6352" x2="61.2292" y1="59.3168" y2="60.8784" /><line stroke="rgb(0%,0%,0%)" x1="61.2292" x2="60.537" y1="60.8784" y2="61.6472" /><line stroke="rgb(0%,0%,0%)" x1="60.537" x2="58.8369" y1="61.6472" y2="62.8823" /><line stroke="rgb(0%,0%,0%)" x1="58.8369" x2="58.0" y1="62.8823" y2="63.4904" /><line stroke="rgb(0%,0%,0%)" x1="58.0" x2="56.0803" y1="63.4904" y2="64.3451" /><line stroke="rgb(0%,0%,0%)" x1="56.0803" x2="55.1353" y1="64.3451" y2="64.7658" /><line stroke="rgb(0%,0%,0%)" x1="55.1353" x2="53.0798" y1="64.7658" y2="65.2027" /><line stroke="rgb(0%,0%,0%)" x1="53.0798" x2="52.0679" y1="65.2027" y2="65.4178" /><line stroke="rgb(0%,0%,0%)" x1="52.0679" x2="49.9665" y1="65.4178" y2="65.4178" /><line stroke="rgb(0%,0%,0%)" x1="49.9665" x2="48.9321" y1="65.4178" y2="65.4178" /><line stroke="rgb(0%,0%,0%)" x1="48.9321" x2="46.8766" y1="65.4178" y2="64.9809" /><line stroke="rgb(0%,0%,0%)" x1="46.8766" x2="45.8647" y1="64.9809" y2="64.7658" /><line stroke="rgb(0%,0%,0%)" x1="45.8647" x2="43.945" y1="64.7658" y2="63.9111" /><line stroke="rgb(0%,0%,0%)" x1="43.945" x2="43.0" y1="63.9111" y2="63.4904" /><line stroke="rgb(0%,0%,0%)" x1="43.0" x2="41.2999" y1="63.4904" y2="62.2552" /><line stroke="rgb(0%,0%,0%)" x1="41.2999" x2="40.463" y1="62.2552" y2="61.6472" /><line stroke="rgb(0%,0%,0%)" x1="40.463" x2="39.0569" y1="61.6472" y2="60.0855" /><line stroke="rgb(0%,0%,0%)" x1="39.0569" x2="38.3647" y1="60.0855" y2="59.3168" /><line stroke="rgb(0%,0%,0%)" x1="38.3647" x2="37.314" y1="59.3168" y2="57.4969" /><line stroke="rgb(0%,0%,0%)" x1="37.314" x2="36.7968" y1="57.4969" y2="56.6011" /><line stroke="rgb(0%,0%,0%)" x1="36.7968" x2="36.1474" y1="56.6011" y2="54.6025" /><line stroke="rgb(0%,0%,0%)" x1="36.1474" x2="35.8278" y1="54.6025" y2="53.6187" /><line stroke="rgb(0%,0%,0%)" x1="35.8278" x2="35.6081" y1="53.6187" y2="51.5288" /><line stroke="rgb(0%,0%,0%)" x1="35.6081" x2="35.5" y1="51.5288" y2="50.5" /><line stroke="rgb(0%,0%,0%)" x1="35.5" x2="35.7196" y1="50.5" y2="48.4101" /><line stroke="rgb(0%,0%,0%)" x1="35.7196" x2="35.8278" y1="48.4101" y2="47.3813" /><line stroke="rgb(0%,0%,0%)" x1="35.8278" x2="36.4771" y1="47.3813" y2="45.3828" /><line stroke="rgb(0%,0%,0%)" x1="36.4771" x2="36.7968" y1="45.3828" y2="44.3989" /><line stroke="rgb(0%,0%,0%)" x1="36.7968" x2="37.8475" y1="44.3989" y2="42.5791" /><line stroke="rgb(0%,0%,0%)" x1="37.8475" x2="38.3647" y1="42.5791" y2="41.6832" /><line stroke="rgb(0%,0%,0%)" x1="38.3647" x2="39.7708" y1="41.6832" y2="40.1216" /><line stroke="rgb(0%,0%,0%)" x1="39.7708" x2="40.463" y1="40.1216" y2="39.3528" /><line stroke="rgb(0%,0%,0%)" x1="40.463" x2="42.1631" y1="39.3528" y2="38.1177" /><line stroke="rgb(0%,0%,0%)" x1="42.1631" x2="43.0" y1="38.1177" y2="37.5096" /><line stroke="rgb(0%,0%,0%)" x1="43.0" x2="44.9197" y1="37.5096" y2="36.6549" /><line stroke="rgb(0%,0%,0%)" x1="44.9197" x2="45.8647" y1="36.6549" y2="36.2342" /><line stroke="rgb(0%,0%,0%)" x1="45.8647" x2="47.9202" y1="36.2342" y2="35.7972" /><line stroke="rgb(0%,0%,0%)" x1="47.9202" x2="48.9321" y1="35.7972" y2="35.5822" /><line stroke="rgb(0%,0%,0%)" x1="48.9321" x2="51.0334" y1="35.5822" y2="35.5822" /><line stroke="rgb(0%,0%,0%)" x1="51.0334" x2="52.0679" y1="35.5822" y2="35.5822" /><line stroke="rgb(0%,0%,0%)" x1="52.0679" x2="54.1234" y1="35.5822" y2="36.0191" /><line stroke="rgb(0%,0%,0%)" x1="54.1234" x2="55.1353" y1="36.0191" y2="36.2342" /><line stroke="rgb(0%,0%,0%)" x1="55.1353" x2="57.055" y1="36.2342" y2="37.0889" /><line stroke="rgb(0%,0%,0%)" x1="57.055" x2="58.0" y1="37.0889" y2="37.5096" /><line stroke="rgb(0%,0%,0%)" x1="58.0" x2="59.7001" y1="37.5096" y2="38.7448" /><line stroke="rgb(0%,0%,0%)" x1="59.7001" x2="60.537" y1="38.7448" y2="39.3528" /><line stroke="rgb(0%,0%,0%)" x1="60.537" x2="61.9431" y1="39.3528" y2="40.9145" /><line stroke="rgb(0%,0%,0%)" x1="61.9431" x2="62.6352" y1="40.9145" y2="41.6832" /><line stroke="rgb(0%,0%,0%)" x1="62.6352" x2="63.6859" y1="41.6832" y2="43.5031" /><line stroke="rgb(0%,0%,0%)" x1="63.6859" x2="64.2032" y1="43.5031" y2="44.3989" /><line stroke="rgb(0%,0%,0%)" x1="64.2032" x2="64.8525" y1="44.3989" y2="46.3975" /><line stroke="rgb(0%,0%,0%)" x1="64.8525" x2="65.1722" y1="46.3975" y2="47.3813" /></svg>