<?xml version="1.0" encoding="utf-8" ?>
<svg baseProfile="tiny" height="100%" version="1.2" width="100%" xmlns="http://www.w3.org/2000/svg" xmlns:ev="http://www.w3.org/2001/xml-events" xmlns:xlink="http://www.w3.org/1999/xlink"><defs /><line stroke="rgb(0%,0%,0%)" x1="351.9" x2="351.9" y1="0.5" y2="15.6207" /><line stroke="rgb(0%,0%,0%)" x1="351.9" x2="351.9" y1="15.6207" y2="100.5" /><line stroke="rgb(0%,0%,0%)" x1="325.6404" x2="346.3415" y1="100.5" y2="100.5" /><line stroke="rgb(0%,0%,0%)" x1="346.3415" x2="347.0635" y1="100.5" y2="100.5" /><line stroke="rgb(0%,0%,0%)" x1="347.0635" x2="347.8882" y1="100.5" y2="100.5" /><line stroke="rgb(0%,0%,0%)" x1="347.8882" x2="348.8036" y1="100.5" y2="100.5" /><line stroke="rgb(0%,0%,0%)" x1="348.8036" x2="349.7924" y1="100.5" y2="100.5" /><line stroke="rgb(0%,0%,0%)" x1="349.7924" x2="350.8328" y1="100.5" y2="100.5" /><line stroke="rgb(0%,0%,0%)" x1="350.8328" x2="351.9" y1="100.5" y2="100.5" /><line stroke="rgb(0%,0%,0%)" x1="325.6404" x2="35.7138" y1="100.5" y2="100.5" /><line stroke="rgb(0%,0%,0%)" x1="35.7138" x2="0.5" y1="100.5" y2="100.5" /><line stroke="rgb(0%,0%,0%)" x1="0.5" x2="35.7138" y1="0.5" y2="0.5" /><line stroke="rgb(0%,0%,0%)" x1="35.7138" x2="325.6404" y1="0.5" y2="0.5" /><line stroke="rgb(0%,0%,0%)" x1="325.6404" x2="346.3415" y1="0.5" y2="0.5" /><line stroke="rgb(0%,0%,0%)" x1="346.3415" x2="347.0635" y1="0.5" y2="0.5" /><line stroke="rgb(0%,0%,0%)" x1="347.0635" x2="347.8882" y1="0.5" y2="0.5" /><line stroke="rgb(0%,0%,0%)" x1="347.8882" x2="348.8036" y1="0.5" y2="0.5" /><line stroke="rgb(0%,0%,0%)" x1="348.8036" x2="349.7924" y1="0.5" y2="0.5" /><line stroke="rgb(0%,0%,0%)" x1="349.7924" x2="350.8328" y1="0.5" y2="0.5" /><line stroke="rgb(0%,0%,0%)" x1="350.8328" x2="351.9" y1="0.5" y2="0.5" /><line stroke="rgb(0%,0%,0%)" x1="0.5" x2="0.5" y1="0.5" y2="83.0062" /><line stroke="rgb(0%,0%,0%)" x1="0.5" x2="0.5" y1="83.0062" y2="100.5" /><line stroke="rgb(0%,0%,0%)" x1="165.1722" x2="165.3853" y1="47.3813" y2="49.4088" /><line stroke="rgb(0%,0%,0%)" x1="165.3853" x2="165.5" y1="49.4088" y2="50.5" /><line stroke="rgb(0%,0%,0%)" x1="165.5" x2="165.2869" y1="50.5" y2="52.5275" /><line stroke="rgb(0%,0%,0%)" x1="165.2869" x2="165.1722" y1="52.5275" y2="53.6187" /><line stroke="rgb(0%,0%,0%)" x1="165.1722" x2="164.5422" y1="53.6187" y2="55.5576" /><line stroke="rgb(0%,0%,0%)" x1="164.5422" x2="164.2032" y1="55.5576" y2="56.6011" /><line stroke="rgb(0%,0%,0%)" x1="164.2032" x2="163.1838" y1="56.6011" y2="58.3666" /><line stroke="rgb(0%,0%,0%)" x1="163.1838" x2="162.6353" y1="58.3666" y2="59.3168" /><line stroke="rgb(0%,0%,0%)" x1="162.6353" x2="161.2711" y1="59.3168" y2="60.8318" /><line stroke="rgb(0%,0%,0%)" x1="161.2711" x2="160.537" y1="60.8318" y2="61.6472" /><line stroke="rgb(0%,0%,0%)" x1="160.537" x2="158.8876" y1="61.6472" y2="62.8455" /><line stroke="rgb(0%,0%,0%)" x1="158.8876" x2="158.0" y1="62.8455" y2="63.4904" /><line stroke="rgb(0%,0%,0%)" x1="158.0" x2="156.1376" y1="63.4904" y2="64.3196" /><line stroke="rgb(0%,0%,0%)" x1="156.1376" x2="155.1353" y1="64.3196" y2="64.7658" /><line stroke="rgb(0%,0%,0%)" x1="155.1353" x2="153.1411" y1="64.7658" y2="65.1897" /><line stroke="rgb(0%,0%,0%)" x1="153.1411" x2="152.0679" y1="65.1897" y2="65.4178" /><line stroke="rgb(0%,0%,0%)" x1="152.0679" x2="150.0292" y1="65.4178" y2="65.4178" /><line stroke="rgb(0%,0%,0%)" x1="150.0292" x2="148.9321" y1="65.4178" y2="65.4178" /><line stroke="rgb(0%,0%,0%)" x1="148.9321" x2="146.9379" y1="65.4178" y2="64.994" /><line stroke="rgb(0%,0%,0%)" x1="146.9379" x2="145.8647" y1="64.994" y2="64.7658" /><line stroke="rgb(0%,0%,0%)" x1="145.8647" x2="144.0023" y1="64.7658" y2="63.9366" /><line stroke="rgb(0%,0%,0%)" x1="144.0023" x2="143.0" y1="63.9366" y2="63.4904" /><line stroke="rgb(0%,0%,0%)" x1="143.0" x2="141.3507" y1="63.4904" y2="62.2921" /><line stroke="rgb(0%,0%,0%)" x1="141.3507" x2="140.463" y1="62.2921" y2="61.6472" /><line stroke="rgb(0%,0%,0%)" x1="140.463" x2="139.0989" y1="61.6472" y2="60.1321" /><line stroke="rgb(0%,0%,0%)" x1="139.0989" x2="138.3647" y1="60.1321" y2="59.3168" /><line stroke="rgb(0%,0%,0%)" x1="138.3647" x2="137.3454" y1="59.3168" y2="57.5512" /><line stroke="rgb(0%,0%,0%)" x1="137.3454" x2="136.7968" y1="57.5512" y2="56.6011" /><line stroke="rgb(0%,0%,0%)" x1="136.7968" x2="136.1668" y1="56.6011" y2="54.6621" /><line stroke="rgb(0%,0%,0%)" x1="136.1668" x2="135.8278" y1="54.6621" y2="53.6187" /><line stroke="rgb(0%,0%,0%)" x1="135.8278" x2="135.6147" y1="53.6187" y2="51.5912" /><line stroke="rgb(0%,0%,0%)" x1="135.6147" x2="135.5" y1="51.5912" y2="50.5" /><line stroke="rgb(0%,0%,0%)" x1="135.5" x2="135.7131" y1="50.5" y2="48.4725" /><line stroke="rgb(0%,0%,0%)" x1="135.7131" x2="135.8278" y1="48.4725" y2="47.3813" /><line stroke="rgb(0%,0%,0%)" x1="135.8278" x2="136.4578" y1="47.3813" y2="45.4424" /><line stroke="rgb(0%,0%,0%)" x1="136.4578" x2="136.7968" y1="45.4424" y2="44.3989" /><line stroke="rgb(0%,0%,0%)" x1="136.7968" x2="137.8162" y1="44.3989" y2="42.6334" /><line stroke="rgb(0%,0%,0%)" x1="137.8162" x2="138.3647" y1="42.6334" y2="41.6832" /><line stroke="rgb(0%,0%,0%)" x1="138.3647" x2="139.7289" y1="41.6832" y2="40.1682" /><line stroke="rgb(0%,0%,0%)" x1="139.7289" x2="140.463" y1="40.1682" y2="39.3528" /><line stroke="rgb(0%,0%,0%)" x1="140.463" x2="142.1124" y1="39.3528" y2="38.1545" /><line stroke="rgb(0%,0%,0%)" x1="142.1124" x2="143.0" y1="38.1545" y2="37.5096" /><line stroke="rgb(0%,0%,0%)" x1="143.0" x2="144.8624" y1="37.5096" y2="36.6804" /><line stroke="rgb(0%,0%,0%)" x1="144.8624" x2="145.8647" y1="36.6804" y2="36.2342" /><line stroke="rgb(0%,0%,0%)" x1="145.8647" x2="147.8589" y1="36.2342" y2="35.8103" /><line stroke="rgb(0%,0%,0%)" x1="147.8589" x2="148.9321" y1="35.8103" y2="35.5822" /><line stroke="rgb(0%,0%,0%)" x1="148.9321" x2="150.9708" y1="35.5822" y2="35.5822" /><line stroke="rgb(0%,0%,0%)" x1="150.9708" x2="152.0679" y1="35.5822" y2="35.5822" /><line stroke="rgb(0%,0%,0%)" x1="152.0679" x2="154.0621" y1="35.5822" y2="36.006" /><line stroke="rgb(0%,0%,0%)" x1="154.0621" x2="155.1353" y1="36.006" y2="36.2342" /><line stroke="rgb(0%,0%,0%)" x1="155.1353" x2="156.9977" y1="36.2342" y2="37.0634" /><line stroke="rgb(0%,0%,0%)" x1="156.9977" x2="158.0" y1="37.0634" y2="37.5096" /><line stroke="rgb(0%,0%,0%)" x1="158.0" x2="159.6493" y1="37.5096" y2="38.7079" /><line stroke="rgb(0%,0%,0%)" x1="159.6493" x2="160.537" y1="38.7079" y2="39.3528" /><line stroke="rgb(0%,0%,0%)" x1="160.537" x2="161.9011" y1="39.3528" y2="40.8679" /><line stroke="rgb(0%,0%,0%)" x1="161.9011" x2="162.6353" y1="40.8679" y2="41.6832" /><line stroke="rgb(0%,0%,0%)" x1="162.6353" x2="163.6546" y1="41.6832" y2="43.4488" /><line stroke="rgb(0%,0%,0%)" x1="163.6546" x2="164.2032" y1="43.4488" y2="44.3989" /><line stroke="rgb(0%,0%,0%)" x1="164.2032" x2="164.8332" y1="44.3989" y2="46.3379" /><line stroke="rgb(0%,0%,0%)" x1="164.8332" x2="165.1722" y1="46.3379" y2="47.3813" /><line stroke="rgb(0%,0%,0%)" x1="65.1722" x2="65.3853" y1="47.3813" y2="49.4088" /><line stroke="rgb(0%,0%,0%)" x1="65.3853" x2="65.5" y1="49.4088" y2="50.5" /><line stroke="rgb(0%,0%,0%)" x1="65.5" x2="65.2869" y1="50.5" y2="52.5275" /><line stroke="rgb(0%,0%,0%)" x1="65.2869" x2="65.1722" y1="52.5275" y2="53.6187" /><line stroke="rgb(0%,0%,0%)" x1="65.1722" x2="64.5422" y1="53.6187" y2="55.5576" /><line stroke="rgb(0%,0%,0%)" x1="64.5422" x2="64.2032" y1="55.5576" y2="56.6011" /><line stroke="rgb(0%,0%,0%)" x1="64.2032" x2="63.1838" y1="56.6011" y2="58.3666" /><line stroke="rgb(0%,0%,0%)" x1="63.1838" x2="62.6352" y1="58.3666" y2="59.3168" /><line stroke="rgb(0%,0%,0%)" x1="62.6352" x2="61.2711" y1="59.3168" y2="60.8318" /><line stroke="rgb(0%,0%,0%)" x1="61.2711" x2="60.537" y1="60.8318" y2="61.6472" /><line stroke="rgb(0%,0%,0%)" x1="60.537" x2="58.8876" y1="61.6472" y2="62.8455" /><line stroke="rgb(0%,0%,0%)" x1="58.8876" x2="58.0" y1="62.8455" y2="63.4904" /><line stroke="rgb(0%,0%,0%)" x1="58.0" x2="56.1376" y1="63.4904" y2="64.3196" /><line stroke="rgb(0%,0%,0%)" x1="56.1376" x2="55.1353" y1="64.3196" y2="64.7658" /><line stroke="rgb(0%,0%,0%)" x1="55.1353" x2="53.1411" y1="64.7658" y2="65.1897" /><line stroke="rgb(0%,0%,0%)" x1="53.1411" x2="52.0679" y1="65.1897" y2="65.4178" /><line stroke="rgb(0%,0%,0%)" x1="52.0679" x2="50.0292" y1="65.4178" y2="65.4178" /><line stroke="rgb(0%,0%,0%)" x1="50.0292" x2="48.9321" y1="65.4178" y2="65.4178" /><line stroke="rgb(0%,0%,0%)" x1="48.9321" x2="46.9379" y1="65.4178" y2="64.994" /><line stroke="rgb(0%,0%,0%)" x1="46.9379" x2="45.8647" y1="64.994" y2="64.7658" /><line stroke="rgb(0%,0%,0%)" x1="45.8647" x2="44.0023" y1="64.7658" y2="63.9366" /><line stroke="rgb(0%,0%,0%)" x1="44.0023" x2="43.0" y1="63.9366" y2="63.4904" /><line stroke="rgb(0%,0%,0%)" x1="43.0" x2="41.3507" y1="63.4904" y2="62.2921" /><line stroke="rgb(0%,0%,0%)" x1="41.3507" x2="40.463" y1="62.2921" y2="61.6472" /><line stroke="rgb(0%,0%,0%)" x1="40.463" x2="39.0989" y1="61.6472" y2="60.1321" /><line stroke="rgb(0%,0%,0%)" x1="39.0989" x2="38.3647" y1="60.1321" y2="59.3168" /><line stroke="rgb(0%,0%,0%)" x1="38.3647" x2="37.3454" y1="59.3168" y2="57.5512" /><line stroke="rgb(0%,0%,0%)" x1="37.3454" x2="36.7968" y1="57.5512" y2="56.6011" /><line stroke="rgb(0%,0%,0%)" x1="36.7968" x2="36.1668" y1="56.6011" y2="54.6621" /><line stroke="rgb(0%,0%,0%)" x1="36.1668" x2="35.8278" y1="54.6621" y2="53.6187" /><line stroke="rgb(0%,0%,0%)" x1="35.8278" x2="35.6147" y1="53.6187" y2="51.5912" /><line stroke="rgb(0%,0%,0%)" x1="35.6147" x2="35.5" y1="51.5912" y2="50.5" /><line stroke="rgb(0%,0%,0%)" x1="35.5" x2="35.7131" y1="50.5" y2="48.4725" /><line stroke="rgb(0%,0%,0%)" x1="35.7131" x2="35.8278" y1="48.4725" y2="47.3813" /><line stroke="rgb(0%,0%,0%)" x1="35.8278" x2="36.4578" y1="47.3813" y2="45.4424" /><line stroke="rgb(0%,0%,0%)" x1="36.4578" x2="36.7968" y1="45.4424" y2="44.3989" /><line stroke="rgb(0%,0%,0%)" x1="36.7968" x2="37.8162" y1="44.3989" y2="42.6334" /><line stroke="rgb(0%,0%,0%)" x1="37.8162" x2="38.3647" y1="42.6334" y2="41.6832" /><line stroke="rgb(0%,0%,0%)" x1="38.3647" x2="39.7289" y1="41.6832" y2="40.1682" /><line stroke="rgb(0%,0%,0%)" x1="39.7289" x2="40.463" y1="40.1682" y2="39.3528" /><line stroke="rgb(0%,0%,0%)" x1="40.463" x2="42.1124" y1="39.3528" y2="38.1545" /><line stroke="rgb(0%,0%,0%)" x1="42.1124" x2="43.0" y1="38.1545" y2="37.5096" /><line stroke="rgb(0%,0%,0%)" x1="43.0" x2="44.8624" y1="37.5096" y2="36.6804" /><line stroke="rgb(0%,0%,0%)" x1="44.8624" x2="45.8647" y1="36.6804" y2="36.2342" /><line stroke="rgb(0%,0%,0%)" x1="45.8647" x2="47.8589" y1="36.2342" y2="35.8103" /><line stroke="rgb(0%,0%,0%)" x1="47.8589" x2="48.9321" y1="35.8103" y2="35.5822" /><line stroke="rgb(0%,0%,0%)" x1="48.9321" x2="50.9708" y1="35.5822" y2="35.5822" /><line stroke="rgb(0%,0%,0%)" x1="50.9708" x2="52.0679" y1="35.5822" y2="35.5822" /><line stroke="rgb(0%,0%,0%)" x1="52.0679" x2="54.0621" y1="35.5822" y2="36.006" /><line stroke="rgb(0%,0%,0%)" x1="54.0621" x2="55.1353" y1="36.006" y2="36.2342" /><line stroke="rgb(0%,0%,0%)" x1="55.1353" x2="56.9977" y1="36.2342" y2="37.0634" /><line stroke="rgb(0%,0%,0%)" x1="56.9977" x2="58.0" y1="37.0634" y2="37.5096" /><line stroke="rgb(0%,0%,0%)" x1="58.0" x2="59.6493" y1="37.5096" y2="38.7079" /><line stroke="rgb(0%,0%,0%)" x1="59.6493" x2="60.537" y1="38.7079" y2="39.3528" /><line stroke="rgb(0%,0%,0%)" x1="60.537" x2="61.9011" y1="39.3528" y2="40.8679" /><line stroke="rgb(0%,0%,0%)" x1="61.9011" x2="62.6352" y1="40.8679" y2="41.6832" /><line stroke="rgb(0%,0%,0%)" x1="62.6352" x2="63.6546" y1="41.6832" y2="43.4488" /><line stroke="rgb(0%,0%,0%)" x1="63.6546" x2="64.2032" y1="43.4488" y2="44.3989" /><line stroke="rgb(0%,0%,0%)" x1="64.2032" x2="64.8332" y1="44.3989" y2="46.3379" /><line stroke="rgb(0%,0%,0%)" x1="64.8332" x2="65.1722" y1="46.3379" y2="47.3813" /></svg>