<?xml version="1.0" encoding="utf-8" ?>
<svg baseProfile="tiny" height="100%" version="1.2" width="100%" xmlns="http://www.w3.org/2000/svg" xmlns:ev="http://www.w3.org/2001/xml-events" xmlns:xlink="http://www.w3.org/1999/xlink"><defs /><line stroke="rgb(0%,0%,0%)" x1="351.9" x2="351.9" y1="0.5" y2="16.4848" /><line stroke="rgb(0%,0%,0%)" x1="351.9" x2="351.9" y1="16.4848" y2="100.5" /><line stroke="rgb(0%,0%,0%)" x1="324.1398" x2="346.0239" y1="100.5" y2="100.5" /><line stroke="rgb(0%,0%,0%)" x1="346.0239" x2="346.7871" y1="100.5" y2="100.5" /><line stroke="rgb(0%,0%,0%)" x1="346.7871" x2="347.659" y1="100.5" y2="100.5" /><line stroke="rgb(0%,0%,0%)" x1="347.659" x2="348.6267" y1="100.5" y2="100.5" /><line stroke="rgb(0%,0%,0%)" x1="348.6267" x2="349.6719" y1="100.5" y2="100.5" /><line stroke="rgb(0%,0%,0%)" x1="349.6719" x2="350.7718" y1="100.5" y2="100.5" /><line stroke="rgb(0%,0%,0%)" x1="350.7718" x2="351.9" y1="100.5" y2="100.5" /><line stroke="rgb(0%,0%,0%)" x1="324.1398" x2="37.726" y1="100.5" y2="100.5" /><line stroke="rgb(0%,0%,0%)" x1="37.726" x2="0.5" y1="100.5" y2="100.5" /><line stroke="rgb(0%,0%,0%)" x1="0.5" x2="37.726" y1="0.5" y2="0.5" /><line stroke="rgb(0%,0%,0%)" x1="37.726" x2="324.1398" y1="0.5" y2="0.5" /><line stroke="rgb(0%,0%,0%)" x1="324.1398" x2="346.0239" y1="0.5" y2="0.5" /><line stroke="rgb(0%,0%,0%)" x1="346.0239" x2="346.7871" y1="0.5" y2="0.5" /><line stroke="rgb(0%,0%,0%)" x1="346.7871" x2="347.659" y1="0.5" y2="0.5" /><line stroke="rgb(0%,0%,0%)" x1="347.659" x2="348.6267" y1="0.5" y2="0.5" /><line stroke="rgb(0%,0%,0%)" x1="348.6267" x2="349.6719" y1="0.5" y2="0.5" /><line stroke="rgb(0%,0%,0%)" x1="349.6719" x2="350.7718" y1="0.5" y2="0.5" /><line stroke="rgb(0%,0%,0%)" x1="350.7718" x2="351.9" y1="0.5" y2="0.5" /><line stroke="rgb(0%,0%,0%)" x1="0.5" x2="0.5" y1="0.5" y2="82.0065" /><line stroke="rgb(0%,0%,0%)" x1="0.5" x2="0.5" y1="82.0065" y2="100.5" /><line stroke="rgb(0%,0%,0%)" x1="165.1722" x2="165.3788" y1="47.3813" y2="49.3465" /><line stroke="rgb(0%,0%,0%)" x1="165.3788" x2="165.5" y1="49.3465" y2="50.5" /><line stroke="rgb(0%,0%,0%)" x1="165.5" x2="165.2934" y1="50.5" y2="52.4652" /><line stroke="rgb(0%,0%,0%)" x1="165.2934" x2="165.1722" y1="52.4652" y2="53.6187" /><line stroke="rgb(0%,0%,0%)" x1="165.1722" x2="164.5616" y1="53.6187" y2="55.498" /><line stroke="rgb(0%,0%,0%)" x1="164.5616" x2="164.2032" y1="55.498" y2="56.6011" /><line stroke="rgb(0%,0%,0%)" x1="164.2032" x2="163.2152" y1="56.6011" y2="58.3123" /><line stroke="rgb(0%,0%,0%)" x1="163.2152" x2="162.6353" y1="58.3123" y2="59.3168" /><line stroke="rgb(0%,0%,0%)" x1="162.6353" x2="161.3131" y1="59.3168" y2="60.7852" /><line stroke="rgb(0%,0%,0%)" x1="161.3131" x2="160.537" y1="60.7852" y2="61.6472" /><line stroke="rgb(0%,0%,0%)" x1="160.537" x2="158.9383" y1="61.6472" y2="62.8086" /><line stroke="rgb(0%,0%,0%)" x1="158.9383" x2="158.0" y1="62.8086" y2="63.4904" /><line stroke="rgb(0%,0%,0%)" x1="158.0" x2="156.1948" y1="63.4904" y2="64.2941" /><line stroke="rgb(0%,0%,0%)" x1="156.1948" x2="155.1353" y1="64.2941" y2="64.7658" /><line stroke="rgb(0%,0%,0%)" x1="155.1353" x2="153.2024" y1="64.7658" y2="65.1767" /><line stroke="rgb(0%,0%,0%)" x1="153.2024" x2="152.0679" y1="65.1767" y2="65.4178" /><line stroke="rgb(0%,0%,0%)" x1="152.0679" x2="150.0919" y1="65.4178" y2="65.4178" /><line stroke="rgb(0%,0%,0%)" x1="150.0919" x2="148.9321" y1="65.4178" y2="65.4178" /><line stroke="rgb(0%,0%,0%)" x1="148.9321" x2="146.9993" y1="65.4178" y2="65.007" /><line stroke="rgb(0%,0%,0%)" x1="146.9993" x2="145.8647" y1="65.007" y2="64.7658" /><line stroke="rgb(0%,0%,0%)" x1="145.8647" x2="144.0596" y1="64.7658" y2="63.9621" /><line stroke="rgb(0%,0%,0%)" x1="144.0596" x2="143.0" y1="63.9621" y2="63.4904" /><line stroke="rgb(0%,0%,0%)" x1="143.0" x2="141.4014" y1="63.4904" y2="62.3289" /><line stroke="rgb(0%,0%,0%)" x1="141.4014" x2="140.463" y1="62.3289" y2="61.6472" /><line stroke="rgb(0%,0%,0%)" x1="140.463" x2="139.1408" y1="61.6472" y2="60.1787" /><line stroke="rgb(0%,0%,0%)" x1="139.1408" x2="138.3647" y1="60.1787" y2="59.3168" /><line stroke="rgb(0%,0%,0%)" x1="138.3647" x2="137.3767" y1="59.3168" y2="57.6055" /><line stroke="rgb(0%,0%,0%)" x1="137.3767" x2="136.7968" y1="57.6055" y2="56.6011" /><line stroke="rgb(0%,0%,0%)" x1="136.7968" x2="136.1862" y1="56.6011" y2="54.7218" /><line stroke="rgb(0%,0%,0%)" x1="136.1862" x2="135.8278" y1="54.7218" y2="53.6187" /><line stroke="rgb(0%,0%,0%)" x1="135.8278" x2="135.6212" y1="53.6187" y2="51.6535" /><line stroke="rgb(0%,0%,0%)" x1="135.6212" x2="135.5" y1="51.6535" y2="50.5" /><line stroke="rgb(0%,0%,0%)" x1="135.5" x2="135.7065" y1="50.5" y2="48.5348" /><line stroke="rgb(0%,0%,0%)" x1="135.7065" x2="135.8278" y1="48.5348" y2="47.3813" /><line stroke="rgb(0%,0%,0%)" x1="135.8278" x2="136.4384" y1="47.3813" y2="45.502" /><line stroke="rgb(0%,0%,0%)" x1="136.4384" x2="136.7968" y1="45.502" y2="44.3989" /><line stroke="rgb(0%,0%,0%)" x1="136.7968" x2="137.7848" y1="44.3989" y2="42.6877" /><line stroke="rgb(0%,0%,0%)" x1="137.7848" x2="138.3647" y1="42.6877" y2="41.6832" /><line stroke="rgb(0%,0%,0%)" x1="138.3647" x2="139.6869" y1="41.6832" y2="40.2148" /><line stroke="rgb(0%,0%,0%)" x1="139.6869" x2="140.463" y1="40.2148" y2="39.3528" /><line stroke="rgb(0%,0%,0%)" x1="140.463" x2="142.0617" y1="39.3528" y2="38.1914" /><line stroke="rgb(0%,0%,0%)" x1="142.0617" x2="143.0" y1="38.1914" y2="37.5096" /><line stroke="rgb(0%,0%,0%)" x1="143.0" x2="144.8052" y1="37.5096" y2="36.7059" /><line stroke="rgb(0%,0%,0%)" x1="144.8052" x2="145.8647" y1="36.7059" y2="36.2342" /><line stroke="rgb(0%,0%,0%)" x1="145.8647" x2="147.7976" y1="36.2342" y2="35.8233" /><line stroke="rgb(0%,0%,0%)" x1="147.7976" x2="148.9321" y1="35.8233" y2="35.5822" /><line stroke="rgb(0%,0%,0%)" x1="148.9321" x2="150.9081" y1="35.5822" y2="35.5822" /><line stroke="rgb(0%,0%,0%)" x1="150.9081" x2="152.0679" y1="35.5822" y2="35.5822" /><line stroke="rgb(0%,0%,0%)" x1="152.0679" x2="154.0007" y1="35.5822" y2="35.993" /><line stroke="rgb(0%,0%,0%)" x1="154.0007" x2="155.1353" y1="35.993" y2="36.2342" /><line stroke="rgb(0%,0%,0%)" x1="155.1353" x2="156.9404" y1="36.2342" y2="37.0379" /><line stroke="rgb(0%,0%,0%)" x1="156.9404" x2="158.0" y1="37.0379" y2="37.5096" /><line stroke="rgb(0%,0%,0%)" x1="158.0" x2="159.5986" y1="37.5096" y2="38.6711" /><line stroke="rgb(0%,0%,0%)" x1="159.5986" x2="160.537" y1="38.6711" y2="39.3528" /><line stroke="rgb(0%,0%,0%)" x1="160.537" x2="161.8592" y1="39.3528" y2="40.8213" /><line stroke="rgb(0%,0%,0%)" x1="161.8592" x2="162.6353" y1="40.8213" y2="41.6832" /><line stroke="rgb(0%,0%,0%)" x1="162.6353" x2="163.6233" y1="41.6832" y2="43.3945" /><line stroke="rgb(0%,0%,0%)" x1="163.6233" x2="164.2032" y1="43.3945" y2="44.3989" /><line stroke="rgb(0%,0%,0%)" x1="164.2032" x2="164.8138" y1="44.3989" y2="46.2782" /><line stroke="rgb(0%,0%,0%)" x1="164.8138" x2="165.1722" y1="46.2782" y2="47.3813" /><line stroke="rgb(0%,0%,0%)" x1="65.1722" x2="65.3788" y1="47.3813" y2="49.3465" /><line stroke="rgb(0%,0%,0%)" x1="65.3788" x2="65.5" y1="49.3465" y2="50.5" /><line stroke="rgb(0%,0%,0%)" x1="65.5" x2="65.2935" y1="50.5" y2="52.4652" /><line stroke="rgb(0%,0%,0%)" x1="65.2935" x2="65.1722" y1="52.4652" y2="53.6187" /><line stroke="rgb(0%,0%,0%)" x1="65.1722" x2="64.5616" y1="53.6187" y2="55.498" /><line stroke="rgb(0%,0%,0%)" x1="64.5616" x2="64.2032" y1="55.498" y2="56.6011" /><line stroke="rgb(0%,0%,0%)" x1="64.2032" x2="63.2152" y1="56.6011" y2="58.3123" /><line stroke="rgb(0%,0%,0%)" x1="63.2152" x2="62.6352" y1="58.3123" y2="59.3168" /><line stroke="rgb(0%,0%,0%)" x1="62.6352" x2="61.3131" y1="59.3168" y2="60.7852" /><line stroke="rgb(0%,0%,0%)" x1="61.3131" x2="60.537" y1="60.7852" y2="61.6472" /><line stroke="rgb(0%,0%,0%)" x1="60.537" x2="58.9383" y1="61.6472" y2="62.8086" /><line stroke="rgb(0%,0%,0%)" x1="58.9383" x2="58.0" y1="62.8086" y2="63.4904" /><line stroke="rgb(0%,0%,0%)" x1="58.0" x2="56.1948" y1="63.4904" y2="64.2941" /><line stroke="rgb(0%,0%,0%)" x1="56.1948" x2="55.1353" y1="64.2941" y2="64.7658" /><line stroke="rgb(0%,0%,0%)" x1="55.1353" x2="53.2024" y1="64.7658" y2="65.1767" /><line stroke="rgb(0%,0%,0%)" x1="53.2024" x2="52.0679" y1="65.1767" y2="65.4178" /><line stroke="rgb(0%,0%,0%)" x1="52.0679" x2="50.0919" y1="65.4178" y2="65.4178" /><line stroke="rgb(0%,0%,0%)" x1="50.0919" x2="48.9321" y1="65.4178" y2="65.4178" /><line stroke="rgb(0%,0%,0%)" x1="48.9321" x2="46.9993" y1="65.4178" y2="65.007" /><line stroke="rgb(0%,0%,0%)" x1="46.9993" x2="45.8647" y1="65.007" y2="64.7658" /><line stroke="rgb(0%,0%,0%)" x1="45.8647" x2="44.0596" y1="64.7658" y2="63.9621" /><line stroke="rgb(0%,0%,0%)" x1="44.0596" x2="43.0" y1="63.9621" y2="63.4904" /><line stroke="rgb(0%,0%,0%)" x1="43.0" x2="41.4014" y1="63.4904" y2="62.3289" /><line stroke="rgb(0%,0%,0%)" x1="41.4014" x2="40.463" y1="62.3289" y2="61.6472" /><line stroke="rgb(0%,0%,0%)" x1="40.463" x2="39.1408" y1="61.6472" y2="60.1787" /><line stroke="rgb(0%,0%,0%)" x1="39.1408" x2="38.3647" y1="60.1787" y2="59.3168" /><line stroke="rgb(0%,0%,0%)" x1="38.3647" x2="37.3767" y1="59.3168" y2="57.6055" /><line stroke="rgb(0%,0%,0%)" x1="37.3767" x2="36.7968" y1="57.6055" y2="56.6011" /><line stroke="rgb(0%,0%,0%)" x1="36.7968" x2="36.1862" y1="56.6011" y2="54.7218" /><line stroke="rgb(0%,0%,0%)" x1="36.1862" x2="35.8278" y1="54.7218" y2="53.6187" /><line stroke="rgb(0%,0%,0%)" x1="35.8278" x2="35.6212" y1="53.6187" y2="51.6535" /><line stroke="rgb(0%,0%,0%)" x1="35.6212" x2="35.5" y1="51.6535" y2="50.5" /><line stroke="rgb(0%,0%,0%)" x1="35.5" x2="35.7065" y1="50.5" y2="48.5348" /><line stroke="rgb(0%,0%,0%)" x1="35.7065" x2="35.8278" y1="48.5348" y2="47.3813" /><line stroke="rgb(0%,0%,0%)" x1="35.8278" x2="36.4384" y1="47.3813" y2="45.502" /><line stroke="rgb(0%,0%,0%)" x1="36.4384" x2="36.7968" y1="45.502" y2="44.3989" /><line stroke="rgb(0%,0%,0%)" x1="36.7968" x2="37.7848" y1="44.3989" y2="42.6877" /><line stroke="rgb(0%,0%,0%)" x1="37.7848" x2="38.3647" y1="42.6877" y2="41.6832" /><line stroke="rgb(0%,0%,0%)" x1="38.3647" x2="39.6869" y1="41.6832" y2="40.2148" /><line stroke="rgb(0%,0%,0%)" x1="39.6869" x2="40.463" y1="40.2148" y2="39.3528" /><line stroke="rgb(0%,0%,0%)" x1="40.463" x2="42.0617" y1="39.3528" y2="38.1914" /><line stroke="rgb(0%,0%,0%)" x1="42.0617" x2="43.0" y1="38.1914" y2="37.5096" /><line stroke="rgb(0%,0%,0%)" x1="43.0" x2="44.8052" y1="37.5096" y2="36.7059" /><line stroke="rgb(0%,0%,0%)" x1="44.8052" x2="45.8647" y1="36.7059" y2="36.2342" /><line stroke="rgb(0%,0%,0%)" x1="45.8647" x2="47.7976" y1="36.2342" y2="35.8233" /><line stroke="rgb(0%,0%,0%)" x1="47.7976" x2="48.9321" y1="35.8233" y2="35.5822" /><line stroke="rgb(0%,0%,0%)" x1="48.9321" x2="50.9081" y1="35.5822" y2="35.5822" /><line stroke="rgb(0%,0%,0%)" x1="50.9081" x2="52.0679" y1="35.5822" y2="35.5822" /><line stroke="rgb(0%,0%,0%)" x1="52.0679" x2="54.0007" y1="35.5822" y2="35.993" /><line stroke="rgb(0%,0%,0%)" x1="54.0007" x2="55.1353" y1="35.993" y2="36.2342" /><line stroke="rgb(0%,0%,0%)" x1="55.1353" x2="56.9404" y1="36.2342" y2="37.0379" /><line stroke="rgb(0%,0%,0%)" x1="56.9404" x2="58.0" y1="37.0379" y2="37.5096" /><line stroke="rgb(0%,0%,0%)" x1="58.0" x2="59.5986" y1="37.5096" y2="38.6711" /><line stroke="rgb(0%,0%,0%)" x1="59.5986" x2="60.537" y1="38.6711" y2="39.3528" /><line stroke="rgb(0%,0%,0%)" x1="60.537" x2="61.8592" y1="39.3528" y2="40.8213" /><line stroke="rgb(0%,0%,0%)" x1="61.8592" x2="62.6352" y1="40.8213" y2="41.6832" /><line stroke="rgb(0%,0%,0%)" x1="62.6352" x2="63.6232" y1="41.6832" y2="43.3945" /><line stroke="rgb(0%,0%,0%)" x1="63.6232" x2="64.2032" y1="43.3945" y2="44.3989" /><line stroke="rgb(0%,0%,0%)" x1="64.2032" x2="64.8138" y1="44.3989" y2="46.2782" /><line stroke="rgb(0%,0%,0%)" x1="64.8138" x2="65.1722" y1="46.2782" y2="47.3813" /></svg>