<?xml version="1.0" encoding="utf-8" ?>
<svg baseProfile="tiny" height="100%" version="1.2" width="100%" xmlns="http://www.w3.org/2000/svg" xmlns:ev="http://www.w3.org/2001/xml-events" xmlns:xlink="http://www.w3.org/1999/xlink"><defs /><line stroke="rgb(0%,0%,0%)" x1="274.9104" x2="274.9104" y1="100.5" y2="97.3163" /><line stroke="rgb(0%,0%,0%)" x1="274.9104" x2="274.9104" y1="97.3163" y2="0.5" /><line stroke="rgb(0%,0%,0%)" x1="201.8997" x2="201.8997" y1="0.5" y2="0.8054" /><line stroke="rgb(0%,0%,0%)" x1="201.8997" x2="201.8997" y1="0.8054" y2="100.5" /><line stroke="rgb(0%,0%,0%)" x1="202.7343" x2="201.8997" y1="100.5" y2="100.5" /><line stroke="rgb(0%,0%,0%)" x1="273.3339" x2="239.1771" y1="100.5" y2="100.5" /><line stroke="rgb(0%,0%,0%)" x1="239.1771" x2="204.1897" y1="100.5" y2="100.5" /><line stroke="rgb(0%,0%,0%)" x1="204.1897" x2="203.1025" y1="100.5" y2="100.5" /><line stroke="rgb(0%,0%,0%)" x1="273.3339" x2="274.9104" y1="100.5" y2="100.5" /><line stroke="rgb(0%,0%,0%)" x1="203.1025" x2="202.7343" y1="100.5" y2="100.5" /><line stroke="rgb(0%,0%,0%)" x1="201.8997" x2="202.7343" y1="0.5" y2="0.5" /><line stroke="rgb(0%,0%,0%)" x1="202.7343" x2="203.1025" y1="0.5" y2="0.5" /><line stroke="rgb(0%,0%,0%)" x1="203.1025" x2="204.1897" y1="0.5" y2="0.5" /><line stroke="rgb(0%,0%,0%)" x1="204.1897" x2="239.1771" y1="0.5" y2="0.5" /><line stroke="rgb(0%,0%,0%)" x1="239.1771" x2="273.3339" y1="0.5" y2="0.5" /><line stroke="rgb(0%,0%,0%)" x1="273.3339" x2="274.9104" y1="0.5" y2="0.5" /></svg>