<?xml version="1.0" encoding="utf-8" ?>
<svg baseProfile="tiny" height="100%" version="1.2" width="100%" xmlns="http://www.w3.org/2000/svg" xmlns:ev="http://www.w3.org/2001/xml-events" xmlns:xlink="http://www.w3.org/1999/xlink"><defs /><line stroke="rgb(0%,0%,0%)" x1="351.9" x2="351.9" y1="0.5" y2="1.7961" /><line stroke="rgb(0%,0%,0%)" x1="351.9" x2="351.9" y1="1.7961" y2="100.5" /><line stroke="rgb(0%,0%,0%)" x1="349.6492" x2="351.4236" y1="100.5" y2="100.5" /><line stroke="rgb(0%,0%,0%)" x1="351.4236" x2="351.4854" y1="100.5" y2="100.5" /><line stroke="rgb(0%,0%,0%)" x1="351.4854" x2="351.5561" y1="100.5" y2="100.5" /><line stroke="rgb(0%,0%,0%)" x1="351.5561" x2="351.6346" y1="100.5" y2="100.5" /><line stroke="rgb(0%,0%,0%)" x1="351.6346" x2="351.7193" y1="100.5" y2="100.5" /><line stroke="rgb(0%,0%,0%)" x1="351.7193" x2="351.8085" y1="100.5" y2="100.5" /><line stroke="rgb(0%,0%,0%)" x1="351.8085" x2="351.9" y1="100.5" y2="100.5" /><line stroke="rgb(0%,0%,0%)" x1="349.6492" x2="3.5183" y1="100.5" y2="100.5" /><line stroke="rgb(0%,0%,0%)" x1="3.5183" x2="0.5" y1="100.5" y2="100.5" /><line stroke="rgb(0%,0%,0%)" x1="0.5" x2="3.5183" y1="0.5" y2="0.5" /><line stroke="rgb(0%,0%,0%)" x1="3.5183" x2="349.6492" y1="0.5" y2="0.5" /><line stroke="rgb(0%,0%,0%)" x1="349.6492" x2="351.4236" y1="0.5" y2="0.5" /><line stroke="rgb(0%,0%,0%)" x1="351.4236" x2="351.4854" y1="0.5" y2="0.5" /><line stroke="rgb(0%,0%,0%)" x1="351.4854" x2="351.5561" y1="0.5" y2="0.5" /><line stroke="rgb(0%,0%,0%)" x1="351.5561" x2="351.6346" y1="0.5" y2="0.5" /><line stroke="rgb(0%,0%,0%)" x1="351.6346" x2="351.7193" y1="0.5" y2="0.5" /><line stroke="rgb(0%,0%,0%)" x1="351.7193" x2="351.8085" y1="0.5" y2="0.5" /><line stroke="rgb(0%,0%,0%)" x1="351.8085" x2="351.9" y1="0.5" y2="0.5" /><line stroke="rgb(0%,0%,0%)" x1="0.5" x2="0.5" y1="0.5" y2="99.0005" /><line stroke="rgb(0%,0%,0%)" x1="0.5" x2="0.5" y1="99.0005" y2="100.5" /><line stroke="rgb(0%,0%,0%)" x1="165.1722" x2="165.4902" y1="47.3813" y2="50.4065" /><line stroke="rgb(0%,0%,0%)" x1="165.4902" x2="165.5" y1="50.4065" y2="50.5" /><line stroke="rgb(0%,0%,0%)" x1="165.5" x2="165.182" y1="50.5" y2="53.5251" /><line stroke="rgb(0%,0%,0%)" x1="165.182" x2="165.1722" y1="53.5251" y2="53.6187" /><line stroke="rgb(0%,0%,0%)" x1="165.1722" x2="164.2322" y1="53.6187" y2="56.5116" /><line stroke="rgb(0%,0%,0%)" x1="164.2322" x2="164.2032" y1="56.5116" y2="56.6011" /><line stroke="rgb(0%,0%,0%)" x1="164.2032" x2="162.6823" y1="56.6011" y2="59.2353" /><line stroke="rgb(0%,0%,0%)" x1="162.6823" x2="162.6353" y1="59.2353" y2="59.3168" /><line stroke="rgb(0%,0%,0%)" x1="162.6353" x2="160.5999" y1="59.3168" y2="61.5773" /><line stroke="rgb(0%,0%,0%)" x1="160.5999" x2="160.537" y1="61.5773" y2="61.6472" /><line stroke="rgb(0%,0%,0%)" x1="160.537" x2="158.0761" y1="61.6472" y2="63.4351" /><line stroke="rgb(0%,0%,0%)" x1="158.0761" x2="158.0" y1="63.4351" y2="63.4904" /><line stroke="rgb(0%,0%,0%)" x1="158.0" x2="155.2212" y1="63.4904" y2="64.7276" /><line stroke="rgb(0%,0%,0%)" x1="155.2212" x2="155.1353" y1="64.7276" y2="64.7658" /><line stroke="rgb(0%,0%,0%)" x1="155.1353" x2="152.1599" y1="64.7658" y2="65.3983" /><line stroke="rgb(0%,0%,0%)" x1="152.1599" x2="152.0679" y1="65.3983" y2="65.4178" /><line stroke="rgb(0%,0%,0%)" x1="152.0679" x2="149.0261" y1="65.4178" y2="65.4178" /><line stroke="rgb(0%,0%,0%)" x1="149.0261" x2="148.9321" y1="65.4178" y2="65.4178" /><line stroke="rgb(0%,0%,0%)" x1="148.9321" x2="145.9567" y1="65.4178" y2="64.7854" /><line stroke="rgb(0%,0%,0%)" x1="145.9567" x2="145.8647" y1="64.7854" y2="64.7658" /><line stroke="rgb(0%,0%,0%)" x1="145.8647" x2="143.0859" y1="64.7658" y2="63.5286" /><line stroke="rgb(0%,0%,0%)" x1="143.0859" x2="143.0" y1="63.5286" y2="63.4904" /><line stroke="rgb(0%,0%,0%)" x1="143.0" x2="140.5391" y1="63.4904" y2="61.7024" /><line stroke="rgb(0%,0%,0%)" x1="140.5391" x2="140.463" y1="61.7024" y2="61.6472" /><line stroke="rgb(0%,0%,0%)" x1="140.463" x2="138.4277" y1="61.6472" y2="59.3867" /><line stroke="rgb(0%,0%,0%)" x1="138.4277" x2="138.3647" y1="59.3867" y2="59.3168" /><line stroke="rgb(0%,0%,0%)" x1="138.3647" x2="136.8438" y1="59.3168" y2="56.6825" /><line stroke="rgb(0%,0%,0%)" x1="136.8438" x2="136.7968" y1="56.6825" y2="56.6011" /><line stroke="rgb(0%,0%,0%)" x1="136.7968" x2="135.8568" y1="56.6011" y2="53.7081" /><line stroke="rgb(0%,0%,0%)" x1="135.8568" x2="135.8278" y1="53.7081" y2="53.6187" /><line stroke="rgb(0%,0%,0%)" x1="135.8278" x2="135.5098" y1="53.6187" y2="50.5935" /><line stroke="rgb(0%,0%,0%)" x1="135.5098" x2="135.5" y1="50.5935" y2="50.5" /><line stroke="rgb(0%,0%,0%)" x1="135.5" x2="135.818" y1="50.5" y2="47.4749" /><line stroke="rgb(0%,0%,0%)" x1="135.818" x2="135.8278" y1="47.4749" y2="47.3813" /><line stroke="rgb(0%,0%,0%)" x1="135.8278" x2="136.7678" y1="47.3813" y2="44.4884" /><line stroke="rgb(0%,0%,0%)" x1="136.7678" x2="136.7968" y1="44.4884" y2="44.3989" /><line stroke="rgb(0%,0%,0%)" x1="136.7968" x2="138.3177" y1="44.3989" y2="41.7647" /><line stroke="rgb(0%,0%,0%)" x1="138.3177" x2="138.3647" y1="41.7647" y2="41.6832" /><line stroke="rgb(0%,0%,0%)" x1="138.3647" x2="140.4001" y1="41.6832" y2="39.4227" /><line stroke="rgb(0%,0%,0%)" x1="140.4001" x2="140.463" y1="39.4227" y2="39.3528" /><line stroke="rgb(0%,0%,0%)" x1="140.463" x2="142.9239" y1="39.3528" y2="37.5649" /><line stroke="rgb(0%,0%,0%)" x1="142.9239" x2="143.0" y1="37.5649" y2="37.5096" /><line stroke="rgb(0%,0%,0%)" x1="143.0" x2="145.7788" y1="37.5096" y2="36.2724" /><line stroke="rgb(0%,0%,0%)" x1="145.7788" x2="145.8647" y1="36.2724" y2="36.2342" /><line stroke="rgb(0%,0%,0%)" x1="145.8647" x2="148.8401" y1="36.2342" y2="35.6017" /><line stroke="rgb(0%,0%,0%)" x1="148.8401" x2="148.9321" y1="35.6017" y2="35.5822" /><line stroke="rgb(0%,0%,0%)" x1="148.9321" x2="151.9739" y1="35.5822" y2="35.5822" /><line stroke="rgb(0%,0%,0%)" x1="151.9739" x2="152.0679" y1="35.5822" y2="35.5822" /><line stroke="rgb(0%,0%,0%)" x1="152.0679" x2="155.0433" y1="35.5822" y2="36.2146" /><line stroke="rgb(0%,0%,0%)" x1="155.0433" x2="155.1353" y1="36.2146" y2="36.2342" /><line stroke="rgb(0%,0%,0%)" x1="155.1353" x2="157.9141" y1="36.2342" y2="37.4714" /><line stroke="rgb(0%,0%,0%)" x1="157.9141" x2="158.0" y1="37.4714" y2="37.5096" /><line stroke="rgb(0%,0%,0%)" x1="158.0" x2="160.4609" y1="37.5096" y2="39.2976" /><line stroke="rgb(0%,0%,0%)" x1="160.4609" x2="160.537" y1="39.2976" y2="39.3528" /><line stroke="rgb(0%,0%,0%)" x1="160.537" x2="162.5723" y1="39.3528" y2="41.6133" /><line stroke="rgb(0%,0%,0%)" x1="162.5723" x2="162.6353" y1="41.6133" y2="41.6832" /><line stroke="rgb(0%,0%,0%)" x1="162.6353" x2="164.1562" y1="41.6832" y2="44.3175" /><line stroke="rgb(0%,0%,0%)" x1="164.1562" x2="164.2032" y1="44.3175" y2="44.3989" /><line stroke="rgb(0%,0%,0%)" x1="164.2032" x2="165.1432" y1="44.3989" y2="47.2919" /><line stroke="rgb(0%,0%,0%)" x1="165.1432" x2="165.1722" y1="47.2919" y2="47.3813" /><line stroke="rgb(0%,0%,0%)" x1="65.1722" x2="65.4902" y1="47.3813" y2="50.4065" /><line stroke="rgb(0%,0%,0%)" x1="65.4902" x2="65.5" y1="50.4065" y2="50.5" /><line stroke="rgb(0%,0%,0%)" x1="65.5" x2="65.182" y1="50.5" y2="53.5251" /><line stroke="rgb(0%,0%,0%)" x1="65.182" x2="65.1722" y1="53.5251" y2="53.6187" /><line stroke="rgb(0%,0%,0%)" x1="65.1722" x2="64.2322" y1="53.6187" y2="56.5116" /><line stroke="rgb(0%,0%,0%)" x1="64.2322" x2="64.2032" y1="56.5116" y2="56.6011" /><line stroke="rgb(0%,0%,0%)" x1="64.2032" x2="62.6823" y1="56.6011" y2="59.2353" /><line stroke="rgb(0%,0%,0%)" x1="62.6823" x2="62.6352" y1="59.2353" y2="59.3168" /><line stroke="rgb(0%,0%,0%)" x1="62.6352" x2="60.5999" y1="59.3168" y2="61.5773" /><line stroke="rgb(0%,0%,0%)" x1="60.5999" x2="60.537" y1="61.5773" y2="61.6472" /><line stroke="rgb(0%,0%,0%)" x1="60.537" x2="58.0761" y1="61.6472" y2="63.4351" /><line stroke="rgb(0%,0%,0%)" x1="58.0761" x2="58.0" y1="63.4351" y2="63.4904" /><line stroke="rgb(0%,0%,0%)" x1="58.0" x2="55.2212" y1="63.4904" y2="64.7276" /><line stroke="rgb(0%,0%,0%)" x1="55.2212" x2="55.1353" y1="64.7276" y2="64.7658" /><line stroke="rgb(0%,0%,0%)" x1="55.1353" x2="52.1599" y1="64.7658" y2="65.3983" /><line stroke="rgb(0%,0%,0%)" x1="52.1599" x2="52.0679" y1="65.3983" y2="65.4178" /><line stroke="rgb(0%,0%,0%)" x1="52.0679" x2="49.0261" y1="65.4178" y2="65.4178" /><line stroke="rgb(0%,0%,0%)" x1="49.0261" x2="48.9321" y1="65.4178" y2="65.4178" /><line stroke="rgb(0%,0%,0%)" x1="48.9321" x2="45.9567" y1="65.4178" y2="64.7854" /><line stroke="rgb(0%,0%,0%)" x1="45.9567" x2="45.8647" y1="64.7854" y2="64.7658" /><line stroke="rgb(0%,0%,0%)" x1="45.8647" x2="43.0859" y1="64.7658" y2="63.5286" /><line stroke="rgb(0%,0%,0%)" x1="43.0859" x2="43.0" y1="63.5286" y2="63.4904" /><line stroke="rgb(0%,0%,0%)" x1="43.0" x2="40.5391" y1="63.4904" y2="61.7024" /><line stroke="rgb(0%,0%,0%)" x1="40.5391" x2="40.463" y1="61.7024" y2="61.6472" /><line stroke="rgb(0%,0%,0%)" x1="40.463" x2="38.4277" y1="61.6472" y2="59.3867" /><line stroke="rgb(0%,0%,0%)" x1="38.4277" x2="38.3647" y1="59.3867" y2="59.3168" /><line stroke="rgb(0%,0%,0%)" x1="38.3647" x2="36.8438" y1="59.3168" y2="56.6825" /><line stroke="rgb(0%,0%,0%)" x1="36.8438" x2="36.7968" y1="56.6825" y2="56.6011" /><line stroke="rgb(0%,0%,0%)" x1="36.7968" x2="35.8568" y1="56.6011" y2="53.7081" /><line stroke="rgb(0%,0%,0%)" x1="35.8568" x2="35.8278" y1="53.7081" y2="53.6187" /><line stroke="rgb(0%,0%,0%)" x1="35.8278" x2="35.5098" y1="53.6187" y2="50.5935" /><line stroke="rgb(0%,0%,0%)" x1="35.5098" x2="35.5" y1="50.5935" y2="50.5" /><line stroke="rgb(0%,0%,0%)" x1="35.5" x2="35.8179" y1="50.5" y2="47.4749" /><line stroke="rgb(0%,0%,0%)" x1="35.8179" x2="35.8278" y1="47.4749" y2="47.3813" /><line stroke="rgb(0%,0%,0%)" x1="35.8278" x2="36.7677" y1="47.3813" y2="44.4884" /><line stroke="rgb(0%,0%,0%)" x1="36.7677" x2="36.7968" y1="44.4884" y2="44.3989" /><line stroke="rgb(0%,0%,0%)" x1="36.7968" x2="38.3177" y1="44.3989" y2="41.7647" /><line stroke="rgb(0%,0%,0%)" x1="38.3177" x2="38.3647" y1="41.7647" y2="41.6832" /><line stroke="rgb(0%,0%,0%)" x1="38.3647" x2="40.4001" y1="41.6832" y2="39.4227" /><line stroke="rgb(0%,0%,0%)" x1="40.4001" x2="40.463" y1="39.4227" y2="39.3528" /><line stroke="rgb(0%,0%,0%)" x1="40.463" x2="42.9239" y1="39.3528" y2="37.5649" /><line stroke="rgb(0%,0%,0%)" x1="42.9239" x2="43.0" y1="37.5649" y2="37.5096" /><line stroke="rgb(0%,0%,0%)" x1="43.0" x2="45.7788" y1="37.5096" y2="36.2724" /><line stroke="rgb(0%,0%,0%)" x1="45.7788" x2="45.8647" y1="36.2724" y2="36.2342" /><line stroke="rgb(0%,0%,0%)" x1="45.8647" x2="48.8401" y1="36.2342" y2="35.6017" /><line stroke="rgb(0%,0%,0%)" x1="48.8401" x2="48.9321" y1="35.6017" y2="35.5822" /><line stroke="rgb(0%,0%,0%)" x1="48.9321" x2="51.9739" y1="35.5822" y2="35.5822" /><line stroke="rgb(0%,0%,0%)" x1="51.9739" x2="52.0679" y1="35.5822" y2="35.5822" /><line stroke="rgb(0%,0%,0%)" x1="52.0679" x2="55.0433" y1="35.5822" y2="36.2146" /><line stroke="rgb(0%,0%,0%)" x1="55.0433" x2="55.1353" y1="36.2146" y2="36.2342" /><line stroke="rgb(0%,0%,0%)" x1="55.1353" x2="57.9141" y1="36.2342" y2="37.4714" /><line stroke="rgb(0%,0%,0%)" x1="57.9141" x2="58.0" y1="37.4714" y2="37.5096" /><line stroke="rgb(0%,0%,0%)" x1="58.0" x2="60.4609" y1="37.5096" y2="39.2976" /><line stroke="rgb(0%,0%,0%)" x1="60.4609" x2="60.537" y1="39.2976" y2="39.3528" /><line stroke="rgb(0%,0%,0%)" x1="60.537" x2="62.5723" y1="39.3528" y2="41.6133" /><line stroke="rgb(0%,0%,0%)" x1="62.5723" x2="62.6352" y1="41.6133" y2="41.6832" /><line stroke="rgb(0%,0%,0%)" x1="62.6352" x2="64.1562" y1="41.6832" y2="44.3175" /><line stroke="rgb(0%,0%,0%)" x1="64.1562" x2="64.2032" y1="44.3175" y2="44.3989" /><line stroke="rgb(0%,0%,0%)" x1="64.2032" x2="65.1432" y1="44.3989" y2="47.2919" /><line stroke="rgb(0%,0%,0%)" x1="65.1432" x2="65.1722" y1="47.2919" y2="47.3813" /></svg>