<?xml version="1.0" encoding="utf-8" ?>
<svg baseProfile="tiny" height="100%" version="1.2" width="100%" xmlns="http://www.w3.org/2000/svg" xmlns:ev="http://www.w3.org/2001/xml-events" xmlns:xlink="http://www.w3.org/1999/xlink"><defs /><line stroke="rgb(0%,0%,0%)" x1="351.9" x2="351.9" y1="0.5" y2="17.3488" /><line stroke="rgb(0%,0%,0%)" x1="351.9" x2="351.9" y1="17.3488" y2="100.5" /><line stroke="rgb(0%,0%,0%)" x1="322.6393" x2="345.7062" y1="100.5" y2="100.5" /><line stroke="rgb(0%,0%,0%)" x1="345.7062" x2="346.5107" y1="100.5" y2="100.5" /><line stroke="rgb(0%,0%,0%)" x1="346.5107" x2="347.4298" y1="100.5" y2="100.5" /><line stroke="rgb(0%,0%,0%)" x1="347.4298" x2="348.4497" y1="100.5" y2="100.5" /><line stroke="rgb(0%,0%,0%)" x1="348.4497" x2="349.5515" y1="100.5" y2="100.5" /><line stroke="rgb(0%,0%,0%)" x1="349.5515" x2="350.7108" y1="100.5" y2="100.5" /><line stroke="rgb(0%,0%,0%)" x1="350.7108" x2="351.9" y1="100.5" y2="100.5" /><line stroke="rgb(0%,0%,0%)" x1="322.6393" x2="39.7382" y1="100.5" y2="100.5" /><line stroke="rgb(0%,0%,0%)" x1="39.7382" x2="0.5" y1="100.5" y2="100.5" /><line stroke="rgb(0%,0%,0%)" x1="0.5" x2="39.7382" y1="0.5" y2="0.5" /><line stroke="rgb(0%,0%,0%)" x1="39.7382" x2="322.6393" y1="0.5" y2="0.5" /><line stroke="rgb(0%,0%,0%)" x1="322.6393" x2="345.7062" y1="0.5" y2="0.5" /><line stroke="rgb(0%,0%,0%)" x1="345.7062" x2="346.5107" y1="0.5" y2="0.5" /><line stroke="rgb(0%,0%,0%)" x1="346.5107" x2="347.4298" y1="0.5" y2="0.5" /><line stroke="rgb(0%,0%,0%)" x1="347.4298" x2="348.4497" y1="0.5" y2="0.5" /><line stroke="rgb(0%,0%,0%)" x1="348.4497" x2="349.5515" y1="0.5" y2="0.5" /><line stroke="rgb(0%,0%,0%)" x1="349.5515" x2="350.7108" y1="0.5" y2="0.5" /><line stroke="rgb(0%,0%,0%)" x1="350.7108" x2="351.9" y1="0.5" y2="0.5" /><line stroke="rgb(0%,0%,0%)" x1="0.5" x2="0.5" y1="0.5" y2="81.0069" /><line stroke="rgb(0%,0%,0%)" x1="0.5" x2="0.5" y1="81.0069" y2="100.5" /><line stroke="rgb(0%,0%,0%)" x1="165.1722" x2="165.3722" y1="47.3813" y2="49.2841" /><line stroke="rgb(0%,0%,0%)" x1="165.3722" x2="165.5" y1="49.2841" y2="50.5" /><line stroke="rgb(0%,0%,0%)" x1="165.5" x2="165.3" y1="50.5" y2="52.4028" /><line stroke="rgb(0%,0%,0%)" x1="165.3" x2="165.1722" y1="52.4028" y2="53.6187" /><line stroke="rgb(0%,0%,0%)" x1="165.1722" x2="164.581" y1="53.6187" y2="55.4383" /><line stroke="rgb(0%,0%,0%)" x1="164.581" x2="164.2032" y1="55.4383" y2="56.6011" /><line stroke="rgb(0%,0%,0%)" x1="164.2032" x2="163.2465" y1="56.6011" y2="58.258" /><line stroke="rgb(0%,0%,0%)" x1="163.2465" x2="162.6353" y1="58.258" y2="59.3168" /><line stroke="rgb(0%,0%,0%)" x1="162.6353" x2="161.355" y1="59.3168" y2="60.7386" /><line stroke="rgb(0%,0%,0%)" x1="161.355" x2="160.537" y1="60.7386" y2="61.6472" /><line stroke="rgb(0%,0%,0%)" x1="160.537" x2="158.9891" y1="61.6472" y2="62.7718" /><line stroke="rgb(0%,0%,0%)" x1="158.9891" x2="158.0" y1="62.7718" y2="63.4904" /><line stroke="rgb(0%,0%,0%)" x1="158.0" x2="156.2521" y1="63.4904" y2="64.2686" /><line stroke="rgb(0%,0%,0%)" x1="156.2521" x2="155.1353" y1="64.2686" y2="64.7658" /><line stroke="rgb(0%,0%,0%)" x1="155.1353" x2="153.2638" y1="64.7658" y2="65.1636" /><line stroke="rgb(0%,0%,0%)" x1="153.2638" x2="152.0679" y1="65.1636" y2="65.4178" /><line stroke="rgb(0%,0%,0%)" x1="152.0679" x2="150.1546" y1="65.4178" y2="65.4178" /><line stroke="rgb(0%,0%,0%)" x1="150.1546" x2="148.9321" y1="65.4178" y2="65.4178" /><line stroke="rgb(0%,0%,0%)" x1="148.9321" x2="147.0606" y1="65.4178" y2="65.02" /><line stroke="rgb(0%,0%,0%)" x1="147.0606" x2="145.8647" y1="65.02" y2="64.7658" /><line stroke="rgb(0%,0%,0%)" x1="145.8647" x2="144.1169" y1="64.7658" y2="63.9876" /><line stroke="rgb(0%,0%,0%)" x1="144.1169" x2="143.0" y1="63.9876" y2="63.4904" /><line stroke="rgb(0%,0%,0%)" x1="143.0" x2="141.4521" y1="63.4904" y2="62.3658" /><line stroke="rgb(0%,0%,0%)" x1="141.4521" x2="140.463" y1="62.3658" y2="61.6472" /><line stroke="rgb(0%,0%,0%)" x1="140.463" x2="139.1828" y1="61.6472" y2="60.2253" /><line stroke="rgb(0%,0%,0%)" x1="139.1828" x2="138.3647" y1="60.2253" y2="59.3168" /><line stroke="rgb(0%,0%,0%)" x1="138.3647" x2="137.4081" y1="59.3168" y2="57.6598" /><line stroke="rgb(0%,0%,0%)" x1="137.4081" x2="136.7968" y1="57.6598" y2="56.6011" /><line stroke="rgb(0%,0%,0%)" x1="136.7968" x2="136.2056" y1="56.6011" y2="54.7814" /><line stroke="rgb(0%,0%,0%)" x1="136.2056" x2="135.8278" y1="54.7814" y2="53.6187" /><line stroke="rgb(0%,0%,0%)" x1="135.8278" x2="135.6278" y1="53.6187" y2="51.7159" /><line stroke="rgb(0%,0%,0%)" x1="135.6278" x2="135.5" y1="51.7159" y2="50.5" /><line stroke="rgb(0%,0%,0%)" x1="135.5" x2="135.7" y1="50.5" y2="48.5972" /><line stroke="rgb(0%,0%,0%)" x1="135.7" x2="135.8278" y1="48.5972" y2="47.3813" /><line stroke="rgb(0%,0%,0%)" x1="135.8278" x2="136.419" y1="47.3813" y2="45.5617" /><line stroke="rgb(0%,0%,0%)" x1="136.419" x2="136.7968" y1="45.5617" y2="44.3989" /><line stroke="rgb(0%,0%,0%)" x1="136.7968" x2="137.7535" y1="44.3989" y2="42.742" /><line stroke="rgb(0%,0%,0%)" x1="137.7535" x2="138.3647" y1="42.742" y2="41.6832" /><line stroke="rgb(0%,0%,0%)" x1="138.3647" x2="139.645" y1="41.6832" y2="40.2614" /><line stroke="rgb(0%,0%,0%)" x1="139.645" x2="140.463" y1="40.2614" y2="39.3528" /><line stroke="rgb(0%,0%,0%)" x1="140.463" x2="142.0109" y1="39.3528" y2="38.2282" /><line stroke="rgb(0%,0%,0%)" x1="142.0109" x2="143.0" y1="38.2282" y2="37.5096" /><line stroke="rgb(0%,0%,0%)" x1="143.0" x2="144.7479" y1="37.5096" y2="36.7314" /><line stroke="rgb(0%,0%,0%)" x1="144.7479" x2="145.8647" y1="36.7314" y2="36.2342" /><line stroke="rgb(0%,0%,0%)" x1="145.8647" x2="147.7362" y1="36.2342" y2="35.8364" /><line stroke="rgb(0%,0%,0%)" x1="147.7362" x2="148.9321" y1="35.8364" y2="35.5822" /><line stroke="rgb(0%,0%,0%)" x1="148.9321" x2="150.8454" y1="35.5822" y2="35.5822" /><line stroke="rgb(0%,0%,0%)" x1="150.8454" x2="152.0679" y1="35.5822" y2="35.5822" /><line stroke="rgb(0%,0%,0%)" x1="152.0679" x2="153.9394" y1="35.5822" y2="35.98" /><line stroke="rgb(0%,0%,0%)" x1="153.9394" x2="155.1353" y1="35.98" y2="36.2342" /><line stroke="rgb(0%,0%,0%)" x1="155.1353" x2="156.8831" y1="36.2342" y2="37.0124" /><line stroke="rgb(0%,0%,0%)" x1="156.8831" x2="158.0" y1="37.0124" y2="37.5096" /><line stroke="rgb(0%,0%,0%)" x1="158.0" x2="159.5479" y1="37.5096" y2="38.6342" /><line stroke="rgb(0%,0%,0%)" x1="159.5479" x2="160.537" y1="38.6342" y2="39.3528" /><line stroke="rgb(0%,0%,0%)" x1="160.537" x2="161.8172" y1="39.3528" y2="40.7747" /><line stroke="rgb(0%,0%,0%)" x1="161.8172" x2="162.6353" y1="40.7747" y2="41.6832" /><line stroke="rgb(0%,0%,0%)" x1="162.6353" x2="163.5919" y1="41.6832" y2="43.3402" /><line stroke="rgb(0%,0%,0%)" x1="163.5919" x2="164.2032" y1="43.3402" y2="44.3989" /><line stroke="rgb(0%,0%,0%)" x1="164.2032" x2="164.7944" y1="44.3989" y2="46.2186" /><line stroke="rgb(0%,0%,0%)" x1="164.7944" x2="165.1722" y1="46.2186" y2="47.3813" /><line stroke="rgb(0%,0%,0%)" x1="65.1722" x2="65.3722" y1="47.3813" y2="49.2841" /><line stroke="rgb(0%,0%,0%)" x1="65.3722" x2="65.5" y1="49.2841" y2="50.5" /><line stroke="rgb(0%,0%,0%)" x1="65.5" x2="65.3" y1="50.5" y2="52.4028" /><line stroke="rgb(0%,0%,0%)" x1="65.3" x2="65.1722" y1="52.4028" y2="53.6187" /><line stroke="rgb(0%,0%,0%)" x1="65.1722" x2="64.581" y1="53.6187" y2="55.4383" /><line stroke="rgb(0%,0%,0%)" x1="64.581" x2="64.2032" y1="55.4383" y2="56.6011" /><line stroke="rgb(0%,0%,0%)" x1="64.2032" x2="63.2465" y1="56.6011" y2="58.258" /><line stroke="rgb(0%,0%,0%)" x1="63.2465" x2="62.6352" y1="58.258" y2="59.3168" /><line stroke="rgb(0%,0%,0%)" x1="62.6352" x2="61.355" y1="59.3168" y2="60.7386" /><line stroke="rgb(0%,0%,0%)" x1="61.355" x2="60.537" y1="60.7386" y2="61.6472" /><line stroke="rgb(0%,0%,0%)" x1="60.537" x2="58.9891" y1="61.6472" y2="62.7718" /><line stroke="rgb(0%,0%,0%)" x1="58.9891" x2="58.0" y1="62.7718" y2="63.4904" /><line stroke="rgb(0%,0%,0%)" x1="58.0" x2="56.2521" y1="63.4904" y2="64.2686" /><line stroke="rgb(0%,0%,0%)" x1="56.2521" x2="55.1353" y1="64.2686" y2="64.7658" /><line stroke="rgb(0%,0%,0%)" x1="55.1353" x2="53.2638" y1="64.7658" y2="65.1636" /><line stroke="rgb(0%,0%,0%)" x1="53.2638" x2="52.0679" y1="65.1636" y2="65.4178" /><line stroke="rgb(0%,0%,0%)" x1="52.0679" x2="50.1546" y1="65.4178" y2="65.4178" /><line stroke="rgb(0%,0%,0%)" x1="50.1546" x2="48.9321" y1="65.4178" y2="65.4178" /><line stroke="rgb(0%,0%,0%)" x1="48.9321" x2="47.0606" y1="65.4178" y2="65.02" /><line stroke="rgb(0%,0%,0%)" x1="47.0606" x2="45.8647" y1="65.02" y2="64.7658" /><line stroke="rgb(0%,0%,0%)" x1="45.8647" x2="44.1169" y1="64.7658" y2="63.9876" /><line stroke="rgb(0%,0%,0%)" x1="44.1169" x2="43.0" y1="63.9876" y2="63.4904" /><line stroke="rgb(0%,0%,0%)" x1="43.0" x2="41.4521" y1="63.4904" y2="62.3658" /><line stroke="rgb(0%,0%,0%)" x1="41.4521" x2="40.463" y1="62.3658" y2="61.6472" /><line stroke="rgb(0%,0%,0%)" x1="40.463" x2="39.1828" y1="61.6472" y2="60.2253" /><line stroke="rgb(0%,0%,0%)" x1="39.1828" x2="38.3647" y1="60.2253" y2="59.3168" /><line stroke="rgb(0%,0%,0%)" x1="38.3647" x2="37.4081" y1="59.3168" y2="57.6598" /><line stroke="rgb(0%,0%,0%)" x1="37.4081" x2="36.7968" y1="57.6598" y2="56.6011" /><line stroke="rgb(0%,0%,0%)" x1="36.7968" x2="36.2056" y1="56.6011" y2="54.7814" /><line stroke="rgb(0%,0%,0%)" x1="36.2056" x2="35.8278" y1="54.7814" y2="53.6187" /><line stroke="rgb(0%,0%,0%)" x1="35.8278" x2="35.6278" y1="53.6187" y2="51.7159" /><line stroke="rgb(0%,0%,0%)" x1="35.6278" x2="35.5" y1="51.7159" y2="50.5" /><line stroke="rgb(0%,0%,0%)" x1="35.5" x2="35.7" y1="50.5" y2="48.5972" /><line stroke="rgb(0%,0%,0%)" x1="35.7" x2="35.8278" y1="48.5972" y2="47.3813" /><line stroke="rgb(0%,0%,0%)" x1="35.8278" x2="36.419" y1="47.3813" y2="45.5617" /><line stroke="rgb(0%,0%,0%)" x1="36.419" x2="36.7968" y1="45.5617" y2="44.3989" /><line stroke="rgb(0%,0%,0%)" x1="36.7968" x2="37.7535" y1="44.3989" y2="42.742" /><line stroke="rgb(0%,0%,0%)" x1="37.7535" x2="38.3647" y1="42.742" y2="41.6832" /><line stroke="rgb(0%,0%,0%)" x1="38.3647" x2="39.645" y1="41.6832" y2="40.2614" /><line stroke="rgb(0%,0%,0%)" x1="39.645" x2="40.463" y1="40.2614" y2="39.3528" /><line stroke="rgb(0%,0%,0%)" x1="40.463" x2="42.0109" y1="39.3528" y2="38.2282" /><line stroke="rgb(0%,0%,0%)" x1="42.0109" x2="43.0" y1="38.2282" y2="37.5096" /><line stroke="rgb(0%,0%,0%)" x1="43.0" x2="44.7479" y1="37.5096" y2="36.7314" /><line stroke="rgb(0%,0%,0%)" x1="44.7479" x2="45.8647" y1="36.7314" y2="36.2342" /><line stroke="rgb(0%,0%,0%)" x1="45.8647" x2="47.7362" y1="36.2342" y2="35.8364" /><line stroke="rgb(0%,0%,0%)" x1="47.7362" x2="48.9321" y1="35.8364" y2="35.5822" /><line stroke="rgb(0%,0%,0%)" x1="48.9321" x2="50.8454" y1="35.5822" y2="35.5822" /><line stroke="rgb(0%,0%,0%)" x1="50.8454" x2="52.0679" y1="35.5822" y2="35.5822" /><line stroke="rgb(0%,0%,0%)" x1="52.0679" x2="53.9394" y1="35.5822" y2="35.98" /><line stroke="rgb(0%,0%,0%)" x1="53.9394" x2="55.1353" y1="35.98" y2="36.2342" /><line stroke="rgb(0%,0%,0%)" x1="55.1353" x2="56.8831" y1="36.2342" y2="37.0124" /><line stroke="rgb(0%,0%,0%)" x1="56.8831" x2="58.0" y1="37.0124" y2="37.5096" /><line stroke="rgb(0%,0%,0%)" x1="58.0" x2="59.5479" y1="37.5096" y2="38.6342" /><line stroke="rgb(0%,0%,0%)" x1="59.5479" x2="60.537" y1="38.6342" y2="39.3528" /><line stroke="rgb(0%,0%,0%)" x1="60.537" x2="61.8172" y1="39.3528" y2="40.7747" /><line stroke="rgb(0%,0%,0%)" x1="61.8172" x2="62.6352" y1="40.7747" y2="41.6832" /><line stroke="rgb(0%,0%,0%)" x1="62.6352" x2="63.5919" y1="41.6832" y2="43.3402" /><line stroke="rgb(0%,0%,0%)" x1="63.5919" x2="64.2032" y1="43.3402" y2="44.3989" /><line stroke="rgb(0%,0%,0%)" x1="64.2032" x2="64.7944" y1="44.3989" y2="46.2186" /><line stroke="rgb(0%,0%,0%)" x1="64.7944" x2="65.1722" y1="46.2186" y2="47.3813" /></svg>