<?xml version="1.0" encoding="utf-8" ?>
<svg baseProfile="tiny" height="100%" version="1.2" width="100%" xmlns="http://www.w3.org/2000/svg" xmlns:ev="http://www.w3.org/2001/xml-events" xmlns:xlink="http://www.w3.org/1999/xlink"><defs /><line stroke="rgb(0%,0%,0%)" x1="351.9" x2="351.9" y1="0.5" y2="18.2128" /><line stroke="rgb(0%,0%,0%)" x1="351.9" x2="351.9" y1="18.2128" y2="100.5" /><line stroke="rgb(0%,0%,0%)" x1="321.1387" x2="345.3886" y1="100.5" y2="100.5" /><line stroke="rgb(0%,0%,0%)" x1="345.3886" x2="346.2343" y1="100.5" y2="100.5" /><line stroke="rgb(0%,0%,0%)" x1="346.2343" x2="347.2005" y1="100.5" y2="100.5" /><line stroke="rgb(0%,0%,0%)" x1="347.2005" x2="348.2728" y1="100.5" y2="100.5" /><line stroke="rgb(0%,0%,0%)" x1="348.2728" x2="349.431" y1="100.5" y2="100.5" /><line stroke="rgb(0%,0%,0%)" x1="349.431" x2="350.6499" y1="100.5" y2="100.5" /><line stroke="rgb(0%,0%,0%)" x1="350.6499" x2="351.9" y1="100.5" y2="100.5" /><line stroke="rgb(0%,0%,0%)" x1="321.1387" x2="41.7504" y1="100.5" y2="100.5" /><line stroke="rgb(0%,0%,0%)" x1="41.7504" x2="0.5" y1="100.5" y2="100.5" /><line stroke="rgb(0%,0%,0%)" x1="0.5" x2="41.7504" y1="0.5" y2="0.5" /><line stroke="rgb(0%,0%,0%)" x1="41.7504" x2="321.1387" y1="0.5" y2="0.5" /><line stroke="rgb(0%,0%,0%)" x1="321.1387" x2="345.3886" y1="0.5" y2="0.5" /><line stroke="rgb(0%,0%,0%)" x1="345.3886" x2="346.2343" y1="0.5" y2="0.5" /><line stroke="rgb(0%,0%,0%)" x1="346.2343" x2="347.2005" y1="0.5" y2="0.5" /><line stroke="rgb(0%,0%,0%)" x1="347.2005" x2="348.2728" y1="0.5" y2="0.5" /><line stroke="rgb(0%,0%,0%)" x1="348.2728" x2="349.431" y1="0.5" y2="0.5" /><line stroke="rgb(0%,0%,0%)" x1="349.431" x2="350.6499" y1="0.5" y2="0.5" /><line stroke="rgb(0%,0%,0%)" x1="350.6499" x2="351.9" y1="0.5" y2="0.5" /><line stroke="rgb(0%,0%,0%)" x1="0.5" x2="0.5" y1="0.5" y2="80.0072" /><line stroke="rgb(0%,0%,0%)" x1="0.5" x2="0.5" y1="80.0072" y2="100.5" /><line stroke="rgb(0%,0%,0%)" x1="165.1722" x2="165.3657" y1="47.3813" y2="49.2218" /><line stroke="rgb(0%,0%,0%)" x1="165.3657" x2="165.5" y1="49.2218" y2="50.5" /><line stroke="rgb(0%,0%,0%)" x1="165.5" x2="165.3066" y1="50.5" y2="52.3405" /><line stroke="rgb(0%,0%,0%)" x1="165.3066" x2="165.1722" y1="52.3405" y2="53.6187" /><line stroke="rgb(0%,0%,0%)" x1="165.1722" x2="164.6003" y1="53.6187" y2="55.3787" /><line stroke="rgb(0%,0%,0%)" x1="164.6003" x2="164.2032" y1="55.3787" y2="56.6011" /><line stroke="rgb(0%,0%,0%)" x1="164.2032" x2="163.2779" y1="56.6011" y2="58.2037" /><line stroke="rgb(0%,0%,0%)" x1="163.2779" x2="162.6353" y1="58.2037" y2="59.3168" /><line stroke="rgb(0%,0%,0%)" x1="162.6353" x2="161.397" y1="59.3168" y2="60.692" /><line stroke="rgb(0%,0%,0%)" x1="161.397" x2="160.537" y1="60.692" y2="61.6472" /><line stroke="rgb(0%,0%,0%)" x1="160.537" x2="159.0398" y1="61.6472" y2="62.7349" /><line stroke="rgb(0%,0%,0%)" x1="159.0398" x2="158.0" y1="62.7349" y2="63.4904" /><line stroke="rgb(0%,0%,0%)" x1="158.0" x2="156.3094" y1="63.4904" y2="64.2431" /><line stroke="rgb(0%,0%,0%)" x1="156.3094" x2="155.1353" y1="64.2431" y2="64.7658" /><line stroke="rgb(0%,0%,0%)" x1="155.1353" x2="153.3251" y1="64.7658" y2="65.1506" /><line stroke="rgb(0%,0%,0%)" x1="153.3251" x2="152.0679" y1="65.1506" y2="65.4178" /><line stroke="rgb(0%,0%,0%)" x1="152.0679" x2="150.2173" y1="65.4178" y2="65.4178" /><line stroke="rgb(0%,0%,0%)" x1="150.2173" x2="148.9321" y1="65.4178" y2="65.4178" /><line stroke="rgb(0%,0%,0%)" x1="148.9321" x2="147.1219" y1="65.4178" y2="65.0331" /><line stroke="rgb(0%,0%,0%)" x1="147.1219" x2="145.8647" y1="65.0331" y2="64.7658" /><line stroke="rgb(0%,0%,0%)" x1="145.8647" x2="144.1741" y1="64.7658" y2="64.0131" /><line stroke="rgb(0%,0%,0%)" x1="144.1741" x2="143.0" y1="64.0131" y2="63.4904" /><line stroke="rgb(0%,0%,0%)" x1="143.0" x2="141.5028" y1="63.4904" y2="62.4026" /><line stroke="rgb(0%,0%,0%)" x1="141.5028" x2="140.463" y1="62.4026" y2="61.6472" /><line stroke="rgb(0%,0%,0%)" x1="140.463" x2="139.2247" y1="61.6472" y2="60.2719" /><line stroke="rgb(0%,0%,0%)" x1="139.2247" x2="138.3647" y1="60.2719" y2="59.3168" /><line stroke="rgb(0%,0%,0%)" x1="138.3647" x2="137.4394" y1="59.3168" y2="57.7141" /><line stroke="rgb(0%,0%,0%)" x1="137.4394" x2="136.7968" y1="57.7141" y2="56.6011" /><line stroke="rgb(0%,0%,0%)" x1="136.7968" x2="136.2249" y1="56.6011" y2="54.841" /><line stroke="rgb(0%,0%,0%)" x1="136.2249" x2="135.8278" y1="54.841" y2="53.6187" /><line stroke="rgb(0%,0%,0%)" x1="135.8278" x2="135.6343" y1="53.6187" y2="51.7782" /><line stroke="rgb(0%,0%,0%)" x1="135.6343" x2="135.5" y1="51.7782" y2="50.5" /><line stroke="rgb(0%,0%,0%)" x1="135.5" x2="135.6934" y1="50.5" y2="48.6595" /><line stroke="rgb(0%,0%,0%)" x1="135.6934" x2="135.8278" y1="48.6595" y2="47.3813" /><line stroke="rgb(0%,0%,0%)" x1="135.8278" x2="136.3997" y1="47.3813" y2="45.6213" /><line stroke="rgb(0%,0%,0%)" x1="136.3997" x2="136.7968" y1="45.6213" y2="44.3989" /><line stroke="rgb(0%,0%,0%)" x1="136.7968" x2="137.7221" y1="44.3989" y2="42.7963" /><line stroke="rgb(0%,0%,0%)" x1="137.7221" x2="138.3647" y1="42.7963" y2="41.6832" /><line stroke="rgb(0%,0%,0%)" x1="138.3647" x2="139.603" y1="41.6832" y2="40.308" /><line stroke="rgb(0%,0%,0%)" x1="139.603" x2="140.463" y1="40.308" y2="39.3528" /><line stroke="rgb(0%,0%,0%)" x1="140.463" x2="141.9602" y1="39.3528" y2="38.2651" /><line stroke="rgb(0%,0%,0%)" x1="141.9602" x2="143.0" y1="38.2651" y2="37.5096" /><line stroke="rgb(0%,0%,0%)" x1="143.0" x2="144.6906" y1="37.5096" y2="36.7569" /><line stroke="rgb(0%,0%,0%)" x1="144.6906" x2="145.8647" y1="36.7569" y2="36.2342" /><line stroke="rgb(0%,0%,0%)" x1="145.8647" x2="147.6749" y1="36.2342" y2="35.8494" /><line stroke="rgb(0%,0%,0%)" x1="147.6749" x2="148.9321" y1="35.8494" y2="35.5822" /><line stroke="rgb(0%,0%,0%)" x1="148.9321" x2="150.7827" y1="35.5822" y2="35.5822" /><line stroke="rgb(0%,0%,0%)" x1="150.7827" x2="152.0679" y1="35.5822" y2="35.5822" /><line stroke="rgb(0%,0%,0%)" x1="152.0679" x2="153.8781" y1="35.5822" y2="35.9669" /><line stroke="rgb(0%,0%,0%)" x1="153.8781" x2="155.1353" y1="35.9669" y2="36.2342" /><line stroke="rgb(0%,0%,0%)" x1="155.1353" x2="156.8259" y1="36.2342" y2="36.9869" /><line stroke="rgb(0%,0%,0%)" x1="156.8259" x2="158.0" y1="36.9869" y2="37.5096" /><line stroke="rgb(0%,0%,0%)" x1="158.0" x2="159.4972" y1="37.5096" y2="38.5974" /><line stroke="rgb(0%,0%,0%)" x1="159.4972" x2="160.537" y1="38.5974" y2="39.3528" /><line stroke="rgb(0%,0%,0%)" x1="160.537" x2="161.7753" y1="39.3528" y2="40.7281" /><line stroke="rgb(0%,0%,0%)" x1="161.7753" x2="162.6353" y1="40.7281" y2="41.6832" /><line stroke="rgb(0%,0%,0%)" x1="162.6353" x2="163.5606" y1="41.6832" y2="43.2859" /><line stroke="rgb(0%,0%,0%)" x1="163.5606" x2="164.2032" y1="43.2859" y2="44.3989" /><line stroke="rgb(0%,0%,0%)" x1="164.2032" x2="164.775" y1="44.3989" y2="46.159" /><line stroke="rgb(0%,0%,0%)" x1="164.775" x2="165.1722" y1="46.159" y2="47.3813" /><line stroke="rgb(0%,0%,0%)" x1="65.1722" x2="65.3657" y1="47.3813" y2="49.2218" /><line stroke="rgb(0%,0%,0%)" x1="65.3657" x2="65.5" y1="49.2218" y2="50.5" /><line stroke="rgb(0%,0%,0%)" x1="65.5" x2="65.3066" y1="50.5" y2="52.3405" /><line stroke="rgb(0%,0%,0%)" x1="65.3066" x2="65.1722" y1="52.3405" y2="53.6187" /><line stroke="rgb(0%,0%,0%)" x1="65.1722" x2="64.6003" y1="53.6187" y2="55.3787" /><line stroke="rgb(0%,0%,0%)" x1="64.6003" x2="64.2032" y1="55.3787" y2="56.6011" /><line stroke="rgb(0%,0%,0%)" x1="64.2032" x2="63.2779" y1="56.6011" y2="58.2037" /><line stroke="rgb(0%,0%,0%)" x1="63.2779" x2="62.6352" y1="58.2037" y2="59.3168" /><line stroke="rgb(0%,0%,0%)" x1="62.6352" x2="61.397" y1="59.3168" y2="60.692" /><line stroke="rgb(0%,0%,0%)" x1="61.397" x2="60.537" y1="60.692" y2="61.6472" /><line stroke="rgb(0%,0%,0%)" x1="60.537" x2="59.0398" y1="61.6472" y2="62.7349" /><line stroke="rgb(0%,0%,0%)" x1="59.0398" x2="58.0" y1="62.7349" y2="63.4904" /><line stroke="rgb(0%,0%,0%)" x1="58.0" x2="56.3094" y1="63.4904" y2="64.2431" /><line stroke="rgb(0%,0%,0%)" x1="56.3094" x2="55.1353" y1="64.2431" y2="64.7658" /><line stroke="rgb(0%,0%,0%)" x1="55.1353" x2="53.3251" y1="64.7658" y2="65.1506" /><line stroke="rgb(0%,0%,0%)" x1="53.3251" x2="52.0679" y1="65.1506" y2="65.4178" /><line stroke="rgb(0%,0%,0%)" x1="52.0679" x2="50.2173" y1="65.4178" y2="65.4178" /><line stroke="rgb(0%,0%,0%)" x1="50.2173" x2="48.9321" y1="65.4178" y2="65.4178" /><line stroke="rgb(0%,0%,0%)" x1="48.9321" x2="47.1219" y1="65.4178" y2="65.0331" /><line stroke="rgb(0%,0%,0%)" x1="47.1219" x2="45.8647" y1="65.0331" y2="64.7658" /><line stroke="rgb(0%,0%,0%)" x1="45.8647" x2="44.1741" y1="64.7658" y2="64.0131" /><line stroke="rgb(0%,0%,0%)" x1="44.1741" x2="43.0" y1="64.0131" y2="63.4904" /><line stroke="rgb(0%,0%,0%)" x1="43.0" x2="41.5028" y1="63.4904" y2="62.4026" /><line stroke="rgb(0%,0%,0%)" x1="41.5028" x2="40.463" y1="62.4026" y2="61.6472" /><line stroke="rgb(0%,0%,0%)" x1="40.463" x2="39.2247" y1="61.6472" y2="60.2719" /><line stroke="rgb(0%,0%,0%)" x1="39.2247" x2="38.3647" y1="60.2719" y2="59.3168" /><line stroke="rgb(0%,0%,0%)" x1="38.3647" x2="37.4394" y1="59.3168" y2="57.7141" /><line stroke="rgb(0%,0%,0%)" x1="37.4394" x2="36.7968" y1="57.7141" y2="56.6011" /><line stroke="rgb(0%,0%,0%)" x1="36.7968" x2="36.2249" y1="56.6011" y2="54.841" /><line stroke="rgb(0%,0%,0%)" x1="36.2249" x2="35.8278" y1="54.841" y2="53.6187" /><line stroke="rgb(0%,0%,0%)" x1="35.8278" x2="35.6343" y1="53.6187" y2="51.7782" /><line stroke="rgb(0%,0%,0%)" x1="35.6343" x2="35.5" y1="51.7782" y2="50.5" /><line stroke="rgb(0%,0%,0%)" x1="35.5" x2="35.6934" y1="50.5" y2="48.6595" /><line stroke="rgb(0%,0%,0%)" x1="35.6934" x2="35.8278" y1="48.6595" y2="47.3813" /><line stroke="rgb(0%,0%,0%)" x1="35.8278" x2="36.3996" y1="47.3813" y2="45.6213" /><line stroke="rgb(0%,0%,0%)" x1="36.3996" x2="36.7968" y1="45.6213" y2="44.3989" /><line stroke="rgb(0%,0%,0%)" x1="36.7968" x2="37.7221" y1="44.3989" y2="42.7963" /><line stroke="rgb(0%,0%,0%)" x1="37.7221" x2="38.3647" y1="42.7963" y2="41.6832" /><line stroke="rgb(0%,0%,0%)" x1="38.3647" x2="39.603" y1="41.6832" y2="40.308" /><line stroke="rgb(0%,0%,0%)" x1="39.603" x2="40.463" y1="40.308" y2="39.3528" /><line stroke="rgb(0%,0%,0%)" x1="40.463" x2="41.9602" y1="39.3528" y2="38.2651" /><line stroke="rgb(0%,0%,0%)" x1="41.9602" x2="43.0" y1="38.2651" y2="37.5096" /><line stroke="rgb(0%,0%,0%)" x1="43.0" x2="44.6906" y1="37.5096" y2="36.7569" /><line stroke="rgb(0%,0%,0%)" x1="44.6906" x2="45.8647" y1="36.7569" y2="36.2342" /><line stroke="rgb(0%,0%,0%)" x1="45.8647" x2="47.6749" y1="36.2342" y2="35.8494" /><line stroke="rgb(0%,0%,0%)" x1="47.6749" x2="48.9321" y1="35.8494" y2="35.5822" /><line stroke="rgb(0%,0%,0%)" x1="48.9321" x2="50.7827" y1="35.5822" y2="35.5822" /><line stroke="rgb(0%,0%,0%)" x1="50.7827" x2="52.0679" y1="35.5822" y2="35.5822" /><line stroke="rgb(0%,0%,0%)" x1="52.0679" x2="53.8781" y1="35.5822" y2="35.9669" /><line stroke="rgb(0%,0%,0%)" x1="53.8781" x2="55.1353" y1="35.9669" y2="36.2342" /><line stroke="rgb(0%,0%,0%)" x1="55.1353" x2="56.8259" y1="36.2342" y2="36.9869" /><line stroke="rgb(0%,0%,0%)" x1="56.8259" x2="58.0" y1="36.9869" y2="37.5096" /><line stroke="rgb(0%,0%,0%)" x1="58.0" x2="59.4972" y1="37.5096" y2="38.5974" /><line stroke="rgb(0%,0%,0%)" x1="59.4972" x2="60.537" y1="38.5974" y2="39.3528" /><line stroke="rgb(0%,0%,0%)" x1="60.537" x2="61.7753" y1="39.3528" y2="40.7281" /><line stroke="rgb(0%,0%,0%)" x1="61.7753" x2="62.6352" y1="40.7281" y2="41.6832" /><line stroke="rgb(0%,0%,0%)" x1="62.6352" x2="63.5606" y1="41.6832" y2="43.2859" /><line stroke="rgb(0%,0%,0%)" x1="63.5606" x2="64.2032" y1="43.2859" y2="44.3989" /><line stroke="rgb(0%,0%,0%)" x1="64.2032" x2="64.775" y1="44.3989" y2="46.159" /><line stroke="rgb(0%,0%,0%)" x1="64.775" x2="65.1722" y1="46.159" y2="47.3813" /></svg>