<?xml version="1.0" encoding="utf-8" ?>
<svg baseProfile="tiny" height="100%" version="1.2" width="100%" xmlns="http://www.w3.org/2000/svg" xmlns:ev="http://www.w3.org/2001/xml-events" xmlns:xlink="http://www.w3.org/1999/xlink"><defs /><line stroke="rgb(0%,0%,0%)" x1="203.3702" x2="203.3702" y1="100.5" y2="8.9506" /><line stroke="rgb(0%,0%,0%)" x1="203.3702" x2="203.3702" y1="8.9506" y2="0.5" /><line stroke="rgb(0%,0%,0%)" x1="277.7631" x2="277.7631" y1="100.5" y2="97.3154" /><line stroke="rgb(0%,0%,0%)" x1="277.7631" x2="277.7631" y1="97.3154" y2="0.5" /><line stroke="rgb(0%,0%,0%)" x1="244.6944" x2="203.3702" y1="100.5" y2="100.5" /><line stroke="rgb(0%,0%,0%)" x1="244.6944" x2="257.1417" y1="100.5" y2="100.5" /><line stroke="rgb(0%,0%,0%)" x1="257.1417" x2="276.8956" y1="100.5" y2="100.5" /><line stroke="rgb(0%,0%,0%)" x1="276.8956" x2="277.1849" y1="100.5" y2="100.5" /><line stroke="rgb(0%,0%,0%)" x1="277.1849" x2="277.3305" y1="100.5" y2="100.5" /><line stroke="rgb(0%,0%,0%)" x1="277.3305" x2="277.7631" y1="100.5" y2="100.5" /><line stroke="rgb(0%,0%,0%)" x1="203.3702" x2="244.6944" y1="0.5" y2="0.5" /><line stroke="rgb(0%,0%,0%)" x1="244.6944" x2="257.1417" y1="0.5" y2="0.5" /><line stroke="rgb(0%,0%,0%)" x1="257.1417" x2="276.8956" y1="0.5" y2="0.5" /><line stroke="rgb(0%,0%,0%)" x1="276.8956" x2="277.1849" y1="0.5" y2="0.5" /><line stroke="rgb(0%,0%,0%)" x1="277.1849" x2="277.3305" y1="0.5" y2="0.5" /><line stroke="rgb(0%,0%,0%)" x1="277.3305" x2="277.7631" y1="0.5" y2="0.5" /></svg>