<?xml version="1.0" encoding="utf-8" ?>
<svg baseProfile="tiny" height="100%" version="1.2" width="100%" xmlns="http://www.w3.org/2000/svg" xmlns:ev="http://www.w3.org/2001/xml-events" xmlns:xlink="http://www.w3.org/1999/xlink"><defs /><line stroke="rgb(0%,0%,0%)" x1="203.5384" x2="203.5384" y1="100.5" y2="19.0973" /><line stroke="rgb(0%,0%,0%)" x1="203.5384" x2="203.5384" y1="19.0973" y2="0.5" /><line stroke="rgb(0%,0%,0%)" x1="278.0903" x2="278.0903" y1="100.5" y2="82.4653" /><line stroke="rgb(0%,0%,0%)" x1="278.0903" x2="278.0903" y1="82.4653" y2="0.5" /><line stroke="rgb(0%,0%,0%)" x1="240.2824" x2="203.5384" y1="100.5" y2="100.5" /><line stroke="rgb(0%,0%,0%)" x1="240.2824" x2="254.4774" y1="100.5" y2="100.5" /><line stroke="rgb(0%,0%,0%)" x1="254.4774" x2="273.1775" y1="100.5" y2="100.5" /><line stroke="rgb(0%,0%,0%)" x1="273.1775" x2="274.8156" y1="100.5" y2="100.5" /><line stroke="rgb(0%,0%,0%)" x1="274.8156" x2="275.64" y1="100.5" y2="100.5" /><line stroke="rgb(0%,0%,0%)" x1="275.64" x2="278.0903" y1="100.5" y2="100.5" /><line stroke="rgb(0%,0%,0%)" x1="203.5384" x2="240.2824" y1="0.5" y2="0.5" /><line stroke="rgb(0%,0%,0%)" x1="240.2824" x2="254.4774" y1="0.5" y2="0.5" /><line stroke="rgb(0%,0%,0%)" x1="254.4774" x2="273.1775" y1="0.5" y2="0.5" /><line stroke="rgb(0%,0%,0%)" x1="273.1775" x2="274.8156" y1="0.5" y2="0.5" /><line stroke="rgb(0%,0%,0%)" x1="274.8156" x2="275.64" y1="0.5" y2="0.5" /><line stroke="rgb(0%,0%,0%)" x1="275.64" x2="278.0903" y1="0.5" y2="0.5" /></svg>