<?xml version="1.0" encoding="utf-8" ?>
<svg baseProfile="tiny" height="100%" version="1.2" width="100%" xmlns="http://www.w3.org/2000/svg" xmlns:ev="http://www.w3.org/2001/xml-events" xmlns:xlink="http://www.w3.org/1999/xlink"><defs /><line stroke="rgb(0%,0%,0%)" x1="203.7065" x2="203.7065" y1="100.5" y2="29.2441" /><line stroke="rgb(0%,0%,0%)" x1="203.7065" x2="203.7065" y1="29.2441" y2="0.5" /><line stroke="rgb(0%,0%,0%)" x1="278.4175" x2="278.4175" y1="100.5" y2="67.6152" /><line stroke="rgb(0%,0%,0%)" x1="278.4175" x2="278.4175" y1="67.6152" y2="0.5" /><line stroke="rgb(0%,0%,0%)" x1="235.8704" x2="203.7065" y1="100.5" y2="100.5" /><line stroke="rgb(0%,0%,0%)" x1="235.8704" x2="251.8131" y1="100.5" y2="100.5" /><line stroke="rgb(0%,0%,0%)" x1="251.8131" x2="269.4594" y1="100.5" y2="100.5" /><line stroke="rgb(0%,0%,0%)" x1="269.4594" x2="272.4463" y1="100.5" y2="100.5" /><line stroke="rgb(0%,0%,0%)" x1="272.4463" x2="273.9496" y1="100.5" y2="100.5" /><line stroke="rgb(0%,0%,0%)" x1="273.9496" x2="278.4175" y1="100.5" y2="100.5" /><line stroke="rgb(0%,0%,0%)" x1="203.7065" x2="235.8704" y1="0.5" y2="0.5" /><line stroke="rgb(0%,0%,0%)" x1="235.8704" x2="251.8131" y1="0.5" y2="0.5" /><line stroke="rgb(0%,0%,0%)" x1="251.8131" x2="269.4594" y1="0.5" y2="0.5" /><line stroke="rgb(0%,0%,0%)" x1="269.4594" x2="272.4463" y1="0.5" y2="0.5" /><line stroke="rgb(0%,0%,0%)" x1="272.4463" x2="273.9496" y1="0.5" y2="0.5" /><line stroke="rgb(0%,0%,0%)" x1="273.9496" x2="278.4175" y1="0.5" y2="0.5" /></svg>