<?xml version="1.0" encoding="utf-8" ?>
<svg baseProfile="tiny" height="100%" version="1.2" width="100%" xmlns="http://www.w3.org/2000/svg" xmlns:ev="http://www.w3.org/2001/xml-events" xmlns:xlink="http://www.w3.org/1999/xlink"><defs /><line stroke="rgb(0%,0%,0%)" x1="203.8747" x2="203.8747" y1="100.5" y2="39.3909" /><line stroke="rgb(0%,0%,0%)" x1="203.8747" x2="203.8747" y1="39.3909" y2="0.5" /><line stroke="rgb(0%,0%,0%)" x1="278.7446" x2="278.7446" y1="100.5" y2="52.7651" /><line stroke="rgb(0%,0%,0%)" x1="278.7446" x2="278.7446" y1="52.7651" y2="0.5" /><line stroke="rgb(0%,0%,0%)" x1="231.4585" x2="203.8747" y1="100.5" y2="100.5" /><line stroke="rgb(0%,0%,0%)" x1="231.4585" x2="249.1487" y1="100.5" y2="100.5" /><line stroke="rgb(0%,0%,0%)" x1="249.1487" x2="265.7413" y1="100.5" y2="100.5" /><line stroke="rgb(0%,0%,0%)" x1="265.7413" x2="270.077" y1="100.5" y2="100.5" /><line stroke="rgb(0%,0%,0%)" x1="270.077" x2="272.2591" y1="100.5" y2="100.5" /><line stroke="rgb(0%,0%,0%)" x1="272.2591" x2="278.7446" y1="100.5" y2="100.5" /><line stroke="rgb(0%,0%,0%)" x1="203.8747" x2="231.4585" y1="0.5" y2="0.5" /><line stroke="rgb(0%,0%,0%)" x1="231.4585" x2="249.1487" y1="0.5" y2="0.5" /><line stroke="rgb(0%,0%,0%)" x1="249.1487" x2="265.7413" y1="0.5" y2="0.5" /><line stroke="rgb(0%,0%,0%)" x1="265.7413" x2="270.077" y1="0.5" y2="0.5" /><line stroke="rgb(0%,0%,0%)" x1="270.077" x2="272.2591" y1="0.5" y2="0.5" /><line stroke="rgb(0%,0%,0%)" x1="272.2591" x2="278.7446" y1="0.5" y2="0.5" /></svg>