<?xml version="1.0" encoding="utf-8" ?>
<svg baseProfile="tiny" height="100%" version="1.2" width="100%" xmlns="http://www.w3.org/2000/svg" xmlns:ev="http://www.w3.org/2001/xml-events" xmlns:xlink="http://www.w3.org/1999/xlink"><defs /><line stroke="rgb(0%,0%,0%)" x1="204.0428" x2="204.0428" y1="100.5" y2="49.5377" /><line stroke="rgb(0%,0%,0%)" x1="204.0428" x2="204.0428" y1="49.5377" y2="0.5" /><line stroke="rgb(0%,0%,0%)" x1="279.0718" x2="279.0718" y1="100.5" y2="37.915" /><line stroke="rgb(0%,0%,0%)" x1="279.0718" x2="279.0718" y1="37.915" y2="0.5" /><line stroke="rgb(0%,0%,0%)" x1="227.0465" x2="204.0428" y1="100.5" y2="100.5" /><line stroke="rgb(0%,0%,0%)" x1="227.0465" x2="246.4844" y1="100.5" y2="100.5" /><line stroke="rgb(0%,0%,0%)" x1="246.4844" x2="262.0232" y1="100.5" y2="100.5" /><line stroke="rgb(0%,0%,0%)" x1="262.0232" x2="267.7077" y1="100.5" y2="100.5" /><line stroke="rgb(0%,0%,0%)" x1="267.7077" x2="270.5687" y1="100.5" y2="100.5" /><line stroke="rgb(0%,0%,0%)" x1="270.5687" x2="279.0718" y1="100.5" y2="100.5" /><line stroke="rgb(0%,0%,0%)" x1="204.0428" x2="227.0465" y1="0.5" y2="0.5" /><line stroke="rgb(0%,0%,0%)" x1="227.0465" x2="246.4844" y1="0.5" y2="0.5" /><line stroke="rgb(0%,0%,0%)" x1="246.4844" x2="262.0232" y1="0.5" y2="0.5" /><line stroke="rgb(0%,0%,0%)" x1="262.0232" x2="267.7077" y1="0.5" y2="0.5" /><line stroke="rgb(0%,0%,0%)" x1="267.7077" x2="270.5687" y1="0.5" y2="0.5" /><line stroke="rgb(0%,0%,0%)" x1="270.5687" x2="279.0718" y1="0.5" y2="0.5" /></svg>