<?xml version="1.0" encoding="utf-8" ?>
<svg baseProfile="tiny" height="100%" version="1.2" width="100%" xmlns="http://www.w3.org/2000/svg" xmlns:ev="http://www.w3.org/2001/xml-events" xmlns:xlink="http://www.w3.org/1999/xlink"><defs /><line stroke="rgb(0%,0%,0%)" x1="204.211" x2="204.211" y1="100.5" y2="59.6844" /><line stroke="rgb(0%,0%,0%)" x1="204.211" x2="204.211" y1="59.6844" y2="0.5" /><line stroke="rgb(0%,0%,0%)" x1="279.3989" x2="279.3989" y1="100.5" y2="23.0649" /><line stroke="rgb(0%,0%,0%)" x1="279.3989" x2="279.3989" y1="23.0649" y2="0.5" /><line stroke="rgb(0%,0%,0%)" x1="222.6346" x2="204.211" y1="100.5" y2="100.5" /><line stroke="rgb(0%,0%,0%)" x1="222.6346" x2="243.8201" y1="100.5" y2="100.5" /><line stroke="rgb(0%,0%,0%)" x1="243.8201" x2="258.305" y1="100.5" y2="100.5" /><line stroke="rgb(0%,0%,0%)" x1="258.305" x2="265.3383" y1="100.5" y2="100.5" /><line stroke="rgb(0%,0%,0%)" x1="265.3383" x2="268.8783" y1="100.5" y2="100.5" /><line stroke="rgb(0%,0%,0%)" x1="268.8783" x2="279.3989" y1="100.5" y2="100.5" /><line stroke="rgb(0%,0%,0%)" x1="204.211" x2="222.6346" y1="0.5" y2="0.5" /><line stroke="rgb(0%,0%,0%)" x1="222.6346" x2="243.8201" y1="0.5" y2="0.5" /><line stroke="rgb(0%,0%,0%)" x1="243.8201" x2="258.305" y1="0.5" y2="0.5" /><line stroke="rgb(0%,0%,0%)" x1="258.305" x2="265.3383" y1="0.5" y2="0.5" /><line stroke="rgb(0%,0%,0%)" x1="265.3383" x2="268.8783" y1="0.5" y2="0.5" /><line stroke="rgb(0%,0%,0%)" x1="268.8783" x2="279.3989" y1="0.5" y2="0.5" /></svg>