<?xml version="1.0" encoding="utf-8" ?>
<svg baseProfile="tiny" height="100%" version="1.2" width="100%" xmlns="http://www.w3.org/2000/svg" xmlns:ev="http://www.w3.org/2001/xml-events" xmlns:xlink="http://www.w3.org/1999/xlink"><defs /><line stroke="rgb(0%,0%,0%)" x1="351.9" x2="351.9" y1="0.5" y2="19.0769" /><line stroke="rgb(0%,0%,0%)" x1="351.9" x2="351.9" y1="19.0769" y2="100.5" /><line stroke="rgb(0%,0%,0%)" x1="319.6382" x2="345.071" y1="100.5" y2="100.5" /><line stroke="rgb(0%,0%,0%)" x1="345.071" x2="345.958" y1="100.5" y2="100.5" /><line stroke="rgb(0%,0%,0%)" x1="345.958" x2="346.9713" y1="100.5" y2="100.5" /><line stroke="rgb(0%,0%,0%)" x1="346.9713" x2="348.0959" y1="100.5" y2="100.5" /><line stroke="rgb(0%,0%,0%)" x1="348.0959" x2="349.3106" y1="100.5" y2="100.5" /><line stroke="rgb(0%,0%,0%)" x1="349.3106" x2="350.5889" y1="100.5" y2="100.5" /><line stroke="rgb(0%,0%,0%)" x1="350.5889" x2="351.9" y1="100.5" y2="100.5" /><line stroke="rgb(0%,0%,0%)" x1="319.6382" x2="43.7626" y1="100.5" y2="100.5" /><line stroke="rgb(0%,0%,0%)" x1="43.7626" x2="0.5" y1="100.5" y2="100.5" /><line stroke="rgb(0%,0%,0%)" x1="0.5" x2="43.7626" y1="0.5" y2="0.5" /><line stroke="rgb(0%,0%,0%)" x1="43.7626" x2="319.6382" y1="0.5" y2="0.5" /><line stroke="rgb(0%,0%,0%)" x1="319.6382" x2="345.071" y1="0.5" y2="0.5" /><line stroke="rgb(0%,0%,0%)" x1="345.071" x2="345.958" y1="0.5" y2="0.5" /><line stroke="rgb(0%,0%,0%)" x1="345.958" x2="346.9713" y1="0.5" y2="0.5" /><line stroke="rgb(0%,0%,0%)" x1="346.9713" x2="348.0959" y1="0.5" y2="0.5" /><line stroke="rgb(0%,0%,0%)" x1="348.0959" x2="349.3106" y1="0.5" y2="0.5" /><line stroke="rgb(0%,0%,0%)" x1="349.3106" x2="350.5889" y1="0.5" y2="0.5" /><line stroke="rgb(0%,0%,0%)" x1="350.5889" x2="351.9" y1="0.5" y2="0.5" /><line stroke="rgb(0%,0%,0%)" x1="0.5" x2="0.5" y1="0.5" y2="79.0076" /><line stroke="rgb(0%,0%,0%)" x1="0.5" x2="0.5" y1="79.0076" y2="100.5" /><line stroke="rgb(0%,0%,0%)" x1="165.1722" x2="165.3591" y1="47.3813" y2="49.1594" /><line stroke="rgb(0%,0%,0%)" x1="165.3591" x2="165.5" y1="49.1594" y2="50.5" /><line stroke="rgb(0%,0%,0%)" x1="165.5" x2="165.3131" y1="50.5" y2="52.2781" /><line stroke="rgb(0%,0%,0%)" x1="165.3131" x2="165.1722" y1="52.2781" y2="53.6187" /><line stroke="rgb(0%,0%,0%)" x1="165.1722" x2="164.6197" y1="53.6187" y2="55.3191" /><line stroke="rgb(0%,0%,0%)" x1="164.6197" x2="164.2032" y1="55.3191" y2="56.6011" /><line stroke="rgb(0%,0%,0%)" x1="164.2032" x2="163.3092" y1="56.6011" y2="58.1494" /><line stroke="rgb(0%,0%,0%)" x1="163.3092" x2="162.6353" y1="58.1494" y2="59.3168" /><line stroke="rgb(0%,0%,0%)" x1="162.6353" x2="161.4389" y1="59.3168" y2="60.6455" /><line stroke="rgb(0%,0%,0%)" x1="161.4389" x2="160.537" y1="60.6455" y2="61.6472" /><line stroke="rgb(0%,0%,0%)" x1="160.537" x2="159.0905" y1="61.6472" y2="62.6981" /><line stroke="rgb(0%,0%,0%)" x1="159.0905" x2="158.0" y1="62.6981" y2="63.4904" /><line stroke="rgb(0%,0%,0%)" x1="158.0" x2="156.3667" y1="63.4904" y2="64.2176" /><line stroke="rgb(0%,0%,0%)" x1="156.3667" x2="155.1353" y1="64.2176" y2="64.7658" /><line stroke="rgb(0%,0%,0%)" x1="155.1353" x2="153.3864" y1="64.7658" y2="65.1376" /><line stroke="rgb(0%,0%,0%)" x1="153.3864" x2="152.0679" y1="65.1376" y2="65.4178" /><line stroke="rgb(0%,0%,0%)" x1="152.0679" x2="150.28" y1="65.4178" y2="65.4178" /><line stroke="rgb(0%,0%,0%)" x1="150.28" x2="148.9321" y1="65.4178" y2="65.4178" /><line stroke="rgb(0%,0%,0%)" x1="148.9321" x2="147.1832" y1="65.4178" y2="65.0461" /><line stroke="rgb(0%,0%,0%)" x1="147.1832" x2="145.8647" y1="65.0461" y2="64.7658" /><line stroke="rgb(0%,0%,0%)" x1="145.8647" x2="144.2314" y1="64.7658" y2="64.0386" /><line stroke="rgb(0%,0%,0%)" x1="144.2314" x2="143.0" y1="64.0386" y2="63.4904" /><line stroke="rgb(0%,0%,0%)" x1="143.0" x2="141.5535" y1="63.4904" y2="62.4395" /><line stroke="rgb(0%,0%,0%)" x1="141.5535" x2="140.463" y1="62.4395" y2="61.6472" /><line stroke="rgb(0%,0%,0%)" x1="140.463" x2="139.2667" y1="61.6472" y2="60.3185" /><line stroke="rgb(0%,0%,0%)" x1="139.2667" x2="138.3647" y1="60.3185" y2="59.3168" /><line stroke="rgb(0%,0%,0%)" x1="138.3647" x2="137.4708" y1="59.3168" y2="57.7684" /><line stroke="rgb(0%,0%,0%)" x1="137.4708" x2="136.7968" y1="57.7684" y2="56.6011" /><line stroke="rgb(0%,0%,0%)" x1="136.7968" x2="136.2443" y1="56.6011" y2="54.9006" /><line stroke="rgb(0%,0%,0%)" x1="136.2443" x2="135.8278" y1="54.9006" y2="53.6187" /><line stroke="rgb(0%,0%,0%)" x1="135.8278" x2="135.6409" y1="53.6187" y2="51.8406" /><line stroke="rgb(0%,0%,0%)" x1="135.6409" x2="135.5" y1="51.8406" y2="50.5" /><line stroke="rgb(0%,0%,0%)" x1="135.5" x2="135.6869" y1="50.5" y2="48.7219" /><line stroke="rgb(0%,0%,0%)" x1="135.6869" x2="135.8278" y1="48.7219" y2="47.3813" /><line stroke="rgb(0%,0%,0%)" x1="135.8278" x2="136.3803" y1="47.3813" y2="45.6809" /><line stroke="rgb(0%,0%,0%)" x1="136.3803" x2="136.7968" y1="45.6809" y2="44.3989" /><line stroke="rgb(0%,0%,0%)" x1="136.7968" x2="137.6908" y1="44.3989" y2="42.8506" /><line stroke="rgb(0%,0%,0%)" x1="137.6908" x2="138.3647" y1="42.8506" y2="41.6832" /><line stroke="rgb(0%,0%,0%)" x1="138.3647" x2="139.5611" y1="41.6832" y2="40.3545" /><line stroke="rgb(0%,0%,0%)" x1="139.5611" x2="140.463" y1="40.3545" y2="39.3528" /><line stroke="rgb(0%,0%,0%)" x1="140.463" x2="141.9095" y1="39.3528" y2="38.3019" /><line stroke="rgb(0%,0%,0%)" x1="141.9095" x2="143.0" y1="38.3019" y2="37.5096" /><line stroke="rgb(0%,0%,0%)" x1="143.0" x2="144.6333" y1="37.5096" y2="36.7824" /><line stroke="rgb(0%,0%,0%)" x1="144.6333" x2="145.8647" y1="36.7824" y2="36.2342" /><line stroke="rgb(0%,0%,0%)" x1="145.8647" x2="147.6136" y1="36.2342" y2="35.8624" /><line stroke="rgb(0%,0%,0%)" x1="147.6136" x2="148.9321" y1="35.8624" y2="35.5822" /><line stroke="rgb(0%,0%,0%)" x1="148.9321" x2="150.72" y1="35.5822" y2="35.5822" /><line stroke="rgb(0%,0%,0%)" x1="150.72" x2="152.0679" y1="35.5822" y2="35.5822" /><line stroke="rgb(0%,0%,0%)" x1="152.0679" x2="153.8168" y1="35.5822" y2="35.9539" /><line stroke="rgb(0%,0%,0%)" x1="153.8168" x2="155.1353" y1="35.9539" y2="36.2342" /><line stroke="rgb(0%,0%,0%)" x1="155.1353" x2="156.7686" y1="36.2342" y2="36.9614" /><line stroke="rgb(0%,0%,0%)" x1="156.7686" x2="158.0" y1="36.9614" y2="37.5096" /><line stroke="rgb(0%,0%,0%)" x1="158.0" x2="159.4464" y1="37.5096" y2="38.5605" /><line stroke="rgb(0%,0%,0%)" x1="159.4464" x2="160.537" y1="38.5605" y2="39.3528" /><line stroke="rgb(0%,0%,0%)" x1="160.537" x2="161.7333" y1="39.3528" y2="40.6815" /><line stroke="rgb(0%,0%,0%)" x1="161.7333" x2="162.6353" y1="40.6815" y2="41.6832" /><line stroke="rgb(0%,0%,0%)" x1="162.6353" x2="163.5292" y1="41.6832" y2="43.2316" /><line stroke="rgb(0%,0%,0%)" x1="163.5292" x2="164.2032" y1="43.2316" y2="44.3989" /><line stroke="rgb(0%,0%,0%)" x1="164.2032" x2="164.7557" y1="44.3989" y2="46.0994" /><line stroke="rgb(0%,0%,0%)" x1="164.7557" x2="165.1722" y1="46.0994" y2="47.3813" /><line stroke="rgb(0%,0%,0%)" x1="65.1722" x2="65.3591" y1="47.3813" y2="49.1594" /><line stroke="rgb(0%,0%,0%)" x1="65.3591" x2="65.5" y1="49.1594" y2="50.5" /><line stroke="rgb(0%,0%,0%)" x1="65.5" x2="65.3131" y1="50.5" y2="52.2781" /><line stroke="rgb(0%,0%,0%)" x1="65.3131" x2="65.1722" y1="52.2781" y2="53.6187" /><line stroke="rgb(0%,0%,0%)" x1="65.1722" x2="64.6197" y1="53.6187" y2="55.3191" /><line stroke="rgb(0%,0%,0%)" x1="64.6197" x2="64.2032" y1="55.3191" y2="56.6011" /><line stroke="rgb(0%,0%,0%)" x1="64.2032" x2="63.3092" y1="56.6011" y2="58.1494" /><line stroke="rgb(0%,0%,0%)" x1="63.3092" x2="62.6352" y1="58.1494" y2="59.3168" /><line stroke="rgb(0%,0%,0%)" x1="62.6352" x2="61.4389" y1="59.3168" y2="60.6455" /><line stroke="rgb(0%,0%,0%)" x1="61.4389" x2="60.537" y1="60.6455" y2="61.6472" /><line stroke="rgb(0%,0%,0%)" x1="60.537" x2="59.0905" y1="61.6472" y2="62.6981" /><line stroke="rgb(0%,0%,0%)" x1="59.0905" x2="58.0" y1="62.6981" y2="63.4904" /><line stroke="rgb(0%,0%,0%)" x1="58.0" x2="56.3667" y1="63.4904" y2="64.2176" /><line stroke="rgb(0%,0%,0%)" x1="56.3667" x2="55.1353" y1="64.2176" y2="64.7658" /><line stroke="rgb(0%,0%,0%)" x1="55.1353" x2="53.3864" y1="64.7658" y2="65.1376" /><line stroke="rgb(0%,0%,0%)" x1="53.3864" x2="52.0679" y1="65.1376" y2="65.4178" /><line stroke="rgb(0%,0%,0%)" x1="52.0679" x2="50.28" y1="65.4178" y2="65.4178" /><line stroke="rgb(0%,0%,0%)" x1="50.28" x2="48.9321" y1="65.4178" y2="65.4178" /><line stroke="rgb(0%,0%,0%)" x1="48.9321" x2="47.1832" y1="65.4178" y2="65.0461" /><line stroke="rgb(0%,0%,0%)" x1="47.1832" x2="45.8647" y1="65.0461" y2="64.7658" /><line stroke="rgb(0%,0%,0%)" x1="45.8647" x2="44.2314" y1="64.7658" y2="64.0386" /><line stroke="rgb(0%,0%,0%)" x1="44.2314" x2="43.0" y1="64.0386" y2="63.4904" /><line stroke="rgb(0%,0%,0%)" x1="43.0" x2="41.5535" y1="63.4904" y2="62.4395" /><line stroke="rgb(0%,0%,0%)" x1="41.5535" x2="40.463" y1="62.4395" y2="61.6472" /><line stroke="rgb(0%,0%,0%)" x1="40.463" x2="39.2667" y1="61.6472" y2="60.3185" /><line stroke="rgb(0%,0%,0%)" x1="39.2667" x2="38.3647" y1="60.3185" y2="59.3168" /><line stroke="rgb(0%,0%,0%)" x1="38.3647" x2="37.4708" y1="59.3168" y2="57.7684" /><line stroke="rgb(0%,0%,0%)" x1="37.4708" x2="36.7968" y1="57.7684" y2="56.6011" /><line stroke="rgb(0%,0%,0%)" x1="36.7968" x2="36.2443" y1="56.6011" y2="54.9006" /><line stroke="rgb(0%,0%,0%)" x1="36.2443" x2="35.8278" y1="54.9006" y2="53.6187" /><line stroke="rgb(0%,0%,0%)" x1="35.8278" x2="35.6409" y1="53.6187" y2="51.8406" /><line stroke="rgb(0%,0%,0%)" x1="35.6409" x2="35.5" y1="51.8406" y2="50.5" /><line stroke="rgb(0%,0%,0%)" x1="35.5" x2="35.6869" y1="50.5" y2="48.7219" /><line stroke="rgb(0%,0%,0%)" x1="35.6869" x2="35.8278" y1="48.7219" y2="47.3813" /><line stroke="rgb(0%,0%,0%)" x1="35.8278" x2="36.3803" y1="47.3813" y2="45.6809" /><line stroke="rgb(0%,0%,0%)" x1="36.3803" x2="36.7968" y1="45.6809" y2="44.3989" /><line stroke="rgb(0%,0%,0%)" x1="36.7968" x2="37.6908" y1="44.3989" y2="42.8506" /><line stroke="rgb(0%,0%,0%)" x1="37.6908" x2="38.3647" y1="42.8506" y2="41.6832" /><line stroke="rgb(0%,0%,0%)" x1="38.3647" x2="39.5611" y1="41.6832" y2="40.3545" /><line stroke="rgb(0%,0%,0%)" x1="39.5611" x2="40.463" y1="40.3545" y2="39.3528" /><line stroke="rgb(0%,0%,0%)" x1="40.463" x2="41.9095" y1="39.3528" y2="38.3019" /><line stroke="rgb(0%,0%,0%)" x1="41.9095" x2="43.0" y1="38.3019" y2="37.5096" /><line stroke="rgb(0%,0%,0%)" x1="43.0" x2="44.6333" y1="37.5096" y2="36.7824" /><line stroke="rgb(0%,0%,0%)" x1="44.6333" x2="45.8647" y1="36.7824" y2="36.2342" /><line stroke="rgb(0%,0%,0%)" x1="45.8647" x2="47.6136" y1="36.2342" y2="35.8624" /><line stroke="rgb(0%,0%,0%)" x1="47.6136" x2="48.9321" y1="35.8624" y2="35.5822" /><line stroke="rgb(0%,0%,0%)" x1="48.9321" x2="50.72" y1="35.5822" y2="35.5822" /><line stroke="rgb(0%,0%,0%)" x1="50.72" x2="52.0679" y1="35.5822" y2="35.5822" /><line stroke="rgb(0%,0%,0%)" x1="52.0679" x2="53.8168" y1="35.5822" y2="35.9539" /><line stroke="rgb(0%,0%,0%)" x1="53.8168" x2="55.1353" y1="35.9539" y2="36.2342" /><line stroke="rgb(0%,0%,0%)" x1="55.1353" x2="56.7686" y1="36.2342" y2="36.9614" /><line stroke="rgb(0%,0%,0%)" x1="56.7686" x2="58.0" y1="36.9614" y2="37.5096" /><line stroke="rgb(0%,0%,0%)" x1="58.0" x2="59.4465" y1="37.5096" y2="38.5605" /><line stroke="rgb(0%,0%,0%)" x1="59.4465" x2="60.537" y1="38.5605" y2="39.3528" /><line stroke="rgb(0%,0%,0%)" x1="60.537" x2="61.7333" y1="39.3528" y2="40.6815" /><line stroke="rgb(0%,0%,0%)" x1="61.7333" x2="62.6352" y1="40.6815" y2="41.6832" /><line stroke="rgb(0%,0%,0%)" x1="62.6352" x2="63.5292" y1="41.6832" y2="43.2316" /><line stroke="rgb(0%,0%,0%)" x1="63.5292" x2="64.2032" y1="43.2316" y2="44.3989" /><line stroke="rgb(0%,0%,0%)" x1="64.2032" x2="64.7557" y1="44.3989" y2="46.0994" /><line stroke="rgb(0%,0%,0%)" x1="64.7557" x2="65.1722" y1="46.0994" y2="47.3813" /></svg>