<?xml version="1.0" encoding="utf-8" ?>
<svg baseProfile="tiny" height="100%" version="1.2" width="100%" xmlns="http://www.w3.org/2000/svg" xmlns:ev="http://www.w3.org/2001/xml-events" xmlns:xlink="http://www.w3.org/1999/xlink"><defs /><line stroke="rgb(0%,0%,0%)" x1="204.3791" x2="204.3791" y1="100.5" y2="69.8312" /><line stroke="rgb(0%,0%,0%)" x1="204.3791" x2="204.3791" y1="69.8312" y2="0.5" /><line stroke="rgb(0%,0%,0%)" x1="279.7261" x2="279.7261" y1="100.5" y2="8.2148" /><line stroke="rgb(0%,0%,0%)" x1="279.7261" x2="279.7261" y1="8.2148" y2="0.5" /><line stroke="rgb(0%,0%,0%)" x1="218.2226" x2="204.3791" y1="100.5" y2="100.5" /><line stroke="rgb(0%,0%,0%)" x1="218.2226" x2="241.1557" y1="100.5" y2="100.5" /><line stroke="rgb(0%,0%,0%)" x1="241.1557" x2="254.5869" y1="100.5" y2="100.5" /><line stroke="rgb(0%,0%,0%)" x1="254.5869" x2="262.969" y1="100.5" y2="100.5" /><line stroke="rgb(0%,0%,0%)" x1="262.969" x2="267.1878" y1="100.5" y2="100.5" /><line stroke="rgb(0%,0%,0%)" x1="267.1878" x2="279.7261" y1="100.5" y2="100.5" /><line stroke="rgb(0%,0%,0%)" x1="204.3791" x2="218.2226" y1="0.5" y2="0.5" /><line stroke="rgb(0%,0%,0%)" x1="218.2226" x2="241.1557" y1="0.5" y2="0.5" /><line stroke="rgb(0%,0%,0%)" x1="241.1557" x2="254.5869" y1="0.5" y2="0.5" /><line stroke="rgb(0%,0%,0%)" x1="254.5869" x2="262.969" y1="0.5" y2="0.5" /><line stroke="rgb(0%,0%,0%)" x1="262.969" x2="267.1878" y1="0.5" y2="0.5" /><line stroke="rgb(0%,0%,0%)" x1="267.1878" x2="279.7261" y1="0.5" y2="0.5" /></svg>