<?xml version="1.0" encoding="utf-8" ?>
<svg baseProfile="tiny" height="100%" version="1.2" width="100%" xmlns="http://www.w3.org/2000/svg" xmlns:ev="http://www.w3.org/2001/xml-events" xmlns:xlink="http://www.w3.org/1999/xlink"><defs /><line stroke="rgb(0%,0%,0%)" x1="204.5473" x2="204.5473" y1="100.5" y2="79.978" /><line stroke="rgb(0%,0%,0%)" x1="204.5473" x2="204.5473" y1="79.978" y2="0.5" /><line stroke="rgb(0%,0%,0%)" x1="280.1039" x2="280.1039" y1="100.5" y2="93.1113" /><line stroke="rgb(0%,0%,0%)" x1="280.1039" x2="280.1039" y1="93.1113" y2="0.5" /><line stroke="rgb(0%,0%,0%)" x1="213.8106" x2="204.5473" y1="100.5" y2="100.5" /><line stroke="rgb(0%,0%,0%)" x1="213.8106" x2="238.4914" y1="100.5" y2="100.5" /><line stroke="rgb(0%,0%,0%)" x1="238.4914" x2="250.8688" y1="100.5" y2="100.5" /><line stroke="rgb(0%,0%,0%)" x1="250.8688" x2="260.5997" y1="100.5" y2="100.5" /><line stroke="rgb(0%,0%,0%)" x1="260.5997" x2="265.4974" y1="100.5" y2="100.5" /><line stroke="rgb(0%,0%,0%)" x1="265.4974" x2="278.874" y1="100.5" y2="100.5" /><line stroke="rgb(0%,0%,0%)" x1="278.874" x2="279.1549" y1="100.5" y2="100.5" /><line stroke="rgb(0%,0%,0%)" x1="279.1549" x2="280.1039" y1="100.5" y2="100.5" /><line stroke="rgb(0%,0%,0%)" x1="204.5473" x2="213.8106" y1="0.5" y2="0.5" /><line stroke="rgb(0%,0%,0%)" x1="213.8106" x2="238.4914" y1="0.5" y2="0.5" /><line stroke="rgb(0%,0%,0%)" x1="238.4914" x2="250.8688" y1="0.5" y2="0.5" /><line stroke="rgb(0%,0%,0%)" x1="250.8688" x2="260.5997" y1="0.5" y2="0.5" /><line stroke="rgb(0%,0%,0%)" x1="260.5997" x2="265.4974" y1="0.5" y2="0.5" /><line stroke="rgb(0%,0%,0%)" x1="265.4974" x2="278.874" y1="0.5" y2="0.5" /><line stroke="rgb(0%,0%,0%)" x1="278.874" x2="279.1549" y1="0.5" y2="0.5" /><line stroke="rgb(0%,0%,0%)" x1="279.1549" x2="280.1039" y1="0.5" y2="0.5" /></svg>