<?xml version="1.0" encoding="utf-8" ?>
<svg baseProfile="tiny" height="100%" version="1.2" width="100%" xmlns="http://www.w3.org/2000/svg" xmlns:ev="http://www.w3.org/2001/xml-events" xmlns:xlink="http://www.w3.org/1999/xlink"><defs /><line stroke="rgb(0%,0%,0%)" x1="204.7154" x2="204.7154" y1="100.5" y2="90.1248" /><line stroke="rgb(0%,0%,0%)" x1="204.7154" x2="204.7154" y1="90.1248" y2="0.5" /><line stroke="rgb(0%,0%,0%)" x1="280.5364" x2="280.5364" y1="100.5" y2="77.7336" /><line stroke="rgb(0%,0%,0%)" x1="280.5364" x2="280.5364" y1="77.7336" y2="0.5" /><line stroke="rgb(0%,0%,0%)" x1="209.3987" x2="204.7154" y1="100.5" y2="100.5" /><line stroke="rgb(0%,0%,0%)" x1="209.3987" x2="235.8271" y1="100.5" y2="100.5" /><line stroke="rgb(0%,0%,0%)" x1="235.8271" x2="247.1507" y1="100.5" y2="100.5" /><line stroke="rgb(0%,0%,0%)" x1="247.1507" x2="258.2304" y1="100.5" y2="100.5" /><line stroke="rgb(0%,0%,0%)" x1="258.2304" x2="263.807" y1="100.5" y2="100.5" /><line stroke="rgb(0%,0%,0%)" x1="263.807" x2="276.7467" y1="100.5" y2="100.5" /><line stroke="rgb(0%,0%,0%)" x1="276.7467" x2="277.6124" y1="100.5" y2="100.5" /><line stroke="rgb(0%,0%,0%)" x1="277.6124" x2="280.5364" y1="100.5" y2="100.5" /><line stroke="rgb(0%,0%,0%)" x1="204.7154" x2="209.3987" y1="0.5" y2="0.5" /><line stroke="rgb(0%,0%,0%)" x1="209.3987" x2="235.8271" y1="0.5" y2="0.5" /><line stroke="rgb(0%,0%,0%)" x1="235.8271" x2="247.1507" y1="0.5" y2="0.5" /><line stroke="rgb(0%,0%,0%)" x1="247.1507" x2="258.2304" y1="0.5" y2="0.5" /><line stroke="rgb(0%,0%,0%)" x1="258.2304" x2="263.807" y1="0.5" y2="0.5" /><line stroke="rgb(0%,0%,0%)" x1="263.807" x2="276.7467" y1="0.5" y2="0.5" /><line stroke="rgb(0%,0%,0%)" x1="276.7467" x2="277.6124" y1="0.5" y2="0.5" /><line stroke="rgb(0%,0%,0%)" x1="277.6124" x2="280.5364" y1="0.5" y2="0.5" /></svg>