<?xml version="1.0" encoding="utf-8" ?>
<svg baseProfile="tiny" height="100%" version="1.2" width="100%" xmlns="http://www.w3.org/2000/svg" xmlns:ev="http://www.w3.org/2001/xml-events" xmlns:xlink="http://www.w3.org/1999/xlink"><defs /><line stroke="rgb(0%,0%,0%)" x1="204.8836" x2="204.8836" y1="100.5" y2="100.2715" /><line stroke="rgb(0%,0%,0%)" x1="204.8836" x2="204.8836" y1="100.2715" y2="0.5" /><line stroke="rgb(0%,0%,0%)" x1="280.969" x2="280.969" y1="100.5" y2="62.356" /><line stroke="rgb(0%,0%,0%)" x1="280.969" x2="280.969" y1="62.356" y2="0.5" /><line stroke="rgb(0%,0%,0%)" x1="204.9867" x2="204.8836" y1="100.5" y2="100.5" /><line stroke="rgb(0%,0%,0%)" x1="204.9867" x2="233.1627" y1="100.5" y2="100.5" /><line stroke="rgb(0%,0%,0%)" x1="233.1627" x2="243.4326" y1="100.5" y2="100.5" /><line stroke="rgb(0%,0%,0%)" x1="243.4326" x2="255.8611" y1="100.5" y2="100.5" /><line stroke="rgb(0%,0%,0%)" x1="255.8611" x2="262.1165" y1="100.5" y2="100.5" /><line stroke="rgb(0%,0%,0%)" x1="262.1165" x2="274.6195" y1="100.5" y2="100.5" /><line stroke="rgb(0%,0%,0%)" x1="274.6195" x2="276.0698" y1="100.5" y2="100.5" /><line stroke="rgb(0%,0%,0%)" x1="276.0698" x2="280.969" y1="100.5" y2="100.5" /><line stroke="rgb(0%,0%,0%)" x1="204.8836" x2="204.9867" y1="0.5" y2="0.5" /><line stroke="rgb(0%,0%,0%)" x1="204.9867" x2="233.1627" y1="0.5" y2="0.5" /><line stroke="rgb(0%,0%,0%)" x1="233.1627" x2="243.4326" y1="0.5" y2="0.5" /><line stroke="rgb(0%,0%,0%)" x1="243.4326" x2="255.8611" y1="0.5" y2="0.5" /><line stroke="rgb(0%,0%,0%)" x1="255.8611" x2="262.1165" y1="0.5" y2="0.5" /><line stroke="rgb(0%,0%,0%)" x1="262.1165" x2="274.6195" y1="0.5" y2="0.5" /><line stroke="rgb(0%,0%,0%)" x1="274.6195" x2="276.0698" y1="0.5" y2="0.5" /><line stroke="rgb(0%,0%,0%)" x1="276.0698" x2="280.969" y1="0.5" y2="0.5" /></svg>