<?xml version="1.0" encoding="utf-8" ?>
<svg baseProfile="tiny" height="100%" version="1.2" width="100%" xmlns="http://www.w3.org/2000/svg" xmlns:ev="http://www.w3.org/2001/xml-events" xmlns:xlink="http://www.w3.org/1999/xlink"><defs /><line stroke="rgb(0%,0%,0%)" x1="205.1196" x2="205.1196" y1="100.5" y2="10.5532" /><line stroke="rgb(0%,0%,0%)" x1="205.1196" x2="205.1196" y1="10.5532" y2="0.5" /><line stroke="rgb(0%,0%,0%)" x1="281.4015" x2="281.4015" y1="100.5" y2="46.9784" /><line stroke="rgb(0%,0%,0%)" x1="281.4015" x2="281.4015" y1="46.9784" y2="0.5" /><line stroke="rgb(0%,0%,0%)" x1="230.4984" x2="205.1196" y1="100.5" y2="100.5" /><line stroke="rgb(0%,0%,0%)" x1="230.4984" x2="239.7144" y1="100.5" y2="100.5" /><line stroke="rgb(0%,0%,0%)" x1="239.7144" x2="253.4918" y1="100.5" y2="100.5" /><line stroke="rgb(0%,0%,0%)" x1="253.4918" x2="260.4261" y1="100.5" y2="100.5" /><line stroke="rgb(0%,0%,0%)" x1="260.4261" x2="272.4922" y1="100.5" y2="100.5" /><line stroke="rgb(0%,0%,0%)" x1="272.4922" x2="274.5273" y1="100.5" y2="100.5" /><line stroke="rgb(0%,0%,0%)" x1="274.5273" x2="281.4015" y1="100.5" y2="100.5" /><line stroke="rgb(0%,0%,0%)" x1="205.1196" x2="230.4984" y1="0.5" y2="0.5" /><line stroke="rgb(0%,0%,0%)" x1="230.4984" x2="239.7144" y1="0.5" y2="0.5" /><line stroke="rgb(0%,0%,0%)" x1="239.7144" x2="253.4918" y1="0.5" y2="0.5" /><line stroke="rgb(0%,0%,0%)" x1="253.4918" x2="260.4261" y1="0.5" y2="0.5" /><line stroke="rgb(0%,0%,0%)" x1="260.4261" x2="272.4922" y1="0.5" y2="0.5" /><line stroke="rgb(0%,0%,0%)" x1="272.4922" x2="274.5273" y1="0.5" y2="0.5" /><line stroke="rgb(0%,0%,0%)" x1="274.5273" x2="281.4015" y1="0.5" y2="0.5" /></svg>