<?xml version="1.0" encoding="utf-8" ?>
<svg baseProfile="tiny" height="100%" version="1.2" width="100%" xmlns="http://www.w3.org/2000/svg" xmlns:ev="http://www.w3.org/2001/xml-events" xmlns:xlink="http://www.w3.org/1999/xlink"><defs /><line stroke="rgb(0%,0%,0%)" x1="205.3571" x2="205.3571" y1="100.5" y2="20.8379" /><line stroke="rgb(0%,0%,0%)" x1="205.3571" x2="205.3571" y1="20.8379" y2="0.5" /><line stroke="rgb(0%,0%,0%)" x1="281.834" x2="281.834" y1="100.5" y2="31.6007" /><line stroke="rgb(0%,0%,0%)" x1="281.834" x2="281.834" y1="31.6007" y2="0.5" /><line stroke="rgb(0%,0%,0%)" x1="227.8341" x2="205.3571" y1="100.5" y2="100.5" /><line stroke="rgb(0%,0%,0%)" x1="227.8341" x2="235.9963" y1="100.5" y2="100.5" /><line stroke="rgb(0%,0%,0%)" x1="235.9963" x2="251.1225" y1="100.5" y2="100.5" /><line stroke="rgb(0%,0%,0%)" x1="251.1225" x2="258.7356" y1="100.5" y2="100.5" /><line stroke="rgb(0%,0%,0%)" x1="258.7356" x2="270.365" y1="100.5" y2="100.5" /><line stroke="rgb(0%,0%,0%)" x1="270.365" x2="272.9847" y1="100.5" y2="100.5" /><line stroke="rgb(0%,0%,0%)" x1="272.9847" x2="281.834" y1="100.5" y2="100.5" /><line stroke="rgb(0%,0%,0%)" x1="205.3571" x2="227.8341" y1="0.5" y2="0.5" /><line stroke="rgb(0%,0%,0%)" x1="227.8341" x2="235.9963" y1="0.5" y2="0.5" /><line stroke="rgb(0%,0%,0%)" x1="235.9963" x2="251.1225" y1="0.5" y2="0.5" /><line stroke="rgb(0%,0%,0%)" x1="251.1225" x2="258.7356" y1="0.5" y2="0.5" /><line stroke="rgb(0%,0%,0%)" x1="258.7356" x2="270.365" y1="0.5" y2="0.5" /><line stroke="rgb(0%,0%,0%)" x1="270.365" x2="272.9847" y1="0.5" y2="0.5" /><line stroke="rgb(0%,0%,0%)" x1="272.9847" x2="281.834" y1="0.5" y2="0.5" /></svg>