<?xml version="1.0" encoding="utf-8" ?>
<svg baseProfile="tiny" height="100%" version="1.2" width="100%" xmlns="http://www.w3.org/2000/svg" xmlns:ev="http://www.w3.org/2001/xml-events" xmlns:xlink="http://www.w3.org/1999/xlink"><defs /><line stroke="rgb(0%,0%,0%)" x1="205.5947" x2="205.5947" y1="100.5" y2="31.1227" /><line stroke="rgb(0%,0%,0%)" x1="205.5947" x2="205.5947" y1="31.1227" y2="0.5" /><line stroke="rgb(0%,0%,0%)" x1="282.2666" x2="282.2666" y1="100.5" y2="16.2231" /><line stroke="rgb(0%,0%,0%)" x1="282.2666" x2="282.2666" y1="16.2231" y2="0.5" /><line stroke="rgb(0%,0%,0%)" x1="225.1697" x2="205.5947" y1="100.5" y2="100.5" /><line stroke="rgb(0%,0%,0%)" x1="225.1697" x2="232.2782" y1="100.5" y2="100.5" /><line stroke="rgb(0%,0%,0%)" x1="232.2782" x2="248.7532" y1="100.5" y2="100.5" /><line stroke="rgb(0%,0%,0%)" x1="248.7532" x2="257.0452" y1="100.5" y2="100.5" /><line stroke="rgb(0%,0%,0%)" x1="257.0452" x2="268.2377" y1="100.5" y2="100.5" /><line stroke="rgb(0%,0%,0%)" x1="268.2377" x2="271.4422" y1="100.5" y2="100.5" /><line stroke="rgb(0%,0%,0%)" x1="271.4422" x2="282.2666" y1="100.5" y2="100.5" /><line stroke="rgb(0%,0%,0%)" x1="205.5947" x2="225.1697" y1="0.5" y2="0.5" /><line stroke="rgb(0%,0%,0%)" x1="225.1697" x2="232.2782" y1="0.5" y2="0.5" /><line stroke="rgb(0%,0%,0%)" x1="232.2782" x2="248.7532" y1="0.5" y2="0.5" /><line stroke="rgb(0%,0%,0%)" x1="248.7532" x2="257.0452" y1="0.5" y2="0.5" /><line stroke="rgb(0%,0%,0%)" x1="257.0452" x2="268.2377" y1="0.5" y2="0.5" /><line stroke="rgb(0%,0%,0%)" x1="268.2377" x2="271.4422" y1="0.5" y2="0.5" /><line stroke="rgb(0%,0%,0%)" x1="271.4422" x2="282.2666" y1="0.5" y2="0.5" /></svg>