<?xml version="1.0" encoding="utf-8" ?>
<svg baseProfile="tiny" height="100%" version="1.2" width="100%" xmlns="http://www.w3.org/2000/svg" xmlns:ev="http://www.w3.org/2001/xml-events" xmlns:xlink="http://www.w3.org/1999/xlink"><defs /><line stroke="rgb(0%,0%,0%)" x1="205.8322" x2="205.8322" y1="100.5" y2="41.4075" /><line stroke="rgb(0%,0%,0%)" x1="205.8322" x2="205.8322" y1="41.4075" y2="0.5" /><line stroke="rgb(0%,0%,0%)" x1="282.6991" x2="282.6991" y1="100.5" y2="0.8455" /><line stroke="rgb(0%,0%,0%)" x1="282.6991" x2="282.6991" y1="0.8455" y2="0.5" /><line stroke="rgb(0%,0%,0%)" x1="222.5054" x2="205.8322" y1="100.5" y2="100.5" /><line stroke="rgb(0%,0%,0%)" x1="222.5054" x2="228.5601" y1="100.5" y2="100.5" /><line stroke="rgb(0%,0%,0%)" x1="228.5601" x2="246.3839" y1="100.5" y2="100.5" /><line stroke="rgb(0%,0%,0%)" x1="246.3839" x2="255.3548" y1="100.5" y2="100.5" /><line stroke="rgb(0%,0%,0%)" x1="255.3548" x2="266.1105" y1="100.5" y2="100.5" /><line stroke="rgb(0%,0%,0%)" x1="266.1105" x2="269.8997" y1="100.5" y2="100.5" /><line stroke="rgb(0%,0%,0%)" x1="269.8997" x2="282.6991" y1="100.5" y2="100.5" /><line stroke="rgb(0%,0%,0%)" x1="205.8322" x2="222.5054" y1="0.5" y2="0.5" /><line stroke="rgb(0%,0%,0%)" x1="222.5054" x2="228.5601" y1="0.5" y2="0.5" /><line stroke="rgb(0%,0%,0%)" x1="228.5601" x2="246.3839" y1="0.5" y2="0.5" /><line stroke="rgb(0%,0%,0%)" x1="246.3839" x2="255.3548" y1="0.5" y2="0.5" /><line stroke="rgb(0%,0%,0%)" x1="255.3548" x2="266.1105" y1="0.5" y2="0.5" /><line stroke="rgb(0%,0%,0%)" x1="266.1105" x2="269.8997" y1="0.5" y2="0.5" /><line stroke="rgb(0%,0%,0%)" x1="269.8997" x2="282.6991" y1="0.5" y2="0.5" /></svg>