<?xml version="1.0" encoding="utf-8" ?>
<svg baseProfile="tiny" height="100%" version="1.2" width="100%" xmlns="http://www.w3.org/2000/svg" xmlns:ev="http://www.w3.org/2001/xml-events" xmlns:xlink="http://www.w3.org/1999/xlink"><defs /><line stroke="rgb(0%,0%,0%)" x1="206.0698" x2="206.0698" y1="100.5" y2="51.6922" /><line stroke="rgb(0%,0%,0%)" x1="206.0698" x2="206.0698" y1="51.6922" y2="0.5" /><line stroke="rgb(0%,0%,0%)" x1="283.2432" x2="283.2432" y1="100.5" y2="84.7761" /><line stroke="rgb(0%,0%,0%)" x1="283.2432" x2="283.2432" y1="84.7761" y2="0.5" /><line stroke="rgb(0%,0%,0%)" x1="219.8411" x2="206.0698" y1="100.5" y2="100.5" /><line stroke="rgb(0%,0%,0%)" x1="219.8411" x2="224.842" y1="100.5" y2="100.5" /><line stroke="rgb(0%,0%,0%)" x1="224.842" x2="244.0146" y1="100.5" y2="100.5" /><line stroke="rgb(0%,0%,0%)" x1="244.0146" x2="253.6643" y1="100.5" y2="100.5" /><line stroke="rgb(0%,0%,0%)" x1="253.6643" x2="263.9832" y1="100.5" y2="100.5" /><line stroke="rgb(0%,0%,0%)" x1="263.9832" x2="268.3571" y1="100.5" y2="100.5" /><line stroke="rgb(0%,0%,0%)" x1="268.3571" x2="280.8281" y1="100.5" y2="100.5" /><line stroke="rgb(0%,0%,0%)" x1="280.8281" x2="281.327" y1="100.5" y2="100.5" /><line stroke="rgb(0%,0%,0%)" x1="281.327" x2="281.6591" y1="100.5" y2="100.5" /><line stroke="rgb(0%,0%,0%)" x1="281.6591" x2="283.2432" y1="100.5" y2="100.5" /><line stroke="rgb(0%,0%,0%)" x1="206.0698" x2="219.8411" y1="0.5" y2="0.5" /><line stroke="rgb(0%,0%,0%)" x1="219.8411" x2="224.842" y1="0.5" y2="0.5" /><line stroke="rgb(0%,0%,0%)" x1="224.842" x2="244.0146" y1="0.5" y2="0.5" /><line stroke="rgb(0%,0%,0%)" x1="244.0146" x2="253.6643" y1="0.5" y2="0.5" /><line stroke="rgb(0%,0%,0%)" x1="253.6643" x2="263.9832" y1="0.5" y2="0.5" /><line stroke="rgb(0%,0%,0%)" x1="263.9832" x2="268.3571" y1="0.5" y2="0.5" /><line stroke="rgb(0%,0%,0%)" x1="268.3571" x2="280.8281" y1="0.5" y2="0.5" /><line stroke="rgb(0%,0%,0%)" x1="280.8281" x2="281.327" y1="0.5" y2="0.5" /><line stroke="rgb(0%,0%,0%)" x1="281.327" x2="281.6591" y1="0.5" y2="0.5" /><line stroke="rgb(0%,0%,0%)" x1="281.6591" x2="283.2432" y1="0.5" y2="0.5" /></svg>