<?xml version="1.0" encoding="utf-8" ?>
<svg baseProfile="tiny" height="100%" version="1.2" width="100%" xmlns="http://www.w3.org/2000/svg" xmlns:ev="http://www.w3.org/2001/xml-events" xmlns:xlink="http://www.w3.org/1999/xlink"><defs /><line stroke="rgb(0%,0%,0%)" x1="206.3073" x2="206.3073" y1="100.5" y2="61.977" /><line stroke="rgb(0%,0%,0%)" x1="206.3073" x2="206.3073" y1="61.977" y2="0.5" /><line stroke="rgb(0%,0%,0%)" x1="283.7899" x2="283.7899" y1="100.5" y2="68.6909" /><line stroke="rgb(0%,0%,0%)" x1="283.7899" x2="283.7899" y1="68.6909" y2="0.5" /><line stroke="rgb(0%,0%,0%)" x1="217.1768" x2="206.3073" y1="100.5" y2="100.5" /><line stroke="rgb(0%,0%,0%)" x1="217.1768" x2="221.1239" y1="100.5" y2="100.5" /><line stroke="rgb(0%,0%,0%)" x1="221.1239" x2="241.6453" y1="100.5" y2="100.5" /><line stroke="rgb(0%,0%,0%)" x1="241.6453" x2="251.9739" y1="100.5" y2="100.5" /><line stroke="rgb(0%,0%,0%)" x1="251.9739" x2="261.856" y1="100.5" y2="100.5" /><line stroke="rgb(0%,0%,0%)" x1="261.856" x2="266.8146" y1="100.5" y2="100.5" /><line stroke="rgb(0%,0%,0%)" x1="266.8146" x2="278.9041" y1="100.5" y2="100.5" /><line stroke="rgb(0%,0%,0%)" x1="278.9041" x2="279.9135" y1="100.5" y2="100.5" /><line stroke="rgb(0%,0%,0%)" x1="279.9135" x2="280.5853" y1="100.5" y2="100.5" /><line stroke="rgb(0%,0%,0%)" x1="280.5853" x2="283.7899" y1="100.5" y2="100.5" /><line stroke="rgb(0%,0%,0%)" x1="206.3073" x2="217.1768" y1="0.5" y2="0.5" /><line stroke="rgb(0%,0%,0%)" x1="217.1768" x2="221.1239" y1="0.5" y2="0.5" /><line stroke="rgb(0%,0%,0%)" x1="221.1239" x2="241.6453" y1="0.5" y2="0.5" /><line stroke="rgb(0%,0%,0%)" x1="241.6453" x2="251.9739" y1="0.5" y2="0.5" /><line stroke="rgb(0%,0%,0%)" x1="251.9739" x2="261.856" y1="0.5" y2="0.5" /><line stroke="rgb(0%,0%,0%)" x1="261.856" x2="266.8146" y1="0.5" y2="0.5" /><line stroke="rgb(0%,0%,0%)" x1="266.8146" x2="278.9041" y1="0.5" y2="0.5" /><line stroke="rgb(0%,0%,0%)" x1="278.9041" x2="279.9135" y1="0.5" y2="0.5" /><line stroke="rgb(0%,0%,0%)" x1="279.9135" x2="280.5853" y1="0.5" y2="0.5" /><line stroke="rgb(0%,0%,0%)" x1="280.5853" x2="283.7899" y1="0.5" y2="0.5" /></svg>