<?xml version="1.0" encoding="utf-8" ?>
<svg baseProfile="tiny" height="100%" version="1.2" width="100%" xmlns="http://www.w3.org/2000/svg" xmlns:ev="http://www.w3.org/2001/xml-events" xmlns:xlink="http://www.w3.org/1999/xlink"><defs /><line stroke="rgb(0%,0%,0%)" x1="351.9" x2="351.9" y1="0.5" y2="19.9409" /><line stroke="rgb(0%,0%,0%)" x1="351.9" x2="351.9" y1="19.9409" y2="100.5" /><line stroke="rgb(0%,0%,0%)" x1="318.1376" x2="344.7533" y1="100.5" y2="100.5" /><line stroke="rgb(0%,0%,0%)" x1="344.7533" x2="345.6816" y1="100.5" y2="100.5" /><line stroke="rgb(0%,0%,0%)" x1="345.6816" x2="346.742" y1="100.5" y2="100.5" /><line stroke="rgb(0%,0%,0%)" x1="346.742" x2="347.9189" y1="100.5" y2="100.5" /><line stroke="rgb(0%,0%,0%)" x1="347.9189" x2="349.1902" y1="100.5" y2="100.5" /><line stroke="rgb(0%,0%,0%)" x1="349.1902" x2="350.5279" y1="100.5" y2="100.5" /><line stroke="rgb(0%,0%,0%)" x1="350.5279" x2="351.9" y1="100.5" y2="100.5" /><line stroke="rgb(0%,0%,0%)" x1="318.1376" x2="45.7748" y1="100.5" y2="100.5" /><line stroke="rgb(0%,0%,0%)" x1="45.7748" x2="0.5" y1="100.5" y2="100.5" /><line stroke="rgb(0%,0%,0%)" x1="0.5" x2="45.7748" y1="0.5" y2="0.5" /><line stroke="rgb(0%,0%,0%)" x1="45.7748" x2="318.1376" y1="0.5" y2="0.5" /><line stroke="rgb(0%,0%,0%)" x1="318.1376" x2="344.7533" y1="0.5" y2="0.5" /><line stroke="rgb(0%,0%,0%)" x1="344.7533" x2="345.6816" y1="0.5" y2="0.5" /><line stroke="rgb(0%,0%,0%)" x1="345.6816" x2="346.742" y1="0.5" y2="0.5" /><line stroke="rgb(0%,0%,0%)" x1="346.742" x2="347.9189" y1="0.5" y2="0.5" /><line stroke="rgb(0%,0%,0%)" x1="347.9189" x2="349.1902" y1="0.5" y2="0.5" /><line stroke="rgb(0%,0%,0%)" x1="349.1902" x2="350.5279" y1="0.5" y2="0.5" /><line stroke="rgb(0%,0%,0%)" x1="350.5279" x2="351.9" y1="0.5" y2="0.5" /><line stroke="rgb(0%,0%,0%)" x1="0.5" x2="0.5" y1="0.5" y2="78.0079" /><line stroke="rgb(0%,0%,0%)" x1="0.5" x2="0.5" y1="78.0079" y2="100.5" /><line stroke="rgb(0%,0%,0%)" x1="165.1722" x2="165.3525" y1="47.3813" y2="49.0971" /><line stroke="rgb(0%,0%,0%)" x1="165.3525" x2="165.5" y1="49.0971" y2="50.5" /><line stroke="rgb(0%,0%,0%)" x1="165.5" x2="165.3197" y1="50.5" y2="52.2158" /><line stroke="rgb(0%,0%,0%)" x1="165.3197" x2="165.1722" y1="52.2158" y2="53.6187" /><line stroke="rgb(0%,0%,0%)" x1="165.1722" x2="164.6391" y1="53.6187" y2="55.2595" /><line stroke="rgb(0%,0%,0%)" x1="164.6391" x2="164.2032" y1="55.2595" y2="56.6011" /><line stroke="rgb(0%,0%,0%)" x1="164.2032" x2="163.3406" y1="56.6011" y2="58.0951" /><line stroke="rgb(0%,0%,0%)" x1="163.3406" x2="162.6353" y1="58.0951" y2="59.3168" /><line stroke="rgb(0%,0%,0%)" x1="162.6353" x2="161.4809" y1="59.3168" y2="60.5989" /><line stroke="rgb(0%,0%,0%)" x1="161.4809" x2="160.537" y1="60.5989" y2="61.6472" /><line stroke="rgb(0%,0%,0%)" x1="160.537" x2="159.1412" y1="61.6472" y2="62.6612" /><line stroke="rgb(0%,0%,0%)" x1="159.1412" x2="158.0" y1="62.6612" y2="63.4904" /><line stroke="rgb(0%,0%,0%)" x1="158.0" x2="156.4239" y1="63.4904" y2="64.1921" /><line stroke="rgb(0%,0%,0%)" x1="156.4239" x2="155.1353" y1="64.1921" y2="64.7658" /><line stroke="rgb(0%,0%,0%)" x1="155.1353" x2="153.4477" y1="64.7658" y2="65.1245" /><line stroke="rgb(0%,0%,0%)" x1="153.4477" x2="152.0679" y1="65.1245" y2="65.4178" /><line stroke="rgb(0%,0%,0%)" x1="152.0679" x2="150.3427" y1="65.4178" y2="65.4178" /><line stroke="rgb(0%,0%,0%)" x1="150.3427" x2="148.9321" y1="65.4178" y2="65.4178" /><line stroke="rgb(0%,0%,0%)" x1="148.9321" x2="147.2446" y1="65.4178" y2="65.0591" /><line stroke="rgb(0%,0%,0%)" x1="147.2446" x2="145.8647" y1="65.0591" y2="64.7658" /><line stroke="rgb(0%,0%,0%)" x1="145.8647" x2="144.2887" y1="64.7658" y2="64.0641" /><line stroke="rgb(0%,0%,0%)" x1="144.2887" x2="143.0" y1="64.0641" y2="63.4904" /><line stroke="rgb(0%,0%,0%)" x1="143.0" x2="141.6043" y1="63.4904" y2="62.4763" /><line stroke="rgb(0%,0%,0%)" x1="141.6043" x2="140.463" y1="62.4763" y2="61.6472" /><line stroke="rgb(0%,0%,0%)" x1="140.463" x2="139.3086" y1="61.6472" y2="60.3651" /><line stroke="rgb(0%,0%,0%)" x1="139.3086" x2="138.3647" y1="60.3651" y2="59.3168" /><line stroke="rgb(0%,0%,0%)" x1="138.3647" x2="137.5021" y1="59.3168" y2="57.8227" /><line stroke="rgb(0%,0%,0%)" x1="137.5021" x2="136.7968" y1="57.8227" y2="56.6011" /><line stroke="rgb(0%,0%,0%)" x1="136.7968" x2="136.2637" y1="56.6011" y2="54.9603" /><line stroke="rgb(0%,0%,0%)" x1="136.2637" x2="135.8278" y1="54.9603" y2="53.6187" /><line stroke="rgb(0%,0%,0%)" x1="135.8278" x2="135.6475" y1="53.6187" y2="51.9029" /><line stroke="rgb(0%,0%,0%)" x1="135.6475" x2="135.5" y1="51.9029" y2="50.5" /><line stroke="rgb(0%,0%,0%)" x1="135.5" x2="135.6803" y1="50.5" y2="48.7842" /><line stroke="rgb(0%,0%,0%)" x1="135.6803" x2="135.8278" y1="48.7842" y2="47.3813" /><line stroke="rgb(0%,0%,0%)" x1="135.8278" x2="136.3609" y1="47.3813" y2="45.7405" /><line stroke="rgb(0%,0%,0%)" x1="136.3609" x2="136.7968" y1="45.7405" y2="44.3989" /><line stroke="rgb(0%,0%,0%)" x1="136.7968" x2="137.6594" y1="44.3989" y2="42.9049" /><line stroke="rgb(0%,0%,0%)" x1="137.6594" x2="138.3647" y1="42.9049" y2="41.6832" /><line stroke="rgb(0%,0%,0%)" x1="138.3647" x2="139.5191" y1="41.6832" y2="40.4011" /><line stroke="rgb(0%,0%,0%)" x1="139.5191" x2="140.463" y1="40.4011" y2="39.3528" /><line stroke="rgb(0%,0%,0%)" x1="140.463" x2="141.8588" y1="39.3528" y2="38.3388" /><line stroke="rgb(0%,0%,0%)" x1="141.8588" x2="143.0" y1="38.3388" y2="37.5096" /><line stroke="rgb(0%,0%,0%)" x1="143.0" x2="144.5761" y1="37.5096" y2="36.8079" /><line stroke="rgb(0%,0%,0%)" x1="144.5761" x2="145.8647" y1="36.8079" y2="36.2342" /><line stroke="rgb(0%,0%,0%)" x1="145.8647" x2="147.5523" y1="36.2342" y2="35.8755" /><line stroke="rgb(0%,0%,0%)" x1="147.5523" x2="148.9321" y1="35.8755" y2="35.5822" /><line stroke="rgb(0%,0%,0%)" x1="148.9321" x2="150.6573" y1="35.5822" y2="35.5822" /><line stroke="rgb(0%,0%,0%)" x1="150.6573" x2="152.0679" y1="35.5822" y2="35.5822" /><line stroke="rgb(0%,0%,0%)" x1="152.0679" x2="153.7554" y1="35.5822" y2="35.9409" /><line stroke="rgb(0%,0%,0%)" x1="153.7554" x2="155.1353" y1="35.9409" y2="36.2342" /><line stroke="rgb(0%,0%,0%)" x1="155.1353" x2="156.7113" y1="36.2342" y2="36.9359" /><line stroke="rgb(0%,0%,0%)" x1="156.7113" x2="158.0" y1="36.9359" y2="37.5096" /><line stroke="rgb(0%,0%,0%)" x1="158.0" x2="159.3957" y1="37.5096" y2="38.5237" /><line stroke="rgb(0%,0%,0%)" x1="159.3957" x2="160.537" y1="38.5237" y2="39.3528" /><line stroke="rgb(0%,0%,0%)" x1="160.537" x2="161.6914" y1="39.3528" y2="40.6349" /><line stroke="rgb(0%,0%,0%)" x1="161.6914" x2="162.6353" y1="40.6349" y2="41.6832" /><line stroke="rgb(0%,0%,0%)" x1="162.6353" x2="163.4979" y1="41.6832" y2="43.1773" /><line stroke="rgb(0%,0%,0%)" x1="163.4979" x2="164.2032" y1="43.1773" y2="44.3989" /><line stroke="rgb(0%,0%,0%)" x1="164.2032" x2="164.7363" y1="44.3989" y2="46.0397" /><line stroke="rgb(0%,0%,0%)" x1="164.7363" x2="165.1722" y1="46.0397" y2="47.3813" /><line stroke="rgb(0%,0%,0%)" x1="65.1722" x2="65.3525" y1="47.3813" y2="49.0971" /><line stroke="rgb(0%,0%,0%)" x1="65.3525" x2="65.5" y1="49.0971" y2="50.5" /><line stroke="rgb(0%,0%,0%)" x1="65.5" x2="65.3197" y1="50.5" y2="52.2158" /><line stroke="rgb(0%,0%,0%)" x1="65.3197" x2="65.1722" y1="52.2158" y2="53.6187" /><line stroke="rgb(0%,0%,0%)" x1="65.1722" x2="64.6391" y1="53.6187" y2="55.2595" /><line stroke="rgb(0%,0%,0%)" x1="64.6391" x2="64.2032" y1="55.2595" y2="56.6011" /><line stroke="rgb(0%,0%,0%)" x1="64.2032" x2="63.3406" y1="56.6011" y2="58.0951" /><line stroke="rgb(0%,0%,0%)" x1="63.3406" x2="62.6352" y1="58.0951" y2="59.3168" /><line stroke="rgb(0%,0%,0%)" x1="62.6352" x2="61.4809" y1="59.3168" y2="60.5989" /><line stroke="rgb(0%,0%,0%)" x1="61.4809" x2="60.537" y1="60.5989" y2="61.6472" /><line stroke="rgb(0%,0%,0%)" x1="60.537" x2="59.1412" y1="61.6472" y2="62.6612" /><line stroke="rgb(0%,0%,0%)" x1="59.1412" x2="58.0" y1="62.6612" y2="63.4904" /><line stroke="rgb(0%,0%,0%)" x1="58.0" x2="56.4239" y1="63.4904" y2="64.1921" /><line stroke="rgb(0%,0%,0%)" x1="56.4239" x2="55.1353" y1="64.1921" y2="64.7658" /><line stroke="rgb(0%,0%,0%)" x1="55.1353" x2="53.4477" y1="64.7658" y2="65.1245" /><line stroke="rgb(0%,0%,0%)" x1="53.4477" x2="52.0679" y1="65.1245" y2="65.4178" /><line stroke="rgb(0%,0%,0%)" x1="52.0679" x2="50.3427" y1="65.4178" y2="65.4178" /><line stroke="rgb(0%,0%,0%)" x1="50.3427" x2="48.9321" y1="65.4178" y2="65.4178" /><line stroke="rgb(0%,0%,0%)" x1="48.9321" x2="47.2446" y1="65.4178" y2="65.0591" /><line stroke="rgb(0%,0%,0%)" x1="47.2446" x2="45.8647" y1="65.0591" y2="64.7658" /><line stroke="rgb(0%,0%,0%)" x1="45.8647" x2="44.2887" y1="64.7658" y2="64.0641" /><line stroke="rgb(0%,0%,0%)" x1="44.2887" x2="43.0" y1="64.0641" y2="63.4904" /><line stroke="rgb(0%,0%,0%)" x1="43.0" x2="41.6043" y1="63.4904" y2="62.4763" /><line stroke="rgb(0%,0%,0%)" x1="41.6043" x2="40.463" y1="62.4763" y2="61.6472" /><line stroke="rgb(0%,0%,0%)" x1="40.463" x2="39.3086" y1="61.6472" y2="60.3651" /><line stroke="rgb(0%,0%,0%)" x1="39.3086" x2="38.3647" y1="60.3651" y2="59.3168" /><line stroke="rgb(0%,0%,0%)" x1="38.3647" x2="37.5021" y1="59.3168" y2="57.8227" /><line stroke="rgb(0%,0%,0%)" x1="37.5021" x2="36.7968" y1="57.8227" y2="56.6011" /><line stroke="rgb(0%,0%,0%)" x1="36.7968" x2="36.2637" y1="56.6011" y2="54.9603" /><line stroke="rgb(0%,0%,0%)" x1="36.2637" x2="35.8278" y1="54.9603" y2="53.6187" /><line stroke="rgb(0%,0%,0%)" x1="35.8278" x2="35.6474" y1="53.6187" y2="51.9029" /><line stroke="rgb(0%,0%,0%)" x1="35.6474" x2="35.5" y1="51.9029" y2="50.5" /><line stroke="rgb(0%,0%,0%)" x1="35.5" x2="35.6803" y1="50.5" y2="48.7842" /><line stroke="rgb(0%,0%,0%)" x1="35.6803" x2="35.8278" y1="48.7842" y2="47.3813" /><line stroke="rgb(0%,0%,0%)" x1="35.8278" x2="36.3609" y1="47.3813" y2="45.7405" /><line stroke="rgb(0%,0%,0%)" x1="36.3609" x2="36.7968" y1="45.7405" y2="44.3989" /><line stroke="rgb(0%,0%,0%)" x1="36.7968" x2="37.6594" y1="44.3989" y2="42.9049" /><line stroke="rgb(0%,0%,0%)" x1="37.6594" x2="38.3647" y1="42.9049" y2="41.6832" /><line stroke="rgb(0%,0%,0%)" x1="38.3647" x2="39.5191" y1="41.6832" y2="40.4011" /><line stroke="rgb(0%,0%,0%)" x1="39.5191" x2="40.463" y1="40.4011" y2="39.3528" /><line stroke="rgb(0%,0%,0%)" x1="40.463" x2="41.8588" y1="39.3528" y2="38.3388" /><line stroke="rgb(0%,0%,0%)" x1="41.8588" x2="43.0" y1="38.3388" y2="37.5096" /><line stroke="rgb(0%,0%,0%)" x1="43.0" x2="44.5761" y1="37.5096" y2="36.8079" /><line stroke="rgb(0%,0%,0%)" x1="44.5761" x2="45.8647" y1="36.8079" y2="36.2342" /><line stroke="rgb(0%,0%,0%)" x1="45.8647" x2="47.5523" y1="36.2342" y2="35.8755" /><line stroke="rgb(0%,0%,0%)" x1="47.5523" x2="48.9321" y1="35.8755" y2="35.5822" /><line stroke="rgb(0%,0%,0%)" x1="48.9321" x2="50.6573" y1="35.5822" y2="35.5822" /><line stroke="rgb(0%,0%,0%)" x1="50.6573" x2="52.0679" y1="35.5822" y2="35.5822" /><line stroke="rgb(0%,0%,0%)" x1="52.0679" x2="53.7554" y1="35.5822" y2="35.9409" /><line stroke="rgb(0%,0%,0%)" x1="53.7554" x2="55.1353" y1="35.9409" y2="36.2342" /><line stroke="rgb(0%,0%,0%)" x1="55.1353" x2="56.7113" y1="36.2342" y2="36.9359" /><line stroke="rgb(0%,0%,0%)" x1="56.7113" x2="58.0" y1="36.9359" y2="37.5096" /><line stroke="rgb(0%,0%,0%)" x1="58.0" x2="59.3957" y1="37.5096" y2="38.5237" /><line stroke="rgb(0%,0%,0%)" x1="59.3957" x2="60.537" y1="38.5237" y2="39.3528" /><line stroke="rgb(0%,0%,0%)" x1="60.537" x2="61.6914" y1="39.3528" y2="40.6349" /><line stroke="rgb(0%,0%,0%)" x1="61.6914" x2="62.6352" y1="40.6349" y2="41.6832" /><line stroke="rgb(0%,0%,0%)" x1="62.6352" x2="63.4979" y1="41.6832" y2="43.1773" /><line stroke="rgb(0%,0%,0%)" x1="63.4979" x2="64.2032" y1="43.1773" y2="44.3989" /><line stroke="rgb(0%,0%,0%)" x1="64.2032" x2="64.7363" y1="44.3989" y2="46.0397" /><line stroke="rgb(0%,0%,0%)" x1="64.7363" x2="65.1722" y1="46.0397" y2="47.3813" /></svg>