<?xml version="1.0" encoding="utf-8" ?>
<svg baseProfile="tiny" height="100%" version="1.2" width="100%" xmlns="http://www.w3.org/2000/svg" xmlns:ev="http://www.w3.org/2001/xml-events" xmlns:xlink="http://www.w3.org/1999/xlink"><defs /><line stroke="rgb(0%,0%,0%)" x1="206.5449" x2="206.5449" y1="100.5" y2="72.2617" /><line stroke="rgb(0%,0%,0%)" x1="206.5449" x2="206.5449" y1="72.2617" y2="0.5" /><line stroke="rgb(0%,0%,0%)" x1="284.3365" x2="284.3365" y1="100.5" y2="52.6056" /><line stroke="rgb(0%,0%,0%)" x1="284.3365" x2="284.3365" y1="52.6056" y2="0.5" /><line stroke="rgb(0%,0%,0%)" x1="214.5124" x2="206.5449" y1="100.5" y2="100.5" /><line stroke="rgb(0%,0%,0%)" x1="214.5124" x2="217.4057" y1="100.5" y2="100.5" /><line stroke="rgb(0%,0%,0%)" x1="217.4057" x2="239.276" y1="100.5" y2="100.5" /><line stroke="rgb(0%,0%,0%)" x1="239.276" x2="250.2834" y1="100.5" y2="100.5" /><line stroke="rgb(0%,0%,0%)" x1="250.2834" x2="259.7287" y1="100.5" y2="100.5" /><line stroke="rgb(0%,0%,0%)" x1="259.7287" x2="265.272" y1="100.5" y2="100.5" /><line stroke="rgb(0%,0%,0%)" x1="265.272" x2="276.9801" y1="100.5" y2="100.5" /><line stroke="rgb(0%,0%,0%)" x1="276.9801" x2="278.5" y1="100.5" y2="100.5" /><line stroke="rgb(0%,0%,0%)" x1="278.5" x2="279.5115" y1="100.5" y2="100.5" /><line stroke="rgb(0%,0%,0%)" x1="279.5115" x2="284.3365" y1="100.5" y2="100.5" /><line stroke="rgb(0%,0%,0%)" x1="206.5449" x2="214.5124" y1="0.5" y2="0.5" /><line stroke="rgb(0%,0%,0%)" x1="214.5124" x2="217.4057" y1="0.5" y2="0.5" /><line stroke="rgb(0%,0%,0%)" x1="217.4057" x2="239.276" y1="0.5" y2="0.5" /><line stroke="rgb(0%,0%,0%)" x1="239.276" x2="250.2834" y1="0.5" y2="0.5" /><line stroke="rgb(0%,0%,0%)" x1="250.2834" x2="259.7287" y1="0.5" y2="0.5" /><line stroke="rgb(0%,0%,0%)" x1="259.7287" x2="265.272" y1="0.5" y2="0.5" /><line stroke="rgb(0%,0%,0%)" x1="265.272" x2="276.9801" y1="0.5" y2="0.5" /><line stroke="rgb(0%,0%,0%)" x1="276.9801" x2="278.5" y1="0.5" y2="0.5" /><line stroke="rgb(0%,0%,0%)" x1="278.5" x2="279.5115" y1="0.5" y2="0.5" /><line stroke="rgb(0%,0%,0%)" x1="279.5115" x2="284.3365" y1="0.5" y2="0.5" /></svg>