<?xml version="1.0" encoding="utf-8" ?>
<svg baseProfile="tiny" height="100%" version="1.2" width="100%" xmlns="http://www.w3.org/2000/svg" xmlns:ev="http://www.w3.org/2001/xml-events" xmlns:xlink="http://www.w3.org/1999/xlink"><defs /><line stroke="rgb(0%,0%,0%)" x1="206.7824" x2="206.7824" y1="100.5" y2="82.5465" /><line stroke="rgb(0%,0%,0%)" x1="206.7824" x2="206.7824" y1="82.5465" y2="0.5" /><line stroke="rgb(0%,0%,0%)" x1="284.8832" x2="284.8832" y1="100.5" y2="36.5204" /><line stroke="rgb(0%,0%,0%)" x1="284.8832" x2="284.8832" y1="36.5204" y2="0.5" /><line stroke="rgb(0%,0%,0%)" x1="211.8481" x2="206.7824" y1="100.5" y2="100.5" /><line stroke="rgb(0%,0%,0%)" x1="211.8481" x2="213.6876" y1="100.5" y2="100.5" /><line stroke="rgb(0%,0%,0%)" x1="213.6876" x2="236.9067" y1="100.5" y2="100.5" /><line stroke="rgb(0%,0%,0%)" x1="236.9067" x2="248.593" y1="100.5" y2="100.5" /><line stroke="rgb(0%,0%,0%)" x1="248.593" x2="257.6015" y1="100.5" y2="100.5" /><line stroke="rgb(0%,0%,0%)" x1="257.6015" x2="263.7295" y1="100.5" y2="100.5" /><line stroke="rgb(0%,0%,0%)" x1="263.7295" x2="275.0561" y1="100.5" y2="100.5" /><line stroke="rgb(0%,0%,0%)" x1="275.0561" x2="277.0865" y1="100.5" y2="100.5" /><line stroke="rgb(0%,0%,0%)" x1="277.0865" x2="278.4377" y1="100.5" y2="100.5" /><line stroke="rgb(0%,0%,0%)" x1="278.4377" x2="284.8832" y1="100.5" y2="100.5" /><line stroke="rgb(0%,0%,0%)" x1="206.7824" x2="211.8481" y1="0.5" y2="0.5" /><line stroke="rgb(0%,0%,0%)" x1="211.8481" x2="213.6876" y1="0.5" y2="0.5" /><line stroke="rgb(0%,0%,0%)" x1="213.6876" x2="236.9067" y1="0.5" y2="0.5" /><line stroke="rgb(0%,0%,0%)" x1="236.9067" x2="248.593" y1="0.5" y2="0.5" /><line stroke="rgb(0%,0%,0%)" x1="248.593" x2="257.6015" y1="0.5" y2="0.5" /><line stroke="rgb(0%,0%,0%)" x1="257.6015" x2="263.7295" y1="0.5" y2="0.5" /><line stroke="rgb(0%,0%,0%)" x1="263.7295" x2="275.0561" y1="0.5" y2="0.5" /><line stroke="rgb(0%,0%,0%)" x1="275.0561" x2="277.0865" y1="0.5" y2="0.5" /><line stroke="rgb(0%,0%,0%)" x1="277.0865" x2="278.4377" y1="0.5" y2="0.5" /><line stroke="rgb(0%,0%,0%)" x1="278.4377" x2="284.8832" y1="0.5" y2="0.5" /></svg>