<?xml version="1.0" encoding="utf-8" ?>
<svg baseProfile="tiny" height="100%" version="1.2" width="100%" xmlns="http://www.w3.org/2000/svg" xmlns:ev="http://www.w3.org/2001/xml-events" xmlns:xlink="http://www.w3.org/1999/xlink"><defs /><line stroke="rgb(0%,0%,0%)" x1="207.02" x2="207.02" y1="100.5" y2="92.8312" /><line stroke="rgb(0%,0%,0%)" x1="207.02" x2="207.02" y1="92.8312" y2="0.5" /><line stroke="rgb(0%,0%,0%)" x1="285.4299" x2="285.4299" y1="100.5" y2="20.4351" /><line stroke="rgb(0%,0%,0%)" x1="285.4299" x2="285.4299" y1="20.4351" y2="0.5" /><line stroke="rgb(0%,0%,0%)" x1="209.1838" x2="207.02" y1="100.5" y2="100.5" /><line stroke="rgb(0%,0%,0%)" x1="209.1838" x2="209.9695" y1="100.5" y2="100.5" /><line stroke="rgb(0%,0%,0%)" x1="209.9695" x2="234.5374" y1="100.5" y2="100.5" /><line stroke="rgb(0%,0%,0%)" x1="234.5374" x2="246.9026" y1="100.5" y2="100.5" /><line stroke="rgb(0%,0%,0%)" x1="246.9026" x2="255.4742" y1="100.5" y2="100.5" /><line stroke="rgb(0%,0%,0%)" x1="255.4742" x2="262.187" y1="100.5" y2="100.5" /><line stroke="rgb(0%,0%,0%)" x1="262.187" x2="273.1321" y1="100.5" y2="100.5" /><line stroke="rgb(0%,0%,0%)" x1="273.1321" x2="275.6729" y1="100.5" y2="100.5" /><line stroke="rgb(0%,0%,0%)" x1="275.6729" x2="277.3638" y1="100.5" y2="100.5" /><line stroke="rgb(0%,0%,0%)" x1="277.3638" x2="285.4299" y1="100.5" y2="100.5" /><line stroke="rgb(0%,0%,0%)" x1="207.02" x2="209.1838" y1="0.5" y2="0.5" /><line stroke="rgb(0%,0%,0%)" x1="209.1838" x2="209.9695" y1="0.5" y2="0.5" /><line stroke="rgb(0%,0%,0%)" x1="209.9695" x2="234.5374" y1="0.5" y2="0.5" /><line stroke="rgb(0%,0%,0%)" x1="234.5374" x2="246.9026" y1="0.5" y2="0.5" /><line stroke="rgb(0%,0%,0%)" x1="246.9026" x2="255.4742" y1="0.5" y2="0.5" /><line stroke="rgb(0%,0%,0%)" x1="255.4742" x2="262.187" y1="0.5" y2="0.5" /><line stroke="rgb(0%,0%,0%)" x1="262.187" x2="273.1321" y1="0.5" y2="0.5" /><line stroke="rgb(0%,0%,0%)" x1="273.1321" x2="275.6729" y1="0.5" y2="0.5" /><line stroke="rgb(0%,0%,0%)" x1="275.6729" x2="277.3638" y1="0.5" y2="0.5" /><line stroke="rgb(0%,0%,0%)" x1="277.3638" x2="285.4299" y1="0.5" y2="0.5" /></svg>