<?xml version="1.0" encoding="utf-8" ?>
<svg baseProfile="tiny" height="100%" version="1.2" width="100%" xmlns="http://www.w3.org/2000/svg" xmlns:ev="http://www.w3.org/2001/xml-events" xmlns:xlink="http://www.w3.org/1999/xlink"><defs /><line stroke="rgb(0%,0%,0%)" x1="207.2758" x2="207.2758" y1="100.5" y2="3.1641" /><line stroke="rgb(0%,0%,0%)" x1="207.2758" x2="207.2758" y1="3.1641" y2="0.5" /><line stroke="rgb(0%,0%,0%)" x1="285.9765" x2="285.9765" y1="100.5" y2="4.3499" /><line stroke="rgb(0%,0%,0%)" x1="285.9765" x2="285.9765" y1="4.3499" y2="0.5" /><line stroke="rgb(0%,0%,0%)" x1="232.1681" x2="207.2758" y1="100.5" y2="100.5" /><line stroke="rgb(0%,0%,0%)" x1="232.1681" x2="245.2121" y1="100.5" y2="100.5" /><line stroke="rgb(0%,0%,0%)" x1="245.2121" x2="253.347" y1="100.5" y2="100.5" /><line stroke="rgb(0%,0%,0%)" x1="253.347" x2="260.6444" y1="100.5" y2="100.5" /><line stroke="rgb(0%,0%,0%)" x1="260.6444" x2="271.2081" y1="100.5" y2="100.5" /><line stroke="rgb(0%,0%,0%)" x1="271.2081" x2="274.2594" y1="100.5" y2="100.5" /><line stroke="rgb(0%,0%,0%)" x1="274.2594" x2="276.29" y1="100.5" y2="100.5" /><line stroke="rgb(0%,0%,0%)" x1="276.29" x2="285.9765" y1="100.5" y2="100.5" /><line stroke="rgb(0%,0%,0%)" x1="207.2758" x2="232.1681" y1="0.5" y2="0.5" /><line stroke="rgb(0%,0%,0%)" x1="232.1681" x2="245.2121" y1="0.5" y2="0.5" /><line stroke="rgb(0%,0%,0%)" x1="245.2121" x2="253.347" y1="0.5" y2="0.5" /><line stroke="rgb(0%,0%,0%)" x1="253.347" x2="260.6444" y1="0.5" y2="0.5" /><line stroke="rgb(0%,0%,0%)" x1="260.6444" x2="271.2081" y1="0.5" y2="0.5" /><line stroke="rgb(0%,0%,0%)" x1="271.2081" x2="274.2594" y1="0.5" y2="0.5" /><line stroke="rgb(0%,0%,0%)" x1="274.2594" x2="276.29" y1="0.5" y2="0.5" /><line stroke="rgb(0%,0%,0%)" x1="276.29" x2="285.9765" y1="0.5" y2="0.5" /></svg>