<?xml version="1.0" encoding="utf-8" ?>
<svg baseProfile="tiny" height="100%" version="1.2" width="100%" xmlns="http://www.w3.org/2000/svg" xmlns:ev="http://www.w3.org/2001/xml-events" xmlns:xlink="http://www.w3.org/1999/xlink"><defs /><line stroke="rgb(0%,0%,0%)" x1="207.585" x2="207.585" y1="100.5" y2="13.6377" /><line stroke="rgb(0%,0%,0%)" x1="207.585" x2="207.585" y1="13.6377" y2="0.5" /><line stroke="rgb(0%,0%,0%)" x1="286.6193" x2="286.6193" y1="100.5" y2="87.5596" /><line stroke="rgb(0%,0%,0%)" x1="286.6193" x2="286.6193" y1="87.5596" y2="0.5" /><line stroke="rgb(0%,0%,0%)" x1="229.7988" x2="207.585" y1="100.5" y2="100.5" /><line stroke="rgb(0%,0%,0%)" x1="229.7988" x2="243.5217" y1="100.5" y2="100.5" /><line stroke="rgb(0%,0%,0%)" x1="243.5217" x2="251.2197" y1="100.5" y2="100.5" /><line stroke="rgb(0%,0%,0%)" x1="251.2197" x2="259.1019" y1="100.5" y2="100.5" /><line stroke="rgb(0%,0%,0%)" x1="259.1019" x2="269.2842" y1="100.5" y2="100.5" /><line stroke="rgb(0%,0%,0%)" x1="269.2842" x2="272.8459" y1="100.5" y2="100.5" /><line stroke="rgb(0%,0%,0%)" x1="272.8459" x2="275.2162" y1="100.5" y2="100.5" /><line stroke="rgb(0%,0%,0%)" x1="275.2162" x2="285.119" y1="100.5" y2="100.5" /><line stroke="rgb(0%,0%,0%)" x1="285.119" x2="285.3554" y1="100.5" y2="100.5" /><line stroke="rgb(0%,0%,0%)" x1="285.3554" x2="286.6193" y1="100.5" y2="100.5" /><line stroke="rgb(0%,0%,0%)" x1="207.585" x2="229.7988" y1="0.5" y2="0.5" /><line stroke="rgb(0%,0%,0%)" x1="229.7988" x2="243.5217" y1="0.5" y2="0.5" /><line stroke="rgb(0%,0%,0%)" x1="243.5217" x2="251.2197" y1="0.5" y2="0.5" /><line stroke="rgb(0%,0%,0%)" x1="251.2197" x2="259.1019" y1="0.5" y2="0.5" /><line stroke="rgb(0%,0%,0%)" x1="259.1019" x2="269.2842" y1="0.5" y2="0.5" /><line stroke="rgb(0%,0%,0%)" x1="269.2842" x2="272.8459" y1="0.5" y2="0.5" /><line stroke="rgb(0%,0%,0%)" x1="272.8459" x2="275.2162" y1="0.5" y2="0.5" /><line stroke="rgb(0%,0%,0%)" x1="275.2162" x2="285.119" y1="0.5" y2="0.5" /><line stroke="rgb(0%,0%,0%)" x1="285.119" x2="285.3554" y1="0.5" y2="0.5" /><line stroke="rgb(0%,0%,0%)" x1="285.3554" x2="286.6193" y1="0.5" y2="0.5" /></svg>