<?xml version="1.0" encoding="utf-8" ?>
<svg baseProfile="tiny" height="100%" version="1.2" width="100%" xmlns="http://www.w3.org/2000/svg" xmlns:ev="http://www.w3.org/2001/xml-events" xmlns:xlink="http://www.w3.org/1999/xlink"><defs /><line stroke="rgb(0%,0%,0%)" x1="207.8941" x2="207.8941" y1="100.5" y2="24.1114" /><line stroke="rgb(0%,0%,0%)" x1="207.8941" x2="207.8941" y1="24.1114" y2="0.5" /><line stroke="rgb(0%,0%,0%)" x1="287.2922" x2="287.2922" y1="100.5" y2="70.5475" /><line stroke="rgb(0%,0%,0%)" x1="287.2922" x2="287.2922" y1="70.5475" y2="0.5" /><line stroke="rgb(0%,0%,0%)" x1="227.4295" x2="207.8941" y1="100.5" y2="100.5" /><line stroke="rgb(0%,0%,0%)" x1="227.4295" x2="241.8313" y1="100.5" y2="100.5" /><line stroke="rgb(0%,0%,0%)" x1="241.8313" x2="249.0925" y1="100.5" y2="100.5" /><line stroke="rgb(0%,0%,0%)" x1="249.0925" x2="257.5593" y1="100.5" y2="100.5" /><line stroke="rgb(0%,0%,0%)" x1="257.5593" x2="267.3602" y1="100.5" y2="100.5" /><line stroke="rgb(0%,0%,0%)" x1="267.3602" x2="271.4323" y1="100.5" y2="100.5" /><line stroke="rgb(0%,0%,0%)" x1="271.4323" x2="274.1424" y1="100.5" y2="100.5" /><line stroke="rgb(0%,0%,0%)" x1="274.1424" x2="283.8196" y1="100.5" y2="100.5" /><line stroke="rgb(0%,0%,0%)" x1="283.8196" x2="284.3667" y1="100.5" y2="100.5" /><line stroke="rgb(0%,0%,0%)" x1="284.3667" x2="287.2922" y1="100.5" y2="100.5" /><line stroke="rgb(0%,0%,0%)" x1="207.8941" x2="227.4295" y1="0.5" y2="0.5" /><line stroke="rgb(0%,0%,0%)" x1="227.4295" x2="241.8313" y1="0.5" y2="0.5" /><line stroke="rgb(0%,0%,0%)" x1="241.8313" x2="249.0925" y1="0.5" y2="0.5" /><line stroke="rgb(0%,0%,0%)" x1="249.0925" x2="257.5593" y1="0.5" y2="0.5" /><line stroke="rgb(0%,0%,0%)" x1="257.5593" x2="267.3602" y1="0.5" y2="0.5" /><line stroke="rgb(0%,0%,0%)" x1="267.3602" x2="271.4323" y1="0.5" y2="0.5" /><line stroke="rgb(0%,0%,0%)" x1="271.4323" x2="274.1424" y1="0.5" y2="0.5" /><line stroke="rgb(0%,0%,0%)" x1="274.1424" x2="283.8196" y1="0.5" y2="0.5" /><line stroke="rgb(0%,0%,0%)" x1="283.8196" x2="284.3667" y1="0.5" y2="0.5" /><line stroke="rgb(0%,0%,0%)" x1="284.3667" x2="287.2922" y1="0.5" y2="0.5" /></svg>