<?xml version="1.0" encoding="utf-8" ?>
<svg baseProfile="tiny" height="100%" version="1.2" width="100%" xmlns="http://www.w3.org/2000/svg" xmlns:ev="http://www.w3.org/2001/xml-events" xmlns:xlink="http://www.w3.org/1999/xlink"><defs /><line stroke="rgb(0%,0%,0%)" x1="208.2033" x2="208.2033" y1="100.5" y2="34.5851" /><line stroke="rgb(0%,0%,0%)" x1="208.2033" x2="208.2033" y1="34.5851" y2="0.5" /><line stroke="rgb(0%,0%,0%)" x1="287.9651" x2="287.9651" y1="100.5" y2="53.5354" /><line stroke="rgb(0%,0%,0%)" x1="287.9651" x2="287.9651" y1="53.5354" y2="0.5" /><line stroke="rgb(0%,0%,0%)" x1="225.0601" x2="208.2033" y1="100.5" y2="100.5" /><line stroke="rgb(0%,0%,0%)" x1="225.0601" x2="240.1408" y1="100.5" y2="100.5" /><line stroke="rgb(0%,0%,0%)" x1="240.1408" x2="246.9652" y1="100.5" y2="100.5" /><line stroke="rgb(0%,0%,0%)" x1="246.9652" x2="256.0168" y1="100.5" y2="100.5" /><line stroke="rgb(0%,0%,0%)" x1="256.0168" x2="265.4362" y1="100.5" y2="100.5" /><line stroke="rgb(0%,0%,0%)" x1="265.4362" x2="270.0188" y1="100.5" y2="100.5" /><line stroke="rgb(0%,0%,0%)" x1="270.0188" x2="273.0686" y1="100.5" y2="100.5" /><line stroke="rgb(0%,0%,0%)" x1="273.0686" x2="282.5202" y1="100.5" y2="100.5" /><line stroke="rgb(0%,0%,0%)" x1="282.5202" x2="283.3781" y1="100.5" y2="100.5" /><line stroke="rgb(0%,0%,0%)" x1="283.3781" x2="287.9651" y1="100.5" y2="100.5" /><line stroke="rgb(0%,0%,0%)" x1="208.2033" x2="225.0601" y1="0.5" y2="0.5" /><line stroke="rgb(0%,0%,0%)" x1="225.0601" x2="240.1408" y1="0.5" y2="0.5" /><line stroke="rgb(0%,0%,0%)" x1="240.1408" x2="246.9652" y1="0.5" y2="0.5" /><line stroke="rgb(0%,0%,0%)" x1="246.9652" x2="256.0168" y1="0.5" y2="0.5" /><line stroke="rgb(0%,0%,0%)" x1="256.0168" x2="265.4362" y1="0.5" y2="0.5" /><line stroke="rgb(0%,0%,0%)" x1="265.4362" x2="270.0188" y1="0.5" y2="0.5" /><line stroke="rgb(0%,0%,0%)" x1="270.0188" x2="273.0686" y1="0.5" y2="0.5" /><line stroke="rgb(0%,0%,0%)" x1="273.0686" x2="282.5202" y1="0.5" y2="0.5" /><line stroke="rgb(0%,0%,0%)" x1="282.5202" x2="283.3781" y1="0.5" y2="0.5" /><line stroke="rgb(0%,0%,0%)" x1="283.3781" x2="287.9651" y1="0.5" y2="0.5" /></svg>