<?xml version="1.0" encoding="utf-8" ?>
<svg baseProfile="tiny" height="100%" version="1.2" width="100%" xmlns="http://www.w3.org/2000/svg" xmlns:ev="http://www.w3.org/2001/xml-events" xmlns:xlink="http://www.w3.org/1999/xlink"><defs /><line stroke="rgb(0%,0%,0%)" x1="208.5125" x2="208.5125" y1="100.5" y2="45.0588" /><line stroke="rgb(0%,0%,0%)" x1="208.5125" x2="208.5125" y1="45.0588" y2="0.5" /><line stroke="rgb(0%,0%,0%)" x1="288.6381" x2="288.6381" y1="100.5" y2="36.5233" /><line stroke="rgb(0%,0%,0%)" x1="288.6381" x2="288.6381" y1="36.5233" y2="0.5" /><line stroke="rgb(0%,0%,0%)" x1="222.6908" x2="208.5125" y1="100.5" y2="100.5" /><line stroke="rgb(0%,0%,0%)" x1="222.6908" x2="238.4504" y1="100.5" y2="100.5" /><line stroke="rgb(0%,0%,0%)" x1="238.4504" x2="244.838" y1="100.5" y2="100.5" /><line stroke="rgb(0%,0%,0%)" x1="244.838" x2="254.4743" y1="100.5" y2="100.5" /><line stroke="rgb(0%,0%,0%)" x1="254.4743" x2="263.5122" y1="100.5" y2="100.5" /><line stroke="rgb(0%,0%,0%)" x1="263.5122" x2="268.6053" y1="100.5" y2="100.5" /><line stroke="rgb(0%,0%,0%)" x1="268.6053" x2="271.9947" y1="100.5" y2="100.5" /><line stroke="rgb(0%,0%,0%)" x1="271.9947" x2="281.2208" y1="100.5" y2="100.5" /><line stroke="rgb(0%,0%,0%)" x1="281.2208" x2="282.3894" y1="100.5" y2="100.5" /><line stroke="rgb(0%,0%,0%)" x1="282.3894" x2="288.6381" y1="100.5" y2="100.5" /><line stroke="rgb(0%,0%,0%)" x1="208.5125" x2="222.6908" y1="0.5" y2="0.5" /><line stroke="rgb(0%,0%,0%)" x1="222.6908" x2="238.4504" y1="0.5" y2="0.5" /><line stroke="rgb(0%,0%,0%)" x1="238.4504" x2="244.838" y1="0.5" y2="0.5" /><line stroke="rgb(0%,0%,0%)" x1="244.838" x2="254.4743" y1="0.5" y2="0.5" /><line stroke="rgb(0%,0%,0%)" x1="254.4743" x2="263.5122" y1="0.5" y2="0.5" /><line stroke="rgb(0%,0%,0%)" x1="263.5122" x2="268.6053" y1="0.5" y2="0.5" /><line stroke="rgb(0%,0%,0%)" x1="268.6053" x2="271.9947" y1="0.5" y2="0.5" /><line stroke="rgb(0%,0%,0%)" x1="271.9947" x2="281.2208" y1="0.5" y2="0.5" /><line stroke="rgb(0%,0%,0%)" x1="281.2208" x2="282.3894" y1="0.5" y2="0.5" /><line stroke="rgb(0%,0%,0%)" x1="282.3894" x2="288.6381" y1="0.5" y2="0.5" /></svg>