<?xml version="1.0" encoding="utf-8" ?>
<svg baseProfile="tiny" height="100%" version="1.2" width="100%" xmlns="http://www.w3.org/2000/svg" xmlns:ev="http://www.w3.org/2001/xml-events" xmlns:xlink="http://www.w3.org/1999/xlink"><defs /><line stroke="rgb(0%,0%,0%)" x1="208.8217" x2="208.8217" y1="100.5" y2="55.5324" /><line stroke="rgb(0%,0%,0%)" x1="208.8217" x2="208.8217" y1="55.5324" y2="0.5" /><line stroke="rgb(0%,0%,0%)" x1="289.311" x2="289.311" y1="100.5" y2="19.5112" /><line stroke="rgb(0%,0%,0%)" x1="289.311" x2="289.311" y1="19.5112" y2="0.5" /><line stroke="rgb(0%,0%,0%)" x1="220.3215" x2="208.8217" y1="100.5" y2="100.5" /><line stroke="rgb(0%,0%,0%)" x1="220.3215" x2="236.7599" y1="100.5" y2="100.5" /><line stroke="rgb(0%,0%,0%)" x1="236.7599" x2="242.7107" y1="100.5" y2="100.5" /><line stroke="rgb(0%,0%,0%)" x1="242.7107" x2="252.9317" y1="100.5" y2="100.5" /><line stroke="rgb(0%,0%,0%)" x1="252.9317" x2="261.5882" y1="100.5" y2="100.5" /><line stroke="rgb(0%,0%,0%)" x1="261.5882" x2="267.1918" y1="100.5" y2="100.5" /><line stroke="rgb(0%,0%,0%)" x1="267.1918" x2="270.9209" y1="100.5" y2="100.5" /><line stroke="rgb(0%,0%,0%)" x1="270.9209" x2="279.9214" y1="100.5" y2="100.5" /><line stroke="rgb(0%,0%,0%)" x1="279.9214" x2="281.4008" y1="100.5" y2="100.5" /><line stroke="rgb(0%,0%,0%)" x1="281.4008" x2="289.311" y1="100.5" y2="100.5" /><line stroke="rgb(0%,0%,0%)" x1="208.8217" x2="220.3215" y1="0.5" y2="0.5" /><line stroke="rgb(0%,0%,0%)" x1="220.3215" x2="236.7599" y1="0.5" y2="0.5" /><line stroke="rgb(0%,0%,0%)" x1="236.7599" x2="242.7107" y1="0.5" y2="0.5" /><line stroke="rgb(0%,0%,0%)" x1="242.7107" x2="252.9317" y1="0.5" y2="0.5" /><line stroke="rgb(0%,0%,0%)" x1="252.9317" x2="261.5882" y1="0.5" y2="0.5" /><line stroke="rgb(0%,0%,0%)" x1="261.5882" x2="267.1918" y1="0.5" y2="0.5" /><line stroke="rgb(0%,0%,0%)" x1="267.1918" x2="270.9209" y1="0.5" y2="0.5" /><line stroke="rgb(0%,0%,0%)" x1="270.9209" x2="279.9214" y1="0.5" y2="0.5" /><line stroke="rgb(0%,0%,0%)" x1="279.9214" x2="281.4008" y1="0.5" y2="0.5" /><line stroke="rgb(0%,0%,0%)" x1="281.4008" x2="289.311" y1="0.5" y2="0.5" /></svg>