<?xml version="1.0" encoding="utf-8" ?>
<svg baseProfile="tiny" height="100%" version="1.2" width="100%" xmlns="http://www.w3.org/2000/svg" xmlns:ev="http://www.w3.org/2001/xml-events" xmlns:xlink="http://www.w3.org/1999/xlink"><defs /><line stroke="rgb(0%,0%,0%)" x1="209.1309" x2="209.1309" y1="100.5" y2="66.0061" /><line stroke="rgb(0%,0%,0%)" x1="209.1309" x2="209.1309" y1="66.0061" y2="0.5" /><line stroke="rgb(0%,0%,0%)" x1="289.9839" x2="289.9839" y1="100.5" y2="2.4991" /><line stroke="rgb(0%,0%,0%)" x1="289.9839" x2="289.9839" y1="2.4991" y2="0.5" /><line stroke="rgb(0%,0%,0%)" x1="217.9522" x2="209.1309" y1="100.5" y2="100.5" /><line stroke="rgb(0%,0%,0%)" x1="217.9522" x2="235.0695" y1="100.5" y2="100.5" /><line stroke="rgb(0%,0%,0%)" x1="235.0695" x2="240.5835" y1="100.5" y2="100.5" /><line stroke="rgb(0%,0%,0%)" x1="240.5835" x2="251.3892" y1="100.5" y2="100.5" /><line stroke="rgb(0%,0%,0%)" x1="251.3892" x2="259.6643" y1="100.5" y2="100.5" /><line stroke="rgb(0%,0%,0%)" x1="259.6643" x2="265.7782" y1="100.5" y2="100.5" /><line stroke="rgb(0%,0%,0%)" x1="265.7782" x2="269.8471" y1="100.5" y2="100.5" /><line stroke="rgb(0%,0%,0%)" x1="269.8471" x2="278.622" y1="100.5" y2="100.5" /><line stroke="rgb(0%,0%,0%)" x1="278.622" x2="280.4121" y1="100.5" y2="100.5" /><line stroke="rgb(0%,0%,0%)" x1="280.4121" x2="289.9839" y1="100.5" y2="100.5" /><line stroke="rgb(0%,0%,0%)" x1="209.1309" x2="217.9522" y1="0.5" y2="0.5" /><line stroke="rgb(0%,0%,0%)" x1="217.9522" x2="235.0695" y1="0.5" y2="0.5" /><line stroke="rgb(0%,0%,0%)" x1="235.0695" x2="240.5835" y1="0.5" y2="0.5" /><line stroke="rgb(0%,0%,0%)" x1="240.5835" x2="251.3892" y1="0.5" y2="0.5" /><line stroke="rgb(0%,0%,0%)" x1="251.3892" x2="259.6643" y1="0.5" y2="0.5" /><line stroke="rgb(0%,0%,0%)" x1="259.6643" x2="265.7782" y1="0.5" y2="0.5" /><line stroke="rgb(0%,0%,0%)" x1="265.7782" x2="269.8471" y1="0.5" y2="0.5" /><line stroke="rgb(0%,0%,0%)" x1="269.8471" x2="278.622" y1="0.5" y2="0.5" /><line stroke="rgb(0%,0%,0%)" x1="278.622" x2="280.4121" y1="0.5" y2="0.5" /><line stroke="rgb(0%,0%,0%)" x1="280.4121" x2="289.9839" y1="0.5" y2="0.5" /></svg>