<?xml version="1.0" encoding="utf-8" ?>
<svg baseProfile="tiny" height="100%" version="1.2" width="100%" xmlns="http://www.w3.org/2000/svg" xmlns:ev="http://www.w3.org/2001/xml-events" xmlns:xlink="http://www.w3.org/1999/xlink"><defs /><line stroke="rgb(0%,0%,0%)" x1="351.9" x2="351.9" y1="0.5" y2="20.805" /><line stroke="rgb(0%,0%,0%)" x1="351.9" x2="351.9" y1="20.805" y2="100.5" /><line stroke="rgb(0%,0%,0%)" x1="316.6371" x2="344.4357" y1="100.5" y2="100.5" /><line stroke="rgb(0%,0%,0%)" x1="344.4357" x2="345.4052" y1="100.5" y2="100.5" /><line stroke="rgb(0%,0%,0%)" x1="345.4052" x2="346.5128" y1="100.5" y2="100.5" /><line stroke="rgb(0%,0%,0%)" x1="346.5128" x2="347.742" y1="100.5" y2="100.5" /><line stroke="rgb(0%,0%,0%)" x1="347.742" x2="349.0697" y1="100.5" y2="100.5" /><line stroke="rgb(0%,0%,0%)" x1="349.0697" x2="350.4669" y1="100.5" y2="100.5" /><line stroke="rgb(0%,0%,0%)" x1="350.4669" x2="351.9" y1="100.5" y2="100.5" /><line stroke="rgb(0%,0%,0%)" x1="316.6371" x2="47.787" y1="100.5" y2="100.5" /><line stroke="rgb(0%,0%,0%)" x1="47.787" x2="0.5" y1="100.5" y2="100.5" /><line stroke="rgb(0%,0%,0%)" x1="0.5" x2="47.787" y1="0.5" y2="0.5" /><line stroke="rgb(0%,0%,0%)" x1="47.787" x2="316.6371" y1="0.5" y2="0.5" /><line stroke="rgb(0%,0%,0%)" x1="316.6371" x2="344.4357" y1="0.5" y2="0.5" /><line stroke="rgb(0%,0%,0%)" x1="344.4357" x2="345.4052" y1="0.5" y2="0.5" /><line stroke="rgb(0%,0%,0%)" x1="345.4052" x2="346.5128" y1="0.5" y2="0.5" /><line stroke="rgb(0%,0%,0%)" x1="346.5128" x2="347.742" y1="0.5" y2="0.5" /><line stroke="rgb(0%,0%,0%)" x1="347.742" x2="349.0697" y1="0.5" y2="0.5" /><line stroke="rgb(0%,0%,0%)" x1="349.0697" x2="350.4669" y1="0.5" y2="0.5" /><line stroke="rgb(0%,0%,0%)" x1="350.4669" x2="351.9" y1="0.5" y2="0.5" /><line stroke="rgb(0%,0%,0%)" x1="0.5" x2="0.5" y1="0.5" y2="77.0083" /><line stroke="rgb(0%,0%,0%)" x1="0.5" x2="0.5" y1="77.0083" y2="100.5" /><line stroke="rgb(0%,0%,0%)" x1="165.1722" x2="165.346" y1="47.3813" y2="49.0347" /><line stroke="rgb(0%,0%,0%)" x1="165.346" x2="165.5" y1="49.0347" y2="50.5" /><line stroke="rgb(0%,0%,0%)" x1="165.5" x2="165.3262" y1="50.5" y2="52.1534" /><line stroke="rgb(0%,0%,0%)" x1="165.3262" x2="165.1722" y1="52.1534" y2="53.6187" /><line stroke="rgb(0%,0%,0%)" x1="165.1722" x2="164.6585" y1="53.6187" y2="55.1998" /><line stroke="rgb(0%,0%,0%)" x1="164.6585" x2="164.2032" y1="55.1998" y2="56.6011" /><line stroke="rgb(0%,0%,0%)" x1="164.2032" x2="163.3719" y1="56.6011" y2="58.0408" /><line stroke="rgb(0%,0%,0%)" x1="163.3719" x2="162.6353" y1="58.0408" y2="59.3168" /><line stroke="rgb(0%,0%,0%)" x1="162.6353" x2="161.5228" y1="59.3168" y2="60.5523" /><line stroke="rgb(0%,0%,0%)" x1="161.5228" x2="160.537" y1="60.5523" y2="61.6472" /><line stroke="rgb(0%,0%,0%)" x1="160.537" x2="159.1919" y1="61.6472" y2="62.6244" /><line stroke="rgb(0%,0%,0%)" x1="159.1919" x2="158.0" y1="62.6244" y2="63.4904" /><line stroke="rgb(0%,0%,0%)" x1="158.0" x2="156.4812" y1="63.4904" y2="64.1666" /><line stroke="rgb(0%,0%,0%)" x1="156.4812" x2="155.1353" y1="64.1666" y2="64.7658" /><line stroke="rgb(0%,0%,0%)" x1="155.1353" x2="153.5091" y1="64.7658" y2="65.1115" /><line stroke="rgb(0%,0%,0%)" x1="153.5091" x2="152.0679" y1="65.1115" y2="65.4178" /><line stroke="rgb(0%,0%,0%)" x1="152.0679" x2="150.4054" y1="65.4178" y2="65.4178" /><line stroke="rgb(0%,0%,0%)" x1="150.4054" x2="148.9321" y1="65.4178" y2="65.4178" /><line stroke="rgb(0%,0%,0%)" x1="148.9321" x2="147.3059" y1="65.4178" y2="65.0722" /><line stroke="rgb(0%,0%,0%)" x1="147.3059" x2="145.8647" y1="65.0722" y2="64.7658" /><line stroke="rgb(0%,0%,0%)" x1="145.8647" x2="144.346" y1="64.7658" y2="64.0896" /><line stroke="rgb(0%,0%,0%)" x1="144.346" x2="143.0" y1="64.0896" y2="63.4904" /><line stroke="rgb(0%,0%,0%)" x1="143.0" x2="141.655" y1="63.4904" y2="62.5132" /><line stroke="rgb(0%,0%,0%)" x1="141.655" x2="140.463" y1="62.5132" y2="61.6472" /><line stroke="rgb(0%,0%,0%)" x1="140.463" x2="139.3506" y1="61.6472" y2="60.4117" /><line stroke="rgb(0%,0%,0%)" x1="139.3506" x2="138.3647" y1="60.4117" y2="59.3168" /><line stroke="rgb(0%,0%,0%)" x1="138.3647" x2="137.5335" y1="59.3168" y2="57.877" /><line stroke="rgb(0%,0%,0%)" x1="137.5335" x2="136.7968" y1="57.877" y2="56.6011" /><line stroke="rgb(0%,0%,0%)" x1="136.7968" x2="136.2831" y1="56.6011" y2="55.0199" /><line stroke="rgb(0%,0%,0%)" x1="136.2831" x2="135.8278" y1="55.0199" y2="53.6187" /><line stroke="rgb(0%,0%,0%)" x1="135.8278" x2="135.654" y1="53.6187" y2="51.9653" /><line stroke="rgb(0%,0%,0%)" x1="135.654" x2="135.5" y1="51.9653" y2="50.5" /><line stroke="rgb(0%,0%,0%)" x1="135.5" x2="135.6738" y1="50.5" y2="48.8466" /><line stroke="rgb(0%,0%,0%)" x1="135.6738" x2="135.8278" y1="48.8466" y2="47.3813" /><line stroke="rgb(0%,0%,0%)" x1="135.8278" x2="136.3415" y1="47.3813" y2="45.8002" /><line stroke="rgb(0%,0%,0%)" x1="136.3415" x2="136.7968" y1="45.8002" y2="44.3989" /><line stroke="rgb(0%,0%,0%)" x1="136.7968" x2="137.6281" y1="44.3989" y2="42.9592" /><line stroke="rgb(0%,0%,0%)" x1="137.6281" x2="138.3647" y1="42.9592" y2="41.6832" /><line stroke="rgb(0%,0%,0%)" x1="138.3647" x2="139.4772" y1="41.6832" y2="40.4477" /><line stroke="rgb(0%,0%,0%)" x1="139.4772" x2="140.463" y1="40.4477" y2="39.3528" /><line stroke="rgb(0%,0%,0%)" x1="140.463" x2="141.808" y1="39.3528" y2="38.3756" /><line stroke="rgb(0%,0%,0%)" x1="141.808" x2="143.0" y1="38.3756" y2="37.5096" /><line stroke="rgb(0%,0%,0%)" x1="143.0" x2="144.5188" y1="37.5096" y2="36.8334" /><line stroke="rgb(0%,0%,0%)" x1="144.5188" x2="145.8647" y1="36.8334" y2="36.2342" /><line stroke="rgb(0%,0%,0%)" x1="145.8647" x2="147.4909" y1="36.2342" y2="35.8885" /><line stroke="rgb(0%,0%,0%)" x1="147.4909" x2="148.9321" y1="35.8885" y2="35.5822" /><line stroke="rgb(0%,0%,0%)" x1="148.9321" x2="150.5946" y1="35.5822" y2="35.5822" /><line stroke="rgb(0%,0%,0%)" x1="150.5946" x2="152.0679" y1="35.5822" y2="35.5822" /><line stroke="rgb(0%,0%,0%)" x1="152.0679" x2="153.6941" y1="35.5822" y2="35.9278" /><line stroke="rgb(0%,0%,0%)" x1="153.6941" x2="155.1353" y1="35.9278" y2="36.2342" /><line stroke="rgb(0%,0%,0%)" x1="155.1353" x2="156.654" y1="36.2342" y2="36.9104" /><line stroke="rgb(0%,0%,0%)" x1="156.654" x2="158.0" y1="36.9104" y2="37.5096" /><line stroke="rgb(0%,0%,0%)" x1="158.0" x2="159.345" y1="37.5096" y2="38.4868" /><line stroke="rgb(0%,0%,0%)" x1="159.345" x2="160.537" y1="38.4868" y2="39.3528" /><line stroke="rgb(0%,0%,0%)" x1="160.537" x2="161.6494" y1="39.3528" y2="40.5883" /><line stroke="rgb(0%,0%,0%)" x1="161.6494" x2="162.6353" y1="40.5883" y2="41.6832" /><line stroke="rgb(0%,0%,0%)" x1="162.6353" x2="163.4665" y1="41.6832" y2="43.123" /><line stroke="rgb(0%,0%,0%)" x1="163.4665" x2="164.2032" y1="43.123" y2="44.3989" /><line stroke="rgb(0%,0%,0%)" x1="164.2032" x2="164.7169" y1="44.3989" y2="45.9801" /><line stroke="rgb(0%,0%,0%)" x1="164.7169" x2="165.1722" y1="45.9801" y2="47.3813" /><line stroke="rgb(0%,0%,0%)" x1="65.1722" x2="65.346" y1="47.3813" y2="49.0347" /><line stroke="rgb(0%,0%,0%)" x1="65.346" x2="65.5" y1="49.0347" y2="50.5" /><line stroke="rgb(0%,0%,0%)" x1="65.5" x2="65.3262" y1="50.5" y2="52.1534" /><line stroke="rgb(0%,0%,0%)" x1="65.3262" x2="65.1722" y1="52.1534" y2="53.6187" /><line stroke="rgb(0%,0%,0%)" x1="65.1722" x2="64.6585" y1="53.6187" y2="55.1998" /><line stroke="rgb(0%,0%,0%)" x1="64.6585" x2="64.2032" y1="55.1998" y2="56.6011" /><line stroke="rgb(0%,0%,0%)" x1="64.2032" x2="63.3719" y1="56.6011" y2="58.0408" /><line stroke="rgb(0%,0%,0%)" x1="63.3719" x2="62.6352" y1="58.0408" y2="59.3168" /><line stroke="rgb(0%,0%,0%)" x1="62.6352" x2="61.5228" y1="59.3168" y2="60.5523" /><line stroke="rgb(0%,0%,0%)" x1="61.5228" x2="60.537" y1="60.5523" y2="61.6472" /><line stroke="rgb(0%,0%,0%)" x1="60.537" x2="59.192" y1="61.6472" y2="62.6244" /><line stroke="rgb(0%,0%,0%)" x1="59.192" x2="58.0" y1="62.6244" y2="63.4904" /><line stroke="rgb(0%,0%,0%)" x1="58.0" x2="56.4812" y1="63.4904" y2="64.1666" /><line stroke="rgb(0%,0%,0%)" x1="56.4812" x2="55.1353" y1="64.1666" y2="64.7658" /><line stroke="rgb(0%,0%,0%)" x1="55.1353" x2="53.5091" y1="64.7658" y2="65.1115" /><line stroke="rgb(0%,0%,0%)" x1="53.5091" x2="52.0679" y1="65.1115" y2="65.4178" /><line stroke="rgb(0%,0%,0%)" x1="52.0679" x2="50.4054" y1="65.4178" y2="65.4178" /><line stroke="rgb(0%,0%,0%)" x1="50.4054" x2="48.9321" y1="65.4178" y2="65.4178" /><line stroke="rgb(0%,0%,0%)" x1="48.9321" x2="47.3059" y1="65.4178" y2="65.0722" /><line stroke="rgb(0%,0%,0%)" x1="47.3059" x2="45.8647" y1="65.0722" y2="64.7658" /><line stroke="rgb(0%,0%,0%)" x1="45.8647" x2="44.346" y1="64.7658" y2="64.0896" /><line stroke="rgb(0%,0%,0%)" x1="44.346" x2="43.0" y1="64.0896" y2="63.4904" /><line stroke="rgb(0%,0%,0%)" x1="43.0" x2="41.655" y1="63.4904" y2="62.5132" /><line stroke="rgb(0%,0%,0%)" x1="41.655" x2="40.463" y1="62.5132" y2="61.6472" /><line stroke="rgb(0%,0%,0%)" x1="40.463" x2="39.3506" y1="61.6472" y2="60.4117" /><line stroke="rgb(0%,0%,0%)" x1="39.3506" x2="38.3647" y1="60.4117" y2="59.3168" /><line stroke="rgb(0%,0%,0%)" x1="38.3647" x2="37.5335" y1="59.3168" y2="57.877" /><line stroke="rgb(0%,0%,0%)" x1="37.5335" x2="36.7968" y1="57.877" y2="56.6011" /><line stroke="rgb(0%,0%,0%)" x1="36.7968" x2="36.2831" y1="56.6011" y2="55.0199" /><line stroke="rgb(0%,0%,0%)" x1="36.2831" x2="35.8278" y1="55.0199" y2="53.6187" /><line stroke="rgb(0%,0%,0%)" x1="35.8278" x2="35.654" y1="53.6187" y2="51.9653" /><line stroke="rgb(0%,0%,0%)" x1="35.654" x2="35.5" y1="51.9653" y2="50.5" /><line stroke="rgb(0%,0%,0%)" x1="35.5" x2="35.6738" y1="50.5" y2="48.8466" /><line stroke="rgb(0%,0%,0%)" x1="35.6738" x2="35.8278" y1="48.8466" y2="47.3813" /><line stroke="rgb(0%,0%,0%)" x1="35.8278" x2="36.3415" y1="47.3813" y2="45.8002" /><line stroke="rgb(0%,0%,0%)" x1="36.3415" x2="36.7968" y1="45.8002" y2="44.3989" /><line stroke="rgb(0%,0%,0%)" x1="36.7968" x2="37.6281" y1="44.3989" y2="42.9592" /><line stroke="rgb(0%,0%,0%)" x1="37.6281" x2="38.3647" y1="42.9592" y2="41.6832" /><line stroke="rgb(0%,0%,0%)" x1="38.3647" x2="39.4772" y1="41.6832" y2="40.4477" /><line stroke="rgb(0%,0%,0%)" x1="39.4772" x2="40.463" y1="40.4477" y2="39.3528" /><line stroke="rgb(0%,0%,0%)" x1="40.463" x2="41.808" y1="39.3528" y2="38.3756" /><line stroke="rgb(0%,0%,0%)" x1="41.808" x2="43.0" y1="38.3756" y2="37.5096" /><line stroke="rgb(0%,0%,0%)" x1="43.0" x2="44.5188" y1="37.5096" y2="36.8334" /><line stroke="rgb(0%,0%,0%)" x1="44.5188" x2="45.8647" y1="36.8334" y2="36.2342" /><line stroke="rgb(0%,0%,0%)" x1="45.8647" x2="47.4909" y1="36.2342" y2="35.8885" /><line stroke="rgb(0%,0%,0%)" x1="47.4909" x2="48.9321" y1="35.8885" y2="35.5822" /><line stroke="rgb(0%,0%,0%)" x1="48.9321" x2="50.5946" y1="35.5822" y2="35.5822" /><line stroke="rgb(0%,0%,0%)" x1="50.5946" x2="52.0679" y1="35.5822" y2="35.5822" /><line stroke="rgb(0%,0%,0%)" x1="52.0679" x2="53.6941" y1="35.5822" y2="35.9278" /><line stroke="rgb(0%,0%,0%)" x1="53.6941" x2="55.1353" y1="35.9278" y2="36.2342" /><line stroke="rgb(0%,0%,0%)" x1="55.1353" x2="56.654" y1="36.2342" y2="36.9104" /><line stroke="rgb(0%,0%,0%)" x1="56.654" x2="58.0" y1="36.9104" y2="37.5096" /><line stroke="rgb(0%,0%,0%)" x1="58.0" x2="59.345" y1="37.5096" y2="38.4868" /><line stroke="rgb(0%,0%,0%)" x1="59.345" x2="60.537" y1="38.4868" y2="39.3528" /><line stroke="rgb(0%,0%,0%)" x1="60.537" x2="61.6494" y1="39.3528" y2="40.5883" /><line stroke="rgb(0%,0%,0%)" x1="61.6494" x2="62.6352" y1="40.5883" y2="41.6832" /><line stroke="rgb(0%,0%,0%)" x1="62.6352" x2="63.4665" y1="41.6832" y2="43.123" /><line stroke="rgb(0%,0%,0%)" x1="63.4665" x2="64.2032" y1="43.123" y2="44.3989" /><line stroke="rgb(0%,0%,0%)" x1="64.2032" x2="64.7169" y1="44.3989" y2="45.9801" /><line stroke="rgb(0%,0%,0%)" x1="64.7169" x2="65.1722" y1="45.9801" y2="47.3813" /></svg>