<?xml version="1.0" encoding="utf-8" ?>
<svg baseProfile="tiny" height="100%" version="1.2" width="100%" xmlns="http://www.w3.org/2000/svg" xmlns:ev="http://www.w3.org/2001/xml-events" xmlns:xlink="http://www.w3.org/1999/xlink"><defs /><line stroke="rgb(0%,0%,0%)" x1="209.4401" x2="209.4401" y1="100.5" y2="76.4798" /><line stroke="rgb(0%,0%,0%)" x1="209.4401" x2="209.4401" y1="76.4798" y2="0.5" /><line stroke="rgb(0%,0%,0%)" x1="290.7831" x2="290.7831" y1="100.5" y2="84.4247" /><line stroke="rgb(0%,0%,0%)" x1="290.7831" x2="290.7831" y1="84.4247" y2="0.5" /><line stroke="rgb(0%,0%,0%)" x1="215.5829" x2="209.4401" y1="100.5" y2="100.5" /><line stroke="rgb(0%,0%,0%)" x1="215.5829" x2="233.3791" y1="100.5" y2="100.5" /><line stroke="rgb(0%,0%,0%)" x1="233.3791" x2="238.4563" y1="100.5" y2="100.5" /><line stroke="rgb(0%,0%,0%)" x1="238.4563" x2="249.8466" y1="100.5" y2="100.5" /><line stroke="rgb(0%,0%,0%)" x1="249.8466" x2="257.7403" y1="100.5" y2="100.5" /><line stroke="rgb(0%,0%,0%)" x1="257.7403" x2="264.3647" y1="100.5" y2="100.5" /><line stroke="rgb(0%,0%,0%)" x1="264.3647" x2="268.7733" y1="100.5" y2="100.5" /><line stroke="rgb(0%,0%,0%)" x1="268.7733" x2="277.3226" y1="100.5" y2="100.5" /><line stroke="rgb(0%,0%,0%)" x1="277.3226" x2="279.4235" y1="100.5" y2="100.5" /><line stroke="rgb(0%,0%,0%)" x1="279.4235" x2="289.0065" y1="100.5" y2="100.5" /><line stroke="rgb(0%,0%,0%)" x1="289.0065" x2="289.259" y1="100.5" y2="100.5" /><line stroke="rgb(0%,0%,0%)" x1="289.259" x2="289.452" y1="100.5" y2="100.5" /><line stroke="rgb(0%,0%,0%)" x1="289.452" x2="290.7831" y1="100.5" y2="100.5" /><line stroke="rgb(0%,0%,0%)" x1="209.4401" x2="215.5829" y1="0.5" y2="0.5" /><line stroke="rgb(0%,0%,0%)" x1="215.5829" x2="233.3791" y1="0.5" y2="0.5" /><line stroke="rgb(0%,0%,0%)" x1="233.3791" x2="238.4563" y1="0.5" y2="0.5" /><line stroke="rgb(0%,0%,0%)" x1="238.4563" x2="249.8466" y1="0.5" y2="0.5" /><line stroke="rgb(0%,0%,0%)" x1="249.8466" x2="257.7403" y1="0.5" y2="0.5" /><line stroke="rgb(0%,0%,0%)" x1="257.7403" x2="264.3647" y1="0.5" y2="0.5" /><line stroke="rgb(0%,0%,0%)" x1="264.3647" x2="268.7733" y1="0.5" y2="0.5" /><line stroke="rgb(0%,0%,0%)" x1="268.7733" x2="277.3226" y1="0.5" y2="0.5" /><line stroke="rgb(0%,0%,0%)" x1="277.3226" x2="279.4235" y1="0.5" y2="0.5" /><line stroke="rgb(0%,0%,0%)" x1="279.4235" x2="289.0065" y1="0.5" y2="0.5" /><line stroke="rgb(0%,0%,0%)" x1="289.0065" x2="289.259" y1="0.5" y2="0.5" /><line stroke="rgb(0%,0%,0%)" x1="289.259" x2="289.452" y1="0.5" y2="0.5" /><line stroke="rgb(0%,0%,0%)" x1="289.452" x2="290.7831" y1="0.5" y2="0.5" /></svg>