<?xml version="1.0" encoding="utf-8" ?>
<svg baseProfile="tiny" height="100%" version="1.2" width="100%" xmlns="http://www.w3.org/2000/svg" xmlns:ev="http://www.w3.org/2001/xml-events" xmlns:xlink="http://www.w3.org/1999/xlink"><defs /><line stroke="rgb(0%,0%,0%)" x1="209.7493" x2="209.7493" y1="100.5" y2="86.9535" /><line stroke="rgb(0%,0%,0%)" x1="209.7493" x2="209.7493" y1="86.9535" y2="0.5" /><line stroke="rgb(0%,0%,0%)" x1="291.599" x2="291.599" y1="100.5" y2="66.2087" /><line stroke="rgb(0%,0%,0%)" x1="291.599" x2="291.599" y1="66.2087" y2="0.5" /><line stroke="rgb(0%,0%,0%)" x1="213.2136" x2="209.7493" y1="100.5" y2="100.5" /><line stroke="rgb(0%,0%,0%)" x1="213.2136" x2="231.6886" y1="100.5" y2="100.5" /><line stroke="rgb(0%,0%,0%)" x1="231.6886" x2="236.329" y1="100.5" y2="100.5" /><line stroke="rgb(0%,0%,0%)" x1="236.329" x2="248.3041" y1="100.5" y2="100.5" /><line stroke="rgb(0%,0%,0%)" x1="248.3041" x2="255.8163" y1="100.5" y2="100.5" /><line stroke="rgb(0%,0%,0%)" x1="255.8163" x2="262.9512" y1="100.5" y2="100.5" /><line stroke="rgb(0%,0%,0%)" x1="262.9512" x2="267.6995" y1="100.5" y2="100.5" /><line stroke="rgb(0%,0%,0%)" x1="267.6995" x2="276.0232" y1="100.5" y2="100.5" /><line stroke="rgb(0%,0%,0%)" x1="276.0232" x2="278.4348" y1="100.5" y2="100.5" /><line stroke="rgb(0%,0%,0%)" x1="278.4348" x2="287.8094" y1="100.5" y2="100.5" /><line stroke="rgb(0%,0%,0%)" x1="287.8094" x2="288.348" y1="100.5" y2="100.5" /><line stroke="rgb(0%,0%,0%)" x1="288.348" x2="288.7597" y1="100.5" y2="100.5" /><line stroke="rgb(0%,0%,0%)" x1="288.7597" x2="291.599" y1="100.5" y2="100.5" /><line stroke="rgb(0%,0%,0%)" x1="209.7493" x2="213.2136" y1="0.5" y2="0.5" /><line stroke="rgb(0%,0%,0%)" x1="213.2136" x2="231.6886" y1="0.5" y2="0.5" /><line stroke="rgb(0%,0%,0%)" x1="231.6886" x2="236.329" y1="0.5" y2="0.5" /><line stroke="rgb(0%,0%,0%)" x1="236.329" x2="248.3041" y1="0.5" y2="0.5" /><line stroke="rgb(0%,0%,0%)" x1="248.3041" x2="255.8163" y1="0.5" y2="0.5" /><line stroke="rgb(0%,0%,0%)" x1="255.8163" x2="262.9512" y1="0.5" y2="0.5" /><line stroke="rgb(0%,0%,0%)" x1="262.9512" x2="267.6995" y1="0.5" y2="0.5" /><line stroke="rgb(0%,0%,0%)" x1="267.6995" x2="276.0232" y1="0.5" y2="0.5" /><line stroke="rgb(0%,0%,0%)" x1="276.0232" x2="278.4348" y1="0.5" y2="0.5" /><line stroke="rgb(0%,0%,0%)" x1="278.4348" x2="287.8094" y1="0.5" y2="0.5" /><line stroke="rgb(0%,0%,0%)" x1="287.8094" x2="288.348" y1="0.5" y2="0.5" /><line stroke="rgb(0%,0%,0%)" x1="288.348" x2="288.7597" y1="0.5" y2="0.5" /><line stroke="rgb(0%,0%,0%)" x1="288.7597" x2="291.599" y1="0.5" y2="0.5" /></svg>