<?xml version="1.0" encoding="utf-8" ?>
<svg baseProfile="tiny" height="100%" version="1.2" width="100%" xmlns="http://www.w3.org/2000/svg" xmlns:ev="http://www.w3.org/2001/xml-events" xmlns:xlink="http://www.w3.org/1999/xlink"><defs /><line stroke="rgb(0%,0%,0%)" x1="210.0585" x2="210.0585" y1="100.5" y2="97.4271" /><line stroke="rgb(0%,0%,0%)" x1="210.0585" x2="210.0585" y1="97.4271" y2="0.5" /><line stroke="rgb(0%,0%,0%)" x1="292.4149" x2="292.4149" y1="100.5" y2="47.9928" /><line stroke="rgb(0%,0%,0%)" x1="292.4149" x2="292.4149" y1="47.9928" y2="0.5" /><line stroke="rgb(0%,0%,0%)" x1="210.8443" x2="210.0585" y1="100.5" y2="100.5" /><line stroke="rgb(0%,0%,0%)" x1="210.8443" x2="229.9982" y1="100.5" y2="100.5" /><line stroke="rgb(0%,0%,0%)" x1="229.9982" x2="234.2018" y1="100.5" y2="100.5" /><line stroke="rgb(0%,0%,0%)" x1="234.2018" x2="246.7616" y1="100.5" y2="100.5" /><line stroke="rgb(0%,0%,0%)" x1="246.7616" x2="253.8923" y1="100.5" y2="100.5" /><line stroke="rgb(0%,0%,0%)" x1="253.8923" x2="261.5377" y1="100.5" y2="100.5" /><line stroke="rgb(0%,0%,0%)" x1="261.5377" x2="266.6256" y1="100.5" y2="100.5" /><line stroke="rgb(0%,0%,0%)" x1="266.6256" x2="274.7238" y1="100.5" y2="100.5" /><line stroke="rgb(0%,0%,0%)" x1="274.7238" x2="277.4462" y1="100.5" y2="100.5" /><line stroke="rgb(0%,0%,0%)" x1="277.4462" x2="286.6122" y1="100.5" y2="100.5" /><line stroke="rgb(0%,0%,0%)" x1="286.6122" x2="287.4369" y1="100.5" y2="100.5" /><line stroke="rgb(0%,0%,0%)" x1="287.4369" x2="288.0673" y1="100.5" y2="100.5" /><line stroke="rgb(0%,0%,0%)" x1="288.0673" x2="292.4149" y1="100.5" y2="100.5" /><line stroke="rgb(0%,0%,0%)" x1="210.0585" x2="210.8443" y1="0.5" y2="0.5" /><line stroke="rgb(0%,0%,0%)" x1="210.8443" x2="229.9982" y1="0.5" y2="0.5" /><line stroke="rgb(0%,0%,0%)" x1="229.9982" x2="234.2018" y1="0.5" y2="0.5" /><line stroke="rgb(0%,0%,0%)" x1="234.2018" x2="246.7616" y1="0.5" y2="0.5" /><line stroke="rgb(0%,0%,0%)" x1="246.7616" x2="253.8923" y1="0.5" y2="0.5" /><line stroke="rgb(0%,0%,0%)" x1="253.8923" x2="261.5377" y1="0.5" y2="0.5" /><line stroke="rgb(0%,0%,0%)" x1="261.5377" x2="266.6256" y1="0.5" y2="0.5" /><line stroke="rgb(0%,0%,0%)" x1="266.6256" x2="274.7238" y1="0.5" y2="0.5" /><line stroke="rgb(0%,0%,0%)" x1="274.7238" x2="277.4462" y1="0.5" y2="0.5" /><line stroke="rgb(0%,0%,0%)" x1="277.4462" x2="286.6122" y1="0.5" y2="0.5" /><line stroke="rgb(0%,0%,0%)" x1="286.6122" x2="287.4369" y1="0.5" y2="0.5" /><line stroke="rgb(0%,0%,0%)" x1="287.4369" x2="288.0673" y1="0.5" y2="0.5" /><line stroke="rgb(0%,0%,0%)" x1="288.0673" x2="292.4149" y1="0.5" y2="0.5" /></svg>