<?xml version="1.0" encoding="utf-8" ?>
<svg baseProfile="tiny" height="100%" version="1.2" width="100%" xmlns="http://www.w3.org/2000/svg" xmlns:ev="http://www.w3.org/2001/xml-events" xmlns:xlink="http://www.w3.org/1999/xlink"><defs /><line stroke="rgb(0%,0%,0%)" x1="210.4204" x2="210.4204" y1="100.5" y2="8.0735" /><line stroke="rgb(0%,0%,0%)" x1="210.4204" x2="210.4204" y1="8.0735" y2="0.5" /><line stroke="rgb(0%,0%,0%)" x1="293.2308" x2="293.2308" y1="100.5" y2="29.7768" /><line stroke="rgb(0%,0%,0%)" x1="293.2308" x2="293.2308" y1="29.7768" y2="0.5" /><line stroke="rgb(0%,0%,0%)" x1="228.3077" x2="210.4204" y1="100.5" y2="100.5" /><line stroke="rgb(0%,0%,0%)" x1="228.3077" x2="232.0745" y1="100.5" y2="100.5" /><line stroke="rgb(0%,0%,0%)" x1="232.0745" x2="245.219" y1="100.5" y2="100.5" /><line stroke="rgb(0%,0%,0%)" x1="245.219" x2="251.9683" y1="100.5" y2="100.5" /><line stroke="rgb(0%,0%,0%)" x1="251.9683" x2="260.1241" y1="100.5" y2="100.5" /><line stroke="rgb(0%,0%,0%)" x1="260.1241" x2="265.5518" y1="100.5" y2="100.5" /><line stroke="rgb(0%,0%,0%)" x1="265.5518" x2="273.4244" y1="100.5" y2="100.5" /><line stroke="rgb(0%,0%,0%)" x1="273.4244" x2="276.4575" y1="100.5" y2="100.5" /><line stroke="rgb(0%,0%,0%)" x1="276.4575" x2="285.415" y1="100.5" y2="100.5" /><line stroke="rgb(0%,0%,0%)" x1="285.415" x2="286.5259" y1="100.5" y2="100.5" /><line stroke="rgb(0%,0%,0%)" x1="286.5259" x2="287.375" y1="100.5" y2="100.5" /><line stroke="rgb(0%,0%,0%)" x1="287.375" x2="293.2308" y1="100.5" y2="100.5" /><line stroke="rgb(0%,0%,0%)" x1="210.4204" x2="228.3077" y1="0.5" y2="0.5" /><line stroke="rgb(0%,0%,0%)" x1="228.3077" x2="232.0745" y1="0.5" y2="0.5" /><line stroke="rgb(0%,0%,0%)" x1="232.0745" x2="245.219" y1="0.5" y2="0.5" /><line stroke="rgb(0%,0%,0%)" x1="245.219" x2="251.9683" y1="0.5" y2="0.5" /><line stroke="rgb(0%,0%,0%)" x1="251.9683" x2="260.1241" y1="0.5" y2="0.5" /><line stroke="rgb(0%,0%,0%)" x1="260.1241" x2="265.5518" y1="0.5" y2="0.5" /><line stroke="rgb(0%,0%,0%)" x1="265.5518" x2="273.4244" y1="0.5" y2="0.5" /><line stroke="rgb(0%,0%,0%)" x1="273.4244" x2="276.4575" y1="0.5" y2="0.5" /><line stroke="rgb(0%,0%,0%)" x1="276.4575" x2="285.415" y1="0.5" y2="0.5" /><line stroke="rgb(0%,0%,0%)" x1="285.415" x2="286.5259" y1="0.5" y2="0.5" /><line stroke="rgb(0%,0%,0%)" x1="286.5259" x2="287.375" y1="0.5" y2="0.5" /><line stroke="rgb(0%,0%,0%)" x1="287.375" x2="293.2308" y1="0.5" y2="0.5" /></svg>