<?xml version="1.0" encoding="utf-8" ?>
<svg baseProfile="tiny" height="100%" version="1.2" width="100%" xmlns="http://www.w3.org/2000/svg" xmlns:ev="http://www.w3.org/2001/xml-events" xmlns:xlink="http://www.w3.org/1999/xlink"><defs /><line stroke="rgb(0%,0%,0%)" x1="210.8043" x2="210.8043" y1="100.5" y2="18.7917" /><line stroke="rgb(0%,0%,0%)" x1="210.8043" x2="210.8043" y1="18.7917" y2="0.5" /><line stroke="rgb(0%,0%,0%)" x1="294.0468" x2="294.0468" y1="100.5" y2="11.5609" /><line stroke="rgb(0%,0%,0%)" x1="294.0468" x2="294.0468" y1="11.5609" y2="0.5" /><line stroke="rgb(0%,0%,0%)" x1="226.6173" x2="210.8043" y1="100.5" y2="100.5" /><line stroke="rgb(0%,0%,0%)" x1="226.6173" x2="229.9473" y1="100.5" y2="100.5" /><line stroke="rgb(0%,0%,0%)" x1="229.9473" x2="243.6765" y1="100.5" y2="100.5" /><line stroke="rgb(0%,0%,0%)" x1="243.6765" x2="250.0443" y1="100.5" y2="100.5" /><line stroke="rgb(0%,0%,0%)" x1="250.0443" x2="258.7106" y1="100.5" y2="100.5" /><line stroke="rgb(0%,0%,0%)" x1="258.7106" x2="264.478" y1="100.5" y2="100.5" /><line stroke="rgb(0%,0%,0%)" x1="264.478" x2="272.125" y1="100.5" y2="100.5" /><line stroke="rgb(0%,0%,0%)" x1="272.125" x2="275.4689" y1="100.5" y2="100.5" /><line stroke="rgb(0%,0%,0%)" x1="275.4689" x2="284.2178" y1="100.5" y2="100.5" /><line stroke="rgb(0%,0%,0%)" x1="284.2178" x2="285.6148" y1="100.5" y2="100.5" /><line stroke="rgb(0%,0%,0%)" x1="285.6148" x2="286.6826" y1="100.5" y2="100.5" /><line stroke="rgb(0%,0%,0%)" x1="286.6826" x2="294.0468" y1="100.5" y2="100.5" /><line stroke="rgb(0%,0%,0%)" x1="210.8043" x2="226.6173" y1="0.5" y2="0.5" /><line stroke="rgb(0%,0%,0%)" x1="226.6173" x2="229.9473" y1="0.5" y2="0.5" /><line stroke="rgb(0%,0%,0%)" x1="229.9473" x2="243.6765" y1="0.5" y2="0.5" /><line stroke="rgb(0%,0%,0%)" x1="243.6765" x2="250.0443" y1="0.5" y2="0.5" /><line stroke="rgb(0%,0%,0%)" x1="250.0443" x2="258.7106" y1="0.5" y2="0.5" /><line stroke="rgb(0%,0%,0%)" x1="258.7106" x2="264.478" y1="0.5" y2="0.5" /><line stroke="rgb(0%,0%,0%)" x1="264.478" x2="272.125" y1="0.5" y2="0.5" /><line stroke="rgb(0%,0%,0%)" x1="272.125" x2="275.4689" y1="0.5" y2="0.5" /><line stroke="rgb(0%,0%,0%)" x1="275.4689" x2="284.2178" y1="0.5" y2="0.5" /><line stroke="rgb(0%,0%,0%)" x1="284.2178" x2="285.6148" y1="0.5" y2="0.5" /><line stroke="rgb(0%,0%,0%)" x1="285.6148" x2="286.6826" y1="0.5" y2="0.5" /><line stroke="rgb(0%,0%,0%)" x1="286.6826" x2="294.0468" y1="0.5" y2="0.5" /></svg>