<?xml version="1.0" encoding="utf-8" ?>
<svg baseProfile="tiny" height="100%" version="1.2" width="100%" xmlns="http://www.w3.org/2000/svg" xmlns:ev="http://www.w3.org/2001/xml-events" xmlns:xlink="http://www.w3.org/1999/xlink"><defs /><line stroke="rgb(0%,0%,0%)" x1="211.1881" x2="211.1881" y1="100.5" y2="29.5098" /><line stroke="rgb(0%,0%,0%)" x1="211.1881" x2="211.1881" y1="29.5098" y2="0.5" /><line stroke="rgb(0%,0%,0%)" x1="294.928" x2="294.928" y1="100.5" y2="92.7292" /><line stroke="rgb(0%,0%,0%)" x1="294.928" x2="294.928" y1="92.7292" y2="0.5" /><line stroke="rgb(0%,0%,0%)" x1="224.9269" x2="211.1881" y1="100.5" y2="100.5" /><line stroke="rgb(0%,0%,0%)" x1="224.9269" x2="227.82" y1="100.5" y2="100.5" /><line stroke="rgb(0%,0%,0%)" x1="227.82" x2="242.134" y1="100.5" y2="100.5" /><line stroke="rgb(0%,0%,0%)" x1="242.134" x2="248.1204" y1="100.5" y2="100.5" /><line stroke="rgb(0%,0%,0%)" x1="248.1204" x2="257.2971" y1="100.5" y2="100.5" /><line stroke="rgb(0%,0%,0%)" x1="257.2971" x2="263.4042" y1="100.5" y2="100.5" /><line stroke="rgb(0%,0%,0%)" x1="263.4042" x2="270.8256" y1="100.5" y2="100.5" /><line stroke="rgb(0%,0%,0%)" x1="270.8256" x2="274.4802" y1="100.5" y2="100.5" /><line stroke="rgb(0%,0%,0%)" x1="274.4802" x2="283.0206" y1="100.5" y2="100.5" /><line stroke="rgb(0%,0%,0%)" x1="283.0206" x2="284.7037" y1="100.5" y2="100.5" /><line stroke="rgb(0%,0%,0%)" x1="284.7037" x2="285.9902" y1="100.5" y2="100.5" /><line stroke="rgb(0%,0%,0%)" x1="285.9902" x2="294.2124" y1="100.5" y2="100.5" /><line stroke="rgb(0%,0%,0%)" x1="294.2124" x2="294.2938" y1="100.5" y2="100.5" /><line stroke="rgb(0%,0%,0%)" x1="294.2938" x2="294.928" y1="100.5" y2="100.5" /><line stroke="rgb(0%,0%,0%)" x1="211.1881" x2="224.9269" y1="0.5" y2="0.5" /><line stroke="rgb(0%,0%,0%)" x1="224.9269" x2="227.82" y1="0.5" y2="0.5" /><line stroke="rgb(0%,0%,0%)" x1="227.82" x2="242.134" y1="0.5" y2="0.5" /><line stroke="rgb(0%,0%,0%)" x1="242.134" x2="248.1204" y1="0.5" y2="0.5" /><line stroke="rgb(0%,0%,0%)" x1="248.1204" x2="257.2971" y1="0.5" y2="0.5" /><line stroke="rgb(0%,0%,0%)" x1="257.2971" x2="263.4042" y1="0.5" y2="0.5" /><line stroke="rgb(0%,0%,0%)" x1="263.4042" x2="270.8256" y1="0.5" y2="0.5" /><line stroke="rgb(0%,0%,0%)" x1="270.8256" x2="274.4802" y1="0.5" y2="0.5" /><line stroke="rgb(0%,0%,0%)" x1="274.4802" x2="283.0206" y1="0.5" y2="0.5" /><line stroke="rgb(0%,0%,0%)" x1="283.0206" x2="284.7037" y1="0.5" y2="0.5" /><line stroke="rgb(0%,0%,0%)" x1="284.7037" x2="285.9902" y1="0.5" y2="0.5" /><line stroke="rgb(0%,0%,0%)" x1="285.9902" x2="294.2124" y1="0.5" y2="0.5" /><line stroke="rgb(0%,0%,0%)" x1="294.2124" x2="294.2938" y1="0.5" y2="0.5" /><line stroke="rgb(0%,0%,0%)" x1="294.2938" x2="294.928" y1="0.5" y2="0.5" /></svg>