<?xml version="1.0" encoding="utf-8" ?>
<svg baseProfile="tiny" height="100%" version="1.2" width="100%" xmlns="http://www.w3.org/2000/svg" xmlns:ev="http://www.w3.org/2001/xml-events" xmlns:xlink="http://www.w3.org/1999/xlink"><defs /><line stroke="rgb(0%,0%,0%)" x1="211.572" x2="211.572" y1="100.5" y2="40.228" /><line stroke="rgb(0%,0%,0%)" x1="211.572" x2="211.572" y1="40.228" y2="0.5" /><line stroke="rgb(0%,0%,0%)" x1="295.9102" x2="295.9102" y1="100.5" y2="72.9458" /><line stroke="rgb(0%,0%,0%)" x1="295.9102" x2="295.9102" y1="72.9458" y2="0.5" /><line stroke="rgb(0%,0%,0%)" x1="223.2364" x2="211.572" y1="100.5" y2="100.5" /><line stroke="rgb(0%,0%,0%)" x1="223.2364" x2="225.6928" y1="100.5" y2="100.5" /><line stroke="rgb(0%,0%,0%)" x1="225.6928" x2="240.5914" y1="100.5" y2="100.5" /><line stroke="rgb(0%,0%,0%)" x1="240.5914" x2="246.1964" y1="100.5" y2="100.5" /><line stroke="rgb(0%,0%,0%)" x1="246.1964" x2="255.8835" y1="100.5" y2="100.5" /><line stroke="rgb(0%,0%,0%)" x1="255.8835" x2="262.3304" y1="100.5" y2="100.5" /><line stroke="rgb(0%,0%,0%)" x1="262.3304" x2="269.5261" y1="100.5" y2="100.5" /><line stroke="rgb(0%,0%,0%)" x1="269.5261" x2="273.4916" y1="100.5" y2="100.5" /><line stroke="rgb(0%,0%,0%)" x1="273.4916" x2="281.8235" y1="100.5" y2="100.5" /><line stroke="rgb(0%,0%,0%)" x1="281.8235" x2="283.7927" y1="100.5" y2="100.5" /><line stroke="rgb(0%,0%,0%)" x1="283.7927" x2="285.2979" y1="100.5" y2="100.5" /><line stroke="rgb(0%,0%,0%)" x1="285.2979" x2="293.3727" y1="100.5" y2="100.5" /><line stroke="rgb(0%,0%,0%)" x1="293.3727" x2="293.6613" y1="100.5" y2="100.5" /><line stroke="rgb(0%,0%,0%)" x1="293.6613" x2="295.9102" y1="100.5" y2="100.5" /><line stroke="rgb(0%,0%,0%)" x1="211.572" x2="223.2364" y1="0.5" y2="0.5" /><line stroke="rgb(0%,0%,0%)" x1="223.2364" x2="225.6928" y1="0.5" y2="0.5" /><line stroke="rgb(0%,0%,0%)" x1="225.6928" x2="240.5914" y1="0.5" y2="0.5" /><line stroke="rgb(0%,0%,0%)" x1="240.5914" x2="246.1964" y1="0.5" y2="0.5" /><line stroke="rgb(0%,0%,0%)" x1="246.1964" x2="255.8835" y1="0.5" y2="0.5" /><line stroke="rgb(0%,0%,0%)" x1="255.8835" x2="262.3304" y1="0.5" y2="0.5" /><line stroke="rgb(0%,0%,0%)" x1="262.3304" x2="269.5261" y1="0.5" y2="0.5" /><line stroke="rgb(0%,0%,0%)" x1="269.5261" x2="273.4916" y1="0.5" y2="0.5" /><line stroke="rgb(0%,0%,0%)" x1="273.4916" x2="281.8235" y1="0.5" y2="0.5" /><line stroke="rgb(0%,0%,0%)" x1="281.8235" x2="283.7927" y1="0.5" y2="0.5" /><line stroke="rgb(0%,0%,0%)" x1="283.7927" x2="285.2979" y1="0.5" y2="0.5" /><line stroke="rgb(0%,0%,0%)" x1="285.2979" x2="293.3727" y1="0.5" y2="0.5" /><line stroke="rgb(0%,0%,0%)" x1="293.3727" x2="293.6613" y1="0.5" y2="0.5" /><line stroke="rgb(0%,0%,0%)" x1="293.6613" x2="295.9102" y1="0.5" y2="0.5" /></svg>