<?xml version="1.0" encoding="utf-8" ?>
<svg baseProfile="tiny" height="100%" version="1.2" width="100%" xmlns="http://www.w3.org/2000/svg" xmlns:ev="http://www.w3.org/2001/xml-events" xmlns:xlink="http://www.w3.org/1999/xlink"><defs /><line stroke="rgb(0%,0%,0%)" x1="211.9558" x2="211.9558" y1="100.5" y2="50.9461" /><line stroke="rgb(0%,0%,0%)" x1="211.9558" x2="211.9558" y1="50.9461" y2="0.5" /><line stroke="rgb(0%,0%,0%)" x1="296.8925" x2="296.8925" y1="100.5" y2="53.1623" /><line stroke="rgb(0%,0%,0%)" x1="296.8925" x2="296.8925" y1="53.1623" y2="0.5" /><line stroke="rgb(0%,0%,0%)" x1="221.546" x2="211.9558" y1="100.5" y2="100.5" /><line stroke="rgb(0%,0%,0%)" x1="221.546" x2="223.5655" y1="100.5" y2="100.5" /><line stroke="rgb(0%,0%,0%)" x1="223.5655" x2="239.0489" y1="100.5" y2="100.5" /><line stroke="rgb(0%,0%,0%)" x1="239.0489" x2="244.2724" y1="100.5" y2="100.5" /><line stroke="rgb(0%,0%,0%)" x1="244.2724" x2="254.47" y1="100.5" y2="100.5" /><line stroke="rgb(0%,0%,0%)" x1="254.47" x2="261.2565" y1="100.5" y2="100.5" /><line stroke="rgb(0%,0%,0%)" x1="261.2565" x2="268.2267" y1="100.5" y2="100.5" /><line stroke="rgb(0%,0%,0%)" x1="268.2267" x2="272.5029" y1="100.5" y2="100.5" /><line stroke="rgb(0%,0%,0%)" x1="272.5029" x2="280.6263" y1="100.5" y2="100.5" /><line stroke="rgb(0%,0%,0%)" x1="280.6263" x2="282.8816" y1="100.5" y2="100.5" /><line stroke="rgb(0%,0%,0%)" x1="282.8816" x2="284.6055" y1="100.5" y2="100.5" /><line stroke="rgb(0%,0%,0%)" x1="284.6055" x2="292.533" y1="100.5" y2="100.5" /><line stroke="rgb(0%,0%,0%)" x1="292.533" x2="293.0289" y1="100.5" y2="100.5" /><line stroke="rgb(0%,0%,0%)" x1="293.0289" x2="296.8925" y1="100.5" y2="100.5" /><line stroke="rgb(0%,0%,0%)" x1="211.9558" x2="221.546" y1="0.5" y2="0.5" /><line stroke="rgb(0%,0%,0%)" x1="221.546" x2="223.5655" y1="0.5" y2="0.5" /><line stroke="rgb(0%,0%,0%)" x1="223.5655" x2="239.0489" y1="0.5" y2="0.5" /><line stroke="rgb(0%,0%,0%)" x1="239.0489" x2="244.2724" y1="0.5" y2="0.5" /><line stroke="rgb(0%,0%,0%)" x1="244.2724" x2="254.47" y1="0.5" y2="0.5" /><line stroke="rgb(0%,0%,0%)" x1="254.47" x2="261.2565" y1="0.5" y2="0.5" /><line stroke="rgb(0%,0%,0%)" x1="261.2565" x2="268.2267" y1="0.5" y2="0.5" /><line stroke="rgb(0%,0%,0%)" x1="268.2267" x2="272.5029" y1="0.5" y2="0.5" /><line stroke="rgb(0%,0%,0%)" x1="272.5029" x2="280.6263" y1="0.5" y2="0.5" /><line stroke="rgb(0%,0%,0%)" x1="280.6263" x2="282.8816" y1="0.5" y2="0.5" /><line stroke="rgb(0%,0%,0%)" x1="282.8816" x2="284.6055" y1="0.5" y2="0.5" /><line stroke="rgb(0%,0%,0%)" x1="284.6055" x2="292.533" y1="0.5" y2="0.5" /><line stroke="rgb(0%,0%,0%)" x1="292.533" x2="293.0289" y1="0.5" y2="0.5" /><line stroke="rgb(0%,0%,0%)" x1="293.0289" x2="296.8925" y1="0.5" y2="0.5" /></svg>