<?xml version="1.0" encoding="utf-8" ?>
<svg baseProfile="tiny" height="100%" version="1.2" width="100%" xmlns="http://www.w3.org/2000/svg" xmlns:ev="http://www.w3.org/2001/xml-events" xmlns:xlink="http://www.w3.org/1999/xlink"><defs /><line stroke="rgb(0%,0%,0%)" x1="212.3396" x2="212.3396" y1="100.5" y2="61.6642" /><line stroke="rgb(0%,0%,0%)" x1="212.3396" x2="212.3396" y1="61.6642" y2="0.5" /><line stroke="rgb(0%,0%,0%)" x1="297.8747" x2="297.8747" y1="100.5" y2="33.3789" /><line stroke="rgb(0%,0%,0%)" x1="297.8747" x2="297.8747" y1="33.3789" y2="0.5" /><line stroke="rgb(0%,0%,0%)" x1="219.8556" x2="212.3396" y1="100.5" y2="100.5" /><line stroke="rgb(0%,0%,0%)" x1="219.8556" x2="221.4383" y1="100.5" y2="100.5" /><line stroke="rgb(0%,0%,0%)" x1="221.4383" x2="237.5063" y1="100.5" y2="100.5" /><line stroke="rgb(0%,0%,0%)" x1="237.5063" x2="242.3484" y1="100.5" y2="100.5" /><line stroke="rgb(0%,0%,0%)" x1="242.3484" x2="253.0565" y1="100.5" y2="100.5" /><line stroke="rgb(0%,0%,0%)" x1="253.0565" x2="260.1827" y1="100.5" y2="100.5" /><line stroke="rgb(0%,0%,0%)" x1="260.1827" x2="266.9273" y1="100.5" y2="100.5" /><line stroke="rgb(0%,0%,0%)" x1="266.9273" x2="271.5143" y1="100.5" y2="100.5" /><line stroke="rgb(0%,0%,0%)" x1="271.5143" x2="279.4291" y1="100.5" y2="100.5" /><line stroke="rgb(0%,0%,0%)" x1="279.4291" x2="281.9706" y1="100.5" y2="100.5" /><line stroke="rgb(0%,0%,0%)" x1="281.9706" x2="283.9132" y1="100.5" y2="100.5" /><line stroke="rgb(0%,0%,0%)" x1="283.9132" x2="291.6933" y1="100.5" y2="100.5" /><line stroke="rgb(0%,0%,0%)" x1="291.6933" x2="292.3964" y1="100.5" y2="100.5" /><line stroke="rgb(0%,0%,0%)" x1="292.3964" x2="297.8747" y1="100.5" y2="100.5" /><line stroke="rgb(0%,0%,0%)" x1="212.3396" x2="219.8556" y1="0.5" y2="0.5" /><line stroke="rgb(0%,0%,0%)" x1="219.8556" x2="221.4383" y1="0.5" y2="0.5" /><line stroke="rgb(0%,0%,0%)" x1="221.4383" x2="237.5063" y1="0.5" y2="0.5" /><line stroke="rgb(0%,0%,0%)" x1="237.5063" x2="242.3484" y1="0.5" y2="0.5" /><line stroke="rgb(0%,0%,0%)" x1="242.3484" x2="253.0565" y1="0.5" y2="0.5" /><line stroke="rgb(0%,0%,0%)" x1="253.0565" x2="260.1827" y1="0.5" y2="0.5" /><line stroke="rgb(0%,0%,0%)" x1="260.1827" x2="266.9273" y1="0.5" y2="0.5" /><line stroke="rgb(0%,0%,0%)" x1="266.9273" x2="271.5143" y1="0.5" y2="0.5" /><line stroke="rgb(0%,0%,0%)" x1="271.5143" x2="279.4291" y1="0.5" y2="0.5" /><line stroke="rgb(0%,0%,0%)" x1="279.4291" x2="281.9706" y1="0.5" y2="0.5" /><line stroke="rgb(0%,0%,0%)" x1="281.9706" x2="283.9132" y1="0.5" y2="0.5" /><line stroke="rgb(0%,0%,0%)" x1="283.9132" x2="291.6933" y1="0.5" y2="0.5" /><line stroke="rgb(0%,0%,0%)" x1="291.6933" x2="292.3964" y1="0.5" y2="0.5" /><line stroke="rgb(0%,0%,0%)" x1="292.3964" x2="297.8747" y1="0.5" y2="0.5" /></svg>