<?xml version="1.0" encoding="utf-8" ?>
<svg baseProfile="tiny" height="100%" version="1.2" width="100%" xmlns="http://www.w3.org/2000/svg" xmlns:ev="http://www.w3.org/2001/xml-events" xmlns:xlink="http://www.w3.org/1999/xlink"><defs /><line stroke="rgb(0%,0%,0%)" x1="212.7235" x2="212.7235" y1="100.5" y2="72.3824" /><line stroke="rgb(0%,0%,0%)" x1="212.7235" x2="212.7235" y1="72.3824" y2="0.5" /><line stroke="rgb(0%,0%,0%)" x1="298.8569" x2="298.8569" y1="100.5" y2="13.5954" /><line stroke="rgb(0%,0%,0%)" x1="298.8569" x2="298.8569" y1="13.5954" y2="0.5" /><line stroke="rgb(0%,0%,0%)" x1="218.1651" x2="212.7235" y1="100.5" y2="100.5" /><line stroke="rgb(0%,0%,0%)" x1="218.1651" x2="219.311" y1="100.5" y2="100.5" /><line stroke="rgb(0%,0%,0%)" x1="219.311" x2="235.9638" y1="100.5" y2="100.5" /><line stroke="rgb(0%,0%,0%)" x1="235.9638" x2="240.4244" y1="100.5" y2="100.5" /><line stroke="rgb(0%,0%,0%)" x1="240.4244" x2="251.643" y1="100.5" y2="100.5" /><line stroke="rgb(0%,0%,0%)" x1="251.643" x2="259.1089" y1="100.5" y2="100.5" /><line stroke="rgb(0%,0%,0%)" x1="259.1089" x2="265.6279" y1="100.5" y2="100.5" /><line stroke="rgb(0%,0%,0%)" x1="265.6279" x2="270.5256" y1="100.5" y2="100.5" /><line stroke="rgb(0%,0%,0%)" x1="270.5256" x2="278.2319" y1="100.5" y2="100.5" /><line stroke="rgb(0%,0%,0%)" x1="278.2319" x2="281.0595" y1="100.5" y2="100.5" /><line stroke="rgb(0%,0%,0%)" x1="281.0595" x2="283.2208" y1="100.5" y2="100.5" /><line stroke="rgb(0%,0%,0%)" x1="283.2208" x2="290.8536" y1="100.5" y2="100.5" /><line stroke="rgb(0%,0%,0%)" x1="290.8536" x2="291.764" y1="100.5" y2="100.5" /><line stroke="rgb(0%,0%,0%)" x1="291.764" x2="298.8569" y1="100.5" y2="100.5" /><line stroke="rgb(0%,0%,0%)" x1="212.7235" x2="218.1651" y1="0.5" y2="0.5" /><line stroke="rgb(0%,0%,0%)" x1="218.1651" x2="219.311" y1="0.5" y2="0.5" /><line stroke="rgb(0%,0%,0%)" x1="219.311" x2="235.9638" y1="0.5" y2="0.5" /><line stroke="rgb(0%,0%,0%)" x1="235.9638" x2="240.4244" y1="0.5" y2="0.5" /><line stroke="rgb(0%,0%,0%)" x1="240.4244" x2="251.643" y1="0.5" y2="0.5" /><line stroke="rgb(0%,0%,0%)" x1="251.643" x2="259.1089" y1="0.5" y2="0.5" /><line stroke="rgb(0%,0%,0%)" x1="259.1089" x2="265.6279" y1="0.5" y2="0.5" /><line stroke="rgb(0%,0%,0%)" x1="265.6279" x2="270.5256" y1="0.5" y2="0.5" /><line stroke="rgb(0%,0%,0%)" x1="270.5256" x2="278.2319" y1="0.5" y2="0.5" /><line stroke="rgb(0%,0%,0%)" x1="278.2319" x2="281.0595" y1="0.5" y2="0.5" /><line stroke="rgb(0%,0%,0%)" x1="281.0595" x2="283.2208" y1="0.5" y2="0.5" /><line stroke="rgb(0%,0%,0%)" x1="283.2208" x2="290.8536" y1="0.5" y2="0.5" /><line stroke="rgb(0%,0%,0%)" x1="290.8536" x2="291.764" y1="0.5" y2="0.5" /><line stroke="rgb(0%,0%,0%)" x1="291.764" x2="298.8569" y1="0.5" y2="0.5" /></svg>