<?xml version="1.0" encoding="utf-8" ?>
<svg baseProfile="tiny" height="100%" version="1.2" width="100%" xmlns="http://www.w3.org/2000/svg" xmlns:ev="http://www.w3.org/2001/xml-events" xmlns:xlink="http://www.w3.org/1999/xlink"><defs /><line stroke="rgb(0%,0%,0%)" x1="351.9" x2="351.9" y1="0.5" y2="21.669" /><line stroke="rgb(0%,0%,0%)" x1="351.9" x2="351.9" y1="21.669" y2="100.5" /><line stroke="rgb(0%,0%,0%)" x1="315.1365" x2="344.1181" y1="100.5" y2="100.5" /><line stroke="rgb(0%,0%,0%)" x1="344.1181" x2="345.1288" y1="100.5" y2="100.5" /><line stroke="rgb(0%,0%,0%)" x1="345.1288" x2="346.2835" y1="100.5" y2="100.5" /><line stroke="rgb(0%,0%,0%)" x1="346.2835" x2="347.5651" y1="100.5" y2="100.5" /><line stroke="rgb(0%,0%,0%)" x1="347.5651" x2="348.9493" y1="100.5" y2="100.5" /><line stroke="rgb(0%,0%,0%)" x1="348.9493" x2="350.4059" y1="100.5" y2="100.5" /><line stroke="rgb(0%,0%,0%)" x1="350.4059" x2="351.9" y1="100.5" y2="100.5" /><line stroke="rgb(0%,0%,0%)" x1="315.1365" x2="49.7993" y1="100.5" y2="100.5" /><line stroke="rgb(0%,0%,0%)" x1="49.7993" x2="0.5" y1="100.5" y2="100.5" /><line stroke="rgb(0%,0%,0%)" x1="0.5" x2="49.7993" y1="0.5" y2="0.5" /><line stroke="rgb(0%,0%,0%)" x1="49.7993" x2="315.1365" y1="0.5" y2="0.5" /><line stroke="rgb(0%,0%,0%)" x1="315.1365" x2="344.1181" y1="0.5" y2="0.5" /><line stroke="rgb(0%,0%,0%)" x1="344.1181" x2="345.1288" y1="0.5" y2="0.5" /><line stroke="rgb(0%,0%,0%)" x1="345.1288" x2="346.2835" y1="0.5" y2="0.5" /><line stroke="rgb(0%,0%,0%)" x1="346.2835" x2="347.5651" y1="0.5" y2="0.5" /><line stroke="rgb(0%,0%,0%)" x1="347.5651" x2="348.9493" y1="0.5" y2="0.5" /><line stroke="rgb(0%,0%,0%)" x1="348.9493" x2="350.4059" y1="0.5" y2="0.5" /><line stroke="rgb(0%,0%,0%)" x1="350.4059" x2="351.9" y1="0.5" y2="0.5" /><line stroke="rgb(0%,0%,0%)" x1="0.5" x2="0.5" y1="0.5" y2="76.0086" /><line stroke="rgb(0%,0%,0%)" x1="0.5" x2="0.5" y1="76.0086" y2="100.5" /><line stroke="rgb(0%,0%,0%)" x1="165.1722" x2="165.3394" y1="47.3813" y2="48.9724" /><line stroke="rgb(0%,0%,0%)" x1="165.3394" x2="165.5" y1="48.9724" y2="50.5" /><line stroke="rgb(0%,0%,0%)" x1="165.5" x2="165.3328" y1="50.5" y2="52.0911" /><line stroke="rgb(0%,0%,0%)" x1="165.3328" x2="165.1722" y1="52.0911" y2="53.6187" /><line stroke="rgb(0%,0%,0%)" x1="165.1722" x2="164.6778" y1="53.6187" y2="55.1402" /><line stroke="rgb(0%,0%,0%)" x1="164.6778" x2="164.2032" y1="55.1402" y2="56.6011" /><line stroke="rgb(0%,0%,0%)" x1="164.2032" x2="163.4033" y1="56.6011" y2="57.9865" /><line stroke="rgb(0%,0%,0%)" x1="163.4033" x2="162.6353" y1="57.9865" y2="59.3168" /><line stroke="rgb(0%,0%,0%)" x1="162.6353" x2="161.5648" y1="59.3168" y2="60.5057" /><line stroke="rgb(0%,0%,0%)" x1="161.5648" x2="160.537" y1="60.5057" y2="61.6472" /><line stroke="rgb(0%,0%,0%)" x1="160.537" x2="159.2427" y1="61.6472" y2="62.5875" /><line stroke="rgb(0%,0%,0%)" x1="159.2427" x2="158.0" y1="62.5875" y2="63.4904" /><line stroke="rgb(0%,0%,0%)" x1="158.0" x2="156.5385" y1="63.4904" y2="64.1411" /><line stroke="rgb(0%,0%,0%)" x1="156.5385" x2="155.1353" y1="64.1411" y2="64.7658" /><line stroke="rgb(0%,0%,0%)" x1="155.1353" x2="153.5704" y1="64.7658" y2="65.0985" /><line stroke="rgb(0%,0%,0%)" x1="153.5704" x2="152.0679" y1="65.0985" y2="65.4178" /><line stroke="rgb(0%,0%,0%)" x1="152.0679" x2="150.4681" y1="65.4178" y2="65.4178" /><line stroke="rgb(0%,0%,0%)" x1="150.4681" x2="148.9321" y1="65.4178" y2="65.4178" /><line stroke="rgb(0%,0%,0%)" x1="148.9321" x2="147.3672" y1="65.4178" y2="65.0852" /><line stroke="rgb(0%,0%,0%)" x1="147.3672" x2="145.8647" y1="65.0852" y2="64.7658" /><line stroke="rgb(0%,0%,0%)" x1="145.8647" x2="144.4032" y1="64.7658" y2="64.1151" /><line stroke="rgb(0%,0%,0%)" x1="144.4032" x2="143.0" y1="64.1151" y2="63.4904" /><line stroke="rgb(0%,0%,0%)" x1="143.0" x2="141.7057" y1="63.4904" y2="62.55" /><line stroke="rgb(0%,0%,0%)" x1="141.7057" x2="140.463" y1="62.55" y2="61.6472" /><line stroke="rgb(0%,0%,0%)" x1="140.463" x2="139.3925" y1="61.6472" y2="60.4583" /><line stroke="rgb(0%,0%,0%)" x1="139.3925" x2="138.3647" y1="60.4583" y2="59.3168" /><line stroke="rgb(0%,0%,0%)" x1="138.3647" x2="137.5648" y1="59.3168" y2="57.9313" /><line stroke="rgb(0%,0%,0%)" x1="137.5648" x2="136.7968" y1="57.9313" y2="56.6011" /><line stroke="rgb(0%,0%,0%)" x1="136.7968" x2="136.3024" y1="56.6011" y2="55.0795" /><line stroke="rgb(0%,0%,0%)" x1="136.3024" x2="135.8278" y1="55.0795" y2="53.6187" /><line stroke="rgb(0%,0%,0%)" x1="135.8278" x2="135.6606" y1="53.6187" y2="52.0276" /><line stroke="rgb(0%,0%,0%)" x1="135.6606" x2="135.5" y1="52.0276" y2="50.5" /><line stroke="rgb(0%,0%,0%)" x1="135.5" x2="135.6672" y1="50.5" y2="48.9089" /><line stroke="rgb(0%,0%,0%)" x1="135.6672" x2="135.8278" y1="48.9089" y2="47.3813" /><line stroke="rgb(0%,0%,0%)" x1="135.8278" x2="136.3222" y1="47.3813" y2="45.8598" /><line stroke="rgb(0%,0%,0%)" x1="136.3222" x2="136.7968" y1="45.8598" y2="44.3989" /><line stroke="rgb(0%,0%,0%)" x1="136.7968" x2="137.5967" y1="44.3989" y2="43.0135" /><line stroke="rgb(0%,0%,0%)" x1="137.5967" x2="138.3647" y1="43.0135" y2="41.6832" /><line stroke="rgb(0%,0%,0%)" x1="138.3647" x2="139.4352" y1="41.6832" y2="40.4943" /><line stroke="rgb(0%,0%,0%)" x1="139.4352" x2="140.463" y1="40.4943" y2="39.3528" /><line stroke="rgb(0%,0%,0%)" x1="140.463" x2="141.7573" y1="39.3528" y2="38.4125" /><line stroke="rgb(0%,0%,0%)" x1="141.7573" x2="143.0" y1="38.4125" y2="37.5096" /><line stroke="rgb(0%,0%,0%)" x1="143.0" x2="144.4615" y1="37.5096" y2="36.8589" /><line stroke="rgb(0%,0%,0%)" x1="144.4615" x2="145.8647" y1="36.8589" y2="36.2342" /><line stroke="rgb(0%,0%,0%)" x1="145.8647" x2="147.4296" y1="36.2342" y2="35.9015" /><line stroke="rgb(0%,0%,0%)" x1="147.4296" x2="148.9321" y1="35.9015" y2="35.5822" /><line stroke="rgb(0%,0%,0%)" x1="148.9321" x2="150.5319" y1="35.5822" y2="35.5822" /><line stroke="rgb(0%,0%,0%)" x1="150.5319" x2="152.0679" y1="35.5822" y2="35.5822" /><line stroke="rgb(0%,0%,0%)" x1="152.0679" x2="153.6328" y1="35.5822" y2="35.9148" /><line stroke="rgb(0%,0%,0%)" x1="153.6328" x2="155.1353" y1="35.9148" y2="36.2342" /><line stroke="rgb(0%,0%,0%)" x1="155.1353" x2="156.5968" y1="36.2342" y2="36.8849" /><line stroke="rgb(0%,0%,0%)" x1="156.5968" x2="158.0" y1="36.8849" y2="37.5096" /><line stroke="rgb(0%,0%,0%)" x1="158.0" x2="159.2943" y1="37.5096" y2="38.45" /><line stroke="rgb(0%,0%,0%)" x1="159.2943" x2="160.537" y1="38.45" y2="39.3528" /><line stroke="rgb(0%,0%,0%)" x1="160.537" x2="161.6074" y1="39.3528" y2="40.5417" /><line stroke="rgb(0%,0%,0%)" x1="161.6074" x2="162.6353" y1="40.5417" y2="41.6832" /><line stroke="rgb(0%,0%,0%)" x1="162.6353" x2="163.4352" y1="41.6832" y2="43.0687" /><line stroke="rgb(0%,0%,0%)" x1="163.4352" x2="164.2032" y1="43.0687" y2="44.3989" /><line stroke="rgb(0%,0%,0%)" x1="164.2032" x2="164.6976" y1="44.3989" y2="45.9205" /><line stroke="rgb(0%,0%,0%)" x1="164.6976" x2="165.1722" y1="45.9205" y2="47.3813" /><line stroke="rgb(0%,0%,0%)" x1="65.1722" x2="65.3394" y1="47.3813" y2="48.9724" /><line stroke="rgb(0%,0%,0%)" x1="65.3394" x2="65.5" y1="48.9724" y2="50.5" /><line stroke="rgb(0%,0%,0%)" x1="65.5" x2="65.3328" y1="50.5" y2="52.0911" /><line stroke="rgb(0%,0%,0%)" x1="65.3328" x2="65.1722" y1="52.0911" y2="53.6187" /><line stroke="rgb(0%,0%,0%)" x1="65.1722" x2="64.6778" y1="53.6187" y2="55.1402" /><line stroke="rgb(0%,0%,0%)" x1="64.6778" x2="64.2032" y1="55.1402" y2="56.6011" /><line stroke="rgb(0%,0%,0%)" x1="64.2032" x2="63.4033" y1="56.6011" y2="57.9865" /><line stroke="rgb(0%,0%,0%)" x1="63.4033" x2="62.6352" y1="57.9865" y2="59.3168" /><line stroke="rgb(0%,0%,0%)" x1="62.6352" x2="61.5648" y1="59.3168" y2="60.5057" /><line stroke="rgb(0%,0%,0%)" x1="61.5648" x2="60.537" y1="60.5057" y2="61.6472" /><line stroke="rgb(0%,0%,0%)" x1="60.537" x2="59.2427" y1="61.6472" y2="62.5875" /><line stroke="rgb(0%,0%,0%)" x1="59.2427" x2="58.0" y1="62.5875" y2="63.4904" /><line stroke="rgb(0%,0%,0%)" x1="58.0" x2="56.5385" y1="63.4904" y2="64.1411" /><line stroke="rgb(0%,0%,0%)" x1="56.5385" x2="55.1353" y1="64.1411" y2="64.7658" /><line stroke="rgb(0%,0%,0%)" x1="55.1353" x2="53.5704" y1="64.7658" y2="65.0985" /><line stroke="rgb(0%,0%,0%)" x1="53.5704" x2="52.0679" y1="65.0985" y2="65.4178" /><line stroke="rgb(0%,0%,0%)" x1="52.0679" x2="50.4681" y1="65.4178" y2="65.4178" /><line stroke="rgb(0%,0%,0%)" x1="50.4681" x2="48.9321" y1="65.4178" y2="65.4178" /><line stroke="rgb(0%,0%,0%)" x1="48.9321" x2="47.3672" y1="65.4178" y2="65.0852" /><line stroke="rgb(0%,0%,0%)" x1="47.3672" x2="45.8647" y1="65.0852" y2="64.7658" /><line stroke="rgb(0%,0%,0%)" x1="45.8647" x2="44.4032" y1="64.7658" y2="64.1151" /><line stroke="rgb(0%,0%,0%)" x1="44.4032" x2="43.0" y1="64.1151" y2="63.4904" /><line stroke="rgb(0%,0%,0%)" x1="43.0" x2="41.7057" y1="63.4904" y2="62.55" /><line stroke="rgb(0%,0%,0%)" x1="41.7057" x2="40.463" y1="62.55" y2="61.6472" /><line stroke="rgb(0%,0%,0%)" x1="40.463" x2="39.3925" y1="61.6472" y2="60.4583" /><line stroke="rgb(0%,0%,0%)" x1="39.3925" x2="38.3647" y1="60.4583" y2="59.3168" /><line stroke="rgb(0%,0%,0%)" x1="38.3647" x2="37.5648" y1="59.3168" y2="57.9313" /><line stroke="rgb(0%,0%,0%)" x1="37.5648" x2="36.7968" y1="57.9313" y2="56.6011" /><line stroke="rgb(0%,0%,0%)" x1="36.7968" x2="36.3024" y1="56.6011" y2="55.0795" /><line stroke="rgb(0%,0%,0%)" x1="36.3024" x2="35.8278" y1="55.0795" y2="53.6187" /><line stroke="rgb(0%,0%,0%)" x1="35.8278" x2="35.6606" y1="53.6187" y2="52.0276" /><line stroke="rgb(0%,0%,0%)" x1="35.6606" x2="35.5" y1="52.0276" y2="50.5" /><line stroke="rgb(0%,0%,0%)" x1="35.5" x2="35.6672" y1="50.5" y2="48.9089" /><line stroke="rgb(0%,0%,0%)" x1="35.6672" x2="35.8278" y1="48.9089" y2="47.3813" /><line stroke="rgb(0%,0%,0%)" x1="35.8278" x2="36.3221" y1="47.3813" y2="45.8598" /><line stroke="rgb(0%,0%,0%)" x1="36.3221" x2="36.7968" y1="45.8598" y2="44.3989" /><line stroke="rgb(0%,0%,0%)" x1="36.7968" x2="37.5967" y1="44.3989" y2="43.0135" /><line stroke="rgb(0%,0%,0%)" x1="37.5967" x2="38.3647" y1="43.0135" y2="41.6832" /><line stroke="rgb(0%,0%,0%)" x1="38.3647" x2="39.4352" y1="41.6832" y2="40.4943" /><line stroke="rgb(0%,0%,0%)" x1="39.4352" x2="40.463" y1="40.4943" y2="39.3528" /><line stroke="rgb(0%,0%,0%)" x1="40.463" x2="41.7573" y1="39.3528" y2="38.4125" /><line stroke="rgb(0%,0%,0%)" x1="41.7573" x2="43.0" y1="38.4125" y2="37.5096" /><line stroke="rgb(0%,0%,0%)" x1="43.0" x2="44.4615" y1="37.5096" y2="36.8589" /><line stroke="rgb(0%,0%,0%)" x1="44.4615" x2="45.8647" y1="36.8589" y2="36.2342" /><line stroke="rgb(0%,0%,0%)" x1="45.8647" x2="47.4296" y1="36.2342" y2="35.9015" /><line stroke="rgb(0%,0%,0%)" x1="47.4296" x2="48.9321" y1="35.9015" y2="35.5822" /><line stroke="rgb(0%,0%,0%)" x1="48.9321" x2="50.5319" y1="35.5822" y2="35.5822" /><line stroke="rgb(0%,0%,0%)" x1="50.5319" x2="52.0679" y1="35.5822" y2="35.5822" /><line stroke="rgb(0%,0%,0%)" x1="52.0679" x2="53.6328" y1="35.5822" y2="35.9148" /><line stroke="rgb(0%,0%,0%)" x1="53.6328" x2="55.1353" y1="35.9148" y2="36.2342" /><line stroke="rgb(0%,0%,0%)" x1="55.1353" x2="56.5968" y1="36.2342" y2="36.8849" /><line stroke="rgb(0%,0%,0%)" x1="56.5968" x2="58.0" y1="36.8849" y2="37.5096" /><line stroke="rgb(0%,0%,0%)" x1="58.0" x2="59.2943" y1="37.5096" y2="38.45" /><line stroke="rgb(0%,0%,0%)" x1="59.2943" x2="60.537" y1="38.45" y2="39.3528" /><line stroke="rgb(0%,0%,0%)" x1="60.537" x2="61.6075" y1="39.3528" y2="40.5417" /><line stroke="rgb(0%,0%,0%)" x1="61.6075" x2="62.6352" y1="40.5417" y2="41.6832" /><line stroke="rgb(0%,0%,0%)" x1="62.6352" x2="63.4352" y1="41.6832" y2="43.0687" /><line stroke="rgb(0%,0%,0%)" x1="63.4352" x2="64.2032" y1="43.0687" y2="44.3989" /><line stroke="rgb(0%,0%,0%)" x1="64.2032" x2="64.6976" y1="44.3989" y2="45.9205" /><line stroke="rgb(0%,0%,0%)" x1="64.6976" x2="65.1722" y1="45.9205" y2="47.3813" /></svg>