<?xml version="1.0" encoding="utf-8" ?>
<svg baseProfile="tiny" height="100%" version="1.2" width="100%" xmlns="http://www.w3.org/2000/svg" xmlns:ev="http://www.w3.org/2001/xml-events" xmlns:xlink="http://www.w3.org/1999/xlink"><defs /><line stroke="rgb(0%,0%,0%)" x1="213.1073" x2="213.1073" y1="100.5" y2="83.1005" /><line stroke="rgb(0%,0%,0%)" x1="213.1073" x2="213.1073" y1="83.1005" y2="0.5" /><line stroke="rgb(0%,0%,0%)" x1="299.9065" x2="299.9065" y1="100.5" y2="93.1139" /><line stroke="rgb(0%,0%,0%)" x1="299.9065" x2="299.9065" y1="93.1139" y2="0.5" /><line stroke="rgb(0%,0%,0%)" x1="216.4747" x2="213.1073" y1="100.5" y2="100.5" /><line stroke="rgb(0%,0%,0%)" x1="216.4747" x2="217.1838" y1="100.5" y2="100.5" /><line stroke="rgb(0%,0%,0%)" x1="217.1838" x2="234.4213" y1="100.5" y2="100.5" /><line stroke="rgb(0%,0%,0%)" x1="234.4213" x2="238.5005" y1="100.5" y2="100.5" /><line stroke="rgb(0%,0%,0%)" x1="238.5005" x2="250.2294" y1="100.5" y2="100.5" /><line stroke="rgb(0%,0%,0%)" x1="250.2294" x2="258.0351" y1="100.5" y2="100.5" /><line stroke="rgb(0%,0%,0%)" x1="258.0351" x2="264.3285" y1="100.5" y2="100.5" /><line stroke="rgb(0%,0%,0%)" x1="264.3285" x2="269.537" y1="100.5" y2="100.5" /><line stroke="rgb(0%,0%,0%)" x1="269.537" x2="277.0348" y1="100.5" y2="100.5" /><line stroke="rgb(0%,0%,0%)" x1="277.0348" x2="280.1485" y1="100.5" y2="100.5" /><line stroke="rgb(0%,0%,0%)" x1="280.1485" x2="282.5285" y1="100.5" y2="100.5" /><line stroke="rgb(0%,0%,0%)" x1="282.5285" x2="290.0139" y1="100.5" y2="100.5" /><line stroke="rgb(0%,0%,0%)" x1="290.0139" x2="291.1315" y1="100.5" y2="100.5" /><line stroke="rgb(0%,0%,0%)" x1="291.1315" x2="299.2456" y1="100.5" y2="100.5" /><line stroke="rgb(0%,0%,0%)" x1="299.2456" x2="299.3122" y1="100.5" y2="100.5" /><line stroke="rgb(0%,0%,0%)" x1="299.3122" x2="299.9065" y1="100.5" y2="100.5" /><line stroke="rgb(0%,0%,0%)" x1="213.1073" x2="216.4747" y1="0.5" y2="0.5" /><line stroke="rgb(0%,0%,0%)" x1="216.4747" x2="217.1838" y1="0.5" y2="0.5" /><line stroke="rgb(0%,0%,0%)" x1="217.1838" x2="234.4213" y1="0.5" y2="0.5" /><line stroke="rgb(0%,0%,0%)" x1="234.4213" x2="238.5005" y1="0.5" y2="0.5" /><line stroke="rgb(0%,0%,0%)" x1="238.5005" x2="250.2294" y1="0.5" y2="0.5" /><line stroke="rgb(0%,0%,0%)" x1="250.2294" x2="258.0351" y1="0.5" y2="0.5" /><line stroke="rgb(0%,0%,0%)" x1="258.0351" x2="264.3285" y1="0.5" y2="0.5" /><line stroke="rgb(0%,0%,0%)" x1="264.3285" x2="269.537" y1="0.5" y2="0.5" /><line stroke="rgb(0%,0%,0%)" x1="269.537" x2="277.0348" y1="0.5" y2="0.5" /><line stroke="rgb(0%,0%,0%)" x1="277.0348" x2="280.1485" y1="0.5" y2="0.5" /><line stroke="rgb(0%,0%,0%)" x1="280.1485" x2="282.5285" y1="0.5" y2="0.5" /><line stroke="rgb(0%,0%,0%)" x1="282.5285" x2="290.0139" y1="0.5" y2="0.5" /><line stroke="rgb(0%,0%,0%)" x1="290.0139" x2="291.1315" y1="0.5" y2="0.5" /><line stroke="rgb(0%,0%,0%)" x1="291.1315" x2="299.2456" y1="0.5" y2="0.5" /><line stroke="rgb(0%,0%,0%)" x1="299.2456" x2="299.3122" y1="0.5" y2="0.5" /><line stroke="rgb(0%,0%,0%)" x1="299.3122" x2="299.9065" y1="0.5" y2="0.5" /></svg>