<?xml version="1.0" encoding="utf-8" ?>
<svg baseProfile="tiny" height="100%" version="1.2" width="100%" xmlns="http://www.w3.org/2000/svg" xmlns:ev="http://www.w3.org/2001/xml-events" xmlns:xlink="http://www.w3.org/1999/xlink"><defs /><line stroke="rgb(0%,0%,0%)" x1="213.4912" x2="213.4912" y1="100.5" y2="93.8186" /><line stroke="rgb(0%,0%,0%)" x1="213.4912" x2="213.4912" y1="93.8186" y2="0.5" /><line stroke="rgb(0%,0%,0%)" x1="301.0882" x2="301.0882" y1="100.5" y2="71.2654" /><line stroke="rgb(0%,0%,0%)" x1="301.0882" x2="301.0882" y1="71.2654" y2="0.5" /><line stroke="rgb(0%,0%,0%)" x1="214.7842" x2="213.4912" y1="100.5" y2="100.5" /><line stroke="rgb(0%,0%,0%)" x1="214.7842" x2="215.0565" y1="100.5" y2="100.5" /><line stroke="rgb(0%,0%,0%)" x1="215.0565" x2="232.8787" y1="100.5" y2="100.5" /><line stroke="rgb(0%,0%,0%)" x1="232.8787" x2="236.5765" y1="100.5" y2="100.5" /><line stroke="rgb(0%,0%,0%)" x1="236.5765" x2="248.8159" y1="100.5" y2="100.5" /><line stroke="rgb(0%,0%,0%)" x1="248.8159" x2="256.9613" y1="100.5" y2="100.5" /><line stroke="rgb(0%,0%,0%)" x1="256.9613" x2="263.0291" y1="100.5" y2="100.5" /><line stroke="rgb(0%,0%,0%)" x1="263.0291" x2="268.5483" y1="100.5" y2="100.5" /><line stroke="rgb(0%,0%,0%)" x1="268.5483" x2="275.8376" y1="100.5" y2="100.5" /><line stroke="rgb(0%,0%,0%)" x1="275.8376" x2="279.2374" y1="100.5" y2="100.5" /><line stroke="rgb(0%,0%,0%)" x1="279.2374" x2="281.8361" y1="100.5" y2="100.5" /><line stroke="rgb(0%,0%,0%)" x1="281.8361" x2="289.1742" y1="100.5" y2="100.5" /><line stroke="rgb(0%,0%,0%)" x1="289.1742" x2="290.4991" y1="100.5" y2="100.5" /><line stroke="rgb(0%,0%,0%)" x1="290.4991" x2="298.4721" y1="100.5" y2="100.5" /><line stroke="rgb(0%,0%,0%)" x1="298.4721" x2="298.7359" y1="100.5" y2="100.5" /><line stroke="rgb(0%,0%,0%)" x1="298.7359" x2="301.0882" y1="100.5" y2="100.5" /><line stroke="rgb(0%,0%,0%)" x1="213.4912" x2="214.7842" y1="0.5" y2="0.5" /><line stroke="rgb(0%,0%,0%)" x1="214.7842" x2="215.0565" y1="0.5" y2="0.5" /><line stroke="rgb(0%,0%,0%)" x1="215.0565" x2="232.8787" y1="0.5" y2="0.5" /><line stroke="rgb(0%,0%,0%)" x1="232.8787" x2="236.5765" y1="0.5" y2="0.5" /><line stroke="rgb(0%,0%,0%)" x1="236.5765" x2="248.8159" y1="0.5" y2="0.5" /><line stroke="rgb(0%,0%,0%)" x1="248.8159" x2="256.9613" y1="0.5" y2="0.5" /><line stroke="rgb(0%,0%,0%)" x1="256.9613" x2="263.0291" y1="0.5" y2="0.5" /><line stroke="rgb(0%,0%,0%)" x1="263.0291" x2="268.5483" y1="0.5" y2="0.5" /><line stroke="rgb(0%,0%,0%)" x1="268.5483" x2="275.8376" y1="0.5" y2="0.5" /><line stroke="rgb(0%,0%,0%)" x1="275.8376" x2="279.2374" y1="0.5" y2="0.5" /><line stroke="rgb(0%,0%,0%)" x1="279.2374" x2="281.8361" y1="0.5" y2="0.5" /><line stroke="rgb(0%,0%,0%)" x1="281.8361" x2="289.1742" y1="0.5" y2="0.5" /><line stroke="rgb(0%,0%,0%)" x1="289.1742" x2="290.4991" y1="0.5" y2="0.5" /><line stroke="rgb(0%,0%,0%)" x1="290.4991" x2="298.4721" y1="0.5" y2="0.5" /><line stroke="rgb(0%,0%,0%)" x1="298.4721" x2="298.7359" y1="0.5" y2="0.5" /><line stroke="rgb(0%,0%,0%)" x1="298.7359" x2="301.0882" y1="0.5" y2="0.5" /></svg>