<?xml version="1.0" encoding="utf-8" ?>
<svg baseProfile="tiny" height="100%" version="1.2" width="100%" xmlns="http://www.w3.org/2000/svg" xmlns:ev="http://www.w3.org/2001/xml-events" xmlns:xlink="http://www.w3.org/1999/xlink"><defs /><line stroke="rgb(0%,0%,0%)" x1="213.9046" x2="213.9046" y1="100.5" y2="4.6521" /><line stroke="rgb(0%,0%,0%)" x1="213.9046" x2="213.9046" y1="4.6521" y2="0.5" /><line stroke="rgb(0%,0%,0%)" x1="302.2698" x2="302.2698" y1="100.5" y2="49.4169" /><line stroke="rgb(0%,0%,0%)" x1="302.2698" x2="302.2698" y1="49.4169" y2="0.5" /><line stroke="rgb(0%,0%,0%)" x1="231.3362" x2="213.9046" y1="100.5" y2="100.5" /><line stroke="rgb(0%,0%,0%)" x1="231.3362" x2="234.6525" y1="100.5" y2="100.5" /><line stroke="rgb(0%,0%,0%)" x1="234.6525" x2="247.4024" y1="100.5" y2="100.5" /><line stroke="rgb(0%,0%,0%)" x1="247.4024" x2="255.8874" y1="100.5" y2="100.5" /><line stroke="rgb(0%,0%,0%)" x1="255.8874" x2="261.7297" y1="100.5" y2="100.5" /><line stroke="rgb(0%,0%,0%)" x1="261.7297" x2="267.5597" y1="100.5" y2="100.5" /><line stroke="rgb(0%,0%,0%)" x1="267.5597" x2="274.6404" y1="100.5" y2="100.5" /><line stroke="rgb(0%,0%,0%)" x1="274.6404" x2="278.3263" y1="100.5" y2="100.5" /><line stroke="rgb(0%,0%,0%)" x1="278.3263" x2="281.1437" y1="100.5" y2="100.5" /><line stroke="rgb(0%,0%,0%)" x1="281.1437" x2="288.3345" y1="100.5" y2="100.5" /><line stroke="rgb(0%,0%,0%)" x1="288.3345" x2="289.8666" y1="100.5" y2="100.5" /><line stroke="rgb(0%,0%,0%)" x1="289.8666" x2="297.6985" y1="100.5" y2="100.5" /><line stroke="rgb(0%,0%,0%)" x1="297.6985" x2="298.1595" y1="100.5" y2="100.5" /><line stroke="rgb(0%,0%,0%)" x1="298.1595" x2="302.2698" y1="100.5" y2="100.5" /><line stroke="rgb(0%,0%,0%)" x1="213.9046" x2="231.3362" y1="0.5" y2="0.5" /><line stroke="rgb(0%,0%,0%)" x1="231.3362" x2="234.6525" y1="0.5" y2="0.5" /><line stroke="rgb(0%,0%,0%)" x1="234.6525" x2="247.4024" y1="0.5" y2="0.5" /><line stroke="rgb(0%,0%,0%)" x1="247.4024" x2="255.8874" y1="0.5" y2="0.5" /><line stroke="rgb(0%,0%,0%)" x1="255.8874" x2="261.7297" y1="0.5" y2="0.5" /><line stroke="rgb(0%,0%,0%)" x1="261.7297" x2="267.5597" y1="0.5" y2="0.5" /><line stroke="rgb(0%,0%,0%)" x1="267.5597" x2="274.6404" y1="0.5" y2="0.5" /><line stroke="rgb(0%,0%,0%)" x1="274.6404" x2="278.3263" y1="0.5" y2="0.5" /><line stroke="rgb(0%,0%,0%)" x1="278.3263" x2="281.1437" y1="0.5" y2="0.5" /><line stroke="rgb(0%,0%,0%)" x1="281.1437" x2="288.3345" y1="0.5" y2="0.5" /><line stroke="rgb(0%,0%,0%)" x1="288.3345" x2="289.8666" y1="0.5" y2="0.5" /><line stroke="rgb(0%,0%,0%)" x1="289.8666" x2="297.6985" y1="0.5" y2="0.5" /><line stroke="rgb(0%,0%,0%)" x1="297.6985" x2="298.1595" y1="0.5" y2="0.5" /><line stroke="rgb(0%,0%,0%)" x1="298.1595" x2="302.2698" y1="0.5" y2="0.5" /></svg>