<?xml version="1.0" encoding="utf-8" ?>
<svg baseProfile="tiny" height="100%" version="1.2" width="100%" xmlns="http://www.w3.org/2000/svg" xmlns:ev="http://www.w3.org/2001/xml-events" xmlns:xlink="http://www.w3.org/1999/xlink"><defs /><line stroke="rgb(0%,0%,0%)" x1="214.3671" x2="214.3671" y1="100.5" y2="15.6765" /><line stroke="rgb(0%,0%,0%)" x1="214.3671" x2="214.3671" y1="15.6765" y2="0.5" /><line stroke="rgb(0%,0%,0%)" x1="303.4515" x2="303.4515" y1="100.5" y2="27.5685" /><line stroke="rgb(0%,0%,0%)" x1="303.4515" x2="303.4515" y1="27.5685" y2="0.5" /><line stroke="rgb(0%,0%,0%)" x1="229.7936" x2="214.3671" y1="100.5" y2="100.5" /><line stroke="rgb(0%,0%,0%)" x1="229.7936" x2="232.7285" y1="100.5" y2="100.5" /><line stroke="rgb(0%,0%,0%)" x1="232.7285" x2="245.9889" y1="100.5" y2="100.5" /><line stroke="rgb(0%,0%,0%)" x1="245.9889" x2="254.8136" y1="100.5" y2="100.5" /><line stroke="rgb(0%,0%,0%)" x1="254.8136" x2="260.4303" y1="100.5" y2="100.5" /><line stroke="rgb(0%,0%,0%)" x1="260.4303" x2="266.571" y1="100.5" y2="100.5" /><line stroke="rgb(0%,0%,0%)" x1="266.571" x2="273.4432" y1="100.5" y2="100.5" /><line stroke="rgb(0%,0%,0%)" x1="273.4432" x2="277.4153" y1="100.5" y2="100.5" /><line stroke="rgb(0%,0%,0%)" x1="277.4153" x2="280.4514" y1="100.5" y2="100.5" /><line stroke="rgb(0%,0%,0%)" x1="280.4514" x2="287.4948" y1="100.5" y2="100.5" /><line stroke="rgb(0%,0%,0%)" x1="287.4948" x2="289.2342" y1="100.5" y2="100.5" /><line stroke="rgb(0%,0%,0%)" x1="289.2342" x2="296.925" y1="100.5" y2="100.5" /><line stroke="rgb(0%,0%,0%)" x1="296.925" x2="297.5832" y1="100.5" y2="100.5" /><line stroke="rgb(0%,0%,0%)" x1="297.5832" x2="303.4515" y1="100.5" y2="100.5" /><line stroke="rgb(0%,0%,0%)" x1="214.3671" x2="229.7936" y1="0.5" y2="0.5" /><line stroke="rgb(0%,0%,0%)" x1="229.7936" x2="232.7285" y1="0.5" y2="0.5" /><line stroke="rgb(0%,0%,0%)" x1="232.7285" x2="245.9889" y1="0.5" y2="0.5" /><line stroke="rgb(0%,0%,0%)" x1="245.9889" x2="254.8136" y1="0.5" y2="0.5" /><line stroke="rgb(0%,0%,0%)" x1="254.8136" x2="260.4303" y1="0.5" y2="0.5" /><line stroke="rgb(0%,0%,0%)" x1="260.4303" x2="266.571" y1="0.5" y2="0.5" /><line stroke="rgb(0%,0%,0%)" x1="266.571" x2="273.4432" y1="0.5" y2="0.5" /><line stroke="rgb(0%,0%,0%)" x1="273.4432" x2="277.4153" y1="0.5" y2="0.5" /><line stroke="rgb(0%,0%,0%)" x1="277.4153" x2="280.4514" y1="0.5" y2="0.5" /><line stroke="rgb(0%,0%,0%)" x1="280.4514" x2="287.4948" y1="0.5" y2="0.5" /><line stroke="rgb(0%,0%,0%)" x1="287.4948" x2="289.2342" y1="0.5" y2="0.5" /><line stroke="rgb(0%,0%,0%)" x1="289.2342" x2="296.925" y1="0.5" y2="0.5" /><line stroke="rgb(0%,0%,0%)" x1="296.925" x2="297.5832" y1="0.5" y2="0.5" /><line stroke="rgb(0%,0%,0%)" x1="297.5832" x2="303.4515" y1="0.5" y2="0.5" /></svg>