<?xml version="1.0" encoding="utf-8" ?>
<svg baseProfile="tiny" height="100%" version="1.2" width="100%" xmlns="http://www.w3.org/2000/svg" xmlns:ev="http://www.w3.org/2001/xml-events" xmlns:xlink="http://www.w3.org/1999/xlink"><defs /><line stroke="rgb(0%,0%,0%)" x1="214.8295" x2="214.8295" y1="100.5" y2="26.7009" /><line stroke="rgb(0%,0%,0%)" x1="214.8295" x2="214.8295" y1="26.7009" y2="0.5" /><line stroke="rgb(0%,0%,0%)" x1="304.6332" x2="304.6332" y1="100.5" y2="5.72" /><line stroke="rgb(0%,0%,0%)" x1="304.6332" x2="304.6332" y1="5.72" y2="0.5" /><line stroke="rgb(0%,0%,0%)" x1="228.2511" x2="214.8295" y1="100.5" y2="100.5" /><line stroke="rgb(0%,0%,0%)" x1="228.2511" x2="230.8045" y1="100.5" y2="100.5" /><line stroke="rgb(0%,0%,0%)" x1="230.8045" x2="244.5753" y1="100.5" y2="100.5" /><line stroke="rgb(0%,0%,0%)" x1="244.5753" x2="253.7398" y1="100.5" y2="100.5" /><line stroke="rgb(0%,0%,0%)" x1="253.7398" x2="259.1309" y1="100.5" y2="100.5" /><line stroke="rgb(0%,0%,0%)" x1="259.1309" x2="265.5824" y1="100.5" y2="100.5" /><line stroke="rgb(0%,0%,0%)" x1="265.5824" x2="272.2461" y1="100.5" y2="100.5" /><line stroke="rgb(0%,0%,0%)" x1="272.2461" x2="276.5042" y1="100.5" y2="100.5" /><line stroke="rgb(0%,0%,0%)" x1="276.5042" x2="279.759" y1="100.5" y2="100.5" /><line stroke="rgb(0%,0%,0%)" x1="279.759" x2="286.6551" y1="100.5" y2="100.5" /><line stroke="rgb(0%,0%,0%)" x1="286.6551" x2="288.6017" y1="100.5" y2="100.5" /><line stroke="rgb(0%,0%,0%)" x1="288.6017" x2="296.1515" y1="100.5" y2="100.5" /><line stroke="rgb(0%,0%,0%)" x1="296.1515" x2="297.0068" y1="100.5" y2="100.5" /><line stroke="rgb(0%,0%,0%)" x1="297.0068" x2="304.6332" y1="100.5" y2="100.5" /><line stroke="rgb(0%,0%,0%)" x1="214.8295" x2="228.2511" y1="0.5" y2="0.5" /><line stroke="rgb(0%,0%,0%)" x1="228.2511" x2="230.8045" y1="0.5" y2="0.5" /><line stroke="rgb(0%,0%,0%)" x1="230.8045" x2="244.5753" y1="0.5" y2="0.5" /><line stroke="rgb(0%,0%,0%)" x1="244.5753" x2="253.7398" y1="0.5" y2="0.5" /><line stroke="rgb(0%,0%,0%)" x1="253.7398" x2="259.1309" y1="0.5" y2="0.5" /><line stroke="rgb(0%,0%,0%)" x1="259.1309" x2="265.5824" y1="0.5" y2="0.5" /><line stroke="rgb(0%,0%,0%)" x1="265.5824" x2="272.2461" y1="0.5" y2="0.5" /><line stroke="rgb(0%,0%,0%)" x1="272.2461" x2="276.5042" y1="0.5" y2="0.5" /><line stroke="rgb(0%,0%,0%)" x1="276.5042" x2="279.759" y1="0.5" y2="0.5" /><line stroke="rgb(0%,0%,0%)" x1="279.759" x2="286.6551" y1="0.5" y2="0.5" /><line stroke="rgb(0%,0%,0%)" x1="286.6551" x2="288.6017" y1="0.5" y2="0.5" /><line stroke="rgb(0%,0%,0%)" x1="288.6017" x2="296.1515" y1="0.5" y2="0.5" /><line stroke="rgb(0%,0%,0%)" x1="296.1515" x2="297.0068" y1="0.5" y2="0.5" /><line stroke="rgb(0%,0%,0%)" x1="297.0068" x2="304.6332" y1="0.5" y2="0.5" /></svg>