<?xml version="1.0" encoding="utf-8" ?>
<svg baseProfile="tiny" height="100%" version="1.2" width="100%" xmlns="http://www.w3.org/2000/svg" xmlns:ev="http://www.w3.org/2001/xml-events" xmlns:xlink="http://www.w3.org/1999/xlink"><defs /><line stroke="rgb(0%,0%,0%)" x1="215.2919" x2="215.2919" y1="100.5" y2="37.7252" /><line stroke="rgb(0%,0%,0%)" x1="215.2919" x2="215.2919" y1="37.7252" y2="0.5" /><line stroke="rgb(0%,0%,0%)" x1="306.0038" x2="306.0038" y1="100.5" y2="81.7563" /><line stroke="rgb(0%,0%,0%)" x1="306.0038" x2="306.0038" y1="81.7563" y2="0.5" /><line stroke="rgb(0%,0%,0%)" x1="226.7086" x2="215.2919" y1="100.5" y2="100.5" /><line stroke="rgb(0%,0%,0%)" x1="226.7086" x2="228.8806" y1="100.5" y2="100.5" /><line stroke="rgb(0%,0%,0%)" x1="228.8806" x2="243.1618" y1="100.5" y2="100.5" /><line stroke="rgb(0%,0%,0%)" x1="243.1618" x2="252.666" y1="100.5" y2="100.5" /><line stroke="rgb(0%,0%,0%)" x1="252.666" x2="257.8315" y1="100.5" y2="100.5" /><line stroke="rgb(0%,0%,0%)" x1="257.8315" x2="264.5938" y1="100.5" y2="100.5" /><line stroke="rgb(0%,0%,0%)" x1="264.5938" x2="271.0489" y1="100.5" y2="100.5" /><line stroke="rgb(0%,0%,0%)" x1="271.0489" x2="275.5932" y1="100.5" y2="100.5" /><line stroke="rgb(0%,0%,0%)" x1="275.5932" x2="279.0667" y1="100.5" y2="100.5" /><line stroke="rgb(0%,0%,0%)" x1="279.0667" x2="285.8154" y1="100.5" y2="100.5" /><line stroke="rgb(0%,0%,0%)" x1="285.8154" x2="287.9693" y1="100.5" y2="100.5" /><line stroke="rgb(0%,0%,0%)" x1="287.9693" x2="295.378" y1="100.5" y2="100.5" /><line stroke="rgb(0%,0%,0%)" x1="295.378" x2="296.4305" y1="100.5" y2="100.5" /><line stroke="rgb(0%,0%,0%)" x1="296.4305" x2="304.3739" y1="100.5" y2="100.5" /><line stroke="rgb(0%,0%,0%)" x1="304.3739" x2="304.5171" y1="100.5" y2="100.5" /><line stroke="rgb(0%,0%,0%)" x1="304.5171" x2="304.639" y1="100.5" y2="100.5" /><line stroke="rgb(0%,0%,0%)" x1="304.639" x2="306.0038" y1="100.5" y2="100.5" /><line stroke="rgb(0%,0%,0%)" x1="215.2919" x2="226.7086" y1="0.5" y2="0.5" /><line stroke="rgb(0%,0%,0%)" x1="226.7086" x2="228.8806" y1="0.5" y2="0.5" /><line stroke="rgb(0%,0%,0%)" x1="228.8806" x2="243.1618" y1="0.5" y2="0.5" /><line stroke="rgb(0%,0%,0%)" x1="243.1618" x2="252.666" y1="0.5" y2="0.5" /><line stroke="rgb(0%,0%,0%)" x1="252.666" x2="257.8315" y1="0.5" y2="0.5" /><line stroke="rgb(0%,0%,0%)" x1="257.8315" x2="264.5938" y1="0.5" y2="0.5" /><line stroke="rgb(0%,0%,0%)" x1="264.5938" x2="271.0489" y1="0.5" y2="0.5" /><line stroke="rgb(0%,0%,0%)" x1="271.0489" x2="275.5932" y1="0.5" y2="0.5" /><line stroke="rgb(0%,0%,0%)" x1="275.5932" x2="279.0667" y1="0.5" y2="0.5" /><line stroke="rgb(0%,0%,0%)" x1="279.0667" x2="285.8154" y1="0.5" y2="0.5" /><line stroke="rgb(0%,0%,0%)" x1="285.8154" x2="287.9693" y1="0.5" y2="0.5" /><line stroke="rgb(0%,0%,0%)" x1="287.9693" x2="295.378" y1="0.5" y2="0.5" /><line stroke="rgb(0%,0%,0%)" x1="295.378" x2="296.4305" y1="0.5" y2="0.5" /><line stroke="rgb(0%,0%,0%)" x1="296.4305" x2="304.3739" y1="0.5" y2="0.5" /><line stroke="rgb(0%,0%,0%)" x1="304.3739" x2="304.5171" y1="0.5" y2="0.5" /><line stroke="rgb(0%,0%,0%)" x1="304.5171" x2="304.639" y1="0.5" y2="0.5" /><line stroke="rgb(0%,0%,0%)" x1="304.639" x2="306.0038" y1="0.5" y2="0.5" /></svg>