<?xml version="1.0" encoding="utf-8" ?>
<svg baseProfile="tiny" height="100%" version="1.2" width="100%" xmlns="http://www.w3.org/2000/svg" xmlns:ev="http://www.w3.org/2001/xml-events" xmlns:xlink="http://www.w3.org/1999/xlink"><defs /><line stroke="rgb(0%,0%,0%)" x1="215.7543" x2="215.7543" y1="100.5" y2="48.7496" /><line stroke="rgb(0%,0%,0%)" x1="215.7543" x2="215.7543" y1="48.7496" y2="0.5" /><line stroke="rgb(0%,0%,0%)" x1="307.4337" x2="307.4337" y1="100.5" y2="57.1286" /><line stroke="rgb(0%,0%,0%)" x1="307.4337" x2="307.4337" y1="57.1286" y2="0.5" /><line stroke="rgb(0%,0%,0%)" x1="225.166" x2="215.7543" y1="100.5" y2="100.5" /><line stroke="rgb(0%,0%,0%)" x1="225.166" x2="226.9566" y1="100.5" y2="100.5" /><line stroke="rgb(0%,0%,0%)" x1="226.9566" x2="241.7483" y1="100.5" y2="100.5" /><line stroke="rgb(0%,0%,0%)" x1="241.7483" x2="251.5922" y1="100.5" y2="100.5" /><line stroke="rgb(0%,0%,0%)" x1="251.5922" x2="256.5321" y1="100.5" y2="100.5" /><line stroke="rgb(0%,0%,0%)" x1="256.5321" x2="263.6051" y1="100.5" y2="100.5" /><line stroke="rgb(0%,0%,0%)" x1="263.6051" x2="269.8517" y1="100.5" y2="100.5" /><line stroke="rgb(0%,0%,0%)" x1="269.8517" x2="274.6821" y1="100.5" y2="100.5" /><line stroke="rgb(0%,0%,0%)" x1="274.6821" x2="278.3743" y1="100.5" y2="100.5" /><line stroke="rgb(0%,0%,0%)" x1="278.3743" x2="284.9756" y1="100.5" y2="100.5" /><line stroke="rgb(0%,0%,0%)" x1="284.9756" x2="287.3368" y1="100.5" y2="100.5" /><line stroke="rgb(0%,0%,0%)" x1="287.3368" x2="294.6045" y1="100.5" y2="100.5" /><line stroke="rgb(0%,0%,0%)" x1="294.6045" x2="295.8541" y1="100.5" y2="100.5" /><line stroke="rgb(0%,0%,0%)" x1="295.8541" x2="303.6623" y1="100.5" y2="100.5" /><line stroke="rgb(0%,0%,0%)" x1="303.6623" x2="303.9937" y1="100.5" y2="100.5" /><line stroke="rgb(0%,0%,0%)" x1="303.9937" x2="304.2758" y1="100.5" y2="100.5" /><line stroke="rgb(0%,0%,0%)" x1="304.2758" x2="307.4337" y1="100.5" y2="100.5" /><line stroke="rgb(0%,0%,0%)" x1="215.7543" x2="225.166" y1="0.5" y2="0.5" /><line stroke="rgb(0%,0%,0%)" x1="225.166" x2="226.9566" y1="0.5" y2="0.5" /><line stroke="rgb(0%,0%,0%)" x1="226.9566" x2="241.7483" y1="0.5" y2="0.5" /><line stroke="rgb(0%,0%,0%)" x1="241.7483" x2="251.5922" y1="0.5" y2="0.5" /><line stroke="rgb(0%,0%,0%)" x1="251.5922" x2="256.5321" y1="0.5" y2="0.5" /><line stroke="rgb(0%,0%,0%)" x1="256.5321" x2="263.6051" y1="0.5" y2="0.5" /><line stroke="rgb(0%,0%,0%)" x1="263.6051" x2="269.8517" y1="0.5" y2="0.5" /><line stroke="rgb(0%,0%,0%)" x1="269.8517" x2="274.6821" y1="0.5" y2="0.5" /><line stroke="rgb(0%,0%,0%)" x1="274.6821" x2="278.3743" y1="0.5" y2="0.5" /><line stroke="rgb(0%,0%,0%)" x1="278.3743" x2="284.9756" y1="0.5" y2="0.5" /><line stroke="rgb(0%,0%,0%)" x1="284.9756" x2="287.3368" y1="0.5" y2="0.5" /><line stroke="rgb(0%,0%,0%)" x1="287.3368" x2="294.6045" y1="0.5" y2="0.5" /><line stroke="rgb(0%,0%,0%)" x1="294.6045" x2="295.8541" y1="0.5" y2="0.5" /><line stroke="rgb(0%,0%,0%)" x1="295.8541" x2="303.6623" y1="0.5" y2="0.5" /><line stroke="rgb(0%,0%,0%)" x1="303.6623" x2="303.9937" y1="0.5" y2="0.5" /><line stroke="rgb(0%,0%,0%)" x1="303.9937" x2="304.2758" y1="0.5" y2="0.5" /><line stroke="rgb(0%,0%,0%)" x1="304.2758" x2="307.4337" y1="0.5" y2="0.5" /></svg>