<?xml version="1.0" encoding="utf-8" ?>
<svg baseProfile="tiny" height="100%" version="1.2" width="100%" xmlns="http://www.w3.org/2000/svg" xmlns:ev="http://www.w3.org/2001/xml-events" xmlns:xlink="http://www.w3.org/1999/xlink"><defs /><line stroke="rgb(0%,0%,0%)" x1="216.2168" x2="216.2168" y1="100.5" y2="59.774" /><line stroke="rgb(0%,0%,0%)" x1="216.2168" x2="216.2168" y1="59.774" y2="0.5" /><line stroke="rgb(0%,0%,0%)" x1="308.8637" x2="308.8637" y1="100.5" y2="32.5009" /><line stroke="rgb(0%,0%,0%)" x1="308.8637" x2="308.8637" y1="32.5009" y2="0.5" /><line stroke="rgb(0%,0%,0%)" x1="223.6235" x2="216.2168" y1="100.5" y2="100.5" /><line stroke="rgb(0%,0%,0%)" x1="223.6235" x2="225.0326" y1="100.5" y2="100.5" /><line stroke="rgb(0%,0%,0%)" x1="225.0326" x2="240.3347" y1="100.5" y2="100.5" /><line stroke="rgb(0%,0%,0%)" x1="240.3347" x2="250.5183" y1="100.5" y2="100.5" /><line stroke="rgb(0%,0%,0%)" x1="250.5183" x2="255.2327" y1="100.5" y2="100.5" /><line stroke="rgb(0%,0%,0%)" x1="255.2327" x2="262.6165" y1="100.5" y2="100.5" /><line stroke="rgb(0%,0%,0%)" x1="262.6165" x2="268.6545" y1="100.5" y2="100.5" /><line stroke="rgb(0%,0%,0%)" x1="268.6545" x2="273.7711" y1="100.5" y2="100.5" /><line stroke="rgb(0%,0%,0%)" x1="273.7711" x2="277.682" y1="100.5" y2="100.5" /><line stroke="rgb(0%,0%,0%)" x1="277.682" x2="284.1359" y1="100.5" y2="100.5" /><line stroke="rgb(0%,0%,0%)" x1="284.1359" x2="286.7044" y1="100.5" y2="100.5" /><line stroke="rgb(0%,0%,0%)" x1="286.7044" x2="293.831" y1="100.5" y2="100.5" /><line stroke="rgb(0%,0%,0%)" x1="293.831" x2="295.2778" y1="100.5" y2="100.5" /><line stroke="rgb(0%,0%,0%)" x1="295.2778" x2="302.9508" y1="100.5" y2="100.5" /><line stroke="rgb(0%,0%,0%)" x1="302.9508" x2="303.4703" y1="100.5" y2="100.5" /><line stroke="rgb(0%,0%,0%)" x1="303.4703" x2="303.9126" y1="100.5" y2="100.5" /><line stroke="rgb(0%,0%,0%)" x1="303.9126" x2="308.8637" y1="100.5" y2="100.5" /><line stroke="rgb(0%,0%,0%)" x1="216.2168" x2="223.6235" y1="0.5" y2="0.5" /><line stroke="rgb(0%,0%,0%)" x1="223.6235" x2="225.0326" y1="0.5" y2="0.5" /><line stroke="rgb(0%,0%,0%)" x1="225.0326" x2="240.3347" y1="0.5" y2="0.5" /><line stroke="rgb(0%,0%,0%)" x1="240.3347" x2="250.5183" y1="0.5" y2="0.5" /><line stroke="rgb(0%,0%,0%)" x1="250.5183" x2="255.2327" y1="0.5" y2="0.5" /><line stroke="rgb(0%,0%,0%)" x1="255.2327" x2="262.6165" y1="0.5" y2="0.5" /><line stroke="rgb(0%,0%,0%)" x1="262.6165" x2="268.6545" y1="0.5" y2="0.5" /><line stroke="rgb(0%,0%,0%)" x1="268.6545" x2="273.7711" y1="0.5" y2="0.5" /><line stroke="rgb(0%,0%,0%)" x1="273.7711" x2="277.682" y1="0.5" y2="0.5" /><line stroke="rgb(0%,0%,0%)" x1="277.682" x2="284.1359" y1="0.5" y2="0.5" /><line stroke="rgb(0%,0%,0%)" x1="284.1359" x2="286.7044" y1="0.5" y2="0.5" /><line stroke="rgb(0%,0%,0%)" x1="286.7044" x2="293.831" y1="0.5" y2="0.5" /><line stroke="rgb(0%,0%,0%)" x1="293.831" x2="295.2778" y1="0.5" y2="0.5" /><line stroke="rgb(0%,0%,0%)" x1="295.2778" x2="302.9508" y1="0.5" y2="0.5" /><line stroke="rgb(0%,0%,0%)" x1="302.9508" x2="303.4703" y1="0.5" y2="0.5" /><line stroke="rgb(0%,0%,0%)" x1="303.4703" x2="303.9126" y1="0.5" y2="0.5" /><line stroke="rgb(0%,0%,0%)" x1="303.9126" x2="308.8637" y1="0.5" y2="0.5" /></svg>