<?xml version="1.0" encoding="utf-8" ?>
<svg baseProfile="tiny" height="100%" version="1.2" width="100%" xmlns="http://www.w3.org/2000/svg" xmlns:ev="http://www.w3.org/2001/xml-events" xmlns:xlink="http://www.w3.org/1999/xlink"><defs /><line stroke="rgb(0%,0%,0%)" x1="216.6792" x2="216.6792" y1="100.5" y2="70.7984" /><line stroke="rgb(0%,0%,0%)" x1="216.6792" x2="216.6792" y1="70.7984" y2="0.5" /><line stroke="rgb(0%,0%,0%)" x1="310.2936" x2="310.2936" y1="100.5" y2="7.8732" /><line stroke="rgb(0%,0%,0%)" x1="310.2936" x2="310.2936" y1="7.8732" y2="0.5" /><line stroke="rgb(0%,0%,0%)" x1="222.0809" x2="216.6792" y1="100.5" y2="100.5" /><line stroke="rgb(0%,0%,0%)" x1="222.0809" x2="223.1086" y1="100.5" y2="100.5" /><line stroke="rgb(0%,0%,0%)" x1="223.1086" x2="238.9212" y1="100.5" y2="100.5" /><line stroke="rgb(0%,0%,0%)" x1="238.9212" x2="249.4445" y1="100.5" y2="100.5" /><line stroke="rgb(0%,0%,0%)" x1="249.4445" x2="253.9333" y1="100.5" y2="100.5" /><line stroke="rgb(0%,0%,0%)" x1="253.9333" x2="261.6278" y1="100.5" y2="100.5" /><line stroke="rgb(0%,0%,0%)" x1="261.6278" x2="267.4574" y1="100.5" y2="100.5" /><line stroke="rgb(0%,0%,0%)" x1="267.4574" x2="272.86" y1="100.5" y2="100.5" /><line stroke="rgb(0%,0%,0%)" x1="272.86" x2="276.9896" y1="100.5" y2="100.5" /><line stroke="rgb(0%,0%,0%)" x1="276.9896" x2="283.2962" y1="100.5" y2="100.5" /><line stroke="rgb(0%,0%,0%)" x1="283.2962" x2="286.0719" y1="100.5" y2="100.5" /><line stroke="rgb(0%,0%,0%)" x1="286.0719" x2="293.0575" y1="100.5" y2="100.5" /><line stroke="rgb(0%,0%,0%)" x1="293.0575" x2="294.7014" y1="100.5" y2="100.5" /><line stroke="rgb(0%,0%,0%)" x1="294.7014" x2="302.2392" y1="100.5" y2="100.5" /><line stroke="rgb(0%,0%,0%)" x1="302.2392" x2="302.9469" y1="100.5" y2="100.5" /><line stroke="rgb(0%,0%,0%)" x1="302.9469" x2="303.5494" y1="100.5" y2="100.5" /><line stroke="rgb(0%,0%,0%)" x1="303.5494" x2="310.2936" y1="100.5" y2="100.5" /><line stroke="rgb(0%,0%,0%)" x1="216.6792" x2="222.0809" y1="0.5" y2="0.5" /><line stroke="rgb(0%,0%,0%)" x1="222.0809" x2="223.1086" y1="0.5" y2="0.5" /><line stroke="rgb(0%,0%,0%)" x1="223.1086" x2="238.9212" y1="0.5" y2="0.5" /><line stroke="rgb(0%,0%,0%)" x1="238.9212" x2="249.4445" y1="0.5" y2="0.5" /><line stroke="rgb(0%,0%,0%)" x1="249.4445" x2="253.9333" y1="0.5" y2="0.5" /><line stroke="rgb(0%,0%,0%)" x1="253.9333" x2="261.6278" y1="0.5" y2="0.5" /><line stroke="rgb(0%,0%,0%)" x1="261.6278" x2="267.4574" y1="0.5" y2="0.5" /><line stroke="rgb(0%,0%,0%)" x1="267.4574" x2="272.86" y1="0.5" y2="0.5" /><line stroke="rgb(0%,0%,0%)" x1="272.86" x2="276.9896" y1="0.5" y2="0.5" /><line stroke="rgb(0%,0%,0%)" x1="276.9896" x2="283.2962" y1="0.5" y2="0.5" /><line stroke="rgb(0%,0%,0%)" x1="283.2962" x2="286.0719" y1="0.5" y2="0.5" /><line stroke="rgb(0%,0%,0%)" x1="286.0719" x2="293.0575" y1="0.5" y2="0.5" /><line stroke="rgb(0%,0%,0%)" x1="293.0575" x2="294.7014" y1="0.5" y2="0.5" /><line stroke="rgb(0%,0%,0%)" x1="294.7014" x2="302.2392" y1="0.5" y2="0.5" /><line stroke="rgb(0%,0%,0%)" x1="302.2392" x2="302.9469" y1="0.5" y2="0.5" /><line stroke="rgb(0%,0%,0%)" x1="302.9469" x2="303.5494" y1="0.5" y2="0.5" /><line stroke="rgb(0%,0%,0%)" x1="303.5494" x2="310.2936" y1="0.5" y2="0.5" /></svg>