<?xml version="1.0" encoding="utf-8" ?>
<svg baseProfile="tiny" height="100%" version="1.2" width="100%" xmlns="http://www.w3.org/2000/svg" xmlns:ev="http://www.w3.org/2001/xml-events" xmlns:xlink="http://www.w3.org/1999/xlink"><defs /><line stroke="rgb(0%,0%,0%)" x1="217.1416" x2="217.1416" y1="100.5" y2="81.8227" /><line stroke="rgb(0%,0%,0%)" x1="217.1416" x2="217.1416" y1="81.8227" y2="0.5" /><line stroke="rgb(0%,0%,0%)" x1="311.9504" x2="311.9504" y1="100.5" y2="80.5371" /><line stroke="rgb(0%,0%,0%)" x1="311.9504" x2="311.9504" y1="80.5371" y2="0.5" /><line stroke="rgb(0%,0%,0%)" x1="220.5384" x2="217.1416" y1="100.5" y2="100.5" /><line stroke="rgb(0%,0%,0%)" x1="220.5384" x2="221.1846" y1="100.5" y2="100.5" /><line stroke="rgb(0%,0%,0%)" x1="221.1846" x2="237.5077" y1="100.5" y2="100.5" /><line stroke="rgb(0%,0%,0%)" x1="237.5077" x2="248.3707" y1="100.5" y2="100.5" /><line stroke="rgb(0%,0%,0%)" x1="248.3707" x2="252.6339" y1="100.5" y2="100.5" /><line stroke="rgb(0%,0%,0%)" x1="252.6339" x2="260.6392" y1="100.5" y2="100.5" /><line stroke="rgb(0%,0%,0%)" x1="260.6392" x2="266.2602" y1="100.5" y2="100.5" /><line stroke="rgb(0%,0%,0%)" x1="266.2602" x2="271.9489" y1="100.5" y2="100.5" /><line stroke="rgb(0%,0%,0%)" x1="271.9489" x2="276.2972" y1="100.5" y2="100.5" /><line stroke="rgb(0%,0%,0%)" x1="276.2972" x2="282.4565" y1="100.5" y2="100.5" /><line stroke="rgb(0%,0%,0%)" x1="282.4565" x2="285.4395" y1="100.5" y2="100.5" /><line stroke="rgb(0%,0%,0%)" x1="285.4395" x2="292.284" y1="100.5" y2="100.5" /><line stroke="rgb(0%,0%,0%)" x1="292.284" x2="294.1251" y1="100.5" y2="100.5" /><line stroke="rgb(0%,0%,0%)" x1="294.1251" x2="301.5276" y1="100.5" y2="100.5" /><line stroke="rgb(0%,0%,0%)" x1="301.5276" x2="302.4234" y1="100.5" y2="100.5" /><line stroke="rgb(0%,0%,0%)" x1="302.4234" x2="303.1862" y1="100.5" y2="100.5" /><line stroke="rgb(0%,0%,0%)" x1="303.1862" x2="310.3902" y1="100.5" y2="100.5" /><line stroke="rgb(0%,0%,0%)" x1="310.3902" x2="310.4996" y1="100.5" y2="100.5" /><line stroke="rgb(0%,0%,0%)" x1="310.4996" x2="311.9504" y1="100.5" y2="100.5" /><line stroke="rgb(0%,0%,0%)" x1="217.1416" x2="220.5384" y1="0.5" y2="0.5" /><line stroke="rgb(0%,0%,0%)" x1="220.5384" x2="221.1846" y1="0.5" y2="0.5" /><line stroke="rgb(0%,0%,0%)" x1="221.1846" x2="237.5077" y1="0.5" y2="0.5" /><line stroke="rgb(0%,0%,0%)" x1="237.5077" x2="248.3707" y1="0.5" y2="0.5" /><line stroke="rgb(0%,0%,0%)" x1="248.3707" x2="252.6339" y1="0.5" y2="0.5" /><line stroke="rgb(0%,0%,0%)" x1="252.6339" x2="260.6392" y1="0.5" y2="0.5" /><line stroke="rgb(0%,0%,0%)" x1="260.6392" x2="266.2602" y1="0.5" y2="0.5" /><line stroke="rgb(0%,0%,0%)" x1="266.2602" x2="271.9489" y1="0.5" y2="0.5" /><line stroke="rgb(0%,0%,0%)" x1="271.9489" x2="276.2972" y1="0.5" y2="0.5" /><line stroke="rgb(0%,0%,0%)" x1="276.2972" x2="282.4565" y1="0.5" y2="0.5" /><line stroke="rgb(0%,0%,0%)" x1="282.4565" x2="285.4395" y1="0.5" y2="0.5" /><line stroke="rgb(0%,0%,0%)" x1="285.4395" x2="292.284" y1="0.5" y2="0.5" /><line stroke="rgb(0%,0%,0%)" x1="292.284" x2="294.1251" y1="0.5" y2="0.5" /><line stroke="rgb(0%,0%,0%)" x1="294.1251" x2="301.5276" y1="0.5" y2="0.5" /><line stroke="rgb(0%,0%,0%)" x1="301.5276" x2="302.4234" y1="0.5" y2="0.5" /><line stroke="rgb(0%,0%,0%)" x1="302.4234" x2="303.1862" y1="0.5" y2="0.5" /><line stroke="rgb(0%,0%,0%)" x1="303.1862" x2="310.3902" y1="0.5" y2="0.5" /><line stroke="rgb(0%,0%,0%)" x1="310.3902" x2="310.4996" y1="0.5" y2="0.5" /><line stroke="rgb(0%,0%,0%)" x1="310.4996" x2="311.9504" y1="0.5" y2="0.5" /></svg>