<?xml version="1.0" encoding="utf-8" ?>
<svg baseProfile="tiny" height="100%" version="1.2" width="100%" xmlns="http://www.w3.org/2000/svg" xmlns:ev="http://www.w3.org/2001/xml-events" xmlns:xlink="http://www.w3.org/1999/xlink"><defs /><line stroke="rgb(0%,0%,0%)" x1="351.9" x2="351.9" y1="0.5" y2="22.5331" /><line stroke="rgb(0%,0%,0%)" x1="351.9" x2="351.9" y1="22.5331" y2="100.5" /><line stroke="rgb(0%,0%,0%)" x1="313.636" x2="343.8005" y1="100.5" y2="100.5" /><line stroke="rgb(0%,0%,0%)" x1="343.8005" x2="344.8525" y1="100.5" y2="100.5" /><line stroke="rgb(0%,0%,0%)" x1="344.8525" x2="346.0543" y1="100.5" y2="100.5" /><line stroke="rgb(0%,0%,0%)" x1="346.0543" x2="347.3881" y1="100.5" y2="100.5" /><line stroke="rgb(0%,0%,0%)" x1="347.3881" x2="348.8289" y1="100.5" y2="100.5" /><line stroke="rgb(0%,0%,0%)" x1="348.8289" x2="350.3449" y1="100.5" y2="100.5" /><line stroke="rgb(0%,0%,0%)" x1="350.3449" x2="351.9" y1="100.5" y2="100.5" /><line stroke="rgb(0%,0%,0%)" x1="313.636" x2="51.8115" y1="100.5" y2="100.5" /><line stroke="rgb(0%,0%,0%)" x1="51.8115" x2="0.5" y1="100.5" y2="100.5" /><line stroke="rgb(0%,0%,0%)" x1="0.5" x2="51.8115" y1="0.5" y2="0.5" /><line stroke="rgb(0%,0%,0%)" x1="51.8115" x2="313.636" y1="0.5" y2="0.5" /><line stroke="rgb(0%,0%,0%)" x1="313.636" x2="343.8005" y1="0.5" y2="0.5" /><line stroke="rgb(0%,0%,0%)" x1="343.8005" x2="344.8525" y1="0.5" y2="0.5" /><line stroke="rgb(0%,0%,0%)" x1="344.8525" x2="346.0543" y1="0.5" y2="0.5" /><line stroke="rgb(0%,0%,0%)" x1="346.0543" x2="347.3881" y1="0.5" y2="0.5" /><line stroke="rgb(0%,0%,0%)" x1="347.3881" x2="348.8289" y1="0.5" y2="0.5" /><line stroke="rgb(0%,0%,0%)" x1="348.8289" x2="350.3449" y1="0.5" y2="0.5" /><line stroke="rgb(0%,0%,0%)" x1="350.3449" x2="351.9" y1="0.5" y2="0.5" /><line stroke="rgb(0%,0%,0%)" x1="0.5" x2="0.5" y1="0.5" y2="75.009" /><line stroke="rgb(0%,0%,0%)" x1="0.5" x2="0.5" y1="75.009" y2="100.5" /><line stroke="rgb(0%,0%,0%)" x1="165.1722" x2="165.3329" y1="47.3813" y2="48.91" /><line stroke="rgb(0%,0%,0%)" x1="165.3329" x2="165.5" y1="48.91" y2="50.5" /><line stroke="rgb(0%,0%,0%)" x1="165.5" x2="165.3393" y1="50.5" y2="52.0287" /><line stroke="rgb(0%,0%,0%)" x1="165.3393" x2="165.1722" y1="52.0287" y2="53.6187" /><line stroke="rgb(0%,0%,0%)" x1="165.1722" x2="164.6972" y1="53.6187" y2="55.0806" /><line stroke="rgb(0%,0%,0%)" x1="164.6972" x2="164.2032" y1="55.0806" y2="56.6011" /><line stroke="rgb(0%,0%,0%)" x1="164.2032" x2="163.4346" y1="56.6011" y2="57.9322" /><line stroke="rgb(0%,0%,0%)" x1="163.4346" x2="162.6353" y1="57.9322" y2="59.3168" /><line stroke="rgb(0%,0%,0%)" x1="162.6353" x2="161.6067" y1="59.3168" y2="60.4591" /><line stroke="rgb(0%,0%,0%)" x1="161.6067" x2="160.537" y1="60.4591" y2="61.6472" /><line stroke="rgb(0%,0%,0%)" x1="160.537" x2="159.2934" y1="61.6472" y2="62.5507" /><line stroke="rgb(0%,0%,0%)" x1="159.2934" x2="158.0" y1="62.5507" y2="63.4904" /><line stroke="rgb(0%,0%,0%)" x1="158.0" x2="156.5958" y1="63.4904" y2="64.1156" /><line stroke="rgb(0%,0%,0%)" x1="156.5958" x2="155.1353" y1="64.1156" y2="64.7658" /><line stroke="rgb(0%,0%,0%)" x1="155.1353" x2="153.6317" y1="64.7658" y2="65.0854" /><line stroke="rgb(0%,0%,0%)" x1="153.6317" x2="152.0679" y1="65.0854" y2="65.4178" /><line stroke="rgb(0%,0%,0%)" x1="152.0679" x2="150.5308" y1="65.4178" y2="65.4178" /><line stroke="rgb(0%,0%,0%)" x1="150.5308" x2="148.9321" y1="65.4178" y2="65.4178" /><line stroke="rgb(0%,0%,0%)" x1="148.9321" x2="147.4285" y1="65.4178" y2="65.0982" /><line stroke="rgb(0%,0%,0%)" x1="147.4285" x2="145.8647" y1="65.0982" y2="64.7658" /><line stroke="rgb(0%,0%,0%)" x1="145.8647" x2="144.4605" y1="64.7658" y2="64.1406" /><line stroke="rgb(0%,0%,0%)" x1="144.4605" x2="143.0" y1="64.1406" y2="63.4904" /><line stroke="rgb(0%,0%,0%)" x1="143.0" x2="141.7564" y1="63.4904" y2="62.5869" /><line stroke="rgb(0%,0%,0%)" x1="141.7564" x2="140.463" y1="62.5869" y2="61.6472" /><line stroke="rgb(0%,0%,0%)" x1="140.463" x2="139.4345" y1="61.6472" y2="60.5049" /><line stroke="rgb(0%,0%,0%)" x1="139.4345" x2="138.3647" y1="60.5049" y2="59.3168" /><line stroke="rgb(0%,0%,0%)" x1="138.3647" x2="137.5962" y1="59.3168" y2="57.9856" /><line stroke="rgb(0%,0%,0%)" x1="137.5962" x2="136.7968" y1="57.9856" y2="56.6011" /><line stroke="rgb(0%,0%,0%)" x1="136.7968" x2="136.3218" y1="56.6011" y2="55.1392" /><line stroke="rgb(0%,0%,0%)" x1="136.3218" x2="135.8278" y1="55.1392" y2="53.6187" /><line stroke="rgb(0%,0%,0%)" x1="135.8278" x2="135.6671" y1="53.6187" y2="52.09" /><line stroke="rgb(0%,0%,0%)" x1="135.6671" x2="135.5" y1="52.09" y2="50.5" /><line stroke="rgb(0%,0%,0%)" x1="135.5" x2="135.6607" y1="50.5" y2="48.9713" /><line stroke="rgb(0%,0%,0%)" x1="135.6607" x2="135.8278" y1="48.9713" y2="47.3813" /><line stroke="rgb(0%,0%,0%)" x1="135.8278" x2="136.3028" y1="47.3813" y2="45.9194" /><line stroke="rgb(0%,0%,0%)" x1="136.3028" x2="136.7968" y1="45.9194" y2="44.3989" /><line stroke="rgb(0%,0%,0%)" x1="136.7968" x2="137.5654" y1="44.3989" y2="43.0678" /><line stroke="rgb(0%,0%,0%)" x1="137.5654" x2="138.3647" y1="43.0678" y2="41.6832" /><line stroke="rgb(0%,0%,0%)" x1="138.3647" x2="139.3933" y1="41.6832" y2="40.5409" /><line stroke="rgb(0%,0%,0%)" x1="139.3933" x2="140.463" y1="40.5409" y2="39.3528" /><line stroke="rgb(0%,0%,0%)" x1="140.463" x2="141.7066" y1="39.3528" y2="38.4493" /><line stroke="rgb(0%,0%,0%)" x1="141.7066" x2="143.0" y1="38.4493" y2="37.5096" /><line stroke="rgb(0%,0%,0%)" x1="143.0" x2="144.4042" y1="37.5096" y2="36.8844" /><line stroke="rgb(0%,0%,0%)" x1="144.4042" x2="145.8647" y1="36.8844" y2="36.2342" /><line stroke="rgb(0%,0%,0%)" x1="145.8647" x2="147.3683" y1="36.2342" y2="35.9146" /><line stroke="rgb(0%,0%,0%)" x1="147.3683" x2="148.9321" y1="35.9146" y2="35.5822" /><line stroke="rgb(0%,0%,0%)" x1="148.9321" x2="150.4692" y1="35.5822" y2="35.5822" /><line stroke="rgb(0%,0%,0%)" x1="150.4692" x2="152.0679" y1="35.5822" y2="35.5822" /><line stroke="rgb(0%,0%,0%)" x1="152.0679" x2="153.5715" y1="35.5822" y2="35.9018" /><line stroke="rgb(0%,0%,0%)" x1="153.5715" x2="155.1353" y1="35.9018" y2="36.2342" /><line stroke="rgb(0%,0%,0%)" x1="155.1353" x2="156.5395" y1="36.2342" y2="36.8594" /><line stroke="rgb(0%,0%,0%)" x1="156.5395" x2="158.0" y1="36.8594" y2="37.5096" /><line stroke="rgb(0%,0%,0%)" x1="158.0" x2="159.2436" y1="37.5096" y2="38.4131" /><line stroke="rgb(0%,0%,0%)" x1="159.2436" x2="160.537" y1="38.4131" y2="39.3528" /><line stroke="rgb(0%,0%,0%)" x1="160.537" x2="161.5655" y1="39.3528" y2="40.4951" /><line stroke="rgb(0%,0%,0%)" x1="161.5655" x2="162.6353" y1="40.4951" y2="41.6832" /><line stroke="rgb(0%,0%,0%)" x1="162.6353" x2="163.4038" y1="41.6832" y2="43.0144" /><line stroke="rgb(0%,0%,0%)" x1="163.4038" x2="164.2032" y1="43.0144" y2="44.3989" /><line stroke="rgb(0%,0%,0%)" x1="164.2032" x2="164.6782" y1="44.3989" y2="45.8608" /><line stroke="rgb(0%,0%,0%)" x1="164.6782" x2="165.1722" y1="45.8608" y2="47.3813" /><line stroke="rgb(0%,0%,0%)" x1="65.1722" x2="65.3329" y1="47.3813" y2="48.91" /><line stroke="rgb(0%,0%,0%)" x1="65.3329" x2="65.5" y1="48.91" y2="50.5" /><line stroke="rgb(0%,0%,0%)" x1="65.5" x2="65.3393" y1="50.5" y2="52.0287" /><line stroke="rgb(0%,0%,0%)" x1="65.3393" x2="65.1722" y1="52.0287" y2="53.6187" /><line stroke="rgb(0%,0%,0%)" x1="65.1722" x2="64.6972" y1="53.6187" y2="55.0806" /><line stroke="rgb(0%,0%,0%)" x1="64.6972" x2="64.2032" y1="55.0806" y2="56.6011" /><line stroke="rgb(0%,0%,0%)" x1="64.2032" x2="63.4346" y1="56.6011" y2="57.9322" /><line stroke="rgb(0%,0%,0%)" x1="63.4346" x2="62.6352" y1="57.9322" y2="59.3168" /><line stroke="rgb(0%,0%,0%)" x1="62.6352" x2="61.6067" y1="59.3168" y2="60.4591" /><line stroke="rgb(0%,0%,0%)" x1="61.6067" x2="60.537" y1="60.4591" y2="61.6472" /><line stroke="rgb(0%,0%,0%)" x1="60.537" x2="59.2934" y1="61.6472" y2="62.5507" /><line stroke="rgb(0%,0%,0%)" x1="59.2934" x2="58.0" y1="62.5507" y2="63.4904" /><line stroke="rgb(0%,0%,0%)" x1="58.0" x2="56.5958" y1="63.4904" y2="64.1156" /><line stroke="rgb(0%,0%,0%)" x1="56.5958" x2="55.1353" y1="64.1156" y2="64.7658" /><line stroke="rgb(0%,0%,0%)" x1="55.1353" x2="53.6317" y1="64.7658" y2="65.0854" /><line stroke="rgb(0%,0%,0%)" x1="53.6317" x2="52.0679" y1="65.0854" y2="65.4178" /><line stroke="rgb(0%,0%,0%)" x1="52.0679" x2="50.5308" y1="65.4178" y2="65.4178" /><line stroke="rgb(0%,0%,0%)" x1="50.5308" x2="48.9321" y1="65.4178" y2="65.4178" /><line stroke="rgb(0%,0%,0%)" x1="48.9321" x2="47.4285" y1="65.4178" y2="65.0982" /><line stroke="rgb(0%,0%,0%)" x1="47.4285" x2="45.8647" y1="65.0982" y2="64.7658" /><line stroke="rgb(0%,0%,0%)" x1="45.8647" x2="44.4605" y1="64.7658" y2="64.1406" /><line stroke="rgb(0%,0%,0%)" x1="44.4605" x2="43.0" y1="64.1406" y2="63.4904" /><line stroke="rgb(0%,0%,0%)" x1="43.0" x2="41.7564" y1="63.4904" y2="62.5869" /><line stroke="rgb(0%,0%,0%)" x1="41.7564" x2="40.463" y1="62.5869" y2="61.6472" /><line stroke="rgb(0%,0%,0%)" x1="40.463" x2="39.4345" y1="61.6472" y2="60.5049" /><line stroke="rgb(0%,0%,0%)" x1="39.4345" x2="38.3647" y1="60.5049" y2="59.3168" /><line stroke="rgb(0%,0%,0%)" x1="38.3647" x2="37.5962" y1="59.3168" y2="57.9856" /><line stroke="rgb(0%,0%,0%)" x1="37.5962" x2="36.7968" y1="57.9856" y2="56.6011" /><line stroke="rgb(0%,0%,0%)" x1="36.7968" x2="36.3218" y1="56.6011" y2="55.1392" /><line stroke="rgb(0%,0%,0%)" x1="36.3218" x2="35.8278" y1="55.1392" y2="53.6187" /><line stroke="rgb(0%,0%,0%)" x1="35.8278" x2="35.6671" y1="53.6187" y2="52.09" /><line stroke="rgb(0%,0%,0%)" x1="35.6671" x2="35.5" y1="52.09" y2="50.5" /><line stroke="rgb(0%,0%,0%)" x1="35.5" x2="35.6607" y1="50.5" y2="48.9713" /><line stroke="rgb(0%,0%,0%)" x1="35.6607" x2="35.8278" y1="48.9713" y2="47.3813" /><line stroke="rgb(0%,0%,0%)" x1="35.8278" x2="36.3028" y1="47.3813" y2="45.9194" /><line stroke="rgb(0%,0%,0%)" x1="36.3028" x2="36.7968" y1="45.9194" y2="44.3989" /><line stroke="rgb(0%,0%,0%)" x1="36.7968" x2="37.5654" y1="44.3989" y2="43.0678" /><line stroke="rgb(0%,0%,0%)" x1="37.5654" x2="38.3647" y1="43.0678" y2="41.6832" /><line stroke="rgb(0%,0%,0%)" x1="38.3647" x2="39.3933" y1="41.6832" y2="40.5409" /><line stroke="rgb(0%,0%,0%)" x1="39.3933" x2="40.463" y1="40.5409" y2="39.3528" /><line stroke="rgb(0%,0%,0%)" x1="40.463" x2="41.7066" y1="39.3528" y2="38.4493" /><line stroke="rgb(0%,0%,0%)" x1="41.7066" x2="43.0" y1="38.4493" y2="37.5096" /><line stroke="rgb(0%,0%,0%)" x1="43.0" x2="44.4042" y1="37.5096" y2="36.8844" /><line stroke="rgb(0%,0%,0%)" x1="44.4042" x2="45.8647" y1="36.8844" y2="36.2342" /><line stroke="rgb(0%,0%,0%)" x1="45.8647" x2="47.3683" y1="36.2342" y2="35.9146" /><line stroke="rgb(0%,0%,0%)" x1="47.3683" x2="48.9321" y1="35.9146" y2="35.5822" /><line stroke="rgb(0%,0%,0%)" x1="48.9321" x2="50.4692" y1="35.5822" y2="35.5822" /><line stroke="rgb(0%,0%,0%)" x1="50.4692" x2="52.0679" y1="35.5822" y2="35.5822" /><line stroke="rgb(0%,0%,0%)" x1="52.0679" x2="53.5715" y1="35.5822" y2="35.9018" /><line stroke="rgb(0%,0%,0%)" x1="53.5715" x2="55.1353" y1="35.9018" y2="36.2342" /><line stroke="rgb(0%,0%,0%)" x1="55.1353" x2="56.5395" y1="36.2342" y2="36.8594" /><line stroke="rgb(0%,0%,0%)" x1="56.5395" x2="58.0" y1="36.8594" y2="37.5096" /><line stroke="rgb(0%,0%,0%)" x1="58.0" x2="59.2436" y1="37.5096" y2="38.4131" /><line stroke="rgb(0%,0%,0%)" x1="59.2436" x2="60.537" y1="38.4131" y2="39.3528" /><line stroke="rgb(0%,0%,0%)" x1="60.537" x2="61.5655" y1="39.3528" y2="40.4951" /><line stroke="rgb(0%,0%,0%)" x1="61.5655" x2="62.6352" y1="40.4951" y2="41.6832" /><line stroke="rgb(0%,0%,0%)" x1="62.6352" x2="63.4038" y1="41.6832" y2="43.0144" /><line stroke="rgb(0%,0%,0%)" x1="63.4038" x2="64.2032" y1="43.0144" y2="44.3989" /><line stroke="rgb(0%,0%,0%)" x1="64.2032" x2="64.6782" y1="44.3989" y2="45.8608" /><line stroke="rgb(0%,0%,0%)" x1="64.6782" x2="65.1722" y1="45.8608" y2="47.3813" /></svg>