<?xml version="1.0" encoding="utf-8" ?>
<svg baseProfile="tiny" height="100%" version="1.2" width="100%" xmlns="http://www.w3.org/2000/svg" xmlns:ev="http://www.w3.org/2001/xml-events" xmlns:xlink="http://www.w3.org/1999/xlink"><defs /><line stroke="rgb(0%,0%,0%)" x1="217.6041" x2="217.6041" y1="100.5" y2="92.8471" /><line stroke="rgb(0%,0%,0%)" x1="217.6041" x2="217.6041" y1="92.8471" y2="0.5" /><line stroke="rgb(0%,0%,0%)" x1="313.7042" x2="313.7042" y1="100.5" y2="52.0437" /><line stroke="rgb(0%,0%,0%)" x1="313.7042" x2="313.7042" y1="52.0437" y2="0.5" /><line stroke="rgb(0%,0%,0%)" x1="218.9959" x2="217.6041" y1="100.5" y2="100.5" /><line stroke="rgb(0%,0%,0%)" x1="218.9959" x2="219.2606" y1="100.5" y2="100.5" /><line stroke="rgb(0%,0%,0%)" x1="219.2606" x2="236.0942" y1="100.5" y2="100.5" /><line stroke="rgb(0%,0%,0%)" x1="236.0942" x2="247.2969" y1="100.5" y2="100.5" /><line stroke="rgb(0%,0%,0%)" x1="247.2969" x2="251.3345" y1="100.5" y2="100.5" /><line stroke="rgb(0%,0%,0%)" x1="251.3345" x2="259.6505" y1="100.5" y2="100.5" /><line stroke="rgb(0%,0%,0%)" x1="259.6505" x2="265.063" y1="100.5" y2="100.5" /><line stroke="rgb(0%,0%,0%)" x1="265.063" x2="271.0379" y1="100.5" y2="100.5" /><line stroke="rgb(0%,0%,0%)" x1="271.0379" x2="275.6049" y1="100.5" y2="100.5" /><line stroke="rgb(0%,0%,0%)" x1="275.6049" x2="281.6168" y1="100.5" y2="100.5" /><line stroke="rgb(0%,0%,0%)" x1="281.6168" x2="284.807" y1="100.5" y2="100.5" /><line stroke="rgb(0%,0%,0%)" x1="284.807" x2="291.5105" y1="100.5" y2="100.5" /><line stroke="rgb(0%,0%,0%)" x1="291.5105" x2="293.5487" y1="100.5" y2="100.5" /><line stroke="rgb(0%,0%,0%)" x1="293.5487" x2="300.816" y1="100.5" y2="100.5" /><line stroke="rgb(0%,0%,0%)" x1="300.816" x2="301.9" y1="100.5" y2="100.5" /><line stroke="rgb(0%,0%,0%)" x1="301.9" x2="302.823" y1="100.5" y2="100.5" /><line stroke="rgb(0%,0%,0%)" x1="302.823" x2="309.9171" y1="100.5" y2="100.5" /><line stroke="rgb(0%,0%,0%)" x1="309.9171" x2="310.1826" y1="100.5" y2="100.5" /><line stroke="rgb(0%,0%,0%)" x1="310.1826" x2="313.7042" y1="100.5" y2="100.5" /><line stroke="rgb(0%,0%,0%)" x1="217.6041" x2="218.9959" y1="0.5" y2="0.5" /><line stroke="rgb(0%,0%,0%)" x1="218.9959" x2="219.2606" y1="0.5" y2="0.5" /><line stroke="rgb(0%,0%,0%)" x1="219.2606" x2="236.0942" y1="0.5" y2="0.5" /><line stroke="rgb(0%,0%,0%)" x1="236.0942" x2="247.2969" y1="0.5" y2="0.5" /><line stroke="rgb(0%,0%,0%)" x1="247.2969" x2="251.3345" y1="0.5" y2="0.5" /><line stroke="rgb(0%,0%,0%)" x1="251.3345" x2="259.6505" y1="0.5" y2="0.5" /><line stroke="rgb(0%,0%,0%)" x1="259.6505" x2="265.063" y1="0.5" y2="0.5" /><line stroke="rgb(0%,0%,0%)" x1="265.063" x2="271.0379" y1="0.5" y2="0.5" /><line stroke="rgb(0%,0%,0%)" x1="271.0379" x2="275.6049" y1="0.5" y2="0.5" /><line stroke="rgb(0%,0%,0%)" x1="275.6049" x2="281.6168" y1="0.5" y2="0.5" /><line stroke="rgb(0%,0%,0%)" x1="281.6168" x2="284.807" y1="0.5" y2="0.5" /><line stroke="rgb(0%,0%,0%)" x1="284.807" x2="291.5105" y1="0.5" y2="0.5" /><line stroke="rgb(0%,0%,0%)" x1="291.5105" x2="293.5487" y1="0.5" y2="0.5" /><line stroke="rgb(0%,0%,0%)" x1="293.5487" x2="300.816" y1="0.5" y2="0.5" /><line stroke="rgb(0%,0%,0%)" x1="300.816" x2="301.9" y1="0.5" y2="0.5" /><line stroke="rgb(0%,0%,0%)" x1="301.9" x2="302.823" y1="0.5" y2="0.5" /><line stroke="rgb(0%,0%,0%)" x1="302.823" x2="309.9171" y1="0.5" y2="0.5" /><line stroke="rgb(0%,0%,0%)" x1="309.9171" x2="310.1826" y1="0.5" y2="0.5" /><line stroke="rgb(0%,0%,0%)" x1="310.1826" x2="313.7042" y1="0.5" y2="0.5" /></svg>