<?xml version="1.0" encoding="utf-8" ?>
<svg baseProfile="tiny" height="100%" version="1.2" width="100%" xmlns="http://www.w3.org/2000/svg" xmlns:ev="http://www.w3.org/2001/xml-events" xmlns:xlink="http://www.w3.org/1999/xlink"><defs /><line stroke="rgb(0%,0%,0%)" x1="218.092" x2="218.092" y1="100.5" y2="3.9866" /><line stroke="rgb(0%,0%,0%)" x1="218.092" x2="218.092" y1="3.9866" y2="0.5" /><line stroke="rgb(0%,0%,0%)" x1="315.4579" x2="315.4579" y1="100.5" y2="23.5502" /><line stroke="rgb(0%,0%,0%)" x1="315.4579" x2="315.4579" y1="23.5502" y2="0.5" /><line stroke="rgb(0%,0%,0%)" x1="234.6806" x2="218.092" y1="100.5" y2="100.5" /><line stroke="rgb(0%,0%,0%)" x1="234.6806" x2="246.2231" y1="100.5" y2="100.5" /><line stroke="rgb(0%,0%,0%)" x1="246.2231" x2="250.0351" y1="100.5" y2="100.5" /><line stroke="rgb(0%,0%,0%)" x1="250.0351" x2="258.6619" y1="100.5" y2="100.5" /><line stroke="rgb(0%,0%,0%)" x1="258.6619" x2="263.8658" y1="100.5" y2="100.5" /><line stroke="rgb(0%,0%,0%)" x1="263.8658" x2="270.1268" y1="100.5" y2="100.5" /><line stroke="rgb(0%,0%,0%)" x1="270.1268" x2="274.9125" y1="100.5" y2="100.5" /><line stroke="rgb(0%,0%,0%)" x1="274.9125" x2="280.7771" y1="100.5" y2="100.5" /><line stroke="rgb(0%,0%,0%)" x1="280.7771" x2="284.1746" y1="100.5" y2="100.5" /><line stroke="rgb(0%,0%,0%)" x1="284.1746" x2="290.737" y1="100.5" y2="100.5" /><line stroke="rgb(0%,0%,0%)" x1="290.737" x2="292.9724" y1="100.5" y2="100.5" /><line stroke="rgb(0%,0%,0%)" x1="292.9724" x2="300.1044" y1="100.5" y2="100.5" /><line stroke="rgb(0%,0%,0%)" x1="300.1044" x2="301.3766" y1="100.5" y2="100.5" /><line stroke="rgb(0%,0%,0%)" x1="301.3766" x2="302.4597" y1="100.5" y2="100.5" /><line stroke="rgb(0%,0%,0%)" x1="302.4597" x2="309.444" y1="100.5" y2="100.5" /><line stroke="rgb(0%,0%,0%)" x1="309.444" x2="309.8656" y1="100.5" y2="100.5" /><line stroke="rgb(0%,0%,0%)" x1="309.8656" x2="315.4579" y1="100.5" y2="100.5" /><line stroke="rgb(0%,0%,0%)" x1="218.092" x2="234.6806" y1="0.5" y2="0.5" /><line stroke="rgb(0%,0%,0%)" x1="234.6806" x2="246.2231" y1="0.5" y2="0.5" /><line stroke="rgb(0%,0%,0%)" x1="246.2231" x2="250.0351" y1="0.5" y2="0.5" /><line stroke="rgb(0%,0%,0%)" x1="250.0351" x2="258.6619" y1="0.5" y2="0.5" /><line stroke="rgb(0%,0%,0%)" x1="258.6619" x2="263.8658" y1="0.5" y2="0.5" /><line stroke="rgb(0%,0%,0%)" x1="263.8658" x2="270.1268" y1="0.5" y2="0.5" /><line stroke="rgb(0%,0%,0%)" x1="270.1268" x2="274.9125" y1="0.5" y2="0.5" /><line stroke="rgb(0%,0%,0%)" x1="274.9125" x2="280.7771" y1="0.5" y2="0.5" /><line stroke="rgb(0%,0%,0%)" x1="280.7771" x2="284.1746" y1="0.5" y2="0.5" /><line stroke="rgb(0%,0%,0%)" x1="284.1746" x2="290.737" y1="0.5" y2="0.5" /><line stroke="rgb(0%,0%,0%)" x1="290.737" x2="292.9724" y1="0.5" y2="0.5" /><line stroke="rgb(0%,0%,0%)" x1="292.9724" x2="300.1044" y1="0.5" y2="0.5" /><line stroke="rgb(0%,0%,0%)" x1="300.1044" x2="301.3766" y1="0.5" y2="0.5" /><line stroke="rgb(0%,0%,0%)" x1="301.3766" x2="302.4597" y1="0.5" y2="0.5" /><line stroke="rgb(0%,0%,0%)" x1="302.4597" x2="309.444" y1="0.5" y2="0.5" /><line stroke="rgb(0%,0%,0%)" x1="309.444" x2="309.8656" y1="0.5" y2="0.5" /><line stroke="rgb(0%,0%,0%)" x1="309.8656" x2="315.4579" y1="0.5" y2="0.5" /></svg>