<?xml version="1.0" encoding="utf-8" ?>
<svg baseProfile="tiny" height="100%" version="1.2" width="100%" xmlns="http://www.w3.org/2000/svg" xmlns:ev="http://www.w3.org/2001/xml-events" xmlns:xlink="http://www.w3.org/1999/xlink"><defs /><line stroke="rgb(0%,0%,0%)" x1="218.6381" x2="218.6381" y1="100.5" y2="15.3873" /><line stroke="rgb(0%,0%,0%)" x1="218.6381" x2="218.6381" y1="15.3873" y2="0.5" /><line stroke="rgb(0%,0%,0%)" x1="317.2974" x2="317.2974" y1="100.5" y2="93.9778" /><line stroke="rgb(0%,0%,0%)" x1="317.2974" x2="317.2974" y1="93.9778" y2="0.5" /><line stroke="rgb(0%,0%,0%)" x1="233.2671" x2="218.6381" y1="100.5" y2="100.5" /><line stroke="rgb(0%,0%,0%)" x1="233.2671" x2="245.1492" y1="100.5" y2="100.5" /><line stroke="rgb(0%,0%,0%)" x1="245.1492" x2="248.7357" y1="100.5" y2="100.5" /><line stroke="rgb(0%,0%,0%)" x1="248.7357" x2="257.6732" y1="100.5" y2="100.5" /><line stroke="rgb(0%,0%,0%)" x1="257.6732" x2="262.6687" y1="100.5" y2="100.5" /><line stroke="rgb(0%,0%,0%)" x1="262.6687" x2="269.2158" y1="100.5" y2="100.5" /><line stroke="rgb(0%,0%,0%)" x1="269.2158" x2="274.2202" y1="100.5" y2="100.5" /><line stroke="rgb(0%,0%,0%)" x1="274.2202" x2="279.9374" y1="100.5" y2="100.5" /><line stroke="rgb(0%,0%,0%)" x1="279.9374" x2="283.5421" y1="100.5" y2="100.5" /><line stroke="rgb(0%,0%,0%)" x1="283.5421" x2="289.9635" y1="100.5" y2="100.5" /><line stroke="rgb(0%,0%,0%)" x1="289.9635" x2="292.396" y1="100.5" y2="100.5" /><line stroke="rgb(0%,0%,0%)" x1="292.396" x2="299.3929" y1="100.5" y2="100.5" /><line stroke="rgb(0%,0%,0%)" x1="299.3929" x2="300.8532" y1="100.5" y2="100.5" /><line stroke="rgb(0%,0%,0%)" x1="300.8532" x2="302.0965" y1="100.5" y2="100.5" /><line stroke="rgb(0%,0%,0%)" x1="302.0965" x2="308.9708" y1="100.5" y2="100.5" /><line stroke="rgb(0%,0%,0%)" x1="308.9708" x2="309.5486" y1="100.5" y2="100.5" /><line stroke="rgb(0%,0%,0%)" x1="309.5486" x2="316.7954" y1="100.5" y2="100.5" /><line stroke="rgb(0%,0%,0%)" x1="316.7954" x2="316.8246" y1="100.5" y2="100.5" /><line stroke="rgb(0%,0%,0%)" x1="316.8246" x2="317.2974" y1="100.5" y2="100.5" /><line stroke="rgb(0%,0%,0%)" x1="218.6381" x2="233.2671" y1="0.5" y2="0.5" /><line stroke="rgb(0%,0%,0%)" x1="233.2671" x2="245.1492" y1="0.5" y2="0.5" /><line stroke="rgb(0%,0%,0%)" x1="245.1492" x2="248.7357" y1="0.5" y2="0.5" /><line stroke="rgb(0%,0%,0%)" x1="248.7357" x2="257.6732" y1="0.5" y2="0.5" /><line stroke="rgb(0%,0%,0%)" x1="257.6732" x2="262.6687" y1="0.5" y2="0.5" /><line stroke="rgb(0%,0%,0%)" x1="262.6687" x2="269.2158" y1="0.5" y2="0.5" /><line stroke="rgb(0%,0%,0%)" x1="269.2158" x2="274.2202" y1="0.5" y2="0.5" /><line stroke="rgb(0%,0%,0%)" x1="274.2202" x2="279.9374" y1="0.5" y2="0.5" /><line stroke="rgb(0%,0%,0%)" x1="279.9374" x2="283.5421" y1="0.5" y2="0.5" /><line stroke="rgb(0%,0%,0%)" x1="283.5421" x2="289.9635" y1="0.5" y2="0.5" /><line stroke="rgb(0%,0%,0%)" x1="289.9635" x2="292.396" y1="0.5" y2="0.5" /><line stroke="rgb(0%,0%,0%)" x1="292.396" x2="299.3929" y1="0.5" y2="0.5" /><line stroke="rgb(0%,0%,0%)" x1="299.3929" x2="300.8532" y1="0.5" y2="0.5" /><line stroke="rgb(0%,0%,0%)" x1="300.8532" x2="302.0965" y1="0.5" y2="0.5" /><line stroke="rgb(0%,0%,0%)" x1="302.0965" x2="308.9708" y1="0.5" y2="0.5" /><line stroke="rgb(0%,0%,0%)" x1="308.9708" x2="309.5486" y1="0.5" y2="0.5" /><line stroke="rgb(0%,0%,0%)" x1="309.5486" x2="316.7954" y1="0.5" y2="0.5" /><line stroke="rgb(0%,0%,0%)" x1="316.7954" x2="316.8246" y1="0.5" y2="0.5" /><line stroke="rgb(0%,0%,0%)" x1="316.8246" x2="317.2974" y1="0.5" y2="0.5" /></svg>