<?xml version="1.0" encoding="utf-8" ?>
<svg baseProfile="tiny" height="100%" version="1.2" width="100%" xmlns="http://www.w3.org/2000/svg" xmlns:ev="http://www.w3.org/2001/xml-events" xmlns:xlink="http://www.w3.org/1999/xlink"><defs /><line stroke="rgb(0%,0%,0%)" x1="219.1841" x2="219.1841" y1="100.5" y2="26.7881" /><line stroke="rgb(0%,0%,0%)" x1="219.1841" x2="219.1841" y1="26.7881" y2="0.5" /><line stroke="rgb(0%,0%,0%)" x1="319.5" x2="319.5" y1="100.5" y2="59.8362" /><line stroke="rgb(0%,0%,0%)" x1="319.5" x2="319.5" y1="59.8362" y2="0.5" /><line stroke="rgb(0%,0%,0%)" x1="231.8536" x2="219.1841" y1="100.5" y2="100.5" /><line stroke="rgb(0%,0%,0%)" x1="231.8536" x2="244.0754" y1="100.5" y2="100.5" /><line stroke="rgb(0%,0%,0%)" x1="244.0754" x2="247.4363" y1="100.5" y2="100.5" /><line stroke="rgb(0%,0%,0%)" x1="247.4363" x2="256.6846" y1="100.5" y2="100.5" /><line stroke="rgb(0%,0%,0%)" x1="256.6846" x2="261.4715" y1="100.5" y2="100.5" /><line stroke="rgb(0%,0%,0%)" x1="261.4715" x2="268.3047" y1="100.5" y2="100.5" /><line stroke="rgb(0%,0%,0%)" x1="268.3047" x2="273.5278" y1="100.5" y2="100.5" /><line stroke="rgb(0%,0%,0%)" x1="273.5278" x2="279.0977" y1="100.5" y2="100.5" /><line stroke="rgb(0%,0%,0%)" x1="279.0977" x2="282.9097" y1="100.5" y2="100.5" /><line stroke="rgb(0%,0%,0%)" x1="282.9097" x2="289.19" y1="100.5" y2="100.5" /><line stroke="rgb(0%,0%,0%)" x1="289.19" x2="291.8197" y1="100.5" y2="100.5" /><line stroke="rgb(0%,0%,0%)" x1="291.8197" x2="298.6813" y1="100.5" y2="100.5" /><line stroke="rgb(0%,0%,0%)" x1="298.6813" x2="300.3298" y1="100.5" y2="100.5" /><line stroke="rgb(0%,0%,0%)" x1="300.3298" x2="301.7333" y1="100.5" y2="100.5" /><line stroke="rgb(0%,0%,0%)" x1="301.7333" x2="308.4977" y1="100.5" y2="100.5" /><line stroke="rgb(0%,0%,0%)" x1="308.4977" x2="309.2316" y1="100.5" y2="100.5" /><line stroke="rgb(0%,0%,0%)" x1="309.2316" x2="316.3704" y1="100.5" y2="100.5" /><line stroke="rgb(0%,0%,0%)" x1="316.3704" x2="316.552" y1="100.5" y2="100.5" /><line stroke="rgb(0%,0%,0%)" x1="316.552" x2="319.5" y1="100.5" y2="100.5" /><line stroke="rgb(0%,0%,0%)" x1="219.1841" x2="231.8536" y1="0.5" y2="0.5" /><line stroke="rgb(0%,0%,0%)" x1="231.8536" x2="244.0754" y1="0.5" y2="0.5" /><line stroke="rgb(0%,0%,0%)" x1="244.0754" x2="247.4363" y1="0.5" y2="0.5" /><line stroke="rgb(0%,0%,0%)" x1="247.4363" x2="256.6846" y1="0.5" y2="0.5" /><line stroke="rgb(0%,0%,0%)" x1="256.6846" x2="261.4715" y1="0.5" y2="0.5" /><line stroke="rgb(0%,0%,0%)" x1="261.4715" x2="268.3047" y1="0.5" y2="0.5" /><line stroke="rgb(0%,0%,0%)" x1="268.3047" x2="273.5278" y1="0.5" y2="0.5" /><line stroke="rgb(0%,0%,0%)" x1="273.5278" x2="279.0977" y1="0.5" y2="0.5" /><line stroke="rgb(0%,0%,0%)" x1="279.0977" x2="282.9097" y1="0.5" y2="0.5" /><line stroke="rgb(0%,0%,0%)" x1="282.9097" x2="289.19" y1="0.5" y2="0.5" /><line stroke="rgb(0%,0%,0%)" x1="289.19" x2="291.8197" y1="0.5" y2="0.5" /><line stroke="rgb(0%,0%,0%)" x1="291.8197" x2="298.6813" y1="0.5" y2="0.5" /><line stroke="rgb(0%,0%,0%)" x1="298.6813" x2="300.3298" y1="0.5" y2="0.5" /><line stroke="rgb(0%,0%,0%)" x1="300.3298" x2="301.7333" y1="0.5" y2="0.5" /><line stroke="rgb(0%,0%,0%)" x1="301.7333" x2="308.4977" y1="0.5" y2="0.5" /><line stroke="rgb(0%,0%,0%)" x1="308.4977" x2="309.2316" y1="0.5" y2="0.5" /><line stroke="rgb(0%,0%,0%)" x1="309.2316" x2="316.3704" y1="0.5" y2="0.5" /><line stroke="rgb(0%,0%,0%)" x1="316.3704" x2="316.552" y1="0.5" y2="0.5" /><line stroke="rgb(0%,0%,0%)" x1="316.552" x2="319.5" y1="0.5" y2="0.5" /></svg>