<?xml version="1.0" encoding="utf-8" ?>
<svg baseProfile="tiny" height="100%" version="1.2" width="100%" xmlns="http://www.w3.org/2000/svg" xmlns:ev="http://www.w3.org/2001/xml-events" xmlns:xlink="http://www.w3.org/1999/xlink"><defs /><line stroke="rgb(0%,0%,0%)" x1="219.7301" x2="219.7301" y1="100.5" y2="38.1888" /><line stroke="rgb(0%,0%,0%)" x1="219.7301" x2="219.7301" y1="38.1888" y2="0.5" /><line stroke="rgb(0%,0%,0%)" x1="321.7027" x2="321.7027" y1="100.5" y2="25.6946" /><line stroke="rgb(0%,0%,0%)" x1="321.7027" x2="321.7027" y1="25.6946" y2="0.5" /><line stroke="rgb(0%,0%,0%)" x1="230.44" x2="219.7301" y1="100.5" y2="100.5" /><line stroke="rgb(0%,0%,0%)" x1="230.44" x2="243.0016" y1="100.5" y2="100.5" /><line stroke="rgb(0%,0%,0%)" x1="243.0016" x2="246.1369" y1="100.5" y2="100.5" /><line stroke="rgb(0%,0%,0%)" x1="246.1369" x2="255.6959" y1="100.5" y2="100.5" /><line stroke="rgb(0%,0%,0%)" x1="255.6959" x2="260.2743" y1="100.5" y2="100.5" /><line stroke="rgb(0%,0%,0%)" x1="260.2743" x2="267.3937" y1="100.5" y2="100.5" /><line stroke="rgb(0%,0%,0%)" x1="267.3937" x2="272.8355" y1="100.5" y2="100.5" /><line stroke="rgb(0%,0%,0%)" x1="272.8355" x2="278.258" y1="100.5" y2="100.5" /><line stroke="rgb(0%,0%,0%)" x1="278.258" x2="282.2772" y1="100.5" y2="100.5" /><line stroke="rgb(0%,0%,0%)" x1="282.2772" x2="288.4165" y1="100.5" y2="100.5" /><line stroke="rgb(0%,0%,0%)" x1="288.4165" x2="291.2434" y1="100.5" y2="100.5" /><line stroke="rgb(0%,0%,0%)" x1="291.2434" x2="297.9697" y1="100.5" y2="100.5" /><line stroke="rgb(0%,0%,0%)" x1="297.9697" x2="299.8063" y1="100.5" y2="100.5" /><line stroke="rgb(0%,0%,0%)" x1="299.8063" x2="301.3701" y1="100.5" y2="100.5" /><line stroke="rgb(0%,0%,0%)" x1="301.3701" x2="308.0246" y1="100.5" y2="100.5" /><line stroke="rgb(0%,0%,0%)" x1="308.0246" x2="308.9146" y1="100.5" y2="100.5" /><line stroke="rgb(0%,0%,0%)" x1="308.9146" x2="315.9454" y1="100.5" y2="100.5" /><line stroke="rgb(0%,0%,0%)" x1="315.9454" x2="316.2795" y1="100.5" y2="100.5" /><line stroke="rgb(0%,0%,0%)" x1="316.2795" x2="321.7027" y1="100.5" y2="100.5" /><line stroke="rgb(0%,0%,0%)" x1="219.7301" x2="230.44" y1="0.5" y2="0.5" /><line stroke="rgb(0%,0%,0%)" x1="230.44" x2="243.0016" y1="0.5" y2="0.5" /><line stroke="rgb(0%,0%,0%)" x1="243.0016" x2="246.1369" y1="0.5" y2="0.5" /><line stroke="rgb(0%,0%,0%)" x1="246.1369" x2="255.6959" y1="0.5" y2="0.5" /><line stroke="rgb(0%,0%,0%)" x1="255.6959" x2="260.2743" y1="0.5" y2="0.5" /><line stroke="rgb(0%,0%,0%)" x1="260.2743" x2="267.3937" y1="0.5" y2="0.5" /><line stroke="rgb(0%,0%,0%)" x1="267.3937" x2="272.8355" y1="0.5" y2="0.5" /><line stroke="rgb(0%,0%,0%)" x1="272.8355" x2="278.258" y1="0.5" y2="0.5" /><line stroke="rgb(0%,0%,0%)" x1="278.258" x2="282.2772" y1="0.5" y2="0.5" /><line stroke="rgb(0%,0%,0%)" x1="282.2772" x2="288.4165" y1="0.5" y2="0.5" /><line stroke="rgb(0%,0%,0%)" x1="288.4165" x2="291.2434" y1="0.5" y2="0.5" /><line stroke="rgb(0%,0%,0%)" x1="291.2434" x2="297.9697" y1="0.5" y2="0.5" /><line stroke="rgb(0%,0%,0%)" x1="297.9697" x2="299.8063" y1="0.5" y2="0.5" /><line stroke="rgb(0%,0%,0%)" x1="299.8063" x2="301.3701" y1="0.5" y2="0.5" /><line stroke="rgb(0%,0%,0%)" x1="301.3701" x2="308.0246" y1="0.5" y2="0.5" /><line stroke="rgb(0%,0%,0%)" x1="308.0246" x2="308.9146" y1="0.5" y2="0.5" /><line stroke="rgb(0%,0%,0%)" x1="308.9146" x2="315.9454" y1="0.5" y2="0.5" /><line stroke="rgb(0%,0%,0%)" x1="315.9454" x2="316.2795" y1="0.5" y2="0.5" /><line stroke="rgb(0%,0%,0%)" x1="316.2795" x2="321.7027" y1="0.5" y2="0.5" /></svg>