<?xml version="1.0" encoding="utf-8" ?>
<svg baseProfile="tiny" height="100%" version="1.2" width="100%" xmlns="http://www.w3.org/2000/svg" xmlns:ev="http://www.w3.org/2001/xml-events" xmlns:xlink="http://www.w3.org/1999/xlink"><defs /><line stroke="rgb(0%,0%,0%)" x1="220.2761" x2="220.2761" y1="100.5" y2="49.5895" /><line stroke="rgb(0%,0%,0%)" x1="220.2761" x2="220.2761" y1="49.5895" y2="0.5" /><line stroke="rgb(0%,0%,0%)" x1="324.083" x2="324.083" y1="100.5" y2="89.2218" /><line stroke="rgb(0%,0%,0%)" x1="324.083" x2="324.083" y1="89.2218" y2="0.5" /><line stroke="rgb(0%,0%,0%)" x1="229.0265" x2="220.2761" y1="100.5" y2="100.5" /><line stroke="rgb(0%,0%,0%)" x1="229.0265" x2="241.9278" y1="100.5" y2="100.5" /><line stroke="rgb(0%,0%,0%)" x1="241.9278" x2="244.8375" y1="100.5" y2="100.5" /><line stroke="rgb(0%,0%,0%)" x1="244.8375" x2="254.7073" y1="100.5" y2="100.5" /><line stroke="rgb(0%,0%,0%)" x1="254.7073" x2="259.0771" y1="100.5" y2="100.5" /><line stroke="rgb(0%,0%,0%)" x1="259.0771" x2="266.4826" y1="100.5" y2="100.5" /><line stroke="rgb(0%,0%,0%)" x1="266.4826" x2="272.1431" y1="100.5" y2="100.5" /><line stroke="rgb(0%,0%,0%)" x1="272.1431" x2="277.4183" y1="100.5" y2="100.5" /><line stroke="rgb(0%,0%,0%)" x1="277.4183" x2="281.6448" y1="100.5" y2="100.5" /><line stroke="rgb(0%,0%,0%)" x1="281.6448" x2="287.643" y1="100.5" y2="100.5" /><line stroke="rgb(0%,0%,0%)" x1="287.643" x2="290.667" y1="100.5" y2="100.5" /><line stroke="rgb(0%,0%,0%)" x1="290.667" x2="297.2581" y1="100.5" y2="100.5" /><line stroke="rgb(0%,0%,0%)" x1="297.2581" x2="299.2829" y1="100.5" y2="100.5" /><line stroke="rgb(0%,0%,0%)" x1="299.2829" x2="301.0069" y1="100.5" y2="100.5" /><line stroke="rgb(0%,0%,0%)" x1="301.0069" x2="307.5514" y1="100.5" y2="100.5" /><line stroke="rgb(0%,0%,0%)" x1="307.5514" x2="308.5976" y1="100.5" y2="100.5" /><line stroke="rgb(0%,0%,0%)" x1="308.5976" x2="315.5203" y1="100.5" y2="100.5" /><line stroke="rgb(0%,0%,0%)" x1="315.5203" x2="316.007" y1="100.5" y2="100.5" /><line stroke="rgb(0%,0%,0%)" x1="316.007" x2="323.2288" y1="100.5" y2="100.5" /><line stroke="rgb(0%,0%,0%)" x1="323.2288" x2="323.2679" y1="100.5" y2="100.5" /><line stroke="rgb(0%,0%,0%)" x1="323.2679" x2="324.083" y1="100.5" y2="100.5" /><line stroke="rgb(0%,0%,0%)" x1="220.2761" x2="229.0265" y1="0.5" y2="0.5" /><line stroke="rgb(0%,0%,0%)" x1="229.0265" x2="241.9278" y1="0.5" y2="0.5" /><line stroke="rgb(0%,0%,0%)" x1="241.9278" x2="244.8375" y1="0.5" y2="0.5" /><line stroke="rgb(0%,0%,0%)" x1="244.8375" x2="254.7073" y1="0.5" y2="0.5" /><line stroke="rgb(0%,0%,0%)" x1="254.7073" x2="259.0771" y1="0.5" y2="0.5" /><line stroke="rgb(0%,0%,0%)" x1="259.0771" x2="266.4826" y1="0.5" y2="0.5" /><line stroke="rgb(0%,0%,0%)" x1="266.4826" x2="272.1431" y1="0.5" y2="0.5" /><line stroke="rgb(0%,0%,0%)" x1="272.1431" x2="277.4183" y1="0.5" y2="0.5" /><line stroke="rgb(0%,0%,0%)" x1="277.4183" x2="281.6448" y1="0.5" y2="0.5" /><line stroke="rgb(0%,0%,0%)" x1="281.6448" x2="287.643" y1="0.5" y2="0.5" /><line stroke="rgb(0%,0%,0%)" x1="287.643" x2="290.667" y1="0.5" y2="0.5" /><line stroke="rgb(0%,0%,0%)" x1="290.667" x2="297.2581" y1="0.5" y2="0.5" /><line stroke="rgb(0%,0%,0%)" x1="297.2581" x2="299.2829" y1="0.5" y2="0.5" /><line stroke="rgb(0%,0%,0%)" x1="299.2829" x2="301.0069" y1="0.5" y2="0.5" /><line stroke="rgb(0%,0%,0%)" x1="301.0069" x2="307.5514" y1="0.5" y2="0.5" /><line stroke="rgb(0%,0%,0%)" x1="307.5514" x2="308.5976" y1="0.5" y2="0.5" /><line stroke="rgb(0%,0%,0%)" x1="308.5976" x2="315.5203" y1="0.5" y2="0.5" /><line stroke="rgb(0%,0%,0%)" x1="315.5203" x2="316.007" y1="0.5" y2="0.5" /><line stroke="rgb(0%,0%,0%)" x1="316.007" x2="323.2288" y1="0.5" y2="0.5" /><line stroke="rgb(0%,0%,0%)" x1="323.2288" x2="323.2679" y1="0.5" y2="0.5" /><line stroke="rgb(0%,0%,0%)" x1="323.2679" x2="324.083" y1="0.5" y2="0.5" /></svg>