<?xml version="1.0" encoding="utf-8" ?>
<svg baseProfile="tiny" height="100%" version="1.2" width="100%" xmlns="http://www.w3.org/2000/svg" xmlns:ev="http://www.w3.org/2001/xml-events" xmlns:xlink="http://www.w3.org/1999/xlink"><defs /><line stroke="rgb(0%,0%,0%)" x1="220.8221" x2="220.8221" y1="100.5" y2="60.9903" /><line stroke="rgb(0%,0%,0%)" x1="220.8221" x2="220.8221" y1="60.9903" y2="0.5" /><line stroke="rgb(0%,0%,0%)" x1="326.9636" x2="326.9636" y1="100.5" y2="46.1847" /><line stroke="rgb(0%,0%,0%)" x1="326.9636" x2="326.9636" y1="46.1847" y2="0.5" /><line stroke="rgb(0%,0%,0%)" x1="227.613" x2="220.8221" y1="100.5" y2="100.5" /><line stroke="rgb(0%,0%,0%)" x1="227.613" x2="240.854" y1="100.5" y2="100.5" /><line stroke="rgb(0%,0%,0%)" x1="240.854" x2="243.5381" y1="100.5" y2="100.5" /><line stroke="rgb(0%,0%,0%)" x1="243.5381" x2="253.7186" y1="100.5" y2="100.5" /><line stroke="rgb(0%,0%,0%)" x1="253.7186" x2="257.8799" y1="100.5" y2="100.5" /><line stroke="rgb(0%,0%,0%)" x1="257.8799" x2="265.5716" y1="100.5" y2="100.5" /><line stroke="rgb(0%,0%,0%)" x1="265.5716" x2="271.4507" y1="100.5" y2="100.5" /><line stroke="rgb(0%,0%,0%)" x1="271.4507" x2="276.5786" y1="100.5" y2="100.5" /><line stroke="rgb(0%,0%,0%)" x1="276.5786" x2="281.0123" y1="100.5" y2="100.5" /><line stroke="rgb(0%,0%,0%)" x1="281.0123" x2="286.8695" y1="100.5" y2="100.5" /><line stroke="rgb(0%,0%,0%)" x1="286.8695" x2="290.0907" y1="100.5" y2="100.5" /><line stroke="rgb(0%,0%,0%)" x1="290.0907" x2="296.5465" y1="100.5" y2="100.5" /><line stroke="rgb(0%,0%,0%)" x1="296.5465" x2="298.7595" y1="100.5" y2="100.5" /><line stroke="rgb(0%,0%,0%)" x1="298.7595" x2="300.6437" y1="100.5" y2="100.5" /><line stroke="rgb(0%,0%,0%)" x1="300.6437" x2="307.0783" y1="100.5" y2="100.5" /><line stroke="rgb(0%,0%,0%)" x1="307.0783" x2="308.2806" y1="100.5" y2="100.5" /><line stroke="rgb(0%,0%,0%)" x1="308.2806" x2="315.0953" y1="100.5" y2="100.5" /><line stroke="rgb(0%,0%,0%)" x1="315.0953" x2="315.7345" y1="100.5" y2="100.5" /><line stroke="rgb(0%,0%,0%)" x1="315.7345" x2="322.8501" y1="100.5" y2="100.5" /><line stroke="rgb(0%,0%,0%)" x1="322.8501" x2="323.0384" y1="100.5" y2="100.5" /><line stroke="rgb(0%,0%,0%)" x1="323.0384" x2="326.9636" y1="100.5" y2="100.5" /><line stroke="rgb(0%,0%,0%)" x1="220.8221" x2="227.613" y1="0.5" y2="0.5" /><line stroke="rgb(0%,0%,0%)" x1="227.613" x2="240.854" y1="0.5" y2="0.5" /><line stroke="rgb(0%,0%,0%)" x1="240.854" x2="243.5381" y1="0.5" y2="0.5" /><line stroke="rgb(0%,0%,0%)" x1="243.5381" x2="253.7186" y1="0.5" y2="0.5" /><line stroke="rgb(0%,0%,0%)" x1="253.7186" x2="257.8799" y1="0.5" y2="0.5" /><line stroke="rgb(0%,0%,0%)" x1="257.8799" x2="265.5716" y1="0.5" y2="0.5" /><line stroke="rgb(0%,0%,0%)" x1="265.5716" x2="271.4507" y1="0.5" y2="0.5" /><line stroke="rgb(0%,0%,0%)" x1="271.4507" x2="276.5786" y1="0.5" y2="0.5" /><line stroke="rgb(0%,0%,0%)" x1="276.5786" x2="281.0123" y1="0.5" y2="0.5" /><line stroke="rgb(0%,0%,0%)" x1="281.0123" x2="286.8695" y1="0.5" y2="0.5" /><line stroke="rgb(0%,0%,0%)" x1="286.8695" x2="290.0907" y1="0.5" y2="0.5" /><line stroke="rgb(0%,0%,0%)" x1="290.0907" x2="296.5465" y1="0.5" y2="0.5" /><line stroke="rgb(0%,0%,0%)" x1="296.5465" x2="298.7595" y1="0.5" y2="0.5" /><line stroke="rgb(0%,0%,0%)" x1="298.7595" x2="300.6437" y1="0.5" y2="0.5" /><line stroke="rgb(0%,0%,0%)" x1="300.6437" x2="307.0783" y1="0.5" y2="0.5" /><line stroke="rgb(0%,0%,0%)" x1="307.0783" x2="308.2806" y1="0.5" y2="0.5" /><line stroke="rgb(0%,0%,0%)" x1="308.2806" x2="315.0953" y1="0.5" y2="0.5" /><line stroke="rgb(0%,0%,0%)" x1="315.0953" x2="315.7345" y1="0.5" y2="0.5" /><line stroke="rgb(0%,0%,0%)" x1="315.7345" x2="322.8501" y1="0.5" y2="0.5" /><line stroke="rgb(0%,0%,0%)" x1="322.8501" x2="323.0384" y1="0.5" y2="0.5" /><line stroke="rgb(0%,0%,0%)" x1="323.0384" x2="326.9636" y1="0.5" y2="0.5" /></svg>