<?xml version="1.0" encoding="utf-8" ?>
<svg baseProfile="tiny" height="100%" version="1.2" width="100%" xmlns="http://www.w3.org/2000/svg" xmlns:ev="http://www.w3.org/2001/xml-events" xmlns:xlink="http://www.w3.org/1999/xlink"><defs /><line stroke="rgb(0%,0%,0%)" x1="221.3681" x2="221.3681" y1="100.5" y2="72.391" /><line stroke="rgb(0%,0%,0%)" x1="221.3681" x2="221.3681" y1="72.391" y2="0.5" /><line stroke="rgb(0%,0%,0%)" x1="329.8442" x2="329.8442" y1="100.5" y2="3.1475" /><line stroke="rgb(0%,0%,0%)" x1="329.8442" x2="329.8442" y1="3.1475" y2="0.5" /><line stroke="rgb(0%,0%,0%)" x1="226.1995" x2="221.3681" y1="100.5" y2="100.5" /><line stroke="rgb(0%,0%,0%)" x1="226.1995" x2="239.7801" y1="100.5" y2="100.5" /><line stroke="rgb(0%,0%,0%)" x1="239.7801" x2="242.2387" y1="100.5" y2="100.5" /><line stroke="rgb(0%,0%,0%)" x1="242.2387" x2="252.73" y1="100.5" y2="100.5" /><line stroke="rgb(0%,0%,0%)" x1="252.73" x2="256.6828" y1="100.5" y2="100.5" /><line stroke="rgb(0%,0%,0%)" x1="256.6828" x2="264.6605" y1="100.5" y2="100.5" /><line stroke="rgb(0%,0%,0%)" x1="264.6605" x2="270.7584" y1="100.5" y2="100.5" /><line stroke="rgb(0%,0%,0%)" x1="270.7584" x2="275.7389" y1="100.5" y2="100.5" /><line stroke="rgb(0%,0%,0%)" x1="275.7389" x2="280.3799" y1="100.5" y2="100.5" /><line stroke="rgb(0%,0%,0%)" x1="280.3799" x2="286.096" y1="100.5" y2="100.5" /><line stroke="rgb(0%,0%,0%)" x1="286.096" x2="289.5143" y1="100.5" y2="100.5" /><line stroke="rgb(0%,0%,0%)" x1="289.5143" x2="295.835" y1="100.5" y2="100.5" /><line stroke="rgb(0%,0%,0%)" x1="295.835" x2="298.2361" y1="100.5" y2="100.5" /><line stroke="rgb(0%,0%,0%)" x1="298.2361" x2="300.2804" y1="100.5" y2="100.5" /><line stroke="rgb(0%,0%,0%)" x1="300.2804" x2="306.6052" y1="100.5" y2="100.5" /><line stroke="rgb(0%,0%,0%)" x1="306.6052" x2="307.9636" y1="100.5" y2="100.5" /><line stroke="rgb(0%,0%,0%)" x1="307.9636" x2="314.6703" y1="100.5" y2="100.5" /><line stroke="rgb(0%,0%,0%)" x1="314.6703" x2="315.4619" y1="100.5" y2="100.5" /><line stroke="rgb(0%,0%,0%)" x1="315.4619" x2="322.4714" y1="100.5" y2="100.5" /><line stroke="rgb(0%,0%,0%)" x1="322.4714" x2="322.809" y1="100.5" y2="100.5" /><line stroke="rgb(0%,0%,0%)" x1="322.809" x2="329.8442" y1="100.5" y2="100.5" /><line stroke="rgb(0%,0%,0%)" x1="221.3681" x2="226.1995" y1="0.5" y2="0.5" /><line stroke="rgb(0%,0%,0%)" x1="226.1995" x2="239.7801" y1="0.5" y2="0.5" /><line stroke="rgb(0%,0%,0%)" x1="239.7801" x2="242.2387" y1="0.5" y2="0.5" /><line stroke="rgb(0%,0%,0%)" x1="242.2387" x2="252.73" y1="0.5" y2="0.5" /><line stroke="rgb(0%,0%,0%)" x1="252.73" x2="256.6828" y1="0.5" y2="0.5" /><line stroke="rgb(0%,0%,0%)" x1="256.6828" x2="264.6605" y1="0.5" y2="0.5" /><line stroke="rgb(0%,0%,0%)" x1="264.6605" x2="270.7584" y1="0.5" y2="0.5" /><line stroke="rgb(0%,0%,0%)" x1="270.7584" x2="275.7389" y1="0.5" y2="0.5" /><line stroke="rgb(0%,0%,0%)" x1="275.7389" x2="280.3799" y1="0.5" y2="0.5" /><line stroke="rgb(0%,0%,0%)" x1="280.3799" x2="286.096" y1="0.5" y2="0.5" /><line stroke="rgb(0%,0%,0%)" x1="286.096" x2="289.5143" y1="0.5" y2="0.5" /><line stroke="rgb(0%,0%,0%)" x1="289.5143" x2="295.835" y1="0.5" y2="0.5" /><line stroke="rgb(0%,0%,0%)" x1="295.835" x2="298.2361" y1="0.5" y2="0.5" /><line stroke="rgb(0%,0%,0%)" x1="298.2361" x2="300.2804" y1="0.5" y2="0.5" /><line stroke="rgb(0%,0%,0%)" x1="300.2804" x2="306.6052" y1="0.5" y2="0.5" /><line stroke="rgb(0%,0%,0%)" x1="306.6052" x2="307.9636" y1="0.5" y2="0.5" /><line stroke="rgb(0%,0%,0%)" x1="307.9636" x2="314.6703" y1="0.5" y2="0.5" /><line stroke="rgb(0%,0%,0%)" x1="314.6703" x2="315.4619" y1="0.5" y2="0.5" /><line stroke="rgb(0%,0%,0%)" x1="315.4619" x2="322.4714" y1="0.5" y2="0.5" /><line stroke="rgb(0%,0%,0%)" x1="322.4714" x2="322.809" y1="0.5" y2="0.5" /><line stroke="rgb(0%,0%,0%)" x1="322.809" x2="329.8442" y1="0.5" y2="0.5" /></svg>