<?xml version="1.0" encoding="utf-8" ?>
<svg baseProfile="tiny" height="100%" version="1.2" width="100%" xmlns="http://www.w3.org/2000/svg" xmlns:ev="http://www.w3.org/2001/xml-events" xmlns:xlink="http://www.w3.org/1999/xlink"><defs /><line stroke="rgb(0%,0%,0%)" x1="221.9141" x2="221.9141" y1="100.5" y2="83.7917" /><line stroke="rgb(0%,0%,0%)" x1="221.9141" x2="221.9141" y1="83.7917" y2="0.5" /><line stroke="rgb(0%,0%,0%)" x1="333.8221" x2="333.8221" y1="100.5" y2="45.2464" /><line stroke="rgb(0%,0%,0%)" x1="333.8221" x2="333.8221" y1="45.2464" y2="0.5" /><line stroke="rgb(0%,0%,0%)" x1="224.7859" x2="221.9141" y1="100.5" y2="100.5" /><line stroke="rgb(0%,0%,0%)" x1="224.7859" x2="238.7063" y1="100.5" y2="100.5" /><line stroke="rgb(0%,0%,0%)" x1="238.7063" x2="240.9393" y1="100.5" y2="100.5" /><line stroke="rgb(0%,0%,0%)" x1="240.9393" x2="251.7413" y1="100.5" y2="100.5" /><line stroke="rgb(0%,0%,0%)" x1="251.7413" x2="255.4856" y1="100.5" y2="100.5" /><line stroke="rgb(0%,0%,0%)" x1="255.4856" x2="263.7494" y1="100.5" y2="100.5" /><line stroke="rgb(0%,0%,0%)" x1="263.7494" x2="270.066" y1="100.5" y2="100.5" /><line stroke="rgb(0%,0%,0%)" x1="270.066" x2="274.8992" y1="100.5" y2="100.5" /><line stroke="rgb(0%,0%,0%)" x1="274.8992" x2="279.7474" y1="100.5" y2="100.5" /><line stroke="rgb(0%,0%,0%)" x1="279.7474" x2="285.3225" y1="100.5" y2="100.5" /><line stroke="rgb(0%,0%,0%)" x1="285.3225" x2="288.938" y1="100.5" y2="100.5" /><line stroke="rgb(0%,0%,0%)" x1="288.938" x2="295.1234" y1="100.5" y2="100.5" /><line stroke="rgb(0%,0%,0%)" x1="295.1234" x2="297.7127" y1="100.5" y2="100.5" /><line stroke="rgb(0%,0%,0%)" x1="297.7127" x2="299.9172" y1="100.5" y2="100.5" /><line stroke="rgb(0%,0%,0%)" x1="299.9172" x2="306.132" y1="100.5" y2="100.5" /><line stroke="rgb(0%,0%,0%)" x1="306.132" x2="307.6466" y1="100.5" y2="100.5" /><line stroke="rgb(0%,0%,0%)" x1="307.6466" x2="314.2452" y1="100.5" y2="100.5" /><line stroke="rgb(0%,0%,0%)" x1="314.2452" x2="315.1894" y1="100.5" y2="100.5" /><line stroke="rgb(0%,0%,0%)" x1="315.1894" x2="322.0927" y1="100.5" y2="100.5" /><line stroke="rgb(0%,0%,0%)" x1="322.0927" x2="322.5795" y1="100.5" y2="100.5" /><line stroke="rgb(0%,0%,0%)" x1="322.5795" x2="329.7081" y1="100.5" y2="100.5" /><line stroke="rgb(0%,0%,0%)" x1="329.7081" x2="333.8221" y1="100.5" y2="100.5" /><line stroke="rgb(0%,0%,0%)" x1="221.9141" x2="224.7859" y1="0.5" y2="0.5" /><line stroke="rgb(0%,0%,0%)" x1="224.7859" x2="238.7063" y1="0.5" y2="0.5" /><line stroke="rgb(0%,0%,0%)" x1="238.7063" x2="240.9393" y1="0.5" y2="0.5" /><line stroke="rgb(0%,0%,0%)" x1="240.9393" x2="251.7413" y1="0.5" y2="0.5" /><line stroke="rgb(0%,0%,0%)" x1="251.7413" x2="255.4856" y1="0.5" y2="0.5" /><line stroke="rgb(0%,0%,0%)" x1="255.4856" x2="263.7494" y1="0.5" y2="0.5" /><line stroke="rgb(0%,0%,0%)" x1="263.7494" x2="270.066" y1="0.5" y2="0.5" /><line stroke="rgb(0%,0%,0%)" x1="270.066" x2="274.8992" y1="0.5" y2="0.5" /><line stroke="rgb(0%,0%,0%)" x1="274.8992" x2="279.7474" y1="0.5" y2="0.5" /><line stroke="rgb(0%,0%,0%)" x1="279.7474" x2="285.3225" y1="0.5" y2="0.5" /><line stroke="rgb(0%,0%,0%)" x1="285.3225" x2="288.938" y1="0.5" y2="0.5" /><line stroke="rgb(0%,0%,0%)" x1="288.938" x2="295.1234" y1="0.5" y2="0.5" /><line stroke="rgb(0%,0%,0%)" x1="295.1234" x2="297.7127" y1="0.5" y2="0.5" /><line stroke="rgb(0%,0%,0%)" x1="297.7127" x2="299.9172" y1="0.5" y2="0.5" /><line stroke="rgb(0%,0%,0%)" x1="299.9172" x2="306.132" y1="0.5" y2="0.5" /><line stroke="rgb(0%,0%,0%)" x1="306.132" x2="307.6466" y1="0.5" y2="0.5" /><line stroke="rgb(0%,0%,0%)" x1="307.6466" x2="314.2452" y1="0.5" y2="0.5" /><line stroke="rgb(0%,0%,0%)" x1="314.2452" x2="315.1894" y1="0.5" y2="0.5" /><line stroke="rgb(0%,0%,0%)" x1="315.1894" x2="322.0927" y1="0.5" y2="0.5" /><line stroke="rgb(0%,0%,0%)" x1="322.0927" x2="322.5795" y1="0.5" y2="0.5" /><line stroke="rgb(0%,0%,0%)" x1="322.5795" x2="329.7081" y1="0.5" y2="0.5" /><line stroke="rgb(0%,0%,0%)" x1="329.7081" x2="333.8221" y1="0.5" y2="0.5" /></svg>