<?xml version="1.0" encoding="utf-8" ?>
<svg baseProfile="tiny" height="100%" version="1.2" width="100%" xmlns="http://www.w3.org/2000/svg" xmlns:ev="http://www.w3.org/2001/xml-events" xmlns:xlink="http://www.w3.org/1999/xlink"><defs /><line stroke="rgb(0%,0%,0%)" x1="222.4602" x2="222.4602" y1="100.5" y2="95.1924" /><line stroke="rgb(0%,0%,0%)" x1="222.4602" x2="222.4602" y1="95.1924" y2="0.5" /><line stroke="rgb(0%,0%,0%)" x1="336.9" x2="336.9" y1="0.5893" y2="0.5" /><line stroke="rgb(0%,0%,0%)" x1="336.9" x2="336.9" y1="100.3599" y2="0.6401" /><line stroke="rgb(0%,0%,0%)" x1="336.9" x2="336.9" y1="0.6401" y2="0.6309" /><line stroke="rgb(0%,0%,0%)" x1="336.9" x2="336.9" y1="0.6309" y2="0.6212" /><line stroke="rgb(0%,0%,0%)" x1="336.9" x2="336.9" y1="100.5" y2="100.4107" /><line stroke="rgb(0%,0%,0%)" x1="336.9" x2="336.9" y1="100.4107" y2="100.4046" /><line stroke="rgb(0%,0%,0%)" x1="336.9" x2="336.9" y1="100.4046" y2="100.3971" /><line stroke="rgb(0%,0%,0%)" x1="336.9" x2="336.9" y1="0.6212" y2="0.6117" /><line stroke="rgb(0%,0%,0%)" x1="336.9" x2="336.9" y1="0.6117" y2="0.6029" /><line stroke="rgb(0%,0%,0%)" x1="336.9" x2="336.9" y1="0.6029" y2="0.5954" /><line stroke="rgb(0%,0%,0%)" x1="336.9" x2="336.9" y1="0.5954" y2="0.5893" /><line stroke="rgb(0%,0%,0%)" x1="336.9" x2="336.9" y1="100.3971" y2="100.3883" /><line stroke="rgb(0%,0%,0%)" x1="336.9" x2="336.9" y1="100.3883" y2="100.3788" /><line stroke="rgb(0%,0%,0%)" x1="336.9" x2="336.9" y1="100.3788" y2="100.3691" /><line stroke="rgb(0%,0%,0%)" x1="336.9" x2="336.9" y1="100.3691" y2="100.3599" /><line stroke="rgb(0%,0%,0%)" x1="223.3724" x2="222.4602" y1="100.5" y2="100.5" /><line stroke="rgb(0%,0%,0%)" x1="223.3724" x2="237.6325" y1="100.5" y2="100.5" /><line stroke="rgb(0%,0%,0%)" x1="237.6325" x2="239.6399" y1="100.5" y2="100.5" /><line stroke="rgb(0%,0%,0%)" x1="239.6399" x2="250.7527" y1="100.5" y2="100.5" /><line stroke="rgb(0%,0%,0%)" x1="250.7527" x2="254.2884" y1="100.5" y2="100.5" /><line stroke="rgb(0%,0%,0%)" x1="254.2884" x2="262.8384" y1="100.5" y2="100.5" /><line stroke="rgb(0%,0%,0%)" x1="262.8384" x2="269.3737" y1="100.5" y2="100.5" /><line stroke="rgb(0%,0%,0%)" x1="269.3737" x2="274.0595" y1="100.5" y2="100.5" /><line stroke="rgb(0%,0%,0%)" x1="274.0595" x2="279.115" y1="100.5" y2="100.5" /><line stroke="rgb(0%,0%,0%)" x1="279.115" x2="284.5489" y1="100.5" y2="100.5" /><line stroke="rgb(0%,0%,0%)" x1="284.5489" x2="288.3616" y1="100.5" y2="100.5" /><line stroke="rgb(0%,0%,0%)" x1="288.3616" x2="294.4118" y1="100.5" y2="100.5" /><line stroke="rgb(0%,0%,0%)" x1="294.4118" x2="297.1892" y1="100.5" y2="100.5" /><line stroke="rgb(0%,0%,0%)" x1="297.1892" x2="299.554" y1="100.5" y2="100.5" /><line stroke="rgb(0%,0%,0%)" x1="299.554" x2="305.6589" y1="100.5" y2="100.5" /><line stroke="rgb(0%,0%,0%)" x1="305.6589" x2="307.3296" y1="100.5" y2="100.5" /><line stroke="rgb(0%,0%,0%)" x1="307.3296" x2="313.8202" y1="100.5" y2="100.5" /><line stroke="rgb(0%,0%,0%)" x1="313.8202" x2="314.9169" y1="100.5" y2="100.5" /><line stroke="rgb(0%,0%,0%)" x1="314.9169" x2="321.714" y1="100.5" y2="100.5" /><line stroke="rgb(0%,0%,0%)" x1="321.714" x2="322.35" y1="100.5" y2="100.5" /><line stroke="rgb(0%,0%,0%)" x1="322.35" x2="329.3743" y1="100.5" y2="100.5" /><line stroke="rgb(0%,0%,0%)" x1="329.3743" x2="336.7934" y1="100.5" y2="100.5" /><line stroke="rgb(0%,0%,0%)" x1="336.7934" x2="336.9" y1="100.5" y2="100.5" /><line stroke="rgb(0%,0%,0%)" x1="222.4602" x2="223.3724" y1="0.5" y2="0.5" /><line stroke="rgb(0%,0%,0%)" x1="223.3724" x2="237.6325" y1="0.5" y2="0.5" /><line stroke="rgb(0%,0%,0%)" x1="237.6325" x2="239.6399" y1="0.5" y2="0.5" /><line stroke="rgb(0%,0%,0%)" x1="239.6399" x2="250.7527" y1="0.5" y2="0.5" /><line stroke="rgb(0%,0%,0%)" x1="250.7527" x2="254.2884" y1="0.5" y2="0.5" /><line stroke="rgb(0%,0%,0%)" x1="254.2884" x2="262.8384" y1="0.5" y2="0.5" /><line stroke="rgb(0%,0%,0%)" x1="262.8384" x2="269.3737" y1="0.5" y2="0.5" /><line stroke="rgb(0%,0%,0%)" x1="269.3737" x2="274.0595" y1="0.5" y2="0.5" /><line stroke="rgb(0%,0%,0%)" x1="274.0595" x2="279.115" y1="0.5" y2="0.5" /><line stroke="rgb(0%,0%,0%)" x1="279.115" x2="284.5489" y1="0.5" y2="0.5" /><line stroke="rgb(0%,0%,0%)" x1="284.5489" x2="288.3616" y1="0.5" y2="0.5" /><line stroke="rgb(0%,0%,0%)" x1="288.3616" x2="294.4118" y1="0.5" y2="0.5" /><line stroke="rgb(0%,0%,0%)" x1="294.4118" x2="297.1892" y1="0.5" y2="0.5" /><line stroke="rgb(0%,0%,0%)" x1="297.1892" x2="299.554" y1="0.5" y2="0.5" /><line stroke="rgb(0%,0%,0%)" x1="299.554" x2="305.6589" y1="0.5" y2="0.5" /><line stroke="rgb(0%,0%,0%)" x1="305.6589" x2="307.3296" y1="0.5" y2="0.5" /><line stroke="rgb(0%,0%,0%)" x1="307.3296" x2="313.8202" y1="0.5" y2="0.5" /><line stroke="rgb(0%,0%,0%)" x1="313.8202" x2="314.9169" y1="0.5" y2="0.5" /><line stroke="rgb(0%,0%,0%)" x1="314.9169" x2="321.714" y1="0.5" y2="0.5" /><line stroke="rgb(0%,0%,0%)" x1="321.714" x2="322.35" y1="0.5" y2="0.5" /><line stroke="rgb(0%,0%,0%)" x1="322.35" x2="329.3743" y1="0.5" y2="0.5" /><line stroke="rgb(0%,0%,0%)" x1="329.3743" x2="336.7934" y1="0.5" y2="0.5" /><line stroke="rgb(0%,0%,0%)" x1="336.9" x2="336.7934" y1="0.5" y2="0.5" /></svg>