<?xml version="1.0" encoding="utf-8" ?>
<svg baseProfile="tiny" height="100%" version="1.2" width="100%" xmlns="http://www.w3.org/2000/svg" xmlns:ev="http://www.w3.org/2001/xml-events" xmlns:xlink="http://www.w3.org/1999/xlink"><defs /><line stroke="rgb(0%,0%,0%)" x1="351.9" x2="351.9" y1="0.5" y2="23.3971" /><line stroke="rgb(0%,0%,0%)" x1="351.9" x2="351.9" y1="23.3971" y2="100.5" /><line stroke="rgb(0%,0%,0%)" x1="312.1354" x2="343.4828" y1="100.5" y2="100.5" /><line stroke="rgb(0%,0%,0%)" x1="343.4828" x2="344.5761" y1="100.5" y2="100.5" /><line stroke="rgb(0%,0%,0%)" x1="344.5761" x2="345.825" y1="100.5" y2="100.5" /><line stroke="rgb(0%,0%,0%)" x1="345.825" x2="347.2112" y1="100.5" y2="100.5" /><line stroke="rgb(0%,0%,0%)" x1="347.2112" x2="348.7084" y1="100.5" y2="100.5" /><line stroke="rgb(0%,0%,0%)" x1="348.7084" x2="350.284" y1="100.5" y2="100.5" /><line stroke="rgb(0%,0%,0%)" x1="350.284" x2="351.9" y1="100.5" y2="100.5" /><line stroke="rgb(0%,0%,0%)" x1="312.1354" x2="53.8237" y1="100.5" y2="100.5" /><line stroke="rgb(0%,0%,0%)" x1="53.8237" x2="0.5" y1="100.5" y2="100.5" /><line stroke="rgb(0%,0%,0%)" x1="0.5" x2="53.8237" y1="0.5" y2="0.5" /><line stroke="rgb(0%,0%,0%)" x1="53.8237" x2="312.1354" y1="0.5" y2="0.5" /><line stroke="rgb(0%,0%,0%)" x1="312.1354" x2="343.4828" y1="0.5" y2="0.5" /><line stroke="rgb(0%,0%,0%)" x1="343.4828" x2="344.5761" y1="0.5" y2="0.5" /><line stroke="rgb(0%,0%,0%)" x1="344.5761" x2="345.825" y1="0.5" y2="0.5" /><line stroke="rgb(0%,0%,0%)" x1="345.825" x2="347.2112" y1="0.5" y2="0.5" /><line stroke="rgb(0%,0%,0%)" x1="347.2112" x2="348.7084" y1="0.5" y2="0.5" /><line stroke="rgb(0%,0%,0%)" x1="348.7084" x2="350.284" y1="0.5" y2="0.5" /><line stroke="rgb(0%,0%,0%)" x1="350.284" x2="351.9" y1="0.5" y2="0.5" /><line stroke="rgb(0%,0%,0%)" x1="0.5" x2="0.5" y1="0.5" y2="74.0093" /><line stroke="rgb(0%,0%,0%)" x1="0.5" x2="0.5" y1="74.0093" y2="100.5" /><line stroke="rgb(0%,0%,0%)" x1="165.1722" x2="165.3263" y1="47.3813" y2="48.8477" /><line stroke="rgb(0%,0%,0%)" x1="165.3263" x2="165.5" y1="48.8477" y2="50.5" /><line stroke="rgb(0%,0%,0%)" x1="165.5" x2="165.3459" y1="50.5" y2="51.9664" /><line stroke="rgb(0%,0%,0%)" x1="165.3459" x2="165.1722" y1="51.9664" y2="53.6187" /><line stroke="rgb(0%,0%,0%)" x1="165.1722" x2="164.7166" y1="53.6187" y2="55.0209" /><line stroke="rgb(0%,0%,0%)" x1="164.7166" x2="164.2032" y1="55.0209" y2="56.6011" /><line stroke="rgb(0%,0%,0%)" x1="164.2032" x2="163.466" y1="56.6011" y2="57.878" /><line stroke="rgb(0%,0%,0%)" x1="163.466" x2="162.6353" y1="57.878" y2="59.3168" /><line stroke="rgb(0%,0%,0%)" x1="162.6353" x2="161.6487" y1="59.3168" y2="60.4125" /><line stroke="rgb(0%,0%,0%)" x1="161.6487" x2="160.537" y1="60.4125" y2="61.6472" /><line stroke="rgb(0%,0%,0%)" x1="160.537" x2="159.3441" y1="61.6472" y2="62.5138" /><line stroke="rgb(0%,0%,0%)" x1="159.3441" x2="158.0" y1="62.5138" y2="63.4904" /><line stroke="rgb(0%,0%,0%)" x1="158.0" x2="156.653" y1="63.4904" y2="64.0901" /><line stroke="rgb(0%,0%,0%)" x1="156.653" x2="155.1353" y1="64.0901" y2="64.7658" /><line stroke="rgb(0%,0%,0%)" x1="155.1353" x2="153.693" y1="64.7658" y2="65.0724" /><line stroke="rgb(0%,0%,0%)" x1="153.693" x2="152.0679" y1="65.0724" y2="65.4178" /><line stroke="rgb(0%,0%,0%)" x1="152.0679" x2="150.5935" y1="65.4178" y2="65.4178" /><line stroke="rgb(0%,0%,0%)" x1="150.5935" x2="148.9321" y1="65.4178" y2="65.4178" /><line stroke="rgb(0%,0%,0%)" x1="148.9321" x2="147.4899" y1="65.4178" y2="65.1113" /><line stroke="rgb(0%,0%,0%)" x1="147.4899" x2="145.8647" y1="65.1113" y2="64.7658" /><line stroke="rgb(0%,0%,0%)" x1="145.8647" x2="144.5178" y1="64.7658" y2="64.1661" /><line stroke="rgb(0%,0%,0%)" x1="144.5178" x2="143.0" y1="64.1661" y2="63.4904" /><line stroke="rgb(0%,0%,0%)" x1="143.0" x2="141.8072" y1="63.4904" y2="62.6237" /><line stroke="rgb(0%,0%,0%)" x1="141.8072" x2="140.463" y1="62.6237" y2="61.6472" /><line stroke="rgb(0%,0%,0%)" x1="140.463" x2="139.4764" y1="61.6472" y2="60.5515" /><line stroke="rgb(0%,0%,0%)" x1="139.4764" x2="138.3647" y1="60.5515" y2="59.3168" /><line stroke="rgb(0%,0%,0%)" x1="138.3647" x2="137.6275" y1="59.3168" y2="58.0399" /><line stroke="rgb(0%,0%,0%)" x1="137.6275" x2="136.7968" y1="58.0399" y2="56.6011" /><line stroke="rgb(0%,0%,0%)" x1="136.7968" x2="136.3412" y1="56.6011" y2="55.1988" /><line stroke="rgb(0%,0%,0%)" x1="136.3412" x2="135.8278" y1="55.1988" y2="53.6187" /><line stroke="rgb(0%,0%,0%)" x1="135.8278" x2="135.6737" y1="53.6187" y2="52.1523" /><line stroke="rgb(0%,0%,0%)" x1="135.6737" x2="135.5" y1="52.1523" y2="50.5" /><line stroke="rgb(0%,0%,0%)" x1="135.5" x2="135.6541" y1="50.5" y2="49.0336" /><line stroke="rgb(0%,0%,0%)" x1="135.6541" x2="135.8278" y1="49.0336" y2="47.3813" /><line stroke="rgb(0%,0%,0%)" x1="135.8278" x2="136.2834" y1="47.3813" y2="45.9791" /><line stroke="rgb(0%,0%,0%)" x1="136.2834" x2="136.7968" y1="45.9791" y2="44.3989" /><line stroke="rgb(0%,0%,0%)" x1="136.7968" x2="137.534" y1="44.3989" y2="43.122" /><line stroke="rgb(0%,0%,0%)" x1="137.534" x2="138.3647" y1="43.122" y2="41.6832" /><line stroke="rgb(0%,0%,0%)" x1="138.3647" x2="139.3513" y1="41.6832" y2="40.5875" /><line stroke="rgb(0%,0%,0%)" x1="139.3513" x2="140.463" y1="40.5875" y2="39.3528" /><line stroke="rgb(0%,0%,0%)" x1="140.463" x2="141.6559" y1="39.3528" y2="38.4862" /><line stroke="rgb(0%,0%,0%)" x1="141.6559" x2="143.0" y1="38.4862" y2="37.5096" /><line stroke="rgb(0%,0%,0%)" x1="143.0" x2="144.347" y1="37.5096" y2="36.9099" /><line stroke="rgb(0%,0%,0%)" x1="144.347" x2="145.8647" y1="36.9099" y2="36.2342" /><line stroke="rgb(0%,0%,0%)" x1="145.8647" x2="147.307" y1="36.2342" y2="35.9276" /><line stroke="rgb(0%,0%,0%)" x1="147.307" x2="148.9321" y1="35.9276" y2="35.5822" /><line stroke="rgb(0%,0%,0%)" x1="148.9321" x2="150.4065" y1="35.5822" y2="35.5822" /><line stroke="rgb(0%,0%,0%)" x1="150.4065" x2="152.0679" y1="35.5822" y2="35.5822" /><line stroke="rgb(0%,0%,0%)" x1="152.0679" x2="153.5101" y1="35.5822" y2="35.8887" /><line stroke="rgb(0%,0%,0%)" x1="153.5101" x2="155.1353" y1="35.8887" y2="36.2342" /><line stroke="rgb(0%,0%,0%)" x1="155.1353" x2="156.4822" y1="36.2342" y2="36.8339" /><line stroke="rgb(0%,0%,0%)" x1="156.4822" x2="158.0" y1="36.8339" y2="37.5096" /><line stroke="rgb(0%,0%,0%)" x1="158.0" x2="159.1928" y1="37.5096" y2="38.3763" /><line stroke="rgb(0%,0%,0%)" x1="159.1928" x2="160.537" y1="38.3763" y2="39.3528" /><line stroke="rgb(0%,0%,0%)" x1="160.537" x2="161.5235" y1="39.3528" y2="40.4485" /><line stroke="rgb(0%,0%,0%)" x1="161.5235" x2="162.6353" y1="40.4485" y2="41.6832" /><line stroke="rgb(0%,0%,0%)" x1="162.6353" x2="163.3725" y1="41.6832" y2="42.9601" /><line stroke="rgb(0%,0%,0%)" x1="163.3725" x2="164.2032" y1="42.9601" y2="44.3989" /><line stroke="rgb(0%,0%,0%)" x1="164.2032" x2="164.6588" y1="44.3989" y2="45.8012" /><line stroke="rgb(0%,0%,0%)" x1="164.6588" x2="165.1722" y1="45.8012" y2="47.3813" /><line stroke="rgb(0%,0%,0%)" x1="65.1722" x2="65.3263" y1="47.3813" y2="48.8477" /><line stroke="rgb(0%,0%,0%)" x1="65.3263" x2="65.5" y1="48.8477" y2="50.5" /><line stroke="rgb(0%,0%,0%)" x1="65.5" x2="65.3459" y1="50.5" y2="51.9664" /><line stroke="rgb(0%,0%,0%)" x1="65.3459" x2="65.1722" y1="51.9664" y2="53.6187" /><line stroke="rgb(0%,0%,0%)" x1="65.1722" x2="64.7166" y1="53.6187" y2="55.0209" /><line stroke="rgb(0%,0%,0%)" x1="64.7166" x2="64.2032" y1="55.0209" y2="56.6011" /><line stroke="rgb(0%,0%,0%)" x1="64.2032" x2="63.466" y1="56.6011" y2="57.878" /><line stroke="rgb(0%,0%,0%)" x1="63.466" x2="62.6352" y1="57.878" y2="59.3168" /><line stroke="rgb(0%,0%,0%)" x1="62.6352" x2="61.6487" y1="59.3168" y2="60.4125" /><line stroke="rgb(0%,0%,0%)" x1="61.6487" x2="60.537" y1="60.4125" y2="61.6472" /><line stroke="rgb(0%,0%,0%)" x1="60.537" x2="59.3441" y1="61.6472" y2="62.5138" /><line stroke="rgb(0%,0%,0%)" x1="59.3441" x2="58.0" y1="62.5138" y2="63.4904" /><line stroke="rgb(0%,0%,0%)" x1="58.0" x2="56.653" y1="63.4904" y2="64.0901" /><line stroke="rgb(0%,0%,0%)" x1="56.653" x2="55.1353" y1="64.0901" y2="64.7658" /><line stroke="rgb(0%,0%,0%)" x1="55.1353" x2="53.693" y1="64.7658" y2="65.0724" /><line stroke="rgb(0%,0%,0%)" x1="53.693" x2="52.0679" y1="65.0724" y2="65.4178" /><line stroke="rgb(0%,0%,0%)" x1="52.0679" x2="50.5935" y1="65.4178" y2="65.4178" /><line stroke="rgb(0%,0%,0%)" x1="50.5935" x2="48.9321" y1="65.4178" y2="65.4178" /><line stroke="rgb(0%,0%,0%)" x1="48.9321" x2="47.4899" y1="65.4178" y2="65.1113" /><line stroke="rgb(0%,0%,0%)" x1="47.4899" x2="45.8647" y1="65.1113" y2="64.7658" /><line stroke="rgb(0%,0%,0%)" x1="45.8647" x2="44.5178" y1="64.7658" y2="64.1661" /><line stroke="rgb(0%,0%,0%)" x1="44.5178" x2="43.0" y1="64.1661" y2="63.4904" /><line stroke="rgb(0%,0%,0%)" x1="43.0" x2="41.8072" y1="63.4904" y2="62.6237" /><line stroke="rgb(0%,0%,0%)" x1="41.8072" x2="40.463" y1="62.6237" y2="61.6472" /><line stroke="rgb(0%,0%,0%)" x1="40.463" x2="39.4764" y1="61.6472" y2="60.5515" /><line stroke="rgb(0%,0%,0%)" x1="39.4764" x2="38.3647" y1="60.5515" y2="59.3168" /><line stroke="rgb(0%,0%,0%)" x1="38.3647" x2="37.6275" y1="59.3168" y2="58.0399" /><line stroke="rgb(0%,0%,0%)" x1="37.6275" x2="36.7968" y1="58.0399" y2="56.6011" /><line stroke="rgb(0%,0%,0%)" x1="36.7968" x2="36.3412" y1="56.6011" y2="55.1988" /><line stroke="rgb(0%,0%,0%)" x1="36.3412" x2="35.8278" y1="55.1988" y2="53.6187" /><line stroke="rgb(0%,0%,0%)" x1="35.8278" x2="35.6737" y1="53.6187" y2="52.1523" /><line stroke="rgb(0%,0%,0%)" x1="35.6737" x2="35.5" y1="52.1523" y2="50.5" /><line stroke="rgb(0%,0%,0%)" x1="35.5" x2="35.6541" y1="50.5" y2="49.0336" /><line stroke="rgb(0%,0%,0%)" x1="35.6541" x2="35.8278" y1="49.0336" y2="47.3813" /><line stroke="rgb(0%,0%,0%)" x1="35.8278" x2="36.2834" y1="47.3813" y2="45.9791" /><line stroke="rgb(0%,0%,0%)" x1="36.2834" x2="36.7968" y1="45.9791" y2="44.3989" /><line stroke="rgb(0%,0%,0%)" x1="36.7968" x2="37.534" y1="44.3989" y2="43.122" /><line stroke="rgb(0%,0%,0%)" x1="37.534" x2="38.3647" y1="43.122" y2="41.6832" /><line stroke="rgb(0%,0%,0%)" x1="38.3647" x2="39.3513" y1="41.6832" y2="40.5875" /><line stroke="rgb(0%,0%,0%)" x1="39.3513" x2="40.463" y1="40.5875" y2="39.3528" /><line stroke="rgb(0%,0%,0%)" x1="40.463" x2="41.6559" y1="39.3528" y2="38.4862" /><line stroke="rgb(0%,0%,0%)" x1="41.6559" x2="43.0" y1="38.4862" y2="37.5096" /><line stroke="rgb(0%,0%,0%)" x1="43.0" x2="44.347" y1="37.5096" y2="36.9099" /><line stroke="rgb(0%,0%,0%)" x1="44.347" x2="45.8647" y1="36.9099" y2="36.2342" /><line stroke="rgb(0%,0%,0%)" x1="45.8647" x2="47.307" y1="36.2342" y2="35.9276" /><line stroke="rgb(0%,0%,0%)" x1="47.307" x2="48.9321" y1="35.9276" y2="35.5822" /><line stroke="rgb(0%,0%,0%)" x1="48.9321" x2="50.4065" y1="35.5822" y2="35.5822" /><line stroke="rgb(0%,0%,0%)" x1="50.4065" x2="52.0679" y1="35.5822" y2="35.5822" /><line stroke="rgb(0%,0%,0%)" x1="52.0679" x2="53.5101" y1="35.5822" y2="35.8887" /><line stroke="rgb(0%,0%,0%)" x1="53.5101" x2="55.1353" y1="35.8887" y2="36.2342" /><line stroke="rgb(0%,0%,0%)" x1="55.1353" x2="56.4822" y1="36.2342" y2="36.8339" /><line stroke="rgb(0%,0%,0%)" x1="56.4822" x2="58.0" y1="36.8339" y2="37.5096" /><line stroke="rgb(0%,0%,0%)" x1="58.0" x2="59.1928" y1="37.5096" y2="38.3763" /><line stroke="rgb(0%,0%,0%)" x1="59.1928" x2="60.537" y1="38.3763" y2="39.3528" /><line stroke="rgb(0%,0%,0%)" x1="60.537" x2="61.5235" y1="39.3528" y2="40.4485" /><line stroke="rgb(0%,0%,0%)" x1="61.5235" x2="62.6352" y1="40.4485" y2="41.6832" /><line stroke="rgb(0%,0%,0%)" x1="62.6352" x2="63.3725" y1="41.6832" y2="42.9601" /><line stroke="rgb(0%,0%,0%)" x1="63.3725" x2="64.2032" y1="42.9601" y2="44.3989" /><line stroke="rgb(0%,0%,0%)" x1="64.2032" x2="64.6588" y1="44.3989" y2="45.8012" /><line stroke="rgb(0%,0%,0%)" x1="64.6588" x2="65.1722" y1="45.8012" y2="47.3813" /></svg>