<?xml version="1.0" encoding="utf-8" ?>
<svg baseProfile="tiny" height="100%" version="1.2" width="100%" xmlns="http://www.w3.org/2000/svg" xmlns:ev="http://www.w3.org/2001/xml-events" xmlns:xlink="http://www.w3.org/1999/xlink"><defs /><line stroke="rgb(0%,0%,0%)" x1="223.0542" x2="223.0542" y1="100.5" y2="6.8377" /><line stroke="rgb(0%,0%,0%)" x1="223.0542" x2="223.0542" y1="6.8377" y2="0.5" /><line stroke="rgb(0%,0%,0%)" x1="336.9" x2="336.9" y1="0.9615" y2="0.5" /><line stroke="rgb(0%,0%,0%)" x1="336.9" x2="336.9" y1="99.7761" y2="1.2239" /><line stroke="rgb(0%,0%,0%)" x1="336.9" x2="336.9" y1="1.2239" y2="1.1762" /><line stroke="rgb(0%,0%,0%)" x1="336.9" x2="336.9" y1="1.1762" y2="1.1261" /><line stroke="rgb(0%,0%,0%)" x1="336.9" x2="336.9" y1="100.5" y2="100.0385" /><line stroke="rgb(0%,0%,0%)" x1="336.9" x2="336.9" y1="100.0385" y2="100.0073" /><line stroke="rgb(0%,0%,0%)" x1="336.9" x2="336.9" y1="100.0073" y2="99.9683" /><line stroke="rgb(0%,0%,0%)" x1="336.9" x2="336.9" y1="1.1261" y2="1.077" /><line stroke="rgb(0%,0%,0%)" x1="336.9" x2="336.9" y1="1.077" y2="1.0317" /><line stroke="rgb(0%,0%,0%)" x1="336.9" x2="336.9" y1="1.0317" y2="0.9927" /><line stroke="rgb(0%,0%,0%)" x1="336.9" x2="336.9" y1="0.9927" y2="0.9615" /><line stroke="rgb(0%,0%,0%)" x1="336.9" x2="336.9" y1="99.9683" y2="99.923" /><line stroke="rgb(0%,0%,0%)" x1="336.9" x2="336.9" y1="99.923" y2="99.8739" /><line stroke="rgb(0%,0%,0%)" x1="336.9" x2="336.9" y1="99.8739" y2="99.8238" /><line stroke="rgb(0%,0%,0%)" x1="336.9" x2="336.9" y1="99.8238" y2="99.7761" /><line stroke="rgb(0%,0%,0%)" x1="236.5587" x2="223.0542" y1="100.5" y2="100.5" /><line stroke="rgb(0%,0%,0%)" x1="236.5587" x2="238.3405" y1="100.5" y2="100.5" /><line stroke="rgb(0%,0%,0%)" x1="238.3405" x2="249.764" y1="100.5" y2="100.5" /><line stroke="rgb(0%,0%,0%)" x1="249.764" x2="253.0912" y1="100.5" y2="100.5" /><line stroke="rgb(0%,0%,0%)" x1="253.0912" x2="261.9273" y1="100.5" y2="100.5" /><line stroke="rgb(0%,0%,0%)" x1="261.9273" x2="268.6813" y1="100.5" y2="100.5" /><line stroke="rgb(0%,0%,0%)" x1="268.6813" x2="273.2198" y1="100.5" y2="100.5" /><line stroke="rgb(0%,0%,0%)" x1="273.2198" x2="278.4825" y1="100.5" y2="100.5" /><line stroke="rgb(0%,0%,0%)" x1="278.4825" x2="283.7754" y1="100.5" y2="100.5" /><line stroke="rgb(0%,0%,0%)" x1="283.7754" x2="287.7853" y1="100.5" y2="100.5" /><line stroke="rgb(0%,0%,0%)" x1="287.7853" x2="293.7002" y1="100.5" y2="100.5" /><line stroke="rgb(0%,0%,0%)" x1="293.7002" x2="296.6658" y1="100.5" y2="100.5" /><line stroke="rgb(0%,0%,0%)" x1="296.6658" x2="299.1908" y1="100.5" y2="100.5" /><line stroke="rgb(0%,0%,0%)" x1="299.1908" x2="305.1858" y1="100.5" y2="100.5" /><line stroke="rgb(0%,0%,0%)" x1="305.1858" x2="307.0127" y1="100.5" y2="100.5" /><line stroke="rgb(0%,0%,0%)" x1="307.0127" x2="313.3952" y1="100.5" y2="100.5" /><line stroke="rgb(0%,0%,0%)" x1="313.3952" x2="314.6443" y1="100.5" y2="100.5" /><line stroke="rgb(0%,0%,0%)" x1="314.6443" x2="321.3353" y1="100.5" y2="100.5" /><line stroke="rgb(0%,0%,0%)" x1="321.3353" x2="322.1205" y1="100.5" y2="100.5" /><line stroke="rgb(0%,0%,0%)" x1="322.1205" x2="329.0405" y1="100.5" y2="100.5" /><line stroke="rgb(0%,0%,0%)" x1="329.0405" x2="336.3494" y1="100.5" y2="100.5" /><line stroke="rgb(0%,0%,0%)" x1="336.3494" x2="336.9" y1="100.5" y2="100.5" /><line stroke="rgb(0%,0%,0%)" x1="223.0542" x2="236.5587" y1="0.5" y2="0.5" /><line stroke="rgb(0%,0%,0%)" x1="236.5587" x2="238.3405" y1="0.5" y2="0.5" /><line stroke="rgb(0%,0%,0%)" x1="238.3405" x2="249.764" y1="0.5" y2="0.5" /><line stroke="rgb(0%,0%,0%)" x1="249.764" x2="253.0912" y1="0.5" y2="0.5" /><line stroke="rgb(0%,0%,0%)" x1="253.0912" x2="261.9273" y1="0.5" y2="0.5" /><line stroke="rgb(0%,0%,0%)" x1="261.9273" x2="268.6813" y1="0.5" y2="0.5" /><line stroke="rgb(0%,0%,0%)" x1="268.6813" x2="273.2198" y1="0.5" y2="0.5" /><line stroke="rgb(0%,0%,0%)" x1="273.2198" x2="278.4825" y1="0.5" y2="0.5" /><line stroke="rgb(0%,0%,0%)" x1="278.4825" x2="283.7754" y1="0.5" y2="0.5" /><line stroke="rgb(0%,0%,0%)" x1="283.7754" x2="287.7853" y1="0.5" y2="0.5" /><line stroke="rgb(0%,0%,0%)" x1="287.7853" x2="293.7002" y1="0.5" y2="0.5" /><line stroke="rgb(0%,0%,0%)" x1="293.7002" x2="296.6658" y1="0.5" y2="0.5" /><line stroke="rgb(0%,0%,0%)" x1="296.6658" x2="299.1908" y1="0.5" y2="0.5" /><line stroke="rgb(0%,0%,0%)" x1="299.1908" x2="305.1858" y1="0.5" y2="0.5" /><line stroke="rgb(0%,0%,0%)" x1="305.1858" x2="307.0127" y1="0.5" y2="0.5" /><line stroke="rgb(0%,0%,0%)" x1="307.0127" x2="313.3952" y1="0.5" y2="0.5" /><line stroke="rgb(0%,0%,0%)" x1="313.3952" x2="314.6443" y1="0.5" y2="0.5" /><line stroke="rgb(0%,0%,0%)" x1="314.6443" x2="321.3353" y1="0.5" y2="0.5" /><line stroke="rgb(0%,0%,0%)" x1="321.3353" x2="322.1205" y1="0.5" y2="0.5" /><line stroke="rgb(0%,0%,0%)" x1="322.1205" x2="329.0405" y1="0.5" y2="0.5" /><line stroke="rgb(0%,0%,0%)" x1="329.0405" x2="336.3494" y1="0.5" y2="0.5" /><line stroke="rgb(0%,0%,0%)" x1="336.9" x2="336.3494" y1="0.5" y2="0.5" /></svg>