<?xml version="1.0" encoding="utf-8" ?>
<svg baseProfile="tiny" height="100%" version="1.2" width="100%" xmlns="http://www.w3.org/2000/svg" xmlns:ev="http://www.w3.org/2001/xml-events" xmlns:xlink="http://www.w3.org/1999/xlink"><defs /><line stroke="rgb(0%,0%,0%)" x1="223.6901" x2="223.6901" y1="100.5" y2="18.6959" /><line stroke="rgb(0%,0%,0%)" x1="223.6901" x2="223.6901" y1="18.6959" y2="0.5" /><line stroke="rgb(0%,0%,0%)" x1="336.9" x2="336.9" y1="1.3337" y2="0.5" /><line stroke="rgb(0%,0%,0%)" x1="336.9" x2="336.9" y1="99.1923" y2="1.8077" /><line stroke="rgb(0%,0%,0%)" x1="336.9" x2="336.9" y1="1.8077" y2="1.7215" /><line stroke="rgb(0%,0%,0%)" x1="336.9" x2="336.9" y1="1.7215" y2="1.631" /><line stroke="rgb(0%,0%,0%)" x1="336.9" x2="336.9" y1="100.5" y2="99.6663" /><line stroke="rgb(0%,0%,0%)" x1="336.9" x2="336.9" y1="99.6663" y2="99.61" /><line stroke="rgb(0%,0%,0%)" x1="336.9" x2="336.9" y1="99.61" y2="99.5395" /><line stroke="rgb(0%,0%,0%)" x1="336.9" x2="336.9" y1="1.631" y2="1.5423" /><line stroke="rgb(0%,0%,0%)" x1="336.9" x2="336.9" y1="1.5423" y2="1.4605" /><line stroke="rgb(0%,0%,0%)" x1="336.9" x2="336.9" y1="1.4605" y2="1.39" /><line stroke="rgb(0%,0%,0%)" x1="336.9" x2="336.9" y1="1.39" y2="1.3337" /><line stroke="rgb(0%,0%,0%)" x1="336.9" x2="336.9" y1="99.5395" y2="99.4577" /><line stroke="rgb(0%,0%,0%)" x1="336.9" x2="336.9" y1="99.4577" y2="99.369" /><line stroke="rgb(0%,0%,0%)" x1="336.9" x2="336.9" y1="99.369" y2="99.2785" /><line stroke="rgb(0%,0%,0%)" x1="336.9" x2="336.9" y1="99.2785" y2="99.1923" /><line stroke="rgb(0%,0%,0%)" x1="235.4849" x2="223.6901" y1="100.5" y2="100.5" /><line stroke="rgb(0%,0%,0%)" x1="235.4849" x2="237.0411" y1="100.5" y2="100.5" /><line stroke="rgb(0%,0%,0%)" x1="237.0411" x2="248.7754" y1="100.5" y2="100.5" /><line stroke="rgb(0%,0%,0%)" x1="248.7754" x2="251.8941" y1="100.5" y2="100.5" /><line stroke="rgb(0%,0%,0%)" x1="251.8941" x2="261.0163" y1="100.5" y2="100.5" /><line stroke="rgb(0%,0%,0%)" x1="261.0163" x2="267.989" y1="100.5" y2="100.5" /><line stroke="rgb(0%,0%,0%)" x1="267.989" x2="272.3801" y1="100.5" y2="100.5" /><line stroke="rgb(0%,0%,0%)" x1="272.3801" x2="277.8501" y1="100.5" y2="100.5" /><line stroke="rgb(0%,0%,0%)" x1="277.8501" x2="283.0019" y1="100.5" y2="100.5" /><line stroke="rgb(0%,0%,0%)" x1="283.0019" x2="287.2089" y1="100.5" y2="100.5" /><line stroke="rgb(0%,0%,0%)" x1="287.2089" x2="292.9887" y1="100.5" y2="100.5" /><line stroke="rgb(0%,0%,0%)" x1="292.9887" x2="296.1424" y1="100.5" y2="100.5" /><line stroke="rgb(0%,0%,0%)" x1="296.1424" x2="298.8276" y1="100.5" y2="100.5" /><line stroke="rgb(0%,0%,0%)" x1="298.8276" x2="304.7126" y1="100.5" y2="100.5" /><line stroke="rgb(0%,0%,0%)" x1="304.7126" x2="306.6957" y1="100.5" y2="100.5" /><line stroke="rgb(0%,0%,0%)" x1="306.6957" x2="312.9701" y1="100.5" y2="100.5" /><line stroke="rgb(0%,0%,0%)" x1="312.9701" x2="314.3718" y1="100.5" y2="100.5" /><line stroke="rgb(0%,0%,0%)" x1="314.3718" x2="320.9565" y1="100.5" y2="100.5" /><line stroke="rgb(0%,0%,0%)" x1="320.9565" x2="321.891" y1="100.5" y2="100.5" /><line stroke="rgb(0%,0%,0%)" x1="321.891" x2="328.7067" y1="100.5" y2="100.5" /><line stroke="rgb(0%,0%,0%)" x1="328.7067" x2="335.9054" y1="100.5" y2="100.5" /><line stroke="rgb(0%,0%,0%)" x1="335.9054" x2="336.9" y1="100.5" y2="100.5" /><line stroke="rgb(0%,0%,0%)" x1="223.6901" x2="235.4849" y1="0.5" y2="0.5" /><line stroke="rgb(0%,0%,0%)" x1="235.4849" x2="237.0411" y1="0.5" y2="0.5" /><line stroke="rgb(0%,0%,0%)" x1="237.0411" x2="248.7754" y1="0.5" y2="0.5" /><line stroke="rgb(0%,0%,0%)" x1="248.7754" x2="251.8941" y1="0.5" y2="0.5" /><line stroke="rgb(0%,0%,0%)" x1="251.8941" x2="261.0163" y1="0.5" y2="0.5" /><line stroke="rgb(0%,0%,0%)" x1="261.0163" x2="267.989" y1="0.5" y2="0.5" /><line stroke="rgb(0%,0%,0%)" x1="267.989" x2="272.3801" y1="0.5" y2="0.5" /><line stroke="rgb(0%,0%,0%)" x1="272.3801" x2="277.8501" y1="0.5" y2="0.5" /><line stroke="rgb(0%,0%,0%)" x1="277.8501" x2="283.0019" y1="0.5" y2="0.5" /><line stroke="rgb(0%,0%,0%)" x1="283.0019" x2="287.2089" y1="0.5" y2="0.5" /><line stroke="rgb(0%,0%,0%)" x1="287.2089" x2="292.9887" y1="0.5" y2="0.5" /><line stroke="rgb(0%,0%,0%)" x1="292.9887" x2="296.1424" y1="0.5" y2="0.5" /><line stroke="rgb(0%,0%,0%)" x1="296.1424" x2="298.8276" y1="0.5" y2="0.5" /><line stroke="rgb(0%,0%,0%)" x1="298.8276" x2="304.7126" y1="0.5" y2="0.5" /><line stroke="rgb(0%,0%,0%)" x1="304.7126" x2="306.6957" y1="0.5" y2="0.5" /><line stroke="rgb(0%,0%,0%)" x1="306.6957" x2="312.9701" y1="0.5" y2="0.5" /><line stroke="rgb(0%,0%,0%)" x1="312.9701" x2="314.3718" y1="0.5" y2="0.5" /><line stroke="rgb(0%,0%,0%)" x1="314.3718" x2="320.9565" y1="0.5" y2="0.5" /><line stroke="rgb(0%,0%,0%)" x1="320.9565" x2="321.891" y1="0.5" y2="0.5" /><line stroke="rgb(0%,0%,0%)" x1="321.891" x2="328.7067" y1="0.5" y2="0.5" /><line stroke="rgb(0%,0%,0%)" x1="328.7067" x2="335.9054" y1="0.5" y2="0.5" /><line stroke="rgb(0%,0%,0%)" x1="336.9" x2="335.9054" y1="0.5" y2="0.5" /></svg>