<?xml version="1.0" encoding="utf-8" ?>
<svg baseProfile="tiny" height="100%" version="1.2" width="100%" xmlns="http://www.w3.org/2000/svg" xmlns:ev="http://www.w3.org/2001/xml-events" xmlns:xlink="http://www.w3.org/1999/xlink"><defs /><line stroke="rgb(0%,0%,0%)" x1="224.3261" x2="224.3261" y1="100.5" y2="30.554" /><line stroke="rgb(0%,0%,0%)" x1="224.3261" x2="224.3261" y1="30.554" y2="0.5" /><line stroke="rgb(0%,0%,0%)" x1="336.9" x2="336.9" y1="1.7059" y2="0.5" /><line stroke="rgb(0%,0%,0%)" x1="336.9" x2="336.9" y1="98.6085" y2="2.3915" /><line stroke="rgb(0%,0%,0%)" x1="336.9" x2="336.9" y1="2.3915" y2="2.2668" /><line stroke="rgb(0%,0%,0%)" x1="336.9" x2="336.9" y1="2.2668" y2="2.1359" /><line stroke="rgb(0%,0%,0%)" x1="336.9" x2="336.9" y1="100.5" y2="99.2941" /><line stroke="rgb(0%,0%,0%)" x1="336.9" x2="336.9" y1="99.2941" y2="99.2126" /><line stroke="rgb(0%,0%,0%)" x1="336.9" x2="336.9" y1="99.2126" y2="99.1107" /><line stroke="rgb(0%,0%,0%)" x1="336.9" x2="336.9" y1="2.1359" y2="2.0076" /><line stroke="rgb(0%,0%,0%)" x1="336.9" x2="336.9" y1="2.0076" y2="1.8893" /><line stroke="rgb(0%,0%,0%)" x1="336.9" x2="336.9" y1="1.8893" y2="1.7874" /><line stroke="rgb(0%,0%,0%)" x1="336.9" x2="336.9" y1="1.7874" y2="1.7059" /><line stroke="rgb(0%,0%,0%)" x1="336.9" x2="336.9" y1="99.1107" y2="98.9924" /><line stroke="rgb(0%,0%,0%)" x1="336.9" x2="336.9" y1="98.9924" y2="98.8641" /><line stroke="rgb(0%,0%,0%)" x1="336.9" x2="336.9" y1="98.8641" y2="98.7332" /><line stroke="rgb(0%,0%,0%)" x1="336.9" x2="336.9" y1="98.7332" y2="98.6085" /><line stroke="rgb(0%,0%,0%)" x1="234.411" x2="224.3261" y1="100.5" y2="100.5" /><line stroke="rgb(0%,0%,0%)" x1="234.411" x2="235.7417" y1="100.5" y2="100.5" /><line stroke="rgb(0%,0%,0%)" x1="235.7417" x2="247.7867" y1="100.5" y2="100.5" /><line stroke="rgb(0%,0%,0%)" x1="247.7867" x2="250.6969" y1="100.5" y2="100.5" /><line stroke="rgb(0%,0%,0%)" x1="250.6969" x2="260.1052" y1="100.5" y2="100.5" /><line stroke="rgb(0%,0%,0%)" x1="260.1052" x2="267.2966" y1="100.5" y2="100.5" /><line stroke="rgb(0%,0%,0%)" x1="267.2966" x2="271.5404" y1="100.5" y2="100.5" /><line stroke="rgb(0%,0%,0%)" x1="271.5404" x2="277.2176" y1="100.5" y2="100.5" /><line stroke="rgb(0%,0%,0%)" x1="277.2176" x2="282.2284" y1="100.5" y2="100.5" /><line stroke="rgb(0%,0%,0%)" x1="282.2284" x2="286.6326" y1="100.5" y2="100.5" /><line stroke="rgb(0%,0%,0%)" x1="286.6326" x2="292.2771" y1="100.5" y2="100.5" /><line stroke="rgb(0%,0%,0%)" x1="292.2771" x2="295.619" y1="100.5" y2="100.5" /><line stroke="rgb(0%,0%,0%)" x1="295.619" x2="298.4644" y1="100.5" y2="100.5" /><line stroke="rgb(0%,0%,0%)" x1="298.4644" x2="304.2395" y1="100.5" y2="100.5" /><line stroke="rgb(0%,0%,0%)" x1="304.2395" x2="306.3787" y1="100.5" y2="100.5" /><line stroke="rgb(0%,0%,0%)" x1="306.3787" x2="312.5451" y1="100.5" y2="100.5" /><line stroke="rgb(0%,0%,0%)" x1="312.5451" x2="314.0993" y1="100.5" y2="100.5" /><line stroke="rgb(0%,0%,0%)" x1="314.0993" x2="320.5778" y1="100.5" y2="100.5" /><line stroke="rgb(0%,0%,0%)" x1="320.5778" x2="321.6616" y1="100.5" y2="100.5" /><line stroke="rgb(0%,0%,0%)" x1="321.6616" x2="328.3729" y1="100.5" y2="100.5" /><line stroke="rgb(0%,0%,0%)" x1="328.3729" x2="335.4614" y1="100.5" y2="100.5" /><line stroke="rgb(0%,0%,0%)" x1="335.4614" x2="336.9" y1="100.5" y2="100.5" /><line stroke="rgb(0%,0%,0%)" x1="224.3261" x2="234.411" y1="0.5" y2="0.5" /><line stroke="rgb(0%,0%,0%)" x1="234.411" x2="235.7417" y1="0.5" y2="0.5" /><line stroke="rgb(0%,0%,0%)" x1="235.7417" x2="247.7867" y1="0.5" y2="0.5" /><line stroke="rgb(0%,0%,0%)" x1="247.7867" x2="250.6969" y1="0.5" y2="0.5" /><line stroke="rgb(0%,0%,0%)" x1="250.6969" x2="260.1052" y1="0.5" y2="0.5" /><line stroke="rgb(0%,0%,0%)" x1="260.1052" x2="267.2966" y1="0.5" y2="0.5" /><line stroke="rgb(0%,0%,0%)" x1="267.2966" x2="271.5404" y1="0.5" y2="0.5" /><line stroke="rgb(0%,0%,0%)" x1="271.5404" x2="277.2176" y1="0.5" y2="0.5" /><line stroke="rgb(0%,0%,0%)" x1="277.2176" x2="282.2284" y1="0.5" y2="0.5" /><line stroke="rgb(0%,0%,0%)" x1="282.2284" x2="286.6326" y1="0.5" y2="0.5" /><line stroke="rgb(0%,0%,0%)" x1="286.6326" x2="292.2771" y1="0.5" y2="0.5" /><line stroke="rgb(0%,0%,0%)" x1="292.2771" x2="295.619" y1="0.5" y2="0.5" /><line stroke="rgb(0%,0%,0%)" x1="295.619" x2="298.4644" y1="0.5" y2="0.5" /><line stroke="rgb(0%,0%,0%)" x1="298.4644" x2="304.2395" y1="0.5" y2="0.5" /><line stroke="rgb(0%,0%,0%)" x1="304.2395" x2="306.3787" y1="0.5" y2="0.5" /><line stroke="rgb(0%,0%,0%)" x1="306.3787" x2="312.5451" y1="0.5" y2="0.5" /><line stroke="rgb(0%,0%,0%)" x1="312.5451" x2="314.0993" y1="0.5" y2="0.5" /><line stroke="rgb(0%,0%,0%)" x1="314.0993" x2="320.5778" y1="0.5" y2="0.5" /><line stroke="rgb(0%,0%,0%)" x1="320.5778" x2="321.6616" y1="0.5" y2="0.5" /><line stroke="rgb(0%,0%,0%)" x1="321.6616" x2="328.3729" y1="0.5" y2="0.5" /><line stroke="rgb(0%,0%,0%)" x1="328.3729" x2="335.4614" y1="0.5" y2="0.5" /><line stroke="rgb(0%,0%,0%)" x1="336.9" x2="335.4614" y1="0.5" y2="0.5" /></svg>