<?xml version="1.0" encoding="utf-8" ?>
<svg baseProfile="tiny" height="100%" version="1.2" width="100%" xmlns="http://www.w3.org/2000/svg" xmlns:ev="http://www.w3.org/2001/xml-events" xmlns:xlink="http://www.w3.org/1999/xlink"><defs /><line stroke="rgb(0%,0%,0%)" x1="224.962" x2="224.962" y1="100.5" y2="42.4122" /><line stroke="rgb(0%,0%,0%)" x1="224.962" x2="224.962" y1="42.4122" y2="0.5" /><line stroke="rgb(0%,0%,0%)" x1="336.9" x2="336.9" y1="2.0781" y2="0.5" /><line stroke="rgb(0%,0%,0%)" x1="336.9" x2="336.9" y1="98.0247" y2="2.9753" /><line stroke="rgb(0%,0%,0%)" x1="336.9" x2="336.9" y1="2.9753" y2="2.8121" /><line stroke="rgb(0%,0%,0%)" x1="336.9" x2="336.9" y1="2.8121" y2="2.6409" /><line stroke="rgb(0%,0%,0%)" x1="336.9" x2="336.9" y1="100.5" y2="98.9219" /><line stroke="rgb(0%,0%,0%)" x1="336.9" x2="336.9" y1="98.9219" y2="98.8153" /><line stroke="rgb(0%,0%,0%)" x1="336.9" x2="336.9" y1="98.8153" y2="98.6819" /><line stroke="rgb(0%,0%,0%)" x1="336.9" x2="336.9" y1="2.6409" y2="2.4729" /><line stroke="rgb(0%,0%,0%)" x1="336.9" x2="336.9" y1="2.4729" y2="2.3181" /><line stroke="rgb(0%,0%,0%)" x1="336.9" x2="336.9" y1="2.3181" y2="2.1847" /><line stroke="rgb(0%,0%,0%)" x1="336.9" x2="336.9" y1="2.1847" y2="2.0781" /><line stroke="rgb(0%,0%,0%)" x1="336.9" x2="336.9" y1="98.6819" y2="98.5271" /><line stroke="rgb(0%,0%,0%)" x1="336.9" x2="336.9" y1="98.5271" y2="98.3591" /><line stroke="rgb(0%,0%,0%)" x1="336.9" x2="336.9" y1="98.3591" y2="98.1879" /><line stroke="rgb(0%,0%,0%)" x1="336.9" x2="336.9" y1="98.1879" y2="98.0247" /><line stroke="rgb(0%,0%,0%)" x1="233.3372" x2="224.962" y1="100.5" y2="100.5" /><line stroke="rgb(0%,0%,0%)" x1="233.3372" x2="234.4423" y1="100.5" y2="100.5" /><line stroke="rgb(0%,0%,0%)" x1="234.4423" x2="246.7981" y1="100.5" y2="100.5" /><line stroke="rgb(0%,0%,0%)" x1="246.7981" x2="249.4997" y1="100.5" y2="100.5" /><line stroke="rgb(0%,0%,0%)" x1="249.4997" x2="259.1942" y1="100.5" y2="100.5" /><line stroke="rgb(0%,0%,0%)" x1="259.1942" x2="266.6042" y1="100.5" y2="100.5" /><line stroke="rgb(0%,0%,0%)" x1="266.6042" x2="270.7007" y1="100.5" y2="100.5" /><line stroke="rgb(0%,0%,0%)" x1="270.7007" x2="276.5852" y1="100.5" y2="100.5" /><line stroke="rgb(0%,0%,0%)" x1="276.5852" x2="281.4549" y1="100.5" y2="100.5" /><line stroke="rgb(0%,0%,0%)" x1="281.4549" x2="286.0562" y1="100.5" y2="100.5" /><line stroke="rgb(0%,0%,0%)" x1="286.0562" x2="291.5655" y1="100.5" y2="100.5" /><line stroke="rgb(0%,0%,0%)" x1="291.5655" x2="295.0956" y1="100.5" y2="100.5" /><line stroke="rgb(0%,0%,0%)" x1="295.0956" x2="298.1011" y1="100.5" y2="100.5" /><line stroke="rgb(0%,0%,0%)" x1="298.1011" x2="303.7663" y1="100.5" y2="100.5" /><line stroke="rgb(0%,0%,0%)" x1="303.7663" x2="306.0617" y1="100.5" y2="100.5" /><line stroke="rgb(0%,0%,0%)" x1="306.0617" x2="312.1201" y1="100.5" y2="100.5" /><line stroke="rgb(0%,0%,0%)" x1="312.1201" x2="313.8268" y1="100.5" y2="100.5" /><line stroke="rgb(0%,0%,0%)" x1="313.8268" x2="320.1991" y1="100.5" y2="100.5" /><line stroke="rgb(0%,0%,0%)" x1="320.1991" x2="321.4321" y1="100.5" y2="100.5" /><line stroke="rgb(0%,0%,0%)" x1="321.4321" x2="328.0391" y1="100.5" y2="100.5" /><line stroke="rgb(0%,0%,0%)" x1="328.0391" x2="335.0174" y1="100.5" y2="100.5" /><line stroke="rgb(0%,0%,0%)" x1="335.0174" x2="336.9" y1="100.5" y2="100.5" /><line stroke="rgb(0%,0%,0%)" x1="224.962" x2="233.3372" y1="0.5" y2="0.5" /><line stroke="rgb(0%,0%,0%)" x1="233.3372" x2="234.4423" y1="0.5" y2="0.5" /><line stroke="rgb(0%,0%,0%)" x1="234.4423" x2="246.7981" y1="0.5" y2="0.5" /><line stroke="rgb(0%,0%,0%)" x1="246.7981" x2="249.4997" y1="0.5" y2="0.5" /><line stroke="rgb(0%,0%,0%)" x1="249.4997" x2="259.1942" y1="0.5" y2="0.5" /><line stroke="rgb(0%,0%,0%)" x1="259.1942" x2="266.6042" y1="0.5" y2="0.5" /><line stroke="rgb(0%,0%,0%)" x1="266.6042" x2="270.7007" y1="0.5" y2="0.5" /><line stroke="rgb(0%,0%,0%)" x1="270.7007" x2="276.5852" y1="0.5" y2="0.5" /><line stroke="rgb(0%,0%,0%)" x1="276.5852" x2="281.4549" y1="0.5" y2="0.5" /><line stroke="rgb(0%,0%,0%)" x1="281.4549" x2="286.0562" y1="0.5" y2="0.5" /><line stroke="rgb(0%,0%,0%)" x1="286.0562" x2="291.5655" y1="0.5" y2="0.5" /><line stroke="rgb(0%,0%,0%)" x1="291.5655" x2="295.0956" y1="0.5" y2="0.5" /><line stroke="rgb(0%,0%,0%)" x1="295.0956" x2="298.1011" y1="0.5" y2="0.5" /><line stroke="rgb(0%,0%,0%)" x1="298.1011" x2="303.7663" y1="0.5" y2="0.5" /><line stroke="rgb(0%,0%,0%)" x1="303.7663" x2="306.0617" y1="0.5" y2="0.5" /><line stroke="rgb(0%,0%,0%)" x1="306.0617" x2="312.1201" y1="0.5" y2="0.5" /><line stroke="rgb(0%,0%,0%)" x1="312.1201" x2="313.8268" y1="0.5" y2="0.5" /><line stroke="rgb(0%,0%,0%)" x1="313.8268" x2="320.1991" y1="0.5" y2="0.5" /><line stroke="rgb(0%,0%,0%)" x1="320.1991" x2="321.4321" y1="0.5" y2="0.5" /><line stroke="rgb(0%,0%,0%)" x1="321.4321" x2="328.0391" y1="0.5" y2="0.5" /><line stroke="rgb(0%,0%,0%)" x1="328.0391" x2="335.0174" y1="0.5" y2="0.5" /><line stroke="rgb(0%,0%,0%)" x1="336.9" x2="335.0174" y1="0.5" y2="0.5" /></svg>