<?xml version="1.0" encoding="utf-8" ?>
<svg baseProfile="tiny" height="100%" version="1.2" width="100%" xmlns="http://www.w3.org/2000/svg" xmlns:ev="http://www.w3.org/2001/xml-events" xmlns:xlink="http://www.w3.org/1999/xlink"><defs /><line stroke="rgb(0%,0%,0%)" x1="225.5979" x2="225.5979" y1="100.5" y2="54.2704" /><line stroke="rgb(0%,0%,0%)" x1="225.5979" x2="225.5979" y1="54.2704" y2="0.5" /><line stroke="rgb(0%,0%,0%)" x1="336.9" x2="336.9" y1="2.4503" y2="0.5" /><line stroke="rgb(0%,0%,0%)" x1="336.9" x2="336.9" y1="97.4409" y2="3.5591" /><line stroke="rgb(0%,0%,0%)" x1="336.9" x2="336.9" y1="3.5591" y2="3.3574" /><line stroke="rgb(0%,0%,0%)" x1="336.9" x2="336.9" y1="3.3574" y2="3.1458" /><line stroke="rgb(0%,0%,0%)" x1="336.9" x2="336.9" y1="100.5" y2="98.5497" /><line stroke="rgb(0%,0%,0%)" x1="336.9" x2="336.9" y1="98.5497" y2="98.418" /><line stroke="rgb(0%,0%,0%)" x1="336.9" x2="336.9" y1="98.418" y2="98.2531" /><line stroke="rgb(0%,0%,0%)" x1="336.9" x2="336.9" y1="3.1458" y2="2.9382" /><line stroke="rgb(0%,0%,0%)" x1="336.9" x2="336.9" y1="2.9382" y2="2.7469" /><line stroke="rgb(0%,0%,0%)" x1="336.9" x2="336.9" y1="2.7469" y2="2.582" /><line stroke="rgb(0%,0%,0%)" x1="336.9" x2="336.9" y1="2.582" y2="2.4503" /><line stroke="rgb(0%,0%,0%)" x1="336.9" x2="336.9" y1="98.2531" y2="98.0618" /><line stroke="rgb(0%,0%,0%)" x1="336.9" x2="336.9" y1="98.0618" y2="97.8542" /><line stroke="rgb(0%,0%,0%)" x1="336.9" x2="336.9" y1="97.8542" y2="97.6426" /><line stroke="rgb(0%,0%,0%)" x1="336.9" x2="336.9" y1="97.6426" y2="97.4409" /><line stroke="rgb(0%,0%,0%)" x1="232.2634" x2="225.5979" y1="100.5" y2="100.5" /><line stroke="rgb(0%,0%,0%)" x1="232.2634" x2="233.1428" y1="100.5" y2="100.5" /><line stroke="rgb(0%,0%,0%)" x1="233.1428" x2="245.8094" y1="100.5" y2="100.5" /><line stroke="rgb(0%,0%,0%)" x1="245.8094" x2="248.3025" y1="100.5" y2="100.5" /><line stroke="rgb(0%,0%,0%)" x1="248.3025" x2="258.2831" y1="100.5" y2="100.5" /><line stroke="rgb(0%,0%,0%)" x1="258.2831" x2="265.9119" y1="100.5" y2="100.5" /><line stroke="rgb(0%,0%,0%)" x1="265.9119" x2="269.861" y1="100.5" y2="100.5" /><line stroke="rgb(0%,0%,0%)" x1="269.861" x2="275.9527" y1="100.5" y2="100.5" /><line stroke="rgb(0%,0%,0%)" x1="275.9527" x2="280.6814" y1="100.5" y2="100.5" /><line stroke="rgb(0%,0%,0%)" x1="280.6814" x2="285.4799" y1="100.5" y2="100.5" /><line stroke="rgb(0%,0%,0%)" x1="285.4799" x2="290.8539" y1="100.5" y2="100.5" /><line stroke="rgb(0%,0%,0%)" x1="290.8539" x2="294.5722" y1="100.5" y2="100.5" /><line stroke="rgb(0%,0%,0%)" x1="294.5722" x2="297.7379" y1="100.5" y2="100.5" /><line stroke="rgb(0%,0%,0%)" x1="297.7379" x2="303.2932" y1="100.5" y2="100.5" /><line stroke="rgb(0%,0%,0%)" x1="303.2932" x2="305.7447" y1="100.5" y2="100.5" /><line stroke="rgb(0%,0%,0%)" x1="305.7447" x2="311.695" y1="100.5" y2="100.5" /><line stroke="rgb(0%,0%,0%)" x1="311.695" x2="313.5542" y1="100.5" y2="100.5" /><line stroke="rgb(0%,0%,0%)" x1="313.5542" x2="319.8204" y1="100.5" y2="100.5" /><line stroke="rgb(0%,0%,0%)" x1="319.8204" x2="321.2026" y1="100.5" y2="100.5" /><line stroke="rgb(0%,0%,0%)" x1="321.2026" x2="327.7053" y1="100.5" y2="100.5" /><line stroke="rgb(0%,0%,0%)" x1="327.7053" x2="334.5734" y1="100.5" y2="100.5" /><line stroke="rgb(0%,0%,0%)" x1="334.5734" x2="336.9" y1="100.5" y2="100.5" /><line stroke="rgb(0%,0%,0%)" x1="225.5979" x2="232.2634" y1="0.5" y2="0.5" /><line stroke="rgb(0%,0%,0%)" x1="232.2634" x2="233.1428" y1="0.5" y2="0.5" /><line stroke="rgb(0%,0%,0%)" x1="233.1428" x2="245.8094" y1="0.5" y2="0.5" /><line stroke="rgb(0%,0%,0%)" x1="245.8094" x2="248.3025" y1="0.5" y2="0.5" /><line stroke="rgb(0%,0%,0%)" x1="248.3025" x2="258.2831" y1="0.5" y2="0.5" /><line stroke="rgb(0%,0%,0%)" x1="258.2831" x2="265.9119" y1="0.5" y2="0.5" /><line stroke="rgb(0%,0%,0%)" x1="265.9119" x2="269.861" y1="0.5" y2="0.5" /><line stroke="rgb(0%,0%,0%)" x1="269.861" x2="275.9527" y1="0.5" y2="0.5" /><line stroke="rgb(0%,0%,0%)" x1="275.9527" x2="280.6814" y1="0.5" y2="0.5" /><line stroke="rgb(0%,0%,0%)" x1="280.6814" x2="285.4799" y1="0.5" y2="0.5" /><line stroke="rgb(0%,0%,0%)" x1="285.4799" x2="290.8539" y1="0.5" y2="0.5" /><line stroke="rgb(0%,0%,0%)" x1="290.8539" x2="294.5722" y1="0.5" y2="0.5" /><line stroke="rgb(0%,0%,0%)" x1="294.5722" x2="297.7379" y1="0.5" y2="0.5" /><line stroke="rgb(0%,0%,0%)" x1="297.7379" x2="303.2932" y1="0.5" y2="0.5" /><line stroke="rgb(0%,0%,0%)" x1="303.2932" x2="305.7447" y1="0.5" y2="0.5" /><line stroke="rgb(0%,0%,0%)" x1="305.7447" x2="311.695" y1="0.5" y2="0.5" /><line stroke="rgb(0%,0%,0%)" x1="311.695" x2="313.5542" y1="0.5" y2="0.5" /><line stroke="rgb(0%,0%,0%)" x1="313.5542" x2="319.8204" y1="0.5" y2="0.5" /><line stroke="rgb(0%,0%,0%)" x1="319.8204" x2="321.2026" y1="0.5" y2="0.5" /><line stroke="rgb(0%,0%,0%)" x1="321.2026" x2="327.7053" y1="0.5" y2="0.5" /><line stroke="rgb(0%,0%,0%)" x1="327.7053" x2="334.5734" y1="0.5" y2="0.5" /><line stroke="rgb(0%,0%,0%)" x1="336.9" x2="334.5734" y1="0.5" y2="0.5" /></svg>