<?xml version="1.0" encoding="utf-8" ?>
<svg baseProfile="tiny" height="100%" version="1.2" width="100%" xmlns="http://www.w3.org/2000/svg" xmlns:ev="http://www.w3.org/2001/xml-events" xmlns:xlink="http://www.w3.org/1999/xlink"><defs /><line stroke="rgb(0%,0%,0%)" x1="226.2338" x2="226.2338" y1="100.5" y2="66.1286" /><line stroke="rgb(0%,0%,0%)" x1="226.2338" x2="226.2338" y1="66.1286" y2="0.5" /><line stroke="rgb(0%,0%,0%)" x1="336.9" x2="336.9" y1="2.8225" y2="0.5" /><line stroke="rgb(0%,0%,0%)" x1="336.9" x2="336.9" y1="96.8571" y2="4.1429" /><line stroke="rgb(0%,0%,0%)" x1="336.9" x2="336.9" y1="4.1429" y2="3.9027" /><line stroke="rgb(0%,0%,0%)" x1="336.9" x2="336.9" y1="3.9027" y2="3.6507" /><line stroke="rgb(0%,0%,0%)" x1="336.9" x2="336.9" y1="100.5" y2="98.1775" /><line stroke="rgb(0%,0%,0%)" x1="336.9" x2="336.9" y1="98.1775" y2="98.0206" /><line stroke="rgb(0%,0%,0%)" x1="336.9" x2="336.9" y1="98.0206" y2="97.8243" /><line stroke="rgb(0%,0%,0%)" x1="336.9" x2="336.9" y1="3.6507" y2="3.4034" /><line stroke="rgb(0%,0%,0%)" x1="336.9" x2="336.9" y1="3.4034" y2="3.1757" /><line stroke="rgb(0%,0%,0%)" x1="336.9" x2="336.9" y1="3.1757" y2="2.9794" /><line stroke="rgb(0%,0%,0%)" x1="336.9" x2="336.9" y1="2.9794" y2="2.8225" /><line stroke="rgb(0%,0%,0%)" x1="336.9" x2="336.9" y1="97.8243" y2="97.5966" /><line stroke="rgb(0%,0%,0%)" x1="336.9" x2="336.9" y1="97.5966" y2="97.3493" /><line stroke="rgb(0%,0%,0%)" x1="336.9" x2="336.9" y1="97.3493" y2="97.0973" /><line stroke="rgb(0%,0%,0%)" x1="336.9" x2="336.9" y1="97.0973" y2="96.8571" /><line stroke="rgb(0%,0%,0%)" x1="231.1896" x2="226.2338" y1="100.5" y2="100.5" /><line stroke="rgb(0%,0%,0%)" x1="231.1896" x2="231.8434" y1="100.5" y2="100.5" /><line stroke="rgb(0%,0%,0%)" x1="231.8434" x2="244.8208" y1="100.5" y2="100.5" /><line stroke="rgb(0%,0%,0%)" x1="244.8208" x2="247.1054" y1="100.5" y2="100.5" /><line stroke="rgb(0%,0%,0%)" x1="247.1054" x2="257.372" y1="100.5" y2="100.5" /><line stroke="rgb(0%,0%,0%)" x1="257.372" x2="265.2195" y1="100.5" y2="100.5" /><line stroke="rgb(0%,0%,0%)" x1="265.2195" x2="269.0213" y1="100.5" y2="100.5" /><line stroke="rgb(0%,0%,0%)" x1="269.0213" x2="275.3202" y1="100.5" y2="100.5" /><line stroke="rgb(0%,0%,0%)" x1="275.3202" x2="279.9079" y1="100.5" y2="100.5" /><line stroke="rgb(0%,0%,0%)" x1="279.9079" x2="284.9035" y1="100.5" y2="100.5" /><line stroke="rgb(0%,0%,0%)" x1="284.9035" x2="290.1423" y1="100.5" y2="100.5" /><line stroke="rgb(0%,0%,0%)" x1="290.1423" x2="294.0487" y1="100.5" y2="100.5" /><line stroke="rgb(0%,0%,0%)" x1="294.0487" x2="297.3747" y1="100.5" y2="100.5" /><line stroke="rgb(0%,0%,0%)" x1="297.3747" x2="302.8201" y1="100.5" y2="100.5" /><line stroke="rgb(0%,0%,0%)" x1="302.8201" x2="305.4277" y1="100.5" y2="100.5" /><line stroke="rgb(0%,0%,0%)" x1="305.4277" x2="311.27" y1="100.5" y2="100.5" /><line stroke="rgb(0%,0%,0%)" x1="311.27" x2="313.2817" y1="100.5" y2="100.5" /><line stroke="rgb(0%,0%,0%)" x1="313.2817" x2="319.4417" y1="100.5" y2="100.5" /><line stroke="rgb(0%,0%,0%)" x1="319.4417" x2="320.9731" y1="100.5" y2="100.5" /><line stroke="rgb(0%,0%,0%)" x1="320.9731" x2="327.3714" y1="100.5" y2="100.5" /><line stroke="rgb(0%,0%,0%)" x1="327.3714" x2="334.1294" y1="100.5" y2="100.5" /><line stroke="rgb(0%,0%,0%)" x1="334.1294" x2="336.9" y1="100.5" y2="100.5" /><line stroke="rgb(0%,0%,0%)" x1="226.2338" x2="231.1896" y1="0.5" y2="0.5" /><line stroke="rgb(0%,0%,0%)" x1="231.1896" x2="231.8434" y1="0.5" y2="0.5" /><line stroke="rgb(0%,0%,0%)" x1="231.8434" x2="244.8208" y1="0.5" y2="0.5" /><line stroke="rgb(0%,0%,0%)" x1="244.8208" x2="247.1054" y1="0.5" y2="0.5" /><line stroke="rgb(0%,0%,0%)" x1="247.1054" x2="257.372" y1="0.5" y2="0.5" /><line stroke="rgb(0%,0%,0%)" x1="257.372" x2="265.2195" y1="0.5" y2="0.5" /><line stroke="rgb(0%,0%,0%)" x1="265.2195" x2="269.0213" y1="0.5" y2="0.5" /><line stroke="rgb(0%,0%,0%)" x1="269.0213" x2="275.3202" y1="0.5" y2="0.5" /><line stroke="rgb(0%,0%,0%)" x1="275.3202" x2="279.9079" y1="0.5" y2="0.5" /><line stroke="rgb(0%,0%,0%)" x1="279.9079" x2="284.9035" y1="0.5" y2="0.5" /><line stroke="rgb(0%,0%,0%)" x1="284.9035" x2="290.1423" y1="0.5" y2="0.5" /><line stroke="rgb(0%,0%,0%)" x1="290.1423" x2="294.0487" y1="0.5" y2="0.5" /><line stroke="rgb(0%,0%,0%)" x1="294.0487" x2="297.3747" y1="0.5" y2="0.5" /><line stroke="rgb(0%,0%,0%)" x1="297.3747" x2="302.8201" y1="0.5" y2="0.5" /><line stroke="rgb(0%,0%,0%)" x1="302.8201" x2="305.4277" y1="0.5" y2="0.5" /><line stroke="rgb(0%,0%,0%)" x1="305.4277" x2="311.27" y1="0.5" y2="0.5" /><line stroke="rgb(0%,0%,0%)" x1="311.27" x2="313.2817" y1="0.5" y2="0.5" /><line stroke="rgb(0%,0%,0%)" x1="313.2817" x2="319.4417" y1="0.5" y2="0.5" /><line stroke="rgb(0%,0%,0%)" x1="319.4417" x2="320.9731" y1="0.5" y2="0.5" /><line stroke="rgb(0%,0%,0%)" x1="320.9731" x2="327.3714" y1="0.5" y2="0.5" /><line stroke="rgb(0%,0%,0%)" x1="327.3714" x2="334.1294" y1="0.5" y2="0.5" /><line stroke="rgb(0%,0%,0%)" x1="336.9" x2="334.1294" y1="0.5" y2="0.5" /></svg>