<?xml version="1.0" encoding="utf-8" ?>
<svg baseProfile="tiny" height="100%" version="1.2" width="100%" xmlns="http://www.w3.org/2000/svg" xmlns:ev="http://www.w3.org/2001/xml-events" xmlns:xlink="http://www.w3.org/1999/xlink"><defs /><line stroke="rgb(0%,0%,0%)" x1="226.8698" x2="226.8698" y1="100.5" y2="77.9868" /><line stroke="rgb(0%,0%,0%)" x1="226.8698" x2="226.8698" y1="77.9868" y2="0.5" /><line stroke="rgb(0%,0%,0%)" x1="336.9" x2="336.9" y1="3.1947" y2="0.5" /><line stroke="rgb(0%,0%,0%)" x1="336.9" x2="336.9" y1="96.2732" y2="4.7268" /><line stroke="rgb(0%,0%,0%)" x1="336.9" x2="336.9" y1="4.7268" y2="4.448" /><line stroke="rgb(0%,0%,0%)" x1="336.9" x2="336.9" y1="4.448" y2="4.1557" /><line stroke="rgb(0%,0%,0%)" x1="336.9" x2="336.9" y1="100.5" y2="97.8053" /><line stroke="rgb(0%,0%,0%)" x1="336.9" x2="336.9" y1="97.8053" y2="97.6233" /><line stroke="rgb(0%,0%,0%)" x1="336.9" x2="336.9" y1="97.6233" y2="97.3955" /><line stroke="rgb(0%,0%,0%)" x1="336.9" x2="336.9" y1="4.1557" y2="3.8687" /><line stroke="rgb(0%,0%,0%)" x1="336.9" x2="336.9" y1="3.8687" y2="3.6045" /><line stroke="rgb(0%,0%,0%)" x1="336.9" x2="336.9" y1="3.6045" y2="3.3767" /><line stroke="rgb(0%,0%,0%)" x1="336.9" x2="336.9" y1="3.3767" y2="3.1947" /><line stroke="rgb(0%,0%,0%)" x1="336.9" x2="336.9" y1="97.3955" y2="97.1313" /><line stroke="rgb(0%,0%,0%)" x1="336.9" x2="336.9" y1="97.1313" y2="96.8443" /><line stroke="rgb(0%,0%,0%)" x1="336.9" x2="336.9" y1="96.8443" y2="96.552" /><line stroke="rgb(0%,0%,0%)" x1="336.9" x2="336.9" y1="96.552" y2="96.2732" /><line stroke="rgb(0%,0%,0%)" x1="230.1158" x2="226.8698" y1="100.5" y2="100.5" /><line stroke="rgb(0%,0%,0%)" x1="230.1158" x2="230.544" y1="100.5" y2="100.5" /><line stroke="rgb(0%,0%,0%)" x1="230.544" x2="243.8321" y1="100.5" y2="100.5" /><line stroke="rgb(0%,0%,0%)" x1="243.8321" x2="245.9082" y1="100.5" y2="100.5" /><line stroke="rgb(0%,0%,0%)" x1="245.9082" x2="256.461" y1="100.5" y2="100.5" /><line stroke="rgb(0%,0%,0%)" x1="256.461" x2="264.5272" y1="100.5" y2="100.5" /><line stroke="rgb(0%,0%,0%)" x1="264.5272" x2="268.1816" y1="100.5" y2="100.5" /><line stroke="rgb(0%,0%,0%)" x1="268.1816" x2="274.6878" y1="100.5" y2="100.5" /><line stroke="rgb(0%,0%,0%)" x1="274.6878" x2="279.1344" y1="100.5" y2="100.5" /><line stroke="rgb(0%,0%,0%)" x1="279.1344" x2="284.3272" y1="100.5" y2="100.5" /><line stroke="rgb(0%,0%,0%)" x1="284.3272" x2="289.4308" y1="100.5" y2="100.5" /><line stroke="rgb(0%,0%,0%)" x1="289.4308" x2="293.5253" y1="100.5" y2="100.5" /><line stroke="rgb(0%,0%,0%)" x1="293.5253" x2="297.0115" y1="100.5" y2="100.5" /><line stroke="rgb(0%,0%,0%)" x1="297.0115" x2="302.3469" y1="100.5" y2="100.5" /><line stroke="rgb(0%,0%,0%)" x1="302.3469" x2="305.1107" y1="100.5" y2="100.5" /><line stroke="rgb(0%,0%,0%)" x1="305.1107" x2="310.8449" y1="100.5" y2="100.5" /><line stroke="rgb(0%,0%,0%)" x1="310.8449" x2="313.0092" y1="100.5" y2="100.5" /><line stroke="rgb(0%,0%,0%)" x1="313.0092" x2="319.063" y1="100.5" y2="100.5" /><line stroke="rgb(0%,0%,0%)" x1="319.063" x2="320.7436" y1="100.5" y2="100.5" /><line stroke="rgb(0%,0%,0%)" x1="320.7436" x2="327.0376" y1="100.5" y2="100.5" /><line stroke="rgb(0%,0%,0%)" x1="327.0376" x2="333.6854" y1="100.5" y2="100.5" /><line stroke="rgb(0%,0%,0%)" x1="333.6854" x2="336.9" y1="100.5" y2="100.5" /><line stroke="rgb(0%,0%,0%)" x1="226.8698" x2="230.1158" y1="0.5" y2="0.5" /><line stroke="rgb(0%,0%,0%)" x1="230.1158" x2="230.544" y1="0.5" y2="0.5" /><line stroke="rgb(0%,0%,0%)" x1="230.544" x2="243.8321" y1="0.5" y2="0.5" /><line stroke="rgb(0%,0%,0%)" x1="243.8321" x2="245.9082" y1="0.5" y2="0.5" /><line stroke="rgb(0%,0%,0%)" x1="245.9082" x2="256.461" y1="0.5" y2="0.5" /><line stroke="rgb(0%,0%,0%)" x1="256.461" x2="264.5272" y1="0.5" y2="0.5" /><line stroke="rgb(0%,0%,0%)" x1="264.5272" x2="268.1816" y1="0.5" y2="0.5" /><line stroke="rgb(0%,0%,0%)" x1="268.1816" x2="274.6878" y1="0.5" y2="0.5" /><line stroke="rgb(0%,0%,0%)" x1="274.6878" x2="279.1344" y1="0.5" y2="0.5" /><line stroke="rgb(0%,0%,0%)" x1="279.1344" x2="284.3272" y1="0.5" y2="0.5" /><line stroke="rgb(0%,0%,0%)" x1="284.3272" x2="289.4308" y1="0.5" y2="0.5" /><line stroke="rgb(0%,0%,0%)" x1="289.4308" x2="293.5253" y1="0.5" y2="0.5" /><line stroke="rgb(0%,0%,0%)" x1="293.5253" x2="297.0115" y1="0.5" y2="0.5" /><line stroke="rgb(0%,0%,0%)" x1="297.0115" x2="302.3469" y1="0.5" y2="0.5" /><line stroke="rgb(0%,0%,0%)" x1="302.3469" x2="305.1107" y1="0.5" y2="0.5" /><line stroke="rgb(0%,0%,0%)" x1="305.1107" x2="310.8449" y1="0.5" y2="0.5" /><line stroke="rgb(0%,0%,0%)" x1="310.8449" x2="313.0092" y1="0.5" y2="0.5" /><line stroke="rgb(0%,0%,0%)" x1="313.0092" x2="319.063" y1="0.5" y2="0.5" /><line stroke="rgb(0%,0%,0%)" x1="319.063" x2="320.7436" y1="0.5" y2="0.5" /><line stroke="rgb(0%,0%,0%)" x1="320.7436" x2="327.0376" y1="0.5" y2="0.5" /><line stroke="rgb(0%,0%,0%)" x1="327.0376" x2="333.6854" y1="0.5" y2="0.5" /><line stroke="rgb(0%,0%,0%)" x1="336.9" x2="333.6854" y1="0.5" y2="0.5" /></svg>