<?xml version="1.0" encoding="utf-8" ?>
<svg baseProfile="tiny" height="100%" version="1.2" width="100%" xmlns="http://www.w3.org/2000/svg" xmlns:ev="http://www.w3.org/2001/xml-events" xmlns:xlink="http://www.w3.org/1999/xlink"><defs /><line stroke="rgb(0%,0%,0%)" x1="227.5057" x2="227.5057" y1="100.5" y2="89.845" /><line stroke="rgb(0%,0%,0%)" x1="227.5057" x2="227.5057" y1="89.845" y2="0.5" /><line stroke="rgb(0%,0%,0%)" x1="336.9" x2="336.9" y1="3.5669" y2="0.5" /><line stroke="rgb(0%,0%,0%)" x1="336.9" x2="336.9" y1="95.6894" y2="5.3106" /><line stroke="rgb(0%,0%,0%)" x1="336.9" x2="336.9" y1="5.3106" y2="4.9933" /><line stroke="rgb(0%,0%,0%)" x1="336.9" x2="336.9" y1="4.9933" y2="4.6606" /><line stroke="rgb(0%,0%,0%)" x1="336.9" x2="336.9" y1="100.5" y2="97.4331" /><line stroke="rgb(0%,0%,0%)" x1="336.9" x2="336.9" y1="97.4331" y2="97.226" /><line stroke="rgb(0%,0%,0%)" x1="336.9" x2="336.9" y1="97.226" y2="96.9667" /><line stroke="rgb(0%,0%,0%)" x1="336.9" x2="336.9" y1="4.6606" y2="4.334" /><line stroke="rgb(0%,0%,0%)" x1="336.9" x2="336.9" y1="4.334" y2="4.0333" /><line stroke="rgb(0%,0%,0%)" x1="336.9" x2="336.9" y1="4.0333" y2="3.774" /><line stroke="rgb(0%,0%,0%)" x1="336.9" x2="336.9" y1="3.774" y2="3.5669" /><line stroke="rgb(0%,0%,0%)" x1="336.9" x2="336.9" y1="96.9667" y2="96.666" /><line stroke="rgb(0%,0%,0%)" x1="336.9" x2="336.9" y1="96.666" y2="96.3394" /><line stroke="rgb(0%,0%,0%)" x1="336.9" x2="336.9" y1="96.3394" y2="96.0067" /><line stroke="rgb(0%,0%,0%)" x1="336.9" x2="336.9" y1="96.0067" y2="95.6894" /><line stroke="rgb(0%,0%,0%)" x1="229.0419" x2="227.5057" y1="100.5" y2="100.5" /><line stroke="rgb(0%,0%,0%)" x1="229.0419" x2="229.2446" y1="100.5" y2="100.5" /><line stroke="rgb(0%,0%,0%)" x1="229.2446" x2="242.8435" y1="100.5" y2="100.5" /><line stroke="rgb(0%,0%,0%)" x1="242.8435" x2="244.711" y1="100.5" y2="100.5" /><line stroke="rgb(0%,0%,0%)" x1="244.711" x2="255.5499" y1="100.5" y2="100.5" /><line stroke="rgb(0%,0%,0%)" x1="255.5499" x2="263.8348" y1="100.5" y2="100.5" /><line stroke="rgb(0%,0%,0%)" x1="263.8348" x2="267.3419" y1="100.5" y2="100.5" /><line stroke="rgb(0%,0%,0%)" x1="267.3419" x2="274.0553" y1="100.5" y2="100.5" /><line stroke="rgb(0%,0%,0%)" x1="274.0553" x2="278.3609" y1="100.5" y2="100.5" /><line stroke="rgb(0%,0%,0%)" x1="278.3609" x2="283.7508" y1="100.5" y2="100.5" /><line stroke="rgb(0%,0%,0%)" x1="283.7508" x2="288.7192" y1="100.5" y2="100.5" /><line stroke="rgb(0%,0%,0%)" x1="288.7192" x2="293.0019" y1="100.5" y2="100.5" /><line stroke="rgb(0%,0%,0%)" x1="293.0019" x2="296.6483" y1="100.5" y2="100.5" /><line stroke="rgb(0%,0%,0%)" x1="296.6483" x2="301.8738" y1="100.5" y2="100.5" /><line stroke="rgb(0%,0%,0%)" x1="301.8738" x2="304.7937" y1="100.5" y2="100.5" /><line stroke="rgb(0%,0%,0%)" x1="304.7937" x2="310.4199" y1="100.5" y2="100.5" /><line stroke="rgb(0%,0%,0%)" x1="310.4199" x2="312.7366" y1="100.5" y2="100.5" /><line stroke="rgb(0%,0%,0%)" x1="312.7366" x2="318.6843" y1="100.5" y2="100.5" /><line stroke="rgb(0%,0%,0%)" x1="318.6843" x2="320.5142" y1="100.5" y2="100.5" /><line stroke="rgb(0%,0%,0%)" x1="320.5142" x2="326.7038" y1="100.5" y2="100.5" /><line stroke="rgb(0%,0%,0%)" x1="326.7038" x2="333.2414" y1="100.5" y2="100.5" /><line stroke="rgb(0%,0%,0%)" x1="333.2414" x2="336.9" y1="100.5" y2="100.5" /><line stroke="rgb(0%,0%,0%)" x1="227.5057" x2="229.0419" y1="0.5" y2="0.5" /><line stroke="rgb(0%,0%,0%)" x1="229.0419" x2="229.2446" y1="0.5" y2="0.5" /><line stroke="rgb(0%,0%,0%)" x1="229.2446" x2="242.8435" y1="0.5" y2="0.5" /><line stroke="rgb(0%,0%,0%)" x1="242.8435" x2="244.711" y1="0.5" y2="0.5" /><line stroke="rgb(0%,0%,0%)" x1="244.711" x2="255.5499" y1="0.5" y2="0.5" /><line stroke="rgb(0%,0%,0%)" x1="255.5499" x2="263.8348" y1="0.5" y2="0.5" /><line stroke="rgb(0%,0%,0%)" x1="263.8348" x2="267.3419" y1="0.5" y2="0.5" /><line stroke="rgb(0%,0%,0%)" x1="267.3419" x2="274.0553" y1="0.5" y2="0.5" /><line stroke="rgb(0%,0%,0%)" x1="274.0553" x2="278.3609" y1="0.5" y2="0.5" /><line stroke="rgb(0%,0%,0%)" x1="278.3609" x2="283.7508" y1="0.5" y2="0.5" /><line stroke="rgb(0%,0%,0%)" x1="283.7508" x2="288.7192" y1="0.5" y2="0.5" /><line stroke="rgb(0%,0%,0%)" x1="288.7192" x2="293.0019" y1="0.5" y2="0.5" /><line stroke="rgb(0%,0%,0%)" x1="293.0019" x2="296.6483" y1="0.5" y2="0.5" /><line stroke="rgb(0%,0%,0%)" x1="296.6483" x2="301.8738" y1="0.5" y2="0.5" /><line stroke="rgb(0%,0%,0%)" x1="301.8738" x2="304.7937" y1="0.5" y2="0.5" /><line stroke="rgb(0%,0%,0%)" x1="304.7937" x2="310.4199" y1="0.5" y2="0.5" /><line stroke="rgb(0%,0%,0%)" x1="310.4199" x2="312.7366" y1="0.5" y2="0.5" /><line stroke="rgb(0%,0%,0%)" x1="312.7366" x2="318.6843" y1="0.5" y2="0.5" /><line stroke="rgb(0%,0%,0%)" x1="318.6843" x2="320.5142" y1="0.5" y2="0.5" /><line stroke="rgb(0%,0%,0%)" x1="320.5142" x2="326.7038" y1="0.5" y2="0.5" /><line stroke="rgb(0%,0%,0%)" x1="326.7038" x2="333.2414" y1="0.5" y2="0.5" /><line stroke="rgb(0%,0%,0%)" x1="336.9" x2="333.2414" y1="0.5" y2="0.5" /></svg>