<?xml version="1.0" encoding="utf-8" ?>
<svg baseProfile="tiny" height="100%" version="1.2" width="100%" xmlns="http://www.w3.org/2000/svg" xmlns:ev="http://www.w3.org/2001/xml-events" xmlns:xlink="http://www.w3.org/1999/xlink"><defs /><line stroke="rgb(0%,0%,0%)" x1="228.1515" x2="228.1515" y1="100.5" y2="1.7593" /><line stroke="rgb(0%,0%,0%)" x1="228.1515" x2="228.1515" y1="1.7593" y2="0.5" /><line stroke="rgb(0%,0%,0%)" x1="336.9" x2="336.9" y1="3.9391" y2="0.5" /><line stroke="rgb(0%,0%,0%)" x1="336.9" x2="336.9" y1="95.1056" y2="5.8944" /><line stroke="rgb(0%,0%,0%)" x1="336.9" x2="336.9" y1="5.8944" y2="5.5386" /><line stroke="rgb(0%,0%,0%)" x1="336.9" x2="336.9" y1="5.5386" y2="5.1655" /><line stroke="rgb(0%,0%,0%)" x1="336.9" x2="336.9" y1="100.5" y2="97.0609" /><line stroke="rgb(0%,0%,0%)" x1="336.9" x2="336.9" y1="97.0609" y2="96.8286" /><line stroke="rgb(0%,0%,0%)" x1="336.9" x2="336.9" y1="96.8286" y2="96.5379" /><line stroke="rgb(0%,0%,0%)" x1="336.9" x2="336.9" y1="5.1655" y2="4.7993" /><line stroke="rgb(0%,0%,0%)" x1="336.9" x2="336.9" y1="4.7993" y2="4.4621" /><line stroke="rgb(0%,0%,0%)" x1="336.9" x2="336.9" y1="4.4621" y2="4.1714" /><line stroke="rgb(0%,0%,0%)" x1="336.9" x2="336.9" y1="4.1714" y2="3.9391" /><line stroke="rgb(0%,0%,0%)" x1="336.9" x2="336.9" y1="96.5379" y2="96.2007" /><line stroke="rgb(0%,0%,0%)" x1="336.9" x2="336.9" y1="96.2007" y2="95.8345" /><line stroke="rgb(0%,0%,0%)" x1="336.9" x2="336.9" y1="95.8345" y2="95.4614" /><line stroke="rgb(0%,0%,0%)" x1="336.9" x2="336.9" y1="95.4614" y2="95.1056" /><line stroke="rgb(0%,0%,0%)" x1="241.8548" x2="228.1515" y1="100.5" y2="100.5" /><line stroke="rgb(0%,0%,0%)" x1="241.8548" x2="243.5138" y1="100.5" y2="100.5" /><line stroke="rgb(0%,0%,0%)" x1="243.5138" x2="254.6389" y1="100.5" y2="100.5" /><line stroke="rgb(0%,0%,0%)" x1="254.6389" x2="263.1425" y1="100.5" y2="100.5" /><line stroke="rgb(0%,0%,0%)" x1="263.1425" x2="266.5022" y1="100.5" y2="100.5" /><line stroke="rgb(0%,0%,0%)" x1="266.5022" x2="273.4229" y1="100.5" y2="100.5" /><line stroke="rgb(0%,0%,0%)" x1="273.4229" x2="277.5874" y1="100.5" y2="100.5" /><line stroke="rgb(0%,0%,0%)" x1="277.5874" x2="283.1745" y1="100.5" y2="100.5" /><line stroke="rgb(0%,0%,0%)" x1="283.1745" x2="288.0076" y1="100.5" y2="100.5" /><line stroke="rgb(0%,0%,0%)" x1="288.0076" x2="292.4785" y1="100.5" y2="100.5" /><line stroke="rgb(0%,0%,0%)" x1="292.4785" x2="296.2851" y1="100.5" y2="100.5" /><line stroke="rgb(0%,0%,0%)" x1="296.2851" x2="301.4007" y1="100.5" y2="100.5" /><line stroke="rgb(0%,0%,0%)" x1="301.4007" x2="304.4767" y1="100.5" y2="100.5" /><line stroke="rgb(0%,0%,0%)" x1="304.4767" x2="309.9949" y1="100.5" y2="100.5" /><line stroke="rgb(0%,0%,0%)" x1="309.9949" x2="312.4641" y1="100.5" y2="100.5" /><line stroke="rgb(0%,0%,0%)" x1="312.4641" x2="318.3055" y1="100.5" y2="100.5" /><line stroke="rgb(0%,0%,0%)" x1="318.3055" x2="320.2847" y1="100.5" y2="100.5" /><line stroke="rgb(0%,0%,0%)" x1="320.2847" x2="326.37" y1="100.5" y2="100.5" /><line stroke="rgb(0%,0%,0%)" x1="326.37" x2="332.7973" y1="100.5" y2="100.5" /><line stroke="rgb(0%,0%,0%)" x1="332.7973" x2="336.9" y1="100.5" y2="100.5" /><line stroke="rgb(0%,0%,0%)" x1="228.1515" x2="241.8548" y1="0.5" y2="0.5" /><line stroke="rgb(0%,0%,0%)" x1="241.8548" x2="243.5138" y1="0.5" y2="0.5" /><line stroke="rgb(0%,0%,0%)" x1="243.5138" x2="254.6389" y1="0.5" y2="0.5" /><line stroke="rgb(0%,0%,0%)" x1="254.6389" x2="263.1425" y1="0.5" y2="0.5" /><line stroke="rgb(0%,0%,0%)" x1="263.1425" x2="266.5022" y1="0.5" y2="0.5" /><line stroke="rgb(0%,0%,0%)" x1="266.5022" x2="273.4229" y1="0.5" y2="0.5" /><line stroke="rgb(0%,0%,0%)" x1="273.4229" x2="277.5874" y1="0.5" y2="0.5" /><line stroke="rgb(0%,0%,0%)" x1="277.5874" x2="283.1745" y1="0.5" y2="0.5" /><line stroke="rgb(0%,0%,0%)" x1="283.1745" x2="288.0076" y1="0.5" y2="0.5" /><line stroke="rgb(0%,0%,0%)" x1="288.0076" x2="292.4785" y1="0.5" y2="0.5" /><line stroke="rgb(0%,0%,0%)" x1="292.4785" x2="296.2851" y1="0.5" y2="0.5" /><line stroke="rgb(0%,0%,0%)" x1="296.2851" x2="301.4007" y1="0.5" y2="0.5" /><line stroke="rgb(0%,0%,0%)" x1="301.4007" x2="304.4767" y1="0.5" y2="0.5" /><line stroke="rgb(0%,0%,0%)" x1="304.4767" x2="309.9949" y1="0.5" y2="0.5" /><line stroke="rgb(0%,0%,0%)" x1="309.9949" x2="312.4641" y1="0.5" y2="0.5" /><line stroke="rgb(0%,0%,0%)" x1="312.4641" x2="318.3055" y1="0.5" y2="0.5" /><line stroke="rgb(0%,0%,0%)" x1="318.3055" x2="320.2847" y1="0.5" y2="0.5" /><line stroke="rgb(0%,0%,0%)" x1="320.2847" x2="326.37" y1="0.5" y2="0.5" /><line stroke="rgb(0%,0%,0%)" x1="326.37" x2="332.7973" y1="0.5" y2="0.5" /><line stroke="rgb(0%,0%,0%)" x1="336.9" x2="332.7973" y1="0.5" y2="0.5" /></svg>