<?xml version="1.0" encoding="utf-8" ?>
<svg baseProfile="tiny" height="100%" version="1.2" width="100%" xmlns="http://www.w3.org/2000/svg" xmlns:ev="http://www.w3.org/2001/xml-events" xmlns:xlink="http://www.w3.org/1999/xlink"><defs /><line stroke="rgb(0%,0%,0%)" x1="228.8853" x2="228.8853" y1="100.5" y2="14.1706" /><line stroke="rgb(0%,0%,0%)" x1="228.8853" x2="228.8853" y1="14.1706" y2="0.5" /><line stroke="rgb(0%,0%,0%)" x1="336.9" x2="336.9" y1="4.3113" y2="0.5" /><line stroke="rgb(0%,0%,0%)" x1="336.9" x2="336.9" y1="94.5218" y2="6.4782" /><line stroke="rgb(0%,0%,0%)" x1="336.9" x2="336.9" y1="6.4782" y2="6.0839" /><line stroke="rgb(0%,0%,0%)" x1="336.9" x2="336.9" y1="6.0839" y2="5.6704" /><line stroke="rgb(0%,0%,0%)" x1="336.9" x2="336.9" y1="100.5" y2="96.6887" /><line stroke="rgb(0%,0%,0%)" x1="336.9" x2="336.9" y1="96.6887" y2="96.4313" /><line stroke="rgb(0%,0%,0%)" x1="336.9" x2="336.9" y1="96.4313" y2="96.1091" /><line stroke="rgb(0%,0%,0%)" x1="336.9" x2="336.9" y1="5.6704" y2="5.2646" /><line stroke="rgb(0%,0%,0%)" x1="336.9" x2="336.9" y1="5.2646" y2="4.8909" /><line stroke="rgb(0%,0%,0%)" x1="336.9" x2="336.9" y1="4.8909" y2="4.5687" /><line stroke="rgb(0%,0%,0%)" x1="336.9" x2="336.9" y1="4.5687" y2="4.3113" /><line stroke="rgb(0%,0%,0%)" x1="336.9" x2="336.9" y1="96.1091" y2="95.7354" /><line stroke="rgb(0%,0%,0%)" x1="336.9" x2="336.9" y1="95.7354" y2="95.3296" /><line stroke="rgb(0%,0%,0%)" x1="336.9" x2="336.9" y1="95.3296" y2="94.9161" /><line stroke="rgb(0%,0%,0%)" x1="336.9" x2="336.9" y1="94.9161" y2="94.5218" /><line stroke="rgb(0%,0%,0%)" x1="240.8662" x2="228.8853" y1="100.5" y2="100.5" /><line stroke="rgb(0%,0%,0%)" x1="240.8662" x2="242.3167" y1="100.5" y2="100.5" /><line stroke="rgb(0%,0%,0%)" x1="242.3167" x2="253.7278" y1="100.5" y2="100.5" /><line stroke="rgb(0%,0%,0%)" x1="253.7278" x2="262.4501" y1="100.5" y2="100.5" /><line stroke="rgb(0%,0%,0%)" x1="262.4501" x2="265.6625" y1="100.5" y2="100.5" /><line stroke="rgb(0%,0%,0%)" x1="265.6625" x2="272.7904" y1="100.5" y2="100.5" /><line stroke="rgb(0%,0%,0%)" x1="272.7904" x2="276.8139" y1="100.5" y2="100.5" /><line stroke="rgb(0%,0%,0%)" x1="276.8139" x2="282.5981" y1="100.5" y2="100.5" /><line stroke="rgb(0%,0%,0%)" x1="282.5981" x2="287.296" y1="100.5" y2="100.5" /><line stroke="rgb(0%,0%,0%)" x1="287.296" x2="291.9551" y1="100.5" y2="100.5" /><line stroke="rgb(0%,0%,0%)" x1="291.9551" x2="295.9218" y1="100.5" y2="100.5" /><line stroke="rgb(0%,0%,0%)" x1="295.9218" x2="300.9275" y1="100.5" y2="100.5" /><line stroke="rgb(0%,0%,0%)" x1="300.9275" x2="304.1597" y1="100.5" y2="100.5" /><line stroke="rgb(0%,0%,0%)" x1="304.1597" x2="309.5698" y1="100.5" y2="100.5" /><line stroke="rgb(0%,0%,0%)" x1="309.5698" x2="312.1916" y1="100.5" y2="100.5" /><line stroke="rgb(0%,0%,0%)" x1="312.1916" x2="317.9268" y1="100.5" y2="100.5" /><line stroke="rgb(0%,0%,0%)" x1="317.9268" x2="320.0552" y1="100.5" y2="100.5" /><line stroke="rgb(0%,0%,0%)" x1="320.0552" x2="326.0362" y1="100.5" y2="100.5" /><line stroke="rgb(0%,0%,0%)" x1="326.0362" x2="332.3533" y1="100.5" y2="100.5" /><line stroke="rgb(0%,0%,0%)" x1="332.3533" x2="336.9" y1="100.5" y2="100.5" /><line stroke="rgb(0%,0%,0%)" x1="228.8853" x2="240.8662" y1="0.5" y2="0.5" /><line stroke="rgb(0%,0%,0%)" x1="240.8662" x2="242.3167" y1="0.5" y2="0.5" /><line stroke="rgb(0%,0%,0%)" x1="242.3167" x2="253.7278" y1="0.5" y2="0.5" /><line stroke="rgb(0%,0%,0%)" x1="253.7278" x2="262.4501" y1="0.5" y2="0.5" /><line stroke="rgb(0%,0%,0%)" x1="262.4501" x2="265.6625" y1="0.5" y2="0.5" /><line stroke="rgb(0%,0%,0%)" x1="265.6625" x2="272.7904" y1="0.5" y2="0.5" /><line stroke="rgb(0%,0%,0%)" x1="272.7904" x2="276.8139" y1="0.5" y2="0.5" /><line stroke="rgb(0%,0%,0%)" x1="276.8139" x2="282.5981" y1="0.5" y2="0.5" /><line stroke="rgb(0%,0%,0%)" x1="282.5981" x2="287.296" y1="0.5" y2="0.5" /><line stroke="rgb(0%,0%,0%)" x1="287.296" x2="291.9551" y1="0.5" y2="0.5" /><line stroke="rgb(0%,0%,0%)" x1="291.9551" x2="295.9218" y1="0.5" y2="0.5" /><line stroke="rgb(0%,0%,0%)" x1="295.9218" x2="300.9275" y1="0.5" y2="0.5" /><line stroke="rgb(0%,0%,0%)" x1="300.9275" x2="304.1597" y1="0.5" y2="0.5" /><line stroke="rgb(0%,0%,0%)" x1="304.1597" x2="309.5698" y1="0.5" y2="0.5" /><line stroke="rgb(0%,0%,0%)" x1="309.5698" x2="312.1916" y1="0.5" y2="0.5" /><line stroke="rgb(0%,0%,0%)" x1="312.1916" x2="317.9268" y1="0.5" y2="0.5" /><line stroke="rgb(0%,0%,0%)" x1="317.9268" x2="320.0552" y1="0.5" y2="0.5" /><line stroke="rgb(0%,0%,0%)" x1="320.0552" x2="326.0362" y1="0.5" y2="0.5" /><line stroke="rgb(0%,0%,0%)" x1="326.0362" x2="332.3533" y1="0.5" y2="0.5" /><line stroke="rgb(0%,0%,0%)" x1="336.9" x2="332.3533" y1="0.5" y2="0.5" /></svg>