<?xml version="1.0" encoding="utf-8" ?>
<svg baseProfile="tiny" height="100%" version="1.2" width="100%" xmlns="http://www.w3.org/2000/svg" xmlns:ev="http://www.w3.org/2001/xml-events" xmlns:xlink="http://www.w3.org/1999/xlink"><defs /><line stroke="rgb(0%,0%,0%)" x1="351.9" x2="351.9" y1="0.5" y2="24.2611" /><line stroke="rgb(0%,0%,0%)" x1="351.9" x2="351.9" y1="24.2611" y2="100.5" /><line stroke="rgb(0%,0%,0%)" x1="310.6349" x2="343.1652" y1="100.5" y2="100.5" /><line stroke="rgb(0%,0%,0%)" x1="343.1652" x2="344.2997" y1="100.5" y2="100.5" /><line stroke="rgb(0%,0%,0%)" x1="344.2997" x2="345.5958" y1="100.5" y2="100.5" /><line stroke="rgb(0%,0%,0%)" x1="345.5958" x2="347.0343" y1="100.5" y2="100.5" /><line stroke="rgb(0%,0%,0%)" x1="347.0343" x2="348.588" y1="100.5" y2="100.5" /><line stroke="rgb(0%,0%,0%)" x1="348.588" x2="350.223" y1="100.5" y2="100.5" /><line stroke="rgb(0%,0%,0%)" x1="350.223" x2="351.9" y1="100.5" y2="100.5" /><line stroke="rgb(0%,0%,0%)" x1="310.6349" x2="55.8359" y1="100.5" y2="100.5" /><line stroke="rgb(0%,0%,0%)" x1="55.8359" x2="0.5" y1="100.5" y2="100.5" /><line stroke="rgb(0%,0%,0%)" x1="0.5" x2="55.8359" y1="0.5" y2="0.5" /><line stroke="rgb(0%,0%,0%)" x1="55.8359" x2="310.6349" y1="0.5" y2="0.5" /><line stroke="rgb(0%,0%,0%)" x1="310.6349" x2="343.1652" y1="0.5" y2="0.5" /><line stroke="rgb(0%,0%,0%)" x1="343.1652" x2="344.2997" y1="0.5" y2="0.5" /><line stroke="rgb(0%,0%,0%)" x1="344.2997" x2="345.5958" y1="0.5" y2="0.5" /><line stroke="rgb(0%,0%,0%)" x1="345.5958" x2="347.0343" y1="0.5" y2="0.5" /><line stroke="rgb(0%,0%,0%)" x1="347.0343" x2="348.588" y1="0.5" y2="0.5" /><line stroke="rgb(0%,0%,0%)" x1="348.588" x2="350.223" y1="0.5" y2="0.5" /><line stroke="rgb(0%,0%,0%)" x1="350.223" x2="351.9" y1="0.5" y2="0.5" /><line stroke="rgb(0%,0%,0%)" x1="0.5" x2="0.5" y1="0.5" y2="73.0097" /><line stroke="rgb(0%,0%,0%)" x1="0.5" x2="0.5" y1="73.0097" y2="100.5" /><line stroke="rgb(0%,0%,0%)" x1="165.1722" x2="165.3198" y1="47.3813" y2="48.7853" /><line stroke="rgb(0%,0%,0%)" x1="165.3198" x2="165.5" y1="48.7853" y2="50.5" /><line stroke="rgb(0%,0%,0%)" x1="165.5" x2="165.3524" y1="50.5" y2="51.904" /><line stroke="rgb(0%,0%,0%)" x1="165.3524" x2="165.1722" y1="51.904" y2="53.6187" /><line stroke="rgb(0%,0%,0%)" x1="165.1722" x2="164.736" y1="53.6187" y2="54.9613" /><line stroke="rgb(0%,0%,0%)" x1="164.736" x2="164.2032" y1="54.9613" y2="56.6011" /><line stroke="rgb(0%,0%,0%)" x1="164.2032" x2="163.4973" y1="56.6011" y2="57.8237" /><line stroke="rgb(0%,0%,0%)" x1="163.4973" x2="162.6353" y1="57.8237" y2="59.3168" /><line stroke="rgb(0%,0%,0%)" x1="162.6353" x2="161.6906" y1="59.3168" y2="60.3659" /><line stroke="rgb(0%,0%,0%)" x1="161.6906" x2="160.537" y1="60.3659" y2="61.6472" /><line stroke="rgb(0%,0%,0%)" x1="160.537" x2="159.3948" y1="61.6472" y2="62.477" /><line stroke="rgb(0%,0%,0%)" x1="159.3948" x2="158.0" y1="62.477" y2="63.4904" /><line stroke="rgb(0%,0%,0%)" x1="158.0" x2="156.7103" y1="63.4904" y2="64.0646" /><line stroke="rgb(0%,0%,0%)" x1="156.7103" x2="155.1353" y1="64.0646" y2="64.7658" /><line stroke="rgb(0%,0%,0%)" x1="155.1353" x2="153.7544" y1="64.7658" y2="65.0594" /><line stroke="rgb(0%,0%,0%)" x1="153.7544" x2="152.0679" y1="65.0594" y2="65.4178" /><line stroke="rgb(0%,0%,0%)" x1="152.0679" x2="150.6562" y1="65.4178" y2="65.4178" /><line stroke="rgb(0%,0%,0%)" x1="150.6562" x2="148.9321" y1="65.4178" y2="65.4178" /><line stroke="rgb(0%,0%,0%)" x1="148.9321" x2="147.5512" y1="65.4178" y2="65.1243" /><line stroke="rgb(0%,0%,0%)" x1="147.5512" x2="145.8647" y1="65.1243" y2="64.7658" /><line stroke="rgb(0%,0%,0%)" x1="145.8647" x2="144.5751" y1="64.7658" y2="64.1916" /><line stroke="rgb(0%,0%,0%)" x1="144.5751" x2="143.0" y1="64.1916" y2="63.4904" /><line stroke="rgb(0%,0%,0%)" x1="143.0" x2="141.8579" y1="63.4904" y2="62.6606" /><line stroke="rgb(0%,0%,0%)" x1="141.8579" x2="140.463" y1="62.6606" y2="61.6472" /><line stroke="rgb(0%,0%,0%)" x1="140.463" x2="139.5184" y1="61.6472" y2="60.598" /><line stroke="rgb(0%,0%,0%)" x1="139.5184" x2="138.3647" y1="60.598" y2="59.3168" /><line stroke="rgb(0%,0%,0%)" x1="138.3647" x2="137.6589" y1="59.3168" y2="58.0942" /><line stroke="rgb(0%,0%,0%)" x1="137.6589" x2="136.7968" y1="58.0942" y2="56.6011" /><line stroke="rgb(0%,0%,0%)" x1="136.7968" x2="136.3606" y1="56.6011" y2="55.2584" /><line stroke="rgb(0%,0%,0%)" x1="136.3606" x2="135.8278" y1="55.2584" y2="53.6187" /><line stroke="rgb(0%,0%,0%)" x1="135.8278" x2="135.6802" y1="53.6187" y2="52.2147" /><line stroke="rgb(0%,0%,0%)" x1="135.6802" x2="135.5" y1="52.2147" y2="50.5" /><line stroke="rgb(0%,0%,0%)" x1="135.5" x2="135.6476" y1="50.5" y2="49.096" /><line stroke="rgb(0%,0%,0%)" x1="135.6476" x2="135.8278" y1="49.096" y2="47.3813" /><line stroke="rgb(0%,0%,0%)" x1="135.8278" x2="136.264" y1="47.3813" y2="46.0387" /><line stroke="rgb(0%,0%,0%)" x1="136.264" x2="136.7968" y1="46.0387" y2="44.3989" /><line stroke="rgb(0%,0%,0%)" x1="136.7968" x2="137.5027" y1="44.3989" y2="43.1763" /><line stroke="rgb(0%,0%,0%)" x1="137.5027" x2="138.3647" y1="43.1763" y2="41.6832" /><line stroke="rgb(0%,0%,0%)" x1="138.3647" x2="139.3094" y1="41.6832" y2="40.6341" /><line stroke="rgb(0%,0%,0%)" x1="139.3094" x2="140.463" y1="40.6341" y2="39.3528" /><line stroke="rgb(0%,0%,0%)" x1="140.463" x2="141.6052" y1="39.3528" y2="38.523" /><line stroke="rgb(0%,0%,0%)" x1="141.6052" x2="143.0" y1="38.523" y2="37.5096" /><line stroke="rgb(0%,0%,0%)" x1="143.0" x2="144.2897" y1="37.5096" y2="36.9354" /><line stroke="rgb(0%,0%,0%)" x1="144.2897" x2="145.8647" y1="36.9354" y2="36.2342" /><line stroke="rgb(0%,0%,0%)" x1="145.8647" x2="147.2456" y1="36.2342" y2="35.9406" /><line stroke="rgb(0%,0%,0%)" x1="147.2456" x2="148.9321" y1="35.9406" y2="35.5822" /><line stroke="rgb(0%,0%,0%)" x1="148.9321" x2="150.3438" y1="35.5822" y2="35.5822" /><line stroke="rgb(0%,0%,0%)" x1="150.3438" x2="152.0679" y1="35.5822" y2="35.5822" /><line stroke="rgb(0%,0%,0%)" x1="152.0679" x2="153.4488" y1="35.5822" y2="35.8757" /><line stroke="rgb(0%,0%,0%)" x1="153.4488" x2="155.1353" y1="35.8757" y2="36.2342" /><line stroke="rgb(0%,0%,0%)" x1="155.1353" x2="156.4249" y1="36.2342" y2="36.8084" /><line stroke="rgb(0%,0%,0%)" x1="156.4249" x2="158.0" y1="36.8084" y2="37.5096" /><line stroke="rgb(0%,0%,0%)" x1="158.0" x2="159.1421" y1="37.5096" y2="38.3394" /><line stroke="rgb(0%,0%,0%)" x1="159.1421" x2="160.537" y1="38.3394" y2="39.3528" /><line stroke="rgb(0%,0%,0%)" x1="160.537" x2="161.4816" y1="39.3528" y2="40.402" /><line stroke="rgb(0%,0%,0%)" x1="161.4816" x2="162.6353" y1="40.402" y2="41.6832" /><line stroke="rgb(0%,0%,0%)" x1="162.6353" x2="163.3411" y1="41.6832" y2="42.9058" /><line stroke="rgb(0%,0%,0%)" x1="163.3411" x2="164.2032" y1="42.9058" y2="44.3989" /><line stroke="rgb(0%,0%,0%)" x1="164.2032" x2="164.6394" y1="44.3989" y2="45.7416" /><line stroke="rgb(0%,0%,0%)" x1="164.6394" x2="165.1722" y1="45.7416" y2="47.3813" /><line stroke="rgb(0%,0%,0%)" x1="65.1722" x2="65.3198" y1="47.3813" y2="48.7853" /><line stroke="rgb(0%,0%,0%)" x1="65.3198" x2="65.5" y1="48.7853" y2="50.5" /><line stroke="rgb(0%,0%,0%)" x1="65.5" x2="65.3524" y1="50.5" y2="51.904" /><line stroke="rgb(0%,0%,0%)" x1="65.3524" x2="65.1722" y1="51.904" y2="53.6187" /><line stroke="rgb(0%,0%,0%)" x1="65.1722" x2="64.736" y1="53.6187" y2="54.9613" /><line stroke="rgb(0%,0%,0%)" x1="64.736" x2="64.2032" y1="54.9613" y2="56.6011" /><line stroke="rgb(0%,0%,0%)" x1="64.2032" x2="63.4973" y1="56.6011" y2="57.8237" /><line stroke="rgb(0%,0%,0%)" x1="63.4973" x2="62.6352" y1="57.8237" y2="59.3168" /><line stroke="rgb(0%,0%,0%)" x1="62.6352" x2="61.6906" y1="59.3168" y2="60.3659" /><line stroke="rgb(0%,0%,0%)" x1="61.6906" x2="60.537" y1="60.3659" y2="61.6472" /><line stroke="rgb(0%,0%,0%)" x1="60.537" x2="59.3948" y1="61.6472" y2="62.477" /><line stroke="rgb(0%,0%,0%)" x1="59.3948" x2="58.0" y1="62.477" y2="63.4904" /><line stroke="rgb(0%,0%,0%)" x1="58.0" x2="56.7103" y1="63.4904" y2="64.0646" /><line stroke="rgb(0%,0%,0%)" x1="56.7103" x2="55.1353" y1="64.0646" y2="64.7658" /><line stroke="rgb(0%,0%,0%)" x1="55.1353" x2="53.7544" y1="64.7658" y2="65.0594" /><line stroke="rgb(0%,0%,0%)" x1="53.7544" x2="52.0679" y1="65.0594" y2="65.4178" /><line stroke="rgb(0%,0%,0%)" x1="52.0679" x2="50.6562" y1="65.4178" y2="65.4178" /><line stroke="rgb(0%,0%,0%)" x1="50.6562" x2="48.9321" y1="65.4178" y2="65.4178" /><line stroke="rgb(0%,0%,0%)" x1="48.9321" x2="47.5512" y1="65.4178" y2="65.1243" /><line stroke="rgb(0%,0%,0%)" x1="47.5512" x2="45.8647" y1="65.1243" y2="64.7658" /><line stroke="rgb(0%,0%,0%)" x1="45.8647" x2="44.5751" y1="64.7658" y2="64.1916" /><line stroke="rgb(0%,0%,0%)" x1="44.5751" x2="43.0" y1="64.1916" y2="63.4904" /><line stroke="rgb(0%,0%,0%)" x1="43.0" x2="41.8579" y1="63.4904" y2="62.6606" /><line stroke="rgb(0%,0%,0%)" x1="41.8579" x2="40.463" y1="62.6606" y2="61.6472" /><line stroke="rgb(0%,0%,0%)" x1="40.463" x2="39.5184" y1="61.6472" y2="60.598" /><line stroke="rgb(0%,0%,0%)" x1="39.5184" x2="38.3647" y1="60.598" y2="59.3168" /><line stroke="rgb(0%,0%,0%)" x1="38.3647" x2="37.6589" y1="59.3168" y2="58.0942" /><line stroke="rgb(0%,0%,0%)" x1="37.6589" x2="36.7968" y1="58.0942" y2="56.6011" /><line stroke="rgb(0%,0%,0%)" x1="36.7968" x2="36.3606" y1="56.6011" y2="55.2584" /><line stroke="rgb(0%,0%,0%)" x1="36.3606" x2="35.8278" y1="55.2584" y2="53.6187" /><line stroke="rgb(0%,0%,0%)" x1="35.8278" x2="35.6802" y1="53.6187" y2="52.2147" /><line stroke="rgb(0%,0%,0%)" x1="35.6802" x2="35.5" y1="52.2147" y2="50.5" /><line stroke="rgb(0%,0%,0%)" x1="35.5" x2="35.6476" y1="50.5" y2="49.096" /><line stroke="rgb(0%,0%,0%)" x1="35.6476" x2="35.8278" y1="49.096" y2="47.3813" /><line stroke="rgb(0%,0%,0%)" x1="35.8278" x2="36.264" y1="47.3813" y2="46.0387" /><line stroke="rgb(0%,0%,0%)" x1="36.264" x2="36.7968" y1="46.0387" y2="44.3989" /><line stroke="rgb(0%,0%,0%)" x1="36.7968" x2="37.5027" y1="44.3989" y2="43.1763" /><line stroke="rgb(0%,0%,0%)" x1="37.5027" x2="38.3647" y1="43.1763" y2="41.6832" /><line stroke="rgb(0%,0%,0%)" x1="38.3647" x2="39.3094" y1="41.6832" y2="40.6341" /><line stroke="rgb(0%,0%,0%)" x1="39.3094" x2="40.463" y1="40.6341" y2="39.3528" /><line stroke="rgb(0%,0%,0%)" x1="40.463" x2="41.6052" y1="39.3528" y2="38.523" /><line stroke="rgb(0%,0%,0%)" x1="41.6052" x2="43.0" y1="38.523" y2="37.5096" /><line stroke="rgb(0%,0%,0%)" x1="43.0" x2="44.2897" y1="37.5096" y2="36.9354" /><line stroke="rgb(0%,0%,0%)" x1="44.2897" x2="45.8647" y1="36.9354" y2="36.2342" /><line stroke="rgb(0%,0%,0%)" x1="45.8647" x2="47.2456" y1="36.2342" y2="35.9406" /><line stroke="rgb(0%,0%,0%)" x1="47.2456" x2="48.9321" y1="35.9406" y2="35.5822" /><line stroke="rgb(0%,0%,0%)" x1="48.9321" x2="50.3438" y1="35.5822" y2="35.5822" /><line stroke="rgb(0%,0%,0%)" x1="50.3438" x2="52.0679" y1="35.5822" y2="35.5822" /><line stroke="rgb(0%,0%,0%)" x1="52.0679" x2="53.4488" y1="35.5822" y2="35.8757" /><line stroke="rgb(0%,0%,0%)" x1="53.4488" x2="55.1353" y1="35.8757" y2="36.2342" /><line stroke="rgb(0%,0%,0%)" x1="55.1353" x2="56.4249" y1="36.2342" y2="36.8084" /><line stroke="rgb(0%,0%,0%)" x1="56.4249" x2="58.0" y1="36.8084" y2="37.5096" /><line stroke="rgb(0%,0%,0%)" x1="58.0" x2="59.1421" y1="37.5096" y2="38.3394" /><line stroke="rgb(0%,0%,0%)" x1="59.1421" x2="60.537" y1="38.3394" y2="39.3528" /><line stroke="rgb(0%,0%,0%)" x1="60.537" x2="61.4816" y1="39.3528" y2="40.402" /><line stroke="rgb(0%,0%,0%)" x1="61.4816" x2="62.6352" y1="40.402" y2="41.6832" /><line stroke="rgb(0%,0%,0%)" x1="62.6352" x2="63.3411" y1="41.6832" y2="42.9058" /><line stroke="rgb(0%,0%,0%)" x1="63.3411" x2="64.2032" y1="42.9058" y2="44.3989" /><line stroke="rgb(0%,0%,0%)" x1="64.2032" x2="64.6394" y1="44.3989" y2="45.7416" /><line stroke="rgb(0%,0%,0%)" x1="64.6394" x2="65.1722" y1="45.7416" y2="47.3813" /></svg>