<?xml version="1.0" encoding="utf-8" ?>
<svg baseProfile="tiny" height="100%" version="1.2" width="100%" xmlns="http://www.w3.org/2000/svg" xmlns:ev="http://www.w3.org/2001/xml-events" xmlns:xlink="http://www.w3.org/1999/xlink"><defs /><line stroke="rgb(0%,0%,0%)" x1="229.6191" x2="229.6191" y1="100.5" y2="26.5818" /><line stroke="rgb(0%,0%,0%)" x1="229.6191" x2="229.6191" y1="26.5818" y2="0.5" /><line stroke="rgb(0%,0%,0%)" x1="336.9" x2="336.9" y1="4.6835" y2="0.5" /><line stroke="rgb(0%,0%,0%)" x1="336.9" x2="336.9" y1="93.938" y2="7.062" /><line stroke="rgb(0%,0%,0%)" x1="336.9" x2="336.9" y1="7.062" y2="6.6292" /><line stroke="rgb(0%,0%,0%)" x1="336.9" x2="336.9" y1="6.6292" y2="6.1754" /><line stroke="rgb(0%,0%,0%)" x1="336.9" x2="336.9" y1="100.5" y2="96.3165" /><line stroke="rgb(0%,0%,0%)" x1="336.9" x2="336.9" y1="96.3165" y2="96.034" /><line stroke="rgb(0%,0%,0%)" x1="336.9" x2="336.9" y1="96.034" y2="95.6803" /><line stroke="rgb(0%,0%,0%)" x1="336.9" x2="336.9" y1="6.1754" y2="5.7299" /><line stroke="rgb(0%,0%,0%)" x1="336.9" x2="336.9" y1="5.7299" y2="5.3197" /><line stroke="rgb(0%,0%,0%)" x1="336.9" x2="336.9" y1="5.3197" y2="4.966" /><line stroke="rgb(0%,0%,0%)" x1="336.9" x2="336.9" y1="4.966" y2="4.6835" /><line stroke="rgb(0%,0%,0%)" x1="336.9" x2="336.9" y1="95.6803" y2="95.2701" /><line stroke="rgb(0%,0%,0%)" x1="336.9" x2="336.9" y1="95.2701" y2="94.8246" /><line stroke="rgb(0%,0%,0%)" x1="336.9" x2="336.9" y1="94.8246" y2="94.3708" /><line stroke="rgb(0%,0%,0%)" x1="336.9" x2="336.9" y1="94.3708" y2="93.938" /><line stroke="rgb(0%,0%,0%)" x1="239.8775" x2="229.6191" y1="100.5" y2="100.5" /><line stroke="rgb(0%,0%,0%)" x1="239.8775" x2="241.1195" y1="100.5" y2="100.5" /><line stroke="rgb(0%,0%,0%)" x1="241.1195" x2="252.8168" y1="100.5" y2="100.5" /><line stroke="rgb(0%,0%,0%)" x1="252.8168" x2="261.7577" y1="100.5" y2="100.5" /><line stroke="rgb(0%,0%,0%)" x1="261.7577" x2="264.8228" y1="100.5" y2="100.5" /><line stroke="rgb(0%,0%,0%)" x1="264.8228" x2="272.158" y1="100.5" y2="100.5" /><line stroke="rgb(0%,0%,0%)" x1="272.158" x2="276.0404" y1="100.5" y2="100.5" /><line stroke="rgb(0%,0%,0%)" x1="276.0404" x2="282.0218" y1="100.5" y2="100.5" /><line stroke="rgb(0%,0%,0%)" x1="282.0218" x2="286.5844" y1="100.5" y2="100.5" /><line stroke="rgb(0%,0%,0%)" x1="286.5844" x2="291.4316" y1="100.5" y2="100.5" /><line stroke="rgb(0%,0%,0%)" x1="291.4316" x2="295.5586" y1="100.5" y2="100.5" /><line stroke="rgb(0%,0%,0%)" x1="295.5586" x2="300.4544" y1="100.5" y2="100.5" /><line stroke="rgb(0%,0%,0%)" x1="300.4544" x2="303.8427" y1="100.5" y2="100.5" /><line stroke="rgb(0%,0%,0%)" x1="303.8427" x2="309.1448" y1="100.5" y2="100.5" /><line stroke="rgb(0%,0%,0%)" x1="309.1448" x2="311.9191" y1="100.5" y2="100.5" /><line stroke="rgb(0%,0%,0%)" x1="311.9191" x2="317.5481" y1="100.5" y2="100.5" /><line stroke="rgb(0%,0%,0%)" x1="317.5481" x2="319.8257" y1="100.5" y2="100.5" /><line stroke="rgb(0%,0%,0%)" x1="319.8257" x2="325.7024" y1="100.5" y2="100.5" /><line stroke="rgb(0%,0%,0%)" x1="325.7024" x2="331.9093" y1="100.5" y2="100.5" /><line stroke="rgb(0%,0%,0%)" x1="331.9093" x2="336.9" y1="100.5" y2="100.5" /><line stroke="rgb(0%,0%,0%)" x1="229.6191" x2="239.8775" y1="0.5" y2="0.5" /><line stroke="rgb(0%,0%,0%)" x1="239.8775" x2="241.1195" y1="0.5" y2="0.5" /><line stroke="rgb(0%,0%,0%)" x1="241.1195" x2="252.8168" y1="0.5" y2="0.5" /><line stroke="rgb(0%,0%,0%)" x1="252.8168" x2="261.7577" y1="0.5" y2="0.5" /><line stroke="rgb(0%,0%,0%)" x1="261.7577" x2="264.8228" y1="0.5" y2="0.5" /><line stroke="rgb(0%,0%,0%)" x1="264.8228" x2="272.158" y1="0.5" y2="0.5" /><line stroke="rgb(0%,0%,0%)" x1="272.158" x2="276.0404" y1="0.5" y2="0.5" /><line stroke="rgb(0%,0%,0%)" x1="276.0404" x2="282.0218" y1="0.5" y2="0.5" /><line stroke="rgb(0%,0%,0%)" x1="282.0218" x2="286.5844" y1="0.5" y2="0.5" /><line stroke="rgb(0%,0%,0%)" x1="286.5844" x2="291.4316" y1="0.5" y2="0.5" /><line stroke="rgb(0%,0%,0%)" x1="291.4316" x2="295.5586" y1="0.5" y2="0.5" /><line stroke="rgb(0%,0%,0%)" x1="295.5586" x2="300.4544" y1="0.5" y2="0.5" /><line stroke="rgb(0%,0%,0%)" x1="300.4544" x2="303.8427" y1="0.5" y2="0.5" /><line stroke="rgb(0%,0%,0%)" x1="303.8427" x2="309.1448" y1="0.5" y2="0.5" /><line stroke="rgb(0%,0%,0%)" x1="309.1448" x2="311.9191" y1="0.5" y2="0.5" /><line stroke="rgb(0%,0%,0%)" x1="311.9191" x2="317.5481" y1="0.5" y2="0.5" /><line stroke="rgb(0%,0%,0%)" x1="317.5481" x2="319.8257" y1="0.5" y2="0.5" /><line stroke="rgb(0%,0%,0%)" x1="319.8257" x2="325.7024" y1="0.5" y2="0.5" /><line stroke="rgb(0%,0%,0%)" x1="325.7024" x2="331.9093" y1="0.5" y2="0.5" /><line stroke="rgb(0%,0%,0%)" x1="336.9" x2="331.9093" y1="0.5" y2="0.5" /></svg>