<?xml version="1.0" encoding="utf-8" ?>
<svg baseProfile="tiny" height="100%" version="1.2" width="100%" xmlns="http://www.w3.org/2000/svg" xmlns:ev="http://www.w3.org/2001/xml-events" xmlns:xlink="http://www.w3.org/1999/xlink"><defs /><line stroke="rgb(0%,0%,0%)" x1="230.3529" x2="230.3529" y1="100.5" y2="38.9931" /><line stroke="rgb(0%,0%,0%)" x1="230.3529" x2="230.3529" y1="38.9931" y2="0.5" /><line stroke="rgb(0%,0%,0%)" x1="336.9" x2="336.9" y1="5.0557" y2="0.5" /><line stroke="rgb(0%,0%,0%)" x1="336.9" x2="336.9" y1="93.3542" y2="7.6458" /><line stroke="rgb(0%,0%,0%)" x1="336.9" x2="336.9" y1="7.6458" y2="7.1745" /><line stroke="rgb(0%,0%,0%)" x1="336.9" x2="336.9" y1="7.1745" y2="6.6803" /><line stroke="rgb(0%,0%,0%)" x1="336.9" x2="336.9" y1="100.5" y2="95.9443" /><line stroke="rgb(0%,0%,0%)" x1="336.9" x2="336.9" y1="95.9443" y2="95.6366" /><line stroke="rgb(0%,0%,0%)" x1="336.9" x2="336.9" y1="95.6366" y2="95.2515" /><line stroke="rgb(0%,0%,0%)" x1="336.9" x2="336.9" y1="6.6803" y2="6.1952" /><line stroke="rgb(0%,0%,0%)" x1="336.9" x2="336.9" y1="6.1952" y2="5.7485" /><line stroke="rgb(0%,0%,0%)" x1="336.9" x2="336.9" y1="5.7485" y2="5.3634" /><line stroke="rgb(0%,0%,0%)" x1="336.9" x2="336.9" y1="5.3634" y2="5.0557" /><line stroke="rgb(0%,0%,0%)" x1="336.9" x2="336.9" y1="95.2515" y2="94.8048" /><line stroke="rgb(0%,0%,0%)" x1="336.9" x2="336.9" y1="94.8048" y2="94.3197" /><line stroke="rgb(0%,0%,0%)" x1="336.9" x2="336.9" y1="94.3197" y2="93.8255" /><line stroke="rgb(0%,0%,0%)" x1="336.9" x2="336.9" y1="93.8255" y2="93.3542" /><line stroke="rgb(0%,0%,0%)" x1="238.8889" x2="230.3529" y1="100.5" y2="100.5" /><line stroke="rgb(0%,0%,0%)" x1="238.8889" x2="239.9223" y1="100.5" y2="100.5" /><line stroke="rgb(0%,0%,0%)" x1="239.9223" x2="251.9057" y1="100.5" y2="100.5" /><line stroke="rgb(0%,0%,0%)" x1="251.9057" x2="261.0654" y1="100.5" y2="100.5" /><line stroke="rgb(0%,0%,0%)" x1="261.0654" x2="263.9831" y1="100.5" y2="100.5" /><line stroke="rgb(0%,0%,0%)" x1="263.9831" x2="271.5255" y1="100.5" y2="100.5" /><line stroke="rgb(0%,0%,0%)" x1="271.5255" x2="275.2669" y1="100.5" y2="100.5" /><line stroke="rgb(0%,0%,0%)" x1="275.2669" x2="281.4455" y1="100.5" y2="100.5" /><line stroke="rgb(0%,0%,0%)" x1="281.4455" x2="285.8729" y1="100.5" y2="100.5" /><line stroke="rgb(0%,0%,0%)" x1="285.8729" x2="290.9082" y1="100.5" y2="100.5" /><line stroke="rgb(0%,0%,0%)" x1="290.9082" x2="295.1954" y1="100.5" y2="100.5" /><line stroke="rgb(0%,0%,0%)" x1="295.1954" x2="299.9813" y1="100.5" y2="100.5" /><line stroke="rgb(0%,0%,0%)" x1="299.9813" x2="303.5257" y1="100.5" y2="100.5" /><line stroke="rgb(0%,0%,0%)" x1="303.5257" x2="308.7198" y1="100.5" y2="100.5" /><line stroke="rgb(0%,0%,0%)" x1="308.7198" x2="311.6465" y1="100.5" y2="100.5" /><line stroke="rgb(0%,0%,0%)" x1="311.6465" x2="317.1694" y1="100.5" y2="100.5" /><line stroke="rgb(0%,0%,0%)" x1="317.1694" x2="319.5962" y1="100.5" y2="100.5" /><line stroke="rgb(0%,0%,0%)" x1="319.5962" x2="325.3686" y1="100.5" y2="100.5" /><line stroke="rgb(0%,0%,0%)" x1="325.3686" x2="331.4653" y1="100.5" y2="100.5" /><line stroke="rgb(0%,0%,0%)" x1="331.4653" x2="336.9" y1="100.5" y2="100.5" /><line stroke="rgb(0%,0%,0%)" x1="230.3529" x2="238.8889" y1="0.5" y2="0.5" /><line stroke="rgb(0%,0%,0%)" x1="238.8889" x2="239.9223" y1="0.5" y2="0.5" /><line stroke="rgb(0%,0%,0%)" x1="239.9223" x2="251.9057" y1="0.5" y2="0.5" /><line stroke="rgb(0%,0%,0%)" x1="251.9057" x2="261.0654" y1="0.5" y2="0.5" /><line stroke="rgb(0%,0%,0%)" x1="261.0654" x2="263.9831" y1="0.5" y2="0.5" /><line stroke="rgb(0%,0%,0%)" x1="263.9831" x2="271.5255" y1="0.5" y2="0.5" /><line stroke="rgb(0%,0%,0%)" x1="271.5255" x2="275.2669" y1="0.5" y2="0.5" /><line stroke="rgb(0%,0%,0%)" x1="275.2669" x2="281.4455" y1="0.5" y2="0.5" /><line stroke="rgb(0%,0%,0%)" x1="281.4455" x2="285.8729" y1="0.5" y2="0.5" /><line stroke="rgb(0%,0%,0%)" x1="285.8729" x2="290.9082" y1="0.5" y2="0.5" /><line stroke="rgb(0%,0%,0%)" x1="290.9082" x2="295.1954" y1="0.5" y2="0.5" /><line stroke="rgb(0%,0%,0%)" x1="295.1954" x2="299.9813" y1="0.5" y2="0.5" /><line stroke="rgb(0%,0%,0%)" x1="299.9813" x2="303.5257" y1="0.5" y2="0.5" /><line stroke="rgb(0%,0%,0%)" x1="303.5257" x2="308.7198" y1="0.5" y2="0.5" /><line stroke="rgb(0%,0%,0%)" x1="308.7198" x2="311.6465" y1="0.5" y2="0.5" /><line stroke="rgb(0%,0%,0%)" x1="311.6465" x2="317.1694" y1="0.5" y2="0.5" /><line stroke="rgb(0%,0%,0%)" x1="317.1694" x2="319.5962" y1="0.5" y2="0.5" /><line stroke="rgb(0%,0%,0%)" x1="319.5962" x2="325.3686" y1="0.5" y2="0.5" /><line stroke="rgb(0%,0%,0%)" x1="325.3686" x2="331.4653" y1="0.5" y2="0.5" /><line stroke="rgb(0%,0%,0%)" x1="336.9" x2="331.4653" y1="0.5" y2="0.5" /></svg>