<?xml version="1.0" encoding="utf-8" ?>
<svg baseProfile="tiny" height="100%" version="1.2" width="100%" xmlns="http://www.w3.org/2000/svg" xmlns:ev="http://www.w3.org/2001/xml-events" xmlns:xlink="http://www.w3.org/1999/xlink"><defs /><line stroke="rgb(0%,0%,0%)" x1="231.0867" x2="231.0867" y1="100.5" y2="51.4044" /><line stroke="rgb(0%,0%,0%)" x1="231.0867" x2="231.0867" y1="51.4044" y2="0.5" /><line stroke="rgb(0%,0%,0%)" x1="336.9" x2="336.9" y1="5.4278" y2="0.5" /><line stroke="rgb(0%,0%,0%)" x1="336.9" x2="336.9" y1="92.7704" y2="8.2296" /><line stroke="rgb(0%,0%,0%)" x1="336.9" x2="336.9" y1="8.2296" y2="7.7198" /><line stroke="rgb(0%,0%,0%)" x1="336.9" x2="336.9" y1="7.7198" y2="7.1852" /><line stroke="rgb(0%,0%,0%)" x1="336.9" x2="336.9" y1="100.5" y2="95.5722" /><line stroke="rgb(0%,0%,0%)" x1="336.9" x2="336.9" y1="95.5722" y2="95.2393" /><line stroke="rgb(0%,0%,0%)" x1="336.9" x2="336.9" y1="95.2393" y2="94.8227" /><line stroke="rgb(0%,0%,0%)" x1="336.9" x2="336.9" y1="7.1852" y2="6.6605" /><line stroke="rgb(0%,0%,0%)" x1="336.9" x2="336.9" y1="6.6605" y2="6.1773" /><line stroke="rgb(0%,0%,0%)" x1="336.9" x2="336.9" y1="6.1773" y2="5.7607" /><line stroke="rgb(0%,0%,0%)" x1="336.9" x2="336.9" y1="5.7607" y2="5.4278" /><line stroke="rgb(0%,0%,0%)" x1="336.9" x2="336.9" y1="94.8227" y2="94.3395" /><line stroke="rgb(0%,0%,0%)" x1="336.9" x2="336.9" y1="94.3395" y2="93.8148" /><line stroke="rgb(0%,0%,0%)" x1="336.9" x2="336.9" y1="93.8148" y2="93.2802" /><line stroke="rgb(0%,0%,0%)" x1="336.9" x2="336.9" y1="93.2802" y2="92.7704" /><line stroke="rgb(0%,0%,0%)" x1="237.9002" x2="231.0867" y1="100.5" y2="100.5" /><line stroke="rgb(0%,0%,0%)" x1="237.9002" x2="238.7251" y1="100.5" y2="100.5" /><line stroke="rgb(0%,0%,0%)" x1="238.7251" x2="250.9946" y1="100.5" y2="100.5" /><line stroke="rgb(0%,0%,0%)" x1="250.9946" x2="260.373" y1="100.5" y2="100.5" /><line stroke="rgb(0%,0%,0%)" x1="260.373" x2="263.1434" y1="100.5" y2="100.5" /><line stroke="rgb(0%,0%,0%)" x1="263.1434" x2="270.8931" y1="100.5" y2="100.5" /><line stroke="rgb(0%,0%,0%)" x1="270.8931" x2="274.4934" y1="100.5" y2="100.5" /><line stroke="rgb(0%,0%,0%)" x1="274.4934" x2="280.8691" y1="100.5" y2="100.5" /><line stroke="rgb(0%,0%,0%)" x1="280.8691" x2="285.1613" y1="100.5" y2="100.5" /><line stroke="rgb(0%,0%,0%)" x1="285.1613" x2="290.3848" y1="100.5" y2="100.5" /><line stroke="rgb(0%,0%,0%)" x1="290.3848" x2="294.8322" y1="100.5" y2="100.5" /><line stroke="rgb(0%,0%,0%)" x1="294.8322" x2="299.5081" y1="100.5" y2="100.5" /><line stroke="rgb(0%,0%,0%)" x1="299.5081" x2="303.2087" y1="100.5" y2="100.5" /><line stroke="rgb(0%,0%,0%)" x1="303.2087" x2="308.2947" y1="100.5" y2="100.5" /><line stroke="rgb(0%,0%,0%)" x1="308.2947" x2="311.374" y1="100.5" y2="100.5" /><line stroke="rgb(0%,0%,0%)" x1="311.374" x2="316.7907" y1="100.5" y2="100.5" /><line stroke="rgb(0%,0%,0%)" x1="316.7907" x2="319.3668" y1="100.5" y2="100.5" /><line stroke="rgb(0%,0%,0%)" x1="319.3668" x2="325.0347" y1="100.5" y2="100.5" /><line stroke="rgb(0%,0%,0%)" x1="325.0347" x2="331.0213" y1="100.5" y2="100.5" /><line stroke="rgb(0%,0%,0%)" x1="331.0213" x2="336.9" y1="100.5" y2="100.5" /><line stroke="rgb(0%,0%,0%)" x1="231.0867" x2="237.9002" y1="0.5" y2="0.5" /><line stroke="rgb(0%,0%,0%)" x1="237.9002" x2="238.7251" y1="0.5" y2="0.5" /><line stroke="rgb(0%,0%,0%)" x1="238.7251" x2="250.9946" y1="0.5" y2="0.5" /><line stroke="rgb(0%,0%,0%)" x1="250.9946" x2="260.373" y1="0.5" y2="0.5" /><line stroke="rgb(0%,0%,0%)" x1="260.373" x2="263.1434" y1="0.5" y2="0.5" /><line stroke="rgb(0%,0%,0%)" x1="263.1434" x2="270.8931" y1="0.5" y2="0.5" /><line stroke="rgb(0%,0%,0%)" x1="270.8931" x2="274.4934" y1="0.5" y2="0.5" /><line stroke="rgb(0%,0%,0%)" x1="274.4934" x2="280.8691" y1="0.5" y2="0.5" /><line stroke="rgb(0%,0%,0%)" x1="280.8691" x2="285.1613" y1="0.5" y2="0.5" /><line stroke="rgb(0%,0%,0%)" x1="285.1613" x2="290.3848" y1="0.5" y2="0.5" /><line stroke="rgb(0%,0%,0%)" x1="290.3848" x2="294.8322" y1="0.5" y2="0.5" /><line stroke="rgb(0%,0%,0%)" x1="294.8322" x2="299.5081" y1="0.5" y2="0.5" /><line stroke="rgb(0%,0%,0%)" x1="299.5081" x2="303.2087" y1="0.5" y2="0.5" /><line stroke="rgb(0%,0%,0%)" x1="303.2087" x2="308.2947" y1="0.5" y2="0.5" /><line stroke="rgb(0%,0%,0%)" x1="308.2947" x2="311.374" y1="0.5" y2="0.5" /><line stroke="rgb(0%,0%,0%)" x1="311.374" x2="316.7907" y1="0.5" y2="0.5" /><line stroke="rgb(0%,0%,0%)" x1="316.7907" x2="319.3668" y1="0.5" y2="0.5" /><line stroke="rgb(0%,0%,0%)" x1="319.3668" x2="325.0347" y1="0.5" y2="0.5" /><line stroke="rgb(0%,0%,0%)" x1="325.0347" x2="331.0213" y1="0.5" y2="0.5" /><line stroke="rgb(0%,0%,0%)" x1="336.9" x2="331.0213" y1="0.5" y2="0.5" /></svg>