<?xml version="1.0" encoding="utf-8" ?>
<svg baseProfile="tiny" height="100%" version="1.2" width="100%" xmlns="http://www.w3.org/2000/svg" xmlns:ev="http://www.w3.org/2001/xml-events" xmlns:xlink="http://www.w3.org/1999/xlink"><defs /><line stroke="rgb(0%,0%,0%)" x1="231.8205" x2="231.8205" y1="100.5" y2="63.8157" /><line stroke="rgb(0%,0%,0%)" x1="231.8205" x2="231.8205" y1="63.8157" y2="0.5" /><line stroke="rgb(0%,0%,0%)" x1="336.9" x2="336.9" y1="5.8" y2="0.5" /><line stroke="rgb(0%,0%,0%)" x1="336.9" x2="336.9" y1="92.1866" y2="8.8134" /><line stroke="rgb(0%,0%,0%)" x1="336.9" x2="336.9" y1="8.8134" y2="8.2652" /><line stroke="rgb(0%,0%,0%)" x1="336.9" x2="336.9" y1="8.2652" y2="7.6901" /><line stroke="rgb(0%,0%,0%)" x1="336.9" x2="336.9" y1="100.5" y2="95.2" /><line stroke="rgb(0%,0%,0%)" x1="336.9" x2="336.9" y1="95.2" y2="94.842" /><line stroke="rgb(0%,0%,0%)" x1="336.9" x2="336.9" y1="94.842" y2="94.3939" /><line stroke="rgb(0%,0%,0%)" x1="336.9" x2="336.9" y1="7.6901" y2="7.1258" /><line stroke="rgb(0%,0%,0%)" x1="336.9" x2="336.9" y1="7.1258" y2="6.6061" /><line stroke="rgb(0%,0%,0%)" x1="336.9" x2="336.9" y1="6.6061" y2="6.158" /><line stroke="rgb(0%,0%,0%)" x1="336.9" x2="336.9" y1="6.158" y2="5.8" /><line stroke="rgb(0%,0%,0%)" x1="336.9" x2="336.9" y1="94.3939" y2="93.8742" /><line stroke="rgb(0%,0%,0%)" x1="336.9" x2="336.9" y1="93.8742" y2="93.3099" /><line stroke="rgb(0%,0%,0%)" x1="336.9" x2="336.9" y1="93.3099" y2="92.7348" /><line stroke="rgb(0%,0%,0%)" x1="336.9" x2="336.9" y1="92.7348" y2="92.1866" /><line stroke="rgb(0%,0%,0%)" x1="236.9116" x2="231.8205" y1="100.5" y2="100.5" /><line stroke="rgb(0%,0%,0%)" x1="236.9116" x2="237.5279" y1="100.5" y2="100.5" /><line stroke="rgb(0%,0%,0%)" x1="237.5279" x2="250.0836" y1="100.5" y2="100.5" /><line stroke="rgb(0%,0%,0%)" x1="250.0836" x2="259.6807" y1="100.5" y2="100.5" /><line stroke="rgb(0%,0%,0%)" x1="259.6807" x2="262.3037" y1="100.5" y2="100.5" /><line stroke="rgb(0%,0%,0%)" x1="262.3037" x2="270.2606" y1="100.5" y2="100.5" /><line stroke="rgb(0%,0%,0%)" x1="270.2606" x2="273.7199" y1="100.5" y2="100.5" /><line stroke="rgb(0%,0%,0%)" x1="273.7199" x2="280.2928" y1="100.5" y2="100.5" /><line stroke="rgb(0%,0%,0%)" x1="280.2928" x2="284.4497" y1="100.5" y2="100.5" /><line stroke="rgb(0%,0%,0%)" x1="284.4497" x2="289.8614" y1="100.5" y2="100.5" /><line stroke="rgb(0%,0%,0%)" x1="289.8614" x2="294.469" y1="100.5" y2="100.5" /><line stroke="rgb(0%,0%,0%)" x1="294.469" x2="299.035" y1="100.5" y2="100.5" /><line stroke="rgb(0%,0%,0%)" x1="299.035" x2="302.8917" y1="100.5" y2="100.5" /><line stroke="rgb(0%,0%,0%)" x1="302.8917" x2="307.8697" y1="100.5" y2="100.5" /><line stroke="rgb(0%,0%,0%)" x1="307.8697" x2="311.1015" y1="100.5" y2="100.5" /><line stroke="rgb(0%,0%,0%)" x1="311.1015" x2="316.412" y1="100.5" y2="100.5" /><line stroke="rgb(0%,0%,0%)" x1="316.412" x2="319.1373" y1="100.5" y2="100.5" /><line stroke="rgb(0%,0%,0%)" x1="319.1373" x2="324.7009" y1="100.5" y2="100.5" /><line stroke="rgb(0%,0%,0%)" x1="324.7009" x2="330.5773" y1="100.5" y2="100.5" /><line stroke="rgb(0%,0%,0%)" x1="330.5773" x2="336.9" y1="100.5" y2="100.5" /><line stroke="rgb(0%,0%,0%)" x1="231.8205" x2="236.9116" y1="0.5" y2="0.5" /><line stroke="rgb(0%,0%,0%)" x1="236.9116" x2="237.5279" y1="0.5" y2="0.5" /><line stroke="rgb(0%,0%,0%)" x1="237.5279" x2="250.0836" y1="0.5" y2="0.5" /><line stroke="rgb(0%,0%,0%)" x1="250.0836" x2="259.6807" y1="0.5" y2="0.5" /><line stroke="rgb(0%,0%,0%)" x1="259.6807" x2="262.3037" y1="0.5" y2="0.5" /><line stroke="rgb(0%,0%,0%)" x1="262.3037" x2="270.2606" y1="0.5" y2="0.5" /><line stroke="rgb(0%,0%,0%)" x1="270.2606" x2="273.7199" y1="0.5" y2="0.5" /><line stroke="rgb(0%,0%,0%)" x1="273.7199" x2="280.2928" y1="0.5" y2="0.5" /><line stroke="rgb(0%,0%,0%)" x1="280.2928" x2="284.4497" y1="0.5" y2="0.5" /><line stroke="rgb(0%,0%,0%)" x1="284.4497" x2="289.8614" y1="0.5" y2="0.5" /><line stroke="rgb(0%,0%,0%)" x1="289.8614" x2="294.469" y1="0.5" y2="0.5" /><line stroke="rgb(0%,0%,0%)" x1="294.469" x2="299.035" y1="0.5" y2="0.5" /><line stroke="rgb(0%,0%,0%)" x1="299.035" x2="302.8917" y1="0.5" y2="0.5" /><line stroke="rgb(0%,0%,0%)" x1="302.8917" x2="307.8697" y1="0.5" y2="0.5" /><line stroke="rgb(0%,0%,0%)" x1="307.8697" x2="311.1015" y1="0.5" y2="0.5" /><line stroke="rgb(0%,0%,0%)" x1="311.1015" x2="316.412" y1="0.5" y2="0.5" /><line stroke="rgb(0%,0%,0%)" x1="316.412" x2="319.1373" y1="0.5" y2="0.5" /><line stroke="rgb(0%,0%,0%)" x1="319.1373" x2="324.7009" y1="0.5" y2="0.5" /><line stroke="rgb(0%,0%,0%)" x1="324.7009" x2="330.5773" y1="0.5" y2="0.5" /><line stroke="rgb(0%,0%,0%)" x1="336.9" x2="330.5773" y1="0.5" y2="0.5" /></svg>