<?xml version="1.0" encoding="utf-8" ?>
<svg baseProfile="tiny" height="100%" version="1.2" width="100%" xmlns="http://www.w3.org/2000/svg" xmlns:ev="http://www.w3.org/2001/xml-events" xmlns:xlink="http://www.w3.org/1999/xlink"><defs /><line stroke="rgb(0%,0%,0%)" x1="232.5543" x2="232.5543" y1="100.5" y2="76.227" /><line stroke="rgb(0%,0%,0%)" x1="232.5543" x2="232.5543" y1="76.227" y2="0.5" /><line stroke="rgb(0%,0%,0%)" x1="336.9" x2="336.9" y1="6.1722" y2="0.5" /><line stroke="rgb(0%,0%,0%)" x1="336.9" x2="336.9" y1="91.6028" y2="9.3972" /><line stroke="rgb(0%,0%,0%)" x1="336.9" x2="336.9" y1="9.3972" y2="8.8105" /><line stroke="rgb(0%,0%,0%)" x1="336.9" x2="336.9" y1="8.8105" y2="8.1951" /><line stroke="rgb(0%,0%,0%)" x1="336.9" x2="336.9" y1="100.5" y2="94.8278" /><line stroke="rgb(0%,0%,0%)" x1="336.9" x2="336.9" y1="94.8278" y2="94.4446" /><line stroke="rgb(0%,0%,0%)" x1="336.9" x2="336.9" y1="94.4446" y2="93.9651" /><line stroke="rgb(0%,0%,0%)" x1="336.9" x2="336.9" y1="8.1951" y2="7.5911" /><line stroke="rgb(0%,0%,0%)" x1="336.9" x2="336.9" y1="7.5911" y2="7.0349" /><line stroke="rgb(0%,0%,0%)" x1="336.9" x2="336.9" y1="7.0349" y2="6.5554" /><line stroke="rgb(0%,0%,0%)" x1="336.9" x2="336.9" y1="6.5554" y2="6.1722" /><line stroke="rgb(0%,0%,0%)" x1="336.9" x2="336.9" y1="93.9651" y2="93.4089" /><line stroke="rgb(0%,0%,0%)" x1="336.9" x2="336.9" y1="93.4089" y2="92.8049" /><line stroke="rgb(0%,0%,0%)" x1="336.9" x2="336.9" y1="92.8049" y2="92.1895" /><line stroke="rgb(0%,0%,0%)" x1="336.9" x2="336.9" y1="92.1895" y2="91.6028" /><line stroke="rgb(0%,0%,0%)" x1="235.923" x2="232.5543" y1="100.5" y2="100.5" /><line stroke="rgb(0%,0%,0%)" x1="235.923" x2="236.3308" y1="100.5" y2="100.5" /><line stroke="rgb(0%,0%,0%)" x1="236.3308" x2="249.1725" y1="100.5" y2="100.5" /><line stroke="rgb(0%,0%,0%)" x1="249.1725" x2="258.9883" y1="100.5" y2="100.5" /><line stroke="rgb(0%,0%,0%)" x1="258.9883" x2="261.464" y1="100.5" y2="100.5" /><line stroke="rgb(0%,0%,0%)" x1="261.464" x2="269.6282" y1="100.5" y2="100.5" /><line stroke="rgb(0%,0%,0%)" x1="269.6282" x2="272.9464" y1="100.5" y2="100.5" /><line stroke="rgb(0%,0%,0%)" x1="272.9464" x2="279.7164" y1="100.5" y2="100.5" /><line stroke="rgb(0%,0%,0%)" x1="279.7164" x2="283.7381" y1="100.5" y2="100.5" /><line stroke="rgb(0%,0%,0%)" x1="283.7381" x2="289.338" y1="100.5" y2="100.5" /><line stroke="rgb(0%,0%,0%)" x1="289.338" x2="294.1058" y1="100.5" y2="100.5" /><line stroke="rgb(0%,0%,0%)" x1="294.1058" x2="298.5619" y1="100.5" y2="100.5" /><line stroke="rgb(0%,0%,0%)" x1="298.5619" x2="302.5747" y1="100.5" y2="100.5" /><line stroke="rgb(0%,0%,0%)" x1="302.5747" x2="307.4447" y1="100.5" y2="100.5" /><line stroke="rgb(0%,0%,0%)" x1="307.4447" x2="310.8289" y1="100.5" y2="100.5" /><line stroke="rgb(0%,0%,0%)" x1="310.8289" x2="316.0333" y1="100.5" y2="100.5" /><line stroke="rgb(0%,0%,0%)" x1="316.0333" x2="318.9078" y1="100.5" y2="100.5" /><line stroke="rgb(0%,0%,0%)" x1="318.9078" x2="324.3671" y1="100.5" y2="100.5" /><line stroke="rgb(0%,0%,0%)" x1="324.3671" x2="330.1333" y1="100.5" y2="100.5" /><line stroke="rgb(0%,0%,0%)" x1="330.1333" x2="336.9" y1="100.5" y2="100.5" /><line stroke="rgb(0%,0%,0%)" x1="232.5543" x2="235.923" y1="0.5" y2="0.5" /><line stroke="rgb(0%,0%,0%)" x1="235.923" x2="236.3308" y1="0.5" y2="0.5" /><line stroke="rgb(0%,0%,0%)" x1="236.3308" x2="249.1725" y1="0.5" y2="0.5" /><line stroke="rgb(0%,0%,0%)" x1="249.1725" x2="258.9883" y1="0.5" y2="0.5" /><line stroke="rgb(0%,0%,0%)" x1="258.9883" x2="261.464" y1="0.5" y2="0.5" /><line stroke="rgb(0%,0%,0%)" x1="261.464" x2="269.6282" y1="0.5" y2="0.5" /><line stroke="rgb(0%,0%,0%)" x1="269.6282" x2="272.9464" y1="0.5" y2="0.5" /><line stroke="rgb(0%,0%,0%)" x1="272.9464" x2="279.7164" y1="0.5" y2="0.5" /><line stroke="rgb(0%,0%,0%)" x1="279.7164" x2="283.7381" y1="0.5" y2="0.5" /><line stroke="rgb(0%,0%,0%)" x1="283.7381" x2="289.338" y1="0.5" y2="0.5" /><line stroke="rgb(0%,0%,0%)" x1="289.338" x2="294.1058" y1="0.5" y2="0.5" /><line stroke="rgb(0%,0%,0%)" x1="294.1058" x2="298.5619" y1="0.5" y2="0.5" /><line stroke="rgb(0%,0%,0%)" x1="298.5619" x2="302.5747" y1="0.5" y2="0.5" /><line stroke="rgb(0%,0%,0%)" x1="302.5747" x2="307.4447" y1="0.5" y2="0.5" /><line stroke="rgb(0%,0%,0%)" x1="307.4447" x2="310.8289" y1="0.5" y2="0.5" /><line stroke="rgb(0%,0%,0%)" x1="310.8289" x2="316.0333" y1="0.5" y2="0.5" /><line stroke="rgb(0%,0%,0%)" x1="316.0333" x2="318.9078" y1="0.5" y2="0.5" /><line stroke="rgb(0%,0%,0%)" x1="318.9078" x2="324.3671" y1="0.5" y2="0.5" /><line stroke="rgb(0%,0%,0%)" x1="324.3671" x2="330.1333" y1="0.5" y2="0.5" /><line stroke="rgb(0%,0%,0%)" x1="336.9" x2="330.1333" y1="0.5" y2="0.5" /></svg>