<?xml version="1.0" encoding="utf-8" ?>
<svg baseProfile="tiny" height="100%" version="1.2" width="100%" xmlns="http://www.w3.org/2000/svg" xmlns:ev="http://www.w3.org/2001/xml-events" xmlns:xlink="http://www.w3.org/1999/xlink"><defs /><line stroke="rgb(0%,0%,0%)" x1="233.2881" x2="233.2881" y1="100.5" y2="88.6383" /><line stroke="rgb(0%,0%,0%)" x1="233.2881" x2="233.2881" y1="88.6383" y2="0.5" /><line stroke="rgb(0%,0%,0%)" x1="336.9" x2="336.9" y1="6.5444" y2="0.5" /><line stroke="rgb(0%,0%,0%)" x1="336.9" x2="336.9" y1="91.019" y2="9.981" /><line stroke="rgb(0%,0%,0%)" x1="336.9" x2="336.9" y1="9.981" y2="9.3558" /><line stroke="rgb(0%,0%,0%)" x1="336.9" x2="336.9" y1="9.3558" y2="8.7" /><line stroke="rgb(0%,0%,0%)" x1="336.9" x2="336.9" y1="100.5" y2="94.4556" /><line stroke="rgb(0%,0%,0%)" x1="336.9" x2="336.9" y1="94.4556" y2="94.0473" /><line stroke="rgb(0%,0%,0%)" x1="336.9" x2="336.9" y1="94.0473" y2="93.5363" /><line stroke="rgb(0%,0%,0%)" x1="336.9" x2="336.9" y1="8.7" y2="8.0564" /><line stroke="rgb(0%,0%,0%)" x1="336.9" x2="336.9" y1="8.0564" y2="7.4637" /><line stroke="rgb(0%,0%,0%)" x1="336.9" x2="336.9" y1="7.4637" y2="6.9527" /><line stroke="rgb(0%,0%,0%)" x1="336.9" x2="336.9" y1="6.9527" y2="6.5444" /><line stroke="rgb(0%,0%,0%)" x1="336.9" x2="336.9" y1="93.5363" y2="92.9436" /><line stroke="rgb(0%,0%,0%)" x1="336.9" x2="336.9" y1="92.9436" y2="92.3" /><line stroke="rgb(0%,0%,0%)" x1="336.9" x2="336.9" y1="92.3" y2="91.6442" /><line stroke="rgb(0%,0%,0%)" x1="336.9" x2="336.9" y1="91.6442" y2="91.019" /><line stroke="rgb(0%,0%,0%)" x1="234.9343" x2="233.2881" y1="100.5" y2="100.5" /><line stroke="rgb(0%,0%,0%)" x1="234.9343" x2="235.1336" y1="100.5" y2="100.5" /><line stroke="rgb(0%,0%,0%)" x1="235.1336" x2="248.2615" y1="100.5" y2="100.5" /><line stroke="rgb(0%,0%,0%)" x1="248.2615" x2="258.296" y1="100.5" y2="100.5" /><line stroke="rgb(0%,0%,0%)" x1="258.296" x2="260.6242" y1="100.5" y2="100.5" /><line stroke="rgb(0%,0%,0%)" x1="260.6242" x2="268.9957" y1="100.5" y2="100.5" /><line stroke="rgb(0%,0%,0%)" x1="268.9957" x2="272.1729" y1="100.5" y2="100.5" /><line stroke="rgb(0%,0%,0%)" x1="272.1729" x2="279.1401" y1="100.5" y2="100.5" /><line stroke="rgb(0%,0%,0%)" x1="279.1401" x2="283.0265" y1="100.5" y2="100.5" /><line stroke="rgb(0%,0%,0%)" x1="283.0265" x2="288.8145" y1="100.5" y2="100.5" /><line stroke="rgb(0%,0%,0%)" x1="288.8145" x2="293.7425" y1="100.5" y2="100.5" /><line stroke="rgb(0%,0%,0%)" x1="293.7425" x2="298.0887" y1="100.5" y2="100.5" /><line stroke="rgb(0%,0%,0%)" x1="298.0887" x2="302.2577" y1="100.5" y2="100.5" /><line stroke="rgb(0%,0%,0%)" x1="302.2577" x2="307.0196" y1="100.5" y2="100.5" /><line stroke="rgb(0%,0%,0%)" x1="307.0196" x2="310.5564" y1="100.5" y2="100.5" /><line stroke="rgb(0%,0%,0%)" x1="310.5564" x2="315.6546" y1="100.5" y2="100.5" /><line stroke="rgb(0%,0%,0%)" x1="315.6546" x2="318.6783" y1="100.5" y2="100.5" /><line stroke="rgb(0%,0%,0%)" x1="318.6783" x2="324.0333" y1="100.5" y2="100.5" /><line stroke="rgb(0%,0%,0%)" x1="324.0333" x2="329.6893" y1="100.5" y2="100.5" /><line stroke="rgb(0%,0%,0%)" x1="329.6893" x2="336.9" y1="100.5" y2="100.5" /><line stroke="rgb(0%,0%,0%)" x1="233.2881" x2="234.9343" y1="0.5" y2="0.5" /><line stroke="rgb(0%,0%,0%)" x1="234.9343" x2="235.1336" y1="0.5" y2="0.5" /><line stroke="rgb(0%,0%,0%)" x1="235.1336" x2="248.2615" y1="0.5" y2="0.5" /><line stroke="rgb(0%,0%,0%)" x1="248.2615" x2="258.296" y1="0.5" y2="0.5" /><line stroke="rgb(0%,0%,0%)" x1="258.296" x2="260.6242" y1="0.5" y2="0.5" /><line stroke="rgb(0%,0%,0%)" x1="260.6242" x2="268.9957" y1="0.5" y2="0.5" /><line stroke="rgb(0%,0%,0%)" x1="268.9957" x2="272.1729" y1="0.5" y2="0.5" /><line stroke="rgb(0%,0%,0%)" x1="272.1729" x2="279.1401" y1="0.5" y2="0.5" /><line stroke="rgb(0%,0%,0%)" x1="279.1401" x2="283.0265" y1="0.5" y2="0.5" /><line stroke="rgb(0%,0%,0%)" x1="283.0265" x2="288.8145" y1="0.5" y2="0.5" /><line stroke="rgb(0%,0%,0%)" x1="288.8145" x2="293.7425" y1="0.5" y2="0.5" /><line stroke="rgb(0%,0%,0%)" x1="293.7425" x2="298.0887" y1="0.5" y2="0.5" /><line stroke="rgb(0%,0%,0%)" x1="298.0887" x2="302.2577" y1="0.5" y2="0.5" /><line stroke="rgb(0%,0%,0%)" x1="302.2577" x2="307.0196" y1="0.5" y2="0.5" /><line stroke="rgb(0%,0%,0%)" x1="307.0196" x2="310.5564" y1="0.5" y2="0.5" /><line stroke="rgb(0%,0%,0%)" x1="310.5564" x2="315.6546" y1="0.5" y2="0.5" /><line stroke="rgb(0%,0%,0%)" x1="315.6546" x2="318.6783" y1="0.5" y2="0.5" /><line stroke="rgb(0%,0%,0%)" x1="318.6783" x2="324.0333" y1="0.5" y2="0.5" /><line stroke="rgb(0%,0%,0%)" x1="324.0333" x2="329.6893" y1="0.5" y2="0.5" /><line stroke="rgb(0%,0%,0%)" x1="336.9" x2="329.6893" y1="0.5" y2="0.5" /></svg>