<?xml version="1.0" encoding="utf-8" ?>
<svg baseProfile="tiny" height="100%" version="1.2" width="100%" xmlns="http://www.w3.org/2000/svg" xmlns:ev="http://www.w3.org/2001/xml-events" xmlns:xlink="http://www.w3.org/1999/xlink"><defs /><line stroke="rgb(0%,0%,0%)" x1="234.0267" x2="234.0267" y1="100.5" y2="1.0791" /><line stroke="rgb(0%,0%,0%)" x1="234.0267" x2="234.0267" y1="1.0791" y2="0.5" /><line stroke="rgb(0%,0%,0%)" x1="336.9" x2="336.9" y1="6.9166" y2="0.5" /><line stroke="rgb(0%,0%,0%)" x1="336.9" x2="336.9" y1="90.4352" y2="10.5648" /><line stroke="rgb(0%,0%,0%)" x1="336.9" x2="336.9" y1="10.5648" y2="9.9011" /><line stroke="rgb(0%,0%,0%)" x1="336.9" x2="336.9" y1="9.9011" y2="9.2049" /><line stroke="rgb(0%,0%,0%)" x1="336.9" x2="336.9" y1="100.5" y2="94.0834" /><line stroke="rgb(0%,0%,0%)" x1="336.9" x2="336.9" y1="94.0834" y2="93.65" /><line stroke="rgb(0%,0%,0%)" x1="336.9" x2="336.9" y1="93.65" y2="93.1074" /><line stroke="rgb(0%,0%,0%)" x1="336.9" x2="336.9" y1="9.2049" y2="8.5217" /><line stroke="rgb(0%,0%,0%)" x1="336.9" x2="336.9" y1="8.5217" y2="7.8926" /><line stroke="rgb(0%,0%,0%)" x1="336.9" x2="336.9" y1="7.8926" y2="7.35" /><line stroke="rgb(0%,0%,0%)" x1="336.9" x2="336.9" y1="7.35" y2="6.9166" /><line stroke="rgb(0%,0%,0%)" x1="336.9" x2="336.9" y1="93.1074" y2="92.4783" /><line stroke="rgb(0%,0%,0%)" x1="336.9" x2="336.9" y1="92.4783" y2="91.7951" /><line stroke="rgb(0%,0%,0%)" x1="336.9" x2="336.9" y1="91.7951" y2="91.0989" /><line stroke="rgb(0%,0%,0%)" x1="336.9" x2="336.9" y1="91.0989" y2="90.4352" /><line stroke="rgb(0%,0%,0%)" x1="247.3504" x2="234.0267" y1="100.5" y2="100.5" /><line stroke="rgb(0%,0%,0%)" x1="247.3504" x2="257.6036" y1="100.5" y2="100.5" /><line stroke="rgb(0%,0%,0%)" x1="257.6036" x2="259.7845" y1="100.5" y2="100.5" /><line stroke="rgb(0%,0%,0%)" x1="259.7845" x2="268.3633" y1="100.5" y2="100.5" /><line stroke="rgb(0%,0%,0%)" x1="268.3633" x2="271.3993" y1="100.5" y2="100.5" /><line stroke="rgb(0%,0%,0%)" x1="271.3993" x2="278.5637" y1="100.5" y2="100.5" /><line stroke="rgb(0%,0%,0%)" x1="278.5637" x2="282.315" y1="100.5" y2="100.5" /><line stroke="rgb(0%,0%,0%)" x1="282.315" x2="288.2911" y1="100.5" y2="100.5" /><line stroke="rgb(0%,0%,0%)" x1="288.2911" x2="293.3793" y1="100.5" y2="100.5" /><line stroke="rgb(0%,0%,0%)" x1="293.3793" x2="297.6156" y1="100.5" y2="100.5" /><line stroke="rgb(0%,0%,0%)" x1="297.6156" x2="301.9407" y1="100.5" y2="100.5" /><line stroke="rgb(0%,0%,0%)" x1="301.9407" x2="306.5946" y1="100.5" y2="100.5" /><line stroke="rgb(0%,0%,0%)" x1="306.5946" x2="310.2839" y1="100.5" y2="100.5" /><line stroke="rgb(0%,0%,0%)" x1="310.2839" x2="315.2758" y1="100.5" y2="100.5" /><line stroke="rgb(0%,0%,0%)" x1="315.2758" x2="318.4488" y1="100.5" y2="100.5" /><line stroke="rgb(0%,0%,0%)" x1="318.4488" x2="323.6995" y1="100.5" y2="100.5" /><line stroke="rgb(0%,0%,0%)" x1="323.6995" x2="329.2453" y1="100.5" y2="100.5" /><line stroke="rgb(0%,0%,0%)" x1="329.2453" x2="336.9" y1="100.5" y2="100.5" /><line stroke="rgb(0%,0%,0%)" x1="234.0267" x2="247.3504" y1="0.5" y2="0.5" /><line stroke="rgb(0%,0%,0%)" x1="247.3504" x2="257.6036" y1="0.5" y2="0.5" /><line stroke="rgb(0%,0%,0%)" x1="257.6036" x2="259.7845" y1="0.5" y2="0.5" /><line stroke="rgb(0%,0%,0%)" x1="259.7845" x2="268.3633" y1="0.5" y2="0.5" /><line stroke="rgb(0%,0%,0%)" x1="268.3633" x2="271.3993" y1="0.5" y2="0.5" /><line stroke="rgb(0%,0%,0%)" x1="271.3993" x2="278.5637" y1="0.5" y2="0.5" /><line stroke="rgb(0%,0%,0%)" x1="278.5637" x2="282.315" y1="0.5" y2="0.5" /><line stroke="rgb(0%,0%,0%)" x1="282.315" x2="288.2911" y1="0.5" y2="0.5" /><line stroke="rgb(0%,0%,0%)" x1="288.2911" x2="293.3793" y1="0.5" y2="0.5" /><line stroke="rgb(0%,0%,0%)" x1="293.3793" x2="297.6156" y1="0.5" y2="0.5" /><line stroke="rgb(0%,0%,0%)" x1="297.6156" x2="301.9407" y1="0.5" y2="0.5" /><line stroke="rgb(0%,0%,0%)" x1="301.9407" x2="306.5946" y1="0.5" y2="0.5" /><line stroke="rgb(0%,0%,0%)" x1="306.5946" x2="310.2839" y1="0.5" y2="0.5" /><line stroke="rgb(0%,0%,0%)" x1="310.2839" x2="315.2758" y1="0.5" y2="0.5" /><line stroke="rgb(0%,0%,0%)" x1="315.2758" x2="318.4488" y1="0.5" y2="0.5" /><line stroke="rgb(0%,0%,0%)" x1="318.4488" x2="323.6995" y1="0.5" y2="0.5" /><line stroke="rgb(0%,0%,0%)" x1="323.6995" x2="329.2453" y1="0.5" y2="0.5" /><line stroke="rgb(0%,0%,0%)" x1="336.9" x2="329.2453" y1="0.5" y2="0.5" /></svg>