<?xml version="1.0" encoding="utf-8" ?>
<svg baseProfile="tiny" height="100%" version="1.2" width="100%" xmlns="http://www.w3.org/2000/svg" xmlns:ev="http://www.w3.org/2001/xml-events" xmlns:xlink="http://www.w3.org/1999/xlink"><defs /><line stroke="rgb(0%,0%,0%)" x1="234.8685" x2="234.8685" y1="100.5" y2="14.1585" /><line stroke="rgb(0%,0%,0%)" x1="234.8685" x2="234.8685" y1="14.1585" y2="0.5" /><line stroke="rgb(0%,0%,0%)" x1="336.9" x2="336.9" y1="7.2888" y2="0.5" /><line stroke="rgb(0%,0%,0%)" x1="336.9" x2="336.9" y1="89.8514" y2="11.1486" /><line stroke="rgb(0%,0%,0%)" x1="336.9" x2="336.9" y1="11.1486" y2="10.4464" /><line stroke="rgb(0%,0%,0%)" x1="336.9" x2="336.9" y1="10.4464" y2="9.7098" /><line stroke="rgb(0%,0%,0%)" x1="336.9" x2="336.9" y1="100.5" y2="93.7112" /><line stroke="rgb(0%,0%,0%)" x1="336.9" x2="336.9" y1="93.7112" y2="93.2526" /><line stroke="rgb(0%,0%,0%)" x1="336.9" x2="336.9" y1="93.2526" y2="92.6786" /><line stroke="rgb(0%,0%,0%)" x1="336.9" x2="336.9" y1="9.7098" y2="8.987" /><line stroke="rgb(0%,0%,0%)" x1="336.9" x2="336.9" y1="8.987" y2="8.3214" /><line stroke="rgb(0%,0%,0%)" x1="336.9" x2="336.9" y1="8.3214" y2="7.7474" /><line stroke="rgb(0%,0%,0%)" x1="336.9" x2="336.9" y1="7.7474" y2="7.2888" /><line stroke="rgb(0%,0%,0%)" x1="336.9" x2="336.9" y1="92.6786" y2="92.013" /><line stroke="rgb(0%,0%,0%)" x1="336.9" x2="336.9" y1="92.013" y2="91.2902" /><line stroke="rgb(0%,0%,0%)" x1="336.9" x2="336.9" y1="91.2902" y2="90.5536" /><line stroke="rgb(0%,0%,0%)" x1="336.9" x2="336.9" y1="90.5536" y2="89.8514" /><line stroke="rgb(0%,0%,0%)" x1="246.4394" x2="234.8685" y1="100.5" y2="100.5" /><line stroke="rgb(0%,0%,0%)" x1="246.4394" x2="256.9113" y1="100.5" y2="100.5" /><line stroke="rgb(0%,0%,0%)" x1="256.9113" x2="258.9448" y1="100.5" y2="100.5" /><line stroke="rgb(0%,0%,0%)" x1="258.9448" x2="267.7308" y1="100.5" y2="100.5" /><line stroke="rgb(0%,0%,0%)" x1="267.7308" x2="270.6258" y1="100.5" y2="100.5" /><line stroke="rgb(0%,0%,0%)" x1="270.6258" x2="277.9874" y1="100.5" y2="100.5" /><line stroke="rgb(0%,0%,0%)" x1="277.9874" x2="281.6034" y1="100.5" y2="100.5" /><line stroke="rgb(0%,0%,0%)" x1="281.6034" x2="287.7677" y1="100.5" y2="100.5" /><line stroke="rgb(0%,0%,0%)" x1="287.7677" x2="293.0161" y1="100.5" y2="100.5" /><line stroke="rgb(0%,0%,0%)" x1="293.0161" x2="297.1425" y1="100.5" y2="100.5" /><line stroke="rgb(0%,0%,0%)" x1="297.1425" x2="301.6237" y1="100.5" y2="100.5" /><line stroke="rgb(0%,0%,0%)" x1="301.6237" x2="306.1696" y1="100.5" y2="100.5" /><line stroke="rgb(0%,0%,0%)" x1="306.1696" x2="310.0114" y1="100.5" y2="100.5" /><line stroke="rgb(0%,0%,0%)" x1="310.0114" x2="314.8971" y1="100.5" y2="100.5" /><line stroke="rgb(0%,0%,0%)" x1="314.8971" x2="318.2194" y1="100.5" y2="100.5" /><line stroke="rgb(0%,0%,0%)" x1="318.2194" x2="323.3657" y1="100.5" y2="100.5" /><line stroke="rgb(0%,0%,0%)" x1="323.3657" x2="328.8013" y1="100.5" y2="100.5" /><line stroke="rgb(0%,0%,0%)" x1="328.8013" x2="336.9" y1="100.5" y2="100.5" /><line stroke="rgb(0%,0%,0%)" x1="234.8685" x2="246.4394" y1="0.5" y2="0.5" /><line stroke="rgb(0%,0%,0%)" x1="246.4394" x2="256.9113" y1="0.5" y2="0.5" /><line stroke="rgb(0%,0%,0%)" x1="256.9113" x2="258.9448" y1="0.5" y2="0.5" /><line stroke="rgb(0%,0%,0%)" x1="258.9448" x2="267.7308" y1="0.5" y2="0.5" /><line stroke="rgb(0%,0%,0%)" x1="267.7308" x2="270.6258" y1="0.5" y2="0.5" /><line stroke="rgb(0%,0%,0%)" x1="270.6258" x2="277.9874" y1="0.5" y2="0.5" /><line stroke="rgb(0%,0%,0%)" x1="277.9874" x2="281.6034" y1="0.5" y2="0.5" /><line stroke="rgb(0%,0%,0%)" x1="281.6034" x2="287.7677" y1="0.5" y2="0.5" /><line stroke="rgb(0%,0%,0%)" x1="287.7677" x2="293.0161" y1="0.5" y2="0.5" /><line stroke="rgb(0%,0%,0%)" x1="293.0161" x2="297.1425" y1="0.5" y2="0.5" /><line stroke="rgb(0%,0%,0%)" x1="297.1425" x2="301.6237" y1="0.5" y2="0.5" /><line stroke="rgb(0%,0%,0%)" x1="301.6237" x2="306.1696" y1="0.5" y2="0.5" /><line stroke="rgb(0%,0%,0%)" x1="306.1696" x2="310.0114" y1="0.5" y2="0.5" /><line stroke="rgb(0%,0%,0%)" x1="310.0114" x2="314.8971" y1="0.5" y2="0.5" /><line stroke="rgb(0%,0%,0%)" x1="314.8971" x2="318.2194" y1="0.5" y2="0.5" /><line stroke="rgb(0%,0%,0%)" x1="318.2194" x2="323.3657" y1="0.5" y2="0.5" /><line stroke="rgb(0%,0%,0%)" x1="323.3657" x2="328.8013" y1="0.5" y2="0.5" /><line stroke="rgb(0%,0%,0%)" x1="336.9" x2="328.8013" y1="0.5" y2="0.5" /></svg>