<?xml version="1.0" encoding="utf-8" ?>
<svg baseProfile="tiny" height="100%" version="1.2" width="100%" xmlns="http://www.w3.org/2000/svg" xmlns:ev="http://www.w3.org/2001/xml-events" xmlns:xlink="http://www.w3.org/1999/xlink"><defs /><line stroke="rgb(0%,0%,0%)" x1="235.7102" x2="235.7102" y1="100.5" y2="27.2379" /><line stroke="rgb(0%,0%,0%)" x1="235.7102" x2="235.7102" y1="27.2379" y2="0.5" /><line stroke="rgb(0%,0%,0%)" x1="336.9" x2="336.9" y1="7.661" y2="0.5" /><line stroke="rgb(0%,0%,0%)" x1="336.9" x2="336.9" y1="89.2676" y2="11.7324" /><line stroke="rgb(0%,0%,0%)" x1="336.9" x2="336.9" y1="11.7324" y2="10.9917" /><line stroke="rgb(0%,0%,0%)" x1="336.9" x2="336.9" y1="10.9917" y2="10.2148" /><line stroke="rgb(0%,0%,0%)" x1="336.9" x2="336.9" y1="100.5" y2="93.339" /><line stroke="rgb(0%,0%,0%)" x1="336.9" x2="336.9" y1="93.339" y2="92.8553" /><line stroke="rgb(0%,0%,0%)" x1="336.9" x2="336.9" y1="92.8553" y2="92.2498" /><line stroke="rgb(0%,0%,0%)" x1="336.9" x2="336.9" y1="10.2148" y2="9.4523" /><line stroke="rgb(0%,0%,0%)" x1="336.9" x2="336.9" y1="9.4523" y2="8.7502" /><line stroke="rgb(0%,0%,0%)" x1="336.9" x2="336.9" y1="8.7502" y2="8.1447" /><line stroke="rgb(0%,0%,0%)" x1="336.9" x2="336.9" y1="8.1447" y2="7.661" /><line stroke="rgb(0%,0%,0%)" x1="336.9" x2="336.9" y1="92.2498" y2="91.5477" /><line stroke="rgb(0%,0%,0%)" x1="336.9" x2="336.9" y1="91.5477" y2="90.7852" /><line stroke="rgb(0%,0%,0%)" x1="336.9" x2="336.9" y1="90.7852" y2="90.0083" /><line stroke="rgb(0%,0%,0%)" x1="336.9" x2="336.9" y1="90.0083" y2="89.2676" /><line stroke="rgb(0%,0%,0%)" x1="245.5283" x2="235.7102" y1="100.5" y2="100.5" /><line stroke="rgb(0%,0%,0%)" x1="245.5283" x2="256.2189" y1="100.5" y2="100.5" /><line stroke="rgb(0%,0%,0%)" x1="256.2189" x2="258.1051" y1="100.5" y2="100.5" /><line stroke="rgb(0%,0%,0%)" x1="258.1051" x2="267.0984" y1="100.5" y2="100.5" /><line stroke="rgb(0%,0%,0%)" x1="267.0984" x2="269.8523" y1="100.5" y2="100.5" /><line stroke="rgb(0%,0%,0%)" x1="269.8523" x2="277.411" y1="100.5" y2="100.5" /><line stroke="rgb(0%,0%,0%)" x1="277.411" x2="280.8918" y1="100.5" y2="100.5" /><line stroke="rgb(0%,0%,0%)" x1="280.8918" x2="287.2443" y1="100.5" y2="100.5" /><line stroke="rgb(0%,0%,0%)" x1="287.2443" x2="292.6529" y1="100.5" y2="100.5" /><line stroke="rgb(0%,0%,0%)" x1="292.6529" x2="296.6693" y1="100.5" y2="100.5" /><line stroke="rgb(0%,0%,0%)" x1="296.6693" x2="301.3067" y1="100.5" y2="100.5" /><line stroke="rgb(0%,0%,0%)" x1="301.3067" x2="305.7445" y1="100.5" y2="100.5" /><line stroke="rgb(0%,0%,0%)" x1="305.7445" x2="309.7388" y1="100.5" y2="100.5" /><line stroke="rgb(0%,0%,0%)" x1="309.7388" x2="314.5184" y1="100.5" y2="100.5" /><line stroke="rgb(0%,0%,0%)" x1="314.5184" x2="317.9899" y1="100.5" y2="100.5" /><line stroke="rgb(0%,0%,0%)" x1="317.9899" x2="323.0319" y1="100.5" y2="100.5" /><line stroke="rgb(0%,0%,0%)" x1="323.0319" x2="328.3572" y1="100.5" y2="100.5" /><line stroke="rgb(0%,0%,0%)" x1="328.3572" x2="336.9" y1="100.5" y2="100.5" /><line stroke="rgb(0%,0%,0%)" x1="235.7102" x2="245.5283" y1="0.5" y2="0.5" /><line stroke="rgb(0%,0%,0%)" x1="245.5283" x2="256.2189" y1="0.5" y2="0.5" /><line stroke="rgb(0%,0%,0%)" x1="256.2189" x2="258.1051" y1="0.5" y2="0.5" /><line stroke="rgb(0%,0%,0%)" x1="258.1051" x2="267.0984" y1="0.5" y2="0.5" /><line stroke="rgb(0%,0%,0%)" x1="267.0984" x2="269.8523" y1="0.5" y2="0.5" /><line stroke="rgb(0%,0%,0%)" x1="269.8523" x2="277.411" y1="0.5" y2="0.5" /><line stroke="rgb(0%,0%,0%)" x1="277.411" x2="280.8918" y1="0.5" y2="0.5" /><line stroke="rgb(0%,0%,0%)" x1="280.8918" x2="287.2443" y1="0.5" y2="0.5" /><line stroke="rgb(0%,0%,0%)" x1="287.2443" x2="292.6529" y1="0.5" y2="0.5" /><line stroke="rgb(0%,0%,0%)" x1="292.6529" x2="296.6693" y1="0.5" y2="0.5" /><line stroke="rgb(0%,0%,0%)" x1="296.6693" x2="301.3067" y1="0.5" y2="0.5" /><line stroke="rgb(0%,0%,0%)" x1="301.3067" x2="305.7445" y1="0.5" y2="0.5" /><line stroke="rgb(0%,0%,0%)" x1="305.7445" x2="309.7388" y1="0.5" y2="0.5" /><line stroke="rgb(0%,0%,0%)" x1="309.7388" x2="314.5184" y1="0.5" y2="0.5" /><line stroke="rgb(0%,0%,0%)" x1="314.5184" x2="317.9899" y1="0.5" y2="0.5" /><line stroke="rgb(0%,0%,0%)" x1="317.9899" x2="323.0319" y1="0.5" y2="0.5" /><line stroke="rgb(0%,0%,0%)" x1="323.0319" x2="328.3572" y1="0.5" y2="0.5" /><line stroke="rgb(0%,0%,0%)" x1="336.9" x2="328.3572" y1="0.5" y2="0.5" /></svg>