<?xml version="1.0" encoding="utf-8" ?>
<svg baseProfile="tiny" height="100%" version="1.2" width="100%" xmlns="http://www.w3.org/2000/svg" xmlns:ev="http://www.w3.org/2001/xml-events" xmlns:xlink="http://www.w3.org/1999/xlink"><defs /><line stroke="rgb(0%,0%,0%)" x1="236.552" x2="236.552" y1="100.5" y2="40.3173" /><line stroke="rgb(0%,0%,0%)" x1="236.552" x2="236.552" y1="40.3173" y2="0.5" /><line stroke="rgb(0%,0%,0%)" x1="336.9" x2="336.9" y1="8.0332" y2="0.5" /><line stroke="rgb(0%,0%,0%)" x1="336.9" x2="336.9" y1="88.6837" y2="12.3163" /><line stroke="rgb(0%,0%,0%)" x1="336.9" x2="336.9" y1="12.3163" y2="11.537" /><line stroke="rgb(0%,0%,0%)" x1="336.9" x2="336.9" y1="11.537" y2="10.7197" /><line stroke="rgb(0%,0%,0%)" x1="336.9" x2="336.9" y1="100.5" y2="92.9668" /><line stroke="rgb(0%,0%,0%)" x1="336.9" x2="336.9" y1="92.9668" y2="92.4579" /><line stroke="rgb(0%,0%,0%)" x1="336.9" x2="336.9" y1="92.4579" y2="91.821" /><line stroke="rgb(0%,0%,0%)" x1="336.9" x2="336.9" y1="10.7197" y2="9.9176" /><line stroke="rgb(0%,0%,0%)" x1="336.9" x2="336.9" y1="9.9176" y2="9.179" /><line stroke="rgb(0%,0%,0%)" x1="336.9" x2="336.9" y1="9.179" y2="8.542" /><line stroke="rgb(0%,0%,0%)" x1="336.9" x2="336.9" y1="8.542" y2="8.0332" /><line stroke="rgb(0%,0%,0%)" x1="336.9" x2="336.9" y1="91.821" y2="91.0824" /><line stroke="rgb(0%,0%,0%)" x1="336.9" x2="336.9" y1="91.0824" y2="90.2803" /><line stroke="rgb(0%,0%,0%)" x1="336.9" x2="336.9" y1="90.2803" y2="89.463" /><line stroke="rgb(0%,0%,0%)" x1="336.9" x2="336.9" y1="89.463" y2="88.6837" /><line stroke="rgb(0%,0%,0%)" x1="244.6172" x2="236.552" y1="100.5" y2="100.5" /><line stroke="rgb(0%,0%,0%)" x1="244.6172" x2="255.5265" y1="100.5" y2="100.5" /><line stroke="rgb(0%,0%,0%)" x1="255.5265" x2="257.2654" y1="100.5" y2="100.5" /><line stroke="rgb(0%,0%,0%)" x1="257.2654" x2="266.4659" y1="100.5" y2="100.5" /><line stroke="rgb(0%,0%,0%)" x1="266.4659" x2="269.0788" y1="100.5" y2="100.5" /><line stroke="rgb(0%,0%,0%)" x1="269.0788" x2="276.8347" y1="100.5" y2="100.5" /><line stroke="rgb(0%,0%,0%)" x1="276.8347" x2="280.1802" y1="100.5" y2="100.5" /><line stroke="rgb(0%,0%,0%)" x1="280.1802" x2="286.7209" y1="100.5" y2="100.5" /><line stroke="rgb(0%,0%,0%)" x1="286.7209" x2="292.2897" y1="100.5" y2="100.5" /><line stroke="rgb(0%,0%,0%)" x1="292.2897" x2="296.1962" y1="100.5" y2="100.5" /><line stroke="rgb(0%,0%,0%)" x1="296.1962" x2="300.9897" y1="100.5" y2="100.5" /><line stroke="rgb(0%,0%,0%)" x1="300.9897" x2="305.3195" y1="100.5" y2="100.5" /><line stroke="rgb(0%,0%,0%)" x1="305.3195" x2="309.4663" y1="100.5" y2="100.5" /><line stroke="rgb(0%,0%,0%)" x1="309.4663" x2="314.1397" y1="100.5" y2="100.5" /><line stroke="rgb(0%,0%,0%)" x1="314.1397" x2="317.7604" y1="100.5" y2="100.5" /><line stroke="rgb(0%,0%,0%)" x1="317.7604" x2="322.6981" y1="100.5" y2="100.5" /><line stroke="rgb(0%,0%,0%)" x1="322.6981" x2="327.9132" y1="100.5" y2="100.5" /><line stroke="rgb(0%,0%,0%)" x1="327.9132" x2="336.9" y1="100.5" y2="100.5" /><line stroke="rgb(0%,0%,0%)" x1="236.552" x2="244.6172" y1="0.5" y2="0.5" /><line stroke="rgb(0%,0%,0%)" x1="244.6172" x2="255.5265" y1="0.5" y2="0.5" /><line stroke="rgb(0%,0%,0%)" x1="255.5265" x2="257.2654" y1="0.5" y2="0.5" /><line stroke="rgb(0%,0%,0%)" x1="257.2654" x2="266.4659" y1="0.5" y2="0.5" /><line stroke="rgb(0%,0%,0%)" x1="266.4659" x2="269.0788" y1="0.5" y2="0.5" /><line stroke="rgb(0%,0%,0%)" x1="269.0788" x2="276.8347" y1="0.5" y2="0.5" /><line stroke="rgb(0%,0%,0%)" x1="276.8347" x2="280.1802" y1="0.5" y2="0.5" /><line stroke="rgb(0%,0%,0%)" x1="280.1802" x2="286.7209" y1="0.5" y2="0.5" /><line stroke="rgb(0%,0%,0%)" x1="286.7209" x2="292.2897" y1="0.5" y2="0.5" /><line stroke="rgb(0%,0%,0%)" x1="292.2897" x2="296.1962" y1="0.5" y2="0.5" /><line stroke="rgb(0%,0%,0%)" x1="296.1962" x2="300.9897" y1="0.5" y2="0.5" /><line stroke="rgb(0%,0%,0%)" x1="300.9897" x2="305.3195" y1="0.5" y2="0.5" /><line stroke="rgb(0%,0%,0%)" x1="305.3195" x2="309.4663" y1="0.5" y2="0.5" /><line stroke="rgb(0%,0%,0%)" x1="309.4663" x2="314.1397" y1="0.5" y2="0.5" /><line stroke="rgb(0%,0%,0%)" x1="314.1397" x2="317.7604" y1="0.5" y2="0.5" /><line stroke="rgb(0%,0%,0%)" x1="317.7604" x2="322.6981" y1="0.5" y2="0.5" /><line stroke="rgb(0%,0%,0%)" x1="322.6981" x2="327.9132" y1="0.5" y2="0.5" /><line stroke="rgb(0%,0%,0%)" x1="336.9" x2="327.9132" y1="0.5" y2="0.5" /></svg>