<?xml version="1.0" encoding="utf-8" ?>
<svg baseProfile="tiny" height="100%" version="1.2" width="100%" xmlns="http://www.w3.org/2000/svg" xmlns:ev="http://www.w3.org/2001/xml-events" xmlns:xlink="http://www.w3.org/1999/xlink"><defs /><line stroke="rgb(0%,0%,0%)" x1="351.9" x2="351.9" y1="0.5" y2="25.1252" /><line stroke="rgb(0%,0%,0%)" x1="351.9" x2="351.9" y1="25.1252" y2="100.5" /><line stroke="rgb(0%,0%,0%)" x1="309.1343" x2="342.8476" y1="100.5" y2="100.5" /><line stroke="rgb(0%,0%,0%)" x1="342.8476" x2="344.0233" y1="100.5" y2="100.5" /><line stroke="rgb(0%,0%,0%)" x1="344.0233" x2="345.3666" y1="100.5" y2="100.5" /><line stroke="rgb(0%,0%,0%)" x1="345.3666" x2="346.8573" y1="100.5" y2="100.5" /><line stroke="rgb(0%,0%,0%)" x1="346.8573" x2="348.4676" y1="100.5" y2="100.5" /><line stroke="rgb(0%,0%,0%)" x1="348.4676" x2="350.162" y1="100.5" y2="100.5" /><line stroke="rgb(0%,0%,0%)" x1="350.162" x2="351.9" y1="100.5" y2="100.5" /><line stroke="rgb(0%,0%,0%)" x1="309.1343" x2="57.8481" y1="100.5" y2="100.5" /><line stroke="rgb(0%,0%,0%)" x1="57.8481" x2="0.5" y1="100.5" y2="100.5" /><line stroke="rgb(0%,0%,0%)" x1="0.5" x2="57.8481" y1="0.5" y2="0.5" /><line stroke="rgb(0%,0%,0%)" x1="57.8481" x2="309.1343" y1="0.5" y2="0.5" /><line stroke="rgb(0%,0%,0%)" x1="309.1343" x2="342.8476" y1="0.5" y2="0.5" /><line stroke="rgb(0%,0%,0%)" x1="342.8476" x2="344.0233" y1="0.5" y2="0.5" /><line stroke="rgb(0%,0%,0%)" x1="344.0233" x2="345.3666" y1="0.5" y2="0.5" /><line stroke="rgb(0%,0%,0%)" x1="345.3666" x2="346.8573" y1="0.5" y2="0.5" /><line stroke="rgb(0%,0%,0%)" x1="346.8573" x2="348.4676" y1="0.5" y2="0.5" /><line stroke="rgb(0%,0%,0%)" x1="348.4676" x2="350.162" y1="0.5" y2="0.5" /><line stroke="rgb(0%,0%,0%)" x1="350.162" x2="351.9" y1="0.5" y2="0.5" /><line stroke="rgb(0%,0%,0%)" x1="0.5" x2="0.5" y1="0.5" y2="72.01" /><line stroke="rgb(0%,0%,0%)" x1="0.5" x2="0.5" y1="72.01" y2="100.5" /><line stroke="rgb(0%,0%,0%)" x1="165.1722" x2="165.3132" y1="47.3813" y2="48.723" /><line stroke="rgb(0%,0%,0%)" x1="165.3132" x2="165.5" y1="48.723" y2="50.5" /><line stroke="rgb(0%,0%,0%)" x1="165.5" x2="165.359" y1="50.5" y2="51.8417" /><line stroke="rgb(0%,0%,0%)" x1="165.359" x2="165.1722" y1="51.8417" y2="53.6187" /><line stroke="rgb(0%,0%,0%)" x1="165.1722" x2="164.7553" y1="53.6187" y2="54.9017" /><line stroke="rgb(0%,0%,0%)" x1="164.7553" x2="164.2032" y1="54.9017" y2="56.6011" /><line stroke="rgb(0%,0%,0%)" x1="164.2032" x2="163.5287" y1="56.6011" y2="57.7694" /><line stroke="rgb(0%,0%,0%)" x1="163.5287" x2="162.6353" y1="57.7694" y2="59.3168" /><line stroke="rgb(0%,0%,0%)" x1="162.6353" x2="161.7326" y1="59.3168" y2="60.3193" /><line stroke="rgb(0%,0%,0%)" x1="161.7326" x2="160.537" y1="60.3193" y2="61.6472" /><line stroke="rgb(0%,0%,0%)" x1="160.537" x2="159.4456" y1="61.6472" y2="62.4401" /><line stroke="rgb(0%,0%,0%)" x1="159.4456" x2="158.0" y1="62.4401" y2="63.4904" /><line stroke="rgb(0%,0%,0%)" x1="158.0" x2="156.7676" y1="63.4904" y2="64.0391" /><line stroke="rgb(0%,0%,0%)" x1="156.7676" x2="155.1353" y1="64.0391" y2="64.7658" /><line stroke="rgb(0%,0%,0%)" x1="155.1353" x2="153.8157" y1="64.7658" y2="65.0463" /><line stroke="rgb(0%,0%,0%)" x1="153.8157" x2="152.0679" y1="65.0463" y2="65.4178" /><line stroke="rgb(0%,0%,0%)" x1="152.0679" x2="150.7189" y1="65.4178" y2="65.4178" /><line stroke="rgb(0%,0%,0%)" x1="150.7189" x2="148.9321" y1="65.4178" y2="65.4178" /><line stroke="rgb(0%,0%,0%)" x1="148.9321" x2="147.6125" y1="65.4178" y2="65.1373" /><line stroke="rgb(0%,0%,0%)" x1="147.6125" x2="145.8647" y1="65.1373" y2="64.7658" /><line stroke="rgb(0%,0%,0%)" x1="145.8647" x2="144.6323" y1="64.7658" y2="64.2171" /><line stroke="rgb(0%,0%,0%)" x1="144.6323" x2="143.0" y1="64.2171" y2="63.4904" /><line stroke="rgb(0%,0%,0%)" x1="143.0" x2="141.9086" y1="63.4904" y2="62.6974" /><line stroke="rgb(0%,0%,0%)" x1="141.9086" x2="140.463" y1="62.6974" y2="61.6472" /><line stroke="rgb(0%,0%,0%)" x1="140.463" x2="139.5603" y1="61.6472" y2="60.6446" /><line stroke="rgb(0%,0%,0%)" x1="139.5603" x2="138.3647" y1="60.6446" y2="59.3168" /><line stroke="rgb(0%,0%,0%)" x1="138.3647" x2="137.6902" y1="59.3168" y2="58.1485" /><line stroke="rgb(0%,0%,0%)" x1="137.6902" x2="136.7968" y1="58.1485" y2="56.6011" /><line stroke="rgb(0%,0%,0%)" x1="136.7968" x2="136.3799" y1="56.6011" y2="55.318" /><line stroke="rgb(0%,0%,0%)" x1="136.3799" x2="135.8278" y1="55.318" y2="53.6187" /><line stroke="rgb(0%,0%,0%)" x1="135.8278" x2="135.6868" y1="53.6187" y2="52.277" /><line stroke="rgb(0%,0%,0%)" x1="135.6868" x2="135.5" y1="52.277" y2="50.5" /><line stroke="rgb(0%,0%,0%)" x1="135.5" x2="135.641" y1="50.5" y2="49.1583" /><line stroke="rgb(0%,0%,0%)" x1="135.641" x2="135.8278" y1="49.1583" y2="47.3813" /><line stroke="rgb(0%,0%,0%)" x1="135.8278" x2="136.2447" y1="47.3813" y2="46.0983" /><line stroke="rgb(0%,0%,0%)" x1="136.2447" x2="136.7968" y1="46.0983" y2="44.3989" /><line stroke="rgb(0%,0%,0%)" x1="136.7968" x2="137.4713" y1="44.3989" y2="43.2306" /><line stroke="rgb(0%,0%,0%)" x1="137.4713" x2="138.3647" y1="43.2306" y2="41.6832" /><line stroke="rgb(0%,0%,0%)" x1="138.3647" x2="139.2674" y1="41.6832" y2="40.6807" /><line stroke="rgb(0%,0%,0%)" x1="139.2674" x2="140.463" y1="40.6807" y2="39.3528" /><line stroke="rgb(0%,0%,0%)" x1="140.463" x2="141.5544" y1="39.3528" y2="38.5599" /><line stroke="rgb(0%,0%,0%)" x1="141.5544" x2="143.0" y1="38.5599" y2="37.5096" /><line stroke="rgb(0%,0%,0%)" x1="143.0" x2="144.2324" y1="37.5096" y2="36.9609" /><line stroke="rgb(0%,0%,0%)" x1="144.2324" x2="145.8647" y1="36.9609" y2="36.2342" /><line stroke="rgb(0%,0%,0%)" x1="145.8647" x2="147.1843" y1="36.2342" y2="35.9537" /><line stroke="rgb(0%,0%,0%)" x1="147.1843" x2="148.9321" y1="35.9537" y2="35.5822" /><line stroke="rgb(0%,0%,0%)" x1="148.9321" x2="150.2811" y1="35.5822" y2="35.5822" /><line stroke="rgb(0%,0%,0%)" x1="150.2811" x2="152.0679" y1="35.5822" y2="35.5822" /><line stroke="rgb(0%,0%,0%)" x1="152.0679" x2="153.3875" y1="35.5822" y2="35.8627" /><line stroke="rgb(0%,0%,0%)" x1="153.3875" x2="155.1353" y1="35.8627" y2="36.2342" /><line stroke="rgb(0%,0%,0%)" x1="155.1353" x2="156.3677" y1="36.2342" y2="36.7829" /><line stroke="rgb(0%,0%,0%)" x1="156.3677" x2="158.0" y1="36.7829" y2="37.5096" /><line stroke="rgb(0%,0%,0%)" x1="158.0" x2="159.0914" y1="37.5096" y2="38.3026" /><line stroke="rgb(0%,0%,0%)" x1="159.0914" x2="160.537" y1="38.3026" y2="39.3528" /><line stroke="rgb(0%,0%,0%)" x1="160.537" x2="161.4396" y1="39.3528" y2="40.3554" /><line stroke="rgb(0%,0%,0%)" x1="161.4396" x2="162.6353" y1="40.3554" y2="41.6832" /><line stroke="rgb(0%,0%,0%)" x1="162.6353" x2="163.3098" y1="41.6832" y2="42.8515" /><line stroke="rgb(0%,0%,0%)" x1="163.3098" x2="164.2032" y1="42.8515" y2="44.3989" /><line stroke="rgb(0%,0%,0%)" x1="164.2032" x2="164.6201" y1="44.3989" y2="45.682" /><line stroke="rgb(0%,0%,0%)" x1="164.6201" x2="165.1722" y1="45.682" y2="47.3813" /><line stroke="rgb(0%,0%,0%)" x1="65.1722" x2="65.3132" y1="47.3813" y2="48.723" /><line stroke="rgb(0%,0%,0%)" x1="65.3132" x2="65.5" y1="48.723" y2="50.5" /><line stroke="rgb(0%,0%,0%)" x1="65.5" x2="65.359" y1="50.5" y2="51.8417" /><line stroke="rgb(0%,0%,0%)" x1="65.359" x2="65.1722" y1="51.8417" y2="53.6187" /><line stroke="rgb(0%,0%,0%)" x1="65.1722" x2="64.7553" y1="53.6187" y2="54.9017" /><line stroke="rgb(0%,0%,0%)" x1="64.7553" x2="64.2032" y1="54.9017" y2="56.6011" /><line stroke="rgb(0%,0%,0%)" x1="64.2032" x2="63.5287" y1="56.6011" y2="57.7694" /><line stroke="rgb(0%,0%,0%)" x1="63.5287" x2="62.6352" y1="57.7694" y2="59.3168" /><line stroke="rgb(0%,0%,0%)" x1="62.6352" x2="61.7326" y1="59.3168" y2="60.3193" /><line stroke="rgb(0%,0%,0%)" x1="61.7326" x2="60.537" y1="60.3193" y2="61.6472" /><line stroke="rgb(0%,0%,0%)" x1="60.537" x2="59.4456" y1="61.6472" y2="62.4401" /><line stroke="rgb(0%,0%,0%)" x1="59.4456" x2="58.0" y1="62.4401" y2="63.4904" /><line stroke="rgb(0%,0%,0%)" x1="58.0" x2="56.7676" y1="63.4904" y2="64.0391" /><line stroke="rgb(0%,0%,0%)" x1="56.7676" x2="55.1353" y1="64.0391" y2="64.7658" /><line stroke="rgb(0%,0%,0%)" x1="55.1353" x2="53.8157" y1="64.7658" y2="65.0463" /><line stroke="rgb(0%,0%,0%)" x1="53.8157" x2="52.0679" y1="65.0463" y2="65.4178" /><line stroke="rgb(0%,0%,0%)" x1="52.0679" x2="50.7189" y1="65.4178" y2="65.4178" /><line stroke="rgb(0%,0%,0%)" x1="50.7189" x2="48.9321" y1="65.4178" y2="65.4178" /><line stroke="rgb(0%,0%,0%)" x1="48.9321" x2="47.6125" y1="65.4178" y2="65.1373" /><line stroke="rgb(0%,0%,0%)" x1="47.6125" x2="45.8647" y1="65.1373" y2="64.7658" /><line stroke="rgb(0%,0%,0%)" x1="45.8647" x2="44.6323" y1="64.7658" y2="64.2171" /><line stroke="rgb(0%,0%,0%)" x1="44.6323" x2="43.0" y1="64.2171" y2="63.4904" /><line stroke="rgb(0%,0%,0%)" x1="43.0" x2="41.9086" y1="63.4904" y2="62.6974" /><line stroke="rgb(0%,0%,0%)" x1="41.9086" x2="40.463" y1="62.6974" y2="61.6472" /><line stroke="rgb(0%,0%,0%)" x1="40.463" x2="39.5603" y1="61.6472" y2="60.6446" /><line stroke="rgb(0%,0%,0%)" x1="39.5603" x2="38.3647" y1="60.6446" y2="59.3168" /><line stroke="rgb(0%,0%,0%)" x1="38.3647" x2="37.6902" y1="59.3168" y2="58.1485" /><line stroke="rgb(0%,0%,0%)" x1="37.6902" x2="36.7968" y1="58.1485" y2="56.6011" /><line stroke="rgb(0%,0%,0%)" x1="36.7968" x2="36.3799" y1="56.6011" y2="55.318" /><line stroke="rgb(0%,0%,0%)" x1="36.3799" x2="35.8278" y1="55.318" y2="53.6187" /><line stroke="rgb(0%,0%,0%)" x1="35.8278" x2="35.6868" y1="53.6187" y2="52.277" /><line stroke="rgb(0%,0%,0%)" x1="35.6868" x2="35.5" y1="52.277" y2="50.5" /><line stroke="rgb(0%,0%,0%)" x1="35.5" x2="35.641" y1="50.5" y2="49.1583" /><line stroke="rgb(0%,0%,0%)" x1="35.641" x2="35.8278" y1="49.1583" y2="47.3813" /><line stroke="rgb(0%,0%,0%)" x1="35.8278" x2="36.2447" y1="47.3813" y2="46.0983" /><line stroke="rgb(0%,0%,0%)" x1="36.2447" x2="36.7968" y1="46.0983" y2="44.3989" /><line stroke="rgb(0%,0%,0%)" x1="36.7968" x2="37.4713" y1="44.3989" y2="43.2306" /><line stroke="rgb(0%,0%,0%)" x1="37.4713" x2="38.3647" y1="43.2306" y2="41.6832" /><line stroke="rgb(0%,0%,0%)" x1="38.3647" x2="39.2674" y1="41.6832" y2="40.6807" /><line stroke="rgb(0%,0%,0%)" x1="39.2674" x2="40.463" y1="40.6807" y2="39.3528" /><line stroke="rgb(0%,0%,0%)" x1="40.463" x2="41.5544" y1="39.3528" y2="38.5599" /><line stroke="rgb(0%,0%,0%)" x1="41.5544" x2="43.0" y1="38.5599" y2="37.5096" /><line stroke="rgb(0%,0%,0%)" x1="43.0" x2="44.2324" y1="37.5096" y2="36.9609" /><line stroke="rgb(0%,0%,0%)" x1="44.2324" x2="45.8647" y1="36.9609" y2="36.2342" /><line stroke="rgb(0%,0%,0%)" x1="45.8647" x2="47.1843" y1="36.2342" y2="35.9537" /><line stroke="rgb(0%,0%,0%)" x1="47.1843" x2="48.9321" y1="35.9537" y2="35.5822" /><line stroke="rgb(0%,0%,0%)" x1="48.9321" x2="50.2811" y1="35.5822" y2="35.5822" /><line stroke="rgb(0%,0%,0%)" x1="50.2811" x2="52.0679" y1="35.5822" y2="35.5822" /><line stroke="rgb(0%,0%,0%)" x1="52.0679" x2="53.3875" y1="35.5822" y2="35.8627" /><line stroke="rgb(0%,0%,0%)" x1="53.3875" x2="55.1353" y1="35.8627" y2="36.2342" /><line stroke="rgb(0%,0%,0%)" x1="55.1353" x2="56.3677" y1="36.2342" y2="36.7829" /><line stroke="rgb(0%,0%,0%)" x1="56.3677" x2="58.0" y1="36.7829" y2="37.5096" /><line stroke="rgb(0%,0%,0%)" x1="58.0" x2="59.0914" y1="37.5096" y2="38.3026" /><line stroke="rgb(0%,0%,0%)" x1="59.0914" x2="60.537" y1="38.3026" y2="39.3528" /><line stroke="rgb(0%,0%,0%)" x1="60.537" x2="61.4396" y1="39.3528" y2="40.3554" /><line stroke="rgb(0%,0%,0%)" x1="61.4396" x2="62.6352" y1="40.3554" y2="41.6832" /><line stroke="rgb(0%,0%,0%)" x1="62.6352" x2="63.3098" y1="41.6832" y2="42.8515" /><line stroke="rgb(0%,0%,0%)" x1="63.3098" x2="64.2032" y1="42.8515" y2="44.3989" /><line stroke="rgb(0%,0%,0%)" x1="64.2032" x2="64.6201" y1="44.3989" y2="45.682" /><line stroke="rgb(0%,0%,0%)" x1="64.6201" x2="65.1722" y1="45.682" y2="47.3813" /></svg>