<?xml version="1.0" encoding="utf-8" ?>
<svg baseProfile="tiny" height="100%" version="1.2" width="100%" xmlns="http://www.w3.org/2000/svg" xmlns:ev="http://www.w3.org/2001/xml-events" xmlns:xlink="http://www.w3.org/1999/xlink"><defs /><line stroke="rgb(0%,0%,0%)" x1="237.3937" x2="237.3937" y1="100.5" y2="53.3967" /><line stroke="rgb(0%,0%,0%)" x1="237.3937" x2="237.3937" y1="53.3967" y2="0.5" /><line stroke="rgb(0%,0%,0%)" x1="336.9" x2="336.9" y1="8.4054" y2="0.5" /><line stroke="rgb(0%,0%,0%)" x1="336.9" x2="336.9" y1="88.0999" y2="12.9001" /><line stroke="rgb(0%,0%,0%)" x1="336.9" x2="336.9" y1="12.9001" y2="12.0823" /><line stroke="rgb(0%,0%,0%)" x1="336.9" x2="336.9" y1="12.0823" y2="11.2246" /><line stroke="rgb(0%,0%,0%)" x1="336.9" x2="336.9" y1="100.5" y2="92.5946" /><line stroke="rgb(0%,0%,0%)" x1="336.9" x2="336.9" y1="92.5946" y2="92.0606" /><line stroke="rgb(0%,0%,0%)" x1="336.9" x2="336.9" y1="92.0606" y2="91.3922" /><line stroke="rgb(0%,0%,0%)" x1="336.9" x2="336.9" y1="11.2246" y2="10.3829" /><line stroke="rgb(0%,0%,0%)" x1="336.9" x2="336.9" y1="10.3829" y2="9.6078" /><line stroke="rgb(0%,0%,0%)" x1="336.9" x2="336.9" y1="9.6078" y2="8.9394" /><line stroke="rgb(0%,0%,0%)" x1="336.9" x2="336.9" y1="8.9394" y2="8.4054" /><line stroke="rgb(0%,0%,0%)" x1="336.9" x2="336.9" y1="91.3922" y2="90.6171" /><line stroke="rgb(0%,0%,0%)" x1="336.9" x2="336.9" y1="90.6171" y2="89.7754" /><line stroke="rgb(0%,0%,0%)" x1="336.9" x2="336.9" y1="89.7754" y2="88.9177" /><line stroke="rgb(0%,0%,0%)" x1="336.9" x2="336.9" y1="88.9177" y2="88.0999" /><line stroke="rgb(0%,0%,0%)" x1="243.7062" x2="237.3937" y1="100.5" y2="100.5" /><line stroke="rgb(0%,0%,0%)" x1="243.7062" x2="254.8342" y1="100.5" y2="100.5" /><line stroke="rgb(0%,0%,0%)" x1="254.8342" x2="256.4257" y1="100.5" y2="100.5" /><line stroke="rgb(0%,0%,0%)" x1="256.4257" x2="265.8335" y1="100.5" y2="100.5" /><line stroke="rgb(0%,0%,0%)" x1="265.8335" x2="268.3053" y1="100.5" y2="100.5" /><line stroke="rgb(0%,0%,0%)" x1="268.3053" x2="276.2583" y1="100.5" y2="100.5" /><line stroke="rgb(0%,0%,0%)" x1="276.2583" x2="279.4687" y1="100.5" y2="100.5" /><line stroke="rgb(0%,0%,0%)" x1="279.4687" x2="286.1974" y1="100.5" y2="100.5" /><line stroke="rgb(0%,0%,0%)" x1="286.1974" x2="291.9265" y1="100.5" y2="100.5" /><line stroke="rgb(0%,0%,0%)" x1="291.9265" x2="295.723" y1="100.5" y2="100.5" /><line stroke="rgb(0%,0%,0%)" x1="295.723" x2="300.6727" y1="100.5" y2="100.5" /><line stroke="rgb(0%,0%,0%)" x1="300.6727" x2="304.8945" y1="100.5" y2="100.5" /><line stroke="rgb(0%,0%,0%)" x1="304.8945" x2="309.1938" y1="100.5" y2="100.5" /><line stroke="rgb(0%,0%,0%)" x1="309.1938" x2="313.761" y1="100.5" y2="100.5" /><line stroke="rgb(0%,0%,0%)" x1="313.761" x2="317.5309" y1="100.5" y2="100.5" /><line stroke="rgb(0%,0%,0%)" x1="317.5309" x2="322.3642" y1="100.5" y2="100.5" /><line stroke="rgb(0%,0%,0%)" x1="322.3642" x2="327.4692" y1="100.5" y2="100.5" /><line stroke="rgb(0%,0%,0%)" x1="327.4692" x2="336.9" y1="100.5" y2="100.5" /><line stroke="rgb(0%,0%,0%)" x1="237.3937" x2="243.7062" y1="0.5" y2="0.5" /><line stroke="rgb(0%,0%,0%)" x1="243.7062" x2="254.8342" y1="0.5" y2="0.5" /><line stroke="rgb(0%,0%,0%)" x1="254.8342" x2="256.4257" y1="0.5" y2="0.5" /><line stroke="rgb(0%,0%,0%)" x1="256.4257" x2="265.8335" y1="0.5" y2="0.5" /><line stroke="rgb(0%,0%,0%)" x1="265.8335" x2="268.3053" y1="0.5" y2="0.5" /><line stroke="rgb(0%,0%,0%)" x1="268.3053" x2="276.2583" y1="0.5" y2="0.5" /><line stroke="rgb(0%,0%,0%)" x1="276.2583" x2="279.4687" y1="0.5" y2="0.5" /><line stroke="rgb(0%,0%,0%)" x1="279.4687" x2="286.1974" y1="0.5" y2="0.5" /><line stroke="rgb(0%,0%,0%)" x1="286.1974" x2="291.9265" y1="0.5" y2="0.5" /><line stroke="rgb(0%,0%,0%)" x1="291.9265" x2="295.723" y1="0.5" y2="0.5" /><line stroke="rgb(0%,0%,0%)" x1="295.723" x2="300.6727" y1="0.5" y2="0.5" /><line stroke="rgb(0%,0%,0%)" x1="300.6727" x2="304.8945" y1="0.5" y2="0.5" /><line stroke="rgb(0%,0%,0%)" x1="304.8945" x2="309.1938" y1="0.5" y2="0.5" /><line stroke="rgb(0%,0%,0%)" x1="309.1938" x2="313.761" y1="0.5" y2="0.5" /><line stroke="rgb(0%,0%,0%)" x1="313.761" x2="317.5309" y1="0.5" y2="0.5" /><line stroke="rgb(0%,0%,0%)" x1="317.5309" x2="322.3642" y1="0.5" y2="0.5" /><line stroke="rgb(0%,0%,0%)" x1="322.3642" x2="327.4692" y1="0.5" y2="0.5" /><line stroke="rgb(0%,0%,0%)" x1="336.9" x2="327.4692" y1="0.5" y2="0.5" /></svg>