<?xml version="1.0" encoding="utf-8" ?>
<svg baseProfile="tiny" height="100%" version="1.2" width="100%" xmlns="http://www.w3.org/2000/svg" xmlns:ev="http://www.w3.org/2001/xml-events" xmlns:xlink="http://www.w3.org/1999/xlink"><defs /><line stroke="rgb(0%,0%,0%)" x1="238.2355" x2="238.2355" y1="100.5" y2="66.4762" /><line stroke="rgb(0%,0%,0%)" x1="238.2355" x2="238.2355" y1="66.4762" y2="0.5" /><line stroke="rgb(0%,0%,0%)" x1="336.9" x2="336.9" y1="8.7776" y2="0.5" /><line stroke="rgb(0%,0%,0%)" x1="336.9" x2="336.9" y1="87.5161" y2="13.4839" /><line stroke="rgb(0%,0%,0%)" x1="336.9" x2="336.9" y1="13.4839" y2="12.6276" /><line stroke="rgb(0%,0%,0%)" x1="336.9" x2="336.9" y1="12.6276" y2="11.7295" /><line stroke="rgb(0%,0%,0%)" x1="336.9" x2="336.9" y1="100.5" y2="92.2224" /><line stroke="rgb(0%,0%,0%)" x1="336.9" x2="336.9" y1="92.2224" y2="91.6633" /><line stroke="rgb(0%,0%,0%)" x1="336.9" x2="336.9" y1="91.6633" y2="90.9634" /><line stroke="rgb(0%,0%,0%)" x1="336.9" x2="336.9" y1="11.7295" y2="10.8482" /><line stroke="rgb(0%,0%,0%)" x1="336.9" x2="336.9" y1="10.8482" y2="10.0366" /><line stroke="rgb(0%,0%,0%)" x1="336.9" x2="336.9" y1="10.0366" y2="9.3367" /><line stroke="rgb(0%,0%,0%)" x1="336.9" x2="336.9" y1="9.3367" y2="8.7776" /><line stroke="rgb(0%,0%,0%)" x1="336.9" x2="336.9" y1="90.9634" y2="90.1518" /><line stroke="rgb(0%,0%,0%)" x1="336.9" x2="336.9" y1="90.1518" y2="89.2705" /><line stroke="rgb(0%,0%,0%)" x1="336.9" x2="336.9" y1="89.2705" y2="88.3724" /><line stroke="rgb(0%,0%,0%)" x1="336.9" x2="336.9" y1="88.3724" y2="87.5161" /><line stroke="rgb(0%,0%,0%)" x1="242.7951" x2="238.2355" y1="100.5" y2="100.5" /><line stroke="rgb(0%,0%,0%)" x1="242.7951" x2="254.1418" y1="100.5" y2="100.5" /><line stroke="rgb(0%,0%,0%)" x1="254.1418" x2="255.586" y1="100.5" y2="100.5" /><line stroke="rgb(0%,0%,0%)" x1="255.586" x2="265.201" y1="100.5" y2="100.5" /><line stroke="rgb(0%,0%,0%)" x1="265.201" x2="267.5318" y1="100.5" y2="100.5" /><line stroke="rgb(0%,0%,0%)" x1="267.5318" x2="275.682" y1="100.5" y2="100.5" /><line stroke="rgb(0%,0%,0%)" x1="275.682" x2="278.7571" y1="100.5" y2="100.5" /><line stroke="rgb(0%,0%,0%)" x1="278.7571" x2="285.674" y1="100.5" y2="100.5" /><line stroke="rgb(0%,0%,0%)" x1="285.674" x2="291.5632" y1="100.5" y2="100.5" /><line stroke="rgb(0%,0%,0%)" x1="291.5632" x2="295.2499" y1="100.5" y2="100.5" /><line stroke="rgb(0%,0%,0%)" x1="295.2499" x2="300.3557" y1="100.5" y2="100.5" /><line stroke="rgb(0%,0%,0%)" x1="300.3557" x2="304.4694" y1="100.5" y2="100.5" /><line stroke="rgb(0%,0%,0%)" x1="304.4694" x2="308.9212" y1="100.5" y2="100.5" /><line stroke="rgb(0%,0%,0%)" x1="308.9212" x2="313.3823" y1="100.5" y2="100.5" /><line stroke="rgb(0%,0%,0%)" x1="313.3823" x2="317.3014" y1="100.5" y2="100.5" /><line stroke="rgb(0%,0%,0%)" x1="317.3014" x2="322.0304" y1="100.5" y2="100.5" /><line stroke="rgb(0%,0%,0%)" x1="322.0304" x2="327.0252" y1="100.5" y2="100.5" /><line stroke="rgb(0%,0%,0%)" x1="327.0252" x2="336.9" y1="100.5" y2="100.5" /><line stroke="rgb(0%,0%,0%)" x1="238.2355" x2="242.7951" y1="0.5" y2="0.5" /><line stroke="rgb(0%,0%,0%)" x1="242.7951" x2="254.1418" y1="0.5" y2="0.5" /><line stroke="rgb(0%,0%,0%)" x1="254.1418" x2="255.586" y1="0.5" y2="0.5" /><line stroke="rgb(0%,0%,0%)" x1="255.586" x2="265.201" y1="0.5" y2="0.5" /><line stroke="rgb(0%,0%,0%)" x1="265.201" x2="267.5318" y1="0.5" y2="0.5" /><line stroke="rgb(0%,0%,0%)" x1="267.5318" x2="275.682" y1="0.5" y2="0.5" /><line stroke="rgb(0%,0%,0%)" x1="275.682" x2="278.7571" y1="0.5" y2="0.5" /><line stroke="rgb(0%,0%,0%)" x1="278.7571" x2="285.674" y1="0.5" y2="0.5" /><line stroke="rgb(0%,0%,0%)" x1="285.674" x2="291.5632" y1="0.5" y2="0.5" /><line stroke="rgb(0%,0%,0%)" x1="291.5632" x2="295.2499" y1="0.5" y2="0.5" /><line stroke="rgb(0%,0%,0%)" x1="295.2499" x2="300.3557" y1="0.5" y2="0.5" /><line stroke="rgb(0%,0%,0%)" x1="300.3557" x2="304.4694" y1="0.5" y2="0.5" /><line stroke="rgb(0%,0%,0%)" x1="304.4694" x2="308.9212" y1="0.5" y2="0.5" /><line stroke="rgb(0%,0%,0%)" x1="308.9212" x2="313.3823" y1="0.5" y2="0.5" /><line stroke="rgb(0%,0%,0%)" x1="313.3823" x2="317.3014" y1="0.5" y2="0.5" /><line stroke="rgb(0%,0%,0%)" x1="317.3014" x2="322.0304" y1="0.5" y2="0.5" /><line stroke="rgb(0%,0%,0%)" x1="322.0304" x2="327.0252" y1="0.5" y2="0.5" /><line stroke="rgb(0%,0%,0%)" x1="336.9" x2="327.0252" y1="0.5" y2="0.5" /></svg>