<?xml version="1.0" encoding="utf-8" ?>
<svg baseProfile="tiny" height="100%" version="1.2" width="100%" xmlns="http://www.w3.org/2000/svg" xmlns:ev="http://www.w3.org/2001/xml-events" xmlns:xlink="http://www.w3.org/1999/xlink"><defs /><line stroke="rgb(0%,0%,0%)" x1="239.0772" x2="239.0772" y1="100.5" y2="79.5556" /><line stroke="rgb(0%,0%,0%)" x1="239.0772" x2="239.0772" y1="79.5556" y2="0.5" /><line stroke="rgb(0%,0%,0%)" x1="336.9" x2="336.9" y1="9.1498" y2="0.5" /><line stroke="rgb(0%,0%,0%)" x1="336.9" x2="336.9" y1="86.9323" y2="14.0677" /><line stroke="rgb(0%,0%,0%)" x1="336.9" x2="336.9" y1="14.0677" y2="13.1729" /><line stroke="rgb(0%,0%,0%)" x1="336.9" x2="336.9" y1="13.1729" y2="12.2345" /><line stroke="rgb(0%,0%,0%)" x1="336.9" x2="336.9" y1="100.5" y2="91.8502" /><line stroke="rgb(0%,0%,0%)" x1="336.9" x2="336.9" y1="91.8502" y2="91.2659" /><line stroke="rgb(0%,0%,0%)" x1="336.9" x2="336.9" y1="91.2659" y2="90.5346" /><line stroke="rgb(0%,0%,0%)" x1="336.9" x2="336.9" y1="12.2345" y2="11.3135" /><line stroke="rgb(0%,0%,0%)" x1="336.9" x2="336.9" y1="11.3135" y2="10.4654" /><line stroke="rgb(0%,0%,0%)" x1="336.9" x2="336.9" y1="10.4654" y2="9.7341" /><line stroke="rgb(0%,0%,0%)" x1="336.9" x2="336.9" y1="9.7341" y2="9.1498" /><line stroke="rgb(0%,0%,0%)" x1="336.9" x2="336.9" y1="90.5346" y2="89.6865" /><line stroke="rgb(0%,0%,0%)" x1="336.9" x2="336.9" y1="89.6865" y2="88.7655" /><line stroke="rgb(0%,0%,0%)" x1="336.9" x2="336.9" y1="88.7655" y2="87.8271" /><line stroke="rgb(0%,0%,0%)" x1="336.9" x2="336.9" y1="87.8271" y2="86.9323" /><line stroke="rgb(0%,0%,0%)" x1="241.8841" x2="239.0772" y1="100.5" y2="100.5" /><line stroke="rgb(0%,0%,0%)" x1="241.8841" x2="253.4495" y1="100.5" y2="100.5" /><line stroke="rgb(0%,0%,0%)" x1="253.4495" x2="254.7463" y1="100.5" y2="100.5" /><line stroke="rgb(0%,0%,0%)" x1="254.7463" x2="264.5686" y1="100.5" y2="100.5" /><line stroke="rgb(0%,0%,0%)" x1="264.5686" x2="266.7583" y1="100.5" y2="100.5" /><line stroke="rgb(0%,0%,0%)" x1="266.7583" x2="275.1056" y1="100.5" y2="100.5" /><line stroke="rgb(0%,0%,0%)" x1="275.1056" x2="278.0455" y1="100.5" y2="100.5" /><line stroke="rgb(0%,0%,0%)" x1="278.0455" x2="285.1506" y1="100.5" y2="100.5" /><line stroke="rgb(0%,0%,0%)" x1="285.1506" x2="291.2" y1="100.5" y2="100.5" /><line stroke="rgb(0%,0%,0%)" x1="291.2" x2="294.7768" y1="100.5" y2="100.5" /><line stroke="rgb(0%,0%,0%)" x1="294.7768" x2="300.0387" y1="100.5" y2="100.5" /><line stroke="rgb(0%,0%,0%)" x1="300.0387" x2="304.0444" y1="100.5" y2="100.5" /><line stroke="rgb(0%,0%,0%)" x1="304.0444" x2="308.6487" y1="100.5" y2="100.5" /><line stroke="rgb(0%,0%,0%)" x1="308.6487" x2="313.0036" y1="100.5" y2="100.5" /><line stroke="rgb(0%,0%,0%)" x1="313.0036" x2="317.072" y1="100.5" y2="100.5" /><line stroke="rgb(0%,0%,0%)" x1="317.072" x2="321.6966" y1="100.5" y2="100.5" /><line stroke="rgb(0%,0%,0%)" x1="321.6966" x2="326.5812" y1="100.5" y2="100.5" /><line stroke="rgb(0%,0%,0%)" x1="326.5812" x2="336.9" y1="100.5" y2="100.5" /><line stroke="rgb(0%,0%,0%)" x1="239.0772" x2="241.8841" y1="0.5" y2="0.5" /><line stroke="rgb(0%,0%,0%)" x1="241.8841" x2="253.4495" y1="0.5" y2="0.5" /><line stroke="rgb(0%,0%,0%)" x1="253.4495" x2="254.7463" y1="0.5" y2="0.5" /><line stroke="rgb(0%,0%,0%)" x1="254.7463" x2="264.5686" y1="0.5" y2="0.5" /><line stroke="rgb(0%,0%,0%)" x1="264.5686" x2="266.7583" y1="0.5" y2="0.5" /><line stroke="rgb(0%,0%,0%)" x1="266.7583" x2="275.1056" y1="0.5" y2="0.5" /><line stroke="rgb(0%,0%,0%)" x1="275.1056" x2="278.0455" y1="0.5" y2="0.5" /><line stroke="rgb(0%,0%,0%)" x1="278.0455" x2="285.1506" y1="0.5" y2="0.5" /><line stroke="rgb(0%,0%,0%)" x1="285.1506" x2="291.2" y1="0.5" y2="0.5" /><line stroke="rgb(0%,0%,0%)" x1="291.2" x2="294.7768" y1="0.5" y2="0.5" /><line stroke="rgb(0%,0%,0%)" x1="294.7768" x2="300.0387" y1="0.5" y2="0.5" /><line stroke="rgb(0%,0%,0%)" x1="300.0387" x2="304.0444" y1="0.5" y2="0.5" /><line stroke="rgb(0%,0%,0%)" x1="304.0444" x2="308.6487" y1="0.5" y2="0.5" /><line stroke="rgb(0%,0%,0%)" x1="308.6487" x2="313.0036" y1="0.5" y2="0.5" /><line stroke="rgb(0%,0%,0%)" x1="313.0036" x2="317.072" y1="0.5" y2="0.5" /><line stroke="rgb(0%,0%,0%)" x1="317.072" x2="321.6966" y1="0.5" y2="0.5" /><line stroke="rgb(0%,0%,0%)" x1="321.6966" x2="326.5812" y1="0.5" y2="0.5" /><line stroke="rgb(0%,0%,0%)" x1="336.9" x2="326.5812" y1="0.5" y2="0.5" /></svg>