<?xml version="1.0" encoding="utf-8" ?>
<svg baseProfile="tiny" height="100%" version="1.2" width="100%" xmlns="http://www.w3.org/2000/svg" xmlns:ev="http://www.w3.org/2001/xml-events" xmlns:xlink="http://www.w3.org/1999/xlink"><defs /><line stroke="rgb(0%,0%,0%)" x1="239.919" x2="239.919" y1="100.5" y2="92.635" /><line stroke="rgb(0%,0%,0%)" x1="239.919" x2="239.919" y1="92.635" y2="0.5" /><line stroke="rgb(0%,0%,0%)" x1="336.9" x2="336.9" y1="9.522" y2="0.5" /><line stroke="rgb(0%,0%,0%)" x1="336.9" x2="336.9" y1="86.3485" y2="14.6515" /><line stroke="rgb(0%,0%,0%)" x1="336.9" x2="336.9" y1="14.6515" y2="13.7182" /><line stroke="rgb(0%,0%,0%)" x1="336.9" x2="336.9" y1="13.7182" y2="12.7394" /><line stroke="rgb(0%,0%,0%)" x1="336.9" x2="336.9" y1="100.5" y2="91.478" /><line stroke="rgb(0%,0%,0%)" x1="336.9" x2="336.9" y1="91.478" y2="90.8686" /><line stroke="rgb(0%,0%,0%)" x1="336.9" x2="336.9" y1="90.8686" y2="90.1058" /><line stroke="rgb(0%,0%,0%)" x1="336.9" x2="336.9" y1="12.7394" y2="11.7788" /><line stroke="rgb(0%,0%,0%)" x1="336.9" x2="336.9" y1="11.7788" y2="10.8942" /><line stroke="rgb(0%,0%,0%)" x1="336.9" x2="336.9" y1="10.8942" y2="10.1314" /><line stroke="rgb(0%,0%,0%)" x1="336.9" x2="336.9" y1="10.1314" y2="9.522" /><line stroke="rgb(0%,0%,0%)" x1="336.9" x2="336.9" y1="90.1058" y2="89.2212" /><line stroke="rgb(0%,0%,0%)" x1="336.9" x2="336.9" y1="89.2212" y2="88.2606" /><line stroke="rgb(0%,0%,0%)" x1="336.9" x2="336.9" y1="88.2606" y2="87.2818" /><line stroke="rgb(0%,0%,0%)" x1="336.9" x2="336.9" y1="87.2818" y2="86.3485" /><line stroke="rgb(0%,0%,0%)" x1="240.973" x2="239.919" y1="100.5" y2="100.5" /><line stroke="rgb(0%,0%,0%)" x1="240.973" x2="252.7571" y1="100.5" y2="100.5" /><line stroke="rgb(0%,0%,0%)" x1="252.7571" x2="253.9066" y1="100.5" y2="100.5" /><line stroke="rgb(0%,0%,0%)" x1="253.9066" x2="263.9361" y1="100.5" y2="100.5" /><line stroke="rgb(0%,0%,0%)" x1="263.9361" x2="265.9848" y1="100.5" y2="100.5" /><line stroke="rgb(0%,0%,0%)" x1="265.9848" x2="274.5293" y1="100.5" y2="100.5" /><line stroke="rgb(0%,0%,0%)" x1="274.5293" x2="277.3339" y1="100.5" y2="100.5" /><line stroke="rgb(0%,0%,0%)" x1="277.3339" x2="284.6272" y1="100.5" y2="100.5" /><line stroke="rgb(0%,0%,0%)" x1="284.6272" x2="290.8368" y1="100.5" y2="100.5" /><line stroke="rgb(0%,0%,0%)" x1="290.8368" x2="294.3036" y1="100.5" y2="100.5" /><line stroke="rgb(0%,0%,0%)" x1="294.3036" x2="299.7217" y1="100.5" y2="100.5" /><line stroke="rgb(0%,0%,0%)" x1="299.7217" x2="303.6194" y1="100.5" y2="100.5" /><line stroke="rgb(0%,0%,0%)" x1="303.6194" x2="308.3762" y1="100.5" y2="100.5" /><line stroke="rgb(0%,0%,0%)" x1="308.3762" x2="312.6249" y1="100.5" y2="100.5" /><line stroke="rgb(0%,0%,0%)" x1="312.6249" x2="316.8425" y1="100.5" y2="100.5" /><line stroke="rgb(0%,0%,0%)" x1="316.8425" x2="321.3628" y1="100.5" y2="100.5" /><line stroke="rgb(0%,0%,0%)" x1="321.3628" x2="326.1372" y1="100.5" y2="100.5" /><line stroke="rgb(0%,0%,0%)" x1="326.1372" x2="336.9" y1="100.5" y2="100.5" /><line stroke="rgb(0%,0%,0%)" x1="239.919" x2="240.973" y1="0.5" y2="0.5" /><line stroke="rgb(0%,0%,0%)" x1="240.973" x2="252.7571" y1="0.5" y2="0.5" /><line stroke="rgb(0%,0%,0%)" x1="252.7571" x2="253.9066" y1="0.5" y2="0.5" /><line stroke="rgb(0%,0%,0%)" x1="253.9066" x2="263.9361" y1="0.5" y2="0.5" /><line stroke="rgb(0%,0%,0%)" x1="263.9361" x2="265.9848" y1="0.5" y2="0.5" /><line stroke="rgb(0%,0%,0%)" x1="265.9848" x2="274.5293" y1="0.5" y2="0.5" /><line stroke="rgb(0%,0%,0%)" x1="274.5293" x2="277.3339" y1="0.5" y2="0.5" /><line stroke="rgb(0%,0%,0%)" x1="277.3339" x2="284.6272" y1="0.5" y2="0.5" /><line stroke="rgb(0%,0%,0%)" x1="284.6272" x2="290.8368" y1="0.5" y2="0.5" /><line stroke="rgb(0%,0%,0%)" x1="290.8368" x2="294.3036" y1="0.5" y2="0.5" /><line stroke="rgb(0%,0%,0%)" x1="294.3036" x2="299.7217" y1="0.5" y2="0.5" /><line stroke="rgb(0%,0%,0%)" x1="299.7217" x2="303.6194" y1="0.5" y2="0.5" /><line stroke="rgb(0%,0%,0%)" x1="303.6194" x2="308.3762" y1="0.5" y2="0.5" /><line stroke="rgb(0%,0%,0%)" x1="308.3762" x2="312.6249" y1="0.5" y2="0.5" /><line stroke="rgb(0%,0%,0%)" x1="312.6249" x2="316.8425" y1="0.5" y2="0.5" /><line stroke="rgb(0%,0%,0%)" x1="316.8425" x2="321.3628" y1="0.5" y2="0.5" /><line stroke="rgb(0%,0%,0%)" x1="321.3628" x2="326.1372" y1="0.5" y2="0.5" /><line stroke="rgb(0%,0%,0%)" x1="336.9" x2="326.1372" y1="0.5" y2="0.5" /></svg>