<?xml version="1.0" encoding="utf-8" ?>
<svg baseProfile="tiny" height="100%" version="1.2" width="100%" xmlns="http://www.w3.org/2000/svg" xmlns:ev="http://www.w3.org/2001/xml-events" xmlns:xlink="http://www.w3.org/1999/xlink"><defs /><line stroke="rgb(0%,0%,0%)" x1="240.8089" x2="240.8089" y1="100.5" y2="6.037" /><line stroke="rgb(0%,0%,0%)" x1="240.8089" x2="240.8089" y1="6.037" y2="0.5" /><line stroke="rgb(0%,0%,0%)" x1="336.9" x2="336.9" y1="9.8942" y2="0.5" /><line stroke="rgb(0%,0%,0%)" x1="336.9" x2="336.9" y1="85.7647" y2="15.2353" /><line stroke="rgb(0%,0%,0%)" x1="336.9" x2="336.9" y1="15.2353" y2="14.2635" /><line stroke="rgb(0%,0%,0%)" x1="336.9" x2="336.9" y1="14.2635" y2="13.2443" /><line stroke="rgb(0%,0%,0%)" x1="336.9" x2="336.9" y1="100.5" y2="91.1058" /><line stroke="rgb(0%,0%,0%)" x1="336.9" x2="336.9" y1="91.1058" y2="90.4713" /><line stroke="rgb(0%,0%,0%)" x1="336.9" x2="336.9" y1="90.4713" y2="89.677" /><line stroke="rgb(0%,0%,0%)" x1="336.9" x2="336.9" y1="13.2443" y2="12.2441" /><line stroke="rgb(0%,0%,0%)" x1="336.9" x2="336.9" y1="12.2441" y2="11.323" /><line stroke="rgb(0%,0%,0%)" x1="336.9" x2="336.9" y1="11.323" y2="10.5287" /><line stroke="rgb(0%,0%,0%)" x1="336.9" x2="336.9" y1="10.5287" y2="9.8942" /><line stroke="rgb(0%,0%,0%)" x1="336.9" x2="336.9" y1="89.677" y2="88.7559" /><line stroke="rgb(0%,0%,0%)" x1="336.9" x2="336.9" y1="88.7559" y2="87.7557" /><line stroke="rgb(0%,0%,0%)" x1="336.9" x2="336.9" y1="87.7557" y2="86.7365" /><line stroke="rgb(0%,0%,0%)" x1="336.9" x2="336.9" y1="86.7365" y2="85.7647" /><line stroke="rgb(0%,0%,0%)" x1="252.0648" x2="240.8089" y1="100.5" y2="100.5" /><line stroke="rgb(0%,0%,0%)" x1="252.0648" x2="253.0669" y1="100.5" y2="100.5" /><line stroke="rgb(0%,0%,0%)" x1="253.0669" x2="263.3037" y1="100.5" y2="100.5" /><line stroke="rgb(0%,0%,0%)" x1="263.3037" x2="265.2113" y1="100.5" y2="100.5" /><line stroke="rgb(0%,0%,0%)" x1="265.2113" x2="273.9529" y1="100.5" y2="100.5" /><line stroke="rgb(0%,0%,0%)" x1="273.9529" x2="276.6223" y1="100.5" y2="100.5" /><line stroke="rgb(0%,0%,0%)" x1="276.6223" x2="284.1038" y1="100.5" y2="100.5" /><line stroke="rgb(0%,0%,0%)" x1="284.1038" x2="290.4736" y1="100.5" y2="100.5" /><line stroke="rgb(0%,0%,0%)" x1="290.4736" x2="293.8305" y1="100.5" y2="100.5" /><line stroke="rgb(0%,0%,0%)" x1="293.8305" x2="299.4047" y1="100.5" y2="100.5" /><line stroke="rgb(0%,0%,0%)" x1="299.4047" x2="303.1943" y1="100.5" y2="100.5" /><line stroke="rgb(0%,0%,0%)" x1="303.1943" x2="308.1037" y1="100.5" y2="100.5" /><line stroke="rgb(0%,0%,0%)" x1="308.1037" x2="312.2461" y1="100.5" y2="100.5" /><line stroke="rgb(0%,0%,0%)" x1="312.2461" x2="316.613" y1="100.5" y2="100.5" /><line stroke="rgb(0%,0%,0%)" x1="316.613" x2="321.029" y1="100.5" y2="100.5" /><line stroke="rgb(0%,0%,0%)" x1="321.029" x2="325.6932" y1="100.5" y2="100.5" /><line stroke="rgb(0%,0%,0%)" x1="325.6932" x2="336.9" y1="100.5" y2="100.5" /><line stroke="rgb(0%,0%,0%)" x1="240.8089" x2="252.0648" y1="0.5" y2="0.5" /><line stroke="rgb(0%,0%,0%)" x1="252.0648" x2="253.0669" y1="0.5" y2="0.5" /><line stroke="rgb(0%,0%,0%)" x1="253.0669" x2="263.3037" y1="0.5" y2="0.5" /><line stroke="rgb(0%,0%,0%)" x1="263.3037" x2="265.2113" y1="0.5" y2="0.5" /><line stroke="rgb(0%,0%,0%)" x1="265.2113" x2="273.9529" y1="0.5" y2="0.5" /><line stroke="rgb(0%,0%,0%)" x1="273.9529" x2="276.6223" y1="0.5" y2="0.5" /><line stroke="rgb(0%,0%,0%)" x1="276.6223" x2="284.1038" y1="0.5" y2="0.5" /><line stroke="rgb(0%,0%,0%)" x1="284.1038" x2="290.4736" y1="0.5" y2="0.5" /><line stroke="rgb(0%,0%,0%)" x1="290.4736" x2="293.8305" y1="0.5" y2="0.5" /><line stroke="rgb(0%,0%,0%)" x1="293.8305" x2="299.4047" y1="0.5" y2="0.5" /><line stroke="rgb(0%,0%,0%)" x1="299.4047" x2="303.1943" y1="0.5" y2="0.5" /><line stroke="rgb(0%,0%,0%)" x1="303.1943" x2="308.1037" y1="0.5" y2="0.5" /><line stroke="rgb(0%,0%,0%)" x1="308.1037" x2="312.2461" y1="0.5" y2="0.5" /><line stroke="rgb(0%,0%,0%)" x1="312.2461" x2="316.613" y1="0.5" y2="0.5" /><line stroke="rgb(0%,0%,0%)" x1="316.613" x2="321.029" y1="0.5" y2="0.5" /><line stroke="rgb(0%,0%,0%)" x1="321.029" x2="325.6932" y1="0.5" y2="0.5" /><line stroke="rgb(0%,0%,0%)" x1="336.9" x2="325.6932" y1="0.5" y2="0.5" /></svg>