<?xml version="1.0" encoding="utf-8" ?>
<svg baseProfile="tiny" height="100%" version="1.2" width="100%" xmlns="http://www.w3.org/2000/svg" xmlns:ev="http://www.w3.org/2001/xml-events" xmlns:xlink="http://www.w3.org/1999/xlink"><defs /><line stroke="rgb(0%,0%,0%)" x1="241.7715" x2="241.7715" y1="100.5" y2="19.9257" /><line stroke="rgb(0%,0%,0%)" x1="241.7715" x2="241.7715" y1="19.9257" y2="0.5" /><line stroke="rgb(0%,0%,0%)" x1="336.9" x2="336.9" y1="10.2664" y2="0.5" /><line stroke="rgb(0%,0%,0%)" x1="336.9" x2="336.9" y1="85.1809" y2="15.8191" /><line stroke="rgb(0%,0%,0%)" x1="336.9" x2="336.9" y1="15.8191" y2="14.8088" /><line stroke="rgb(0%,0%,0%)" x1="336.9" x2="336.9" y1="14.8088" y2="13.7492" /><line stroke="rgb(0%,0%,0%)" x1="336.9" x2="336.9" y1="100.5" y2="90.7336" /><line stroke="rgb(0%,0%,0%)" x1="336.9" x2="336.9" y1="90.7336" y2="90.0739" /><line stroke="rgb(0%,0%,0%)" x1="336.9" x2="336.9" y1="90.0739" y2="89.2482" /><line stroke="rgb(0%,0%,0%)" x1="336.9" x2="336.9" y1="13.7492" y2="12.7094" /><line stroke="rgb(0%,0%,0%)" x1="336.9" x2="336.9" y1="12.7094" y2="11.7518" /><line stroke="rgb(0%,0%,0%)" x1="336.9" x2="336.9" y1="11.7518" y2="10.9261" /><line stroke="rgb(0%,0%,0%)" x1="336.9" x2="336.9" y1="10.9261" y2="10.2664" /><line stroke="rgb(0%,0%,0%)" x1="336.9" x2="336.9" y1="89.2482" y2="88.2906" /><line stroke="rgb(0%,0%,0%)" x1="336.9" x2="336.9" y1="88.2906" y2="87.2508" /><line stroke="rgb(0%,0%,0%)" x1="336.9" x2="336.9" y1="87.2508" y2="86.1912" /><line stroke="rgb(0%,0%,0%)" x1="336.9" x2="336.9" y1="86.1912" y2="85.1809" /><line stroke="rgb(0%,0%,0%)" x1="251.3724" x2="241.7715" y1="100.5" y2="100.5" /><line stroke="rgb(0%,0%,0%)" x1="251.3724" x2="252.2272" y1="100.5" y2="100.5" /><line stroke="rgb(0%,0%,0%)" x1="252.2272" x2="262.6712" y1="100.5" y2="100.5" /><line stroke="rgb(0%,0%,0%)" x1="262.6712" x2="264.4378" y1="100.5" y2="100.5" /><line stroke="rgb(0%,0%,0%)" x1="264.4378" x2="273.3766" y1="100.5" y2="100.5" /><line stroke="rgb(0%,0%,0%)" x1="273.3766" x2="275.9108" y1="100.5" y2="100.5" /><line stroke="rgb(0%,0%,0%)" x1="275.9108" x2="283.5804" y1="100.5" y2="100.5" /><line stroke="rgb(0%,0%,0%)" x1="283.5804" x2="290.1104" y1="100.5" y2="100.5" /><line stroke="rgb(0%,0%,0%)" x1="290.1104" x2="293.3574" y1="100.5" y2="100.5" /><line stroke="rgb(0%,0%,0%)" x1="293.3574" x2="299.0877" y1="100.5" y2="100.5" /><line stroke="rgb(0%,0%,0%)" x1="299.0877" x2="302.7693" y1="100.5" y2="100.5" /><line stroke="rgb(0%,0%,0%)" x1="302.7693" x2="307.8311" y1="100.5" y2="100.5" /><line stroke="rgb(0%,0%,0%)" x1="307.8311" x2="311.8674" y1="100.5" y2="100.5" /><line stroke="rgb(0%,0%,0%)" x1="311.8674" x2="316.3835" y1="100.5" y2="100.5" /><line stroke="rgb(0%,0%,0%)" x1="316.3835" x2="320.6952" y1="100.5" y2="100.5" /><line stroke="rgb(0%,0%,0%)" x1="320.6952" x2="325.2492" y1="100.5" y2="100.5" /><line stroke="rgb(0%,0%,0%)" x1="325.2492" x2="336.9" y1="100.5" y2="100.5" /><line stroke="rgb(0%,0%,0%)" x1="241.7715" x2="251.3724" y1="0.5" y2="0.5" /><line stroke="rgb(0%,0%,0%)" x1="251.3724" x2="252.2272" y1="0.5" y2="0.5" /><line stroke="rgb(0%,0%,0%)" x1="252.2272" x2="262.6712" y1="0.5" y2="0.5" /><line stroke="rgb(0%,0%,0%)" x1="262.6712" x2="264.4378" y1="0.5" y2="0.5" /><line stroke="rgb(0%,0%,0%)" x1="264.4378" x2="273.3766" y1="0.5" y2="0.5" /><line stroke="rgb(0%,0%,0%)" x1="273.3766" x2="275.9108" y1="0.5" y2="0.5" /><line stroke="rgb(0%,0%,0%)" x1="275.9108" x2="283.5804" y1="0.5" y2="0.5" /><line stroke="rgb(0%,0%,0%)" x1="283.5804" x2="290.1104" y1="0.5" y2="0.5" /><line stroke="rgb(0%,0%,0%)" x1="290.1104" x2="293.3574" y1="0.5" y2="0.5" /><line stroke="rgb(0%,0%,0%)" x1="293.3574" x2="299.0877" y1="0.5" y2="0.5" /><line stroke="rgb(0%,0%,0%)" x1="299.0877" x2="302.7693" y1="0.5" y2="0.5" /><line stroke="rgb(0%,0%,0%)" x1="302.7693" x2="307.8311" y1="0.5" y2="0.5" /><line stroke="rgb(0%,0%,0%)" x1="307.8311" x2="311.8674" y1="0.5" y2="0.5" /><line stroke="rgb(0%,0%,0%)" x1="311.8674" x2="316.3835" y1="0.5" y2="0.5" /><line stroke="rgb(0%,0%,0%)" x1="316.3835" x2="320.6952" y1="0.5" y2="0.5" /><line stroke="rgb(0%,0%,0%)" x1="320.6952" x2="325.2492" y1="0.5" y2="0.5" /><line stroke="rgb(0%,0%,0%)" x1="336.9" x2="325.2492" y1="0.5" y2="0.5" /></svg>