<?xml version="1.0" encoding="utf-8" ?>
<svg baseProfile="tiny" height="100%" version="1.2" width="100%" xmlns="http://www.w3.org/2000/svg" xmlns:ev="http://www.w3.org/2001/xml-events" xmlns:xlink="http://www.w3.org/1999/xlink"><defs /><line stroke="rgb(0%,0%,0%)" x1="242.734" x2="242.734" y1="100.5" y2="33.8144" /><line stroke="rgb(0%,0%,0%)" x1="242.734" x2="242.734" y1="33.8144" y2="0.5" /><line stroke="rgb(0%,0%,0%)" x1="336.9" x2="336.9" y1="10.6386" y2="0.5" /><line stroke="rgb(0%,0%,0%)" x1="336.9" x2="336.9" y1="84.5971" y2="16.4029" /><line stroke="rgb(0%,0%,0%)" x1="336.9" x2="336.9" y1="16.4029" y2="15.3541" /><line stroke="rgb(0%,0%,0%)" x1="336.9" x2="336.9" y1="15.3541" y2="14.2542" /><line stroke="rgb(0%,0%,0%)" x1="336.9" x2="336.9" y1="100.5" y2="90.3614" /><line stroke="rgb(0%,0%,0%)" x1="336.9" x2="336.9" y1="90.3614" y2="89.6766" /><line stroke="rgb(0%,0%,0%)" x1="336.9" x2="336.9" y1="89.6766" y2="88.8194" /><line stroke="rgb(0%,0%,0%)" x1="336.9" x2="336.9" y1="14.2542" y2="13.1747" /><line stroke="rgb(0%,0%,0%)" x1="336.9" x2="336.9" y1="13.1747" y2="12.1806" /><line stroke="rgb(0%,0%,0%)" x1="336.9" x2="336.9" y1="12.1806" y2="11.3234" /><line stroke="rgb(0%,0%,0%)" x1="336.9" x2="336.9" y1="11.3234" y2="10.6386" /><line stroke="rgb(0%,0%,0%)" x1="336.9" x2="336.9" y1="88.8194" y2="87.8253" /><line stroke="rgb(0%,0%,0%)" x1="336.9" x2="336.9" y1="87.8253" y2="86.7458" /><line stroke="rgb(0%,0%,0%)" x1="336.9" x2="336.9" y1="86.7458" y2="85.6459" /><line stroke="rgb(0%,0%,0%)" x1="336.9" x2="336.9" y1="85.6459" y2="84.5971" /><line stroke="rgb(0%,0%,0%)" x1="250.68" x2="242.734" y1="100.5" y2="100.5" /><line stroke="rgb(0%,0%,0%)" x1="250.68" x2="251.3875" y1="100.5" y2="100.5" /><line stroke="rgb(0%,0%,0%)" x1="251.3875" x2="262.0388" y1="100.5" y2="100.5" /><line stroke="rgb(0%,0%,0%)" x1="262.0388" x2="263.6643" y1="100.5" y2="100.5" /><line stroke="rgb(0%,0%,0%)" x1="263.6643" x2="272.8003" y1="100.5" y2="100.5" /><line stroke="rgb(0%,0%,0%)" x1="272.8003" x2="275.1992" y1="100.5" y2="100.5" /><line stroke="rgb(0%,0%,0%)" x1="275.1992" x2="283.0569" y1="100.5" y2="100.5" /><line stroke="rgb(0%,0%,0%)" x1="283.0569" x2="289.7472" y1="100.5" y2="100.5" /><line stroke="rgb(0%,0%,0%)" x1="289.7472" x2="292.8842" y1="100.5" y2="100.5" /><line stroke="rgb(0%,0%,0%)" x1="292.8842" x2="298.7707" y1="100.5" y2="100.5" /><line stroke="rgb(0%,0%,0%)" x1="298.7707" x2="302.3443" y1="100.5" y2="100.5" /><line stroke="rgb(0%,0%,0%)" x1="302.3443" x2="307.5586" y1="100.5" y2="100.5" /><line stroke="rgb(0%,0%,0%)" x1="307.5586" x2="311.4887" y1="100.5" y2="100.5" /><line stroke="rgb(0%,0%,0%)" x1="311.4887" x2="316.154" y1="100.5" y2="100.5" /><line stroke="rgb(0%,0%,0%)" x1="316.154" x2="320.3614" y1="100.5" y2="100.5" /><line stroke="rgb(0%,0%,0%)" x1="320.3614" x2="324.8052" y1="100.5" y2="100.5" /><line stroke="rgb(0%,0%,0%)" x1="324.8052" x2="336.9" y1="100.5" y2="100.5" /><line stroke="rgb(0%,0%,0%)" x1="242.734" x2="250.68" y1="0.5" y2="0.5" /><line stroke="rgb(0%,0%,0%)" x1="250.68" x2="251.3875" y1="0.5" y2="0.5" /><line stroke="rgb(0%,0%,0%)" x1="251.3875" x2="262.0388" y1="0.5" y2="0.5" /><line stroke="rgb(0%,0%,0%)" x1="262.0388" x2="263.6643" y1="0.5" y2="0.5" /><line stroke="rgb(0%,0%,0%)" x1="263.6643" x2="272.8003" y1="0.5" y2="0.5" /><line stroke="rgb(0%,0%,0%)" x1="272.8003" x2="275.1992" y1="0.5" y2="0.5" /><line stroke="rgb(0%,0%,0%)" x1="275.1992" x2="283.0569" y1="0.5" y2="0.5" /><line stroke="rgb(0%,0%,0%)" x1="283.0569" x2="289.7472" y1="0.5" y2="0.5" /><line stroke="rgb(0%,0%,0%)" x1="289.7472" x2="292.8842" y1="0.5" y2="0.5" /><line stroke="rgb(0%,0%,0%)" x1="292.8842" x2="298.7707" y1="0.5" y2="0.5" /><line stroke="rgb(0%,0%,0%)" x1="298.7707" x2="302.3443" y1="0.5" y2="0.5" /><line stroke="rgb(0%,0%,0%)" x1="302.3443" x2="307.5586" y1="0.5" y2="0.5" /><line stroke="rgb(0%,0%,0%)" x1="307.5586" x2="311.4887" y1="0.5" y2="0.5" /><line stroke="rgb(0%,0%,0%)" x1="311.4887" x2="316.154" y1="0.5" y2="0.5" /><line stroke="rgb(0%,0%,0%)" x1="316.154" x2="320.3614" y1="0.5" y2="0.5" /><line stroke="rgb(0%,0%,0%)" x1="320.3614" x2="324.8052" y1="0.5" y2="0.5" /><line stroke="rgb(0%,0%,0%)" x1="336.9" x2="324.8052" y1="0.5" y2="0.5" /></svg>