<?xml version="1.0" encoding="utf-8" ?>
<svg baseProfile="tiny" height="100%" version="1.2" width="100%" xmlns="http://www.w3.org/2000/svg" xmlns:ev="http://www.w3.org/2001/xml-events" xmlns:xlink="http://www.w3.org/1999/xlink"><defs /><line stroke="rgb(0%,0%,0%)" x1="243.6966" x2="243.6966" y1="100.5" y2="47.7031" /><line stroke="rgb(0%,0%,0%)" x1="243.6966" x2="243.6966" y1="47.7031" y2="0.5" /><line stroke="rgb(0%,0%,0%)" x1="336.9" x2="336.9" y1="11.0108" y2="0.5" /><line stroke="rgb(0%,0%,0%)" x1="336.9" x2="336.9" y1="84.0133" y2="16.9867" /><line stroke="rgb(0%,0%,0%)" x1="336.9" x2="336.9" y1="16.9867" y2="15.8994" /><line stroke="rgb(0%,0%,0%)" x1="336.9" x2="336.9" y1="15.8994" y2="14.7591" /><line stroke="rgb(0%,0%,0%)" x1="336.9" x2="336.9" y1="100.5" y2="89.9892" /><line stroke="rgb(0%,0%,0%)" x1="336.9" x2="336.9" y1="89.9892" y2="89.2793" /><line stroke="rgb(0%,0%,0%)" x1="336.9" x2="336.9" y1="89.2793" y2="88.3906" /><line stroke="rgb(0%,0%,0%)" x1="336.9" x2="336.9" y1="14.7591" y2="13.64" /><line stroke="rgb(0%,0%,0%)" x1="336.9" x2="336.9" y1="13.64" y2="12.6094" /><line stroke="rgb(0%,0%,0%)" x1="336.9" x2="336.9" y1="12.6094" y2="11.7207" /><line stroke="rgb(0%,0%,0%)" x1="336.9" x2="336.9" y1="11.7207" y2="11.0108" /><line stroke="rgb(0%,0%,0%)" x1="336.9" x2="336.9" y1="88.3906" y2="87.36" /><line stroke="rgb(0%,0%,0%)" x1="336.9" x2="336.9" y1="87.36" y2="86.2409" /><line stroke="rgb(0%,0%,0%)" x1="336.9" x2="336.9" y1="86.2409" y2="85.1006" /><line stroke="rgb(0%,0%,0%)" x1="336.9" x2="336.9" y1="85.1006" y2="84.0133" /><line stroke="rgb(0%,0%,0%)" x1="249.9877" x2="243.6966" y1="100.5" y2="100.5" /><line stroke="rgb(0%,0%,0%)" x1="249.9877" x2="250.5478" y1="100.5" y2="100.5" /><line stroke="rgb(0%,0%,0%)" x1="250.5478" x2="261.4063" y1="100.5" y2="100.5" /><line stroke="rgb(0%,0%,0%)" x1="261.4063" x2="262.8908" y1="100.5" y2="100.5" /><line stroke="rgb(0%,0%,0%)" x1="262.8908" x2="272.2239" y1="100.5" y2="100.5" /><line stroke="rgb(0%,0%,0%)" x1="272.2239" x2="274.4876" y1="100.5" y2="100.5" /><line stroke="rgb(0%,0%,0%)" x1="274.4876" x2="282.5335" y1="100.5" y2="100.5" /><line stroke="rgb(0%,0%,0%)" x1="282.5335" x2="289.3839" y1="100.5" y2="100.5" /><line stroke="rgb(0%,0%,0%)" x1="289.3839" x2="292.4111" y1="100.5" y2="100.5" /><line stroke="rgb(0%,0%,0%)" x1="292.4111" x2="298.4537" y1="100.5" y2="100.5" /><line stroke="rgb(0%,0%,0%)" x1="298.4537" x2="301.9192" y1="100.5" y2="100.5" /><line stroke="rgb(0%,0%,0%)" x1="301.9192" x2="307.2861" y1="100.5" y2="100.5" /><line stroke="rgb(0%,0%,0%)" x1="307.2861" x2="311.11" y1="100.5" y2="100.5" /><line stroke="rgb(0%,0%,0%)" x1="311.11" x2="315.9246" y1="100.5" y2="100.5" /><line stroke="rgb(0%,0%,0%)" x1="315.9246" x2="320.0275" y1="100.5" y2="100.5" /><line stroke="rgb(0%,0%,0%)" x1="320.0275" x2="324.3612" y1="100.5" y2="100.5" /><line stroke="rgb(0%,0%,0%)" x1="324.3612" x2="336.9" y1="100.5" y2="100.5" /><line stroke="rgb(0%,0%,0%)" x1="243.6966" x2="249.9877" y1="0.5" y2="0.5" /><line stroke="rgb(0%,0%,0%)" x1="249.9877" x2="250.5478" y1="0.5" y2="0.5" /><line stroke="rgb(0%,0%,0%)" x1="250.5478" x2="261.4063" y1="0.5" y2="0.5" /><line stroke="rgb(0%,0%,0%)" x1="261.4063" x2="262.8908" y1="0.5" y2="0.5" /><line stroke="rgb(0%,0%,0%)" x1="262.8908" x2="272.2239" y1="0.5" y2="0.5" /><line stroke="rgb(0%,0%,0%)" x1="272.2239" x2="274.4876" y1="0.5" y2="0.5" /><line stroke="rgb(0%,0%,0%)" x1="274.4876" x2="282.5335" y1="0.5" y2="0.5" /><line stroke="rgb(0%,0%,0%)" x1="282.5335" x2="289.3839" y1="0.5" y2="0.5" /><line stroke="rgb(0%,0%,0%)" x1="289.3839" x2="292.4111" y1="0.5" y2="0.5" /><line stroke="rgb(0%,0%,0%)" x1="292.4111" x2="298.4537" y1="0.5" y2="0.5" /><line stroke="rgb(0%,0%,0%)" x1="298.4537" x2="301.9192" y1="0.5" y2="0.5" /><line stroke="rgb(0%,0%,0%)" x1="301.9192" x2="307.2861" y1="0.5" y2="0.5" /><line stroke="rgb(0%,0%,0%)" x1="307.2861" x2="311.11" y1="0.5" y2="0.5" /><line stroke="rgb(0%,0%,0%)" x1="311.11" x2="315.9246" y1="0.5" y2="0.5" /><line stroke="rgb(0%,0%,0%)" x1="315.9246" x2="320.0275" y1="0.5" y2="0.5" /><line stroke="rgb(0%,0%,0%)" x1="320.0275" x2="324.3612" y1="0.5" y2="0.5" /><line stroke="rgb(0%,0%,0%)" x1="336.9" x2="324.3612" y1="0.5" y2="0.5" /></svg>