<?xml version="1.0" encoding="utf-8" ?>
<svg baseProfile="tiny" height="100%" version="1.2" width="100%" xmlns="http://www.w3.org/2000/svg" xmlns:ev="http://www.w3.org/2001/xml-events" xmlns:xlink="http://www.w3.org/1999/xlink"><defs /><line stroke="rgb(0%,0%,0%)" x1="244.6592" x2="244.6592" y1="100.5" y2="61.5918" /><line stroke="rgb(0%,0%,0%)" x1="244.6592" x2="244.6592" y1="61.5918" y2="0.5" /><line stroke="rgb(0%,0%,0%)" x1="336.9" x2="336.9" y1="11.383" y2="0.5" /><line stroke="rgb(0%,0%,0%)" x1="336.9" x2="336.9" y1="83.4295" y2="17.5705" /><line stroke="rgb(0%,0%,0%)" x1="336.9" x2="336.9" y1="17.5705" y2="16.4447" /><line stroke="rgb(0%,0%,0%)" x1="336.9" x2="336.9" y1="16.4447" y2="15.264" /><line stroke="rgb(0%,0%,0%)" x1="336.9" x2="336.9" y1="100.5" y2="89.617" /><line stroke="rgb(0%,0%,0%)" x1="336.9" x2="336.9" y1="89.617" y2="88.8819" /><line stroke="rgb(0%,0%,0%)" x1="336.9" x2="336.9" y1="88.8819" y2="87.9618" /><line stroke="rgb(0%,0%,0%)" x1="336.9" x2="336.9" y1="15.264" y2="14.1053" /><line stroke="rgb(0%,0%,0%)" x1="336.9" x2="336.9" y1="14.1053" y2="13.0382" /><line stroke="rgb(0%,0%,0%)" x1="336.9" x2="336.9" y1="13.0382" y2="12.1181" /><line stroke="rgb(0%,0%,0%)" x1="336.9" x2="336.9" y1="12.1181" y2="11.383" /><line stroke="rgb(0%,0%,0%)" x1="336.9" x2="336.9" y1="87.9618" y2="86.8947" /><line stroke="rgb(0%,0%,0%)" x1="336.9" x2="336.9" y1="86.8947" y2="85.736" /><line stroke="rgb(0%,0%,0%)" x1="336.9" x2="336.9" y1="85.736" y2="84.5553" /><line stroke="rgb(0%,0%,0%)" x1="336.9" x2="336.9" y1="84.5553" y2="83.4295" /><line stroke="rgb(0%,0%,0%)" x1="249.2953" x2="244.6592" y1="100.5" y2="100.5" /><line stroke="rgb(0%,0%,0%)" x1="249.2953" x2="249.7081" y1="100.5" y2="100.5" /><line stroke="rgb(0%,0%,0%)" x1="249.7081" x2="260.7739" y1="100.5" y2="100.5" /><line stroke="rgb(0%,0%,0%)" x1="260.7739" x2="262.1173" y1="100.5" y2="100.5" /><line stroke="rgb(0%,0%,0%)" x1="262.1173" x2="271.6476" y1="100.5" y2="100.5" /><line stroke="rgb(0%,0%,0%)" x1="271.6476" x2="273.776" y1="100.5" y2="100.5" /><line stroke="rgb(0%,0%,0%)" x1="273.776" x2="282.0101" y1="100.5" y2="100.5" /><line stroke="rgb(0%,0%,0%)" x1="282.0101" x2="289.0207" y1="100.5" y2="100.5" /><line stroke="rgb(0%,0%,0%)" x1="289.0207" x2="291.938" y1="100.5" y2="100.5" /><line stroke="rgb(0%,0%,0%)" x1="291.938" x2="298.1367" y1="100.5" y2="100.5" /><line stroke="rgb(0%,0%,0%)" x1="298.1367" x2="301.4942" y1="100.5" y2="100.5" /><line stroke="rgb(0%,0%,0%)" x1="301.4942" x2="307.0135" y1="100.5" y2="100.5" /><line stroke="rgb(0%,0%,0%)" x1="307.0135" x2="310.7313" y1="100.5" y2="100.5" /><line stroke="rgb(0%,0%,0%)" x1="310.7313" x2="315.6951" y1="100.5" y2="100.5" /><line stroke="rgb(0%,0%,0%)" x1="315.6951" x2="319.6937" y1="100.5" y2="100.5" /><line stroke="rgb(0%,0%,0%)" x1="319.6937" x2="323.9171" y1="100.5" y2="100.5" /><line stroke="rgb(0%,0%,0%)" x1="323.9171" x2="336.9" y1="100.5" y2="100.5" /><line stroke="rgb(0%,0%,0%)" x1="244.6592" x2="249.2953" y1="0.5" y2="0.5" /><line stroke="rgb(0%,0%,0%)" x1="249.2953" x2="249.7081" y1="0.5" y2="0.5" /><line stroke="rgb(0%,0%,0%)" x1="249.7081" x2="260.7739" y1="0.5" y2="0.5" /><line stroke="rgb(0%,0%,0%)" x1="260.7739" x2="262.1173" y1="0.5" y2="0.5" /><line stroke="rgb(0%,0%,0%)" x1="262.1173" x2="271.6476" y1="0.5" y2="0.5" /><line stroke="rgb(0%,0%,0%)" x1="271.6476" x2="273.776" y1="0.5" y2="0.5" /><line stroke="rgb(0%,0%,0%)" x1="273.776" x2="282.0101" y1="0.5" y2="0.5" /><line stroke="rgb(0%,0%,0%)" x1="282.0101" x2="289.0207" y1="0.5" y2="0.5" /><line stroke="rgb(0%,0%,0%)" x1="289.0207" x2="291.938" y1="0.5" y2="0.5" /><line stroke="rgb(0%,0%,0%)" x1="291.938" x2="298.1367" y1="0.5" y2="0.5" /><line stroke="rgb(0%,0%,0%)" x1="298.1367" x2="301.4942" y1="0.5" y2="0.5" /><line stroke="rgb(0%,0%,0%)" x1="301.4942" x2="307.0135" y1="0.5" y2="0.5" /><line stroke="rgb(0%,0%,0%)" x1="307.0135" x2="310.7313" y1="0.5" y2="0.5" /><line stroke="rgb(0%,0%,0%)" x1="310.7313" x2="315.6951" y1="0.5" y2="0.5" /><line stroke="rgb(0%,0%,0%)" x1="315.6951" x2="319.6937" y1="0.5" y2="0.5" /><line stroke="rgb(0%,0%,0%)" x1="319.6937" x2="323.9171" y1="0.5" y2="0.5" /><line stroke="rgb(0%,0%,0%)" x1="336.9" x2="323.9171" y1="0.5" y2="0.5" /></svg>