<?xml version="1.0" encoding="utf-8" ?>
<svg baseProfile="tiny" height="100%" version="1.2" width="100%" xmlns="http://www.w3.org/2000/svg" xmlns:ev="http://www.w3.org/2001/xml-events" xmlns:xlink="http://www.w3.org/1999/xlink"><defs /><line stroke="rgb(0%,0%,0%)" x1="245.6217" x2="245.6217" y1="100.5" y2="75.4805" /><line stroke="rgb(0%,0%,0%)" x1="245.6217" x2="245.6217" y1="75.4805" y2="0.5" /><line stroke="rgb(0%,0%,0%)" x1="336.9" x2="336.9" y1="11.7551" y2="0.5" /><line stroke="rgb(0%,0%,0%)" x1="336.9" x2="336.9" y1="82.8457" y2="18.1543" /><line stroke="rgb(0%,0%,0%)" x1="336.9" x2="336.9" y1="18.1543" y2="16.9901" /><line stroke="rgb(0%,0%,0%)" x1="336.9" x2="336.9" y1="16.9901" y2="15.7689" /><line stroke="rgb(0%,0%,0%)" x1="336.9" x2="336.9" y1="100.5" y2="89.2449" /><line stroke="rgb(0%,0%,0%)" x1="336.9" x2="336.9" y1="89.2449" y2="88.4846" /><line stroke="rgb(0%,0%,0%)" x1="336.9" x2="336.9" y1="88.4846" y2="87.533" /><line stroke="rgb(0%,0%,0%)" x1="336.9" x2="336.9" y1="15.7689" y2="14.5706" /><line stroke="rgb(0%,0%,0%)" x1="336.9" x2="336.9" y1="14.5706" y2="13.467" /><line stroke="rgb(0%,0%,0%)" x1="336.9" x2="336.9" y1="13.467" y2="12.5154" /><line stroke="rgb(0%,0%,0%)" x1="336.9" x2="336.9" y1="12.5154" y2="11.7551" /><line stroke="rgb(0%,0%,0%)" x1="336.9" x2="336.9" y1="87.533" y2="86.4294" /><line stroke="rgb(0%,0%,0%)" x1="336.9" x2="336.9" y1="86.4294" y2="85.2311" /><line stroke="rgb(0%,0%,0%)" x1="336.9" x2="336.9" y1="85.2311" y2="84.0099" /><line stroke="rgb(0%,0%,0%)" x1="336.9" x2="336.9" y1="84.0099" y2="82.8457" /><line stroke="rgb(0%,0%,0%)" x1="248.603" x2="245.6217" y1="100.5" y2="100.5" /><line stroke="rgb(0%,0%,0%)" x1="248.603" x2="248.8684" y1="100.5" y2="100.5" /><line stroke="rgb(0%,0%,0%)" x1="248.8684" x2="260.1414" y1="100.5" y2="100.5" /><line stroke="rgb(0%,0%,0%)" x1="260.1414" x2="261.3438" y1="100.5" y2="100.5" /><line stroke="rgb(0%,0%,0%)" x1="261.3438" x2="271.0712" y1="100.5" y2="100.5" /><line stroke="rgb(0%,0%,0%)" x1="271.0712" x2="273.0644" y1="100.5" y2="100.5" /><line stroke="rgb(0%,0%,0%)" x1="273.0644" x2="281.4867" y1="100.5" y2="100.5" /><line stroke="rgb(0%,0%,0%)" x1="281.4867" x2="288.6575" y1="100.5" y2="100.5" /><line stroke="rgb(0%,0%,0%)" x1="288.6575" x2="291.4648" y1="100.5" y2="100.5" /><line stroke="rgb(0%,0%,0%)" x1="291.4648" x2="297.8197" y1="100.5" y2="100.5" /><line stroke="rgb(0%,0%,0%)" x1="297.8197" x2="301.0692" y1="100.5" y2="100.5" /><line stroke="rgb(0%,0%,0%)" x1="301.0692" x2="306.741" y1="100.5" y2="100.5" /><line stroke="rgb(0%,0%,0%)" x1="306.741" x2="310.3526" y1="100.5" y2="100.5" /><line stroke="rgb(0%,0%,0%)" x1="310.3526" x2="315.4656" y1="100.5" y2="100.5" /><line stroke="rgb(0%,0%,0%)" x1="315.4656" x2="319.3599" y1="100.5" y2="100.5" /><line stroke="rgb(0%,0%,0%)" x1="319.3599" x2="323.4731" y1="100.5" y2="100.5" /><line stroke="rgb(0%,0%,0%)" x1="323.4731" x2="336.9" y1="100.5" y2="100.5" /><line stroke="rgb(0%,0%,0%)" x1="245.6217" x2="248.603" y1="0.5" y2="0.5" /><line stroke="rgb(0%,0%,0%)" x1="248.603" x2="248.8684" y1="0.5" y2="0.5" /><line stroke="rgb(0%,0%,0%)" x1="248.8684" x2="260.1414" y1="0.5" y2="0.5" /><line stroke="rgb(0%,0%,0%)" x1="260.1414" x2="261.3438" y1="0.5" y2="0.5" /><line stroke="rgb(0%,0%,0%)" x1="261.3438" x2="271.0712" y1="0.5" y2="0.5" /><line stroke="rgb(0%,0%,0%)" x1="271.0712" x2="273.0644" y1="0.5" y2="0.5" /><line stroke="rgb(0%,0%,0%)" x1="273.0644" x2="281.4867" y1="0.5" y2="0.5" /><line stroke="rgb(0%,0%,0%)" x1="281.4867" x2="288.6575" y1="0.5" y2="0.5" /><line stroke="rgb(0%,0%,0%)" x1="288.6575" x2="291.4648" y1="0.5" y2="0.5" /><line stroke="rgb(0%,0%,0%)" x1="291.4648" x2="297.8197" y1="0.5" y2="0.5" /><line stroke="rgb(0%,0%,0%)" x1="297.8197" x2="301.0692" y1="0.5" y2="0.5" /><line stroke="rgb(0%,0%,0%)" x1="301.0692" x2="306.741" y1="0.5" y2="0.5" /><line stroke="rgb(0%,0%,0%)" x1="306.741" x2="310.3526" y1="0.5" y2="0.5" /><line stroke="rgb(0%,0%,0%)" x1="310.3526" x2="315.4656" y1="0.5" y2="0.5" /><line stroke="rgb(0%,0%,0%)" x1="315.4656" x2="319.3599" y1="0.5" y2="0.5" /><line stroke="rgb(0%,0%,0%)" x1="319.3599" x2="323.4731" y1="0.5" y2="0.5" /><line stroke="rgb(0%,0%,0%)" x1="336.9" x2="323.4731" y1="0.5" y2="0.5" /></svg>