<?xml version="1.0" encoding="utf-8" ?>
<svg baseProfile="tiny" height="100%" version="1.2" width="100%" xmlns="http://www.w3.org/2000/svg" xmlns:ev="http://www.w3.org/2001/xml-events" xmlns:xlink="http://www.w3.org/1999/xlink"><defs /><line stroke="rgb(0%,0%,0%)" x1="351.9" x2="351.9" y1="0.5" y2="2.6601" /><line stroke="rgb(0%,0%,0%)" x1="351.9" x2="351.9" y1="2.6601" y2="100.5" /><line stroke="rgb(0%,0%,0%)" x1="348.1486" x2="351.1059" y1="100.5" y2="100.5" /><line stroke="rgb(0%,0%,0%)" x1="351.1059" x2="351.2091" y1="100.5" y2="100.5" /><line stroke="rgb(0%,0%,0%)" x1="351.2091" x2="351.3269" y1="100.5" y2="100.5" /><line stroke="rgb(0%,0%,0%)" x1="351.3269" x2="351.4577" y1="100.5" y2="100.5" /><line stroke="rgb(0%,0%,0%)" x1="351.4577" x2="351.5989" y1="100.5" y2="100.5" /><line stroke="rgb(0%,0%,0%)" x1="351.5989" x2="351.7475" y1="100.5" y2="100.5" /><line stroke="rgb(0%,0%,0%)" x1="351.7475" x2="351.9" y1="100.5" y2="100.5" /><line stroke="rgb(0%,0%,0%)" x1="348.1486" x2="5.5305" y1="100.5" y2="100.5" /><line stroke="rgb(0%,0%,0%)" x1="5.5305" x2="0.5" y1="100.5" y2="100.5" /><line stroke="rgb(0%,0%,0%)" x1="0.5" x2="5.5305" y1="0.5" y2="0.5" /><line stroke="rgb(0%,0%,0%)" x1="5.5305" x2="348.1486" y1="0.5" y2="0.5" /><line stroke="rgb(0%,0%,0%)" x1="348.1486" x2="351.1059" y1="0.5" y2="0.5" /><line stroke="rgb(0%,0%,0%)" x1="351.1059" x2="351.2091" y1="0.5" y2="0.5" /><line stroke="rgb(0%,0%,0%)" x1="351.2091" x2="351.3269" y1="0.5" y2="0.5" /><line stroke="rgb(0%,0%,0%)" x1="351.3269" x2="351.4577" y1="0.5" y2="0.5" /><line stroke="rgb(0%,0%,0%)" x1="351.4577" x2="351.5989" y1="0.5" y2="0.5" /><line stroke="rgb(0%,0%,0%)" x1="351.5989" x2="351.7475" y1="0.5" y2="0.5" /><line stroke="rgb(0%,0%,0%)" x1="351.7475" x2="351.9" y1="0.5" y2="0.5" /><line stroke="rgb(0%,0%,0%)" x1="0.5" x2="0.5" y1="0.5" y2="98.0009" /><line stroke="rgb(0%,0%,0%)" x1="0.5" x2="0.5" y1="98.0009" y2="100.5" /><line stroke="rgb(0%,0%,0%)" x1="165.1722" x2="165.4836" y1="47.3813" y2="50.3441" /><line stroke="rgb(0%,0%,0%)" x1="165.4836" x2="165.5" y1="50.3441" y2="50.5" /><line stroke="rgb(0%,0%,0%)" x1="165.5" x2="165.1886" y1="50.5" y2="53.4628" /><line stroke="rgb(0%,0%,0%)" x1="165.1886" x2="165.1722" y1="53.4628" y2="53.6187" /><line stroke="rgb(0%,0%,0%)" x1="165.1722" x2="164.2516" y1="53.6187" y2="56.452" /><line stroke="rgb(0%,0%,0%)" x1="164.2516" x2="164.2032" y1="56.452" y2="56.6011" /><line stroke="rgb(0%,0%,0%)" x1="164.2032" x2="162.7136" y1="56.6011" y2="59.181" /><line stroke="rgb(0%,0%,0%)" x1="162.7136" x2="162.6353" y1="59.181" y2="59.3168" /><line stroke="rgb(0%,0%,0%)" x1="162.6353" x2="160.6418" y1="59.3168" y2="61.5307" /><line stroke="rgb(0%,0%,0%)" x1="160.6418" x2="160.537" y1="61.5307" y2="61.6472" /><line stroke="rgb(0%,0%,0%)" x1="160.537" x2="158.1268" y1="61.6472" y2="63.3983" /><line stroke="rgb(0%,0%,0%)" x1="158.1268" x2="158.0" y1="63.3983" y2="63.4904" /><line stroke="rgb(0%,0%,0%)" x1="158.0" x2="155.2784" y1="63.4904" y2="64.7021" /><line stroke="rgb(0%,0%,0%)" x1="155.2784" x2="155.1353" y1="64.7021" y2="64.7658" /><line stroke="rgb(0%,0%,0%)" x1="155.1353" x2="152.2212" y1="64.7658" y2="65.3852" /><line stroke="rgb(0%,0%,0%)" x1="152.2212" x2="152.0679" y1="65.3852" y2="65.4178" /><line stroke="rgb(0%,0%,0%)" x1="152.0679" x2="149.0888" y1="65.4178" y2="65.4178" /><line stroke="rgb(0%,0%,0%)" x1="149.0888" x2="148.9321" y1="65.4178" y2="65.4178" /><line stroke="rgb(0%,0%,0%)" x1="148.9321" x2="146.0181" y1="65.4178" y2="64.7984" /><line stroke="rgb(0%,0%,0%)" x1="146.0181" x2="145.8647" y1="64.7984" y2="64.7658" /><line stroke="rgb(0%,0%,0%)" x1="145.8647" x2="143.1432" y1="64.7658" y2="63.5541" /><line stroke="rgb(0%,0%,0%)" x1="143.1432" x2="143.0" y1="63.5541" y2="63.4904" /><line stroke="rgb(0%,0%,0%)" x1="143.0" x2="140.5898" y1="63.4904" y2="61.7393" /><line stroke="rgb(0%,0%,0%)" x1="140.5898" x2="140.463" y1="61.7393" y2="61.6472" /><line stroke="rgb(0%,0%,0%)" x1="140.463" x2="138.4696" y1="61.6472" y2="59.4333" /><line stroke="rgb(0%,0%,0%)" x1="138.4696" x2="138.3647" y1="59.4333" y2="59.3168" /><line stroke="rgb(0%,0%,0%)" x1="138.3647" x2="136.8752" y1="59.3168" y2="56.7368" /><line stroke="rgb(0%,0%,0%)" x1="136.8752" x2="136.7968" y1="56.7368" y2="56.6011" /><line stroke="rgb(0%,0%,0%)" x1="136.7968" x2="135.8762" y1="56.6011" y2="53.7677" /><line stroke="rgb(0%,0%,0%)" x1="135.8762" x2="135.8278" y1="53.7677" y2="53.6187" /><line stroke="rgb(0%,0%,0%)" x1="135.8278" x2="135.5164" y1="53.6187" y2="50.6559" /><line stroke="rgb(0%,0%,0%)" x1="135.5164" x2="135.5" y1="50.6559" y2="50.5" /><line stroke="rgb(0%,0%,0%)" x1="135.5" x2="135.8114" y1="50.5" y2="47.5372" /><line stroke="rgb(0%,0%,0%)" x1="135.8114" x2="135.8278" y1="47.5372" y2="47.3813" /><line stroke="rgb(0%,0%,0%)" x1="135.8278" x2="136.7484" y1="47.3813" y2="44.548" /><line stroke="rgb(0%,0%,0%)" x1="136.7484" x2="136.7968" y1="44.548" y2="44.3989" /><line stroke="rgb(0%,0%,0%)" x1="136.7968" x2="138.2864" y1="44.3989" y2="41.819" /><line stroke="rgb(0%,0%,0%)" x1="138.2864" x2="138.3647" y1="41.819" y2="41.6832" /><line stroke="rgb(0%,0%,0%)" x1="138.3647" x2="140.3582" y1="41.6832" y2="39.4693" /><line stroke="rgb(0%,0%,0%)" x1="140.3582" x2="140.463" y1="39.4693" y2="39.3528" /><line stroke="rgb(0%,0%,0%)" x1="140.463" x2="142.8732" y1="39.3528" y2="37.6017" /><line stroke="rgb(0%,0%,0%)" x1="142.8732" x2="143.0" y1="37.6017" y2="37.5096" /><line stroke="rgb(0%,0%,0%)" x1="143.0" x2="145.7216" y1="37.5096" y2="36.2979" /><line stroke="rgb(0%,0%,0%)" x1="145.7216" x2="145.8647" y1="36.2979" y2="36.2342" /><line stroke="rgb(0%,0%,0%)" x1="145.8647" x2="148.7788" y1="36.2342" y2="35.6148" /><line stroke="rgb(0%,0%,0%)" x1="148.7788" x2="148.9321" y1="35.6148" y2="35.5822" /><line stroke="rgb(0%,0%,0%)" x1="148.9321" x2="151.9112" y1="35.5822" y2="35.5822" /><line stroke="rgb(0%,0%,0%)" x1="151.9112" x2="152.0679" y1="35.5822" y2="35.5822" /><line stroke="rgb(0%,0%,0%)" x1="152.0679" x2="154.9819" y1="35.5822" y2="36.2016" /><line stroke="rgb(0%,0%,0%)" x1="154.9819" x2="155.1353" y1="36.2016" y2="36.2342" /><line stroke="rgb(0%,0%,0%)" x1="155.1353" x2="157.8568" y1="36.2342" y2="37.4459" /><line stroke="rgb(0%,0%,0%)" x1="157.8568" x2="158.0" y1="37.4459" y2="37.5096" /><line stroke="rgb(0%,0%,0%)" x1="158.0" x2="160.4102" y1="37.5096" y2="39.2607" /><line stroke="rgb(0%,0%,0%)" x1="160.4102" x2="160.537" y1="39.2607" y2="39.3528" /><line stroke="rgb(0%,0%,0%)" x1="160.537" x2="162.5304" y1="39.3528" y2="41.5667" /><line stroke="rgb(0%,0%,0%)" x1="162.5304" x2="162.6353" y1="41.5667" y2="41.6832" /><line stroke="rgb(0%,0%,0%)" x1="162.6353" x2="164.1248" y1="41.6832" y2="44.2632" /><line stroke="rgb(0%,0%,0%)" x1="164.1248" x2="164.2032" y1="44.2632" y2="44.3989" /><line stroke="rgb(0%,0%,0%)" x1="164.2032" x2="165.1238" y1="44.3989" y2="47.2323" /><line stroke="rgb(0%,0%,0%)" x1="165.1238" x2="165.1722" y1="47.2323" y2="47.3813" /><line stroke="rgb(0%,0%,0%)" x1="65.1722" x2="65.4836" y1="47.3813" y2="50.3441" /><line stroke="rgb(0%,0%,0%)" x1="65.4836" x2="65.5" y1="50.3441" y2="50.5" /><line stroke="rgb(0%,0%,0%)" x1="65.5" x2="65.1886" y1="50.5" y2="53.4628" /><line stroke="rgb(0%,0%,0%)" x1="65.1886" x2="65.1722" y1="53.4628" y2="53.6187" /><line stroke="rgb(0%,0%,0%)" x1="65.1722" x2="64.2516" y1="53.6187" y2="56.452" /><line stroke="rgb(0%,0%,0%)" x1="64.2516" x2="64.2032" y1="56.452" y2="56.6011" /><line stroke="rgb(0%,0%,0%)" x1="64.2032" x2="62.7136" y1="56.6011" y2="59.181" /><line stroke="rgb(0%,0%,0%)" x1="62.7136" x2="62.6352" y1="59.181" y2="59.3168" /><line stroke="rgb(0%,0%,0%)" x1="62.6352" x2="60.6418" y1="59.3168" y2="61.5307" /><line stroke="rgb(0%,0%,0%)" x1="60.6418" x2="60.537" y1="61.5307" y2="61.6472" /><line stroke="rgb(0%,0%,0%)" x1="60.537" x2="58.1268" y1="61.6472" y2="63.3983" /><line stroke="rgb(0%,0%,0%)" x1="58.1268" x2="58.0" y1="63.3983" y2="63.4904" /><line stroke="rgb(0%,0%,0%)" x1="58.0" x2="55.2784" y1="63.4904" y2="64.7021" /><line stroke="rgb(0%,0%,0%)" x1="55.2784" x2="55.1353" y1="64.7021" y2="64.7658" /><line stroke="rgb(0%,0%,0%)" x1="55.1353" x2="52.2212" y1="64.7658" y2="65.3852" /><line stroke="rgb(0%,0%,0%)" x1="52.2212" x2="52.0679" y1="65.3852" y2="65.4178" /><line stroke="rgb(0%,0%,0%)" x1="52.0679" x2="49.0888" y1="65.4178" y2="65.4178" /><line stroke="rgb(0%,0%,0%)" x1="49.0888" x2="48.9321" y1="65.4178" y2="65.4178" /><line stroke="rgb(0%,0%,0%)" x1="48.9321" x2="46.0181" y1="65.4178" y2="64.7984" /><line stroke="rgb(0%,0%,0%)" x1="46.0181" x2="45.8647" y1="64.7984" y2="64.7658" /><line stroke="rgb(0%,0%,0%)" x1="45.8647" x2="43.1432" y1="64.7658" y2="63.5541" /><line stroke="rgb(0%,0%,0%)" x1="43.1432" x2="43.0" y1="63.5541" y2="63.4904" /><line stroke="rgb(0%,0%,0%)" x1="43.0" x2="40.5898" y1="63.4904" y2="61.7393" /><line stroke="rgb(0%,0%,0%)" x1="40.5898" x2="40.463" y1="61.7393" y2="61.6472" /><line stroke="rgb(0%,0%,0%)" x1="40.463" x2="38.4696" y1="61.6472" y2="59.4333" /><line stroke="rgb(0%,0%,0%)" x1="38.4696" x2="38.3647" y1="59.4333" y2="59.3168" /><line stroke="rgb(0%,0%,0%)" x1="38.3647" x2="36.8752" y1="59.3168" y2="56.7368" /><line stroke="rgb(0%,0%,0%)" x1="36.8752" x2="36.7968" y1="56.7368" y2="56.6011" /><line stroke="rgb(0%,0%,0%)" x1="36.7968" x2="35.8762" y1="56.6011" y2="53.7677" /><line stroke="rgb(0%,0%,0%)" x1="35.8762" x2="35.8278" y1="53.7677" y2="53.6187" /><line stroke="rgb(0%,0%,0%)" x1="35.8278" x2="35.5164" y1="53.6187" y2="50.6559" /><line stroke="rgb(0%,0%,0%)" x1="35.5164" x2="35.5" y1="50.6559" y2="50.5" /><line stroke="rgb(0%,0%,0%)" x1="35.5" x2="35.8114" y1="50.5" y2="47.5372" /><line stroke="rgb(0%,0%,0%)" x1="35.8114" x2="35.8278" y1="47.5372" y2="47.3813" /><line stroke="rgb(0%,0%,0%)" x1="35.8278" x2="36.7484" y1="47.3813" y2="44.548" /><line stroke="rgb(0%,0%,0%)" x1="36.7484" x2="36.7968" y1="44.548" y2="44.3989" /><line stroke="rgb(0%,0%,0%)" x1="36.7968" x2="38.2864" y1="44.3989" y2="41.819" /><line stroke="rgb(0%,0%,0%)" x1="38.2864" x2="38.3647" y1="41.819" y2="41.6832" /><line stroke="rgb(0%,0%,0%)" x1="38.3647" x2="40.3582" y1="41.6832" y2="39.4693" /><line stroke="rgb(0%,0%,0%)" x1="40.3582" x2="40.463" y1="39.4693" y2="39.3528" /><line stroke="rgb(0%,0%,0%)" x1="40.463" x2="42.8732" y1="39.3528" y2="37.6017" /><line stroke="rgb(0%,0%,0%)" x1="42.8732" x2="43.0" y1="37.6017" y2="37.5096" /><line stroke="rgb(0%,0%,0%)" x1="43.0" x2="45.7216" y1="37.5096" y2="36.2979" /><line stroke="rgb(0%,0%,0%)" x1="45.7216" x2="45.8647" y1="36.2979" y2="36.2342" /><line stroke="rgb(0%,0%,0%)" x1="45.8647" x2="48.7788" y1="36.2342" y2="35.6148" /><line stroke="rgb(0%,0%,0%)" x1="48.7788" x2="48.9321" y1="35.6148" y2="35.5822" /><line stroke="rgb(0%,0%,0%)" x1="48.9321" x2="51.9112" y1="35.5822" y2="35.5822" /><line stroke="rgb(0%,0%,0%)" x1="51.9112" x2="52.0679" y1="35.5822" y2="35.5822" /><line stroke="rgb(0%,0%,0%)" x1="52.0679" x2="54.9819" y1="35.5822" y2="36.2016" /><line stroke="rgb(0%,0%,0%)" x1="54.9819" x2="55.1353" y1="36.2016" y2="36.2342" /><line stroke="rgb(0%,0%,0%)" x1="55.1353" x2="57.8568" y1="36.2342" y2="37.4459" /><line stroke="rgb(0%,0%,0%)" x1="57.8568" x2="58.0" y1="37.4459" y2="37.5096" /><line stroke="rgb(0%,0%,0%)" x1="58.0" x2="60.4102" y1="37.5096" y2="39.2607" /><line stroke="rgb(0%,0%,0%)" x1="60.4102" x2="60.537" y1="39.2607" y2="39.3528" /><line stroke="rgb(0%,0%,0%)" x1="60.537" x2="62.5304" y1="39.3528" y2="41.5667" /><line stroke="rgb(0%,0%,0%)" x1="62.5304" x2="62.6352" y1="41.5667" y2="41.6832" /><line stroke="rgb(0%,0%,0%)" x1="62.6352" x2="64.1248" y1="41.6832" y2="44.2632" /><line stroke="rgb(0%,0%,0%)" x1="64.1248" x2="64.2032" y1="44.2632" y2="44.3989" /><line stroke="rgb(0%,0%,0%)" x1="64.2032" x2="65.1238" y1="44.3989" y2="47.2323" /><line stroke="rgb(0%,0%,0%)" x1="65.1238" x2="65.1722" y1="47.2323" y2="47.3813" /></svg>