<?xml version="1.0" encoding="utf-8" ?>
<svg baseProfile="tiny" height="100%" version="1.2" width="100%" xmlns="http://www.w3.org/2000/svg" xmlns:ev="http://www.w3.org/2001/xml-events" xmlns:xlink="http://www.w3.org/1999/xlink"><defs /><line stroke="rgb(0%,0%,0%)" x1="351.9" x2="351.9" y1="0.5" y2="25.9892" /><line stroke="rgb(0%,0%,0%)" x1="351.9" x2="351.9" y1="25.9892" y2="100.5" /><line stroke="rgb(0%,0%,0%)" x1="307.6338" x2="342.5299" y1="100.5" y2="100.5" /><line stroke="rgb(0%,0%,0%)" x1="342.5299" x2="343.747" y1="100.5" y2="100.5" /><line stroke="rgb(0%,0%,0%)" x1="343.747" x2="345.1373" y1="100.5" y2="100.5" /><line stroke="rgb(0%,0%,0%)" x1="345.1373" x2="346.6804" y1="100.5" y2="100.5" /><line stroke="rgb(0%,0%,0%)" x1="346.6804" x2="348.3471" y1="100.5" y2="100.5" /><line stroke="rgb(0%,0%,0%)" x1="348.3471" x2="350.101" y1="100.5" y2="100.5" /><line stroke="rgb(0%,0%,0%)" x1="350.101" x2="351.9" y1="100.5" y2="100.5" /><line stroke="rgb(0%,0%,0%)" x1="307.6338" x2="59.8603" y1="100.5" y2="100.5" /><line stroke="rgb(0%,0%,0%)" x1="59.8603" x2="0.5" y1="100.5" y2="100.5" /><line stroke="rgb(0%,0%,0%)" x1="0.5" x2="59.8603" y1="0.5" y2="0.5" /><line stroke="rgb(0%,0%,0%)" x1="59.8603" x2="307.6338" y1="0.5" y2="0.5" /><line stroke="rgb(0%,0%,0%)" x1="307.6338" x2="342.5299" y1="0.5" y2="0.5" /><line stroke="rgb(0%,0%,0%)" x1="342.5299" x2="343.747" y1="0.5" y2="0.5" /><line stroke="rgb(0%,0%,0%)" x1="343.747" x2="345.1373" y1="0.5" y2="0.5" /><line stroke="rgb(0%,0%,0%)" x1="345.1373" x2="346.6804" y1="0.5" y2="0.5" /><line stroke="rgb(0%,0%,0%)" x1="346.6804" x2="348.3471" y1="0.5" y2="0.5" /><line stroke="rgb(0%,0%,0%)" x1="348.3471" x2="350.101" y1="0.5" y2="0.5" /><line stroke="rgb(0%,0%,0%)" x1="350.101" x2="351.9" y1="0.5" y2="0.5" /><line stroke="rgb(0%,0%,0%)" x1="0.5" x2="0.5" y1="0.5" y2="71.0104" /><line stroke="rgb(0%,0%,0%)" x1="0.5" x2="0.5" y1="71.0104" y2="100.5" /><line stroke="rgb(0%,0%,0%)" x1="165.1722" x2="165.3067" y1="47.3813" y2="48.6606" /><line stroke="rgb(0%,0%,0%)" x1="165.3067" x2="165.5" y1="48.6606" y2="50.5" /><line stroke="rgb(0%,0%,0%)" x1="165.5" x2="165.3655" y1="50.5" y2="51.7793" /><line stroke="rgb(0%,0%,0%)" x1="165.3655" x2="165.1722" y1="51.7793" y2="53.6187" /><line stroke="rgb(0%,0%,0%)" x1="165.1722" x2="164.7747" y1="53.6187" y2="54.8421" /><line stroke="rgb(0%,0%,0%)" x1="164.7747" x2="164.2032" y1="54.8421" y2="56.6011" /><line stroke="rgb(0%,0%,0%)" x1="164.2032" x2="163.56" y1="56.6011" y2="57.7151" /><line stroke="rgb(0%,0%,0%)" x1="163.56" x2="162.6353" y1="57.7151" y2="59.3168" /><line stroke="rgb(0%,0%,0%)" x1="162.6353" x2="161.7745" y1="59.3168" y2="60.2727" /><line stroke="rgb(0%,0%,0%)" x1="161.7745" x2="160.537" y1="60.2727" y2="61.6472" /><line stroke="rgb(0%,0%,0%)" x1="160.537" x2="159.4963" y1="61.6472" y2="62.4033" /><line stroke="rgb(0%,0%,0%)" x1="159.4963" x2="158.0" y1="62.4033" y2="63.4904" /><line stroke="rgb(0%,0%,0%)" x1="158.0" x2="156.8249" y1="63.4904" y2="64.0136" /><line stroke="rgb(0%,0%,0%)" x1="156.8249" x2="155.1353" y1="64.0136" y2="64.7658" /><line stroke="rgb(0%,0%,0%)" x1="155.1353" x2="153.877" y1="64.7658" y2="65.0333" /><line stroke="rgb(0%,0%,0%)" x1="153.877" x2="152.0679" y1="65.0333" y2="65.4178" /><line stroke="rgb(0%,0%,0%)" x1="152.0679" x2="150.7816" y1="65.4178" y2="65.4178" /><line stroke="rgb(0%,0%,0%)" x1="150.7816" x2="148.9321" y1="65.4178" y2="65.4178" /><line stroke="rgb(0%,0%,0%)" x1="148.9321" x2="147.6738" y1="65.4178" y2="65.1504" /><line stroke="rgb(0%,0%,0%)" x1="147.6738" x2="145.8647" y1="65.1504" y2="64.7658" /><line stroke="rgb(0%,0%,0%)" x1="145.8647" x2="144.6896" y1="64.7658" y2="64.2426" /><line stroke="rgb(0%,0%,0%)" x1="144.6896" x2="143.0" y1="64.2426" y2="63.4904" /><line stroke="rgb(0%,0%,0%)" x1="143.0" x2="141.9593" y1="63.4904" y2="62.7343" /><line stroke="rgb(0%,0%,0%)" x1="141.9593" x2="140.463" y1="62.7343" y2="61.6472" /><line stroke="rgb(0%,0%,0%)" x1="140.463" x2="139.6023" y1="61.6472" y2="60.6912" /><line stroke="rgb(0%,0%,0%)" x1="139.6023" x2="138.3647" y1="60.6912" y2="59.3168" /><line stroke="rgb(0%,0%,0%)" x1="138.3647" x2="137.7216" y1="59.3168" y2="58.2028" /><line stroke="rgb(0%,0%,0%)" x1="137.7216" x2="136.7968" y1="58.2028" y2="56.6011" /><line stroke="rgb(0%,0%,0%)" x1="136.7968" x2="136.3993" y1="56.6011" y2="55.3777" /><line stroke="rgb(0%,0%,0%)" x1="136.3993" x2="135.8278" y1="55.3777" y2="53.6187" /><line stroke="rgb(0%,0%,0%)" x1="135.8278" x2="135.6933" y1="53.6187" y2="52.3394" /><line stroke="rgb(0%,0%,0%)" x1="135.6933" x2="135.5" y1="52.3394" y2="50.5" /><line stroke="rgb(0%,0%,0%)" x1="135.5" x2="135.6345" y1="50.5" y2="49.2207" /><line stroke="rgb(0%,0%,0%)" x1="135.6345" x2="135.8278" y1="49.2207" y2="47.3813" /><line stroke="rgb(0%,0%,0%)" x1="135.8278" x2="136.2253" y1="47.3813" y2="46.1579" /><line stroke="rgb(0%,0%,0%)" x1="136.2253" x2="136.7968" y1="46.1579" y2="44.3989" /><line stroke="rgb(0%,0%,0%)" x1="136.7968" x2="137.44" y1="44.3989" y2="43.2849" /><line stroke="rgb(0%,0%,0%)" x1="137.44" x2="138.3647" y1="43.2849" y2="41.6832" /><line stroke="rgb(0%,0%,0%)" x1="138.3647" x2="139.2255" y1="41.6832" y2="40.7273" /><line stroke="rgb(0%,0%,0%)" x1="139.2255" x2="140.463" y1="40.7273" y2="39.3528" /><line stroke="rgb(0%,0%,0%)" x1="140.463" x2="141.5037" y1="39.3528" y2="38.5967" /><line stroke="rgb(0%,0%,0%)" x1="141.5037" x2="143.0" y1="38.5967" y2="37.5096" /><line stroke="rgb(0%,0%,0%)" x1="143.0" x2="144.1751" y1="37.5096" y2="36.9864" /><line stroke="rgb(0%,0%,0%)" x1="144.1751" x2="145.8647" y1="36.9864" y2="36.2342" /><line stroke="rgb(0%,0%,0%)" x1="145.8647" x2="147.123" y1="36.2342" y2="35.9667" /><line stroke="rgb(0%,0%,0%)" x1="147.123" x2="148.9321" y1="35.9667" y2="35.5822" /><line stroke="rgb(0%,0%,0%)" x1="148.9321" x2="150.2184" y1="35.5822" y2="35.5822" /><line stroke="rgb(0%,0%,0%)" x1="150.2184" x2="152.0679" y1="35.5822" y2="35.5822" /><line stroke="rgb(0%,0%,0%)" x1="152.0679" x2="153.3262" y1="35.5822" y2="35.8496" /><line stroke="rgb(0%,0%,0%)" x1="153.3262" x2="155.1353" y1="35.8496" y2="36.2342" /><line stroke="rgb(0%,0%,0%)" x1="155.1353" x2="156.3104" y1="36.2342" y2="36.7574" /><line stroke="rgb(0%,0%,0%)" x1="156.3104" x2="158.0" y1="36.7574" y2="37.5096" /><line stroke="rgb(0%,0%,0%)" x1="158.0" x2="159.0407" y1="37.5096" y2="38.2657" /><line stroke="rgb(0%,0%,0%)" x1="159.0407" x2="160.537" y1="38.2657" y2="39.3528" /><line stroke="rgb(0%,0%,0%)" x1="160.537" x2="161.3977" y1="39.3528" y2="40.3088" /><line stroke="rgb(0%,0%,0%)" x1="161.3977" x2="162.6353" y1="40.3088" y2="41.6832" /><line stroke="rgb(0%,0%,0%)" x1="162.6353" x2="163.2784" y1="41.6832" y2="42.7972" /><line stroke="rgb(0%,0%,0%)" x1="163.2784" x2="164.2032" y1="42.7972" y2="44.3989" /><line stroke="rgb(0%,0%,0%)" x1="164.2032" x2="164.6007" y1="44.3989" y2="45.6223" /><line stroke="rgb(0%,0%,0%)" x1="164.6007" x2="165.1722" y1="45.6223" y2="47.3813" /><line stroke="rgb(0%,0%,0%)" x1="65.1722" x2="65.3067" y1="47.3813" y2="48.6606" /><line stroke="rgb(0%,0%,0%)" x1="65.3067" x2="65.5" y1="48.6606" y2="50.5" /><line stroke="rgb(0%,0%,0%)" x1="65.5" x2="65.3655" y1="50.5" y2="51.7793" /><line stroke="rgb(0%,0%,0%)" x1="65.3655" x2="65.1722" y1="51.7793" y2="53.6187" /><line stroke="rgb(0%,0%,0%)" x1="65.1722" x2="64.7747" y1="53.6187" y2="54.8421" /><line stroke="rgb(0%,0%,0%)" x1="64.7747" x2="64.2032" y1="54.8421" y2="56.6011" /><line stroke="rgb(0%,0%,0%)" x1="64.2032" x2="63.56" y1="56.6011" y2="57.7151" /><line stroke="rgb(0%,0%,0%)" x1="63.56" x2="62.6352" y1="57.7151" y2="59.3168" /><line stroke="rgb(0%,0%,0%)" x1="62.6352" x2="61.7745" y1="59.3168" y2="60.2727" /><line stroke="rgb(0%,0%,0%)" x1="61.7745" x2="60.537" y1="60.2727" y2="61.6472" /><line stroke="rgb(0%,0%,0%)" x1="60.537" x2="59.4963" y1="61.6472" y2="62.4033" /><line stroke="rgb(0%,0%,0%)" x1="59.4963" x2="58.0" y1="62.4033" y2="63.4904" /><line stroke="rgb(0%,0%,0%)" x1="58.0" x2="56.8249" y1="63.4904" y2="64.0136" /><line stroke="rgb(0%,0%,0%)" x1="56.8249" x2="55.1353" y1="64.0136" y2="64.7658" /><line stroke="rgb(0%,0%,0%)" x1="55.1353" x2="53.877" y1="64.7658" y2="65.0333" /><line stroke="rgb(0%,0%,0%)" x1="53.877" x2="52.0679" y1="65.0333" y2="65.4178" /><line stroke="rgb(0%,0%,0%)" x1="52.0679" x2="50.7816" y1="65.4178" y2="65.4178" /><line stroke="rgb(0%,0%,0%)" x1="50.7816" x2="48.9321" y1="65.4178" y2="65.4178" /><line stroke="rgb(0%,0%,0%)" x1="48.9321" x2="47.6738" y1="65.4178" y2="65.1504" /><line stroke="rgb(0%,0%,0%)" x1="47.6738" x2="45.8647" y1="65.1504" y2="64.7658" /><line stroke="rgb(0%,0%,0%)" x1="45.8647" x2="44.6896" y1="64.7658" y2="64.2426" /><line stroke="rgb(0%,0%,0%)" x1="44.6896" x2="43.0" y1="64.2426" y2="63.4904" /><line stroke="rgb(0%,0%,0%)" x1="43.0" x2="41.9593" y1="63.4904" y2="62.7343" /><line stroke="rgb(0%,0%,0%)" x1="41.9593" x2="40.463" y1="62.7343" y2="61.6472" /><line stroke="rgb(0%,0%,0%)" x1="40.463" x2="39.6023" y1="61.6472" y2="60.6912" /><line stroke="rgb(0%,0%,0%)" x1="39.6023" x2="38.3647" y1="60.6912" y2="59.3168" /><line stroke="rgb(0%,0%,0%)" x1="38.3647" x2="37.7216" y1="59.3168" y2="58.2028" /><line stroke="rgb(0%,0%,0%)" x1="37.7216" x2="36.7968" y1="58.2028" y2="56.6011" /><line stroke="rgb(0%,0%,0%)" x1="36.7968" x2="36.3993" y1="56.6011" y2="55.3777" /><line stroke="rgb(0%,0%,0%)" x1="36.3993" x2="35.8278" y1="55.3777" y2="53.6187" /><line stroke="rgb(0%,0%,0%)" x1="35.8278" x2="35.6933" y1="53.6187" y2="52.3394" /><line stroke="rgb(0%,0%,0%)" x1="35.6933" x2="35.5" y1="52.3394" y2="50.5" /><line stroke="rgb(0%,0%,0%)" x1="35.5" x2="35.6345" y1="50.5" y2="49.2207" /><line stroke="rgb(0%,0%,0%)" x1="35.6345" x2="35.8278" y1="49.2207" y2="47.3813" /><line stroke="rgb(0%,0%,0%)" x1="35.8278" x2="36.2253" y1="47.3813" y2="46.1579" /><line stroke="rgb(0%,0%,0%)" x1="36.2253" x2="36.7968" y1="46.1579" y2="44.3989" /><line stroke="rgb(0%,0%,0%)" x1="36.7968" x2="37.44" y1="44.3989" y2="43.2849" /><line stroke="rgb(0%,0%,0%)" x1="37.44" x2="38.3647" y1="43.2849" y2="41.6832" /><line stroke="rgb(0%,0%,0%)" x1="38.3647" x2="39.2255" y1="41.6832" y2="40.7273" /><line stroke="rgb(0%,0%,0%)" x1="39.2255" x2="40.463" y1="40.7273" y2="39.3528" /><line stroke="rgb(0%,0%,0%)" x1="40.463" x2="41.5037" y1="39.3528" y2="38.5967" /><line stroke="rgb(0%,0%,0%)" x1="41.5037" x2="43.0" y1="38.5967" y2="37.5096" /><line stroke="rgb(0%,0%,0%)" x1="43.0" x2="44.1751" y1="37.5096" y2="36.9864" /><line stroke="rgb(0%,0%,0%)" x1="44.1751" x2="45.8647" y1="36.9864" y2="36.2342" /><line stroke="rgb(0%,0%,0%)" x1="45.8647" x2="47.123" y1="36.2342" y2="35.9667" /><line stroke="rgb(0%,0%,0%)" x1="47.123" x2="48.9321" y1="35.9667" y2="35.5822" /><line stroke="rgb(0%,0%,0%)" x1="48.9321" x2="50.2184" y1="35.5822" y2="35.5822" /><line stroke="rgb(0%,0%,0%)" x1="50.2184" x2="52.0679" y1="35.5822" y2="35.5822" /><line stroke="rgb(0%,0%,0%)" x1="52.0679" x2="53.3262" y1="35.5822" y2="35.8496" /><line stroke="rgb(0%,0%,0%)" x1="53.3262" x2="55.1353" y1="35.8496" y2="36.2342" /><line stroke="rgb(0%,0%,0%)" x1="55.1353" x2="56.3104" y1="36.2342" y2="36.7574" /><line stroke="rgb(0%,0%,0%)" x1="56.3104" x2="58.0" y1="36.7574" y2="37.5096" /><line stroke="rgb(0%,0%,0%)" x1="58.0" x2="59.0407" y1="37.5096" y2="38.2657" /><line stroke="rgb(0%,0%,0%)" x1="59.0407" x2="60.537" y1="38.2657" y2="39.3528" /><line stroke="rgb(0%,0%,0%)" x1="60.537" x2="61.3977" y1="39.3528" y2="40.3088" /><line stroke="rgb(0%,0%,0%)" x1="61.3977" x2="62.6352" y1="40.3088" y2="41.6832" /><line stroke="rgb(0%,0%,0%)" x1="62.6352" x2="63.2784" y1="41.6832" y2="42.7972" /><line stroke="rgb(0%,0%,0%)" x1="63.2784" x2="64.2032" y1="42.7972" y2="44.3989" /><line stroke="rgb(0%,0%,0%)" x1="64.2032" x2="64.6007" y1="44.3989" y2="45.6223" /><line stroke="rgb(0%,0%,0%)" x1="64.6007" x2="65.1722" y1="45.6223" y2="47.3813" /></svg>