<?xml version="1.0" encoding="utf-8" ?>
<svg baseProfile="tiny" height="100%" version="1.2" width="100%" xmlns="http://www.w3.org/2000/svg" xmlns:ev="http://www.w3.org/2001/xml-events" xmlns:xlink="http://www.w3.org/1999/xlink"><defs /><line stroke="rgb(0%,0%,0%)" x1="246.5843" x2="246.5843" y1="100.5" y2="89.3692" /><line stroke="rgb(0%,0%,0%)" x1="246.5843" x2="246.5843" y1="89.3692" y2="0.5" /><line stroke="rgb(0%,0%,0%)" x1="336.9" x2="336.9" y1="12.1273" y2="0.5" /><line stroke="rgb(0%,0%,0%)" x1="336.9" x2="336.9" y1="82.2619" y2="18.7381" /><line stroke="rgb(0%,0%,0%)" x1="336.9" x2="336.9" y1="18.7381" y2="17.5354" /><line stroke="rgb(0%,0%,0%)" x1="336.9" x2="336.9" y1="17.5354" y2="16.2739" /><line stroke="rgb(0%,0%,0%)" x1="336.9" x2="336.9" y1="100.5" y2="88.8727" /><line stroke="rgb(0%,0%,0%)" x1="336.9" x2="336.9" y1="88.8727" y2="88.0873" /><line stroke="rgb(0%,0%,0%)" x1="336.9" x2="336.9" y1="88.0873" y2="87.1042" /><line stroke="rgb(0%,0%,0%)" x1="336.9" x2="336.9" y1="16.2739" y2="15.0359" /><line stroke="rgb(0%,0%,0%)" x1="336.9" x2="336.9" y1="15.0359" y2="13.8958" /><line stroke="rgb(0%,0%,0%)" x1="336.9" x2="336.9" y1="13.8958" y2="12.9127" /><line stroke="rgb(0%,0%,0%)" x1="336.9" x2="336.9" y1="12.9127" y2="12.1273" /><line stroke="rgb(0%,0%,0%)" x1="336.9" x2="336.9" y1="87.1042" y2="85.9641" /><line stroke="rgb(0%,0%,0%)" x1="336.9" x2="336.9" y1="85.9641" y2="84.7261" /><line stroke="rgb(0%,0%,0%)" x1="336.9" x2="336.9" y1="84.7261" y2="83.4646" /><line stroke="rgb(0%,0%,0%)" x1="336.9" x2="336.9" y1="83.4646" y2="82.2619" /><line stroke="rgb(0%,0%,0%)" x1="247.9106" x2="246.5843" y1="100.5" y2="100.5" /><line stroke="rgb(0%,0%,0%)" x1="247.9106" x2="248.0287" y1="100.5" y2="100.5" /><line stroke="rgb(0%,0%,0%)" x1="248.0287" x2="259.509" y1="100.5" y2="100.5" /><line stroke="rgb(0%,0%,0%)" x1="259.509" x2="260.5703" y1="100.5" y2="100.5" /><line stroke="rgb(0%,0%,0%)" x1="260.5703" x2="270.4949" y1="100.5" y2="100.5" /><line stroke="rgb(0%,0%,0%)" x1="270.4949" x2="272.3529" y1="100.5" y2="100.5" /><line stroke="rgb(0%,0%,0%)" x1="272.3529" x2="280.9633" y1="100.5" y2="100.5" /><line stroke="rgb(0%,0%,0%)" x1="280.9633" x2="288.2943" y1="100.5" y2="100.5" /><line stroke="rgb(0%,0%,0%)" x1="288.2943" x2="290.9917" y1="100.5" y2="100.5" /><line stroke="rgb(0%,0%,0%)" x1="290.9917" x2="297.5027" y1="100.5" y2="100.5" /><line stroke="rgb(0%,0%,0%)" x1="297.5027" x2="300.6441" y1="100.5" y2="100.5" /><line stroke="rgb(0%,0%,0%)" x1="300.6441" x2="306.4685" y1="100.5" y2="100.5" /><line stroke="rgb(0%,0%,0%)" x1="306.4685" x2="309.9739" y1="100.5" y2="100.5" /><line stroke="rgb(0%,0%,0%)" x1="309.9739" x2="315.2361" y1="100.5" y2="100.5" /><line stroke="rgb(0%,0%,0%)" x1="315.2361" x2="319.0261" y1="100.5" y2="100.5" /><line stroke="rgb(0%,0%,0%)" x1="319.0261" x2="323.0291" y1="100.5" y2="100.5" /><line stroke="rgb(0%,0%,0%)" x1="323.0291" x2="336.9" y1="100.5" y2="100.5" /><line stroke="rgb(0%,0%,0%)" x1="246.5843" x2="247.9106" y1="0.5" y2="0.5" /><line stroke="rgb(0%,0%,0%)" x1="247.9106" x2="248.0287" y1="0.5" y2="0.5" /><line stroke="rgb(0%,0%,0%)" x1="248.0287" x2="259.509" y1="0.5" y2="0.5" /><line stroke="rgb(0%,0%,0%)" x1="259.509" x2="260.5703" y1="0.5" y2="0.5" /><line stroke="rgb(0%,0%,0%)" x1="260.5703" x2="270.4949" y1="0.5" y2="0.5" /><line stroke="rgb(0%,0%,0%)" x1="270.4949" x2="272.3529" y1="0.5" y2="0.5" /><line stroke="rgb(0%,0%,0%)" x1="272.3529" x2="280.9633" y1="0.5" y2="0.5" /><line stroke="rgb(0%,0%,0%)" x1="280.9633" x2="288.2943" y1="0.5" y2="0.5" /><line stroke="rgb(0%,0%,0%)" x1="288.2943" x2="290.9917" y1="0.5" y2="0.5" /><line stroke="rgb(0%,0%,0%)" x1="290.9917" x2="297.5027" y1="0.5" y2="0.5" /><line stroke="rgb(0%,0%,0%)" x1="297.5027" x2="300.6441" y1="0.5" y2="0.5" /><line stroke="rgb(0%,0%,0%)" x1="300.6441" x2="306.4685" y1="0.5" y2="0.5" /><line stroke="rgb(0%,0%,0%)" x1="306.4685" x2="309.9739" y1="0.5" y2="0.5" /><line stroke="rgb(0%,0%,0%)" x1="309.9739" x2="315.2361" y1="0.5" y2="0.5" /><line stroke="rgb(0%,0%,0%)" x1="315.2361" x2="319.0261" y1="0.5" y2="0.5" /><line stroke="rgb(0%,0%,0%)" x1="319.0261" x2="323.0291" y1="0.5" y2="0.5" /><line stroke="rgb(0%,0%,0%)" x1="336.9" x2="323.0291" y1="0.5" y2="0.5" /></svg>