<?xml version="1.0" encoding="utf-8" ?>
<svg baseProfile="tiny" height="100%" version="1.2" width="100%" xmlns="http://www.w3.org/2000/svg" xmlns:ev="http://www.w3.org/2001/xml-events" xmlns:xlink="http://www.w3.org/1999/xlink"><defs /><line stroke="rgb(0%,0%,0%)" x1="247.5742" x2="247.5742" y1="100.5" y2="3.4538" /><line stroke="rgb(0%,0%,0%)" x1="247.5742" x2="247.5742" y1="3.4538" y2="0.5" /><line stroke="rgb(0%,0%,0%)" x1="336.9" x2="336.9" y1="12.4995" y2="0.5" /><line stroke="rgb(0%,0%,0%)" x1="336.9" x2="336.9" y1="81.6781" y2="19.3219" /><line stroke="rgb(0%,0%,0%)" x1="336.9" x2="336.9" y1="19.3219" y2="18.0807" /><line stroke="rgb(0%,0%,0%)" x1="336.9" x2="336.9" y1="18.0807" y2="16.7788" /><line stroke="rgb(0%,0%,0%)" x1="336.9" x2="336.9" y1="100.5" y2="88.5005" /><line stroke="rgb(0%,0%,0%)" x1="336.9" x2="336.9" y1="88.5005" y2="87.6899" /><line stroke="rgb(0%,0%,0%)" x1="336.9" x2="336.9" y1="87.6899" y2="86.6754" /><line stroke="rgb(0%,0%,0%)" x1="336.9" x2="336.9" y1="16.7788" y2="15.5012" /><line stroke="rgb(0%,0%,0%)" x1="336.9" x2="336.9" y1="15.5012" y2="14.3246" /><line stroke="rgb(0%,0%,0%)" x1="336.9" x2="336.9" y1="14.3246" y2="13.3101" /><line stroke="rgb(0%,0%,0%)" x1="336.9" x2="336.9" y1="13.3101" y2="12.4995" /><line stroke="rgb(0%,0%,0%)" x1="336.9" x2="336.9" y1="86.6754" y2="85.4988" /><line stroke="rgb(0%,0%,0%)" x1="336.9" x2="336.9" y1="85.4988" y2="84.2212" /><line stroke="rgb(0%,0%,0%)" x1="336.9" x2="336.9" y1="84.2212" y2="82.9193" /><line stroke="rgb(0%,0%,0%)" x1="336.9" x2="336.9" y1="82.9193" y2="81.6781" /><line stroke="rgb(0%,0%,0%)" x1="258.8765" x2="247.5742" y1="100.5" y2="100.5" /><line stroke="rgb(0%,0%,0%)" x1="258.8765" x2="259.7968" y1="100.5" y2="100.5" /><line stroke="rgb(0%,0%,0%)" x1="259.7968" x2="269.9185" y1="100.5" y2="100.5" /><line stroke="rgb(0%,0%,0%)" x1="269.9185" x2="271.6413" y1="100.5" y2="100.5" /><line stroke="rgb(0%,0%,0%)" x1="271.6413" x2="280.4398" y1="100.5" y2="100.5" /><line stroke="rgb(0%,0%,0%)" x1="280.4398" x2="287.9311" y1="100.5" y2="100.5" /><line stroke="rgb(0%,0%,0%)" x1="287.9311" x2="290.5186" y1="100.5" y2="100.5" /><line stroke="rgb(0%,0%,0%)" x1="290.5186" x2="297.1857" y1="100.5" y2="100.5" /><line stroke="rgb(0%,0%,0%)" x1="297.1857" x2="300.2191" y1="100.5" y2="100.5" /><line stroke="rgb(0%,0%,0%)" x1="300.2191" x2="306.196" y1="100.5" y2="100.5" /><line stroke="rgb(0%,0%,0%)" x1="306.196" x2="309.5951" y1="100.5" y2="100.5" /><line stroke="rgb(0%,0%,0%)" x1="309.5951" x2="315.0066" y1="100.5" y2="100.5" /><line stroke="rgb(0%,0%,0%)" x1="315.0066" x2="318.6923" y1="100.5" y2="100.5" /><line stroke="rgb(0%,0%,0%)" x1="318.6923" x2="322.5851" y1="100.5" y2="100.5" /><line stroke="rgb(0%,0%,0%)" x1="322.5851" x2="336.9" y1="100.5" y2="100.5" /><line stroke="rgb(0%,0%,0%)" x1="247.5742" x2="258.8765" y1="0.5" y2="0.5" /><line stroke="rgb(0%,0%,0%)" x1="258.8765" x2="259.7968" y1="0.5" y2="0.5" /><line stroke="rgb(0%,0%,0%)" x1="259.7968" x2="269.9185" y1="0.5" y2="0.5" /><line stroke="rgb(0%,0%,0%)" x1="269.9185" x2="271.6413" y1="0.5" y2="0.5" /><line stroke="rgb(0%,0%,0%)" x1="271.6413" x2="280.4398" y1="0.5" y2="0.5" /><line stroke="rgb(0%,0%,0%)" x1="280.4398" x2="287.9311" y1="0.5" y2="0.5" /><line stroke="rgb(0%,0%,0%)" x1="287.9311" x2="290.5186" y1="0.5" y2="0.5" /><line stroke="rgb(0%,0%,0%)" x1="290.5186" x2="297.1857" y1="0.5" y2="0.5" /><line stroke="rgb(0%,0%,0%)" x1="297.1857" x2="300.2191" y1="0.5" y2="0.5" /><line stroke="rgb(0%,0%,0%)" x1="300.2191" x2="306.196" y1="0.5" y2="0.5" /><line stroke="rgb(0%,0%,0%)" x1="306.196" x2="309.5951" y1="0.5" y2="0.5" /><line stroke="rgb(0%,0%,0%)" x1="309.5951" x2="315.0066" y1="0.5" y2="0.5" /><line stroke="rgb(0%,0%,0%)" x1="315.0066" x2="318.6923" y1="0.5" y2="0.5" /><line stroke="rgb(0%,0%,0%)" x1="318.6923" x2="322.5851" y1="0.5" y2="0.5" /><line stroke="rgb(0%,0%,0%)" x1="336.9" x2="322.5851" y1="0.5" y2="0.5" /></svg>