<?xml version="1.0" encoding="utf-8" ?>
<svg baseProfile="tiny" height="100%" version="1.2" width="100%" xmlns="http://www.w3.org/2000/svg" xmlns:ev="http://www.w3.org/2001/xml-events" xmlns:xlink="http://www.w3.org/1999/xlink"><defs /><line stroke="rgb(0%,0%,0%)" x1="248.6741" x2="248.6741" y1="100.5" y2="18.3289" /><line stroke="rgb(0%,0%,0%)" x1="248.6741" x2="248.6741" y1="18.3289" y2="0.5" /><line stroke="rgb(0%,0%,0%)" x1="336.9" x2="336.9" y1="12.8717" y2="0.5" /><line stroke="rgb(0%,0%,0%)" x1="336.9" x2="336.9" y1="81.0942" y2="19.9058" /><line stroke="rgb(0%,0%,0%)" x1="336.9" x2="336.9" y1="19.9058" y2="18.626" /><line stroke="rgb(0%,0%,0%)" x1="336.9" x2="336.9" y1="18.626" y2="17.2837" /><line stroke="rgb(0%,0%,0%)" x1="336.9" x2="336.9" y1="100.5" y2="88.1283" /><line stroke="rgb(0%,0%,0%)" x1="336.9" x2="336.9" y1="88.1283" y2="87.2926" /><line stroke="rgb(0%,0%,0%)" x1="336.9" x2="336.9" y1="87.2926" y2="86.2466" /><line stroke="rgb(0%,0%,0%)" x1="336.9" x2="336.9" y1="17.2837" y2="15.9665" /><line stroke="rgb(0%,0%,0%)" x1="336.9" x2="336.9" y1="15.9665" y2="14.7534" /><line stroke="rgb(0%,0%,0%)" x1="336.9" x2="336.9" y1="14.7534" y2="13.7074" /><line stroke="rgb(0%,0%,0%)" x1="336.9" x2="336.9" y1="13.7074" y2="12.8717" /><line stroke="rgb(0%,0%,0%)" x1="336.9" x2="336.9" y1="86.2466" y2="85.0335" /><line stroke="rgb(0%,0%,0%)" x1="336.9" x2="336.9" y1="85.0335" y2="83.7163" /><line stroke="rgb(0%,0%,0%)" x1="336.9" x2="336.9" y1="83.7163" y2="82.374" /><line stroke="rgb(0%,0%,0%)" x1="336.9" x2="336.9" y1="82.374" y2="81.0942" /><line stroke="rgb(0%,0%,0%)" x1="258.2441" x2="248.6741" y1="100.5" y2="100.5" /><line stroke="rgb(0%,0%,0%)" x1="258.2441" x2="259.0232" y1="100.5" y2="100.5" /><line stroke="rgb(0%,0%,0%)" x1="259.0232" x2="269.3422" y1="100.5" y2="100.5" /><line stroke="rgb(0%,0%,0%)" x1="269.3422" x2="270.9297" y1="100.5" y2="100.5" /><line stroke="rgb(0%,0%,0%)" x1="270.9297" x2="279.9164" y1="100.5" y2="100.5" /><line stroke="rgb(0%,0%,0%)" x1="279.9164" x2="287.5679" y1="100.5" y2="100.5" /><line stroke="rgb(0%,0%,0%)" x1="287.5679" x2="290.0454" y1="100.5" y2="100.5" /><line stroke="rgb(0%,0%,0%)" x1="290.0454" x2="296.8687" y1="100.5" y2="100.5" /><line stroke="rgb(0%,0%,0%)" x1="296.8687" x2="299.794" y1="100.5" y2="100.5" /><line stroke="rgb(0%,0%,0%)" x1="299.794" x2="305.9234" y1="100.5" y2="100.5" /><line stroke="rgb(0%,0%,0%)" x1="305.9234" x2="309.2164" y1="100.5" y2="100.5" /><line stroke="rgb(0%,0%,0%)" x1="309.2164" x2="314.7772" y1="100.5" y2="100.5" /><line stroke="rgb(0%,0%,0%)" x1="314.7772" x2="318.3585" y1="100.5" y2="100.5" /><line stroke="rgb(0%,0%,0%)" x1="318.3585" x2="322.1411" y1="100.5" y2="100.5" /><line stroke="rgb(0%,0%,0%)" x1="322.1411" x2="336.9" y1="100.5" y2="100.5" /><line stroke="rgb(0%,0%,0%)" x1="248.6741" x2="258.2441" y1="0.5" y2="0.5" /><line stroke="rgb(0%,0%,0%)" x1="258.2441" x2="259.0232" y1="0.5" y2="0.5" /><line stroke="rgb(0%,0%,0%)" x1="259.0232" x2="269.3422" y1="0.5" y2="0.5" /><line stroke="rgb(0%,0%,0%)" x1="269.3422" x2="270.9297" y1="0.5" y2="0.5" /><line stroke="rgb(0%,0%,0%)" x1="270.9297" x2="279.9164" y1="0.5" y2="0.5" /><line stroke="rgb(0%,0%,0%)" x1="279.9164" x2="287.5679" y1="0.5" y2="0.5" /><line stroke="rgb(0%,0%,0%)" x1="287.5679" x2="290.0454" y1="0.5" y2="0.5" /><line stroke="rgb(0%,0%,0%)" x1="290.0454" x2="296.8687" y1="0.5" y2="0.5" /><line stroke="rgb(0%,0%,0%)" x1="296.8687" x2="299.794" y1="0.5" y2="0.5" /><line stroke="rgb(0%,0%,0%)" x1="299.794" x2="305.9234" y1="0.5" y2="0.5" /><line stroke="rgb(0%,0%,0%)" x1="305.9234" x2="309.2164" y1="0.5" y2="0.5" /><line stroke="rgb(0%,0%,0%)" x1="309.2164" x2="314.7772" y1="0.5" y2="0.5" /><line stroke="rgb(0%,0%,0%)" x1="314.7772" x2="318.3585" y1="0.5" y2="0.5" /><line stroke="rgb(0%,0%,0%)" x1="318.3585" x2="322.1411" y1="0.5" y2="0.5" /><line stroke="rgb(0%,0%,0%)" x1="336.9" x2="322.1411" y1="0.5" y2="0.5" /></svg>