<?xml version="1.0" encoding="utf-8" ?>
<svg baseProfile="tiny" height="100%" version="1.2" width="100%" xmlns="http://www.w3.org/2000/svg" xmlns:ev="http://www.w3.org/2001/xml-events" xmlns:xlink="http://www.w3.org/1999/xlink"><defs /><line stroke="rgb(0%,0%,0%)" x1="249.7741" x2="249.7741" y1="100.5" y2="33.204" /><line stroke="rgb(0%,0%,0%)" x1="249.7741" x2="249.7741" y1="33.204" y2="0.5" /><line stroke="rgb(0%,0%,0%)" x1="336.9" x2="336.9" y1="13.2439" y2="0.5" /><line stroke="rgb(0%,0%,0%)" x1="336.9" x2="336.9" y1="80.5104" y2="20.4896" /><line stroke="rgb(0%,0%,0%)" x1="336.9" x2="336.9" y1="20.4896" y2="19.1713" /><line stroke="rgb(0%,0%,0%)" x1="336.9" x2="336.9" y1="19.1713" y2="17.7886" /><line stroke="rgb(0%,0%,0%)" x1="336.9" x2="336.9" y1="100.5" y2="87.7561" /><line stroke="rgb(0%,0%,0%)" x1="336.9" x2="336.9" y1="87.7561" y2="86.8953" /><line stroke="rgb(0%,0%,0%)" x1="336.9" x2="336.9" y1="86.8953" y2="85.8178" /><line stroke="rgb(0%,0%,0%)" x1="336.9" x2="336.9" y1="17.7886" y2="16.4318" /><line stroke="rgb(0%,0%,0%)" x1="336.9" x2="336.9" y1="16.4318" y2="15.1822" /><line stroke="rgb(0%,0%,0%)" x1="336.9" x2="336.9" y1="15.1822" y2="14.1047" /><line stroke="rgb(0%,0%,0%)" x1="336.9" x2="336.9" y1="14.1047" y2="13.2439" /><line stroke="rgb(0%,0%,0%)" x1="336.9" x2="336.9" y1="85.8178" y2="84.5682" /><line stroke="rgb(0%,0%,0%)" x1="336.9" x2="336.9" y1="84.5682" y2="83.2114" /><line stroke="rgb(0%,0%,0%)" x1="336.9" x2="336.9" y1="83.2114" y2="81.8287" /><line stroke="rgb(0%,0%,0%)" x1="336.9" x2="336.9" y1="81.8287" y2="80.5104" /><line stroke="rgb(0%,0%,0%)" x1="257.6116" x2="249.7741" y1="100.5" y2="100.5" /><line stroke="rgb(0%,0%,0%)" x1="257.6116" x2="258.2497" y1="100.5" y2="100.5" /><line stroke="rgb(0%,0%,0%)" x1="258.2497" x2="268.7658" y1="100.5" y2="100.5" /><line stroke="rgb(0%,0%,0%)" x1="268.7658" x2="270.2181" y1="100.5" y2="100.5" /><line stroke="rgb(0%,0%,0%)" x1="270.2181" x2="279.393" y1="100.5" y2="100.5" /><line stroke="rgb(0%,0%,0%)" x1="279.393" x2="287.2046" y1="100.5" y2="100.5" /><line stroke="rgb(0%,0%,0%)" x1="287.2046" x2="289.5723" y1="100.5" y2="100.5" /><line stroke="rgb(0%,0%,0%)" x1="289.5723" x2="296.5517" y1="100.5" y2="100.5" /><line stroke="rgb(0%,0%,0%)" x1="296.5517" x2="299.369" y1="100.5" y2="100.5" /><line stroke="rgb(0%,0%,0%)" x1="299.369" x2="305.6509" y1="100.5" y2="100.5" /><line stroke="rgb(0%,0%,0%)" x1="305.6509" x2="308.8377" y1="100.5" y2="100.5" /><line stroke="rgb(0%,0%,0%)" x1="308.8377" x2="314.5477" y1="100.5" y2="100.5" /><line stroke="rgb(0%,0%,0%)" x1="314.5477" x2="318.0247" y1="100.5" y2="100.5" /><line stroke="rgb(0%,0%,0%)" x1="318.0247" x2="321.6971" y1="100.5" y2="100.5" /><line stroke="rgb(0%,0%,0%)" x1="321.6971" x2="336.9" y1="100.5" y2="100.5" /><line stroke="rgb(0%,0%,0%)" x1="249.7741" x2="257.6116" y1="0.5" y2="0.5" /><line stroke="rgb(0%,0%,0%)" x1="257.6116" x2="258.2497" y1="0.5" y2="0.5" /><line stroke="rgb(0%,0%,0%)" x1="258.2497" x2="268.7658" y1="0.5" y2="0.5" /><line stroke="rgb(0%,0%,0%)" x1="268.7658" x2="270.2181" y1="0.5" y2="0.5" /><line stroke="rgb(0%,0%,0%)" x1="270.2181" x2="279.393" y1="0.5" y2="0.5" /><line stroke="rgb(0%,0%,0%)" x1="279.393" x2="287.2046" y1="0.5" y2="0.5" /><line stroke="rgb(0%,0%,0%)" x1="287.2046" x2="289.5723" y1="0.5" y2="0.5" /><line stroke="rgb(0%,0%,0%)" x1="289.5723" x2="296.5517" y1="0.5" y2="0.5" /><line stroke="rgb(0%,0%,0%)" x1="296.5517" x2="299.369" y1="0.5" y2="0.5" /><line stroke="rgb(0%,0%,0%)" x1="299.369" x2="305.6509" y1="0.5" y2="0.5" /><line stroke="rgb(0%,0%,0%)" x1="305.6509" x2="308.8377" y1="0.5" y2="0.5" /><line stroke="rgb(0%,0%,0%)" x1="308.8377" x2="314.5477" y1="0.5" y2="0.5" /><line stroke="rgb(0%,0%,0%)" x1="314.5477" x2="318.0247" y1="0.5" y2="0.5" /><line stroke="rgb(0%,0%,0%)" x1="318.0247" x2="321.6971" y1="0.5" y2="0.5" /><line stroke="rgb(0%,0%,0%)" x1="336.9" x2="321.6971" y1="0.5" y2="0.5" /></svg>