<?xml version="1.0" encoding="utf-8" ?>
<svg baseProfile="tiny" height="100%" version="1.2" width="100%" xmlns="http://www.w3.org/2000/svg" xmlns:ev="http://www.w3.org/2001/xml-events" xmlns:xlink="http://www.w3.org/1999/xlink"><defs /><line stroke="rgb(0%,0%,0%)" x1="250.874" x2="250.874" y1="100.5" y2="48.0792" /><line stroke="rgb(0%,0%,0%)" x1="250.874" x2="250.874" y1="48.0792" y2="0.5" /><line stroke="rgb(0%,0%,0%)" x1="336.9" x2="336.9" y1="13.6161" y2="0.5" /><line stroke="rgb(0%,0%,0%)" x1="336.9" x2="336.9" y1="79.9266" y2="21.0734" /><line stroke="rgb(0%,0%,0%)" x1="336.9" x2="336.9" y1="21.0734" y2="19.7166" /><line stroke="rgb(0%,0%,0%)" x1="336.9" x2="336.9" y1="19.7166" y2="18.2936" /><line stroke="rgb(0%,0%,0%)" x1="336.9" x2="336.9" y1="100.5" y2="87.3839" /><line stroke="rgb(0%,0%,0%)" x1="336.9" x2="336.9" y1="87.3839" y2="86.4979" /><line stroke="rgb(0%,0%,0%)" x1="336.9" x2="336.9" y1="86.4979" y2="85.389" /><line stroke="rgb(0%,0%,0%)" x1="336.9" x2="336.9" y1="18.2936" y2="16.8971" /><line stroke="rgb(0%,0%,0%)" x1="336.9" x2="336.9" y1="16.8971" y2="15.611" /><line stroke="rgb(0%,0%,0%)" x1="336.9" x2="336.9" y1="15.611" y2="14.5021" /><line stroke="rgb(0%,0%,0%)" x1="336.9" x2="336.9" y1="14.5021" y2="13.6161" /><line stroke="rgb(0%,0%,0%)" x1="336.9" x2="336.9" y1="85.389" y2="84.1029" /><line stroke="rgb(0%,0%,0%)" x1="336.9" x2="336.9" y1="84.1029" y2="82.7064" /><line stroke="rgb(0%,0%,0%)" x1="336.9" x2="336.9" y1="82.7064" y2="81.2834" /><line stroke="rgb(0%,0%,0%)" x1="336.9" x2="336.9" y1="81.2834" y2="79.9266" /><line stroke="rgb(0%,0%,0%)" x1="256.9792" x2="250.874" y1="100.5" y2="100.5" /><line stroke="rgb(0%,0%,0%)" x1="256.9792" x2="257.4762" y1="100.5" y2="100.5" /><line stroke="rgb(0%,0%,0%)" x1="257.4762" x2="268.1895" y1="100.5" y2="100.5" /><line stroke="rgb(0%,0%,0%)" x1="268.1895" x2="269.5066" y1="100.5" y2="100.5" /><line stroke="rgb(0%,0%,0%)" x1="269.5066" x2="278.8696" y1="100.5" y2="100.5" /><line stroke="rgb(0%,0%,0%)" x1="278.8696" x2="286.8414" y1="100.5" y2="100.5" /><line stroke="rgb(0%,0%,0%)" x1="286.8414" x2="289.0992" y1="100.5" y2="100.5" /><line stroke="rgb(0%,0%,0%)" x1="289.0992" x2="296.2347" y1="100.5" y2="100.5" /><line stroke="rgb(0%,0%,0%)" x1="296.2347" x2="298.944" y1="100.5" y2="100.5" /><line stroke="rgb(0%,0%,0%)" x1="298.944" x2="305.3784" y1="100.5" y2="100.5" /><line stroke="rgb(0%,0%,0%)" x1="305.3784" x2="308.459" y1="100.5" y2="100.5" /><line stroke="rgb(0%,0%,0%)" x1="308.459" x2="314.3182" y1="100.5" y2="100.5" /><line stroke="rgb(0%,0%,0%)" x1="314.3182" x2="317.6909" y1="100.5" y2="100.5" /><line stroke="rgb(0%,0%,0%)" x1="317.6909" x2="321.2531" y1="100.5" y2="100.5" /><line stroke="rgb(0%,0%,0%)" x1="321.2531" x2="336.9" y1="100.5" y2="100.5" /><line stroke="rgb(0%,0%,0%)" x1="250.874" x2="256.9792" y1="0.5" y2="0.5" /><line stroke="rgb(0%,0%,0%)" x1="256.9792" x2="257.4762" y1="0.5" y2="0.5" /><line stroke="rgb(0%,0%,0%)" x1="257.4762" x2="268.1895" y1="0.5" y2="0.5" /><line stroke="rgb(0%,0%,0%)" x1="268.1895" x2="269.5066" y1="0.5" y2="0.5" /><line stroke="rgb(0%,0%,0%)" x1="269.5066" x2="278.8696" y1="0.5" y2="0.5" /><line stroke="rgb(0%,0%,0%)" x1="278.8696" x2="286.8414" y1="0.5" y2="0.5" /><line stroke="rgb(0%,0%,0%)" x1="286.8414" x2="289.0992" y1="0.5" y2="0.5" /><line stroke="rgb(0%,0%,0%)" x1="289.0992" x2="296.2347" y1="0.5" y2="0.5" /><line stroke="rgb(0%,0%,0%)" x1="296.2347" x2="298.944" y1="0.5" y2="0.5" /><line stroke="rgb(0%,0%,0%)" x1="298.944" x2="305.3784" y1="0.5" y2="0.5" /><line stroke="rgb(0%,0%,0%)" x1="305.3784" x2="308.459" y1="0.5" y2="0.5" /><line stroke="rgb(0%,0%,0%)" x1="308.459" x2="314.3182" y1="0.5" y2="0.5" /><line stroke="rgb(0%,0%,0%)" x1="314.3182" x2="317.6909" y1="0.5" y2="0.5" /><line stroke="rgb(0%,0%,0%)" x1="317.6909" x2="321.2531" y1="0.5" y2="0.5" /><line stroke="rgb(0%,0%,0%)" x1="336.9" x2="321.2531" y1="0.5" y2="0.5" /></svg>