<?xml version="1.0" encoding="utf-8" ?>
<svg baseProfile="tiny" height="100%" version="1.2" width="100%" xmlns="http://www.w3.org/2000/svg" xmlns:ev="http://www.w3.org/2001/xml-events" xmlns:xlink="http://www.w3.org/1999/xlink"><defs /><line stroke="rgb(0%,0%,0%)" x1="251.974" x2="251.974" y1="100.5" y2="62.9543" /><line stroke="rgb(0%,0%,0%)" x1="251.974" x2="251.974" y1="62.9543" y2="0.5" /><line stroke="rgb(0%,0%,0%)" x1="336.9" x2="336.9" y1="13.9883" y2="0.5" /><line stroke="rgb(0%,0%,0%)" x1="336.9" x2="336.9" y1="79.3428" y2="21.6572" /><line stroke="rgb(0%,0%,0%)" x1="336.9" x2="336.9" y1="21.6572" y2="20.2619" /><line stroke="rgb(0%,0%,0%)" x1="336.9" x2="336.9" y1="20.2619" y2="18.7985" /><line stroke="rgb(0%,0%,0%)" x1="336.9" x2="336.9" y1="100.5" y2="87.0117" /><line stroke="rgb(0%,0%,0%)" x1="336.9" x2="336.9" y1="87.0117" y2="86.1006" /><line stroke="rgb(0%,0%,0%)" x1="336.9" x2="336.9" y1="86.1006" y2="84.9602" /><line stroke="rgb(0%,0%,0%)" x1="336.9" x2="336.9" y1="18.7985" y2="17.3624" /><line stroke="rgb(0%,0%,0%)" x1="336.9" x2="336.9" y1="17.3624" y2="16.0398" /><line stroke="rgb(0%,0%,0%)" x1="336.9" x2="336.9" y1="16.0398" y2="14.8994" /><line stroke="rgb(0%,0%,0%)" x1="336.9" x2="336.9" y1="14.8994" y2="13.9883" /><line stroke="rgb(0%,0%,0%)" x1="336.9" x2="336.9" y1="84.9602" y2="83.6376" /><line stroke="rgb(0%,0%,0%)" x1="336.9" x2="336.9" y1="83.6376" y2="82.2015" /><line stroke="rgb(0%,0%,0%)" x1="336.9" x2="336.9" y1="82.2015" y2="80.7381" /><line stroke="rgb(0%,0%,0%)" x1="336.9" x2="336.9" y1="80.7381" y2="79.3428" /><line stroke="rgb(0%,0%,0%)" x1="256.3467" x2="251.974" y1="100.5" y2="100.5" /><line stroke="rgb(0%,0%,0%)" x1="256.3467" x2="256.7027" y1="100.5" y2="100.5" /><line stroke="rgb(0%,0%,0%)" x1="256.7027" x2="267.6131" y1="100.5" y2="100.5" /><line stroke="rgb(0%,0%,0%)" x1="267.6131" x2="268.795" y1="100.5" y2="100.5" /><line stroke="rgb(0%,0%,0%)" x1="268.795" x2="278.3462" y1="100.5" y2="100.5" /><line stroke="rgb(0%,0%,0%)" x1="278.3462" x2="286.4782" y1="100.5" y2="100.5" /><line stroke="rgb(0%,0%,0%)" x1="286.4782" x2="288.626" y1="100.5" y2="100.5" /><line stroke="rgb(0%,0%,0%)" x1="288.626" x2="295.9177" y1="100.5" y2="100.5" /><line stroke="rgb(0%,0%,0%)" x1="295.9177" x2="298.5189" y1="100.5" y2="100.5" /><line stroke="rgb(0%,0%,0%)" x1="298.5189" x2="305.1058" y1="100.5" y2="100.5" /><line stroke="rgb(0%,0%,0%)" x1="305.1058" x2="308.0803" y1="100.5" y2="100.5" /><line stroke="rgb(0%,0%,0%)" x1="308.0803" x2="314.0887" y1="100.5" y2="100.5" /><line stroke="rgb(0%,0%,0%)" x1="314.0887" x2="317.357" y1="100.5" y2="100.5" /><line stroke="rgb(0%,0%,0%)" x1="317.357" x2="320.8091" y1="100.5" y2="100.5" /><line stroke="rgb(0%,0%,0%)" x1="320.8091" x2="336.9" y1="100.5" y2="100.5" /><line stroke="rgb(0%,0%,0%)" x1="251.974" x2="256.3467" y1="0.5" y2="0.5" /><line stroke="rgb(0%,0%,0%)" x1="256.3467" x2="256.7027" y1="0.5" y2="0.5" /><line stroke="rgb(0%,0%,0%)" x1="256.7027" x2="267.6131" y1="0.5" y2="0.5" /><line stroke="rgb(0%,0%,0%)" x1="267.6131" x2="268.795" y1="0.5" y2="0.5" /><line stroke="rgb(0%,0%,0%)" x1="268.795" x2="278.3462" y1="0.5" y2="0.5" /><line stroke="rgb(0%,0%,0%)" x1="278.3462" x2="286.4782" y1="0.5" y2="0.5" /><line stroke="rgb(0%,0%,0%)" x1="286.4782" x2="288.626" y1="0.5" y2="0.5" /><line stroke="rgb(0%,0%,0%)" x1="288.626" x2="295.9177" y1="0.5" y2="0.5" /><line stroke="rgb(0%,0%,0%)" x1="295.9177" x2="298.5189" y1="0.5" y2="0.5" /><line stroke="rgb(0%,0%,0%)" x1="298.5189" x2="305.1058" y1="0.5" y2="0.5" /><line stroke="rgb(0%,0%,0%)" x1="305.1058" x2="308.0803" y1="0.5" y2="0.5" /><line stroke="rgb(0%,0%,0%)" x1="308.0803" x2="314.0887" y1="0.5" y2="0.5" /><line stroke="rgb(0%,0%,0%)" x1="314.0887" x2="317.357" y1="0.5" y2="0.5" /><line stroke="rgb(0%,0%,0%)" x1="317.357" x2="320.8091" y1="0.5" y2="0.5" /><line stroke="rgb(0%,0%,0%)" x1="336.9" x2="320.8091" y1="0.5" y2="0.5" /></svg>