<?xml version="1.0" encoding="utf-8" ?>
<svg baseProfile="tiny" height="100%" version="1.2" width="100%" xmlns="http://www.w3.org/2000/svg" xmlns:ev="http://www.w3.org/2001/xml-events" xmlns:xlink="http://www.w3.org/1999/xlink"><defs /><line stroke="rgb(0%,0%,0%)" x1="253.074" x2="253.074" y1="100.5" y2="77.8294" /><line stroke="rgb(0%,0%,0%)" x1="253.074" x2="253.074" y1="77.8294" y2="0.5" /><line stroke="rgb(0%,0%,0%)" x1="336.9" x2="336.9" y1="14.3605" y2="0.5" /><line stroke="rgb(0%,0%,0%)" x1="336.9" x2="336.9" y1="78.759" y2="22.241" /><line stroke="rgb(0%,0%,0%)" x1="336.9" x2="336.9" y1="22.241" y2="20.8072" /><line stroke="rgb(0%,0%,0%)" x1="336.9" x2="336.9" y1="20.8072" y2="19.3034" /><line stroke="rgb(0%,0%,0%)" x1="336.9" x2="336.9" y1="100.5" y2="86.6395" /><line stroke="rgb(0%,0%,0%)" x1="336.9" x2="336.9" y1="86.6395" y2="85.7033" /><line stroke="rgb(0%,0%,0%)" x1="336.9" x2="336.9" y1="85.7033" y2="84.5314" /><line stroke="rgb(0%,0%,0%)" x1="336.9" x2="336.9" y1="19.3034" y2="17.8277" /><line stroke="rgb(0%,0%,0%)" x1="336.9" x2="336.9" y1="17.8277" y2="16.4686" /><line stroke="rgb(0%,0%,0%)" x1="336.9" x2="336.9" y1="16.4686" y2="15.2967" /><line stroke="rgb(0%,0%,0%)" x1="336.9" x2="336.9" y1="15.2967" y2="14.3605" /><line stroke="rgb(0%,0%,0%)" x1="336.9" x2="336.9" y1="84.5314" y2="83.1723" /><line stroke="rgb(0%,0%,0%)" x1="336.9" x2="336.9" y1="83.1723" y2="81.6966" /><line stroke="rgb(0%,0%,0%)" x1="336.9" x2="336.9" y1="81.6966" y2="80.1928" /><line stroke="rgb(0%,0%,0%)" x1="336.9" x2="336.9" y1="80.1928" y2="78.759" /><line stroke="rgb(0%,0%,0%)" x1="255.7143" x2="253.074" y1="100.5" y2="100.5" /><line stroke="rgb(0%,0%,0%)" x1="255.7143" x2="255.9292" y1="100.5" y2="100.5" /><line stroke="rgb(0%,0%,0%)" x1="255.9292" x2="267.0368" y1="100.5" y2="100.5" /><line stroke="rgb(0%,0%,0%)" x1="267.0368" x2="268.0834" y1="100.5" y2="100.5" /><line stroke="rgb(0%,0%,0%)" x1="268.0834" x2="277.8227" y1="100.5" y2="100.5" /><line stroke="rgb(0%,0%,0%)" x1="277.8227" x2="286.115" y1="100.5" y2="100.5" /><line stroke="rgb(0%,0%,0%)" x1="286.115" x2="288.1529" y1="100.5" y2="100.5" /><line stroke="rgb(0%,0%,0%)" x1="288.1529" x2="295.6007" y1="100.5" y2="100.5" /><line stroke="rgb(0%,0%,0%)" x1="295.6007" x2="298.0939" y1="100.5" y2="100.5" /><line stroke="rgb(0%,0%,0%)" x1="298.0939" x2="304.8333" y1="100.5" y2="100.5" /><line stroke="rgb(0%,0%,0%)" x1="304.8333" x2="307.7016" y1="100.5" y2="100.5" /><line stroke="rgb(0%,0%,0%)" x1="307.7016" x2="313.8592" y1="100.5" y2="100.5" /><line stroke="rgb(0%,0%,0%)" x1="313.8592" x2="317.0232" y1="100.5" y2="100.5" /><line stroke="rgb(0%,0%,0%)" x1="317.0232" x2="320.3651" y1="100.5" y2="100.5" /><line stroke="rgb(0%,0%,0%)" x1="320.3651" x2="336.9" y1="100.5" y2="100.5" /><line stroke="rgb(0%,0%,0%)" x1="253.074" x2="255.7143" y1="0.5" y2="0.5" /><line stroke="rgb(0%,0%,0%)" x1="255.7143" x2="255.9292" y1="0.5" y2="0.5" /><line stroke="rgb(0%,0%,0%)" x1="255.9292" x2="267.0368" y1="0.5" y2="0.5" /><line stroke="rgb(0%,0%,0%)" x1="267.0368" x2="268.0834" y1="0.5" y2="0.5" /><line stroke="rgb(0%,0%,0%)" x1="268.0834" x2="277.8227" y1="0.5" y2="0.5" /><line stroke="rgb(0%,0%,0%)" x1="277.8227" x2="286.115" y1="0.5" y2="0.5" /><line stroke="rgb(0%,0%,0%)" x1="286.115" x2="288.1529" y1="0.5" y2="0.5" /><line stroke="rgb(0%,0%,0%)" x1="288.1529" x2="295.6007" y1="0.5" y2="0.5" /><line stroke="rgb(0%,0%,0%)" x1="295.6007" x2="298.0939" y1="0.5" y2="0.5" /><line stroke="rgb(0%,0%,0%)" x1="298.0939" x2="304.8333" y1="0.5" y2="0.5" /><line stroke="rgb(0%,0%,0%)" x1="304.8333" x2="307.7016" y1="0.5" y2="0.5" /><line stroke="rgb(0%,0%,0%)" x1="307.7016" x2="313.8592" y1="0.5" y2="0.5" /><line stroke="rgb(0%,0%,0%)" x1="313.8592" x2="317.0232" y1="0.5" y2="0.5" /><line stroke="rgb(0%,0%,0%)" x1="317.0232" x2="320.3651" y1="0.5" y2="0.5" /><line stroke="rgb(0%,0%,0%)" x1="336.9" x2="320.3651" y1="0.5" y2="0.5" /></svg>