<?xml version="1.0" encoding="utf-8" ?>
<svg baseProfile="tiny" height="100%" version="1.2" width="100%" xmlns="http://www.w3.org/2000/svg" xmlns:ev="http://www.w3.org/2001/xml-events" xmlns:xlink="http://www.w3.org/1999/xlink"><defs /><line stroke="rgb(0%,0%,0%)" x1="254.1739" x2="254.1739" y1="100.5" y2="92.7046" /><line stroke="rgb(0%,0%,0%)" x1="254.1739" x2="254.1739" y1="92.7046" y2="0.5" /><line stroke="rgb(0%,0%,0%)" x1="336.9" x2="336.9" y1="14.7327" y2="0.5" /><line stroke="rgb(0%,0%,0%)" x1="336.9" x2="336.9" y1="78.1752" y2="22.8248" /><line stroke="rgb(0%,0%,0%)" x1="336.9" x2="336.9" y1="22.8248" y2="21.3525" /><line stroke="rgb(0%,0%,0%)" x1="336.9" x2="336.9" y1="21.3525" y2="19.8083" /><line stroke="rgb(0%,0%,0%)" x1="336.9" x2="336.9" y1="100.5" y2="86.2673" /><line stroke="rgb(0%,0%,0%)" x1="336.9" x2="336.9" y1="86.2673" y2="85.3059" /><line stroke="rgb(0%,0%,0%)" x1="336.9" x2="336.9" y1="85.3059" y2="84.1026" /><line stroke="rgb(0%,0%,0%)" x1="336.9" x2="336.9" y1="19.8083" y2="18.293" /><line stroke="rgb(0%,0%,0%)" x1="336.9" x2="336.9" y1="18.293" y2="16.8974" /><line stroke="rgb(0%,0%,0%)" x1="336.9" x2="336.9" y1="16.8974" y2="15.6941" /><line stroke="rgb(0%,0%,0%)" x1="336.9" x2="336.9" y1="15.6941" y2="14.7327" /><line stroke="rgb(0%,0%,0%)" x1="336.9" x2="336.9" y1="84.1026" y2="82.707" /><line stroke="rgb(0%,0%,0%)" x1="336.9" x2="336.9" y1="82.707" y2="81.1917" /><line stroke="rgb(0%,0%,0%)" x1="336.9" x2="336.9" y1="81.1917" y2="79.6475" /><line stroke="rgb(0%,0%,0%)" x1="336.9" x2="336.9" y1="79.6475" y2="78.1752" /><line stroke="rgb(0%,0%,0%)" x1="255.0818" x2="254.1739" y1="100.5" y2="100.5" /><line stroke="rgb(0%,0%,0%)" x1="255.0818" x2="255.1557" y1="100.5" y2="100.5" /><line stroke="rgb(0%,0%,0%)" x1="255.1557" x2="266.4604" y1="100.5" y2="100.5" /><line stroke="rgb(0%,0%,0%)" x1="266.4604" x2="267.3718" y1="100.5" y2="100.5" /><line stroke="rgb(0%,0%,0%)" x1="267.3718" x2="277.2993" y1="100.5" y2="100.5" /><line stroke="rgb(0%,0%,0%)" x1="277.2993" x2="285.7518" y1="100.5" y2="100.5" /><line stroke="rgb(0%,0%,0%)" x1="285.7518" x2="287.6797" y1="100.5" y2="100.5" /><line stroke="rgb(0%,0%,0%)" x1="287.6797" x2="295.2837" y1="100.5" y2="100.5" /><line stroke="rgb(0%,0%,0%)" x1="295.2837" x2="297.6689" y1="100.5" y2="100.5" /><line stroke="rgb(0%,0%,0%)" x1="297.6689" x2="304.5608" y1="100.5" y2="100.5" /><line stroke="rgb(0%,0%,0%)" x1="304.5608" x2="307.3229" y1="100.5" y2="100.5" /><line stroke="rgb(0%,0%,0%)" x1="307.3229" x2="313.6298" y1="100.5" y2="100.5" /><line stroke="rgb(0%,0%,0%)" x1="313.6298" x2="316.6894" y1="100.5" y2="100.5" /><line stroke="rgb(0%,0%,0%)" x1="316.6894" x2="319.9211" y1="100.5" y2="100.5" /><line stroke="rgb(0%,0%,0%)" x1="319.9211" x2="336.9" y1="100.5" y2="100.5" /><line stroke="rgb(0%,0%,0%)" x1="254.1739" x2="255.0818" y1="0.5" y2="0.5" /><line stroke="rgb(0%,0%,0%)" x1="255.0818" x2="255.1557" y1="0.5" y2="0.5" /><line stroke="rgb(0%,0%,0%)" x1="255.1557" x2="266.4604" y1="0.5" y2="0.5" /><line stroke="rgb(0%,0%,0%)" x1="266.4604" x2="267.3718" y1="0.5" y2="0.5" /><line stroke="rgb(0%,0%,0%)" x1="267.3718" x2="277.2993" y1="0.5" y2="0.5" /><line stroke="rgb(0%,0%,0%)" x1="277.2993" x2="285.7518" y1="0.5" y2="0.5" /><line stroke="rgb(0%,0%,0%)" x1="285.7518" x2="287.6797" y1="0.5" y2="0.5" /><line stroke="rgb(0%,0%,0%)" x1="287.6797" x2="295.2837" y1="0.5" y2="0.5" /><line stroke="rgb(0%,0%,0%)" x1="295.2837" x2="297.6689" y1="0.5" y2="0.5" /><line stroke="rgb(0%,0%,0%)" x1="297.6689" x2="304.5608" y1="0.5" y2="0.5" /><line stroke="rgb(0%,0%,0%)" x1="304.5608" x2="307.3229" y1="0.5" y2="0.5" /><line stroke="rgb(0%,0%,0%)" x1="307.3229" x2="313.6298" y1="0.5" y2="0.5" /><line stroke="rgb(0%,0%,0%)" x1="313.6298" x2="316.6894" y1="0.5" y2="0.5" /><line stroke="rgb(0%,0%,0%)" x1="316.6894" x2="319.9211" y1="0.5" y2="0.5" /><line stroke="rgb(0%,0%,0%)" x1="336.9" x2="319.9211" y1="0.5" y2="0.5" /></svg>