<?xml version="1.0" encoding="utf-8" ?>
<svg baseProfile="tiny" height="100%" version="1.2" width="100%" xmlns="http://www.w3.org/2000/svg" xmlns:ev="http://www.w3.org/2001/xml-events" xmlns:xlink="http://www.w3.org/1999/xlink"><defs /><line stroke="rgb(0%,0%,0%)" x1="255.3496" x2="255.3496" y1="100.5" y2="8.1575" /><line stroke="rgb(0%,0%,0%)" x1="255.3496" x2="255.3496" y1="8.1575" y2="0.5" /><line stroke="rgb(0%,0%,0%)" x1="336.9" x2="336.9" y1="15.1049" y2="0.5" /><line stroke="rgb(0%,0%,0%)" x1="336.9" x2="336.9" y1="77.5914" y2="23.4086" /><line stroke="rgb(0%,0%,0%)" x1="336.9" x2="336.9" y1="23.4086" y2="21.8978" /><line stroke="rgb(0%,0%,0%)" x1="336.9" x2="336.9" y1="21.8978" y2="20.3133" /><line stroke="rgb(0%,0%,0%)" x1="336.9" x2="336.9" y1="100.5" y2="85.8951" /><line stroke="rgb(0%,0%,0%)" x1="336.9" x2="336.9" y1="85.8951" y2="84.9086" /><line stroke="rgb(0%,0%,0%)" x1="336.9" x2="336.9" y1="84.9086" y2="83.6738" /><line stroke="rgb(0%,0%,0%)" x1="336.9" x2="336.9" y1="20.3133" y2="18.7583" /><line stroke="rgb(0%,0%,0%)" x1="336.9" x2="336.9" y1="18.7583" y2="17.3262" /><line stroke="rgb(0%,0%,0%)" x1="336.9" x2="336.9" y1="17.3262" y2="16.0914" /><line stroke="rgb(0%,0%,0%)" x1="336.9" x2="336.9" y1="16.0914" y2="15.1049" /><line stroke="rgb(0%,0%,0%)" x1="336.9" x2="336.9" y1="83.6738" y2="82.2417" /><line stroke="rgb(0%,0%,0%)" x1="336.9" x2="336.9" y1="82.2417" y2="80.6867" /><line stroke="rgb(0%,0%,0%)" x1="336.9" x2="336.9" y1="80.6867" y2="79.1022" /><line stroke="rgb(0%,0%,0%)" x1="336.9" x2="336.9" y1="79.1022" y2="77.5914" /><line stroke="rgb(0%,0%,0%)" x1="265.8841" x2="255.3496" y1="100.5" y2="100.5" /><line stroke="rgb(0%,0%,0%)" x1="265.8841" x2="266.6602" y1="100.5" y2="100.5" /><line stroke="rgb(0%,0%,0%)" x1="266.6602" x2="276.7759" y1="100.5" y2="100.5" /><line stroke="rgb(0%,0%,0%)" x1="276.7759" x2="285.3885" y1="100.5" y2="100.5" /><line stroke="rgb(0%,0%,0%)" x1="285.3885" x2="287.2066" y1="100.5" y2="100.5" /><line stroke="rgb(0%,0%,0%)" x1="287.2066" x2="294.9667" y1="100.5" y2="100.5" /><line stroke="rgb(0%,0%,0%)" x1="294.9667" x2="297.2438" y1="100.5" y2="100.5" /><line stroke="rgb(0%,0%,0%)" x1="297.2438" x2="304.2883" y1="100.5" y2="100.5" /><line stroke="rgb(0%,0%,0%)" x1="304.2883" x2="306.9442" y1="100.5" y2="100.5" /><line stroke="rgb(0%,0%,0%)" x1="306.9442" x2="313.4003" y1="100.5" y2="100.5" /><line stroke="rgb(0%,0%,0%)" x1="313.4003" x2="316.3556" y1="100.5" y2="100.5" /><line stroke="rgb(0%,0%,0%)" x1="316.3556" x2="319.477" y1="100.5" y2="100.5" /><line stroke="rgb(0%,0%,0%)" x1="319.477" x2="336.9" y1="100.5" y2="100.5" /><line stroke="rgb(0%,0%,0%)" x1="255.3496" x2="265.8841" y1="0.5" y2="0.5" /><line stroke="rgb(0%,0%,0%)" x1="265.8841" x2="266.6602" y1="0.5" y2="0.5" /><line stroke="rgb(0%,0%,0%)" x1="266.6602" x2="276.7759" y1="0.5" y2="0.5" /><line stroke="rgb(0%,0%,0%)" x1="276.7759" x2="285.3885" y1="0.5" y2="0.5" /><line stroke="rgb(0%,0%,0%)" x1="285.3885" x2="287.2066" y1="0.5" y2="0.5" /><line stroke="rgb(0%,0%,0%)" x1="287.2066" x2="294.9667" y1="0.5" y2="0.5" /><line stroke="rgb(0%,0%,0%)" x1="294.9667" x2="297.2438" y1="0.5" y2="0.5" /><line stroke="rgb(0%,0%,0%)" x1="297.2438" x2="304.2883" y1="0.5" y2="0.5" /><line stroke="rgb(0%,0%,0%)" x1="304.2883" x2="306.9442" y1="0.5" y2="0.5" /><line stroke="rgb(0%,0%,0%)" x1="306.9442" x2="313.4003" y1="0.5" y2="0.5" /><line stroke="rgb(0%,0%,0%)" x1="313.4003" x2="316.3556" y1="0.5" y2="0.5" /><line stroke="rgb(0%,0%,0%)" x1="316.3556" x2="319.477" y1="0.5" y2="0.5" /><line stroke="rgb(0%,0%,0%)" x1="336.9" x2="319.477" y1="0.5" y2="0.5" /></svg>