<?xml version="1.0" encoding="utf-8" ?>
<svg baseProfile="tiny" height="100%" version="1.2" width="100%" xmlns="http://www.w3.org/2000/svg" xmlns:ev="http://www.w3.org/2001/xml-events" xmlns:xlink="http://www.w3.org/1999/xlink"><defs /><line stroke="rgb(0%,0%,0%)" x1="256.6087" x2="256.6087" y1="100.5" y2="24.2468" /><line stroke="rgb(0%,0%,0%)" x1="256.6087" x2="256.6087" y1="24.2468" y2="0.5" /><line stroke="rgb(0%,0%,0%)" x1="336.9" x2="336.9" y1="15.4771" y2="0.5" /><line stroke="rgb(0%,0%,0%)" x1="336.9" x2="336.9" y1="77.0076" y2="23.9924" /><line stroke="rgb(0%,0%,0%)" x1="336.9" x2="336.9" y1="23.9924" y2="22.4431" /><line stroke="rgb(0%,0%,0%)" x1="336.9" x2="336.9" y1="22.4431" y2="20.8182" /><line stroke="rgb(0%,0%,0%)" x1="336.9" x2="336.9" y1="100.5" y2="85.5229" /><line stroke="rgb(0%,0%,0%)" x1="336.9" x2="336.9" y1="85.5229" y2="84.5113" /><line stroke="rgb(0%,0%,0%)" x1="336.9" x2="336.9" y1="84.5113" y2="83.245" /><line stroke="rgb(0%,0%,0%)" x1="336.9" x2="336.9" y1="20.8182" y2="19.2236" /><line stroke="rgb(0%,0%,0%)" x1="336.9" x2="336.9" y1="19.2236" y2="17.755" /><line stroke="rgb(0%,0%,0%)" x1="336.9" x2="336.9" y1="17.755" y2="16.4887" /><line stroke="rgb(0%,0%,0%)" x1="336.9" x2="336.9" y1="16.4887" y2="15.4771" /><line stroke="rgb(0%,0%,0%)" x1="336.9" x2="336.9" y1="83.245" y2="81.7764" /><line stroke="rgb(0%,0%,0%)" x1="336.9" x2="336.9" y1="81.7764" y2="80.1818" /><line stroke="rgb(0%,0%,0%)" x1="336.9" x2="336.9" y1="80.1818" y2="78.5569" /><line stroke="rgb(0%,0%,0%)" x1="336.9" x2="336.9" y1="78.5569" y2="77.0076" /><line stroke="rgb(0%,0%,0%)" x1="265.3077" x2="256.6087" y1="100.5" y2="100.5" /><line stroke="rgb(0%,0%,0%)" x1="265.3077" x2="265.9487" y1="100.5" y2="100.5" /><line stroke="rgb(0%,0%,0%)" x1="265.9487" x2="276.2525" y1="100.5" y2="100.5" /><line stroke="rgb(0%,0%,0%)" x1="276.2525" x2="285.0253" y1="100.5" y2="100.5" /><line stroke="rgb(0%,0%,0%)" x1="285.0253" x2="286.7335" y1="100.5" y2="100.5" /><line stroke="rgb(0%,0%,0%)" x1="286.7335" x2="294.6497" y1="100.5" y2="100.5" /><line stroke="rgb(0%,0%,0%)" x1="294.6497" x2="296.8188" y1="100.5" y2="100.5" /><line stroke="rgb(0%,0%,0%)" x1="296.8188" x2="304.0157" y1="100.5" y2="100.5" /><line stroke="rgb(0%,0%,0%)" x1="304.0157" x2="306.5654" y1="100.5" y2="100.5" /><line stroke="rgb(0%,0%,0%)" x1="306.5654" x2="313.1708" y1="100.5" y2="100.5" /><line stroke="rgb(0%,0%,0%)" x1="313.1708" x2="316.0218" y1="100.5" y2="100.5" /><line stroke="rgb(0%,0%,0%)" x1="316.0218" x2="319.033" y1="100.5" y2="100.5" /><line stroke="rgb(0%,0%,0%)" x1="319.033" x2="336.9" y1="100.5" y2="100.5" /><line stroke="rgb(0%,0%,0%)" x1="256.6087" x2="265.3077" y1="0.5" y2="0.5" /><line stroke="rgb(0%,0%,0%)" x1="265.3077" x2="265.9487" y1="0.5" y2="0.5" /><line stroke="rgb(0%,0%,0%)" x1="265.9487" x2="276.2525" y1="0.5" y2="0.5" /><line stroke="rgb(0%,0%,0%)" x1="276.2525" x2="285.0253" y1="0.5" y2="0.5" /><line stroke="rgb(0%,0%,0%)" x1="285.0253" x2="286.7335" y1="0.5" y2="0.5" /><line stroke="rgb(0%,0%,0%)" x1="286.7335" x2="294.6497" y1="0.5" y2="0.5" /><line stroke="rgb(0%,0%,0%)" x1="294.6497" x2="296.8188" y1="0.5" y2="0.5" /><line stroke="rgb(0%,0%,0%)" x1="296.8188" x2="304.0157" y1="0.5" y2="0.5" /><line stroke="rgb(0%,0%,0%)" x1="304.0157" x2="306.5654" y1="0.5" y2="0.5" /><line stroke="rgb(0%,0%,0%)" x1="306.5654" x2="313.1708" y1="0.5" y2="0.5" /><line stroke="rgb(0%,0%,0%)" x1="313.1708" x2="316.0218" y1="0.5" y2="0.5" /><line stroke="rgb(0%,0%,0%)" x1="316.0218" x2="319.033" y1="0.5" y2="0.5" /><line stroke="rgb(0%,0%,0%)" x1="336.9" x2="319.033" y1="0.5" y2="0.5" /></svg>