<?xml version="1.0" encoding="utf-8" ?>
<svg baseProfile="tiny" height="100%" version="1.2" width="100%" xmlns="http://www.w3.org/2000/svg" xmlns:ev="http://www.w3.org/2001/xml-events" xmlns:xlink="http://www.w3.org/1999/xlink"><defs /><line stroke="rgb(0%,0%,0%)" x1="351.9" x2="351.9" y1="0.5" y2="26.8533" /><line stroke="rgb(0%,0%,0%)" x1="351.9" x2="351.9" y1="26.8533" y2="100.5" /><line stroke="rgb(0%,0%,0%)" x1="306.1332" x2="342.2123" y1="100.5" y2="100.5" /><line stroke="rgb(0%,0%,0%)" x1="342.2123" x2="343.4706" y1="100.5" y2="100.5" /><line stroke="rgb(0%,0%,0%)" x1="343.4706" x2="344.9081" y1="100.5" y2="100.5" /><line stroke="rgb(0%,0%,0%)" x1="344.9081" x2="346.5035" y1="100.5" y2="100.5" /><line stroke="rgb(0%,0%,0%)" x1="346.5035" x2="348.2267" y1="100.5" y2="100.5" /><line stroke="rgb(0%,0%,0%)" x1="348.2267" x2="350.04" y1="100.5" y2="100.5" /><line stroke="rgb(0%,0%,0%)" x1="350.04" x2="351.9" y1="100.5" y2="100.5" /><line stroke="rgb(0%,0%,0%)" x1="306.1332" x2="61.8725" y1="100.5" y2="100.5" /><line stroke="rgb(0%,0%,0%)" x1="61.8725" x2="0.5" y1="100.5" y2="100.5" /><line stroke="rgb(0%,0%,0%)" x1="0.5" x2="61.8725" y1="0.5" y2="0.5" /><line stroke="rgb(0%,0%,0%)" x1="61.8725" x2="306.1332" y1="0.5" y2="0.5" /><line stroke="rgb(0%,0%,0%)" x1="306.1332" x2="342.2123" y1="0.5" y2="0.5" /><line stroke="rgb(0%,0%,0%)" x1="342.2123" x2="343.4706" y1="0.5" y2="0.5" /><line stroke="rgb(0%,0%,0%)" x1="343.4706" x2="344.9081" y1="0.5" y2="0.5" /><line stroke="rgb(0%,0%,0%)" x1="344.9081" x2="346.5035" y1="0.5" y2="0.5" /><line stroke="rgb(0%,0%,0%)" x1="346.5035" x2="348.2267" y1="0.5" y2="0.5" /><line stroke="rgb(0%,0%,0%)" x1="348.2267" x2="350.04" y1="0.5" y2="0.5" /><line stroke="rgb(0%,0%,0%)" x1="350.04" x2="351.9" y1="0.5" y2="0.5" /><line stroke="rgb(0%,0%,0%)" x1="0.5" x2="0.5" y1="0.5" y2="70.0107" /><line stroke="rgb(0%,0%,0%)" x1="0.5" x2="0.5" y1="70.0107" y2="100.5" /><line stroke="rgb(0%,0%,0%)" x1="165.1722" x2="165.3001" y1="47.3813" y2="48.5983" /><line stroke="rgb(0%,0%,0%)" x1="165.3001" x2="165.5" y1="48.5983" y2="50.5" /><line stroke="rgb(0%,0%,0%)" x1="165.5" x2="165.3721" y1="50.5" y2="51.717" /><line stroke="rgb(0%,0%,0%)" x1="165.3721" x2="165.1722" y1="51.717" y2="53.6187" /><line stroke="rgb(0%,0%,0%)" x1="165.1722" x2="164.7941" y1="53.6187" y2="54.7824" /><line stroke="rgb(0%,0%,0%)" x1="164.7941" x2="164.2032" y1="54.7824" y2="56.6011" /><line stroke="rgb(0%,0%,0%)" x1="164.2032" x2="163.5914" y1="56.6011" y2="57.6608" /><line stroke="rgb(0%,0%,0%)" x1="163.5914" x2="162.6353" y1="57.6608" y2="59.3168" /><line stroke="rgb(0%,0%,0%)" x1="162.6353" x2="161.8165" y1="59.3168" y2="60.2261" /><line stroke="rgb(0%,0%,0%)" x1="161.8165" x2="160.537" y1="60.2261" y2="61.6472" /><line stroke="rgb(0%,0%,0%)" x1="160.537" x2="159.547" y1="61.6472" y2="62.3664" /><line stroke="rgb(0%,0%,0%)" x1="159.547" x2="158.0" y1="62.3664" y2="63.4904" /><line stroke="rgb(0%,0%,0%)" x1="158.0" x2="156.8821" y1="63.4904" y2="63.9881" /><line stroke="rgb(0%,0%,0%)" x1="156.8821" x2="155.1353" y1="63.9881" y2="64.7658" /><line stroke="rgb(0%,0%,0%)" x1="155.1353" x2="153.9383" y1="64.7658" y2="65.0203" /><line stroke="rgb(0%,0%,0%)" x1="153.9383" x2="152.0679" y1="65.0203" y2="65.4178" /><line stroke="rgb(0%,0%,0%)" x1="152.0679" x2="150.8443" y1="65.4178" y2="65.4178" /><line stroke="rgb(0%,0%,0%)" x1="150.8443" x2="148.9321" y1="65.4178" y2="65.4178" /><line stroke="rgb(0%,0%,0%)" x1="148.9321" x2="147.7352" y1="65.4178" y2="65.1634" /><line stroke="rgb(0%,0%,0%)" x1="147.7352" x2="145.8647" y1="65.1634" y2="64.7658" /><line stroke="rgb(0%,0%,0%)" x1="145.8647" x2="144.7469" y1="64.7658" y2="64.2681" /><line stroke="rgb(0%,0%,0%)" x1="144.7469" x2="143.0" y1="64.2681" y2="63.4904" /><line stroke="rgb(0%,0%,0%)" x1="143.0" x2="142.01" y1="63.4904" y2="62.7711" /><line stroke="rgb(0%,0%,0%)" x1="142.01" x2="140.463" y1="62.7711" y2="61.6472" /><line stroke="rgb(0%,0%,0%)" x1="140.463" x2="139.6443" y1="61.6472" y2="60.7378" /><line stroke="rgb(0%,0%,0%)" x1="139.6443" x2="138.3647" y1="60.7378" y2="59.3168" /><line stroke="rgb(0%,0%,0%)" x1="138.3647" x2="137.7529" y1="59.3168" y2="58.2571" /><line stroke="rgb(0%,0%,0%)" x1="137.7529" x2="136.7968" y1="58.2571" y2="56.6011" /><line stroke="rgb(0%,0%,0%)" x1="136.7968" x2="136.4187" y1="56.6011" y2="55.4373" /><line stroke="rgb(0%,0%,0%)" x1="136.4187" x2="135.8278" y1="55.4373" y2="53.6187" /><line stroke="rgb(0%,0%,0%)" x1="135.8278" x2="135.6999" y1="53.6187" y2="52.4017" /><line stroke="rgb(0%,0%,0%)" x1="135.6999" x2="135.5" y1="52.4017" y2="50.5" /><line stroke="rgb(0%,0%,0%)" x1="135.5" x2="135.6279" y1="50.5" y2="49.283" /><line stroke="rgb(0%,0%,0%)" x1="135.6279" x2="135.8278" y1="49.283" y2="47.3813" /><line stroke="rgb(0%,0%,0%)" x1="135.8278" x2="136.2059" y1="47.3813" y2="46.2176" /><line stroke="rgb(0%,0%,0%)" x1="136.2059" x2="136.7968" y1="46.2176" y2="44.3989" /><line stroke="rgb(0%,0%,0%)" x1="136.7968" x2="137.4086" y1="44.3989" y2="43.3392" /><line stroke="rgb(0%,0%,0%)" x1="137.4086" x2="138.3647" y1="43.3392" y2="41.6832" /><line stroke="rgb(0%,0%,0%)" x1="138.3647" x2="139.1835" y1="41.6832" y2="40.7739" /><line stroke="rgb(0%,0%,0%)" x1="139.1835" x2="140.463" y1="40.7739" y2="39.3528" /><line stroke="rgb(0%,0%,0%)" x1="140.463" x2="141.453" y1="39.3528" y2="38.6336" /><line stroke="rgb(0%,0%,0%)" x1="141.453" x2="143.0" y1="38.6336" y2="37.5096" /><line stroke="rgb(0%,0%,0%)" x1="143.0" x2="144.1179" y1="37.5096" y2="37.0119" /><line stroke="rgb(0%,0%,0%)" x1="144.1179" x2="145.8647" y1="37.0119" y2="36.2342" /><line stroke="rgb(0%,0%,0%)" x1="145.8647" x2="147.0617" y1="36.2342" y2="35.9797" /><line stroke="rgb(0%,0%,0%)" x1="147.0617" x2="148.9321" y1="35.9797" y2="35.5822" /><line stroke="rgb(0%,0%,0%)" x1="148.9321" x2="150.1557" y1="35.5822" y2="35.5822" /><line stroke="rgb(0%,0%,0%)" x1="150.1557" x2="152.0679" y1="35.5822" y2="35.5822" /><line stroke="rgb(0%,0%,0%)" x1="152.0679" x2="153.2648" y1="35.5822" y2="35.8366" /><line stroke="rgb(0%,0%,0%)" x1="153.2648" x2="155.1353" y1="35.8366" y2="36.2342" /><line stroke="rgb(0%,0%,0%)" x1="155.1353" x2="156.2531" y1="36.2342" y2="36.7319" /><line stroke="rgb(0%,0%,0%)" x1="156.2531" x2="158.0" y1="36.7319" y2="37.5096" /><line stroke="rgb(0%,0%,0%)" x1="158.0" x2="158.99" y1="37.5096" y2="38.2289" /><line stroke="rgb(0%,0%,0%)" x1="158.99" x2="160.537" y1="38.2289" y2="39.3528" /><line stroke="rgb(0%,0%,0%)" x1="160.537" x2="161.3557" y1="39.3528" y2="40.2622" /><line stroke="rgb(0%,0%,0%)" x1="161.3557" x2="162.6353" y1="40.2622" y2="41.6832" /><line stroke="rgb(0%,0%,0%)" x1="162.6353" x2="163.2471" y1="41.6832" y2="42.7429" /><line stroke="rgb(0%,0%,0%)" x1="163.2471" x2="164.2032" y1="42.7429" y2="44.3989" /><line stroke="rgb(0%,0%,0%)" x1="164.2032" x2="164.5813" y1="44.3989" y2="45.5627" /><line stroke="rgb(0%,0%,0%)" x1="164.5813" x2="165.1722" y1="45.5627" y2="47.3813" /><line stroke="rgb(0%,0%,0%)" x1="65.1722" x2="65.3001" y1="47.3813" y2="48.5983" /><line stroke="rgb(0%,0%,0%)" x1="65.3001" x2="65.5" y1="48.5983" y2="50.5" /><line stroke="rgb(0%,0%,0%)" x1="65.5" x2="65.3721" y1="50.5" y2="51.717" /><line stroke="rgb(0%,0%,0%)" x1="65.3721" x2="65.1722" y1="51.717" y2="53.6187" /><line stroke="rgb(0%,0%,0%)" x1="65.1722" x2="64.7941" y1="53.6187" y2="54.7824" /><line stroke="rgb(0%,0%,0%)" x1="64.7941" x2="64.2032" y1="54.7824" y2="56.6011" /><line stroke="rgb(0%,0%,0%)" x1="64.2032" x2="63.5913" y1="56.6011" y2="57.6608" /><line stroke="rgb(0%,0%,0%)" x1="63.5913" x2="62.6352" y1="57.6608" y2="59.3168" /><line stroke="rgb(0%,0%,0%)" x1="62.6352" x2="61.8165" y1="59.3168" y2="60.2261" /><line stroke="rgb(0%,0%,0%)" x1="61.8165" x2="60.537" y1="60.2261" y2="61.6472" /><line stroke="rgb(0%,0%,0%)" x1="60.537" x2="59.547" y1="61.6472" y2="62.3664" /><line stroke="rgb(0%,0%,0%)" x1="59.547" x2="58.0" y1="62.3664" y2="63.4904" /><line stroke="rgb(0%,0%,0%)" x1="58.0" x2="56.8821" y1="63.4904" y2="63.9881" /><line stroke="rgb(0%,0%,0%)" x1="56.8821" x2="55.1353" y1="63.9881" y2="64.7658" /><line stroke="rgb(0%,0%,0%)" x1="55.1353" x2="53.9383" y1="64.7658" y2="65.0203" /><line stroke="rgb(0%,0%,0%)" x1="53.9383" x2="52.0679" y1="65.0203" y2="65.4178" /><line stroke="rgb(0%,0%,0%)" x1="52.0679" x2="50.8443" y1="65.4178" y2="65.4178" /><line stroke="rgb(0%,0%,0%)" x1="50.8443" x2="48.9321" y1="65.4178" y2="65.4178" /><line stroke="rgb(0%,0%,0%)" x1="48.9321" x2="47.7352" y1="65.4178" y2="65.1634" /><line stroke="rgb(0%,0%,0%)" x1="47.7352" x2="45.8647" y1="65.1634" y2="64.7658" /><line stroke="rgb(0%,0%,0%)" x1="45.8647" x2="44.7469" y1="64.7658" y2="64.2681" /><line stroke="rgb(0%,0%,0%)" x1="44.7469" x2="43.0" y1="64.2681" y2="63.4904" /><line stroke="rgb(0%,0%,0%)" x1="43.0" x2="42.01" y1="63.4904" y2="62.7711" /><line stroke="rgb(0%,0%,0%)" x1="42.01" x2="40.463" y1="62.7711" y2="61.6472" /><line stroke="rgb(0%,0%,0%)" x1="40.463" x2="39.6443" y1="61.6472" y2="60.7378" /><line stroke="rgb(0%,0%,0%)" x1="39.6443" x2="38.3647" y1="60.7378" y2="59.3168" /><line stroke="rgb(0%,0%,0%)" x1="38.3647" x2="37.7529" y1="59.3168" y2="58.2571" /><line stroke="rgb(0%,0%,0%)" x1="37.7529" x2="36.7968" y1="58.2571" y2="56.6011" /><line stroke="rgb(0%,0%,0%)" x1="36.7968" x2="36.4187" y1="56.6011" y2="55.4373" /><line stroke="rgb(0%,0%,0%)" x1="36.4187" x2="35.8278" y1="55.4373" y2="53.6187" /><line stroke="rgb(0%,0%,0%)" x1="35.8278" x2="35.6999" y1="53.6187" y2="52.4017" /><line stroke="rgb(0%,0%,0%)" x1="35.6999" x2="35.5" y1="52.4017" y2="50.5" /><line stroke="rgb(0%,0%,0%)" x1="35.5" x2="35.6279" y1="50.5" y2="49.283" /><line stroke="rgb(0%,0%,0%)" x1="35.6279" x2="35.8278" y1="49.283" y2="47.3813" /><line stroke="rgb(0%,0%,0%)" x1="35.8278" x2="36.2059" y1="47.3813" y2="46.2176" /><line stroke="rgb(0%,0%,0%)" x1="36.2059" x2="36.7968" y1="46.2176" y2="44.3989" /><line stroke="rgb(0%,0%,0%)" x1="36.7968" x2="37.4086" y1="44.3989" y2="43.3392" /><line stroke="rgb(0%,0%,0%)" x1="37.4086" x2="38.3647" y1="43.3392" y2="41.6832" /><line stroke="rgb(0%,0%,0%)" x1="38.3647" x2="39.1835" y1="41.6832" y2="40.7739" /><line stroke="rgb(0%,0%,0%)" x1="39.1835" x2="40.463" y1="40.7739" y2="39.3528" /><line stroke="rgb(0%,0%,0%)" x1="40.463" x2="41.453" y1="39.3528" y2="38.6336" /><line stroke="rgb(0%,0%,0%)" x1="41.453" x2="43.0" y1="38.6336" y2="37.5096" /><line stroke="rgb(0%,0%,0%)" x1="43.0" x2="44.1179" y1="37.5096" y2="37.0119" /><line stroke="rgb(0%,0%,0%)" x1="44.1179" x2="45.8647" y1="37.0119" y2="36.2342" /><line stroke="rgb(0%,0%,0%)" x1="45.8647" x2="47.0617" y1="36.2342" y2="35.9797" /><line stroke="rgb(0%,0%,0%)" x1="47.0617" x2="48.9321" y1="35.9797" y2="35.5822" /><line stroke="rgb(0%,0%,0%)" x1="48.9321" x2="50.1557" y1="35.5822" y2="35.5822" /><line stroke="rgb(0%,0%,0%)" x1="50.1557" x2="52.0679" y1="35.5822" y2="35.5822" /><line stroke="rgb(0%,0%,0%)" x1="52.0679" x2="53.2648" y1="35.5822" y2="35.8366" /><line stroke="rgb(0%,0%,0%)" x1="53.2648" x2="55.1353" y1="35.8366" y2="36.2342" /><line stroke="rgb(0%,0%,0%)" x1="55.1353" x2="56.2531" y1="36.2342" y2="36.7319" /><line stroke="rgb(0%,0%,0%)" x1="56.2531" x2="58.0" y1="36.7319" y2="37.5096" /><line stroke="rgb(0%,0%,0%)" x1="58.0" x2="58.99" y1="37.5096" y2="38.2289" /><line stroke="rgb(0%,0%,0%)" x1="58.99" x2="60.537" y1="38.2289" y2="39.3528" /><line stroke="rgb(0%,0%,0%)" x1="60.537" x2="61.3557" y1="39.3528" y2="40.2622" /><line stroke="rgb(0%,0%,0%)" x1="61.3557" x2="62.6352" y1="40.2622" y2="41.6832" /><line stroke="rgb(0%,0%,0%)" x1="62.6352" x2="63.2471" y1="41.6832" y2="42.7429" /><line stroke="rgb(0%,0%,0%)" x1="63.2471" x2="64.2032" y1="42.7429" y2="44.3989" /><line stroke="rgb(0%,0%,0%)" x1="64.2032" x2="64.5813" y1="44.3989" y2="45.5627" /><line stroke="rgb(0%,0%,0%)" x1="64.5813" x2="65.1722" y1="45.5627" y2="47.3813" /></svg>