<?xml version="1.0" encoding="utf-8" ?>
<svg baseProfile="tiny" height="100%" version="1.2" width="100%" xmlns="http://www.w3.org/2000/svg" xmlns:ev="http://www.w3.org/2001/xml-events" xmlns:xlink="http://www.w3.org/1999/xlink"><defs /><line stroke="rgb(0%,0%,0%)" x1="257.8679" x2="257.8679" y1="100.5" y2="40.3361" /><line stroke="rgb(0%,0%,0%)" x1="257.8679" x2="257.8679" y1="40.3361" y2="0.5" /><line stroke="rgb(0%,0%,0%)" x1="336.9" x2="336.9" y1="15.8493" y2="0.5" /><line stroke="rgb(0%,0%,0%)" x1="336.9" x2="336.9" y1="76.4238" y2="24.5762" /><line stroke="rgb(0%,0%,0%)" x1="336.9" x2="336.9" y1="24.5762" y2="22.9884" /><line stroke="rgb(0%,0%,0%)" x1="336.9" x2="336.9" y1="22.9884" y2="21.3231" /><line stroke="rgb(0%,0%,0%)" x1="336.9" x2="336.9" y1="100.5" y2="85.1507" /><line stroke="rgb(0%,0%,0%)" x1="336.9" x2="336.9" y1="85.1507" y2="84.1139" /><line stroke="rgb(0%,0%,0%)" x1="336.9" x2="336.9" y1="84.1139" y2="82.8162" /><line stroke="rgb(0%,0%,0%)" x1="336.9" x2="336.9" y1="21.3231" y2="19.6889" /><line stroke="rgb(0%,0%,0%)" x1="336.9" x2="336.9" y1="19.6889" y2="18.1838" /><line stroke="rgb(0%,0%,0%)" x1="336.9" x2="336.9" y1="18.1838" y2="16.8861" /><line stroke="rgb(0%,0%,0%)" x1="336.9" x2="336.9" y1="16.8861" y2="15.8493" /><line stroke="rgb(0%,0%,0%)" x1="336.9" x2="336.9" y1="82.8162" y2="81.3111" /><line stroke="rgb(0%,0%,0%)" x1="336.9" x2="336.9" y1="81.3111" y2="79.6769" /><line stroke="rgb(0%,0%,0%)" x1="336.9" x2="336.9" y1="79.6769" y2="78.0116" /><line stroke="rgb(0%,0%,0%)" x1="336.9" x2="336.9" y1="78.0116" y2="76.4238" /><line stroke="rgb(0%,0%,0%)" x1="264.7314" x2="257.8679" y1="100.5" y2="100.5" /><line stroke="rgb(0%,0%,0%)" x1="264.7314" x2="265.2371" y1="100.5" y2="100.5" /><line stroke="rgb(0%,0%,0%)" x1="265.2371" x2="275.7291" y1="100.5" y2="100.5" /><line stroke="rgb(0%,0%,0%)" x1="275.7291" x2="284.6621" y1="100.5" y2="100.5" /><line stroke="rgb(0%,0%,0%)" x1="284.6621" x2="286.2603" y1="100.5" y2="100.5" /><line stroke="rgb(0%,0%,0%)" x1="286.2603" x2="294.3327" y1="100.5" y2="100.5" /><line stroke="rgb(0%,0%,0%)" x1="294.3327" x2="296.3938" y1="100.5" y2="100.5" /><line stroke="rgb(0%,0%,0%)" x1="296.3938" x2="303.7432" y1="100.5" y2="100.5" /><line stroke="rgb(0%,0%,0%)" x1="303.7432" x2="306.1867" y1="100.5" y2="100.5" /><line stroke="rgb(0%,0%,0%)" x1="306.1867" x2="312.9413" y1="100.5" y2="100.5" /><line stroke="rgb(0%,0%,0%)" x1="312.9413" x2="315.688" y1="100.5" y2="100.5" /><line stroke="rgb(0%,0%,0%)" x1="315.688" x2="318.589" y1="100.5" y2="100.5" /><line stroke="rgb(0%,0%,0%)" x1="318.589" x2="336.9" y1="100.5" y2="100.5" /><line stroke="rgb(0%,0%,0%)" x1="257.8679" x2="264.7314" y1="0.5" y2="0.5" /><line stroke="rgb(0%,0%,0%)" x1="264.7314" x2="265.2371" y1="0.5" y2="0.5" /><line stroke="rgb(0%,0%,0%)" x1="265.2371" x2="275.7291" y1="0.5" y2="0.5" /><line stroke="rgb(0%,0%,0%)" x1="275.7291" x2="284.6621" y1="0.5" y2="0.5" /><line stroke="rgb(0%,0%,0%)" x1="284.6621" x2="286.2603" y1="0.5" y2="0.5" /><line stroke="rgb(0%,0%,0%)" x1="286.2603" x2="294.3327" y1="0.5" y2="0.5" /><line stroke="rgb(0%,0%,0%)" x1="294.3327" x2="296.3938" y1="0.5" y2="0.5" /><line stroke="rgb(0%,0%,0%)" x1="296.3938" x2="303.7432" y1="0.5" y2="0.5" /><line stroke="rgb(0%,0%,0%)" x1="303.7432" x2="306.1867" y1="0.5" y2="0.5" /><line stroke="rgb(0%,0%,0%)" x1="306.1867" x2="312.9413" y1="0.5" y2="0.5" /><line stroke="rgb(0%,0%,0%)" x1="312.9413" x2="315.688" y1="0.5" y2="0.5" /><line stroke="rgb(0%,0%,0%)" x1="315.688" x2="318.589" y1="0.5" y2="0.5" /><line stroke="rgb(0%,0%,0%)" x1="336.9" x2="318.589" y1="0.5" y2="0.5" /></svg>