<?xml version="1.0" encoding="utf-8" ?>
<svg baseProfile="tiny" height="100%" version="1.2" width="100%" xmlns="http://www.w3.org/2000/svg" xmlns:ev="http://www.w3.org/2001/xml-events" xmlns:xlink="http://www.w3.org/1999/xlink"><defs /><line stroke="rgb(0%,0%,0%)" x1="259.127" x2="259.127" y1="100.5" y2="56.4253" /><line stroke="rgb(0%,0%,0%)" x1="259.127" x2="259.127" y1="56.4253" y2="0.5" /><line stroke="rgb(0%,0%,0%)" x1="336.9" x2="336.9" y1="16.2215" y2="0.5" /><line stroke="rgb(0%,0%,0%)" x1="336.9" x2="336.9" y1="75.84" y2="25.16" /><line stroke="rgb(0%,0%,0%)" x1="336.9" x2="336.9" y1="25.16" y2="23.5337" /><line stroke="rgb(0%,0%,0%)" x1="336.9" x2="336.9" y1="23.5337" y2="21.828" /><line stroke="rgb(0%,0%,0%)" x1="336.9" x2="336.9" y1="100.5" y2="84.7785" /><line stroke="rgb(0%,0%,0%)" x1="336.9" x2="336.9" y1="84.7785" y2="83.7166" /><line stroke="rgb(0%,0%,0%)" x1="336.9" x2="336.9" y1="83.7166" y2="82.3874" /><line stroke="rgb(0%,0%,0%)" x1="336.9" x2="336.9" y1="21.828" y2="20.1542" /><line stroke="rgb(0%,0%,0%)" x1="336.9" x2="336.9" y1="20.1542" y2="18.6126" /><line stroke="rgb(0%,0%,0%)" x1="336.9" x2="336.9" y1="18.6126" y2="17.2834" /><line stroke="rgb(0%,0%,0%)" x1="336.9" x2="336.9" y1="17.2834" y2="16.2215" /><line stroke="rgb(0%,0%,0%)" x1="336.9" x2="336.9" y1="82.3874" y2="80.8458" /><line stroke="rgb(0%,0%,0%)" x1="336.9" x2="336.9" y1="80.8458" y2="79.172" /><line stroke="rgb(0%,0%,0%)" x1="336.9" x2="336.9" y1="79.172" y2="77.4663" /><line stroke="rgb(0%,0%,0%)" x1="336.9" x2="336.9" y1="77.4663" y2="75.84" /><line stroke="rgb(0%,0%,0%)" x1="264.155" x2="259.127" y1="100.5" y2="100.5" /><line stroke="rgb(0%,0%,0%)" x1="264.155" x2="264.5255" y1="100.5" y2="100.5" /><line stroke="rgb(0%,0%,0%)" x1="264.5255" x2="275.2056" y1="100.5" y2="100.5" /><line stroke="rgb(0%,0%,0%)" x1="275.2056" x2="284.2989" y1="100.5" y2="100.5" /><line stroke="rgb(0%,0%,0%)" x1="284.2989" x2="285.7872" y1="100.5" y2="100.5" /><line stroke="rgb(0%,0%,0%)" x1="285.7872" x2="294.0157" y1="100.5" y2="100.5" /><line stroke="rgb(0%,0%,0%)" x1="294.0157" x2="295.9687" y1="100.5" y2="100.5" /><line stroke="rgb(0%,0%,0%)" x1="295.9687" x2="303.4707" y1="100.5" y2="100.5" /><line stroke="rgb(0%,0%,0%)" x1="303.4707" x2="305.808" y1="100.5" y2="100.5" /><line stroke="rgb(0%,0%,0%)" x1="305.808" x2="312.7118" y1="100.5" y2="100.5" /><line stroke="rgb(0%,0%,0%)" x1="312.7118" x2="315.3542" y1="100.5" y2="100.5" /><line stroke="rgb(0%,0%,0%)" x1="315.3542" x2="318.145" y1="100.5" y2="100.5" /><line stroke="rgb(0%,0%,0%)" x1="318.145" x2="336.9" y1="100.5" y2="100.5" /><line stroke="rgb(0%,0%,0%)" x1="259.127" x2="264.155" y1="0.5" y2="0.5" /><line stroke="rgb(0%,0%,0%)" x1="264.155" x2="264.5255" y1="0.5" y2="0.5" /><line stroke="rgb(0%,0%,0%)" x1="264.5255" x2="275.2056" y1="0.5" y2="0.5" /><line stroke="rgb(0%,0%,0%)" x1="275.2056" x2="284.2989" y1="0.5" y2="0.5" /><line stroke="rgb(0%,0%,0%)" x1="284.2989" x2="285.7872" y1="0.5" y2="0.5" /><line stroke="rgb(0%,0%,0%)" x1="285.7872" x2="294.0157" y1="0.5" y2="0.5" /><line stroke="rgb(0%,0%,0%)" x1="294.0157" x2="295.9687" y1="0.5" y2="0.5" /><line stroke="rgb(0%,0%,0%)" x1="295.9687" x2="303.4707" y1="0.5" y2="0.5" /><line stroke="rgb(0%,0%,0%)" x1="303.4707" x2="305.808" y1="0.5" y2="0.5" /><line stroke="rgb(0%,0%,0%)" x1="305.808" x2="312.7118" y1="0.5" y2="0.5" /><line stroke="rgb(0%,0%,0%)" x1="312.7118" x2="315.3542" y1="0.5" y2="0.5" /><line stroke="rgb(0%,0%,0%)" x1="315.3542" x2="318.145" y1="0.5" y2="0.5" /><line stroke="rgb(0%,0%,0%)" x1="336.9" x2="318.145" y1="0.5" y2="0.5" /></svg>