<?xml version="1.0" encoding="utf-8" ?>
<svg baseProfile="tiny" height="100%" version="1.2" width="100%" xmlns="http://www.w3.org/2000/svg" xmlns:ev="http://www.w3.org/2001/xml-events" xmlns:xlink="http://www.w3.org/1999/xlink"><defs /><line stroke="rgb(0%,0%,0%)" x1="260.3861" x2="260.3861" y1="100.5" y2="72.5146" /><line stroke="rgb(0%,0%,0%)" x1="260.3861" x2="260.3861" y1="72.5146" y2="0.5" /><line stroke="rgb(0%,0%,0%)" x1="336.9" x2="336.9" y1="16.5937" y2="0.5" /><line stroke="rgb(0%,0%,0%)" x1="336.9" x2="336.9" y1="75.2562" y2="25.7438" /><line stroke="rgb(0%,0%,0%)" x1="336.9" x2="336.9" y1="25.7438" y2="24.079" /><line stroke="rgb(0%,0%,0%)" x1="336.9" x2="336.9" y1="24.079" y2="22.333" /><line stroke="rgb(0%,0%,0%)" x1="336.9" x2="336.9" y1="100.5" y2="84.4063" /><line stroke="rgb(0%,0%,0%)" x1="336.9" x2="336.9" y1="84.4063" y2="83.3192" /><line stroke="rgb(0%,0%,0%)" x1="336.9" x2="336.9" y1="83.3192" y2="81.9586" /><line stroke="rgb(0%,0%,0%)" x1="336.9" x2="336.9" y1="22.333" y2="20.6195" /><line stroke="rgb(0%,0%,0%)" x1="336.9" x2="336.9" y1="20.6195" y2="19.0414" /><line stroke="rgb(0%,0%,0%)" x1="336.9" x2="336.9" y1="19.0414" y2="17.6808" /><line stroke="rgb(0%,0%,0%)" x1="336.9" x2="336.9" y1="17.6808" y2="16.5937" /><line stroke="rgb(0%,0%,0%)" x1="336.9" x2="336.9" y1="81.9586" y2="80.3805" /><line stroke="rgb(0%,0%,0%)" x1="336.9" x2="336.9" y1="80.3805" y2="78.667" /><line stroke="rgb(0%,0%,0%)" x1="336.9" x2="336.9" y1="78.667" y2="76.921" /><line stroke="rgb(0%,0%,0%)" x1="336.9" x2="336.9" y1="76.921" y2="75.2562" /><line stroke="rgb(0%,0%,0%)" x1="263.5787" x2="260.3861" y1="100.5" y2="100.5" /><line stroke="rgb(0%,0%,0%)" x1="263.5787" x2="263.8139" y1="100.5" y2="100.5" /><line stroke="rgb(0%,0%,0%)" x1="263.8139" x2="274.6822" y1="100.5" y2="100.5" /><line stroke="rgb(0%,0%,0%)" x1="274.6822" x2="283.9357" y1="100.5" y2="100.5" /><line stroke="rgb(0%,0%,0%)" x1="283.9357" x2="285.3141" y1="100.5" y2="100.5" /><line stroke="rgb(0%,0%,0%)" x1="285.3141" x2="293.6987" y1="100.5" y2="100.5" /><line stroke="rgb(0%,0%,0%)" x1="293.6987" x2="295.5437" y1="100.5" y2="100.5" /><line stroke="rgb(0%,0%,0%)" x1="295.5437" x2="303.1981" y1="100.5" y2="100.5" /><line stroke="rgb(0%,0%,0%)" x1="303.1981" x2="305.4293" y1="100.5" y2="100.5" /><line stroke="rgb(0%,0%,0%)" x1="305.4293" x2="312.4823" y1="100.5" y2="100.5" /><line stroke="rgb(0%,0%,0%)" x1="312.4823" x2="315.0204" y1="100.5" y2="100.5" /><line stroke="rgb(0%,0%,0%)" x1="315.0204" x2="317.701" y1="100.5" y2="100.5" /><line stroke="rgb(0%,0%,0%)" x1="317.701" x2="336.9" y1="100.5" y2="100.5" /><line stroke="rgb(0%,0%,0%)" x1="260.3861" x2="263.5787" y1="0.5" y2="0.5" /><line stroke="rgb(0%,0%,0%)" x1="263.5787" x2="263.8139" y1="0.5" y2="0.5" /><line stroke="rgb(0%,0%,0%)" x1="263.8139" x2="274.6822" y1="0.5" y2="0.5" /><line stroke="rgb(0%,0%,0%)" x1="274.6822" x2="283.9357" y1="0.5" y2="0.5" /><line stroke="rgb(0%,0%,0%)" x1="283.9357" x2="285.3141" y1="0.5" y2="0.5" /><line stroke="rgb(0%,0%,0%)" x1="285.3141" x2="293.6987" y1="0.5" y2="0.5" /><line stroke="rgb(0%,0%,0%)" x1="293.6987" x2="295.5437" y1="0.5" y2="0.5" /><line stroke="rgb(0%,0%,0%)" x1="295.5437" x2="303.1981" y1="0.5" y2="0.5" /><line stroke="rgb(0%,0%,0%)" x1="303.1981" x2="305.4293" y1="0.5" y2="0.5" /><line stroke="rgb(0%,0%,0%)" x1="305.4293" x2="312.4823" y1="0.5" y2="0.5" /><line stroke="rgb(0%,0%,0%)" x1="312.4823" x2="315.0204" y1="0.5" y2="0.5" /><line stroke="rgb(0%,0%,0%)" x1="315.0204" x2="317.701" y1="0.5" y2="0.5" /><line stroke="rgb(0%,0%,0%)" x1="336.9" x2="317.701" y1="0.5" y2="0.5" /></svg>