<?xml version="1.0" encoding="utf-8" ?>
<svg baseProfile="tiny" height="100%" version="1.2" width="100%" xmlns="http://www.w3.org/2000/svg" xmlns:ev="http://www.w3.org/2001/xml-events" xmlns:xlink="http://www.w3.org/1999/xlink"><defs /><line stroke="rgb(0%,0%,0%)" x1="261.6452" x2="261.6452" y1="100.5" y2="88.6039" /><line stroke="rgb(0%,0%,0%)" x1="261.6452" x2="261.6452" y1="88.6039" y2="0.5" /><line stroke="rgb(0%,0%,0%)" x1="336.9" x2="336.9" y1="16.9659" y2="0.5" /><line stroke="rgb(0%,0%,0%)" x1="336.9" x2="336.9" y1="74.6724" y2="26.3276" /><line stroke="rgb(0%,0%,0%)" x1="336.9" x2="336.9" y1="26.3276" y2="24.6243" /><line stroke="rgb(0%,0%,0%)" x1="336.9" x2="336.9" y1="24.6243" y2="22.8379" /><line stroke="rgb(0%,0%,0%)" x1="336.9" x2="336.9" y1="100.5" y2="84.0341" /><line stroke="rgb(0%,0%,0%)" x1="336.9" x2="336.9" y1="84.0341" y2="82.9219" /><line stroke="rgb(0%,0%,0%)" x1="336.9" x2="336.9" y1="82.9219" y2="81.5298" /><line stroke="rgb(0%,0%,0%)" x1="336.9" x2="336.9" y1="22.8379" y2="21.0848" /><line stroke="rgb(0%,0%,0%)" x1="336.9" x2="336.9" y1="21.0848" y2="19.4702" /><line stroke="rgb(0%,0%,0%)" x1="336.9" x2="336.9" y1="19.4702" y2="18.0781" /><line stroke="rgb(0%,0%,0%)" x1="336.9" x2="336.9" y1="18.0781" y2="16.9659" /><line stroke="rgb(0%,0%,0%)" x1="336.9" x2="336.9" y1="81.5298" y2="79.9152" /><line stroke="rgb(0%,0%,0%)" x1="336.9" x2="336.9" y1="79.9152" y2="78.1621" /><line stroke="rgb(0%,0%,0%)" x1="336.9" x2="336.9" y1="78.1621" y2="76.3757" /><line stroke="rgb(0%,0%,0%)" x1="336.9" x2="336.9" y1="76.3757" y2="74.6724" /><line stroke="rgb(0%,0%,0%)" x1="263.0024" x2="261.6452" y1="100.5" y2="100.5" /><line stroke="rgb(0%,0%,0%)" x1="263.0024" x2="263.1023" y1="100.5" y2="100.5" /><line stroke="rgb(0%,0%,0%)" x1="263.1023" x2="274.1588" y1="100.5" y2="100.5" /><line stroke="rgb(0%,0%,0%)" x1="274.1588" x2="283.5725" y1="100.5" y2="100.5" /><line stroke="rgb(0%,0%,0%)" x1="283.5725" x2="284.8409" y1="100.5" y2="100.5" /><line stroke="rgb(0%,0%,0%)" x1="284.8409" x2="293.3817" y1="100.5" y2="100.5" /><line stroke="rgb(0%,0%,0%)" x1="293.3817" x2="295.1187" y1="100.5" y2="100.5" /><line stroke="rgb(0%,0%,0%)" x1="295.1187" x2="302.9256" y1="100.5" y2="100.5" /><line stroke="rgb(0%,0%,0%)" x1="302.9256" x2="305.0506" y1="100.5" y2="100.5" /><line stroke="rgb(0%,0%,0%)" x1="305.0506" x2="312.2529" y1="100.5" y2="100.5" /><line stroke="rgb(0%,0%,0%)" x1="312.2529" x2="314.6865" y1="100.5" y2="100.5" /><line stroke="rgb(0%,0%,0%)" x1="314.6865" x2="317.257" y1="100.5" y2="100.5" /><line stroke="rgb(0%,0%,0%)" x1="317.257" x2="336.9" y1="100.5" y2="100.5" /><line stroke="rgb(0%,0%,0%)" x1="261.6452" x2="263.0024" y1="0.5" y2="0.5" /><line stroke="rgb(0%,0%,0%)" x1="263.0024" x2="263.1023" y1="0.5" y2="0.5" /><line stroke="rgb(0%,0%,0%)" x1="263.1023" x2="274.1588" y1="0.5" y2="0.5" /><line stroke="rgb(0%,0%,0%)" x1="274.1588" x2="283.5725" y1="0.5" y2="0.5" /><line stroke="rgb(0%,0%,0%)" x1="283.5725" x2="284.8409" y1="0.5" y2="0.5" /><line stroke="rgb(0%,0%,0%)" x1="284.8409" x2="293.3817" y1="0.5" y2="0.5" /><line stroke="rgb(0%,0%,0%)" x1="293.3817" x2="295.1187" y1="0.5" y2="0.5" /><line stroke="rgb(0%,0%,0%)" x1="295.1187" x2="302.9256" y1="0.5" y2="0.5" /><line stroke="rgb(0%,0%,0%)" x1="302.9256" x2="305.0506" y1="0.5" y2="0.5" /><line stroke="rgb(0%,0%,0%)" x1="305.0506" x2="312.2529" y1="0.5" y2="0.5" /><line stroke="rgb(0%,0%,0%)" x1="312.2529" x2="314.6865" y1="0.5" y2="0.5" /><line stroke="rgb(0%,0%,0%)" x1="314.6865" x2="317.257" y1="0.5" y2="0.5" /><line stroke="rgb(0%,0%,0%)" x1="336.9" x2="317.257" y1="0.5" y2="0.5" /></svg>