<?xml version="1.0" encoding="utf-8" ?>
<svg baseProfile="tiny" height="100%" version="1.2" width="100%" xmlns="http://www.w3.org/2000/svg" xmlns:ev="http://www.w3.org/2001/xml-events" xmlns:xlink="http://www.w3.org/1999/xlink"><defs /><line stroke="rgb(0%,0%,0%)" x1="262.9535" x2="262.9535" y1="100.5" y2="5.088" /><line stroke="rgb(0%,0%,0%)" x1="262.9535" x2="262.9535" y1="5.088" y2="0.5" /><line stroke="rgb(0%,0%,0%)" x1="336.9" x2="336.9" y1="17.3381" y2="0.5" /><line stroke="rgb(0%,0%,0%)" x1="336.9" x2="336.9" y1="74.0886" y2="26.9114" /><line stroke="rgb(0%,0%,0%)" x1="336.9" x2="336.9" y1="26.9114" y2="25.1697" /><line stroke="rgb(0%,0%,0%)" x1="336.9" x2="336.9" y1="25.1697" y2="23.3428" /><line stroke="rgb(0%,0%,0%)" x1="336.9" x2="336.9" y1="100.5" y2="83.6619" /><line stroke="rgb(0%,0%,0%)" x1="336.9" x2="336.9" y1="83.6619" y2="82.5246" /><line stroke="rgb(0%,0%,0%)" x1="336.9" x2="336.9" y1="82.5246" y2="81.101" /><line stroke="rgb(0%,0%,0%)" x1="336.9" x2="336.9" y1="23.3428" y2="21.5501" /><line stroke="rgb(0%,0%,0%)" x1="336.9" x2="336.9" y1="21.5501" y2="19.899" /><line stroke="rgb(0%,0%,0%)" x1="336.9" x2="336.9" y1="19.899" y2="18.4754" /><line stroke="rgb(0%,0%,0%)" x1="336.9" x2="336.9" y1="18.4754" y2="17.3381" /><line stroke="rgb(0%,0%,0%)" x1="336.9" x2="336.9" y1="81.101" y2="79.4499" /><line stroke="rgb(0%,0%,0%)" x1="336.9" x2="336.9" y1="79.4499" y2="77.6572" /><line stroke="rgb(0%,0%,0%)" x1="336.9" x2="336.9" y1="77.6572" y2="75.8303" /><line stroke="rgb(0%,0%,0%)" x1="336.9" x2="336.9" y1="75.8303" y2="74.0886" /><line stroke="rgb(0%,0%,0%)" x1="273.6354" x2="262.9535" y1="100.5" y2="100.5" /><line stroke="rgb(0%,0%,0%)" x1="273.6354" x2="283.2092" y1="100.5" y2="100.5" /><line stroke="rgb(0%,0%,0%)" x1="283.2092" x2="284.3678" y1="100.5" y2="100.5" /><line stroke="rgb(0%,0%,0%)" x1="284.3678" x2="293.0647" y1="100.5" y2="100.5" /><line stroke="rgb(0%,0%,0%)" x1="293.0647" x2="294.6936" y1="100.5" y2="100.5" /><line stroke="rgb(0%,0%,0%)" x1="294.6936" x2="302.6531" y1="100.5" y2="100.5" /><line stroke="rgb(0%,0%,0%)" x1="302.6531" x2="304.6719" y1="100.5" y2="100.5" /><line stroke="rgb(0%,0%,0%)" x1="304.6719" x2="312.0234" y1="100.5" y2="100.5" /><line stroke="rgb(0%,0%,0%)" x1="312.0234" x2="314.3527" y1="100.5" y2="100.5" /><line stroke="rgb(0%,0%,0%)" x1="314.3527" x2="316.813" y1="100.5" y2="100.5" /><line stroke="rgb(0%,0%,0%)" x1="316.813" x2="336.9" y1="100.5" y2="100.5" /><line stroke="rgb(0%,0%,0%)" x1="262.9535" x2="273.6354" y1="0.5" y2="0.5" /><line stroke="rgb(0%,0%,0%)" x1="273.6354" x2="283.2092" y1="0.5" y2="0.5" /><line stroke="rgb(0%,0%,0%)" x1="283.2092" x2="284.3678" y1="0.5" y2="0.5" /><line stroke="rgb(0%,0%,0%)" x1="284.3678" x2="293.0647" y1="0.5" y2="0.5" /><line stroke="rgb(0%,0%,0%)" x1="293.0647" x2="294.6936" y1="0.5" y2="0.5" /><line stroke="rgb(0%,0%,0%)" x1="294.6936" x2="302.6531" y1="0.5" y2="0.5" /><line stroke="rgb(0%,0%,0%)" x1="302.6531" x2="304.6719" y1="0.5" y2="0.5" /><line stroke="rgb(0%,0%,0%)" x1="304.6719" x2="312.0234" y1="0.5" y2="0.5" /><line stroke="rgb(0%,0%,0%)" x1="312.0234" x2="314.3527" y1="0.5" y2="0.5" /><line stroke="rgb(0%,0%,0%)" x1="314.3527" x2="316.813" y1="0.5" y2="0.5" /><line stroke="rgb(0%,0%,0%)" x1="336.9" x2="316.813" y1="0.5" y2="0.5" /></svg>