<?xml version="1.0" encoding="utf-8" ?>
<svg baseProfile="tiny" height="100%" version="1.2" width="100%" xmlns="http://www.w3.org/2000/svg" xmlns:ev="http://www.w3.org/2001/xml-events" xmlns:xlink="http://www.w3.org/1999/xlink"><defs /><line stroke="rgb(0%,0%,0%)" x1="264.4009" x2="264.4009" y1="100.5" y2="22.6923" /><line stroke="rgb(0%,0%,0%)" x1="264.4009" x2="264.4009" y1="22.6923" y2="0.5" /><line stroke="rgb(0%,0%,0%)" x1="336.9" x2="336.9" y1="17.7103" y2="0.5" /><line stroke="rgb(0%,0%,0%)" x1="336.9" x2="336.9" y1="73.5048" y2="27.4952" /><line stroke="rgb(0%,0%,0%)" x1="336.9" x2="336.9" y1="27.4952" y2="25.715" /><line stroke="rgb(0%,0%,0%)" x1="336.9" x2="336.9" y1="25.715" y2="23.8477" /><line stroke="rgb(0%,0%,0%)" x1="336.9" x2="336.9" y1="100.5" y2="83.2897" /><line stroke="rgb(0%,0%,0%)" x1="336.9" x2="336.9" y1="83.2897" y2="82.1272" /><line stroke="rgb(0%,0%,0%)" x1="336.9" x2="336.9" y1="82.1272" y2="80.6722" /><line stroke="rgb(0%,0%,0%)" x1="336.9" x2="336.9" y1="23.8477" y2="22.0154" /><line stroke="rgb(0%,0%,0%)" x1="336.9" x2="336.9" y1="22.0154" y2="20.3278" /><line stroke="rgb(0%,0%,0%)" x1="336.9" x2="336.9" y1="20.3278" y2="18.8728" /><line stroke="rgb(0%,0%,0%)" x1="336.9" x2="336.9" y1="18.8728" y2="17.7103" /><line stroke="rgb(0%,0%,0%)" x1="336.9" x2="336.9" y1="80.6722" y2="78.9846" /><line stroke="rgb(0%,0%,0%)" x1="336.9" x2="336.9" y1="78.9846" y2="77.1523" /><line stroke="rgb(0%,0%,0%)" x1="336.9" x2="336.9" y1="77.1523" y2="75.285" /><line stroke="rgb(0%,0%,0%)" x1="336.9" x2="336.9" y1="75.285" y2="73.5048" /><line stroke="rgb(0%,0%,0%)" x1="273.112" x2="264.4009" y1="100.5" y2="100.5" /><line stroke="rgb(0%,0%,0%)" x1="273.112" x2="282.846" y1="100.5" y2="100.5" /><line stroke="rgb(0%,0%,0%)" x1="282.846" x2="283.8947" y1="100.5" y2="100.5" /><line stroke="rgb(0%,0%,0%)" x1="283.8947" x2="292.7477" y1="100.5" y2="100.5" /><line stroke="rgb(0%,0%,0%)" x1="292.7477" x2="294.2686" y1="100.5" y2="100.5" /><line stroke="rgb(0%,0%,0%)" x1="294.2686" x2="302.3806" y1="100.5" y2="100.5" /><line stroke="rgb(0%,0%,0%)" x1="302.3806" x2="304.2932" y1="100.5" y2="100.5" /><line stroke="rgb(0%,0%,0%)" x1="304.2932" x2="311.7939" y1="100.5" y2="100.5" /><line stroke="rgb(0%,0%,0%)" x1="311.7939" x2="314.0189" y1="100.5" y2="100.5" /><line stroke="rgb(0%,0%,0%)" x1="314.0189" x2="316.369" y1="100.5" y2="100.5" /><line stroke="rgb(0%,0%,0%)" x1="316.369" x2="336.9" y1="100.5" y2="100.5" /><line stroke="rgb(0%,0%,0%)" x1="264.4009" x2="273.112" y1="0.5" y2="0.5" /><line stroke="rgb(0%,0%,0%)" x1="273.112" x2="282.846" y1="0.5" y2="0.5" /><line stroke="rgb(0%,0%,0%)" x1="282.846" x2="283.8947" y1="0.5" y2="0.5" /><line stroke="rgb(0%,0%,0%)" x1="283.8947" x2="292.7477" y1="0.5" y2="0.5" /><line stroke="rgb(0%,0%,0%)" x1="292.7477" x2="294.2686" y1="0.5" y2="0.5" /><line stroke="rgb(0%,0%,0%)" x1="294.2686" x2="302.3806" y1="0.5" y2="0.5" /><line stroke="rgb(0%,0%,0%)" x1="302.3806" x2="304.2932" y1="0.5" y2="0.5" /><line stroke="rgb(0%,0%,0%)" x1="304.2932" x2="311.7939" y1="0.5" y2="0.5" /><line stroke="rgb(0%,0%,0%)" x1="311.7939" x2="314.0189" y1="0.5" y2="0.5" /><line stroke="rgb(0%,0%,0%)" x1="314.0189" x2="316.369" y1="0.5" y2="0.5" /><line stroke="rgb(0%,0%,0%)" x1="336.9" x2="316.369" y1="0.5" y2="0.5" /></svg>