<?xml version="1.0" encoding="utf-8" ?>
<svg baseProfile="tiny" height="100%" version="1.2" width="100%" xmlns="http://www.w3.org/2000/svg" xmlns:ev="http://www.w3.org/2001/xml-events" xmlns:xlink="http://www.w3.org/1999/xlink"><defs /><line stroke="rgb(0%,0%,0%)" x1="265.8484" x2="265.8484" y1="100.5" y2="40.2967" /><line stroke="rgb(0%,0%,0%)" x1="265.8484" x2="265.8484" y1="40.2967" y2="0.5" /><line stroke="rgb(0%,0%,0%)" x1="336.9" x2="336.9" y1="18.0825" y2="0.5" /><line stroke="rgb(0%,0%,0%)" x1="336.9" x2="336.9" y1="72.9209" y2="28.0791" /><line stroke="rgb(0%,0%,0%)" x1="336.9" x2="336.9" y1="28.0791" y2="26.2603" /><line stroke="rgb(0%,0%,0%)" x1="336.9" x2="336.9" y1="26.2603" y2="24.3527" /><line stroke="rgb(0%,0%,0%)" x1="336.9" x2="336.9" y1="100.5" y2="82.9175" /><line stroke="rgb(0%,0%,0%)" x1="336.9" x2="336.9" y1="82.9175" y2="81.7299" /><line stroke="rgb(0%,0%,0%)" x1="336.9" x2="336.9" y1="81.7299" y2="80.2434" /><line stroke="rgb(0%,0%,0%)" x1="336.9" x2="336.9" y1="24.3527" y2="22.4807" /><line stroke="rgb(0%,0%,0%)" x1="336.9" x2="336.9" y1="22.4807" y2="20.7566" /><line stroke="rgb(0%,0%,0%)" x1="336.9" x2="336.9" y1="20.7566" y2="19.2701" /><line stroke="rgb(0%,0%,0%)" x1="336.9" x2="336.9" y1="19.2701" y2="18.0825" /><line stroke="rgb(0%,0%,0%)" x1="336.9" x2="336.9" y1="80.2434" y2="78.5193" /><line stroke="rgb(0%,0%,0%)" x1="336.9" x2="336.9" y1="78.5193" y2="76.6473" /><line stroke="rgb(0%,0%,0%)" x1="336.9" x2="336.9" y1="76.6473" y2="74.7397" /><line stroke="rgb(0%,0%,0%)" x1="336.9" x2="336.9" y1="74.7397" y2="72.9209" /><line stroke="rgb(0%,0%,0%)" x1="272.5885" x2="265.8484" y1="100.5" y2="100.5" /><line stroke="rgb(0%,0%,0%)" x1="272.5885" x2="282.4828" y1="100.5" y2="100.5" /><line stroke="rgb(0%,0%,0%)" x1="282.4828" x2="283.4215" y1="100.5" y2="100.5" /><line stroke="rgb(0%,0%,0%)" x1="283.4215" x2="292.4307" y1="100.5" y2="100.5" /><line stroke="rgb(0%,0%,0%)" x1="292.4307" x2="293.8436" y1="100.5" y2="100.5" /><line stroke="rgb(0%,0%,0%)" x1="293.8436" x2="302.108" y1="100.5" y2="100.5" /><line stroke="rgb(0%,0%,0%)" x1="302.108" x2="303.9145" y1="100.5" y2="100.5" /><line stroke="rgb(0%,0%,0%)" x1="303.9145" x2="311.5644" y1="100.5" y2="100.5" /><line stroke="rgb(0%,0%,0%)" x1="311.5644" x2="313.6851" y1="100.5" y2="100.5" /><line stroke="rgb(0%,0%,0%)" x1="313.6851" x2="315.925" y1="100.5" y2="100.5" /><line stroke="rgb(0%,0%,0%)" x1="315.925" x2="336.9" y1="100.5" y2="100.5" /><line stroke="rgb(0%,0%,0%)" x1="265.8484" x2="272.5885" y1="0.5" y2="0.5" /><line stroke="rgb(0%,0%,0%)" x1="272.5885" x2="282.4828" y1="0.5" y2="0.5" /><line stroke="rgb(0%,0%,0%)" x1="282.4828" x2="283.4215" y1="0.5" y2="0.5" /><line stroke="rgb(0%,0%,0%)" x1="283.4215" x2="292.4307" y1="0.5" y2="0.5" /><line stroke="rgb(0%,0%,0%)" x1="292.4307" x2="293.8436" y1="0.5" y2="0.5" /><line stroke="rgb(0%,0%,0%)" x1="293.8436" x2="302.108" y1="0.5" y2="0.5" /><line stroke="rgb(0%,0%,0%)" x1="302.108" x2="303.9145" y1="0.5" y2="0.5" /><line stroke="rgb(0%,0%,0%)" x1="303.9145" x2="311.5644" y1="0.5" y2="0.5" /><line stroke="rgb(0%,0%,0%)" x1="311.5644" x2="313.6851" y1="0.5" y2="0.5" /><line stroke="rgb(0%,0%,0%)" x1="313.6851" x2="315.925" y1="0.5" y2="0.5" /><line stroke="rgb(0%,0%,0%)" x1="336.9" x2="315.925" y1="0.5" y2="0.5" /></svg>