<?xml version="1.0" encoding="utf-8" ?>
<svg baseProfile="tiny" height="100%" version="1.2" width="100%" xmlns="http://www.w3.org/2000/svg" xmlns:ev="http://www.w3.org/2001/xml-events" xmlns:xlink="http://www.w3.org/1999/xlink"><defs /><line stroke="rgb(0%,0%,0%)" x1="267.2959" x2="267.2959" y1="100.5" y2="57.901" /><line stroke="rgb(0%,0%,0%)" x1="267.2959" x2="267.2959" y1="57.901" y2="0.5" /><line stroke="rgb(0%,0%,0%)" x1="336.9" x2="336.9" y1="18.4546" y2="0.5" /><line stroke="rgb(0%,0%,0%)" x1="336.9" x2="336.9" y1="72.3371" y2="28.6629" /><line stroke="rgb(0%,0%,0%)" x1="336.9" x2="336.9" y1="28.6629" y2="26.8056" /><line stroke="rgb(0%,0%,0%)" x1="336.9" x2="336.9" y1="26.8056" y2="24.8576" /><line stroke="rgb(0%,0%,0%)" x1="336.9" x2="336.9" y1="100.5" y2="82.5454" /><line stroke="rgb(0%,0%,0%)" x1="336.9" x2="336.9" y1="82.5454" y2="81.3326" /><line stroke="rgb(0%,0%,0%)" x1="336.9" x2="336.9" y1="81.3326" y2="79.8146" /><line stroke="rgb(0%,0%,0%)" x1="336.9" x2="336.9" y1="24.8576" y2="22.9459" /><line stroke="rgb(0%,0%,0%)" x1="336.9" x2="336.9" y1="22.9459" y2="21.1854" /><line stroke="rgb(0%,0%,0%)" x1="336.9" x2="336.9" y1="21.1854" y2="19.6674" /><line stroke="rgb(0%,0%,0%)" x1="336.9" x2="336.9" y1="19.6674" y2="18.4546" /><line stroke="rgb(0%,0%,0%)" x1="336.9" x2="336.9" y1="79.8146" y2="78.0541" /><line stroke="rgb(0%,0%,0%)" x1="336.9" x2="336.9" y1="78.0541" y2="76.1424" /><line stroke="rgb(0%,0%,0%)" x1="336.9" x2="336.9" y1="76.1424" y2="74.1944" /><line stroke="rgb(0%,0%,0%)" x1="336.9" x2="336.9" y1="74.1944" y2="72.3371" /><line stroke="rgb(0%,0%,0%)" x1="272.0651" x2="267.2959" y1="100.5" y2="100.5" /><line stroke="rgb(0%,0%,0%)" x1="272.0651" x2="282.1196" y1="100.5" y2="100.5" /><line stroke="rgb(0%,0%,0%)" x1="282.1196" x2="282.9484" y1="100.5" y2="100.5" /><line stroke="rgb(0%,0%,0%)" x1="282.9484" x2="292.1137" y1="100.5" y2="100.5" /><line stroke="rgb(0%,0%,0%)" x1="292.1137" x2="293.4185" y1="100.5" y2="100.5" /><line stroke="rgb(0%,0%,0%)" x1="293.4185" x2="301.8355" y1="100.5" y2="100.5" /><line stroke="rgb(0%,0%,0%)" x1="301.8355" x2="303.5357" y1="100.5" y2="100.5" /><line stroke="rgb(0%,0%,0%)" x1="303.5357" x2="311.3349" y1="100.5" y2="100.5" /><line stroke="rgb(0%,0%,0%)" x1="311.3349" x2="313.3513" y1="100.5" y2="100.5" /><line stroke="rgb(0%,0%,0%)" x1="313.3513" x2="315.481" y1="100.5" y2="100.5" /><line stroke="rgb(0%,0%,0%)" x1="315.481" x2="336.9" y1="100.5" y2="100.5" /><line stroke="rgb(0%,0%,0%)" x1="267.2959" x2="272.0651" y1="0.5" y2="0.5" /><line stroke="rgb(0%,0%,0%)" x1="272.0651" x2="282.1196" y1="0.5" y2="0.5" /><line stroke="rgb(0%,0%,0%)" x1="282.1196" x2="282.9484" y1="0.5" y2="0.5" /><line stroke="rgb(0%,0%,0%)" x1="282.9484" x2="292.1137" y1="0.5" y2="0.5" /><line stroke="rgb(0%,0%,0%)" x1="292.1137" x2="293.4185" y1="0.5" y2="0.5" /><line stroke="rgb(0%,0%,0%)" x1="293.4185" x2="301.8355" y1="0.5" y2="0.5" /><line stroke="rgb(0%,0%,0%)" x1="301.8355" x2="303.5357" y1="0.5" y2="0.5" /><line stroke="rgb(0%,0%,0%)" x1="303.5357" x2="311.3349" y1="0.5" y2="0.5" /><line stroke="rgb(0%,0%,0%)" x1="311.3349" x2="313.3513" y1="0.5" y2="0.5" /><line stroke="rgb(0%,0%,0%)" x1="313.3513" x2="315.481" y1="0.5" y2="0.5" /><line stroke="rgb(0%,0%,0%)" x1="336.9" x2="315.481" y1="0.5" y2="0.5" /></svg>