<?xml version="1.0" encoding="utf-8" ?>
<svg baseProfile="tiny" height="100%" version="1.2" width="100%" xmlns="http://www.w3.org/2000/svg" xmlns:ev="http://www.w3.org/2001/xml-events" xmlns:xlink="http://www.w3.org/1999/xlink"><defs /><line stroke="rgb(0%,0%,0%)" x1="268.7434" x2="268.7434" y1="100.5" y2="75.5053" /><line stroke="rgb(0%,0%,0%)" x1="268.7434" x2="268.7434" y1="75.5053" y2="0.5" /><line stroke="rgb(0%,0%,0%)" x1="336.9" x2="336.9" y1="18.8268" y2="0.5" /><line stroke="rgb(0%,0%,0%)" x1="336.9" x2="336.9" y1="71.7533" y2="29.2467" /><line stroke="rgb(0%,0%,0%)" x1="336.9" x2="336.9" y1="29.2467" y2="27.3509" /><line stroke="rgb(0%,0%,0%)" x1="336.9" x2="336.9" y1="27.3509" y2="25.3625" /><line stroke="rgb(0%,0%,0%)" x1="336.9" x2="336.9" y1="100.5" y2="82.1732" /><line stroke="rgb(0%,0%,0%)" x1="336.9" x2="336.9" y1="82.1732" y2="80.9352" /><line stroke="rgb(0%,0%,0%)" x1="336.9" x2="336.9" y1="80.9352" y2="79.3858" /><line stroke="rgb(0%,0%,0%)" x1="336.9" x2="336.9" y1="25.3625" y2="23.4112" /><line stroke="rgb(0%,0%,0%)" x1="336.9" x2="336.9" y1="23.4112" y2="21.6142" /><line stroke="rgb(0%,0%,0%)" x1="336.9" x2="336.9" y1="21.6142" y2="20.0648" /><line stroke="rgb(0%,0%,0%)" x1="336.9" x2="336.9" y1="20.0648" y2="18.8268" /><line stroke="rgb(0%,0%,0%)" x1="336.9" x2="336.9" y1="79.3858" y2="77.5888" /><line stroke="rgb(0%,0%,0%)" x1="336.9" x2="336.9" y1="77.5888" y2="75.6375" /><line stroke="rgb(0%,0%,0%)" x1="336.9" x2="336.9" y1="75.6375" y2="73.6491" /><line stroke="rgb(0%,0%,0%)" x1="336.9" x2="336.9" y1="73.6491" y2="71.7533" /><line stroke="rgb(0%,0%,0%)" x1="271.5417" x2="268.7434" y1="100.5" y2="100.5" /><line stroke="rgb(0%,0%,0%)" x1="271.5417" x2="281.7564" y1="100.5" y2="100.5" /><line stroke="rgb(0%,0%,0%)" x1="281.7564" x2="282.4753" y1="100.5" y2="100.5" /><line stroke="rgb(0%,0%,0%)" x1="282.4753" x2="291.7967" y1="100.5" y2="100.5" /><line stroke="rgb(0%,0%,0%)" x1="291.7967" x2="292.9935" y1="100.5" y2="100.5" /><line stroke="rgb(0%,0%,0%)" x1="292.9935" x2="301.563" y1="100.5" y2="100.5" /><line stroke="rgb(0%,0%,0%)" x1="301.563" x2="303.157" y1="100.5" y2="100.5" /><line stroke="rgb(0%,0%,0%)" x1="303.157" x2="311.1055" y1="100.5" y2="100.5" /><line stroke="rgb(0%,0%,0%)" x1="311.1055" x2="313.0175" y1="100.5" y2="100.5" /><line stroke="rgb(0%,0%,0%)" x1="313.0175" x2="315.0369" y1="100.5" y2="100.5" /><line stroke="rgb(0%,0%,0%)" x1="315.0369" x2="336.9" y1="100.5" y2="100.5" /><line stroke="rgb(0%,0%,0%)" x1="268.7434" x2="271.5417" y1="0.5" y2="0.5" /><line stroke="rgb(0%,0%,0%)" x1="271.5417" x2="281.7564" y1="0.5" y2="0.5" /><line stroke="rgb(0%,0%,0%)" x1="281.7564" x2="282.4753" y1="0.5" y2="0.5" /><line stroke="rgb(0%,0%,0%)" x1="282.4753" x2="291.7967" y1="0.5" y2="0.5" /><line stroke="rgb(0%,0%,0%)" x1="291.7967" x2="292.9935" y1="0.5" y2="0.5" /><line stroke="rgb(0%,0%,0%)" x1="292.9935" x2="301.563" y1="0.5" y2="0.5" /><line stroke="rgb(0%,0%,0%)" x1="301.563" x2="303.157" y1="0.5" y2="0.5" /><line stroke="rgb(0%,0%,0%)" x1="303.157" x2="311.1055" y1="0.5" y2="0.5" /><line stroke="rgb(0%,0%,0%)" x1="311.1055" x2="313.0175" y1="0.5" y2="0.5" /><line stroke="rgb(0%,0%,0%)" x1="313.0175" x2="315.0369" y1="0.5" y2="0.5" /><line stroke="rgb(0%,0%,0%)" x1="336.9" x2="315.0369" y1="0.5" y2="0.5" /></svg>