<?xml version="1.0" encoding="utf-8" ?>
<svg baseProfile="tiny" height="100%" version="1.2" width="100%" xmlns="http://www.w3.org/2000/svg" xmlns:ev="http://www.w3.org/2001/xml-events" xmlns:xlink="http://www.w3.org/1999/xlink"><defs /><line stroke="rgb(0%,0%,0%)" x1="270.1909" x2="270.1909" y1="100.5" y2="93.1097" /><line stroke="rgb(0%,0%,0%)" x1="270.1909" x2="270.1909" y1="93.1097" y2="0.5" /><line stroke="rgb(0%,0%,0%)" x1="336.9" x2="336.9" y1="19.199" y2="0.5" /><line stroke="rgb(0%,0%,0%)" x1="336.9" x2="336.9" y1="71.1695" y2="29.8305" /><line stroke="rgb(0%,0%,0%)" x1="336.9" x2="336.9" y1="29.8305" y2="27.8962" /><line stroke="rgb(0%,0%,0%)" x1="336.9" x2="336.9" y1="27.8962" y2="25.8674" /><line stroke="rgb(0%,0%,0%)" x1="336.9" x2="336.9" y1="100.5" y2="81.801" /><line stroke="rgb(0%,0%,0%)" x1="336.9" x2="336.9" y1="81.801" y2="80.5379" /><line stroke="rgb(0%,0%,0%)" x1="336.9" x2="336.9" y1="80.5379" y2="78.957" /><line stroke="rgb(0%,0%,0%)" x1="336.9" x2="336.9" y1="25.8674" y2="23.8765" /><line stroke="rgb(0%,0%,0%)" x1="336.9" x2="336.9" y1="23.8765" y2="22.043" /><line stroke="rgb(0%,0%,0%)" x1="336.9" x2="336.9" y1="22.043" y2="20.4621" /><line stroke="rgb(0%,0%,0%)" x1="336.9" x2="336.9" y1="20.4621" y2="19.199" /><line stroke="rgb(0%,0%,0%)" x1="336.9" x2="336.9" y1="78.957" y2="77.1235" /><line stroke="rgb(0%,0%,0%)" x1="336.9" x2="336.9" y1="77.1235" y2="75.1326" /><line stroke="rgb(0%,0%,0%)" x1="336.9" x2="336.9" y1="75.1326" y2="73.1038" /><line stroke="rgb(0%,0%,0%)" x1="336.9" x2="336.9" y1="73.1038" y2="71.1695" /><line stroke="rgb(0%,0%,0%)" x1="271.0183" x2="270.1909" y1="100.5" y2="100.5" /><line stroke="rgb(0%,0%,0%)" x1="271.0183" x2="281.3932" y1="100.5" y2="100.5" /><line stroke="rgb(0%,0%,0%)" x1="281.3932" x2="282.0021" y1="100.5" y2="100.5" /><line stroke="rgb(0%,0%,0%)" x1="282.0021" x2="291.4797" y1="100.5" y2="100.5" /><line stroke="rgb(0%,0%,0%)" x1="291.4797" x2="292.5685" y1="100.5" y2="100.5" /><line stroke="rgb(0%,0%,0%)" x1="292.5685" x2="301.2905" y1="100.5" y2="100.5" /><line stroke="rgb(0%,0%,0%)" x1="301.2905" x2="302.7783" y1="100.5" y2="100.5" /><line stroke="rgb(0%,0%,0%)" x1="302.7783" x2="310.876" y1="100.5" y2="100.5" /><line stroke="rgb(0%,0%,0%)" x1="310.876" x2="312.6837" y1="100.5" y2="100.5" /><line stroke="rgb(0%,0%,0%)" x1="312.6837" x2="314.5929" y1="100.5" y2="100.5" /><line stroke="rgb(0%,0%,0%)" x1="314.5929" x2="336.9" y1="100.5" y2="100.5" /><line stroke="rgb(0%,0%,0%)" x1="270.1909" x2="271.0183" y1="0.5" y2="0.5" /><line stroke="rgb(0%,0%,0%)" x1="271.0183" x2="281.3932" y1="0.5" y2="0.5" /><line stroke="rgb(0%,0%,0%)" x1="281.3932" x2="282.0021" y1="0.5" y2="0.5" /><line stroke="rgb(0%,0%,0%)" x1="282.0021" x2="291.4797" y1="0.5" y2="0.5" /><line stroke="rgb(0%,0%,0%)" x1="291.4797" x2="292.5685" y1="0.5" y2="0.5" /><line stroke="rgb(0%,0%,0%)" x1="292.5685" x2="301.2905" y1="0.5" y2="0.5" /><line stroke="rgb(0%,0%,0%)" x1="301.2905" x2="302.7783" y1="0.5" y2="0.5" /><line stroke="rgb(0%,0%,0%)" x1="302.7783" x2="310.876" y1="0.5" y2="0.5" /><line stroke="rgb(0%,0%,0%)" x1="310.876" x2="312.6837" y1="0.5" y2="0.5" /><line stroke="rgb(0%,0%,0%)" x1="312.6837" x2="314.5929" y1="0.5" y2="0.5" /><line stroke="rgb(0%,0%,0%)" x1="336.9" x2="314.5929" y1="0.5" y2="0.5" /></svg>