<?xml version="1.0" encoding="utf-8" ?>
<svg baseProfile="tiny" height="100%" version="1.2" width="100%" xmlns="http://www.w3.org/2000/svg" xmlns:ev="http://www.w3.org/2001/xml-events" xmlns:xlink="http://www.w3.org/1999/xlink"><defs /><line stroke="rgb(0%,0%,0%)" x1="351.9" x2="351.9" y1="0.5" y2="27.7173" /><line stroke="rgb(0%,0%,0%)" x1="351.9" x2="351.9" y1="27.7173" y2="100.5" /><line stroke="rgb(0%,0%,0%)" x1="304.6327" x2="341.8947" y1="100.5" y2="100.5" /><line stroke="rgb(0%,0%,0%)" x1="341.8947" x2="343.1942" y1="100.5" y2="100.5" /><line stroke="rgb(0%,0%,0%)" x1="343.1942" x2="344.6788" y1="100.5" y2="100.5" /><line stroke="rgb(0%,0%,0%)" x1="344.6788" x2="346.3265" y1="100.5" y2="100.5" /><line stroke="rgb(0%,0%,0%)" x1="346.3265" x2="348.1062" y1="100.5" y2="100.5" /><line stroke="rgb(0%,0%,0%)" x1="348.1062" x2="349.979" y1="100.5" y2="100.5" /><line stroke="rgb(0%,0%,0%)" x1="349.979" x2="351.9" y1="100.5" y2="100.5" /><line stroke="rgb(0%,0%,0%)" x1="304.6327" x2="63.8848" y1="100.5" y2="100.5" /><line stroke="rgb(0%,0%,0%)" x1="63.8848" x2="0.5" y1="100.5" y2="100.5" /><line stroke="rgb(0%,0%,0%)" x1="0.5" x2="63.8848" y1="0.5" y2="0.5" /><line stroke="rgb(0%,0%,0%)" x1="63.8848" x2="304.6327" y1="0.5" y2="0.5" /><line stroke="rgb(0%,0%,0%)" x1="304.6327" x2="341.8947" y1="0.5" y2="0.5" /><line stroke="rgb(0%,0%,0%)" x1="341.8947" x2="343.1942" y1="0.5" y2="0.5" /><line stroke="rgb(0%,0%,0%)" x1="343.1942" x2="344.6788" y1="0.5" y2="0.5" /><line stroke="rgb(0%,0%,0%)" x1="344.6788" x2="346.3265" y1="0.5" y2="0.5" /><line stroke="rgb(0%,0%,0%)" x1="346.3265" x2="348.1062" y1="0.5" y2="0.5" /><line stroke="rgb(0%,0%,0%)" x1="348.1062" x2="349.979" y1="0.5" y2="0.5" /><line stroke="rgb(0%,0%,0%)" x1="349.979" x2="351.9" y1="0.5" y2="0.5" /><line stroke="rgb(0%,0%,0%)" x1="0.5" x2="0.5" y1="0.5" y2="69.0111" /><line stroke="rgb(0%,0%,0%)" x1="0.5" x2="0.5" y1="69.0111" y2="100.5" /><line stroke="rgb(0%,0%,0%)" x1="165.1722" x2="165.2936" y1="47.3813" y2="48.5359" /><line stroke="rgb(0%,0%,0%)" x1="165.2936" x2="165.5" y1="48.5359" y2="50.5" /><line stroke="rgb(0%,0%,0%)" x1="165.5" x2="165.3786" y1="50.5" y2="51.6546" /><line stroke="rgb(0%,0%,0%)" x1="165.3786" x2="165.1722" y1="51.6546" y2="53.6187" /><line stroke="rgb(0%,0%,0%)" x1="165.1722" x2="164.8135" y1="53.6187" y2="54.7228" /><line stroke="rgb(0%,0%,0%)" x1="164.8135" x2="164.2032" y1="54.7228" y2="56.6011" /><line stroke="rgb(0%,0%,0%)" x1="164.2032" x2="163.6227" y1="56.6011" y2="57.6065" /><line stroke="rgb(0%,0%,0%)" x1="163.6227" x2="162.6353" y1="57.6065" y2="59.3168" /><line stroke="rgb(0%,0%,0%)" x1="162.6353" x2="161.8584" y1="59.3168" y2="60.1795" /><line stroke="rgb(0%,0%,0%)" x1="161.8584" x2="160.537" y1="60.1795" y2="61.6472" /><line stroke="rgb(0%,0%,0%)" x1="160.537" x2="159.5977" y1="61.6472" y2="62.3296" /><line stroke="rgb(0%,0%,0%)" x1="159.5977" x2="158.0" y1="62.3296" y2="63.4904" /><line stroke="rgb(0%,0%,0%)" x1="158.0" x2="156.9394" y1="63.4904" y2="63.9626" /><line stroke="rgb(0%,0%,0%)" x1="156.9394" x2="155.1353" y1="63.9626" y2="64.7658" /><line stroke="rgb(0%,0%,0%)" x1="155.1353" x2="153.9997" y1="64.7658" y2="65.0072" /><line stroke="rgb(0%,0%,0%)" x1="153.9997" x2="152.0679" y1="65.0072" y2="65.4178" /><line stroke="rgb(0%,0%,0%)" x1="152.0679" x2="150.907" y1="65.4178" y2="65.4178" /><line stroke="rgb(0%,0%,0%)" x1="150.907" x2="148.9321" y1="65.4178" y2="65.4178" /><line stroke="rgb(0%,0%,0%)" x1="148.9321" x2="147.7965" y1="65.4178" y2="65.1764" /><line stroke="rgb(0%,0%,0%)" x1="147.7965" x2="145.8647" y1="65.1764" y2="64.7658" /><line stroke="rgb(0%,0%,0%)" x1="145.8647" x2="144.8042" y1="64.7658" y2="64.2936" /><line stroke="rgb(0%,0%,0%)" x1="144.8042" x2="143.0" y1="64.2936" y2="63.4904" /><line stroke="rgb(0%,0%,0%)" x1="143.0" x2="142.0608" y1="63.4904" y2="62.808" /><line stroke="rgb(0%,0%,0%)" x1="142.0608" x2="140.463" y1="62.808" y2="61.6472" /><line stroke="rgb(0%,0%,0%)" x1="140.463" x2="139.6862" y1="61.6472" y2="60.7844" /><line stroke="rgb(0%,0%,0%)" x1="139.6862" x2="138.3647" y1="60.7844" y2="59.3168" /><line stroke="rgb(0%,0%,0%)" x1="138.3647" x2="137.7843" y1="59.3168" y2="58.3114" /><line stroke="rgb(0%,0%,0%)" x1="137.7843" x2="136.7968" y1="58.3114" y2="56.6011" /><line stroke="rgb(0%,0%,0%)" x1="136.7968" x2="136.4381" y1="56.6011" y2="55.4969" /><line stroke="rgb(0%,0%,0%)" x1="136.4381" x2="135.8278" y1="55.4969" y2="53.6187" /><line stroke="rgb(0%,0%,0%)" x1="135.8278" x2="135.7064" y1="53.6187" y2="52.4641" /><line stroke="rgb(0%,0%,0%)" x1="135.7064" x2="135.5" y1="52.4641" y2="50.5" /><line stroke="rgb(0%,0%,0%)" x1="135.5" x2="135.6214" y1="50.5" y2="49.3454" /><line stroke="rgb(0%,0%,0%)" x1="135.6214" x2="135.8278" y1="49.3454" y2="47.3813" /><line stroke="rgb(0%,0%,0%)" x1="135.8278" x2="136.1865" y1="47.3813" y2="46.2772" /><line stroke="rgb(0%,0%,0%)" x1="136.1865" x2="136.7968" y1="46.2772" y2="44.3989" /><line stroke="rgb(0%,0%,0%)" x1="136.7968" x2="137.3773" y1="44.3989" y2="43.3935" /><line stroke="rgb(0%,0%,0%)" x1="137.3773" x2="138.3647" y1="43.3935" y2="41.6832" /><line stroke="rgb(0%,0%,0%)" x1="138.3647" x2="139.1416" y1="41.6832" y2="40.8205" /><line stroke="rgb(0%,0%,0%)" x1="139.1416" x2="140.463" y1="40.8205" y2="39.3528" /><line stroke="rgb(0%,0%,0%)" x1="140.463" x2="141.4023" y1="39.3528" y2="38.6704" /><line stroke="rgb(0%,0%,0%)" x1="141.4023" x2="143.0" y1="38.6704" y2="37.5096" /><line stroke="rgb(0%,0%,0%)" x1="143.0" x2="144.0606" y1="37.5096" y2="37.0374" /><line stroke="rgb(0%,0%,0%)" x1="144.0606" x2="145.8647" y1="37.0374" y2="36.2342" /><line stroke="rgb(0%,0%,0%)" x1="145.8647" x2="147.0003" y1="36.2342" y2="35.9928" /><line stroke="rgb(0%,0%,0%)" x1="147.0003" x2="148.9321" y1="35.9928" y2="35.5822" /><line stroke="rgb(0%,0%,0%)" x1="148.9321" x2="150.093" y1="35.5822" y2="35.5822" /><line stroke="rgb(0%,0%,0%)" x1="150.093" x2="152.0679" y1="35.5822" y2="35.5822" /><line stroke="rgb(0%,0%,0%)" x1="152.0679" x2="153.2035" y1="35.5822" y2="35.8235" /><line stroke="rgb(0%,0%,0%)" x1="153.2035" x2="155.1353" y1="35.8235" y2="36.2342" /><line stroke="rgb(0%,0%,0%)" x1="155.1353" x2="156.1958" y1="36.2342" y2="36.7064" /><line stroke="rgb(0%,0%,0%)" x1="156.1958" x2="158.0" y1="36.7064" y2="37.5096" /><line stroke="rgb(0%,0%,0%)" x1="158.0" x2="158.9392" y1="37.5096" y2="38.192" /><line stroke="rgb(0%,0%,0%)" x1="158.9392" x2="160.537" y1="38.192" y2="39.3528" /><line stroke="rgb(0%,0%,0%)" x1="160.537" x2="161.3138" y1="39.3528" y2="40.2156" /><line stroke="rgb(0%,0%,0%)" x1="161.3138" x2="162.6353" y1="40.2156" y2="41.6832" /><line stroke="rgb(0%,0%,0%)" x1="162.6353" x2="163.2157" y1="41.6832" y2="42.6886" /><line stroke="rgb(0%,0%,0%)" x1="163.2157" x2="164.2032" y1="42.6886" y2="44.3989" /><line stroke="rgb(0%,0%,0%)" x1="164.2032" x2="164.5619" y1="44.3989" y2="45.5031" /><line stroke="rgb(0%,0%,0%)" x1="164.5619" x2="165.1722" y1="45.5031" y2="47.3813" /><line stroke="rgb(0%,0%,0%)" x1="65.1722" x2="65.2936" y1="47.3813" y2="48.5359" /><line stroke="rgb(0%,0%,0%)" x1="65.2936" x2="65.5" y1="48.5359" y2="50.5" /><line stroke="rgb(0%,0%,0%)" x1="65.5" x2="65.3786" y1="50.5" y2="51.6546" /><line stroke="rgb(0%,0%,0%)" x1="65.3786" x2="65.1722" y1="51.6546" y2="53.6187" /><line stroke="rgb(0%,0%,0%)" x1="65.1722" x2="64.8135" y1="53.6187" y2="54.7228" /><line stroke="rgb(0%,0%,0%)" x1="64.8135" x2="64.2032" y1="54.7228" y2="56.6011" /><line stroke="rgb(0%,0%,0%)" x1="64.2032" x2="63.6227" y1="56.6011" y2="57.6065" /><line stroke="rgb(0%,0%,0%)" x1="63.6227" x2="62.6352" y1="57.6065" y2="59.3168" /><line stroke="rgb(0%,0%,0%)" x1="62.6352" x2="61.8584" y1="59.3168" y2="60.1795" /><line stroke="rgb(0%,0%,0%)" x1="61.8584" x2="60.537" y1="60.1795" y2="61.6472" /><line stroke="rgb(0%,0%,0%)" x1="60.537" x2="59.5977" y1="61.6472" y2="62.3296" /><line stroke="rgb(0%,0%,0%)" x1="59.5977" x2="58.0" y1="62.3296" y2="63.4904" /><line stroke="rgb(0%,0%,0%)" x1="58.0" x2="56.9394" y1="63.4904" y2="63.9626" /><line stroke="rgb(0%,0%,0%)" x1="56.9394" x2="55.1353" y1="63.9626" y2="64.7658" /><line stroke="rgb(0%,0%,0%)" x1="55.1353" x2="53.9997" y1="64.7658" y2="65.0072" /><line stroke="rgb(0%,0%,0%)" x1="53.9997" x2="52.0679" y1="65.0072" y2="65.4178" /><line stroke="rgb(0%,0%,0%)" x1="52.0679" x2="50.907" y1="65.4178" y2="65.4178" /><line stroke="rgb(0%,0%,0%)" x1="50.907" x2="48.9321" y1="65.4178" y2="65.4178" /><line stroke="rgb(0%,0%,0%)" x1="48.9321" x2="47.7965" y1="65.4178" y2="65.1764" /><line stroke="rgb(0%,0%,0%)" x1="47.7965" x2="45.8647" y1="65.1764" y2="64.7658" /><line stroke="rgb(0%,0%,0%)" x1="45.8647" x2="44.8042" y1="64.7658" y2="64.2936" /><line stroke="rgb(0%,0%,0%)" x1="44.8042" x2="43.0" y1="64.2936" y2="63.4904" /><line stroke="rgb(0%,0%,0%)" x1="43.0" x2="42.0608" y1="63.4904" y2="62.808" /><line stroke="rgb(0%,0%,0%)" x1="42.0608" x2="40.463" y1="62.808" y2="61.6472" /><line stroke="rgb(0%,0%,0%)" x1="40.463" x2="39.6862" y1="61.6472" y2="60.7844" /><line stroke="rgb(0%,0%,0%)" x1="39.6862" x2="38.3647" y1="60.7844" y2="59.3168" /><line stroke="rgb(0%,0%,0%)" x1="38.3647" x2="37.7843" y1="59.3168" y2="58.3114" /><line stroke="rgb(0%,0%,0%)" x1="37.7843" x2="36.7968" y1="58.3114" y2="56.6011" /><line stroke="rgb(0%,0%,0%)" x1="36.7968" x2="36.4381" y1="56.6011" y2="55.4969" /><line stroke="rgb(0%,0%,0%)" x1="36.4381" x2="35.8278" y1="55.4969" y2="53.6187" /><line stroke="rgb(0%,0%,0%)" x1="35.8278" x2="35.7064" y1="53.6187" y2="52.4641" /><line stroke="rgb(0%,0%,0%)" x1="35.7064" x2="35.5" y1="52.4641" y2="50.5" /><line stroke="rgb(0%,0%,0%)" x1="35.5" x2="35.6214" y1="50.5" y2="49.3454" /><line stroke="rgb(0%,0%,0%)" x1="35.6214" x2="35.8278" y1="49.3454" y2="47.3813" /><line stroke="rgb(0%,0%,0%)" x1="35.8278" x2="36.1865" y1="47.3813" y2="46.2772" /><line stroke="rgb(0%,0%,0%)" x1="36.1865" x2="36.7968" y1="46.2772" y2="44.3989" /><line stroke="rgb(0%,0%,0%)" x1="36.7968" x2="37.3773" y1="44.3989" y2="43.3935" /><line stroke="rgb(0%,0%,0%)" x1="37.3773" x2="38.3647" y1="43.3935" y2="41.6832" /><line stroke="rgb(0%,0%,0%)" x1="38.3647" x2="39.1416" y1="41.6832" y2="40.8205" /><line stroke="rgb(0%,0%,0%)" x1="39.1416" x2="40.463" y1="40.8205" y2="39.3528" /><line stroke="rgb(0%,0%,0%)" x1="40.463" x2="41.4023" y1="39.3528" y2="38.6704" /><line stroke="rgb(0%,0%,0%)" x1="41.4023" x2="43.0" y1="38.6704" y2="37.5096" /><line stroke="rgb(0%,0%,0%)" x1="43.0" x2="44.0606" y1="37.5096" y2="37.0374" /><line stroke="rgb(0%,0%,0%)" x1="44.0606" x2="45.8647" y1="37.0374" y2="36.2342" /><line stroke="rgb(0%,0%,0%)" x1="45.8647" x2="47.0003" y1="36.2342" y2="35.9928" /><line stroke="rgb(0%,0%,0%)" x1="47.0003" x2="48.9321" y1="35.9928" y2="35.5822" /><line stroke="rgb(0%,0%,0%)" x1="48.9321" x2="50.093" y1="35.5822" y2="35.5822" /><line stroke="rgb(0%,0%,0%)" x1="50.093" x2="52.0679" y1="35.5822" y2="35.5822" /><line stroke="rgb(0%,0%,0%)" x1="52.0679" x2="53.2035" y1="35.5822" y2="35.8235" /><line stroke="rgb(0%,0%,0%)" x1="53.2035" x2="55.1353" y1="35.8235" y2="36.2342" /><line stroke="rgb(0%,0%,0%)" x1="55.1353" x2="56.1958" y1="36.2342" y2="36.7064" /><line stroke="rgb(0%,0%,0%)" x1="56.1958" x2="58.0" y1="36.7064" y2="37.5096" /><line stroke="rgb(0%,0%,0%)" x1="58.0" x2="58.9392" y1="37.5096" y2="38.192" /><line stroke="rgb(0%,0%,0%)" x1="58.9392" x2="60.537" y1="38.192" y2="39.3528" /><line stroke="rgb(0%,0%,0%)" x1="60.537" x2="61.3138" y1="39.3528" y2="40.2156" /><line stroke="rgb(0%,0%,0%)" x1="61.3138" x2="62.6352" y1="40.2156" y2="41.6832" /><line stroke="rgb(0%,0%,0%)" x1="62.6352" x2="63.2157" y1="41.6832" y2="42.6886" /><line stroke="rgb(0%,0%,0%)" x1="63.2157" x2="64.2032" y1="42.6886" y2="44.3989" /><line stroke="rgb(0%,0%,0%)" x1="64.2032" x2="64.5619" y1="44.3989" y2="45.5031" /><line stroke="rgb(0%,0%,0%)" x1="64.5619" x2="65.1722" y1="45.5031" y2="47.3813" /></svg>