<?xml version="1.0" encoding="utf-8" ?>
<svg baseProfile="tiny" height="100%" version="1.2" width="100%" xmlns="http://www.w3.org/2000/svg" xmlns:ev="http://www.w3.org/2001/xml-events" xmlns:xlink="http://www.w3.org/1999/xlink"><defs /><line stroke="rgb(0%,0%,0%)" x1="271.7711" x2="271.7711" y1="100.5" y2="11.8313" /><line stroke="rgb(0%,0%,0%)" x1="271.7711" x2="271.7711" y1="11.8313" y2="0.5" /><line stroke="rgb(0%,0%,0%)" x1="336.9" x2="336.9" y1="19.5712" y2="0.5" /><line stroke="rgb(0%,0%,0%)" x1="336.9" x2="336.9" y1="70.5857" y2="30.4143" /><line stroke="rgb(0%,0%,0%)" x1="336.9" x2="336.9" y1="30.4143" y2="28.4415" /><line stroke="rgb(0%,0%,0%)" x1="336.9" x2="336.9" y1="28.4415" y2="26.3724" /><line stroke="rgb(0%,0%,0%)" x1="336.9" x2="336.9" y1="100.5" y2="81.4288" /><line stroke="rgb(0%,0%,0%)" x1="336.9" x2="336.9" y1="81.4288" y2="80.1406" /><line stroke="rgb(0%,0%,0%)" x1="336.9" x2="336.9" y1="80.1406" y2="78.5282" /><line stroke="rgb(0%,0%,0%)" x1="336.9" x2="336.9" y1="26.3724" y2="24.3418" /><line stroke="rgb(0%,0%,0%)" x1="336.9" x2="336.9" y1="24.3418" y2="22.4718" /><line stroke="rgb(0%,0%,0%)" x1="336.9" x2="336.9" y1="22.4718" y2="20.8594" /><line stroke="rgb(0%,0%,0%)" x1="336.9" x2="336.9" y1="20.8594" y2="19.5712" /><line stroke="rgb(0%,0%,0%)" x1="336.9" x2="336.9" y1="78.5282" y2="76.6582" /><line stroke="rgb(0%,0%,0%)" x1="336.9" x2="336.9" y1="76.6582" y2="74.6276" /><line stroke="rgb(0%,0%,0%)" x1="336.9" x2="336.9" y1="74.6276" y2="72.5585" /><line stroke="rgb(0%,0%,0%)" x1="336.9" x2="336.9" y1="72.5585" y2="70.5857" /><line stroke="rgb(0%,0%,0%)" x1="281.0299" x2="271.7711" y1="100.5" y2="100.5" /><line stroke="rgb(0%,0%,0%)" x1="281.0299" x2="281.529" y1="100.5" y2="100.5" /><line stroke="rgb(0%,0%,0%)" x1="281.529" x2="291.1627" y1="100.5" y2="100.5" /><line stroke="rgb(0%,0%,0%)" x1="291.1627" x2="292.1434" y1="100.5" y2="100.5" /><line stroke="rgb(0%,0%,0%)" x1="292.1434" x2="301.0179" y1="100.5" y2="100.5" /><line stroke="rgb(0%,0%,0%)" x1="301.0179" x2="302.3996" y1="100.5" y2="100.5" /><line stroke="rgb(0%,0%,0%)" x1="302.3996" x2="310.6465" y1="100.5" y2="100.5" /><line stroke="rgb(0%,0%,0%)" x1="310.6465" x2="312.3498" y1="100.5" y2="100.5" /><line stroke="rgb(0%,0%,0%)" x1="312.3498" x2="314.1489" y1="100.5" y2="100.5" /><line stroke="rgb(0%,0%,0%)" x1="314.1489" x2="336.9" y1="100.5" y2="100.5" /><line stroke="rgb(0%,0%,0%)" x1="271.7711" x2="281.0299" y1="0.5" y2="0.5" /><line stroke="rgb(0%,0%,0%)" x1="281.0299" x2="281.529" y1="0.5" y2="0.5" /><line stroke="rgb(0%,0%,0%)" x1="281.529" x2="291.1627" y1="0.5" y2="0.5" /><line stroke="rgb(0%,0%,0%)" x1="291.1627" x2="292.1434" y1="0.5" y2="0.5" /><line stroke="rgb(0%,0%,0%)" x1="292.1434" x2="301.0179" y1="0.5" y2="0.5" /><line stroke="rgb(0%,0%,0%)" x1="301.0179" x2="302.3996" y1="0.5" y2="0.5" /><line stroke="rgb(0%,0%,0%)" x1="302.3996" x2="310.6465" y1="0.5" y2="0.5" /><line stroke="rgb(0%,0%,0%)" x1="310.6465" x2="312.3498" y1="0.5" y2="0.5" /><line stroke="rgb(0%,0%,0%)" x1="312.3498" x2="314.1489" y1="0.5" y2="0.5" /><line stroke="rgb(0%,0%,0%)" x1="336.9" x2="314.1489" y1="0.5" y2="0.5" /></svg>