<?xml version="1.0" encoding="utf-8" ?>
<svg baseProfile="tiny" height="100%" version="1.2" width="100%" xmlns="http://www.w3.org/2000/svg" xmlns:ev="http://www.w3.org/2001/xml-events" xmlns:xlink="http://www.w3.org/1999/xlink"><defs /><line stroke="rgb(0%,0%,0%)" x1="273.4472" x2="273.4472" y1="100.5" y2="31.3615" /><line stroke="rgb(0%,0%,0%)" x1="273.4472" x2="273.4472" y1="31.3615" y2="0.5" /><line stroke="rgb(0%,0%,0%)" x1="336.9" x2="336.9" y1="19.9434" y2="0.5" /><line stroke="rgb(0%,0%,0%)" x1="336.9" x2="336.9" y1="70.0019" y2="30.9981" /><line stroke="rgb(0%,0%,0%)" x1="336.9" x2="336.9" y1="30.9981" y2="28.9868" /><line stroke="rgb(0%,0%,0%)" x1="336.9" x2="336.9" y1="28.9868" y2="26.8773" /><line stroke="rgb(0%,0%,0%)" x1="336.9" x2="336.9" y1="100.5" y2="81.0566" /><line stroke="rgb(0%,0%,0%)" x1="336.9" x2="336.9" y1="81.0566" y2="79.7432" /><line stroke="rgb(0%,0%,0%)" x1="336.9" x2="336.9" y1="79.7432" y2="78.0994" /><line stroke="rgb(0%,0%,0%)" x1="336.9" x2="336.9" y1="26.8773" y2="24.8071" /><line stroke="rgb(0%,0%,0%)" x1="336.9" x2="336.9" y1="24.8071" y2="22.9006" /><line stroke="rgb(0%,0%,0%)" x1="336.9" x2="336.9" y1="22.9006" y2="21.2568" /><line stroke="rgb(0%,0%,0%)" x1="336.9" x2="336.9" y1="21.2568" y2="19.9434" /><line stroke="rgb(0%,0%,0%)" x1="336.9" x2="336.9" y1="78.0994" y2="76.1929" /><line stroke="rgb(0%,0%,0%)" x1="336.9" x2="336.9" y1="76.1929" y2="74.1227" /><line stroke="rgb(0%,0%,0%)" x1="336.9" x2="336.9" y1="74.1227" y2="72.0132" /><line stroke="rgb(0%,0%,0%)" x1="336.9" x2="336.9" y1="72.0132" y2="70.0019" /><line stroke="rgb(0%,0%,0%)" x1="280.6667" x2="273.4472" y1="100.5" y2="100.5" /><line stroke="rgb(0%,0%,0%)" x1="280.6667" x2="281.0559" y1="100.5" y2="100.5" /><line stroke="rgb(0%,0%,0%)" x1="281.0559" x2="290.8457" y1="100.5" y2="100.5" /><line stroke="rgb(0%,0%,0%)" x1="290.8457" x2="291.7184" y1="100.5" y2="100.5" /><line stroke="rgb(0%,0%,0%)" x1="291.7184" x2="300.7454" y1="100.5" y2="100.5" /><line stroke="rgb(0%,0%,0%)" x1="300.7454" x2="302.0209" y1="100.5" y2="100.5" /><line stroke="rgb(0%,0%,0%)" x1="302.0209" x2="310.417" y1="100.5" y2="100.5" /><line stroke="rgb(0%,0%,0%)" x1="310.417" x2="312.016" y1="100.5" y2="100.5" /><line stroke="rgb(0%,0%,0%)" x1="312.016" x2="313.7049" y1="100.5" y2="100.5" /><line stroke="rgb(0%,0%,0%)" x1="313.7049" x2="336.9" y1="100.5" y2="100.5" /><line stroke="rgb(0%,0%,0%)" x1="273.4472" x2="280.6667" y1="0.5" y2="0.5" /><line stroke="rgb(0%,0%,0%)" x1="280.6667" x2="281.0559" y1="0.5" y2="0.5" /><line stroke="rgb(0%,0%,0%)" x1="281.0559" x2="290.8457" y1="0.5" y2="0.5" /><line stroke="rgb(0%,0%,0%)" x1="290.8457" x2="291.7184" y1="0.5" y2="0.5" /><line stroke="rgb(0%,0%,0%)" x1="291.7184" x2="300.7454" y1="0.5" y2="0.5" /><line stroke="rgb(0%,0%,0%)" x1="300.7454" x2="302.0209" y1="0.5" y2="0.5" /><line stroke="rgb(0%,0%,0%)" x1="302.0209" x2="310.417" y1="0.5" y2="0.5" /><line stroke="rgb(0%,0%,0%)" x1="310.417" x2="312.016" y1="0.5" y2="0.5" /><line stroke="rgb(0%,0%,0%)" x1="312.016" x2="313.7049" y1="0.5" y2="0.5" /><line stroke="rgb(0%,0%,0%)" x1="336.9" x2="313.7049" y1="0.5" y2="0.5" /></svg>