<?xml version="1.0" encoding="utf-8" ?>
<svg baseProfile="tiny" height="100%" version="1.2" width="100%" xmlns="http://www.w3.org/2000/svg" xmlns:ev="http://www.w3.org/2001/xml-events" xmlns:xlink="http://www.w3.org/1999/xlink"><defs /><line stroke="rgb(0%,0%,0%)" x1="275.1233" x2="275.1233" y1="100.5" y2="50.8916" /><line stroke="rgb(0%,0%,0%)" x1="275.1233" x2="275.1233" y1="50.8916" y2="0.5" /><line stroke="rgb(0%,0%,0%)" x1="336.9" x2="336.9" y1="20.3156" y2="0.5" /><line stroke="rgb(0%,0%,0%)" x1="336.9" x2="336.9" y1="69.4181" y2="31.5819" /><line stroke="rgb(0%,0%,0%)" x1="336.9" x2="336.9" y1="31.5819" y2="29.5321" /><line stroke="rgb(0%,0%,0%)" x1="336.9" x2="336.9" y1="29.5321" y2="27.3822" /><line stroke="rgb(0%,0%,0%)" x1="336.9" x2="336.9" y1="100.5" y2="80.6844" /><line stroke="rgb(0%,0%,0%)" x1="336.9" x2="336.9" y1="80.6844" y2="79.3459" /><line stroke="rgb(0%,0%,0%)" x1="336.9" x2="336.9" y1="79.3459" y2="77.6706" /><line stroke="rgb(0%,0%,0%)" x1="336.9" x2="336.9" y1="27.3822" y2="25.2724" /><line stroke="rgb(0%,0%,0%)" x1="336.9" x2="336.9" y1="25.2724" y2="23.3294" /><line stroke="rgb(0%,0%,0%)" x1="336.9" x2="336.9" y1="23.3294" y2="21.6541" /><line stroke="rgb(0%,0%,0%)" x1="336.9" x2="336.9" y1="21.6541" y2="20.3156" /><line stroke="rgb(0%,0%,0%)" x1="336.9" x2="336.9" y1="77.6706" y2="75.7276" /><line stroke="rgb(0%,0%,0%)" x1="336.9" x2="336.9" y1="75.7276" y2="73.6178" /><line stroke="rgb(0%,0%,0%)" x1="336.9" x2="336.9" y1="73.6178" y2="71.4679" /><line stroke="rgb(0%,0%,0%)" x1="336.9" x2="336.9" y1="71.4679" y2="69.4181" /><line stroke="rgb(0%,0%,0%)" x1="280.3035" x2="275.1233" y1="100.5" y2="100.5" /><line stroke="rgb(0%,0%,0%)" x1="280.3035" x2="280.5827" y1="100.5" y2="100.5" /><line stroke="rgb(0%,0%,0%)" x1="280.5827" x2="290.5287" y1="100.5" y2="100.5" /><line stroke="rgb(0%,0%,0%)" x1="290.5287" x2="291.2934" y1="100.5" y2="100.5" /><line stroke="rgb(0%,0%,0%)" x1="291.2934" x2="300.4729" y1="100.5" y2="100.5" /><line stroke="rgb(0%,0%,0%)" x1="300.4729" x2="301.6422" y1="100.5" y2="100.5" /><line stroke="rgb(0%,0%,0%)" x1="301.6422" x2="310.1875" y1="100.5" y2="100.5" /><line stroke="rgb(0%,0%,0%)" x1="310.1875" x2="311.6822" y1="100.5" y2="100.5" /><line stroke="rgb(0%,0%,0%)" x1="311.6822" x2="313.2609" y1="100.5" y2="100.5" /><line stroke="rgb(0%,0%,0%)" x1="313.2609" x2="336.9" y1="100.5" y2="100.5" /><line stroke="rgb(0%,0%,0%)" x1="275.1233" x2="280.3035" y1="0.5" y2="0.5" /><line stroke="rgb(0%,0%,0%)" x1="280.3035" x2="280.5827" y1="0.5" y2="0.5" /><line stroke="rgb(0%,0%,0%)" x1="280.5827" x2="290.5287" y1="0.5" y2="0.5" /><line stroke="rgb(0%,0%,0%)" x1="290.5287" x2="291.2934" y1="0.5" y2="0.5" /><line stroke="rgb(0%,0%,0%)" x1="291.2934" x2="300.4729" y1="0.5" y2="0.5" /><line stroke="rgb(0%,0%,0%)" x1="300.4729" x2="301.6422" y1="0.5" y2="0.5" /><line stroke="rgb(0%,0%,0%)" x1="301.6422" x2="310.1875" y1="0.5" y2="0.5" /><line stroke="rgb(0%,0%,0%)" x1="310.1875" x2="311.6822" y1="0.5" y2="0.5" /><line stroke="rgb(0%,0%,0%)" x1="311.6822" x2="313.2609" y1="0.5" y2="0.5" /><line stroke="rgb(0%,0%,0%)" x1="336.9" x2="313.2609" y1="0.5" y2="0.5" /></svg>