<?xml version="1.0" encoding="utf-8" ?>
<svg baseProfile="tiny" height="100%" version="1.2" width="100%" xmlns="http://www.w3.org/2000/svg" xmlns:ev="http://www.w3.org/2001/xml-events" xmlns:xlink="http://www.w3.org/1999/xlink"><defs /><line stroke="rgb(0%,0%,0%)" x1="276.7995" x2="276.7995" y1="100.5" y2="70.4217" /><line stroke="rgb(0%,0%,0%)" x1="276.7995" x2="276.7995" y1="70.4217" y2="0.5" /><line stroke="rgb(0%,0%,0%)" x1="336.9" x2="336.9" y1="20.6878" y2="0.5" /><line stroke="rgb(0%,0%,0%)" x1="336.9" x2="336.9" y1="68.8343" y2="32.1657" /><line stroke="rgb(0%,0%,0%)" x1="336.9" x2="336.9" y1="32.1657" y2="30.0774" /><line stroke="rgb(0%,0%,0%)" x1="336.9" x2="336.9" y1="30.0774" y2="27.8871" /><line stroke="rgb(0%,0%,0%)" x1="336.9" x2="336.9" y1="100.5" y2="80.3122" /><line stroke="rgb(0%,0%,0%)" x1="336.9" x2="336.9" y1="80.3122" y2="78.9486" /><line stroke="rgb(0%,0%,0%)" x1="336.9" x2="336.9" y1="78.9486" y2="77.2417" /><line stroke="rgb(0%,0%,0%)" x1="336.9" x2="336.9" y1="27.8871" y2="25.7377" /><line stroke="rgb(0%,0%,0%)" x1="336.9" x2="336.9" y1="25.7377" y2="23.7583" /><line stroke="rgb(0%,0%,0%)" x1="336.9" x2="336.9" y1="23.7583" y2="22.0514" /><line stroke="rgb(0%,0%,0%)" x1="336.9" x2="336.9" y1="22.0514" y2="20.6878" /><line stroke="rgb(0%,0%,0%)" x1="336.9" x2="336.9" y1="77.2417" y2="75.2623" /><line stroke="rgb(0%,0%,0%)" x1="336.9" x2="336.9" y1="75.2623" y2="73.1129" /><line stroke="rgb(0%,0%,0%)" x1="336.9" x2="336.9" y1="73.1129" y2="70.9226" /><line stroke="rgb(0%,0%,0%)" x1="336.9" x2="336.9" y1="70.9226" y2="68.8343" /><line stroke="rgb(0%,0%,0%)" x1="279.9403" x2="276.7995" y1="100.5" y2="100.5" /><line stroke="rgb(0%,0%,0%)" x1="279.9403" x2="280.1096" y1="100.5" y2="100.5" /><line stroke="rgb(0%,0%,0%)" x1="280.1096" x2="290.2117" y1="100.5" y2="100.5" /><line stroke="rgb(0%,0%,0%)" x1="290.2117" x2="290.8683" y1="100.5" y2="100.5" /><line stroke="rgb(0%,0%,0%)" x1="290.8683" x2="300.2003" y1="100.5" y2="100.5" /><line stroke="rgb(0%,0%,0%)" x1="300.2003" x2="301.2635" y1="100.5" y2="100.5" /><line stroke="rgb(0%,0%,0%)" x1="301.2635" x2="309.9581" y1="100.5" y2="100.5" /><line stroke="rgb(0%,0%,0%)" x1="309.9581" x2="311.3484" y1="100.5" y2="100.5" /><line stroke="rgb(0%,0%,0%)" x1="311.3484" x2="312.8169" y1="100.5" y2="100.5" /><line stroke="rgb(0%,0%,0%)" x1="312.8169" x2="336.9" y1="100.5" y2="100.5" /><line stroke="rgb(0%,0%,0%)" x1="276.7995" x2="279.9403" y1="0.5" y2="0.5" /><line stroke="rgb(0%,0%,0%)" x1="279.9403" x2="280.1096" y1="0.5" y2="0.5" /><line stroke="rgb(0%,0%,0%)" x1="280.1096" x2="290.2117" y1="0.5" y2="0.5" /><line stroke="rgb(0%,0%,0%)" x1="290.2117" x2="290.8683" y1="0.5" y2="0.5" /><line stroke="rgb(0%,0%,0%)" x1="290.8683" x2="300.2003" y1="0.5" y2="0.5" /><line stroke="rgb(0%,0%,0%)" x1="300.2003" x2="301.2635" y1="0.5" y2="0.5" /><line stroke="rgb(0%,0%,0%)" x1="301.2635" x2="309.9581" y1="0.5" y2="0.5" /><line stroke="rgb(0%,0%,0%)" x1="309.9581" x2="311.3484" y1="0.5" y2="0.5" /><line stroke="rgb(0%,0%,0%)" x1="311.3484" x2="312.8169" y1="0.5" y2="0.5" /><line stroke="rgb(0%,0%,0%)" x1="336.9" x2="312.8169" y1="0.5" y2="0.5" /></svg>