<?xml version="1.0" encoding="utf-8" ?>
<svg baseProfile="tiny" height="100%" version="1.2" width="100%" xmlns="http://www.w3.org/2000/svg" xmlns:ev="http://www.w3.org/2001/xml-events" xmlns:xlink="http://www.w3.org/1999/xlink"><defs /><line stroke="rgb(0%,0%,0%)" x1="278.4756" x2="278.4756" y1="100.5" y2="89.9518" /><line stroke="rgb(0%,0%,0%)" x1="278.4756" x2="278.4756" y1="89.9518" y2="0.5" /><line stroke="rgb(0%,0%,0%)" x1="336.9" x2="336.9" y1="21.06" y2="0.5" /><line stroke="rgb(0%,0%,0%)" x1="336.9" x2="336.9" y1="68.2505" y2="32.7495" /><line stroke="rgb(0%,0%,0%)" x1="336.9" x2="336.9" y1="32.7495" y2="30.6227" /><line stroke="rgb(0%,0%,0%)" x1="336.9" x2="336.9" y1="30.6227" y2="28.3921" /><line stroke="rgb(0%,0%,0%)" x1="336.9" x2="336.9" y1="100.5" y2="79.94" /><line stroke="rgb(0%,0%,0%)" x1="336.9" x2="336.9" y1="79.94" y2="78.5512" /><line stroke="rgb(0%,0%,0%)" x1="336.9" x2="336.9" y1="78.5512" y2="76.8129" /><line stroke="rgb(0%,0%,0%)" x1="336.9" x2="336.9" y1="28.3921" y2="26.203" /><line stroke="rgb(0%,0%,0%)" x1="336.9" x2="336.9" y1="26.203" y2="24.1871" /><line stroke="rgb(0%,0%,0%)" x1="336.9" x2="336.9" y1="24.1871" y2="22.4488" /><line stroke="rgb(0%,0%,0%)" x1="336.9" x2="336.9" y1="22.4488" y2="21.06" /><line stroke="rgb(0%,0%,0%)" x1="336.9" x2="336.9" y1="76.8129" y2="74.797" /><line stroke="rgb(0%,0%,0%)" x1="336.9" x2="336.9" y1="74.797" y2="72.6079" /><line stroke="rgb(0%,0%,0%)" x1="336.9" x2="336.9" y1="72.6079" y2="70.3773" /><line stroke="rgb(0%,0%,0%)" x1="336.9" x2="336.9" y1="70.3773" y2="68.2505" /><line stroke="rgb(0%,0%,0%)" x1="279.5771" x2="278.4756" y1="100.5" y2="100.5" /><line stroke="rgb(0%,0%,0%)" x1="279.5771" x2="279.6364" y1="100.5" y2="100.5" /><line stroke="rgb(0%,0%,0%)" x1="279.6364" x2="289.8947" y1="100.5" y2="100.5" /><line stroke="rgb(0%,0%,0%)" x1="289.8947" x2="290.4433" y1="100.5" y2="100.5" /><line stroke="rgb(0%,0%,0%)" x1="290.4433" x2="299.9278" y1="100.5" y2="100.5" /><line stroke="rgb(0%,0%,0%)" x1="299.9278" x2="300.8847" y1="100.5" y2="100.5" /><line stroke="rgb(0%,0%,0%)" x1="300.8847" x2="309.7286" y1="100.5" y2="100.5" /><line stroke="rgb(0%,0%,0%)" x1="309.7286" x2="311.0146" y1="100.5" y2="100.5" /><line stroke="rgb(0%,0%,0%)" x1="311.0146" x2="312.3729" y1="100.5" y2="100.5" /><line stroke="rgb(0%,0%,0%)" x1="312.3729" x2="336.9" y1="100.5" y2="100.5" /><line stroke="rgb(0%,0%,0%)" x1="278.4756" x2="279.5771" y1="0.5" y2="0.5" /><line stroke="rgb(0%,0%,0%)" x1="279.5771" x2="279.6364" y1="0.5" y2="0.5" /><line stroke="rgb(0%,0%,0%)" x1="279.6364" x2="289.8947" y1="0.5" y2="0.5" /><line stroke="rgb(0%,0%,0%)" x1="289.8947" x2="290.4433" y1="0.5" y2="0.5" /><line stroke="rgb(0%,0%,0%)" x1="290.4433" x2="299.9278" y1="0.5" y2="0.5" /><line stroke="rgb(0%,0%,0%)" x1="299.9278" x2="300.8847" y1="0.5" y2="0.5" /><line stroke="rgb(0%,0%,0%)" x1="300.8847" x2="309.7286" y1="0.5" y2="0.5" /><line stroke="rgb(0%,0%,0%)" x1="309.7286" x2="311.0146" y1="0.5" y2="0.5" /><line stroke="rgb(0%,0%,0%)" x1="311.0146" x2="312.3729" y1="0.5" y2="0.5" /><line stroke="rgb(0%,0%,0%)" x1="336.9" x2="312.3729" y1="0.5" y2="0.5" /></svg>