<?xml version="1.0" encoding="utf-8" ?>
<svg baseProfile="tiny" height="100%" version="1.2" width="100%" xmlns="http://www.w3.org/2000/svg" xmlns:ev="http://www.w3.org/2001/xml-events" xmlns:xlink="http://www.w3.org/1999/xlink"><defs /><line stroke="rgb(0%,0%,0%)" x1="280.2834" x2="280.2834" y1="100.5" y2="10.6357" /><line stroke="rgb(0%,0%,0%)" x1="280.2834" x2="280.2834" y1="10.6357" y2="0.5" /><line stroke="rgb(0%,0%,0%)" x1="336.9" x2="336.9" y1="21.4322" y2="0.5" /><line stroke="rgb(0%,0%,0%)" x1="336.9" x2="336.9" y1="67.6667" y2="33.3333" /><line stroke="rgb(0%,0%,0%)" x1="336.9" x2="336.9" y1="33.3333" y2="31.168" /><line stroke="rgb(0%,0%,0%)" x1="336.9" x2="336.9" y1="31.168" y2="28.897" /><line stroke="rgb(0%,0%,0%)" x1="336.9" x2="336.9" y1="100.5" y2="79.5678" /><line stroke="rgb(0%,0%,0%)" x1="336.9" x2="336.9" y1="79.5678" y2="78.1539" /><line stroke="rgb(0%,0%,0%)" x1="336.9" x2="336.9" y1="78.1539" y2="76.3841" /><line stroke="rgb(0%,0%,0%)" x1="336.9" x2="336.9" y1="28.897" y2="26.6683" /><line stroke="rgb(0%,0%,0%)" x1="336.9" x2="336.9" y1="26.6683" y2="24.6159" /><line stroke="rgb(0%,0%,0%)" x1="336.9" x2="336.9" y1="24.6159" y2="22.8461" /><line stroke="rgb(0%,0%,0%)" x1="336.9" x2="336.9" y1="22.8461" y2="21.4322" /><line stroke="rgb(0%,0%,0%)" x1="336.9" x2="336.9" y1="76.3841" y2="74.3317" /><line stroke="rgb(0%,0%,0%)" x1="336.9" x2="336.9" y1="74.3317" y2="72.103" /><line stroke="rgb(0%,0%,0%)" x1="336.9" x2="336.9" y1="72.103" y2="69.832" /><line stroke="rgb(0%,0%,0%)" x1="336.9" x2="336.9" y1="69.832" y2="67.6667" /><line stroke="rgb(0%,0%,0%)" x1="289.5777" x2="280.2834" y1="100.5" y2="100.5" /><line stroke="rgb(0%,0%,0%)" x1="289.5777" x2="290.0183" y1="100.5" y2="100.5" /><line stroke="rgb(0%,0%,0%)" x1="290.0183" x2="299.6553" y1="100.5" y2="100.5" /><line stroke="rgb(0%,0%,0%)" x1="299.6553" x2="300.506" y1="100.5" y2="100.5" /><line stroke="rgb(0%,0%,0%)" x1="300.506" x2="309.4991" y1="100.5" y2="100.5" /><line stroke="rgb(0%,0%,0%)" x1="309.4991" x2="310.6808" y1="100.5" y2="100.5" /><line stroke="rgb(0%,0%,0%)" x1="310.6808" x2="311.9289" y1="100.5" y2="100.5" /><line stroke="rgb(0%,0%,0%)" x1="311.9289" x2="336.9" y1="100.5" y2="100.5" /><line stroke="rgb(0%,0%,0%)" x1="280.2834" x2="289.5777" y1="0.5" y2="0.5" /><line stroke="rgb(0%,0%,0%)" x1="289.5777" x2="290.0183" y1="0.5" y2="0.5" /><line stroke="rgb(0%,0%,0%)" x1="290.0183" x2="299.6553" y1="0.5" y2="0.5" /><line stroke="rgb(0%,0%,0%)" x1="299.6553" x2="300.506" y1="0.5" y2="0.5" /><line stroke="rgb(0%,0%,0%)" x1="300.506" x2="309.4991" y1="0.5" y2="0.5" /><line stroke="rgb(0%,0%,0%)" x1="309.4991" x2="310.6808" y1="0.5" y2="0.5" /><line stroke="rgb(0%,0%,0%)" x1="310.6808" x2="311.9289" y1="0.5" y2="0.5" /><line stroke="rgb(0%,0%,0%)" x1="336.9" x2="311.9289" y1="0.5" y2="0.5" /></svg>