<?xml version="1.0" encoding="utf-8" ?>
<svg baseProfile="tiny" height="100%" version="1.2" width="100%" xmlns="http://www.w3.org/2000/svg" xmlns:ev="http://www.w3.org/2001/xml-events" xmlns:xlink="http://www.w3.org/1999/xlink"><defs /><line stroke="rgb(0%,0%,0%)" x1="282.2458" x2="282.2458" y1="100.5" y2="32.6744" /><line stroke="rgb(0%,0%,0%)" x1="282.2458" x2="282.2458" y1="32.6744" y2="0.5" /><line stroke="rgb(0%,0%,0%)" x1="336.9" x2="336.9" y1="21.8044" y2="0.5" /><line stroke="rgb(0%,0%,0%)" x1="336.9" x2="336.9" y1="67.0829" y2="33.9171" /><line stroke="rgb(0%,0%,0%)" x1="336.9" x2="336.9" y1="33.9171" y2="31.7133" /><line stroke="rgb(0%,0%,0%)" x1="336.9" x2="336.9" y1="31.7133" y2="29.4019" /><line stroke="rgb(0%,0%,0%)" x1="336.9" x2="336.9" y1="100.5" y2="79.1956" /><line stroke="rgb(0%,0%,0%)" x1="336.9" x2="336.9" y1="79.1956" y2="77.7566" /><line stroke="rgb(0%,0%,0%)" x1="336.9" x2="336.9" y1="77.7566" y2="75.9553" /><line stroke="rgb(0%,0%,0%)" x1="336.9" x2="336.9" y1="29.4019" y2="27.1336" /><line stroke="rgb(0%,0%,0%)" x1="336.9" x2="336.9" y1="27.1336" y2="25.0447" /><line stroke="rgb(0%,0%,0%)" x1="336.9" x2="336.9" y1="25.0447" y2="23.2434" /><line stroke="rgb(0%,0%,0%)" x1="336.9" x2="336.9" y1="23.2434" y2="21.8044" /><line stroke="rgb(0%,0%,0%)" x1="336.9" x2="336.9" y1="75.9553" y2="73.8664" /><line stroke="rgb(0%,0%,0%)" x1="336.9" x2="336.9" y1="73.8664" y2="71.5981" /><line stroke="rgb(0%,0%,0%)" x1="336.9" x2="336.9" y1="71.5981" y2="69.2867" /><line stroke="rgb(0%,0%,0%)" x1="336.9" x2="336.9" y1="69.2867" y2="67.0829" /><line stroke="rgb(0%,0%,0%)" x1="289.2607" x2="282.2458" y1="100.5" y2="100.5" /><line stroke="rgb(0%,0%,0%)" x1="289.2607" x2="289.5932" y1="100.5" y2="100.5" /><line stroke="rgb(0%,0%,0%)" x1="289.5932" x2="299.3828" y1="100.5" y2="100.5" /><line stroke="rgb(0%,0%,0%)" x1="299.3828" x2="300.1273" y1="100.5" y2="100.5" /><line stroke="rgb(0%,0%,0%)" x1="300.1273" x2="309.2696" y1="100.5" y2="100.5" /><line stroke="rgb(0%,0%,0%)" x1="309.2696" x2="310.347" y1="100.5" y2="100.5" /><line stroke="rgb(0%,0%,0%)" x1="310.347" x2="311.4849" y1="100.5" y2="100.5" /><line stroke="rgb(0%,0%,0%)" x1="311.4849" x2="336.9" y1="100.5" y2="100.5" /><line stroke="rgb(0%,0%,0%)" x1="282.2458" x2="289.2607" y1="0.5" y2="0.5" /><line stroke="rgb(0%,0%,0%)" x1="289.2607" x2="289.5932" y1="0.5" y2="0.5" /><line stroke="rgb(0%,0%,0%)" x1="289.5932" x2="299.3828" y1="0.5" y2="0.5" /><line stroke="rgb(0%,0%,0%)" x1="299.3828" x2="300.1273" y1="0.5" y2="0.5" /><line stroke="rgb(0%,0%,0%)" x1="300.1273" x2="309.2696" y1="0.5" y2="0.5" /><line stroke="rgb(0%,0%,0%)" x1="309.2696" x2="310.347" y1="0.5" y2="0.5" /><line stroke="rgb(0%,0%,0%)" x1="310.347" x2="311.4849" y1="0.5" y2="0.5" /><line stroke="rgb(0%,0%,0%)" x1="336.9" x2="311.4849" y1="0.5" y2="0.5" /></svg>