<?xml version="1.0" encoding="utf-8" ?>
<svg baseProfile="tiny" height="100%" version="1.2" width="100%" xmlns="http://www.w3.org/2000/svg" xmlns:ev="http://www.w3.org/2001/xml-events" xmlns:xlink="http://www.w3.org/1999/xlink"><defs /><line stroke="rgb(0%,0%,0%)" x1="284.2082" x2="284.2082" y1="100.5" y2="54.7132" /><line stroke="rgb(0%,0%,0%)" x1="284.2082" x2="284.2082" y1="54.7132" y2="0.5" /><line stroke="rgb(0%,0%,0%)" x1="336.9" x2="336.9" y1="22.1766" y2="0.5" /><line stroke="rgb(0%,0%,0%)" x1="336.9" x2="336.9" y1="66.4991" y2="34.5009" /><line stroke="rgb(0%,0%,0%)" x1="336.9" x2="336.9" y1="34.5009" y2="32.2586" /><line stroke="rgb(0%,0%,0%)" x1="336.9" x2="336.9" y1="32.2586" y2="29.9068" /><line stroke="rgb(0%,0%,0%)" x1="336.9" x2="336.9" y1="100.5" y2="78.8234" /><line stroke="rgb(0%,0%,0%)" x1="336.9" x2="336.9" y1="78.8234" y2="77.3592" /><line stroke="rgb(0%,0%,0%)" x1="336.9" x2="336.9" y1="77.3592" y2="75.5265" /><line stroke="rgb(0%,0%,0%)" x1="336.9" x2="336.9" y1="29.9068" y2="27.5989" /><line stroke="rgb(0%,0%,0%)" x1="336.9" x2="336.9" y1="27.5989" y2="25.4735" /><line stroke="rgb(0%,0%,0%)" x1="336.9" x2="336.9" y1="25.4735" y2="23.6408" /><line stroke="rgb(0%,0%,0%)" x1="336.9" x2="336.9" y1="23.6408" y2="22.1766" /><line stroke="rgb(0%,0%,0%)" x1="336.9" x2="336.9" y1="75.5265" y2="73.4011" /><line stroke="rgb(0%,0%,0%)" x1="336.9" x2="336.9" y1="73.4011" y2="71.0932" /><line stroke="rgb(0%,0%,0%)" x1="336.9" x2="336.9" y1="71.0932" y2="68.7414" /><line stroke="rgb(0%,0%,0%)" x1="336.9" x2="336.9" y1="68.7414" y2="66.4991" /><line stroke="rgb(0%,0%,0%)" x1="288.9437" x2="284.2082" y1="100.5" y2="100.5" /><line stroke="rgb(0%,0%,0%)" x1="288.9437" x2="289.1682" y1="100.5" y2="100.5" /><line stroke="rgb(0%,0%,0%)" x1="289.1682" x2="299.1102" y1="100.5" y2="100.5" /><line stroke="rgb(0%,0%,0%)" x1="299.1102" x2="299.7486" y1="100.5" y2="100.5" /><line stroke="rgb(0%,0%,0%)" x1="299.7486" x2="309.0401" y1="100.5" y2="100.5" /><line stroke="rgb(0%,0%,0%)" x1="309.0401" x2="310.0132" y1="100.5" y2="100.5" /><line stroke="rgb(0%,0%,0%)" x1="310.0132" x2="311.0409" y1="100.5" y2="100.5" /><line stroke="rgb(0%,0%,0%)" x1="311.0409" x2="336.9" y1="100.5" y2="100.5" /><line stroke="rgb(0%,0%,0%)" x1="284.2082" x2="288.9437" y1="0.5" y2="0.5" /><line stroke="rgb(0%,0%,0%)" x1="288.9437" x2="289.1682" y1="0.5" y2="0.5" /><line stroke="rgb(0%,0%,0%)" x1="289.1682" x2="299.1102" y1="0.5" y2="0.5" /><line stroke="rgb(0%,0%,0%)" x1="299.1102" x2="299.7486" y1="0.5" y2="0.5" /><line stroke="rgb(0%,0%,0%)" x1="299.7486" x2="309.0401" y1="0.5" y2="0.5" /><line stroke="rgb(0%,0%,0%)" x1="309.0401" x2="310.0132" y1="0.5" y2="0.5" /><line stroke="rgb(0%,0%,0%)" x1="310.0132" x2="311.0409" y1="0.5" y2="0.5" /><line stroke="rgb(0%,0%,0%)" x1="336.9" x2="311.0409" y1="0.5" y2="0.5" /></svg>