<?xml version="1.0" encoding="utf-8" ?>
<svg baseProfile="tiny" height="100%" version="1.2" width="100%" xmlns="http://www.w3.org/2000/svg" xmlns:ev="http://www.w3.org/2001/xml-events" xmlns:xlink="http://www.w3.org/1999/xlink"><defs /><line stroke="rgb(0%,0%,0%)" x1="286.1706" x2="286.1706" y1="100.5" y2="76.752" /><line stroke="rgb(0%,0%,0%)" x1="286.1706" x2="286.1706" y1="76.752" y2="0.5" /><line stroke="rgb(0%,0%,0%)" x1="336.9" x2="336.9" y1="22.5488" y2="0.5" /><line stroke="rgb(0%,0%,0%)" x1="336.9" x2="336.9" y1="65.9153" y2="35.0847" /><line stroke="rgb(0%,0%,0%)" x1="336.9" x2="336.9" y1="35.0847" y2="32.8039" /><line stroke="rgb(0%,0%,0%)" x1="336.9" x2="336.9" y1="32.8039" y2="30.4118" /><line stroke="rgb(0%,0%,0%)" x1="336.9" x2="336.9" y1="100.5" y2="78.4512" /><line stroke="rgb(0%,0%,0%)" x1="336.9" x2="336.9" y1="78.4512" y2="76.9619" /><line stroke="rgb(0%,0%,0%)" x1="336.9" x2="336.9" y1="76.9619" y2="75.0977" /><line stroke="rgb(0%,0%,0%)" x1="336.9" x2="336.9" y1="30.4118" y2="28.0642" /><line stroke="rgb(0%,0%,0%)" x1="336.9" x2="336.9" y1="28.0642" y2="25.9023" /><line stroke="rgb(0%,0%,0%)" x1="336.9" x2="336.9" y1="25.9023" y2="24.0381" /><line stroke="rgb(0%,0%,0%)" x1="336.9" x2="336.9" y1="24.0381" y2="22.5488" /><line stroke="rgb(0%,0%,0%)" x1="336.9" x2="336.9" y1="75.0977" y2="72.9358" /><line stroke="rgb(0%,0%,0%)" x1="336.9" x2="336.9" y1="72.9358" y2="70.5882" /><line stroke="rgb(0%,0%,0%)" x1="336.9" x2="336.9" y1="70.5882" y2="68.1961" /><line stroke="rgb(0%,0%,0%)" x1="336.9" x2="336.9" y1="68.1961" y2="65.9153" /><line stroke="rgb(0%,0%,0%)" x1="288.6267" x2="286.1706" y1="100.5" y2="100.5" /><line stroke="rgb(0%,0%,0%)" x1="288.6267" x2="288.7431" y1="100.5" y2="100.5" /><line stroke="rgb(0%,0%,0%)" x1="288.7431" x2="298.8377" y1="100.5" y2="100.5" /><line stroke="rgb(0%,0%,0%)" x1="298.8377" x2="299.3699" y1="100.5" y2="100.5" /><line stroke="rgb(0%,0%,0%)" x1="299.3699" x2="308.8107" y1="100.5" y2="100.5" /><line stroke="rgb(0%,0%,0%)" x1="308.8107" x2="309.6793" y1="100.5" y2="100.5" /><line stroke="rgb(0%,0%,0%)" x1="309.6793" x2="310.5968" y1="100.5" y2="100.5" /><line stroke="rgb(0%,0%,0%)" x1="310.5968" x2="336.9" y1="100.5" y2="100.5" /><line stroke="rgb(0%,0%,0%)" x1="286.1706" x2="288.6267" y1="0.5" y2="0.5" /><line stroke="rgb(0%,0%,0%)" x1="288.6267" x2="288.7431" y1="0.5" y2="0.5" /><line stroke="rgb(0%,0%,0%)" x1="288.7431" x2="298.8377" y1="0.5" y2="0.5" /><line stroke="rgb(0%,0%,0%)" x1="298.8377" x2="299.3699" y1="0.5" y2="0.5" /><line stroke="rgb(0%,0%,0%)" x1="299.3699" x2="308.8107" y1="0.5" y2="0.5" /><line stroke="rgb(0%,0%,0%)" x1="308.8107" x2="309.6793" y1="0.5" y2="0.5" /><line stroke="rgb(0%,0%,0%)" x1="309.6793" x2="310.5968" y1="0.5" y2="0.5" /><line stroke="rgb(0%,0%,0%)" x1="336.9" x2="310.5968" y1="0.5" y2="0.5" /></svg>