<?xml version="1.0" encoding="utf-8" ?>
<svg baseProfile="tiny" height="100%" version="1.2" width="100%" xmlns="http://www.w3.org/2000/svg" xmlns:ev="http://www.w3.org/2001/xml-events" xmlns:xlink="http://www.w3.org/1999/xlink"><defs /><line stroke="rgb(0%,0%,0%)" x1="288.133" x2="288.133" y1="100.5" y2="98.7907" /><line stroke="rgb(0%,0%,0%)" x1="288.133" x2="288.133" y1="98.7907" y2="0.5" /><line stroke="rgb(0%,0%,0%)" x1="336.9" x2="336.9" y1="22.921" y2="0.5" /><line stroke="rgb(0%,0%,0%)" x1="336.9" x2="336.9" y1="65.3314" y2="35.6686" /><line stroke="rgb(0%,0%,0%)" x1="336.9" x2="336.9" y1="35.6686" y2="33.3492" /><line stroke="rgb(0%,0%,0%)" x1="336.9" x2="336.9" y1="33.3492" y2="30.9167" /><line stroke="rgb(0%,0%,0%)" x1="336.9" x2="336.9" y1="100.5" y2="78.079" /><line stroke="rgb(0%,0%,0%)" x1="336.9" x2="336.9" y1="78.079" y2="76.5646" /><line stroke="rgb(0%,0%,0%)" x1="336.9" x2="336.9" y1="76.5646" y2="74.6689" /><line stroke="rgb(0%,0%,0%)" x1="336.9" x2="336.9" y1="30.9167" y2="28.5295" /><line stroke="rgb(0%,0%,0%)" x1="336.9" x2="336.9" y1="28.5295" y2="26.3311" /><line stroke="rgb(0%,0%,0%)" x1="336.9" x2="336.9" y1="26.3311" y2="24.4354" /><line stroke="rgb(0%,0%,0%)" x1="336.9" x2="336.9" y1="24.4354" y2="22.921" /><line stroke="rgb(0%,0%,0%)" x1="336.9" x2="336.9" y1="74.6689" y2="72.4705" /><line stroke="rgb(0%,0%,0%)" x1="336.9" x2="336.9" y1="72.4705" y2="70.0833" /><line stroke="rgb(0%,0%,0%)" x1="336.9" x2="336.9" y1="70.0833" y2="67.6508" /><line stroke="rgb(0%,0%,0%)" x1="336.9" x2="336.9" y1="67.6508" y2="65.3314" /><line stroke="rgb(0%,0%,0%)" x1="288.3097" x2="288.133" y1="100.5" y2="100.5" /><line stroke="rgb(0%,0%,0%)" x1="288.3097" x2="288.3181" y1="100.5" y2="100.5" /><line stroke="rgb(0%,0%,0%)" x1="288.3181" x2="298.5652" y1="100.5" y2="100.5" /><line stroke="rgb(0%,0%,0%)" x1="298.5652" x2="298.9912" y1="100.5" y2="100.5" /><line stroke="rgb(0%,0%,0%)" x1="298.9912" x2="308.5812" y1="100.5" y2="100.5" /><line stroke="rgb(0%,0%,0%)" x1="308.5812" x2="309.3455" y1="100.5" y2="100.5" /><line stroke="rgb(0%,0%,0%)" x1="309.3455" x2="310.1528" y1="100.5" y2="100.5" /><line stroke="rgb(0%,0%,0%)" x1="310.1528" x2="336.9" y1="100.5" y2="100.5" /><line stroke="rgb(0%,0%,0%)" x1="288.133" x2="288.3097" y1="0.5" y2="0.5" /><line stroke="rgb(0%,0%,0%)" x1="288.3097" x2="288.3181" y1="0.5" y2="0.5" /><line stroke="rgb(0%,0%,0%)" x1="288.3181" x2="298.5652" y1="0.5" y2="0.5" /><line stroke="rgb(0%,0%,0%)" x1="298.5652" x2="298.9912" y1="0.5" y2="0.5" /><line stroke="rgb(0%,0%,0%)" x1="298.9912" x2="308.5812" y1="0.5" y2="0.5" /><line stroke="rgb(0%,0%,0%)" x1="308.5812" x2="309.3455" y1="0.5" y2="0.5" /><line stroke="rgb(0%,0%,0%)" x1="309.3455" x2="310.1528" y1="0.5" y2="0.5" /><line stroke="rgb(0%,0%,0%)" x1="336.9" x2="310.1528" y1="0.5" y2="0.5" /></svg>