<?xml version="1.0" encoding="utf-8" ?>
<svg baseProfile="tiny" height="100%" version="1.2" width="100%" xmlns="http://www.w3.org/2000/svg" xmlns:ev="http://www.w3.org/2001/xml-events" xmlns:xlink="http://www.w3.org/1999/xlink"><defs /><line stroke="rgb(0%,0%,0%)" x1="351.9" x2="351.9" y1="0.5" y2="28.5813" /><line stroke="rgb(0%,0%,0%)" x1="351.9" x2="351.9" y1="28.5813" y2="100.5" /><line stroke="rgb(0%,0%,0%)" x1="303.1321" x2="341.5771" y1="100.5" y2="100.5" /><line stroke="rgb(0%,0%,0%)" x1="341.5771" x2="342.9178" y1="100.5" y2="100.5" /><line stroke="rgb(0%,0%,0%)" x1="342.9178" x2="344.4496" y1="100.5" y2="100.5" /><line stroke="rgb(0%,0%,0%)" x1="344.4496" x2="346.1496" y1="100.5" y2="100.5" /><line stroke="rgb(0%,0%,0%)" x1="346.1496" x2="347.9858" y1="100.5" y2="100.5" /><line stroke="rgb(0%,0%,0%)" x1="347.9858" x2="349.9181" y1="100.5" y2="100.5" /><line stroke="rgb(0%,0%,0%)" x1="349.9181" x2="351.9" y1="100.5" y2="100.5" /><line stroke="rgb(0%,0%,0%)" x1="303.1321" x2="65.897" y1="100.5" y2="100.5" /><line stroke="rgb(0%,0%,0%)" x1="65.897" x2="0.5" y1="100.5" y2="100.5" /><line stroke="rgb(0%,0%,0%)" x1="0.5" x2="65.897" y1="0.5" y2="0.5" /><line stroke="rgb(0%,0%,0%)" x1="65.897" x2="303.1321" y1="0.5" y2="0.5" /><line stroke="rgb(0%,0%,0%)" x1="303.1321" x2="341.5771" y1="0.5" y2="0.5" /><line stroke="rgb(0%,0%,0%)" x1="341.5771" x2="342.9178" y1="0.5" y2="0.5" /><line stroke="rgb(0%,0%,0%)" x1="342.9178" x2="344.4496" y1="0.5" y2="0.5" /><line stroke="rgb(0%,0%,0%)" x1="344.4496" x2="346.1496" y1="0.5" y2="0.5" /><line stroke="rgb(0%,0%,0%)" x1="346.1496" x2="347.9858" y1="0.5" y2="0.5" /><line stroke="rgb(0%,0%,0%)" x1="347.9858" x2="349.9181" y1="0.5" y2="0.5" /><line stroke="rgb(0%,0%,0%)" x1="349.9181" x2="351.9" y1="0.5" y2="0.5" /><line stroke="rgb(0%,0%,0%)" x1="0.5" x2="0.5" y1="0.5" y2="68.0114" /><line stroke="rgb(0%,0%,0%)" x1="0.5" x2="0.5" y1="68.0114" y2="100.5" /><line stroke="rgb(0%,0%,0%)" x1="165.1722" x2="165.287" y1="47.3813" y2="48.4736" /><line stroke="rgb(0%,0%,0%)" x1="165.287" x2="165.5" y1="48.4736" y2="50.5" /><line stroke="rgb(0%,0%,0%)" x1="165.5" x2="165.3852" y1="50.5" y2="51.5923" /><line stroke="rgb(0%,0%,0%)" x1="165.3852" x2="165.1722" y1="51.5923" y2="53.6187" /><line stroke="rgb(0%,0%,0%)" x1="165.1722" x2="164.8328" y1="53.6187" y2="54.6632" /><line stroke="rgb(0%,0%,0%)" x1="164.8328" x2="164.2032" y1="54.6632" y2="56.6011" /><line stroke="rgb(0%,0%,0%)" x1="164.2032" x2="163.654" y1="56.6011" y2="57.5522" /><line stroke="rgb(0%,0%,0%)" x1="163.654" x2="162.6353" y1="57.5522" y2="59.3168" /><line stroke="rgb(0%,0%,0%)" x1="162.6353" x2="161.9004" y1="59.3168" y2="60.133" /><line stroke="rgb(0%,0%,0%)" x1="161.9004" x2="160.537" y1="60.133" y2="61.6472" /><line stroke="rgb(0%,0%,0%)" x1="160.537" x2="159.6484" y1="61.6472" y2="62.2927" /><line stroke="rgb(0%,0%,0%)" x1="159.6484" x2="158.0" y1="62.2927" y2="63.4904" /><line stroke="rgb(0%,0%,0%)" x1="158.0" x2="156.9967" y1="63.4904" y2="63.9371" /><line stroke="rgb(0%,0%,0%)" x1="156.9967" x2="155.1353" y1="63.9371" y2="64.7658" /><line stroke="rgb(0%,0%,0%)" x1="155.1353" x2="154.061" y1="64.7658" y2="64.9942" /><line stroke="rgb(0%,0%,0%)" x1="154.061" x2="152.0679" y1="64.9942" y2="65.4178" /><line stroke="rgb(0%,0%,0%)" x1="152.0679" x2="150.9697" y1="65.4178" y2="65.4178" /><line stroke="rgb(0%,0%,0%)" x1="150.9697" x2="148.9321" y1="65.4178" y2="65.4178" /><line stroke="rgb(0%,0%,0%)" x1="148.9321" x2="147.8578" y1="65.4178" y2="65.1895" /><line stroke="rgb(0%,0%,0%)" x1="147.8578" x2="145.8647" y1="65.1895" y2="64.7658" /><line stroke="rgb(0%,0%,0%)" x1="145.8647" x2="144.8614" y1="64.7658" y2="64.3191" /><line stroke="rgb(0%,0%,0%)" x1="144.8614" x2="143.0" y1="64.3191" y2="63.4904" /><line stroke="rgb(0%,0%,0%)" x1="143.0" x2="142.1115" y1="63.4904" y2="62.8448" /><line stroke="rgb(0%,0%,0%)" x1="142.1115" x2="140.463" y1="62.8448" y2="61.6472" /><line stroke="rgb(0%,0%,0%)" x1="140.463" x2="139.7282" y1="61.6472" y2="60.831" /><line stroke="rgb(0%,0%,0%)" x1="139.7282" x2="138.3647" y1="60.831" y2="59.3168" /><line stroke="rgb(0%,0%,0%)" x1="138.3647" x2="137.8156" y1="59.3168" y2="58.3657" /><line stroke="rgb(0%,0%,0%)" x1="137.8156" x2="136.7968" y1="58.3657" y2="56.6011" /><line stroke="rgb(0%,0%,0%)" x1="136.7968" x2="136.4574" y1="56.6011" y2="55.5565" /><line stroke="rgb(0%,0%,0%)" x1="136.4574" x2="135.8278" y1="55.5565" y2="53.6187" /><line stroke="rgb(0%,0%,0%)" x1="135.8278" x2="135.713" y1="53.6187" y2="52.5264" /><line stroke="rgb(0%,0%,0%)" x1="135.713" x2="135.5" y1="52.5264" y2="50.5" /><line stroke="rgb(0%,0%,0%)" x1="135.5" x2="135.6148" y1="50.5" y2="49.4077" /><line stroke="rgb(0%,0%,0%)" x1="135.6148" x2="135.8278" y1="49.4077" y2="47.3813" /><line stroke="rgb(0%,0%,0%)" x1="135.8278" x2="136.1672" y1="47.3813" y2="46.3368" /><line stroke="rgb(0%,0%,0%)" x1="136.1672" x2="136.7968" y1="46.3368" y2="44.3989" /><line stroke="rgb(0%,0%,0%)" x1="136.7968" x2="137.3459" y1="44.3989" y2="43.4478" /><line stroke="rgb(0%,0%,0%)" x1="137.3459" x2="138.3647" y1="43.4478" y2="41.6832" /><line stroke="rgb(0%,0%,0%)" x1="138.3647" x2="139.0996" y1="41.6832" y2="40.867" /><line stroke="rgb(0%,0%,0%)" x1="139.0996" x2="140.463" y1="40.867" y2="39.3528" /><line stroke="rgb(0%,0%,0%)" x1="140.463" x2="141.3516" y1="39.3528" y2="38.7073" /><line stroke="rgb(0%,0%,0%)" x1="141.3516" x2="143.0" y1="38.7073" y2="37.5096" /><line stroke="rgb(0%,0%,0%)" x1="143.0" x2="144.0033" y1="37.5096" y2="37.0629" /><line stroke="rgb(0%,0%,0%)" x1="144.0033" x2="145.8647" y1="37.0629" y2="36.2342" /><line stroke="rgb(0%,0%,0%)" x1="145.8647" x2="146.939" y1="36.2342" y2="36.0058" /><line stroke="rgb(0%,0%,0%)" x1="146.939" x2="148.9321" y1="36.0058" y2="35.5822" /><line stroke="rgb(0%,0%,0%)" x1="148.9321" x2="150.0303" y1="35.5822" y2="35.5822" /><line stroke="rgb(0%,0%,0%)" x1="150.0303" x2="152.0679" y1="35.5822" y2="35.5822" /><line stroke="rgb(0%,0%,0%)" x1="152.0679" x2="153.1422" y1="35.5822" y2="35.8105" /><line stroke="rgb(0%,0%,0%)" x1="153.1422" x2="155.1353" y1="35.8105" y2="36.2342" /><line stroke="rgb(0%,0%,0%)" x1="155.1353" x2="156.1386" y1="36.2342" y2="36.6809" /><line stroke="rgb(0%,0%,0%)" x1="156.1386" x2="158.0" y1="36.6809" y2="37.5096" /><line stroke="rgb(0%,0%,0%)" x1="158.0" x2="158.8885" y1="37.5096" y2="38.1552" /><line stroke="rgb(0%,0%,0%)" x1="158.8885" x2="160.537" y1="38.1552" y2="39.3528" /><line stroke="rgb(0%,0%,0%)" x1="160.537" x2="161.2718" y1="39.3528" y2="40.169" /><line stroke="rgb(0%,0%,0%)" x1="161.2718" x2="162.6353" y1="40.169" y2="41.6832" /><line stroke="rgb(0%,0%,0%)" x1="162.6353" x2="163.1844" y1="41.6832" y2="42.6343" /><line stroke="rgb(0%,0%,0%)" x1="163.1844" x2="164.2032" y1="42.6343" y2="44.3989" /><line stroke="rgb(0%,0%,0%)" x1="164.2032" x2="164.5426" y1="44.3989" y2="45.4435" /><line stroke="rgb(0%,0%,0%)" x1="164.5426" x2="165.1722" y1="45.4435" y2="47.3813" /><line stroke="rgb(0%,0%,0%)" x1="65.1722" x2="65.287" y1="47.3813" y2="48.4736" /><line stroke="rgb(0%,0%,0%)" x1="65.287" x2="65.5" y1="48.4736" y2="50.5" /><line stroke="rgb(0%,0%,0%)" x1="65.5" x2="65.3852" y1="50.5" y2="51.5923" /><line stroke="rgb(0%,0%,0%)" x1="65.3852" x2="65.1722" y1="51.5923" y2="53.6187" /><line stroke="rgb(0%,0%,0%)" x1="65.1722" x2="64.8328" y1="53.6187" y2="54.6632" /><line stroke="rgb(0%,0%,0%)" x1="64.8328" x2="64.2032" y1="54.6632" y2="56.6011" /><line stroke="rgb(0%,0%,0%)" x1="64.2032" x2="63.654" y1="56.6011" y2="57.5522" /><line stroke="rgb(0%,0%,0%)" x1="63.654" x2="62.6352" y1="57.5522" y2="59.3168" /><line stroke="rgb(0%,0%,0%)" x1="62.6352" x2="61.9004" y1="59.3168" y2="60.133" /><line stroke="rgb(0%,0%,0%)" x1="61.9004" x2="60.537" y1="60.133" y2="61.6472" /><line stroke="rgb(0%,0%,0%)" x1="60.537" x2="59.6484" y1="61.6472" y2="62.2927" /><line stroke="rgb(0%,0%,0%)" x1="59.6484" x2="58.0" y1="62.2927" y2="63.4904" /><line stroke="rgb(0%,0%,0%)" x1="58.0" x2="56.9967" y1="63.4904" y2="63.9371" /><line stroke="rgb(0%,0%,0%)" x1="56.9967" x2="55.1353" y1="63.9371" y2="64.7658" /><line stroke="rgb(0%,0%,0%)" x1="55.1353" x2="54.061" y1="64.7658" y2="64.9942" /><line stroke="rgb(0%,0%,0%)" x1="54.061" x2="52.0679" y1="64.9942" y2="65.4178" /><line stroke="rgb(0%,0%,0%)" x1="52.0679" x2="50.9697" y1="65.4178" y2="65.4178" /><line stroke="rgb(0%,0%,0%)" x1="50.9697" x2="48.9321" y1="65.4178" y2="65.4178" /><line stroke="rgb(0%,0%,0%)" x1="48.9321" x2="47.8578" y1="65.4178" y2="65.1895" /><line stroke="rgb(0%,0%,0%)" x1="47.8578" x2="45.8647" y1="65.1895" y2="64.7658" /><line stroke="rgb(0%,0%,0%)" x1="45.8647" x2="44.8614" y1="64.7658" y2="64.3191" /><line stroke="rgb(0%,0%,0%)" x1="44.8614" x2="43.0" y1="64.3191" y2="63.4904" /><line stroke="rgb(0%,0%,0%)" x1="43.0" x2="42.1115" y1="63.4904" y2="62.8448" /><line stroke="rgb(0%,0%,0%)" x1="42.1115" x2="40.463" y1="62.8448" y2="61.6472" /><line stroke="rgb(0%,0%,0%)" x1="40.463" x2="39.7282" y1="61.6472" y2="60.831" /><line stroke="rgb(0%,0%,0%)" x1="39.7282" x2="38.3647" y1="60.831" y2="59.3168" /><line stroke="rgb(0%,0%,0%)" x1="38.3647" x2="37.8156" y1="59.3168" y2="58.3657" /><line stroke="rgb(0%,0%,0%)" x1="37.8156" x2="36.7968" y1="58.3657" y2="56.6011" /><line stroke="rgb(0%,0%,0%)" x1="36.7968" x2="36.4574" y1="56.6011" y2="55.5565" /><line stroke="rgb(0%,0%,0%)" x1="36.4574" x2="35.8278" y1="55.5565" y2="53.6187" /><line stroke="rgb(0%,0%,0%)" x1="35.8278" x2="35.713" y1="53.6187" y2="52.5264" /><line stroke="rgb(0%,0%,0%)" x1="35.713" x2="35.5" y1="52.5264" y2="50.5" /><line stroke="rgb(0%,0%,0%)" x1="35.5" x2="35.6148" y1="50.5" y2="49.4077" /><line stroke="rgb(0%,0%,0%)" x1="35.6148" x2="35.8278" y1="49.4077" y2="47.3813" /><line stroke="rgb(0%,0%,0%)" x1="35.8278" x2="36.1672" y1="47.3813" y2="46.3368" /><line stroke="rgb(0%,0%,0%)" x1="36.1672" x2="36.7968" y1="46.3368" y2="44.3989" /><line stroke="rgb(0%,0%,0%)" x1="36.7968" x2="37.3459" y1="44.3989" y2="43.4478" /><line stroke="rgb(0%,0%,0%)" x1="37.3459" x2="38.3647" y1="43.4478" y2="41.6832" /><line stroke="rgb(0%,0%,0%)" x1="38.3647" x2="39.0996" y1="41.6832" y2="40.867" /><line stroke="rgb(0%,0%,0%)" x1="39.0996" x2="40.463" y1="40.867" y2="39.3528" /><line stroke="rgb(0%,0%,0%)" x1="40.463" x2="41.3516" y1="39.3528" y2="38.7073" /><line stroke="rgb(0%,0%,0%)" x1="41.3516" x2="43.0" y1="38.7073" y2="37.5096" /><line stroke="rgb(0%,0%,0%)" x1="43.0" x2="44.0033" y1="37.5096" y2="37.0629" /><line stroke="rgb(0%,0%,0%)" x1="44.0033" x2="45.8647" y1="37.0629" y2="36.2342" /><line stroke="rgb(0%,0%,0%)" x1="45.8647" x2="46.939" y1="36.2342" y2="36.0058" /><line stroke="rgb(0%,0%,0%)" x1="46.939" x2="48.9321" y1="36.0058" y2="35.5822" /><line stroke="rgb(0%,0%,0%)" x1="48.9321" x2="50.0303" y1="35.5822" y2="35.5822" /><line stroke="rgb(0%,0%,0%)" x1="50.0303" x2="52.0679" y1="35.5822" y2="35.5822" /><line stroke="rgb(0%,0%,0%)" x1="52.0679" x2="53.1422" y1="35.5822" y2="35.8105" /><line stroke="rgb(0%,0%,0%)" x1="53.1422" x2="55.1353" y1="35.8105" y2="36.2342" /><line stroke="rgb(0%,0%,0%)" x1="55.1353" x2="56.1386" y1="36.2342" y2="36.6809" /><line stroke="rgb(0%,0%,0%)" x1="56.1386" x2="58.0" y1="36.6809" y2="37.5096" /><line stroke="rgb(0%,0%,0%)" x1="58.0" x2="58.8885" y1="37.5096" y2="38.1552" /><line stroke="rgb(0%,0%,0%)" x1="58.8885" x2="60.537" y1="38.1552" y2="39.3528" /><line stroke="rgb(0%,0%,0%)" x1="60.537" x2="61.2718" y1="39.3528" y2="40.169" /><line stroke="rgb(0%,0%,0%)" x1="61.2718" x2="62.6352" y1="40.169" y2="41.6832" /><line stroke="rgb(0%,0%,0%)" x1="62.6352" x2="63.1844" y1="41.6832" y2="42.6343" /><line stroke="rgb(0%,0%,0%)" x1="63.1844" x2="64.2032" y1="42.6343" y2="44.3989" /><line stroke="rgb(0%,0%,0%)" x1="64.2032" x2="64.5426" y1="44.3989" y2="45.4435" /><line stroke="rgb(0%,0%,0%)" x1="64.5426" x2="65.1722" y1="45.4435" y2="47.3813" /></svg>