<?xml version="1.0" encoding="utf-8" ?>
<svg baseProfile="tiny" height="100%" version="1.2" width="100%" xmlns="http://www.w3.org/2000/svg" xmlns:ev="http://www.w3.org/2001/xml-events" xmlns:xlink="http://www.w3.org/1999/xlink"><defs /><line stroke="rgb(0%,0%,0%)" x1="290.439" x2="290.439" y1="100.5" y2="23.9451" /><line stroke="rgb(0%,0%,0%)" x1="290.439" x2="290.439" y1="23.9451" y2="0.5" /><line stroke="rgb(0%,0%,0%)" x1="336.9" x2="336.9" y1="23.2932" y2="0.5" /><line stroke="rgb(0%,0%,0%)" x1="336.9" x2="336.9" y1="64.7476" y2="36.2524" /><line stroke="rgb(0%,0%,0%)" x1="336.9" x2="336.9" y1="36.2524" y2="33.8946" /><line stroke="rgb(0%,0%,0%)" x1="336.9" x2="336.9" y1="33.8946" y2="31.4216" /><line stroke="rgb(0%,0%,0%)" x1="336.9" x2="336.9" y1="100.5" y2="77.7068" /><line stroke="rgb(0%,0%,0%)" x1="336.9" x2="336.9" y1="77.7068" y2="76.1672" /><line stroke="rgb(0%,0%,0%)" x1="336.9" x2="336.9" y1="76.1672" y2="74.2401" /><line stroke="rgb(0%,0%,0%)" x1="336.9" x2="336.9" y1="31.4216" y2="28.9948" /><line stroke="rgb(0%,0%,0%)" x1="336.9" x2="336.9" y1="28.9948" y2="26.7599" /><line stroke="rgb(0%,0%,0%)" x1="336.9" x2="336.9" y1="26.7599" y2="24.8328" /><line stroke="rgb(0%,0%,0%)" x1="336.9" x2="336.9" y1="24.8328" y2="23.2932" /><line stroke="rgb(0%,0%,0%)" x1="336.9" x2="336.9" y1="74.2401" y2="72.0052" /><line stroke="rgb(0%,0%,0%)" x1="336.9" x2="336.9" y1="72.0052" y2="69.5784" /><line stroke="rgb(0%,0%,0%)" x1="336.9" x2="336.9" y1="69.5784" y2="67.1054" /><line stroke="rgb(0%,0%,0%)" x1="336.9" x2="336.9" y1="67.1054" y2="64.7476" /><line stroke="rgb(0%,0%,0%)" x1="298.2926" x2="290.439" y1="100.5" y2="100.5" /><line stroke="rgb(0%,0%,0%)" x1="298.2926" x2="298.6125" y1="100.5" y2="100.5" /><line stroke="rgb(0%,0%,0%)" x1="298.6125" x2="308.3517" y1="100.5" y2="100.5" /><line stroke="rgb(0%,0%,0%)" x1="308.3517" x2="309.0117" y1="100.5" y2="100.5" /><line stroke="rgb(0%,0%,0%)" x1="309.0117" x2="309.7088" y1="100.5" y2="100.5" /><line stroke="rgb(0%,0%,0%)" x1="309.7088" x2="336.9" y1="100.5" y2="100.5" /><line stroke="rgb(0%,0%,0%)" x1="290.439" x2="298.2926" y1="0.5" y2="0.5" /><line stroke="rgb(0%,0%,0%)" x1="298.2926" x2="298.6125" y1="0.5" y2="0.5" /><line stroke="rgb(0%,0%,0%)" x1="298.6125" x2="308.3517" y1="0.5" y2="0.5" /><line stroke="rgb(0%,0%,0%)" x1="308.3517" x2="309.0117" y1="0.5" y2="0.5" /><line stroke="rgb(0%,0%,0%)" x1="309.0117" x2="309.7088" y1="0.5" y2="0.5" /><line stroke="rgb(0%,0%,0%)" x1="336.9" x2="309.7088" y1="0.5" y2="0.5" /></svg>