<?xml version="1.0" encoding="utf-8" ?>
<svg baseProfile="tiny" height="100%" version="1.2" width="100%" xmlns="http://www.w3.org/2000/svg" xmlns:ev="http://www.w3.org/2001/xml-events" xmlns:xlink="http://www.w3.org/1999/xlink"><defs /><line stroke="rgb(0%,0%,0%)" x1="292.7739" x2="292.7739" y1="100.5" y2="49.3615" /><line stroke="rgb(0%,0%,0%)" x1="292.7739" x2="292.7739" y1="49.3615" y2="0.5" /><line stroke="rgb(0%,0%,0%)" x1="336.9" x2="336.9" y1="23.6654" y2="0.5" /><line stroke="rgb(0%,0%,0%)" x1="336.9" x2="336.9" y1="64.1638" y2="36.8362" /><line stroke="rgb(0%,0%,0%)" x1="336.9" x2="336.9" y1="36.8362" y2="34.4399" /><line stroke="rgb(0%,0%,0%)" x1="336.9" x2="336.9" y1="34.4399" y2="31.9265" /><line stroke="rgb(0%,0%,0%)" x1="336.9" x2="336.9" y1="100.5" y2="77.3346" /><line stroke="rgb(0%,0%,0%)" x1="336.9" x2="336.9" y1="77.3346" y2="75.7699" /><line stroke="rgb(0%,0%,0%)" x1="336.9" x2="336.9" y1="75.7699" y2="73.8113" /><line stroke="rgb(0%,0%,0%)" x1="336.9" x2="336.9" y1="31.9265" y2="29.4601" /><line stroke="rgb(0%,0%,0%)" x1="336.9" x2="336.9" y1="29.4601" y2="27.1887" /><line stroke="rgb(0%,0%,0%)" x1="336.9" x2="336.9" y1="27.1887" y2="25.2301" /><line stroke="rgb(0%,0%,0%)" x1="336.9" x2="336.9" y1="25.2301" y2="23.6654" /><line stroke="rgb(0%,0%,0%)" x1="336.9" x2="336.9" y1="73.8113" y2="71.5399" /><line stroke="rgb(0%,0%,0%)" x1="336.9" x2="336.9" y1="71.5399" y2="69.0735" /><line stroke="rgb(0%,0%,0%)" x1="336.9" x2="336.9" y1="69.0735" y2="66.5601" /><line stroke="rgb(0%,0%,0%)" x1="336.9" x2="336.9" y1="66.5601" y2="64.1638" /><line stroke="rgb(0%,0%,0%)" x1="298.0201" x2="292.7739" y1="100.5" y2="100.5" /><line stroke="rgb(0%,0%,0%)" x1="298.0201" x2="298.2338" y1="100.5" y2="100.5" /><line stroke="rgb(0%,0%,0%)" x1="298.2338" x2="308.1222" y1="100.5" y2="100.5" /><line stroke="rgb(0%,0%,0%)" x1="308.1222" x2="308.6779" y1="100.5" y2="100.5" /><line stroke="rgb(0%,0%,0%)" x1="308.6779" x2="309.2648" y1="100.5" y2="100.5" /><line stroke="rgb(0%,0%,0%)" x1="309.2648" x2="336.9" y1="100.5" y2="100.5" /><line stroke="rgb(0%,0%,0%)" x1="292.7739" x2="298.0201" y1="0.5" y2="0.5" /><line stroke="rgb(0%,0%,0%)" x1="298.0201" x2="298.2338" y1="0.5" y2="0.5" /><line stroke="rgb(0%,0%,0%)" x1="298.2338" x2="308.1222" y1="0.5" y2="0.5" /><line stroke="rgb(0%,0%,0%)" x1="308.1222" x2="308.6779" y1="0.5" y2="0.5" /><line stroke="rgb(0%,0%,0%)" x1="308.6779" x2="309.2648" y1="0.5" y2="0.5" /><line stroke="rgb(0%,0%,0%)" x1="336.9" x2="309.2648" y1="0.5" y2="0.5" /></svg>