<?xml version="1.0" encoding="utf-8" ?>
<svg baseProfile="tiny" height="100%" version="1.2" width="100%" xmlns="http://www.w3.org/2000/svg" xmlns:ev="http://www.w3.org/2001/xml-events" xmlns:xlink="http://www.w3.org/1999/xlink"><defs /><line stroke="rgb(0%,0%,0%)" x1="295.1088" x2="295.1088" y1="100.5" y2="74.7778" /><line stroke="rgb(0%,0%,0%)" x1="295.1088" x2="295.1088" y1="74.7778" y2="0.5" /><line stroke="rgb(0%,0%,0%)" x1="336.9" x2="336.9" y1="24.0376" y2="0.5" /><line stroke="rgb(0%,0%,0%)" x1="336.9" x2="336.9" y1="63.58" y2="37.42" /><line stroke="rgb(0%,0%,0%)" x1="336.9" x2="336.9" y1="37.42" y2="34.9852" /><line stroke="rgb(0%,0%,0%)" x1="336.9" x2="336.9" y1="34.9852" y2="32.4315" /><line stroke="rgb(0%,0%,0%)" x1="336.9" x2="336.9" y1="100.5" y2="76.9624" /><line stroke="rgb(0%,0%,0%)" x1="336.9" x2="336.9" y1="76.9624" y2="75.3726" /><line stroke="rgb(0%,0%,0%)" x1="336.9" x2="336.9" y1="75.3726" y2="73.3825" /><line stroke="rgb(0%,0%,0%)" x1="336.9" x2="336.9" y1="32.4315" y2="29.9254" /><line stroke="rgb(0%,0%,0%)" x1="336.9" x2="336.9" y1="29.9254" y2="27.6175" /><line stroke="rgb(0%,0%,0%)" x1="336.9" x2="336.9" y1="27.6175" y2="25.6274" /><line stroke="rgb(0%,0%,0%)" x1="336.9" x2="336.9" y1="25.6274" y2="24.0376" /><line stroke="rgb(0%,0%,0%)" x1="336.9" x2="336.9" y1="73.3825" y2="71.0746" /><line stroke="rgb(0%,0%,0%)" x1="336.9" x2="336.9" y1="71.0746" y2="68.5685" /><line stroke="rgb(0%,0%,0%)" x1="336.9" x2="336.9" y1="68.5685" y2="66.0148" /><line stroke="rgb(0%,0%,0%)" x1="336.9" x2="336.9" y1="66.0148" y2="63.58" /><line stroke="rgb(0%,0%,0%)" x1="297.7476" x2="295.1088" y1="100.5" y2="100.5" /><line stroke="rgb(0%,0%,0%)" x1="297.7476" x2="297.855" y1="100.5" y2="100.5" /><line stroke="rgb(0%,0%,0%)" x1="297.855" x2="307.8927" y1="100.5" y2="100.5" /><line stroke="rgb(0%,0%,0%)" x1="307.8927" x2="308.3441" y1="100.5" y2="100.5" /><line stroke="rgb(0%,0%,0%)" x1="308.3441" x2="308.8208" y1="100.5" y2="100.5" /><line stroke="rgb(0%,0%,0%)" x1="308.8208" x2="336.9" y1="100.5" y2="100.5" /><line stroke="rgb(0%,0%,0%)" x1="295.1088" x2="297.7476" y1="0.5" y2="0.5" /><line stroke="rgb(0%,0%,0%)" x1="297.7476" x2="297.855" y1="0.5" y2="0.5" /><line stroke="rgb(0%,0%,0%)" x1="297.855" x2="307.8927" y1="0.5" y2="0.5" /><line stroke="rgb(0%,0%,0%)" x1="307.8927" x2="308.3441" y1="0.5" y2="0.5" /><line stroke="rgb(0%,0%,0%)" x1="308.3441" x2="308.8208" y1="0.5" y2="0.5" /><line stroke="rgb(0%,0%,0%)" x1="336.9" x2="308.8208" y1="0.5" y2="0.5" /></svg>