<?xml version="1.0" encoding="utf-8" ?>
<svg baseProfile="tiny" height="100%" version="1.2" width="100%" xmlns="http://www.w3.org/2000/svg" xmlns:ev="http://www.w3.org/2001/xml-events" xmlns:xlink="http://www.w3.org/1999/xlink"><defs /><line stroke="rgb(0%,0%,0%)" x1="297.4437" x2="297.4437" y1="100.5" y2="100.1941" /><line stroke="rgb(0%,0%,0%)" x1="297.4437" x2="297.4437" y1="100.1941" y2="0.5" /><line stroke="rgb(0%,0%,0%)" x1="336.9" x2="336.9" y1="24.4098" y2="0.5" /><line stroke="rgb(0%,0%,0%)" x1="336.9" x2="336.9" y1="62.9962" y2="38.0038" /><line stroke="rgb(0%,0%,0%)" x1="336.9" x2="336.9" y1="38.0038" y2="35.5305" /><line stroke="rgb(0%,0%,0%)" x1="336.9" x2="336.9" y1="35.5305" y2="32.9364" /><line stroke="rgb(0%,0%,0%)" x1="336.9" x2="336.9" y1="100.5" y2="76.5902" /><line stroke="rgb(0%,0%,0%)" x1="336.9" x2="336.9" y1="76.5902" y2="74.9752" /><line stroke="rgb(0%,0%,0%)" x1="336.9" x2="336.9" y1="74.9752" y2="72.9537" /><line stroke="rgb(0%,0%,0%)" x1="336.9" x2="336.9" y1="32.9364" y2="30.3907" /><line stroke="rgb(0%,0%,0%)" x1="336.9" x2="336.9" y1="30.3907" y2="28.0463" /><line stroke="rgb(0%,0%,0%)" x1="336.9" x2="336.9" y1="28.0463" y2="26.0248" /><line stroke="rgb(0%,0%,0%)" x1="336.9" x2="336.9" y1="26.0248" y2="24.4098" /><line stroke="rgb(0%,0%,0%)" x1="336.9" x2="336.9" y1="72.9537" y2="70.6093" /><line stroke="rgb(0%,0%,0%)" x1="336.9" x2="336.9" y1="70.6093" y2="68.0636" /><line stroke="rgb(0%,0%,0%)" x1="336.9" x2="336.9" y1="68.0636" y2="65.4695" /><line stroke="rgb(0%,0%,0%)" x1="336.9" x2="336.9" y1="65.4695" y2="62.9962" /><line stroke="rgb(0%,0%,0%)" x1="297.4751" x2="297.4437" y1="100.5" y2="100.5" /><line stroke="rgb(0%,0%,0%)" x1="297.4751" x2="297.4763" y1="100.5" y2="100.5" /><line stroke="rgb(0%,0%,0%)" x1="297.4763" x2="307.6633" y1="100.5" y2="100.5" /><line stroke="rgb(0%,0%,0%)" x1="307.6633" x2="308.0103" y1="100.5" y2="100.5" /><line stroke="rgb(0%,0%,0%)" x1="308.0103" x2="308.3768" y1="100.5" y2="100.5" /><line stroke="rgb(0%,0%,0%)" x1="308.3768" x2="336.9" y1="100.5" y2="100.5" /><line stroke="rgb(0%,0%,0%)" x1="297.4437" x2="297.4751" y1="0.5" y2="0.5" /><line stroke="rgb(0%,0%,0%)" x1="297.4751" x2="297.4763" y1="0.5" y2="0.5" /><line stroke="rgb(0%,0%,0%)" x1="297.4763" x2="307.6633" y1="0.5" y2="0.5" /><line stroke="rgb(0%,0%,0%)" x1="307.6633" x2="308.0103" y1="0.5" y2="0.5" /><line stroke="rgb(0%,0%,0%)" x1="308.0103" x2="308.3768" y1="0.5" y2="0.5" /><line stroke="rgb(0%,0%,0%)" x1="336.9" x2="308.3768" y1="0.5" y2="0.5" /></svg>