<?xml version="1.0" encoding="utf-8" ?>
<svg baseProfile="tiny" height="100%" version="1.2" width="100%" xmlns="http://www.w3.org/2000/svg" xmlns:ev="http://www.w3.org/2001/xml-events" xmlns:xlink="http://www.w3.org/1999/xlink"><defs /><line stroke="rgb(0%,0%,0%)" x1="300.2825" x2="300.2825" y1="100.5" y2="30.3116" /><line stroke="rgb(0%,0%,0%)" x1="300.2825" x2="300.2825" y1="30.3116" y2="0.5" /><line stroke="rgb(0%,0%,0%)" x1="336.9" x2="336.9" y1="24.7819" y2="0.5" /><line stroke="rgb(0%,0%,0%)" x1="336.9" x2="336.9" y1="62.4124" y2="38.5876" /><line stroke="rgb(0%,0%,0%)" x1="336.9" x2="336.9" y1="38.5876" y2="36.0758" /><line stroke="rgb(0%,0%,0%)" x1="336.9" x2="336.9" y1="36.0758" y2="33.4413" /><line stroke="rgb(0%,0%,0%)" x1="336.9" x2="336.9" y1="100.5" y2="76.2181" /><line stroke="rgb(0%,0%,0%)" x1="336.9" x2="336.9" y1="76.2181" y2="74.5779" /><line stroke="rgb(0%,0%,0%)" x1="336.9" x2="336.9" y1="74.5779" y2="72.5249" /><line stroke="rgb(0%,0%,0%)" x1="336.9" x2="336.9" y1="33.4413" y2="30.856" /><line stroke="rgb(0%,0%,0%)" x1="336.9" x2="336.9" y1="30.856" y2="28.4751" /><line stroke="rgb(0%,0%,0%)" x1="336.9" x2="336.9" y1="28.4751" y2="26.4221" /><line stroke="rgb(0%,0%,0%)" x1="336.9" x2="336.9" y1="26.4221" y2="24.7819" /><line stroke="rgb(0%,0%,0%)" x1="336.9" x2="336.9" y1="72.5249" y2="70.144" /><line stroke="rgb(0%,0%,0%)" x1="336.9" x2="336.9" y1="70.144" y2="67.5587" /><line stroke="rgb(0%,0%,0%)" x1="336.9" x2="336.9" y1="67.5587" y2="64.9242" /><line stroke="rgb(0%,0%,0%)" x1="336.9" x2="336.9" y1="64.9242" y2="62.4124" /><line stroke="rgb(0%,0%,0%)" x1="307.4338" x2="300.2825" y1="100.5" y2="100.5" /><line stroke="rgb(0%,0%,0%)" x1="307.4338" x2="307.6765" y1="100.5" y2="100.5" /><line stroke="rgb(0%,0%,0%)" x1="307.6765" x2="307.9328" y1="100.5" y2="100.5" /><line stroke="rgb(0%,0%,0%)" x1="307.9328" x2="336.9" y1="100.5" y2="100.5" /><line stroke="rgb(0%,0%,0%)" x1="300.2825" x2="307.4338" y1="0.5" y2="0.5" /><line stroke="rgb(0%,0%,0%)" x1="307.4338" x2="307.6765" y1="0.5" y2="0.5" /><line stroke="rgb(0%,0%,0%)" x1="307.6765" x2="307.9328" y1="0.5" y2="0.5" /><line stroke="rgb(0%,0%,0%)" x1="336.9" x2="307.9328" y1="0.5" y2="0.5" /></svg>