<?xml version="1.0" encoding="utf-8" ?>
<svg baseProfile="tiny" height="100%" version="1.2" width="100%" xmlns="http://www.w3.org/2000/svg" xmlns:ev="http://www.w3.org/2001/xml-events" xmlns:xlink="http://www.w3.org/1999/xlink"><defs /><line stroke="rgb(0%,0%,0%)" x1="303.1274" x2="303.1274" y1="100.5" y2="60.4864" /><line stroke="rgb(0%,0%,0%)" x1="303.1274" x2="303.1274" y1="60.4864" y2="0.5" /><line stroke="rgb(0%,0%,0%)" x1="336.9" x2="336.9" y1="25.1541" y2="0.5" /><line stroke="rgb(0%,0%,0%)" x1="336.9" x2="336.9" y1="61.8286" y2="39.1714" /><line stroke="rgb(0%,0%,0%)" x1="336.9" x2="336.9" y1="39.1714" y2="36.6211" /><line stroke="rgb(0%,0%,0%)" x1="336.9" x2="336.9" y1="36.6211" y2="33.9462" /><line stroke="rgb(0%,0%,0%)" x1="336.9" x2="336.9" y1="100.5" y2="75.8459" /><line stroke="rgb(0%,0%,0%)" x1="336.9" x2="336.9" y1="75.8459" y2="74.1805" /><line stroke="rgb(0%,0%,0%)" x1="336.9" x2="336.9" y1="74.1805" y2="72.0961" /><line stroke="rgb(0%,0%,0%)" x1="336.9" x2="336.9" y1="33.9462" y2="31.3213" /><line stroke="rgb(0%,0%,0%)" x1="336.9" x2="336.9" y1="31.3213" y2="28.9039" /><line stroke="rgb(0%,0%,0%)" x1="336.9" x2="336.9" y1="28.9039" y2="26.8195" /><line stroke="rgb(0%,0%,0%)" x1="336.9" x2="336.9" y1="26.8195" y2="25.1541" /><line stroke="rgb(0%,0%,0%)" x1="336.9" x2="336.9" y1="72.0961" y2="69.6787" /><line stroke="rgb(0%,0%,0%)" x1="336.9" x2="336.9" y1="69.6787" y2="67.0538" /><line stroke="rgb(0%,0%,0%)" x1="336.9" x2="336.9" y1="67.0538" y2="64.3789" /><line stroke="rgb(0%,0%,0%)" x1="336.9" x2="336.9" y1="64.3789" y2="61.8286" /><line stroke="rgb(0%,0%,0%)" x1="307.2043" x2="303.1274" y1="100.5" y2="100.5" /><line stroke="rgb(0%,0%,0%)" x1="307.2043" x2="307.3427" y1="100.5" y2="100.5" /><line stroke="rgb(0%,0%,0%)" x1="307.3427" x2="307.4888" y1="100.5" y2="100.5" /><line stroke="rgb(0%,0%,0%)" x1="307.4888" x2="336.9" y1="100.5" y2="100.5" /><line stroke="rgb(0%,0%,0%)" x1="303.1274" x2="307.2043" y1="0.5" y2="0.5" /><line stroke="rgb(0%,0%,0%)" x1="307.2043" x2="307.3427" y1="0.5" y2="0.5" /><line stroke="rgb(0%,0%,0%)" x1="307.3427" x2="307.4888" y1="0.5" y2="0.5" /><line stroke="rgb(0%,0%,0%)" x1="336.9" x2="307.4888" y1="0.5" y2="0.5" /></svg>