<?xml version="1.0" encoding="utf-8" ?>
<svg baseProfile="tiny" height="100%" version="1.2" width="100%" xmlns="http://www.w3.org/2000/svg" xmlns:ev="http://www.w3.org/2001/xml-events" xmlns:xlink="http://www.w3.org/1999/xlink"><defs /><line stroke="rgb(0%,0%,0%)" x1="305.9724" x2="305.9724" y1="100.5" y2="90.6611" /><line stroke="rgb(0%,0%,0%)" x1="305.9724" x2="305.9724" y1="90.6611" y2="0.5" /><line stroke="rgb(0%,0%,0%)" x1="336.9" x2="336.9" y1="25.5263" y2="0.5" /><line stroke="rgb(0%,0%,0%)" x1="336.9" x2="336.9" y1="61.2448" y2="39.7552" /><line stroke="rgb(0%,0%,0%)" x1="336.9" x2="336.9" y1="39.7552" y2="37.1664" /><line stroke="rgb(0%,0%,0%)" x1="336.9" x2="336.9" y1="37.1664" y2="34.4512" /><line stroke="rgb(0%,0%,0%)" x1="336.9" x2="336.9" y1="100.5" y2="75.4737" /><line stroke="rgb(0%,0%,0%)" x1="336.9" x2="336.9" y1="75.4737" y2="73.7832" /><line stroke="rgb(0%,0%,0%)" x1="336.9" x2="336.9" y1="73.7832" y2="71.6673" /><line stroke="rgb(0%,0%,0%)" x1="336.9" x2="336.9" y1="34.4512" y2="31.7866" /><line stroke="rgb(0%,0%,0%)" x1="336.9" x2="336.9" y1="31.7866" y2="29.3327" /><line stroke="rgb(0%,0%,0%)" x1="336.9" x2="336.9" y1="29.3327" y2="27.2168" /><line stroke="rgb(0%,0%,0%)" x1="336.9" x2="336.9" y1="27.2168" y2="25.5263" /><line stroke="rgb(0%,0%,0%)" x1="336.9" x2="336.9" y1="71.6673" y2="69.2134" /><line stroke="rgb(0%,0%,0%)" x1="336.9" x2="336.9" y1="69.2134" y2="66.5488" /><line stroke="rgb(0%,0%,0%)" x1="336.9" x2="336.9" y1="66.5488" y2="63.8336" /><line stroke="rgb(0%,0%,0%)" x1="336.9" x2="336.9" y1="63.8336" y2="61.2448" /><line stroke="rgb(0%,0%,0%)" x1="306.9748" x2="305.9724" y1="100.5" y2="100.5" /><line stroke="rgb(0%,0%,0%)" x1="306.9748" x2="307.0088" y1="100.5" y2="100.5" /><line stroke="rgb(0%,0%,0%)" x1="307.0088" x2="307.0448" y1="100.5" y2="100.5" /><line stroke="rgb(0%,0%,0%)" x1="307.0448" x2="336.9" y1="100.5" y2="100.5" /><line stroke="rgb(0%,0%,0%)" x1="305.9724" x2="306.9748" y1="0.5" y2="0.5" /><line stroke="rgb(0%,0%,0%)" x1="306.9748" x2="307.0088" y1="0.5" y2="0.5" /><line stroke="rgb(0%,0%,0%)" x1="307.0088" x2="307.0448" y1="0.5" y2="0.5" /><line stroke="rgb(0%,0%,0%)" x1="336.9" x2="307.0448" y1="0.5" y2="0.5" /></svg>