<?xml version="1.0" encoding="utf-8" ?>
<svg baseProfile="tiny" height="100%" version="1.2" width="100%" xmlns="http://www.w3.org/2000/svg" xmlns:ev="http://www.w3.org/2001/xml-events" xmlns:xlink="http://www.w3.org/1999/xlink"><defs /><line stroke="rgb(0%,0%,0%)" x1="306.9" x2="306.9" y1="0.5" y2="1.2503" /><line stroke="rgb(0%,0%,0%)" x1="306.9" x2="306.9" y1="1.2503" y2="1.3467" /><line stroke="rgb(0%,0%,0%)" x1="306.9" x2="306.9" y1="1.3467" y2="1.4751" /><line stroke="rgb(0%,0%,0%)" x1="306.9" x2="306.9" y1="99.8176" y2="100.5" /><line stroke="rgb(0%,0%,0%)" x1="306.9" x2="306.9" y1="2.3639" y2="98.6361" /><line stroke="rgb(0%,0%,0%)" x1="306.9" x2="306.9" y1="98.6361" y2="98.7835" /><line stroke="rgb(0%,0%,0%)" x1="306.9" x2="306.9" y1="98.7835" y2="98.9731" /><line stroke="rgb(0%,0%,0%)" x1="306.9" x2="306.9" y1="1.4751" y2="1.6364" /><line stroke="rgb(0%,0%,0%)" x1="306.9" x2="306.9" y1="1.6364" y2="1.8252" /><line stroke="rgb(0%,0%,0%)" x1="306.9" x2="306.9" y1="1.8252" y2="2.0269" /><line stroke="rgb(0%,0%,0%)" x1="306.9" x2="306.9" y1="2.0269" y2="2.2165" /><line stroke="rgb(0%,0%,0%)" x1="306.9" x2="306.9" y1="2.2165" y2="2.3639" /><line stroke="rgb(0%,0%,0%)" x1="306.9" x2="306.9" y1="98.9731" y2="99.1748" /><line stroke="rgb(0%,0%,0%)" x1="306.9" x2="306.9" y1="99.1748" y2="99.3636" /><line stroke="rgb(0%,0%,0%)" x1="306.9" x2="306.9" y1="99.3636" y2="99.5249" /><line stroke="rgb(0%,0%,0%)" x1="306.9" x2="306.9" y1="99.5249" y2="99.6533" /><line stroke="rgb(0%,0%,0%)" x1="306.9" x2="306.9" y1="99.6533" y2="99.7497" /><line stroke="rgb(0%,0%,0%)" x1="306.9" x2="306.9" y1="99.7497" y2="99.8176" /><line stroke="rgb(0%,0%,0%)" x1="336.9" x2="336.9" y1="25.8985" y2="0.5" /><line stroke="rgb(0%,0%,0%)" x1="336.9" x2="336.9" y1="60.661" y2="40.339" /><line stroke="rgb(0%,0%,0%)" x1="336.9" x2="336.9" y1="40.339" y2="37.7117" /><line stroke="rgb(0%,0%,0%)" x1="336.9" x2="336.9" y1="37.7117" y2="34.9561" /><line stroke="rgb(0%,0%,0%)" x1="336.9" x2="336.9" y1="100.5" y2="75.1015" /><line stroke="rgb(0%,0%,0%)" x1="336.9" x2="336.9" y1="75.1015" y2="73.3859" /><line stroke="rgb(0%,0%,0%)" x1="336.9" x2="336.9" y1="73.3859" y2="71.2385" /><line stroke="rgb(0%,0%,0%)" x1="336.9" x2="336.9" y1="34.9561" y2="32.2519" /><line stroke="rgb(0%,0%,0%)" x1="336.9" x2="336.9" y1="32.2519" y2="29.7615" /><line stroke="rgb(0%,0%,0%)" x1="336.9" x2="336.9" y1="29.7615" y2="27.6141" /><line stroke="rgb(0%,0%,0%)" x1="336.9" x2="336.9" y1="27.6141" y2="25.8985" /><line stroke="rgb(0%,0%,0%)" x1="336.9" x2="336.9" y1="71.2385" y2="68.7481" /><line stroke="rgb(0%,0%,0%)" x1="336.9" x2="336.9" y1="68.7481" y2="66.0439" /><line stroke="rgb(0%,0%,0%)" x1="336.9" x2="336.9" y1="66.0439" y2="63.2883" /><line stroke="rgb(0%,0%,0%)" x1="336.9" x2="336.9" y1="63.2883" y2="60.661" /><line stroke="rgb(0%,0%,0%)" x1="336.9" x2="307.2056" y1="100.5" y2="100.5" /><line stroke="rgb(0%,0%,0%)" x1="307.2056" x2="306.9" y1="100.5" y2="100.5" /><line stroke="rgb(0%,0%,0%)" x1="336.9" x2="307.2056" y1="0.5" y2="0.5" /><line stroke="rgb(0%,0%,0%)" x1="307.2056" x2="306.9" y1="0.5" y2="0.5" /></svg>