<?xml version="1.0" encoding="utf-8" ?>
<svg baseProfile="tiny" height="100%" version="1.2" width="100%" xmlns="http://www.w3.org/2000/svg" xmlns:ev="http://www.w3.org/2001/xml-events" xmlns:xlink="http://www.w3.org/1999/xlink"><defs /><line stroke="rgb(0%,0%,0%)" x1="306.9" x2="306.9" y1="0.5" y2="2.3637" /><line stroke="rgb(0%,0%,0%)" x1="306.9" x2="306.9" y1="2.3637" y2="2.603" /><line stroke="rgb(0%,0%,0%)" x1="306.9" x2="306.9" y1="2.603" y2="2.922" /><line stroke="rgb(0%,0%,0%)" x1="306.9" x2="306.9" y1="98.805" y2="100.5" /><line stroke="rgb(0%,0%,0%)" x1="306.9" x2="306.9" y1="5.1296" y2="95.8704" /><line stroke="rgb(0%,0%,0%)" x1="306.9" x2="306.9" y1="95.8704" y2="96.2365" /><line stroke="rgb(0%,0%,0%)" x1="306.9" x2="306.9" y1="96.2365" y2="96.7074" /><line stroke="rgb(0%,0%,0%)" x1="306.9" x2="306.9" y1="2.922" y2="3.3226" /><line stroke="rgb(0%,0%,0%)" x1="306.9" x2="306.9" y1="3.3226" y2="3.7916" /><line stroke="rgb(0%,0%,0%)" x1="306.9" x2="306.9" y1="3.7916" y2="4.2926" /><line stroke="rgb(0%,0%,0%)" x1="306.9" x2="306.9" y1="4.2926" y2="4.7635" /><line stroke="rgb(0%,0%,0%)" x1="306.9" x2="306.9" y1="4.7635" y2="5.1296" /><line stroke="rgb(0%,0%,0%)" x1="306.9" x2="306.9" y1="96.7074" y2="97.2084" /><line stroke="rgb(0%,0%,0%)" x1="306.9" x2="306.9" y1="97.2084" y2="97.6774" /><line stroke="rgb(0%,0%,0%)" x1="306.9" x2="306.9" y1="97.6774" y2="98.078" /><line stroke="rgb(0%,0%,0%)" x1="306.9" x2="306.9" y1="98.078" y2="98.397" /><line stroke="rgb(0%,0%,0%)" x1="306.9" x2="306.9" y1="98.397" y2="98.6363" /><line stroke="rgb(0%,0%,0%)" x1="306.9" x2="306.9" y1="98.6363" y2="98.805" /><line stroke="rgb(0%,0%,0%)" x1="336.9" x2="336.9" y1="26.2707" y2="0.5" /><line stroke="rgb(0%,0%,0%)" x1="336.9" x2="336.9" y1="60.0772" y2="40.9228" /><line stroke="rgb(0%,0%,0%)" x1="336.9" x2="336.9" y1="40.9228" y2="38.257" /><line stroke="rgb(0%,0%,0%)" x1="336.9" x2="336.9" y1="38.257" y2="35.461" /><line stroke="rgb(0%,0%,0%)" x1="336.9" x2="336.9" y1="100.5" y2="74.7293" /><line stroke="rgb(0%,0%,0%)" x1="336.9" x2="336.9" y1="74.7293" y2="72.9885" /><line stroke="rgb(0%,0%,0%)" x1="336.9" x2="336.9" y1="72.9885" y2="70.8097" /><line stroke="rgb(0%,0%,0%)" x1="336.9" x2="336.9" y1="35.461" y2="32.7172" /><line stroke="rgb(0%,0%,0%)" x1="336.9" x2="336.9" y1="32.7172" y2="30.1903" /><line stroke="rgb(0%,0%,0%)" x1="336.9" x2="336.9" y1="30.1903" y2="28.0115" /><line stroke="rgb(0%,0%,0%)" x1="336.9" x2="336.9" y1="28.0115" y2="26.2707" /><line stroke="rgb(0%,0%,0%)" x1="336.9" x2="336.9" y1="70.8097" y2="68.2828" /><line stroke="rgb(0%,0%,0%)" x1="336.9" x2="336.9" y1="68.2828" y2="65.539" /><line stroke="rgb(0%,0%,0%)" x1="336.9" x2="336.9" y1="65.539" y2="62.743" /><line stroke="rgb(0%,0%,0%)" x1="336.9" x2="336.9" y1="62.743" y2="60.0772" /><line stroke="rgb(0%,0%,0%)" x1="336.9" x2="307.6591" y1="100.5" y2="100.5" /><line stroke="rgb(0%,0%,0%)" x1="307.6591" x2="306.9" y1="100.5" y2="100.5" /><line stroke="rgb(0%,0%,0%)" x1="336.9" x2="307.6591" y1="0.5" y2="0.5" /><line stroke="rgb(0%,0%,0%)" x1="307.6591" x2="306.9" y1="0.5" y2="0.5" /></svg>