<?xml version="1.0" encoding="utf-8" ?>
<svg baseProfile="tiny" height="100%" version="1.2" width="100%" xmlns="http://www.w3.org/2000/svg" xmlns:ev="http://www.w3.org/2001/xml-events" xmlns:xlink="http://www.w3.org/1999/xlink"><defs /><line stroke="rgb(0%,0%,0%)" x1="306.9" x2="306.9" y1="0.5" y2="3.477" /><line stroke="rgb(0%,0%,0%)" x1="306.9" x2="306.9" y1="3.477" y2="3.8593" /><line stroke="rgb(0%,0%,0%)" x1="306.9" x2="306.9" y1="3.8593" y2="4.3689" /><line stroke="rgb(0%,0%,0%)" x1="306.9" x2="306.9" y1="97.7924" y2="100.5" /><line stroke="rgb(0%,0%,0%)" x1="306.9" x2="306.9" y1="7.8953" y2="93.1047" /><line stroke="rgb(0%,0%,0%)" x1="306.9" x2="306.9" y1="93.1047" y2="93.6895" /><line stroke="rgb(0%,0%,0%)" x1="306.9" x2="306.9" y1="93.6895" y2="94.4417" /><line stroke="rgb(0%,0%,0%)" x1="306.9" x2="306.9" y1="4.3689" y2="5.0088" /><line stroke="rgb(0%,0%,0%)" x1="306.9" x2="306.9" y1="5.0088" y2="5.7581" /><line stroke="rgb(0%,0%,0%)" x1="306.9" x2="306.9" y1="5.7581" y2="6.5583" /><line stroke="rgb(0%,0%,0%)" x1="306.9" x2="306.9" y1="6.5583" y2="7.3105" /><line stroke="rgb(0%,0%,0%)" x1="306.9" x2="306.9" y1="7.3105" y2="7.8953" /><line stroke="rgb(0%,0%,0%)" x1="306.9" x2="306.9" y1="94.4417" y2="95.2419" /><line stroke="rgb(0%,0%,0%)" x1="306.9" x2="306.9" y1="95.2419" y2="95.9912" /><line stroke="rgb(0%,0%,0%)" x1="306.9" x2="306.9" y1="95.9912" y2="96.6311" /><line stroke="rgb(0%,0%,0%)" x1="306.9" x2="306.9" y1="96.6311" y2="97.1407" /><line stroke="rgb(0%,0%,0%)" x1="306.9" x2="306.9" y1="97.1407" y2="97.523" /><line stroke="rgb(0%,0%,0%)" x1="306.9" x2="306.9" y1="97.523" y2="97.7924" /><line stroke="rgb(0%,0%,0%)" x1="336.9" x2="336.9" y1="26.6429" y2="0.5" /><line stroke="rgb(0%,0%,0%)" x1="336.9" x2="336.9" y1="59.4934" y2="41.5066" /><line stroke="rgb(0%,0%,0%)" x1="336.9" x2="336.9" y1="41.5066" y2="38.8023" /><line stroke="rgb(0%,0%,0%)" x1="336.9" x2="336.9" y1="38.8023" y2="35.9659" /><line stroke="rgb(0%,0%,0%)" x1="336.9" x2="336.9" y1="100.5" y2="74.3571" /><line stroke="rgb(0%,0%,0%)" x1="336.9" x2="336.9" y1="74.3571" y2="72.5912" /><line stroke="rgb(0%,0%,0%)" x1="336.9" x2="336.9" y1="72.5912" y2="70.3809" /><line stroke="rgb(0%,0%,0%)" x1="336.9" x2="336.9" y1="35.9659" y2="33.1825" /><line stroke="rgb(0%,0%,0%)" x1="336.9" x2="336.9" y1="33.1825" y2="30.6191" /><line stroke="rgb(0%,0%,0%)" x1="336.9" x2="336.9" y1="30.6191" y2="28.4088" /><line stroke="rgb(0%,0%,0%)" x1="336.9" x2="336.9" y1="28.4088" y2="26.6429" /><line stroke="rgb(0%,0%,0%)" x1="336.9" x2="336.9" y1="70.3809" y2="67.8175" /><line stroke="rgb(0%,0%,0%)" x1="336.9" x2="336.9" y1="67.8175" y2="65.0341" /><line stroke="rgb(0%,0%,0%)" x1="336.9" x2="336.9" y1="65.0341" y2="62.1977" /><line stroke="rgb(0%,0%,0%)" x1="336.9" x2="336.9" y1="62.1977" y2="59.4934" /><line stroke="rgb(0%,0%,0%)" x1="336.9" x2="308.1125" y1="100.5" y2="100.5" /><line stroke="rgb(0%,0%,0%)" x1="308.1125" x2="306.9" y1="100.5" y2="100.5" /><line stroke="rgb(0%,0%,0%)" x1="336.9" x2="308.1125" y1="0.5" y2="0.5" /><line stroke="rgb(0%,0%,0%)" x1="308.1125" x2="306.9" y1="0.5" y2="0.5" /></svg>