<?xml version="1.0" encoding="utf-8" ?>
<svg baseProfile="tiny" height="100%" version="1.2" width="100%" xmlns="http://www.w3.org/2000/svg" xmlns:ev="http://www.w3.org/2001/xml-events" xmlns:xlink="http://www.w3.org/1999/xlink"><defs /><line stroke="rgb(0%,0%,0%)" x1="351.9" x2="351.9" y1="0.5" y2="29.4454" /><line stroke="rgb(0%,0%,0%)" x1="351.9" x2="351.9" y1="29.4454" y2="100.5" /><line stroke="rgb(0%,0%,0%)" x1="301.6316" x2="341.2594" y1="100.5" y2="100.5" /><line stroke="rgb(0%,0%,0%)" x1="341.2594" x2="342.6415" y1="100.5" y2="100.5" /><line stroke="rgb(0%,0%,0%)" x1="342.6415" x2="344.2203" y1="100.5" y2="100.5" /><line stroke="rgb(0%,0%,0%)" x1="344.2203" x2="345.9726" y1="100.5" y2="100.5" /><line stroke="rgb(0%,0%,0%)" x1="345.9726" x2="347.8654" y1="100.5" y2="100.5" /><line stroke="rgb(0%,0%,0%)" x1="347.8654" x2="349.8571" y1="100.5" y2="100.5" /><line stroke="rgb(0%,0%,0%)" x1="349.8571" x2="351.9" y1="100.5" y2="100.5" /><line stroke="rgb(0%,0%,0%)" x1="301.6316" x2="67.9092" y1="100.5" y2="100.5" /><line stroke="rgb(0%,0%,0%)" x1="67.9092" x2="0.5" y1="100.5" y2="100.5" /><line stroke="rgb(0%,0%,0%)" x1="0.5" x2="67.9092" y1="0.5" y2="0.5" /><line stroke="rgb(0%,0%,0%)" x1="67.9092" x2="301.6316" y1="0.5" y2="0.5" /><line stroke="rgb(0%,0%,0%)" x1="301.6316" x2="341.2594" y1="0.5" y2="0.5" /><line stroke="rgb(0%,0%,0%)" x1="341.2594" x2="342.6415" y1="0.5" y2="0.5" /><line stroke="rgb(0%,0%,0%)" x1="342.6415" x2="344.2203" y1="0.5" y2="0.5" /><line stroke="rgb(0%,0%,0%)" x1="344.2203" x2="345.9726" y1="0.5" y2="0.5" /><line stroke="rgb(0%,0%,0%)" x1="345.9726" x2="347.8654" y1="0.5" y2="0.5" /><line stroke="rgb(0%,0%,0%)" x1="347.8654" x2="349.8571" y1="0.5" y2="0.5" /><line stroke="rgb(0%,0%,0%)" x1="349.8571" x2="351.9" y1="0.5" y2="0.5" /><line stroke="rgb(0%,0%,0%)" x1="0.5" x2="0.5" y1="0.5" y2="67.0118" /><line stroke="rgb(0%,0%,0%)" x1="0.5" x2="0.5" y1="67.0118" y2="100.5" /><line stroke="rgb(0%,0%,0%)" x1="165.1722" x2="165.2805" y1="47.3813" y2="48.4112" /><line stroke="rgb(0%,0%,0%)" x1="165.2805" x2="165.5" y1="48.4112" y2="50.5" /><line stroke="rgb(0%,0%,0%)" x1="165.5" x2="165.3917" y1="50.5" y2="51.5299" /><line stroke="rgb(0%,0%,0%)" x1="165.3917" x2="165.1722" y1="51.5299" y2="53.6187" /><line stroke="rgb(0%,0%,0%)" x1="165.1722" x2="164.8522" y1="53.6187" y2="54.6036" /><line stroke="rgb(0%,0%,0%)" x1="164.8522" x2="164.2032" y1="54.6036" y2="56.6011" /><line stroke="rgb(0%,0%,0%)" x1="164.2032" x2="163.6854" y1="56.6011" y2="57.4979" /><line stroke="rgb(0%,0%,0%)" x1="163.6854" x2="162.6353" y1="57.4979" y2="59.3168" /><line stroke="rgb(0%,0%,0%)" x1="162.6353" x2="161.9423" y1="59.3168" y2="60.0864" /><line stroke="rgb(0%,0%,0%)" x1="161.9423" x2="160.537" y1="60.0864" y2="61.6472" /><line stroke="rgb(0%,0%,0%)" x1="160.537" x2="159.6992" y1="61.6472" y2="62.2559" /><line stroke="rgb(0%,0%,0%)" x1="159.6992" x2="158.0" y1="62.2559" y2="63.4904" /><line stroke="rgb(0%,0%,0%)" x1="158.0" x2="157.054" y1="63.4904" y2="63.9116" /><line stroke="rgb(0%,0%,0%)" x1="157.054" x2="155.1353" y1="63.9116" y2="64.7658" /><line stroke="rgb(0%,0%,0%)" x1="155.1353" x2="154.1223" y1="64.7658" y2="64.9812" /><line stroke="rgb(0%,0%,0%)" x1="154.1223" x2="152.0679" y1="64.9812" y2="65.4178" /><line stroke="rgb(0%,0%,0%)" x1="152.0679" x2="151.0324" y1="65.4178" y2="65.4178" /><line stroke="rgb(0%,0%,0%)" x1="151.0324" x2="148.9321" y1="65.4178" y2="65.4178" /><line stroke="rgb(0%,0%,0%)" x1="148.9321" x2="147.9191" y1="65.4178" y2="65.2025" /><line stroke="rgb(0%,0%,0%)" x1="147.9191" x2="145.8647" y1="65.2025" y2="64.7658" /><line stroke="rgb(0%,0%,0%)" x1="145.8647" x2="144.9187" y1="64.7658" y2="64.3446" /><line stroke="rgb(0%,0%,0%)" x1="144.9187" x2="143.0" y1="64.3446" y2="63.4904" /><line stroke="rgb(0%,0%,0%)" x1="143.0" x2="142.1622" y1="63.4904" y2="62.8817" /><line stroke="rgb(0%,0%,0%)" x1="142.1622" x2="140.463" y1="62.8817" y2="61.6472" /><line stroke="rgb(0%,0%,0%)" x1="140.463" x2="139.7701" y1="61.6472" y2="60.8776" /><line stroke="rgb(0%,0%,0%)" x1="139.7701" x2="138.3647" y1="60.8776" y2="59.3168" /><line stroke="rgb(0%,0%,0%)" x1="138.3647" x2="137.847" y1="59.3168" y2="58.4199" /><line stroke="rgb(0%,0%,0%)" x1="137.847" x2="136.7968" y1="58.4199" y2="56.6011" /><line stroke="rgb(0%,0%,0%)" x1="136.7968" x2="136.4768" y1="56.6011" y2="55.6162" /><line stroke="rgb(0%,0%,0%)" x1="136.4768" x2="135.8278" y1="55.6162" y2="53.6187" /><line stroke="rgb(0%,0%,0%)" x1="135.8278" x2="135.7195" y1="53.6187" y2="52.5888" /><line stroke="rgb(0%,0%,0%)" x1="135.7195" x2="135.5" y1="52.5888" y2="50.5" /><line stroke="rgb(0%,0%,0%)" x1="135.5" x2="135.6082" y1="50.5" y2="49.4701" /><line stroke="rgb(0%,0%,0%)" x1="135.6082" x2="135.8278" y1="49.4701" y2="47.3813" /><line stroke="rgb(0%,0%,0%)" x1="135.8278" x2="136.1478" y1="47.3813" y2="46.3964" /><line stroke="rgb(0%,0%,0%)" x1="136.1478" x2="136.7968" y1="46.3964" y2="44.3989" /><line stroke="rgb(0%,0%,0%)" x1="136.7968" x2="137.3146" y1="44.3989" y2="43.5021" /><line stroke="rgb(0%,0%,0%)" x1="137.3146" x2="138.3647" y1="43.5021" y2="41.6832" /><line stroke="rgb(0%,0%,0%)" x1="138.3647" x2="139.0577" y1="41.6832" y2="40.9136" /><line stroke="rgb(0%,0%,0%)" x1="139.0577" x2="140.463" y1="40.9136" y2="39.3528" /><line stroke="rgb(0%,0%,0%)" x1="140.463" x2="141.3008" y1="39.3528" y2="38.7441" /><line stroke="rgb(0%,0%,0%)" x1="141.3008" x2="143.0" y1="38.7441" y2="37.5096" /><line stroke="rgb(0%,0%,0%)" x1="143.0" x2="143.946" y1="37.5096" y2="37.0884" /><line stroke="rgb(0%,0%,0%)" x1="143.946" x2="145.8647" y1="37.0884" y2="36.2342" /><line stroke="rgb(0%,0%,0%)" x1="145.8647" x2="146.8777" y1="36.2342" y2="36.0188" /><line stroke="rgb(0%,0%,0%)" x1="146.8777" x2="148.9321" y1="36.0188" y2="35.5822" /><line stroke="rgb(0%,0%,0%)" x1="148.9321" x2="149.9676" y1="35.5822" y2="35.5822" /><line stroke="rgb(0%,0%,0%)" x1="149.9676" x2="152.0679" y1="35.5822" y2="35.5822" /><line stroke="rgb(0%,0%,0%)" x1="152.0679" x2="153.0809" y1="35.5822" y2="35.7975" /><line stroke="rgb(0%,0%,0%)" x1="153.0809" x2="155.1353" y1="35.7975" y2="36.2342" /><line stroke="rgb(0%,0%,0%)" x1="155.1353" x2="156.0813" y1="36.2342" y2="36.6554" /><line stroke="rgb(0%,0%,0%)" x1="156.0813" x2="158.0" y1="36.6554" y2="37.5096" /><line stroke="rgb(0%,0%,0%)" x1="158.0" x2="158.8378" y1="37.5096" y2="38.1183" /><line stroke="rgb(0%,0%,0%)" x1="158.8378" x2="160.537" y1="38.1183" y2="39.3528" /><line stroke="rgb(0%,0%,0%)" x1="160.537" x2="161.2299" y1="39.3528" y2="40.1224" /><line stroke="rgb(0%,0%,0%)" x1="161.2299" x2="162.6353" y1="40.1224" y2="41.6832" /><line stroke="rgb(0%,0%,0%)" x1="162.6353" x2="163.153" y1="41.6832" y2="42.5801" /><line stroke="rgb(0%,0%,0%)" x1="163.153" x2="164.2032" y1="42.5801" y2="44.3989" /><line stroke="rgb(0%,0%,0%)" x1="164.2032" x2="164.5232" y1="44.3989" y2="45.3838" /><line stroke="rgb(0%,0%,0%)" x1="164.5232" x2="165.1722" y1="45.3838" y2="47.3813" /><line stroke="rgb(0%,0%,0%)" x1="65.1722" x2="65.2805" y1="47.3813" y2="48.4112" /><line stroke="rgb(0%,0%,0%)" x1="65.2805" x2="65.5" y1="48.4112" y2="50.5" /><line stroke="rgb(0%,0%,0%)" x1="65.5" x2="65.3918" y1="50.5" y2="51.5299" /><line stroke="rgb(0%,0%,0%)" x1="65.3918" x2="65.1722" y1="51.5299" y2="53.6187" /><line stroke="rgb(0%,0%,0%)" x1="65.1722" x2="64.8522" y1="53.6187" y2="54.6036" /><line stroke="rgb(0%,0%,0%)" x1="64.8522" x2="64.2032" y1="54.6036" y2="56.6011" /><line stroke="rgb(0%,0%,0%)" x1="64.2032" x2="63.6854" y1="56.6011" y2="57.4979" /><line stroke="rgb(0%,0%,0%)" x1="63.6854" x2="62.6352" y1="57.4979" y2="59.3168" /><line stroke="rgb(0%,0%,0%)" x1="62.6352" x2="61.9423" y1="59.3168" y2="60.0864" /><line stroke="rgb(0%,0%,0%)" x1="61.9423" x2="60.537" y1="60.0864" y2="61.6472" /><line stroke="rgb(0%,0%,0%)" x1="60.537" x2="59.6992" y1="61.6472" y2="62.2559" /><line stroke="rgb(0%,0%,0%)" x1="59.6992" x2="58.0" y1="62.2559" y2="63.4904" /><line stroke="rgb(0%,0%,0%)" x1="58.0" x2="57.054" y1="63.4904" y2="63.9116" /><line stroke="rgb(0%,0%,0%)" x1="57.054" x2="55.1353" y1="63.9116" y2="64.7658" /><line stroke="rgb(0%,0%,0%)" x1="55.1353" x2="54.1223" y1="64.7658" y2="64.9812" /><line stroke="rgb(0%,0%,0%)" x1="54.1223" x2="52.0679" y1="64.9812" y2="65.4178" /><line stroke="rgb(0%,0%,0%)" x1="52.0679" x2="51.0323" y1="65.4178" y2="65.4178" /><line stroke="rgb(0%,0%,0%)" x1="51.0323" x2="48.9321" y1="65.4178" y2="65.4178" /><line stroke="rgb(0%,0%,0%)" x1="48.9321" x2="47.9191" y1="65.4178" y2="65.2025" /><line stroke="rgb(0%,0%,0%)" x1="47.9191" x2="45.8647" y1="65.2025" y2="64.7658" /><line stroke="rgb(0%,0%,0%)" x1="45.8647" x2="44.9187" y1="64.7658" y2="64.3446" /><line stroke="rgb(0%,0%,0%)" x1="44.9187" x2="43.0" y1="64.3446" y2="63.4904" /><line stroke="rgb(0%,0%,0%)" x1="43.0" x2="42.1622" y1="63.4904" y2="62.8817" /><line stroke="rgb(0%,0%,0%)" x1="42.1622" x2="40.463" y1="62.8817" y2="61.6472" /><line stroke="rgb(0%,0%,0%)" x1="40.463" x2="39.7701" y1="61.6472" y2="60.8776" /><line stroke="rgb(0%,0%,0%)" x1="39.7701" x2="38.3647" y1="60.8776" y2="59.3168" /><line stroke="rgb(0%,0%,0%)" x1="38.3647" x2="37.847" y1="59.3168" y2="58.4199" /><line stroke="rgb(0%,0%,0%)" x1="37.847" x2="36.7968" y1="58.4199" y2="56.6011" /><line stroke="rgb(0%,0%,0%)" x1="36.7968" x2="36.4768" y1="56.6011" y2="55.6162" /><line stroke="rgb(0%,0%,0%)" x1="36.4768" x2="35.8278" y1="55.6162" y2="53.6187" /><line stroke="rgb(0%,0%,0%)" x1="35.8278" x2="35.7195" y1="53.6187" y2="52.5888" /><line stroke="rgb(0%,0%,0%)" x1="35.7195" x2="35.5" y1="52.5888" y2="50.5" /><line stroke="rgb(0%,0%,0%)" x1="35.5" x2="35.6082" y1="50.5" y2="49.4701" /><line stroke="rgb(0%,0%,0%)" x1="35.6082" x2="35.8278" y1="49.4701" y2="47.3813" /><line stroke="rgb(0%,0%,0%)" x1="35.8278" x2="36.1478" y1="47.3813" y2="46.3964" /><line stroke="rgb(0%,0%,0%)" x1="36.1478" x2="36.7968" y1="46.3964" y2="44.3989" /><line stroke="rgb(0%,0%,0%)" x1="36.7968" x2="37.3146" y1="44.3989" y2="43.5021" /><line stroke="rgb(0%,0%,0%)" x1="37.3146" x2="38.3647" y1="43.5021" y2="41.6832" /><line stroke="rgb(0%,0%,0%)" x1="38.3647" x2="39.0577" y1="41.6832" y2="40.9136" /><line stroke="rgb(0%,0%,0%)" x1="39.0577" x2="40.463" y1="40.9136" y2="39.3528" /><line stroke="rgb(0%,0%,0%)" x1="40.463" x2="41.3008" y1="39.3528" y2="38.7441" /><line stroke="rgb(0%,0%,0%)" x1="41.3008" x2="43.0" y1="38.7441" y2="37.5096" /><line stroke="rgb(0%,0%,0%)" x1="43.0" x2="43.946" y1="37.5096" y2="37.0884" /><line stroke="rgb(0%,0%,0%)" x1="43.946" x2="45.8647" y1="37.0884" y2="36.2342" /><line stroke="rgb(0%,0%,0%)" x1="45.8647" x2="46.8777" y1="36.2342" y2="36.0188" /><line stroke="rgb(0%,0%,0%)" x1="46.8777" x2="48.9321" y1="36.0188" y2="35.5822" /><line stroke="rgb(0%,0%,0%)" x1="48.9321" x2="49.9676" y1="35.5822" y2="35.5822" /><line stroke="rgb(0%,0%,0%)" x1="49.9676" x2="52.0679" y1="35.5822" y2="35.5822" /><line stroke="rgb(0%,0%,0%)" x1="52.0679" x2="53.0809" y1="35.5822" y2="35.7975" /><line stroke="rgb(0%,0%,0%)" x1="53.0809" x2="55.1353" y1="35.7975" y2="36.2342" /><line stroke="rgb(0%,0%,0%)" x1="55.1353" x2="56.0813" y1="36.2342" y2="36.6554" /><line stroke="rgb(0%,0%,0%)" x1="56.0813" x2="58.0" y1="36.6554" y2="37.5096" /><line stroke="rgb(0%,0%,0%)" x1="58.0" x2="58.8378" y1="37.5096" y2="38.1183" /><line stroke="rgb(0%,0%,0%)" x1="58.8378" x2="60.537" y1="38.1183" y2="39.3528" /><line stroke="rgb(0%,0%,0%)" x1="60.537" x2="61.2299" y1="39.3528" y2="40.1224" /><line stroke="rgb(0%,0%,0%)" x1="61.2299" x2="62.6352" y1="40.1224" y2="41.6832" /><line stroke="rgb(0%,0%,0%)" x1="62.6352" x2="63.153" y1="41.6832" y2="42.5801" /><line stroke="rgb(0%,0%,0%)" x1="63.153" x2="64.2032" y1="42.5801" y2="44.3989" /><line stroke="rgb(0%,0%,0%)" x1="64.2032" x2="64.5232" y1="44.3989" y2="45.3838" /><line stroke="rgb(0%,0%,0%)" x1="64.5232" x2="65.1722" y1="45.3838" y2="47.3813" /></svg>