<?xml version="1.0" encoding="utf-8" ?>
<svg baseProfile="tiny" height="100%" version="1.2" width="100%" xmlns="http://www.w3.org/2000/svg" xmlns:ev="http://www.w3.org/2001/xml-events" xmlns:xlink="http://www.w3.org/1999/xlink"><defs /><line stroke="rgb(0%,0%,0%)" x1="306.9" x2="306.9" y1="0.5" y2="4.5903" /><line stroke="rgb(0%,0%,0%)" x1="306.9" x2="306.9" y1="4.5903" y2="5.1157" /><line stroke="rgb(0%,0%,0%)" x1="306.9" x2="306.9" y1="5.1157" y2="5.8158" /><line stroke="rgb(0%,0%,0%)" x1="306.9" x2="306.9" y1="96.7799" y2="100.5" /><line stroke="rgb(0%,0%,0%)" x1="306.9" x2="306.9" y1="10.661" y2="90.339" /><line stroke="rgb(0%,0%,0%)" x1="306.9" x2="306.9" y1="90.339" y2="91.1424" /><line stroke="rgb(0%,0%,0%)" x1="306.9" x2="306.9" y1="91.1424" y2="92.176" /><line stroke="rgb(0%,0%,0%)" x1="306.9" x2="306.9" y1="5.8158" y2="6.695" /><line stroke="rgb(0%,0%,0%)" x1="306.9" x2="306.9" y1="6.695" y2="7.7245" /><line stroke="rgb(0%,0%,0%)" x1="306.9" x2="306.9" y1="7.7245" y2="8.824" /><line stroke="rgb(0%,0%,0%)" x1="306.9" x2="306.9" y1="8.824" y2="9.8576" /><line stroke="rgb(0%,0%,0%)" x1="306.9" x2="306.9" y1="9.8576" y2="10.661" /><line stroke="rgb(0%,0%,0%)" x1="306.9" x2="306.9" y1="92.176" y2="93.2755" /><line stroke="rgb(0%,0%,0%)" x1="306.9" x2="306.9" y1="93.2755" y2="94.305" /><line stroke="rgb(0%,0%,0%)" x1="306.9" x2="306.9" y1="94.305" y2="95.1842" /><line stroke="rgb(0%,0%,0%)" x1="306.9" x2="306.9" y1="95.1842" y2="95.8843" /><line stroke="rgb(0%,0%,0%)" x1="306.9" x2="306.9" y1="95.8843" y2="96.4097" /><line stroke="rgb(0%,0%,0%)" x1="306.9" x2="306.9" y1="96.4097" y2="96.7799" /><line stroke="rgb(0%,0%,0%)" x1="336.9" x2="336.9" y1="27.0151" y2="0.5" /><line stroke="rgb(0%,0%,0%)" x1="336.9" x2="336.9" y1="58.9096" y2="42.0904" /><line stroke="rgb(0%,0%,0%)" x1="336.9" x2="336.9" y1="42.0904" y2="39.3476" /><line stroke="rgb(0%,0%,0%)" x1="336.9" x2="336.9" y1="39.3476" y2="36.4709" /><line stroke="rgb(0%,0%,0%)" x1="336.9" x2="336.9" y1="100.5" y2="73.9849" /><line stroke="rgb(0%,0%,0%)" x1="336.9" x2="336.9" y1="73.9849" y2="72.1939" /><line stroke="rgb(0%,0%,0%)" x1="336.9" x2="336.9" y1="72.1939" y2="69.9521" /><line stroke="rgb(0%,0%,0%)" x1="336.9" x2="336.9" y1="36.4709" y2="33.6478" /><line stroke="rgb(0%,0%,0%)" x1="336.9" x2="336.9" y1="33.6478" y2="31.0479" /><line stroke="rgb(0%,0%,0%)" x1="336.9" x2="336.9" y1="31.0479" y2="28.8061" /><line stroke="rgb(0%,0%,0%)" x1="336.9" x2="336.9" y1="28.8061" y2="27.0151" /><line stroke="rgb(0%,0%,0%)" x1="336.9" x2="336.9" y1="69.9521" y2="67.3522" /><line stroke="rgb(0%,0%,0%)" x1="336.9" x2="336.9" y1="67.3522" y2="64.5291" /><line stroke="rgb(0%,0%,0%)" x1="336.9" x2="336.9" y1="64.5291" y2="61.6524" /><line stroke="rgb(0%,0%,0%)" x1="336.9" x2="336.9" y1="61.6524" y2="58.9096" /><line stroke="rgb(0%,0%,0%)" x1="336.9" x2="308.566" y1="100.5" y2="100.5" /><line stroke="rgb(0%,0%,0%)" x1="308.566" x2="306.9" y1="100.5" y2="100.5" /><line stroke="rgb(0%,0%,0%)" x1="336.9" x2="308.566" y1="0.5" y2="0.5" /><line stroke="rgb(0%,0%,0%)" x1="308.566" x2="306.9" y1="0.5" y2="0.5" /></svg>