<?xml version="1.0" encoding="utf-8" ?>
<svg baseProfile="tiny" height="100%" version="1.2" width="100%" xmlns="http://www.w3.org/2000/svg" xmlns:ev="http://www.w3.org/2001/xml-events" xmlns:xlink="http://www.w3.org/1999/xlink"><defs /><line stroke="rgb(0%,0%,0%)" x1="306.9" x2="306.9" y1="0.5" y2="5.7037" /><line stroke="rgb(0%,0%,0%)" x1="306.9" x2="306.9" y1="5.7037" y2="6.372" /><line stroke="rgb(0%,0%,0%)" x1="306.9" x2="306.9" y1="6.372" y2="7.2627" /><line stroke="rgb(0%,0%,0%)" x1="306.9" x2="306.9" y1="95.7673" y2="100.5" /><line stroke="rgb(0%,0%,0%)" x1="306.9" x2="306.9" y1="13.4267" y2="87.5733" /><line stroke="rgb(0%,0%,0%)" x1="306.9" x2="306.9" y1="87.5733" y2="88.5954" /><line stroke="rgb(0%,0%,0%)" x1="306.9" x2="306.9" y1="88.5954" y2="89.9103" /><line stroke="rgb(0%,0%,0%)" x1="306.9" x2="306.9" y1="7.2627" y2="8.3812" /><line stroke="rgb(0%,0%,0%)" x1="306.9" x2="306.9" y1="8.3812" y2="9.6909" /><line stroke="rgb(0%,0%,0%)" x1="306.9" x2="306.9" y1="9.6909" y2="11.0897" /><line stroke="rgb(0%,0%,0%)" x1="306.9" x2="306.9" y1="11.0897" y2="12.4046" /><line stroke="rgb(0%,0%,0%)" x1="306.9" x2="306.9" y1="12.4046" y2="13.4267" /><line stroke="rgb(0%,0%,0%)" x1="306.9" x2="306.9" y1="89.9103" y2="91.3091" /><line stroke="rgb(0%,0%,0%)" x1="306.9" x2="306.9" y1="91.3091" y2="92.6188" /><line stroke="rgb(0%,0%,0%)" x1="306.9" x2="306.9" y1="92.6188" y2="93.7373" /><line stroke="rgb(0%,0%,0%)" x1="306.9" x2="306.9" y1="93.7373" y2="94.628" /><line stroke="rgb(0%,0%,0%)" x1="306.9" x2="306.9" y1="94.628" y2="95.2963" /><line stroke="rgb(0%,0%,0%)" x1="306.9" x2="306.9" y1="95.2963" y2="95.7673" /><line stroke="rgb(0%,0%,0%)" x1="336.9" x2="336.9" y1="27.3873" y2="0.5" /><line stroke="rgb(0%,0%,0%)" x1="336.9" x2="336.9" y1="58.3258" y2="42.6742" /><line stroke="rgb(0%,0%,0%)" x1="336.9" x2="336.9" y1="42.6742" y2="39.8929" /><line stroke="rgb(0%,0%,0%)" x1="336.9" x2="336.9" y1="39.8929" y2="36.9758" /><line stroke="rgb(0%,0%,0%)" x1="336.9" x2="336.9" y1="100.5" y2="73.6127" /><line stroke="rgb(0%,0%,0%)" x1="336.9" x2="336.9" y1="73.6127" y2="71.7965" /><line stroke="rgb(0%,0%,0%)" x1="336.9" x2="336.9" y1="71.7965" y2="69.5233" /><line stroke="rgb(0%,0%,0%)" x1="336.9" x2="336.9" y1="36.9758" y2="34.1131" /><line stroke="rgb(0%,0%,0%)" x1="336.9" x2="336.9" y1="34.1131" y2="31.4767" /><line stroke="rgb(0%,0%,0%)" x1="336.9" x2="336.9" y1="31.4767" y2="29.2035" /><line stroke="rgb(0%,0%,0%)" x1="336.9" x2="336.9" y1="29.2035" y2="27.3873" /><line stroke="rgb(0%,0%,0%)" x1="336.9" x2="336.9" y1="69.5233" y2="66.8869" /><line stroke="rgb(0%,0%,0%)" x1="336.9" x2="336.9" y1="66.8869" y2="64.0242" /><line stroke="rgb(0%,0%,0%)" x1="336.9" x2="336.9" y1="64.0242" y2="61.1071" /><line stroke="rgb(0%,0%,0%)" x1="336.9" x2="336.9" y1="61.1071" y2="58.3258" /><line stroke="rgb(0%,0%,0%)" x1="336.9" x2="309.0195" y1="100.5" y2="100.5" /><line stroke="rgb(0%,0%,0%)" x1="309.0195" x2="306.9" y1="100.5" y2="100.5" /><line stroke="rgb(0%,0%,0%)" x1="336.9" x2="309.0195" y1="0.5" y2="0.5" /><line stroke="rgb(0%,0%,0%)" x1="309.0195" x2="306.9" y1="0.5" y2="0.5" /></svg>