<?xml version="1.0" encoding="utf-8" ?>
<svg baseProfile="tiny" height="100%" version="1.2" width="100%" xmlns="http://www.w3.org/2000/svg" xmlns:ev="http://www.w3.org/2001/xml-events" xmlns:xlink="http://www.w3.org/1999/xlink"><defs /><line stroke="rgb(0%,0%,0%)" x1="306.9" x2="306.9" y1="0.5" y2="6.817" /><line stroke="rgb(0%,0%,0%)" x1="306.9" x2="306.9" y1="6.817" y2="7.6283" /><line stroke="rgb(0%,0%,0%)" x1="306.9" x2="306.9" y1="7.6283" y2="8.7096" /><line stroke="rgb(0%,0%,0%)" x1="306.9" x2="306.9" y1="94.7547" y2="100.5" /><line stroke="rgb(0%,0%,0%)" x1="306.9" x2="306.9" y1="16.1924" y2="84.8076" /><line stroke="rgb(0%,0%,0%)" x1="306.9" x2="306.9" y1="84.8076" y2="86.0484" /><line stroke="rgb(0%,0%,0%)" x1="306.9" x2="306.9" y1="86.0484" y2="87.6446" /><line stroke="rgb(0%,0%,0%)" x1="306.9" x2="306.9" y1="8.7096" y2="10.0674" /><line stroke="rgb(0%,0%,0%)" x1="306.9" x2="306.9" y1="10.0674" y2="11.6573" /><line stroke="rgb(0%,0%,0%)" x1="306.9" x2="306.9" y1="11.6573" y2="13.3554" /><line stroke="rgb(0%,0%,0%)" x1="306.9" x2="306.9" y1="13.3554" y2="14.9516" /><line stroke="rgb(0%,0%,0%)" x1="306.9" x2="306.9" y1="14.9516" y2="16.1924" /><line stroke="rgb(0%,0%,0%)" x1="306.9" x2="306.9" y1="87.6446" y2="89.3427" /><line stroke="rgb(0%,0%,0%)" x1="306.9" x2="306.9" y1="89.3427" y2="90.9326" /><line stroke="rgb(0%,0%,0%)" x1="306.9" x2="306.9" y1="90.9326" y2="92.2904" /><line stroke="rgb(0%,0%,0%)" x1="306.9" x2="306.9" y1="92.2904" y2="93.3717" /><line stroke="rgb(0%,0%,0%)" x1="306.9" x2="306.9" y1="93.3717" y2="94.183" /><line stroke="rgb(0%,0%,0%)" x1="306.9" x2="306.9" y1="94.183" y2="94.7547" /><line stroke="rgb(0%,0%,0%)" x1="336.9" x2="336.9" y1="27.7595" y2="0.5" /><line stroke="rgb(0%,0%,0%)" x1="336.9" x2="336.9" y1="57.7419" y2="43.2581" /><line stroke="rgb(0%,0%,0%)" x1="336.9" x2="336.9" y1="43.2581" y2="40.4382" /><line stroke="rgb(0%,0%,0%)" x1="336.9" x2="336.9" y1="40.4382" y2="37.4807" /><line stroke="rgb(0%,0%,0%)" x1="336.9" x2="336.9" y1="100.5" y2="73.2405" /><line stroke="rgb(0%,0%,0%)" x1="336.9" x2="336.9" y1="73.2405" y2="71.3992" /><line stroke="rgb(0%,0%,0%)" x1="336.9" x2="336.9" y1="71.3992" y2="69.0945" /><line stroke="rgb(0%,0%,0%)" x1="336.9" x2="336.9" y1="37.4807" y2="34.5784" /><line stroke="rgb(0%,0%,0%)" x1="336.9" x2="336.9" y1="34.5784" y2="31.9055" /><line stroke="rgb(0%,0%,0%)" x1="336.9" x2="336.9" y1="31.9055" y2="29.6008" /><line stroke="rgb(0%,0%,0%)" x1="336.9" x2="336.9" y1="29.6008" y2="27.7595" /><line stroke="rgb(0%,0%,0%)" x1="336.9" x2="336.9" y1="69.0945" y2="66.4216" /><line stroke="rgb(0%,0%,0%)" x1="336.9" x2="336.9" y1="66.4216" y2="63.5193" /><line stroke="rgb(0%,0%,0%)" x1="336.9" x2="336.9" y1="63.5193" y2="60.5618" /><line stroke="rgb(0%,0%,0%)" x1="336.9" x2="336.9" y1="60.5618" y2="57.7419" /><line stroke="rgb(0%,0%,0%)" x1="336.9" x2="309.4729" y1="100.5" y2="100.5" /><line stroke="rgb(0%,0%,0%)" x1="309.4729" x2="306.9" y1="100.5" y2="100.5" /><line stroke="rgb(0%,0%,0%)" x1="336.9" x2="309.4729" y1="0.5" y2="0.5" /><line stroke="rgb(0%,0%,0%)" x1="309.4729" x2="306.9" y1="0.5" y2="0.5" /></svg>