<?xml version="1.0" encoding="utf-8" ?>
<svg baseProfile="tiny" height="100%" version="1.2" width="100%" xmlns="http://www.w3.org/2000/svg" xmlns:ev="http://www.w3.org/2001/xml-events" xmlns:xlink="http://www.w3.org/1999/xlink"><defs /><line stroke="rgb(0%,0%,0%)" x1="306.9" x2="306.9" y1="0.5" y2="7.9304" /><line stroke="rgb(0%,0%,0%)" x1="306.9" x2="306.9" y1="7.9304" y2="8.8846" /><line stroke="rgb(0%,0%,0%)" x1="306.9" x2="306.9" y1="8.8846" y2="10.1565" /><line stroke="rgb(0%,0%,0%)" x1="306.9" x2="306.9" y1="93.7421" y2="100.5" /><line stroke="rgb(0%,0%,0%)" x1="306.9" x2="306.9" y1="18.9581" y2="82.0419" /><line stroke="rgb(0%,0%,0%)" x1="306.9" x2="306.9" y1="82.0419" y2="83.5014" /><line stroke="rgb(0%,0%,0%)" x1="306.9" x2="306.9" y1="83.5014" y2="85.3789" /><line stroke="rgb(0%,0%,0%)" x1="306.9" x2="306.9" y1="10.1565" y2="11.7536" /><line stroke="rgb(0%,0%,0%)" x1="306.9" x2="306.9" y1="11.7536" y2="13.6237" /><line stroke="rgb(0%,0%,0%)" x1="306.9" x2="306.9" y1="13.6237" y2="15.6211" /><line stroke="rgb(0%,0%,0%)" x1="306.9" x2="306.9" y1="15.6211" y2="17.4986" /><line stroke="rgb(0%,0%,0%)" x1="306.9" x2="306.9" y1="17.4986" y2="18.9581" /><line stroke="rgb(0%,0%,0%)" x1="306.9" x2="306.9" y1="85.3789" y2="87.3763" /><line stroke="rgb(0%,0%,0%)" x1="306.9" x2="306.9" y1="87.3763" y2="89.2464" /><line stroke="rgb(0%,0%,0%)" x1="306.9" x2="306.9" y1="89.2464" y2="90.8435" /><line stroke="rgb(0%,0%,0%)" x1="306.9" x2="306.9" y1="90.8435" y2="92.1154" /><line stroke="rgb(0%,0%,0%)" x1="306.9" x2="306.9" y1="92.1154" y2="93.0696" /><line stroke="rgb(0%,0%,0%)" x1="306.9" x2="306.9" y1="93.0696" y2="93.7421" /><line stroke="rgb(0%,0%,0%)" x1="336.9" x2="336.9" y1="28.1317" y2="0.5" /><line stroke="rgb(0%,0%,0%)" x1="336.9" x2="336.9" y1="57.1581" y2="43.8419" /><line stroke="rgb(0%,0%,0%)" x1="336.9" x2="336.9" y1="43.8419" y2="40.9835" /><line stroke="rgb(0%,0%,0%)" x1="336.9" x2="336.9" y1="40.9835" y2="37.9856" /><line stroke="rgb(0%,0%,0%)" x1="336.9" x2="336.9" y1="100.5" y2="72.8683" /><line stroke="rgb(0%,0%,0%)" x1="336.9" x2="336.9" y1="72.8683" y2="71.0019" /><line stroke="rgb(0%,0%,0%)" x1="336.9" x2="336.9" y1="71.0019" y2="68.6657" /><line stroke="rgb(0%,0%,0%)" x1="336.9" x2="336.9" y1="37.9856" y2="35.0437" /><line stroke="rgb(0%,0%,0%)" x1="336.9" x2="336.9" y1="35.0437" y2="32.3343" /><line stroke="rgb(0%,0%,0%)" x1="336.9" x2="336.9" y1="32.3343" y2="29.9981" /><line stroke="rgb(0%,0%,0%)" x1="336.9" x2="336.9" y1="29.9981" y2="28.1317" /><line stroke="rgb(0%,0%,0%)" x1="336.9" x2="336.9" y1="68.6657" y2="65.9563" /><line stroke="rgb(0%,0%,0%)" x1="336.9" x2="336.9" y1="65.9563" y2="63.0144" /><line stroke="rgb(0%,0%,0%)" x1="336.9" x2="336.9" y1="63.0144" y2="60.0165" /><line stroke="rgb(0%,0%,0%)" x1="336.9" x2="336.9" y1="60.0165" y2="57.1581" /><line stroke="rgb(0%,0%,0%)" x1="336.9" x2="309.9264" y1="100.5" y2="100.5" /><line stroke="rgb(0%,0%,0%)" x1="309.9264" x2="306.9" y1="100.5" y2="100.5" /><line stroke="rgb(0%,0%,0%)" x1="336.9" x2="309.9264" y1="0.5" y2="0.5" /><line stroke="rgb(0%,0%,0%)" x1="309.9264" x2="306.9" y1="0.5" y2="0.5" /></svg>