<?xml version="1.0" encoding="utf-8" ?>
<svg baseProfile="tiny" height="100%" version="1.2" width="100%" xmlns="http://www.w3.org/2000/svg" xmlns:ev="http://www.w3.org/2001/xml-events" xmlns:xlink="http://www.w3.org/1999/xlink"><defs /><line stroke="rgb(0%,0%,0%)" x1="306.9" x2="306.9" y1="0.5" y2="9.0437" /><line stroke="rgb(0%,0%,0%)" x1="306.9" x2="306.9" y1="9.0437" y2="10.141" /><line stroke="rgb(0%,0%,0%)" x1="306.9" x2="306.9" y1="10.141" y2="11.6034" /><line stroke="rgb(0%,0%,0%)" x1="306.9" x2="306.9" y1="92.7296" y2="100.5" /><line stroke="rgb(0%,0%,0%)" x1="306.9" x2="306.9" y1="21.7238" y2="79.2762" /><line stroke="rgb(0%,0%,0%)" x1="306.9" x2="306.9" y1="79.2762" y2="80.9544" /><line stroke="rgb(0%,0%,0%)" x1="306.9" x2="306.9" y1="80.9544" y2="83.1132" /><line stroke="rgb(0%,0%,0%)" x1="306.9" x2="306.9" y1="11.6034" y2="13.4398" /><line stroke="rgb(0%,0%,0%)" x1="306.9" x2="306.9" y1="13.4398" y2="15.5901" /><line stroke="rgb(0%,0%,0%)" x1="306.9" x2="306.9" y1="15.5901" y2="17.8868" /><line stroke="rgb(0%,0%,0%)" x1="306.9" x2="306.9" y1="17.8868" y2="20.0456" /><line stroke="rgb(0%,0%,0%)" x1="306.9" x2="306.9" y1="20.0456" y2="21.7238" /><line stroke="rgb(0%,0%,0%)" x1="306.9" x2="306.9" y1="83.1132" y2="85.4099" /><line stroke="rgb(0%,0%,0%)" x1="306.9" x2="306.9" y1="85.4099" y2="87.5602" /><line stroke="rgb(0%,0%,0%)" x1="306.9" x2="306.9" y1="87.5602" y2="89.3966" /><line stroke="rgb(0%,0%,0%)" x1="306.9" x2="306.9" y1="89.3966" y2="90.859" /><line stroke="rgb(0%,0%,0%)" x1="306.9" x2="306.9" y1="90.859" y2="91.9563" /><line stroke="rgb(0%,0%,0%)" x1="306.9" x2="306.9" y1="91.9563" y2="92.7296" /><line stroke="rgb(0%,0%,0%)" x1="336.9" x2="336.9" y1="28.5039" y2="0.5" /><line stroke="rgb(0%,0%,0%)" x1="336.9" x2="336.9" y1="56.5743" y2="44.4257" /><line stroke="rgb(0%,0%,0%)" x1="336.9" x2="336.9" y1="44.4257" y2="41.5288" /><line stroke="rgb(0%,0%,0%)" x1="336.9" x2="336.9" y1="41.5288" y2="38.4906" /><line stroke="rgb(0%,0%,0%)" x1="336.9" x2="336.9" y1="100.5" y2="72.4961" /><line stroke="rgb(0%,0%,0%)" x1="336.9" x2="336.9" y1="72.4961" y2="70.6045" /><line stroke="rgb(0%,0%,0%)" x1="336.9" x2="336.9" y1="70.6045" y2="68.2369" /><line stroke="rgb(0%,0%,0%)" x1="336.9" x2="336.9" y1="38.4906" y2="35.509" /><line stroke="rgb(0%,0%,0%)" x1="336.9" x2="336.9" y1="35.509" y2="32.7631" /><line stroke="rgb(0%,0%,0%)" x1="336.9" x2="336.9" y1="32.7631" y2="30.3955" /><line stroke="rgb(0%,0%,0%)" x1="336.9" x2="336.9" y1="30.3955" y2="28.5039" /><line stroke="rgb(0%,0%,0%)" x1="336.9" x2="336.9" y1="68.2369" y2="65.491" /><line stroke="rgb(0%,0%,0%)" x1="336.9" x2="336.9" y1="65.491" y2="62.5094" /><line stroke="rgb(0%,0%,0%)" x1="336.9" x2="336.9" y1="62.5094" y2="59.4712" /><line stroke="rgb(0%,0%,0%)" x1="336.9" x2="336.9" y1="59.4712" y2="56.5743" /><line stroke="rgb(0%,0%,0%)" x1="336.9" x2="310.3799" y1="100.5" y2="100.5" /><line stroke="rgb(0%,0%,0%)" x1="310.3799" x2="306.9" y1="100.5" y2="100.5" /><line stroke="rgb(0%,0%,0%)" x1="336.9" x2="310.3799" y1="0.5" y2="0.5" /><line stroke="rgb(0%,0%,0%)" x1="310.3799" x2="306.9" y1="0.5" y2="0.5" /></svg>