<?xml version="1.0" encoding="utf-8" ?>
<svg baseProfile="tiny" height="100%" version="1.2" width="100%" xmlns="http://www.w3.org/2000/svg" xmlns:ev="http://www.w3.org/2001/xml-events" xmlns:xlink="http://www.w3.org/1999/xlink"><defs /><line stroke="rgb(0%,0%,0%)" x1="306.9" x2="306.9" y1="0.5" y2="10.1571" /><line stroke="rgb(0%,0%,0%)" x1="306.9" x2="306.9" y1="10.1571" y2="11.3973" /><line stroke="rgb(0%,0%,0%)" x1="306.9" x2="306.9" y1="11.3973" y2="13.0503" /><line stroke="rgb(0%,0%,0%)" x1="306.9" x2="306.9" y1="91.717" y2="100.5" /><line stroke="rgb(0%,0%,0%)" x1="306.9" x2="306.9" y1="24.4895" y2="76.5105" /><line stroke="rgb(0%,0%,0%)" x1="306.9" x2="306.9" y1="76.5105" y2="78.4074" /><line stroke="rgb(0%,0%,0%)" x1="306.9" x2="306.9" y1="78.4074" y2="80.8475" /><line stroke="rgb(0%,0%,0%)" x1="306.9" x2="306.9" y1="13.0503" y2="15.126" /><line stroke="rgb(0%,0%,0%)" x1="306.9" x2="306.9" y1="15.126" y2="17.5565" /><line stroke="rgb(0%,0%,0%)" x1="306.9" x2="306.9" y1="17.5565" y2="20.1525" /><line stroke="rgb(0%,0%,0%)" x1="306.9" x2="306.9" y1="20.1525" y2="22.5926" /><line stroke="rgb(0%,0%,0%)" x1="306.9" x2="306.9" y1="22.5926" y2="24.4895" /><line stroke="rgb(0%,0%,0%)" x1="306.9" x2="306.9" y1="80.8475" y2="83.4435" /><line stroke="rgb(0%,0%,0%)" x1="306.9" x2="306.9" y1="83.4435" y2="85.874" /><line stroke="rgb(0%,0%,0%)" x1="306.9" x2="306.9" y1="85.874" y2="87.9497" /><line stroke="rgb(0%,0%,0%)" x1="306.9" x2="306.9" y1="87.9497" y2="89.6027" /><line stroke="rgb(0%,0%,0%)" x1="306.9" x2="306.9" y1="89.6027" y2="90.8429" /><line stroke="rgb(0%,0%,0%)" x1="306.9" x2="306.9" y1="90.8429" y2="91.717" /><line stroke="rgb(0%,0%,0%)" x1="336.9" x2="336.9" y1="28.8761" y2="0.5" /><line stroke="rgb(0%,0%,0%)" x1="336.9" x2="336.9" y1="55.9905" y2="45.0095" /><line stroke="rgb(0%,0%,0%)" x1="336.9" x2="336.9" y1="45.0095" y2="42.0741" /><line stroke="rgb(0%,0%,0%)" x1="336.9" x2="336.9" y1="42.0741" y2="38.9955" /><line stroke="rgb(0%,0%,0%)" x1="336.9" x2="336.9" y1="100.5" y2="72.1239" /><line stroke="rgb(0%,0%,0%)" x1="336.9" x2="336.9" y1="72.1239" y2="70.2072" /><line stroke="rgb(0%,0%,0%)" x1="336.9" x2="336.9" y1="70.2072" y2="67.8081" /><line stroke="rgb(0%,0%,0%)" x1="336.9" x2="336.9" y1="38.9955" y2="35.9743" /><line stroke="rgb(0%,0%,0%)" x1="336.9" x2="336.9" y1="35.9743" y2="33.1919" /><line stroke="rgb(0%,0%,0%)" x1="336.9" x2="336.9" y1="33.1919" y2="30.7928" /><line stroke="rgb(0%,0%,0%)" x1="336.9" x2="336.9" y1="30.7928" y2="28.8761" /><line stroke="rgb(0%,0%,0%)" x1="336.9" x2="336.9" y1="67.8081" y2="65.0257" /><line stroke="rgb(0%,0%,0%)" x1="336.9" x2="336.9" y1="65.0257" y2="62.0045" /><line stroke="rgb(0%,0%,0%)" x1="336.9" x2="336.9" y1="62.0045" y2="58.9259" /><line stroke="rgb(0%,0%,0%)" x1="336.9" x2="336.9" y1="58.9259" y2="55.9905" /><line stroke="rgb(0%,0%,0%)" x1="336.9" x2="310.8333" y1="100.5" y2="100.5" /><line stroke="rgb(0%,0%,0%)" x1="310.8333" x2="306.9" y1="100.5" y2="100.5" /><line stroke="rgb(0%,0%,0%)" x1="336.9" x2="310.8333" y1="0.5" y2="0.5" /><line stroke="rgb(0%,0%,0%)" x1="310.8333" x2="306.9" y1="0.5" y2="0.5" /></svg>