<?xml version="1.0" encoding="utf-8" ?>
<svg baseProfile="tiny" height="100%" version="1.2" width="100%" xmlns="http://www.w3.org/2000/svg" xmlns:ev="http://www.w3.org/2001/xml-events" xmlns:xlink="http://www.w3.org/1999/xlink"><defs /><line stroke="rgb(0%,0%,0%)" x1="306.9" x2="306.9" y1="0.5" y2="11.2704" /><line stroke="rgb(0%,0%,0%)" x1="306.9" x2="306.9" y1="11.2704" y2="12.6536" /><line stroke="rgb(0%,0%,0%)" x1="306.9" x2="306.9" y1="12.6536" y2="14.4972" /><line stroke="rgb(0%,0%,0%)" x1="306.9" x2="306.9" y1="90.7044" y2="100.5" /><line stroke="rgb(0%,0%,0%)" x1="306.9" x2="306.9" y1="27.2552" y2="73.7448" /><line stroke="rgb(0%,0%,0%)" x1="306.9" x2="306.9" y1="73.7448" y2="75.8604" /><line stroke="rgb(0%,0%,0%)" x1="306.9" x2="306.9" y1="75.8604" y2="78.5818" /><line stroke="rgb(0%,0%,0%)" x1="306.9" x2="306.9" y1="14.4972" y2="16.8122" /><line stroke="rgb(0%,0%,0%)" x1="306.9" x2="306.9" y1="16.8122" y2="19.5229" /><line stroke="rgb(0%,0%,0%)" x1="306.9" x2="306.9" y1="19.5229" y2="22.4182" /><line stroke="rgb(0%,0%,0%)" x1="306.9" x2="306.9" y1="22.4182" y2="25.1396" /><line stroke="rgb(0%,0%,0%)" x1="306.9" x2="306.9" y1="25.1396" y2="27.2552" /><line stroke="rgb(0%,0%,0%)" x1="306.9" x2="306.9" y1="78.5818" y2="81.4771" /><line stroke="rgb(0%,0%,0%)" x1="306.9" x2="306.9" y1="81.4771" y2="84.1878" /><line stroke="rgb(0%,0%,0%)" x1="306.9" x2="306.9" y1="84.1878" y2="86.5028" /><line stroke="rgb(0%,0%,0%)" x1="306.9" x2="306.9" y1="86.5028" y2="88.3464" /><line stroke="rgb(0%,0%,0%)" x1="306.9" x2="306.9" y1="88.3464" y2="89.7296" /><line stroke="rgb(0%,0%,0%)" x1="306.9" x2="306.9" y1="89.7296" y2="90.7044" /><line stroke="rgb(0%,0%,0%)" x1="336.9" x2="336.9" y1="29.2483" y2="0.5" /><line stroke="rgb(0%,0%,0%)" x1="336.9" x2="336.9" y1="55.4067" y2="45.5933" /><line stroke="rgb(0%,0%,0%)" x1="336.9" x2="336.9" y1="45.5933" y2="42.6195" /><line stroke="rgb(0%,0%,0%)" x1="336.9" x2="336.9" y1="42.6195" y2="39.5004" /><line stroke="rgb(0%,0%,0%)" x1="336.9" x2="336.9" y1="100.5" y2="71.7517" /><line stroke="rgb(0%,0%,0%)" x1="336.9" x2="336.9" y1="71.7517" y2="69.8099" /><line stroke="rgb(0%,0%,0%)" x1="336.9" x2="336.9" y1="69.8099" y2="67.3793" /><line stroke="rgb(0%,0%,0%)" x1="336.9" x2="336.9" y1="39.5004" y2="36.4396" /><line stroke="rgb(0%,0%,0%)" x1="336.9" x2="336.9" y1="36.4396" y2="33.6207" /><line stroke="rgb(0%,0%,0%)" x1="336.9" x2="336.9" y1="33.6207" y2="31.1901" /><line stroke="rgb(0%,0%,0%)" x1="336.9" x2="336.9" y1="31.1901" y2="29.2483" /><line stroke="rgb(0%,0%,0%)" x1="336.9" x2="336.9" y1="67.3793" y2="64.5604" /><line stroke="rgb(0%,0%,0%)" x1="336.9" x2="336.9" y1="64.5604" y2="61.4996" /><line stroke="rgb(0%,0%,0%)" x1="336.9" x2="336.9" y1="61.4996" y2="58.3805" /><line stroke="rgb(0%,0%,0%)" x1="336.9" x2="336.9" y1="58.3805" y2="55.4067" /><line stroke="rgb(0%,0%,0%)" x1="336.9" x2="311.2868" y1="100.5" y2="100.5" /><line stroke="rgb(0%,0%,0%)" x1="311.2868" x2="306.9" y1="100.5" y2="100.5" /><line stroke="rgb(0%,0%,0%)" x1="336.9" x2="311.2868" y1="0.5" y2="0.5" /><line stroke="rgb(0%,0%,0%)" x1="311.2868" x2="306.9" y1="0.5" y2="0.5" /></svg>