<?xml version="1.0" encoding="utf-8" ?>
<svg baseProfile="tiny" height="100%" version="1.2" width="100%" xmlns="http://www.w3.org/2000/svg" xmlns:ev="http://www.w3.org/2001/xml-events" xmlns:xlink="http://www.w3.org/1999/xlink"><defs /><line stroke="rgb(0%,0%,0%)" x1="306.9" x2="306.9" y1="0.5" y2="12.3837" /><line stroke="rgb(0%,0%,0%)" x1="306.9" x2="306.9" y1="12.3837" y2="13.9099" /><line stroke="rgb(0%,0%,0%)" x1="306.9" x2="306.9" y1="13.9099" y2="15.9441" /><line stroke="rgb(0%,0%,0%)" x1="306.9" x2="306.9" y1="89.6919" y2="100.5" /><line stroke="rgb(0%,0%,0%)" x1="306.9" x2="306.9" y1="30.0209" y2="70.9791" /><line stroke="rgb(0%,0%,0%)" x1="306.9" x2="306.9" y1="70.9791" y2="73.3134" /><line stroke="rgb(0%,0%,0%)" x1="306.9" x2="306.9" y1="73.3134" y2="76.3161" /><line stroke="rgb(0%,0%,0%)" x1="306.9" x2="306.9" y1="15.9441" y2="18.4984" /><line stroke="rgb(0%,0%,0%)" x1="306.9" x2="306.9" y1="18.4984" y2="21.4893" /><line stroke="rgb(0%,0%,0%)" x1="306.9" x2="306.9" y1="21.4893" y2="24.6839" /><line stroke="rgb(0%,0%,0%)" x1="306.9" x2="306.9" y1="24.6839" y2="27.6866" /><line stroke="rgb(0%,0%,0%)" x1="306.9" x2="306.9" y1="27.6866" y2="30.0209" /><line stroke="rgb(0%,0%,0%)" x1="306.9" x2="306.9" y1="76.3161" y2="79.5107" /><line stroke="rgb(0%,0%,0%)" x1="306.9" x2="306.9" y1="79.5107" y2="82.5016" /><line stroke="rgb(0%,0%,0%)" x1="306.9" x2="306.9" y1="82.5016" y2="85.0559" /><line stroke="rgb(0%,0%,0%)" x1="306.9" x2="306.9" y1="85.0559" y2="87.0901" /><line stroke="rgb(0%,0%,0%)" x1="306.9" x2="306.9" y1="87.0901" y2="88.6163" /><line stroke="rgb(0%,0%,0%)" x1="306.9" x2="306.9" y1="88.6163" y2="89.6919" /><line stroke="rgb(0%,0%,0%)" x1="336.9" x2="336.9" y1="29.6205" y2="0.5" /><line stroke="rgb(0%,0%,0%)" x1="336.9" x2="336.9" y1="54.8229" y2="46.1771" /><line stroke="rgb(0%,0%,0%)" x1="336.9" x2="336.9" y1="46.1771" y2="43.1648" /><line stroke="rgb(0%,0%,0%)" x1="336.9" x2="336.9" y1="43.1648" y2="40.0053" /><line stroke="rgb(0%,0%,0%)" x1="336.9" x2="336.9" y1="100.5" y2="71.3795" /><line stroke="rgb(0%,0%,0%)" x1="336.9" x2="336.9" y1="71.3795" y2="69.4125" /><line stroke="rgb(0%,0%,0%)" x1="336.9" x2="336.9" y1="69.4125" y2="66.9505" /><line stroke="rgb(0%,0%,0%)" x1="336.9" x2="336.9" y1="40.0053" y2="36.9049" /><line stroke="rgb(0%,0%,0%)" x1="336.9" x2="336.9" y1="36.9049" y2="34.0495" /><line stroke="rgb(0%,0%,0%)" x1="336.9" x2="336.9" y1="34.0495" y2="31.5875" /><line stroke="rgb(0%,0%,0%)" x1="336.9" x2="336.9" y1="31.5875" y2="29.6205" /><line stroke="rgb(0%,0%,0%)" x1="336.9" x2="336.9" y1="66.9505" y2="64.0951" /><line stroke="rgb(0%,0%,0%)" x1="336.9" x2="336.9" y1="64.0951" y2="60.9947" /><line stroke="rgb(0%,0%,0%)" x1="336.9" x2="336.9" y1="60.9947" y2="57.8352" /><line stroke="rgb(0%,0%,0%)" x1="336.9" x2="336.9" y1="57.8352" y2="54.8229" /><line stroke="rgb(0%,0%,0%)" x1="336.9" x2="311.7403" y1="100.5" y2="100.5" /><line stroke="rgb(0%,0%,0%)" x1="311.7403" x2="306.9" y1="100.5" y2="100.5" /><line stroke="rgb(0%,0%,0%)" x1="336.9" x2="311.7403" y1="0.5" y2="0.5" /><line stroke="rgb(0%,0%,0%)" x1="311.7403" x2="306.9" y1="0.5" y2="0.5" /></svg>