<?xml version="1.0" encoding="utf-8" ?>
<svg baseProfile="tiny" height="100%" version="1.2" width="100%" xmlns="http://www.w3.org/2000/svg" xmlns:ev="http://www.w3.org/2001/xml-events" xmlns:xlink="http://www.w3.org/1999/xlink"><defs /><line stroke="rgb(0%,0%,0%)" x1="306.9" x2="306.9" y1="0.5" y2="13.4971" /><line stroke="rgb(0%,0%,0%)" x1="306.9" x2="306.9" y1="13.4971" y2="15.1663" /><line stroke="rgb(0%,0%,0%)" x1="306.9" x2="306.9" y1="15.1663" y2="17.391" /><line stroke="rgb(0%,0%,0%)" x1="306.9" x2="306.9" y1="88.6793" y2="100.5" /><line stroke="rgb(0%,0%,0%)" x1="306.9" x2="306.9" y1="32.7866" y2="68.2134" /><line stroke="rgb(0%,0%,0%)" x1="306.9" x2="306.9" y1="68.2134" y2="70.7663" /><line stroke="rgb(0%,0%,0%)" x1="306.9" x2="306.9" y1="70.7663" y2="74.0504" /><line stroke="rgb(0%,0%,0%)" x1="306.9" x2="306.9" y1="17.391" y2="20.1846" /><line stroke="rgb(0%,0%,0%)" x1="306.9" x2="306.9" y1="20.1846" y2="23.4557" /><line stroke="rgb(0%,0%,0%)" x1="306.9" x2="306.9" y1="23.4557" y2="26.9496" /><line stroke="rgb(0%,0%,0%)" x1="306.9" x2="306.9" y1="26.9496" y2="30.2337" /><line stroke="rgb(0%,0%,0%)" x1="306.9" x2="306.9" y1="30.2337" y2="32.7866" /><line stroke="rgb(0%,0%,0%)" x1="306.9" x2="306.9" y1="74.0504" y2="77.5443" /><line stroke="rgb(0%,0%,0%)" x1="306.9" x2="306.9" y1="77.5443" y2="80.8154" /><line stroke="rgb(0%,0%,0%)" x1="306.9" x2="306.9" y1="80.8154" y2="83.609" /><line stroke="rgb(0%,0%,0%)" x1="306.9" x2="306.9" y1="83.609" y2="85.8337" /><line stroke="rgb(0%,0%,0%)" x1="306.9" x2="306.9" y1="85.8337" y2="87.5029" /><line stroke="rgb(0%,0%,0%)" x1="306.9" x2="306.9" y1="87.5029" y2="88.6793" /><line stroke="rgb(0%,0%,0%)" x1="336.9" x2="336.9" y1="29.9927" y2="0.5" /><line stroke="rgb(0%,0%,0%)" x1="336.9" x2="336.9" y1="54.2391" y2="46.7609" /><line stroke="rgb(0%,0%,0%)" x1="336.9" x2="336.9" y1="46.7609" y2="43.7101" /><line stroke="rgb(0%,0%,0%)" x1="336.9" x2="336.9" y1="43.7101" y2="40.5103" /><line stroke="rgb(0%,0%,0%)" x1="336.9" x2="336.9" y1="100.5" y2="71.0073" /><line stroke="rgb(0%,0%,0%)" x1="336.9" x2="336.9" y1="71.0073" y2="69.0152" /><line stroke="rgb(0%,0%,0%)" x1="336.9" x2="336.9" y1="69.0152" y2="66.5217" /><line stroke="rgb(0%,0%,0%)" x1="336.9" x2="336.9" y1="40.5103" y2="37.3702" /><line stroke="rgb(0%,0%,0%)" x1="336.9" x2="336.9" y1="37.3702" y2="34.4783" /><line stroke="rgb(0%,0%,0%)" x1="336.9" x2="336.9" y1="34.4783" y2="31.9848" /><line stroke="rgb(0%,0%,0%)" x1="336.9" x2="336.9" y1="31.9848" y2="29.9927" /><line stroke="rgb(0%,0%,0%)" x1="336.9" x2="336.9" y1="66.5217" y2="63.6298" /><line stroke="rgb(0%,0%,0%)" x1="336.9" x2="336.9" y1="63.6298" y2="60.4897" /><line stroke="rgb(0%,0%,0%)" x1="336.9" x2="336.9" y1="60.4897" y2="57.2899" /><line stroke="rgb(0%,0%,0%)" x1="336.9" x2="336.9" y1="57.2899" y2="54.2391" /><line stroke="rgb(0%,0%,0%)" x1="336.9" x2="312.1937" y1="100.5" y2="100.5" /><line stroke="rgb(0%,0%,0%)" x1="312.1937" x2="306.9" y1="100.5" y2="100.5" /><line stroke="rgb(0%,0%,0%)" x1="336.9" x2="312.1937" y1="0.5" y2="0.5" /><line stroke="rgb(0%,0%,0%)" x1="312.1937" x2="306.9" y1="0.5" y2="0.5" /></svg>