<?xml version="1.0" encoding="utf-8" ?>
<svg baseProfile="tiny" height="100%" version="1.2" width="100%" xmlns="http://www.w3.org/2000/svg" xmlns:ev="http://www.w3.org/2001/xml-events" xmlns:xlink="http://www.w3.org/1999/xlink"><defs /><line stroke="rgb(0%,0%,0%)" x1="306.9" x2="306.9" y1="0.5" y2="14.6104" /><line stroke="rgb(0%,0%,0%)" x1="306.9" x2="306.9" y1="14.6104" y2="16.4226" /><line stroke="rgb(0%,0%,0%)" x1="306.9" x2="306.9" y1="16.4226" y2="18.8379" /><line stroke="rgb(0%,0%,0%)" x1="306.9" x2="306.9" y1="87.6667" y2="100.5" /><line stroke="rgb(0%,0%,0%)" x1="306.9" x2="306.9" y1="35.5523" y2="65.4477" /><line stroke="rgb(0%,0%,0%)" x1="306.9" x2="306.9" y1="65.4477" y2="68.2193" /><line stroke="rgb(0%,0%,0%)" x1="306.9" x2="306.9" y1="68.2193" y2="71.7846" /><line stroke="rgb(0%,0%,0%)" x1="306.9" x2="306.9" y1="18.8379" y2="21.8708" /><line stroke="rgb(0%,0%,0%)" x1="306.9" x2="306.9" y1="21.8708" y2="25.4221" /><line stroke="rgb(0%,0%,0%)" x1="306.9" x2="306.9" y1="25.4221" y2="29.2154" /><line stroke="rgb(0%,0%,0%)" x1="306.9" x2="306.9" y1="29.2154" y2="32.7807" /><line stroke="rgb(0%,0%,0%)" x1="306.9" x2="306.9" y1="32.7807" y2="35.5523" /><line stroke="rgb(0%,0%,0%)" x1="306.9" x2="306.9" y1="71.7846" y2="75.5779" /><line stroke="rgb(0%,0%,0%)" x1="306.9" x2="306.9" y1="75.5779" y2="79.1292" /><line stroke="rgb(0%,0%,0%)" x1="306.9" x2="306.9" y1="79.1292" y2="82.1621" /><line stroke="rgb(0%,0%,0%)" x1="306.9" x2="306.9" y1="82.1621" y2="84.5774" /><line stroke="rgb(0%,0%,0%)" x1="306.9" x2="306.9" y1="84.5774" y2="86.3896" /><line stroke="rgb(0%,0%,0%)" x1="306.9" x2="306.9" y1="86.3896" y2="87.6667" /><line stroke="rgb(0%,0%,0%)" x1="336.9" x2="336.9" y1="30.3649" y2="0.5" /><line stroke="rgb(0%,0%,0%)" x1="336.9" x2="336.9" y1="53.6553" y2="47.3447" /><line stroke="rgb(0%,0%,0%)" x1="336.9" x2="336.9" y1="47.3447" y2="44.2554" /><line stroke="rgb(0%,0%,0%)" x1="336.9" x2="336.9" y1="44.2554" y2="41.0152" /><line stroke="rgb(0%,0%,0%)" x1="336.9" x2="336.9" y1="100.5" y2="70.6351" /><line stroke="rgb(0%,0%,0%)" x1="336.9" x2="336.9" y1="70.6351" y2="68.6179" /><line stroke="rgb(0%,0%,0%)" x1="336.9" x2="336.9" y1="68.6179" y2="66.0929" /><line stroke="rgb(0%,0%,0%)" x1="336.9" x2="336.9" y1="41.0152" y2="37.8355" /><line stroke="rgb(0%,0%,0%)" x1="336.9" x2="336.9" y1="37.8355" y2="34.9071" /><line stroke="rgb(0%,0%,0%)" x1="336.9" x2="336.9" y1="34.9071" y2="32.3821" /><line stroke="rgb(0%,0%,0%)" x1="336.9" x2="336.9" y1="32.3821" y2="30.3649" /><line stroke="rgb(0%,0%,0%)" x1="336.9" x2="336.9" y1="66.0929" y2="63.1645" /><line stroke="rgb(0%,0%,0%)" x1="336.9" x2="336.9" y1="63.1645" y2="59.9848" /><line stroke="rgb(0%,0%,0%)" x1="336.9" x2="336.9" y1="59.9848" y2="56.7446" /><line stroke="rgb(0%,0%,0%)" x1="336.9" x2="336.9" y1="56.7446" y2="53.6553" /><line stroke="rgb(0%,0%,0%)" x1="336.9" x2="312.6472" y1="100.5" y2="100.5" /><line stroke="rgb(0%,0%,0%)" x1="312.6472" x2="306.9" y1="100.5" y2="100.5" /><line stroke="rgb(0%,0%,0%)" x1="336.9" x2="312.6472" y1="0.5" y2="0.5" /><line stroke="rgb(0%,0%,0%)" x1="312.6472" x2="306.9" y1="0.5" y2="0.5" /></svg>