<?xml version="1.0" encoding="utf-8" ?>
<svg baseProfile="tiny" height="100%" version="1.2" width="100%" xmlns="http://www.w3.org/2000/svg" xmlns:ev="http://www.w3.org/2001/xml-events" xmlns:xlink="http://www.w3.org/1999/xlink"><defs /><line stroke="rgb(0%,0%,0%)" x1="351.9" x2="351.9" y1="0.5" y2="30.3094" /><line stroke="rgb(0%,0%,0%)" x1="351.9" x2="351.9" y1="30.3094" y2="100.5" /><line stroke="rgb(0%,0%,0%)" x1="300.131" x2="340.9418" y1="100.5" y2="100.5" /><line stroke="rgb(0%,0%,0%)" x1="340.9418" x2="342.3651" y1="100.5" y2="100.5" /><line stroke="rgb(0%,0%,0%)" x1="342.3651" x2="343.9911" y1="100.5" y2="100.5" /><line stroke="rgb(0%,0%,0%)" x1="343.9911" x2="345.7957" y1="100.5" y2="100.5" /><line stroke="rgb(0%,0%,0%)" x1="345.7957" x2="347.7449" y1="100.5" y2="100.5" /><line stroke="rgb(0%,0%,0%)" x1="347.7449" x2="349.7961" y1="100.5" y2="100.5" /><line stroke="rgb(0%,0%,0%)" x1="349.7961" x2="351.9" y1="100.5" y2="100.5" /><line stroke="rgb(0%,0%,0%)" x1="300.131" x2="69.9214" y1="100.5" y2="100.5" /><line stroke="rgb(0%,0%,0%)" x1="69.9214" x2="0.5" y1="100.5" y2="100.5" /><line stroke="rgb(0%,0%,0%)" x1="0.5" x2="69.9214" y1="0.5" y2="0.5" /><line stroke="rgb(0%,0%,0%)" x1="69.9214" x2="300.131" y1="0.5" y2="0.5" /><line stroke="rgb(0%,0%,0%)" x1="300.131" x2="340.9418" y1="0.5" y2="0.5" /><line stroke="rgb(0%,0%,0%)" x1="340.9418" x2="342.3651" y1="0.5" y2="0.5" /><line stroke="rgb(0%,0%,0%)" x1="342.3651" x2="343.9911" y1="0.5" y2="0.5" /><line stroke="rgb(0%,0%,0%)" x1="343.9911" x2="345.7957" y1="0.5" y2="0.5" /><line stroke="rgb(0%,0%,0%)" x1="345.7957" x2="347.7449" y1="0.5" y2="0.5" /><line stroke="rgb(0%,0%,0%)" x1="347.7449" x2="349.7961" y1="0.5" y2="0.5" /><line stroke="rgb(0%,0%,0%)" x1="349.7961" x2="351.9" y1="0.5" y2="0.5" /><line stroke="rgb(0%,0%,0%)" x1="0.5" x2="0.5" y1="0.5" y2="66.0121" /><line stroke="rgb(0%,0%,0%)" x1="0.5" x2="0.5" y1="66.0121" y2="100.5" /><line stroke="rgb(0%,0%,0%)" x1="165.1722" x2="165.2739" y1="47.3813" y2="48.3489" /><line stroke="rgb(0%,0%,0%)" x1="165.2739" x2="165.5" y1="48.3489" y2="50.5" /><line stroke="rgb(0%,0%,0%)" x1="165.5" x2="165.3983" y1="50.5" y2="51.4675" /><line stroke="rgb(0%,0%,0%)" x1="165.3983" x2="165.1722" y1="51.4675" y2="53.6187" /><line stroke="rgb(0%,0%,0%)" x1="165.1722" x2="164.8716" y1="53.6187" y2="54.5439" /><line stroke="rgb(0%,0%,0%)" x1="164.8716" x2="164.2032" y1="54.5439" y2="56.6011" /><line stroke="rgb(0%,0%,0%)" x1="164.2032" x2="163.7167" y1="56.6011" y2="57.4436" /><line stroke="rgb(0%,0%,0%)" x1="163.7167" x2="162.6353" y1="57.4436" y2="59.3168" /><line stroke="rgb(0%,0%,0%)" x1="162.6353" x2="161.9843" y1="59.3168" y2="60.0398" /><line stroke="rgb(0%,0%,0%)" x1="161.9843" x2="160.537" y1="60.0398" y2="61.6472" /><line stroke="rgb(0%,0%,0%)" x1="160.537" x2="159.7499" y1="61.6472" y2="62.219" /><line stroke="rgb(0%,0%,0%)" x1="159.7499" x2="158.0" y1="62.219" y2="63.4904" /><line stroke="rgb(0%,0%,0%)" x1="158.0" x2="157.1112" y1="63.4904" y2="63.8861" /><line stroke="rgb(0%,0%,0%)" x1="157.1112" x2="155.1353" y1="63.8861" y2="64.7658" /><line stroke="rgb(0%,0%,0%)" x1="155.1353" x2="154.1836" y1="64.7658" y2="64.9681" /><line stroke="rgb(0%,0%,0%)" x1="154.1836" x2="152.0679" y1="64.9681" y2="65.4178" /><line stroke="rgb(0%,0%,0%)" x1="152.0679" x2="151.095" y1="65.4178" y2="65.4178" /><line stroke="rgb(0%,0%,0%)" x1="151.095" x2="148.9321" y1="65.4178" y2="65.4178" /><line stroke="rgb(0%,0%,0%)" x1="148.9321" x2="147.9805" y1="65.4178" y2="65.2156" /><line stroke="rgb(0%,0%,0%)" x1="147.9805" x2="145.8647" y1="65.2156" y2="64.7658" /><line stroke="rgb(0%,0%,0%)" x1="145.8647" x2="144.976" y1="64.7658" y2="64.3701" /><line stroke="rgb(0%,0%,0%)" x1="144.976" x2="143.0" y1="64.3701" y2="63.4904" /><line stroke="rgb(0%,0%,0%)" x1="143.0" x2="142.2129" y1="63.4904" y2="62.9185" /><line stroke="rgb(0%,0%,0%)" x1="142.2129" x2="140.463" y1="62.9185" y2="61.6472" /><line stroke="rgb(0%,0%,0%)" x1="140.463" x2="139.8121" y1="61.6472" y2="60.9242" /><line stroke="rgb(0%,0%,0%)" x1="139.8121" x2="138.3647" y1="60.9242" y2="59.3168" /><line stroke="rgb(0%,0%,0%)" x1="138.3647" x2="137.8783" y1="59.3168" y2="58.4742" /><line stroke="rgb(0%,0%,0%)" x1="137.8783" x2="136.7968" y1="58.4742" y2="56.6011" /><line stroke="rgb(0%,0%,0%)" x1="136.7968" x2="136.4962" y1="56.6011" y2="55.6758" /><line stroke="rgb(0%,0%,0%)" x1="136.4962" x2="135.8278" y1="55.6758" y2="53.6187" /><line stroke="rgb(0%,0%,0%)" x1="135.8278" x2="135.7261" y1="53.6187" y2="52.6511" /><line stroke="rgb(0%,0%,0%)" x1="135.7261" x2="135.5" y1="52.6511" y2="50.5" /><line stroke="rgb(0%,0%,0%)" x1="135.5" x2="135.6017" y1="50.5" y2="49.5325" /><line stroke="rgb(0%,0%,0%)" x1="135.6017" x2="135.8278" y1="49.5325" y2="47.3813" /><line stroke="rgb(0%,0%,0%)" x1="135.8278" x2="136.1284" y1="47.3813" y2="46.4561" /><line stroke="rgb(0%,0%,0%)" x1="136.1284" x2="136.7968" y1="46.4561" y2="44.3989" /><line stroke="rgb(0%,0%,0%)" x1="136.7968" x2="137.2833" y1="44.3989" y2="43.5564" /><line stroke="rgb(0%,0%,0%)" x1="137.2833" x2="138.3647" y1="43.5564" y2="41.6832" /><line stroke="rgb(0%,0%,0%)" x1="138.3647" x2="139.0157" y1="41.6832" y2="40.9602" /><line stroke="rgb(0%,0%,0%)" x1="139.0157" x2="140.463" y1="40.9602" y2="39.3528" /><line stroke="rgb(0%,0%,0%)" x1="140.463" x2="141.2501" y1="39.3528" y2="38.781" /><line stroke="rgb(0%,0%,0%)" x1="141.2501" x2="143.0" y1="38.781" y2="37.5096" /><line stroke="rgb(0%,0%,0%)" x1="143.0" x2="143.8888" y1="37.5096" y2="37.1139" /><line stroke="rgb(0%,0%,0%)" x1="143.8888" x2="145.8647" y1="37.1139" y2="36.2342" /><line stroke="rgb(0%,0%,0%)" x1="145.8647" x2="146.8164" y1="36.2342" y2="36.0319" /><line stroke="rgb(0%,0%,0%)" x1="146.8164" x2="148.9321" y1="36.0319" y2="35.5822" /><line stroke="rgb(0%,0%,0%)" x1="148.9321" x2="149.9049" y1="35.5822" y2="35.5822" /><line stroke="rgb(0%,0%,0%)" x1="149.9049" x2="152.0679" y1="35.5822" y2="35.5822" /><line stroke="rgb(0%,0%,0%)" x1="152.0679" x2="153.0195" y1="35.5822" y2="35.7844" /><line stroke="rgb(0%,0%,0%)" x1="153.0195" x2="155.1353" y1="35.7844" y2="36.2342" /><line stroke="rgb(0%,0%,0%)" x1="155.1353" x2="156.024" y1="36.2342" y2="36.6299" /><line stroke="rgb(0%,0%,0%)" x1="156.024" x2="158.0" y1="36.6299" y2="37.5096" /><line stroke="rgb(0%,0%,0%)" x1="158.0" x2="158.7871" y1="37.5096" y2="38.0815" /><line stroke="rgb(0%,0%,0%)" x1="158.7871" x2="160.537" y1="38.0815" y2="39.3528" /><line stroke="rgb(0%,0%,0%)" x1="160.537" x2="161.1879" y1="39.3528" y2="40.0758" /><line stroke="rgb(0%,0%,0%)" x1="161.1879" x2="162.6353" y1="40.0758" y2="41.6832" /><line stroke="rgb(0%,0%,0%)" x1="162.6353" x2="163.1217" y1="41.6832" y2="42.5258" /><line stroke="rgb(0%,0%,0%)" x1="163.1217" x2="164.2032" y1="42.5258" y2="44.3989" /><line stroke="rgb(0%,0%,0%)" x1="164.2032" x2="164.5038" y1="44.3989" y2="45.3242" /><line stroke="rgb(0%,0%,0%)" x1="164.5038" x2="165.1722" y1="45.3242" y2="47.3813" /><line stroke="rgb(0%,0%,0%)" x1="65.1722" x2="65.2739" y1="47.3813" y2="48.3489" /><line stroke="rgb(0%,0%,0%)" x1="65.2739" x2="65.5" y1="48.3489" y2="50.5" /><line stroke="rgb(0%,0%,0%)" x1="65.5" x2="65.3983" y1="50.5" y2="51.4675" /><line stroke="rgb(0%,0%,0%)" x1="65.3983" x2="65.1722" y1="51.4675" y2="53.6187" /><line stroke="rgb(0%,0%,0%)" x1="65.1722" x2="64.8716" y1="53.6187" y2="54.5439" /><line stroke="rgb(0%,0%,0%)" x1="64.8716" x2="64.2032" y1="54.5439" y2="56.6011" /><line stroke="rgb(0%,0%,0%)" x1="64.2032" x2="63.7167" y1="56.6011" y2="57.4436" /><line stroke="rgb(0%,0%,0%)" x1="63.7167" x2="62.6352" y1="57.4436" y2="59.3168" /><line stroke="rgb(0%,0%,0%)" x1="62.6352" x2="61.9843" y1="59.3168" y2="60.0398" /><line stroke="rgb(0%,0%,0%)" x1="61.9843" x2="60.537" y1="60.0398" y2="61.6472" /><line stroke="rgb(0%,0%,0%)" x1="60.537" x2="59.7499" y1="61.6472" y2="62.219" /><line stroke="rgb(0%,0%,0%)" x1="59.7499" x2="58.0" y1="62.219" y2="63.4904" /><line stroke="rgb(0%,0%,0%)" x1="58.0" x2="57.1112" y1="63.4904" y2="63.8861" /><line stroke="rgb(0%,0%,0%)" x1="57.1112" x2="55.1353" y1="63.8861" y2="64.7658" /><line stroke="rgb(0%,0%,0%)" x1="55.1353" x2="54.1836" y1="64.7658" y2="64.9681" /><line stroke="rgb(0%,0%,0%)" x1="54.1836" x2="52.0679" y1="64.9681" y2="65.4178" /><line stroke="rgb(0%,0%,0%)" x1="52.0679" x2="51.095" y1="65.4178" y2="65.4178" /><line stroke="rgb(0%,0%,0%)" x1="51.095" x2="48.9321" y1="65.4178" y2="65.4178" /><line stroke="rgb(0%,0%,0%)" x1="48.9321" x2="47.9804" y1="65.4178" y2="65.2156" /><line stroke="rgb(0%,0%,0%)" x1="47.9804" x2="45.8647" y1="65.2156" y2="64.7658" /><line stroke="rgb(0%,0%,0%)" x1="45.8647" x2="44.976" y1="64.7658" y2="64.3701" /><line stroke="rgb(0%,0%,0%)" x1="44.976" x2="43.0" y1="64.3701" y2="63.4904" /><line stroke="rgb(0%,0%,0%)" x1="43.0" x2="42.2129" y1="63.4904" y2="62.9185" /><line stroke="rgb(0%,0%,0%)" x1="42.2129" x2="40.463" y1="62.9185" y2="61.6472" /><line stroke="rgb(0%,0%,0%)" x1="40.463" x2="39.8121" y1="61.6472" y2="60.9242" /><line stroke="rgb(0%,0%,0%)" x1="39.8121" x2="38.3647" y1="60.9242" y2="59.3168" /><line stroke="rgb(0%,0%,0%)" x1="38.3647" x2="37.8783" y1="59.3168" y2="58.4742" /><line stroke="rgb(0%,0%,0%)" x1="37.8783" x2="36.7968" y1="58.4742" y2="56.6011" /><line stroke="rgb(0%,0%,0%)" x1="36.7968" x2="36.4962" y1="56.6011" y2="55.6758" /><line stroke="rgb(0%,0%,0%)" x1="36.4962" x2="35.8278" y1="55.6758" y2="53.6187" /><line stroke="rgb(0%,0%,0%)" x1="35.8278" x2="35.7261" y1="53.6187" y2="52.6511" /><line stroke="rgb(0%,0%,0%)" x1="35.7261" x2="35.5" y1="52.6511" y2="50.5" /><line stroke="rgb(0%,0%,0%)" x1="35.5" x2="35.6017" y1="50.5" y2="49.5325" /><line stroke="rgb(0%,0%,0%)" x1="35.6017" x2="35.8278" y1="49.5325" y2="47.3813" /><line stroke="rgb(0%,0%,0%)" x1="35.8278" x2="36.1284" y1="47.3813" y2="46.4561" /><line stroke="rgb(0%,0%,0%)" x1="36.1284" x2="36.7968" y1="46.4561" y2="44.3989" /><line stroke="rgb(0%,0%,0%)" x1="36.7968" x2="37.2832" y1="44.3989" y2="43.5564" /><line stroke="rgb(0%,0%,0%)" x1="37.2832" x2="38.3647" y1="43.5564" y2="41.6832" /><line stroke="rgb(0%,0%,0%)" x1="38.3647" x2="39.0157" y1="41.6832" y2="40.9602" /><line stroke="rgb(0%,0%,0%)" x1="39.0157" x2="40.463" y1="40.9602" y2="39.3528" /><line stroke="rgb(0%,0%,0%)" x1="40.463" x2="41.2501" y1="39.3528" y2="38.781" /><line stroke="rgb(0%,0%,0%)" x1="41.2501" x2="43.0" y1="38.781" y2="37.5096" /><line stroke="rgb(0%,0%,0%)" x1="43.0" x2="43.8888" y1="37.5096" y2="37.1139" /><line stroke="rgb(0%,0%,0%)" x1="43.8888" x2="45.8647" y1="37.1139" y2="36.2342" /><line stroke="rgb(0%,0%,0%)" x1="45.8647" x2="46.8164" y1="36.2342" y2="36.0319" /><line stroke="rgb(0%,0%,0%)" x1="46.8164" x2="48.9321" y1="36.0319" y2="35.5822" /><line stroke="rgb(0%,0%,0%)" x1="48.9321" x2="49.9049" y1="35.5822" y2="35.5822" /><line stroke="rgb(0%,0%,0%)" x1="49.9049" x2="52.0679" y1="35.5822" y2="35.5822" /><line stroke="rgb(0%,0%,0%)" x1="52.0679" x2="53.0195" y1="35.5822" y2="35.7844" /><line stroke="rgb(0%,0%,0%)" x1="53.0195" x2="55.1353" y1="35.7844" y2="36.2342" /><line stroke="rgb(0%,0%,0%)" x1="55.1353" x2="56.024" y1="36.2342" y2="36.6299" /><line stroke="rgb(0%,0%,0%)" x1="56.024" x2="58.0" y1="36.6299" y2="37.5096" /><line stroke="rgb(0%,0%,0%)" x1="58.0" x2="58.7871" y1="37.5096" y2="38.0815" /><line stroke="rgb(0%,0%,0%)" x1="58.7871" x2="60.537" y1="38.0815" y2="39.3528" /><line stroke="rgb(0%,0%,0%)" x1="60.537" x2="61.1879" y1="39.3528" y2="40.0758" /><line stroke="rgb(0%,0%,0%)" x1="61.1879" x2="62.6352" y1="40.0758" y2="41.6832" /><line stroke="rgb(0%,0%,0%)" x1="62.6352" x2="63.1217" y1="41.6832" y2="42.5258" /><line stroke="rgb(0%,0%,0%)" x1="63.1217" x2="64.2032" y1="42.5258" y2="44.3989" /><line stroke="rgb(0%,0%,0%)" x1="64.2032" x2="64.5038" y1="44.3989" y2="45.3242" /><line stroke="rgb(0%,0%,0%)" x1="64.5038" x2="65.1722" y1="45.3242" y2="47.3813" /></svg>