<?xml version="1.0" encoding="utf-8" ?>
<svg baseProfile="tiny" height="100%" version="1.2" width="100%" xmlns="http://www.w3.org/2000/svg" xmlns:ev="http://www.w3.org/2001/xml-events" xmlns:xlink="http://www.w3.org/1999/xlink"><defs /><line stroke="rgb(0%,0%,0%)" x1="306.9" x2="306.9" y1="0.5" y2="15.7238" /><line stroke="rgb(0%,0%,0%)" x1="306.9" x2="306.9" y1="15.7238" y2="17.6789" /><line stroke="rgb(0%,0%,0%)" x1="306.9" x2="306.9" y1="17.6789" y2="20.2848" /><line stroke="rgb(0%,0%,0%)" x1="306.9" x2="306.9" y1="86.6541" y2="100.5" /><line stroke="rgb(0%,0%,0%)" x1="306.9" x2="306.9" y1="38.318" y2="62.682" /><line stroke="rgb(0%,0%,0%)" x1="306.9" x2="306.9" y1="62.682" y2="65.6723" /><line stroke="rgb(0%,0%,0%)" x1="306.9" x2="306.9" y1="65.6723" y2="69.5189" /><line stroke="rgb(0%,0%,0%)" x1="306.9" x2="306.9" y1="20.2848" y2="23.557" /><line stroke="rgb(0%,0%,0%)" x1="306.9" x2="306.9" y1="23.557" y2="27.3886" /><line stroke="rgb(0%,0%,0%)" x1="306.9" x2="306.9" y1="27.3886" y2="31.4811" /><line stroke="rgb(0%,0%,0%)" x1="306.9" x2="306.9" y1="31.4811" y2="35.3277" /><line stroke="rgb(0%,0%,0%)" x1="306.9" x2="306.9" y1="35.3277" y2="38.318" /><line stroke="rgb(0%,0%,0%)" x1="306.9" x2="306.9" y1="69.5189" y2="73.6114" /><line stroke="rgb(0%,0%,0%)" x1="306.9" x2="306.9" y1="73.6114" y2="77.443" /><line stroke="rgb(0%,0%,0%)" x1="306.9" x2="306.9" y1="77.443" y2="80.7152" /><line stroke="rgb(0%,0%,0%)" x1="306.9" x2="306.9" y1="80.7152" y2="83.3211" /><line stroke="rgb(0%,0%,0%)" x1="306.9" x2="306.9" y1="83.3211" y2="85.2762" /><line stroke="rgb(0%,0%,0%)" x1="306.9" x2="306.9" y1="85.2762" y2="86.6541" /><line stroke="rgb(0%,0%,0%)" x1="336.9" x2="336.9" y1="30.7371" y2="0.5" /><line stroke="rgb(0%,0%,0%)" x1="336.9" x2="336.9" y1="53.0715" y2="47.9285" /><line stroke="rgb(0%,0%,0%)" x1="336.9" x2="336.9" y1="47.9285" y2="44.8007" /><line stroke="rgb(0%,0%,0%)" x1="336.9" x2="336.9" y1="44.8007" y2="41.5201" /><line stroke="rgb(0%,0%,0%)" x1="336.9" x2="336.9" y1="100.5" y2="70.2629" /><line stroke="rgb(0%,0%,0%)" x1="336.9" x2="336.9" y1="70.2629" y2="68.2205" /><line stroke="rgb(0%,0%,0%)" x1="336.9" x2="336.9" y1="68.2205" y2="65.6641" /><line stroke="rgb(0%,0%,0%)" x1="336.9" x2="336.9" y1="41.5201" y2="38.3008" /><line stroke="rgb(0%,0%,0%)" x1="336.9" x2="336.9" y1="38.3008" y2="35.3359" /><line stroke="rgb(0%,0%,0%)" x1="336.9" x2="336.9" y1="35.3359" y2="32.7795" /><line stroke="rgb(0%,0%,0%)" x1="336.9" x2="336.9" y1="32.7795" y2="30.7371" /><line stroke="rgb(0%,0%,0%)" x1="336.9" x2="336.9" y1="65.6641" y2="62.6992" /><line stroke="rgb(0%,0%,0%)" x1="336.9" x2="336.9" y1="62.6992" y2="59.4799" /><line stroke="rgb(0%,0%,0%)" x1="336.9" x2="336.9" y1="59.4799" y2="56.1993" /><line stroke="rgb(0%,0%,0%)" x1="336.9" x2="336.9" y1="56.1993" y2="53.0715" /><line stroke="rgb(0%,0%,0%)" x1="336.9" x2="313.1006" y1="100.5" y2="100.5" /><line stroke="rgb(0%,0%,0%)" x1="313.1006" x2="306.9" y1="100.5" y2="100.5" /><line stroke="rgb(0%,0%,0%)" x1="336.9" x2="313.1006" y1="0.5" y2="0.5" /><line stroke="rgb(0%,0%,0%)" x1="313.1006" x2="306.9" y1="0.5" y2="0.5" /></svg>