<?xml version="1.0" encoding="utf-8" ?>
<svg baseProfile="tiny" height="100%" version="1.2" width="100%" xmlns="http://www.w3.org/2000/svg" xmlns:ev="http://www.w3.org/2001/xml-events" xmlns:xlink="http://www.w3.org/1999/xlink"><defs /><line stroke="rgb(0%,0%,0%)" x1="306.9" x2="306.9" y1="0.5" y2="16.8371" /><line stroke="rgb(0%,0%,0%)" x1="306.9" x2="306.9" y1="16.8371" y2="18.9353" /><line stroke="rgb(0%,0%,0%)" x1="306.9" x2="306.9" y1="18.9353" y2="21.7317" /><line stroke="rgb(0%,0%,0%)" x1="306.9" x2="306.9" y1="85.6416" y2="100.5" /><line stroke="rgb(0%,0%,0%)" x1="306.9" x2="306.9" y1="41.0837" y2="59.9163" /><line stroke="rgb(0%,0%,0%)" x1="306.9" x2="306.9" y1="59.9163" y2="63.1253" /><line stroke="rgb(0%,0%,0%)" x1="306.9" x2="306.9" y1="63.1253" y2="67.2532" /><line stroke="rgb(0%,0%,0%)" x1="306.9" x2="306.9" y1="21.7317" y2="25.2432" /><line stroke="rgb(0%,0%,0%)" x1="306.9" x2="306.9" y1="25.2432" y2="29.355" /><line stroke="rgb(0%,0%,0%)" x1="306.9" x2="306.9" y1="29.355" y2="33.7468" /><line stroke="rgb(0%,0%,0%)" x1="306.9" x2="306.9" y1="33.7468" y2="37.8747" /><line stroke="rgb(0%,0%,0%)" x1="306.9" x2="306.9" y1="37.8747" y2="41.0837" /><line stroke="rgb(0%,0%,0%)" x1="306.9" x2="306.9" y1="67.2532" y2="71.645" /><line stroke="rgb(0%,0%,0%)" x1="306.9" x2="306.9" y1="71.645" y2="75.7568" /><line stroke="rgb(0%,0%,0%)" x1="306.9" x2="306.9" y1="75.7568" y2="79.2683" /><line stroke="rgb(0%,0%,0%)" x1="306.9" x2="306.9" y1="79.2683" y2="82.0647" /><line stroke="rgb(0%,0%,0%)" x1="306.9" x2="306.9" y1="82.0647" y2="84.1629" /><line stroke="rgb(0%,0%,0%)" x1="306.9" x2="306.9" y1="84.1629" y2="85.6416" /><line stroke="rgb(0%,0%,0%)" x1="336.9" x2="336.9" y1="31.1093" y2="0.5" /><line stroke="rgb(0%,0%,0%)" x1="336.9" x2="336.9" y1="52.4877" y2="48.5123" /><line stroke="rgb(0%,0%,0%)" x1="336.9" x2="336.9" y1="48.5123" y2="45.346" /><line stroke="rgb(0%,0%,0%)" x1="336.9" x2="336.9" y1="45.346" y2="42.025" /><line stroke="rgb(0%,0%,0%)" x1="336.9" x2="336.9" y1="100.5" y2="69.8907" /><line stroke="rgb(0%,0%,0%)" x1="336.9" x2="336.9" y1="69.8907" y2="67.8232" /><line stroke="rgb(0%,0%,0%)" x1="336.9" x2="336.9" y1="67.8232" y2="65.2353" /><line stroke="rgb(0%,0%,0%)" x1="336.9" x2="336.9" y1="42.025" y2="38.7661" /><line stroke="rgb(0%,0%,0%)" x1="336.9" x2="336.9" y1="38.7661" y2="35.7647" /><line stroke="rgb(0%,0%,0%)" x1="336.9" x2="336.9" y1="35.7647" y2="33.1768" /><line stroke="rgb(0%,0%,0%)" x1="336.9" x2="336.9" y1="33.1768" y2="31.1093" /><line stroke="rgb(0%,0%,0%)" x1="336.9" x2="336.9" y1="65.2353" y2="62.2339" /><line stroke="rgb(0%,0%,0%)" x1="336.9" x2="336.9" y1="62.2339" y2="58.975" /><line stroke="rgb(0%,0%,0%)" x1="336.9" x2="336.9" y1="58.975" y2="55.654" /><line stroke="rgb(0%,0%,0%)" x1="336.9" x2="336.9" y1="55.654" y2="52.4877" /><line stroke="rgb(0%,0%,0%)" x1="336.9" x2="313.5541" y1="100.5" y2="100.5" /><line stroke="rgb(0%,0%,0%)" x1="313.5541" x2="306.9" y1="100.5" y2="100.5" /><line stroke="rgb(0%,0%,0%)" x1="336.9" x2="313.5541" y1="0.5" y2="0.5" /><line stroke="rgb(0%,0%,0%)" x1="313.5541" x2="306.9" y1="0.5" y2="0.5" /></svg>