<?xml version="1.0" encoding="utf-8" ?>
<svg baseProfile="tiny" height="100%" version="1.2" width="100%" xmlns="http://www.w3.org/2000/svg" xmlns:ev="http://www.w3.org/2001/xml-events" xmlns:xlink="http://www.w3.org/1999/xlink"><defs /><line stroke="rgb(0%,0%,0%)" x1="306.9" x2="306.9" y1="0.5" y2="17.9505" /><line stroke="rgb(0%,0%,0%)" x1="306.9" x2="306.9" y1="17.9505" y2="20.1916" /><line stroke="rgb(0%,0%,0%)" x1="306.9" x2="306.9" y1="20.1916" y2="23.1786" /><line stroke="rgb(0%,0%,0%)" x1="306.9" x2="306.9" y1="84.629" y2="100.5" /><line stroke="rgb(0%,0%,0%)" x1="306.9" x2="306.9" y1="43.8494" y2="57.1506" /><line stroke="rgb(0%,0%,0%)" x1="306.9" x2="306.9" y1="57.1506" y2="60.5783" /><line stroke="rgb(0%,0%,0%)" x1="306.9" x2="306.9" y1="60.5783" y2="64.9875" /><line stroke="rgb(0%,0%,0%)" x1="306.9" x2="306.9" y1="23.1786" y2="26.9294" /><line stroke="rgb(0%,0%,0%)" x1="306.9" x2="306.9" y1="26.9294" y2="31.3214" /><line stroke="rgb(0%,0%,0%)" x1="306.9" x2="306.9" y1="31.3214" y2="36.0125" /><line stroke="rgb(0%,0%,0%)" x1="306.9" x2="306.9" y1="36.0125" y2="40.4217" /><line stroke="rgb(0%,0%,0%)" x1="306.9" x2="306.9" y1="40.4217" y2="43.8494" /><line stroke="rgb(0%,0%,0%)" x1="306.9" x2="306.9" y1="64.9875" y2="69.6786" /><line stroke="rgb(0%,0%,0%)" x1="306.9" x2="306.9" y1="69.6786" y2="74.0706" /><line stroke="rgb(0%,0%,0%)" x1="306.9" x2="306.9" y1="74.0706" y2="77.8214" /><line stroke="rgb(0%,0%,0%)" x1="306.9" x2="306.9" y1="77.8214" y2="80.8084" /><line stroke="rgb(0%,0%,0%)" x1="306.9" x2="306.9" y1="80.8084" y2="83.0495" /><line stroke="rgb(0%,0%,0%)" x1="306.9" x2="306.9" y1="83.0495" y2="84.629" /><line stroke="rgb(0%,0%,0%)" x1="336.9" x2="336.9" y1="31.4814" y2="0.5" /><line stroke="rgb(0%,0%,0%)" x1="336.9" x2="336.9" y1="51.9039" y2="49.0961" /><line stroke="rgb(0%,0%,0%)" x1="336.9" x2="336.9" y1="49.0961" y2="45.8913" /><line stroke="rgb(0%,0%,0%)" x1="336.9" x2="336.9" y1="45.8913" y2="42.53" /><line stroke="rgb(0%,0%,0%)" x1="336.9" x2="336.9" y1="100.5" y2="69.5186" /><line stroke="rgb(0%,0%,0%)" x1="336.9" x2="336.9" y1="69.5186" y2="67.4259" /><line stroke="rgb(0%,0%,0%)" x1="336.9" x2="336.9" y1="67.4259" y2="64.8065" /><line stroke="rgb(0%,0%,0%)" x1="336.9" x2="336.9" y1="42.53" y2="39.2314" /><line stroke="rgb(0%,0%,0%)" x1="336.9" x2="336.9" y1="39.2314" y2="36.1935" /><line stroke="rgb(0%,0%,0%)" x1="336.9" x2="336.9" y1="36.1935" y2="33.5741" /><line stroke="rgb(0%,0%,0%)" x1="336.9" x2="336.9" y1="33.5741" y2="31.4814" /><line stroke="rgb(0%,0%,0%)" x1="336.9" x2="336.9" y1="64.8065" y2="61.7686" /><line stroke="rgb(0%,0%,0%)" x1="336.9" x2="336.9" y1="61.7686" y2="58.47" /><line stroke="rgb(0%,0%,0%)" x1="336.9" x2="336.9" y1="58.47" y2="55.1087" /><line stroke="rgb(0%,0%,0%)" x1="336.9" x2="336.9" y1="55.1087" y2="51.9039" /><line stroke="rgb(0%,0%,0%)" x1="336.9" x2="314.0076" y1="100.5" y2="100.5" /><line stroke="rgb(0%,0%,0%)" x1="314.0076" x2="306.9" y1="100.5" y2="100.5" /><line stroke="rgb(0%,0%,0%)" x1="336.9" x2="314.0076" y1="0.5" y2="0.5" /><line stroke="rgb(0%,0%,0%)" x1="314.0076" x2="306.9" y1="0.5" y2="0.5" /></svg>