<?xml version="1.0" encoding="utf-8" ?>
<svg baseProfile="tiny" height="100%" version="1.2" width="100%" xmlns="http://www.w3.org/2000/svg" xmlns:ev="http://www.w3.org/2001/xml-events" xmlns:xlink="http://www.w3.org/1999/xlink"><defs /><line stroke="rgb(0%,0%,0%)" x1="306.9" x2="306.9" y1="0.5" y2="19.0638" /><line stroke="rgb(0%,0%,0%)" x1="306.9" x2="306.9" y1="19.0638" y2="21.4479" /><line stroke="rgb(0%,0%,0%)" x1="306.9" x2="306.9" y1="21.4479" y2="24.6255" /><line stroke="rgb(0%,0%,0%)" x1="306.9" x2="306.9" y1="83.6164" y2="100.5" /><line stroke="rgb(0%,0%,0%)" x1="306.9" x2="306.9" y1="46.6151" y2="54.3849" /><line stroke="rgb(0%,0%,0%)" x1="306.9" x2="306.9" y1="54.3849" y2="58.0313" /><line stroke="rgb(0%,0%,0%)" x1="306.9" x2="306.9" y1="58.0313" y2="62.7218" /><line stroke="rgb(0%,0%,0%)" x1="306.9" x2="306.9" y1="24.6255" y2="28.6156" /><line stroke="rgb(0%,0%,0%)" x1="306.9" x2="306.9" y1="28.6156" y2="33.2878" /><line stroke="rgb(0%,0%,0%)" x1="306.9" x2="306.9" y1="33.2878" y2="38.2782" /><line stroke="rgb(0%,0%,0%)" x1="306.9" x2="306.9" y1="38.2782" y2="42.9687" /><line stroke="rgb(0%,0%,0%)" x1="306.9" x2="306.9" y1="42.9687" y2="46.6151" /><line stroke="rgb(0%,0%,0%)" x1="306.9" x2="306.9" y1="62.7218" y2="67.7122" /><line stroke="rgb(0%,0%,0%)" x1="306.9" x2="306.9" y1="67.7122" y2="72.3844" /><line stroke="rgb(0%,0%,0%)" x1="306.9" x2="306.9" y1="72.3844" y2="76.3745" /><line stroke="rgb(0%,0%,0%)" x1="306.9" x2="306.9" y1="76.3745" y2="79.5521" /><line stroke="rgb(0%,0%,0%)" x1="306.9" x2="306.9" y1="79.5521" y2="81.9362" /><line stroke="rgb(0%,0%,0%)" x1="306.9" x2="306.9" y1="81.9362" y2="83.6164" /><line stroke="rgb(0%,0%,0%)" x1="336.9" x2="336.9" y1="31.8536" y2="0.5" /><line stroke="rgb(0%,0%,0%)" x1="336.9" x2="336.9" y1="51.3201" y2="49.6799" /><line stroke="rgb(0%,0%,0%)" x1="336.9" x2="336.9" y1="49.6799" y2="46.4366" /><line stroke="rgb(0%,0%,0%)" x1="336.9" x2="336.9" y1="46.4366" y2="43.0349" /><line stroke="rgb(0%,0%,0%)" x1="336.9" x2="336.9" y1="100.5" y2="69.1464" /><line stroke="rgb(0%,0%,0%)" x1="336.9" x2="336.9" y1="69.1464" y2="67.0285" /><line stroke="rgb(0%,0%,0%)" x1="336.9" x2="336.9" y1="67.0285" y2="64.3777" /><line stroke="rgb(0%,0%,0%)" x1="336.9" x2="336.9" y1="43.0349" y2="39.6967" /><line stroke="rgb(0%,0%,0%)" x1="336.9" x2="336.9" y1="39.6967" y2="36.6223" /><line stroke="rgb(0%,0%,0%)" x1="336.9" x2="336.9" y1="36.6223" y2="33.9715" /><line stroke="rgb(0%,0%,0%)" x1="336.9" x2="336.9" y1="33.9715" y2="31.8536" /><line stroke="rgb(0%,0%,0%)" x1="336.9" x2="336.9" y1="64.3777" y2="61.3033" /><line stroke="rgb(0%,0%,0%)" x1="336.9" x2="336.9" y1="61.3033" y2="57.9651" /><line stroke="rgb(0%,0%,0%)" x1="336.9" x2="336.9" y1="57.9651" y2="54.5634" /><line stroke="rgb(0%,0%,0%)" x1="336.9" x2="336.9" y1="54.5634" y2="51.3201" /><line stroke="rgb(0%,0%,0%)" x1="336.9" x2="314.461" y1="100.5" y2="100.5" /><line stroke="rgb(0%,0%,0%)" x1="314.461" x2="306.9" y1="100.5" y2="100.5" /><line stroke="rgb(0%,0%,0%)" x1="336.9" x2="314.461" y1="0.5" y2="0.5" /><line stroke="rgb(0%,0%,0%)" x1="314.461" x2="306.9" y1="0.5" y2="0.5" /></svg>