<?xml version="1.0" encoding="utf-8" ?>
<svg baseProfile="tiny" height="100%" version="1.2" width="100%" xmlns="http://www.w3.org/2000/svg" xmlns:ev="http://www.w3.org/2001/xml-events" xmlns:xlink="http://www.w3.org/1999/xlink"><defs /><line stroke="rgb(0%,0%,0%)" x1="306.9" x2="306.9" y1="0.5" y2="20.1771" /><line stroke="rgb(0%,0%,0%)" x1="306.9" x2="306.9" y1="20.1771" y2="22.7042" /><line stroke="rgb(0%,0%,0%)" x1="306.9" x2="306.9" y1="22.7042" y2="26.0724" /><line stroke="rgb(0%,0%,0%)" x1="306.9" x2="306.9" y1="82.6038" y2="100.5" /><line stroke="rgb(0%,0%,0%)" x1="306.9" x2="306.9" y1="49.3808" y2="51.6192" /><line stroke="rgb(0%,0%,0%)" x1="306.9" x2="306.9" y1="51.6192" y2="55.4843" /><line stroke="rgb(0%,0%,0%)" x1="306.9" x2="306.9" y1="55.4843" y2="60.4561" /><line stroke="rgb(0%,0%,0%)" x1="306.9" x2="306.9" y1="26.0724" y2="30.3018" /><line stroke="rgb(0%,0%,0%)" x1="306.9" x2="306.9" y1="30.3018" y2="35.2542" /><line stroke="rgb(0%,0%,0%)" x1="306.9" x2="306.9" y1="35.2542" y2="40.5439" /><line stroke="rgb(0%,0%,0%)" x1="306.9" x2="306.9" y1="40.5439" y2="45.5157" /><line stroke="rgb(0%,0%,0%)" x1="306.9" x2="306.9" y1="45.5157" y2="49.3808" /><line stroke="rgb(0%,0%,0%)" x1="306.9" x2="306.9" y1="60.4561" y2="65.7458" /><line stroke="rgb(0%,0%,0%)" x1="306.9" x2="306.9" y1="65.7458" y2="70.6982" /><line stroke="rgb(0%,0%,0%)" x1="306.9" x2="306.9" y1="70.6982" y2="74.9276" /><line stroke="rgb(0%,0%,0%)" x1="306.9" x2="306.9" y1="74.9276" y2="78.2958" /><line stroke="rgb(0%,0%,0%)" x1="306.9" x2="306.9" y1="78.2958" y2="80.8229" /><line stroke="rgb(0%,0%,0%)" x1="306.9" x2="306.9" y1="80.8229" y2="82.6038" /><line stroke="rgb(0%,0%,0%)" x1="336.9" x2="336.9" y1="32.2258" y2="0.5" /><line stroke="rgb(0%,0%,0%)" x1="336.9" x2="336.9" y1="50.7363" y2="50.2637" /><line stroke="rgb(0%,0%,0%)" x1="336.9" x2="336.9" y1="50.2637" y2="46.9819" /><line stroke="rgb(0%,0%,0%)" x1="336.9" x2="336.9" y1="46.9819" y2="43.5398" /><line stroke="rgb(0%,0%,0%)" x1="336.9" x2="336.9" y1="100.5" y2="68.7742" /><line stroke="rgb(0%,0%,0%)" x1="336.9" x2="336.9" y1="68.7742" y2="66.6312" /><line stroke="rgb(0%,0%,0%)" x1="336.9" x2="336.9" y1="66.6312" y2="63.9489" /><line stroke="rgb(0%,0%,0%)" x1="336.9" x2="336.9" y1="43.5398" y2="40.162" /><line stroke="rgb(0%,0%,0%)" x1="336.9" x2="336.9" y1="40.162" y2="37.0511" /><line stroke="rgb(0%,0%,0%)" x1="336.9" x2="336.9" y1="37.0511" y2="34.3688" /><line stroke="rgb(0%,0%,0%)" x1="336.9" x2="336.9" y1="34.3688" y2="32.2258" /><line stroke="rgb(0%,0%,0%)" x1="336.9" x2="336.9" y1="63.9489" y2="60.838" /><line stroke="rgb(0%,0%,0%)" x1="336.9" x2="336.9" y1="60.838" y2="57.4602" /><line stroke="rgb(0%,0%,0%)" x1="336.9" x2="336.9" y1="57.4602" y2="54.0181" /><line stroke="rgb(0%,0%,0%)" x1="336.9" x2="336.9" y1="54.0181" y2="50.7363" /><line stroke="rgb(0%,0%,0%)" x1="336.9" x2="314.9145" y1="100.5" y2="100.5" /><line stroke="rgb(0%,0%,0%)" x1="314.9145" x2="306.9" y1="100.5" y2="100.5" /><line stroke="rgb(0%,0%,0%)" x1="336.9" x2="314.9145" y1="0.5" y2="0.5" /><line stroke="rgb(0%,0%,0%)" x1="314.9145" x2="306.9" y1="0.5" y2="0.5" /></svg>