<?xml version="1.0" encoding="utf-8" ?>
<svg baseProfile="tiny" height="100%" version="1.2" width="100%" xmlns="http://www.w3.org/2000/svg" xmlns:ev="http://www.w3.org/2001/xml-events" xmlns:xlink="http://www.w3.org/1999/xlink"><defs /><line stroke="rgb(0%,0%,0%)" x1="306.9" x2="306.9" y1="0.5" y2="21.2905" /><line stroke="rgb(0%,0%,0%)" x1="306.9" x2="306.9" y1="21.2905" y2="23.9606" /><line stroke="rgb(0%,0%,0%)" x1="306.9" x2="306.9" y1="23.9606" y2="27.5193" /><line stroke="rgb(0%,0%,0%)" x1="306.9" x2="306.9" y1="81.5913" y2="100.5" /><line stroke="rgb(0%,0%,0%)" x1="306.9" x2="306.9" y1="58.1904" y2="54.4421" /><line stroke="rgb(0%,0%,0%)" x1="306.9" x2="306.9" y1="27.5193" y2="31.988" /><line stroke="rgb(0%,0%,0%)" x1="306.9" x2="306.9" y1="31.988" y2="37.2206" /><line stroke="rgb(0%,0%,0%)" x1="306.9" x2="306.9" y1="37.2206" y2="42.8096" /><line stroke="rgb(0%,0%,0%)" x1="306.9" x2="306.9" y1="46.5579" y2="42.8096" /><line stroke="rgb(0%,0%,0%)" x1="306.9" x2="306.9" y1="58.1904" y2="63.7794" /><line stroke="rgb(0%,0%,0%)" x1="306.9" x2="306.9" y1="63.7794" y2="69.012" /><line stroke="rgb(0%,0%,0%)" x1="306.9" x2="306.9" y1="69.012" y2="73.4807" /><line stroke="rgb(0%,0%,0%)" x1="306.9" x2="306.9" y1="73.4807" y2="77.0394" /><line stroke="rgb(0%,0%,0%)" x1="306.9" x2="306.9" y1="77.0394" y2="79.7095" /><line stroke="rgb(0%,0%,0%)" x1="306.9" x2="306.9" y1="79.7095" y2="81.5913" /><line stroke="rgb(0%,0%,0%)" x1="336.9" x2="336.9" y1="32.598" y2="0.5" /><line stroke="rgb(0%,0%,0%)" x1="336.9" x2="336.9" y1="44.0447" y2="46.5579" /><line stroke="rgb(0%,0%,0%)" x1="336.9" x2="336.9" y1="100.5" y2="68.402" /><line stroke="rgb(0%,0%,0%)" x1="336.9" x2="336.9" y1="68.402" y2="66.2339" /><line stroke="rgb(0%,0%,0%)" x1="336.9" x2="336.9" y1="66.2339" y2="63.5201" /><line stroke="rgb(0%,0%,0%)" x1="336.9" x2="336.9" y1="44.0447" y2="40.6273" /><line stroke="rgb(0%,0%,0%)" x1="336.9" x2="336.9" y1="40.6273" y2="37.4799" /><line stroke="rgb(0%,0%,0%)" x1="336.9" x2="336.9" y1="37.4799" y2="34.7661" /><line stroke="rgb(0%,0%,0%)" x1="336.9" x2="336.9" y1="34.7661" y2="32.598" /><line stroke="rgb(0%,0%,0%)" x1="336.9" x2="336.9" y1="63.5201" y2="60.3727" /><line stroke="rgb(0%,0%,0%)" x1="336.9" x2="336.9" y1="60.3727" y2="56.9553" /><line stroke="rgb(0%,0%,0%)" x1="336.9" x2="336.9" y1="56.9553" y2="54.4421" /><line stroke="rgb(0%,0%,0%)" x1="336.9" x2="315.368" y1="100.5" y2="100.5" /><line stroke="rgb(0%,0%,0%)" x1="315.368" x2="306.9" y1="100.5" y2="100.5" /><line stroke="rgb(0%,0%,0%)" x1="336.9" x2="315.368" y1="0.5" y2="0.5" /><line stroke="rgb(0%,0%,0%)" x1="315.368" x2="306.9" y1="0.5" y2="0.5" /><line stroke="rgb(0%,0%,0%)" x1="336.9" x2="315.1825" y1="46.5579" y2="46.5579" /><line stroke="rgb(0%,0%,0%)" x1="315.1825" x2="306.9" y1="46.5579" y2="46.5579" /><line stroke="rgb(0%,0%,0%)" x1="336.9" x2="328.6175" y1="54.4421" y2="54.4421" /><line stroke="rgb(0%,0%,0%)" x1="328.6175" x2="306.9" y1="54.4421" y2="54.4421" /></svg>