<?xml version="1.0" encoding="utf-8" ?>
<svg baseProfile="tiny" height="100%" version="1.2" width="100%" xmlns="http://www.w3.org/2000/svg" xmlns:ev="http://www.w3.org/2001/xml-events" xmlns:xlink="http://www.w3.org/1999/xlink"><defs /><line stroke="rgb(0%,0%,0%)" x1="306.9" x2="306.9" y1="0.5" y2="22.4038" /><line stroke="rgb(0%,0%,0%)" x1="306.9" x2="306.9" y1="22.4038" y2="25.2169" /><line stroke="rgb(0%,0%,0%)" x1="306.9" x2="306.9" y1="25.2169" y2="28.9661" /><line stroke="rgb(0%,0%,0%)" x1="306.9" x2="306.9" y1="80.5787" y2="100.5" /><line stroke="rgb(0%,0%,0%)" x1="306.9" x2="306.9" y1="28.9661" y2="33.6742" /><line stroke="rgb(0%,0%,0%)" x1="306.9" x2="306.9" y1="33.6742" y2="39.187" /><line stroke="rgb(0%,0%,0%)" x1="306.9" x2="306.9" y1="39.187" y2="43.8819" /><line stroke="rgb(0%,0%,0%)" x1="306.9" x2="306.9" y1="57.1181" y2="61.813" /><line stroke="rgb(0%,0%,0%)" x1="306.9" x2="306.9" y1="61.813" y2="67.3258" /><line stroke="rgb(0%,0%,0%)" x1="306.9" x2="306.9" y1="67.3258" y2="72.0338" /><line stroke="rgb(0%,0%,0%)" x1="306.9" x2="306.9" y1="72.0338" y2="75.7831" /><line stroke="rgb(0%,0%,0%)" x1="306.9" x2="306.9" y1="75.7831" y2="78.5962" /><line stroke="rgb(0%,0%,0%)" x1="306.9" x2="306.9" y1="78.5962" y2="80.5787" /><line stroke="rgb(0%,0%,0%)" x1="336.9" x2="336.9" y1="32.9702" y2="0.5" /><line stroke="rgb(0%,0%,0%)" x1="336.9" x2="336.9" y1="100.5" y2="68.0298" /><line stroke="rgb(0%,0%,0%)" x1="336.9" x2="336.9" y1="68.0298" y2="65.8365" /><line stroke="rgb(0%,0%,0%)" x1="336.9" x2="336.9" y1="65.8365" y2="63.0913" /><line stroke="rgb(0%,0%,0%)" x1="336.9" x2="336.9" y1="43.8819" y2="41.0926" /><line stroke="rgb(0%,0%,0%)" x1="336.9" x2="336.9" y1="41.0926" y2="37.9087" /><line stroke="rgb(0%,0%,0%)" x1="336.9" x2="336.9" y1="37.9087" y2="35.1635" /><line stroke="rgb(0%,0%,0%)" x1="336.9" x2="336.9" y1="35.1635" y2="32.9702" /><line stroke="rgb(0%,0%,0%)" x1="336.9" x2="336.9" y1="63.0913" y2="59.9074" /><line stroke="rgb(0%,0%,0%)" x1="336.9" x2="336.9" y1="59.9074" y2="57.1181" /><line stroke="rgb(0%,0%,0%)" x1="336.9" x2="315.8214" y1="100.5" y2="100.5" /><line stroke="rgb(0%,0%,0%)" x1="315.8214" x2="306.9" y1="100.5" y2="100.5" /><line stroke="rgb(0%,0%,0%)" x1="336.9" x2="315.8214" y1="0.5" y2="0.5" /><line stroke="rgb(0%,0%,0%)" x1="315.8214" x2="306.9" y1="0.5" y2="0.5" /><line stroke="rgb(0%,0%,0%)" x1="336.9" x2="312.6113" y1="43.8819" y2="43.8819" /><line stroke="rgb(0%,0%,0%)" x1="312.6113" x2="306.9" y1="43.8819" y2="43.8819" /><line stroke="rgb(0%,0%,0%)" x1="336.9" x2="331.1887" y1="57.1181" y2="57.1181" /><line stroke="rgb(0%,0%,0%)" x1="331.1887" x2="306.9" y1="57.1181" y2="57.1181" /></svg>