<?xml version="1.0" encoding="utf-8" ?>
<svg baseProfile="tiny" height="100%" version="1.2" width="100%" xmlns="http://www.w3.org/2000/svg" xmlns:ev="http://www.w3.org/2001/xml-events" xmlns:xlink="http://www.w3.org/1999/xlink"><defs /><line stroke="rgb(0%,0%,0%)" x1="306.9" x2="306.9" y1="0.5" y2="23.5172" /><line stroke="rgb(0%,0%,0%)" x1="306.9" x2="306.9" y1="23.5172" y2="26.4732" /><line stroke="rgb(0%,0%,0%)" x1="306.9" x2="306.9" y1="26.4732" y2="30.413" /><line stroke="rgb(0%,0%,0%)" x1="306.9" x2="306.9" y1="79.5661" y2="100.5" /><line stroke="rgb(0%,0%,0%)" x1="306.9" x2="306.9" y1="30.413" y2="35.3604" /><line stroke="rgb(0%,0%,0%)" x1="306.9" x2="306.9" y1="35.3604" y2="41.1534" /><line stroke="rgb(0%,0%,0%)" x1="306.9" x2="306.9" y1="41.1534" y2="42.1499" /><line stroke="rgb(0%,0%,0%)" x1="306.9" x2="306.9" y1="58.8501" y2="59.8466" /><line stroke="rgb(0%,0%,0%)" x1="306.9" x2="306.9" y1="59.8466" y2="65.6396" /><line stroke="rgb(0%,0%,0%)" x1="306.9" x2="306.9" y1="65.6396" y2="70.587" /><line stroke="rgb(0%,0%,0%)" x1="306.9" x2="306.9" y1="70.587" y2="74.5268" /><line stroke="rgb(0%,0%,0%)" x1="306.9" x2="306.9" y1="74.5268" y2="77.4828" /><line stroke="rgb(0%,0%,0%)" x1="306.9" x2="306.9" y1="77.4828" y2="79.5661" /><line stroke="rgb(0%,0%,0%)" x1="336.9" x2="336.9" y1="33.3424" y2="0.5" /><line stroke="rgb(0%,0%,0%)" x1="336.9" x2="336.9" y1="100.5" y2="67.6576" /><line stroke="rgb(0%,0%,0%)" x1="336.9" x2="336.9" y1="67.6576" y2="65.4392" /><line stroke="rgb(0%,0%,0%)" x1="336.9" x2="336.9" y1="65.4392" y2="62.6625" /><line stroke="rgb(0%,0%,0%)" x1="336.9" x2="336.9" y1="42.1499" y2="41.5579" /><line stroke="rgb(0%,0%,0%)" x1="336.9" x2="336.9" y1="41.5579" y2="38.3375" /><line stroke="rgb(0%,0%,0%)" x1="336.9" x2="336.9" y1="38.3375" y2="35.5608" /><line stroke="rgb(0%,0%,0%)" x1="336.9" x2="336.9" y1="35.5608" y2="33.3424" /><line stroke="rgb(0%,0%,0%)" x1="336.9" x2="336.9" y1="62.6625" y2="59.4421" /><line stroke="rgb(0%,0%,0%)" x1="336.9" x2="336.9" y1="59.4421" y2="58.8501" /><line stroke="rgb(0%,0%,0%)" x1="336.9" x2="316.2749" y1="100.5" y2="100.5" /><line stroke="rgb(0%,0%,0%)" x1="316.2749" x2="306.9" y1="100.5" y2="100.5" /><line stroke="rgb(0%,0%,0%)" x1="336.9" x2="316.2749" y1="0.5" y2="0.5" /><line stroke="rgb(0%,0%,0%)" x1="316.2749" x2="306.9" y1="0.5" y2="0.5" /><line stroke="rgb(0%,0%,0%)" x1="336.9" x2="331.7449" y1="42.1499" y2="42.1499" /><line stroke="rgb(0%,0%,0%)" x1="331.7449" x2="306.9" y1="42.1499" y2="42.1499" /><line stroke="rgb(0%,0%,0%)" x1="336.9" x2="312.0551" y1="58.8501" y2="58.8501" /><line stroke="rgb(0%,0%,0%)" x1="312.0551" x2="306.9" y1="58.8501" y2="58.8501" /></svg>