<?xml version="1.0" encoding="utf-8" ?>
<svg baseProfile="tiny" height="100%" version="1.2" width="100%" xmlns="http://www.w3.org/2000/svg" xmlns:ev="http://www.w3.org/2001/xml-events" xmlns:xlink="http://www.w3.org/1999/xlink"><defs /><line stroke="rgb(0%,0%,0%)" x1="306.9" x2="306.9" y1="0.5" y2="24.6305" /><line stroke="rgb(0%,0%,0%)" x1="306.9" x2="306.9" y1="24.6305" y2="27.7295" /><line stroke="rgb(0%,0%,0%)" x1="306.9" x2="306.9" y1="27.7295" y2="31.8599" /><line stroke="rgb(0%,0%,0%)" x1="306.9" x2="306.9" y1="78.5535" y2="100.5" /><line stroke="rgb(0%,0%,0%)" x1="306.9" x2="306.9" y1="31.8599" y2="37.0466" /><line stroke="rgb(0%,0%,0%)" x1="306.9" x2="306.9" y1="37.0466" y2="40.8718" /><line stroke="rgb(0%,0%,0%)" x1="306.9" x2="306.9" y1="63.9534" y2="60.1282" /><line stroke="rgb(0%,0%,0%)" x1="306.9" x2="306.9" y1="63.9534" y2="69.1401" /><line stroke="rgb(0%,0%,0%)" x1="306.9" x2="306.9" y1="69.1401" y2="73.2705" /><line stroke="rgb(0%,0%,0%)" x1="306.9" x2="306.9" y1="73.2705" y2="76.3695" /><line stroke="rgb(0%,0%,0%)" x1="306.9" x2="306.9" y1="76.3695" y2="78.5535" /><line stroke="rgb(0%,0%,0%)" x1="336.9" x2="336.9" y1="33.7146" y2="0.5" /><line stroke="rgb(0%,0%,0%)" x1="336.9" x2="336.9" y1="100.5" y2="67.2854" /><line stroke="rgb(0%,0%,0%)" x1="336.9" x2="336.9" y1="67.2854" y2="65.0418" /><line stroke="rgb(0%,0%,0%)" x1="336.9" x2="336.9" y1="65.0418" y2="62.2337" /><line stroke="rgb(0%,0%,0%)" x1="336.9" x2="336.9" y1="38.7663" y2="40.8718" /><line stroke="rgb(0%,0%,0%)" x1="336.9" x2="336.9" y1="38.7663" y2="35.9582" /><line stroke="rgb(0%,0%,0%)" x1="336.9" x2="336.9" y1="35.9582" y2="33.7146" /><line stroke="rgb(0%,0%,0%)" x1="336.9" x2="336.9" y1="60.1282" y2="62.2337" /><line stroke="rgb(0%,0%,0%)" x1="336.9" x2="316.7284" y1="100.5" y2="100.5" /><line stroke="rgb(0%,0%,0%)" x1="316.7284" x2="306.9" y1="100.5" y2="100.5" /><line stroke="rgb(0%,0%,0%)" x1="336.9" x2="316.7284" y1="0.5" y2="0.5" /><line stroke="rgb(0%,0%,0%)" x1="316.7284" x2="306.9" y1="0.5" y2="0.5" /><line stroke="rgb(0%,0%,0%)" x1="336.9" x2="317.3452" y1="40.8718" y2="40.8718" /><line stroke="rgb(0%,0%,0%)" x1="317.3452" x2="306.9" y1="40.8718" y2="40.8718" /><line stroke="rgb(0%,0%,0%)" x1="336.9" x2="326.4548" y1="60.1282" y2="60.1282" /><line stroke="rgb(0%,0%,0%)" x1="326.4548" x2="306.9" y1="60.1282" y2="60.1282" /></svg>