<?xml version="1.0" encoding="utf-8" ?>
<svg baseProfile="tiny" height="100%" version="1.2" width="100%" xmlns="http://www.w3.org/2000/svg" xmlns:ev="http://www.w3.org/2001/xml-events" xmlns:xlink="http://www.w3.org/1999/xlink"><defs /><line stroke="rgb(0%,0%,0%)" x1="306.9" x2="306.9" y1="0.5" y2="25.7438" /><line stroke="rgb(0%,0%,0%)" x1="306.9" x2="306.9" y1="25.7438" y2="28.9859" /><line stroke="rgb(0%,0%,0%)" x1="306.9" x2="306.9" y1="28.9859" y2="33.3068" /><line stroke="rgb(0%,0%,0%)" x1="306.9" x2="306.9" y1="77.541" y2="100.5" /><line stroke="rgb(0%,0%,0%)" x1="306.9" x2="306.9" y1="33.3068" y2="38.7328" /><line stroke="rgb(0%,0%,0%)" x1="306.9" x2="306.9" y1="38.7328" y2="39.7612" /><line stroke="rgb(0%,0%,0%)" x1="306.9" x2="306.9" y1="62.2672" y2="61.2388" /><line stroke="rgb(0%,0%,0%)" x1="306.9" x2="306.9" y1="62.2672" y2="67.6932" /><line stroke="rgb(0%,0%,0%)" x1="306.9" x2="306.9" y1="67.6932" y2="72.0141" /><line stroke="rgb(0%,0%,0%)" x1="306.9" x2="306.9" y1="72.0141" y2="75.2562" /><line stroke="rgb(0%,0%,0%)" x1="306.9" x2="306.9" y1="75.2562" y2="77.541" /><line stroke="rgb(0%,0%,0%)" x1="336.9" x2="336.9" y1="34.0868" y2="0.5" /><line stroke="rgb(0%,0%,0%)" x1="336.9" x2="336.9" y1="100.5" y2="66.9132" /><line stroke="rgb(0%,0%,0%)" x1="336.9" x2="336.9" y1="66.9132" y2="64.6445" /><line stroke="rgb(0%,0%,0%)" x1="336.9" x2="336.9" y1="64.6445" y2="61.8049" /><line stroke="rgb(0%,0%,0%)" x1="336.9" x2="336.9" y1="39.1951" y2="39.7612" /><line stroke="rgb(0%,0%,0%)" x1="336.9" x2="336.9" y1="39.1951" y2="36.3555" /><line stroke="rgb(0%,0%,0%)" x1="336.9" x2="336.9" y1="36.3555" y2="34.0868" /><line stroke="rgb(0%,0%,0%)" x1="336.9" x2="336.9" y1="61.2388" y2="61.8049" /><line stroke="rgb(0%,0%,0%)" x1="336.9" x2="317.1818" y1="100.5" y2="100.5" /><line stroke="rgb(0%,0%,0%)" x1="317.1818" x2="306.9" y1="100.5" y2="100.5" /><line stroke="rgb(0%,0%,0%)" x1="336.9" x2="317.1818" y1="0.5" y2="0.5" /><line stroke="rgb(0%,0%,0%)" x1="317.1818" x2="306.9" y1="0.5" y2="0.5" /><line stroke="rgb(0%,0%,0%)" x1="336.9" x2="331.6426" y1="39.7612" y2="39.7612" /><line stroke="rgb(0%,0%,0%)" x1="331.6426" x2="306.9" y1="39.7612" y2="39.7612" /><line stroke="rgb(0%,0%,0%)" x1="336.9" x2="312.1574" y1="61.2388" y2="61.2388" /><line stroke="rgb(0%,0%,0%)" x1="312.1574" x2="306.9" y1="61.2388" y2="61.2388" /></svg>