<?xml version="1.0" encoding="utf-8" ?>
<svg baseProfile="tiny" height="100%" version="1.2" width="100%" xmlns="http://www.w3.org/2000/svg" xmlns:ev="http://www.w3.org/2001/xml-events" xmlns:xlink="http://www.w3.org/1999/xlink"><defs /><line stroke="rgb(0%,0%,0%)" x1="351.9" x2="351.9" y1="0.5" y2="31.1735" /><line stroke="rgb(0%,0%,0%)" x1="351.9" x2="351.9" y1="31.1735" y2="100.5" /><line stroke="rgb(0%,0%,0%)" x1="298.6305" x2="340.6242" y1="100.5" y2="100.5" /><line stroke="rgb(0%,0%,0%)" x1="340.6242" x2="342.0887" y1="100.5" y2="100.5" /><line stroke="rgb(0%,0%,0%)" x1="342.0887" x2="343.7619" y1="100.5" y2="100.5" /><line stroke="rgb(0%,0%,0%)" x1="343.7619" x2="345.6188" y1="100.5" y2="100.5" /><line stroke="rgb(0%,0%,0%)" x1="345.6188" x2="347.6245" y1="100.5" y2="100.5" /><line stroke="rgb(0%,0%,0%)" x1="347.6245" x2="349.7351" y1="100.5" y2="100.5" /><line stroke="rgb(0%,0%,0%)" x1="349.7351" x2="351.9" y1="100.5" y2="100.5" /><line stroke="rgb(0%,0%,0%)" x1="298.6305" x2="71.9336" y1="100.5" y2="100.5" /><line stroke="rgb(0%,0%,0%)" x1="71.9336" x2="0.5" y1="100.5" y2="100.5" /><line stroke="rgb(0%,0%,0%)" x1="0.5" x2="71.9336" y1="0.5" y2="0.5" /><line stroke="rgb(0%,0%,0%)" x1="71.9336" x2="298.6305" y1="0.5" y2="0.5" /><line stroke="rgb(0%,0%,0%)" x1="298.6305" x2="340.6242" y1="0.5" y2="0.5" /><line stroke="rgb(0%,0%,0%)" x1="340.6242" x2="342.0887" y1="0.5" y2="0.5" /><line stroke="rgb(0%,0%,0%)" x1="342.0887" x2="343.7619" y1="0.5" y2="0.5" /><line stroke="rgb(0%,0%,0%)" x1="343.7619" x2="345.6188" y1="0.5" y2="0.5" /><line stroke="rgb(0%,0%,0%)" x1="345.6188" x2="347.6245" y1="0.5" y2="0.5" /><line stroke="rgb(0%,0%,0%)" x1="347.6245" x2="349.7351" y1="0.5" y2="0.5" /><line stroke="rgb(0%,0%,0%)" x1="349.7351" x2="351.9" y1="0.5" y2="0.5" /><line stroke="rgb(0%,0%,0%)" x1="0.5" x2="0.5" y1="0.5" y2="65.0125" /><line stroke="rgb(0%,0%,0%)" x1="0.5" x2="0.5" y1="65.0125" y2="100.5" /><line stroke="rgb(0%,0%,0%)" x1="165.1722" x2="165.2674" y1="47.3813" y2="48.2865" /><line stroke="rgb(0%,0%,0%)" x1="165.2674" x2="165.5" y1="48.2865" y2="50.5" /><line stroke="rgb(0%,0%,0%)" x1="165.5" x2="165.4049" y1="50.5" y2="51.4052" /><line stroke="rgb(0%,0%,0%)" x1="165.4049" x2="165.1722" y1="51.4052" y2="53.6187" /><line stroke="rgb(0%,0%,0%)" x1="165.1722" x2="164.891" y1="53.6187" y2="54.4843" /><line stroke="rgb(0%,0%,0%)" x1="164.891" x2="164.2032" y1="54.4843" y2="56.6011" /><line stroke="rgb(0%,0%,0%)" x1="164.2032" x2="163.7481" y1="56.6011" y2="57.3893" /><line stroke="rgb(0%,0%,0%)" x1="163.7481" x2="162.6353" y1="57.3893" y2="59.3168" /><line stroke="rgb(0%,0%,0%)" x1="162.6353" x2="162.0262" y1="59.3168" y2="59.9932" /><line stroke="rgb(0%,0%,0%)" x1="162.0262" x2="160.537" y1="59.9932" y2="61.6472" /><line stroke="rgb(0%,0%,0%)" x1="160.537" x2="159.8006" y1="61.6472" y2="62.1822" /><line stroke="rgb(0%,0%,0%)" x1="159.8006" x2="158.0" y1="62.1822" y2="63.4904" /><line stroke="rgb(0%,0%,0%)" x1="158.0" x2="157.1685" y1="63.4904" y2="63.8606" /><line stroke="rgb(0%,0%,0%)" x1="157.1685" x2="155.1353" y1="63.8606" y2="64.7658" /><line stroke="rgb(0%,0%,0%)" x1="155.1353" x2="154.245" y1="64.7658" y2="64.9551" /><line stroke="rgb(0%,0%,0%)" x1="154.245" x2="152.0679" y1="64.9551" y2="65.4178" /><line stroke="rgb(0%,0%,0%)" x1="152.0679" x2="151.1577" y1="65.4178" y2="65.4178" /><line stroke="rgb(0%,0%,0%)" x1="151.1577" x2="148.9321" y1="65.4178" y2="65.4178" /><line stroke="rgb(0%,0%,0%)" x1="148.9321" x2="148.0418" y1="65.4178" y2="65.2286" /><line stroke="rgb(0%,0%,0%)" x1="148.0418" x2="145.8647" y1="65.2286" y2="64.7658" /><line stroke="rgb(0%,0%,0%)" x1="145.8647" x2="145.0333" y1="64.7658" y2="64.3956" /><line stroke="rgb(0%,0%,0%)" x1="145.0333" x2="143.0" y1="64.3956" y2="63.4904" /><line stroke="rgb(0%,0%,0%)" x1="143.0" x2="142.2636" y1="63.4904" y2="62.9554" /><line stroke="rgb(0%,0%,0%)" x1="142.2636" x2="140.463" y1="62.9554" y2="61.6472" /><line stroke="rgb(0%,0%,0%)" x1="140.463" x2="139.854" y1="61.6472" y2="60.9708" /><line stroke="rgb(0%,0%,0%)" x1="139.854" x2="138.3647" y1="60.9708" y2="59.3168" /><line stroke="rgb(0%,0%,0%)" x1="138.3647" x2="137.9097" y1="59.3168" y2="58.5285" /><line stroke="rgb(0%,0%,0%)" x1="137.9097" x2="136.7968" y1="58.5285" y2="56.6011" /><line stroke="rgb(0%,0%,0%)" x1="136.7968" x2="136.5156" y1="56.6011" y2="55.7354" /><line stroke="rgb(0%,0%,0%)" x1="136.5156" x2="135.8278" y1="55.7354" y2="53.6187" /><line stroke="rgb(0%,0%,0%)" x1="135.8278" x2="135.7326" y1="53.6187" y2="52.7135" /><line stroke="rgb(0%,0%,0%)" x1="135.7326" x2="135.5" y1="52.7135" y2="50.5" /><line stroke="rgb(0%,0%,0%)" x1="135.5" x2="135.5951" y1="50.5" y2="49.5948" /><line stroke="rgb(0%,0%,0%)" x1="135.5951" x2="135.8278" y1="49.5948" y2="47.3813" /><line stroke="rgb(0%,0%,0%)" x1="135.8278" x2="136.109" y1="47.3813" y2="46.5157" /><line stroke="rgb(0%,0%,0%)" x1="136.109" x2="136.7968" y1="46.5157" y2="44.3989" /><line stroke="rgb(0%,0%,0%)" x1="136.7968" x2="137.2519" y1="44.3989" y2="43.6107" /><line stroke="rgb(0%,0%,0%)" x1="137.2519" x2="138.3647" y1="43.6107" y2="41.6832" /><line stroke="rgb(0%,0%,0%)" x1="138.3647" x2="138.9738" y1="41.6832" y2="41.0068" /><line stroke="rgb(0%,0%,0%)" x1="138.9738" x2="140.463" y1="41.0068" y2="39.3528" /><line stroke="rgb(0%,0%,0%)" x1="140.463" x2="141.1994" y1="39.3528" y2="38.8178" /><line stroke="rgb(0%,0%,0%)" x1="141.1994" x2="143.0" y1="38.8178" y2="37.5096" /><line stroke="rgb(0%,0%,0%)" x1="143.0" x2="143.8315" y1="37.5096" y2="37.1394" /><line stroke="rgb(0%,0%,0%)" x1="143.8315" x2="145.8647" y1="37.1394" y2="36.2342" /><line stroke="rgb(0%,0%,0%)" x1="145.8647" x2="146.755" y1="36.2342" y2="36.0449" /><line stroke="rgb(0%,0%,0%)" x1="146.755" x2="148.9321" y1="36.0449" y2="35.5822" /><line stroke="rgb(0%,0%,0%)" x1="148.9321" x2="149.8423" y1="35.5822" y2="35.5822" /><line stroke="rgb(0%,0%,0%)" x1="149.8423" x2="152.0679" y1="35.5822" y2="35.5822" /><line stroke="rgb(0%,0%,0%)" x1="152.0679" x2="152.9582" y1="35.5822" y2="35.7714" /><line stroke="rgb(0%,0%,0%)" x1="152.9582" x2="155.1353" y1="35.7714" y2="36.2342" /><line stroke="rgb(0%,0%,0%)" x1="155.1353" x2="155.9667" y1="36.2342" y2="36.6044" /><line stroke="rgb(0%,0%,0%)" x1="155.9667" x2="158.0" y1="36.6044" y2="37.5096" /><line stroke="rgb(0%,0%,0%)" x1="158.0" x2="158.7363" y1="37.5096" y2="38.0446" /><line stroke="rgb(0%,0%,0%)" x1="158.7363" x2="160.537" y1="38.0446" y2="39.3528" /><line stroke="rgb(0%,0%,0%)" x1="160.537" x2="161.146" y1="39.3528" y2="40.0292" /><line stroke="rgb(0%,0%,0%)" x1="161.146" x2="162.6353" y1="40.0292" y2="41.6832" /><line stroke="rgb(0%,0%,0%)" x1="162.6353" x2="163.0903" y1="41.6832" y2="42.4715" /><line stroke="rgb(0%,0%,0%)" x1="163.0903" x2="164.2032" y1="42.4715" y2="44.3989" /><line stroke="rgb(0%,0%,0%)" x1="164.2032" x2="164.4844" y1="44.3989" y2="45.2646" /><line stroke="rgb(0%,0%,0%)" x1="164.4844" x2="165.1722" y1="45.2646" y2="47.3813" /><line stroke="rgb(0%,0%,0%)" x1="65.1722" x2="65.2674" y1="47.3813" y2="48.2865" /><line stroke="rgb(0%,0%,0%)" x1="65.2674" x2="65.5" y1="48.2865" y2="50.5" /><line stroke="rgb(0%,0%,0%)" x1="65.5" x2="65.4049" y1="50.5" y2="51.4052" /><line stroke="rgb(0%,0%,0%)" x1="65.4049" x2="65.1722" y1="51.4052" y2="53.6187" /><line stroke="rgb(0%,0%,0%)" x1="65.1722" x2="64.8909" y1="53.6187" y2="54.4843" /><line stroke="rgb(0%,0%,0%)" x1="64.8909" x2="64.2032" y1="54.4843" y2="56.6011" /><line stroke="rgb(0%,0%,0%)" x1="64.2032" x2="63.7481" y1="56.6011" y2="57.3893" /><line stroke="rgb(0%,0%,0%)" x1="63.7481" x2="62.6352" y1="57.3893" y2="59.3168" /><line stroke="rgb(0%,0%,0%)" x1="62.6352" x2="62.0262" y1="59.3168" y2="59.9932" /><line stroke="rgb(0%,0%,0%)" x1="62.0262" x2="60.537" y1="59.9932" y2="61.6472" /><line stroke="rgb(0%,0%,0%)" x1="60.537" x2="59.8006" y1="61.6472" y2="62.1822" /><line stroke="rgb(0%,0%,0%)" x1="59.8006" x2="58.0" y1="62.1822" y2="63.4904" /><line stroke="rgb(0%,0%,0%)" x1="58.0" x2="57.1685" y1="63.4904" y2="63.8606" /><line stroke="rgb(0%,0%,0%)" x1="57.1685" x2="55.1353" y1="63.8606" y2="64.7658" /><line stroke="rgb(0%,0%,0%)" x1="55.1353" x2="54.245" y1="64.7658" y2="64.9551" /><line stroke="rgb(0%,0%,0%)" x1="54.245" x2="52.0679" y1="64.9551" y2="65.4178" /><line stroke="rgb(0%,0%,0%)" x1="52.0679" x2="51.1577" y1="65.4178" y2="65.4178" /><line stroke="rgb(0%,0%,0%)" x1="51.1577" x2="48.9321" y1="65.4178" y2="65.4178" /><line stroke="rgb(0%,0%,0%)" x1="48.9321" x2="48.0418" y1="65.4178" y2="65.2286" /><line stroke="rgb(0%,0%,0%)" x1="48.0418" x2="45.8647" y1="65.2286" y2="64.7658" /><line stroke="rgb(0%,0%,0%)" x1="45.8647" x2="45.0333" y1="64.7658" y2="64.3956" /><line stroke="rgb(0%,0%,0%)" x1="45.0333" x2="43.0" y1="64.3956" y2="63.4904" /><line stroke="rgb(0%,0%,0%)" x1="43.0" x2="42.2636" y1="63.4904" y2="62.9554" /><line stroke="rgb(0%,0%,0%)" x1="42.2636" x2="40.463" y1="62.9554" y2="61.6472" /><line stroke="rgb(0%,0%,0%)" x1="40.463" x2="39.854" y1="61.6472" y2="60.9708" /><line stroke="rgb(0%,0%,0%)" x1="39.854" x2="38.3647" y1="60.9708" y2="59.3168" /><line stroke="rgb(0%,0%,0%)" x1="38.3647" x2="37.9096" y1="59.3168" y2="58.5285" /><line stroke="rgb(0%,0%,0%)" x1="37.9096" x2="36.7968" y1="58.5285" y2="56.6011" /><line stroke="rgb(0%,0%,0%)" x1="36.7968" x2="36.5155" y1="56.6011" y2="55.7354" /><line stroke="rgb(0%,0%,0%)" x1="36.5155" x2="35.8278" y1="55.7354" y2="53.6187" /><line stroke="rgb(0%,0%,0%)" x1="35.8278" x2="35.7326" y1="53.6187" y2="52.7135" /><line stroke="rgb(0%,0%,0%)" x1="35.7326" x2="35.5" y1="52.7135" y2="50.5" /><line stroke="rgb(0%,0%,0%)" x1="35.5" x2="35.5951" y1="50.5" y2="49.5948" /><line stroke="rgb(0%,0%,0%)" x1="35.5951" x2="35.8278" y1="49.5948" y2="47.3813" /><line stroke="rgb(0%,0%,0%)" x1="35.8278" x2="36.109" y1="47.3813" y2="46.5157" /><line stroke="rgb(0%,0%,0%)" x1="36.109" x2="36.7968" y1="46.5157" y2="44.3989" /><line stroke="rgb(0%,0%,0%)" x1="36.7968" x2="37.2519" y1="44.3989" y2="43.6107" /><line stroke="rgb(0%,0%,0%)" x1="37.2519" x2="38.3647" y1="43.6107" y2="41.6832" /><line stroke="rgb(0%,0%,0%)" x1="38.3647" x2="38.9738" y1="41.6832" y2="41.0068" /><line stroke="rgb(0%,0%,0%)" x1="38.9738" x2="40.463" y1="41.0068" y2="39.3528" /><line stroke="rgb(0%,0%,0%)" x1="40.463" x2="41.1994" y1="39.3528" y2="38.8178" /><line stroke="rgb(0%,0%,0%)" x1="41.1994" x2="43.0" y1="38.8178" y2="37.5096" /><line stroke="rgb(0%,0%,0%)" x1="43.0" x2="43.8315" y1="37.5096" y2="37.1394" /><line stroke="rgb(0%,0%,0%)" x1="43.8315" x2="45.8647" y1="37.1394" y2="36.2342" /><line stroke="rgb(0%,0%,0%)" x1="45.8647" x2="46.755" y1="36.2342" y2="36.0449" /><line stroke="rgb(0%,0%,0%)" x1="46.755" x2="48.9321" y1="36.0449" y2="35.5822" /><line stroke="rgb(0%,0%,0%)" x1="48.9321" x2="49.8422" y1="35.5822" y2="35.5822" /><line stroke="rgb(0%,0%,0%)" x1="49.8422" x2="52.0679" y1="35.5822" y2="35.5822" /><line stroke="rgb(0%,0%,0%)" x1="52.0679" x2="52.9582" y1="35.5822" y2="35.7714" /><line stroke="rgb(0%,0%,0%)" x1="52.9582" x2="55.1353" y1="35.7714" y2="36.2342" /><line stroke="rgb(0%,0%,0%)" x1="55.1353" x2="55.9667" y1="36.2342" y2="36.6044" /><line stroke="rgb(0%,0%,0%)" x1="55.9667" x2="58.0" y1="36.6044" y2="37.5096" /><line stroke="rgb(0%,0%,0%)" x1="58.0" x2="58.7364" y1="37.5096" y2="38.0446" /><line stroke="rgb(0%,0%,0%)" x1="58.7364" x2="60.537" y1="38.0446" y2="39.3528" /><line stroke="rgb(0%,0%,0%)" x1="60.537" x2="61.146" y1="39.3528" y2="40.0292" /><line stroke="rgb(0%,0%,0%)" x1="61.146" x2="62.6352" y1="40.0292" y2="41.6832" /><line stroke="rgb(0%,0%,0%)" x1="62.6352" x2="63.0903" y1="41.6832" y2="42.4715" /><line stroke="rgb(0%,0%,0%)" x1="63.0903" x2="64.2032" y1="42.4715" y2="44.3989" /><line stroke="rgb(0%,0%,0%)" x1="64.2032" x2="64.4844" y1="44.3989" y2="45.2646" /><line stroke="rgb(0%,0%,0%)" x1="64.4844" x2="65.1722" y1="45.2646" y2="47.3813" /></svg>