<?xml version="1.0" encoding="utf-8" ?>
<svg baseProfile="tiny" height="100%" version="1.2" width="100%" xmlns="http://www.w3.org/2000/svg" xmlns:ev="http://www.w3.org/2001/xml-events" xmlns:xlink="http://www.w3.org/1999/xlink"><defs /><line stroke="rgb(0%,0%,0%)" x1="306.9" x2="306.9" y1="0.5" y2="26.8572" /><line stroke="rgb(0%,0%,0%)" x1="306.9" x2="306.9" y1="26.8572" y2="30.2422" /><line stroke="rgb(0%,0%,0%)" x1="306.9" x2="306.9" y1="30.2422" y2="34.7537" /><line stroke="rgb(0%,0%,0%)" x1="306.9" x2="306.9" y1="76.5284" y2="100.5" /><line stroke="rgb(0%,0%,0%)" x1="306.9" x2="306.9" y1="38.8935" y2="34.7537" /><line stroke="rgb(0%,0%,0%)" x1="306.9" x2="306.9" y1="66.2463" y2="62.1065" /><line stroke="rgb(0%,0%,0%)" x1="306.9" x2="306.9" y1="66.2463" y2="70.7578" /><line stroke="rgb(0%,0%,0%)" x1="306.9" x2="306.9" y1="70.7578" y2="74.1428" /><line stroke="rgb(0%,0%,0%)" x1="306.9" x2="306.9" y1="74.1428" y2="76.5284" /><line stroke="rgb(0%,0%,0%)" x1="336.9" x2="336.9" y1="34.459" y2="0.5" /><line stroke="rgb(0%,0%,0%)" x1="336.9" x2="336.9" y1="100.5" y2="66.541" /><line stroke="rgb(0%,0%,0%)" x1="336.9" x2="336.9" y1="66.541" y2="64.2472" /><line stroke="rgb(0%,0%,0%)" x1="336.9" x2="336.9" y1="64.2472" y2="62.1065" /><line stroke="rgb(0%,0%,0%)" x1="336.9" x2="336.9" y1="36.7528" y2="38.8935" /><line stroke="rgb(0%,0%,0%)" x1="336.9" x2="336.9" y1="36.7528" y2="34.459" /><line stroke="rgb(0%,0%,0%)" x1="336.9" x2="317.6353" y1="100.5" y2="100.5" /><line stroke="rgb(0%,0%,0%)" x1="317.6353" x2="306.9" y1="100.5" y2="100.5" /><line stroke="rgb(0%,0%,0%)" x1="336.9" x2="317.6353" y1="0.5" y2="0.5" /><line stroke="rgb(0%,0%,0%)" x1="317.6353" x2="306.9" y1="0.5" y2="0.5" /><line stroke="rgb(0%,0%,0%)" x1="336.9" x2="314.3768" y1="38.8935" y2="38.8935" /><line stroke="rgb(0%,0%,0%)" x1="314.3768" x2="306.9" y1="38.8935" y2="38.8935" /><line stroke="rgb(0%,0%,0%)" x1="336.9" x2="329.4232" y1="62.1065" y2="62.1065" /><line stroke="rgb(0%,0%,0%)" x1="329.4232" x2="306.9" y1="62.1065" y2="62.1065" /></svg>