<?xml version="1.0" encoding="utf-8" ?>
<svg baseProfile="tiny" height="100%" version="1.2" width="100%" xmlns="http://www.w3.org/2000/svg" xmlns:ev="http://www.w3.org/2001/xml-events" xmlns:xlink="http://www.w3.org/1999/xlink"><defs /><line stroke="rgb(0%,0%,0%)" x1="306.9" x2="306.9" y1="0.5" y2="27.9705" /><line stroke="rgb(0%,0%,0%)" x1="306.9" x2="306.9" y1="27.9705" y2="31.4985" /><line stroke="rgb(0%,0%,0%)" x1="306.9" x2="306.9" y1="31.4985" y2="36.2006" /><line stroke="rgb(0%,0%,0%)" x1="306.9" x2="306.9" y1="75.5158" y2="100.5" /><line stroke="rgb(0%,0%,0%)" x1="306.9" x2="306.9" y1="38.1669" y2="36.2006" /><line stroke="rgb(0%,0%,0%)" x1="306.9" x2="306.9" y1="64.7994" y2="62.8331" /><line stroke="rgb(0%,0%,0%)" x1="306.9" x2="306.9" y1="64.7994" y2="69.5015" /><line stroke="rgb(0%,0%,0%)" x1="306.9" x2="306.9" y1="69.5015" y2="73.0295" /><line stroke="rgb(0%,0%,0%)" x1="306.9" x2="306.9" y1="73.0295" y2="75.5158" /><line stroke="rgb(0%,0%,0%)" x1="336.9" x2="336.9" y1="34.8312" y2="0.5" /><line stroke="rgb(0%,0%,0%)" x1="336.9" x2="336.9" y1="100.5" y2="66.1688" /><line stroke="rgb(0%,0%,0%)" x1="336.9" x2="336.9" y1="66.1688" y2="63.8498" /><line stroke="rgb(0%,0%,0%)" x1="336.9" x2="336.9" y1="63.8498" y2="62.8331" /><line stroke="rgb(0%,0%,0%)" x1="336.9" x2="336.9" y1="37.1502" y2="38.1669" /><line stroke="rgb(0%,0%,0%)" x1="336.9" x2="336.9" y1="37.1502" y2="34.8312" /><line stroke="rgb(0%,0%,0%)" x1="336.9" x2="318.0888" y1="100.5" y2="100.5" /><line stroke="rgb(0%,0%,0%)" x1="318.0888" x2="306.9" y1="100.5" y2="100.5" /><line stroke="rgb(0%,0%,0%)" x1="336.9" x2="318.0888" y1="0.5" y2="0.5" /><line stroke="rgb(0%,0%,0%)" x1="318.0888" x2="306.9" y1="0.5" y2="0.5" /><line stroke="rgb(0%,0%,0%)" x1="336.9" x2="326.2019" y1="38.1669" y2="38.1669" /><line stroke="rgb(0%,0%,0%)" x1="326.2019" x2="306.9" y1="38.1669" y2="38.1669" /><line stroke="rgb(0%,0%,0%)" x1="336.9" x2="317.598" y1="62.8331" y2="62.8331" /><line stroke="rgb(0%,0%,0%)" x1="317.598" x2="306.9" y1="62.8331" y2="62.8331" /></svg>