<?xml version="1.0" encoding="utf-8" ?>
<svg baseProfile="tiny" height="100%" version="1.2" width="100%" xmlns="http://www.w3.org/2000/svg" xmlns:ev="http://www.w3.org/2001/xml-events" xmlns:xlink="http://www.w3.org/1999/xlink"><defs /><line stroke="rgb(0%,0%,0%)" x1="306.9" x2="306.9" y1="0.5" y2="29.0839" /><line stroke="rgb(0%,0%,0%)" x1="306.9" x2="306.9" y1="29.0839" y2="32.7548" /><line stroke="rgb(0%,0%,0%)" x1="306.9" x2="306.9" y1="32.7548" y2="37.4672" /><line stroke="rgb(0%,0%,0%)" x1="306.9" x2="306.9" y1="74.5032" y2="100.5" /><line stroke="rgb(0%,0%,0%)" x1="306.9" x2="306.9" y1="63.5328" y2="68.2452" /><line stroke="rgb(0%,0%,0%)" x1="306.9" x2="306.9" y1="68.2452" y2="71.9161" /><line stroke="rgb(0%,0%,0%)" x1="306.9" x2="306.9" y1="71.9161" y2="74.5032" /><line stroke="rgb(0%,0%,0%)" x1="336.9" x2="336.9" y1="35.2034" y2="0.5" /><line stroke="rgb(0%,0%,0%)" x1="336.9" x2="336.9" y1="100.5" y2="65.7966" /><line stroke="rgb(0%,0%,0%)" x1="336.9" x2="336.9" y1="65.7966" y2="63.5328" /><line stroke="rgb(0%,0%,0%)" x1="336.9" x2="336.9" y1="37.4672" y2="35.2034" /><line stroke="rgb(0%,0%,0%)" x1="336.9" x2="318.5422" y1="100.5" y2="100.5" /><line stroke="rgb(0%,0%,0%)" x1="318.5422" x2="306.9" y1="100.5" y2="100.5" /><line stroke="rgb(0%,0%,0%)" x1="336.9" x2="318.5422" y1="0.5" y2="0.5" /><line stroke="rgb(0%,0%,0%)" x1="318.5422" x2="306.9" y1="0.5" y2="0.5" /><line stroke="rgb(0%,0%,0%)" x1="336.9" x2="307.8981" y1="37.4672" y2="37.4672" /><line stroke="rgb(0%,0%,0%)" x1="307.8981" x2="306.9" y1="37.4672" y2="37.4672" /><line stroke="rgb(0%,0%,0%)" x1="336.9" x2="335.9019" y1="63.5328" y2="63.5328" /><line stroke="rgb(0%,0%,0%)" x1="335.9019" x2="306.9" y1="63.5328" y2="63.5328" /></svg>