<?xml version="1.0" encoding="utf-8" ?>
<svg baseProfile="tiny" height="100%" version="1.2" width="100%" xmlns="http://www.w3.org/2000/svg" xmlns:ev="http://www.w3.org/2001/xml-events" xmlns:xlink="http://www.w3.org/1999/xlink"><defs /><line stroke="rgb(0%,0%,0%)" x1="306.9" x2="306.9" y1="0.5" y2="30.1972" /><line stroke="rgb(0%,0%,0%)" x1="306.9" x2="306.9" y1="30.1972" y2="34.0112" /><line stroke="rgb(0%,0%,0%)" x1="306.9" x2="306.9" y1="34.0112" y2="37.022" /><line stroke="rgb(0%,0%,0%)" x1="306.9" x2="306.9" y1="73.4907" y2="100.5" /><line stroke="rgb(0%,0%,0%)" x1="306.9" x2="306.9" y1="63.978" y2="66.9888" /><line stroke="rgb(0%,0%,0%)" x1="306.9" x2="306.9" y1="66.9888" y2="70.8028" /><line stroke="rgb(0%,0%,0%)" x1="306.9" x2="306.9" y1="70.8028" y2="73.4907" /><line stroke="rgb(0%,0%,0%)" x1="336.9" x2="336.9" y1="35.5756" y2="0.5" /><line stroke="rgb(0%,0%,0%)" x1="336.9" x2="336.9" y1="100.5" y2="65.4244" /><line stroke="rgb(0%,0%,0%)" x1="336.9" x2="336.9" y1="65.4244" y2="63.978" /><line stroke="rgb(0%,0%,0%)" x1="336.9" x2="336.9" y1="37.022" y2="35.5756" /><line stroke="rgb(0%,0%,0%)" x1="336.9" x2="318.9957" y1="100.5" y2="100.5" /><line stroke="rgb(0%,0%,0%)" x1="318.9957" x2="306.9" y1="100.5" y2="100.5" /><line stroke="rgb(0%,0%,0%)" x1="336.9" x2="318.9957" y1="0.5" y2="0.5" /><line stroke="rgb(0%,0%,0%)" x1="318.9957" x2="306.9" y1="0.5" y2="0.5" /><line stroke="rgb(0%,0%,0%)" x1="336.9" x2="318.3703" y1="37.022" y2="37.022" /><line stroke="rgb(0%,0%,0%)" x1="318.3703" x2="306.9" y1="37.022" y2="37.022" /><line stroke="rgb(0%,0%,0%)" x1="336.9" x2="325.4297" y1="63.978" y2="63.978" /><line stroke="rgb(0%,0%,0%)" x1="325.4297" x2="306.9" y1="63.978" y2="63.978" /></svg>