<?xml version="1.0" encoding="utf-8" ?>
<svg baseProfile="tiny" height="100%" version="1.2" width="100%" xmlns="http://www.w3.org/2000/svg" xmlns:ev="http://www.w3.org/2001/xml-events" xmlns:xlink="http://www.w3.org/1999/xlink"><defs /><line stroke="rgb(0%,0%,0%)" x1="306.9" x2="306.9" y1="0.5" y2="31.3106" /><line stroke="rgb(0%,0%,0%)" x1="306.9" x2="306.9" y1="31.3106" y2="35.2675" /><line stroke="rgb(0%,0%,0%)" x1="306.9" x2="306.9" y1="35.2675" y2="36.5767" /><line stroke="rgb(0%,0%,0%)" x1="306.9" x2="306.9" y1="72.4781" y2="100.5" /><line stroke="rgb(0%,0%,0%)" x1="306.9" x2="306.9" y1="64.4233" y2="65.7325" /><line stroke="rgb(0%,0%,0%)" x1="306.9" x2="306.9" y1="65.7325" y2="69.6894" /><line stroke="rgb(0%,0%,0%)" x1="306.9" x2="306.9" y1="69.6894" y2="72.4781" /><line stroke="rgb(0%,0%,0%)" x1="336.9" x2="336.9" y1="35.9478" y2="0.5" /><line stroke="rgb(0%,0%,0%)" x1="336.9" x2="336.9" y1="100.5" y2="65.0522" /><line stroke="rgb(0%,0%,0%)" x1="336.9" x2="336.9" y1="65.0522" y2="64.4233" /><line stroke="rgb(0%,0%,0%)" x1="336.9" x2="336.9" y1="36.5767" y2="35.9478" /><line stroke="rgb(0%,0%,0%)" x1="336.9" x2="319.4492" y1="100.5" y2="100.5" /><line stroke="rgb(0%,0%,0%)" x1="319.4492" x2="306.9" y1="100.5" y2="100.5" /><line stroke="rgb(0%,0%,0%)" x1="336.9" x2="319.4492" y1="0.5" y2="0.5" /><line stroke="rgb(0%,0%,0%)" x1="319.4492" x2="306.9" y1="0.5" y2="0.5" /><line stroke="rgb(0%,0%,0%)" x1="336.9" x2="328.8424" y1="36.5767" y2="36.5767" /><line stroke="rgb(0%,0%,0%)" x1="328.8424" x2="306.9" y1="36.5767" y2="36.5767" /><line stroke="rgb(0%,0%,0%)" x1="336.9" x2="314.9576" y1="64.4233" y2="64.4233" /><line stroke="rgb(0%,0%,0%)" x1="314.9576" x2="306.9" y1="64.4233" y2="64.4233" /></svg>