<?xml version="1.0" encoding="utf-8" ?>
<svg baseProfile="tiny" height="100%" version="1.2" width="100%" xmlns="http://www.w3.org/2000/svg" xmlns:ev="http://www.w3.org/2001/xml-events" xmlns:xlink="http://www.w3.org/1999/xlink"><defs /><line stroke="rgb(0%,0%,0%)" x1="306.9" x2="306.9" y1="0.5" y2="32.4239" /><line stroke="rgb(0%,0%,0%)" x1="306.9" x2="306.9" y1="32.4239" y2="36.1851" /><line stroke="rgb(0%,0%,0%)" x1="306.9" x2="306.9" y1="71.4655" y2="100.5" /><line stroke="rgb(0%,0%,0%)" x1="306.9" x2="306.9" y1="68.5761" y2="64.8149" /><line stroke="rgb(0%,0%,0%)" x1="306.9" x2="306.9" y1="68.5761" y2="71.4655" /><line stroke="rgb(0%,0%,0%)" x1="336.9" x2="336.9" y1="0.5" y2="36.0157" /><line stroke="rgb(0%,0%,0%)" x1="336.9" x2="336.9" y1="36.0157" y2="36.1851" /><line stroke="rgb(0%,0%,0%)" x1="336.9" x2="336.9" y1="64.9843" y2="100.5" /><line stroke="rgb(0%,0%,0%)" x1="336.9" x2="336.9" y1="64.8149" y2="64.9843" /><line stroke="rgb(0%,0%,0%)" x1="336.9" x2="319.9026" y1="100.5" y2="100.5" /><line stroke="rgb(0%,0%,0%)" x1="319.9026" x2="306.9" y1="100.5" y2="100.5" /><line stroke="rgb(0%,0%,0%)" x1="336.9" x2="319.9026" y1="0.5" y2="0.5" /><line stroke="rgb(0%,0%,0%)" x1="319.9026" x2="306.9" y1="0.5" y2="0.5" /><line stroke="rgb(0%,0%,0%)" x1="336.9" x2="309.1551" y1="36.1851" y2="36.1851" /><line stroke="rgb(0%,0%,0%)" x1="309.1551" x2="306.9" y1="36.1851" y2="36.1851" /><line stroke="rgb(0%,0%,0%)" x1="336.9" x2="334.6449" y1="64.8149" y2="64.8149" /><line stroke="rgb(0%,0%,0%)" x1="334.6449" x2="306.9" y1="64.8149" y2="64.8149" /></svg>