<?xml version="1.0" encoding="utf-8" ?>
<svg baseProfile="tiny" height="100%" version="1.2" width="100%" xmlns="http://www.w3.org/2000/svg" xmlns:ev="http://www.w3.org/2001/xml-events" xmlns:xlink="http://www.w3.org/1999/xlink"><defs /><line stroke="rgb(0%,0%,0%)" x1="306.9" x2="306.9" y1="0.5" y2="33.5372" /><line stroke="rgb(0%,0%,0%)" x1="306.9" x2="306.9" y1="33.5372" y2="35.9726" /><line stroke="rgb(0%,0%,0%)" x1="306.9" x2="306.9" y1="70.453" y2="100.5" /><line stroke="rgb(0%,0%,0%)" x1="306.9" x2="306.9" y1="67.4628" y2="65.0274" /><line stroke="rgb(0%,0%,0%)" x1="306.9" x2="306.9" y1="67.4628" y2="70.453" /><line stroke="rgb(0%,0%,0%)" x1="336.9" x2="336.9" y1="0.5" y2="35.0682" /><line stroke="rgb(0%,0%,0%)" x1="336.9" x2="336.9" y1="35.0682" y2="35.9726" /><line stroke="rgb(0%,0%,0%)" x1="336.9" x2="336.9" y1="65.9318" y2="100.5" /><line stroke="rgb(0%,0%,0%)" x1="336.9" x2="336.9" y1="65.0274" y2="65.9318" /><line stroke="rgb(0%,0%,0%)" x1="336.9" x2="320.3561" y1="100.5" y2="100.5" /><line stroke="rgb(0%,0%,0%)" x1="320.3561" x2="306.9" y1="100.5" y2="100.5" /><line stroke="rgb(0%,0%,0%)" x1="336.9" x2="320.3561" y1="0.5" y2="0.5" /><line stroke="rgb(0%,0%,0%)" x1="320.3561" x2="306.9" y1="0.5" y2="0.5" /><line stroke="rgb(0%,0%,0%)" x1="336.9" x2="318.9356" y1="35.9726" y2="35.9726" /><line stroke="rgb(0%,0%,0%)" x1="318.9356" x2="306.9" y1="35.9726" y2="35.9726" /><line stroke="rgb(0%,0%,0%)" x1="336.9" x2="324.8644" y1="65.0274" y2="65.0274" /><line stroke="rgb(0%,0%,0%)" x1="324.8644" x2="306.9" y1="65.0274" y2="65.0274" /></svg>