<?xml version="1.0" encoding="utf-8" ?>
<svg baseProfile="tiny" height="100%" version="1.2" width="100%" xmlns="http://www.w3.org/2000/svg" xmlns:ev="http://www.w3.org/2001/xml-events" xmlns:xlink="http://www.w3.org/1999/xlink"><defs /><line stroke="rgb(0%,0%,0%)" x1="306.9" x2="306.9" y1="0.5" y2="34.6506" /><line stroke="rgb(0%,0%,0%)" x1="306.9" x2="306.9" y1="34.6506" y2="35.76" /><line stroke="rgb(0%,0%,0%)" x1="306.9" x2="306.9" y1="69.4404" y2="100.5" /><line stroke="rgb(0%,0%,0%)" x1="306.9" x2="306.9" y1="66.3494" y2="65.24" /><line stroke="rgb(0%,0%,0%)" x1="306.9" x2="306.9" y1="66.3494" y2="69.4404" /><line stroke="rgb(0%,0%,0%)" x1="336.9" x2="336.9" y1="0.5" y2="34.1207" /><line stroke="rgb(0%,0%,0%)" x1="336.9" x2="336.9" y1="34.1207" y2="35.76" /><line stroke="rgb(0%,0%,0%)" x1="336.9" x2="336.9" y1="66.8793" y2="100.5" /><line stroke="rgb(0%,0%,0%)" x1="336.9" x2="336.9" y1="65.24" y2="66.8793" /><line stroke="rgb(0%,0%,0%)" x1="336.9" x2="320.8096" y1="100.5" y2="100.5" /><line stroke="rgb(0%,0%,0%)" x1="320.8096" x2="306.9" y1="100.5" y2="100.5" /><line stroke="rgb(0%,0%,0%)" x1="336.9" x2="320.8096" y1="0.5" y2="0.5" /><line stroke="rgb(0%,0%,0%)" x1="320.8096" x2="306.9" y1="0.5" y2="0.5" /><line stroke="rgb(0%,0%,0%)" x1="336.9" x2="328.7161" y1="35.76" y2="35.76" /><line stroke="rgb(0%,0%,0%)" x1="328.7161" x2="306.9" y1="35.76" y2="35.76" /><line stroke="rgb(0%,0%,0%)" x1="336.9" x2="315.0838" y1="65.24" y2="65.24" /><line stroke="rgb(0%,0%,0%)" x1="315.0838" x2="306.9" y1="65.24" y2="65.24" /></svg>