<?xml version="1.0" encoding="utf-8" ?>
<svg baseProfile="tiny" height="100%" version="1.2" width="100%" xmlns="http://www.w3.org/2000/svg" xmlns:ev="http://www.w3.org/2001/xml-events" xmlns:xlink="http://www.w3.org/1999/xlink"><defs /><line stroke="rgb(0%,0%,0%)" x1="306.9" x2="306.9" y1="35.4169" y2="0.5" /><line stroke="rgb(0%,0%,0%)" x1="306.9" x2="306.9" y1="68.4278" y2="100.5" /><line stroke="rgb(0%,0%,0%)" x1="306.9" x2="306.9" y1="35.4169" y2="35.5822" /><line stroke="rgb(0%,0%,0%)" x1="306.9" x2="306.9" y1="68.4278" y2="65.4178" /><line stroke="rgb(0%,0%,0%)" x1="336.9" x2="336.9" y1="0.5" y2="33.1732" /><line stroke="rgb(0%,0%,0%)" x1="336.9" x2="336.9" y1="33.1732" y2="35.4169" /><line stroke="rgb(0%,0%,0%)" x1="336.9" x2="336.9" y1="35.4169" y2="35.5822" /><line stroke="rgb(0%,0%,0%)" x1="336.9" x2="336.9" y1="67.8268" y2="100.5" /><line stroke="rgb(0%,0%,0%)" x1="336.9" x2="336.9" y1="65.5831" y2="65.4178" /><line stroke="rgb(0%,0%,0%)" x1="336.9" x2="336.9" y1="65.5831" y2="67.8268" /><line stroke="rgb(0%,0%,0%)" x1="336.9" x2="321.263" y1="100.5" y2="100.5" /><line stroke="rgb(0%,0%,0%)" x1="321.263" x2="306.9" y1="100.5" y2="100.5" /><line stroke="rgb(0%,0%,0%)" x1="336.9" x2="321.263" y1="0.5" y2="0.5" /><line stroke="rgb(0%,0%,0%)" x1="321.263" x2="306.9" y1="0.5" y2="0.5" /><line stroke="rgb(0%,0%,0%)" x1="336.9" x2="308.4618" y1="35.5822" y2="35.5822" /><line stroke="rgb(0%,0%,0%)" x1="308.4618" x2="306.9" y1="35.5822" y2="35.5822" /><line stroke="rgb(0%,0%,0%)" x1="336.9" x2="335.3382" y1="65.4178" y2="65.4178" /><line stroke="rgb(0%,0%,0%)" x1="335.3382" x2="306.9" y1="65.4178" y2="65.4178" /></svg>