<?xml version="1.0" encoding="utf-8" ?>
<svg baseProfile="tiny" height="100%" version="1.2" width="100%" xmlns="http://www.w3.org/2000/svg" xmlns:ev="http://www.w3.org/2001/xml-events" xmlns:xlink="http://www.w3.org/1999/xlink"><defs /><line stroke="rgb(0%,0%,0%)" x1="306.9" x2="306.9" y1="34.4043" y2="0.5" /><line stroke="rgb(0%,0%,0%)" x1="306.9" x2="306.9" y1="67.4152" y2="100.5" /><line stroke="rgb(0%,0%,0%)" x1="306.9" x2="306.9" y1="34.4043" y2="35.5822" /><line stroke="rgb(0%,0%,0%)" x1="306.9" x2="306.9" y1="67.4152" y2="65.4178" /><line stroke="rgb(0%,0%,0%)" x1="336.9" x2="336.9" y1="0.5" y2="32.2257" /><line stroke="rgb(0%,0%,0%)" x1="336.9" x2="336.9" y1="32.2257" y2="34.4043" /><line stroke="rgb(0%,0%,0%)" x1="336.9" x2="336.9" y1="34.4043" y2="35.5822" /><line stroke="rgb(0%,0%,0%)" x1="336.9" x2="336.9" y1="68.7743" y2="100.5" /><line stroke="rgb(0%,0%,0%)" x1="336.9" x2="336.9" y1="66.5957" y2="65.4178" /><line stroke="rgb(0%,0%,0%)" x1="336.9" x2="336.9" y1="66.5957" y2="68.7743" /><line stroke="rgb(0%,0%,0%)" x1="336.9" x2="321.7165" y1="100.5" y2="100.5" /><line stroke="rgb(0%,0%,0%)" x1="321.7165" x2="306.9" y1="100.5" y2="100.5" /><line stroke="rgb(0%,0%,0%)" x1="336.9" x2="321.7165" y1="0.5" y2="0.5" /><line stroke="rgb(0%,0%,0%)" x1="321.7165" x2="306.9" y1="0.5" y2="0.5" /><line stroke="rgb(0%,0%,0%)" x1="336.9" x2="318.0285" y1="35.5822" y2="35.5822" /><line stroke="rgb(0%,0%,0%)" x1="318.0285" x2="306.9" y1="35.5822" y2="35.5822" /><line stroke="rgb(0%,0%,0%)" x1="336.9" x2="325.7714" y1="65.4178" y2="65.4178" /><line stroke="rgb(0%,0%,0%)" x1="325.7714" x2="306.9" y1="65.4178" y2="65.4178" /></svg>