<?xml version="1.0" encoding="utf-8" ?>
<svg baseProfile="tiny" height="100%" version="1.2" width="100%" xmlns="http://www.w3.org/2000/svg" xmlns:ev="http://www.w3.org/2001/xml-events" xmlns:xlink="http://www.w3.org/1999/xlink"><defs /><line stroke="rgb(0%,0%,0%)" x1="351.9" x2="351.9" y1="0.5" y2="32.0375" /><line stroke="rgb(0%,0%,0%)" x1="351.9" x2="351.9" y1="32.0375" y2="100.5" /><line stroke="rgb(0%,0%,0%)" x1="297.1299" x2="340.3065" y1="100.5" y2="100.5" /><line stroke="rgb(0%,0%,0%)" x1="340.3065" x2="341.8123" y1="100.5" y2="100.5" /><line stroke="rgb(0%,0%,0%)" x1="341.8123" x2="343.5326" y1="100.5" y2="100.5" /><line stroke="rgb(0%,0%,0%)" x1="343.5326" x2="345.4418" y1="100.5" y2="100.5" /><line stroke="rgb(0%,0%,0%)" x1="345.4418" x2="347.5041" y1="100.5" y2="100.5" /><line stroke="rgb(0%,0%,0%)" x1="347.5041" x2="349.6741" y1="100.5" y2="100.5" /><line stroke="rgb(0%,0%,0%)" x1="349.6741" x2="351.9" y1="100.5" y2="100.5" /><line stroke="rgb(0%,0%,0%)" x1="297.1299" x2="73.9458" y1="100.5" y2="100.5" /><line stroke="rgb(0%,0%,0%)" x1="73.9458" x2="0.5" y1="100.5" y2="100.5" /><line stroke="rgb(0%,0%,0%)" x1="0.5" x2="73.9458" y1="0.5" y2="0.5" /><line stroke="rgb(0%,0%,0%)" x1="73.9458" x2="297.1299" y1="0.5" y2="0.5" /><line stroke="rgb(0%,0%,0%)" x1="297.1299" x2="340.3065" y1="0.5" y2="0.5" /><line stroke="rgb(0%,0%,0%)" x1="340.3065" x2="341.8123" y1="0.5" y2="0.5" /><line stroke="rgb(0%,0%,0%)" x1="341.8123" x2="343.5326" y1="0.5" y2="0.5" /><line stroke="rgb(0%,0%,0%)" x1="343.5326" x2="345.4418" y1="0.5" y2="0.5" /><line stroke="rgb(0%,0%,0%)" x1="345.4418" x2="347.5041" y1="0.5" y2="0.5" /><line stroke="rgb(0%,0%,0%)" x1="347.5041" x2="349.6741" y1="0.5" y2="0.5" /><line stroke="rgb(0%,0%,0%)" x1="349.6741" x2="351.9" y1="0.5" y2="0.5" /><line stroke="rgb(0%,0%,0%)" x1="0.5" x2="0.5" y1="0.5" y2="64.0128" /><line stroke="rgb(0%,0%,0%)" x1="0.5" x2="0.5" y1="64.0128" y2="100.5" /><line stroke="rgb(0%,0%,0%)" x1="165.1722" x2="165.2608" y1="47.3813" y2="48.2242" /><line stroke="rgb(0%,0%,0%)" x1="165.2608" x2="165.5" y1="48.2242" y2="50.5" /><line stroke="rgb(0%,0%,0%)" x1="165.5" x2="165.4114" y1="50.5" y2="51.3428" /><line stroke="rgb(0%,0%,0%)" x1="165.4114" x2="165.1722" y1="51.3428" y2="53.6187" /><line stroke="rgb(0%,0%,0%)" x1="165.1722" x2="164.9103" y1="53.6187" y2="54.4247" /><line stroke="rgb(0%,0%,0%)" x1="164.9103" x2="164.2032" y1="54.4247" y2="56.6011" /><line stroke="rgb(0%,0%,0%)" x1="164.2032" x2="163.7794" y1="56.6011" y2="57.335" /><line stroke="rgb(0%,0%,0%)" x1="163.7794" x2="162.6353" y1="57.335" y2="59.3168" /><line stroke="rgb(0%,0%,0%)" x1="162.6353" x2="162.0682" y1="59.3168" y2="59.9466" /><line stroke="rgb(0%,0%,0%)" x1="162.0682" x2="160.537" y1="59.9466" y2="61.6472" /><line stroke="rgb(0%,0%,0%)" x1="160.537" x2="159.8513" y1="61.6472" y2="62.1453" /><line stroke="rgb(0%,0%,0%)" x1="159.8513" x2="158.0" y1="62.1453" y2="63.4904" /><line stroke="rgb(0%,0%,0%)" x1="158.0" x2="157.2258" y1="63.4904" y2="63.8351" /><line stroke="rgb(0%,0%,0%)" x1="157.2258" x2="155.1353" y1="63.8351" y2="64.7658" /><line stroke="rgb(0%,0%,0%)" x1="155.1353" x2="154.3063" y1="64.7658" y2="64.942" /><line stroke="rgb(0%,0%,0%)" x1="154.3063" x2="152.0679" y1="64.942" y2="65.4178" /><line stroke="rgb(0%,0%,0%)" x1="152.0679" x2="151.2204" y1="65.4178" y2="65.4178" /><line stroke="rgb(0%,0%,0%)" x1="151.2204" x2="148.9321" y1="65.4178" y2="65.4178" /><line stroke="rgb(0%,0%,0%)" x1="148.9321" x2="148.1031" y1="65.4178" y2="65.2416" /><line stroke="rgb(0%,0%,0%)" x1="148.1031" x2="145.8647" y1="65.2416" y2="64.7658" /><line stroke="rgb(0%,0%,0%)" x1="145.8647" x2="145.0905" y1="64.7658" y2="64.4211" /><line stroke="rgb(0%,0%,0%)" x1="145.0905" x2="143.0" y1="64.4211" y2="63.4904" /><line stroke="rgb(0%,0%,0%)" x1="143.0" x2="142.3144" y1="63.4904" y2="62.9922" /><line stroke="rgb(0%,0%,0%)" x1="142.3144" x2="140.463" y1="62.9922" y2="61.6472" /><line stroke="rgb(0%,0%,0%)" x1="140.463" x2="139.896" y1="61.6472" y2="61.0174" /><line stroke="rgb(0%,0%,0%)" x1="139.896" x2="138.3647" y1="61.0174" y2="59.3168" /><line stroke="rgb(0%,0%,0%)" x1="138.3647" x2="137.941" y1="59.3168" y2="58.5828" /><line stroke="rgb(0%,0%,0%)" x1="137.941" x2="136.7968" y1="58.5828" y2="56.6011" /><line stroke="rgb(0%,0%,0%)" x1="136.7968" x2="136.5349" y1="56.6011" y2="55.795" /><line stroke="rgb(0%,0%,0%)" x1="136.5349" x2="135.8278" y1="55.795" y2="53.6187" /><line stroke="rgb(0%,0%,0%)" x1="135.8278" x2="135.7392" y1="53.6187" y2="52.7758" /><line stroke="rgb(0%,0%,0%)" x1="135.7392" x2="135.5" y1="52.7758" y2="50.5" /><line stroke="rgb(0%,0%,0%)" x1="135.5" x2="135.5886" y1="50.5" y2="49.6572" /><line stroke="rgb(0%,0%,0%)" x1="135.5886" x2="135.8278" y1="49.6572" y2="47.3813" /><line stroke="rgb(0%,0%,0%)" x1="135.8278" x2="136.0897" y1="47.3813" y2="46.5753" /><line stroke="rgb(0%,0%,0%)" x1="136.0897" x2="136.7968" y1="46.5753" y2="44.3989" /><line stroke="rgb(0%,0%,0%)" x1="136.7968" x2="137.2206" y1="44.3989" y2="43.665" /><line stroke="rgb(0%,0%,0%)" x1="137.2206" x2="138.3647" y1="43.665" y2="41.6832" /><line stroke="rgb(0%,0%,0%)" x1="138.3647" x2="138.9318" y1="41.6832" y2="41.0534" /><line stroke="rgb(0%,0%,0%)" x1="138.9318" x2="140.463" y1="41.0534" y2="39.3528" /><line stroke="rgb(0%,0%,0%)" x1="140.463" x2="141.1487" y1="39.3528" y2="38.8547" /><line stroke="rgb(0%,0%,0%)" x1="141.1487" x2="143.0" y1="38.8547" y2="37.5096" /><line stroke="rgb(0%,0%,0%)" x1="143.0" x2="143.7742" y1="37.5096" y2="37.1649" /><line stroke="rgb(0%,0%,0%)" x1="143.7742" x2="145.8647" y1="37.1649" y2="36.2342" /><line stroke="rgb(0%,0%,0%)" x1="145.8647" x2="146.6937" y1="36.2342" y2="36.058" /><line stroke="rgb(0%,0%,0%)" x1="146.6937" x2="148.9321" y1="36.058" y2="35.5822" /><line stroke="rgb(0%,0%,0%)" x1="148.9321" x2="149.7796" y1="35.5822" y2="35.5822" /><line stroke="rgb(0%,0%,0%)" x1="149.7796" x2="152.0679" y1="35.5822" y2="35.5822" /><line stroke="rgb(0%,0%,0%)" x1="152.0679" x2="152.8969" y1="35.5822" y2="35.7584" /><line stroke="rgb(0%,0%,0%)" x1="152.8969" x2="155.1353" y1="35.7584" y2="36.2342" /><line stroke="rgb(0%,0%,0%)" x1="155.1353" x2="155.9095" y1="36.2342" y2="36.5789" /><line stroke="rgb(0%,0%,0%)" x1="155.9095" x2="158.0" y1="36.5789" y2="37.5096" /><line stroke="rgb(0%,0%,0%)" x1="158.0" x2="158.6856" y1="37.5096" y2="38.0078" /><line stroke="rgb(0%,0%,0%)" x1="158.6856" x2="160.537" y1="38.0078" y2="39.3528" /><line stroke="rgb(0%,0%,0%)" x1="160.537" x2="161.104" y1="39.3528" y2="39.9826" /><line stroke="rgb(0%,0%,0%)" x1="161.104" x2="162.6353" y1="39.9826" y2="41.6832" /><line stroke="rgb(0%,0%,0%)" x1="162.6353" x2="163.059" y1="41.6832" y2="42.4172" /><line stroke="rgb(0%,0%,0%)" x1="163.059" x2="164.2032" y1="42.4172" y2="44.3989" /><line stroke="rgb(0%,0%,0%)" x1="164.2032" x2="164.4651" y1="44.3989" y2="45.205" /><line stroke="rgb(0%,0%,0%)" x1="164.4651" x2="165.1722" y1="45.205" y2="47.3813" /><line stroke="rgb(0%,0%,0%)" x1="65.1722" x2="65.2608" y1="47.3813" y2="48.2242" /><line stroke="rgb(0%,0%,0%)" x1="65.2608" x2="65.5" y1="48.2242" y2="50.5" /><line stroke="rgb(0%,0%,0%)" x1="65.5" x2="65.4114" y1="50.5" y2="51.3428" /><line stroke="rgb(0%,0%,0%)" x1="65.4114" x2="65.1722" y1="51.3428" y2="53.6187" /><line stroke="rgb(0%,0%,0%)" x1="65.1722" x2="64.9103" y1="53.6187" y2="54.4247" /><line stroke="rgb(0%,0%,0%)" x1="64.9103" x2="64.2032" y1="54.4247" y2="56.6011" /><line stroke="rgb(0%,0%,0%)" x1="64.2032" x2="63.7794" y1="56.6011" y2="57.335" /><line stroke="rgb(0%,0%,0%)" x1="63.7794" x2="62.6352" y1="57.335" y2="59.3168" /><line stroke="rgb(0%,0%,0%)" x1="62.6352" x2="62.0682" y1="59.3168" y2="59.9466" /><line stroke="rgb(0%,0%,0%)" x1="62.0682" x2="60.537" y1="59.9466" y2="61.6472" /><line stroke="rgb(0%,0%,0%)" x1="60.537" x2="59.8513" y1="61.6472" y2="62.1453" /><line stroke="rgb(0%,0%,0%)" x1="59.8513" x2="58.0" y1="62.1453" y2="63.4904" /><line stroke="rgb(0%,0%,0%)" x1="58.0" x2="57.2258" y1="63.4904" y2="63.8351" /><line stroke="rgb(0%,0%,0%)" x1="57.2258" x2="55.1353" y1="63.8351" y2="64.7658" /><line stroke="rgb(0%,0%,0%)" x1="55.1353" x2="54.3063" y1="64.7658" y2="64.942" /><line stroke="rgb(0%,0%,0%)" x1="54.3063" x2="52.0679" y1="64.942" y2="65.4178" /><line stroke="rgb(0%,0%,0%)" x1="52.0679" x2="51.2204" y1="65.4178" y2="65.4178" /><line stroke="rgb(0%,0%,0%)" x1="51.2204" x2="48.9321" y1="65.4178" y2="65.4178" /><line stroke="rgb(0%,0%,0%)" x1="48.9321" x2="48.1031" y1="65.4178" y2="65.2416" /><line stroke="rgb(0%,0%,0%)" x1="48.1031" x2="45.8647" y1="65.2416" y2="64.7658" /><line stroke="rgb(0%,0%,0%)" x1="45.8647" x2="45.0905" y1="64.7658" y2="64.4211" /><line stroke="rgb(0%,0%,0%)" x1="45.0905" x2="43.0" y1="64.4211" y2="63.4904" /><line stroke="rgb(0%,0%,0%)" x1="43.0" x2="42.3144" y1="63.4904" y2="62.9922" /><line stroke="rgb(0%,0%,0%)" x1="42.3144" x2="40.463" y1="62.9922" y2="61.6472" /><line stroke="rgb(0%,0%,0%)" x1="40.463" x2="39.896" y1="61.6472" y2="61.0174" /><line stroke="rgb(0%,0%,0%)" x1="39.896" x2="38.3647" y1="61.0174" y2="59.3168" /><line stroke="rgb(0%,0%,0%)" x1="38.3647" x2="37.941" y1="59.3168" y2="58.5828" /><line stroke="rgb(0%,0%,0%)" x1="37.941" x2="36.7968" y1="58.5828" y2="56.6011" /><line stroke="rgb(0%,0%,0%)" x1="36.7968" x2="36.5349" y1="56.6011" y2="55.795" /><line stroke="rgb(0%,0%,0%)" x1="36.5349" x2="35.8278" y1="55.795" y2="53.6187" /><line stroke="rgb(0%,0%,0%)" x1="35.8278" x2="35.7392" y1="53.6187" y2="52.7758" /><line stroke="rgb(0%,0%,0%)" x1="35.7392" x2="35.5" y1="52.7758" y2="50.5" /><line stroke="rgb(0%,0%,0%)" x1="35.5" x2="35.5886" y1="50.5" y2="49.6572" /><line stroke="rgb(0%,0%,0%)" x1="35.5886" x2="35.8278" y1="49.6572" y2="47.3813" /><line stroke="rgb(0%,0%,0%)" x1="35.8278" x2="36.0897" y1="47.3813" y2="46.5753" /><line stroke="rgb(0%,0%,0%)" x1="36.0897" x2="36.7968" y1="46.5753" y2="44.3989" /><line stroke="rgb(0%,0%,0%)" x1="36.7968" x2="37.2206" y1="44.3989" y2="43.665" /><line stroke="rgb(0%,0%,0%)" x1="37.2206" x2="38.3647" y1="43.665" y2="41.6832" /><line stroke="rgb(0%,0%,0%)" x1="38.3647" x2="38.9318" y1="41.6832" y2="41.0534" /><line stroke="rgb(0%,0%,0%)" x1="38.9318" x2="40.463" y1="41.0534" y2="39.3528" /><line stroke="rgb(0%,0%,0%)" x1="40.463" x2="41.1487" y1="39.3528" y2="38.8547" /><line stroke="rgb(0%,0%,0%)" x1="41.1487" x2="43.0" y1="38.8547" y2="37.5096" /><line stroke="rgb(0%,0%,0%)" x1="43.0" x2="43.7742" y1="37.5096" y2="37.1649" /><line stroke="rgb(0%,0%,0%)" x1="43.7742" x2="45.8647" y1="37.1649" y2="36.2342" /><line stroke="rgb(0%,0%,0%)" x1="45.8647" x2="46.6937" y1="36.2342" y2="36.058" /><line stroke="rgb(0%,0%,0%)" x1="46.6937" x2="48.9321" y1="36.058" y2="35.5822" /><line stroke="rgb(0%,0%,0%)" x1="48.9321" x2="49.7795" y1="35.5822" y2="35.5822" /><line stroke="rgb(0%,0%,0%)" x1="49.7795" x2="52.0679" y1="35.5822" y2="35.5822" /><line stroke="rgb(0%,0%,0%)" x1="52.0679" x2="52.8969" y1="35.5822" y2="35.7584" /><line stroke="rgb(0%,0%,0%)" x1="52.8969" x2="55.1353" y1="35.7584" y2="36.2342" /><line stroke="rgb(0%,0%,0%)" x1="55.1353" x2="55.9095" y1="36.2342" y2="36.5789" /><line stroke="rgb(0%,0%,0%)" x1="55.9095" x2="58.0" y1="36.5789" y2="37.5096" /><line stroke="rgb(0%,0%,0%)" x1="58.0" x2="58.6856" y1="37.5096" y2="38.0078" /><line stroke="rgb(0%,0%,0%)" x1="58.6856" x2="60.537" y1="38.0078" y2="39.3528" /><line stroke="rgb(0%,0%,0%)" x1="60.537" x2="61.104" y1="39.3528" y2="39.9826" /><line stroke="rgb(0%,0%,0%)" x1="61.104" x2="62.6352" y1="39.9826" y2="41.6832" /><line stroke="rgb(0%,0%,0%)" x1="62.6352" x2="63.059" y1="41.6832" y2="42.4172" /><line stroke="rgb(0%,0%,0%)" x1="63.059" x2="64.2032" y1="42.4172" y2="44.3989" /><line stroke="rgb(0%,0%,0%)" x1="64.2032" x2="64.4651" y1="44.3989" y2="45.205" /><line stroke="rgb(0%,0%,0%)" x1="64.4651" x2="65.1722" y1="45.205" y2="47.3813" /></svg>