<?xml version="1.0" encoding="utf-8" ?>
<svg baseProfile="tiny" height="100%" version="1.2" width="100%" xmlns="http://www.w3.org/2000/svg" xmlns:ev="http://www.w3.org/2001/xml-events" xmlns:xlink="http://www.w3.org/1999/xlink"><defs /><line stroke="rgb(0%,0%,0%)" x1="306.9" x2="306.9" y1="33.3917" y2="0.5" /><line stroke="rgb(0%,0%,0%)" x1="306.9" x2="306.9" y1="66.4027" y2="100.5" /><line stroke="rgb(0%,0%,0%)" x1="306.9" x2="306.9" y1="33.3917" y2="35.5822" /><line stroke="rgb(0%,0%,0%)" x1="306.9" x2="306.9" y1="66.4027" y2="65.4178" /><line stroke="rgb(0%,0%,0%)" x1="336.9" x2="336.9" y1="0.5" y2="31.2782" /><line stroke="rgb(0%,0%,0%)" x1="336.9" x2="336.9" y1="31.2782" y2="33.3917" /><line stroke="rgb(0%,0%,0%)" x1="336.9" x2="336.9" y1="33.3917" y2="35.5822" /><line stroke="rgb(0%,0%,0%)" x1="336.9" x2="336.9" y1="69.7218" y2="100.5" /><line stroke="rgb(0%,0%,0%)" x1="336.9" x2="336.9" y1="67.6083" y2="65.4178" /><line stroke="rgb(0%,0%,0%)" x1="336.9" x2="336.9" y1="67.6083" y2="69.7218" /><line stroke="rgb(0%,0%,0%)" x1="336.9" x2="322.17" y1="100.5" y2="100.5" /><line stroke="rgb(0%,0%,0%)" x1="322.17" x2="306.9" y1="100.5" y2="100.5" /><line stroke="rgb(0%,0%,0%)" x1="336.9" x2="322.17" y1="0.5" y2="0.5" /><line stroke="rgb(0%,0%,0%)" x1="322.17" x2="306.9" y1="0.5" y2="0.5" /><line stroke="rgb(0%,0%,0%)" x1="336.9" x2="327.5953" y1="35.5822" y2="35.5822" /><line stroke="rgb(0%,0%,0%)" x1="327.5953" x2="306.9" y1="35.5822" y2="35.5822" /><line stroke="rgb(0%,0%,0%)" x1="336.9" x2="316.2047" y1="65.4178" y2="65.4178" /><line stroke="rgb(0%,0%,0%)" x1="316.2047" x2="306.9" y1="65.4178" y2="65.4178" /></svg>