<?xml version="1.0" encoding="utf-8" ?>
<svg baseProfile="tiny" height="100%" version="1.2" width="100%" xmlns="http://www.w3.org/2000/svg" xmlns:ev="http://www.w3.org/2001/xml-events" xmlns:xlink="http://www.w3.org/1999/xlink"><defs /><line stroke="rgb(0%,0%,0%)" x1="306.9" x2="306.9" y1="32.3791" y2="0.5" /><line stroke="rgb(0%,0%,0%)" x1="306.9" x2="306.9" y1="100.5" y2="65.4483" /><line stroke="rgb(0%,0%,0%)" x1="306.9" x2="306.9" y1="65.4483" y2="65.412" /><line stroke="rgb(0%,0%,0%)" x1="306.9" x2="306.9" y1="35.5517" y2="35.588" /><line stroke="rgb(0%,0%,0%)" x1="306.9" x2="306.9" y1="35.5517" y2="32.3791" /><line stroke="rgb(0%,0%,0%)" x1="336.9" x2="336.9" y1="0.5" y2="30.3306" /><line stroke="rgb(0%,0%,0%)" x1="336.9" x2="336.9" y1="30.3306" y2="32.3791" /><line stroke="rgb(0%,0%,0%)" x1="336.9" x2="336.9" y1="32.3791" y2="35.5517" /><line stroke="rgb(0%,0%,0%)" x1="336.9" x2="336.9" y1="70.6694" y2="100.5" /><line stroke="rgb(0%,0%,0%)" x1="336.9" x2="336.9" y1="35.588" y2="35.5517" /><line stroke="rgb(0%,0%,0%)" x1="336.9" x2="336.9" y1="65.4483" y2="65.412" /><line stroke="rgb(0%,0%,0%)" x1="336.9" x2="336.9" y1="65.4483" y2="68.6208" /><line stroke="rgb(0%,0%,0%)" x1="336.9" x2="336.9" y1="68.6208" y2="70.6694" /><line stroke="rgb(0%,0%,0%)" x1="336.9" x2="322.6234" y1="100.5" y2="100.5" /><line stroke="rgb(0%,0%,0%)" x1="322.6234" x2="306.9" y1="100.5" y2="100.5" /><line stroke="rgb(0%,0%,0%)" x1="336.9" x2="322.6234" y1="0.5" y2="0.5" /><line stroke="rgb(0%,0%,0%)" x1="322.6234" x2="306.9" y1="0.5" y2="0.5" /><line stroke="rgb(0%,0%,0%)" x1="336.9" x2="307.168" y1="35.588" y2="35.588" /><line stroke="rgb(0%,0%,0%)" x1="307.168" x2="306.9" y1="35.588" y2="35.588" /><line stroke="rgb(0%,0%,0%)" x1="336.9" x2="336.632" y1="65.412" y2="65.412" /><line stroke="rgb(0%,0%,0%)" x1="336.632" x2="306.9" y1="65.412" y2="65.412" /></svg>