<?xml version="1.0" encoding="utf-8" ?>
<svg baseProfile="tiny" height="100%" version="1.2" width="100%" xmlns="http://www.w3.org/2000/svg" xmlns:ev="http://www.w3.org/2001/xml-events" xmlns:xlink="http://www.w3.org/1999/xlink"><defs /><line stroke="rgb(0%,0%,0%)" x1="306.9" x2="306.9" y1="31.3666" y2="0.5" /><line stroke="rgb(0%,0%,0%)" x1="306.9" x2="306.9" y1="100.5" y2="66.5617" /><line stroke="rgb(0%,0%,0%)" x1="306.9" x2="306.9" y1="66.5617" y2="65.1994" /><line stroke="rgb(0%,0%,0%)" x1="306.9" x2="306.9" y1="34.4383" y2="35.8006" /><line stroke="rgb(0%,0%,0%)" x1="306.9" x2="306.9" y1="34.4383" y2="31.3666" /><line stroke="rgb(0%,0%,0%)" x1="336.9" x2="336.9" y1="0.5" y2="29.3831" /><line stroke="rgb(0%,0%,0%)" x1="336.9" x2="336.9" y1="29.3831" y2="31.3666" /><line stroke="rgb(0%,0%,0%)" x1="336.9" x2="336.9" y1="31.3666" y2="34.4383" /><line stroke="rgb(0%,0%,0%)" x1="336.9" x2="336.9" y1="71.6169" y2="100.5" /><line stroke="rgb(0%,0%,0%)" x1="336.9" x2="336.9" y1="35.8006" y2="34.4383" /><line stroke="rgb(0%,0%,0%)" x1="336.9" x2="336.9" y1="66.5617" y2="65.1994" /><line stroke="rgb(0%,0%,0%)" x1="336.9" x2="336.9" y1="66.5617" y2="69.6334" /><line stroke="rgb(0%,0%,0%)" x1="336.9" x2="336.9" y1="69.6334" y2="71.6169" /><line stroke="rgb(0%,0%,0%)" x1="336.9" x2="323.0769" y1="100.5" y2="100.5" /><line stroke="rgb(0%,0%,0%)" x1="323.0769" x2="306.9" y1="100.5" y2="100.5" /><line stroke="rgb(0%,0%,0%)" x1="336.9" x2="323.0769" y1="0.5" y2="0.5" /><line stroke="rgb(0%,0%,0%)" x1="323.0769" x2="306.9" y1="0.5" y2="0.5" /><line stroke="rgb(0%,0%,0%)" x1="336.9" x2="316.9484" y1="35.8006" y2="35.8006" /><line stroke="rgb(0%,0%,0%)" x1="316.9484" x2="306.9" y1="35.8006" y2="35.8006" /><line stroke="rgb(0%,0%,0%)" x1="336.9" x2="326.8516" y1="65.1994" y2="65.1994" /><line stroke="rgb(0%,0%,0%)" x1="326.8516" x2="306.9" y1="65.1994" y2="65.1994" /></svg>