<?xml version="1.0" encoding="utf-8" ?>
<svg baseProfile="tiny" height="100%" version="1.2" width="100%" xmlns="http://www.w3.org/2000/svg" xmlns:ev="http://www.w3.org/2001/xml-events" xmlns:xlink="http://www.w3.org/1999/xlink"><defs /><line stroke="rgb(0%,0%,0%)" x1="306.9" x2="306.9" y1="30.354" y2="0.5" /><line stroke="rgb(0%,0%,0%)" x1="306.9" x2="306.9" y1="100.5" y2="67.675" /><line stroke="rgb(0%,0%,0%)" x1="306.9" x2="306.9" y1="67.675" y2="64.9869" /><line stroke="rgb(0%,0%,0%)" x1="306.9" x2="306.9" y1="33.325" y2="36.0131" /><line stroke="rgb(0%,0%,0%)" x1="306.9" x2="306.9" y1="33.325" y2="30.354" /><line stroke="rgb(0%,0%,0%)" x1="336.9" x2="336.9" y1="0.5" y2="28.4356" /><line stroke="rgb(0%,0%,0%)" x1="336.9" x2="336.9" y1="28.4356" y2="30.354" /><line stroke="rgb(0%,0%,0%)" x1="336.9" x2="336.9" y1="30.354" y2="33.325" /><line stroke="rgb(0%,0%,0%)" x1="336.9" x2="336.9" y1="72.5644" y2="100.5" /><line stroke="rgb(0%,0%,0%)" x1="336.9" x2="336.9" y1="36.0131" y2="33.325" /><line stroke="rgb(0%,0%,0%)" x1="336.9" x2="336.9" y1="67.675" y2="64.9869" /><line stroke="rgb(0%,0%,0%)" x1="336.9" x2="336.9" y1="67.675" y2="70.646" /><line stroke="rgb(0%,0%,0%)" x1="336.9" x2="336.9" y1="70.646" y2="72.5644" /><line stroke="rgb(0%,0%,0%)" x1="336.9" x2="323.5303" y1="100.5" y2="100.5" /><line stroke="rgb(0%,0%,0%)" x1="323.5303" x2="306.9" y1="100.5" y2="100.5" /><line stroke="rgb(0%,0%,0%)" x1="336.9" x2="323.5303" y1="0.5" y2="0.5" /><line stroke="rgb(0%,0%,0%)" x1="323.5303" x2="306.9" y1="0.5" y2="0.5" /><line stroke="rgb(0%,0%,0%)" x1="336.9" x2="326.7289" y1="36.0131" y2="36.0131" /><line stroke="rgb(0%,0%,0%)" x1="326.7289" x2="306.9" y1="36.0131" y2="36.0131" /><line stroke="rgb(0%,0%,0%)" x1="336.9" x2="317.0711" y1="64.9869" y2="64.9869" /><line stroke="rgb(0%,0%,0%)" x1="317.0711" x2="306.9" y1="64.9869" y2="64.9869" /></svg>