<?xml version="1.0" encoding="utf-8" ?>
<svg baseProfile="tiny" height="100%" version="1.2" width="100%" xmlns="http://www.w3.org/2000/svg" xmlns:ev="http://www.w3.org/2001/xml-events" xmlns:xlink="http://www.w3.org/1999/xlink"><defs /><line stroke="rgb(0%,0%,0%)" x1="306.9" x2="306.9" y1="29.3414" y2="0.5" /><line stroke="rgb(0%,0%,0%)" x1="306.9" x2="306.9" y1="100.5" y2="68.7884" /><line stroke="rgb(0%,0%,0%)" x1="306.9" x2="306.9" y1="68.7884" y2="64.7743" /><line stroke="rgb(0%,0%,0%)" x1="306.9" x2="306.9" y1="32.2116" y2="36.2257" /><line stroke="rgb(0%,0%,0%)" x1="306.9" x2="306.9" y1="32.2116" y2="29.3414" /><line stroke="rgb(0%,0%,0%)" x1="336.9" x2="336.9" y1="0.5" y2="27.4881" /><line stroke="rgb(0%,0%,0%)" x1="336.9" x2="336.9" y1="27.4881" y2="29.3414" /><line stroke="rgb(0%,0%,0%)" x1="336.9" x2="336.9" y1="29.3414" y2="32.2116" /><line stroke="rgb(0%,0%,0%)" x1="336.9" x2="336.9" y1="73.5119" y2="100.5" /><line stroke="rgb(0%,0%,0%)" x1="336.9" x2="336.9" y1="36.2257" y2="32.2116" /><line stroke="rgb(0%,0%,0%)" x1="336.9" x2="336.9" y1="68.7884" y2="64.7743" /><line stroke="rgb(0%,0%,0%)" x1="336.9" x2="336.9" y1="68.7884" y2="71.6586" /><line stroke="rgb(0%,0%,0%)" x1="336.9" x2="336.9" y1="71.6586" y2="73.5119" /><line stroke="rgb(0%,0%,0%)" x1="336.9" x2="323.9838" y1="100.5" y2="100.5" /><line stroke="rgb(0%,0%,0%)" x1="323.9838" x2="306.9" y1="100.5" y2="100.5" /><line stroke="rgb(0%,0%,0%)" x1="336.9" x2="323.9838" y1="0.5" y2="0.5" /><line stroke="rgb(0%,0%,0%)" x1="323.9838" x2="306.9" y1="0.5" y2="0.5" /><line stroke="rgb(0%,0%,0%)" x1="336.9" x2="336.5093" y1="36.2257" y2="36.2257" /><line stroke="rgb(0%,0%,0%)" x1="336.5093" x2="306.9" y1="36.2257" y2="36.2257" /><line stroke="rgb(0%,0%,0%)" x1="336.9" x2="307.2907" y1="64.7743" y2="64.7743" /><line stroke="rgb(0%,0%,0%)" x1="307.2907" x2="306.9" y1="64.7743" y2="64.7743" /></svg>