<?xml version="1.0" encoding="utf-8" ?>
<svg baseProfile="tiny" height="100%" version="1.2" width="100%" xmlns="http://www.w3.org/2000/svg" xmlns:ev="http://www.w3.org/2001/xml-events" xmlns:xlink="http://www.w3.org/1999/xlink"><defs /><line stroke="rgb(0%,0%,0%)" x1="306.9" x2="306.9" y1="28.3289" y2="0.5" /><line stroke="rgb(0%,0%,0%)" x1="306.9" x2="306.9" y1="100.5" y2="69.9017" /><line stroke="rgb(0%,0%,0%)" x1="306.9" x2="306.9" y1="69.9017" y2="65.972" /><line stroke="rgb(0%,0%,0%)" x1="306.9" x2="306.9" y1="65.972" y2="64.3384" /><line stroke="rgb(0%,0%,0%)" x1="306.9" x2="306.9" y1="36.6616" y2="35.028" /><line stroke="rgb(0%,0%,0%)" x1="306.9" x2="306.9" y1="35.028" y2="31.0983" /><line stroke="rgb(0%,0%,0%)" x1="306.9" x2="306.9" y1="31.0983" y2="28.3289" /><line stroke="rgb(0%,0%,0%)" x1="336.9" x2="336.9" y1="0.5" y2="26.5406" /><line stroke="rgb(0%,0%,0%)" x1="336.9" x2="336.9" y1="26.5406" y2="28.3289" /><line stroke="rgb(0%,0%,0%)" x1="336.9" x2="336.9" y1="28.3289" y2="31.0983" /><line stroke="rgb(0%,0%,0%)" x1="336.9" x2="336.9" y1="74.4594" y2="100.5" /><line stroke="rgb(0%,0%,0%)" x1="336.9" x2="336.9" y1="31.0983" y2="35.028" /><line stroke="rgb(0%,0%,0%)" x1="336.9" x2="336.9" y1="35.028" y2="36.6616" /><line stroke="rgb(0%,0%,0%)" x1="336.9" x2="336.9" y1="64.3384" y2="65.972" /><line stroke="rgb(0%,0%,0%)" x1="336.9" x2="336.9" y1="65.972" y2="69.9017" /><line stroke="rgb(0%,0%,0%)" x1="336.9" x2="336.9" y1="69.9017" y2="72.6711" /><line stroke="rgb(0%,0%,0%)" x1="336.9" x2="336.9" y1="72.6711" y2="74.4594" /><line stroke="rgb(0%,0%,0%)" x1="336.9" x2="324.4373" y1="100.5" y2="100.5" /><line stroke="rgb(0%,0%,0%)" x1="324.4373" x2="306.9" y1="100.5" y2="100.5" /><line stroke="rgb(0%,0%,0%)" x1="336.9" x2="324.4373" y1="0.5" y2="0.5" /><line stroke="rgb(0%,0%,0%)" x1="324.4373" x2="306.9" y1="0.5" y2="0.5" /><line stroke="rgb(0%,0%,0%)" x1="336.9" x2="316.9538" y1="36.6616" y2="36.6616" /><line stroke="rgb(0%,0%,0%)" x1="316.9538" x2="306.9" y1="36.6616" y2="36.6616" /><line stroke="rgb(0%,0%,0%)" x1="336.9" x2="326.8461" y1="64.3384" y2="64.3384" /><line stroke="rgb(0%,0%,0%)" x1="326.8461" x2="306.9" y1="64.3384" y2="64.3384" /></svg>