<?xml version="1.0" encoding="utf-8" ?>
<svg baseProfile="tiny" height="100%" version="1.2" width="100%" xmlns="http://www.w3.org/2000/svg" xmlns:ev="http://www.w3.org/2001/xml-events" xmlns:xlink="http://www.w3.org/1999/xlink"><defs /><line stroke="rgb(0%,0%,0%)" x1="306.9" x2="306.9" y1="27.3163" y2="0.5" /><line stroke="rgb(0%,0%,0%)" x1="306.9" x2="306.9" y1="100.5" y2="71.015" /><line stroke="rgb(0%,0%,0%)" x1="306.9" x2="306.9" y1="71.015" y2="67.2283" /><line stroke="rgb(0%,0%,0%)" x1="306.9" x2="306.9" y1="67.2283" y2="63.8932" /><line stroke="rgb(0%,0%,0%)" x1="306.9" x2="306.9" y1="37.1068" y2="33.7717" /><line stroke="rgb(0%,0%,0%)" x1="306.9" x2="306.9" y1="33.7717" y2="29.985" /><line stroke="rgb(0%,0%,0%)" x1="306.9" x2="306.9" y1="29.985" y2="27.3163" /><line stroke="rgb(0%,0%,0%)" x1="336.9" x2="336.9" y1="0.5" y2="25.5931" /><line stroke="rgb(0%,0%,0%)" x1="336.9" x2="336.9" y1="25.5931" y2="27.3163" /><line stroke="rgb(0%,0%,0%)" x1="336.9" x2="336.9" y1="27.3163" y2="29.985" /><line stroke="rgb(0%,0%,0%)" x1="336.9" x2="336.9" y1="75.4069" y2="100.5" /><line stroke="rgb(0%,0%,0%)" x1="336.9" x2="336.9" y1="29.985" y2="33.7717" /><line stroke="rgb(0%,0%,0%)" x1="336.9" x2="336.9" y1="33.7717" y2="37.1068" /><line stroke="rgb(0%,0%,0%)" x1="336.9" x2="336.9" y1="63.8932" y2="67.2283" /><line stroke="rgb(0%,0%,0%)" x1="336.9" x2="336.9" y1="67.2283" y2="71.015" /><line stroke="rgb(0%,0%,0%)" x1="336.9" x2="336.9" y1="71.015" y2="73.6837" /><line stroke="rgb(0%,0%,0%)" x1="336.9" x2="336.9" y1="73.6837" y2="75.4069" /><line stroke="rgb(0%,0%,0%)" x1="336.9" x2="324.8907" y1="100.5" y2="100.5" /><line stroke="rgb(0%,0%,0%)" x1="324.8907" x2="306.9" y1="100.5" y2="100.5" /><line stroke="rgb(0%,0%,0%)" x1="336.9" x2="324.8907" y1="0.5" y2="0.5" /><line stroke="rgb(0%,0%,0%)" x1="324.8907" x2="306.9" y1="0.5" y2="0.5" /><line stroke="rgb(0%,0%,0%)" x1="336.9" x2="327.426" y1="37.1068" y2="37.1068" /><line stroke="rgb(0%,0%,0%)" x1="327.426" x2="306.9" y1="37.1068" y2="37.1068" /><line stroke="rgb(0%,0%,0%)" x1="336.9" x2="316.374" y1="63.8932" y2="63.8932" /><line stroke="rgb(0%,0%,0%)" x1="316.374" x2="306.9" y1="63.8932" y2="63.8932" /></svg>