<?xml version="1.0" encoding="utf-8" ?>
<svg baseProfile="tiny" height="100%" version="1.2" width="100%" xmlns="http://www.w3.org/2000/svg" xmlns:ev="http://www.w3.org/2001/xml-events" xmlns:xlink="http://www.w3.org/1999/xlink"><defs /><line stroke="rgb(0%,0%,0%)" x1="306.9" x2="306.9" y1="26.3037" y2="0.5" /><line stroke="rgb(0%,0%,0%)" x1="306.9" x2="306.9" y1="100.5" y2="72.1284" /><line stroke="rgb(0%,0%,0%)" x1="306.9" x2="306.9" y1="72.1284" y2="68.4846" /><line stroke="rgb(0%,0%,0%)" x1="306.9" x2="306.9" y1="68.4846" y2="63.6283" /><line stroke="rgb(0%,0%,0%)" x1="306.9" x2="306.9" y1="37.3717" y2="37.5789" /><line stroke="rgb(0%,0%,0%)" x1="306.9" x2="306.9" y1="37.3717" y2="32.5154" /><line stroke="rgb(0%,0%,0%)" x1="306.9" x2="306.9" y1="32.5154" y2="28.8716" /><line stroke="rgb(0%,0%,0%)" x1="306.9" x2="306.9" y1="28.8716" y2="26.3037" /><line stroke="rgb(0%,0%,0%)" x1="306.9" x2="306.9" y1="63.4211" y2="63.6283" /><line stroke="rgb(0%,0%,0%)" x1="336.9" x2="336.9" y1="0.5" y2="24.6456" /><line stroke="rgb(0%,0%,0%)" x1="336.9" x2="336.9" y1="24.6456" y2="26.3037" /><line stroke="rgb(0%,0%,0%)" x1="336.9" x2="336.9" y1="26.3037" y2="28.8716" /><line stroke="rgb(0%,0%,0%)" x1="336.9" x2="336.9" y1="76.3544" y2="100.5" /><line stroke="rgb(0%,0%,0%)" x1="336.9" x2="336.9" y1="28.8716" y2="32.5154" /><line stroke="rgb(0%,0%,0%)" x1="336.9" x2="336.9" y1="32.5154" y2="37.3717" /><line stroke="rgb(0%,0%,0%)" x1="336.9" x2="336.9" y1="37.3717" y2="37.5789" /><line stroke="rgb(0%,0%,0%)" x1="336.9" x2="336.9" y1="63.6283" y2="63.4211" /><line stroke="rgb(0%,0%,0%)" x1="336.9" x2="336.9" y1="63.6283" y2="68.4846" /><line stroke="rgb(0%,0%,0%)" x1="336.9" x2="336.9" y1="68.4846" y2="72.1284" /><line stroke="rgb(0%,0%,0%)" x1="336.9" x2="336.9" y1="72.1284" y2="74.6963" /><line stroke="rgb(0%,0%,0%)" x1="336.9" x2="336.9" y1="74.6963" y2="76.3544" /><line stroke="rgb(0%,0%,0%)" x1="336.9" x2="325.3442" y1="100.5" y2="100.5" /><line stroke="rgb(0%,0%,0%)" x1="325.3442" x2="306.9" y1="100.5" y2="100.5" /><line stroke="rgb(0%,0%,0%)" x1="336.9" x2="325.3442" y1="0.5" y2="0.5" /><line stroke="rgb(0%,0%,0%)" x1="325.3442" x2="306.9" y1="0.5" y2="0.5" /><line stroke="rgb(0%,0%,0%)" x1="336.9" x2="308.0271" y1="37.5789" y2="37.5789" /><line stroke="rgb(0%,0%,0%)" x1="308.0271" x2="306.9" y1="37.5789" y2="37.5789" /><line stroke="rgb(0%,0%,0%)" x1="336.9" x2="335.7729" y1="63.4211" y2="63.4211" /><line stroke="rgb(0%,0%,0%)" x1="335.7729" x2="306.9" y1="63.4211" y2="63.4211" /></svg>