<?xml version="1.0" encoding="utf-8" ?>
<svg baseProfile="tiny" height="100%" version="1.2" width="100%" xmlns="http://www.w3.org/2000/svg" xmlns:ev="http://www.w3.org/2001/xml-events" xmlns:xlink="http://www.w3.org/1999/xlink"><defs /><line stroke="rgb(0%,0%,0%)" x1="306.9" x2="306.9" y1="25.2911" y2="0.5" /><line stroke="rgb(0%,0%,0%)" x1="306.9" x2="306.9" y1="100.5" y2="73.2417" /><line stroke="rgb(0%,0%,0%)" x1="306.9" x2="306.9" y1="73.2417" y2="69.741" /><line stroke="rgb(0%,0%,0%)" x1="306.9" x2="306.9" y1="69.741" y2="65.0752" /><line stroke="rgb(0%,0%,0%)" x1="306.9" x2="306.9" y1="35.9248" y2="38.3054" /><line stroke="rgb(0%,0%,0%)" x1="306.9" x2="306.9" y1="35.9248" y2="31.259" /><line stroke="rgb(0%,0%,0%)" x1="306.9" x2="306.9" y1="31.259" y2="27.7583" /><line stroke="rgb(0%,0%,0%)" x1="306.9" x2="306.9" y1="27.7583" y2="25.2911" /><line stroke="rgb(0%,0%,0%)" x1="306.9" x2="306.9" y1="62.6946" y2="65.0752" /><line stroke="rgb(0%,0%,0%)" x1="336.9" x2="336.9" y1="0.5" y2="23.6981" /><line stroke="rgb(0%,0%,0%)" x1="336.9" x2="336.9" y1="23.6981" y2="25.2911" /><line stroke="rgb(0%,0%,0%)" x1="336.9" x2="336.9" y1="25.2911" y2="27.7583" /><line stroke="rgb(0%,0%,0%)" x1="336.9" x2="336.9" y1="77.3019" y2="100.5" /><line stroke="rgb(0%,0%,0%)" x1="336.9" x2="336.9" y1="27.7583" y2="31.259" /><line stroke="rgb(0%,0%,0%)" x1="336.9" x2="336.9" y1="31.259" y2="35.9248" /><line stroke="rgb(0%,0%,0%)" x1="336.9" x2="336.9" y1="35.9248" y2="38.3054" /><line stroke="rgb(0%,0%,0%)" x1="336.9" x2="336.9" y1="65.0752" y2="62.6946" /><line stroke="rgb(0%,0%,0%)" x1="336.9" x2="336.9" y1="65.0752" y2="69.741" /><line stroke="rgb(0%,0%,0%)" x1="336.9" x2="336.9" y1="69.741" y2="73.2417" /><line stroke="rgb(0%,0%,0%)" x1="336.9" x2="336.9" y1="73.2417" y2="75.7089" /><line stroke="rgb(0%,0%,0%)" x1="336.9" x2="336.9" y1="75.7089" y2="77.3019" /><line stroke="rgb(0%,0%,0%)" x1="336.9" x2="325.7977" y1="100.5" y2="100.5" /><line stroke="rgb(0%,0%,0%)" x1="325.7977" x2="306.9" y1="100.5" y2="100.5" /><line stroke="rgb(0%,0%,0%)" x1="336.9" x2="325.7977" y1="0.5" y2="0.5" /><line stroke="rgb(0%,0%,0%)" x1="325.7977" x2="306.9" y1="0.5" y2="0.5" /><line stroke="rgb(0%,0%,0%)" x1="336.9" x2="319.8523" y1="38.3054" y2="38.3054" /><line stroke="rgb(0%,0%,0%)" x1="319.8523" x2="306.9" y1="38.3054" y2="38.3054" /><line stroke="rgb(0%,0%,0%)" x1="336.9" x2="323.9477" y1="62.6946" y2="62.6946" /><line stroke="rgb(0%,0%,0%)" x1="323.9477" x2="306.9" y1="62.6946" y2="62.6946" /></svg>