<?xml version="1.0" encoding="utf-8" ?>
<svg baseProfile="tiny" height="100%" version="1.2" width="100%" xmlns="http://www.w3.org/2000/svg" xmlns:ev="http://www.w3.org/2001/xml-events" xmlns:xlink="http://www.w3.org/1999/xlink"><defs /><line stroke="rgb(0%,0%,0%)" x1="306.9" x2="306.9" y1="24.2786" y2="0.5" /><line stroke="rgb(0%,0%,0%)" x1="306.9" x2="306.9" y1="100.5" y2="74.3551" /><line stroke="rgb(0%,0%,0%)" x1="306.9" x2="306.9" y1="74.3551" y2="70.9973" /><line stroke="rgb(0%,0%,0%)" x1="306.9" x2="306.9" y1="70.9973" y2="66.5221" /><line stroke="rgb(0%,0%,0%)" x1="306.9" x2="306.9" y1="34.4779" y2="39.032" /><line stroke="rgb(0%,0%,0%)" x1="306.9" x2="306.9" y1="34.4779" y2="30.0027" /><line stroke="rgb(0%,0%,0%)" x1="306.9" x2="306.9" y1="30.0027" y2="26.6449" /><line stroke="rgb(0%,0%,0%)" x1="306.9" x2="306.9" y1="26.6449" y2="24.2786" /><line stroke="rgb(0%,0%,0%)" x1="306.9" x2="306.9" y1="61.968" y2="66.5221" /><line stroke="rgb(0%,0%,0%)" x1="336.9" x2="336.9" y1="0.5" y2="22.7506" /><line stroke="rgb(0%,0%,0%)" x1="336.9" x2="336.9" y1="22.7506" y2="24.2786" /><line stroke="rgb(0%,0%,0%)" x1="336.9" x2="336.9" y1="24.2786" y2="26.6449" /><line stroke="rgb(0%,0%,0%)" x1="336.9" x2="336.9" y1="78.2494" y2="100.5" /><line stroke="rgb(0%,0%,0%)" x1="336.9" x2="336.9" y1="26.6449" y2="30.0027" /><line stroke="rgb(0%,0%,0%)" x1="336.9" x2="336.9" y1="30.0027" y2="34.4779" /><line stroke="rgb(0%,0%,0%)" x1="336.9" x2="336.9" y1="34.4779" y2="39.032" /><line stroke="rgb(0%,0%,0%)" x1="336.9" x2="336.9" y1="66.5221" y2="61.968" /><line stroke="rgb(0%,0%,0%)" x1="336.9" x2="336.9" y1="66.5221" y2="70.9973" /><line stroke="rgb(0%,0%,0%)" x1="336.9" x2="336.9" y1="70.9973" y2="74.3551" /><line stroke="rgb(0%,0%,0%)" x1="336.9" x2="336.9" y1="74.3551" y2="76.7214" /><line stroke="rgb(0%,0%,0%)" x1="336.9" x2="336.9" y1="76.7214" y2="78.2494" /><line stroke="rgb(0%,0%,0%)" x1="336.9" x2="326.2511" y1="100.5" y2="100.5" /><line stroke="rgb(0%,0%,0%)" x1="326.2511" x2="306.9" y1="100.5" y2="100.5" /><line stroke="rgb(0%,0%,0%)" x1="336.9" x2="326.2511" y1="0.5" y2="0.5" /><line stroke="rgb(0%,0%,0%)" x1="326.2511" x2="306.9" y1="0.5" y2="0.5" /><line stroke="rgb(0%,0%,0%)" x1="336.9" x2="331.6774" y1="39.032" y2="39.032" /><line stroke="rgb(0%,0%,0%)" x1="331.6774" x2="306.9" y1="39.032" y2="39.032" /><line stroke="rgb(0%,0%,0%)" x1="336.9" x2="312.1226" y1="61.968" y2="61.968" /><line stroke="rgb(0%,0%,0%)" x1="312.1226" x2="306.9" y1="61.968" y2="61.968" /></svg>