<?xml version="1.0" encoding="utf-8" ?>
<svg baseProfile="tiny" height="100%" version="1.2" width="100%" xmlns="http://www.w3.org/2000/svg" xmlns:ev="http://www.w3.org/2001/xml-events" xmlns:xlink="http://www.w3.org/1999/xlink"><defs /><line stroke="rgb(0%,0%,0%)" x1="351.9" x2="351.9" y1="0.5" y2="32.9016" /><line stroke="rgb(0%,0%,0%)" x1="351.9" x2="351.9" y1="32.9016" y2="100.5" /><line stroke="rgb(0%,0%,0%)" x1="295.6294" x2="339.9889" y1="100.5" y2="100.5" /><line stroke="rgb(0%,0%,0%)" x1="339.9889" x2="341.536" y1="100.5" y2="100.5" /><line stroke="rgb(0%,0%,0%)" x1="341.536" x2="343.3034" y1="100.5" y2="100.5" /><line stroke="rgb(0%,0%,0%)" x1="343.3034" x2="345.2649" y1="100.5" y2="100.5" /><line stroke="rgb(0%,0%,0%)" x1="345.2649" x2="347.3836" y1="100.5" y2="100.5" /><line stroke="rgb(0%,0%,0%)" x1="347.3836" x2="349.6132" y1="100.5" y2="100.5" /><line stroke="rgb(0%,0%,0%)" x1="349.6132" x2="351.9" y1="100.5" y2="100.5" /><line stroke="rgb(0%,0%,0%)" x1="295.6294" x2="75.958" y1="100.5" y2="100.5" /><line stroke="rgb(0%,0%,0%)" x1="75.958" x2="0.5" y1="100.5" y2="100.5" /><line stroke="rgb(0%,0%,0%)" x1="0.5" x2="75.958" y1="0.5" y2="0.5" /><line stroke="rgb(0%,0%,0%)" x1="75.958" x2="295.6294" y1="0.5" y2="0.5" /><line stroke="rgb(0%,0%,0%)" x1="295.6294" x2="339.9889" y1="0.5" y2="0.5" /><line stroke="rgb(0%,0%,0%)" x1="339.9889" x2="341.536" y1="0.5" y2="0.5" /><line stroke="rgb(0%,0%,0%)" x1="341.536" x2="343.3034" y1="0.5" y2="0.5" /><line stroke="rgb(0%,0%,0%)" x1="343.3034" x2="345.2649" y1="0.5" y2="0.5" /><line stroke="rgb(0%,0%,0%)" x1="345.2649" x2="347.3836" y1="0.5" y2="0.5" /><line stroke="rgb(0%,0%,0%)" x1="347.3836" x2="349.6132" y1="0.5" y2="0.5" /><line stroke="rgb(0%,0%,0%)" x1="349.6132" x2="351.9" y1="0.5" y2="0.5" /><line stroke="rgb(0%,0%,0%)" x1="0.5" x2="0.5" y1="0.5" y2="63.0132" /><line stroke="rgb(0%,0%,0%)" x1="0.5" x2="0.5" y1="63.0132" y2="100.5" /><line stroke="rgb(0%,0%,0%)" x1="165.1722" x2="165.2542" y1="47.3813" y2="48.1618" /><line stroke="rgb(0%,0%,0%)" x1="165.2542" x2="165.5" y1="48.1618" y2="50.5" /><line stroke="rgb(0%,0%,0%)" x1="165.5" x2="165.418" y1="50.5" y2="51.2805" /><line stroke="rgb(0%,0%,0%)" x1="165.418" x2="165.1722" y1="51.2805" y2="53.6187" /><line stroke="rgb(0%,0%,0%)" x1="165.1722" x2="164.9297" y1="53.6187" y2="54.3651" /><line stroke="rgb(0%,0%,0%)" x1="164.9297" x2="164.2032" y1="54.3651" y2="56.6011" /><line stroke="rgb(0%,0%,0%)" x1="164.2032" x2="163.8108" y1="56.6011" y2="57.2807" /><line stroke="rgb(0%,0%,0%)" x1="163.8108" x2="162.6353" y1="57.2807" y2="59.3168" /><line stroke="rgb(0%,0%,0%)" x1="162.6353" x2="162.1101" y1="59.3168" y2="59.9" /><line stroke="rgb(0%,0%,0%)" x1="162.1101" x2="160.537" y1="59.9" y2="61.6472" /><line stroke="rgb(0%,0%,0%)" x1="160.537" x2="159.902" y1="61.6472" y2="62.1085" /><line stroke="rgb(0%,0%,0%)" x1="159.902" x2="158.0" y1="62.1085" y2="63.4904" /><line stroke="rgb(0%,0%,0%)" x1="158.0" x2="157.2831" y1="63.4904" y2="63.8096" /><line stroke="rgb(0%,0%,0%)" x1="157.2831" x2="155.1353" y1="63.8096" y2="64.7658" /><line stroke="rgb(0%,0%,0%)" x1="155.1353" x2="154.3676" y1="64.7658" y2="64.929" /><line stroke="rgb(0%,0%,0%)" x1="154.3676" x2="152.0679" y1="64.929" y2="65.4178" /><line stroke="rgb(0%,0%,0%)" x1="152.0679" x2="151.2831" y1="65.4178" y2="65.4178" /><line stroke="rgb(0%,0%,0%)" x1="151.2831" x2="148.9321" y1="65.4178" y2="65.4178" /><line stroke="rgb(0%,0%,0%)" x1="148.9321" x2="148.1644" y1="65.4178" y2="65.2547" /><line stroke="rgb(0%,0%,0%)" x1="148.1644" x2="145.8647" y1="65.2547" y2="64.7658" /><line stroke="rgb(0%,0%,0%)" x1="145.8647" x2="145.1478" y1="64.7658" y2="64.4466" /><line stroke="rgb(0%,0%,0%)" x1="145.1478" x2="143.0" y1="64.4466" y2="63.4904" /><line stroke="rgb(0%,0%,0%)" x1="143.0" x2="142.3651" y1="63.4904" y2="63.0291" /><line stroke="rgb(0%,0%,0%)" x1="142.3651" x2="140.463" y1="63.0291" y2="61.6472" /><line stroke="rgb(0%,0%,0%)" x1="140.463" x2="139.9379" y1="61.6472" y2="61.064" /><line stroke="rgb(0%,0%,0%)" x1="139.9379" x2="138.3647" y1="61.064" y2="59.3168" /><line stroke="rgb(0%,0%,0%)" x1="138.3647" x2="137.9723" y1="59.3168" y2="58.6371" /><line stroke="rgb(0%,0%,0%)" x1="137.9723" x2="136.7968" y1="58.6371" y2="56.6011" /><line stroke="rgb(0%,0%,0%)" x1="136.7968" x2="136.5543" y1="56.6011" y2="55.8547" /><line stroke="rgb(0%,0%,0%)" x1="136.5543" x2="135.8278" y1="55.8547" y2="53.6187" /><line stroke="rgb(0%,0%,0%)" x1="135.8278" x2="135.7458" y1="53.6187" y2="52.8382" /><line stroke="rgb(0%,0%,0%)" x1="135.7458" x2="135.5" y1="52.8382" y2="50.5" /><line stroke="rgb(0%,0%,0%)" x1="135.5" x2="135.582" y1="50.5" y2="49.7195" /><line stroke="rgb(0%,0%,0%)" x1="135.582" x2="135.8278" y1="49.7195" y2="47.3813" /><line stroke="rgb(0%,0%,0%)" x1="135.8278" x2="136.0703" y1="47.3813" y2="46.6349" /><line stroke="rgb(0%,0%,0%)" x1="136.0703" x2="136.7968" y1="46.6349" y2="44.3989" /><line stroke="rgb(0%,0%,0%)" x1="136.7968" x2="137.1892" y1="44.3989" y2="43.7193" /><line stroke="rgb(0%,0%,0%)" x1="137.1892" x2="138.3647" y1="43.7193" y2="41.6832" /><line stroke="rgb(0%,0%,0%)" x1="138.3647" x2="138.8899" y1="41.6832" y2="41.1" /><line stroke="rgb(0%,0%,0%)" x1="138.8899" x2="140.463" y1="41.1" y2="39.3528" /><line stroke="rgb(0%,0%,0%)" x1="140.463" x2="141.0979" y1="39.3528" y2="38.8915" /><line stroke="rgb(0%,0%,0%)" x1="141.0979" x2="143.0" y1="38.8915" y2="37.5096" /><line stroke="rgb(0%,0%,0%)" x1="143.0" x2="143.7169" y1="37.5096" y2="37.1904" /><line stroke="rgb(0%,0%,0%)" x1="143.7169" x2="145.8647" y1="37.1904" y2="36.2342" /><line stroke="rgb(0%,0%,0%)" x1="145.8647" x2="146.6324" y1="36.2342" y2="36.071" /><line stroke="rgb(0%,0%,0%)" x1="146.6324" x2="148.9321" y1="36.071" y2="35.5822" /><line stroke="rgb(0%,0%,0%)" x1="148.9321" x2="149.7169" y1="35.5822" y2="35.5822" /><line stroke="rgb(0%,0%,0%)" x1="149.7169" x2="152.0679" y1="35.5822" y2="35.5822" /><line stroke="rgb(0%,0%,0%)" x1="152.0679" x2="152.8356" y1="35.5822" y2="35.7453" /><line stroke="rgb(0%,0%,0%)" x1="152.8356" x2="155.1353" y1="35.7453" y2="36.2342" /><line stroke="rgb(0%,0%,0%)" x1="155.1353" x2="155.8522" y1="36.2342" y2="36.5534" /><line stroke="rgb(0%,0%,0%)" x1="155.8522" x2="158.0" y1="36.5534" y2="37.5096" /><line stroke="rgb(0%,0%,0%)" x1="158.0" x2="158.6349" y1="37.5096" y2="37.9709" /><line stroke="rgb(0%,0%,0%)" x1="158.6349" x2="160.537" y1="37.9709" y2="39.3528" /><line stroke="rgb(0%,0%,0%)" x1="160.537" x2="161.0621" y1="39.3528" y2="39.936" /><line stroke="rgb(0%,0%,0%)" x1="161.0621" x2="162.6353" y1="39.936" y2="41.6832" /><line stroke="rgb(0%,0%,0%)" x1="162.6353" x2="163.0276" y1="41.6832" y2="42.3629" /><line stroke="rgb(0%,0%,0%)" x1="163.0276" x2="164.2032" y1="42.3629" y2="44.3989" /><line stroke="rgb(0%,0%,0%)" x1="164.2032" x2="164.4457" y1="44.3989" y2="45.1453" /><line stroke="rgb(0%,0%,0%)" x1="164.4457" x2="165.1722" y1="45.1453" y2="47.3813" /><line stroke="rgb(0%,0%,0%)" x1="65.1722" x2="65.2542" y1="47.3813" y2="48.1618" /><line stroke="rgb(0%,0%,0%)" x1="65.2542" x2="65.5" y1="48.1618" y2="50.5" /><line stroke="rgb(0%,0%,0%)" x1="65.5" x2="65.418" y1="50.5" y2="51.2805" /><line stroke="rgb(0%,0%,0%)" x1="65.418" x2="65.1722" y1="51.2805" y2="53.6187" /><line stroke="rgb(0%,0%,0%)" x1="65.1722" x2="64.9297" y1="53.6187" y2="54.3651" /><line stroke="rgb(0%,0%,0%)" x1="64.9297" x2="64.2032" y1="54.3651" y2="56.6011" /><line stroke="rgb(0%,0%,0%)" x1="64.2032" x2="63.8108" y1="56.6011" y2="57.2807" /><line stroke="rgb(0%,0%,0%)" x1="63.8108" x2="62.6352" y1="57.2807" y2="59.3168" /><line stroke="rgb(0%,0%,0%)" x1="62.6352" x2="62.1101" y1="59.3168" y2="59.9" /><line stroke="rgb(0%,0%,0%)" x1="62.1101" x2="60.537" y1="59.9" y2="61.6472" /><line stroke="rgb(0%,0%,0%)" x1="60.537" x2="59.9021" y1="61.6472" y2="62.1085" /><line stroke="rgb(0%,0%,0%)" x1="59.9021" x2="58.0" y1="62.1085" y2="63.4904" /><line stroke="rgb(0%,0%,0%)" x1="58.0" x2="57.2831" y1="63.4904" y2="63.8096" /><line stroke="rgb(0%,0%,0%)" x1="57.2831" x2="55.1353" y1="63.8096" y2="64.7658" /><line stroke="rgb(0%,0%,0%)" x1="55.1353" x2="54.3676" y1="64.7658" y2="64.929" /><line stroke="rgb(0%,0%,0%)" x1="54.3676" x2="52.0679" y1="64.929" y2="65.4178" /><line stroke="rgb(0%,0%,0%)" x1="52.0679" x2="51.2831" y1="65.4178" y2="65.4178" /><line stroke="rgb(0%,0%,0%)" x1="51.2831" x2="48.9321" y1="65.4178" y2="65.4178" /><line stroke="rgb(0%,0%,0%)" x1="48.9321" x2="48.1644" y1="65.4178" y2="65.2547" /><line stroke="rgb(0%,0%,0%)" x1="48.1644" x2="45.8647" y1="65.2547" y2="64.7658" /><line stroke="rgb(0%,0%,0%)" x1="45.8647" x2="45.1478" y1="64.7658" y2="64.4466" /><line stroke="rgb(0%,0%,0%)" x1="45.1478" x2="43.0" y1="64.4466" y2="63.4904" /><line stroke="rgb(0%,0%,0%)" x1="43.0" x2="42.3651" y1="63.4904" y2="63.0291" /><line stroke="rgb(0%,0%,0%)" x1="42.3651" x2="40.463" y1="63.0291" y2="61.6472" /><line stroke="rgb(0%,0%,0%)" x1="40.463" x2="39.9379" y1="61.6472" y2="61.064" /><line stroke="rgb(0%,0%,0%)" x1="39.9379" x2="38.3647" y1="61.064" y2="59.3168" /><line stroke="rgb(0%,0%,0%)" x1="38.3647" x2="37.9723" y1="59.3168" y2="58.6371" /><line stroke="rgb(0%,0%,0%)" x1="37.9723" x2="36.7968" y1="58.6371" y2="56.6011" /><line stroke="rgb(0%,0%,0%)" x1="36.7968" x2="36.5543" y1="56.6011" y2="55.8547" /><line stroke="rgb(0%,0%,0%)" x1="36.5543" x2="35.8278" y1="55.8547" y2="53.6187" /><line stroke="rgb(0%,0%,0%)" x1="35.8278" x2="35.7457" y1="53.6187" y2="52.8382" /><line stroke="rgb(0%,0%,0%)" x1="35.7457" x2="35.5" y1="52.8382" y2="50.5" /><line stroke="rgb(0%,0%,0%)" x1="35.5" x2="35.582" y1="50.5" y2="49.7195" /><line stroke="rgb(0%,0%,0%)" x1="35.582" x2="35.8278" y1="49.7195" y2="47.3813" /><line stroke="rgb(0%,0%,0%)" x1="35.8278" x2="36.0703" y1="47.3813" y2="46.6349" /><line stroke="rgb(0%,0%,0%)" x1="36.0703" x2="36.7968" y1="46.6349" y2="44.3989" /><line stroke="rgb(0%,0%,0%)" x1="36.7968" x2="37.1892" y1="44.3989" y2="43.7193" /><line stroke="rgb(0%,0%,0%)" x1="37.1892" x2="38.3647" y1="43.7193" y2="41.6832" /><line stroke="rgb(0%,0%,0%)" x1="38.3647" x2="38.8899" y1="41.6832" y2="41.1" /><line stroke="rgb(0%,0%,0%)" x1="38.8899" x2="40.463" y1="41.1" y2="39.3528" /><line stroke="rgb(0%,0%,0%)" x1="40.463" x2="41.0979" y1="39.3528" y2="38.8915" /><line stroke="rgb(0%,0%,0%)" x1="41.0979" x2="43.0" y1="38.8915" y2="37.5096" /><line stroke="rgb(0%,0%,0%)" x1="43.0" x2="43.7169" y1="37.5096" y2="37.1904" /><line stroke="rgb(0%,0%,0%)" x1="43.7169" x2="45.8647" y1="37.1904" y2="36.2342" /><line stroke="rgb(0%,0%,0%)" x1="45.8647" x2="46.6324" y1="36.2342" y2="36.071" /><line stroke="rgb(0%,0%,0%)" x1="46.6324" x2="48.9321" y1="36.071" y2="35.5822" /><line stroke="rgb(0%,0%,0%)" x1="48.9321" x2="49.7169" y1="35.5822" y2="35.5822" /><line stroke="rgb(0%,0%,0%)" x1="49.7169" x2="52.0679" y1="35.5822" y2="35.5822" /><line stroke="rgb(0%,0%,0%)" x1="52.0679" x2="52.8356" y1="35.5822" y2="35.7453" /><line stroke="rgb(0%,0%,0%)" x1="52.8356" x2="55.1353" y1="35.7453" y2="36.2342" /><line stroke="rgb(0%,0%,0%)" x1="55.1353" x2="55.8522" y1="36.2342" y2="36.5534" /><line stroke="rgb(0%,0%,0%)" x1="55.8522" x2="58.0" y1="36.5534" y2="37.5096" /><line stroke="rgb(0%,0%,0%)" x1="58.0" x2="58.6349" y1="37.5096" y2="37.9709" /><line stroke="rgb(0%,0%,0%)" x1="58.6349" x2="60.537" y1="37.9709" y2="39.3528" /><line stroke="rgb(0%,0%,0%)" x1="60.537" x2="61.0621" y1="39.3528" y2="39.936" /><line stroke="rgb(0%,0%,0%)" x1="61.0621" x2="62.6352" y1="39.936" y2="41.6832" /><line stroke="rgb(0%,0%,0%)" x1="62.6352" x2="63.0276" y1="41.6832" y2="42.3629" /><line stroke="rgb(0%,0%,0%)" x1="63.0276" x2="64.2032" y1="42.3629" y2="44.3989" /><line stroke="rgb(0%,0%,0%)" x1="64.2032" x2="64.4457" y1="44.3989" y2="45.1453" /><line stroke="rgb(0%,0%,0%)" x1="64.4457" x2="65.1722" y1="45.1453" y2="47.3813" /></svg>