<?xml version="1.0" encoding="utf-8" ?>
<svg baseProfile="tiny" height="100%" version="1.2" width="100%" xmlns="http://www.w3.org/2000/svg" xmlns:ev="http://www.w3.org/2001/xml-events" xmlns:xlink="http://www.w3.org/1999/xlink"><defs /><line stroke="rgb(0%,0%,0%)" x1="306.9" x2="306.9" y1="23.266" y2="0.5" /><line stroke="rgb(0%,0%,0%)" x1="306.9" x2="306.9" y1="100.5" y2="75.4684" /><line stroke="rgb(0%,0%,0%)" x1="306.9" x2="306.9" y1="75.4684" y2="72.2536" /><line stroke="rgb(0%,0%,0%)" x1="306.9" x2="306.9" y1="72.2536" y2="67.969" /><line stroke="rgb(0%,0%,0%)" x1="306.9" x2="306.9" y1="38.4113" y2="39.9729" /><line stroke="rgb(0%,0%,0%)" x1="306.9" x2="306.9" y1="38.4113" y2="33.031" /><line stroke="rgb(0%,0%,0%)" x1="306.9" x2="306.9" y1="33.031" y2="28.7464" /><line stroke="rgb(0%,0%,0%)" x1="306.9" x2="306.9" y1="28.7464" y2="25.5316" /><line stroke="rgb(0%,0%,0%)" x1="306.9" x2="306.9" y1="25.5316" y2="23.266" /><line stroke="rgb(0%,0%,0%)" x1="306.9" x2="306.9" y1="67.969" y2="62.5887" /><line stroke="rgb(0%,0%,0%)" x1="306.9" x2="306.9" y1="62.5887" y2="61.0271" /><line stroke="rgb(0%,0%,0%)" x1="336.9" x2="336.9" y1="0.5" y2="21.8031" /><line stroke="rgb(0%,0%,0%)" x1="336.9" x2="336.9" y1="21.8031" y2="23.266" /><line stroke="rgb(0%,0%,0%)" x1="336.9" x2="336.9" y1="23.266" y2="25.5316" /><line stroke="rgb(0%,0%,0%)" x1="336.9" x2="336.9" y1="79.1969" y2="100.5" /><line stroke="rgb(0%,0%,0%)" x1="336.9" x2="336.9" y1="25.5316" y2="28.7464" /><line stroke="rgb(0%,0%,0%)" x1="336.9" x2="336.9" y1="28.7464" y2="33.031" /><line stroke="rgb(0%,0%,0%)" x1="336.9" x2="336.9" y1="33.031" y2="38.4113" /><line stroke="rgb(0%,0%,0%)" x1="336.9" x2="336.9" y1="39.9729" y2="38.4113" /><line stroke="rgb(0%,0%,0%)" x1="336.9" x2="336.9" y1="62.5887" y2="61.0271" /><line stroke="rgb(0%,0%,0%)" x1="336.9" x2="336.9" y1="62.5887" y2="67.969" /><line stroke="rgb(0%,0%,0%)" x1="336.9" x2="336.9" y1="67.969" y2="72.2536" /><line stroke="rgb(0%,0%,0%)" x1="336.9" x2="336.9" y1="72.2536" y2="75.4684" /><line stroke="rgb(0%,0%,0%)" x1="336.9" x2="336.9" y1="75.4684" y2="77.734" /><line stroke="rgb(0%,0%,0%)" x1="336.9" x2="336.9" y1="77.734" y2="79.1969" /><line stroke="rgb(0%,0%,0%)" x1="336.9" x2="326.7046" y1="100.5" y2="100.5" /><line stroke="rgb(0%,0%,0%)" x1="326.7046" x2="306.9" y1="100.5" y2="100.5" /><line stroke="rgb(0%,0%,0%)" x1="336.9" x2="326.7046" y1="0.5" y2="0.5" /><line stroke="rgb(0%,0%,0%)" x1="326.7046" x2="306.9" y1="0.5" y2="0.5" /><line stroke="rgb(0%,0%,0%)" x1="336.9" x2="314.8829" y1="39.9729" y2="39.9729" /><line stroke="rgb(0%,0%,0%)" x1="314.8829" x2="306.9" y1="39.9729" y2="39.9729" /><line stroke="rgb(0%,0%,0%)" x1="336.9" x2="328.9171" y1="61.0271" y2="61.0271" /><line stroke="rgb(0%,0%,0%)" x1="328.9171" x2="306.9" y1="61.0271" y2="61.0271" /></svg>