<?xml version="1.0" encoding="utf-8" ?>
<svg baseProfile="tiny" height="100%" version="1.2" width="100%" xmlns="http://www.w3.org/2000/svg" xmlns:ev="http://www.w3.org/2001/xml-events" xmlns:xlink="http://www.w3.org/1999/xlink"><defs /><line stroke="rgb(0%,0%,0%)" x1="306.9" x2="306.9" y1="22.2534" y2="0.5" /><line stroke="rgb(0%,0%,0%)" x1="306.9" x2="306.9" y1="100.5" y2="76.5817" /><line stroke="rgb(0%,0%,0%)" x1="306.9" x2="306.9" y1="76.5817" y2="73.51" /><line stroke="rgb(0%,0%,0%)" x1="306.9" x2="306.9" y1="73.51" y2="69.4159" /><line stroke="rgb(0%,0%,0%)" x1="306.9" x2="306.9" y1="36.7251" y2="41.0836" /><line stroke="rgb(0%,0%,0%)" x1="306.9" x2="306.9" y1="36.7251" y2="31.5841" /><line stroke="rgb(0%,0%,0%)" x1="306.9" x2="306.9" y1="31.5841" y2="27.49" /><line stroke="rgb(0%,0%,0%)" x1="306.9" x2="306.9" y1="27.49" y2="24.4183" /><line stroke="rgb(0%,0%,0%)" x1="306.9" x2="306.9" y1="24.4183" y2="22.2534" /><line stroke="rgb(0%,0%,0%)" x1="306.9" x2="306.9" y1="69.4159" y2="64.2749" /><line stroke="rgb(0%,0%,0%)" x1="306.9" x2="306.9" y1="64.2749" y2="59.9164" /><line stroke="rgb(0%,0%,0%)" x1="336.9" x2="336.9" y1="0.5" y2="20.8556" /><line stroke="rgb(0%,0%,0%)" x1="336.9" x2="336.9" y1="20.8556" y2="22.2534" /><line stroke="rgb(0%,0%,0%)" x1="336.9" x2="336.9" y1="22.2534" y2="24.4183" /><line stroke="rgb(0%,0%,0%)" x1="336.9" x2="336.9" y1="80.1444" y2="100.5" /><line stroke="rgb(0%,0%,0%)" x1="336.9" x2="336.9" y1="24.4183" y2="27.49" /><line stroke="rgb(0%,0%,0%)" x1="336.9" x2="336.9" y1="27.49" y2="31.5841" /><line stroke="rgb(0%,0%,0%)" x1="336.9" x2="336.9" y1="31.5841" y2="36.7251" /><line stroke="rgb(0%,0%,0%)" x1="336.9" x2="336.9" y1="41.0836" y2="36.7251" /><line stroke="rgb(0%,0%,0%)" x1="336.9" x2="336.9" y1="64.2749" y2="59.9164" /><line stroke="rgb(0%,0%,0%)" x1="336.9" x2="336.9" y1="64.2749" y2="69.4159" /><line stroke="rgb(0%,0%,0%)" x1="336.9" x2="336.9" y1="69.4159" y2="73.51" /><line stroke="rgb(0%,0%,0%)" x1="336.9" x2="336.9" y1="73.51" y2="76.5817" /><line stroke="rgb(0%,0%,0%)" x1="336.9" x2="336.9" y1="76.5817" y2="78.7466" /><line stroke="rgb(0%,0%,0%)" x1="336.9" x2="336.9" y1="78.7466" y2="80.1444" /><line stroke="rgb(0%,0%,0%)" x1="336.9" x2="327.1581" y1="100.5" y2="100.5" /><line stroke="rgb(0%,0%,0%)" x1="327.1581" x2="306.9" y1="100.5" y2="100.5" /><line stroke="rgb(0%,0%,0%)" x1="336.9" x2="327.1581" y1="0.5" y2="0.5" /><line stroke="rgb(0%,0%,0%)" x1="327.1581" x2="306.9" y1="0.5" y2="0.5" /><line stroke="rgb(0%,0%,0%)" x1="336.9" x2="329.1802" y1="41.0836" y2="41.0836" /><line stroke="rgb(0%,0%,0%)" x1="329.1802" x2="306.9" y1="41.0836" y2="41.0836" /><line stroke="rgb(0%,0%,0%)" x1="336.9" x2="314.6197" y1="59.9164" y2="59.9164" /><line stroke="rgb(0%,0%,0%)" x1="314.6197" x2="306.9" y1="59.9164" y2="59.9164" /></svg>