<?xml version="1.0" encoding="utf-8" ?>
<svg baseProfile="tiny" height="100%" version="1.2" width="100%" xmlns="http://www.w3.org/2000/svg" xmlns:ev="http://www.w3.org/2001/xml-events" xmlns:xlink="http://www.w3.org/1999/xlink"><defs /><line stroke="rgb(0%,0%,0%)" x1="306.9" x2="306.9" y1="21.2408" y2="0.5" /><line stroke="rgb(0%,0%,0%)" x1="306.9" x2="306.9" y1="100.5" y2="77.6951" /><line stroke="rgb(0%,0%,0%)" x1="306.9" x2="306.9" y1="77.6951" y2="74.7663" /><line stroke="rgb(0%,0%,0%)" x1="306.9" x2="306.9" y1="74.7663" y2="70.8628" /><line stroke="rgb(0%,0%,0%)" x1="306.9" x2="306.9" y1="42.4801" y2="40.7786" /><line stroke="rgb(0%,0%,0%)" x1="306.9" x2="306.9" y1="40.7786" y2="35.0389" /><line stroke="rgb(0%,0%,0%)" x1="306.9" x2="306.9" y1="35.0389" y2="30.1372" /><line stroke="rgb(0%,0%,0%)" x1="306.9" x2="306.9" y1="30.1372" y2="26.2337" /><line stroke="rgb(0%,0%,0%)" x1="306.9" x2="306.9" y1="26.2337" y2="23.3049" /><line stroke="rgb(0%,0%,0%)" x1="306.9" x2="306.9" y1="23.3049" y2="21.2408" /><line stroke="rgb(0%,0%,0%)" x1="306.9" x2="306.9" y1="70.8628" y2="65.9611" /><line stroke="rgb(0%,0%,0%)" x1="306.9" x2="306.9" y1="65.9611" y2="60.2214" /><line stroke="rgb(0%,0%,0%)" x1="306.9" x2="306.9" y1="60.2214" y2="58.5199" /><line stroke="rgb(0%,0%,0%)" x1="336.9" x2="336.9" y1="0.5" y2="19.9081" /><line stroke="rgb(0%,0%,0%)" x1="336.9" x2="336.9" y1="19.9081" y2="21.2408" /><line stroke="rgb(0%,0%,0%)" x1="336.9" x2="336.9" y1="21.2408" y2="23.3049" /><line stroke="rgb(0%,0%,0%)" x1="336.9" x2="336.9" y1="81.0919" y2="100.5" /><line stroke="rgb(0%,0%,0%)" x1="336.9" x2="336.9" y1="23.3049" y2="26.2337" /><line stroke="rgb(0%,0%,0%)" x1="336.9" x2="336.9" y1="26.2337" y2="30.1372" /><line stroke="rgb(0%,0%,0%)" x1="336.9" x2="336.9" y1="30.1372" y2="35.0389" /><line stroke="rgb(0%,0%,0%)" x1="336.9" x2="336.9" y1="35.0389" y2="40.7786" /><line stroke="rgb(0%,0%,0%)" x1="336.9" x2="336.9" y1="40.7786" y2="42.4801" /><line stroke="rgb(0%,0%,0%)" x1="336.9" x2="336.9" y1="58.5199" y2="60.2214" /><line stroke="rgb(0%,0%,0%)" x1="336.9" x2="336.9" y1="60.2214" y2="65.9611" /><line stroke="rgb(0%,0%,0%)" x1="336.9" x2="336.9" y1="65.9611" y2="70.8628" /><line stroke="rgb(0%,0%,0%)" x1="336.9" x2="336.9" y1="70.8628" y2="74.7663" /><line stroke="rgb(0%,0%,0%)" x1="336.9" x2="336.9" y1="74.7663" y2="77.6951" /><line stroke="rgb(0%,0%,0%)" x1="336.9" x2="336.9" y1="77.6951" y2="79.7592" /><line stroke="rgb(0%,0%,0%)" x1="336.9" x2="336.9" y1="79.7592" y2="81.0919" /><line stroke="rgb(0%,0%,0%)" x1="336.9" x2="327.6115" y1="100.5" y2="100.5" /><line stroke="rgb(0%,0%,0%)" x1="327.6115" x2="306.9" y1="100.5" y2="100.5" /><line stroke="rgb(0%,0%,0%)" x1="336.9" x2="327.6115" y1="0.5" y2="0.5" /><line stroke="rgb(0%,0%,0%)" x1="327.6115" x2="306.9" y1="0.5" y2="0.5" /><line stroke="rgb(0%,0%,0%)" x1="336.9" x2="315.7026" y1="42.4801" y2="42.4801" /><line stroke="rgb(0%,0%,0%)" x1="315.7026" x2="306.9" y1="42.4801" y2="42.4801" /><line stroke="rgb(0%,0%,0%)" x1="336.9" x2="328.0974" y1="58.5199" y2="58.5199" /><line stroke="rgb(0%,0%,0%)" x1="328.0974" x2="306.9" y1="58.5199" y2="58.5199" /></svg>