<?xml version="1.0" encoding="utf-8" ?>
<svg baseProfile="tiny" height="100%" version="1.2" width="100%" xmlns="http://www.w3.org/2000/svg" xmlns:ev="http://www.w3.org/2001/xml-events" xmlns:xlink="http://www.w3.org/1999/xlink"><defs /><line stroke="rgb(0%,0%,0%)" x1="306.9" x2="306.9" y1="20.2283" y2="0.5" /><line stroke="rgb(0%,0%,0%)" x1="306.9" x2="306.9" y1="100.5" y2="78.8084" /><line stroke="rgb(0%,0%,0%)" x1="306.9" x2="306.9" y1="78.8084" y2="76.0226" /><line stroke="rgb(0%,0%,0%)" x1="306.9" x2="306.9" y1="76.0226" y2="72.3097" /><line stroke="rgb(0%,0%,0%)" x1="306.9" x2="306.9" y1="44.2121" y2="38.8121" /><line stroke="rgb(0%,0%,0%)" x1="306.9" x2="306.9" y1="38.8121" y2="33.3527" /><line stroke="rgb(0%,0%,0%)" x1="306.9" x2="306.9" y1="33.3527" y2="28.6903" /><line stroke="rgb(0%,0%,0%)" x1="306.9" x2="306.9" y1="28.6903" y2="24.9774" /><line stroke="rgb(0%,0%,0%)" x1="306.9" x2="306.9" y1="24.9774" y2="22.1916" /><line stroke="rgb(0%,0%,0%)" x1="306.9" x2="306.9" y1="22.1916" y2="20.2283" /><line stroke="rgb(0%,0%,0%)" x1="306.9" x2="306.9" y1="72.3097" y2="67.6473" /><line stroke="rgb(0%,0%,0%)" x1="306.9" x2="306.9" y1="67.6473" y2="62.1879" /><line stroke="rgb(0%,0%,0%)" x1="306.9" x2="306.9" y1="62.1879" y2="56.7879" /><line stroke="rgb(0%,0%,0%)" x1="336.9" x2="336.9" y1="0.5" y2="18.9606" /><line stroke="rgb(0%,0%,0%)" x1="336.9" x2="336.9" y1="18.9606" y2="20.2283" /><line stroke="rgb(0%,0%,0%)" x1="336.9" x2="336.9" y1="20.2283" y2="22.1916" /><line stroke="rgb(0%,0%,0%)" x1="336.9" x2="336.9" y1="82.0394" y2="100.5" /><line stroke="rgb(0%,0%,0%)" x1="336.9" x2="336.9" y1="22.1916" y2="24.9774" /><line stroke="rgb(0%,0%,0%)" x1="336.9" x2="336.9" y1="24.9774" y2="28.6903" /><line stroke="rgb(0%,0%,0%)" x1="336.9" x2="336.9" y1="28.6903" y2="33.3527" /><line stroke="rgb(0%,0%,0%)" x1="336.9" x2="336.9" y1="33.3527" y2="38.8121" /><line stroke="rgb(0%,0%,0%)" x1="336.9" x2="336.9" y1="38.8121" y2="44.2121" /><line stroke="rgb(0%,0%,0%)" x1="336.9" x2="336.9" y1="56.7879" y2="62.1879" /><line stroke="rgb(0%,0%,0%)" x1="336.9" x2="336.9" y1="62.1879" y2="67.6473" /><line stroke="rgb(0%,0%,0%)" x1="336.9" x2="336.9" y1="67.6473" y2="72.3097" /><line stroke="rgb(0%,0%,0%)" x1="336.9" x2="336.9" y1="72.3097" y2="76.0226" /><line stroke="rgb(0%,0%,0%)" x1="336.9" x2="336.9" y1="76.0226" y2="78.8084" /><line stroke="rgb(0%,0%,0%)" x1="336.9" x2="336.9" y1="78.8084" y2="80.7717" /><line stroke="rgb(0%,0%,0%)" x1="336.9" x2="336.9" y1="80.7717" y2="82.0394" /><line stroke="rgb(0%,0%,0%)" x1="336.9" x2="328.065" y1="100.5" y2="100.5" /><line stroke="rgb(0%,0%,0%)" x1="328.065" x2="306.9" y1="100.5" y2="100.5" /><line stroke="rgb(0%,0%,0%)" x1="336.9" x2="328.065" y1="0.5" y2="0.5" /><line stroke="rgb(0%,0%,0%)" x1="328.065" x2="306.9" y1="0.5" y2="0.5" /><line stroke="rgb(0%,0%,0%)" x1="336.9" x2="334.8362" y1="44.2121" y2="44.2121" /><line stroke="rgb(0%,0%,0%)" x1="334.8362" x2="306.9" y1="44.2121" y2="44.2121" /><line stroke="rgb(0%,0%,0%)" x1="336.9" x2="308.9638" y1="56.7879" y2="56.7879" /><line stroke="rgb(0%,0%,0%)" x1="308.9638" x2="306.9" y1="56.7879" y2="56.7879" /></svg>