<?xml version="1.0" encoding="utf-8" ?>
<svg baseProfile="tiny" height="100%" version="1.2" width="100%" xmlns="http://www.w3.org/2000/svg" xmlns:ev="http://www.w3.org/2001/xml-events" xmlns:xlink="http://www.w3.org/1999/xlink"><defs /><line stroke="rgb(0%,0%,0%)" x1="306.9" x2="306.9" y1="19.2157" y2="0.5" /><line stroke="rgb(0%,0%,0%)" x1="306.9" x2="306.9" y1="42.3776" y2="47.1447" /><line stroke="rgb(0%,0%,0%)" x1="306.9" x2="306.9" y1="100.5" y2="79.9218" /><line stroke="rgb(0%,0%,0%)" x1="306.9" x2="306.9" y1="79.9218" y2="77.2789" /><line stroke="rgb(0%,0%,0%)" x1="306.9" x2="306.9" y1="77.2789" y2="73.7566" /><line stroke="rgb(0%,0%,0%)" x1="306.9" x2="306.9" y1="42.3776" y2="36.8457" /><line stroke="rgb(0%,0%,0%)" x1="306.9" x2="306.9" y1="36.8457" y2="31.6665" /><line stroke="rgb(0%,0%,0%)" x1="306.9" x2="306.9" y1="31.6665" y2="27.2434" /><line stroke="rgb(0%,0%,0%)" x1="306.9" x2="306.9" y1="27.2434" y2="23.7211" /><line stroke="rgb(0%,0%,0%)" x1="306.9" x2="306.9" y1="23.7211" y2="21.0782" /><line stroke="rgb(0%,0%,0%)" x1="306.9" x2="306.9" y1="21.0782" y2="19.2157" /><line stroke="rgb(0%,0%,0%)" x1="306.9" x2="306.9" y1="73.7566" y2="69.3335" /><line stroke="rgb(0%,0%,0%)" x1="306.9" x2="306.9" y1="69.3335" y2="64.1543" /><line stroke="rgb(0%,0%,0%)" x1="306.9" x2="306.9" y1="64.1543" y2="58.6224" /><line stroke="rgb(0%,0%,0%)" x1="306.9" x2="306.9" y1="53.8553" y2="58.6224" /><line stroke="rgb(0%,0%,0%)" x1="336.9" x2="336.9" y1="0.5" y2="18.0131" /><line stroke="rgb(0%,0%,0%)" x1="336.9" x2="336.9" y1="18.0131" y2="19.2157" /><line stroke="rgb(0%,0%,0%)" x1="336.9" x2="336.9" y1="19.2157" y2="21.0782" /><line stroke="rgb(0%,0%,0%)" x1="336.9" x2="336.9" y1="82.9869" y2="100.5" /><line stroke="rgb(0%,0%,0%)" x1="336.9" x2="336.9" y1="58.6224" y2="53.8553" /><line stroke="rgb(0%,0%,0%)" x1="336.9" x2="336.9" y1="21.0782" y2="23.7211" /><line stroke="rgb(0%,0%,0%)" x1="336.9" x2="336.9" y1="23.7211" y2="27.2434" /><line stroke="rgb(0%,0%,0%)" x1="336.9" x2="336.9" y1="27.2434" y2="31.6665" /><line stroke="rgb(0%,0%,0%)" x1="336.9" x2="336.9" y1="31.6665" y2="36.8457" /><line stroke="rgb(0%,0%,0%)" x1="336.9" x2="336.9" y1="36.8457" y2="42.3776" /><line stroke="rgb(0%,0%,0%)" x1="336.9" x2="336.9" y1="42.3776" y2="47.1447" /><line stroke="rgb(0%,0%,0%)" x1="336.9" x2="336.9" y1="58.6224" y2="64.1543" /><line stroke="rgb(0%,0%,0%)" x1="336.9" x2="336.9" y1="64.1543" y2="69.3335" /><line stroke="rgb(0%,0%,0%)" x1="336.9" x2="336.9" y1="69.3335" y2="73.7566" /><line stroke="rgb(0%,0%,0%)" x1="336.9" x2="336.9" y1="73.7566" y2="77.2789" /><line stroke="rgb(0%,0%,0%)" x1="336.9" x2="336.9" y1="77.2789" y2="79.9218" /><line stroke="rgb(0%,0%,0%)" x1="336.9" x2="336.9" y1="79.9218" y2="81.7843" /><line stroke="rgb(0%,0%,0%)" x1="336.9" x2="336.9" y1="81.7843" y2="82.9869" /><line stroke="rgb(0%,0%,0%)" x1="336.9" x2="328.5185" y1="100.5" y2="100.5" /><line stroke="rgb(0%,0%,0%)" x1="328.5185" x2="306.9" y1="100.5" y2="100.5" /><line stroke="rgb(0%,0%,0%)" x1="336.9" x2="328.5185" y1="0.5" y2="0.5" /><line stroke="rgb(0%,0%,0%)" x1="328.5185" x2="306.9" y1="0.5" y2="0.5" /><line stroke="rgb(0%,0%,0%)" x1="336.9" x2="334.5196" y1="47.1447" y2="47.1447" /><line stroke="rgb(0%,0%,0%)" x1="334.5196" x2="306.9" y1="47.1447" y2="47.1447" /><line stroke="rgb(0%,0%,0%)" x1="336.9" x2="309.2804" y1="53.8553" y2="53.8553" /><line stroke="rgb(0%,0%,0%)" x1="309.2804" x2="306.9" y1="53.8553" y2="53.8553" /></svg>