<?xml version="1.0" encoding="utf-8" ?>
<svg baseProfile="tiny" height="100%" version="1.2" width="100%" xmlns="http://www.w3.org/2000/svg" xmlns:ev="http://www.w3.org/2001/xml-events" xmlns:xlink="http://www.w3.org/1999/xlink"><defs /><line stroke="rgb(0%,0%,0%)" x1="306.9" x2="306.9" y1="18.2031" y2="0.5" /><line stroke="rgb(0%,0%,0%)" x1="306.9" x2="306.9" y1="52.1465" y2="48.8535" /><line stroke="rgb(0%,0%,0%)" x1="306.9" x2="306.9" y1="48.8535" y2="45.0301" /><line stroke="rgb(0%,0%,0%)" x1="306.9" x2="306.9" y1="45.0301" y2="40.1119" /><line stroke="rgb(0%,0%,0%)" x1="306.9" x2="306.9" y1="100.5" y2="81.0351" /><line stroke="rgb(0%,0%,0%)" x1="306.9" x2="306.9" y1="81.0351" y2="78.5353" /><line stroke="rgb(0%,0%,0%)" x1="306.9" x2="306.9" y1="78.5353" y2="75.2035" /><line stroke="rgb(0%,0%,0%)" x1="306.9" x2="306.9" y1="40.1119" y2="34.8793" /><line stroke="rgb(0%,0%,0%)" x1="306.9" x2="306.9" y1="34.8793" y2="29.9803" /><line stroke="rgb(0%,0%,0%)" x1="306.9" x2="306.9" y1="29.9803" y2="25.7965" /><line stroke="rgb(0%,0%,0%)" x1="306.9" x2="306.9" y1="25.7965" y2="22.4647" /><line stroke="rgb(0%,0%,0%)" x1="306.9" x2="306.9" y1="22.4647" y2="19.9649" /><line stroke="rgb(0%,0%,0%)" x1="306.9" x2="306.9" y1="19.9649" y2="18.2031" /><line stroke="rgb(0%,0%,0%)" x1="306.9" x2="306.9" y1="75.2035" y2="71.0197" /><line stroke="rgb(0%,0%,0%)" x1="306.9" x2="306.9" y1="71.0197" y2="66.1207" /><line stroke="rgb(0%,0%,0%)" x1="306.9" x2="306.9" y1="66.1207" y2="60.8881" /><line stroke="rgb(0%,0%,0%)" x1="306.9" x2="306.9" y1="60.8881" y2="55.9699" /><line stroke="rgb(0%,0%,0%)" x1="306.9" x2="306.9" y1="55.9699" y2="52.1465" /><line stroke="rgb(0%,0%,0%)" x1="336.9" x2="336.9" y1="0.5" y2="17.0655" /><line stroke="rgb(0%,0%,0%)" x1="336.9" x2="336.9" y1="17.0655" y2="18.2031" /><line stroke="rgb(0%,0%,0%)" x1="336.9" x2="336.9" y1="18.2031" y2="19.9649" /><line stroke="rgb(0%,0%,0%)" x1="336.9" x2="336.9" y1="83.9345" y2="100.5" /><line stroke="rgb(0%,0%,0%)" x1="336.9" x2="336.9" y1="48.8535" y2="52.1465" /><line stroke="rgb(0%,0%,0%)" x1="336.9" x2="336.9" y1="52.1465" y2="55.9699" /><line stroke="rgb(0%,0%,0%)" x1="336.9" x2="336.9" y1="55.9699" y2="60.8881" /><line stroke="rgb(0%,0%,0%)" x1="336.9" x2="336.9" y1="19.9649" y2="22.4647" /><line stroke="rgb(0%,0%,0%)" x1="336.9" x2="336.9" y1="22.4647" y2="25.7965" /><line stroke="rgb(0%,0%,0%)" x1="336.9" x2="336.9" y1="25.7965" y2="29.9803" /><line stroke="rgb(0%,0%,0%)" x1="336.9" x2="336.9" y1="29.9803" y2="34.8793" /><line stroke="rgb(0%,0%,0%)" x1="336.9" x2="336.9" y1="34.8793" y2="40.1119" /><line stroke="rgb(0%,0%,0%)" x1="336.9" x2="336.9" y1="40.1119" y2="45.0301" /><line stroke="rgb(0%,0%,0%)" x1="336.9" x2="336.9" y1="45.0301" y2="48.8535" /><line stroke="rgb(0%,0%,0%)" x1="336.9" x2="336.9" y1="60.8881" y2="66.1207" /><line stroke="rgb(0%,0%,0%)" x1="336.9" x2="336.9" y1="66.1207" y2="71.0197" /><line stroke="rgb(0%,0%,0%)" x1="336.9" x2="336.9" y1="71.0197" y2="75.2035" /><line stroke="rgb(0%,0%,0%)" x1="336.9" x2="336.9" y1="75.2035" y2="78.5353" /><line stroke="rgb(0%,0%,0%)" x1="336.9" x2="336.9" y1="78.5353" y2="81.0351" /><line stroke="rgb(0%,0%,0%)" x1="336.9" x2="336.9" y1="81.0351" y2="82.7969" /><line stroke="rgb(0%,0%,0%)" x1="336.9" x2="336.9" y1="82.7969" y2="83.9345" /><line stroke="rgb(0%,0%,0%)" x1="336.9" x2="328.9719" y1="100.5" y2="100.5" /><line stroke="rgb(0%,0%,0%)" x1="328.9719" x2="306.9" y1="100.5" y2="100.5" /><line stroke="rgb(0%,0%,0%)" x1="336.9" x2="328.9719" y1="0.5" y2="0.5" /><line stroke="rgb(0%,0%,0%)" x1="328.9719" x2="306.9" y1="0.5" y2="0.5" /></svg>