<?xml version="1.0" encoding="utf-8" ?>
<svg baseProfile="tiny" height="100%" version="1.2" width="100%" xmlns="http://www.w3.org/2000/svg" xmlns:ev="http://www.w3.org/2001/xml-events" xmlns:xlink="http://www.w3.org/1999/xlink"><defs /><line stroke="rgb(0%,0%,0%)" x1="306.9" x2="306.9" y1="17.1905" y2="0.5" /><line stroke="rgb(0%,0%,0%)" x1="306.9" x2="306.9" y1="54.9122" y2="46.0878" /><line stroke="rgb(0%,0%,0%)" x1="306.9" x2="306.9" y1="46.0878" y2="42.4831" /><line stroke="rgb(0%,0%,0%)" x1="306.9" x2="306.9" y1="42.4831" y2="37.8462" /><line stroke="rgb(0%,0%,0%)" x1="306.9" x2="306.9" y1="100.5" y2="82.1485" /><line stroke="rgb(0%,0%,0%)" x1="306.9" x2="306.9" y1="82.1485" y2="79.7916" /><line stroke="rgb(0%,0%,0%)" x1="306.9" x2="306.9" y1="79.7916" y2="76.6504" /><line stroke="rgb(0%,0%,0%)" x1="306.9" x2="306.9" y1="37.8462" y2="32.9129" /><line stroke="rgb(0%,0%,0%)" x1="306.9" x2="306.9" y1="32.9129" y2="28.2941" /><line stroke="rgb(0%,0%,0%)" x1="306.9" x2="306.9" y1="28.2941" y2="24.3496" /><line stroke="rgb(0%,0%,0%)" x1="306.9" x2="306.9" y1="24.3496" y2="21.2084" /><line stroke="rgb(0%,0%,0%)" x1="306.9" x2="306.9" y1="21.2084" y2="18.8515" /><line stroke="rgb(0%,0%,0%)" x1="306.9" x2="306.9" y1="18.8515" y2="17.1905" /><line stroke="rgb(0%,0%,0%)" x1="306.9" x2="306.9" y1="76.6504" y2="72.7059" /><line stroke="rgb(0%,0%,0%)" x1="306.9" x2="306.9" y1="72.7059" y2="68.0871" /><line stroke="rgb(0%,0%,0%)" x1="306.9" x2="306.9" y1="68.0871" y2="63.1538" /><line stroke="rgb(0%,0%,0%)" x1="306.9" x2="306.9" y1="63.1538" y2="58.5169" /><line stroke="rgb(0%,0%,0%)" x1="306.9" x2="306.9" y1="58.5169" y2="54.9122" /><line stroke="rgb(0%,0%,0%)" x1="336.9" x2="336.9" y1="0.5" y2="16.118" /><line stroke="rgb(0%,0%,0%)" x1="336.9" x2="336.9" y1="16.118" y2="17.1905" /><line stroke="rgb(0%,0%,0%)" x1="336.9" x2="336.9" y1="17.1905" y2="18.8515" /><line stroke="rgb(0%,0%,0%)" x1="336.9" x2="336.9" y1="84.882" y2="100.5" /><line stroke="rgb(0%,0%,0%)" x1="336.9" x2="336.9" y1="46.0878" y2="54.9122" /><line stroke="rgb(0%,0%,0%)" x1="336.9" x2="336.9" y1="54.9122" y2="58.5169" /><line stroke="rgb(0%,0%,0%)" x1="336.9" x2="336.9" y1="58.5169" y2="63.1538" /><line stroke="rgb(0%,0%,0%)" x1="336.9" x2="336.9" y1="18.8515" y2="21.2084" /><line stroke="rgb(0%,0%,0%)" x1="336.9" x2="336.9" y1="21.2084" y2="24.3496" /><line stroke="rgb(0%,0%,0%)" x1="336.9" x2="336.9" y1="24.3496" y2="28.2941" /><line stroke="rgb(0%,0%,0%)" x1="336.9" x2="336.9" y1="28.2941" y2="32.9129" /><line stroke="rgb(0%,0%,0%)" x1="336.9" x2="336.9" y1="32.9129" y2="37.8462" /><line stroke="rgb(0%,0%,0%)" x1="336.9" x2="336.9" y1="37.8462" y2="42.4831" /><line stroke="rgb(0%,0%,0%)" x1="336.9" x2="336.9" y1="42.4831" y2="46.0878" /><line stroke="rgb(0%,0%,0%)" x1="336.9" x2="336.9" y1="63.1538" y2="68.0871" /><line stroke="rgb(0%,0%,0%)" x1="336.9" x2="336.9" y1="68.0871" y2="72.7059" /><line stroke="rgb(0%,0%,0%)" x1="336.9" x2="336.9" y1="72.7059" y2="76.6504" /><line stroke="rgb(0%,0%,0%)" x1="336.9" x2="336.9" y1="76.6504" y2="79.7916" /><line stroke="rgb(0%,0%,0%)" x1="336.9" x2="336.9" y1="79.7916" y2="82.1485" /><line stroke="rgb(0%,0%,0%)" x1="336.9" x2="336.9" y1="82.1485" y2="83.8095" /><line stroke="rgb(0%,0%,0%)" x1="336.9" x2="336.9" y1="83.8095" y2="84.882" /><line stroke="rgb(0%,0%,0%)" x1="336.9" x2="329.4254" y1="100.5" y2="100.5" /><line stroke="rgb(0%,0%,0%)" x1="329.4254" x2="306.9" y1="100.5" y2="100.5" /><line stroke="rgb(0%,0%,0%)" x1="336.9" x2="329.4254" y1="0.5" y2="0.5" /><line stroke="rgb(0%,0%,0%)" x1="329.4254" x2="306.9" y1="0.5" y2="0.5" /></svg>