<?xml version="1.0" encoding="utf-8" ?>
<svg baseProfile="tiny" height="100%" version="1.2" width="100%" xmlns="http://www.w3.org/2000/svg" xmlns:ev="http://www.w3.org/2001/xml-events" xmlns:xlink="http://www.w3.org/1999/xlink"><defs /><line stroke="rgb(0%,0%,0%)" x1="306.9" x2="306.9" y1="16.178" y2="0.5" /><line stroke="rgb(0%,0%,0%)" x1="306.9" x2="306.9" y1="57.6779" y2="43.3221" /><line stroke="rgb(0%,0%,0%)" x1="306.9" x2="306.9" y1="43.3221" y2="39.9361" /><line stroke="rgb(0%,0%,0%)" x1="306.9" x2="306.9" y1="39.9361" y2="35.5805" /><line stroke="rgb(0%,0%,0%)" x1="306.9" x2="306.9" y1="100.5" y2="83.2618" /><line stroke="rgb(0%,0%,0%)" x1="306.9" x2="306.9" y1="83.2618" y2="81.0479" /><line stroke="rgb(0%,0%,0%)" x1="306.9" x2="306.9" y1="81.0479" y2="78.0973" /><line stroke="rgb(0%,0%,0%)" x1="306.9" x2="306.9" y1="35.5805" y2="30.9465" /><line stroke="rgb(0%,0%,0%)" x1="306.9" x2="306.9" y1="30.9465" y2="26.6079" /><line stroke="rgb(0%,0%,0%)" x1="306.9" x2="306.9" y1="26.6079" y2="22.9027" /><line stroke="rgb(0%,0%,0%)" x1="306.9" x2="306.9" y1="22.9027" y2="19.9521" /><line stroke="rgb(0%,0%,0%)" x1="306.9" x2="306.9" y1="19.9521" y2="17.7382" /><line stroke="rgb(0%,0%,0%)" x1="306.9" x2="306.9" y1="17.7382" y2="16.178" /><line stroke="rgb(0%,0%,0%)" x1="306.9" x2="306.9" y1="78.0973" y2="74.3921" /><line stroke="rgb(0%,0%,0%)" x1="306.9" x2="306.9" y1="74.3921" y2="70.0535" /><line stroke="rgb(0%,0%,0%)" x1="306.9" x2="306.9" y1="70.0535" y2="65.4195" /><line stroke="rgb(0%,0%,0%)" x1="306.9" x2="306.9" y1="65.4195" y2="61.0639" /><line stroke="rgb(0%,0%,0%)" x1="306.9" x2="306.9" y1="61.0639" y2="57.6779" /><line stroke="rgb(0%,0%,0%)" x1="336.9" x2="336.9" y1="0.5" y2="15.1705" /><line stroke="rgb(0%,0%,0%)" x1="336.9" x2="336.9" y1="15.1705" y2="16.178" /><line stroke="rgb(0%,0%,0%)" x1="336.9" x2="336.9" y1="16.178" y2="17.7382" /><line stroke="rgb(0%,0%,0%)" x1="336.9" x2="336.9" y1="85.8295" y2="100.5" /><line stroke="rgb(0%,0%,0%)" x1="336.9" x2="336.9" y1="43.3221" y2="57.6779" /><line stroke="rgb(0%,0%,0%)" x1="336.9" x2="336.9" y1="57.6779" y2="61.0639" /><line stroke="rgb(0%,0%,0%)" x1="336.9" x2="336.9" y1="61.0639" y2="65.4195" /><line stroke="rgb(0%,0%,0%)" x1="336.9" x2="336.9" y1="17.7382" y2="19.9521" /><line stroke="rgb(0%,0%,0%)" x1="336.9" x2="336.9" y1="19.9521" y2="22.9027" /><line stroke="rgb(0%,0%,0%)" x1="336.9" x2="336.9" y1="22.9027" y2="26.6079" /><line stroke="rgb(0%,0%,0%)" x1="336.9" x2="336.9" y1="26.6079" y2="30.9465" /><line stroke="rgb(0%,0%,0%)" x1="336.9" x2="336.9" y1="30.9465" y2="35.5805" /><line stroke="rgb(0%,0%,0%)" x1="336.9" x2="336.9" y1="35.5805" y2="39.9361" /><line stroke="rgb(0%,0%,0%)" x1="336.9" x2="336.9" y1="39.9361" y2="43.3221" /><line stroke="rgb(0%,0%,0%)" x1="336.9" x2="336.9" y1="65.4195" y2="70.0535" /><line stroke="rgb(0%,0%,0%)" x1="336.9" x2="336.9" y1="70.0535" y2="74.3921" /><line stroke="rgb(0%,0%,0%)" x1="336.9" x2="336.9" y1="74.3921" y2="78.0973" /><line stroke="rgb(0%,0%,0%)" x1="336.9" x2="336.9" y1="78.0973" y2="81.0479" /><line stroke="rgb(0%,0%,0%)" x1="336.9" x2="336.9" y1="81.0479" y2="83.2618" /><line stroke="rgb(0%,0%,0%)" x1="336.9" x2="336.9" y1="83.2618" y2="84.822" /><line stroke="rgb(0%,0%,0%)" x1="336.9" x2="336.9" y1="84.822" y2="85.8295" /><line stroke="rgb(0%,0%,0%)" x1="336.9" x2="329.8789" y1="100.5" y2="100.5" /><line stroke="rgb(0%,0%,0%)" x1="329.8789" x2="306.9" y1="100.5" y2="100.5" /><line stroke="rgb(0%,0%,0%)" x1="336.9" x2="329.8789" y1="0.5" y2="0.5" /><line stroke="rgb(0%,0%,0%)" x1="329.8789" x2="306.9" y1="0.5" y2="0.5" /></svg>