<?xml version="1.0" encoding="utf-8" ?>
<svg baseProfile="tiny" height="100%" version="1.2" width="100%" xmlns="http://www.w3.org/2000/svg" xmlns:ev="http://www.w3.org/2001/xml-events" xmlns:xlink="http://www.w3.org/1999/xlink"><defs /><line stroke="rgb(0%,0%,0%)" x1="306.9" x2="306.9" y1="15.1654" y2="0.5" /><line stroke="rgb(0%,0%,0%)" x1="306.9" x2="306.9" y1="60.4436" y2="40.5564" /><line stroke="rgb(0%,0%,0%)" x1="306.9" x2="306.9" y1="40.5564" y2="37.3891" /><line stroke="rgb(0%,0%,0%)" x1="306.9" x2="306.9" y1="37.3891" y2="33.3148" /><line stroke="rgb(0%,0%,0%)" x1="306.9" x2="306.9" y1="100.5" y2="84.3751" /><line stroke="rgb(0%,0%,0%)" x1="306.9" x2="306.9" y1="84.3751" y2="82.3042" /><line stroke="rgb(0%,0%,0%)" x1="306.9" x2="306.9" y1="82.3042" y2="79.5442" /><line stroke="rgb(0%,0%,0%)" x1="306.9" x2="306.9" y1="33.3148" y2="28.9801" /><line stroke="rgb(0%,0%,0%)" x1="306.9" x2="306.9" y1="28.9801" y2="24.9217" /><line stroke="rgb(0%,0%,0%)" x1="306.9" x2="306.9" y1="24.9217" y2="21.4558" /><line stroke="rgb(0%,0%,0%)" x1="306.9" x2="306.9" y1="21.4558" y2="18.6958" /><line stroke="rgb(0%,0%,0%)" x1="306.9" x2="306.9" y1="18.6958" y2="16.6249" /><line stroke="rgb(0%,0%,0%)" x1="306.9" x2="306.9" y1="16.6249" y2="15.1654" /><line stroke="rgb(0%,0%,0%)" x1="306.9" x2="306.9" y1="79.5442" y2="76.0783" /><line stroke="rgb(0%,0%,0%)" x1="306.9" x2="306.9" y1="76.0783" y2="72.0199" /><line stroke="rgb(0%,0%,0%)" x1="306.9" x2="306.9" y1="72.0199" y2="67.6852" /><line stroke="rgb(0%,0%,0%)" x1="306.9" x2="306.9" y1="67.6852" y2="63.6109" /><line stroke="rgb(0%,0%,0%)" x1="306.9" x2="306.9" y1="63.6109" y2="60.4436" /><line stroke="rgb(0%,0%,0%)" x1="336.9" x2="336.9" y1="0.5" y2="14.223" /><line stroke="rgb(0%,0%,0%)" x1="336.9" x2="336.9" y1="14.223" y2="15.1654" /><line stroke="rgb(0%,0%,0%)" x1="336.9" x2="336.9" y1="15.1654" y2="16.6249" /><line stroke="rgb(0%,0%,0%)" x1="336.9" x2="336.9" y1="86.777" y2="100.5" /><line stroke="rgb(0%,0%,0%)" x1="336.9" x2="336.9" y1="40.5564" y2="60.4436" /><line stroke="rgb(0%,0%,0%)" x1="336.9" x2="336.9" y1="60.4436" y2="63.6109" /><line stroke="rgb(0%,0%,0%)" x1="336.9" x2="336.9" y1="63.6109" y2="67.6852" /><line stroke="rgb(0%,0%,0%)" x1="336.9" x2="336.9" y1="16.6249" y2="18.6958" /><line stroke="rgb(0%,0%,0%)" x1="336.9" x2="336.9" y1="18.6958" y2="21.4558" /><line stroke="rgb(0%,0%,0%)" x1="336.9" x2="336.9" y1="21.4558" y2="24.9217" /><line stroke="rgb(0%,0%,0%)" x1="336.9" x2="336.9" y1="24.9217" y2="28.9801" /><line stroke="rgb(0%,0%,0%)" x1="336.9" x2="336.9" y1="28.9801" y2="33.3148" /><line stroke="rgb(0%,0%,0%)" x1="336.9" x2="336.9" y1="33.3148" y2="37.3891" /><line stroke="rgb(0%,0%,0%)" x1="336.9" x2="336.9" y1="37.3891" y2="40.5564" /><line stroke="rgb(0%,0%,0%)" x1="336.9" x2="336.9" y1="67.6852" y2="72.0199" /><line stroke="rgb(0%,0%,0%)" x1="336.9" x2="336.9" y1="72.0199" y2="76.0783" /><line stroke="rgb(0%,0%,0%)" x1="336.9" x2="336.9" y1="76.0783" y2="79.5442" /><line stroke="rgb(0%,0%,0%)" x1="336.9" x2="336.9" y1="79.5442" y2="82.3042" /><line stroke="rgb(0%,0%,0%)" x1="336.9" x2="336.9" y1="82.3042" y2="84.3751" /><line stroke="rgb(0%,0%,0%)" x1="336.9" x2="336.9" y1="84.3751" y2="85.8346" /><line stroke="rgb(0%,0%,0%)" x1="336.9" x2="336.9" y1="85.8346" y2="86.777" /><line stroke="rgb(0%,0%,0%)" x1="336.9" x2="330.3323" y1="100.5" y2="100.5" /><line stroke="rgb(0%,0%,0%)" x1="330.3323" x2="306.9" y1="100.5" y2="100.5" /><line stroke="rgb(0%,0%,0%)" x1="336.9" x2="330.3323" y1="0.5" y2="0.5" /><line stroke="rgb(0%,0%,0%)" x1="330.3323" x2="306.9" y1="0.5" y2="0.5" /></svg>