<?xml version="1.0" encoding="utf-8" ?>
<svg baseProfile="tiny" height="100%" version="1.2" width="100%" xmlns="http://www.w3.org/2000/svg" xmlns:ev="http://www.w3.org/2001/xml-events" xmlns:xlink="http://www.w3.org/1999/xlink"><defs /><line stroke="rgb(0%,0%,0%)" x1="306.9" x2="306.9" y1="14.1528" y2="0.5" /><line stroke="rgb(0%,0%,0%)" x1="306.9" x2="306.9" y1="63.2093" y2="37.7907" /><line stroke="rgb(0%,0%,0%)" x1="306.9" x2="306.9" y1="37.7907" y2="34.8421" /><line stroke="rgb(0%,0%,0%)" x1="306.9" x2="306.9" y1="34.8421" y2="31.0491" /><line stroke="rgb(0%,0%,0%)" x1="306.9" x2="306.9" y1="100.5" y2="85.4885" /><line stroke="rgb(0%,0%,0%)" x1="306.9" x2="306.9" y1="85.4885" y2="83.5606" /><line stroke="rgb(0%,0%,0%)" x1="306.9" x2="306.9" y1="83.5606" y2="80.9911" /><line stroke="rgb(0%,0%,0%)" x1="306.9" x2="306.9" y1="31.0491" y2="27.0137" /><line stroke="rgb(0%,0%,0%)" x1="306.9" x2="306.9" y1="27.0137" y2="23.2355" /><line stroke="rgb(0%,0%,0%)" x1="306.9" x2="306.9" y1="23.2355" y2="20.0089" /><line stroke="rgb(0%,0%,0%)" x1="306.9" x2="306.9" y1="20.0089" y2="17.4394" /><line stroke="rgb(0%,0%,0%)" x1="306.9" x2="306.9" y1="17.4394" y2="15.5115" /><line stroke="rgb(0%,0%,0%)" x1="306.9" x2="306.9" y1="15.5115" y2="14.1528" /><line stroke="rgb(0%,0%,0%)" x1="306.9" x2="306.9" y1="80.9911" y2="77.7645" /><line stroke="rgb(0%,0%,0%)" x1="306.9" x2="306.9" y1="77.7645" y2="73.9863" /><line stroke="rgb(0%,0%,0%)" x1="306.9" x2="306.9" y1="73.9863" y2="69.9509" /><line stroke="rgb(0%,0%,0%)" x1="306.9" x2="306.9" y1="69.9509" y2="66.1579" /><line stroke="rgb(0%,0%,0%)" x1="306.9" x2="306.9" y1="66.1579" y2="63.2093" /><line stroke="rgb(0%,0%,0%)" x1="336.9" x2="336.9" y1="0.5" y2="13.2755" /><line stroke="rgb(0%,0%,0%)" x1="336.9" x2="336.9" y1="13.2755" y2="14.1528" /><line stroke="rgb(0%,0%,0%)" x1="336.9" x2="336.9" y1="14.1528" y2="15.5115" /><line stroke="rgb(0%,0%,0%)" x1="336.9" x2="336.9" y1="87.7245" y2="100.5" /><line stroke="rgb(0%,0%,0%)" x1="336.9" x2="336.9" y1="37.7907" y2="63.2093" /><line stroke="rgb(0%,0%,0%)" x1="336.9" x2="336.9" y1="63.2093" y2="66.1579" /><line stroke="rgb(0%,0%,0%)" x1="336.9" x2="336.9" y1="66.1579" y2="69.9509" /><line stroke="rgb(0%,0%,0%)" x1="336.9" x2="336.9" y1="15.5115" y2="17.4394" /><line stroke="rgb(0%,0%,0%)" x1="336.9" x2="336.9" y1="17.4394" y2="20.0089" /><line stroke="rgb(0%,0%,0%)" x1="336.9" x2="336.9" y1="20.0089" y2="23.2355" /><line stroke="rgb(0%,0%,0%)" x1="336.9" x2="336.9" y1="23.2355" y2="27.0137" /><line stroke="rgb(0%,0%,0%)" x1="336.9" x2="336.9" y1="27.0137" y2="31.0491" /><line stroke="rgb(0%,0%,0%)" x1="336.9" x2="336.9" y1="31.0491" y2="34.8421" /><line stroke="rgb(0%,0%,0%)" x1="336.9" x2="336.9" y1="34.8421" y2="37.7907" /><line stroke="rgb(0%,0%,0%)" x1="336.9" x2="336.9" y1="69.9509" y2="73.9863" /><line stroke="rgb(0%,0%,0%)" x1="336.9" x2="336.9" y1="73.9863" y2="77.7645" /><line stroke="rgb(0%,0%,0%)" x1="336.9" x2="336.9" y1="77.7645" y2="80.9911" /><line stroke="rgb(0%,0%,0%)" x1="336.9" x2="336.9" y1="80.9911" y2="83.5606" /><line stroke="rgb(0%,0%,0%)" x1="336.9" x2="336.9" y1="83.5606" y2="85.4885" /><line stroke="rgb(0%,0%,0%)" x1="336.9" x2="336.9" y1="85.4885" y2="86.8472" /><line stroke="rgb(0%,0%,0%)" x1="336.9" x2="336.9" y1="86.8472" y2="87.7245" /><line stroke="rgb(0%,0%,0%)" x1="336.9" x2="330.7858" y1="100.5" y2="100.5" /><line stroke="rgb(0%,0%,0%)" x1="330.7858" x2="306.9" y1="100.5" y2="100.5" /><line stroke="rgb(0%,0%,0%)" x1="336.9" x2="330.7858" y1="0.5" y2="0.5" /><line stroke="rgb(0%,0%,0%)" x1="330.7858" x2="306.9" y1="0.5" y2="0.5" /></svg>