<?xml version="1.0" encoding="utf-8" ?>
<svg baseProfile="tiny" height="100%" version="1.2" width="100%" xmlns="http://www.w3.org/2000/svg" xmlns:ev="http://www.w3.org/2001/xml-events" xmlns:xlink="http://www.w3.org/1999/xlink"><defs /><line stroke="rgb(0%,0%,0%)" x1="351.9" x2="351.9" y1="0.5" y2="33.7656" /><line stroke="rgb(0%,0%,0%)" x1="351.9" x2="351.9" y1="33.7656" y2="100.5" /><line stroke="rgb(0%,0%,0%)" x1="294.1288" x2="339.6713" y1="100.5" y2="100.5" /><line stroke="rgb(0%,0%,0%)" x1="339.6713" x2="341.2596" y1="100.5" y2="100.5" /><line stroke="rgb(0%,0%,0%)" x1="341.2596" x2="343.0741" y1="100.5" y2="100.5" /><line stroke="rgb(0%,0%,0%)" x1="343.0741" x2="345.088" y1="100.5" y2="100.5" /><line stroke="rgb(0%,0%,0%)" x1="345.088" x2="347.2632" y1="100.5" y2="100.5" /><line stroke="rgb(0%,0%,0%)" x1="347.2632" x2="349.5522" y1="100.5" y2="100.5" /><line stroke="rgb(0%,0%,0%)" x1="349.5522" x2="351.9" y1="100.5" y2="100.5" /><line stroke="rgb(0%,0%,0%)" x1="294.1288" x2="77.9703" y1="100.5" y2="100.5" /><line stroke="rgb(0%,0%,0%)" x1="77.9703" x2="0.5" y1="100.5" y2="100.5" /><line stroke="rgb(0%,0%,0%)" x1="0.5" x2="77.9703" y1="0.5" y2="0.5" /><line stroke="rgb(0%,0%,0%)" x1="77.9703" x2="294.1288" y1="0.5" y2="0.5" /><line stroke="rgb(0%,0%,0%)" x1="294.1288" x2="339.6713" y1="0.5" y2="0.5" /><line stroke="rgb(0%,0%,0%)" x1="339.6713" x2="341.2596" y1="0.5" y2="0.5" /><line stroke="rgb(0%,0%,0%)" x1="341.2596" x2="343.0741" y1="0.5" y2="0.5" /><line stroke="rgb(0%,0%,0%)" x1="343.0741" x2="345.088" y1="0.5" y2="0.5" /><line stroke="rgb(0%,0%,0%)" x1="345.088" x2="347.2632" y1="0.5" y2="0.5" /><line stroke="rgb(0%,0%,0%)" x1="347.2632" x2="349.5522" y1="0.5" y2="0.5" /><line stroke="rgb(0%,0%,0%)" x1="349.5522" x2="351.9" y1="0.5" y2="0.5" /><line stroke="rgb(0%,0%,0%)" x1="0.5" x2="0.5" y1="0.5" y2="62.0135" /><line stroke="rgb(0%,0%,0%)" x1="0.5" x2="0.5" y1="62.0135" y2="100.5" /><line stroke="rgb(0%,0%,0%)" x1="165.1722" x2="165.2477" y1="47.3813" y2="48.0995" /><line stroke="rgb(0%,0%,0%)" x1="165.2477" x2="165.5" y1="48.0995" y2="50.5" /><line stroke="rgb(0%,0%,0%)" x1="165.5" x2="165.4245" y1="50.5" y2="51.2181" /><line stroke="rgb(0%,0%,0%)" x1="165.4245" x2="165.1722" y1="51.2181" y2="53.6187" /><line stroke="rgb(0%,0%,0%)" x1="165.1722" x2="164.9491" y1="53.6187" y2="54.3054" /><line stroke="rgb(0%,0%,0%)" x1="164.9491" x2="164.2032" y1="54.3054" y2="56.6011" /><line stroke="rgb(0%,0%,0%)" x1="164.2032" x2="163.8421" y1="56.6011" y2="57.2264" /><line stroke="rgb(0%,0%,0%)" x1="163.8421" x2="162.6353" y1="57.2264" y2="59.3168" /><line stroke="rgb(0%,0%,0%)" x1="162.6353" x2="162.1521" y1="59.3168" y2="59.8534" /><line stroke="rgb(0%,0%,0%)" x1="162.1521" x2="160.537" y1="59.8534" y2="61.6472" /><line stroke="rgb(0%,0%,0%)" x1="160.537" x2="159.9528" y1="61.6472" y2="62.0716" /><line stroke="rgb(0%,0%,0%)" x1="159.9528" x2="158.0" y1="62.0716" y2="63.4904" /><line stroke="rgb(0%,0%,0%)" x1="158.0" x2="157.3403" y1="63.4904" y2="63.7841" /><line stroke="rgb(0%,0%,0%)" x1="157.3403" x2="155.1353" y1="63.7841" y2="64.7658" /><line stroke="rgb(0%,0%,0%)" x1="155.1353" x2="154.4289" y1="64.7658" y2="64.916" /><line stroke="rgb(0%,0%,0%)" x1="154.4289" x2="152.0679" y1="64.916" y2="65.4178" /><line stroke="rgb(0%,0%,0%)" x1="152.0679" x2="151.3458" y1="65.4178" y2="65.4178" /><line stroke="rgb(0%,0%,0%)" x1="151.3458" x2="148.9321" y1="65.4178" y2="65.4178" /><line stroke="rgb(0%,0%,0%)" x1="148.9321" x2="148.2258" y1="65.4178" y2="65.2677" /><line stroke="rgb(0%,0%,0%)" x1="148.2258" x2="145.8647" y1="65.2677" y2="64.7658" /><line stroke="rgb(0%,0%,0%)" x1="145.8647" x2="145.2051" y1="64.7658" y2="64.4721" /><line stroke="rgb(0%,0%,0%)" x1="145.2051" x2="143.0" y1="64.4721" y2="63.4904" /><line stroke="rgb(0%,0%,0%)" x1="143.0" x2="142.4158" y1="63.4904" y2="63.0659" /><line stroke="rgb(0%,0%,0%)" x1="142.4158" x2="140.463" y1="63.0659" y2="61.6472" /><line stroke="rgb(0%,0%,0%)" x1="140.463" x2="139.9799" y1="61.6472" y2="61.1105" /><line stroke="rgb(0%,0%,0%)" x1="139.9799" x2="138.3647" y1="61.1105" y2="59.3168" /><line stroke="rgb(0%,0%,0%)" x1="138.3647" x2="138.0037" y1="59.3168" y2="58.6914" /><line stroke="rgb(0%,0%,0%)" x1="138.0037" x2="136.7968" y1="58.6914" y2="56.6011" /><line stroke="rgb(0%,0%,0%)" x1="136.7968" x2="136.5737" y1="56.6011" y2="55.9143" /><line stroke="rgb(0%,0%,0%)" x1="136.5737" x2="135.8278" y1="55.9143" y2="53.6187" /><line stroke="rgb(0%,0%,0%)" x1="135.8278" x2="135.7523" y1="53.6187" y2="52.9005" /><line stroke="rgb(0%,0%,0%)" x1="135.7523" x2="135.5" y1="52.9005" y2="50.5" /><line stroke="rgb(0%,0%,0%)" x1="135.5" x2="135.5755" y1="50.5" y2="49.7819" /><line stroke="rgb(0%,0%,0%)" x1="135.5755" x2="135.8278" y1="49.7819" y2="47.3813" /><line stroke="rgb(0%,0%,0%)" x1="135.8278" x2="136.0509" y1="47.3813" y2="46.6946" /><line stroke="rgb(0%,0%,0%)" x1="136.0509" x2="136.7968" y1="46.6946" y2="44.3989" /><line stroke="rgb(0%,0%,0%)" x1="136.7968" x2="137.1579" y1="44.3989" y2="43.7736" /><line stroke="rgb(0%,0%,0%)" x1="137.1579" x2="138.3647" y1="43.7736" y2="41.6832" /><line stroke="rgb(0%,0%,0%)" x1="138.3647" x2="138.8479" y1="41.6832" y2="41.1466" /><line stroke="rgb(0%,0%,0%)" x1="138.8479" x2="140.463" y1="41.1466" y2="39.3528" /><line stroke="rgb(0%,0%,0%)" x1="140.463" x2="141.0472" y1="39.3528" y2="38.9284" /><line stroke="rgb(0%,0%,0%)" x1="141.0472" x2="143.0" y1="38.9284" y2="37.5096" /><line stroke="rgb(0%,0%,0%)" x1="143.0" x2="143.6597" y1="37.5096" y2="37.2159" /><line stroke="rgb(0%,0%,0%)" x1="143.6597" x2="145.8647" y1="37.2159" y2="36.2342" /><line stroke="rgb(0%,0%,0%)" x1="145.8647" x2="146.5711" y1="36.2342" y2="36.084" /><line stroke="rgb(0%,0%,0%)" x1="146.5711" x2="148.9321" y1="36.084" y2="35.5822" /><line stroke="rgb(0%,0%,0%)" x1="148.9321" x2="149.6542" y1="35.5822" y2="35.5822" /><line stroke="rgb(0%,0%,0%)" x1="149.6542" x2="152.0679" y1="35.5822" y2="35.5822" /><line stroke="rgb(0%,0%,0%)" x1="152.0679" x2="152.7742" y1="35.5822" y2="35.7323" /><line stroke="rgb(0%,0%,0%)" x1="152.7742" x2="155.1353" y1="35.7323" y2="36.2342" /><line stroke="rgb(0%,0%,0%)" x1="155.1353" x2="155.7949" y1="36.2342" y2="36.5279" /><line stroke="rgb(0%,0%,0%)" x1="155.7949" x2="158.0" y1="36.5279" y2="37.5096" /><line stroke="rgb(0%,0%,0%)" x1="158.0" x2="158.5842" y1="37.5096" y2="37.9341" /><line stroke="rgb(0%,0%,0%)" x1="158.5842" x2="160.537" y1="37.9341" y2="39.3528" /><line stroke="rgb(0%,0%,0%)" x1="160.537" x2="161.0201" y1="39.3528" y2="39.8894" /><line stroke="rgb(0%,0%,0%)" x1="161.0201" x2="162.6353" y1="39.8894" y2="41.6832" /><line stroke="rgb(0%,0%,0%)" x1="162.6353" x2="162.9963" y1="41.6832" y2="42.3086" /><line stroke="rgb(0%,0%,0%)" x1="162.9963" x2="164.2032" y1="42.3086" y2="44.3989" /><line stroke="rgb(0%,0%,0%)" x1="164.2032" x2="164.4263" y1="44.3989" y2="45.0857" /><line stroke="rgb(0%,0%,0%)" x1="164.4263" x2="165.1722" y1="45.0857" y2="47.3813" /><line stroke="rgb(0%,0%,0%)" x1="65.1722" x2="65.2477" y1="47.3813" y2="48.0995" /><line stroke="rgb(0%,0%,0%)" x1="65.2477" x2="65.5" y1="48.0995" y2="50.5" /><line stroke="rgb(0%,0%,0%)" x1="65.5" x2="65.4245" y1="50.5" y2="51.2181" /><line stroke="rgb(0%,0%,0%)" x1="65.4245" x2="65.1722" y1="51.2181" y2="53.6187" /><line stroke="rgb(0%,0%,0%)" x1="65.1722" x2="64.9491" y1="53.6187" y2="54.3054" /><line stroke="rgb(0%,0%,0%)" x1="64.9491" x2="64.2032" y1="54.3054" y2="56.6011" /><line stroke="rgb(0%,0%,0%)" x1="64.2032" x2="63.8421" y1="56.6011" y2="57.2264" /><line stroke="rgb(0%,0%,0%)" x1="63.8421" x2="62.6352" y1="57.2264" y2="59.3168" /><line stroke="rgb(0%,0%,0%)" x1="62.6352" x2="62.1521" y1="59.3168" y2="59.8534" /><line stroke="rgb(0%,0%,0%)" x1="62.1521" x2="60.537" y1="59.8534" y2="61.6472" /><line stroke="rgb(0%,0%,0%)" x1="60.537" x2="59.9528" y1="61.6472" y2="62.0716" /><line stroke="rgb(0%,0%,0%)" x1="59.9528" x2="58.0" y1="62.0716" y2="63.4904" /><line stroke="rgb(0%,0%,0%)" x1="58.0" x2="57.3403" y1="63.4904" y2="63.7841" /><line stroke="rgb(0%,0%,0%)" x1="57.3403" x2="55.1353" y1="63.7841" y2="64.7658" /><line stroke="rgb(0%,0%,0%)" x1="55.1353" x2="54.4289" y1="64.7658" y2="64.916" /><line stroke="rgb(0%,0%,0%)" x1="54.4289" x2="52.0679" y1="64.916" y2="65.4178" /><line stroke="rgb(0%,0%,0%)" x1="52.0679" x2="51.3458" y1="65.4178" y2="65.4178" /><line stroke="rgb(0%,0%,0%)" x1="51.3458" x2="48.9321" y1="65.4178" y2="65.4178" /><line stroke="rgb(0%,0%,0%)" x1="48.9321" x2="48.2257" y1="65.4178" y2="65.2677" /><line stroke="rgb(0%,0%,0%)" x1="48.2257" x2="45.8647" y1="65.2677" y2="64.7658" /><line stroke="rgb(0%,0%,0%)" x1="45.8647" x2="45.2051" y1="64.7658" y2="64.4721" /><line stroke="rgb(0%,0%,0%)" x1="45.2051" x2="43.0" y1="64.4721" y2="63.4904" /><line stroke="rgb(0%,0%,0%)" x1="43.0" x2="42.4158" y1="63.4904" y2="63.0659" /><line stroke="rgb(0%,0%,0%)" x1="42.4158" x2="40.463" y1="63.0659" y2="61.6472" /><line stroke="rgb(0%,0%,0%)" x1="40.463" x2="39.9799" y1="61.6472" y2="61.1105" /><line stroke="rgb(0%,0%,0%)" x1="39.9799" x2="38.3647" y1="61.1105" y2="59.3168" /><line stroke="rgb(0%,0%,0%)" x1="38.3647" x2="38.0037" y1="59.3168" y2="58.6914" /><line stroke="rgb(0%,0%,0%)" x1="38.0037" x2="36.7968" y1="58.6914" y2="56.6011" /><line stroke="rgb(0%,0%,0%)" x1="36.7968" x2="36.5737" y1="56.6011" y2="55.9143" /><line stroke="rgb(0%,0%,0%)" x1="36.5737" x2="35.8278" y1="55.9143" y2="53.6187" /><line stroke="rgb(0%,0%,0%)" x1="35.8278" x2="35.7523" y1="53.6187" y2="52.9005" /><line stroke="rgb(0%,0%,0%)" x1="35.7523" x2="35.5" y1="52.9005" y2="50.5" /><line stroke="rgb(0%,0%,0%)" x1="35.5" x2="35.5755" y1="50.5" y2="49.7819" /><line stroke="rgb(0%,0%,0%)" x1="35.5755" x2="35.8278" y1="49.7819" y2="47.3813" /><line stroke="rgb(0%,0%,0%)" x1="35.8278" x2="36.0509" y1="47.3813" y2="46.6946" /><line stroke="rgb(0%,0%,0%)" x1="36.0509" x2="36.7968" y1="46.6946" y2="44.3989" /><line stroke="rgb(0%,0%,0%)" x1="36.7968" x2="37.1579" y1="44.3989" y2="43.7736" /><line stroke="rgb(0%,0%,0%)" x1="37.1579" x2="38.3647" y1="43.7736" y2="41.6832" /><line stroke="rgb(0%,0%,0%)" x1="38.3647" x2="38.8479" y1="41.6832" y2="41.1466" /><line stroke="rgb(0%,0%,0%)" x1="38.8479" x2="40.463" y1="41.1466" y2="39.3528" /><line stroke="rgb(0%,0%,0%)" x1="40.463" x2="41.0472" y1="39.3528" y2="38.9284" /><line stroke="rgb(0%,0%,0%)" x1="41.0472" x2="43.0" y1="38.9284" y2="37.5096" /><line stroke="rgb(0%,0%,0%)" x1="43.0" x2="43.6597" y1="37.5096" y2="37.2159" /><line stroke="rgb(0%,0%,0%)" x1="43.6597" x2="45.8647" y1="37.2159" y2="36.2342" /><line stroke="rgb(0%,0%,0%)" x1="45.8647" x2="46.5711" y1="36.2342" y2="36.084" /><line stroke="rgb(0%,0%,0%)" x1="46.5711" x2="48.9321" y1="36.084" y2="35.5822" /><line stroke="rgb(0%,0%,0%)" x1="48.9321" x2="49.6542" y1="35.5822" y2="35.5822" /><line stroke="rgb(0%,0%,0%)" x1="49.6542" x2="52.0679" y1="35.5822" y2="35.5822" /><line stroke="rgb(0%,0%,0%)" x1="52.0679" x2="52.7742" y1="35.5822" y2="35.7323" /><line stroke="rgb(0%,0%,0%)" x1="52.7742" x2="55.1353" y1="35.7323" y2="36.2342" /><line stroke="rgb(0%,0%,0%)" x1="55.1353" x2="55.7949" y1="36.2342" y2="36.5279" /><line stroke="rgb(0%,0%,0%)" x1="55.7949" x2="58.0" y1="36.5279" y2="37.5096" /><line stroke="rgb(0%,0%,0%)" x1="58.0" x2="58.5842" y1="37.5096" y2="37.9341" /><line stroke="rgb(0%,0%,0%)" x1="58.5842" x2="60.537" y1="37.9341" y2="39.3528" /><line stroke="rgb(0%,0%,0%)" x1="60.537" x2="61.0201" y1="39.3528" y2="39.8894" /><line stroke="rgb(0%,0%,0%)" x1="61.0201" x2="62.6352" y1="39.8894" y2="41.6832" /><line stroke="rgb(0%,0%,0%)" x1="62.6352" x2="62.9963" y1="41.6832" y2="42.3086" /><line stroke="rgb(0%,0%,0%)" x1="62.9963" x2="64.2032" y1="42.3086" y2="44.3989" /><line stroke="rgb(0%,0%,0%)" x1="64.2032" x2="64.4263" y1="44.3989" y2="45.0857" /><line stroke="rgb(0%,0%,0%)" x1="64.4263" x2="65.1722" y1="45.0857" y2="47.3813" /></svg>