<?xml version="1.0" encoding="utf-8" ?>
<svg baseProfile="tiny" height="100%" version="1.2" width="100%" xmlns="http://www.w3.org/2000/svg" xmlns:ev="http://www.w3.org/2001/xml-events" xmlns:xlink="http://www.w3.org/1999/xlink"><defs /><line stroke="rgb(0%,0%,0%)" x1="306.9" x2="306.9" y1="13.1403" y2="0.5" /><line stroke="rgb(0%,0%,0%)" x1="306.9" x2="306.9" y1="65.975" y2="35.025" /><line stroke="rgb(0%,0%,0%)" x1="306.9" x2="306.9" y1="35.025" y2="32.2951" /><line stroke="rgb(0%,0%,0%)" x1="306.9" x2="306.9" y1="32.2951" y2="28.7834" /><line stroke="rgb(0%,0%,0%)" x1="306.9" x2="306.9" y1="100.5" y2="86.6018" /><line stroke="rgb(0%,0%,0%)" x1="306.9" x2="306.9" y1="86.6018" y2="84.8169" /><line stroke="rgb(0%,0%,0%)" x1="306.9" x2="306.9" y1="84.8169" y2="82.438" /><line stroke="rgb(0%,0%,0%)" x1="306.9" x2="306.9" y1="28.7834" y2="25.0473" /><line stroke="rgb(0%,0%,0%)" x1="306.9" x2="306.9" y1="25.0473" y2="21.5493" /><line stroke="rgb(0%,0%,0%)" x1="306.9" x2="306.9" y1="21.5493" y2="18.562" /><line stroke="rgb(0%,0%,0%)" x1="306.9" x2="306.9" y1="18.562" y2="16.1831" /><line stroke="rgb(0%,0%,0%)" x1="306.9" x2="306.9" y1="16.1831" y2="14.3982" /><line stroke="rgb(0%,0%,0%)" x1="306.9" x2="306.9" y1="14.3982" y2="13.1403" /><line stroke="rgb(0%,0%,0%)" x1="306.9" x2="306.9" y1="82.438" y2="79.4507" /><line stroke="rgb(0%,0%,0%)" x1="306.9" x2="306.9" y1="79.4507" y2="75.9527" /><line stroke="rgb(0%,0%,0%)" x1="306.9" x2="306.9" y1="75.9527" y2="72.2166" /><line stroke="rgb(0%,0%,0%)" x1="306.9" x2="306.9" y1="72.2166" y2="68.7049" /><line stroke="rgb(0%,0%,0%)" x1="306.9" x2="306.9" y1="68.7049" y2="65.975" /><line stroke="rgb(0%,0%,0%)" x1="336.9" x2="336.9" y1="0.5" y2="12.328" /><line stroke="rgb(0%,0%,0%)" x1="336.9" x2="336.9" y1="12.328" y2="13.1403" /><line stroke="rgb(0%,0%,0%)" x1="336.9" x2="336.9" y1="13.1403" y2="14.3982" /><line stroke="rgb(0%,0%,0%)" x1="336.9" x2="336.9" y1="88.672" y2="100.5" /><line stroke="rgb(0%,0%,0%)" x1="336.9" x2="336.9" y1="35.025" y2="65.975" /><line stroke="rgb(0%,0%,0%)" x1="336.9" x2="336.9" y1="65.975" y2="68.7049" /><line stroke="rgb(0%,0%,0%)" x1="336.9" x2="336.9" y1="68.7049" y2="72.2166" /><line stroke="rgb(0%,0%,0%)" x1="336.9" x2="336.9" y1="14.3982" y2="16.1831" /><line stroke="rgb(0%,0%,0%)" x1="336.9" x2="336.9" y1="16.1831" y2="18.562" /><line stroke="rgb(0%,0%,0%)" x1="336.9" x2="336.9" y1="18.562" y2="21.5493" /><line stroke="rgb(0%,0%,0%)" x1="336.9" x2="336.9" y1="21.5493" y2="25.0473" /><line stroke="rgb(0%,0%,0%)" x1="336.9" x2="336.9" y1="25.0473" y2="28.7834" /><line stroke="rgb(0%,0%,0%)" x1="336.9" x2="336.9" y1="28.7834" y2="32.2951" /><line stroke="rgb(0%,0%,0%)" x1="336.9" x2="336.9" y1="32.2951" y2="35.025" /><line stroke="rgb(0%,0%,0%)" x1="336.9" x2="336.9" y1="72.2166" y2="75.9527" /><line stroke="rgb(0%,0%,0%)" x1="336.9" x2="336.9" y1="75.9527" y2="79.4507" /><line stroke="rgb(0%,0%,0%)" x1="336.9" x2="336.9" y1="79.4507" y2="82.438" /><line stroke="rgb(0%,0%,0%)" x1="336.9" x2="336.9" y1="82.438" y2="84.8169" /><line stroke="rgb(0%,0%,0%)" x1="336.9" x2="336.9" y1="84.8169" y2="86.6018" /><line stroke="rgb(0%,0%,0%)" x1="336.9" x2="336.9" y1="86.6018" y2="87.8597" /><line stroke="rgb(0%,0%,0%)" x1="336.9" x2="336.9" y1="87.8597" y2="88.672" /><line stroke="rgb(0%,0%,0%)" x1="336.9" x2="331.2393" y1="100.5" y2="100.5" /><line stroke="rgb(0%,0%,0%)" x1="331.2393" x2="306.9" y1="100.5" y2="100.5" /><line stroke="rgb(0%,0%,0%)" x1="336.9" x2="331.2393" y1="0.5" y2="0.5" /><line stroke="rgb(0%,0%,0%)" x1="331.2393" x2="306.9" y1="0.5" y2="0.5" /></svg>