<?xml version="1.0" encoding="utf-8" ?>
<svg baseProfile="tiny" height="100%" version="1.2" width="100%" xmlns="http://www.w3.org/2000/svg" xmlns:ev="http://www.w3.org/2001/xml-events" xmlns:xlink="http://www.w3.org/1999/xlink"><defs /><line stroke="rgb(0%,0%,0%)" x1="306.9" x2="306.9" y1="12.1277" y2="0.5" /><line stroke="rgb(0%,0%,0%)" x1="306.9" x2="306.9" y1="68.7407" y2="32.2593" /><line stroke="rgb(0%,0%,0%)" x1="306.9" x2="306.9" y1="32.2593" y2="29.7481" /><line stroke="rgb(0%,0%,0%)" x1="306.9" x2="306.9" y1="29.7481" y2="26.5177" /><line stroke="rgb(0%,0%,0%)" x1="306.9" x2="306.9" y1="100.5" y2="87.7152" /><line stroke="rgb(0%,0%,0%)" x1="306.9" x2="306.9" y1="87.7152" y2="86.0732" /><line stroke="rgb(0%,0%,0%)" x1="306.9" x2="306.9" y1="86.0732" y2="83.8848" /><line stroke="rgb(0%,0%,0%)" x1="306.9" x2="306.9" y1="26.5177" y2="23.0809" /><line stroke="rgb(0%,0%,0%)" x1="306.9" x2="306.9" y1="23.0809" y2="19.8631" /><line stroke="rgb(0%,0%,0%)" x1="306.9" x2="306.9" y1="19.8631" y2="17.1152" /><line stroke="rgb(0%,0%,0%)" x1="306.9" x2="306.9" y1="17.1152" y2="14.9268" /><line stroke="rgb(0%,0%,0%)" x1="306.9" x2="306.9" y1="14.9268" y2="13.2848" /><line stroke="rgb(0%,0%,0%)" x1="306.9" x2="306.9" y1="13.2848" y2="12.1277" /><line stroke="rgb(0%,0%,0%)" x1="306.9" x2="306.9" y1="83.8848" y2="81.1369" /><line stroke="rgb(0%,0%,0%)" x1="306.9" x2="306.9" y1="81.1369" y2="77.9191" /><line stroke="rgb(0%,0%,0%)" x1="306.9" x2="306.9" y1="77.9191" y2="74.4823" /><line stroke="rgb(0%,0%,0%)" x1="306.9" x2="306.9" y1="74.4823" y2="71.2519" /><line stroke="rgb(0%,0%,0%)" x1="306.9" x2="306.9" y1="71.2519" y2="68.7407" /><line stroke="rgb(0%,0%,0%)" x1="336.9" x2="336.9" y1="0.5" y2="11.3805" /><line stroke="rgb(0%,0%,0%)" x1="336.9" x2="336.9" y1="11.3805" y2="12.1277" /><line stroke="rgb(0%,0%,0%)" x1="336.9" x2="336.9" y1="12.1277" y2="13.2848" /><line stroke="rgb(0%,0%,0%)" x1="336.9" x2="336.9" y1="89.6195" y2="100.5" /><line stroke="rgb(0%,0%,0%)" x1="336.9" x2="336.9" y1="32.2593" y2="68.7407" /><line stroke="rgb(0%,0%,0%)" x1="336.9" x2="336.9" y1="68.7407" y2="71.2519" /><line stroke="rgb(0%,0%,0%)" x1="336.9" x2="336.9" y1="71.2519" y2="74.4823" /><line stroke="rgb(0%,0%,0%)" x1="336.9" x2="336.9" y1="13.2848" y2="14.9268" /><line stroke="rgb(0%,0%,0%)" x1="336.9" x2="336.9" y1="14.9268" y2="17.1152" /><line stroke="rgb(0%,0%,0%)" x1="336.9" x2="336.9" y1="17.1152" y2="19.8631" /><line stroke="rgb(0%,0%,0%)" x1="336.9" x2="336.9" y1="19.8631" y2="23.0809" /><line stroke="rgb(0%,0%,0%)" x1="336.9" x2="336.9" y1="23.0809" y2="26.5177" /><line stroke="rgb(0%,0%,0%)" x1="336.9" x2="336.9" y1="26.5177" y2="29.7481" /><line stroke="rgb(0%,0%,0%)" x1="336.9" x2="336.9" y1="29.7481" y2="32.2593" /><line stroke="rgb(0%,0%,0%)" x1="336.9" x2="336.9" y1="74.4823" y2="77.9191" /><line stroke="rgb(0%,0%,0%)" x1="336.9" x2="336.9" y1="77.9191" y2="81.1369" /><line stroke="rgb(0%,0%,0%)" x1="336.9" x2="336.9" y1="81.1369" y2="83.8848" /><line stroke="rgb(0%,0%,0%)" x1="336.9" x2="336.9" y1="83.8848" y2="86.0732" /><line stroke="rgb(0%,0%,0%)" x1="336.9" x2="336.9" y1="86.0732" y2="87.7152" /><line stroke="rgb(0%,0%,0%)" x1="336.9" x2="336.9" y1="87.7152" y2="88.8723" /><line stroke="rgb(0%,0%,0%)" x1="336.9" x2="336.9" y1="88.8723" y2="89.6195" /><line stroke="rgb(0%,0%,0%)" x1="336.9" x2="331.6927" y1="100.5" y2="100.5" /><line stroke="rgb(0%,0%,0%)" x1="331.6927" x2="306.9" y1="100.5" y2="100.5" /><line stroke="rgb(0%,0%,0%)" x1="336.9" x2="331.6927" y1="0.5" y2="0.5" /><line stroke="rgb(0%,0%,0%)" x1="331.6927" x2="306.9" y1="0.5" y2="0.5" /></svg>