<?xml version="1.0" encoding="utf-8" ?>
<svg baseProfile="tiny" height="100%" version="1.2" width="100%" xmlns="http://www.w3.org/2000/svg" xmlns:ev="http://www.w3.org/2001/xml-events" xmlns:xlink="http://www.w3.org/1999/xlink"><defs /><line stroke="rgb(0%,0%,0%)" x1="306.9" x2="306.9" y1="11.1151" y2="0.5" /><line stroke="rgb(0%,0%,0%)" x1="306.9" x2="306.9" y1="71.5064" y2="29.4936" /><line stroke="rgb(0%,0%,0%)" x1="306.9" x2="306.9" y1="29.4936" y2="27.2011" /><line stroke="rgb(0%,0%,0%)" x1="306.9" x2="306.9" y1="27.2011" y2="24.252" /><line stroke="rgb(0%,0%,0%)" x1="306.9" x2="306.9" y1="100.5" y2="88.8285" /><line stroke="rgb(0%,0%,0%)" x1="306.9" x2="306.9" y1="88.8285" y2="87.3295" /><line stroke="rgb(0%,0%,0%)" x1="306.9" x2="306.9" y1="87.3295" y2="85.3317" /><line stroke="rgb(0%,0%,0%)" x1="306.9" x2="306.9" y1="24.252" y2="21.1145" /><line stroke="rgb(0%,0%,0%)" x1="306.9" x2="306.9" y1="21.1145" y2="18.1769" /><line stroke="rgb(0%,0%,0%)" x1="306.9" x2="306.9" y1="18.1769" y2="15.6683" /><line stroke="rgb(0%,0%,0%)" x1="306.9" x2="306.9" y1="15.6683" y2="13.6705" /><line stroke="rgb(0%,0%,0%)" x1="306.9" x2="306.9" y1="13.6705" y2="12.1715" /><line stroke="rgb(0%,0%,0%)" x1="306.9" x2="306.9" y1="12.1715" y2="11.1151" /><line stroke="rgb(0%,0%,0%)" x1="306.9" x2="306.9" y1="85.3317" y2="82.8231" /><line stroke="rgb(0%,0%,0%)" x1="306.9" x2="306.9" y1="82.8231" y2="79.8855" /><line stroke="rgb(0%,0%,0%)" x1="306.9" x2="306.9" y1="79.8855" y2="76.748" /><line stroke="rgb(0%,0%,0%)" x1="306.9" x2="306.9" y1="76.748" y2="73.7989" /><line stroke="rgb(0%,0%,0%)" x1="306.9" x2="306.9" y1="73.7989" y2="71.5064" /><line stroke="rgb(0%,0%,0%)" x1="336.9" x2="336.9" y1="0.5" y2="10.433" /><line stroke="rgb(0%,0%,0%)" x1="336.9" x2="336.9" y1="10.433" y2="11.1151" /><line stroke="rgb(0%,0%,0%)" x1="336.9" x2="336.9" y1="11.1151" y2="12.1715" /><line stroke="rgb(0%,0%,0%)" x1="336.9" x2="336.9" y1="90.567" y2="100.5" /><line stroke="rgb(0%,0%,0%)" x1="336.9" x2="336.9" y1="29.4936" y2="71.5064" /><line stroke="rgb(0%,0%,0%)" x1="336.9" x2="336.9" y1="71.5064" y2="73.7989" /><line stroke="rgb(0%,0%,0%)" x1="336.9" x2="336.9" y1="73.7989" y2="76.748" /><line stroke="rgb(0%,0%,0%)" x1="336.9" x2="336.9" y1="12.1715" y2="13.6705" /><line stroke="rgb(0%,0%,0%)" x1="336.9" x2="336.9" y1="13.6705" y2="15.6683" /><line stroke="rgb(0%,0%,0%)" x1="336.9" x2="336.9" y1="15.6683" y2="18.1769" /><line stroke="rgb(0%,0%,0%)" x1="336.9" x2="336.9" y1="18.1769" y2="21.1145" /><line stroke="rgb(0%,0%,0%)" x1="336.9" x2="336.9" y1="21.1145" y2="24.252" /><line stroke="rgb(0%,0%,0%)" x1="336.9" x2="336.9" y1="24.252" y2="27.2011" /><line stroke="rgb(0%,0%,0%)" x1="336.9" x2="336.9" y1="27.2011" y2="29.4936" /><line stroke="rgb(0%,0%,0%)" x1="336.9" x2="336.9" y1="76.748" y2="79.8855" /><line stroke="rgb(0%,0%,0%)" x1="336.9" x2="336.9" y1="79.8855" y2="82.8231" /><line stroke="rgb(0%,0%,0%)" x1="336.9" x2="336.9" y1="82.8231" y2="85.3317" /><line stroke="rgb(0%,0%,0%)" x1="336.9" x2="336.9" y1="85.3317" y2="87.3295" /><line stroke="rgb(0%,0%,0%)" x1="336.9" x2="336.9" y1="87.3295" y2="88.8285" /><line stroke="rgb(0%,0%,0%)" x1="336.9" x2="336.9" y1="88.8285" y2="89.8849" /><line stroke="rgb(0%,0%,0%)" x1="336.9" x2="336.9" y1="89.8849" y2="90.567" /><line stroke="rgb(0%,0%,0%)" x1="336.9" x2="332.1462" y1="100.5" y2="100.5" /><line stroke="rgb(0%,0%,0%)" x1="332.1462" x2="306.9" y1="100.5" y2="100.5" /><line stroke="rgb(0%,0%,0%)" x1="336.9" x2="332.1462" y1="0.5" y2="0.5" /><line stroke="rgb(0%,0%,0%)" x1="332.1462" x2="306.9" y1="0.5" y2="0.5" /></svg>