<?xml version="1.0" encoding="utf-8" ?>
<svg baseProfile="tiny" height="100%" version="1.2" width="100%" xmlns="http://www.w3.org/2000/svg" xmlns:ev="http://www.w3.org/2001/xml-events" xmlns:xlink="http://www.w3.org/1999/xlink"><defs /><line stroke="rgb(0%,0%,0%)" x1="306.9" x2="306.9" y1="10.1025" y2="0.5" /><line stroke="rgb(0%,0%,0%)" x1="306.9" x2="306.9" y1="74.2721" y2="26.7279" /><line stroke="rgb(0%,0%,0%)" x1="306.9" x2="306.9" y1="26.7279" y2="24.6541" /><line stroke="rgb(0%,0%,0%)" x1="306.9" x2="306.9" y1="24.6541" y2="21.9863" /><line stroke="rgb(0%,0%,0%)" x1="306.9" x2="306.9" y1="100.5" y2="89.9418" /><line stroke="rgb(0%,0%,0%)" x1="306.9" x2="306.9" y1="89.9418" y2="88.5859" /><line stroke="rgb(0%,0%,0%)" x1="306.9" x2="306.9" y1="88.5859" y2="86.7786" /><line stroke="rgb(0%,0%,0%)" x1="306.9" x2="306.9" y1="21.9863" y2="19.1481" /><line stroke="rgb(0%,0%,0%)" x1="306.9" x2="306.9" y1="19.1481" y2="16.4907" /><line stroke="rgb(0%,0%,0%)" x1="306.9" x2="306.9" y1="16.4907" y2="14.2214" /><line stroke="rgb(0%,0%,0%)" x1="306.9" x2="306.9" y1="14.2214" y2="12.4141" /><line stroke="rgb(0%,0%,0%)" x1="306.9" x2="306.9" y1="12.4141" y2="11.0582" /><line stroke="rgb(0%,0%,0%)" x1="306.9" x2="306.9" y1="11.0582" y2="10.1025" /><line stroke="rgb(0%,0%,0%)" x1="306.9" x2="306.9" y1="86.7786" y2="84.5093" /><line stroke="rgb(0%,0%,0%)" x1="306.9" x2="306.9" y1="84.5093" y2="81.8519" /><line stroke="rgb(0%,0%,0%)" x1="306.9" x2="306.9" y1="81.8519" y2="79.0137" /><line stroke="rgb(0%,0%,0%)" x1="306.9" x2="306.9" y1="79.0137" y2="76.3459" /><line stroke="rgb(0%,0%,0%)" x1="306.9" x2="306.9" y1="76.3459" y2="74.2721" /><line stroke="rgb(0%,0%,0%)" x1="336.9" x2="336.9" y1="0.5" y2="9.4855" /><line stroke="rgb(0%,0%,0%)" x1="336.9" x2="336.9" y1="9.4855" y2="10.1025" /><line stroke="rgb(0%,0%,0%)" x1="336.9" x2="336.9" y1="10.1025" y2="11.0582" /><line stroke="rgb(0%,0%,0%)" x1="336.9" x2="336.9" y1="91.5145" y2="100.5" /><line stroke="rgb(0%,0%,0%)" x1="336.9" x2="336.9" y1="26.7279" y2="74.2721" /><line stroke="rgb(0%,0%,0%)" x1="336.9" x2="336.9" y1="74.2721" y2="76.3459" /><line stroke="rgb(0%,0%,0%)" x1="336.9" x2="336.9" y1="76.3459" y2="79.0137" /><line stroke="rgb(0%,0%,0%)" x1="336.9" x2="336.9" y1="11.0582" y2="12.4141" /><line stroke="rgb(0%,0%,0%)" x1="336.9" x2="336.9" y1="12.4141" y2="14.2214" /><line stroke="rgb(0%,0%,0%)" x1="336.9" x2="336.9" y1="14.2214" y2="16.4907" /><line stroke="rgb(0%,0%,0%)" x1="336.9" x2="336.9" y1="16.4907" y2="19.1481" /><line stroke="rgb(0%,0%,0%)" x1="336.9" x2="336.9" y1="19.1481" y2="21.9863" /><line stroke="rgb(0%,0%,0%)" x1="336.9" x2="336.9" y1="21.9863" y2="24.6541" /><line stroke="rgb(0%,0%,0%)" x1="336.9" x2="336.9" y1="24.6541" y2="26.7279" /><line stroke="rgb(0%,0%,0%)" x1="336.9" x2="336.9" y1="79.0137" y2="81.8519" /><line stroke="rgb(0%,0%,0%)" x1="336.9" x2="336.9" y1="81.8519" y2="84.5093" /><line stroke="rgb(0%,0%,0%)" x1="336.9" x2="336.9" y1="84.5093" y2="86.7786" /><line stroke="rgb(0%,0%,0%)" x1="336.9" x2="336.9" y1="86.7786" y2="88.5859" /><line stroke="rgb(0%,0%,0%)" x1="336.9" x2="336.9" y1="88.5859" y2="89.9418" /><line stroke="rgb(0%,0%,0%)" x1="336.9" x2="336.9" y1="89.9418" y2="90.8975" /><line stroke="rgb(0%,0%,0%)" x1="336.9" x2="336.9" y1="90.8975" y2="91.5145" /><line stroke="rgb(0%,0%,0%)" x1="336.9" x2="332.5996" y1="100.5" y2="100.5" /><line stroke="rgb(0%,0%,0%)" x1="332.5996" x2="306.9" y1="100.5" y2="100.5" /><line stroke="rgb(0%,0%,0%)" x1="336.9" x2="332.5996" y1="0.5" y2="0.5" /><line stroke="rgb(0%,0%,0%)" x1="332.5996" x2="306.9" y1="0.5" y2="0.5" /></svg>