<?xml version="1.0" encoding="utf-8" ?>
<svg baseProfile="tiny" height="100%" version="1.2" width="100%" xmlns="http://www.w3.org/2000/svg" xmlns:ev="http://www.w3.org/2001/xml-events" xmlns:xlink="http://www.w3.org/1999/xlink"><defs /><line stroke="rgb(0%,0%,0%)" x1="306.9" x2="306.9" y1="9.09" y2="0.5" /><line stroke="rgb(0%,0%,0%)" x1="306.9" x2="306.9" y1="77.0377" y2="23.9623" /><line stroke="rgb(0%,0%,0%)" x1="306.9" x2="306.9" y1="23.9623" y2="22.1071" /><line stroke="rgb(0%,0%,0%)" x1="306.9" x2="306.9" y1="22.1071" y2="19.7206" /><line stroke="rgb(0%,0%,0%)" x1="306.9" x2="306.9" y1="100.5" y2="91.0552" /><line stroke="rgb(0%,0%,0%)" x1="306.9" x2="306.9" y1="91.0552" y2="89.8422" /><line stroke="rgb(0%,0%,0%)" x1="306.9" x2="306.9" y1="89.8422" y2="88.2255" /><line stroke="rgb(0%,0%,0%)" x1="306.9" x2="306.9" y1="19.7206" y2="17.1816" /><line stroke="rgb(0%,0%,0%)" x1="306.9" x2="306.9" y1="17.1816" y2="14.8045" /><line stroke="rgb(0%,0%,0%)" x1="306.9" x2="306.9" y1="14.8045" y2="12.7745" /><line stroke="rgb(0%,0%,0%)" x1="306.9" x2="306.9" y1="12.7745" y2="11.1578" /><line stroke="rgb(0%,0%,0%)" x1="306.9" x2="306.9" y1="11.1578" y2="9.9448" /><line stroke="rgb(0%,0%,0%)" x1="306.9" x2="306.9" y1="9.9448" y2="9.09" /><line stroke="rgb(0%,0%,0%)" x1="306.9" x2="306.9" y1="88.2255" y2="86.1955" /><line stroke="rgb(0%,0%,0%)" x1="306.9" x2="306.9" y1="86.1955" y2="83.8184" /><line stroke="rgb(0%,0%,0%)" x1="306.9" x2="306.9" y1="83.8184" y2="81.2794" /><line stroke="rgb(0%,0%,0%)" x1="306.9" x2="306.9" y1="81.2794" y2="78.8929" /><line stroke="rgb(0%,0%,0%)" x1="306.9" x2="306.9" y1="78.8929" y2="77.0377" /><line stroke="rgb(0%,0%,0%)" x1="336.9" x2="336.9" y1="0.5" y2="8.538" /><line stroke="rgb(0%,0%,0%)" x1="336.9" x2="336.9" y1="8.538" y2="9.09" /><line stroke="rgb(0%,0%,0%)" x1="336.9" x2="336.9" y1="9.09" y2="9.9448" /><line stroke="rgb(0%,0%,0%)" x1="336.9" x2="336.9" y1="92.462" y2="100.5" /><line stroke="rgb(0%,0%,0%)" x1="336.9" x2="336.9" y1="23.9623" y2="77.0377" /><line stroke="rgb(0%,0%,0%)" x1="336.9" x2="336.9" y1="77.0377" y2="78.8929" /><line stroke="rgb(0%,0%,0%)" x1="336.9" x2="336.9" y1="78.8929" y2="81.2794" /><line stroke="rgb(0%,0%,0%)" x1="336.9" x2="336.9" y1="9.9448" y2="11.1578" /><line stroke="rgb(0%,0%,0%)" x1="336.9" x2="336.9" y1="11.1578" y2="12.7745" /><line stroke="rgb(0%,0%,0%)" x1="336.9" x2="336.9" y1="12.7745" y2="14.8045" /><line stroke="rgb(0%,0%,0%)" x1="336.9" x2="336.9" y1="14.8045" y2="17.1816" /><line stroke="rgb(0%,0%,0%)" x1="336.9" x2="336.9" y1="17.1816" y2="19.7206" /><line stroke="rgb(0%,0%,0%)" x1="336.9" x2="336.9" y1="19.7206" y2="22.1071" /><line stroke="rgb(0%,0%,0%)" x1="336.9" x2="336.9" y1="22.1071" y2="23.9623" /><line stroke="rgb(0%,0%,0%)" x1="336.9" x2="336.9" y1="81.2794" y2="83.8184" /><line stroke="rgb(0%,0%,0%)" x1="336.9" x2="336.9" y1="83.8184" y2="86.1955" /><line stroke="rgb(0%,0%,0%)" x1="336.9" x2="336.9" y1="86.1955" y2="88.2255" /><line stroke="rgb(0%,0%,0%)" x1="336.9" x2="336.9" y1="88.2255" y2="89.8422" /><line stroke="rgb(0%,0%,0%)" x1="336.9" x2="336.9" y1="89.8422" y2="91.0552" /><line stroke="rgb(0%,0%,0%)" x1="336.9" x2="336.9" y1="91.0552" y2="91.91" /><line stroke="rgb(0%,0%,0%)" x1="336.9" x2="336.9" y1="91.91" y2="92.462" /><line stroke="rgb(0%,0%,0%)" x1="336.9" x2="333.0531" y1="100.5" y2="100.5" /><line stroke="rgb(0%,0%,0%)" x1="333.0531" x2="306.9" y1="100.5" y2="100.5" /><line stroke="rgb(0%,0%,0%)" x1="336.9" x2="333.0531" y1="0.5" y2="0.5" /><line stroke="rgb(0%,0%,0%)" x1="333.0531" x2="306.9" y1="0.5" y2="0.5" /></svg>