<?xml version="1.0" encoding="utf-8" ?>
<svg baseProfile="tiny" height="100%" version="1.2" width="100%" xmlns="http://www.w3.org/2000/svg" xmlns:ev="http://www.w3.org/2001/xml-events" xmlns:xlink="http://www.w3.org/1999/xlink"><defs /><line stroke="rgb(0%,0%,0%)" x1="306.9" x2="306.9" y1="8.0774" y2="0.5" /><line stroke="rgb(0%,0%,0%)" x1="306.9" x2="306.9" y1="79.8034" y2="21.1966" /><line stroke="rgb(0%,0%,0%)" x1="306.9" x2="306.9" y1="21.1966" y2="19.56" /><line stroke="rgb(0%,0%,0%)" x1="306.9" x2="306.9" y1="19.56" y2="17.4549" /><line stroke="rgb(0%,0%,0%)" x1="306.9" x2="306.9" y1="100.5" y2="92.1685" /><line stroke="rgb(0%,0%,0%)" x1="306.9" x2="306.9" y1="92.1685" y2="91.0985" /><line stroke="rgb(0%,0%,0%)" x1="306.9" x2="306.9" y1="91.0985" y2="89.6724" /><line stroke="rgb(0%,0%,0%)" x1="306.9" x2="306.9" y1="17.4549" y2="15.2152" /><line stroke="rgb(0%,0%,0%)" x1="306.9" x2="306.9" y1="15.2152" y2="13.1183" /><line stroke="rgb(0%,0%,0%)" x1="306.9" x2="306.9" y1="13.1183" y2="11.3276" /><line stroke="rgb(0%,0%,0%)" x1="306.9" x2="306.9" y1="11.3276" y2="9.9015" /><line stroke="rgb(0%,0%,0%)" x1="306.9" x2="306.9" y1="9.9015" y2="8.8315" /><line stroke="rgb(0%,0%,0%)" x1="306.9" x2="306.9" y1="8.8315" y2="8.0774" /><line stroke="rgb(0%,0%,0%)" x1="306.9" x2="306.9" y1="89.6724" y2="87.8817" /><line stroke="rgb(0%,0%,0%)" x1="306.9" x2="306.9" y1="87.8817" y2="85.7848" /><line stroke="rgb(0%,0%,0%)" x1="306.9" x2="306.9" y1="85.7848" y2="83.5451" /><line stroke="rgb(0%,0%,0%)" x1="306.9" x2="306.9" y1="83.5451" y2="81.44" /><line stroke="rgb(0%,0%,0%)" x1="306.9" x2="306.9" y1="81.44" y2="79.8034" /><line stroke="rgb(0%,0%,0%)" x1="336.9" x2="336.9" y1="0.5" y2="7.5905" /><line stroke="rgb(0%,0%,0%)" x1="336.9" x2="336.9" y1="7.5905" y2="8.0774" /><line stroke="rgb(0%,0%,0%)" x1="336.9" x2="336.9" y1="8.0774" y2="8.8315" /><line stroke="rgb(0%,0%,0%)" x1="336.9" x2="336.9" y1="93.4095" y2="100.5" /><line stroke="rgb(0%,0%,0%)" x1="336.9" x2="336.9" y1="21.1966" y2="79.8034" /><line stroke="rgb(0%,0%,0%)" x1="336.9" x2="336.9" y1="79.8034" y2="81.44" /><line stroke="rgb(0%,0%,0%)" x1="336.9" x2="336.9" y1="81.44" y2="83.5451" /><line stroke="rgb(0%,0%,0%)" x1="336.9" x2="336.9" y1="8.8315" y2="9.9015" /><line stroke="rgb(0%,0%,0%)" x1="336.9" x2="336.9" y1="9.9015" y2="11.3276" /><line stroke="rgb(0%,0%,0%)" x1="336.9" x2="336.9" y1="11.3276" y2="13.1183" /><line stroke="rgb(0%,0%,0%)" x1="336.9" x2="336.9" y1="13.1183" y2="15.2152" /><line stroke="rgb(0%,0%,0%)" x1="336.9" x2="336.9" y1="15.2152" y2="17.4549" /><line stroke="rgb(0%,0%,0%)" x1="336.9" x2="336.9" y1="17.4549" y2="19.56" /><line stroke="rgb(0%,0%,0%)" x1="336.9" x2="336.9" y1="19.56" y2="21.1966" /><line stroke="rgb(0%,0%,0%)" x1="336.9" x2="336.9" y1="83.5451" y2="85.7848" /><line stroke="rgb(0%,0%,0%)" x1="336.9" x2="336.9" y1="85.7848" y2="87.8817" /><line stroke="rgb(0%,0%,0%)" x1="336.9" x2="336.9" y1="87.8817" y2="89.6724" /><line stroke="rgb(0%,0%,0%)" x1="336.9" x2="336.9" y1="89.6724" y2="91.0985" /><line stroke="rgb(0%,0%,0%)" x1="336.9" x2="336.9" y1="91.0985" y2="92.1685" /><line stroke="rgb(0%,0%,0%)" x1="336.9" x2="336.9" y1="92.1685" y2="92.9226" /><line stroke="rgb(0%,0%,0%)" x1="336.9" x2="336.9" y1="92.9226" y2="93.4095" /><line stroke="rgb(0%,0%,0%)" x1="336.9" x2="333.5066" y1="100.5" y2="100.5" /><line stroke="rgb(0%,0%,0%)" x1="333.5066" x2="306.9" y1="100.5" y2="100.5" /><line stroke="rgb(0%,0%,0%)" x1="336.9" x2="333.5066" y1="0.5" y2="0.5" /><line stroke="rgb(0%,0%,0%)" x1="333.5066" x2="306.9" y1="0.5" y2="0.5" /></svg>