<?xml version="1.0" encoding="utf-8" ?>
<svg baseProfile="tiny" height="100%" version="1.2" width="100%" xmlns="http://www.w3.org/2000/svg" xmlns:ev="http://www.w3.org/2001/xml-events" xmlns:xlink="http://www.w3.org/1999/xlink"><defs /><line stroke="rgb(0%,0%,0%)" x1="306.9" x2="306.9" y1="7.0648" y2="0.5" /><line stroke="rgb(0%,0%,0%)" x1="306.9" x2="306.9" y1="82.5691" y2="18.4309" /><line stroke="rgb(0%,0%,0%)" x1="306.9" x2="306.9" y1="18.4309" y2="17.013" /><line stroke="rgb(0%,0%,0%)" x1="306.9" x2="306.9" y1="17.013" y2="15.1892" /><line stroke="rgb(0%,0%,0%)" x1="306.9" x2="306.9" y1="100.5" y2="93.2819" /><line stroke="rgb(0%,0%,0%)" x1="306.9" x2="306.9" y1="93.2819" y2="92.3549" /><line stroke="rgb(0%,0%,0%)" x1="306.9" x2="306.9" y1="92.3549" y2="91.1193" /><line stroke="rgb(0%,0%,0%)" x1="306.9" x2="306.9" y1="15.1892" y2="13.2488" /><line stroke="rgb(0%,0%,0%)" x1="306.9" x2="306.9" y1="13.2488" y2="11.4321" /><line stroke="rgb(0%,0%,0%)" x1="306.9" x2="306.9" y1="11.4321" y2="9.8807" /><line stroke="rgb(0%,0%,0%)" x1="306.9" x2="306.9" y1="9.8807" y2="8.6451" /><line stroke="rgb(0%,0%,0%)" x1="306.9" x2="306.9" y1="8.6451" y2="7.7181" /><line stroke="rgb(0%,0%,0%)" x1="306.9" x2="306.9" y1="7.7181" y2="7.0648" /><line stroke="rgb(0%,0%,0%)" x1="306.9" x2="306.9" y1="91.1193" y2="89.5679" /><line stroke="rgb(0%,0%,0%)" x1="306.9" x2="306.9" y1="89.5679" y2="87.7512" /><line stroke="rgb(0%,0%,0%)" x1="306.9" x2="306.9" y1="87.7512" y2="85.8108" /><line stroke="rgb(0%,0%,0%)" x1="306.9" x2="306.9" y1="85.8108" y2="83.987" /><line stroke="rgb(0%,0%,0%)" x1="306.9" x2="306.9" y1="83.987" y2="82.5691" /><line stroke="rgb(0%,0%,0%)" x1="336.9" x2="336.9" y1="0.5" y2="6.643" /><line stroke="rgb(0%,0%,0%)" x1="336.9" x2="336.9" y1="6.643" y2="7.0648" /><line stroke="rgb(0%,0%,0%)" x1="336.9" x2="336.9" y1="7.0648" y2="7.7181" /><line stroke="rgb(0%,0%,0%)" x1="336.9" x2="336.9" y1="94.357" y2="100.5" /><line stroke="rgb(0%,0%,0%)" x1="336.9" x2="336.9" y1="18.4309" y2="82.5691" /><line stroke="rgb(0%,0%,0%)" x1="336.9" x2="336.9" y1="82.5691" y2="83.987" /><line stroke="rgb(0%,0%,0%)" x1="336.9" x2="336.9" y1="83.987" y2="85.8108" /><line stroke="rgb(0%,0%,0%)" x1="336.9" x2="336.9" y1="7.7181" y2="8.6451" /><line stroke="rgb(0%,0%,0%)" x1="336.9" x2="336.9" y1="8.6451" y2="9.8807" /><line stroke="rgb(0%,0%,0%)" x1="336.9" x2="336.9" y1="9.8807" y2="11.4321" /><line stroke="rgb(0%,0%,0%)" x1="336.9" x2="336.9" y1="11.4321" y2="13.2488" /><line stroke="rgb(0%,0%,0%)" x1="336.9" x2="336.9" y1="13.2488" y2="15.1892" /><line stroke="rgb(0%,0%,0%)" x1="336.9" x2="336.9" y1="15.1892" y2="17.013" /><line stroke="rgb(0%,0%,0%)" x1="336.9" x2="336.9" y1="17.013" y2="18.4309" /><line stroke="rgb(0%,0%,0%)" x1="336.9" x2="336.9" y1="85.8108" y2="87.7512" /><line stroke="rgb(0%,0%,0%)" x1="336.9" x2="336.9" y1="87.7512" y2="89.5679" /><line stroke="rgb(0%,0%,0%)" x1="336.9" x2="336.9" y1="89.5679" y2="91.1193" /><line stroke="rgb(0%,0%,0%)" x1="336.9" x2="336.9" y1="91.1193" y2="92.3549" /><line stroke="rgb(0%,0%,0%)" x1="336.9" x2="336.9" y1="92.3549" y2="93.2819" /><line stroke="rgb(0%,0%,0%)" x1="336.9" x2="336.9" y1="93.2819" y2="93.9352" /><line stroke="rgb(0%,0%,0%)" x1="336.9" x2="336.9" y1="93.9352" y2="94.357" /><line stroke="rgb(0%,0%,0%)" x1="336.9" x2="333.96" y1="100.5" y2="100.5" /><line stroke="rgb(0%,0%,0%)" x1="333.96" x2="306.9" y1="100.5" y2="100.5" /><line stroke="rgb(0%,0%,0%)" x1="336.9" x2="333.96" y1="0.5" y2="0.5" /><line stroke="rgb(0%,0%,0%)" x1="333.96" x2="306.9" y1="0.5" y2="0.5" /></svg>