<?xml version="1.0" encoding="utf-8" ?>
<svg baseProfile="tiny" height="100%" version="1.2" width="100%" xmlns="http://www.w3.org/2000/svg" xmlns:ev="http://www.w3.org/2001/xml-events" xmlns:xlink="http://www.w3.org/1999/xlink"><defs /><line stroke="rgb(0%,0%,0%)" x1="306.9" x2="306.9" y1="6.0522" y2="0.5" /><line stroke="rgb(0%,0%,0%)" x1="306.9" x2="306.9" y1="85.3348" y2="15.6652" /><line stroke="rgb(0%,0%,0%)" x1="306.9" x2="306.9" y1="15.6652" y2="14.466" /><line stroke="rgb(0%,0%,0%)" x1="306.9" x2="306.9" y1="14.466" y2="12.9235" /><line stroke="rgb(0%,0%,0%)" x1="306.9" x2="306.9" y1="100.5" y2="94.3952" /><line stroke="rgb(0%,0%,0%)" x1="306.9" x2="306.9" y1="94.3952" y2="93.6112" /><line stroke="rgb(0%,0%,0%)" x1="306.9" x2="306.9" y1="93.6112" y2="92.5662" /><line stroke="rgb(0%,0%,0%)" x1="306.9" x2="306.9" y1="12.9235" y2="11.2824" /><line stroke="rgb(0%,0%,0%)" x1="306.9" x2="306.9" y1="11.2824" y2="9.7459" /><line stroke="rgb(0%,0%,0%)" x1="306.9" x2="306.9" y1="9.7459" y2="8.4338" /><line stroke="rgb(0%,0%,0%)" x1="306.9" x2="306.9" y1="8.4338" y2="7.3888" /><line stroke="rgb(0%,0%,0%)" x1="306.9" x2="306.9" y1="7.3888" y2="6.6048" /><line stroke="rgb(0%,0%,0%)" x1="306.9" x2="306.9" y1="6.6048" y2="6.0522" /><line stroke="rgb(0%,0%,0%)" x1="306.9" x2="306.9" y1="92.5662" y2="91.2541" /><line stroke="rgb(0%,0%,0%)" x1="306.9" x2="306.9" y1="91.2541" y2="89.7176" /><line stroke="rgb(0%,0%,0%)" x1="306.9" x2="306.9" y1="89.7176" y2="88.0765" /><line stroke="rgb(0%,0%,0%)" x1="306.9" x2="306.9" y1="88.0765" y2="86.534" /><line stroke="rgb(0%,0%,0%)" x1="306.9" x2="306.9" y1="86.534" y2="85.3348" /><line stroke="rgb(0%,0%,0%)" x1="336.9" x2="336.9" y1="0.5" y2="5.6955" /><line stroke="rgb(0%,0%,0%)" x1="336.9" x2="336.9" y1="5.6955" y2="6.0522" /><line stroke="rgb(0%,0%,0%)" x1="336.9" x2="336.9" y1="6.0522" y2="6.6048" /><line stroke="rgb(0%,0%,0%)" x1="336.9" x2="336.9" y1="95.3045" y2="100.5" /><line stroke="rgb(0%,0%,0%)" x1="336.9" x2="336.9" y1="15.6652" y2="85.3348" /><line stroke="rgb(0%,0%,0%)" x1="336.9" x2="336.9" y1="85.3348" y2="86.534" /><line stroke="rgb(0%,0%,0%)" x1="336.9" x2="336.9" y1="86.534" y2="88.0765" /><line stroke="rgb(0%,0%,0%)" x1="336.9" x2="336.9" y1="6.6048" y2="7.3888" /><line stroke="rgb(0%,0%,0%)" x1="336.9" x2="336.9" y1="7.3888" y2="8.4338" /><line stroke="rgb(0%,0%,0%)" x1="336.9" x2="336.9" y1="8.4338" y2="9.7459" /><line stroke="rgb(0%,0%,0%)" x1="336.9" x2="336.9" y1="9.7459" y2="11.2824" /><line stroke="rgb(0%,0%,0%)" x1="336.9" x2="336.9" y1="11.2824" y2="12.9235" /><line stroke="rgb(0%,0%,0%)" x1="336.9" x2="336.9" y1="12.9235" y2="14.466" /><line stroke="rgb(0%,0%,0%)" x1="336.9" x2="336.9" y1="14.466" y2="15.6652" /><line stroke="rgb(0%,0%,0%)" x1="336.9" x2="336.9" y1="88.0765" y2="89.7176" /><line stroke="rgb(0%,0%,0%)" x1="336.9" x2="336.9" y1="89.7176" y2="91.2541" /><line stroke="rgb(0%,0%,0%)" x1="336.9" x2="336.9" y1="91.2541" y2="92.5662" /><line stroke="rgb(0%,0%,0%)" x1="336.9" x2="336.9" y1="92.5662" y2="93.6112" /><line stroke="rgb(0%,0%,0%)" x1="336.9" x2="336.9" y1="93.6112" y2="94.3952" /><line stroke="rgb(0%,0%,0%)" x1="336.9" x2="336.9" y1="94.3952" y2="94.9478" /><line stroke="rgb(0%,0%,0%)" x1="336.9" x2="336.9" y1="94.9478" y2="95.3045" /><line stroke="rgb(0%,0%,0%)" x1="336.9" x2="334.4135" y1="100.5" y2="100.5" /><line stroke="rgb(0%,0%,0%)" x1="334.4135" x2="306.9" y1="100.5" y2="100.5" /><line stroke="rgb(0%,0%,0%)" x1="336.9" x2="334.4135" y1="0.5" y2="0.5" /><line stroke="rgb(0%,0%,0%)" x1="334.4135" x2="306.9" y1="0.5" y2="0.5" /></svg>