<?xml version="1.0" encoding="utf-8" ?>
<svg baseProfile="tiny" height="100%" version="1.2" width="100%" xmlns="http://www.w3.org/2000/svg" xmlns:ev="http://www.w3.org/2001/xml-events" xmlns:xlink="http://www.w3.org/1999/xlink"><defs /><line stroke="rgb(0%,0%,0%)" x1="306.9" x2="306.9" y1="5.0397" y2="0.5" /><line stroke="rgb(0%,0%,0%)" x1="306.9" x2="306.9" y1="88.1005" y2="12.8995" /><line stroke="rgb(0%,0%,0%)" x1="306.9" x2="306.9" y1="12.8995" y2="11.919" /><line stroke="rgb(0%,0%,0%)" x1="306.9" x2="306.9" y1="11.919" y2="10.6578" /><line stroke="rgb(0%,0%,0%)" x1="306.9" x2="306.9" y1="100.5" y2="95.5086" /><line stroke="rgb(0%,0%,0%)" x1="306.9" x2="306.9" y1="95.5086" y2="94.8675" /><line stroke="rgb(0%,0%,0%)" x1="306.9" x2="306.9" y1="94.8675" y2="94.0131" /><line stroke="rgb(0%,0%,0%)" x1="306.9" x2="306.9" y1="10.6578" y2="9.316" /><line stroke="rgb(0%,0%,0%)" x1="306.9" x2="306.9" y1="9.316" y2="8.0597" /><line stroke="rgb(0%,0%,0%)" x1="306.9" x2="306.9" y1="8.0597" y2="6.9869" /><line stroke="rgb(0%,0%,0%)" x1="306.9" x2="306.9" y1="6.9869" y2="6.1325" /><line stroke="rgb(0%,0%,0%)" x1="306.9" x2="306.9" y1="6.1325" y2="5.4914" /><line stroke="rgb(0%,0%,0%)" x1="306.9" x2="306.9" y1="5.4914" y2="5.0397" /><line stroke="rgb(0%,0%,0%)" x1="306.9" x2="306.9" y1="94.0131" y2="92.9403" /><line stroke="rgb(0%,0%,0%)" x1="306.9" x2="306.9" y1="92.9403" y2="91.684" /><line stroke="rgb(0%,0%,0%)" x1="306.9" x2="306.9" y1="91.684" y2="90.3422" /><line stroke="rgb(0%,0%,0%)" x1="306.9" x2="306.9" y1="90.3422" y2="89.081" /><line stroke="rgb(0%,0%,0%)" x1="306.9" x2="306.9" y1="89.081" y2="88.1005" /><line stroke="rgb(0%,0%,0%)" x1="336.9" x2="336.9" y1="0.5" y2="4.748" /><line stroke="rgb(0%,0%,0%)" x1="336.9" x2="336.9" y1="4.748" y2="5.0397" /><line stroke="rgb(0%,0%,0%)" x1="336.9" x2="336.9" y1="5.0397" y2="5.4914" /><line stroke="rgb(0%,0%,0%)" x1="336.9" x2="336.9" y1="96.252" y2="100.5" /><line stroke="rgb(0%,0%,0%)" x1="336.9" x2="336.9" y1="12.8995" y2="88.1005" /><line stroke="rgb(0%,0%,0%)" x1="336.9" x2="336.9" y1="88.1005" y2="89.081" /><line stroke="rgb(0%,0%,0%)" x1="336.9" x2="336.9" y1="89.081" y2="90.3422" /><line stroke="rgb(0%,0%,0%)" x1="336.9" x2="336.9" y1="5.4914" y2="6.1325" /><line stroke="rgb(0%,0%,0%)" x1="336.9" x2="336.9" y1="6.1325" y2="6.9869" /><line stroke="rgb(0%,0%,0%)" x1="336.9" x2="336.9" y1="6.9869" y2="8.0597" /><line stroke="rgb(0%,0%,0%)" x1="336.9" x2="336.9" y1="8.0597" y2="9.316" /><line stroke="rgb(0%,0%,0%)" x1="336.9" x2="336.9" y1="9.316" y2="10.6578" /><line stroke="rgb(0%,0%,0%)" x1="336.9" x2="336.9" y1="10.6578" y2="11.919" /><line stroke="rgb(0%,0%,0%)" x1="336.9" x2="336.9" y1="11.919" y2="12.8995" /><line stroke="rgb(0%,0%,0%)" x1="336.9" x2="336.9" y1="90.3422" y2="91.684" /><line stroke="rgb(0%,0%,0%)" x1="336.9" x2="336.9" y1="91.684" y2="92.9403" /><line stroke="rgb(0%,0%,0%)" x1="336.9" x2="336.9" y1="92.9403" y2="94.0131" /><line stroke="rgb(0%,0%,0%)" x1="336.9" x2="336.9" y1="94.0131" y2="94.8675" /><line stroke="rgb(0%,0%,0%)" x1="336.9" x2="336.9" y1="94.8675" y2="95.5086" /><line stroke="rgb(0%,0%,0%)" x1="336.9" x2="336.9" y1="95.5086" y2="95.9603" /><line stroke="rgb(0%,0%,0%)" x1="336.9" x2="336.9" y1="95.9603" y2="96.252" /><line stroke="rgb(0%,0%,0%)" x1="336.9" x2="334.867" y1="100.5" y2="100.5" /><line stroke="rgb(0%,0%,0%)" x1="334.867" x2="306.9" y1="100.5" y2="100.5" /><line stroke="rgb(0%,0%,0%)" x1="336.9" x2="334.867" y1="0.5" y2="0.5" /><line stroke="rgb(0%,0%,0%)" x1="334.867" x2="306.9" y1="0.5" y2="0.5" /></svg>