<?xml version="1.0" encoding="utf-8" ?>
<svg baseProfile="tiny" height="100%" version="1.2" width="100%" xmlns="http://www.w3.org/2000/svg" xmlns:ev="http://www.w3.org/2001/xml-events" xmlns:xlink="http://www.w3.org/1999/xlink"><defs /><line stroke="rgb(0%,0%,0%)" x1="306.9" x2="306.9" y1="4.0271" y2="0.5" /><line stroke="rgb(0%,0%,0%)" x1="306.9" x2="306.9" y1="90.8662" y2="10.1338" /><line stroke="rgb(0%,0%,0%)" x1="306.9" x2="306.9" y1="10.1338" y2="9.372" /><line stroke="rgb(0%,0%,0%)" x1="306.9" x2="306.9" y1="9.372" y2="8.3921" /><line stroke="rgb(0%,0%,0%)" x1="306.9" x2="306.9" y1="100.5" y2="96.6219" /><line stroke="rgb(0%,0%,0%)" x1="306.9" x2="306.9" y1="96.6219" y2="96.1238" /><line stroke="rgb(0%,0%,0%)" x1="306.9" x2="306.9" y1="96.1238" y2="95.46" /><line stroke="rgb(0%,0%,0%)" x1="306.9" x2="306.9" y1="8.3921" y2="7.3496" /><line stroke="rgb(0%,0%,0%)" x1="306.9" x2="306.9" y1="7.3496" y2="6.3735" /><line stroke="rgb(0%,0%,0%)" x1="306.9" x2="306.9" y1="6.3735" y2="5.54" /><line stroke="rgb(0%,0%,0%)" x1="306.9" x2="306.9" y1="5.54" y2="4.8762" /><line stroke="rgb(0%,0%,0%)" x1="306.9" x2="306.9" y1="4.8762" y2="4.3781" /><line stroke="rgb(0%,0%,0%)" x1="306.9" x2="306.9" y1="4.3781" y2="4.0271" /><line stroke="rgb(0%,0%,0%)" x1="306.9" x2="306.9" y1="95.46" y2="94.6265" /><line stroke="rgb(0%,0%,0%)" x1="306.9" x2="306.9" y1="94.6265" y2="93.6504" /><line stroke="rgb(0%,0%,0%)" x1="306.9" x2="306.9" y1="93.6504" y2="92.6079" /><line stroke="rgb(0%,0%,0%)" x1="306.9" x2="306.9" y1="92.6079" y2="91.628" /><line stroke="rgb(0%,0%,0%)" x1="306.9" x2="306.9" y1="91.628" y2="90.8662" /><line stroke="rgb(0%,0%,0%)" x1="336.9" x2="336.9" y1="0.5" y2="3.8005" /><line stroke="rgb(0%,0%,0%)" x1="336.9" x2="336.9" y1="3.8005" y2="4.0271" /><line stroke="rgb(0%,0%,0%)" x1="336.9" x2="336.9" y1="4.0271" y2="4.3781" /><line stroke="rgb(0%,0%,0%)" x1="336.9" x2="336.9" y1="97.1995" y2="100.5" /><line stroke="rgb(0%,0%,0%)" x1="336.9" x2="336.9" y1="10.1338" y2="90.8662" /><line stroke="rgb(0%,0%,0%)" x1="336.9" x2="336.9" y1="90.8662" y2="91.628" /><line stroke="rgb(0%,0%,0%)" x1="336.9" x2="336.9" y1="91.628" y2="92.6079" /><line stroke="rgb(0%,0%,0%)" x1="336.9" x2="336.9" y1="4.3781" y2="4.8762" /><line stroke="rgb(0%,0%,0%)" x1="336.9" x2="336.9" y1="4.8762" y2="5.54" /><line stroke="rgb(0%,0%,0%)" x1="336.9" x2="336.9" y1="5.54" y2="6.3735" /><line stroke="rgb(0%,0%,0%)" x1="336.9" x2="336.9" y1="6.3735" y2="7.3496" /><line stroke="rgb(0%,0%,0%)" x1="336.9" x2="336.9" y1="7.3496" y2="8.3921" /><line stroke="rgb(0%,0%,0%)" x1="336.9" x2="336.9" y1="8.3921" y2="9.372" /><line stroke="rgb(0%,0%,0%)" x1="336.9" x2="336.9" y1="9.372" y2="10.1338" /><line stroke="rgb(0%,0%,0%)" x1="336.9" x2="336.9" y1="92.6079" y2="93.6504" /><line stroke="rgb(0%,0%,0%)" x1="336.9" x2="336.9" y1="93.6504" y2="94.6265" /><line stroke="rgb(0%,0%,0%)" x1="336.9" x2="336.9" y1="94.6265" y2="95.46" /><line stroke="rgb(0%,0%,0%)" x1="336.9" x2="336.9" y1="95.46" y2="96.1238" /><line stroke="rgb(0%,0%,0%)" x1="336.9" x2="336.9" y1="96.1238" y2="96.6219" /><line stroke="rgb(0%,0%,0%)" x1="336.9" x2="336.9" y1="96.6219" y2="96.9729" /><line stroke="rgb(0%,0%,0%)" x1="336.9" x2="336.9" y1="96.9729" y2="97.1995" /><line stroke="rgb(0%,0%,0%)" x1="336.9" x2="335.3204" y1="100.5" y2="100.5" /><line stroke="rgb(0%,0%,0%)" x1="335.3204" x2="306.9" y1="100.5" y2="100.5" /><line stroke="rgb(0%,0%,0%)" x1="336.9" x2="335.3204" y1="0.5" y2="0.5" /><line stroke="rgb(0%,0%,0%)" x1="335.3204" x2="306.9" y1="0.5" y2="0.5" /></svg>