<?xml version="1.0" encoding="utf-8" ?>
<svg baseProfile="tiny" height="100%" version="1.2" width="100%" xmlns="http://www.w3.org/2000/svg" xmlns:ev="http://www.w3.org/2001/xml-events" xmlns:xlink="http://www.w3.org/1999/xlink"><defs /><line stroke="rgb(0%,0%,0%)" x1="351.9" x2="351.9" y1="0.5" y2="3.5241" /><line stroke="rgb(0%,0%,0%)" x1="351.9" x2="351.9" y1="3.5241" y2="100.5" /><line stroke="rgb(0%,0%,0%)" x1="346.6481" x2="350.7883" y1="100.5" y2="100.5" /><line stroke="rgb(0%,0%,0%)" x1="350.7883" x2="350.9327" y1="100.5" y2="100.5" /><line stroke="rgb(0%,0%,0%)" x1="350.9327" x2="351.0976" y1="100.5" y2="100.5" /><line stroke="rgb(0%,0%,0%)" x1="351.0976" x2="351.2807" y1="100.5" y2="100.5" /><line stroke="rgb(0%,0%,0%)" x1="351.2807" x2="351.4785" y1="100.5" y2="100.5" /><line stroke="rgb(0%,0%,0%)" x1="351.4785" x2="351.6866" y1="100.5" y2="100.5" /><line stroke="rgb(0%,0%,0%)" x1="351.6866" x2="351.9" y1="100.5" y2="100.5" /><line stroke="rgb(0%,0%,0%)" x1="346.6481" x2="7.5428" y1="100.5" y2="100.5" /><line stroke="rgb(0%,0%,0%)" x1="7.5428" x2="0.5" y1="100.5" y2="100.5" /><line stroke="rgb(0%,0%,0%)" x1="0.5" x2="7.5428" y1="0.5" y2="0.5" /><line stroke="rgb(0%,0%,0%)" x1="7.5428" x2="346.6481" y1="0.5" y2="0.5" /><line stroke="rgb(0%,0%,0%)" x1="346.6481" x2="350.7883" y1="0.5" y2="0.5" /><line stroke="rgb(0%,0%,0%)" x1="350.7883" x2="350.9327" y1="0.5" y2="0.5" /><line stroke="rgb(0%,0%,0%)" x1="350.9327" x2="351.0976" y1="0.5" y2="0.5" /><line stroke="rgb(0%,0%,0%)" x1="351.0976" x2="351.2807" y1="0.5" y2="0.5" /><line stroke="rgb(0%,0%,0%)" x1="351.2807" x2="351.4785" y1="0.5" y2="0.5" /><line stroke="rgb(0%,0%,0%)" x1="351.4785" x2="351.6866" y1="0.5" y2="0.5" /><line stroke="rgb(0%,0%,0%)" x1="351.6866" x2="351.9" y1="0.5" y2="0.5" /><line stroke="rgb(0%,0%,0%)" x1="0.5" x2="0.5" y1="0.5" y2="97.0012" /><line stroke="rgb(0%,0%,0%)" x1="0.5" x2="0.5" y1="97.0012" y2="100.5" /><line stroke="rgb(0%,0%,0%)" x1="165.1722" x2="165.4771" y1="47.3813" y2="50.2818" /><line stroke="rgb(0%,0%,0%)" x1="165.4771" x2="165.5" y1="50.2818" y2="50.5" /><line stroke="rgb(0%,0%,0%)" x1="165.5" x2="165.1951" y1="50.5" y2="53.4004" /><line stroke="rgb(0%,0%,0%)" x1="165.1951" x2="165.1722" y1="53.4004" y2="53.6187" /><line stroke="rgb(0%,0%,0%)" x1="165.1722" x2="164.271" y1="53.6187" y2="56.3924" /><line stroke="rgb(0%,0%,0%)" x1="164.271" x2="164.2032" y1="56.3924" y2="56.6011" /><line stroke="rgb(0%,0%,0%)" x1="164.2032" x2="162.745" y1="56.6011" y2="59.1267" /><line stroke="rgb(0%,0%,0%)" x1="162.745" x2="162.6353" y1="59.1267" y2="59.3168" /><line stroke="rgb(0%,0%,0%)" x1="162.6353" x2="160.6838" y1="59.3168" y2="61.4841" /><line stroke="rgb(0%,0%,0%)" x1="160.6838" x2="160.537" y1="61.4841" y2="61.6472" /><line stroke="rgb(0%,0%,0%)" x1="160.537" x2="158.1775" y1="61.6472" y2="63.3614" /><line stroke="rgb(0%,0%,0%)" x1="158.1775" x2="158.0" y1="63.3614" y2="63.4904" /><line stroke="rgb(0%,0%,0%)" x1="158.0" x2="155.3357" y1="63.4904" y2="64.6766" /><line stroke="rgb(0%,0%,0%)" x1="155.3357" x2="155.1353" y1="64.6766" y2="64.7658" /><line stroke="rgb(0%,0%,0%)" x1="155.1353" x2="152.2826" y1="64.7658" y2="65.3722" /><line stroke="rgb(0%,0%,0%)" x1="152.2826" x2="152.0679" y1="65.3722" y2="65.4178" /><line stroke="rgb(0%,0%,0%)" x1="152.0679" x2="149.1515" y1="65.4178" y2="65.4178" /><line stroke="rgb(0%,0%,0%)" x1="149.1515" x2="148.9321" y1="65.4178" y2="65.4178" /><line stroke="rgb(0%,0%,0%)" x1="148.9321" x2="146.0794" y1="65.4178" y2="64.8115" /><line stroke="rgb(0%,0%,0%)" x1="146.0794" x2="145.8647" y1="64.8115" y2="64.7658" /><line stroke="rgb(0%,0%,0%)" x1="145.8647" x2="143.2005" y1="64.7658" y2="63.5796" /><line stroke="rgb(0%,0%,0%)" x1="143.2005" x2="143.0" y1="63.5796" y2="63.4904" /><line stroke="rgb(0%,0%,0%)" x1="143.0" x2="140.6406" y1="63.4904" y2="61.7761" /><line stroke="rgb(0%,0%,0%)" x1="140.6406" x2="140.463" y1="61.7761" y2="61.6472" /><line stroke="rgb(0%,0%,0%)" x1="140.463" x2="138.5116" y1="61.6472" y2="59.4799" /><line stroke="rgb(0%,0%,0%)" x1="138.5116" x2="138.3647" y1="59.4799" y2="59.3168" /><line stroke="rgb(0%,0%,0%)" x1="138.3647" x2="136.9065" y1="59.3168" y2="56.7911" /><line stroke="rgb(0%,0%,0%)" x1="136.9065" x2="136.7968" y1="56.7911" y2="56.6011" /><line stroke="rgb(0%,0%,0%)" x1="136.7968" x2="135.8956" y1="56.6011" y2="53.8274" /><line stroke="rgb(0%,0%,0%)" x1="135.8956" x2="135.8278" y1="53.8274" y2="53.6187" /><line stroke="rgb(0%,0%,0%)" x1="135.8278" x2="135.5229" y1="53.6187" y2="50.7182" /><line stroke="rgb(0%,0%,0%)" x1="135.5229" x2="135.5" y1="50.7182" y2="50.5" /><line stroke="rgb(0%,0%,0%)" x1="135.5" x2="135.8049" y1="50.5" y2="47.5996" /><line stroke="rgb(0%,0%,0%)" x1="135.8049" x2="135.8278" y1="47.5996" y2="47.3813" /><line stroke="rgb(0%,0%,0%)" x1="135.8278" x2="136.729" y1="47.3813" y2="44.6076" /><line stroke="rgb(0%,0%,0%)" x1="136.729" x2="136.7968" y1="44.6076" y2="44.3989" /><line stroke="rgb(0%,0%,0%)" x1="136.7968" x2="138.255" y1="44.3989" y2="41.8733" /><line stroke="rgb(0%,0%,0%)" x1="138.255" x2="138.3647" y1="41.8733" y2="41.6832" /><line stroke="rgb(0%,0%,0%)" x1="138.3647" x2="140.3162" y1="41.6832" y2="39.5159" /><line stroke="rgb(0%,0%,0%)" x1="140.3162" x2="140.463" y1="39.5159" y2="39.3528" /><line stroke="rgb(0%,0%,0%)" x1="140.463" x2="142.8225" y1="39.3528" y2="37.6386" /><line stroke="rgb(0%,0%,0%)" x1="142.8225" x2="143.0" y1="37.6386" y2="37.5096" /><line stroke="rgb(0%,0%,0%)" x1="143.0" x2="145.6643" y1="37.5096" y2="36.3234" /><line stroke="rgb(0%,0%,0%)" x1="145.6643" x2="145.8647" y1="36.3234" y2="36.2342" /><line stroke="rgb(0%,0%,0%)" x1="145.8647" x2="148.7174" y1="36.2342" y2="35.6278" /><line stroke="rgb(0%,0%,0%)" x1="148.7174" x2="148.9321" y1="35.6278" y2="35.5822" /><line stroke="rgb(0%,0%,0%)" x1="148.9321" x2="151.8485" y1="35.5822" y2="35.5822" /><line stroke="rgb(0%,0%,0%)" x1="151.8485" x2="152.0679" y1="35.5822" y2="35.5822" /><line stroke="rgb(0%,0%,0%)" x1="152.0679" x2="154.9206" y1="35.5822" y2="36.1885" /><line stroke="rgb(0%,0%,0%)" x1="154.9206" x2="155.1353" y1="36.1885" y2="36.2342" /><line stroke="rgb(0%,0%,0%)" x1="155.1353" x2="157.7995" y1="36.2342" y2="37.4204" /><line stroke="rgb(0%,0%,0%)" x1="157.7995" x2="158.0" y1="37.4204" y2="37.5096" /><line stroke="rgb(0%,0%,0%)" x1="158.0" x2="160.3594" y1="37.5096" y2="39.2238" /><line stroke="rgb(0%,0%,0%)" x1="160.3594" x2="160.537" y1="39.2238" y2="39.3528" /><line stroke="rgb(0%,0%,0%)" x1="160.537" x2="162.4884" y1="39.3528" y2="41.5201" /><line stroke="rgb(0%,0%,0%)" x1="162.4884" x2="162.6353" y1="41.5201" y2="41.6832" /><line stroke="rgb(0%,0%,0%)" x1="162.6353" x2="164.0935" y1="41.6832" y2="44.2089" /><line stroke="rgb(0%,0%,0%)" x1="164.0935" x2="164.2032" y1="44.2089" y2="44.3989" /><line stroke="rgb(0%,0%,0%)" x1="164.2032" x2="165.1044" y1="44.3989" y2="47.1726" /><line stroke="rgb(0%,0%,0%)" x1="165.1044" x2="165.1722" y1="47.1726" y2="47.3813" /><line stroke="rgb(0%,0%,0%)" x1="65.1722" x2="65.4771" y1="47.3813" y2="50.2818" /><line stroke="rgb(0%,0%,0%)" x1="65.4771" x2="65.5" y1="50.2818" y2="50.5" /><line stroke="rgb(0%,0%,0%)" x1="65.5" x2="65.1951" y1="50.5" y2="53.4004" /><line stroke="rgb(0%,0%,0%)" x1="65.1951" x2="65.1722" y1="53.4004" y2="53.6187" /><line stroke="rgb(0%,0%,0%)" x1="65.1722" x2="64.271" y1="53.6187" y2="56.3924" /><line stroke="rgb(0%,0%,0%)" x1="64.271" x2="64.2032" y1="56.3924" y2="56.6011" /><line stroke="rgb(0%,0%,0%)" x1="64.2032" x2="62.745" y1="56.6011" y2="59.1267" /><line stroke="rgb(0%,0%,0%)" x1="62.745" x2="62.6352" y1="59.1267" y2="59.3168" /><line stroke="rgb(0%,0%,0%)" x1="62.6352" x2="60.6838" y1="59.3168" y2="61.4841" /><line stroke="rgb(0%,0%,0%)" x1="60.6838" x2="60.537" y1="61.4841" y2="61.6472" /><line stroke="rgb(0%,0%,0%)" x1="60.537" x2="58.1775" y1="61.6472" y2="63.3614" /><line stroke="rgb(0%,0%,0%)" x1="58.1775" x2="58.0" y1="63.3614" y2="63.4904" /><line stroke="rgb(0%,0%,0%)" x1="58.0" x2="55.3357" y1="63.4904" y2="64.6766" /><line stroke="rgb(0%,0%,0%)" x1="55.3357" x2="55.1353" y1="64.6766" y2="64.7658" /><line stroke="rgb(0%,0%,0%)" x1="55.1353" x2="52.2826" y1="64.7658" y2="65.3722" /><line stroke="rgb(0%,0%,0%)" x1="52.2826" x2="52.0679" y1="65.3722" y2="65.4178" /><line stroke="rgb(0%,0%,0%)" x1="52.0679" x2="49.1515" y1="65.4178" y2="65.4178" /><line stroke="rgb(0%,0%,0%)" x1="49.1515" x2="48.9321" y1="65.4178" y2="65.4178" /><line stroke="rgb(0%,0%,0%)" x1="48.9321" x2="46.0794" y1="65.4178" y2="64.8115" /><line stroke="rgb(0%,0%,0%)" x1="46.0794" x2="45.8647" y1="64.8115" y2="64.7658" /><line stroke="rgb(0%,0%,0%)" x1="45.8647" x2="43.2005" y1="64.7658" y2="63.5796" /><line stroke="rgb(0%,0%,0%)" x1="43.2005" x2="43.0" y1="63.5796" y2="63.4904" /><line stroke="rgb(0%,0%,0%)" x1="43.0" x2="40.6406" y1="63.4904" y2="61.7761" /><line stroke="rgb(0%,0%,0%)" x1="40.6406" x2="40.463" y1="61.7761" y2="61.6472" /><line stroke="rgb(0%,0%,0%)" x1="40.463" x2="38.5116" y1="61.6472" y2="59.4799" /><line stroke="rgb(0%,0%,0%)" x1="38.5116" x2="38.3647" y1="59.4799" y2="59.3168" /><line stroke="rgb(0%,0%,0%)" x1="38.3647" x2="36.9065" y1="59.3168" y2="56.7911" /><line stroke="rgb(0%,0%,0%)" x1="36.9065" x2="36.7968" y1="56.7911" y2="56.6011" /><line stroke="rgb(0%,0%,0%)" x1="36.7968" x2="35.8956" y1="56.6011" y2="53.8274" /><line stroke="rgb(0%,0%,0%)" x1="35.8956" x2="35.8278" y1="53.8274" y2="53.6187" /><line stroke="rgb(0%,0%,0%)" x1="35.8278" x2="35.5229" y1="53.6187" y2="50.7182" /><line stroke="rgb(0%,0%,0%)" x1="35.5229" x2="35.5" y1="50.7182" y2="50.5" /><line stroke="rgb(0%,0%,0%)" x1="35.5" x2="35.8048" y1="50.5" y2="47.5996" /><line stroke="rgb(0%,0%,0%)" x1="35.8048" x2="35.8278" y1="47.5996" y2="47.3813" /><line stroke="rgb(0%,0%,0%)" x1="35.8278" x2="36.729" y1="47.3813" y2="44.6076" /><line stroke="rgb(0%,0%,0%)" x1="36.729" x2="36.7968" y1="44.6076" y2="44.3989" /><line stroke="rgb(0%,0%,0%)" x1="36.7968" x2="38.255" y1="44.3989" y2="41.8733" /><line stroke="rgb(0%,0%,0%)" x1="38.255" x2="38.3647" y1="41.8733" y2="41.6832" /><line stroke="rgb(0%,0%,0%)" x1="38.3647" x2="40.3162" y1="41.6832" y2="39.5159" /><line stroke="rgb(0%,0%,0%)" x1="40.3162" x2="40.463" y1="39.5159" y2="39.3528" /><line stroke="rgb(0%,0%,0%)" x1="40.463" x2="42.8225" y1="39.3528" y2="37.6386" /><line stroke="rgb(0%,0%,0%)" x1="42.8225" x2="43.0" y1="37.6386" y2="37.5096" /><line stroke="rgb(0%,0%,0%)" x1="43.0" x2="45.6643" y1="37.5096" y2="36.3234" /><line stroke="rgb(0%,0%,0%)" x1="45.6643" x2="45.8647" y1="36.3234" y2="36.2342" /><line stroke="rgb(0%,0%,0%)" x1="45.8647" x2="48.7174" y1="36.2342" y2="35.6278" /><line stroke="rgb(0%,0%,0%)" x1="48.7174" x2="48.9321" y1="35.6278" y2="35.5822" /><line stroke="rgb(0%,0%,0%)" x1="48.9321" x2="51.8485" y1="35.5822" y2="35.5822" /><line stroke="rgb(0%,0%,0%)" x1="51.8485" x2="52.0679" y1="35.5822" y2="35.5822" /><line stroke="rgb(0%,0%,0%)" x1="52.0679" x2="54.9206" y1="35.5822" y2="36.1885" /><line stroke="rgb(0%,0%,0%)" x1="54.9206" x2="55.1353" y1="36.1885" y2="36.2342" /><line stroke="rgb(0%,0%,0%)" x1="55.1353" x2="57.7995" y1="36.2342" y2="37.4204" /><line stroke="rgb(0%,0%,0%)" x1="57.7995" x2="58.0" y1="37.4204" y2="37.5096" /><line stroke="rgb(0%,0%,0%)" x1="58.0" x2="60.3594" y1="37.5096" y2="39.2238" /><line stroke="rgb(0%,0%,0%)" x1="60.3594" x2="60.537" y1="39.2238" y2="39.3528" /><line stroke="rgb(0%,0%,0%)" x1="60.537" x2="62.4884" y1="39.3528" y2="41.5201" /><line stroke="rgb(0%,0%,0%)" x1="62.4884" x2="62.6352" y1="41.5201" y2="41.6832" /><line stroke="rgb(0%,0%,0%)" x1="62.6352" x2="64.0935" y1="41.6832" y2="44.2089" /><line stroke="rgb(0%,0%,0%)" x1="64.0935" x2="64.2032" y1="44.2089" y2="44.3989" /><line stroke="rgb(0%,0%,0%)" x1="64.2032" x2="65.1044" y1="44.3989" y2="47.1726" /><line stroke="rgb(0%,0%,0%)" x1="65.1044" x2="65.1722" y1="47.1726" y2="47.3813" /></svg>