<?xml version="1.0" encoding="utf-8" ?>
<svg baseProfile="tiny" height="100%" version="1.2" width="100%" xmlns="http://www.w3.org/2000/svg" xmlns:ev="http://www.w3.org/2001/xml-events" xmlns:xlink="http://www.w3.org/1999/xlink"><defs /><line stroke="rgb(0%,0%,0%)" x1="351.9" x2="351.9" y1="0.5" y2="34.6296" /><line stroke="rgb(0%,0%,0%)" x1="351.9" x2="351.9" y1="34.6296" y2="100.5" /><line stroke="rgb(0%,0%,0%)" x1="292.6283" x2="339.3537" y1="100.5" y2="100.5" /><line stroke="rgb(0%,0%,0%)" x1="339.3537" x2="340.9832" y1="100.5" y2="100.5" /><line stroke="rgb(0%,0%,0%)" x1="340.9832" x2="342.8449" y1="100.5" y2="100.5" /><line stroke="rgb(0%,0%,0%)" x1="342.8449" x2="344.911" y1="100.5" y2="100.5" /><line stroke="rgb(0%,0%,0%)" x1="344.911" x2="347.1428" y1="100.5" y2="100.5" /><line stroke="rgb(0%,0%,0%)" x1="347.1428" x2="349.4912" y1="100.5" y2="100.5" /><line stroke="rgb(0%,0%,0%)" x1="349.4912" x2="351.9" y1="100.5" y2="100.5" /><line stroke="rgb(0%,0%,0%)" x1="292.6283" x2="79.9825" y1="100.5" y2="100.5" /><line stroke="rgb(0%,0%,0%)" x1="79.9825" x2="0.5" y1="100.5" y2="100.5" /><line stroke="rgb(0%,0%,0%)" x1="0.5" x2="79.9825" y1="0.5" y2="0.5" /><line stroke="rgb(0%,0%,0%)" x1="79.9825" x2="292.6283" y1="0.5" y2="0.5" /><line stroke="rgb(0%,0%,0%)" x1="292.6283" x2="339.3537" y1="0.5" y2="0.5" /><line stroke="rgb(0%,0%,0%)" x1="339.3537" x2="340.9832" y1="0.5" y2="0.5" /><line stroke="rgb(0%,0%,0%)" x1="340.9832" x2="342.8449" y1="0.5" y2="0.5" /><line stroke="rgb(0%,0%,0%)" x1="342.8449" x2="344.911" y1="0.5" y2="0.5" /><line stroke="rgb(0%,0%,0%)" x1="344.911" x2="347.1428" y1="0.5" y2="0.5" /><line stroke="rgb(0%,0%,0%)" x1="347.1428" x2="349.4912" y1="0.5" y2="0.5" /><line stroke="rgb(0%,0%,0%)" x1="349.4912" x2="351.9" y1="0.5" y2="0.5" /><line stroke="rgb(0%,0%,0%)" x1="0.5" x2="0.5" y1="0.5" y2="61.0139" /><line stroke="rgb(0%,0%,0%)" x1="0.5" x2="0.5" y1="61.0139" y2="100.5" /><line stroke="rgb(0%,0%,0%)" x1="165.1722" x2="165.2411" y1="47.3813" y2="48.0371" /><line stroke="rgb(0%,0%,0%)" x1="165.2411" x2="165.5" y1="48.0371" y2="50.5" /><line stroke="rgb(0%,0%,0%)" x1="165.5" x2="165.4311" y1="50.5" y2="51.1558" /><line stroke="rgb(0%,0%,0%)" x1="165.4311" x2="165.1722" y1="51.1558" y2="53.6187" /><line stroke="rgb(0%,0%,0%)" x1="165.1722" x2="164.9684" y1="53.6187" y2="54.2458" /><line stroke="rgb(0%,0%,0%)" x1="164.9684" x2="164.2032" y1="54.2458" y2="56.6011" /><line stroke="rgb(0%,0%,0%)" x1="164.2032" x2="163.8735" y1="56.6011" y2="57.1721" /><line stroke="rgb(0%,0%,0%)" x1="163.8735" x2="162.6353" y1="57.1721" y2="59.3168" /><line stroke="rgb(0%,0%,0%)" x1="162.6353" x2="162.194" y1="59.3168" y2="59.8068" /><line stroke="rgb(0%,0%,0%)" x1="162.194" x2="160.537" y1="59.8068" y2="61.6472" /><line stroke="rgb(0%,0%,0%)" x1="160.537" x2="160.0035" y1="61.6472" y2="62.0348" /><line stroke="rgb(0%,0%,0%)" x1="160.0035" x2="158.0" y1="62.0348" y2="63.4904" /><line stroke="rgb(0%,0%,0%)" x1="158.0" x2="157.3976" y1="63.4904" y2="63.7586" /><line stroke="rgb(0%,0%,0%)" x1="157.3976" x2="155.1353" y1="63.7586" y2="64.7658" /><line stroke="rgb(0%,0%,0%)" x1="155.1353" x2="154.4903" y1="64.7658" y2="64.9029" /><line stroke="rgb(0%,0%,0%)" x1="154.4903" x2="152.0679" y1="64.9029" y2="65.4178" /><line stroke="rgb(0%,0%,0%)" x1="152.0679" x2="151.4085" y1="65.4178" y2="65.4178" /><line stroke="rgb(0%,0%,0%)" x1="151.4085" x2="148.9321" y1="65.4178" y2="65.4178" /><line stroke="rgb(0%,0%,0%)" x1="148.9321" x2="148.2871" y1="65.4178" y2="65.2807" /><line stroke="rgb(0%,0%,0%)" x1="148.2871" x2="145.8647" y1="65.2807" y2="64.7658" /><line stroke="rgb(0%,0%,0%)" x1="145.8647" x2="145.2623" y1="64.7658" y2="64.4976" /><line stroke="rgb(0%,0%,0%)" x1="145.2623" x2="143.0" y1="64.4976" y2="63.4904" /><line stroke="rgb(0%,0%,0%)" x1="143.0" x2="142.4665" y1="63.4904" y2="63.1028" /><line stroke="rgb(0%,0%,0%)" x1="142.4665" x2="140.463" y1="63.1028" y2="61.6472" /><line stroke="rgb(0%,0%,0%)" x1="140.463" x2="140.0218" y1="61.6472" y2="61.1571" /><line stroke="rgb(0%,0%,0%)" x1="140.0218" x2="138.3647" y1="61.1571" y2="59.3168" /><line stroke="rgb(0%,0%,0%)" x1="138.3647" x2="138.035" y1="59.3168" y2="58.7457" /><line stroke="rgb(0%,0%,0%)" x1="138.035" x2="136.7968" y1="58.7457" y2="56.6011" /><line stroke="rgb(0%,0%,0%)" x1="136.7968" x2="136.5931" y1="56.6011" y2="55.9739" /><line stroke="rgb(0%,0%,0%)" x1="136.5931" x2="135.8278" y1="55.9739" y2="53.6187" /><line stroke="rgb(0%,0%,0%)" x1="135.8278" x2="135.7589" y1="53.6187" y2="52.9629" /><line stroke="rgb(0%,0%,0%)" x1="135.7589" x2="135.5" y1="52.9629" y2="50.5" /><line stroke="rgb(0%,0%,0%)" x1="135.5" x2="135.5689" y1="50.5" y2="49.8442" /><line stroke="rgb(0%,0%,0%)" x1="135.5689" x2="135.8278" y1="49.8442" y2="47.3813" /><line stroke="rgb(0%,0%,0%)" x1="135.8278" x2="136.0316" y1="47.3813" y2="46.7542" /><line stroke="rgb(0%,0%,0%)" x1="136.0316" x2="136.7968" y1="46.7542" y2="44.3989" /><line stroke="rgb(0%,0%,0%)" x1="136.7968" x2="137.1265" y1="44.3989" y2="43.8279" /><line stroke="rgb(0%,0%,0%)" x1="137.1265" x2="138.3647" y1="43.8279" y2="41.6832" /><line stroke="rgb(0%,0%,0%)" x1="138.3647" x2="138.806" y1="41.6832" y2="41.1932" /><line stroke="rgb(0%,0%,0%)" x1="138.806" x2="140.463" y1="41.1932" y2="39.3528" /><line stroke="rgb(0%,0%,0%)" x1="140.463" x2="140.9965" y1="39.3528" y2="38.9652" /><line stroke="rgb(0%,0%,0%)" x1="140.9965" x2="143.0" y1="38.9652" y2="37.5096" /><line stroke="rgb(0%,0%,0%)" x1="143.0" x2="143.6024" y1="37.5096" y2="37.2414" /><line stroke="rgb(0%,0%,0%)" x1="143.6024" x2="145.8647" y1="37.2414" y2="36.2342" /><line stroke="rgb(0%,0%,0%)" x1="145.8647" x2="146.5097" y1="36.2342" y2="36.0971" /><line stroke="rgb(0%,0%,0%)" x1="146.5097" x2="148.9321" y1="36.0971" y2="35.5822" /><line stroke="rgb(0%,0%,0%)" x1="148.9321" x2="149.5915" y1="35.5822" y2="35.5822" /><line stroke="rgb(0%,0%,0%)" x1="149.5915" x2="152.0679" y1="35.5822" y2="35.5822" /><line stroke="rgb(0%,0%,0%)" x1="152.0679" x2="152.7129" y1="35.5822" y2="35.7193" /><line stroke="rgb(0%,0%,0%)" x1="152.7129" x2="155.1353" y1="35.7193" y2="36.2342" /><line stroke="rgb(0%,0%,0%)" x1="155.1353" x2="155.7376" y1="36.2342" y2="36.5024" /><line stroke="rgb(0%,0%,0%)" x1="155.7376" x2="158.0" y1="36.5024" y2="37.5096" /><line stroke="rgb(0%,0%,0%)" x1="158.0" x2="158.5335" y1="37.5096" y2="37.8972" /><line stroke="rgb(0%,0%,0%)" x1="158.5335" x2="160.537" y1="37.8972" y2="39.3528" /><line stroke="rgb(0%,0%,0%)" x1="160.537" x2="160.9782" y1="39.3528" y2="39.8429" /><line stroke="rgb(0%,0%,0%)" x1="160.9782" x2="162.6353" y1="39.8429" y2="41.6832" /><line stroke="rgb(0%,0%,0%)" x1="162.6353" x2="162.965" y1="41.6832" y2="42.2543" /><line stroke="rgb(0%,0%,0%)" x1="162.965" x2="164.2032" y1="42.2543" y2="44.3989" /><line stroke="rgb(0%,0%,0%)" x1="164.2032" x2="164.4069" y1="44.3989" y2="45.0261" /><line stroke="rgb(0%,0%,0%)" x1="164.4069" x2="165.1722" y1="45.0261" y2="47.3813" /><line stroke="rgb(0%,0%,0%)" x1="65.1722" x2="65.2411" y1="47.3813" y2="48.0371" /><line stroke="rgb(0%,0%,0%)" x1="65.2411" x2="65.5" y1="48.0371" y2="50.5" /><line stroke="rgb(0%,0%,0%)" x1="65.5" x2="65.4311" y1="50.5" y2="51.1558" /><line stroke="rgb(0%,0%,0%)" x1="65.4311" x2="65.1722" y1="51.1558" y2="53.6187" /><line stroke="rgb(0%,0%,0%)" x1="65.1722" x2="64.9684" y1="53.6187" y2="54.2458" /><line stroke="rgb(0%,0%,0%)" x1="64.9684" x2="64.2032" y1="54.2458" y2="56.6011" /><line stroke="rgb(0%,0%,0%)" x1="64.2032" x2="63.8735" y1="56.6011" y2="57.1721" /><line stroke="rgb(0%,0%,0%)" x1="63.8735" x2="62.6352" y1="57.1721" y2="59.3168" /><line stroke="rgb(0%,0%,0%)" x1="62.6352" x2="62.194" y1="59.3168" y2="59.8068" /><line stroke="rgb(0%,0%,0%)" x1="62.194" x2="60.537" y1="59.8068" y2="61.6472" /><line stroke="rgb(0%,0%,0%)" x1="60.537" x2="60.0035" y1="61.6472" y2="62.0348" /><line stroke="rgb(0%,0%,0%)" x1="60.0035" x2="58.0" y1="62.0348" y2="63.4904" /><line stroke="rgb(0%,0%,0%)" x1="58.0" x2="57.3976" y1="63.4904" y2="63.7586" /><line stroke="rgb(0%,0%,0%)" x1="57.3976" x2="55.1353" y1="63.7586" y2="64.7658" /><line stroke="rgb(0%,0%,0%)" x1="55.1353" x2="54.4903" y1="64.7658" y2="64.9029" /><line stroke="rgb(0%,0%,0%)" x1="54.4903" x2="52.0679" y1="64.9029" y2="65.4178" /><line stroke="rgb(0%,0%,0%)" x1="52.0679" x2="51.4085" y1="65.4178" y2="65.4178" /><line stroke="rgb(0%,0%,0%)" x1="51.4085" x2="48.9321" y1="65.4178" y2="65.4178" /><line stroke="rgb(0%,0%,0%)" x1="48.9321" x2="48.2871" y1="65.4178" y2="65.2807" /><line stroke="rgb(0%,0%,0%)" x1="48.2871" x2="45.8647" y1="65.2807" y2="64.7658" /><line stroke="rgb(0%,0%,0%)" x1="45.8647" x2="45.2624" y1="64.7658" y2="64.4976" /><line stroke="rgb(0%,0%,0%)" x1="45.2624" x2="43.0" y1="64.4976" y2="63.4904" /><line stroke="rgb(0%,0%,0%)" x1="43.0" x2="42.4665" y1="63.4904" y2="63.1028" /><line stroke="rgb(0%,0%,0%)" x1="42.4665" x2="40.463" y1="63.1028" y2="61.6472" /><line stroke="rgb(0%,0%,0%)" x1="40.463" x2="40.0218" y1="61.6472" y2="61.1571" /><line stroke="rgb(0%,0%,0%)" x1="40.0218" x2="38.3647" y1="61.1571" y2="59.3168" /><line stroke="rgb(0%,0%,0%)" x1="38.3647" x2="38.035" y1="59.3168" y2="58.7457" /><line stroke="rgb(0%,0%,0%)" x1="38.035" x2="36.7968" y1="58.7457" y2="56.6011" /><line stroke="rgb(0%,0%,0%)" x1="36.7968" x2="36.593" y1="56.6011" y2="55.9739" /><line stroke="rgb(0%,0%,0%)" x1="36.593" x2="35.8278" y1="55.9739" y2="53.6187" /><line stroke="rgb(0%,0%,0%)" x1="35.8278" x2="35.7589" y1="53.6187" y2="52.9629" /><line stroke="rgb(0%,0%,0%)" x1="35.7589" x2="35.5" y1="52.9629" y2="50.5" /><line stroke="rgb(0%,0%,0%)" x1="35.5" x2="35.5689" y1="50.5" y2="49.8442" /><line stroke="rgb(0%,0%,0%)" x1="35.5689" x2="35.8278" y1="49.8442" y2="47.3813" /><line stroke="rgb(0%,0%,0%)" x1="35.8278" x2="36.0315" y1="47.3813" y2="46.7542" /><line stroke="rgb(0%,0%,0%)" x1="36.0315" x2="36.7968" y1="46.7542" y2="44.3989" /><line stroke="rgb(0%,0%,0%)" x1="36.7968" x2="37.1265" y1="44.3989" y2="43.8279" /><line stroke="rgb(0%,0%,0%)" x1="37.1265" x2="38.3647" y1="43.8279" y2="41.6832" /><line stroke="rgb(0%,0%,0%)" x1="38.3647" x2="38.806" y1="41.6832" y2="41.1932" /><line stroke="rgb(0%,0%,0%)" x1="38.806" x2="40.463" y1="41.1932" y2="39.3528" /><line stroke="rgb(0%,0%,0%)" x1="40.463" x2="40.9965" y1="39.3528" y2="38.9652" /><line stroke="rgb(0%,0%,0%)" x1="40.9965" x2="43.0" y1="38.9652" y2="37.5096" /><line stroke="rgb(0%,0%,0%)" x1="43.0" x2="43.6024" y1="37.5096" y2="37.2414" /><line stroke="rgb(0%,0%,0%)" x1="43.6024" x2="45.8647" y1="37.2414" y2="36.2342" /><line stroke="rgb(0%,0%,0%)" x1="45.8647" x2="46.5097" y1="36.2342" y2="36.0971" /><line stroke="rgb(0%,0%,0%)" x1="46.5097" x2="48.9321" y1="36.0971" y2="35.5822" /><line stroke="rgb(0%,0%,0%)" x1="48.9321" x2="49.5915" y1="35.5822" y2="35.5822" /><line stroke="rgb(0%,0%,0%)" x1="49.5915" x2="52.0679" y1="35.5822" y2="35.5822" /><line stroke="rgb(0%,0%,0%)" x1="52.0679" x2="52.7129" y1="35.5822" y2="35.7193" /><line stroke="rgb(0%,0%,0%)" x1="52.7129" x2="55.1353" y1="35.7193" y2="36.2342" /><line stroke="rgb(0%,0%,0%)" x1="55.1353" x2="55.7376" y1="36.2342" y2="36.5024" /><line stroke="rgb(0%,0%,0%)" x1="55.7376" x2="58.0" y1="36.5024" y2="37.5096" /><line stroke="rgb(0%,0%,0%)" x1="58.0" x2="58.5335" y1="37.5096" y2="37.8972" /><line stroke="rgb(0%,0%,0%)" x1="58.5335" x2="60.537" y1="37.8972" y2="39.3528" /><line stroke="rgb(0%,0%,0%)" x1="60.537" x2="60.9782" y1="39.3528" y2="39.8429" /><line stroke="rgb(0%,0%,0%)" x1="60.9782" x2="62.6352" y1="39.8429" y2="41.6832" /><line stroke="rgb(0%,0%,0%)" x1="62.6352" x2="62.9649" y1="41.6832" y2="42.2543" /><line stroke="rgb(0%,0%,0%)" x1="62.9649" x2="64.2032" y1="42.2543" y2="44.3989" /><line stroke="rgb(0%,0%,0%)" x1="64.2032" x2="64.4069" y1="44.3989" y2="45.0261" /><line stroke="rgb(0%,0%,0%)" x1="64.4069" x2="65.1722" y1="45.0261" y2="47.3813" /></svg>