<?xml version="1.0" encoding="utf-8" ?>
<svg baseProfile="tiny" height="100%" version="1.2" width="100%" xmlns="http://www.w3.org/2000/svg" xmlns:ev="http://www.w3.org/2001/xml-events" xmlns:xlink="http://www.w3.org/1999/xlink"><defs /><line stroke="rgb(0%,0%,0%)" x1="306.9" x2="306.9" y1="3.0145" y2="0.5" /><line stroke="rgb(0%,0%,0%)" x1="306.9" x2="306.9" y1="93.6319" y2="7.3681" /><line stroke="rgb(0%,0%,0%)" x1="306.9" x2="306.9" y1="7.3681" y2="6.825" /><line stroke="rgb(0%,0%,0%)" x1="306.9" x2="306.9" y1="6.825" y2="6.1264" /><line stroke="rgb(0%,0%,0%)" x1="306.9" x2="306.9" y1="100.5" y2="97.7352" /><line stroke="rgb(0%,0%,0%)" x1="306.9" x2="306.9" y1="97.7352" y2="97.3802" /><line stroke="rgb(0%,0%,0%)" x1="306.9" x2="306.9" y1="97.3802" y2="96.9069" /><line stroke="rgb(0%,0%,0%)" x1="306.9" x2="306.9" y1="6.1264" y2="5.3832" /><line stroke="rgb(0%,0%,0%)" x1="306.9" x2="306.9" y1="5.3832" y2="4.6873" /><line stroke="rgb(0%,0%,0%)" x1="306.9" x2="306.9" y1="4.6873" y2="4.0931" /><line stroke="rgb(0%,0%,0%)" x1="306.9" x2="306.9" y1="4.0931" y2="3.6198" /><line stroke="rgb(0%,0%,0%)" x1="306.9" x2="306.9" y1="3.6198" y2="3.2648" /><line stroke="rgb(0%,0%,0%)" x1="306.9" x2="306.9" y1="3.2648" y2="3.0145" /><line stroke="rgb(0%,0%,0%)" x1="306.9" x2="306.9" y1="96.9069" y2="96.3127" /><line stroke="rgb(0%,0%,0%)" x1="306.9" x2="306.9" y1="96.3127" y2="95.6168" /><line stroke="rgb(0%,0%,0%)" x1="306.9" x2="306.9" y1="95.6168" y2="94.8736" /><line stroke="rgb(0%,0%,0%)" x1="306.9" x2="306.9" y1="94.8736" y2="94.175" /><line stroke="rgb(0%,0%,0%)" x1="306.9" x2="306.9" y1="94.175" y2="93.6319" /><line stroke="rgb(0%,0%,0%)" x1="336.9" x2="336.9" y1="0.5" y2="2.8529" /><line stroke="rgb(0%,0%,0%)" x1="336.9" x2="336.9" y1="2.8529" y2="3.0145" /><line stroke="rgb(0%,0%,0%)" x1="336.9" x2="336.9" y1="3.0145" y2="3.2648" /><line stroke="rgb(0%,0%,0%)" x1="336.9" x2="336.9" y1="98.1471" y2="100.5" /><line stroke="rgb(0%,0%,0%)" x1="336.9" x2="336.9" y1="7.3681" y2="93.6319" /><line stroke="rgb(0%,0%,0%)" x1="336.9" x2="336.9" y1="93.6319" y2="94.175" /><line stroke="rgb(0%,0%,0%)" x1="336.9" x2="336.9" y1="94.175" y2="94.8736" /><line stroke="rgb(0%,0%,0%)" x1="336.9" x2="336.9" y1="3.2648" y2="3.6198" /><line stroke="rgb(0%,0%,0%)" x1="336.9" x2="336.9" y1="3.6198" y2="4.0931" /><line stroke="rgb(0%,0%,0%)" x1="336.9" x2="336.9" y1="4.0931" y2="4.6873" /><line stroke="rgb(0%,0%,0%)" x1="336.9" x2="336.9" y1="4.6873" y2="5.3832" /><line stroke="rgb(0%,0%,0%)" x1="336.9" x2="336.9" y1="5.3832" y2="6.1264" /><line stroke="rgb(0%,0%,0%)" x1="336.9" x2="336.9" y1="6.1264" y2="6.825" /><line stroke="rgb(0%,0%,0%)" x1="336.9" x2="336.9" y1="6.825" y2="7.3681" /><line stroke="rgb(0%,0%,0%)" x1="336.9" x2="336.9" y1="94.8736" y2="95.6168" /><line stroke="rgb(0%,0%,0%)" x1="336.9" x2="336.9" y1="95.6168" y2="96.3127" /><line stroke="rgb(0%,0%,0%)" x1="336.9" x2="336.9" y1="96.3127" y2="96.9069" /><line stroke="rgb(0%,0%,0%)" x1="336.9" x2="336.9" y1="96.9069" y2="97.3802" /><line stroke="rgb(0%,0%,0%)" x1="336.9" x2="336.9" y1="97.3802" y2="97.7352" /><line stroke="rgb(0%,0%,0%)" x1="336.9" x2="336.9" y1="97.7352" y2="97.9855" /><line stroke="rgb(0%,0%,0%)" x1="336.9" x2="336.9" y1="97.9855" y2="98.1471" /><line stroke="rgb(0%,0%,0%)" x1="336.9" x2="335.7739" y1="100.5" y2="100.5" /><line stroke="rgb(0%,0%,0%)" x1="335.7739" x2="306.9" y1="100.5" y2="100.5" /><line stroke="rgb(0%,0%,0%)" x1="336.9" x2="335.7739" y1="0.5" y2="0.5" /><line stroke="rgb(0%,0%,0%)" x1="335.7739" x2="306.9" y1="0.5" y2="0.5" /></svg>