<?xml version="1.0" encoding="utf-8" ?>
<svg baseProfile="tiny" height="100%" version="1.2" width="100%" xmlns="http://www.w3.org/2000/svg" xmlns:ev="http://www.w3.org/2001/xml-events" xmlns:xlink="http://www.w3.org/1999/xlink"><defs /><line stroke="rgb(0%,0%,0%)" x1="306.9" x2="306.9" y1="2.0019" y2="0.5" /><line stroke="rgb(0%,0%,0%)" x1="306.9" x2="306.9" y1="96.3976" y2="4.6024" /><line stroke="rgb(0%,0%,0%)" x1="306.9" x2="306.9" y1="4.6024" y2="4.278" /><line stroke="rgb(0%,0%,0%)" x1="306.9" x2="306.9" y1="4.278" y2="3.8607" /><line stroke="rgb(0%,0%,0%)" x1="306.9" x2="306.9" y1="100.5" y2="98.8486" /><line stroke="rgb(0%,0%,0%)" x1="306.9" x2="306.9" y1="98.8486" y2="98.6365" /><line stroke="rgb(0%,0%,0%)" x1="306.9" x2="306.9" y1="98.6365" y2="98.3538" /><line stroke="rgb(0%,0%,0%)" x1="306.9" x2="306.9" y1="3.8607" y2="3.4168" /><line stroke="rgb(0%,0%,0%)" x1="306.9" x2="306.9" y1="3.4168" y2="3.0011" /><line stroke="rgb(0%,0%,0%)" x1="306.9" x2="306.9" y1="3.0011" y2="2.6462" /><line stroke="rgb(0%,0%,0%)" x1="306.9" x2="306.9" y1="2.6462" y2="2.3635" /><line stroke="rgb(0%,0%,0%)" x1="306.9" x2="306.9" y1="2.3635" y2="2.1514" /><line stroke="rgb(0%,0%,0%)" x1="306.9" x2="306.9" y1="2.1514" y2="2.0019" /><line stroke="rgb(0%,0%,0%)" x1="306.9" x2="306.9" y1="98.3538" y2="97.9989" /><line stroke="rgb(0%,0%,0%)" x1="306.9" x2="306.9" y1="97.9989" y2="97.5832" /><line stroke="rgb(0%,0%,0%)" x1="306.9" x2="306.9" y1="97.5832" y2="97.1393" /><line stroke="rgb(0%,0%,0%)" x1="306.9" x2="306.9" y1="97.1393" y2="96.722" /><line stroke="rgb(0%,0%,0%)" x1="306.9" x2="306.9" y1="96.722" y2="96.3976" /><line stroke="rgb(0%,0%,0%)" x1="336.9" x2="336.9" y1="0.5" y2="1.9054" /><line stroke="rgb(0%,0%,0%)" x1="336.9" x2="336.9" y1="1.9054" y2="2.0019" /><line stroke="rgb(0%,0%,0%)" x1="336.9" x2="336.9" y1="2.0019" y2="2.1514" /><line stroke="rgb(0%,0%,0%)" x1="336.9" x2="336.9" y1="99.0946" y2="100.5" /><line stroke="rgb(0%,0%,0%)" x1="336.9" x2="336.9" y1="4.6024" y2="96.3976" /><line stroke="rgb(0%,0%,0%)" x1="336.9" x2="336.9" y1="96.3976" y2="96.722" /><line stroke="rgb(0%,0%,0%)" x1="336.9" x2="336.9" y1="96.722" y2="97.1393" /><line stroke="rgb(0%,0%,0%)" x1="336.9" x2="336.9" y1="2.1514" y2="2.3635" /><line stroke="rgb(0%,0%,0%)" x1="336.9" x2="336.9" y1="2.3635" y2="2.6462" /><line stroke="rgb(0%,0%,0%)" x1="336.9" x2="336.9" y1="2.6462" y2="3.0011" /><line stroke="rgb(0%,0%,0%)" x1="336.9" x2="336.9" y1="3.0011" y2="3.4168" /><line stroke="rgb(0%,0%,0%)" x1="336.9" x2="336.9" y1="3.4168" y2="3.8607" /><line stroke="rgb(0%,0%,0%)" x1="336.9" x2="336.9" y1="3.8607" y2="4.278" /><line stroke="rgb(0%,0%,0%)" x1="336.9" x2="336.9" y1="4.278" y2="4.6024" /><line stroke="rgb(0%,0%,0%)" x1="336.9" x2="336.9" y1="97.1393" y2="97.5832" /><line stroke="rgb(0%,0%,0%)" x1="336.9" x2="336.9" y1="97.5832" y2="97.9989" /><line stroke="rgb(0%,0%,0%)" x1="336.9" x2="336.9" y1="97.9989" y2="98.3538" /><line stroke="rgb(0%,0%,0%)" x1="336.9" x2="336.9" y1="98.3538" y2="98.6365" /><line stroke="rgb(0%,0%,0%)" x1="336.9" x2="336.9" y1="98.6365" y2="98.8486" /><line stroke="rgb(0%,0%,0%)" x1="336.9" x2="336.9" y1="98.8486" y2="98.9981" /><line stroke="rgb(0%,0%,0%)" x1="336.9" x2="336.9" y1="98.9981" y2="99.0946" /><line stroke="rgb(0%,0%,0%)" x1="336.9" x2="336.2274" y1="100.5" y2="100.5" /><line stroke="rgb(0%,0%,0%)" x1="336.2274" x2="306.9" y1="100.5" y2="100.5" /><line stroke="rgb(0%,0%,0%)" x1="336.9" x2="336.2274" y1="0.5" y2="0.5" /><line stroke="rgb(0%,0%,0%)" x1="336.2274" x2="306.9" y1="0.5" y2="0.5" /></svg>