<?xml version="1.0" encoding="utf-8" ?>
<svg baseProfile="tiny" height="100%" version="1.2" width="100%" xmlns="http://www.w3.org/2000/svg" xmlns:ev="http://www.w3.org/2001/xml-events" xmlns:xlink="http://www.w3.org/1999/xlink"><defs /><line stroke="rgb(0%,0%,0%)" x1="351.9" x2="351.9" y1="0.5" y2="35.4937" /><line stroke="rgb(0%,0%,0%)" x1="351.9" x2="351.9" y1="35.4937" y2="100.5" /><line stroke="rgb(0%,0%,0%)" x1="291.1277" x2="339.036" y1="100.5" y2="100.5" /><line stroke="rgb(0%,0%,0%)" x1="339.036" x2="340.7069" y1="100.5" y2="100.5" /><line stroke="rgb(0%,0%,0%)" x1="340.7069" x2="342.6156" y1="100.5" y2="100.5" /><line stroke="rgb(0%,0%,0%)" x1="342.6156" x2="344.7341" y1="100.5" y2="100.5" /><line stroke="rgb(0%,0%,0%)" x1="344.7341" x2="347.0223" y1="100.5" y2="100.5" /><line stroke="rgb(0%,0%,0%)" x1="347.0223" x2="349.4302" y1="100.5" y2="100.5" /><line stroke="rgb(0%,0%,0%)" x1="349.4302" x2="351.9" y1="100.5" y2="100.5" /><line stroke="rgb(0%,0%,0%)" x1="291.1277" x2="81.9947" y1="100.5" y2="100.5" /><line stroke="rgb(0%,0%,0%)" x1="81.9947" x2="0.5" y1="100.5" y2="100.5" /><line stroke="rgb(0%,0%,0%)" x1="0.5" x2="81.9947" y1="0.5" y2="0.5" /><line stroke="rgb(0%,0%,0%)" x1="81.9947" x2="291.1277" y1="0.5" y2="0.5" /><line stroke="rgb(0%,0%,0%)" x1="291.1277" x2="339.036" y1="0.5" y2="0.5" /><line stroke="rgb(0%,0%,0%)" x1="339.036" x2="340.7069" y1="0.5" y2="0.5" /><line stroke="rgb(0%,0%,0%)" x1="340.7069" x2="342.6156" y1="0.5" y2="0.5" /><line stroke="rgb(0%,0%,0%)" x1="342.6156" x2="344.7341" y1="0.5" y2="0.5" /><line stroke="rgb(0%,0%,0%)" x1="344.7341" x2="347.0223" y1="0.5" y2="0.5" /><line stroke="rgb(0%,0%,0%)" x1="347.0223" x2="349.4302" y1="0.5" y2="0.5" /><line stroke="rgb(0%,0%,0%)" x1="349.4302" x2="351.9" y1="0.5" y2="0.5" /><line stroke="rgb(0%,0%,0%)" x1="0.5" x2="0.5" y1="0.5" y2="60.0142" /><line stroke="rgb(0%,0%,0%)" x1="0.5" x2="0.5" y1="60.0142" y2="100.5" /><line stroke="rgb(0%,0%,0%)" x1="165.1722" x2="165.2346" y1="47.3813" y2="47.9748" /><line stroke="rgb(0%,0%,0%)" x1="165.2346" x2="165.5" y1="47.9748" y2="50.5" /><line stroke="rgb(0%,0%,0%)" x1="165.5" x2="165.4376" y1="50.5" y2="51.0934" /><line stroke="rgb(0%,0%,0%)" x1="165.4376" x2="165.1722" y1="51.0934" y2="53.6187" /><line stroke="rgb(0%,0%,0%)" x1="165.1722" x2="164.9878" y1="53.6187" y2="54.1862" /><line stroke="rgb(0%,0%,0%)" x1="164.9878" x2="164.2032" y1="54.1862" y2="56.6011" /><line stroke="rgb(0%,0%,0%)" x1="164.2032" x2="163.9048" y1="56.6011" y2="57.1178" /><line stroke="rgb(0%,0%,0%)" x1="163.9048" x2="162.6353" y1="57.1178" y2="59.3168" /><line stroke="rgb(0%,0%,0%)" x1="162.6353" x2="162.236" y1="59.3168" y2="59.7602" /><line stroke="rgb(0%,0%,0%)" x1="162.236" x2="160.537" y1="59.7602" y2="61.6472" /><line stroke="rgb(0%,0%,0%)" x1="160.537" x2="160.0542" y1="61.6472" y2="61.9979" /><line stroke="rgb(0%,0%,0%)" x1="160.0542" x2="158.0" y1="61.9979" y2="63.4904" /><line stroke="rgb(0%,0%,0%)" x1="158.0" x2="157.4549" y1="63.4904" y2="63.7331" /><line stroke="rgb(0%,0%,0%)" x1="157.4549" x2="155.1353" y1="63.7331" y2="64.7658" /><line stroke="rgb(0%,0%,0%)" x1="155.1353" x2="154.5516" y1="64.7658" y2="64.8899" /><line stroke="rgb(0%,0%,0%)" x1="154.5516" x2="152.0679" y1="64.8899" y2="65.4178" /><line stroke="rgb(0%,0%,0%)" x1="152.0679" x2="151.4712" y1="65.4178" y2="65.4178" /><line stroke="rgb(0%,0%,0%)" x1="151.4712" x2="148.9321" y1="65.4178" y2="65.4178" /><line stroke="rgb(0%,0%,0%)" x1="148.9321" x2="148.3484" y1="65.4178" y2="65.2938" /><line stroke="rgb(0%,0%,0%)" x1="148.3484" x2="145.8647" y1="65.2938" y2="64.7658" /><line stroke="rgb(0%,0%,0%)" x1="145.8647" x2="145.3196" y1="64.7658" y2="64.5231" /><line stroke="rgb(0%,0%,0%)" x1="145.3196" x2="143.0" y1="64.5231" y2="63.4904" /><line stroke="rgb(0%,0%,0%)" x1="143.0" x2="142.5173" y1="63.4904" y2="63.1396" /><line stroke="rgb(0%,0%,0%)" x1="142.5173" x2="140.463" y1="63.1396" y2="61.6472" /><line stroke="rgb(0%,0%,0%)" x1="140.463" x2="140.0638" y1="61.6472" y2="61.2037" /><line stroke="rgb(0%,0%,0%)" x1="140.0638" x2="138.3647" y1="61.2037" y2="59.3168" /><line stroke="rgb(0%,0%,0%)" x1="138.3647" x2="138.0664" y1="59.3168" y2="58.8" /><line stroke="rgb(0%,0%,0%)" x1="138.0664" x2="136.7968" y1="58.8" y2="56.6011" /><line stroke="rgb(0%,0%,0%)" x1="136.7968" x2="136.6124" y1="56.6011" y2="56.0335" /><line stroke="rgb(0%,0%,0%)" x1="136.6124" x2="135.8278" y1="56.0335" y2="53.6187" /><line stroke="rgb(0%,0%,0%)" x1="135.8278" x2="135.7654" y1="53.6187" y2="53.0252" /><line stroke="rgb(0%,0%,0%)" x1="135.7654" x2="135.5" y1="53.0252" y2="50.5" /><line stroke="rgb(0%,0%,0%)" x1="135.5" x2="135.5624" y1="50.5" y2="49.9066" /><line stroke="rgb(0%,0%,0%)" x1="135.5624" x2="135.8278" y1="49.9066" y2="47.3813" /><line stroke="rgb(0%,0%,0%)" x1="135.8278" x2="136.0122" y1="47.3813" y2="46.8138" /><line stroke="rgb(0%,0%,0%)" x1="136.0122" x2="136.7968" y1="46.8138" y2="44.3989" /><line stroke="rgb(0%,0%,0%)" x1="136.7968" x2="137.0952" y1="44.3989" y2="43.8822" /><line stroke="rgb(0%,0%,0%)" x1="137.0952" x2="138.3647" y1="43.8822" y2="41.6832" /><line stroke="rgb(0%,0%,0%)" x1="138.3647" x2="138.764" y1="41.6832" y2="41.2398" /><line stroke="rgb(0%,0%,0%)" x1="138.764" x2="140.463" y1="41.2398" y2="39.3528" /><line stroke="rgb(0%,0%,0%)" x1="140.463" x2="140.9458" y1="39.3528" y2="39.0021" /><line stroke="rgb(0%,0%,0%)" x1="140.9458" x2="143.0" y1="39.0021" y2="37.5096" /><line stroke="rgb(0%,0%,0%)" x1="143.0" x2="143.5451" y1="37.5096" y2="37.2669" /><line stroke="rgb(0%,0%,0%)" x1="143.5451" x2="145.8647" y1="37.2669" y2="36.2342" /><line stroke="rgb(0%,0%,0%)" x1="145.8647" x2="146.4484" y1="36.2342" y2="36.1101" /><line stroke="rgb(0%,0%,0%)" x1="146.4484" x2="148.9321" y1="36.1101" y2="35.5822" /><line stroke="rgb(0%,0%,0%)" x1="148.9321" x2="149.5288" y1="35.5822" y2="35.5822" /><line stroke="rgb(0%,0%,0%)" x1="149.5288" x2="152.0679" y1="35.5822" y2="35.5822" /><line stroke="rgb(0%,0%,0%)" x1="152.0679" x2="152.6516" y1="35.5822" y2="35.7062" /><line stroke="rgb(0%,0%,0%)" x1="152.6516" x2="155.1353" y1="35.7062" y2="36.2342" /><line stroke="rgb(0%,0%,0%)" x1="155.1353" x2="155.6804" y1="36.2342" y2="36.4769" /><line stroke="rgb(0%,0%,0%)" x1="155.6804" x2="158.0" y1="36.4769" y2="37.5096" /><line stroke="rgb(0%,0%,0%)" x1="158.0" x2="158.4827" y1="37.5096" y2="37.8604" /><line stroke="rgb(0%,0%,0%)" x1="158.4827" x2="160.537" y1="37.8604" y2="39.3528" /><line stroke="rgb(0%,0%,0%)" x1="160.537" x2="160.9362" y1="39.3528" y2="39.7963" /><line stroke="rgb(0%,0%,0%)" x1="160.9362" x2="162.6353" y1="39.7963" y2="41.6832" /><line stroke="rgb(0%,0%,0%)" x1="162.6353" x2="162.9336" y1="41.6832" y2="42.2" /><line stroke="rgb(0%,0%,0%)" x1="162.9336" x2="164.2032" y1="42.2" y2="44.3989" /><line stroke="rgb(0%,0%,0%)" x1="164.2032" x2="164.3876" y1="44.3989" y2="44.9665" /><line stroke="rgb(0%,0%,0%)" x1="164.3876" x2="165.1722" y1="44.9665" y2="47.3813" /><line stroke="rgb(0%,0%,0%)" x1="65.1722" x2="65.2346" y1="47.3813" y2="47.9748" /><line stroke="rgb(0%,0%,0%)" x1="65.2346" x2="65.5" y1="47.9748" y2="50.5" /><line stroke="rgb(0%,0%,0%)" x1="65.5" x2="65.4376" y1="50.5" y2="51.0934" /><line stroke="rgb(0%,0%,0%)" x1="65.4376" x2="65.1722" y1="51.0934" y2="53.6187" /><line stroke="rgb(0%,0%,0%)" x1="65.1722" x2="64.9878" y1="53.6187" y2="54.1862" /><line stroke="rgb(0%,0%,0%)" x1="64.9878" x2="64.2032" y1="54.1862" y2="56.6011" /><line stroke="rgb(0%,0%,0%)" x1="64.2032" x2="63.9048" y1="56.6011" y2="57.1178" /><line stroke="rgb(0%,0%,0%)" x1="63.9048" x2="62.6352" y1="57.1178" y2="59.3168" /><line stroke="rgb(0%,0%,0%)" x1="62.6352" x2="62.236" y1="59.3168" y2="59.7602" /><line stroke="rgb(0%,0%,0%)" x1="62.236" x2="60.537" y1="59.7602" y2="61.6472" /><line stroke="rgb(0%,0%,0%)" x1="60.537" x2="60.0542" y1="61.6472" y2="61.9979" /><line stroke="rgb(0%,0%,0%)" x1="60.0542" x2="58.0" y1="61.9979" y2="63.4904" /><line stroke="rgb(0%,0%,0%)" x1="58.0" x2="57.4549" y1="63.4904" y2="63.7331" /><line stroke="rgb(0%,0%,0%)" x1="57.4549" x2="55.1353" y1="63.7331" y2="64.7658" /><line stroke="rgb(0%,0%,0%)" x1="55.1353" x2="54.5516" y1="64.7658" y2="64.8899" /><line stroke="rgb(0%,0%,0%)" x1="54.5516" x2="52.0679" y1="64.8899" y2="65.4178" /><line stroke="rgb(0%,0%,0%)" x1="52.0679" x2="51.4712" y1="65.4178" y2="65.4178" /><line stroke="rgb(0%,0%,0%)" x1="51.4712" x2="48.9321" y1="65.4178" y2="65.4178" /><line stroke="rgb(0%,0%,0%)" x1="48.9321" x2="48.3484" y1="65.4178" y2="65.2938" /><line stroke="rgb(0%,0%,0%)" x1="48.3484" x2="45.8647" y1="65.2938" y2="64.7658" /><line stroke="rgb(0%,0%,0%)" x1="45.8647" x2="45.3196" y1="64.7658" y2="64.5231" /><line stroke="rgb(0%,0%,0%)" x1="45.3196" x2="43.0" y1="64.5231" y2="63.4904" /><line stroke="rgb(0%,0%,0%)" x1="43.0" x2="42.5173" y1="63.4904" y2="63.1396" /><line stroke="rgb(0%,0%,0%)" x1="42.5173" x2="40.463" y1="63.1396" y2="61.6472" /><line stroke="rgb(0%,0%,0%)" x1="40.463" x2="40.0638" y1="61.6472" y2="61.2037" /><line stroke="rgb(0%,0%,0%)" x1="40.0638" x2="38.3647" y1="61.2037" y2="59.3168" /><line stroke="rgb(0%,0%,0%)" x1="38.3647" x2="38.0664" y1="59.3168" y2="58.8" /><line stroke="rgb(0%,0%,0%)" x1="38.0664" x2="36.7968" y1="58.8" y2="56.6011" /><line stroke="rgb(0%,0%,0%)" x1="36.7968" x2="36.6124" y1="56.6011" y2="56.0335" /><line stroke="rgb(0%,0%,0%)" x1="36.6124" x2="35.8278" y1="56.0335" y2="53.6187" /><line stroke="rgb(0%,0%,0%)" x1="35.8278" x2="35.7654" y1="53.6187" y2="53.0252" /><line stroke="rgb(0%,0%,0%)" x1="35.7654" x2="35.5" y1="53.0252" y2="50.5" /><line stroke="rgb(0%,0%,0%)" x1="35.5" x2="35.5624" y1="50.5" y2="49.9066" /><line stroke="rgb(0%,0%,0%)" x1="35.5624" x2="35.8278" y1="49.9066" y2="47.3813" /><line stroke="rgb(0%,0%,0%)" x1="35.8278" x2="36.0122" y1="47.3813" y2="46.8138" /><line stroke="rgb(0%,0%,0%)" x1="36.0122" x2="36.7968" y1="46.8138" y2="44.3989" /><line stroke="rgb(0%,0%,0%)" x1="36.7968" x2="37.0952" y1="44.3989" y2="43.8822" /><line stroke="rgb(0%,0%,0%)" x1="37.0952" x2="38.3647" y1="43.8822" y2="41.6832" /><line stroke="rgb(0%,0%,0%)" x1="38.3647" x2="38.764" y1="41.6832" y2="41.2398" /><line stroke="rgb(0%,0%,0%)" x1="38.764" x2="40.463" y1="41.2398" y2="39.3528" /><line stroke="rgb(0%,0%,0%)" x1="40.463" x2="40.9458" y1="39.3528" y2="39.0021" /><line stroke="rgb(0%,0%,0%)" x1="40.9458" x2="43.0" y1="39.0021" y2="37.5096" /><line stroke="rgb(0%,0%,0%)" x1="43.0" x2="43.5451" y1="37.5096" y2="37.2669" /><line stroke="rgb(0%,0%,0%)" x1="43.5451" x2="45.8647" y1="37.2669" y2="36.2342" /><line stroke="rgb(0%,0%,0%)" x1="45.8647" x2="46.4484" y1="36.2342" y2="36.1101" /><line stroke="rgb(0%,0%,0%)" x1="46.4484" x2="48.9321" y1="36.1101" y2="35.5822" /><line stroke="rgb(0%,0%,0%)" x1="48.9321" x2="49.5288" y1="35.5822" y2="35.5822" /><line stroke="rgb(0%,0%,0%)" x1="49.5288" x2="52.0679" y1="35.5822" y2="35.5822" /><line stroke="rgb(0%,0%,0%)" x1="52.0679" x2="52.6516" y1="35.5822" y2="35.7062" /><line stroke="rgb(0%,0%,0%)" x1="52.6516" x2="55.1353" y1="35.7062" y2="36.2342" /><line stroke="rgb(0%,0%,0%)" x1="55.1353" x2="55.6804" y1="36.2342" y2="36.4769" /><line stroke="rgb(0%,0%,0%)" x1="55.6804" x2="58.0" y1="36.4769" y2="37.5096" /><line stroke="rgb(0%,0%,0%)" x1="58.0" x2="58.4827" y1="37.5096" y2="37.8604" /><line stroke="rgb(0%,0%,0%)" x1="58.4827" x2="60.537" y1="37.8604" y2="39.3528" /><line stroke="rgb(0%,0%,0%)" x1="60.537" x2="60.9362" y1="39.3528" y2="39.7963" /><line stroke="rgb(0%,0%,0%)" x1="60.9362" x2="62.6352" y1="39.7963" y2="41.6832" /><line stroke="rgb(0%,0%,0%)" x1="62.6352" x2="62.9336" y1="41.6832" y2="42.2" /><line stroke="rgb(0%,0%,0%)" x1="62.9336" x2="64.2032" y1="42.2" y2="44.3989" /><line stroke="rgb(0%,0%,0%)" x1="64.2032" x2="64.3876" y1="44.3989" y2="44.9665" /><line stroke="rgb(0%,0%,0%)" x1="64.3876" x2="65.1722" y1="44.9665" y2="47.3813" /></svg>