<?xml version="1.0" encoding="utf-8" ?>
<svg baseProfile="tiny" height="100%" version="1.2" width="100%" xmlns="http://www.w3.org/2000/svg" xmlns:ev="http://www.w3.org/2001/xml-events" xmlns:xlink="http://www.w3.org/1999/xlink"><defs /><line stroke="rgb(0%,0%,0%)" x1="351.9" x2="351.9" y1="0.5" y2="36.3577" /><line stroke="rgb(0%,0%,0%)" x1="351.9" x2="351.9" y1="36.3577" y2="100.5" /><line stroke="rgb(0%,0%,0%)" x1="289.6272" x2="338.7184" y1="100.5" y2="100.5" /><line stroke="rgb(0%,0%,0%)" x1="338.7184" x2="340.4305" y1="100.5" y2="100.5" /><line stroke="rgb(0%,0%,0%)" x1="340.4305" x2="342.3864" y1="100.5" y2="100.5" /><line stroke="rgb(0%,0%,0%)" x1="342.3864" x2="344.5572" y1="100.5" y2="100.5" /><line stroke="rgb(0%,0%,0%)" x1="344.5572" x2="346.9019" y1="100.5" y2="100.5" /><line stroke="rgb(0%,0%,0%)" x1="346.9019" x2="349.3692" y1="100.5" y2="100.5" /><line stroke="rgb(0%,0%,0%)" x1="349.3692" x2="351.9" y1="100.5" y2="100.5" /><line stroke="rgb(0%,0%,0%)" x1="289.6272" x2="84.0069" y1="100.5" y2="100.5" /><line stroke="rgb(0%,0%,0%)" x1="84.0069" x2="0.5" y1="100.5" y2="100.5" /><line stroke="rgb(0%,0%,0%)" x1="0.5" x2="84.0069" y1="0.5" y2="0.5" /><line stroke="rgb(0%,0%,0%)" x1="84.0069" x2="289.6272" y1="0.5" y2="0.5" /><line stroke="rgb(0%,0%,0%)" x1="289.6272" x2="338.7184" y1="0.5" y2="0.5" /><line stroke="rgb(0%,0%,0%)" x1="338.7184" x2="340.4305" y1="0.5" y2="0.5" /><line stroke="rgb(0%,0%,0%)" x1="340.4305" x2="342.3864" y1="0.5" y2="0.5" /><line stroke="rgb(0%,0%,0%)" x1="342.3864" x2="344.5572" y1="0.5" y2="0.5" /><line stroke="rgb(0%,0%,0%)" x1="344.5572" x2="346.9019" y1="0.5" y2="0.5" /><line stroke="rgb(0%,0%,0%)" x1="346.9019" x2="349.3692" y1="0.5" y2="0.5" /><line stroke="rgb(0%,0%,0%)" x1="349.3692" x2="351.9" y1="0.5" y2="0.5" /><line stroke="rgb(0%,0%,0%)" x1="0.5" x2="0.5" y1="0.5" y2="59.0146" /><line stroke="rgb(0%,0%,0%)" x1="0.5" x2="0.5" y1="59.0146" y2="100.5" /><line stroke="rgb(0%,0%,0%)" x1="165.1722" x2="165.228" y1="47.3813" y2="47.9124" /><line stroke="rgb(0%,0%,0%)" x1="165.228" x2="165.5" y1="47.9124" y2="50.5" /><line stroke="rgb(0%,0%,0%)" x1="165.5" x2="165.4442" y1="50.5" y2="51.0311" /><line stroke="rgb(0%,0%,0%)" x1="165.4442" x2="165.1722" y1="51.0311" y2="53.6187" /><line stroke="rgb(0%,0%,0%)" x1="165.1722" x2="165.0072" y1="53.6187" y2="54.1266" /><line stroke="rgb(0%,0%,0%)" x1="165.0072" x2="164.2032" y1="54.1266" y2="56.6011" /><line stroke="rgb(0%,0%,0%)" x1="164.2032" x2="163.9362" y1="56.6011" y2="57.0635" /><line stroke="rgb(0%,0%,0%)" x1="163.9362" x2="162.6353" y1="57.0635" y2="59.3168" /><line stroke="rgb(0%,0%,0%)" x1="162.6353" x2="162.2779" y1="59.3168" y2="59.7136" /><line stroke="rgb(0%,0%,0%)" x1="162.2779" x2="160.537" y1="59.7136" y2="61.6472" /><line stroke="rgb(0%,0%,0%)" x1="160.537" x2="160.1049" y1="61.6472" y2="61.9611" /><line stroke="rgb(0%,0%,0%)" x1="160.1049" x2="158.0" y1="61.9611" y2="63.4904" /><line stroke="rgb(0%,0%,0%)" x1="158.0" x2="157.5122" y1="63.4904" y2="63.7076" /><line stroke="rgb(0%,0%,0%)" x1="157.5122" x2="155.1353" y1="63.7076" y2="64.7658" /><line stroke="rgb(0%,0%,0%)" x1="155.1353" x2="154.6129" y1="64.7658" y2="64.8769" /><line stroke="rgb(0%,0%,0%)" x1="154.6129" x2="152.0679" y1="64.8769" y2="65.4178" /><line stroke="rgb(0%,0%,0%)" x1="152.0679" x2="151.5339" y1="65.4178" y2="65.4178" /><line stroke="rgb(0%,0%,0%)" x1="151.5339" x2="148.9321" y1="65.4178" y2="65.4178" /><line stroke="rgb(0%,0%,0%)" x1="148.9321" x2="148.4097" y1="65.4178" y2="65.3068" /><line stroke="rgb(0%,0%,0%)" x1="148.4097" x2="145.8647" y1="65.3068" y2="64.7658" /><line stroke="rgb(0%,0%,0%)" x1="145.8647" x2="145.3769" y1="64.7658" y2="64.5486" /><line stroke="rgb(0%,0%,0%)" x1="145.3769" x2="143.0" y1="64.5486" y2="63.4904" /><line stroke="rgb(0%,0%,0%)" x1="143.0" x2="142.568" y1="63.4904" y2="63.1765" /><line stroke="rgb(0%,0%,0%)" x1="142.568" x2="140.463" y1="63.1765" y2="61.6472" /><line stroke="rgb(0%,0%,0%)" x1="140.463" x2="140.1057" y1="61.6472" y2="61.2503" /><line stroke="rgb(0%,0%,0%)" x1="140.1057" x2="138.3647" y1="61.2503" y2="59.3168" /><line stroke="rgb(0%,0%,0%)" x1="138.3647" x2="138.0977" y1="59.3168" y2="58.8543" /><line stroke="rgb(0%,0%,0%)" x1="138.0977" x2="136.7968" y1="58.8543" y2="56.6011" /><line stroke="rgb(0%,0%,0%)" x1="136.7968" x2="136.6318" y1="56.6011" y2="56.0932" /><line stroke="rgb(0%,0%,0%)" x1="136.6318" x2="135.8278" y1="56.0932" y2="53.6187" /><line stroke="rgb(0%,0%,0%)" x1="135.8278" x2="135.772" y1="53.6187" y2="53.0876" /><line stroke="rgb(0%,0%,0%)" x1="135.772" x2="135.5" y1="53.0876" y2="50.5" /><line stroke="rgb(0%,0%,0%)" x1="135.5" x2="135.5558" y1="50.5" y2="49.9689" /><line stroke="rgb(0%,0%,0%)" x1="135.5558" x2="135.8278" y1="49.9689" y2="47.3813" /><line stroke="rgb(0%,0%,0%)" x1="135.8278" x2="135.9928" y1="47.3813" y2="46.8734" /><line stroke="rgb(0%,0%,0%)" x1="135.9928" x2="136.7968" y1="46.8734" y2="44.3989" /><line stroke="rgb(0%,0%,0%)" x1="136.7968" x2="137.0638" y1="44.3989" y2="43.9365" /><line stroke="rgb(0%,0%,0%)" x1="137.0638" x2="138.3647" y1="43.9365" y2="41.6832" /><line stroke="rgb(0%,0%,0%)" x1="138.3647" x2="138.7221" y1="41.6832" y2="41.2864" /><line stroke="rgb(0%,0%,0%)" x1="138.7221" x2="140.463" y1="41.2864" y2="39.3528" /><line stroke="rgb(0%,0%,0%)" x1="140.463" x2="140.8951" y1="39.3528" y2="39.0389" /><line stroke="rgb(0%,0%,0%)" x1="140.8951" x2="143.0" y1="39.0389" y2="37.5096" /><line stroke="rgb(0%,0%,0%)" x1="143.0" x2="143.4878" y1="37.5096" y2="37.2924" /><line stroke="rgb(0%,0%,0%)" x1="143.4878" x2="145.8647" y1="37.2924" y2="36.2342" /><line stroke="rgb(0%,0%,0%)" x1="145.8647" x2="146.3871" y1="36.2342" y2="36.1231" /><line stroke="rgb(0%,0%,0%)" x1="146.3871" x2="148.9321" y1="36.1231" y2="35.5822" /><line stroke="rgb(0%,0%,0%)" x1="148.9321" x2="149.4661" y1="35.5822" y2="35.5822" /><line stroke="rgb(0%,0%,0%)" x1="149.4661" x2="152.0679" y1="35.5822" y2="35.5822" /><line stroke="rgb(0%,0%,0%)" x1="152.0679" x2="152.5903" y1="35.5822" y2="35.6932" /><line stroke="rgb(0%,0%,0%)" x1="152.5903" x2="155.1353" y1="35.6932" y2="36.2342" /><line stroke="rgb(0%,0%,0%)" x1="155.1353" x2="155.6231" y1="36.2342" y2="36.4514" /><line stroke="rgb(0%,0%,0%)" x1="155.6231" x2="158.0" y1="36.4514" y2="37.5096" /><line stroke="rgb(0%,0%,0%)" x1="158.0" x2="158.432" y1="37.5096" y2="37.8235" /><line stroke="rgb(0%,0%,0%)" x1="158.432" x2="160.537" y1="37.8235" y2="39.3528" /><line stroke="rgb(0%,0%,0%)" x1="160.537" x2="160.8943" y1="39.3528" y2="39.7497" /><line stroke="rgb(0%,0%,0%)" x1="160.8943" x2="162.6353" y1="39.7497" y2="41.6832" /><line stroke="rgb(0%,0%,0%)" x1="162.6353" x2="162.9023" y1="41.6832" y2="42.1457" /><line stroke="rgb(0%,0%,0%)" x1="162.9023" x2="164.2032" y1="42.1457" y2="44.3989" /><line stroke="rgb(0%,0%,0%)" x1="164.2032" x2="164.3682" y1="44.3989" y2="44.9068" /><line stroke="rgb(0%,0%,0%)" x1="164.3682" x2="165.1722" y1="44.9068" y2="47.3813" /><line stroke="rgb(0%,0%,0%)" x1="65.1722" x2="65.228" y1="47.3813" y2="47.9124" /><line stroke="rgb(0%,0%,0%)" x1="65.228" x2="65.5" y1="47.9124" y2="50.5" /><line stroke="rgb(0%,0%,0%)" x1="65.5" x2="65.4442" y1="50.5" y2="51.0311" /><line stroke="rgb(0%,0%,0%)" x1="65.4442" x2="65.1722" y1="51.0311" y2="53.6187" /><line stroke="rgb(0%,0%,0%)" x1="65.1722" x2="65.0072" y1="53.6187" y2="54.1266" /><line stroke="rgb(0%,0%,0%)" x1="65.0072" x2="64.2032" y1="54.1266" y2="56.6011" /><line stroke="rgb(0%,0%,0%)" x1="64.2032" x2="63.9362" y1="56.6011" y2="57.0635" /><line stroke="rgb(0%,0%,0%)" x1="63.9362" x2="62.6352" y1="57.0635" y2="59.3168" /><line stroke="rgb(0%,0%,0%)" x1="62.6352" x2="62.2779" y1="59.3168" y2="59.7136" /><line stroke="rgb(0%,0%,0%)" x1="62.2779" x2="60.537" y1="59.7136" y2="61.6472" /><line stroke="rgb(0%,0%,0%)" x1="60.537" x2="60.1049" y1="61.6472" y2="61.9611" /><line stroke="rgb(0%,0%,0%)" x1="60.1049" x2="58.0" y1="61.9611" y2="63.4904" /><line stroke="rgb(0%,0%,0%)" x1="58.0" x2="57.5122" y1="63.4904" y2="63.7076" /><line stroke="rgb(0%,0%,0%)" x1="57.5122" x2="55.1353" y1="63.7076" y2="64.7658" /><line stroke="rgb(0%,0%,0%)" x1="55.1353" x2="54.6129" y1="64.7658" y2="64.8769" /><line stroke="rgb(0%,0%,0%)" x1="54.6129" x2="52.0679" y1="64.8769" y2="65.4178" /><line stroke="rgb(0%,0%,0%)" x1="52.0679" x2="51.5339" y1="65.4178" y2="65.4178" /><line stroke="rgb(0%,0%,0%)" x1="51.5339" x2="48.9321" y1="65.4178" y2="65.4178" /><line stroke="rgb(0%,0%,0%)" x1="48.9321" x2="48.4097" y1="65.4178" y2="65.3068" /><line stroke="rgb(0%,0%,0%)" x1="48.4097" x2="45.8647" y1="65.3068" y2="64.7658" /><line stroke="rgb(0%,0%,0%)" x1="45.8647" x2="45.3769" y1="64.7658" y2="64.5486" /><line stroke="rgb(0%,0%,0%)" x1="45.3769" x2="43.0" y1="64.5486" y2="63.4904" /><line stroke="rgb(0%,0%,0%)" x1="43.0" x2="42.568" y1="63.4904" y2="63.1765" /><line stroke="rgb(0%,0%,0%)" x1="42.568" x2="40.463" y1="63.1765" y2="61.6472" /><line stroke="rgb(0%,0%,0%)" x1="40.463" x2="40.1057" y1="61.6472" y2="61.2503" /><line stroke="rgb(0%,0%,0%)" x1="40.1057" x2="38.3647" y1="61.2503" y2="59.3168" /><line stroke="rgb(0%,0%,0%)" x1="38.3647" x2="38.0977" y1="59.3168" y2="58.8543" /><line stroke="rgb(0%,0%,0%)" x1="38.0977" x2="36.7968" y1="58.8543" y2="56.6011" /><line stroke="rgb(0%,0%,0%)" x1="36.7968" x2="36.6318" y1="56.6011" y2="56.0932" /><line stroke="rgb(0%,0%,0%)" x1="36.6318" x2="35.8278" y1="56.0932" y2="53.6187" /><line stroke="rgb(0%,0%,0%)" x1="35.8278" x2="35.772" y1="53.6187" y2="53.0876" /><line stroke="rgb(0%,0%,0%)" x1="35.772" x2="35.5" y1="53.0876" y2="50.5" /><line stroke="rgb(0%,0%,0%)" x1="35.5" x2="35.5558" y1="50.5" y2="49.9689" /><line stroke="rgb(0%,0%,0%)" x1="35.5558" x2="35.8278" y1="49.9689" y2="47.3813" /><line stroke="rgb(0%,0%,0%)" x1="35.8278" x2="35.9928" y1="47.3813" y2="46.8734" /><line stroke="rgb(0%,0%,0%)" x1="35.9928" x2="36.7968" y1="46.8734" y2="44.3989" /><line stroke="rgb(0%,0%,0%)" x1="36.7968" x2="37.0638" y1="44.3989" y2="43.9365" /><line stroke="rgb(0%,0%,0%)" x1="37.0638" x2="38.3647" y1="43.9365" y2="41.6832" /><line stroke="rgb(0%,0%,0%)" x1="38.3647" x2="38.7221" y1="41.6832" y2="41.2864" /><line stroke="rgb(0%,0%,0%)" x1="38.7221" x2="40.463" y1="41.2864" y2="39.3528" /><line stroke="rgb(0%,0%,0%)" x1="40.463" x2="40.8951" y1="39.3528" y2="39.0389" /><line stroke="rgb(0%,0%,0%)" x1="40.8951" x2="43.0" y1="39.0389" y2="37.5096" /><line stroke="rgb(0%,0%,0%)" x1="43.0" x2="43.4878" y1="37.5096" y2="37.2924" /><line stroke="rgb(0%,0%,0%)" x1="43.4878" x2="45.8647" y1="37.2924" y2="36.2342" /><line stroke="rgb(0%,0%,0%)" x1="45.8647" x2="46.3871" y1="36.2342" y2="36.1231" /><line stroke="rgb(0%,0%,0%)" x1="46.3871" x2="48.9321" y1="36.1231" y2="35.5822" /><line stroke="rgb(0%,0%,0%)" x1="48.9321" x2="49.4661" y1="35.5822" y2="35.5822" /><line stroke="rgb(0%,0%,0%)" x1="49.4661" x2="52.0679" y1="35.5822" y2="35.5822" /><line stroke="rgb(0%,0%,0%)" x1="52.0679" x2="52.5903" y1="35.5822" y2="35.6932" /><line stroke="rgb(0%,0%,0%)" x1="52.5903" x2="55.1353" y1="35.6932" y2="36.2342" /><line stroke="rgb(0%,0%,0%)" x1="55.1353" x2="55.6231" y1="36.2342" y2="36.4514" /><line stroke="rgb(0%,0%,0%)" x1="55.6231" x2="58.0" y1="36.4514" y2="37.5096" /><line stroke="rgb(0%,0%,0%)" x1="58.0" x2="58.432" y1="37.5096" y2="37.8235" /><line stroke="rgb(0%,0%,0%)" x1="58.432" x2="60.537" y1="37.8235" y2="39.3528" /><line stroke="rgb(0%,0%,0%)" x1="60.537" x2="60.8943" y1="39.3528" y2="39.7497" /><line stroke="rgb(0%,0%,0%)" x1="60.8943" x2="62.6352" y1="39.7497" y2="41.6832" /><line stroke="rgb(0%,0%,0%)" x1="62.6352" x2="62.9023" y1="41.6832" y2="42.1457" /><line stroke="rgb(0%,0%,0%)" x1="62.9023" x2="64.2032" y1="42.1457" y2="44.3989" /><line stroke="rgb(0%,0%,0%)" x1="64.2032" x2="64.3682" y1="44.3989" y2="44.9068" /><line stroke="rgb(0%,0%,0%)" x1="64.3682" x2="65.1722" y1="44.9068" y2="47.3813" /></svg>