<?xml version="1.0" encoding="utf-8" ?>
<svg baseProfile="tiny" height="100%" version="1.2" width="100%" xmlns="http://www.w3.org/2000/svg" xmlns:ev="http://www.w3.org/2001/xml-events" xmlns:xlink="http://www.w3.org/1999/xlink"><defs /><line stroke="rgb(0%,0%,0%)" x1="351.9" x2="351.9" y1="0.5" y2="37.2218" /><line stroke="rgb(0%,0%,0%)" x1="351.9" x2="351.9" y1="37.2218" y2="100.5" /><line stroke="rgb(0%,0%,0%)" x1="288.1266" x2="338.4008" y1="100.5" y2="100.5" /><line stroke="rgb(0%,0%,0%)" x1="338.4008" x2="340.1541" y1="100.5" y2="100.5" /><line stroke="rgb(0%,0%,0%)" x1="340.1541" x2="342.1572" y1="100.5" y2="100.5" /><line stroke="rgb(0%,0%,0%)" x1="342.1572" x2="344.3802" y1="100.5" y2="100.5" /><line stroke="rgb(0%,0%,0%)" x1="344.3802" x2="346.7814" y1="100.5" y2="100.5" /><line stroke="rgb(0%,0%,0%)" x1="346.7814" x2="349.3082" y1="100.5" y2="100.5" /><line stroke="rgb(0%,0%,0%)" x1="349.3082" x2="351.9" y1="100.5" y2="100.5" /><line stroke="rgb(0%,0%,0%)" x1="288.1266" x2="86.0191" y1="100.5" y2="100.5" /><line stroke="rgb(0%,0%,0%)" x1="86.0191" x2="0.5" y1="100.5" y2="100.5" /><line stroke="rgb(0%,0%,0%)" x1="0.5" x2="86.0191" y1="0.5" y2="0.5" /><line stroke="rgb(0%,0%,0%)" x1="86.0191" x2="288.1266" y1="0.5" y2="0.5" /><line stroke="rgb(0%,0%,0%)" x1="288.1266" x2="338.4008" y1="0.5" y2="0.5" /><line stroke="rgb(0%,0%,0%)" x1="338.4008" x2="340.1541" y1="0.5" y2="0.5" /><line stroke="rgb(0%,0%,0%)" x1="340.1541" x2="342.1572" y1="0.5" y2="0.5" /><line stroke="rgb(0%,0%,0%)" x1="342.1572" x2="344.3802" y1="0.5" y2="0.5" /><line stroke="rgb(0%,0%,0%)" x1="344.3802" x2="346.7814" y1="0.5" y2="0.5" /><line stroke="rgb(0%,0%,0%)" x1="346.7814" x2="349.3082" y1="0.5" y2="0.5" /><line stroke="rgb(0%,0%,0%)" x1="349.3082" x2="351.9" y1="0.5" y2="0.5" /><line stroke="rgb(0%,0%,0%)" x1="0.5" x2="0.5" y1="0.5" y2="58.0149" /><line stroke="rgb(0%,0%,0%)" x1="0.5" x2="0.5" y1="58.0149" y2="100.5" /><line stroke="rgb(0%,0%,0%)" x1="165.1722" x2="165.2215" y1="47.3813" y2="47.8501" /><line stroke="rgb(0%,0%,0%)" x1="165.2215" x2="165.5" y1="47.8501" y2="50.5" /><line stroke="rgb(0%,0%,0%)" x1="165.5" x2="165.4507" y1="50.5" y2="50.9687" /><line stroke="rgb(0%,0%,0%)" x1="165.4507" x2="165.1722" y1="50.9687" y2="53.6187" /><line stroke="rgb(0%,0%,0%)" x1="165.1722" x2="165.0266" y1="53.6187" y2="54.0669" /><line stroke="rgb(0%,0%,0%)" x1="165.0266" x2="164.2032" y1="54.0669" y2="56.6011" /><line stroke="rgb(0%,0%,0%)" x1="164.2032" x2="163.9675" y1="56.6011" y2="57.0092" /><line stroke="rgb(0%,0%,0%)" x1="163.9675" x2="162.6353" y1="57.0092" y2="59.3168" /><line stroke="rgb(0%,0%,0%)" x1="162.6353" x2="162.3199" y1="59.3168" y2="59.667" /><line stroke="rgb(0%,0%,0%)" x1="162.3199" x2="160.537" y1="59.667" y2="61.6472" /><line stroke="rgb(0%,0%,0%)" x1="160.537" x2="160.1557" y1="61.6472" y2="61.9242" /><line stroke="rgb(0%,0%,0%)" x1="160.1557" x2="158.0" y1="61.9242" y2="63.4904" /><line stroke="rgb(0%,0%,0%)" x1="158.0" x2="157.5694" y1="63.4904" y2="63.6821" /><line stroke="rgb(0%,0%,0%)" x1="157.5694" x2="155.1353" y1="63.6821" y2="64.7658" /><line stroke="rgb(0%,0%,0%)" x1="155.1353" x2="154.6742" y1="64.7658" y2="64.8638" /><line stroke="rgb(0%,0%,0%)" x1="154.6742" x2="152.0679" y1="64.8638" y2="65.4178" /><line stroke="rgb(0%,0%,0%)" x1="152.0679" x2="151.5966" y1="65.4178" y2="65.4178" /><line stroke="rgb(0%,0%,0%)" x1="151.5966" x2="148.9321" y1="65.4178" y2="65.4178" /><line stroke="rgb(0%,0%,0%)" x1="148.9321" x2="148.4711" y1="65.4178" y2="65.3198" /><line stroke="rgb(0%,0%,0%)" x1="148.4711" x2="145.8647" y1="65.3198" y2="64.7658" /><line stroke="rgb(0%,0%,0%)" x1="145.8647" x2="145.4342" y1="64.7658" y2="64.5741" /><line stroke="rgb(0%,0%,0%)" x1="145.4342" x2="143.0" y1="64.5741" y2="63.4904" /><line stroke="rgb(0%,0%,0%)" x1="143.0" x2="142.6187" y1="63.4904" y2="63.2133" /><line stroke="rgb(0%,0%,0%)" x1="142.6187" x2="140.463" y1="63.2133" y2="61.6472" /><line stroke="rgb(0%,0%,0%)" x1="140.463" x2="140.1477" y1="61.6472" y2="61.2969" /><line stroke="rgb(0%,0%,0%)" x1="140.1477" x2="138.3647" y1="61.2969" y2="59.3168" /><line stroke="rgb(0%,0%,0%)" x1="138.3647" x2="138.1291" y1="59.3168" y2="58.9086" /><line stroke="rgb(0%,0%,0%)" x1="138.1291" x2="136.7968" y1="58.9086" y2="56.6011" /><line stroke="rgb(0%,0%,0%)" x1="136.7968" x2="136.6512" y1="56.6011" y2="56.1528" /><line stroke="rgb(0%,0%,0%)" x1="136.6512" x2="135.8278" y1="56.1528" y2="53.6187" /><line stroke="rgb(0%,0%,0%)" x1="135.8278" x2="135.7785" y1="53.6187" y2="53.1499" /><line stroke="rgb(0%,0%,0%)" x1="135.7785" x2="135.5" y1="53.1499" y2="50.5" /><line stroke="rgb(0%,0%,0%)" x1="135.5" x2="135.5493" y1="50.5" y2="50.0313" /><line stroke="rgb(0%,0%,0%)" x1="135.5493" x2="135.8278" y1="50.0313" y2="47.3813" /><line stroke="rgb(0%,0%,0%)" x1="135.8278" x2="135.9734" y1="47.3813" y2="46.9331" /><line stroke="rgb(0%,0%,0%)" x1="135.9734" x2="136.7968" y1="46.9331" y2="44.3989" /><line stroke="rgb(0%,0%,0%)" x1="136.7968" x2="137.0325" y1="44.3989" y2="43.9908" /><line stroke="rgb(0%,0%,0%)" x1="137.0325" x2="138.3647" y1="43.9908" y2="41.6832" /><line stroke="rgb(0%,0%,0%)" x1="138.3647" x2="138.6801" y1="41.6832" y2="41.333" /><line stroke="rgb(0%,0%,0%)" x1="138.6801" x2="140.463" y1="41.333" y2="39.3528" /><line stroke="rgb(0%,0%,0%)" x1="140.463" x2="140.8443" y1="39.3528" y2="39.0758" /><line stroke="rgb(0%,0%,0%)" x1="140.8443" x2="143.0" y1="39.0758" y2="37.5096" /><line stroke="rgb(0%,0%,0%)" x1="143.0" x2="143.4306" y1="37.5096" y2="37.3179" /><line stroke="rgb(0%,0%,0%)" x1="143.4306" x2="145.8647" y1="37.3179" y2="36.2342" /><line stroke="rgb(0%,0%,0%)" x1="145.8647" x2="146.3258" y1="36.2342" y2="36.1362" /><line stroke="rgb(0%,0%,0%)" x1="146.3258" x2="148.9321" y1="36.1362" y2="35.5822" /><line stroke="rgb(0%,0%,0%)" x1="148.9321" x2="149.4034" y1="35.5822" y2="35.5822" /><line stroke="rgb(0%,0%,0%)" x1="149.4034" x2="152.0679" y1="35.5822" y2="35.5822" /><line stroke="rgb(0%,0%,0%)" x1="152.0679" x2="152.5289" y1="35.5822" y2="35.6802" /><line stroke="rgb(0%,0%,0%)" x1="152.5289" x2="155.1353" y1="35.6802" y2="36.2342" /><line stroke="rgb(0%,0%,0%)" x1="155.1353" x2="155.5658" y1="36.2342" y2="36.4259" /><line stroke="rgb(0%,0%,0%)" x1="155.5658" x2="158.0" y1="36.4259" y2="37.5096" /><line stroke="rgb(0%,0%,0%)" x1="158.0" x2="158.3813" y1="37.5096" y2="37.7867" /><line stroke="rgb(0%,0%,0%)" x1="158.3813" x2="160.537" y1="37.7867" y2="39.3528" /><line stroke="rgb(0%,0%,0%)" x1="160.537" x2="160.8523" y1="39.3528" y2="39.7031" /><line stroke="rgb(0%,0%,0%)" x1="160.8523" x2="162.6353" y1="39.7031" y2="41.6832" /><line stroke="rgb(0%,0%,0%)" x1="162.6353" x2="162.8709" y1="41.6832" y2="42.0914" /><line stroke="rgb(0%,0%,0%)" x1="162.8709" x2="164.2032" y1="42.0914" y2="44.3989" /><line stroke="rgb(0%,0%,0%)" x1="164.2032" x2="164.3488" y1="44.3989" y2="44.8472" /><line stroke="rgb(0%,0%,0%)" x1="164.3488" x2="165.1722" y1="44.8472" y2="47.3813" /><line stroke="rgb(0%,0%,0%)" x1="65.1722" x2="65.2215" y1="47.3813" y2="47.8501" /><line stroke="rgb(0%,0%,0%)" x1="65.2215" x2="65.5" y1="47.8501" y2="50.5" /><line stroke="rgb(0%,0%,0%)" x1="65.5" x2="65.4507" y1="50.5" y2="50.9687" /><line stroke="rgb(0%,0%,0%)" x1="65.4507" x2="65.1722" y1="50.9687" y2="53.6187" /><line stroke="rgb(0%,0%,0%)" x1="65.1722" x2="65.0266" y1="53.6187" y2="54.0669" /><line stroke="rgb(0%,0%,0%)" x1="65.0266" x2="64.2032" y1="54.0669" y2="56.6011" /><line stroke="rgb(0%,0%,0%)" x1="64.2032" x2="63.9675" y1="56.6011" y2="57.0092" /><line stroke="rgb(0%,0%,0%)" x1="63.9675" x2="62.6352" y1="57.0092" y2="59.3168" /><line stroke="rgb(0%,0%,0%)" x1="62.6352" x2="62.3199" y1="59.3168" y2="59.667" /><line stroke="rgb(0%,0%,0%)" x1="62.3199" x2="60.537" y1="59.667" y2="61.6472" /><line stroke="rgb(0%,0%,0%)" x1="60.537" x2="60.1557" y1="61.6472" y2="61.9242" /><line stroke="rgb(0%,0%,0%)" x1="60.1557" x2="58.0" y1="61.9242" y2="63.4904" /><line stroke="rgb(0%,0%,0%)" x1="58.0" x2="57.5694" y1="63.4904" y2="63.6821" /><line stroke="rgb(0%,0%,0%)" x1="57.5694" x2="55.1353" y1="63.6821" y2="64.7658" /><line stroke="rgb(0%,0%,0%)" x1="55.1353" x2="54.6742" y1="64.7658" y2="64.8638" /><line stroke="rgb(0%,0%,0%)" x1="54.6742" x2="52.0679" y1="64.8638" y2="65.4178" /><line stroke="rgb(0%,0%,0%)" x1="52.0679" x2="51.5966" y1="65.4178" y2="65.4178" /><line stroke="rgb(0%,0%,0%)" x1="51.5966" x2="48.9321" y1="65.4178" y2="65.4178" /><line stroke="rgb(0%,0%,0%)" x1="48.9321" x2="48.471" y1="65.4178" y2="65.3198" /><line stroke="rgb(0%,0%,0%)" x1="48.471" x2="45.8647" y1="65.3198" y2="64.7658" /><line stroke="rgb(0%,0%,0%)" x1="45.8647" x2="45.4342" y1="64.7658" y2="64.5741" /><line stroke="rgb(0%,0%,0%)" x1="45.4342" x2="43.0" y1="64.5741" y2="63.4904" /><line stroke="rgb(0%,0%,0%)" x1="43.0" x2="42.6187" y1="63.4904" y2="63.2133" /><line stroke="rgb(0%,0%,0%)" x1="42.6187" x2="40.463" y1="63.2133" y2="61.6472" /><line stroke="rgb(0%,0%,0%)" x1="40.463" x2="40.1477" y1="61.6472" y2="61.2969" /><line stroke="rgb(0%,0%,0%)" x1="40.1477" x2="38.3647" y1="61.2969" y2="59.3168" /><line stroke="rgb(0%,0%,0%)" x1="38.3647" x2="38.1291" y1="59.3168" y2="58.9086" /><line stroke="rgb(0%,0%,0%)" x1="38.1291" x2="36.7968" y1="58.9086" y2="56.6011" /><line stroke="rgb(0%,0%,0%)" x1="36.7968" x2="36.6512" y1="56.6011" y2="56.1528" /><line stroke="rgb(0%,0%,0%)" x1="36.6512" x2="35.8278" y1="56.1528" y2="53.6187" /><line stroke="rgb(0%,0%,0%)" x1="35.8278" x2="35.7785" y1="53.6187" y2="53.1499" /><line stroke="rgb(0%,0%,0%)" x1="35.7785" x2="35.5" y1="53.1499" y2="50.5" /><line stroke="rgb(0%,0%,0%)" x1="35.5" x2="35.5493" y1="50.5" y2="50.0313" /><line stroke="rgb(0%,0%,0%)" x1="35.5493" x2="35.8278" y1="50.0313" y2="47.3813" /><line stroke="rgb(0%,0%,0%)" x1="35.8278" x2="35.9734" y1="47.3813" y2="46.9331" /><line stroke="rgb(0%,0%,0%)" x1="35.9734" x2="36.7968" y1="46.9331" y2="44.3989" /><line stroke="rgb(0%,0%,0%)" x1="36.7968" x2="37.0325" y1="44.3989" y2="43.9908" /><line stroke="rgb(0%,0%,0%)" x1="37.0325" x2="38.3647" y1="43.9908" y2="41.6832" /><line stroke="rgb(0%,0%,0%)" x1="38.3647" x2="38.6801" y1="41.6832" y2="41.333" /><line stroke="rgb(0%,0%,0%)" x1="38.6801" x2="40.463" y1="41.333" y2="39.3528" /><line stroke="rgb(0%,0%,0%)" x1="40.463" x2="40.8443" y1="39.3528" y2="39.0758" /><line stroke="rgb(0%,0%,0%)" x1="40.8443" x2="43.0" y1="39.0758" y2="37.5096" /><line stroke="rgb(0%,0%,0%)" x1="43.0" x2="43.4306" y1="37.5096" y2="37.3179" /><line stroke="rgb(0%,0%,0%)" x1="43.4306" x2="45.8647" y1="37.3179" y2="36.2342" /><line stroke="rgb(0%,0%,0%)" x1="45.8647" x2="46.3258" y1="36.2342" y2="36.1362" /><line stroke="rgb(0%,0%,0%)" x1="46.3258" x2="48.9321" y1="36.1362" y2="35.5822" /><line stroke="rgb(0%,0%,0%)" x1="48.9321" x2="49.4034" y1="35.5822" y2="35.5822" /><line stroke="rgb(0%,0%,0%)" x1="49.4034" x2="52.0679" y1="35.5822" y2="35.5822" /><line stroke="rgb(0%,0%,0%)" x1="52.0679" x2="52.5289" y1="35.5822" y2="35.6802" /><line stroke="rgb(0%,0%,0%)" x1="52.5289" x2="55.1353" y1="35.6802" y2="36.2342" /><line stroke="rgb(0%,0%,0%)" x1="55.1353" x2="55.5658" y1="36.2342" y2="36.4259" /><line stroke="rgb(0%,0%,0%)" x1="55.5658" x2="58.0" y1="36.4259" y2="37.5096" /><line stroke="rgb(0%,0%,0%)" x1="58.0" x2="58.3813" y1="37.5096" y2="37.7867" /><line stroke="rgb(0%,0%,0%)" x1="58.3813" x2="60.537" y1="37.7867" y2="39.3528" /><line stroke="rgb(0%,0%,0%)" x1="60.537" x2="60.8523" y1="39.3528" y2="39.7031" /><line stroke="rgb(0%,0%,0%)" x1="60.8523" x2="62.6352" y1="39.7031" y2="41.6832" /><line stroke="rgb(0%,0%,0%)" x1="62.6352" x2="62.8709" y1="41.6832" y2="42.0914" /><line stroke="rgb(0%,0%,0%)" x1="62.8709" x2="64.2032" y1="42.0914" y2="44.3989" /><line stroke="rgb(0%,0%,0%)" x1="64.2032" x2="64.3488" y1="44.3989" y2="44.8472" /><line stroke="rgb(0%,0%,0%)" x1="64.3488" x2="65.1722" y1="44.8472" y2="47.3813" /></svg>