<?xml version="1.0" encoding="utf-8" ?>
<svg baseProfile="tiny" height="100%" version="1.2" width="100%" xmlns="http://www.w3.org/2000/svg" xmlns:ev="http://www.w3.org/2001/xml-events" xmlns:xlink="http://www.w3.org/1999/xlink"><defs /><line stroke="rgb(0%,0%,0%)" x1="351.9" x2="351.9" y1="0.5" y2="38.0858" /><line stroke="rgb(0%,0%,0%)" x1="351.9" x2="351.9" y1="38.0858" y2="100.5" /><line stroke="rgb(0%,0%,0%)" x1="286.6261" x2="338.0831" y1="100.5" y2="100.5" /><line stroke="rgb(0%,0%,0%)" x1="338.0831" x2="339.8777" y1="100.5" y2="100.5" /><line stroke="rgb(0%,0%,0%)" x1="339.8777" x2="341.9279" y1="100.5" y2="100.5" /><line stroke="rgb(0%,0%,0%)" x1="341.9279" x2="344.2033" y1="100.5" y2="100.5" /><line stroke="rgb(0%,0%,0%)" x1="344.2033" x2="346.661" y1="100.5" y2="100.5" /><line stroke="rgb(0%,0%,0%)" x1="346.661" x2="349.2473" y1="100.5" y2="100.5" /><line stroke="rgb(0%,0%,0%)" x1="349.2473" x2="351.9" y1="100.5" y2="100.5" /><line stroke="rgb(0%,0%,0%)" x1="286.6261" x2="88.0313" y1="100.5" y2="100.5" /><line stroke="rgb(0%,0%,0%)" x1="88.0313" x2="0.5" y1="100.5" y2="100.5" /><line stroke="rgb(0%,0%,0%)" x1="0.5" x2="88.0313" y1="0.5" y2="0.5" /><line stroke="rgb(0%,0%,0%)" x1="88.0313" x2="286.6261" y1="0.5" y2="0.5" /><line stroke="rgb(0%,0%,0%)" x1="286.6261" x2="338.0831" y1="0.5" y2="0.5" /><line stroke="rgb(0%,0%,0%)" x1="338.0831" x2="339.8777" y1="0.5" y2="0.5" /><line stroke="rgb(0%,0%,0%)" x1="339.8777" x2="341.9279" y1="0.5" y2="0.5" /><line stroke="rgb(0%,0%,0%)" x1="341.9279" x2="344.2033" y1="0.5" y2="0.5" /><line stroke="rgb(0%,0%,0%)" x1="344.2033" x2="346.661" y1="0.5" y2="0.5" /><line stroke="rgb(0%,0%,0%)" x1="346.661" x2="349.2473" y1="0.5" y2="0.5" /><line stroke="rgb(0%,0%,0%)" x1="349.2473" x2="351.9" y1="0.5" y2="0.5" /><line stroke="rgb(0%,0%,0%)" x1="0.5" x2="0.5" y1="0.5" y2="57.0153" /><line stroke="rgb(0%,0%,0%)" x1="0.5" x2="0.5" y1="57.0153" y2="100.5" /><line stroke="rgb(0%,0%,0%)" x1="165.1722" x2="165.2149" y1="47.3813" y2="47.7877" /><line stroke="rgb(0%,0%,0%)" x1="165.2149" x2="165.5" y1="47.7877" y2="50.5" /><line stroke="rgb(0%,0%,0%)" x1="165.5" x2="165.4573" y1="50.5" y2="50.9064" /><line stroke="rgb(0%,0%,0%)" x1="165.4573" x2="165.1722" y1="50.9064" y2="53.6187" /><line stroke="rgb(0%,0%,0%)" x1="165.1722" x2="165.0459" y1="53.6187" y2="54.0073" /><line stroke="rgb(0%,0%,0%)" x1="165.0459" x2="164.2032" y1="54.0073" y2="56.6011" /><line stroke="rgb(0%,0%,0%)" x1="164.2032" x2="163.9989" y1="56.6011" y2="56.9549" /><line stroke="rgb(0%,0%,0%)" x1="163.9989" x2="162.6353" y1="56.9549" y2="59.3168" /><line stroke="rgb(0%,0%,0%)" x1="162.6353" x2="162.3618" y1="59.3168" y2="59.6204" /><line stroke="rgb(0%,0%,0%)" x1="162.3618" x2="160.537" y1="59.6204" y2="61.6472" /><line stroke="rgb(0%,0%,0%)" x1="160.537" x2="160.2064" y1="61.6472" y2="61.8874" /><line stroke="rgb(0%,0%,0%)" x1="160.2064" x2="158.0" y1="61.8874" y2="63.4904" /><line stroke="rgb(0%,0%,0%)" x1="158.0" x2="157.6267" y1="63.4904" y2="63.6566" /><line stroke="rgb(0%,0%,0%)" x1="157.6267" x2="155.1353" y1="63.6566" y2="64.7658" /><line stroke="rgb(0%,0%,0%)" x1="155.1353" x2="154.7356" y1="64.7658" y2="64.8508" /><line stroke="rgb(0%,0%,0%)" x1="154.7356" x2="152.0679" y1="64.8508" y2="65.4178" /><line stroke="rgb(0%,0%,0%)" x1="152.0679" x2="151.6593" y1="65.4178" y2="65.4178" /><line stroke="rgb(0%,0%,0%)" x1="151.6593" x2="148.9321" y1="65.4178" y2="65.4178" /><line stroke="rgb(0%,0%,0%)" x1="148.9321" x2="148.5324" y1="65.4178" y2="65.3329" /><line stroke="rgb(0%,0%,0%)" x1="148.5324" x2="145.8647" y1="65.3329" y2="64.7658" /><line stroke="rgb(0%,0%,0%)" x1="145.8647" x2="145.4914" y1="64.7658" y2="64.5996" /><line stroke="rgb(0%,0%,0%)" x1="145.4914" x2="143.0" y1="64.5996" y2="63.4904" /><line stroke="rgb(0%,0%,0%)" x1="143.0" x2="142.6694" y1="63.4904" y2="63.2502" /><line stroke="rgb(0%,0%,0%)" x1="142.6694" x2="140.463" y1="63.2502" y2="61.6472" /><line stroke="rgb(0%,0%,0%)" x1="140.463" x2="140.1896" y1="61.6472" y2="61.3435" /><line stroke="rgb(0%,0%,0%)" x1="140.1896" x2="138.3647" y1="61.3435" y2="59.3168" /><line stroke="rgb(0%,0%,0%)" x1="138.3647" x2="138.1604" y1="59.3168" y2="58.9629" /><line stroke="rgb(0%,0%,0%)" x1="138.1604" x2="136.7968" y1="58.9629" y2="56.6011" /><line stroke="rgb(0%,0%,0%)" x1="136.7968" x2="136.6705" y1="56.6011" y2="56.2124" /><line stroke="rgb(0%,0%,0%)" x1="136.6705" x2="135.8278" y1="56.2124" y2="53.6187" /><line stroke="rgb(0%,0%,0%)" x1="135.8278" x2="135.7851" y1="53.6187" y2="53.2123" /><line stroke="rgb(0%,0%,0%)" x1="135.7851" x2="135.5" y1="53.2123" y2="50.5" /><line stroke="rgb(0%,0%,0%)" x1="135.5" x2="135.5427" y1="50.5" y2="50.0936" /><line stroke="rgb(0%,0%,0%)" x1="135.5427" x2="135.8278" y1="50.0936" y2="47.3813" /><line stroke="rgb(0%,0%,0%)" x1="135.8278" x2="135.9541" y1="47.3813" y2="46.9927" /><line stroke="rgb(0%,0%,0%)" x1="135.9541" x2="136.7968" y1="46.9927" y2="44.3989" /><line stroke="rgb(0%,0%,0%)" x1="136.7968" x2="137.0011" y1="44.3989" y2="44.0451" /><line stroke="rgb(0%,0%,0%)" x1="137.0011" x2="138.3647" y1="44.0451" y2="41.6832" /><line stroke="rgb(0%,0%,0%)" x1="138.3647" x2="138.6382" y1="41.6832" y2="41.3796" /><line stroke="rgb(0%,0%,0%)" x1="138.6382" x2="140.463" y1="41.3796" y2="39.3528" /><line stroke="rgb(0%,0%,0%)" x1="140.463" x2="140.7936" y1="39.3528" y2="39.1126" /><line stroke="rgb(0%,0%,0%)" x1="140.7936" x2="143.0" y1="39.1126" y2="37.5096" /><line stroke="rgb(0%,0%,0%)" x1="143.0" x2="143.3733" y1="37.5096" y2="37.3434" /><line stroke="rgb(0%,0%,0%)" x1="143.3733" x2="145.8647" y1="37.3434" y2="36.2342" /><line stroke="rgb(0%,0%,0%)" x1="145.8647" x2="146.2644" y1="36.2342" y2="36.1492" /><line stroke="rgb(0%,0%,0%)" x1="146.2644" x2="148.9321" y1="36.1492" y2="35.5822" /><line stroke="rgb(0%,0%,0%)" x1="148.9321" x2="149.3407" y1="35.5822" y2="35.5822" /><line stroke="rgb(0%,0%,0%)" x1="149.3407" x2="152.0679" y1="35.5822" y2="35.5822" /><line stroke="rgb(0%,0%,0%)" x1="152.0679" x2="152.4676" y1="35.5822" y2="35.6671" /><line stroke="rgb(0%,0%,0%)" x1="152.4676" x2="155.1353" y1="35.6671" y2="36.2342" /><line stroke="rgb(0%,0%,0%)" x1="155.1353" x2="155.5085" y1="36.2342" y2="36.4004" /><line stroke="rgb(0%,0%,0%)" x1="155.5085" x2="158.0" y1="36.4004" y2="37.5096" /><line stroke="rgb(0%,0%,0%)" x1="158.0" x2="158.3306" y1="37.5096" y2="37.7498" /><line stroke="rgb(0%,0%,0%)" x1="158.3306" x2="160.537" y1="37.7498" y2="39.3528" /><line stroke="rgb(0%,0%,0%)" x1="160.537" x2="160.8104" y1="39.3528" y2="39.6565" /><line stroke="rgb(0%,0%,0%)" x1="160.8104" x2="162.6353" y1="39.6565" y2="41.6832" /><line stroke="rgb(0%,0%,0%)" x1="162.6353" x2="162.8396" y1="41.6832" y2="42.0371" /><line stroke="rgb(0%,0%,0%)" x1="162.8396" x2="164.2032" y1="42.0371" y2="44.3989" /><line stroke="rgb(0%,0%,0%)" x1="164.2032" x2="164.3295" y1="44.3989" y2="44.7876" /><line stroke="rgb(0%,0%,0%)" x1="164.3295" x2="165.1722" y1="44.7876" y2="47.3813" /><line stroke="rgb(0%,0%,0%)" x1="65.1722" x2="65.2149" y1="47.3813" y2="47.7877" /><line stroke="rgb(0%,0%,0%)" x1="65.2149" x2="65.5" y1="47.7877" y2="50.5" /><line stroke="rgb(0%,0%,0%)" x1="65.5" x2="65.4573" y1="50.5" y2="50.9064" /><line stroke="rgb(0%,0%,0%)" x1="65.4573" x2="65.1722" y1="50.9064" y2="53.6187" /><line stroke="rgb(0%,0%,0%)" x1="65.1722" x2="65.0459" y1="53.6187" y2="54.0073" /><line stroke="rgb(0%,0%,0%)" x1="65.0459" x2="64.2032" y1="54.0073" y2="56.6011" /><line stroke="rgb(0%,0%,0%)" x1="64.2032" x2="63.9989" y1="56.6011" y2="56.9549" /><line stroke="rgb(0%,0%,0%)" x1="63.9989" x2="62.6352" y1="56.9549" y2="59.3168" /><line stroke="rgb(0%,0%,0%)" x1="62.6352" x2="62.3618" y1="59.3168" y2="59.6204" /><line stroke="rgb(0%,0%,0%)" x1="62.3618" x2="60.537" y1="59.6204" y2="61.6472" /><line stroke="rgb(0%,0%,0%)" x1="60.537" x2="60.2064" y1="61.6472" y2="61.8874" /><line stroke="rgb(0%,0%,0%)" x1="60.2064" x2="58.0" y1="61.8874" y2="63.4904" /><line stroke="rgb(0%,0%,0%)" x1="58.0" x2="57.6267" y1="63.4904" y2="63.6566" /><line stroke="rgb(0%,0%,0%)" x1="57.6267" x2="55.1353" y1="63.6566" y2="64.7658" /><line stroke="rgb(0%,0%,0%)" x1="55.1353" x2="54.7356" y1="64.7658" y2="64.8508" /><line stroke="rgb(0%,0%,0%)" x1="54.7356" x2="52.0679" y1="64.8508" y2="65.4178" /><line stroke="rgb(0%,0%,0%)" x1="52.0679" x2="51.6593" y1="65.4178" y2="65.4178" /><line stroke="rgb(0%,0%,0%)" x1="51.6593" x2="48.9321" y1="65.4178" y2="65.4178" /><line stroke="rgb(0%,0%,0%)" x1="48.9321" x2="48.5324" y1="65.4178" y2="65.3329" /><line stroke="rgb(0%,0%,0%)" x1="48.5324" x2="45.8647" y1="65.3329" y2="64.7658" /><line stroke="rgb(0%,0%,0%)" x1="45.8647" x2="45.4914" y1="64.7658" y2="64.5996" /><line stroke="rgb(0%,0%,0%)" x1="45.4914" x2="43.0" y1="64.5996" y2="63.4904" /><line stroke="rgb(0%,0%,0%)" x1="43.0" x2="42.6694" y1="63.4904" y2="63.2502" /><line stroke="rgb(0%,0%,0%)" x1="42.6694" x2="40.463" y1="63.2502" y2="61.6472" /><line stroke="rgb(0%,0%,0%)" x1="40.463" x2="40.1896" y1="61.6472" y2="61.3435" /><line stroke="rgb(0%,0%,0%)" x1="40.1896" x2="38.3647" y1="61.3435" y2="59.3168" /><line stroke="rgb(0%,0%,0%)" x1="38.3647" x2="38.1604" y1="59.3168" y2="58.9629" /><line stroke="rgb(0%,0%,0%)" x1="38.1604" x2="36.7968" y1="58.9629" y2="56.6011" /><line stroke="rgb(0%,0%,0%)" x1="36.7968" x2="36.6705" y1="56.6011" y2="56.2124" /><line stroke="rgb(0%,0%,0%)" x1="36.6705" x2="35.8278" y1="56.2124" y2="53.6187" /><line stroke="rgb(0%,0%,0%)" x1="35.8278" x2="35.7851" y1="53.6187" y2="53.2123" /><line stroke="rgb(0%,0%,0%)" x1="35.7851" x2="35.5" y1="53.2123" y2="50.5" /><line stroke="rgb(0%,0%,0%)" x1="35.5" x2="35.5427" y1="50.5" y2="50.0936" /><line stroke="rgb(0%,0%,0%)" x1="35.5427" x2="35.8278" y1="50.0936" y2="47.3813" /><line stroke="rgb(0%,0%,0%)" x1="35.8278" x2="35.954" y1="47.3813" y2="46.9927" /><line stroke="rgb(0%,0%,0%)" x1="35.954" x2="36.7968" y1="46.9927" y2="44.3989" /><line stroke="rgb(0%,0%,0%)" x1="36.7968" x2="37.0011" y1="44.3989" y2="44.0451" /><line stroke="rgb(0%,0%,0%)" x1="37.0011" x2="38.3647" y1="44.0451" y2="41.6832" /><line stroke="rgb(0%,0%,0%)" x1="38.3647" x2="38.6382" y1="41.6832" y2="41.3796" /><line stroke="rgb(0%,0%,0%)" x1="38.6382" x2="40.463" y1="41.3796" y2="39.3528" /><line stroke="rgb(0%,0%,0%)" x1="40.463" x2="40.7936" y1="39.3528" y2="39.1126" /><line stroke="rgb(0%,0%,0%)" x1="40.7936" x2="43.0" y1="39.1126" y2="37.5096" /><line stroke="rgb(0%,0%,0%)" x1="43.0" x2="43.3733" y1="37.5096" y2="37.3434" /><line stroke="rgb(0%,0%,0%)" x1="43.3733" x2="45.8647" y1="37.3434" y2="36.2342" /><line stroke="rgb(0%,0%,0%)" x1="45.8647" x2="46.2644" y1="36.2342" y2="36.1492" /><line stroke="rgb(0%,0%,0%)" x1="46.2644" x2="48.9321" y1="36.1492" y2="35.5822" /><line stroke="rgb(0%,0%,0%)" x1="48.9321" x2="49.3407" y1="35.5822" y2="35.5822" /><line stroke="rgb(0%,0%,0%)" x1="49.3407" x2="52.0679" y1="35.5822" y2="35.5822" /><line stroke="rgb(0%,0%,0%)" x1="52.0679" x2="52.4676" y1="35.5822" y2="35.6671" /><line stroke="rgb(0%,0%,0%)" x1="52.4676" x2="55.1353" y1="35.6671" y2="36.2342" /><line stroke="rgb(0%,0%,0%)" x1="55.1353" x2="55.5086" y1="36.2342" y2="36.4004" /><line stroke="rgb(0%,0%,0%)" x1="55.5086" x2="58.0" y1="36.4004" y2="37.5096" /><line stroke="rgb(0%,0%,0%)" x1="58.0" x2="58.3306" y1="37.5096" y2="37.7498" /><line stroke="rgb(0%,0%,0%)" x1="58.3306" x2="60.537" y1="37.7498" y2="39.3528" /><line stroke="rgb(0%,0%,0%)" x1="60.537" x2="60.8104" y1="39.3528" y2="39.6565" /><line stroke="rgb(0%,0%,0%)" x1="60.8104" x2="62.6352" y1="39.6565" y2="41.6832" /><line stroke="rgb(0%,0%,0%)" x1="62.6352" x2="62.8396" y1="41.6832" y2="42.0371" /><line stroke="rgb(0%,0%,0%)" x1="62.8396" x2="64.2032" y1="42.0371" y2="44.3989" /><line stroke="rgb(0%,0%,0%)" x1="64.2032" x2="64.3294" y1="44.3989" y2="44.7876" /><line stroke="rgb(0%,0%,0%)" x1="64.3294" x2="65.1722" y1="44.7876" y2="47.3813" /></svg>