<?xml version="1.0" encoding="utf-8" ?>
<svg baseProfile="tiny" height="100%" version="1.2" width="100%" xmlns="http://www.w3.org/2000/svg" xmlns:ev="http://www.w3.org/2001/xml-events" xmlns:xlink="http://www.w3.org/1999/xlink"><defs /><line stroke="rgb(0%,0%,0%)" x1="351.9" x2="351.9" y1="0.5" y2="38.9498" /><line stroke="rgb(0%,0%,0%)" x1="351.9" x2="351.9" y1="38.9498" y2="100.5" /><line stroke="rgb(0%,0%,0%)" x1="285.1255" x2="337.7655" y1="100.5" y2="100.5" /><line stroke="rgb(0%,0%,0%)" x1="337.7655" x2="339.6014" y1="100.5" y2="100.5" /><line stroke="rgb(0%,0%,0%)" x1="339.6014" x2="341.6987" y1="100.5" y2="100.5" /><line stroke="rgb(0%,0%,0%)" x1="341.6987" x2="344.0263" y1="100.5" y2="100.5" /><line stroke="rgb(0%,0%,0%)" x1="344.0263" x2="346.5406" y1="100.5" y2="100.5" /><line stroke="rgb(0%,0%,0%)" x1="346.5406" x2="349.1863" y1="100.5" y2="100.5" /><line stroke="rgb(0%,0%,0%)" x1="349.1863" x2="351.9" y1="100.5" y2="100.5" /><line stroke="rgb(0%,0%,0%)" x1="285.1255" x2="90.0436" y1="100.5" y2="100.5" /><line stroke="rgb(0%,0%,0%)" x1="90.0436" x2="0.5" y1="100.5" y2="100.5" /><line stroke="rgb(0%,0%,0%)" x1="0.5" x2="90.0436" y1="0.5" y2="0.5" /><line stroke="rgb(0%,0%,0%)" x1="90.0436" x2="285.1255" y1="0.5" y2="0.5" /><line stroke="rgb(0%,0%,0%)" x1="285.1255" x2="337.7655" y1="0.5" y2="0.5" /><line stroke="rgb(0%,0%,0%)" x1="337.7655" x2="339.6014" y1="0.5" y2="0.5" /><line stroke="rgb(0%,0%,0%)" x1="339.6014" x2="341.6987" y1="0.5" y2="0.5" /><line stroke="rgb(0%,0%,0%)" x1="341.6987" x2="344.0263" y1="0.5" y2="0.5" /><line stroke="rgb(0%,0%,0%)" x1="344.0263" x2="346.5406" y1="0.5" y2="0.5" /><line stroke="rgb(0%,0%,0%)" x1="346.5406" x2="349.1863" y1="0.5" y2="0.5" /><line stroke="rgb(0%,0%,0%)" x1="349.1863" x2="351.9" y1="0.5" y2="0.5" /><line stroke="rgb(0%,0%,0%)" x1="0.5" x2="0.5" y1="0.5" y2="56.0157" /><line stroke="rgb(0%,0%,0%)" x1="0.5" x2="0.5" y1="56.0157" y2="100.5" /><line stroke="rgb(0%,0%,0%)" x1="165.1722" x2="165.2084" y1="47.3813" y2="47.7254" /><line stroke="rgb(0%,0%,0%)" x1="165.2084" x2="165.5" y1="47.7254" y2="50.5" /><line stroke="rgb(0%,0%,0%)" x1="165.5" x2="165.4638" y1="50.5" y2="50.844" /><line stroke="rgb(0%,0%,0%)" x1="165.4638" x2="165.1722" y1="50.844" y2="53.6187" /><line stroke="rgb(0%,0%,0%)" x1="165.1722" x2="165.0653" y1="53.6187" y2="53.9477" /><line stroke="rgb(0%,0%,0%)" x1="165.0653" x2="164.2032" y1="53.9477" y2="56.6011" /><line stroke="rgb(0%,0%,0%)" x1="164.2032" x2="164.0302" y1="56.6011" y2="56.9006" /><line stroke="rgb(0%,0%,0%)" x1="164.0302" x2="162.6353" y1="56.9006" y2="59.3168" /><line stroke="rgb(0%,0%,0%)" x1="162.6353" x2="162.4038" y1="59.3168" y2="59.5739" /><line stroke="rgb(0%,0%,0%)" x1="162.4038" x2="160.537" y1="59.5739" y2="61.6472" /><line stroke="rgb(0%,0%,0%)" x1="160.537" x2="160.2571" y1="61.6472" y2="61.8505" /><line stroke="rgb(0%,0%,0%)" x1="160.2571" x2="158.0" y1="61.8505" y2="63.4904" /><line stroke="rgb(0%,0%,0%)" x1="158.0" x2="157.684" y1="63.4904" y2="63.6311" /><line stroke="rgb(0%,0%,0%)" x1="157.684" x2="155.1353" y1="63.6311" y2="64.7658" /><line stroke="rgb(0%,0%,0%)" x1="155.1353" x2="154.7969" y1="64.7658" y2="64.8378" /><line stroke="rgb(0%,0%,0%)" x1="154.7969" x2="152.0679" y1="64.8378" y2="65.4178" /><line stroke="rgb(0%,0%,0%)" x1="152.0679" x2="151.722" y1="65.4178" y2="65.4178" /><line stroke="rgb(0%,0%,0%)" x1="151.722" x2="148.9321" y1="65.4178" y2="65.4178" /><line stroke="rgb(0%,0%,0%)" x1="148.9321" x2="148.5937" y1="65.4178" y2="65.3459" /><line stroke="rgb(0%,0%,0%)" x1="148.5937" x2="145.8647" y1="65.3459" y2="64.7658" /><line stroke="rgb(0%,0%,0%)" x1="145.8647" x2="145.5487" y1="64.7658" y2="64.6251" /><line stroke="rgb(0%,0%,0%)" x1="145.5487" x2="143.0" y1="64.6251" y2="63.4904" /><line stroke="rgb(0%,0%,0%)" x1="143.0" x2="142.7201" y1="63.4904" y2="63.287" /><line stroke="rgb(0%,0%,0%)" x1="142.7201" x2="140.463" y1="63.287" y2="61.6472" /><line stroke="rgb(0%,0%,0%)" x1="140.463" x2="140.2316" y1="61.6472" y2="61.3901" /><line stroke="rgb(0%,0%,0%)" x1="140.2316" x2="138.3647" y1="61.3901" y2="59.3168" /><line stroke="rgb(0%,0%,0%)" x1="138.3647" x2="138.1918" y1="59.3168" y2="59.0172" /><line stroke="rgb(0%,0%,0%)" x1="138.1918" x2="136.7968" y1="59.0172" y2="56.6011" /><line stroke="rgb(0%,0%,0%)" x1="136.7968" x2="136.6899" y1="56.6011" y2="56.2721" /><line stroke="rgb(0%,0%,0%)" x1="136.6899" x2="135.8278" y1="56.2721" y2="53.6187" /><line stroke="rgb(0%,0%,0%)" x1="135.8278" x2="135.7916" y1="53.6187" y2="53.2746" /><line stroke="rgb(0%,0%,0%)" x1="135.7916" x2="135.5" y1="53.2746" y2="50.5" /><line stroke="rgb(0%,0%,0%)" x1="135.5" x2="135.5362" y1="50.5" y2="50.156" /><line stroke="rgb(0%,0%,0%)" x1="135.5362" x2="135.8278" y1="50.156" y2="47.3813" /><line stroke="rgb(0%,0%,0%)" x1="135.8278" x2="135.9347" y1="47.3813" y2="47.0523" /><line stroke="rgb(0%,0%,0%)" x1="135.9347" x2="136.7968" y1="47.0523" y2="44.3989" /><line stroke="rgb(0%,0%,0%)" x1="136.7968" x2="136.9698" y1="44.3989" y2="44.0994" /><line stroke="rgb(0%,0%,0%)" x1="136.9698" x2="138.3647" y1="44.0994" y2="41.6832" /><line stroke="rgb(0%,0%,0%)" x1="138.3647" x2="138.5962" y1="41.6832" y2="41.4261" /><line stroke="rgb(0%,0%,0%)" x1="138.5962" x2="140.463" y1="41.4261" y2="39.3528" /><line stroke="rgb(0%,0%,0%)" x1="140.463" x2="140.7429" y1="39.3528" y2="39.1495" /><line stroke="rgb(0%,0%,0%)" x1="140.7429" x2="143.0" y1="39.1495" y2="37.5096" /><line stroke="rgb(0%,0%,0%)" x1="143.0" x2="143.316" y1="37.5096" y2="37.3689" /><line stroke="rgb(0%,0%,0%)" x1="143.316" x2="145.8647" y1="37.3689" y2="36.2342" /><line stroke="rgb(0%,0%,0%)" x1="145.8647" x2="146.2031" y1="36.2342" y2="36.1622" /><line stroke="rgb(0%,0%,0%)" x1="146.2031" x2="148.9321" y1="36.1622" y2="35.5822" /><line stroke="rgb(0%,0%,0%)" x1="148.9321" x2="149.278" y1="35.5822" y2="35.5822" /><line stroke="rgb(0%,0%,0%)" x1="149.278" x2="152.0679" y1="35.5822" y2="35.5822" /><line stroke="rgb(0%,0%,0%)" x1="152.0679" x2="152.4063" y1="35.5822" y2="35.6541" /><line stroke="rgb(0%,0%,0%)" x1="152.4063" x2="155.1353" y1="35.6541" y2="36.2342" /><line stroke="rgb(0%,0%,0%)" x1="155.1353" x2="155.4513" y1="36.2342" y2="36.3749" /><line stroke="rgb(0%,0%,0%)" x1="155.4513" x2="158.0" y1="36.3749" y2="37.5096" /><line stroke="rgb(0%,0%,0%)" x1="158.0" x2="158.2799" y1="37.5096" y2="37.7129" /><line stroke="rgb(0%,0%,0%)" x1="158.2799" x2="160.537" y1="37.7129" y2="39.3528" /><line stroke="rgb(0%,0%,0%)" x1="160.537" x2="160.7684" y1="39.3528" y2="39.6099" /><line stroke="rgb(0%,0%,0%)" x1="160.7684" x2="162.6353" y1="39.6099" y2="41.6832" /><line stroke="rgb(0%,0%,0%)" x1="162.6353" x2="162.8082" y1="41.6832" y2="41.9828" /><line stroke="rgb(0%,0%,0%)" x1="162.8082" x2="164.2032" y1="41.9828" y2="44.3989" /><line stroke="rgb(0%,0%,0%)" x1="164.2032" x2="164.3101" y1="44.3989" y2="44.7279" /><line stroke="rgb(0%,0%,0%)" x1="164.3101" x2="165.1722" y1="44.7279" y2="47.3813" /><line stroke="rgb(0%,0%,0%)" x1="65.1722" x2="65.2084" y1="47.3813" y2="47.7254" /><line stroke="rgb(0%,0%,0%)" x1="65.2084" x2="65.5" y1="47.7254" y2="50.5" /><line stroke="rgb(0%,0%,0%)" x1="65.5" x2="65.4638" y1="50.5" y2="50.844" /><line stroke="rgb(0%,0%,0%)" x1="65.4638" x2="65.1722" y1="50.844" y2="53.6187" /><line stroke="rgb(0%,0%,0%)" x1="65.1722" x2="65.0653" y1="53.6187" y2="53.9477" /><line stroke="rgb(0%,0%,0%)" x1="65.0653" x2="64.2032" y1="53.9477" y2="56.6011" /><line stroke="rgb(0%,0%,0%)" x1="64.2032" x2="64.0302" y1="56.6011" y2="56.9006" /><line stroke="rgb(0%,0%,0%)" x1="64.0302" x2="62.6352" y1="56.9006" y2="59.3168" /><line stroke="rgb(0%,0%,0%)" x1="62.6352" x2="62.4038" y1="59.3168" y2="59.5739" /><line stroke="rgb(0%,0%,0%)" x1="62.4038" x2="60.537" y1="59.5739" y2="61.6472" /><line stroke="rgb(0%,0%,0%)" x1="60.537" x2="60.2571" y1="61.6472" y2="61.8505" /><line stroke="rgb(0%,0%,0%)" x1="60.2571" x2="58.0" y1="61.8505" y2="63.4904" /><line stroke="rgb(0%,0%,0%)" x1="58.0" x2="57.684" y1="63.4904" y2="63.6311" /><line stroke="rgb(0%,0%,0%)" x1="57.684" x2="55.1353" y1="63.6311" y2="64.7658" /><line stroke="rgb(0%,0%,0%)" x1="55.1353" x2="54.7969" y1="64.7658" y2="64.8378" /><line stroke="rgb(0%,0%,0%)" x1="54.7969" x2="52.0679" y1="64.8378" y2="65.4178" /><line stroke="rgb(0%,0%,0%)" x1="52.0679" x2="51.722" y1="65.4178" y2="65.4178" /><line stroke="rgb(0%,0%,0%)" x1="51.722" x2="48.9321" y1="65.4178" y2="65.4178" /><line stroke="rgb(0%,0%,0%)" x1="48.9321" x2="48.5937" y1="65.4178" y2="65.3459" /><line stroke="rgb(0%,0%,0%)" x1="48.5937" x2="45.8647" y1="65.3459" y2="64.7658" /><line stroke="rgb(0%,0%,0%)" x1="45.8647" x2="45.5487" y1="64.7658" y2="64.6251" /><line stroke="rgb(0%,0%,0%)" x1="45.5487" x2="43.0" y1="64.6251" y2="63.4904" /><line stroke="rgb(0%,0%,0%)" x1="43.0" x2="42.7201" y1="63.4904" y2="63.287" /><line stroke="rgb(0%,0%,0%)" x1="42.7201" x2="40.463" y1="63.287" y2="61.6472" /><line stroke="rgb(0%,0%,0%)" x1="40.463" x2="40.2316" y1="61.6472" y2="61.3901" /><line stroke="rgb(0%,0%,0%)" x1="40.2316" x2="38.3647" y1="61.3901" y2="59.3168" /><line stroke="rgb(0%,0%,0%)" x1="38.3647" x2="38.1918" y1="59.3168" y2="59.0172" /><line stroke="rgb(0%,0%,0%)" x1="38.1918" x2="36.7968" y1="59.0172" y2="56.6011" /><line stroke="rgb(0%,0%,0%)" x1="36.7968" x2="36.6899" y1="56.6011" y2="56.2721" /><line stroke="rgb(0%,0%,0%)" x1="36.6899" x2="35.8278" y1="56.2721" y2="53.6187" /><line stroke="rgb(0%,0%,0%)" x1="35.8278" x2="35.7916" y1="53.6187" y2="53.2746" /><line stroke="rgb(0%,0%,0%)" x1="35.7916" x2="35.5" y1="53.2746" y2="50.5" /><line stroke="rgb(0%,0%,0%)" x1="35.5" x2="35.5362" y1="50.5" y2="50.156" /><line stroke="rgb(0%,0%,0%)" x1="35.5362" x2="35.8278" y1="50.156" y2="47.3813" /><line stroke="rgb(0%,0%,0%)" x1="35.8278" x2="35.9347" y1="47.3813" y2="47.0523" /><line stroke="rgb(0%,0%,0%)" x1="35.9347" x2="36.7968" y1="47.0523" y2="44.3989" /><line stroke="rgb(0%,0%,0%)" x1="36.7968" x2="36.9698" y1="44.3989" y2="44.0994" /><line stroke="rgb(0%,0%,0%)" x1="36.9698" x2="38.3647" y1="44.0994" y2="41.6832" /><line stroke="rgb(0%,0%,0%)" x1="38.3647" x2="38.5962" y1="41.6832" y2="41.4261" /><line stroke="rgb(0%,0%,0%)" x1="38.5962" x2="40.463" y1="41.4261" y2="39.3528" /><line stroke="rgb(0%,0%,0%)" x1="40.463" x2="40.7429" y1="39.3528" y2="39.1495" /><line stroke="rgb(0%,0%,0%)" x1="40.7429" x2="43.0" y1="39.1495" y2="37.5096" /><line stroke="rgb(0%,0%,0%)" x1="43.0" x2="43.316" y1="37.5096" y2="37.3689" /><line stroke="rgb(0%,0%,0%)" x1="43.316" x2="45.8647" y1="37.3689" y2="36.2342" /><line stroke="rgb(0%,0%,0%)" x1="45.8647" x2="46.2031" y1="36.2342" y2="36.1622" /><line stroke="rgb(0%,0%,0%)" x1="46.2031" x2="48.9321" y1="36.1622" y2="35.5822" /><line stroke="rgb(0%,0%,0%)" x1="48.9321" x2="49.278" y1="35.5822" y2="35.5822" /><line stroke="rgb(0%,0%,0%)" x1="49.278" x2="52.0679" y1="35.5822" y2="35.5822" /><line stroke="rgb(0%,0%,0%)" x1="52.0679" x2="52.4063" y1="35.5822" y2="35.6541" /><line stroke="rgb(0%,0%,0%)" x1="52.4063" x2="55.1353" y1="35.6541" y2="36.2342" /><line stroke="rgb(0%,0%,0%)" x1="55.1353" x2="55.4513" y1="36.2342" y2="36.3749" /><line stroke="rgb(0%,0%,0%)" x1="55.4513" x2="58.0" y1="36.3749" y2="37.5096" /><line stroke="rgb(0%,0%,0%)" x1="58.0" x2="58.2799" y1="37.5096" y2="37.7129" /><line stroke="rgb(0%,0%,0%)" x1="58.2799" x2="60.537" y1="37.7129" y2="39.3528" /><line stroke="rgb(0%,0%,0%)" x1="60.537" x2="60.7684" y1="39.3528" y2="39.6099" /><line stroke="rgb(0%,0%,0%)" x1="60.7684" x2="62.6352" y1="39.6099" y2="41.6832" /><line stroke="rgb(0%,0%,0%)" x1="62.6352" x2="62.8082" y1="41.6832" y2="41.9828" /><line stroke="rgb(0%,0%,0%)" x1="62.8082" x2="64.2032" y1="41.9828" y2="44.3989" /><line stroke="rgb(0%,0%,0%)" x1="64.2032" x2="64.3101" y1="44.3989" y2="44.7279" /><line stroke="rgb(0%,0%,0%)" x1="64.3101" x2="65.1722" y1="44.7279" y2="47.3813" /></svg>