<?xml version="1.0" encoding="utf-8" ?>
<svg baseProfile="tiny" height="100%" version="1.2" width="100%" xmlns="http://www.w3.org/2000/svg" xmlns:ev="http://www.w3.org/2001/xml-events" xmlns:xlink="http://www.w3.org/1999/xlink"><defs /><line stroke="rgb(0%,0%,0%)" x1="351.9" x2="351.9" y1="0.5" y2="39.8139" /><line stroke="rgb(0%,0%,0%)" x1="351.9" x2="351.9" y1="39.8139" y2="100.5" /><line stroke="rgb(0%,0%,0%)" x1="283.625" x2="337.4479" y1="100.5" y2="100.5" /><line stroke="rgb(0%,0%,0%)" x1="337.4479" x2="339.325" y1="100.5" y2="100.5" /><line stroke="rgb(0%,0%,0%)" x1="339.325" x2="341.4694" y1="100.5" y2="100.5" /><line stroke="rgb(0%,0%,0%)" x1="341.4694" x2="343.8494" y1="100.5" y2="100.5" /><line stroke="rgb(0%,0%,0%)" x1="343.8494" x2="346.4201" y1="100.5" y2="100.5" /><line stroke="rgb(0%,0%,0%)" x1="346.4201" x2="349.1253" y1="100.5" y2="100.5" /><line stroke="rgb(0%,0%,0%)" x1="349.1253" x2="351.9" y1="100.5" y2="100.5" /><line stroke="rgb(0%,0%,0%)" x1="283.625" x2="92.0558" y1="100.5" y2="100.5" /><line stroke="rgb(0%,0%,0%)" x1="92.0558" x2="0.5" y1="100.5" y2="100.5" /><line stroke="rgb(0%,0%,0%)" x1="0.5" x2="92.0558" y1="0.5" y2="0.5" /><line stroke="rgb(0%,0%,0%)" x1="92.0558" x2="283.625" y1="0.5" y2="0.5" /><line stroke="rgb(0%,0%,0%)" x1="283.625" x2="337.4479" y1="0.5" y2="0.5" /><line stroke="rgb(0%,0%,0%)" x1="337.4479" x2="339.325" y1="0.5" y2="0.5" /><line stroke="rgb(0%,0%,0%)" x1="339.325" x2="341.4694" y1="0.5" y2="0.5" /><line stroke="rgb(0%,0%,0%)" x1="341.4694" x2="343.8494" y1="0.5" y2="0.5" /><line stroke="rgb(0%,0%,0%)" x1="343.8494" x2="346.4201" y1="0.5" y2="0.5" /><line stroke="rgb(0%,0%,0%)" x1="346.4201" x2="349.1253" y1="0.5" y2="0.5" /><line stroke="rgb(0%,0%,0%)" x1="349.1253" x2="351.9" y1="0.5" y2="0.5" /><line stroke="rgb(0%,0%,0%)" x1="0.5" x2="0.5" y1="0.5" y2="55.016" /><line stroke="rgb(0%,0%,0%)" x1="0.5" x2="0.5" y1="55.016" y2="100.5" /><line stroke="rgb(0%,0%,0%)" x1="165.1722" x2="165.2018" y1="47.3813" y2="47.663" /><line stroke="rgb(0%,0%,0%)" x1="165.2018" x2="165.5" y1="47.663" y2="50.5" /><line stroke="rgb(0%,0%,0%)" x1="165.5" x2="165.4704" y1="50.5" y2="50.7817" /><line stroke="rgb(0%,0%,0%)" x1="165.4704" x2="165.1722" y1="50.7817" y2="53.6187" /><line stroke="rgb(0%,0%,0%)" x1="165.1722" x2="165.0847" y1="53.6187" y2="53.888" /><line stroke="rgb(0%,0%,0%)" x1="165.0847" x2="164.2032" y1="53.888" y2="56.6011" /><line stroke="rgb(0%,0%,0%)" x1="164.2032" x2="164.0616" y1="56.6011" y2="56.8463" /><line stroke="rgb(0%,0%,0%)" x1="164.0616" x2="162.6353" y1="56.8463" y2="59.3168" /><line stroke="rgb(0%,0%,0%)" x1="162.6353" x2="162.4457" y1="59.3168" y2="59.5273" /><line stroke="rgb(0%,0%,0%)" x1="162.4457" x2="160.537" y1="59.5273" y2="61.6472" /><line stroke="rgb(0%,0%,0%)" x1="160.537" x2="160.3078" y1="61.6472" y2="61.8136" /><line stroke="rgb(0%,0%,0%)" x1="160.3078" x2="158.0" y1="61.8136" y2="63.4904" /><line stroke="rgb(0%,0%,0%)" x1="158.0" x2="157.7413" y1="63.4904" y2="63.6056" /><line stroke="rgb(0%,0%,0%)" x1="157.7413" x2="155.1353" y1="63.6056" y2="64.7658" /><line stroke="rgb(0%,0%,0%)" x1="155.1353" x2="154.8582" y1="64.7658" y2="64.8247" /><line stroke="rgb(0%,0%,0%)" x1="154.8582" x2="152.0679" y1="64.8247" y2="65.4178" /><line stroke="rgb(0%,0%,0%)" x1="152.0679" x2="151.7847" y1="65.4178" y2="65.4178" /><line stroke="rgb(0%,0%,0%)" x1="151.7847" x2="148.9321" y1="65.4178" y2="65.4178" /><line stroke="rgb(0%,0%,0%)" x1="148.9321" x2="148.655" y1="65.4178" y2="65.3589" /><line stroke="rgb(0%,0%,0%)" x1="148.655" x2="145.8647" y1="65.3589" y2="64.7658" /><line stroke="rgb(0%,0%,0%)" x1="145.8647" x2="145.606" y1="64.7658" y2="64.6506" /><line stroke="rgb(0%,0%,0%)" x1="145.606" x2="143.0" y1="64.6506" y2="63.4904" /><line stroke="rgb(0%,0%,0%)" x1="143.0" x2="142.7709" y1="63.4904" y2="63.3239" /><line stroke="rgb(0%,0%,0%)" x1="142.7709" x2="140.463" y1="63.3239" y2="61.6472" /><line stroke="rgb(0%,0%,0%)" x1="140.463" x2="140.2735" y1="61.6472" y2="61.4367" /><line stroke="rgb(0%,0%,0%)" x1="140.2735" x2="138.3647" y1="61.4367" y2="59.3168" /><line stroke="rgb(0%,0%,0%)" x1="138.3647" x2="138.2231" y1="59.3168" y2="59.0715" /><line stroke="rgb(0%,0%,0%)" x1="138.2231" x2="136.7968" y1="59.0715" y2="56.6011" /><line stroke="rgb(0%,0%,0%)" x1="136.7968" x2="136.7093" y1="56.6011" y2="56.3317" /><line stroke="rgb(0%,0%,0%)" x1="136.7093" x2="135.8278" y1="56.3317" y2="53.6187" /><line stroke="rgb(0%,0%,0%)" x1="135.8278" x2="135.7982" y1="53.6187" y2="53.337" /><line stroke="rgb(0%,0%,0%)" x1="135.7982" x2="135.5" y1="53.337" y2="50.5" /><line stroke="rgb(0%,0%,0%)" x1="135.5" x2="135.5296" y1="50.5" y2="50.2183" /><line stroke="rgb(0%,0%,0%)" x1="135.5296" x2="135.8278" y1="50.2183" y2="47.3813" /><line stroke="rgb(0%,0%,0%)" x1="135.8278" x2="135.9153" y1="47.3813" y2="47.112" /><line stroke="rgb(0%,0%,0%)" x1="135.9153" x2="136.7968" y1="47.112" y2="44.3989" /><line stroke="rgb(0%,0%,0%)" x1="136.7968" x2="136.9384" y1="44.3989" y2="44.1537" /><line stroke="rgb(0%,0%,0%)" x1="136.9384" x2="138.3647" y1="44.1537" y2="41.6832" /><line stroke="rgb(0%,0%,0%)" x1="138.3647" x2="138.5543" y1="41.6832" y2="41.4727" /><line stroke="rgb(0%,0%,0%)" x1="138.5543" x2="140.463" y1="41.4727" y2="39.3528" /><line stroke="rgb(0%,0%,0%)" x1="140.463" x2="140.6922" y1="39.3528" y2="39.1863" /><line stroke="rgb(0%,0%,0%)" x1="140.6922" x2="143.0" y1="39.1863" y2="37.5096" /><line stroke="rgb(0%,0%,0%)" x1="143.0" x2="143.2587" y1="37.5096" y2="37.3944" /><line stroke="rgb(0%,0%,0%)" x1="143.2587" x2="145.8647" y1="37.3944" y2="36.2342" /><line stroke="rgb(0%,0%,0%)" x1="145.8647" x2="146.1418" y1="36.2342" y2="36.1753" /><line stroke="rgb(0%,0%,0%)" x1="146.1418" x2="148.9321" y1="36.1753" y2="35.5822" /><line stroke="rgb(0%,0%,0%)" x1="148.9321" x2="149.2153" y1="35.5822" y2="35.5822" /><line stroke="rgb(0%,0%,0%)" x1="149.2153" x2="152.0679" y1="35.5822" y2="35.5822" /><line stroke="rgb(0%,0%,0%)" x1="152.0679" x2="152.345" y1="35.5822" y2="35.6411" /><line stroke="rgb(0%,0%,0%)" x1="152.345" x2="155.1353" y1="35.6411" y2="36.2342" /><line stroke="rgb(0%,0%,0%)" x1="155.1353" x2="155.394" y1="36.2342" y2="36.3494" /><line stroke="rgb(0%,0%,0%)" x1="155.394" x2="158.0" y1="36.3494" y2="37.5096" /><line stroke="rgb(0%,0%,0%)" x1="158.0" x2="158.2291" y1="37.5096" y2="37.6761" /><line stroke="rgb(0%,0%,0%)" x1="158.2291" x2="160.537" y1="37.6761" y2="39.3528" /><line stroke="rgb(0%,0%,0%)" x1="160.537" x2="160.7265" y1="39.3528" y2="39.5633" /><line stroke="rgb(0%,0%,0%)" x1="160.7265" x2="162.6353" y1="39.5633" y2="41.6832" /><line stroke="rgb(0%,0%,0%)" x1="162.6353" x2="162.7769" y1="41.6832" y2="41.9285" /><line stroke="rgb(0%,0%,0%)" x1="162.7769" x2="164.2032" y1="41.9285" y2="44.3989" /><line stroke="rgb(0%,0%,0%)" x1="164.2032" x2="164.2907" y1="44.3989" y2="44.6683" /><line stroke="rgb(0%,0%,0%)" x1="164.2907" x2="165.1722" y1="44.6683" y2="47.3813" /><line stroke="rgb(0%,0%,0%)" x1="65.1722" x2="65.2018" y1="47.3813" y2="47.663" /><line stroke="rgb(0%,0%,0%)" x1="65.2018" x2="65.5" y1="47.663" y2="50.5" /><line stroke="rgb(0%,0%,0%)" x1="65.5" x2="65.4704" y1="50.5" y2="50.7817" /><line stroke="rgb(0%,0%,0%)" x1="65.4704" x2="65.1722" y1="50.7817" y2="53.6187" /><line stroke="rgb(0%,0%,0%)" x1="65.1722" x2="65.0847" y1="53.6187" y2="53.888" /><line stroke="rgb(0%,0%,0%)" x1="65.0847" x2="64.2032" y1="53.888" y2="56.6011" /><line stroke="rgb(0%,0%,0%)" x1="64.2032" x2="64.0616" y1="56.6011" y2="56.8463" /><line stroke="rgb(0%,0%,0%)" x1="64.0616" x2="62.6352" y1="56.8463" y2="59.3168" /><line stroke="rgb(0%,0%,0%)" x1="62.6352" x2="62.4457" y1="59.3168" y2="59.5273" /><line stroke="rgb(0%,0%,0%)" x1="62.4457" x2="60.537" y1="59.5273" y2="61.6472" /><line stroke="rgb(0%,0%,0%)" x1="60.537" x2="60.3078" y1="61.6472" y2="61.8136" /><line stroke="rgb(0%,0%,0%)" x1="60.3078" x2="58.0" y1="61.8136" y2="63.4904" /><line stroke="rgb(0%,0%,0%)" x1="58.0" x2="57.7413" y1="63.4904" y2="63.6056" /><line stroke="rgb(0%,0%,0%)" x1="57.7413" x2="55.1353" y1="63.6056" y2="64.7658" /><line stroke="rgb(0%,0%,0%)" x1="55.1353" x2="54.8582" y1="64.7658" y2="64.8247" /><line stroke="rgb(0%,0%,0%)" x1="54.8582" x2="52.0679" y1="64.8247" y2="65.4178" /><line stroke="rgb(0%,0%,0%)" x1="52.0679" x2="51.7847" y1="65.4178" y2="65.4178" /><line stroke="rgb(0%,0%,0%)" x1="51.7847" x2="48.9321" y1="65.4178" y2="65.4178" /><line stroke="rgb(0%,0%,0%)" x1="48.9321" x2="48.655" y1="65.4178" y2="65.3589" /><line stroke="rgb(0%,0%,0%)" x1="48.655" x2="45.8647" y1="65.3589" y2="64.7658" /><line stroke="rgb(0%,0%,0%)" x1="45.8647" x2="45.606" y1="64.7658" y2="64.6506" /><line stroke="rgb(0%,0%,0%)" x1="45.606" x2="43.0" y1="64.6506" y2="63.4904" /><line stroke="rgb(0%,0%,0%)" x1="43.0" x2="42.7709" y1="63.4904" y2="63.3239" /><line stroke="rgb(0%,0%,0%)" x1="42.7709" x2="40.463" y1="63.3239" y2="61.6472" /><line stroke="rgb(0%,0%,0%)" x1="40.463" x2="40.2735" y1="61.6472" y2="61.4367" /><line stroke="rgb(0%,0%,0%)" x1="40.2735" x2="38.3647" y1="61.4367" y2="59.3168" /><line stroke="rgb(0%,0%,0%)" x1="38.3647" x2="38.2231" y1="59.3168" y2="59.0715" /><line stroke="rgb(0%,0%,0%)" x1="38.2231" x2="36.7968" y1="59.0715" y2="56.6011" /><line stroke="rgb(0%,0%,0%)" x1="36.7968" x2="36.7093" y1="56.6011" y2="56.3317" /><line stroke="rgb(0%,0%,0%)" x1="36.7093" x2="35.8278" y1="56.3317" y2="53.6187" /><line stroke="rgb(0%,0%,0%)" x1="35.8278" x2="35.7982" y1="53.6187" y2="53.337" /><line stroke="rgb(0%,0%,0%)" x1="35.7982" x2="35.5" y1="53.337" y2="50.5" /><line stroke="rgb(0%,0%,0%)" x1="35.5" x2="35.5296" y1="50.5" y2="50.2183" /><line stroke="rgb(0%,0%,0%)" x1="35.5296" x2="35.8278" y1="50.2183" y2="47.3813" /><line stroke="rgb(0%,0%,0%)" x1="35.8278" x2="35.9153" y1="47.3813" y2="47.112" /><line stroke="rgb(0%,0%,0%)" x1="35.9153" x2="36.7968" y1="47.112" y2="44.3989" /><line stroke="rgb(0%,0%,0%)" x1="36.7968" x2="36.9384" y1="44.3989" y2="44.1537" /><line stroke="rgb(0%,0%,0%)" x1="36.9384" x2="38.3647" y1="44.1537" y2="41.6832" /><line stroke="rgb(0%,0%,0%)" x1="38.3647" x2="38.5543" y1="41.6832" y2="41.4727" /><line stroke="rgb(0%,0%,0%)" x1="38.5543" x2="40.463" y1="41.4727" y2="39.3528" /><line stroke="rgb(0%,0%,0%)" x1="40.463" x2="40.6922" y1="39.3528" y2="39.1863" /><line stroke="rgb(0%,0%,0%)" x1="40.6922" x2="43.0" y1="39.1863" y2="37.5096" /><line stroke="rgb(0%,0%,0%)" x1="43.0" x2="43.2587" y1="37.5096" y2="37.3944" /><line stroke="rgb(0%,0%,0%)" x1="43.2587" x2="45.8647" y1="37.3944" y2="36.2342" /><line stroke="rgb(0%,0%,0%)" x1="45.8647" x2="46.1418" y1="36.2342" y2="36.1753" /><line stroke="rgb(0%,0%,0%)" x1="46.1418" x2="48.9321" y1="36.1753" y2="35.5822" /><line stroke="rgb(0%,0%,0%)" x1="48.9321" x2="49.2153" y1="35.5822" y2="35.5822" /><line stroke="rgb(0%,0%,0%)" x1="49.2153" x2="52.0679" y1="35.5822" y2="35.5822" /><line stroke="rgb(0%,0%,0%)" x1="52.0679" x2="52.345" y1="35.5822" y2="35.6411" /><line stroke="rgb(0%,0%,0%)" x1="52.345" x2="55.1353" y1="35.6411" y2="36.2342" /><line stroke="rgb(0%,0%,0%)" x1="55.1353" x2="55.394" y1="36.2342" y2="36.3494" /><line stroke="rgb(0%,0%,0%)" x1="55.394" x2="58.0" y1="36.3494" y2="37.5096" /><line stroke="rgb(0%,0%,0%)" x1="58.0" x2="58.2291" y1="37.5096" y2="37.6761" /><line stroke="rgb(0%,0%,0%)" x1="58.2291" x2="60.537" y1="37.6761" y2="39.3528" /><line stroke="rgb(0%,0%,0%)" x1="60.537" x2="60.7265" y1="39.3528" y2="39.5633" /><line stroke="rgb(0%,0%,0%)" x1="60.7265" x2="62.6352" y1="39.5633" y2="41.6832" /><line stroke="rgb(0%,0%,0%)" x1="62.6352" x2="62.7769" y1="41.6832" y2="41.9285" /><line stroke="rgb(0%,0%,0%)" x1="62.7769" x2="64.2032" y1="41.9285" y2="44.3989" /><line stroke="rgb(0%,0%,0%)" x1="64.2032" x2="64.2907" y1="44.3989" y2="44.6683" /><line stroke="rgb(0%,0%,0%)" x1="64.2907" x2="65.1722" y1="44.6683" y2="47.3813" /></svg>