<?xml version="1.0" encoding="utf-8" ?>
<svg baseProfile="tiny" height="100%" version="1.2" width="100%" xmlns="http://www.w3.org/2000/svg" xmlns:ev="http://www.w3.org/2001/xml-events" xmlns:xlink="http://www.w3.org/1999/xlink"><defs /><line stroke="rgb(0%,0%,0%)" x1="351.9" x2="351.9" y1="0.5" y2="40.6779" /><line stroke="rgb(0%,0%,0%)" x1="351.9" x2="351.9" y1="40.6779" y2="100.5" /><line stroke="rgb(0%,0%,0%)" x1="282.1244" x2="337.1303" y1="100.5" y2="100.5" /><line stroke="rgb(0%,0%,0%)" x1="337.1303" x2="339.0486" y1="100.5" y2="100.5" /><line stroke="rgb(0%,0%,0%)" x1="339.0486" x2="341.2402" y1="100.5" y2="100.5" /><line stroke="rgb(0%,0%,0%)" x1="341.2402" x2="343.6725" y1="100.5" y2="100.5" /><line stroke="rgb(0%,0%,0%)" x1="343.6725" x2="346.2997" y1="100.5" y2="100.5" /><line stroke="rgb(0%,0%,0%)" x1="346.2997" x2="349.0643" y1="100.5" y2="100.5" /><line stroke="rgb(0%,0%,0%)" x1="349.0643" x2="351.9" y1="100.5" y2="100.5" /><line stroke="rgb(0%,0%,0%)" x1="282.1244" x2="94.068" y1="100.5" y2="100.5" /><line stroke="rgb(0%,0%,0%)" x1="94.068" x2="0.5" y1="100.5" y2="100.5" /><line stroke="rgb(0%,0%,0%)" x1="0.5" x2="94.068" y1="0.5" y2="0.5" /><line stroke="rgb(0%,0%,0%)" x1="94.068" x2="282.1244" y1="0.5" y2="0.5" /><line stroke="rgb(0%,0%,0%)" x1="282.1244" x2="337.1303" y1="0.5" y2="0.5" /><line stroke="rgb(0%,0%,0%)" x1="337.1303" x2="339.0486" y1="0.5" y2="0.5" /><line stroke="rgb(0%,0%,0%)" x1="339.0486" x2="341.2402" y1="0.5" y2="0.5" /><line stroke="rgb(0%,0%,0%)" x1="341.2402" x2="343.6725" y1="0.5" y2="0.5" /><line stroke="rgb(0%,0%,0%)" x1="343.6725" x2="346.2997" y1="0.5" y2="0.5" /><line stroke="rgb(0%,0%,0%)" x1="346.2997" x2="349.0643" y1="0.5" y2="0.5" /><line stroke="rgb(0%,0%,0%)" x1="349.0643" x2="351.9" y1="0.5" y2="0.5" /><line stroke="rgb(0%,0%,0%)" x1="0.5" x2="0.5" y1="0.5" y2="54.0164" /><line stroke="rgb(0%,0%,0%)" x1="0.5" x2="0.5" y1="54.0164" y2="100.5" /><line stroke="rgb(0%,0%,0%)" x1="165.1722" x2="165.1953" y1="47.3813" y2="47.6007" /><line stroke="rgb(0%,0%,0%)" x1="165.1953" x2="165.5" y1="47.6007" y2="50.5" /><line stroke="rgb(0%,0%,0%)" x1="165.5" x2="165.4769" y1="50.5" y2="50.7193" /><line stroke="rgb(0%,0%,0%)" x1="165.4769" x2="165.1722" y1="50.7193" y2="53.6187" /><line stroke="rgb(0%,0%,0%)" x1="165.1722" x2="165.1041" y1="53.6187" y2="53.8284" /><line stroke="rgb(0%,0%,0%)" x1="165.1041" x2="164.2032" y1="53.8284" y2="56.6011" /><line stroke="rgb(0%,0%,0%)" x1="164.2032" x2="164.0929" y1="56.6011" y2="56.792" /><line stroke="rgb(0%,0%,0%)" x1="164.0929" x2="162.6353" y1="56.792" y2="59.3168" /><line stroke="rgb(0%,0%,0%)" x1="162.6353" x2="162.4877" y1="59.3168" y2="59.4807" /><line stroke="rgb(0%,0%,0%)" x1="162.4877" x2="160.537" y1="59.4807" y2="61.6472" /><line stroke="rgb(0%,0%,0%)" x1="160.537" x2="160.3585" y1="61.6472" y2="61.7768" /><line stroke="rgb(0%,0%,0%)" x1="160.3585" x2="158.0" y1="61.7768" y2="63.4904" /><line stroke="rgb(0%,0%,0%)" x1="158.0" x2="157.7985" y1="63.4904" y2="63.5801" /><line stroke="rgb(0%,0%,0%)" x1="157.7985" x2="155.1353" y1="63.5801" y2="64.7658" /><line stroke="rgb(0%,0%,0%)" x1="155.1353" x2="154.9195" y1="64.7658" y2="64.8117" /><line stroke="rgb(0%,0%,0%)" x1="154.9195" x2="152.0679" y1="64.8117" y2="65.4178" /><line stroke="rgb(0%,0%,0%)" x1="152.0679" x2="151.8474" y1="65.4178" y2="65.4178" /><line stroke="rgb(0%,0%,0%)" x1="151.8474" x2="148.9321" y1="65.4178" y2="65.4178" /><line stroke="rgb(0%,0%,0%)" x1="148.9321" x2="148.7164" y1="65.4178" y2="65.372" /><line stroke="rgb(0%,0%,0%)" x1="148.7164" x2="145.8647" y1="65.372" y2="64.7658" /><line stroke="rgb(0%,0%,0%)" x1="145.8647" x2="145.6633" y1="64.7658" y2="64.6761" /><line stroke="rgb(0%,0%,0%)" x1="145.6633" x2="143.0" y1="64.6761" y2="63.4904" /><line stroke="rgb(0%,0%,0%)" x1="143.0" x2="142.8216" y1="63.4904" y2="63.3608" /><line stroke="rgb(0%,0%,0%)" x1="142.8216" x2="140.463" y1="63.3608" y2="61.6472" /><line stroke="rgb(0%,0%,0%)" x1="140.463" x2="140.3155" y1="61.6472" y2="61.4833" /><line stroke="rgb(0%,0%,0%)" x1="140.3155" x2="138.3647" y1="61.4833" y2="59.3168" /><line stroke="rgb(0%,0%,0%)" x1="138.3647" x2="138.2545" y1="59.3168" y2="59.1258" /><line stroke="rgb(0%,0%,0%)" x1="138.2545" x2="136.7968" y1="59.1258" y2="56.6011" /><line stroke="rgb(0%,0%,0%)" x1="136.7968" x2="136.7287" y1="56.6011" y2="56.3913" /><line stroke="rgb(0%,0%,0%)" x1="136.7287" x2="135.8278" y1="56.3913" y2="53.6187" /><line stroke="rgb(0%,0%,0%)" x1="135.8278" x2="135.8047" y1="53.6187" y2="53.3993" /><line stroke="rgb(0%,0%,0%)" x1="135.8047" x2="135.5" y1="53.3993" y2="50.5" /><line stroke="rgb(0%,0%,0%)" x1="135.5" x2="135.5231" y1="50.5" y2="50.2807" /><line stroke="rgb(0%,0%,0%)" x1="135.5231" x2="135.8278" y1="50.2807" y2="47.3813" /><line stroke="rgb(0%,0%,0%)" x1="135.8278" x2="135.8959" y1="47.3813" y2="47.1716" /><line stroke="rgb(0%,0%,0%)" x1="135.8959" x2="136.7968" y1="47.1716" y2="44.3989" /><line stroke="rgb(0%,0%,0%)" x1="136.7968" x2="136.9071" y1="44.3989" y2="44.208" /><line stroke="rgb(0%,0%,0%)" x1="136.9071" x2="138.3647" y1="44.208" y2="41.6832" /><line stroke="rgb(0%,0%,0%)" x1="138.3647" x2="138.5123" y1="41.6832" y2="41.5193" /><line stroke="rgb(0%,0%,0%)" x1="138.5123" x2="140.463" y1="41.5193" y2="39.3528" /><line stroke="rgb(0%,0%,0%)" x1="140.463" x2="140.6415" y1="39.3528" y2="39.2232" /><line stroke="rgb(0%,0%,0%)" x1="140.6415" x2="143.0" y1="39.2232" y2="37.5096" /><line stroke="rgb(0%,0%,0%)" x1="143.0" x2="143.2015" y1="37.5096" y2="37.4199" /><line stroke="rgb(0%,0%,0%)" x1="143.2015" x2="145.8647" y1="37.4199" y2="36.2342" /><line stroke="rgb(0%,0%,0%)" x1="145.8647" x2="146.0805" y1="36.2342" y2="36.1883" /><line stroke="rgb(0%,0%,0%)" x1="146.0805" x2="148.9321" y1="36.1883" y2="35.5822" /><line stroke="rgb(0%,0%,0%)" x1="148.9321" x2="149.1526" y1="35.5822" y2="35.5822" /><line stroke="rgb(0%,0%,0%)" x1="149.1526" x2="152.0679" y1="35.5822" y2="35.5822" /><line stroke="rgb(0%,0%,0%)" x1="152.0679" x2="152.2836" y1="35.5822" y2="35.628" /><line stroke="rgb(0%,0%,0%)" x1="152.2836" x2="155.1353" y1="35.628" y2="36.2342" /><line stroke="rgb(0%,0%,0%)" x1="155.1353" x2="155.3367" y1="36.2342" y2="36.3239" /><line stroke="rgb(0%,0%,0%)" x1="155.3367" x2="158.0" y1="36.3239" y2="37.5096" /><line stroke="rgb(0%,0%,0%)" x1="158.0" x2="158.1784" y1="37.5096" y2="37.6392" /><line stroke="rgb(0%,0%,0%)" x1="158.1784" x2="160.537" y1="37.6392" y2="39.3528" /><line stroke="rgb(0%,0%,0%)" x1="160.537" x2="160.6845" y1="39.3528" y2="39.5167" /><line stroke="rgb(0%,0%,0%)" x1="160.6845" x2="162.6353" y1="39.5167" y2="41.6832" /><line stroke="rgb(0%,0%,0%)" x1="162.6353" x2="162.7455" y1="41.6832" y2="41.8742" /><line stroke="rgb(0%,0%,0%)" x1="162.7455" x2="164.2032" y1="41.8742" y2="44.3989" /><line stroke="rgb(0%,0%,0%)" x1="164.2032" x2="164.2713" y1="44.3989" y2="44.6087" /><line stroke="rgb(0%,0%,0%)" x1="164.2713" x2="165.1722" y1="44.6087" y2="47.3813" /><line stroke="rgb(0%,0%,0%)" x1="65.1722" x2="65.1953" y1="47.3813" y2="47.6007" /><line stroke="rgb(0%,0%,0%)" x1="65.1953" x2="65.5" y1="47.6007" y2="50.5" /><line stroke="rgb(0%,0%,0%)" x1="65.5" x2="65.4769" y1="50.5" y2="50.7193" /><line stroke="rgb(0%,0%,0%)" x1="65.4769" x2="65.1722" y1="50.7193" y2="53.6187" /><line stroke="rgb(0%,0%,0%)" x1="65.1722" x2="65.1041" y1="53.6187" y2="53.8284" /><line stroke="rgb(0%,0%,0%)" x1="65.1041" x2="64.2032" y1="53.8284" y2="56.6011" /><line stroke="rgb(0%,0%,0%)" x1="64.2032" x2="64.0929" y1="56.6011" y2="56.792" /><line stroke="rgb(0%,0%,0%)" x1="64.0929" x2="62.6352" y1="56.792" y2="59.3168" /><line stroke="rgb(0%,0%,0%)" x1="62.6352" x2="62.4877" y1="59.3168" y2="59.4807" /><line stroke="rgb(0%,0%,0%)" x1="62.4877" x2="60.537" y1="59.4807" y2="61.6472" /><line stroke="rgb(0%,0%,0%)" x1="60.537" x2="60.3585" y1="61.6472" y2="61.7768" /><line stroke="rgb(0%,0%,0%)" x1="60.3585" x2="58.0" y1="61.7768" y2="63.4904" /><line stroke="rgb(0%,0%,0%)" x1="58.0" x2="57.7985" y1="63.4904" y2="63.5801" /><line stroke="rgb(0%,0%,0%)" x1="57.7985" x2="55.1353" y1="63.5801" y2="64.7658" /><line stroke="rgb(0%,0%,0%)" x1="55.1353" x2="54.9195" y1="64.7658" y2="64.8117" /><line stroke="rgb(0%,0%,0%)" x1="54.9195" x2="52.0679" y1="64.8117" y2="65.4178" /><line stroke="rgb(0%,0%,0%)" x1="52.0679" x2="51.8474" y1="65.4178" y2="65.4178" /><line stroke="rgb(0%,0%,0%)" x1="51.8474" x2="48.9321" y1="65.4178" y2="65.4178" /><line stroke="rgb(0%,0%,0%)" x1="48.9321" x2="48.7163" y1="65.4178" y2="65.372" /><line stroke="rgb(0%,0%,0%)" x1="48.7163" x2="45.8647" y1="65.372" y2="64.7658" /><line stroke="rgb(0%,0%,0%)" x1="45.8647" x2="45.6633" y1="64.7658" y2="64.6761" /><line stroke="rgb(0%,0%,0%)" x1="45.6633" x2="43.0" y1="64.6761" y2="63.4904" /><line stroke="rgb(0%,0%,0%)" x1="43.0" x2="42.8216" y1="63.4904" y2="63.3608" /><line stroke="rgb(0%,0%,0%)" x1="42.8216" x2="40.463" y1="63.3608" y2="61.6472" /><line stroke="rgb(0%,0%,0%)" x1="40.463" x2="40.3155" y1="61.6472" y2="61.4833" /><line stroke="rgb(0%,0%,0%)" x1="40.3155" x2="38.3647" y1="61.4833" y2="59.3168" /><line stroke="rgb(0%,0%,0%)" x1="38.3647" x2="38.2545" y1="59.3168" y2="59.1258" /><line stroke="rgb(0%,0%,0%)" x1="38.2545" x2="36.7968" y1="59.1258" y2="56.6011" /><line stroke="rgb(0%,0%,0%)" x1="36.7968" x2="36.7287" y1="56.6011" y2="56.3913" /><line stroke="rgb(0%,0%,0%)" x1="36.7287" x2="35.8278" y1="56.3913" y2="53.6187" /><line stroke="rgb(0%,0%,0%)" x1="35.8278" x2="35.8047" y1="53.6187" y2="53.3993" /><line stroke="rgb(0%,0%,0%)" x1="35.8047" x2="35.5" y1="53.3993" y2="50.5" /><line stroke="rgb(0%,0%,0%)" x1="35.5" x2="35.5231" y1="50.5" y2="50.2807" /><line stroke="rgb(0%,0%,0%)" x1="35.5231" x2="35.8278" y1="50.2807" y2="47.3813" /><line stroke="rgb(0%,0%,0%)" x1="35.8278" x2="35.8959" y1="47.3813" y2="47.1716" /><line stroke="rgb(0%,0%,0%)" x1="35.8959" x2="36.7968" y1="47.1716" y2="44.3989" /><line stroke="rgb(0%,0%,0%)" x1="36.7968" x2="36.9071" y1="44.3989" y2="44.208" /><line stroke="rgb(0%,0%,0%)" x1="36.9071" x2="38.3647" y1="44.208" y2="41.6832" /><line stroke="rgb(0%,0%,0%)" x1="38.3647" x2="38.5123" y1="41.6832" y2="41.5193" /><line stroke="rgb(0%,0%,0%)" x1="38.5123" x2="40.463" y1="41.5193" y2="39.3528" /><line stroke="rgb(0%,0%,0%)" x1="40.463" x2="40.6415" y1="39.3528" y2="39.2232" /><line stroke="rgb(0%,0%,0%)" x1="40.6415" x2="43.0" y1="39.2232" y2="37.5096" /><line stroke="rgb(0%,0%,0%)" x1="43.0" x2="43.2015" y1="37.5096" y2="37.4199" /><line stroke="rgb(0%,0%,0%)" x1="43.2015" x2="45.8647" y1="37.4199" y2="36.2342" /><line stroke="rgb(0%,0%,0%)" x1="45.8647" x2="46.0805" y1="36.2342" y2="36.1883" /><line stroke="rgb(0%,0%,0%)" x1="46.0805" x2="48.9321" y1="36.1883" y2="35.5822" /><line stroke="rgb(0%,0%,0%)" x1="48.9321" x2="49.1526" y1="35.5822" y2="35.5822" /><line stroke="rgb(0%,0%,0%)" x1="49.1526" x2="52.0679" y1="35.5822" y2="35.5822" /><line stroke="rgb(0%,0%,0%)" x1="52.0679" x2="52.2836" y1="35.5822" y2="35.628" /><line stroke="rgb(0%,0%,0%)" x1="52.2836" x2="55.1353" y1="35.628" y2="36.2342" /><line stroke="rgb(0%,0%,0%)" x1="55.1353" x2="55.3367" y1="36.2342" y2="36.3239" /><line stroke="rgb(0%,0%,0%)" x1="55.3367" x2="58.0" y1="36.3239" y2="37.5096" /><line stroke="rgb(0%,0%,0%)" x1="58.0" x2="58.1784" y1="37.5096" y2="37.6392" /><line stroke="rgb(0%,0%,0%)" x1="58.1784" x2="60.537" y1="37.6392" y2="39.3528" /><line stroke="rgb(0%,0%,0%)" x1="60.537" x2="60.6845" y1="39.3528" y2="39.5167" /><line stroke="rgb(0%,0%,0%)" x1="60.6845" x2="62.6352" y1="39.5167" y2="41.6832" /><line stroke="rgb(0%,0%,0%)" x1="62.6352" x2="62.7455" y1="41.6832" y2="41.8742" /><line stroke="rgb(0%,0%,0%)" x1="62.7455" x2="64.2032" y1="41.8742" y2="44.3989" /><line stroke="rgb(0%,0%,0%)" x1="64.2032" x2="64.2713" y1="44.3989" y2="44.6087" /><line stroke="rgb(0%,0%,0%)" x1="64.2713" x2="65.1722" y1="44.6087" y2="47.3813" /></svg>