<?xml version="1.0" encoding="utf-8" ?>
<svg baseProfile="tiny" height="100%" version="1.2" width="100%" xmlns="http://www.w3.org/2000/svg" xmlns:ev="http://www.w3.org/2001/xml-events" xmlns:xlink="http://www.w3.org/1999/xlink"><defs /><line stroke="rgb(0%,0%,0%)" x1="351.9" x2="351.9" y1="0.5" y2="41.542" /><line stroke="rgb(0%,0%,0%)" x1="351.9" x2="351.9" y1="41.542" y2="100.5" /><line stroke="rgb(0%,0%,0%)" x1="280.6239" x2="336.8126" y1="100.5" y2="100.5" /><line stroke="rgb(0%,0%,0%)" x1="336.8126" x2="338.7722" y1="100.5" y2="100.5" /><line stroke="rgb(0%,0%,0%)" x1="338.7722" x2="341.0109" y1="100.5" y2="100.5" /><line stroke="rgb(0%,0%,0%)" x1="341.0109" x2="343.4955" y1="100.5" y2="100.5" /><line stroke="rgb(0%,0%,0%)" x1="343.4955" x2="346.1793" y1="100.5" y2="100.5" /><line stroke="rgb(0%,0%,0%)" x1="346.1793" x2="349.0033" y1="100.5" y2="100.5" /><line stroke="rgb(0%,0%,0%)" x1="349.0033" x2="351.9" y1="100.5" y2="100.5" /><line stroke="rgb(0%,0%,0%)" x1="280.6239" x2="96.0802" y1="100.5" y2="100.5" /><line stroke="rgb(0%,0%,0%)" x1="96.0802" x2="0.5" y1="100.5" y2="100.5" /><line stroke="rgb(0%,0%,0%)" x1="0.5" x2="96.0802" y1="0.5" y2="0.5" /><line stroke="rgb(0%,0%,0%)" x1="96.0802" x2="280.6239" y1="0.5" y2="0.5" /><line stroke="rgb(0%,0%,0%)" x1="280.6239" x2="336.8126" y1="0.5" y2="0.5" /><line stroke="rgb(0%,0%,0%)" x1="336.8126" x2="338.7722" y1="0.5" y2="0.5" /><line stroke="rgb(0%,0%,0%)" x1="338.7722" x2="341.0109" y1="0.5" y2="0.5" /><line stroke="rgb(0%,0%,0%)" x1="341.0109" x2="343.4955" y1="0.5" y2="0.5" /><line stroke="rgb(0%,0%,0%)" x1="343.4955" x2="346.1793" y1="0.5" y2="0.5" /><line stroke="rgb(0%,0%,0%)" x1="346.1793" x2="349.0033" y1="0.5" y2="0.5" /><line stroke="rgb(0%,0%,0%)" x1="349.0033" x2="351.9" y1="0.5" y2="0.5" /><line stroke="rgb(0%,0%,0%)" x1="0.5" x2="0.5" y1="0.5" y2="53.0167" /><line stroke="rgb(0%,0%,0%)" x1="0.5" x2="0.5" y1="53.0167" y2="100.5" /><line stroke="rgb(0%,0%,0%)" x1="165.1722" x2="165.1887" y1="47.3813" y2="47.5383" /><line stroke="rgb(0%,0%,0%)" x1="165.1887" x2="165.5" y1="47.5383" y2="50.5" /><line stroke="rgb(0%,0%,0%)" x1="165.5" x2="165.4835" y1="50.5" y2="50.657" /><line stroke="rgb(0%,0%,0%)" x1="165.4835" x2="165.1722" y1="50.657" y2="53.6187" /><line stroke="rgb(0%,0%,0%)" x1="165.1722" x2="165.1234" y1="53.6187" y2="53.7688" /><line stroke="rgb(0%,0%,0%)" x1="165.1234" x2="164.2032" y1="53.7688" y2="56.6011" /><line stroke="rgb(0%,0%,0%)" x1="164.2032" x2="164.1243" y1="56.6011" y2="56.7377" /><line stroke="rgb(0%,0%,0%)" x1="164.1243" x2="162.6353" y1="56.7377" y2="59.3168" /><line stroke="rgb(0%,0%,0%)" x1="162.6353" x2="162.5296" y1="59.3168" y2="59.4341" /><line stroke="rgb(0%,0%,0%)" x1="162.5296" x2="160.537" y1="59.4341" y2="61.6472" /><line stroke="rgb(0%,0%,0%)" x1="160.537" x2="160.4093" y1="61.6472" y2="61.7399" /><line stroke="rgb(0%,0%,0%)" x1="160.4093" x2="158.0" y1="61.7399" y2="63.4904" /><line stroke="rgb(0%,0%,0%)" x1="158.0" x2="157.8558" y1="63.4904" y2="63.5546" /><line stroke="rgb(0%,0%,0%)" x1="157.8558" x2="155.1353" y1="63.5546" y2="64.7658" /><line stroke="rgb(0%,0%,0%)" x1="155.1353" x2="154.9809" y1="64.7658" y2="64.7987" /><line stroke="rgb(0%,0%,0%)" x1="154.9809" x2="152.0679" y1="64.7987" y2="65.4178" /><line stroke="rgb(0%,0%,0%)" x1="152.0679" x2="151.9101" y1="65.4178" y2="65.4178" /><line stroke="rgb(0%,0%,0%)" x1="151.9101" x2="148.9321" y1="65.4178" y2="65.4178" /><line stroke="rgb(0%,0%,0%)" x1="148.9321" x2="148.7777" y1="65.4178" y2="65.385" /><line stroke="rgb(0%,0%,0%)" x1="148.7777" x2="145.8647" y1="65.385" y2="64.7658" /><line stroke="rgb(0%,0%,0%)" x1="145.8647" x2="145.7205" y1="64.7658" y2="64.7016" /><line stroke="rgb(0%,0%,0%)" x1="145.7205" x2="143.0" y1="64.7016" y2="63.4904" /><line stroke="rgb(0%,0%,0%)" x1="143.0" x2="142.8723" y1="63.4904" y2="63.3976" /><line stroke="rgb(0%,0%,0%)" x1="142.8723" x2="140.463" y1="63.3976" y2="61.6472" /><line stroke="rgb(0%,0%,0%)" x1="140.463" x2="140.3574" y1="61.6472" y2="61.5299" /><line stroke="rgb(0%,0%,0%)" x1="140.3574" x2="138.3647" y1="61.5299" y2="59.3168" /><line stroke="rgb(0%,0%,0%)" x1="138.3647" x2="138.2858" y1="59.3168" y2="59.1801" /><line stroke="rgb(0%,0%,0%)" x1="138.2858" x2="136.7968" y1="59.1801" y2="56.6011" /><line stroke="rgb(0%,0%,0%)" x1="136.7968" x2="136.748" y1="56.6011" y2="56.4509" /><line stroke="rgb(0%,0%,0%)" x1="136.748" x2="135.8278" y1="56.4509" y2="53.6187" /><line stroke="rgb(0%,0%,0%)" x1="135.8278" x2="135.8113" y1="53.6187" y2="53.4617" /><line stroke="rgb(0%,0%,0%)" x1="135.8113" x2="135.5" y1="53.4617" y2="50.5" /><line stroke="rgb(0%,0%,0%)" x1="135.5" x2="135.5165" y1="50.5" y2="50.343" /><line stroke="rgb(0%,0%,0%)" x1="135.5165" x2="135.8278" y1="50.343" y2="47.3813" /><line stroke="rgb(0%,0%,0%)" x1="135.8278" x2="135.8766" y1="47.3813" y2="47.2312" /><line stroke="rgb(0%,0%,0%)" x1="135.8766" x2="136.7968" y1="47.2312" y2="44.3989" /><line stroke="rgb(0%,0%,0%)" x1="136.7968" x2="136.8757" y1="44.3989" y2="44.2623" /><line stroke="rgb(0%,0%,0%)" x1="136.8757" x2="138.3647" y1="44.2623" y2="41.6832" /><line stroke="rgb(0%,0%,0%)" x1="138.3647" x2="138.4704" y1="41.6832" y2="41.5659" /><line stroke="rgb(0%,0%,0%)" x1="138.4704" x2="140.463" y1="41.5659" y2="39.3528" /><line stroke="rgb(0%,0%,0%)" x1="140.463" x2="140.5907" y1="39.3528" y2="39.2601" /><line stroke="rgb(0%,0%,0%)" x1="140.5907" x2="143.0" y1="39.2601" y2="37.5096" /><line stroke="rgb(0%,0%,0%)" x1="143.0" x2="143.1442" y1="37.5096" y2="37.4454" /><line stroke="rgb(0%,0%,0%)" x1="143.1442" x2="145.8647" y1="37.4454" y2="36.2342" /><line stroke="rgb(0%,0%,0%)" x1="145.8647" x2="146.0191" y1="36.2342" y2="36.2013" /><line stroke="rgb(0%,0%,0%)" x1="146.0191" x2="148.9321" y1="36.2013" y2="35.5822" /><line stroke="rgb(0%,0%,0%)" x1="148.9321" x2="149.0899" y1="35.5822" y2="35.5822" /><line stroke="rgb(0%,0%,0%)" x1="149.0899" x2="152.0679" y1="35.5822" y2="35.5822" /><line stroke="rgb(0%,0%,0%)" x1="152.0679" x2="152.2223" y1="35.5822" y2="35.615" /><line stroke="rgb(0%,0%,0%)" x1="152.2223" x2="155.1353" y1="35.615" y2="36.2342" /><line stroke="rgb(0%,0%,0%)" x1="155.1353" x2="155.2794" y1="36.2342" y2="36.2984" /><line stroke="rgb(0%,0%,0%)" x1="155.2794" x2="158.0" y1="36.2984" y2="37.5096" /><line stroke="rgb(0%,0%,0%)" x1="158.0" x2="158.1277" y1="37.5096" y2="37.6024" /><line stroke="rgb(0%,0%,0%)" x1="158.1277" x2="160.537" y1="37.6024" y2="39.3528" /><line stroke="rgb(0%,0%,0%)" x1="160.537" x2="160.6426" y1="39.3528" y2="39.4701" /><line stroke="rgb(0%,0%,0%)" x1="160.6426" x2="162.6353" y1="39.4701" y2="41.6832" /><line stroke="rgb(0%,0%,0%)" x1="162.6353" x2="162.7142" y1="41.6832" y2="41.8199" /><line stroke="rgb(0%,0%,0%)" x1="162.7142" x2="164.2032" y1="41.8199" y2="44.3989" /><line stroke="rgb(0%,0%,0%)" x1="164.2032" x2="164.252" y1="44.3989" y2="44.5491" /><line stroke="rgb(0%,0%,0%)" x1="164.252" x2="165.1722" y1="44.5491" y2="47.3813" /><line stroke="rgb(0%,0%,0%)" x1="65.1722" x2="65.1887" y1="47.3813" y2="47.5383" /><line stroke="rgb(0%,0%,0%)" x1="65.1887" x2="65.5" y1="47.5383" y2="50.5" /><line stroke="rgb(0%,0%,0%)" x1="65.5" x2="65.4835" y1="50.5" y2="50.657" /><line stroke="rgb(0%,0%,0%)" x1="65.4835" x2="65.1722" y1="50.657" y2="53.6187" /><line stroke="rgb(0%,0%,0%)" x1="65.1722" x2="65.1234" y1="53.6187" y2="53.7688" /><line stroke="rgb(0%,0%,0%)" x1="65.1234" x2="64.2032" y1="53.7688" y2="56.6011" /><line stroke="rgb(0%,0%,0%)" x1="64.2032" x2="64.1243" y1="56.6011" y2="56.7377" /><line stroke="rgb(0%,0%,0%)" x1="64.1243" x2="62.6352" y1="56.7377" y2="59.3168" /><line stroke="rgb(0%,0%,0%)" x1="62.6352" x2="62.5296" y1="59.3168" y2="59.4341" /><line stroke="rgb(0%,0%,0%)" x1="62.5296" x2="60.537" y1="59.4341" y2="61.6472" /><line stroke="rgb(0%,0%,0%)" x1="60.537" x2="60.4093" y1="61.6472" y2="61.7399" /><line stroke="rgb(0%,0%,0%)" x1="60.4093" x2="58.0" y1="61.7399" y2="63.4904" /><line stroke="rgb(0%,0%,0%)" x1="58.0" x2="57.8558" y1="63.4904" y2="63.5546" /><line stroke="rgb(0%,0%,0%)" x1="57.8558" x2="55.1353" y1="63.5546" y2="64.7658" /><line stroke="rgb(0%,0%,0%)" x1="55.1353" x2="54.9809" y1="64.7658" y2="64.7987" /><line stroke="rgb(0%,0%,0%)" x1="54.9809" x2="52.0679" y1="64.7987" y2="65.4178" /><line stroke="rgb(0%,0%,0%)" x1="52.0679" x2="51.9101" y1="65.4178" y2="65.4178" /><line stroke="rgb(0%,0%,0%)" x1="51.9101" x2="48.9321" y1="65.4178" y2="65.4178" /><line stroke="rgb(0%,0%,0%)" x1="48.9321" x2="48.7777" y1="65.4178" y2="65.385" /><line stroke="rgb(0%,0%,0%)" x1="48.7777" x2="45.8647" y1="65.385" y2="64.7658" /><line stroke="rgb(0%,0%,0%)" x1="45.8647" x2="45.7205" y1="64.7658" y2="64.7016" /><line stroke="rgb(0%,0%,0%)" x1="45.7205" x2="43.0" y1="64.7016" y2="63.4904" /><line stroke="rgb(0%,0%,0%)" x1="43.0" x2="42.8723" y1="63.4904" y2="63.3976" /><line stroke="rgb(0%,0%,0%)" x1="42.8723" x2="40.463" y1="63.3976" y2="61.6472" /><line stroke="rgb(0%,0%,0%)" x1="40.463" x2="40.3574" y1="61.6472" y2="61.5299" /><line stroke="rgb(0%,0%,0%)" x1="40.3574" x2="38.3647" y1="61.5299" y2="59.3168" /><line stroke="rgb(0%,0%,0%)" x1="38.3647" x2="38.2858" y1="59.3168" y2="59.1801" /><line stroke="rgb(0%,0%,0%)" x1="38.2858" x2="36.7968" y1="59.1801" y2="56.6011" /><line stroke="rgb(0%,0%,0%)" x1="36.7968" x2="36.748" y1="56.6011" y2="56.4509" /><line stroke="rgb(0%,0%,0%)" x1="36.748" x2="35.8278" y1="56.4509" y2="53.6187" /><line stroke="rgb(0%,0%,0%)" x1="35.8278" x2="35.8113" y1="53.6187" y2="53.4617" /><line stroke="rgb(0%,0%,0%)" x1="35.8113" x2="35.5" y1="53.4617" y2="50.5" /><line stroke="rgb(0%,0%,0%)" x1="35.5" x2="35.5165" y1="50.5" y2="50.343" /><line stroke="rgb(0%,0%,0%)" x1="35.5165" x2="35.8278" y1="50.343" y2="47.3813" /><line stroke="rgb(0%,0%,0%)" x1="35.8278" x2="35.8766" y1="47.3813" y2="47.2312" /><line stroke="rgb(0%,0%,0%)" x1="35.8766" x2="36.7968" y1="47.2312" y2="44.3989" /><line stroke="rgb(0%,0%,0%)" x1="36.7968" x2="36.8757" y1="44.3989" y2="44.2623" /><line stroke="rgb(0%,0%,0%)" x1="36.8757" x2="38.3647" y1="44.2623" y2="41.6832" /><line stroke="rgb(0%,0%,0%)" x1="38.3647" x2="38.4704" y1="41.6832" y2="41.5659" /><line stroke="rgb(0%,0%,0%)" x1="38.4704" x2="40.463" y1="41.5659" y2="39.3528" /><line stroke="rgb(0%,0%,0%)" x1="40.463" x2="40.5907" y1="39.3528" y2="39.2601" /><line stroke="rgb(0%,0%,0%)" x1="40.5907" x2="43.0" y1="39.2601" y2="37.5096" /><line stroke="rgb(0%,0%,0%)" x1="43.0" x2="43.1442" y1="37.5096" y2="37.4454" /><line stroke="rgb(0%,0%,0%)" x1="43.1442" x2="45.8647" y1="37.4454" y2="36.2342" /><line stroke="rgb(0%,0%,0%)" x1="45.8647" x2="46.0191" y1="36.2342" y2="36.2013" /><line stroke="rgb(0%,0%,0%)" x1="46.0191" x2="48.9321" y1="36.2013" y2="35.5822" /><line stroke="rgb(0%,0%,0%)" x1="48.9321" x2="49.0899" y1="35.5822" y2="35.5822" /><line stroke="rgb(0%,0%,0%)" x1="49.0899" x2="52.0679" y1="35.5822" y2="35.5822" /><line stroke="rgb(0%,0%,0%)" x1="52.0679" x2="52.2223" y1="35.5822" y2="35.615" /><line stroke="rgb(0%,0%,0%)" x1="52.2223" x2="55.1353" y1="35.615" y2="36.2342" /><line stroke="rgb(0%,0%,0%)" x1="55.1353" x2="55.2795" y1="36.2342" y2="36.2984" /><line stroke="rgb(0%,0%,0%)" x1="55.2795" x2="58.0" y1="36.2984" y2="37.5096" /><line stroke="rgb(0%,0%,0%)" x1="58.0" x2="58.1277" y1="37.5096" y2="37.6024" /><line stroke="rgb(0%,0%,0%)" x1="58.1277" x2="60.537" y1="37.6024" y2="39.3528" /><line stroke="rgb(0%,0%,0%)" x1="60.537" x2="60.6426" y1="39.3528" y2="39.4701" /><line stroke="rgb(0%,0%,0%)" x1="60.6426" x2="62.6352" y1="39.4701" y2="41.6832" /><line stroke="rgb(0%,0%,0%)" x1="62.6352" x2="62.7142" y1="41.6832" y2="41.8199" /><line stroke="rgb(0%,0%,0%)" x1="62.7142" x2="64.2032" y1="41.8199" y2="44.3989" /><line stroke="rgb(0%,0%,0%)" x1="64.2032" x2="64.252" y1="44.3989" y2="44.5491" /><line stroke="rgb(0%,0%,0%)" x1="64.252" x2="65.1722" y1="44.5491" y2="47.3813" /></svg>