<?xml version="1.0" encoding="utf-8" ?>
<svg baseProfile="tiny" height="100%" version="1.2" width="100%" xmlns="http://www.w3.org/2000/svg" xmlns:ev="http://www.w3.org/2001/xml-events" xmlns:xlink="http://www.w3.org/1999/xlink"><defs /><line stroke="rgb(0%,0%,0%)" x1="351.9" x2="351.9" y1="0.5" y2="42.406" /><line stroke="rgb(0%,0%,0%)" x1="351.9" x2="351.9" y1="42.406" y2="100.5" /><line stroke="rgb(0%,0%,0%)" x1="279.1233" x2="336.495" y1="100.5" y2="100.5" /><line stroke="rgb(0%,0%,0%)" x1="336.495" x2="338.4959" y1="100.5" y2="100.5" /><line stroke="rgb(0%,0%,0%)" x1="338.4959" x2="340.7817" y1="100.5" y2="100.5" /><line stroke="rgb(0%,0%,0%)" x1="340.7817" x2="343.3186" y1="100.5" y2="100.5" /><line stroke="rgb(0%,0%,0%)" x1="343.3186" x2="346.0588" y1="100.5" y2="100.5" /><line stroke="rgb(0%,0%,0%)" x1="346.0588" x2="348.9423" y1="100.5" y2="100.5" /><line stroke="rgb(0%,0%,0%)" x1="348.9423" x2="351.9" y1="100.5" y2="100.5" /><line stroke="rgb(0%,0%,0%)" x1="279.1233" x2="98.0924" y1="100.5" y2="100.5" /><line stroke="rgb(0%,0%,0%)" x1="98.0924" x2="0.5" y1="100.5" y2="100.5" /><line stroke="rgb(0%,0%,0%)" x1="0.5" x2="98.0924" y1="0.5" y2="0.5" /><line stroke="rgb(0%,0%,0%)" x1="98.0924" x2="279.1233" y1="0.5" y2="0.5" /><line stroke="rgb(0%,0%,0%)" x1="279.1233" x2="336.495" y1="0.5" y2="0.5" /><line stroke="rgb(0%,0%,0%)" x1="336.495" x2="338.4959" y1="0.5" y2="0.5" /><line stroke="rgb(0%,0%,0%)" x1="338.4959" x2="340.7817" y1="0.5" y2="0.5" /><line stroke="rgb(0%,0%,0%)" x1="340.7817" x2="343.3186" y1="0.5" y2="0.5" /><line stroke="rgb(0%,0%,0%)" x1="343.3186" x2="346.0588" y1="0.5" y2="0.5" /><line stroke="rgb(0%,0%,0%)" x1="346.0588" x2="348.9423" y1="0.5" y2="0.5" /><line stroke="rgb(0%,0%,0%)" x1="348.9423" x2="351.9" y1="0.5" y2="0.5" /><line stroke="rgb(0%,0%,0%)" x1="0.5" x2="0.5" y1="0.5" y2="52.0171" /><line stroke="rgb(0%,0%,0%)" x1="0.5" x2="0.5" y1="52.0171" y2="100.5" /><line stroke="rgb(0%,0%,0%)" x1="165.1722" x2="165.1822" y1="47.3813" y2="47.4759" /><line stroke="rgb(0%,0%,0%)" x1="165.1822" x2="165.5" y1="47.4759" y2="50.5" /><line stroke="rgb(0%,0%,0%)" x1="165.5" x2="165.49" y1="50.5" y2="50.5946" /><line stroke="rgb(0%,0%,0%)" x1="165.49" x2="165.1722" y1="50.5946" y2="53.6187" /><line stroke="rgb(0%,0%,0%)" x1="165.1722" x2="165.1428" y1="53.6187" y2="53.7092" /><line stroke="rgb(0%,0%,0%)" x1="165.1428" x2="164.2032" y1="53.7092" y2="56.6011" /><line stroke="rgb(0%,0%,0%)" x1="164.2032" x2="164.1556" y1="56.6011" y2="56.6834" /><line stroke="rgb(0%,0%,0%)" x1="164.1556" x2="162.6353" y1="56.6834" y2="59.3168" /><line stroke="rgb(0%,0%,0%)" x1="162.6353" x2="162.5716" y1="59.3168" y2="59.3875" /><line stroke="rgb(0%,0%,0%)" x1="162.5716" x2="160.537" y1="59.3875" y2="61.6472" /><line stroke="rgb(0%,0%,0%)" x1="160.537" x2="160.46" y1="61.6472" y2="61.7031" /><line stroke="rgb(0%,0%,0%)" x1="160.46" x2="158.0" y1="61.7031" y2="63.4904" /><line stroke="rgb(0%,0%,0%)" x1="158.0" x2="157.9131" y1="63.4904" y2="63.5291" /><line stroke="rgb(0%,0%,0%)" x1="157.9131" x2="155.1353" y1="63.5291" y2="64.7658" /><line stroke="rgb(0%,0%,0%)" x1="155.1353" x2="155.0422" y1="64.7658" y2="64.7856" /><line stroke="rgb(0%,0%,0%)" x1="155.0422" x2="152.0679" y1="64.7856" y2="65.4178" /><line stroke="rgb(0%,0%,0%)" x1="152.0679" x2="151.9728" y1="65.4178" y2="65.4178" /><line stroke="rgb(0%,0%,0%)" x1="151.9728" x2="148.9321" y1="65.4178" y2="65.4178" /><line stroke="rgb(0%,0%,0%)" x1="148.9321" x2="148.839" y1="65.4178" y2="65.398" /><line stroke="rgb(0%,0%,0%)" x1="148.839" x2="145.8647" y1="65.398" y2="64.7658" /><line stroke="rgb(0%,0%,0%)" x1="145.8647" x2="145.7778" y1="64.7658" y2="64.7271" /><line stroke="rgb(0%,0%,0%)" x1="145.7778" x2="143.0" y1="64.7271" y2="63.4904" /><line stroke="rgb(0%,0%,0%)" x1="143.0" x2="142.923" y1="63.4904" y2="63.4345" /><line stroke="rgb(0%,0%,0%)" x1="142.923" x2="140.463" y1="63.4345" y2="61.6472" /><line stroke="rgb(0%,0%,0%)" x1="140.463" x2="140.3994" y1="61.6472" y2="61.5765" /><line stroke="rgb(0%,0%,0%)" x1="140.3994" x2="138.3647" y1="61.5765" y2="59.3168" /><line stroke="rgb(0%,0%,0%)" x1="138.3647" x2="138.3172" y1="59.3168" y2="59.2344" /><line stroke="rgb(0%,0%,0%)" x1="138.3172" x2="136.7968" y1="59.2344" y2="56.6011" /><line stroke="rgb(0%,0%,0%)" x1="136.7968" x2="136.7674" y1="56.6011" y2="56.5106" /><line stroke="rgb(0%,0%,0%)" x1="136.7674" x2="135.8278" y1="56.5106" y2="53.6187" /><line stroke="rgb(0%,0%,0%)" x1="135.8278" x2="135.8178" y1="53.6187" y2="53.5241" /><line stroke="rgb(0%,0%,0%)" x1="135.8178" x2="135.5" y1="53.5241" y2="50.5" /><line stroke="rgb(0%,0%,0%)" x1="135.5" x2="135.5099" y1="50.5" y2="50.4054" /><line stroke="rgb(0%,0%,0%)" x1="135.5099" x2="135.8278" y1="50.4054" y2="47.3813" /><line stroke="rgb(0%,0%,0%)" x1="135.8278" x2="135.8572" y1="47.3813" y2="47.2908" /><line stroke="rgb(0%,0%,0%)" x1="135.8572" x2="136.7968" y1="47.2908" y2="44.3989" /><line stroke="rgb(0%,0%,0%)" x1="136.7968" x2="136.8444" y1="44.3989" y2="44.3166" /><line stroke="rgb(0%,0%,0%)" x1="136.8444" x2="138.3647" y1="44.3166" y2="41.6832" /><line stroke="rgb(0%,0%,0%)" x1="138.3647" x2="138.4284" y1="41.6832" y2="41.6125" /><line stroke="rgb(0%,0%,0%)" x1="138.4284" x2="140.463" y1="41.6125" y2="39.3528" /><line stroke="rgb(0%,0%,0%)" x1="140.463" x2="140.54" y1="39.3528" y2="39.2969" /><line stroke="rgb(0%,0%,0%)" x1="140.54" x2="143.0" y1="39.2969" y2="37.5096" /><line stroke="rgb(0%,0%,0%)" x1="143.0" x2="143.0869" y1="37.5096" y2="37.4709" /><line stroke="rgb(0%,0%,0%)" x1="143.0869" x2="145.8647" y1="37.4709" y2="36.2342" /><line stroke="rgb(0%,0%,0%)" x1="145.8647" x2="145.9578" y1="36.2342" y2="36.2144" /><line stroke="rgb(0%,0%,0%)" x1="145.9578" x2="148.9321" y1="36.2144" y2="35.5822" /><line stroke="rgb(0%,0%,0%)" x1="148.9321" x2="149.0272" y1="35.5822" y2="35.5822" /><line stroke="rgb(0%,0%,0%)" x1="149.0272" x2="152.0679" y1="35.5822" y2="35.5822" /><line stroke="rgb(0%,0%,0%)" x1="152.0679" x2="152.161" y1="35.5822" y2="35.602" /><line stroke="rgb(0%,0%,0%)" x1="152.161" x2="155.1353" y1="35.602" y2="36.2342" /><line stroke="rgb(0%,0%,0%)" x1="155.1353" x2="155.2222" y1="36.2342" y2="36.2729" /><line stroke="rgb(0%,0%,0%)" x1="155.2222" x2="158.0" y1="36.2729" y2="37.5096" /><line stroke="rgb(0%,0%,0%)" x1="158.0" x2="158.077" y1="37.5096" y2="37.5655" /><line stroke="rgb(0%,0%,0%)" x1="158.077" x2="160.537" y1="37.5655" y2="39.3528" /><line stroke="rgb(0%,0%,0%)" x1="160.537" x2="160.6006" y1="39.3528" y2="39.4235" /><line stroke="rgb(0%,0%,0%)" x1="160.6006" x2="162.6353" y1="39.4235" y2="41.6832" /><line stroke="rgb(0%,0%,0%)" x1="162.6353" x2="162.6828" y1="41.6832" y2="41.7656" /><line stroke="rgb(0%,0%,0%)" x1="162.6828" x2="164.2032" y1="41.7656" y2="44.3989" /><line stroke="rgb(0%,0%,0%)" x1="164.2032" x2="164.2326" y1="44.3989" y2="44.4894" /><line stroke="rgb(0%,0%,0%)" x1="164.2326" x2="165.1722" y1="44.4894" y2="47.3813" /><line stroke="rgb(0%,0%,0%)" x1="65.1722" x2="65.1822" y1="47.3813" y2="47.4759" /><line stroke="rgb(0%,0%,0%)" x1="65.1822" x2="65.5" y1="47.4759" y2="50.5" /><line stroke="rgb(0%,0%,0%)" x1="65.5" x2="65.4901" y1="50.5" y2="50.5946" /><line stroke="rgb(0%,0%,0%)" x1="65.4901" x2="65.1722" y1="50.5946" y2="53.6187" /><line stroke="rgb(0%,0%,0%)" x1="65.1722" x2="65.1428" y1="53.6187" y2="53.7092" /><line stroke="rgb(0%,0%,0%)" x1="65.1428" x2="64.2032" y1="53.7092" y2="56.6011" /><line stroke="rgb(0%,0%,0%)" x1="64.2032" x2="64.1556" y1="56.6011" y2="56.6834" /><line stroke="rgb(0%,0%,0%)" x1="64.1556" x2="62.6352" y1="56.6834" y2="59.3168" /><line stroke="rgb(0%,0%,0%)" x1="62.6352" x2="62.5716" y1="59.3168" y2="59.3875" /><line stroke="rgb(0%,0%,0%)" x1="62.5716" x2="60.537" y1="59.3875" y2="61.6472" /><line stroke="rgb(0%,0%,0%)" x1="60.537" x2="60.46" y1="61.6472" y2="61.7031" /><line stroke="rgb(0%,0%,0%)" x1="60.46" x2="58.0" y1="61.7031" y2="63.4904" /><line stroke="rgb(0%,0%,0%)" x1="58.0" x2="57.9131" y1="63.4904" y2="63.5291" /><line stroke="rgb(0%,0%,0%)" x1="57.9131" x2="55.1353" y1="63.5291" y2="64.7658" /><line stroke="rgb(0%,0%,0%)" x1="55.1353" x2="55.0422" y1="64.7658" y2="64.7856" /><line stroke="rgb(0%,0%,0%)" x1="55.0422" x2="52.0679" y1="64.7856" y2="65.4178" /><line stroke="rgb(0%,0%,0%)" x1="52.0679" x2="51.9728" y1="65.4178" y2="65.4178" /><line stroke="rgb(0%,0%,0%)" x1="51.9728" x2="48.9321" y1="65.4178" y2="65.4178" /><line stroke="rgb(0%,0%,0%)" x1="48.9321" x2="48.839" y1="65.4178" y2="65.398" /><line stroke="rgb(0%,0%,0%)" x1="48.839" x2="45.8647" y1="65.398" y2="64.7658" /><line stroke="rgb(0%,0%,0%)" x1="45.8647" x2="45.7778" y1="64.7658" y2="64.7271" /><line stroke="rgb(0%,0%,0%)" x1="45.7778" x2="43.0" y1="64.7271" y2="63.4904" /><line stroke="rgb(0%,0%,0%)" x1="43.0" x2="42.923" y1="63.4904" y2="63.4345" /><line stroke="rgb(0%,0%,0%)" x1="42.923" x2="40.463" y1="63.4345" y2="61.6472" /><line stroke="rgb(0%,0%,0%)" x1="40.463" x2="40.3994" y1="61.6472" y2="61.5765" /><line stroke="rgb(0%,0%,0%)" x1="40.3994" x2="38.3647" y1="61.5765" y2="59.3168" /><line stroke="rgb(0%,0%,0%)" x1="38.3647" x2="38.3172" y1="59.3168" y2="59.2344" /><line stroke="rgb(0%,0%,0%)" x1="38.3172" x2="36.7968" y1="59.2344" y2="56.6011" /><line stroke="rgb(0%,0%,0%)" x1="36.7968" x2="36.7674" y1="56.6011" y2="56.5106" /><line stroke="rgb(0%,0%,0%)" x1="36.7674" x2="35.8278" y1="56.5106" y2="53.6187" /><line stroke="rgb(0%,0%,0%)" x1="35.8278" x2="35.8178" y1="53.6187" y2="53.5241" /><line stroke="rgb(0%,0%,0%)" x1="35.8178" x2="35.5" y1="53.5241" y2="50.5" /><line stroke="rgb(0%,0%,0%)" x1="35.5" x2="35.5099" y1="50.5" y2="50.4054" /><line stroke="rgb(0%,0%,0%)" x1="35.5099" x2="35.8278" y1="50.4054" y2="47.3813" /><line stroke="rgb(0%,0%,0%)" x1="35.8278" x2="35.8572" y1="47.3813" y2="47.2908" /><line stroke="rgb(0%,0%,0%)" x1="35.8572" x2="36.7968" y1="47.2908" y2="44.3989" /><line stroke="rgb(0%,0%,0%)" x1="36.7968" x2="36.8444" y1="44.3989" y2="44.3166" /><line stroke="rgb(0%,0%,0%)" x1="36.8444" x2="38.3647" y1="44.3166" y2="41.6832" /><line stroke="rgb(0%,0%,0%)" x1="38.3647" x2="38.4284" y1="41.6832" y2="41.6125" /><line stroke="rgb(0%,0%,0%)" x1="38.4284" x2="40.463" y1="41.6125" y2="39.3528" /><line stroke="rgb(0%,0%,0%)" x1="40.463" x2="40.54" y1="39.3528" y2="39.2969" /><line stroke="rgb(0%,0%,0%)" x1="40.54" x2="43.0" y1="39.2969" y2="37.5096" /><line stroke="rgb(0%,0%,0%)" x1="43.0" x2="43.0869" y1="37.5096" y2="37.4709" /><line stroke="rgb(0%,0%,0%)" x1="43.0869" x2="45.8647" y1="37.4709" y2="36.2342" /><line stroke="rgb(0%,0%,0%)" x1="45.8647" x2="45.9578" y1="36.2342" y2="36.2144" /><line stroke="rgb(0%,0%,0%)" x1="45.9578" x2="48.9321" y1="36.2144" y2="35.5822" /><line stroke="rgb(0%,0%,0%)" x1="48.9321" x2="49.0272" y1="35.5822" y2="35.5822" /><line stroke="rgb(0%,0%,0%)" x1="49.0272" x2="52.0679" y1="35.5822" y2="35.5822" /><line stroke="rgb(0%,0%,0%)" x1="52.0679" x2="52.161" y1="35.5822" y2="35.602" /><line stroke="rgb(0%,0%,0%)" x1="52.161" x2="55.1353" y1="35.602" y2="36.2342" /><line stroke="rgb(0%,0%,0%)" x1="55.1353" x2="55.2222" y1="36.2342" y2="36.2729" /><line stroke="rgb(0%,0%,0%)" x1="55.2222" x2="58.0" y1="36.2729" y2="37.5096" /><line stroke="rgb(0%,0%,0%)" x1="58.0" x2="58.077" y1="37.5096" y2="37.5655" /><line stroke="rgb(0%,0%,0%)" x1="58.077" x2="60.537" y1="37.5655" y2="39.3528" /><line stroke="rgb(0%,0%,0%)" x1="60.537" x2="60.6006" y1="39.3528" y2="39.4235" /><line stroke="rgb(0%,0%,0%)" x1="60.6006" x2="62.6352" y1="39.4235" y2="41.6832" /><line stroke="rgb(0%,0%,0%)" x1="62.6352" x2="62.6828" y1="41.6832" y2="41.7656" /><line stroke="rgb(0%,0%,0%)" x1="62.6828" x2="64.2032" y1="41.7656" y2="44.3989" /><line stroke="rgb(0%,0%,0%)" x1="64.2032" x2="64.2326" y1="44.3989" y2="44.4894" /><line stroke="rgb(0%,0%,0%)" x1="64.2326" x2="65.1722" y1="44.4894" y2="47.3813" /></svg>