<?xml version="1.0" encoding="utf-8" ?>
<svg baseProfile="tiny" height="100%" version="1.2" width="100%" xmlns="http://www.w3.org/2000/svg" xmlns:ev="http://www.w3.org/2001/xml-events" xmlns:xlink="http://www.w3.org/1999/xlink"><defs /><line stroke="rgb(0%,0%,0%)" x1="351.9" x2="351.9" y1="0.5" y2="4.3882" /><line stroke="rgb(0%,0%,0%)" x1="351.9" x2="351.9" y1="4.3882" y2="100.5" /><line stroke="rgb(0%,0%,0%)" x1="345.1475" x2="350.4707" y1="100.5" y2="100.5" /><line stroke="rgb(0%,0%,0%)" x1="350.4707" x2="350.6563" y1="100.5" y2="100.5" /><line stroke="rgb(0%,0%,0%)" x1="350.6563" x2="350.8684" y1="100.5" y2="100.5" /><line stroke="rgb(0%,0%,0%)" x1="350.8684" x2="351.1038" y1="100.5" y2="100.5" /><line stroke="rgb(0%,0%,0%)" x1="351.1038" x2="351.358" y1="100.5" y2="100.5" /><line stroke="rgb(0%,0%,0%)" x1="351.358" x2="351.6256" y1="100.5" y2="100.5" /><line stroke="rgb(0%,0%,0%)" x1="351.6256" x2="351.9" y1="100.5" y2="100.5" /><line stroke="rgb(0%,0%,0%)" x1="345.1475" x2="9.555" y1="100.5" y2="100.5" /><line stroke="rgb(0%,0%,0%)" x1="9.555" x2="0.5" y1="100.5" y2="100.5" /><line stroke="rgb(0%,0%,0%)" x1="0.5" x2="9.555" y1="0.5" y2="0.5" /><line stroke="rgb(0%,0%,0%)" x1="9.555" x2="345.1475" y1="0.5" y2="0.5" /><line stroke="rgb(0%,0%,0%)" x1="345.1475" x2="350.4707" y1="0.5" y2="0.5" /><line stroke="rgb(0%,0%,0%)" x1="350.4707" x2="350.6563" y1="0.5" y2="0.5" /><line stroke="rgb(0%,0%,0%)" x1="350.6563" x2="350.8684" y1="0.5" y2="0.5" /><line stroke="rgb(0%,0%,0%)" x1="350.8684" x2="351.1038" y1="0.5" y2="0.5" /><line stroke="rgb(0%,0%,0%)" x1="351.1038" x2="351.358" y1="0.5" y2="0.5" /><line stroke="rgb(0%,0%,0%)" x1="351.358" x2="351.6256" y1="0.5" y2="0.5" /><line stroke="rgb(0%,0%,0%)" x1="351.6256" x2="351.9" y1="0.5" y2="0.5" /><line stroke="rgb(0%,0%,0%)" x1="0.5" x2="0.5" y1="0.5" y2="96.0016" /><line stroke="rgb(0%,0%,0%)" x1="0.5" x2="0.5" y1="96.0016" y2="100.5" /><line stroke="rgb(0%,0%,0%)" x1="165.1722" x2="165.4705" y1="47.3813" y2="50.2194" /><line stroke="rgb(0%,0%,0%)" x1="165.4705" x2="165.5" y1="50.2194" y2="50.5" /><line stroke="rgb(0%,0%,0%)" x1="165.5" x2="165.2017" y1="50.5" y2="53.3381" /><line stroke="rgb(0%,0%,0%)" x1="165.2017" x2="165.1722" y1="53.3381" y2="53.6187" /><line stroke="rgb(0%,0%,0%)" x1="165.1722" x2="164.2904" y1="53.6187" y2="56.3327" /><line stroke="rgb(0%,0%,0%)" x1="164.2904" x2="164.2032" y1="56.3327" y2="56.6011" /><line stroke="rgb(0%,0%,0%)" x1="164.2032" x2="162.7763" y1="56.6011" y2="59.0725" /><line stroke="rgb(0%,0%,0%)" x1="162.7763" x2="162.6353" y1="59.0725" y2="59.3168" /><line stroke="rgb(0%,0%,0%)" x1="162.6353" x2="160.7257" y1="59.3168" y2="61.4375" /><line stroke="rgb(0%,0%,0%)" x1="160.7257" x2="160.537" y1="61.4375" y2="61.6472" /><line stroke="rgb(0%,0%,0%)" x1="160.537" x2="158.2282" y1="61.6472" y2="63.3245" /><line stroke="rgb(0%,0%,0%)" x1="158.2282" x2="158.0" y1="63.3245" y2="63.4904" /><line stroke="rgb(0%,0%,0%)" x1="158.0" x2="155.393" y1="63.4904" y2="64.6511" /><line stroke="rgb(0%,0%,0%)" x1="155.393" x2="155.1353" y1="64.6511" y2="64.7658" /><line stroke="rgb(0%,0%,0%)" x1="155.1353" x2="152.3439" y1="64.7658" y2="65.3592" /><line stroke="rgb(0%,0%,0%)" x1="152.3439" x2="152.0679" y1="65.3592" y2="65.4178" /><line stroke="rgb(0%,0%,0%)" x1="152.0679" x2="149.2142" y1="65.4178" y2="65.4178" /><line stroke="rgb(0%,0%,0%)" x1="149.2142" x2="148.9321" y1="65.4178" y2="65.4178" /><line stroke="rgb(0%,0%,0%)" x1="148.9321" x2="146.1407" y1="65.4178" y2="64.8245" /><line stroke="rgb(0%,0%,0%)" x1="146.1407" x2="145.8647" y1="64.8245" y2="64.7658" /><line stroke="rgb(0%,0%,0%)" x1="145.8647" x2="143.2577" y1="64.7658" y2="63.6051" /><line stroke="rgb(0%,0%,0%)" x1="143.2577" x2="143.0" y1="63.6051" y2="63.4904" /><line stroke="rgb(0%,0%,0%)" x1="143.0" x2="140.6913" y1="63.4904" y2="61.813" /><line stroke="rgb(0%,0%,0%)" x1="140.6913" x2="140.463" y1="61.813" y2="61.6472" /><line stroke="rgb(0%,0%,0%)" x1="140.463" x2="138.5535" y1="61.6472" y2="59.5264" /><line stroke="rgb(0%,0%,0%)" x1="138.5535" x2="138.3647" y1="59.5264" y2="59.3168" /><line stroke="rgb(0%,0%,0%)" x1="138.3647" x2="136.9379" y1="59.3168" y2="56.8454" /><line stroke="rgb(0%,0%,0%)" x1="136.9379" x2="136.7968" y1="56.8454" y2="56.6011" /><line stroke="rgb(0%,0%,0%)" x1="136.7968" x2="135.915" y1="56.6011" y2="53.887" /><line stroke="rgb(0%,0%,0%)" x1="135.915" x2="135.8278" y1="53.887" y2="53.6187" /><line stroke="rgb(0%,0%,0%)" x1="135.8278" x2="135.5295" y1="53.6187" y2="50.7806" /><line stroke="rgb(0%,0%,0%)" x1="135.5295" x2="135.5" y1="50.7806" y2="50.5" /><line stroke="rgb(0%,0%,0%)" x1="135.5" x2="135.7983" y1="50.5" y2="47.6619" /><line stroke="rgb(0%,0%,0%)" x1="135.7983" x2="135.8278" y1="47.6619" y2="47.3813" /><line stroke="rgb(0%,0%,0%)" x1="135.8278" x2="136.7096" y1="47.3813" y2="44.6673" /><line stroke="rgb(0%,0%,0%)" x1="136.7096" x2="136.7968" y1="44.6673" y2="44.3989" /><line stroke="rgb(0%,0%,0%)" x1="136.7968" x2="138.2237" y1="44.3989" y2="41.9275" /><line stroke="rgb(0%,0%,0%)" x1="138.2237" x2="138.3647" y1="41.9275" y2="41.6832" /><line stroke="rgb(0%,0%,0%)" x1="138.3647" x2="140.2743" y1="41.6832" y2="39.5625" /><line stroke="rgb(0%,0%,0%)" x1="140.2743" x2="140.463" y1="39.5625" y2="39.3528" /><line stroke="rgb(0%,0%,0%)" x1="140.463" x2="142.7717" y1="39.3528" y2="37.6754" /><line stroke="rgb(0%,0%,0%)" x1="142.7717" x2="143.0" y1="37.6754" y2="37.5096" /><line stroke="rgb(0%,0%,0%)" x1="143.0" x2="145.607" y1="37.5096" y2="36.3489" /><line stroke="rgb(0%,0%,0%)" x1="145.607" x2="145.8647" y1="36.3489" y2="36.2342" /><line stroke="rgb(0%,0%,0%)" x1="145.8647" x2="148.6561" y1="36.2342" y2="35.6408" /><line stroke="rgb(0%,0%,0%)" x1="148.6561" x2="148.9321" y1="35.6408" y2="35.5822" /><line stroke="rgb(0%,0%,0%)" x1="148.9321" x2="151.7858" y1="35.5822" y2="35.5822" /><line stroke="rgb(0%,0%,0%)" x1="151.7858" x2="152.0679" y1="35.5822" y2="35.5822" /><line stroke="rgb(0%,0%,0%)" x1="152.0679" x2="154.8593" y1="35.5822" y2="36.1755" /><line stroke="rgb(0%,0%,0%)" x1="154.8593" x2="155.1353" y1="36.1755" y2="36.2342" /><line stroke="rgb(0%,0%,0%)" x1="155.1353" x2="157.7423" y1="36.2342" y2="37.3949" /><line stroke="rgb(0%,0%,0%)" x1="157.7423" x2="158.0" y1="37.3949" y2="37.5096" /><line stroke="rgb(0%,0%,0%)" x1="158.0" x2="160.3087" y1="37.5096" y2="39.187" /><line stroke="rgb(0%,0%,0%)" x1="160.3087" x2="160.537" y1="39.187" y2="39.3528" /><line stroke="rgb(0%,0%,0%)" x1="160.537" x2="162.4465" y1="39.3528" y2="41.4736" /><line stroke="rgb(0%,0%,0%)" x1="162.4465" x2="162.6353" y1="41.4736" y2="41.6832" /><line stroke="rgb(0%,0%,0%)" x1="162.6353" x2="164.0621" y1="41.6832" y2="44.1546" /><line stroke="rgb(0%,0%,0%)" x1="164.0621" x2="164.2032" y1="44.1546" y2="44.3989" /><line stroke="rgb(0%,0%,0%)" x1="164.2032" x2="165.085" y1="44.3989" y2="47.113" /><line stroke="rgb(0%,0%,0%)" x1="165.085" x2="165.1722" y1="47.113" y2="47.3813" /><line stroke="rgb(0%,0%,0%)" x1="65.1722" x2="65.4705" y1="47.3813" y2="50.2194" /><line stroke="rgb(0%,0%,0%)" x1="65.4705" x2="65.5" y1="50.2194" y2="50.5" /><line stroke="rgb(0%,0%,0%)" x1="65.5" x2="65.2017" y1="50.5" y2="53.3381" /><line stroke="rgb(0%,0%,0%)" x1="65.2017" x2="65.1722" y1="53.3381" y2="53.6187" /><line stroke="rgb(0%,0%,0%)" x1="65.1722" x2="64.2904" y1="53.6187" y2="56.3327" /><line stroke="rgb(0%,0%,0%)" x1="64.2904" x2="64.2032" y1="56.3327" y2="56.6011" /><line stroke="rgb(0%,0%,0%)" x1="64.2032" x2="62.7763" y1="56.6011" y2="59.0725" /><line stroke="rgb(0%,0%,0%)" x1="62.7763" x2="62.6352" y1="59.0725" y2="59.3168" /><line stroke="rgb(0%,0%,0%)" x1="62.6352" x2="60.7257" y1="59.3168" y2="61.4375" /><line stroke="rgb(0%,0%,0%)" x1="60.7257" x2="60.537" y1="61.4375" y2="61.6472" /><line stroke="rgb(0%,0%,0%)" x1="60.537" x2="58.2282" y1="61.6472" y2="63.3245" /><line stroke="rgb(0%,0%,0%)" x1="58.2282" x2="58.0" y1="63.3245" y2="63.4904" /><line stroke="rgb(0%,0%,0%)" x1="58.0" x2="55.393" y1="63.4904" y2="64.6511" /><line stroke="rgb(0%,0%,0%)" x1="55.393" x2="55.1353" y1="64.6511" y2="64.7658" /><line stroke="rgb(0%,0%,0%)" x1="55.1353" x2="52.3439" y1="64.7658" y2="65.3592" /><line stroke="rgb(0%,0%,0%)" x1="52.3439" x2="52.0679" y1="65.3592" y2="65.4178" /><line stroke="rgb(0%,0%,0%)" x1="52.0679" x2="49.2142" y1="65.4178" y2="65.4178" /><line stroke="rgb(0%,0%,0%)" x1="49.2142" x2="48.9321" y1="65.4178" y2="65.4178" /><line stroke="rgb(0%,0%,0%)" x1="48.9321" x2="46.1407" y1="65.4178" y2="64.8245" /><line stroke="rgb(0%,0%,0%)" x1="46.1407" x2="45.8647" y1="64.8245" y2="64.7658" /><line stroke="rgb(0%,0%,0%)" x1="45.8647" x2="43.2577" y1="64.7658" y2="63.6051" /><line stroke="rgb(0%,0%,0%)" x1="43.2577" x2="43.0" y1="63.6051" y2="63.4904" /><line stroke="rgb(0%,0%,0%)" x1="43.0" x2="40.6913" y1="63.4904" y2="61.813" /><line stroke="rgb(0%,0%,0%)" x1="40.6913" x2="40.463" y1="61.813" y2="61.6472" /><line stroke="rgb(0%,0%,0%)" x1="40.463" x2="38.5535" y1="61.6472" y2="59.5264" /><line stroke="rgb(0%,0%,0%)" x1="38.5535" x2="38.3647" y1="59.5264" y2="59.3168" /><line stroke="rgb(0%,0%,0%)" x1="38.3647" x2="36.9379" y1="59.3168" y2="56.8454" /><line stroke="rgb(0%,0%,0%)" x1="36.9379" x2="36.7968" y1="56.8454" y2="56.6011" /><line stroke="rgb(0%,0%,0%)" x1="36.7968" x2="35.915" y1="56.6011" y2="53.887" /><line stroke="rgb(0%,0%,0%)" x1="35.915" x2="35.8278" y1="53.887" y2="53.6187" /><line stroke="rgb(0%,0%,0%)" x1="35.8278" x2="35.5295" y1="53.6187" y2="50.7806" /><line stroke="rgb(0%,0%,0%)" x1="35.5295" x2="35.5" y1="50.7806" y2="50.5" /><line stroke="rgb(0%,0%,0%)" x1="35.5" x2="35.7983" y1="50.5" y2="47.6619" /><line stroke="rgb(0%,0%,0%)" x1="35.7983" x2="35.8278" y1="47.6619" y2="47.3813" /><line stroke="rgb(0%,0%,0%)" x1="35.8278" x2="36.7096" y1="47.3813" y2="44.6673" /><line stroke="rgb(0%,0%,0%)" x1="36.7096" x2="36.7968" y1="44.6673" y2="44.3989" /><line stroke="rgb(0%,0%,0%)" x1="36.7968" x2="38.2237" y1="44.3989" y2="41.9275" /><line stroke="rgb(0%,0%,0%)" x1="38.2237" x2="38.3647" y1="41.9275" y2="41.6832" /><line stroke="rgb(0%,0%,0%)" x1="38.3647" x2="40.2743" y1="41.6832" y2="39.5625" /><line stroke="rgb(0%,0%,0%)" x1="40.2743" x2="40.463" y1="39.5625" y2="39.3528" /><line stroke="rgb(0%,0%,0%)" x1="40.463" x2="42.7718" y1="39.3528" y2="37.6754" /><line stroke="rgb(0%,0%,0%)" x1="42.7718" x2="43.0" y1="37.6754" y2="37.5096" /><line stroke="rgb(0%,0%,0%)" x1="43.0" x2="45.607" y1="37.5096" y2="36.3489" /><line stroke="rgb(0%,0%,0%)" x1="45.607" x2="45.8647" y1="36.3489" y2="36.2342" /><line stroke="rgb(0%,0%,0%)" x1="45.8647" x2="48.6561" y1="36.2342" y2="35.6408" /><line stroke="rgb(0%,0%,0%)" x1="48.6561" x2="48.9321" y1="35.6408" y2="35.5822" /><line stroke="rgb(0%,0%,0%)" x1="48.9321" x2="51.7858" y1="35.5822" y2="35.5822" /><line stroke="rgb(0%,0%,0%)" x1="51.7858" x2="52.0679" y1="35.5822" y2="35.5822" /><line stroke="rgb(0%,0%,0%)" x1="52.0679" x2="54.8593" y1="35.5822" y2="36.1755" /><line stroke="rgb(0%,0%,0%)" x1="54.8593" x2="55.1353" y1="36.1755" y2="36.2342" /><line stroke="rgb(0%,0%,0%)" x1="55.1353" x2="57.7423" y1="36.2342" y2="37.3949" /><line stroke="rgb(0%,0%,0%)" x1="57.7423" x2="58.0" y1="37.3949" y2="37.5096" /><line stroke="rgb(0%,0%,0%)" x1="58.0" x2="60.3087" y1="37.5096" y2="39.187" /><line stroke="rgb(0%,0%,0%)" x1="60.3087" x2="60.537" y1="39.187" y2="39.3528" /><line stroke="rgb(0%,0%,0%)" x1="60.537" x2="62.4465" y1="39.3528" y2="41.4736" /><line stroke="rgb(0%,0%,0%)" x1="62.4465" x2="62.6352" y1="41.4736" y2="41.6832" /><line stroke="rgb(0%,0%,0%)" x1="62.6352" x2="64.0621" y1="41.6832" y2="44.1546" /><line stroke="rgb(0%,0%,0%)" x1="64.0621" x2="64.2032" y1="44.1546" y2="44.3989" /><line stroke="rgb(0%,0%,0%)" x1="64.2032" x2="65.085" y1="44.3989" y2="47.113" /><line stroke="rgb(0%,0%,0%)" x1="65.085" x2="65.1722" y1="47.113" y2="47.3813" /></svg>