<?xml version="1.0" encoding="utf-8" ?>
<svg baseProfile="tiny" height="100%" version="1.2" width="100%" xmlns="http://www.w3.org/2000/svg" xmlns:ev="http://www.w3.org/2001/xml-events" xmlns:xlink="http://www.w3.org/1999/xlink"><defs /><line stroke="rgb(0%,0%,0%)" x1="351.9" x2="351.9" y1="0.5" y2="43.2701" /><line stroke="rgb(0%,0%,0%)" x1="351.9" x2="351.9" y1="43.2701" y2="100.5" /><line stroke="rgb(0%,0%,0%)" x1="277.6228" x2="336.1774" y1="100.5" y2="100.5" /><line stroke="rgb(0%,0%,0%)" x1="336.1774" x2="338.2195" y1="100.5" y2="100.5" /><line stroke="rgb(0%,0%,0%)" x1="338.2195" x2="340.5525" y1="100.5" y2="100.5" /><line stroke="rgb(0%,0%,0%)" x1="340.5525" x2="343.1417" y1="100.5" y2="100.5" /><line stroke="rgb(0%,0%,0%)" x1="343.1417" x2="345.9384" y1="100.5" y2="100.5" /><line stroke="rgb(0%,0%,0%)" x1="345.9384" x2="348.8814" y1="100.5" y2="100.5" /><line stroke="rgb(0%,0%,0%)" x1="348.8814" x2="351.9" y1="100.5" y2="100.5" /><line stroke="rgb(0%,0%,0%)" x1="277.6228" x2="100.1046" y1="100.5" y2="100.5" /><line stroke="rgb(0%,0%,0%)" x1="100.1046" x2="0.5" y1="100.5" y2="100.5" /><line stroke="rgb(0%,0%,0%)" x1="0.5" x2="100.1046" y1="0.5" y2="0.5" /><line stroke="rgb(0%,0%,0%)" x1="100.1046" x2="277.6228" y1="0.5" y2="0.5" /><line stroke="rgb(0%,0%,0%)" x1="277.6228" x2="336.1774" y1="0.5" y2="0.5" /><line stroke="rgb(0%,0%,0%)" x1="336.1774" x2="338.2195" y1="0.5" y2="0.5" /><line stroke="rgb(0%,0%,0%)" x1="338.2195" x2="340.5525" y1="0.5" y2="0.5" /><line stroke="rgb(0%,0%,0%)" x1="340.5525" x2="343.1417" y1="0.5" y2="0.5" /><line stroke="rgb(0%,0%,0%)" x1="343.1417" x2="345.9384" y1="0.5" y2="0.5" /><line stroke="rgb(0%,0%,0%)" x1="345.9384" x2="348.8814" y1="0.5" y2="0.5" /><line stroke="rgb(0%,0%,0%)" x1="348.8814" x2="351.9" y1="0.5" y2="0.5" /><line stroke="rgb(0%,0%,0%)" x1="0.5" x2="0.5" y1="0.5" y2="51.0174" /><line stroke="rgb(0%,0%,0%)" x1="0.5" x2="0.5" y1="51.0174" y2="100.5" /><line stroke="rgb(0%,0%,0%)" x1="165.1722" x2="165.1756" y1="47.3813" y2="47.4136" /><line stroke="rgb(0%,0%,0%)" x1="165.1756" x2="165.5" y1="47.4136" y2="50.5" /><line stroke="rgb(0%,0%,0%)" x1="165.5" x2="165.4966" y1="50.5" y2="50.5323" /><line stroke="rgb(0%,0%,0%)" x1="165.4966" x2="165.1722" y1="50.5323" y2="53.6187" /><line stroke="rgb(0%,0%,0%)" x1="165.1722" x2="165.1622" y1="53.6187" y2="53.6495" /><line stroke="rgb(0%,0%,0%)" x1="165.1622" x2="164.2032" y1="53.6495" y2="56.6011" /><line stroke="rgb(0%,0%,0%)" x1="164.2032" x2="164.187" y1="56.6011" y2="56.6292" /><line stroke="rgb(0%,0%,0%)" x1="164.187" x2="162.6353" y1="56.6292" y2="59.3168" /><line stroke="rgb(0%,0%,0%)" x1="162.6353" x2="162.6135" y1="59.3168" y2="59.3409" /><line stroke="rgb(0%,0%,0%)" x1="162.6135" x2="160.537" y1="59.3409" y2="61.6472" /><line stroke="rgb(0%,0%,0%)" x1="160.537" x2="160.5107" y1="61.6472" y2="61.6662" /><line stroke="rgb(0%,0%,0%)" x1="160.5107" x2="158.0" y1="61.6662" y2="63.4904" /><line stroke="rgb(0%,0%,0%)" x1="158.0" x2="157.9704" y1="63.4904" y2="63.5036" /><line stroke="rgb(0%,0%,0%)" x1="157.9704" x2="155.1353" y1="63.5036" y2="64.7658" /><line stroke="rgb(0%,0%,0%)" x1="155.1353" x2="155.1035" y1="64.7658" y2="64.7726" /><line stroke="rgb(0%,0%,0%)" x1="155.1035" x2="152.0679" y1="64.7726" y2="65.4178" /><line stroke="rgb(0%,0%,0%)" x1="152.0679" x2="152.0355" y1="65.4178" y2="65.4178" /><line stroke="rgb(0%,0%,0%)" x1="152.0355" x2="148.9321" y1="65.4178" y2="65.4178" /><line stroke="rgb(0%,0%,0%)" x1="148.9321" x2="148.9003" y1="65.4178" y2="65.4111" /><line stroke="rgb(0%,0%,0%)" x1="148.9003" x2="145.8647" y1="65.4111" y2="64.7658" /><line stroke="rgb(0%,0%,0%)" x1="145.8647" x2="145.8351" y1="64.7658" y2="64.7526" /><line stroke="rgb(0%,0%,0%)" x1="145.8351" x2="143.0" y1="64.7526" y2="63.4904" /><line stroke="rgb(0%,0%,0%)" x1="143.0" x2="142.9737" y1="63.4904" y2="63.4713" /><line stroke="rgb(0%,0%,0%)" x1="142.9737" x2="140.463" y1="63.4713" y2="61.6472" /><line stroke="rgb(0%,0%,0%)" x1="140.463" x2="140.4413" y1="61.6472" y2="61.6231" /><line stroke="rgb(0%,0%,0%)" x1="140.4413" x2="138.3647" y1="61.6231" y2="59.3168" /><line stroke="rgb(0%,0%,0%)" x1="138.3647" x2="138.3485" y1="59.3168" y2="59.2887" /><line stroke="rgb(0%,0%,0%)" x1="138.3485" x2="136.7968" y1="59.2887" y2="56.6011" /><line stroke="rgb(0%,0%,0%)" x1="136.7968" x2="136.7868" y1="56.6011" y2="56.5702" /><line stroke="rgb(0%,0%,0%)" x1="136.7868" x2="135.8278" y1="56.5702" y2="53.6187" /><line stroke="rgb(0%,0%,0%)" x1="135.8278" x2="135.8244" y1="53.6187" y2="53.5864" /><line stroke="rgb(0%,0%,0%)" x1="135.8244" x2="135.5" y1="53.5864" y2="50.5" /><line stroke="rgb(0%,0%,0%)" x1="135.5" x2="135.5034" y1="50.5" y2="50.4677" /><line stroke="rgb(0%,0%,0%)" x1="135.5034" x2="135.8278" y1="50.4677" y2="47.3813" /><line stroke="rgb(0%,0%,0%)" x1="135.8278" x2="135.8378" y1="47.3813" y2="47.3505" /><line stroke="rgb(0%,0%,0%)" x1="135.8378" x2="136.7968" y1="47.3505" y2="44.3989" /><line stroke="rgb(0%,0%,0%)" x1="136.7968" x2="136.813" y1="44.3989" y2="44.3708" /><line stroke="rgb(0%,0%,0%)" x1="136.813" x2="138.3647" y1="44.3708" y2="41.6832" /><line stroke="rgb(0%,0%,0%)" x1="138.3647" x2="138.3865" y1="41.6832" y2="41.6591" /><line stroke="rgb(0%,0%,0%)" x1="138.3865" x2="140.463" y1="41.6591" y2="39.3528" /><line stroke="rgb(0%,0%,0%)" x1="140.463" x2="140.4893" y1="39.3528" y2="39.3338" /><line stroke="rgb(0%,0%,0%)" x1="140.4893" x2="143.0" y1="39.3338" y2="37.5096" /><line stroke="rgb(0%,0%,0%)" x1="143.0" x2="143.0296" y1="37.5096" y2="37.4964" /><line stroke="rgb(0%,0%,0%)" x1="143.0296" x2="145.8647" y1="37.4964" y2="36.2342" /><line stroke="rgb(0%,0%,0%)" x1="145.8647" x2="145.8965" y1="36.2342" y2="36.2274" /><line stroke="rgb(0%,0%,0%)" x1="145.8965" x2="148.9321" y1="36.2274" y2="35.5822" /><line stroke="rgb(0%,0%,0%)" x1="148.9321" x2="148.9645" y1="35.5822" y2="35.5822" /><line stroke="rgb(0%,0%,0%)" x1="148.9645" x2="152.0679" y1="35.5822" y2="35.5822" /><line stroke="rgb(0%,0%,0%)" x1="152.0679" x2="152.0997" y1="35.5822" y2="35.5889" /><line stroke="rgb(0%,0%,0%)" x1="152.0997" x2="155.1353" y1="35.5889" y2="36.2342" /><line stroke="rgb(0%,0%,0%)" x1="155.1353" x2="155.1649" y1="36.2342" y2="36.2474" /><line stroke="rgb(0%,0%,0%)" x1="155.1649" x2="158.0" y1="36.2474" y2="37.5096" /><line stroke="rgb(0%,0%,0%)" x1="158.0" x2="158.0262" y1="37.5096" y2="37.5287" /><line stroke="rgb(0%,0%,0%)" x1="158.0262" x2="160.537" y1="37.5287" y2="39.3528" /><line stroke="rgb(0%,0%,0%)" x1="160.537" x2="160.5587" y1="39.3528" y2="39.3769" /><line stroke="rgb(0%,0%,0%)" x1="160.5587" x2="162.6353" y1="39.3769" y2="41.6832" /><line stroke="rgb(0%,0%,0%)" x1="162.6353" x2="162.6515" y1="41.6832" y2="41.7113" /><line stroke="rgb(0%,0%,0%)" x1="162.6515" x2="164.2032" y1="41.7113" y2="44.3989" /><line stroke="rgb(0%,0%,0%)" x1="164.2032" x2="164.2132" y1="44.3989" y2="44.4298" /><line stroke="rgb(0%,0%,0%)" x1="164.2132" x2="165.1722" y1="44.4298" y2="47.3813" /><line stroke="rgb(0%,0%,0%)" x1="65.1722" x2="65.1756" y1="47.3813" y2="47.4136" /><line stroke="rgb(0%,0%,0%)" x1="65.1756" x2="65.5" y1="47.4136" y2="50.5" /><line stroke="rgb(0%,0%,0%)" x1="65.5" x2="65.4966" y1="50.5" y2="50.5323" /><line stroke="rgb(0%,0%,0%)" x1="65.4966" x2="65.1722" y1="50.5323" y2="53.6187" /><line stroke="rgb(0%,0%,0%)" x1="65.1722" x2="65.1622" y1="53.6187" y2="53.6495" /><line stroke="rgb(0%,0%,0%)" x1="65.1622" x2="64.2032" y1="53.6495" y2="56.6011" /><line stroke="rgb(0%,0%,0%)" x1="64.2032" x2="64.1869" y1="56.6011" y2="56.6292" /><line stroke="rgb(0%,0%,0%)" x1="64.1869" x2="62.6352" y1="56.6292" y2="59.3168" /><line stroke="rgb(0%,0%,0%)" x1="62.6352" x2="62.6135" y1="59.3168" y2="59.3409" /><line stroke="rgb(0%,0%,0%)" x1="62.6135" x2="60.537" y1="59.3409" y2="61.6472" /><line stroke="rgb(0%,0%,0%)" x1="60.537" x2="60.5107" y1="61.6472" y2="61.6662" /><line stroke="rgb(0%,0%,0%)" x1="60.5107" x2="58.0" y1="61.6662" y2="63.4904" /><line stroke="rgb(0%,0%,0%)" x1="58.0" x2="57.9704" y1="63.4904" y2="63.5036" /><line stroke="rgb(0%,0%,0%)" x1="57.9704" x2="55.1353" y1="63.5036" y2="64.7658" /><line stroke="rgb(0%,0%,0%)" x1="55.1353" x2="55.1035" y1="64.7658" y2="64.7726" /><line stroke="rgb(0%,0%,0%)" x1="55.1035" x2="52.0679" y1="64.7726" y2="65.4178" /><line stroke="rgb(0%,0%,0%)" x1="52.0679" x2="52.0355" y1="65.4178" y2="65.4178" /><line stroke="rgb(0%,0%,0%)" x1="52.0355" x2="48.9321" y1="65.4178" y2="65.4178" /><line stroke="rgb(0%,0%,0%)" x1="48.9321" x2="48.9003" y1="65.4178" y2="65.4111" /><line stroke="rgb(0%,0%,0%)" x1="48.9003" x2="45.8647" y1="65.4111" y2="64.7658" /><line stroke="rgb(0%,0%,0%)" x1="45.8647" x2="45.8351" y1="64.7658" y2="64.7526" /><line stroke="rgb(0%,0%,0%)" x1="45.8351" x2="43.0" y1="64.7526" y2="63.4904" /><line stroke="rgb(0%,0%,0%)" x1="43.0" x2="42.9737" y1="63.4904" y2="63.4713" /><line stroke="rgb(0%,0%,0%)" x1="42.9737" x2="40.463" y1="63.4713" y2="61.6472" /><line stroke="rgb(0%,0%,0%)" x1="40.463" x2="40.4413" y1="61.6472" y2="61.6231" /><line stroke="rgb(0%,0%,0%)" x1="40.4413" x2="38.3647" y1="61.6231" y2="59.3168" /><line stroke="rgb(0%,0%,0%)" x1="38.3647" x2="38.3485" y1="59.3168" y2="59.2887" /><line stroke="rgb(0%,0%,0%)" x1="38.3485" x2="36.7968" y1="59.2887" y2="56.6011" /><line stroke="rgb(0%,0%,0%)" x1="36.7968" x2="36.7868" y1="56.6011" y2="56.5702" /><line stroke="rgb(0%,0%,0%)" x1="36.7868" x2="35.8278" y1="56.5702" y2="53.6187" /><line stroke="rgb(0%,0%,0%)" x1="35.8278" x2="35.8244" y1="53.6187" y2="53.5864" /><line stroke="rgb(0%,0%,0%)" x1="35.8244" x2="35.5" y1="53.5864" y2="50.5" /><line stroke="rgb(0%,0%,0%)" x1="35.5" x2="35.5034" y1="50.5" y2="50.4677" /><line stroke="rgb(0%,0%,0%)" x1="35.5034" x2="35.8278" y1="50.4677" y2="47.3813" /><line stroke="rgb(0%,0%,0%)" x1="35.8278" x2="35.8378" y1="47.3813" y2="47.3505" /><line stroke="rgb(0%,0%,0%)" x1="35.8378" x2="36.7968" y1="47.3505" y2="44.3989" /><line stroke="rgb(0%,0%,0%)" x1="36.7968" x2="36.813" y1="44.3989" y2="44.3708" /><line stroke="rgb(0%,0%,0%)" x1="36.813" x2="38.3647" y1="44.3708" y2="41.6832" /><line stroke="rgb(0%,0%,0%)" x1="38.3647" x2="38.3865" y1="41.6832" y2="41.6591" /><line stroke="rgb(0%,0%,0%)" x1="38.3865" x2="40.463" y1="41.6591" y2="39.3528" /><line stroke="rgb(0%,0%,0%)" x1="40.463" x2="40.4893" y1="39.3528" y2="39.3338" /><line stroke="rgb(0%,0%,0%)" x1="40.4893" x2="43.0" y1="39.3338" y2="37.5096" /><line stroke="rgb(0%,0%,0%)" x1="43.0" x2="43.0296" y1="37.5096" y2="37.4964" /><line stroke="rgb(0%,0%,0%)" x1="43.0296" x2="45.8647" y1="37.4964" y2="36.2342" /><line stroke="rgb(0%,0%,0%)" x1="45.8647" x2="45.8965" y1="36.2342" y2="36.2274" /><line stroke="rgb(0%,0%,0%)" x1="45.8965" x2="48.9321" y1="36.2274" y2="35.5822" /><line stroke="rgb(0%,0%,0%)" x1="48.9321" x2="48.9645" y1="35.5822" y2="35.5822" /><line stroke="rgb(0%,0%,0%)" x1="48.9645" x2="52.0679" y1="35.5822" y2="35.5822" /><line stroke="rgb(0%,0%,0%)" x1="52.0679" x2="52.0997" y1="35.5822" y2="35.5889" /><line stroke="rgb(0%,0%,0%)" x1="52.0997" x2="55.1353" y1="35.5889" y2="36.2342" /><line stroke="rgb(0%,0%,0%)" x1="55.1353" x2="55.1649" y1="36.2342" y2="36.2474" /><line stroke="rgb(0%,0%,0%)" x1="55.1649" x2="58.0" y1="36.2474" y2="37.5096" /><line stroke="rgb(0%,0%,0%)" x1="58.0" x2="58.0263" y1="37.5096" y2="37.5287" /><line stroke="rgb(0%,0%,0%)" x1="58.0263" x2="60.537" y1="37.5287" y2="39.3528" /><line stroke="rgb(0%,0%,0%)" x1="60.537" x2="60.5587" y1="39.3528" y2="39.3769" /><line stroke="rgb(0%,0%,0%)" x1="60.5587" x2="62.6352" y1="39.3769" y2="41.6832" /><line stroke="rgb(0%,0%,0%)" x1="62.6352" x2="62.6515" y1="41.6832" y2="41.7113" /><line stroke="rgb(0%,0%,0%)" x1="62.6515" x2="64.2032" y1="41.7113" y2="44.3989" /><line stroke="rgb(0%,0%,0%)" x1="64.2032" x2="64.2132" y1="44.3989" y2="44.4298" /><line stroke="rgb(0%,0%,0%)" x1="64.2132" x2="65.1722" y1="44.4298" y2="47.3813" /></svg>