<?xml version="1.0" encoding="utf-8" ?>
<svg baseProfile="tiny" height="100%" version="1.2" width="100%" xmlns="http://www.w3.org/2000/svg" xmlns:ev="http://www.w3.org/2001/xml-events" xmlns:xlink="http://www.w3.org/1999/xlink"><defs /><line stroke="rgb(0%,0%,0%)" x1="351.9" x2="351.9" y1="0.5" y2="44.1341" /><line stroke="rgb(0%,0%,0%)" x1="351.9" x2="351.9" y1="44.1341" y2="100.5" /><line stroke="rgb(0%,0%,0%)" x1="276.1222" x2="335.8597" y1="100.5" y2="100.5" /><line stroke="rgb(0%,0%,0%)" x1="335.8597" x2="337.9431" y1="100.5" y2="100.5" /><line stroke="rgb(0%,0%,0%)" x1="337.9431" x2="340.3232" y1="100.5" y2="100.5" /><line stroke="rgb(0%,0%,0%)" x1="340.3232" x2="342.9647" y1="100.5" y2="100.5" /><line stroke="rgb(0%,0%,0%)" x1="342.9647" x2="345.818" y1="100.5" y2="100.5" /><line stroke="rgb(0%,0%,0%)" x1="345.818" x2="348.8204" y1="100.5" y2="100.5" /><line stroke="rgb(0%,0%,0%)" x1="348.8204" x2="351.9" y1="100.5" y2="100.5" /><line stroke="rgb(0%,0%,0%)" x1="276.1222" x2="102.1168" y1="100.5" y2="100.5" /><line stroke="rgb(0%,0%,0%)" x1="102.1168" x2="0.5" y1="100.5" y2="100.5" /><line stroke="rgb(0%,0%,0%)" x1="0.5" x2="102.1168" y1="0.5" y2="0.5" /><line stroke="rgb(0%,0%,0%)" x1="102.1168" x2="276.1222" y1="0.5" y2="0.5" /><line stroke="rgb(0%,0%,0%)" x1="276.1222" x2="335.8597" y1="0.5" y2="0.5" /><line stroke="rgb(0%,0%,0%)" x1="335.8597" x2="337.9431" y1="0.5" y2="0.5" /><line stroke="rgb(0%,0%,0%)" x1="337.9431" x2="340.3232" y1="0.5" y2="0.5" /><line stroke="rgb(0%,0%,0%)" x1="340.3232" x2="342.9647" y1="0.5" y2="0.5" /><line stroke="rgb(0%,0%,0%)" x1="342.9647" x2="345.818" y1="0.5" y2="0.5" /><line stroke="rgb(0%,0%,0%)" x1="345.818" x2="348.8204" y1="0.5" y2="0.5" /><line stroke="rgb(0%,0%,0%)" x1="348.8204" x2="351.9" y1="0.5" y2="0.5" /><line stroke="rgb(0%,0%,0%)" x1="0.5" x2="0.5" y1="0.5" y2="50.0178" /><line stroke="rgb(0%,0%,0%)" x1="0.5" x2="0.5" y1="50.0178" y2="100.5" /><line stroke="rgb(0%,0%,0%)" x1="135.8278" x2="135.8246" y1="47.3813" y2="47.4114" /><line stroke="rgb(0%,0%,0%)" x1="135.8246" x2="135.5" y1="47.4114" y2="50.5" /><line stroke="rgb(0%,0%,0%)" x1="135.5" x2="135.5032" y1="50.5" y2="50.5301" /><line stroke="rgb(0%,0%,0%)" x1="135.5032" x2="135.8278" y1="50.5301" y2="53.6187" /><line stroke="rgb(0%,0%,0%)" x1="135.8278" x2="135.8371" y1="53.6187" y2="53.6474" /><line stroke="rgb(0%,0%,0%)" x1="135.8371" x2="136.7968" y1="53.6474" y2="56.6011" /><line stroke="rgb(0%,0%,0%)" x1="136.7968" x2="136.8119" y1="56.6011" y2="56.6272" /><line stroke="rgb(0%,0%,0%)" x1="136.8119" x2="138.3647" y1="56.6272" y2="59.3168" /><line stroke="rgb(0%,0%,0%)" x1="138.3647" x2="138.385" y1="59.3168" y2="59.3393" /><line stroke="rgb(0%,0%,0%)" x1="138.385" x2="140.463" y1="59.3393" y2="61.6472" /><line stroke="rgb(0%,0%,0%)" x1="140.463" x2="140.4875" y1="61.6472" y2="61.6649" /><line stroke="rgb(0%,0%,0%)" x1="140.4875" x2="143.0" y1="61.6649" y2="63.4904" /><line stroke="rgb(0%,0%,0%)" x1="143.0" x2="143.0276" y1="63.4904" y2="63.5027" /><line stroke="rgb(0%,0%,0%)" x1="143.0276" x2="145.8647" y1="63.5027" y2="64.7658" /><line stroke="rgb(0%,0%,0%)" x1="145.8647" x2="145.8943" y1="64.7658" y2="64.7721" /><line stroke="rgb(0%,0%,0%)" x1="145.8943" x2="148.9321" y1="64.7721" y2="65.4178" /><line stroke="rgb(0%,0%,0%)" x1="148.9321" x2="148.9623" y1="65.4178" y2="65.4178" /><line stroke="rgb(0%,0%,0%)" x1="148.9623" x2="152.0679" y1="65.4178" y2="65.4178" /><line stroke="rgb(0%,0%,0%)" x1="152.0679" x2="152.0975" y1="65.4178" y2="65.4115" /><line stroke="rgb(0%,0%,0%)" x1="152.0975" x2="155.1353" y1="65.4115" y2="64.7658" /><line stroke="rgb(0%,0%,0%)" x1="155.1353" x2="155.1629" y1="64.7658" y2="64.7535" /><line stroke="rgb(0%,0%,0%)" x1="155.1629" x2="158.0" y1="64.7535" y2="63.4904" /><line stroke="rgb(0%,0%,0%)" x1="158.0" x2="158.0245" y1="63.4904" y2="63.4726" /><line stroke="rgb(0%,0%,0%)" x1="158.0245" x2="160.537" y1="63.4726" y2="61.6472" /><line stroke="rgb(0%,0%,0%)" x1="160.537" x2="160.5572" y1="61.6472" y2="61.6247" /><line stroke="rgb(0%,0%,0%)" x1="160.5572" x2="162.6353" y1="61.6247" y2="59.3168" /><line stroke="rgb(0%,0%,0%)" x1="162.6353" x2="162.6504" y1="59.3168" y2="59.2906" /><line stroke="rgb(0%,0%,0%)" x1="162.6504" x2="164.2032" y1="59.2906" y2="56.6011" /><line stroke="rgb(0%,0%,0%)" x1="164.2032" x2="164.2125" y1="56.6011" y2="56.5723" /><line stroke="rgb(0%,0%,0%)" x1="164.2125" x2="165.1722" y1="56.5723" y2="53.6187" /><line stroke="rgb(0%,0%,0%)" x1="165.1722" x2="165.1754" y1="53.6187" y2="53.5886" /><line stroke="rgb(0%,0%,0%)" x1="165.1754" x2="165.5" y1="53.5886" y2="50.5" /><line stroke="rgb(0%,0%,0%)" x1="165.5" x2="165.4968" y1="50.5" y2="50.4699" /><line stroke="rgb(0%,0%,0%)" x1="165.4968" x2="165.1722" y1="50.4699" y2="47.3813" /><line stroke="rgb(0%,0%,0%)" x1="165.1722" x2="165.1629" y1="47.3813" y2="47.3526" /><line stroke="rgb(0%,0%,0%)" x1="165.1629" x2="164.2032" y1="47.3526" y2="44.3989" /><line stroke="rgb(0%,0%,0%)" x1="164.2032" x2="164.1881" y1="44.3989" y2="44.3728" /><line stroke="rgb(0%,0%,0%)" x1="164.1881" x2="162.6353" y1="44.3728" y2="41.6832" /><line stroke="rgb(0%,0%,0%)" x1="162.6353" x2="162.615" y1="41.6832" y2="41.6607" /><line stroke="rgb(0%,0%,0%)" x1="162.615" x2="160.537" y1="41.6607" y2="39.3528" /><line stroke="rgb(0%,0%,0%)" x1="160.537" x2="160.5125" y1="39.3528" y2="39.3351" /><line stroke="rgb(0%,0%,0%)" x1="160.5125" x2="158.0" y1="39.3351" y2="37.5096" /><line stroke="rgb(0%,0%,0%)" x1="158.0" x2="157.9724" y1="37.5096" y2="37.4973" /><line stroke="rgb(0%,0%,0%)" x1="157.9724" x2="155.1353" y1="37.4973" y2="36.2342" /><line stroke="rgb(0%,0%,0%)" x1="155.1353" x2="155.1057" y1="36.2342" y2="36.2279" /><line stroke="rgb(0%,0%,0%)" x1="155.1057" x2="152.0679" y1="36.2279" y2="35.5822" /><line stroke="rgb(0%,0%,0%)" x1="152.0679" x2="152.0377" y1="35.5822" y2="35.5822" /><line stroke="rgb(0%,0%,0%)" x1="152.0377" x2="148.9321" y1="35.5822" y2="35.5822" /><line stroke="rgb(0%,0%,0%)" x1="148.9321" x2="148.9025" y1="35.5822" y2="35.5885" /><line stroke="rgb(0%,0%,0%)" x1="148.9025" x2="145.8647" y1="35.5885" y2="36.2342" /><line stroke="rgb(0%,0%,0%)" x1="145.8647" x2="145.8371" y1="36.2342" y2="36.2465" /><line stroke="rgb(0%,0%,0%)" x1="145.8371" x2="143.0" y1="36.2465" y2="37.5096" /><line stroke="rgb(0%,0%,0%)" x1="143.0" x2="142.9755" y1="37.5096" y2="37.5274" /><line stroke="rgb(0%,0%,0%)" x1="142.9755" x2="140.463" y1="37.5274" y2="39.3528" /><line stroke="rgb(0%,0%,0%)" x1="140.463" x2="140.4428" y1="39.3528" y2="39.3753" /><line stroke="rgb(0%,0%,0%)" x1="140.4428" x2="138.3647" y1="39.3753" y2="41.6832" /><line stroke="rgb(0%,0%,0%)" x1="138.3647" x2="138.3496" y1="41.6832" y2="41.7094" /><line stroke="rgb(0%,0%,0%)" x1="138.3496" x2="136.7968" y1="41.7094" y2="44.3989" /><line stroke="rgb(0%,0%,0%)" x1="136.7968" x2="136.7875" y1="44.3989" y2="44.4277" /><line stroke="rgb(0%,0%,0%)" x1="136.7875" x2="135.8278" y1="44.4277" y2="47.3813" /><line stroke="rgb(0%,0%,0%)" x1="35.8278" x2="35.8246" y1="47.3813" y2="47.4114" /><line stroke="rgb(0%,0%,0%)" x1="35.8246" x2="35.5" y1="47.4114" y2="50.5" /><line stroke="rgb(0%,0%,0%)" x1="35.5" x2="35.5032" y1="50.5" y2="50.5301" /><line stroke="rgb(0%,0%,0%)" x1="35.5032" x2="35.8278" y1="50.5301" y2="53.6187" /><line stroke="rgb(0%,0%,0%)" x1="35.8278" x2="35.8371" y1="53.6187" y2="53.6474" /><line stroke="rgb(0%,0%,0%)" x1="35.8371" x2="36.7968" y1="53.6474" y2="56.6011" /><line stroke="rgb(0%,0%,0%)" x1="36.7968" x2="36.8119" y1="56.6011" y2="56.6272" /><line stroke="rgb(0%,0%,0%)" x1="36.8119" x2="38.3647" y1="56.6272" y2="59.3168" /><line stroke="rgb(0%,0%,0%)" x1="38.3647" x2="38.385" y1="59.3168" y2="59.3393" /><line stroke="rgb(0%,0%,0%)" x1="38.385" x2="40.463" y1="59.3393" y2="61.6472" /><line stroke="rgb(0%,0%,0%)" x1="40.463" x2="40.4875" y1="61.6472" y2="61.6649" /><line stroke="rgb(0%,0%,0%)" x1="40.4875" x2="43.0" y1="61.6649" y2="63.4904" /><line stroke="rgb(0%,0%,0%)" x1="43.0" x2="43.0276" y1="63.4904" y2="63.5027" /><line stroke="rgb(0%,0%,0%)" x1="43.0276" x2="45.8647" y1="63.5027" y2="64.7658" /><line stroke="rgb(0%,0%,0%)" x1="45.8647" x2="45.8943" y1="64.7658" y2="64.7721" /><line stroke="rgb(0%,0%,0%)" x1="45.8943" x2="48.9321" y1="64.7721" y2="65.4178" /><line stroke="rgb(0%,0%,0%)" x1="48.9321" x2="48.9623" y1="65.4178" y2="65.4178" /><line stroke="rgb(0%,0%,0%)" x1="48.9623" x2="52.0679" y1="65.4178" y2="65.4178" /><line stroke="rgb(0%,0%,0%)" x1="52.0679" x2="52.0975" y1="65.4178" y2="65.4115" /><line stroke="rgb(0%,0%,0%)" x1="52.0975" x2="55.1353" y1="65.4115" y2="64.7658" /><line stroke="rgb(0%,0%,0%)" x1="55.1353" x2="55.1629" y1="64.7658" y2="64.7535" /><line stroke="rgb(0%,0%,0%)" x1="55.1629" x2="58.0" y1="64.7535" y2="63.4904" /><line stroke="rgb(0%,0%,0%)" x1="58.0" x2="58.0245" y1="63.4904" y2="63.4726" /><line stroke="rgb(0%,0%,0%)" x1="58.0245" x2="60.537" y1="63.4726" y2="61.6472" /><line stroke="rgb(0%,0%,0%)" x1="60.537" x2="60.5572" y1="61.6472" y2="61.6247" /><line stroke="rgb(0%,0%,0%)" x1="60.5572" x2="62.6352" y1="61.6247" y2="59.3168" /><line stroke="rgb(0%,0%,0%)" x1="62.6352" x2="62.6504" y1="59.3168" y2="59.2906" /><line stroke="rgb(0%,0%,0%)" x1="62.6504" x2="64.2032" y1="59.2906" y2="56.6011" /><line stroke="rgb(0%,0%,0%)" x1="64.2032" x2="64.2125" y1="56.6011" y2="56.5723" /><line stroke="rgb(0%,0%,0%)" x1="64.2125" x2="65.1722" y1="56.5723" y2="53.6187" /><line stroke="rgb(0%,0%,0%)" x1="65.1722" x2="65.1754" y1="53.6187" y2="53.5886" /><line stroke="rgb(0%,0%,0%)" x1="65.1754" x2="65.5" y1="53.5886" y2="50.5" /><line stroke="rgb(0%,0%,0%)" x1="65.5" x2="65.4968" y1="50.5" y2="50.4699" /><line stroke="rgb(0%,0%,0%)" x1="65.4968" x2="65.1722" y1="50.4699" y2="47.3813" /><line stroke="rgb(0%,0%,0%)" x1="65.1722" x2="65.1629" y1="47.3813" y2="47.3526" /><line stroke="rgb(0%,0%,0%)" x1="65.1629" x2="64.2032" y1="47.3526" y2="44.3989" /><line stroke="rgb(0%,0%,0%)" x1="64.2032" x2="64.1881" y1="44.3989" y2="44.3728" /><line stroke="rgb(0%,0%,0%)" x1="64.1881" x2="62.6352" y1="44.3728" y2="41.6832" /><line stroke="rgb(0%,0%,0%)" x1="62.6352" x2="62.615" y1="41.6832" y2="41.6607" /><line stroke="rgb(0%,0%,0%)" x1="62.615" x2="60.537" y1="41.6607" y2="39.3528" /><line stroke="rgb(0%,0%,0%)" x1="60.537" x2="60.5125" y1="39.3528" y2="39.3351" /><line stroke="rgb(0%,0%,0%)" x1="60.5125" x2="58.0" y1="39.3351" y2="37.5096" /><line stroke="rgb(0%,0%,0%)" x1="58.0" x2="57.9724" y1="37.5096" y2="37.4973" /><line stroke="rgb(0%,0%,0%)" x1="57.9724" x2="55.1353" y1="37.4973" y2="36.2342" /><line stroke="rgb(0%,0%,0%)" x1="55.1353" x2="55.1057" y1="36.2342" y2="36.2279" /><line stroke="rgb(0%,0%,0%)" x1="55.1057" x2="52.0679" y1="36.2279" y2="35.5822" /><line stroke="rgb(0%,0%,0%)" x1="52.0679" x2="52.0377" y1="35.5822" y2="35.5822" /><line stroke="rgb(0%,0%,0%)" x1="52.0377" x2="48.9321" y1="35.5822" y2="35.5822" /><line stroke="rgb(0%,0%,0%)" x1="48.9321" x2="48.9025" y1="35.5822" y2="35.5885" /><line stroke="rgb(0%,0%,0%)" x1="48.9025" x2="45.8647" y1="35.5885" y2="36.2342" /><line stroke="rgb(0%,0%,0%)" x1="45.8647" x2="45.8371" y1="36.2342" y2="36.2465" /><line stroke="rgb(0%,0%,0%)" x1="45.8371" x2="43.0" y1="36.2465" y2="37.5096" /><line stroke="rgb(0%,0%,0%)" x1="43.0" x2="42.9755" y1="37.5096" y2="37.5274" /><line stroke="rgb(0%,0%,0%)" x1="42.9755" x2="40.463" y1="37.5274" y2="39.3528" /><line stroke="rgb(0%,0%,0%)" x1="40.463" x2="40.4428" y1="39.3528" y2="39.3753" /><line stroke="rgb(0%,0%,0%)" x1="40.4428" x2="38.3647" y1="39.3753" y2="41.6832" /><line stroke="rgb(0%,0%,0%)" x1="38.3647" x2="38.3496" y1="41.6832" y2="41.7094" /><line stroke="rgb(0%,0%,0%)" x1="38.3496" x2="36.7968" y1="41.7094" y2="44.3989" /><line stroke="rgb(0%,0%,0%)" x1="36.7968" x2="36.7875" y1="44.3989" y2="44.4277" /><line stroke="rgb(0%,0%,0%)" x1="36.7875" x2="35.8278" y1="44.4277" y2="47.3813" /></svg>