<?xml version="1.0" encoding="utf-8" ?>
<svg baseProfile="tiny" height="100%" version="1.2" width="100%" xmlns="http://www.w3.org/2000/svg" xmlns:ev="http://www.w3.org/2001/xml-events" xmlns:xlink="http://www.w3.org/1999/xlink"><defs /><line stroke="rgb(0%,0%,0%)" x1="351.9" x2="351.9" y1="0.5" y2="44.9981" /><line stroke="rgb(0%,0%,0%)" x1="351.9" x2="351.9" y1="44.9981" y2="100.5" /><line stroke="rgb(0%,0%,0%)" x1="274.6217" x2="335.5421" y1="100.5" y2="100.5" /><line stroke="rgb(0%,0%,0%)" x1="335.5421" x2="337.6667" y1="100.5" y2="100.5" /><line stroke="rgb(0%,0%,0%)" x1="337.6667" x2="340.094" y1="100.5" y2="100.5" /><line stroke="rgb(0%,0%,0%)" x1="340.094" x2="342.7878" y1="100.5" y2="100.5" /><line stroke="rgb(0%,0%,0%)" x1="342.7878" x2="345.6975" y1="100.5" y2="100.5" /><line stroke="rgb(0%,0%,0%)" x1="345.6975" x2="348.7594" y1="100.5" y2="100.5" /><line stroke="rgb(0%,0%,0%)" x1="348.7594" x2="351.9" y1="100.5" y2="100.5" /><line stroke="rgb(0%,0%,0%)" x1="274.6217" x2="104.1291" y1="100.5" y2="100.5" /><line stroke="rgb(0%,0%,0%)" x1="104.1291" x2="0.5" y1="100.5" y2="100.5" /><line stroke="rgb(0%,0%,0%)" x1="0.5" x2="104.1291" y1="0.5" y2="0.5" /><line stroke="rgb(0%,0%,0%)" x1="104.1291" x2="274.6217" y1="0.5" y2="0.5" /><line stroke="rgb(0%,0%,0%)" x1="274.6217" x2="335.5421" y1="0.5" y2="0.5" /><line stroke="rgb(0%,0%,0%)" x1="335.5421" x2="337.6667" y1="0.5" y2="0.5" /><line stroke="rgb(0%,0%,0%)" x1="337.6667" x2="340.094" y1="0.5" y2="0.5" /><line stroke="rgb(0%,0%,0%)" x1="340.094" x2="342.7878" y1="0.5" y2="0.5" /><line stroke="rgb(0%,0%,0%)" x1="342.7878" x2="345.6975" y1="0.5" y2="0.5" /><line stroke="rgb(0%,0%,0%)" x1="345.6975" x2="348.7594" y1="0.5" y2="0.5" /><line stroke="rgb(0%,0%,0%)" x1="348.7594" x2="351.9" y1="0.5" y2="0.5" /><line stroke="rgb(0%,0%,0%)" x1="0.5" x2="0.5" y1="0.5" y2="49.0181" /><line stroke="rgb(0%,0%,0%)" x1="0.5" x2="0.5" y1="49.0181" y2="100.5" /><line stroke="rgb(0%,0%,0%)" x1="135.8278" x2="135.8181" y1="47.3813" y2="47.4738" /><line stroke="rgb(0%,0%,0%)" x1="135.8181" x2="135.5" y1="47.4738" y2="50.5" /><line stroke="rgb(0%,0%,0%)" x1="135.5" x2="135.5097" y1="50.5" y2="50.5924" /><line stroke="rgb(0%,0%,0%)" x1="135.5097" x2="135.8278" y1="50.5924" y2="53.6187" /><line stroke="rgb(0%,0%,0%)" x1="135.8278" x2="135.8565" y1="53.6187" y2="53.7071" /><line stroke="rgb(0%,0%,0%)" x1="135.8565" x2="136.7968" y1="53.7071" y2="56.6011" /><line stroke="rgb(0%,0%,0%)" x1="136.7968" x2="136.8433" y1="56.6011" y2="56.6815" /><line stroke="rgb(0%,0%,0%)" x1="136.8433" x2="138.3647" y1="56.6815" y2="59.3168" /><line stroke="rgb(0%,0%,0%)" x1="138.3647" x2="138.4269" y1="59.3168" y2="59.3858" /><line stroke="rgb(0%,0%,0%)" x1="138.4269" x2="140.463" y1="59.3858" y2="61.6472" /><line stroke="rgb(0%,0%,0%)" x1="140.463" x2="140.5382" y1="61.6472" y2="61.7018" /><line stroke="rgb(0%,0%,0%)" x1="140.5382" x2="143.0" y1="61.7018" y2="63.4904" /><line stroke="rgb(0%,0%,0%)" x1="143.0" x2="143.0849" y1="63.4904" y2="63.5282" /><line stroke="rgb(0%,0%,0%)" x1="143.0849" x2="145.8647" y1="63.5282" y2="64.7658" /><line stroke="rgb(0%,0%,0%)" x1="145.8647" x2="145.9557" y1="64.7658" y2="64.7852" /><line stroke="rgb(0%,0%,0%)" x1="145.9557" x2="148.9321" y1="64.7852" y2="65.4178" /><line stroke="rgb(0%,0%,0%)" x1="148.9321" x2="149.025" y1="65.4178" y2="65.4178" /><line stroke="rgb(0%,0%,0%)" x1="149.025" x2="152.0679" y1="65.4178" y2="65.4178" /><line stroke="rgb(0%,0%,0%)" x1="152.0679" x2="152.1588" y1="65.4178" y2="65.3985" /><line stroke="rgb(0%,0%,0%)" x1="152.1588" x2="155.1353" y1="65.3985" y2="64.7658" /><line stroke="rgb(0%,0%,0%)" x1="155.1353" x2="155.2202" y1="64.7658" y2="64.728" /><line stroke="rgb(0%,0%,0%)" x1="155.2202" x2="158.0" y1="64.728" y2="63.4904" /><line stroke="rgb(0%,0%,0%)" x1="158.0" x2="158.0752" y1="63.4904" y2="63.4358" /><line stroke="rgb(0%,0%,0%)" x1="158.0752" x2="160.537" y1="63.4358" y2="61.6472" /><line stroke="rgb(0%,0%,0%)" x1="160.537" x2="160.5991" y1="61.6472" y2="61.5781" /><line stroke="rgb(0%,0%,0%)" x1="160.5991" x2="162.6353" y1="61.5781" y2="59.3168" /><line stroke="rgb(0%,0%,0%)" x1="162.6353" x2="162.6817" y1="59.3168" y2="59.2363" /><line stroke="rgb(0%,0%,0%)" x1="162.6817" x2="164.2032" y1="59.2363" y2="56.6011" /><line stroke="rgb(0%,0%,0%)" x1="164.2032" x2="164.2319" y1="56.6011" y2="56.5127" /><line stroke="rgb(0%,0%,0%)" x1="164.2319" x2="165.1722" y1="56.5127" y2="53.6187" /><line stroke="rgb(0%,0%,0%)" x1="165.1722" x2="165.1819" y1="53.6187" y2="53.5262" /><line stroke="rgb(0%,0%,0%)" x1="165.1819" x2="165.5" y1="53.5262" y2="50.5" /><line stroke="rgb(0%,0%,0%)" x1="165.5" x2="165.4903" y1="50.5" y2="50.4076" /><line stroke="rgb(0%,0%,0%)" x1="165.4903" x2="165.1722" y1="50.4076" y2="47.3813" /><line stroke="rgb(0%,0%,0%)" x1="165.1722" x2="165.1435" y1="47.3813" y2="47.2929" /><line stroke="rgb(0%,0%,0%)" x1="165.1435" x2="164.2032" y1="47.2929" y2="44.3989" /><line stroke="rgb(0%,0%,0%)" x1="164.2032" x2="164.1567" y1="44.3989" y2="44.3185" /><line stroke="rgb(0%,0%,0%)" x1="164.1567" x2="162.6353" y1="44.3185" y2="41.6832" /><line stroke="rgb(0%,0%,0%)" x1="162.6353" x2="162.5731" y1="41.6832" y2="41.6142" /><line stroke="rgb(0%,0%,0%)" x1="162.5731" x2="160.537" y1="41.6142" y2="39.3528" /><line stroke="rgb(0%,0%,0%)" x1="160.537" x2="160.4618" y1="39.3528" y2="39.2982" /><line stroke="rgb(0%,0%,0%)" x1="160.4618" x2="158.0" y1="39.2982" y2="37.5096" /><line stroke="rgb(0%,0%,0%)" x1="158.0" x2="157.9151" y1="37.5096" y2="37.4718" /><line stroke="rgb(0%,0%,0%)" x1="157.9151" x2="155.1353" y1="37.4718" y2="36.2342" /><line stroke="rgb(0%,0%,0%)" x1="155.1353" x2="155.0443" y1="36.2342" y2="36.2148" /><line stroke="rgb(0%,0%,0%)" x1="155.0443" x2="152.0679" y1="36.2148" y2="35.5822" /><line stroke="rgb(0%,0%,0%)" x1="152.0679" x2="151.975" y1="35.5822" y2="35.5822" /><line stroke="rgb(0%,0%,0%)" x1="151.975" x2="148.9321" y1="35.5822" y2="35.5822" /><line stroke="rgb(0%,0%,0%)" x1="148.9321" x2="148.8412" y1="35.5822" y2="35.6015" /><line stroke="rgb(0%,0%,0%)" x1="148.8412" x2="145.8647" y1="35.6015" y2="36.2342" /><line stroke="rgb(0%,0%,0%)" x1="145.8647" x2="145.7798" y1="36.2342" y2="36.272" /><line stroke="rgb(0%,0%,0%)" x1="145.7798" x2="143.0" y1="36.272" y2="37.5096" /><line stroke="rgb(0%,0%,0%)" x1="143.0" x2="142.9248" y1="37.5096" y2="37.5642" /><line stroke="rgb(0%,0%,0%)" x1="142.9248" x2="140.463" y1="37.5642" y2="39.3528" /><line stroke="rgb(0%,0%,0%)" x1="140.463" x2="140.4008" y1="39.3528" y2="39.4219" /><line stroke="rgb(0%,0%,0%)" x1="140.4008" x2="138.3647" y1="39.4219" y2="41.6832" /><line stroke="rgb(0%,0%,0%)" x1="138.3647" x2="138.3183" y1="41.6832" y2="41.7637" /><line stroke="rgb(0%,0%,0%)" x1="138.3183" x2="136.7968" y1="41.7637" y2="44.3989" /><line stroke="rgb(0%,0%,0%)" x1="136.7968" x2="136.7681" y1="44.3989" y2="44.4873" /><line stroke="rgb(0%,0%,0%)" x1="136.7681" x2="135.8278" y1="44.4873" y2="47.3813" /><line stroke="rgb(0%,0%,0%)" x1="35.8278" x2="35.8181" y1="47.3813" y2="47.4738" /><line stroke="rgb(0%,0%,0%)" x1="35.8181" x2="35.5" y1="47.4738" y2="50.5" /><line stroke="rgb(0%,0%,0%)" x1="35.5" x2="35.5097" y1="50.5" y2="50.5924" /><line stroke="rgb(0%,0%,0%)" x1="35.5097" x2="35.8278" y1="50.5924" y2="53.6187" /><line stroke="rgb(0%,0%,0%)" x1="35.8278" x2="35.8565" y1="53.6187" y2="53.7071" /><line stroke="rgb(0%,0%,0%)" x1="35.8565" x2="36.7968" y1="53.7071" y2="56.6011" /><line stroke="rgb(0%,0%,0%)" x1="36.7968" x2="36.8433" y1="56.6011" y2="56.6815" /><line stroke="rgb(0%,0%,0%)" x1="36.8433" x2="38.3647" y1="56.6815" y2="59.3168" /><line stroke="rgb(0%,0%,0%)" x1="38.3647" x2="38.4269" y1="59.3168" y2="59.3858" /><line stroke="rgb(0%,0%,0%)" x1="38.4269" x2="40.463" y1="59.3858" y2="61.6472" /><line stroke="rgb(0%,0%,0%)" x1="40.463" x2="40.5382" y1="61.6472" y2="61.7018" /><line stroke="rgb(0%,0%,0%)" x1="40.5382" x2="43.0" y1="61.7018" y2="63.4904" /><line stroke="rgb(0%,0%,0%)" x1="43.0" x2="43.0849" y1="63.4904" y2="63.5282" /><line stroke="rgb(0%,0%,0%)" x1="43.0849" x2="45.8647" y1="63.5282" y2="64.7658" /><line stroke="rgb(0%,0%,0%)" x1="45.8647" x2="45.9557" y1="64.7658" y2="64.7852" /><line stroke="rgb(0%,0%,0%)" x1="45.9557" x2="48.9321" y1="64.7852" y2="65.4178" /><line stroke="rgb(0%,0%,0%)" x1="48.9321" x2="49.025" y1="65.4178" y2="65.4178" /><line stroke="rgb(0%,0%,0%)" x1="49.025" x2="52.0679" y1="65.4178" y2="65.4178" /><line stroke="rgb(0%,0%,0%)" x1="52.0679" x2="52.1588" y1="65.4178" y2="65.3985" /><line stroke="rgb(0%,0%,0%)" x1="52.1588" x2="55.1353" y1="65.3985" y2="64.7658" /><line stroke="rgb(0%,0%,0%)" x1="55.1353" x2="55.2202" y1="64.7658" y2="64.728" /><line stroke="rgb(0%,0%,0%)" x1="55.2202" x2="58.0" y1="64.728" y2="63.4904" /><line stroke="rgb(0%,0%,0%)" x1="58.0" x2="58.0752" y1="63.4904" y2="63.4358" /><line stroke="rgb(0%,0%,0%)" x1="58.0752" x2="60.537" y1="63.4358" y2="61.6472" /><line stroke="rgb(0%,0%,0%)" x1="60.537" x2="60.5992" y1="61.6472" y2="61.5781" /><line stroke="rgb(0%,0%,0%)" x1="60.5992" x2="62.6352" y1="61.5781" y2="59.3168" /><line stroke="rgb(0%,0%,0%)" x1="62.6352" x2="62.6817" y1="59.3168" y2="59.2363" /><line stroke="rgb(0%,0%,0%)" x1="62.6817" x2="64.2032" y1="59.2363" y2="56.6011" /><line stroke="rgb(0%,0%,0%)" x1="64.2032" x2="64.2319" y1="56.6011" y2="56.5127" /><line stroke="rgb(0%,0%,0%)" x1="64.2319" x2="65.1722" y1="56.5127" y2="53.6187" /><line stroke="rgb(0%,0%,0%)" x1="65.1722" x2="65.1819" y1="53.6187" y2="53.5262" /><line stroke="rgb(0%,0%,0%)" x1="65.1819" x2="65.5" y1="53.5262" y2="50.5" /><line stroke="rgb(0%,0%,0%)" x1="65.5" x2="65.4903" y1="50.5" y2="50.4076" /><line stroke="rgb(0%,0%,0%)" x1="65.4903" x2="65.1722" y1="50.4076" y2="47.3813" /><line stroke="rgb(0%,0%,0%)" x1="65.1722" x2="65.1435" y1="47.3813" y2="47.2929" /><line stroke="rgb(0%,0%,0%)" x1="65.1435" x2="64.2032" y1="47.2929" y2="44.3989" /><line stroke="rgb(0%,0%,0%)" x1="64.2032" x2="64.1567" y1="44.3989" y2="44.3185" /><line stroke="rgb(0%,0%,0%)" x1="64.1567" x2="62.6352" y1="44.3185" y2="41.6832" /><line stroke="rgb(0%,0%,0%)" x1="62.6352" x2="62.5731" y1="41.6832" y2="41.6142" /><line stroke="rgb(0%,0%,0%)" x1="62.5731" x2="60.537" y1="41.6142" y2="39.3528" /><line stroke="rgb(0%,0%,0%)" x1="60.537" x2="60.4618" y1="39.3528" y2="39.2982" /><line stroke="rgb(0%,0%,0%)" x1="60.4618" x2="58.0" y1="39.2982" y2="37.5096" /><line stroke="rgb(0%,0%,0%)" x1="58.0" x2="57.9151" y1="37.5096" y2="37.4718" /><line stroke="rgb(0%,0%,0%)" x1="57.9151" x2="55.1353" y1="37.4718" y2="36.2342" /><line stroke="rgb(0%,0%,0%)" x1="55.1353" x2="55.0443" y1="36.2342" y2="36.2148" /><line stroke="rgb(0%,0%,0%)" x1="55.0443" x2="52.0679" y1="36.2148" y2="35.5822" /><line stroke="rgb(0%,0%,0%)" x1="52.0679" x2="51.975" y1="35.5822" y2="35.5822" /><line stroke="rgb(0%,0%,0%)" x1="51.975" x2="48.9321" y1="35.5822" y2="35.5822" /><line stroke="rgb(0%,0%,0%)" x1="48.9321" x2="48.8412" y1="35.5822" y2="35.6015" /><line stroke="rgb(0%,0%,0%)" x1="48.8412" x2="45.8647" y1="35.6015" y2="36.2342" /><line stroke="rgb(0%,0%,0%)" x1="45.8647" x2="45.7798" y1="36.2342" y2="36.272" /><line stroke="rgb(0%,0%,0%)" x1="45.7798" x2="43.0" y1="36.272" y2="37.5096" /><line stroke="rgb(0%,0%,0%)" x1="43.0" x2="42.9248" y1="37.5096" y2="37.5642" /><line stroke="rgb(0%,0%,0%)" x1="42.9248" x2="40.463" y1="37.5642" y2="39.3528" /><line stroke="rgb(0%,0%,0%)" x1="40.463" x2="40.4008" y1="39.3528" y2="39.4219" /><line stroke="rgb(0%,0%,0%)" x1="40.4008" x2="38.3647" y1="39.4219" y2="41.6832" /><line stroke="rgb(0%,0%,0%)" x1="38.3647" x2="38.3183" y1="41.6832" y2="41.7637" /><line stroke="rgb(0%,0%,0%)" x1="38.3183" x2="36.7968" y1="41.7637" y2="44.3989" /><line stroke="rgb(0%,0%,0%)" x1="36.7968" x2="36.7681" y1="44.3989" y2="44.4873" /><line stroke="rgb(0%,0%,0%)" x1="36.7681" x2="35.8278" y1="44.4873" y2="47.3813" /></svg>