<?xml version="1.0" encoding="utf-8" ?>
<svg baseProfile="tiny" height="100%" version="1.2" width="100%" xmlns="http://www.w3.org/2000/svg" xmlns:ev="http://www.w3.org/2001/xml-events" xmlns:xlink="http://www.w3.org/1999/xlink"><defs /><line stroke="rgb(0%,0%,0%)" x1="351.9" x2="351.9" y1="0.5" y2="45.8622" /><line stroke="rgb(0%,0%,0%)" x1="351.9" x2="351.9" y1="45.8622" y2="100.5" /><line stroke="rgb(0%,0%,0%)" x1="273.1211" x2="335.2245" y1="100.5" y2="100.5" /><line stroke="rgb(0%,0%,0%)" x1="335.2245" x2="337.3904" y1="100.5" y2="100.5" /><line stroke="rgb(0%,0%,0%)" x1="337.3904" x2="339.8647" y1="100.5" y2="100.5" /><line stroke="rgb(0%,0%,0%)" x1="339.8647" x2="342.6109" y1="100.5" y2="100.5" /><line stroke="rgb(0%,0%,0%)" x1="342.6109" x2="345.5771" y1="100.5" y2="100.5" /><line stroke="rgb(0%,0%,0%)" x1="345.5771" x2="348.6984" y1="100.5" y2="100.5" /><line stroke="rgb(0%,0%,0%)" x1="348.6984" x2="351.9" y1="100.5" y2="100.5" /><line stroke="rgb(0%,0%,0%)" x1="273.1211" x2="106.1413" y1="100.5" y2="100.5" /><line stroke="rgb(0%,0%,0%)" x1="106.1413" x2="0.5" y1="100.5" y2="100.5" /><line stroke="rgb(0%,0%,0%)" x1="0.5" x2="106.1413" y1="0.5" y2="0.5" /><line stroke="rgb(0%,0%,0%)" x1="106.1413" x2="273.1211" y1="0.5" y2="0.5" /><line stroke="rgb(0%,0%,0%)" x1="273.1211" x2="335.2245" y1="0.5" y2="0.5" /><line stroke="rgb(0%,0%,0%)" x1="335.2245" x2="337.3904" y1="0.5" y2="0.5" /><line stroke="rgb(0%,0%,0%)" x1="337.3904" x2="339.8647" y1="0.5" y2="0.5" /><line stroke="rgb(0%,0%,0%)" x1="339.8647" x2="342.6109" y1="0.5" y2="0.5" /><line stroke="rgb(0%,0%,0%)" x1="342.6109" x2="345.5771" y1="0.5" y2="0.5" /><line stroke="rgb(0%,0%,0%)" x1="345.5771" x2="348.6984" y1="0.5" y2="0.5" /><line stroke="rgb(0%,0%,0%)" x1="348.6984" x2="351.9" y1="0.5" y2="0.5" /><line stroke="rgb(0%,0%,0%)" x1="0.5" x2="0.5" y1="0.5" y2="48.0185" /><line stroke="rgb(0%,0%,0%)" x1="0.5" x2="0.5" y1="48.0185" y2="100.5" /><line stroke="rgb(0%,0%,0%)" x1="135.8278" x2="135.8115" y1="47.3813" y2="47.5361" /><line stroke="rgb(0%,0%,0%)" x1="135.8115" x2="135.5" y1="47.5361" y2="50.5" /><line stroke="rgb(0%,0%,0%)" x1="135.5" x2="135.5163" y1="50.5" y2="50.6548" /><line stroke="rgb(0%,0%,0%)" x1="135.5163" x2="135.8278" y1="50.6548" y2="53.6187" /><line stroke="rgb(0%,0%,0%)" x1="135.8278" x2="135.8759" y1="53.6187" y2="53.7667" /><line stroke="rgb(0%,0%,0%)" x1="135.8759" x2="136.7968" y1="53.7667" y2="56.6011" /><line stroke="rgb(0%,0%,0%)" x1="136.7968" x2="136.8746" y1="56.6011" y2="56.7358" /><line stroke="rgb(0%,0%,0%)" x1="136.8746" x2="138.3647" y1="56.7358" y2="59.3168" /><line stroke="rgb(0%,0%,0%)" x1="138.3647" x2="138.4689" y1="59.3168" y2="59.4324" /><line stroke="rgb(0%,0%,0%)" x1="138.4689" x2="140.463" y1="59.4324" y2="61.6472" /><line stroke="rgb(0%,0%,0%)" x1="140.463" x2="140.5889" y1="61.6472" y2="61.7386" /><line stroke="rgb(0%,0%,0%)" x1="140.5889" x2="143.0" y1="61.7386" y2="63.4904" /><line stroke="rgb(0%,0%,0%)" x1="143.0" x2="143.1422" y1="63.4904" y2="63.5537" /><line stroke="rgb(0%,0%,0%)" x1="143.1422" x2="145.8647" y1="63.5537" y2="64.7658" /><line stroke="rgb(0%,0%,0%)" x1="145.8647" x2="146.017" y1="64.7658" y2="64.7982" /><line stroke="rgb(0%,0%,0%)" x1="146.017" x2="148.9321" y1="64.7982" y2="65.4178" /><line stroke="rgb(0%,0%,0%)" x1="148.9321" x2="149.0877" y1="65.4178" y2="65.4178" /><line stroke="rgb(0%,0%,0%)" x1="149.0877" x2="152.0679" y1="65.4178" y2="65.4178" /><line stroke="rgb(0%,0%,0%)" x1="152.0679" x2="152.2202" y1="65.4178" y2="65.3855" /><line stroke="rgb(0%,0%,0%)" x1="152.2202" x2="155.1353" y1="65.3855" y2="64.7658" /><line stroke="rgb(0%,0%,0%)" x1="155.1353" x2="155.2774" y1="64.7658" y2="64.7025" /><line stroke="rgb(0%,0%,0%)" x1="155.2774" x2="158.0" y1="64.7025" y2="63.4904" /><line stroke="rgb(0%,0%,0%)" x1="158.0" x2="158.1259" y1="63.4904" y2="63.3989" /><line stroke="rgb(0%,0%,0%)" x1="158.1259" x2="160.537" y1="63.3989" y2="61.6472" /><line stroke="rgb(0%,0%,0%)" x1="160.537" x2="160.6411" y1="61.6472" y2="61.5315" /><line stroke="rgb(0%,0%,0%)" x1="160.6411" x2="162.6353" y1="61.5315" y2="59.3168" /><line stroke="rgb(0%,0%,0%)" x1="162.6353" x2="162.7131" y1="59.3168" y2="59.182" /><line stroke="rgb(0%,0%,0%)" x1="162.7131" x2="164.2032" y1="59.182" y2="56.6011" /><line stroke="rgb(0%,0%,0%)" x1="164.2032" x2="164.2513" y1="56.6011" y2="56.453" /><line stroke="rgb(0%,0%,0%)" x1="164.2513" x2="165.1722" y1="56.453" y2="53.6187" /><line stroke="rgb(0%,0%,0%)" x1="165.1722" x2="165.1885" y1="53.6187" y2="53.4639" /><line stroke="rgb(0%,0%,0%)" x1="165.1885" x2="165.5" y1="53.4639" y2="50.5" /><line stroke="rgb(0%,0%,0%)" x1="165.5" x2="165.4837" y1="50.5" y2="50.3452" /><line stroke="rgb(0%,0%,0%)" x1="165.4837" x2="165.1722" y1="50.3452" y2="47.3813" /><line stroke="rgb(0%,0%,0%)" x1="165.1722" x2="165.1241" y1="47.3813" y2="47.2333" /><line stroke="rgb(0%,0%,0%)" x1="165.1241" x2="164.2032" y1="47.2333" y2="44.3989" /><line stroke="rgb(0%,0%,0%)" x1="164.2032" x2="164.1254" y1="44.3989" y2="44.2642" /><line stroke="rgb(0%,0%,0%)" x1="164.1254" x2="162.6353" y1="44.2642" y2="41.6832" /><line stroke="rgb(0%,0%,0%)" x1="162.6353" x2="162.5311" y1="41.6832" y2="41.5676" /><line stroke="rgb(0%,0%,0%)" x1="162.5311" x2="160.537" y1="41.5676" y2="39.3528" /><line stroke="rgb(0%,0%,0%)" x1="160.537" x2="160.411" y1="39.3528" y2="39.2613" /><line stroke="rgb(0%,0%,0%)" x1="160.411" x2="158.0" y1="39.2613" y2="37.5096" /><line stroke="rgb(0%,0%,0%)" x1="158.0" x2="157.8578" y1="37.5096" y2="37.4463" /><line stroke="rgb(0%,0%,0%)" x1="157.8578" x2="155.1353" y1="37.4463" y2="36.2342" /><line stroke="rgb(0%,0%,0%)" x1="155.1353" x2="154.983" y1="36.2342" y2="36.2018" /><line stroke="rgb(0%,0%,0%)" x1="154.983" x2="152.0679" y1="36.2018" y2="35.5822" /><line stroke="rgb(0%,0%,0%)" x1="152.0679" x2="151.9123" y1="35.5822" y2="35.5822" /><line stroke="rgb(0%,0%,0%)" x1="151.9123" x2="148.9321" y1="35.5822" y2="35.5822" /><line stroke="rgb(0%,0%,0%)" x1="148.9321" x2="148.7798" y1="35.5822" y2="35.6145" /><line stroke="rgb(0%,0%,0%)" x1="148.7798" x2="145.8647" y1="35.6145" y2="36.2342" /><line stroke="rgb(0%,0%,0%)" x1="145.8647" x2="145.7226" y1="36.2342" y2="36.2975" /><line stroke="rgb(0%,0%,0%)" x1="145.7226" x2="143.0" y1="36.2975" y2="37.5096" /><line stroke="rgb(0%,0%,0%)" x1="143.0" x2="142.8741" y1="37.5096" y2="37.6011" /><line stroke="rgb(0%,0%,0%)" x1="142.8741" x2="140.463" y1="37.6011" y2="39.3528" /><line stroke="rgb(0%,0%,0%)" x1="140.463" x2="140.3589" y1="39.3528" y2="39.4685" /><line stroke="rgb(0%,0%,0%)" x1="140.3589" x2="138.3647" y1="39.4685" y2="41.6832" /><line stroke="rgb(0%,0%,0%)" x1="138.3647" x2="138.2869" y1="41.6832" y2="41.818" /><line stroke="rgb(0%,0%,0%)" x1="138.2869" x2="136.7968" y1="41.818" y2="44.3989" /><line stroke="rgb(0%,0%,0%)" x1="136.7968" x2="136.7487" y1="44.3989" y2="44.547" /><line stroke="rgb(0%,0%,0%)" x1="136.7487" x2="135.8278" y1="44.547" y2="47.3813" /><line stroke="rgb(0%,0%,0%)" x1="35.8278" x2="35.8115" y1="47.3813" y2="47.5361" /><line stroke="rgb(0%,0%,0%)" x1="35.8115" x2="35.5" y1="47.5361" y2="50.5" /><line stroke="rgb(0%,0%,0%)" x1="35.5" x2="35.5163" y1="50.5" y2="50.6548" /><line stroke="rgb(0%,0%,0%)" x1="35.5163" x2="35.8278" y1="50.6548" y2="53.6187" /><line stroke="rgb(0%,0%,0%)" x1="35.8278" x2="35.8759" y1="53.6187" y2="53.7667" /><line stroke="rgb(0%,0%,0%)" x1="35.8759" x2="36.7968" y1="53.7667" y2="56.6011" /><line stroke="rgb(0%,0%,0%)" x1="36.7968" x2="36.8746" y1="56.6011" y2="56.7358" /><line stroke="rgb(0%,0%,0%)" x1="36.8746" x2="38.3647" y1="56.7358" y2="59.3168" /><line stroke="rgb(0%,0%,0%)" x1="38.3647" x2="38.4689" y1="59.3168" y2="59.4324" /><line stroke="rgb(0%,0%,0%)" x1="38.4689" x2="40.463" y1="59.4324" y2="61.6472" /><line stroke="rgb(0%,0%,0%)" x1="40.463" x2="40.5889" y1="61.6472" y2="61.7386" /><line stroke="rgb(0%,0%,0%)" x1="40.5889" x2="43.0" y1="61.7386" y2="63.4904" /><line stroke="rgb(0%,0%,0%)" x1="43.0" x2="43.1422" y1="63.4904" y2="63.5537" /><line stroke="rgb(0%,0%,0%)" x1="43.1422" x2="45.8647" y1="63.5537" y2="64.7658" /><line stroke="rgb(0%,0%,0%)" x1="45.8647" x2="46.017" y1="64.7658" y2="64.7982" /><line stroke="rgb(0%,0%,0%)" x1="46.017" x2="48.9321" y1="64.7982" y2="65.4178" /><line stroke="rgb(0%,0%,0%)" x1="48.9321" x2="49.0877" y1="65.4178" y2="65.4178" /><line stroke="rgb(0%,0%,0%)" x1="49.0877" x2="52.0679" y1="65.4178" y2="65.4178" /><line stroke="rgb(0%,0%,0%)" x1="52.0679" x2="52.2202" y1="65.4178" y2="65.3855" /><line stroke="rgb(0%,0%,0%)" x1="52.2202" x2="55.1353" y1="65.3855" y2="64.7658" /><line stroke="rgb(0%,0%,0%)" x1="55.1353" x2="55.2774" y1="64.7658" y2="64.7025" /><line stroke="rgb(0%,0%,0%)" x1="55.2774" x2="58.0" y1="64.7025" y2="63.4904" /><line stroke="rgb(0%,0%,0%)" x1="58.0" x2="58.1259" y1="63.4904" y2="63.3989" /><line stroke="rgb(0%,0%,0%)" x1="58.1259" x2="60.537" y1="63.3989" y2="61.6472" /><line stroke="rgb(0%,0%,0%)" x1="60.537" x2="60.6411" y1="61.6472" y2="61.5315" /><line stroke="rgb(0%,0%,0%)" x1="60.6411" x2="62.6352" y1="61.5315" y2="59.3168" /><line stroke="rgb(0%,0%,0%)" x1="62.6352" x2="62.7131" y1="59.3168" y2="59.182" /><line stroke="rgb(0%,0%,0%)" x1="62.7131" x2="64.2032" y1="59.182" y2="56.6011" /><line stroke="rgb(0%,0%,0%)" x1="64.2032" x2="64.2513" y1="56.6011" y2="56.453" /><line stroke="rgb(0%,0%,0%)" x1="64.2513" x2="65.1722" y1="56.453" y2="53.6187" /><line stroke="rgb(0%,0%,0%)" x1="65.1722" x2="65.1885" y1="53.6187" y2="53.4639" /><line stroke="rgb(0%,0%,0%)" x1="65.1885" x2="65.5" y1="53.4639" y2="50.5" /><line stroke="rgb(0%,0%,0%)" x1="65.5" x2="65.4837" y1="50.5" y2="50.3452" /><line stroke="rgb(0%,0%,0%)" x1="65.4837" x2="65.1722" y1="50.3452" y2="47.3813" /><line stroke="rgb(0%,0%,0%)" x1="65.1722" x2="65.1241" y1="47.3813" y2="47.2333" /><line stroke="rgb(0%,0%,0%)" x1="65.1241" x2="64.2032" y1="47.2333" y2="44.3989" /><line stroke="rgb(0%,0%,0%)" x1="64.2032" x2="64.1254" y1="44.3989" y2="44.2642" /><line stroke="rgb(0%,0%,0%)" x1="64.1254" x2="62.6352" y1="44.2642" y2="41.6832" /><line stroke="rgb(0%,0%,0%)" x1="62.6352" x2="62.5311" y1="41.6832" y2="41.5676" /><line stroke="rgb(0%,0%,0%)" x1="62.5311" x2="60.537" y1="41.5676" y2="39.3528" /><line stroke="rgb(0%,0%,0%)" x1="60.537" x2="60.4111" y1="39.3528" y2="39.2613" /><line stroke="rgb(0%,0%,0%)" x1="60.4111" x2="58.0" y1="39.2613" y2="37.5096" /><line stroke="rgb(0%,0%,0%)" x1="58.0" x2="57.8578" y1="37.5096" y2="37.4463" /><line stroke="rgb(0%,0%,0%)" x1="57.8578" x2="55.1353" y1="37.4463" y2="36.2342" /><line stroke="rgb(0%,0%,0%)" x1="55.1353" x2="54.983" y1="36.2342" y2="36.2018" /><line stroke="rgb(0%,0%,0%)" x1="54.983" x2="52.0679" y1="36.2018" y2="35.5822" /><line stroke="rgb(0%,0%,0%)" x1="52.0679" x2="51.9123" y1="35.5822" y2="35.5822" /><line stroke="rgb(0%,0%,0%)" x1="51.9123" x2="48.9321" y1="35.5822" y2="35.5822" /><line stroke="rgb(0%,0%,0%)" x1="48.9321" x2="48.7798" y1="35.5822" y2="35.6145" /><line stroke="rgb(0%,0%,0%)" x1="48.7798" x2="45.8647" y1="35.6145" y2="36.2342" /><line stroke="rgb(0%,0%,0%)" x1="45.8647" x2="45.7226" y1="36.2342" y2="36.2975" /><line stroke="rgb(0%,0%,0%)" x1="45.7226" x2="43.0" y1="36.2975" y2="37.5096" /><line stroke="rgb(0%,0%,0%)" x1="43.0" x2="42.8741" y1="37.5096" y2="37.6011" /><line stroke="rgb(0%,0%,0%)" x1="42.8741" x2="40.463" y1="37.6011" y2="39.3528" /><line stroke="rgb(0%,0%,0%)" x1="40.463" x2="40.3589" y1="39.3528" y2="39.4685" /><line stroke="rgb(0%,0%,0%)" x1="40.3589" x2="38.3647" y1="39.4685" y2="41.6832" /><line stroke="rgb(0%,0%,0%)" x1="38.3647" x2="38.2869" y1="41.6832" y2="41.818" /><line stroke="rgb(0%,0%,0%)" x1="38.2869" x2="36.7968" y1="41.818" y2="44.3989" /><line stroke="rgb(0%,0%,0%)" x1="36.7968" x2="36.7487" y1="44.3989" y2="44.547" /><line stroke="rgb(0%,0%,0%)" x1="36.7487" x2="35.8278" y1="44.547" y2="47.3813" /></svg>