<?xml version="1.0" encoding="utf-8" ?>
<svg baseProfile="tiny" height="100%" version="1.2" width="100%" xmlns="http://www.w3.org/2000/svg" xmlns:ev="http://www.w3.org/2001/xml-events" xmlns:xlink="http://www.w3.org/1999/xlink"><defs /><line stroke="rgb(0%,0%,0%)" x1="351.9" x2="351.9" y1="0.5" y2="46.7262" /><line stroke="rgb(0%,0%,0%)" x1="351.9" x2="351.9" y1="46.7262" y2="100.5" /><line stroke="rgb(0%,0%,0%)" x1="271.6206" x2="334.9069" y1="100.5" y2="100.5" /><line stroke="rgb(0%,0%,0%)" x1="334.9069" x2="337.114" y1="100.5" y2="100.5" /><line stroke="rgb(0%,0%,0%)" x1="337.114" x2="339.6355" y1="100.5" y2="100.5" /><line stroke="rgb(0%,0%,0%)" x1="339.6355" x2="342.4339" y1="100.5" y2="100.5" /><line stroke="rgb(0%,0%,0%)" x1="342.4339" x2="345.4566" y1="100.5" y2="100.5" /><line stroke="rgb(0%,0%,0%)" x1="345.4566" x2="348.6374" y1="100.5" y2="100.5" /><line stroke="rgb(0%,0%,0%)" x1="348.6374" x2="351.9" y1="100.5" y2="100.5" /><line stroke="rgb(0%,0%,0%)" x1="271.6206" x2="108.1535" y1="100.5" y2="100.5" /><line stroke="rgb(0%,0%,0%)" x1="108.1535" x2="0.5" y1="100.5" y2="100.5" /><line stroke="rgb(0%,0%,0%)" x1="0.5" x2="108.1535" y1="0.5" y2="0.5" /><line stroke="rgb(0%,0%,0%)" x1="108.1535" x2="271.6206" y1="0.5" y2="0.5" /><line stroke="rgb(0%,0%,0%)" x1="271.6206" x2="334.9069" y1="0.5" y2="0.5" /><line stroke="rgb(0%,0%,0%)" x1="334.9069" x2="337.114" y1="0.5" y2="0.5" /><line stroke="rgb(0%,0%,0%)" x1="337.114" x2="339.6355" y1="0.5" y2="0.5" /><line stroke="rgb(0%,0%,0%)" x1="339.6355" x2="342.4339" y1="0.5" y2="0.5" /><line stroke="rgb(0%,0%,0%)" x1="342.4339" x2="345.4566" y1="0.5" y2="0.5" /><line stroke="rgb(0%,0%,0%)" x1="345.4566" x2="348.6374" y1="0.5" y2="0.5" /><line stroke="rgb(0%,0%,0%)" x1="348.6374" x2="351.9" y1="0.5" y2="0.5" /><line stroke="rgb(0%,0%,0%)" x1="0.5" x2="0.5" y1="0.5" y2="47.0188" /><line stroke="rgb(0%,0%,0%)" x1="0.5" x2="0.5" y1="47.0188" y2="100.5" /><line stroke="rgb(0%,0%,0%)" x1="135.8278" x2="135.805" y1="47.3813" y2="47.5985" /><line stroke="rgb(0%,0%,0%)" x1="135.805" x2="135.5" y1="47.5985" y2="50.5" /><line stroke="rgb(0%,0%,0%)" x1="135.5" x2="135.5228" y1="50.5" y2="50.7171" /><line stroke="rgb(0%,0%,0%)" x1="135.5228" x2="135.8278" y1="50.7171" y2="53.6187" /><line stroke="rgb(0%,0%,0%)" x1="135.8278" x2="135.8953" y1="53.6187" y2="53.8263" /><line stroke="rgb(0%,0%,0%)" x1="135.8953" x2="136.7968" y1="53.8263" y2="56.6011" /><line stroke="rgb(0%,0%,0%)" x1="136.7968" x2="136.906" y1="56.6011" y2="56.7901" /><line stroke="rgb(0%,0%,0%)" x1="136.906" x2="138.3647" y1="56.7901" y2="59.3168" /><line stroke="rgb(0%,0%,0%)" x1="138.3647" x2="138.5108" y1="59.3168" y2="59.479" /><line stroke="rgb(0%,0%,0%)" x1="138.5108" x2="140.463" y1="59.479" y2="61.6472" /><line stroke="rgb(0%,0%,0%)" x1="140.463" x2="140.6397" y1="61.6472" y2="61.7755" /><line stroke="rgb(0%,0%,0%)" x1="140.6397" x2="143.0" y1="61.7755" y2="63.4904" /><line stroke="rgb(0%,0%,0%)" x1="143.0" x2="143.1994" y1="63.4904" y2="63.5792" /><line stroke="rgb(0%,0%,0%)" x1="143.1994" x2="145.8647" y1="63.5792" y2="64.7658" /><line stroke="rgb(0%,0%,0%)" x1="145.8647" x2="146.0783" y1="64.7658" y2="64.8112" /><line stroke="rgb(0%,0%,0%)" x1="146.0783" x2="148.9321" y1="64.8112" y2="65.4178" /><line stroke="rgb(0%,0%,0%)" x1="148.9321" x2="149.1504" y1="65.4178" y2="65.4178" /><line stroke="rgb(0%,0%,0%)" x1="149.1504" x2="152.0679" y1="65.4178" y2="65.4178" /><line stroke="rgb(0%,0%,0%)" x1="152.0679" x2="152.2815" y1="65.4178" y2="65.3724" /><line stroke="rgb(0%,0%,0%)" x1="152.2815" x2="155.1353" y1="65.3724" y2="64.7658" /><line stroke="rgb(0%,0%,0%)" x1="155.1353" x2="155.3347" y1="64.7658" y2="64.677" /><line stroke="rgb(0%,0%,0%)" x1="155.3347" x2="158.0" y1="64.677" y2="63.4904" /><line stroke="rgb(0%,0%,0%)" x1="158.0" x2="158.1766" y1="63.4904" y2="63.362" /><line stroke="rgb(0%,0%,0%)" x1="158.1766" x2="160.537" y1="63.362" y2="61.6472" /><line stroke="rgb(0%,0%,0%)" x1="160.537" x2="160.683" y1="61.6472" y2="61.4849" /><line stroke="rgb(0%,0%,0%)" x1="160.683" x2="162.6353" y1="61.4849" y2="59.3168" /><line stroke="rgb(0%,0%,0%)" x1="162.6353" x2="162.7444" y1="59.3168" y2="59.1277" /><line stroke="rgb(0%,0%,0%)" x1="162.7444" x2="164.2032" y1="59.1277" y2="56.6011" /><line stroke="rgb(0%,0%,0%)" x1="164.2032" x2="164.2706" y1="56.6011" y2="56.3934" /><line stroke="rgb(0%,0%,0%)" x1="164.2706" x2="165.1722" y1="56.3934" y2="53.6187" /><line stroke="rgb(0%,0%,0%)" x1="165.1722" x2="165.195" y1="53.6187" y2="53.4015" /><line stroke="rgb(0%,0%,0%)" x1="165.195" x2="165.5" y1="53.4015" y2="50.5" /><line stroke="rgb(0%,0%,0%)" x1="165.5" x2="165.4772" y1="50.5" y2="50.2829" /><line stroke="rgb(0%,0%,0%)" x1="165.4772" x2="165.1722" y1="50.2829" y2="47.3813" /><line stroke="rgb(0%,0%,0%)" x1="165.1722" x2="165.1047" y1="47.3813" y2="47.1737" /><line stroke="rgb(0%,0%,0%)" x1="165.1047" x2="164.2032" y1="47.1737" y2="44.3989" /><line stroke="rgb(0%,0%,0%)" x1="164.2032" x2="164.094" y1="44.3989" y2="44.2099" /><line stroke="rgb(0%,0%,0%)" x1="164.094" x2="162.6353" y1="44.2099" y2="41.6832" /><line stroke="rgb(0%,0%,0%)" x1="162.6353" x2="162.4892" y1="41.6832" y2="41.521" /><line stroke="rgb(0%,0%,0%)" x1="162.4892" x2="160.537" y1="41.521" y2="39.3528" /><line stroke="rgb(0%,0%,0%)" x1="160.537" x2="160.3603" y1="39.3528" y2="39.2245" /><line stroke="rgb(0%,0%,0%)" x1="160.3603" x2="158.0" y1="39.2245" y2="37.5096" /><line stroke="rgb(0%,0%,0%)" x1="158.0" x2="157.8005" y1="37.5096" y2="37.4208" /><line stroke="rgb(0%,0%,0%)" x1="157.8005" x2="155.1353" y1="37.4208" y2="36.2342" /><line stroke="rgb(0%,0%,0%)" x1="155.1353" x2="154.9217" y1="36.2342" y2="36.1888" /><line stroke="rgb(0%,0%,0%)" x1="154.9217" x2="152.0679" y1="36.1888" y2="35.5822" /><line stroke="rgb(0%,0%,0%)" x1="152.0679" x2="151.8496" y1="35.5822" y2="35.5822" /><line stroke="rgb(0%,0%,0%)" x1="151.8496" x2="148.9321" y1="35.5822" y2="35.5822" /><line stroke="rgb(0%,0%,0%)" x1="148.9321" x2="148.7185" y1="35.5822" y2="35.6276" /><line stroke="rgb(0%,0%,0%)" x1="148.7185" x2="145.8647" y1="35.6276" y2="36.2342" /><line stroke="rgb(0%,0%,0%)" x1="145.8647" x2="145.6653" y1="36.2342" y2="36.323" /><line stroke="rgb(0%,0%,0%)" x1="145.6653" x2="143.0" y1="36.323" y2="37.5096" /><line stroke="rgb(0%,0%,0%)" x1="143.0" x2="142.8234" y1="37.5096" y2="37.6379" /><line stroke="rgb(0%,0%,0%)" x1="142.8234" x2="140.463" y1="37.6379" y2="39.3528" /><line stroke="rgb(0%,0%,0%)" x1="140.463" x2="140.3169" y1="39.3528" y2="39.5151" /><line stroke="rgb(0%,0%,0%)" x1="140.3169" x2="138.3647" y1="39.5151" y2="41.6832" /><line stroke="rgb(0%,0%,0%)" x1="138.3647" x2="138.2556" y1="41.6832" y2="41.8723" /><line stroke="rgb(0%,0%,0%)" x1="138.2556" x2="136.7968" y1="41.8723" y2="44.3989" /><line stroke="rgb(0%,0%,0%)" x1="136.7968" x2="136.7293" y1="44.3989" y2="44.6066" /><line stroke="rgb(0%,0%,0%)" x1="136.7293" x2="135.8278" y1="44.6066" y2="47.3813" /><line stroke="rgb(0%,0%,0%)" x1="35.8278" x2="35.805" y1="47.3813" y2="47.5985" /><line stroke="rgb(0%,0%,0%)" x1="35.805" x2="35.5" y1="47.5985" y2="50.5" /><line stroke="rgb(0%,0%,0%)" x1="35.5" x2="35.5228" y1="50.5" y2="50.7171" /><line stroke="rgb(0%,0%,0%)" x1="35.5228" x2="35.8278" y1="50.7171" y2="53.6187" /><line stroke="rgb(0%,0%,0%)" x1="35.8278" x2="35.8952" y1="53.6187" y2="53.8263" /><line stroke="rgb(0%,0%,0%)" x1="35.8952" x2="36.7968" y1="53.8263" y2="56.6011" /><line stroke="rgb(0%,0%,0%)" x1="36.7968" x2="36.906" y1="56.6011" y2="56.7901" /><line stroke="rgb(0%,0%,0%)" x1="36.906" x2="38.3647" y1="56.7901" y2="59.3168" /><line stroke="rgb(0%,0%,0%)" x1="38.3647" x2="38.5108" y1="59.3168" y2="59.479" /><line stroke="rgb(0%,0%,0%)" x1="38.5108" x2="40.463" y1="59.479" y2="61.6472" /><line stroke="rgb(0%,0%,0%)" x1="40.463" x2="40.6397" y1="61.6472" y2="61.7755" /><line stroke="rgb(0%,0%,0%)" x1="40.6397" x2="43.0" y1="61.7755" y2="63.4904" /><line stroke="rgb(0%,0%,0%)" x1="43.0" x2="43.1995" y1="63.4904" y2="63.5792" /><line stroke="rgb(0%,0%,0%)" x1="43.1995" x2="45.8647" y1="63.5792" y2="64.7658" /><line stroke="rgb(0%,0%,0%)" x1="45.8647" x2="46.0783" y1="64.7658" y2="64.8112" /><line stroke="rgb(0%,0%,0%)" x1="46.0783" x2="48.9321" y1="64.8112" y2="65.4178" /><line stroke="rgb(0%,0%,0%)" x1="48.9321" x2="49.1504" y1="65.4178" y2="65.4178" /><line stroke="rgb(0%,0%,0%)" x1="49.1504" x2="52.0679" y1="65.4178" y2="65.4178" /><line stroke="rgb(0%,0%,0%)" x1="52.0679" x2="52.2815" y1="65.4178" y2="65.3724" /><line stroke="rgb(0%,0%,0%)" x1="52.2815" x2="55.1353" y1="65.3724" y2="64.7658" /><line stroke="rgb(0%,0%,0%)" x1="55.1353" x2="55.3347" y1="64.7658" y2="64.677" /><line stroke="rgb(0%,0%,0%)" x1="55.3347" x2="58.0" y1="64.677" y2="63.4904" /><line stroke="rgb(0%,0%,0%)" x1="58.0" x2="58.1766" y1="63.4904" y2="63.362" /><line stroke="rgb(0%,0%,0%)" x1="58.1766" x2="60.537" y1="63.362" y2="61.6472" /><line stroke="rgb(0%,0%,0%)" x1="60.537" x2="60.6831" y1="61.6472" y2="61.4849" /><line stroke="rgb(0%,0%,0%)" x1="60.6831" x2="62.6352" y1="61.4849" y2="59.3168" /><line stroke="rgb(0%,0%,0%)" x1="62.6352" x2="62.7444" y1="59.3168" y2="59.1277" /><line stroke="rgb(0%,0%,0%)" x1="62.7444" x2="64.2032" y1="59.1277" y2="56.6011" /><line stroke="rgb(0%,0%,0%)" x1="64.2032" x2="64.2706" y1="56.6011" y2="56.3934" /><line stroke="rgb(0%,0%,0%)" x1="64.2706" x2="65.1722" y1="56.3934" y2="53.6187" /><line stroke="rgb(0%,0%,0%)" x1="65.1722" x2="65.195" y1="53.6187" y2="53.4015" /><line stroke="rgb(0%,0%,0%)" x1="65.195" x2="65.5" y1="53.4015" y2="50.5" /><line stroke="rgb(0%,0%,0%)" x1="65.5" x2="65.4772" y1="50.5" y2="50.2829" /><line stroke="rgb(0%,0%,0%)" x1="65.4772" x2="65.1722" y1="50.2829" y2="47.3813" /><line stroke="rgb(0%,0%,0%)" x1="65.1722" x2="65.1047" y1="47.3813" y2="47.1737" /><line stroke="rgb(0%,0%,0%)" x1="65.1047" x2="64.2032" y1="47.1737" y2="44.3989" /><line stroke="rgb(0%,0%,0%)" x1="64.2032" x2="64.094" y1="44.3989" y2="44.2099" /><line stroke="rgb(0%,0%,0%)" x1="64.094" x2="62.6352" y1="44.2099" y2="41.6832" /><line stroke="rgb(0%,0%,0%)" x1="62.6352" x2="62.4892" y1="41.6832" y2="41.521" /><line stroke="rgb(0%,0%,0%)" x1="62.4892" x2="60.537" y1="41.521" y2="39.3528" /><line stroke="rgb(0%,0%,0%)" x1="60.537" x2="60.3603" y1="39.3528" y2="39.2245" /><line stroke="rgb(0%,0%,0%)" x1="60.3603" x2="58.0" y1="39.2245" y2="37.5096" /><line stroke="rgb(0%,0%,0%)" x1="58.0" x2="57.8005" y1="37.5096" y2="37.4208" /><line stroke="rgb(0%,0%,0%)" x1="57.8005" x2="55.1353" y1="37.4208" y2="36.2342" /><line stroke="rgb(0%,0%,0%)" x1="55.1353" x2="54.9217" y1="36.2342" y2="36.1888" /><line stroke="rgb(0%,0%,0%)" x1="54.9217" x2="52.0679" y1="36.1888" y2="35.5822" /><line stroke="rgb(0%,0%,0%)" x1="52.0679" x2="51.8496" y1="35.5822" y2="35.5822" /><line stroke="rgb(0%,0%,0%)" x1="51.8496" x2="48.9321" y1="35.5822" y2="35.5822" /><line stroke="rgb(0%,0%,0%)" x1="48.9321" x2="48.7185" y1="35.5822" y2="35.6276" /><line stroke="rgb(0%,0%,0%)" x1="48.7185" x2="45.8647" y1="35.6276" y2="36.2342" /><line stroke="rgb(0%,0%,0%)" x1="45.8647" x2="45.6653" y1="36.2342" y2="36.323" /><line stroke="rgb(0%,0%,0%)" x1="45.6653" x2="43.0" y1="36.323" y2="37.5096" /><line stroke="rgb(0%,0%,0%)" x1="43.0" x2="42.8234" y1="37.5096" y2="37.6379" /><line stroke="rgb(0%,0%,0%)" x1="42.8234" x2="40.463" y1="37.6379" y2="39.3528" /><line stroke="rgb(0%,0%,0%)" x1="40.463" x2="40.3169" y1="39.3528" y2="39.5151" /><line stroke="rgb(0%,0%,0%)" x1="40.3169" x2="38.3647" y1="39.5151" y2="41.6832" /><line stroke="rgb(0%,0%,0%)" x1="38.3647" x2="38.2556" y1="41.6832" y2="41.8723" /><line stroke="rgb(0%,0%,0%)" x1="38.2556" x2="36.7968" y1="41.8723" y2="44.3989" /><line stroke="rgb(0%,0%,0%)" x1="36.7968" x2="36.7293" y1="44.3989" y2="44.6066" /><line stroke="rgb(0%,0%,0%)" x1="36.7293" x2="35.8278" y1="44.6066" y2="47.3813" /></svg>