<?xml version="1.0" encoding="utf-8" ?>
<svg baseProfile="tiny" height="100%" version="1.2" width="100%" xmlns="http://www.w3.org/2000/svg" xmlns:ev="http://www.w3.org/2001/xml-events" xmlns:xlink="http://www.w3.org/1999/xlink"><defs /><line stroke="rgb(0%,0%,0%)" x1="351.9" x2="351.9" y1="0.5" y2="47.5903" /><line stroke="rgb(0%,0%,0%)" x1="351.9" x2="351.9" y1="47.5903" y2="100.5" /><line stroke="rgb(0%,0%,0%)" x1="270.12" x2="334.5892" y1="100.5" y2="100.5" /><line stroke="rgb(0%,0%,0%)" x1="334.5892" x2="336.8376" y1="100.5" y2="100.5" /><line stroke="rgb(0%,0%,0%)" x1="336.8376" x2="339.4062" y1="100.5" y2="100.5" /><line stroke="rgb(0%,0%,0%)" x1="339.4062" x2="342.257" y1="100.5" y2="100.5" /><line stroke="rgb(0%,0%,0%)" x1="342.257" x2="345.3362" y1="100.5" y2="100.5" /><line stroke="rgb(0%,0%,0%)" x1="345.3362" x2="348.5765" y1="100.5" y2="100.5" /><line stroke="rgb(0%,0%,0%)" x1="348.5765" x2="351.9" y1="100.5" y2="100.5" /><line stroke="rgb(0%,0%,0%)" x1="270.12" x2="110.1657" y1="100.5" y2="100.5" /><line stroke="rgb(0%,0%,0%)" x1="110.1657" x2="0.5" y1="100.5" y2="100.5" /><line stroke="rgb(0%,0%,0%)" x1="0.5" x2="110.1657" y1="0.5" y2="0.5" /><line stroke="rgb(0%,0%,0%)" x1="110.1657" x2="270.12" y1="0.5" y2="0.5" /><line stroke="rgb(0%,0%,0%)" x1="270.12" x2="334.5892" y1="0.5" y2="0.5" /><line stroke="rgb(0%,0%,0%)" x1="334.5892" x2="336.8376" y1="0.5" y2="0.5" /><line stroke="rgb(0%,0%,0%)" x1="336.8376" x2="339.4062" y1="0.5" y2="0.5" /><line stroke="rgb(0%,0%,0%)" x1="339.4062" x2="342.257" y1="0.5" y2="0.5" /><line stroke="rgb(0%,0%,0%)" x1="342.257" x2="345.3362" y1="0.5" y2="0.5" /><line stroke="rgb(0%,0%,0%)" x1="345.3362" x2="348.5765" y1="0.5" y2="0.5" /><line stroke="rgb(0%,0%,0%)" x1="348.5765" x2="351.9" y1="0.5" y2="0.5" /><line stroke="rgb(0%,0%,0%)" x1="0.5" x2="0.5" y1="0.5" y2="46.0192" /><line stroke="rgb(0%,0%,0%)" x1="0.5" x2="0.5" y1="46.0192" y2="100.5" /><line stroke="rgb(0%,0%,0%)" x1="135.8278" x2="135.7984" y1="47.3813" y2="47.6608" /><line stroke="rgb(0%,0%,0%)" x1="135.7984" x2="135.5" y1="47.6608" y2="50.5" /><line stroke="rgb(0%,0%,0%)" x1="135.5" x2="135.5294" y1="50.5" y2="50.7795" /><line stroke="rgb(0%,0%,0%)" x1="135.5294" x2="135.8278" y1="50.7795" y2="53.6187" /><line stroke="rgb(0%,0%,0%)" x1="135.8278" x2="135.9146" y1="53.6187" y2="53.8859" /><line stroke="rgb(0%,0%,0%)" x1="135.9146" x2="136.7968" y1="53.8859" y2="56.6011" /><line stroke="rgb(0%,0%,0%)" x1="136.7968" x2="136.9373" y1="56.6011" y2="56.8444" /><line stroke="rgb(0%,0%,0%)" x1="136.9373" x2="138.3647" y1="56.8444" y2="59.3168" /><line stroke="rgb(0%,0%,0%)" x1="138.3647" x2="138.5528" y1="59.3168" y2="59.5256" /><line stroke="rgb(0%,0%,0%)" x1="138.5528" x2="140.463" y1="59.5256" y2="61.6472" /><line stroke="rgb(0%,0%,0%)" x1="140.463" x2="140.6904" y1="61.6472" y2="61.8124" /><line stroke="rgb(0%,0%,0%)" x1="140.6904" x2="143.0" y1="61.8124" y2="63.4904" /><line stroke="rgb(0%,0%,0%)" x1="143.0" x2="143.2567" y1="63.4904" y2="63.6047" /><line stroke="rgb(0%,0%,0%)" x1="143.2567" x2="145.8647" y1="63.6047" y2="64.7658" /><line stroke="rgb(0%,0%,0%)" x1="145.8647" x2="146.1396" y1="64.7658" y2="64.8243" /><line stroke="rgb(0%,0%,0%)" x1="146.1396" x2="148.9321" y1="64.8243" y2="65.4178" /><line stroke="rgb(0%,0%,0%)" x1="148.9321" x2="149.2131" y1="65.4178" y2="65.4178" /><line stroke="rgb(0%,0%,0%)" x1="149.2131" x2="152.0679" y1="65.4178" y2="65.4178" /><line stroke="rgb(0%,0%,0%)" x1="152.0679" x2="152.3428" y1="65.4178" y2="65.3594" /><line stroke="rgb(0%,0%,0%)" x1="152.3428" x2="155.1353" y1="65.3594" y2="64.7658" /><line stroke="rgb(0%,0%,0%)" x1="155.1353" x2="155.392" y1="64.7658" y2="64.6515" /><line stroke="rgb(0%,0%,0%)" x1="155.392" x2="158.0" y1="64.6515" y2="63.4904" /><line stroke="rgb(0%,0%,0%)" x1="158.0" x2="158.2273" y1="63.4904" y2="63.3252" /><line stroke="rgb(0%,0%,0%)" x1="158.2273" x2="160.537" y1="63.3252" y2="61.6472" /><line stroke="rgb(0%,0%,0%)" x1="160.537" x2="160.725" y1="61.6472" y2="61.4383" /><line stroke="rgb(0%,0%,0%)" x1="160.725" x2="162.6353" y1="61.4383" y2="59.3168" /><line stroke="rgb(0%,0%,0%)" x1="162.6353" x2="162.7758" y1="59.3168" y2="59.0734" /><line stroke="rgb(0%,0%,0%)" x1="162.7758" x2="164.2032" y1="59.0734" y2="56.6011" /><line stroke="rgb(0%,0%,0%)" x1="164.2032" x2="164.29" y1="56.6011" y2="56.3338" /><line stroke="rgb(0%,0%,0%)" x1="164.29" x2="165.1722" y1="56.3338" y2="53.6187" /><line stroke="rgb(0%,0%,0%)" x1="165.1722" x2="165.2016" y1="53.6187" y2="53.3392" /><line stroke="rgb(0%,0%,0%)" x1="165.2016" x2="165.5" y1="53.3392" y2="50.5" /><line stroke="rgb(0%,0%,0%)" x1="165.5" x2="165.4706" y1="50.5" y2="50.2205" /><line stroke="rgb(0%,0%,0%)" x1="165.4706" x2="165.1722" y1="50.2205" y2="47.3813" /><line stroke="rgb(0%,0%,0%)" x1="165.1722" x2="165.0854" y1="47.3813" y2="47.1141" /><line stroke="rgb(0%,0%,0%)" x1="165.0854" x2="164.2032" y1="47.1141" y2="44.3989" /><line stroke="rgb(0%,0%,0%)" x1="164.2032" x2="164.0627" y1="44.3989" y2="44.1556" /><line stroke="rgb(0%,0%,0%)" x1="164.0627" x2="162.6353" y1="44.1556" y2="41.6832" /><line stroke="rgb(0%,0%,0%)" x1="162.6353" x2="162.4472" y1="41.6832" y2="41.4744" /><line stroke="rgb(0%,0%,0%)" x1="162.4472" x2="160.537" y1="41.4744" y2="39.3528" /><line stroke="rgb(0%,0%,0%)" x1="160.537" x2="160.3096" y1="39.3528" y2="39.1876" /><line stroke="rgb(0%,0%,0%)" x1="160.3096" x2="158.0" y1="39.1876" y2="37.5096" /><line stroke="rgb(0%,0%,0%)" x1="158.0" x2="157.7433" y1="37.5096" y2="37.3953" /><line stroke="rgb(0%,0%,0%)" x1="157.7433" x2="155.1353" y1="37.3953" y2="36.2342" /><line stroke="rgb(0%,0%,0%)" x1="155.1353" x2="154.8604" y1="36.2342" y2="36.1757" /><line stroke="rgb(0%,0%,0%)" x1="154.8604" x2="152.0679" y1="36.1757" y2="35.5822" /><line stroke="rgb(0%,0%,0%)" x1="152.0679" x2="151.7869" y1="35.5822" y2="35.5822" /><line stroke="rgb(0%,0%,0%)" x1="151.7869" x2="148.9321" y1="35.5822" y2="35.5822" /><line stroke="rgb(0%,0%,0%)" x1="148.9321" x2="148.6572" y1="35.5822" y2="35.6406" /><line stroke="rgb(0%,0%,0%)" x1="148.6572" x2="145.8647" y1="35.6406" y2="36.2342" /><line stroke="rgb(0%,0%,0%)" x1="145.8647" x2="145.608" y1="36.2342" y2="36.3485" /><line stroke="rgb(0%,0%,0%)" x1="145.608" x2="143.0" y1="36.3485" y2="37.5096" /><line stroke="rgb(0%,0%,0%)" x1="143.0" x2="142.7726" y1="37.5096" y2="37.6748" /><line stroke="rgb(0%,0%,0%)" x1="142.7726" x2="140.463" y1="37.6748" y2="39.3528" /><line stroke="rgb(0%,0%,0%)" x1="140.463" x2="140.275" y1="39.3528" y2="39.5617" /><line stroke="rgb(0%,0%,0%)" x1="140.275" x2="138.3647" y1="39.5617" y2="41.6832" /><line stroke="rgb(0%,0%,0%)" x1="138.3647" x2="138.2242" y1="41.6832" y2="41.9266" /><line stroke="rgb(0%,0%,0%)" x1="138.2242" x2="136.7968" y1="41.9266" y2="44.3989" /><line stroke="rgb(0%,0%,0%)" x1="136.7968" x2="136.71" y1="44.3989" y2="44.6662" /><line stroke="rgb(0%,0%,0%)" x1="136.71" x2="135.8278" y1="44.6662" y2="47.3813" /><line stroke="rgb(0%,0%,0%)" x1="35.8278" x2="35.7984" y1="47.3813" y2="47.6608" /><line stroke="rgb(0%,0%,0%)" x1="35.7984" x2="35.5" y1="47.6608" y2="50.5" /><line stroke="rgb(0%,0%,0%)" x1="35.5" x2="35.5294" y1="50.5" y2="50.7795" /><line stroke="rgb(0%,0%,0%)" x1="35.5294" x2="35.8278" y1="50.7795" y2="53.6187" /><line stroke="rgb(0%,0%,0%)" x1="35.8278" x2="35.9146" y1="53.6187" y2="53.8859" /><line stroke="rgb(0%,0%,0%)" x1="35.9146" x2="36.7968" y1="53.8859" y2="56.6011" /><line stroke="rgb(0%,0%,0%)" x1="36.7968" x2="36.9373" y1="56.6011" y2="56.8444" /><line stroke="rgb(0%,0%,0%)" x1="36.9373" x2="38.3647" y1="56.8444" y2="59.3168" /><line stroke="rgb(0%,0%,0%)" x1="38.3647" x2="38.5528" y1="59.3168" y2="59.5256" /><line stroke="rgb(0%,0%,0%)" x1="38.5528" x2="40.463" y1="59.5256" y2="61.6472" /><line stroke="rgb(0%,0%,0%)" x1="40.463" x2="40.6904" y1="61.6472" y2="61.8124" /><line stroke="rgb(0%,0%,0%)" x1="40.6904" x2="43.0" y1="61.8124" y2="63.4904" /><line stroke="rgb(0%,0%,0%)" x1="43.0" x2="43.2567" y1="63.4904" y2="63.6047" /><line stroke="rgb(0%,0%,0%)" x1="43.2567" x2="45.8647" y1="63.6047" y2="64.7658" /><line stroke="rgb(0%,0%,0%)" x1="45.8647" x2="46.1396" y1="64.7658" y2="64.8243" /><line stroke="rgb(0%,0%,0%)" x1="46.1396" x2="48.9321" y1="64.8243" y2="65.4178" /><line stroke="rgb(0%,0%,0%)" x1="48.9321" x2="49.2131" y1="65.4178" y2="65.4178" /><line stroke="rgb(0%,0%,0%)" x1="49.2131" x2="52.0679" y1="65.4178" y2="65.4178" /><line stroke="rgb(0%,0%,0%)" x1="52.0679" x2="52.3428" y1="65.4178" y2="65.3594" /><line stroke="rgb(0%,0%,0%)" x1="52.3428" x2="55.1353" y1="65.3594" y2="64.7658" /><line stroke="rgb(0%,0%,0%)" x1="55.1353" x2="55.392" y1="64.7658" y2="64.6515" /><line stroke="rgb(0%,0%,0%)" x1="55.392" x2="58.0" y1="64.6515" y2="63.4904" /><line stroke="rgb(0%,0%,0%)" x1="58.0" x2="58.2274" y1="63.4904" y2="63.3252" /><line stroke="rgb(0%,0%,0%)" x1="58.2274" x2="60.537" y1="63.3252" y2="61.6472" /><line stroke="rgb(0%,0%,0%)" x1="60.537" x2="60.725" y1="61.6472" y2="61.4383" /><line stroke="rgb(0%,0%,0%)" x1="60.725" x2="62.6352" y1="61.4383" y2="59.3168" /><line stroke="rgb(0%,0%,0%)" x1="62.6352" x2="62.7758" y1="59.3168" y2="59.0734" /><line stroke="rgb(0%,0%,0%)" x1="62.7758" x2="64.2032" y1="59.0734" y2="56.6011" /><line stroke="rgb(0%,0%,0%)" x1="64.2032" x2="64.29" y1="56.6011" y2="56.3338" /><line stroke="rgb(0%,0%,0%)" x1="64.29" x2="65.1722" y1="56.3338" y2="53.6187" /><line stroke="rgb(0%,0%,0%)" x1="65.1722" x2="65.2016" y1="53.6187" y2="53.3392" /><line stroke="rgb(0%,0%,0%)" x1="65.2016" x2="65.5" y1="53.3392" y2="50.5" /><line stroke="rgb(0%,0%,0%)" x1="65.5" x2="65.4706" y1="50.5" y2="50.2205" /><line stroke="rgb(0%,0%,0%)" x1="65.4706" x2="65.1722" y1="50.2205" y2="47.3813" /><line stroke="rgb(0%,0%,0%)" x1="65.1722" x2="65.0854" y1="47.3813" y2="47.1141" /><line stroke="rgb(0%,0%,0%)" x1="65.0854" x2="64.2032" y1="47.1141" y2="44.3989" /><line stroke="rgb(0%,0%,0%)" x1="64.2032" x2="64.0627" y1="44.3989" y2="44.1556" /><line stroke="rgb(0%,0%,0%)" x1="64.0627" x2="62.6352" y1="44.1556" y2="41.6832" /><line stroke="rgb(0%,0%,0%)" x1="62.6352" x2="62.4472" y1="41.6832" y2="41.4744" /><line stroke="rgb(0%,0%,0%)" x1="62.4472" x2="60.537" y1="41.4744" y2="39.3528" /><line stroke="rgb(0%,0%,0%)" x1="60.537" x2="60.3096" y1="39.3528" y2="39.1876" /><line stroke="rgb(0%,0%,0%)" x1="60.3096" x2="58.0" y1="39.1876" y2="37.5096" /><line stroke="rgb(0%,0%,0%)" x1="58.0" x2="57.7433" y1="37.5096" y2="37.3953" /><line stroke="rgb(0%,0%,0%)" x1="57.7433" x2="55.1353" y1="37.3953" y2="36.2342" /><line stroke="rgb(0%,0%,0%)" x1="55.1353" x2="54.8604" y1="36.2342" y2="36.1757" /><line stroke="rgb(0%,0%,0%)" x1="54.8604" x2="52.0679" y1="36.1757" y2="35.5822" /><line stroke="rgb(0%,0%,0%)" x1="52.0679" x2="51.7869" y1="35.5822" y2="35.5822" /><line stroke="rgb(0%,0%,0%)" x1="51.7869" x2="48.9321" y1="35.5822" y2="35.5822" /><line stroke="rgb(0%,0%,0%)" x1="48.9321" x2="48.6572" y1="35.5822" y2="35.6406" /><line stroke="rgb(0%,0%,0%)" x1="48.6572" x2="45.8647" y1="35.6406" y2="36.2342" /><line stroke="rgb(0%,0%,0%)" x1="45.8647" x2="45.608" y1="36.2342" y2="36.3485" /><line stroke="rgb(0%,0%,0%)" x1="45.608" x2="43.0" y1="36.3485" y2="37.5096" /><line stroke="rgb(0%,0%,0%)" x1="43.0" x2="42.7726" y1="37.5096" y2="37.6748" /><line stroke="rgb(0%,0%,0%)" x1="42.7726" x2="40.463" y1="37.6748" y2="39.3528" /><line stroke="rgb(0%,0%,0%)" x1="40.463" x2="40.275" y1="39.3528" y2="39.5617" /><line stroke="rgb(0%,0%,0%)" x1="40.275" x2="38.3647" y1="39.5617" y2="41.6832" /><line stroke="rgb(0%,0%,0%)" x1="38.3647" x2="38.2242" y1="41.6832" y2="41.9266" /><line stroke="rgb(0%,0%,0%)" x1="38.2242" x2="36.7968" y1="41.9266" y2="44.3989" /><line stroke="rgb(0%,0%,0%)" x1="36.7968" x2="36.71" y1="44.3989" y2="44.6662" /><line stroke="rgb(0%,0%,0%)" x1="36.71" x2="35.8278" y1="44.6662" y2="47.3813" /></svg>