<?xml version="1.0" encoding="utf-8" ?>
<svg baseProfile="tiny" height="100%" version="1.2" width="100%" xmlns="http://www.w3.org/2000/svg" xmlns:ev="http://www.w3.org/2001/xml-events" xmlns:xlink="http://www.w3.org/1999/xlink"><defs /><line stroke="rgb(0%,0%,0%)" x1="351.9" x2="351.9" y1="0.5" y2="48.4543" /><line stroke="rgb(0%,0%,0%)" x1="351.9" x2="351.9" y1="48.4543" y2="100.5" /><line stroke="rgb(0%,0%,0%)" x1="268.6195" x2="334.2716" y1="100.5" y2="100.5" /><line stroke="rgb(0%,0%,0%)" x1="334.2716" x2="336.5612" y1="100.5" y2="100.5" /><line stroke="rgb(0%,0%,0%)" x1="336.5612" x2="339.177" y1="100.5" y2="100.5" /><line stroke="rgb(0%,0%,0%)" x1="339.177" x2="342.0801" y1="100.5" y2="100.5" /><line stroke="rgb(0%,0%,0%)" x1="342.0801" x2="345.2158" y1="100.5" y2="100.5" /><line stroke="rgb(0%,0%,0%)" x1="345.2158" x2="348.5155" y1="100.5" y2="100.5" /><line stroke="rgb(0%,0%,0%)" x1="348.5155" x2="351.9" y1="100.5" y2="100.5" /><line stroke="rgb(0%,0%,0%)" x1="268.6195" x2="112.1779" y1="100.5" y2="100.5" /><line stroke="rgb(0%,0%,0%)" x1="112.1779" x2="0.5" y1="100.5" y2="100.5" /><line stroke="rgb(0%,0%,0%)" x1="0.5" x2="112.1779" y1="0.5" y2="0.5" /><line stroke="rgb(0%,0%,0%)" x1="112.1779" x2="268.6195" y1="0.5" y2="0.5" /><line stroke="rgb(0%,0%,0%)" x1="268.6195" x2="334.2716" y1="0.5" y2="0.5" /><line stroke="rgb(0%,0%,0%)" x1="334.2716" x2="336.5612" y1="0.5" y2="0.5" /><line stroke="rgb(0%,0%,0%)" x1="336.5612" x2="339.177" y1="0.5" y2="0.5" /><line stroke="rgb(0%,0%,0%)" x1="339.177" x2="342.0801" y1="0.5" y2="0.5" /><line stroke="rgb(0%,0%,0%)" x1="342.0801" x2="345.2158" y1="0.5" y2="0.5" /><line stroke="rgb(0%,0%,0%)" x1="345.2158" x2="348.5155" y1="0.5" y2="0.5" /><line stroke="rgb(0%,0%,0%)" x1="348.5155" x2="351.9" y1="0.5" y2="0.5" /><line stroke="rgb(0%,0%,0%)" x1="0.5" x2="0.5" y1="0.5" y2="45.0195" /><line stroke="rgb(0%,0%,0%)" x1="0.5" x2="0.5" y1="45.0195" y2="100.5" /><line stroke="rgb(0%,0%,0%)" x1="135.8278" x2="135.7919" y1="47.3813" y2="47.7232" /><line stroke="rgb(0%,0%,0%)" x1="135.7919" x2="135.5" y1="47.7232" y2="50.5" /><line stroke="rgb(0%,0%,0%)" x1="135.5" x2="135.5359" y1="50.5" y2="50.8418" /><line stroke="rgb(0%,0%,0%)" x1="135.5359" x2="135.8278" y1="50.8418" y2="53.6187" /><line stroke="rgb(0%,0%,0%)" x1="135.8278" x2="135.934" y1="53.6187" y2="53.9456" /><line stroke="rgb(0%,0%,0%)" x1="135.934" x2="136.7968" y1="53.9456" y2="56.6011" /><line stroke="rgb(0%,0%,0%)" x1="136.7968" x2="136.9687" y1="56.6011" y2="56.8987" /><line stroke="rgb(0%,0%,0%)" x1="136.9687" x2="138.3647" y1="56.8987" y2="59.3168" /><line stroke="rgb(0%,0%,0%)" x1="138.3647" x2="138.5947" y1="59.3168" y2="59.5722" /><line stroke="rgb(0%,0%,0%)" x1="138.5947" x2="140.463" y1="59.5722" y2="61.6472" /><line stroke="rgb(0%,0%,0%)" x1="140.463" x2="140.7411" y1="61.6472" y2="61.8492" /><line stroke="rgb(0%,0%,0%)" x1="140.7411" x2="143.0" y1="61.8492" y2="63.4904" /><line stroke="rgb(0%,0%,0%)" x1="143.0" x2="143.314" y1="63.4904" y2="63.6302" /><line stroke="rgb(0%,0%,0%)" x1="143.314" x2="145.8647" y1="63.6302" y2="64.7658" /><line stroke="rgb(0%,0%,0%)" x1="145.8647" x2="146.201" y1="64.7658" y2="64.8373" /><line stroke="rgb(0%,0%,0%)" x1="146.201" x2="148.9321" y1="64.8373" y2="65.4178" /><line stroke="rgb(0%,0%,0%)" x1="148.9321" x2="149.2758" y1="65.4178" y2="65.4178" /><line stroke="rgb(0%,0%,0%)" x1="149.2758" x2="152.0679" y1="65.4178" y2="65.4178" /><line stroke="rgb(0%,0%,0%)" x1="152.0679" x2="152.4041" y1="65.4178" y2="65.3464" /><line stroke="rgb(0%,0%,0%)" x1="152.4041" x2="155.1353" y1="65.3464" y2="64.7658" /><line stroke="rgb(0%,0%,0%)" x1="155.1353" x2="155.4493" y1="64.7658" y2="64.626" /><line stroke="rgb(0%,0%,0%)" x1="155.4493" x2="158.0" y1="64.626" y2="63.4904" /><line stroke="rgb(0%,0%,0%)" x1="158.0" x2="158.2781" y1="63.4904" y2="63.2883" /><line stroke="rgb(0%,0%,0%)" x1="158.2781" x2="160.537" y1="63.2883" y2="61.6472" /><line stroke="rgb(0%,0%,0%)" x1="160.537" x2="160.7669" y1="61.6472" y2="61.3917" /><line stroke="rgb(0%,0%,0%)" x1="160.7669" x2="162.6353" y1="61.3917" y2="59.3168" /><line stroke="rgb(0%,0%,0%)" x1="162.6353" x2="162.8071" y1="59.3168" y2="59.0191" /><line stroke="rgb(0%,0%,0%)" x1="162.8071" x2="164.2032" y1="59.0191" y2="56.6011" /><line stroke="rgb(0%,0%,0%)" x1="164.2032" x2="164.3094" y1="56.6011" y2="56.2742" /><line stroke="rgb(0%,0%,0%)" x1="164.3094" x2="165.1722" y1="56.2742" y2="53.6187" /><line stroke="rgb(0%,0%,0%)" x1="165.1722" x2="165.2081" y1="53.6187" y2="53.2768" /><line stroke="rgb(0%,0%,0%)" x1="165.2081" x2="165.5" y1="53.2768" y2="50.5" /><line stroke="rgb(0%,0%,0%)" x1="165.5" x2="165.4641" y1="50.5" y2="50.1582" /><line stroke="rgb(0%,0%,0%)" x1="165.4641" x2="165.1722" y1="50.1582" y2="47.3813" /><line stroke="rgb(0%,0%,0%)" x1="165.1722" x2="165.066" y1="47.3813" y2="47.0544" /><line stroke="rgb(0%,0%,0%)" x1="165.066" x2="164.2032" y1="47.0544" y2="44.3989" /><line stroke="rgb(0%,0%,0%)" x1="164.2032" x2="164.0313" y1="44.3989" y2="44.1013" /><line stroke="rgb(0%,0%,0%)" x1="164.0313" x2="162.6353" y1="44.1013" y2="41.6832" /><line stroke="rgb(0%,0%,0%)" x1="162.6353" x2="162.4053" y1="41.6832" y2="41.4278" /><line stroke="rgb(0%,0%,0%)" x1="162.4053" x2="160.537" y1="41.4278" y2="39.3528" /><line stroke="rgb(0%,0%,0%)" x1="160.537" x2="160.2589" y1="39.3528" y2="39.1508" /><line stroke="rgb(0%,0%,0%)" x1="160.2589" x2="158.0" y1="39.1508" y2="37.5096" /><line stroke="rgb(0%,0%,0%)" x1="158.0" x2="157.686" y1="37.5096" y2="37.3698" /><line stroke="rgb(0%,0%,0%)" x1="157.686" x2="155.1353" y1="37.3698" y2="36.2342" /><line stroke="rgb(0%,0%,0%)" x1="155.1353" x2="154.799" y1="36.2342" y2="36.1627" /><line stroke="rgb(0%,0%,0%)" x1="154.799" x2="152.0679" y1="36.1627" y2="35.5822" /><line stroke="rgb(0%,0%,0%)" x1="152.0679" x2="151.7242" y1="35.5822" y2="35.5822" /><line stroke="rgb(0%,0%,0%)" x1="151.7242" x2="148.9321" y1="35.5822" y2="35.5822" /><line stroke="rgb(0%,0%,0%)" x1="148.9321" x2="148.5959" y1="35.5822" y2="35.6536" /><line stroke="rgb(0%,0%,0%)" x1="148.5959" x2="145.8647" y1="35.6536" y2="36.2342" /><line stroke="rgb(0%,0%,0%)" x1="145.8647" x2="145.5507" y1="36.2342" y2="36.374" /><line stroke="rgb(0%,0%,0%)" x1="145.5507" x2="143.0" y1="36.374" y2="37.5096" /><line stroke="rgb(0%,0%,0%)" x1="143.0" x2="142.7219" y1="37.5096" y2="37.7117" /><line stroke="rgb(0%,0%,0%)" x1="142.7219" x2="140.463" y1="37.7117" y2="39.3528" /><line stroke="rgb(0%,0%,0%)" x1="140.463" x2="140.233" y1="39.3528" y2="39.6083" /><line stroke="rgb(0%,0%,0%)" x1="140.233" x2="138.3647" y1="39.6083" y2="41.6832" /><line stroke="rgb(0%,0%,0%)" x1="138.3647" x2="138.1929" y1="41.6832" y2="41.9809" /><line stroke="rgb(0%,0%,0%)" x1="138.1929" x2="136.7968" y1="41.9809" y2="44.3989" /><line stroke="rgb(0%,0%,0%)" x1="136.7968" x2="136.6906" y1="44.3989" y2="44.7258" /><line stroke="rgb(0%,0%,0%)" x1="136.6906" x2="135.8278" y1="44.7258" y2="47.3813" /><line stroke="rgb(0%,0%,0%)" x1="35.8278" x2="35.7919" y1="47.3813" y2="47.7232" /><line stroke="rgb(0%,0%,0%)" x1="35.7919" x2="35.5" y1="47.7232" y2="50.5" /><line stroke="rgb(0%,0%,0%)" x1="35.5" x2="35.5359" y1="50.5" y2="50.8418" /><line stroke="rgb(0%,0%,0%)" x1="35.5359" x2="35.8278" y1="50.8418" y2="53.6187" /><line stroke="rgb(0%,0%,0%)" x1="35.8278" x2="35.934" y1="53.6187" y2="53.9456" /><line stroke="rgb(0%,0%,0%)" x1="35.934" x2="36.7968" y1="53.9456" y2="56.6011" /><line stroke="rgb(0%,0%,0%)" x1="36.7968" x2="36.9687" y1="56.6011" y2="56.8987" /><line stroke="rgb(0%,0%,0%)" x1="36.9687" x2="38.3647" y1="56.8987" y2="59.3168" /><line stroke="rgb(0%,0%,0%)" x1="38.3647" x2="38.5947" y1="59.3168" y2="59.5722" /><line stroke="rgb(0%,0%,0%)" x1="38.5947" x2="40.463" y1="59.5722" y2="61.6472" /><line stroke="rgb(0%,0%,0%)" x1="40.463" x2="40.7411" y1="61.6472" y2="61.8492" /><line stroke="rgb(0%,0%,0%)" x1="40.7411" x2="43.0" y1="61.8492" y2="63.4904" /><line stroke="rgb(0%,0%,0%)" x1="43.0" x2="43.314" y1="63.4904" y2="63.6302" /><line stroke="rgb(0%,0%,0%)" x1="43.314" x2="45.8647" y1="63.6302" y2="64.7658" /><line stroke="rgb(0%,0%,0%)" x1="45.8647" x2="46.201" y1="64.7658" y2="64.8373" /><line stroke="rgb(0%,0%,0%)" x1="46.201" x2="48.9321" y1="64.8373" y2="65.4178" /><line stroke="rgb(0%,0%,0%)" x1="48.9321" x2="49.2758" y1="65.4178" y2="65.4178" /><line stroke="rgb(0%,0%,0%)" x1="49.2758" x2="52.0679" y1="65.4178" y2="65.4178" /><line stroke="rgb(0%,0%,0%)" x1="52.0679" x2="52.4041" y1="65.4178" y2="65.3464" /><line stroke="rgb(0%,0%,0%)" x1="52.4041" x2="55.1353" y1="65.3464" y2="64.7658" /><line stroke="rgb(0%,0%,0%)" x1="55.1353" x2="55.4493" y1="64.7658" y2="64.626" /><line stroke="rgb(0%,0%,0%)" x1="55.4493" x2="58.0" y1="64.626" y2="63.4904" /><line stroke="rgb(0%,0%,0%)" x1="58.0" x2="58.2781" y1="63.4904" y2="63.2883" /><line stroke="rgb(0%,0%,0%)" x1="58.2781" x2="60.537" y1="63.2883" y2="61.6472" /><line stroke="rgb(0%,0%,0%)" x1="60.537" x2="60.767" y1="61.6472" y2="61.3917" /><line stroke="rgb(0%,0%,0%)" x1="60.767" x2="62.6352" y1="61.3917" y2="59.3168" /><line stroke="rgb(0%,0%,0%)" x1="62.6352" x2="62.8071" y1="59.3168" y2="59.0191" /><line stroke="rgb(0%,0%,0%)" x1="62.8071" x2="64.2032" y1="59.0191" y2="56.6011" /><line stroke="rgb(0%,0%,0%)" x1="64.2032" x2="64.3094" y1="56.6011" y2="56.2742" /><line stroke="rgb(0%,0%,0%)" x1="64.3094" x2="65.1722" y1="56.2742" y2="53.6187" /><line stroke="rgb(0%,0%,0%)" x1="65.1722" x2="65.2081" y1="53.6187" y2="53.2768" /><line stroke="rgb(0%,0%,0%)" x1="65.2081" x2="65.5" y1="53.2768" y2="50.5" /><line stroke="rgb(0%,0%,0%)" x1="65.5" x2="65.4641" y1="50.5" y2="50.1582" /><line stroke="rgb(0%,0%,0%)" x1="65.4641" x2="65.1722" y1="50.1582" y2="47.3813" /><line stroke="rgb(0%,0%,0%)" x1="65.1722" x2="65.066" y1="47.3813" y2="47.0544" /><line stroke="rgb(0%,0%,0%)" x1="65.066" x2="64.2032" y1="47.0544" y2="44.3989" /><line stroke="rgb(0%,0%,0%)" x1="64.2032" x2="64.0313" y1="44.3989" y2="44.1013" /><line stroke="rgb(0%,0%,0%)" x1="64.0313" x2="62.6352" y1="44.1013" y2="41.6832" /><line stroke="rgb(0%,0%,0%)" x1="62.6352" x2="62.4053" y1="41.6832" y2="41.4278" /><line stroke="rgb(0%,0%,0%)" x1="62.4053" x2="60.537" y1="41.4278" y2="39.3528" /><line stroke="rgb(0%,0%,0%)" x1="60.537" x2="60.2589" y1="39.3528" y2="39.1508" /><line stroke="rgb(0%,0%,0%)" x1="60.2589" x2="58.0" y1="39.1508" y2="37.5096" /><line stroke="rgb(0%,0%,0%)" x1="58.0" x2="57.686" y1="37.5096" y2="37.3698" /><line stroke="rgb(0%,0%,0%)" x1="57.686" x2="55.1353" y1="37.3698" y2="36.2342" /><line stroke="rgb(0%,0%,0%)" x1="55.1353" x2="54.799" y1="36.2342" y2="36.1627" /><line stroke="rgb(0%,0%,0%)" x1="54.799" x2="52.0679" y1="36.1627" y2="35.5822" /><line stroke="rgb(0%,0%,0%)" x1="52.0679" x2="51.7242" y1="35.5822" y2="35.5822" /><line stroke="rgb(0%,0%,0%)" x1="51.7242" x2="48.9321" y1="35.5822" y2="35.5822" /><line stroke="rgb(0%,0%,0%)" x1="48.9321" x2="48.5959" y1="35.5822" y2="35.6536" /><line stroke="rgb(0%,0%,0%)" x1="48.5959" x2="45.8647" y1="35.6536" y2="36.2342" /><line stroke="rgb(0%,0%,0%)" x1="45.8647" x2="45.5507" y1="36.2342" y2="36.374" /><line stroke="rgb(0%,0%,0%)" x1="45.5507" x2="43.0" y1="36.374" y2="37.5096" /><line stroke="rgb(0%,0%,0%)" x1="43.0" x2="42.7219" y1="37.5096" y2="37.7117" /><line stroke="rgb(0%,0%,0%)" x1="42.7219" x2="40.463" y1="37.7117" y2="39.3528" /><line stroke="rgb(0%,0%,0%)" x1="40.463" x2="40.233" y1="39.3528" y2="39.6083" /><line stroke="rgb(0%,0%,0%)" x1="40.233" x2="38.3647" y1="39.6083" y2="41.6832" /><line stroke="rgb(0%,0%,0%)" x1="38.3647" x2="38.1929" y1="41.6832" y2="41.9809" /><line stroke="rgb(0%,0%,0%)" x1="38.1929" x2="36.7968" y1="41.9809" y2="44.3989" /><line stroke="rgb(0%,0%,0%)" x1="36.7968" x2="36.6906" y1="44.3989" y2="44.7258" /><line stroke="rgb(0%,0%,0%)" x1="36.6906" x2="35.8278" y1="44.7258" y2="47.3813" /></svg>