<?xml version="1.0" encoding="utf-8" ?>
<svg baseProfile="tiny" height="100%" version="1.2" width="100%" xmlns="http://www.w3.org/2000/svg" xmlns:ev="http://www.w3.org/2001/xml-events" xmlns:xlink="http://www.w3.org/1999/xlink"><defs /><line stroke="rgb(0%,0%,0%)" x1="351.9" x2="351.9" y1="0.5" y2="49.3183" /><line stroke="rgb(0%,0%,0%)" x1="351.9" x2="351.9" y1="49.3183" y2="100.5" /><line stroke="rgb(0%,0%,0%)" x1="267.1189" x2="333.954" y1="100.5" y2="100.5" /><line stroke="rgb(0%,0%,0%)" x1="333.954" x2="336.2849" y1="100.5" y2="100.5" /><line stroke="rgb(0%,0%,0%)" x1="336.2849" x2="338.9478" y1="100.5" y2="100.5" /><line stroke="rgb(0%,0%,0%)" x1="338.9478" x2="341.9031" y1="100.5" y2="100.5" /><line stroke="rgb(0%,0%,0%)" x1="341.9031" x2="345.0953" y1="100.5" y2="100.5" /><line stroke="rgb(0%,0%,0%)" x1="345.0953" x2="348.4545" y1="100.5" y2="100.5" /><line stroke="rgb(0%,0%,0%)" x1="348.4545" x2="351.9" y1="100.5" y2="100.5" /><line stroke="rgb(0%,0%,0%)" x1="267.1189" x2="114.1901" y1="100.5" y2="100.5" /><line stroke="rgb(0%,0%,0%)" x1="114.1901" x2="0.5" y1="100.5" y2="100.5" /><line stroke="rgb(0%,0%,0%)" x1="0.5" x2="114.1901" y1="0.5" y2="0.5" /><line stroke="rgb(0%,0%,0%)" x1="114.1901" x2="267.1189" y1="0.5" y2="0.5" /><line stroke="rgb(0%,0%,0%)" x1="267.1189" x2="333.954" y1="0.5" y2="0.5" /><line stroke="rgb(0%,0%,0%)" x1="333.954" x2="336.2849" y1="0.5" y2="0.5" /><line stroke="rgb(0%,0%,0%)" x1="336.2849" x2="338.9478" y1="0.5" y2="0.5" /><line stroke="rgb(0%,0%,0%)" x1="338.9478" x2="341.9031" y1="0.5" y2="0.5" /><line stroke="rgb(0%,0%,0%)" x1="341.9031" x2="345.0953" y1="0.5" y2="0.5" /><line stroke="rgb(0%,0%,0%)" x1="345.0953" x2="348.4545" y1="0.5" y2="0.5" /><line stroke="rgb(0%,0%,0%)" x1="348.4545" x2="351.9" y1="0.5" y2="0.5" /><line stroke="rgb(0%,0%,0%)" x1="0.5" x2="0.5" y1="0.5" y2="44.0199" /><line stroke="rgb(0%,0%,0%)" x1="0.5" x2="0.5" y1="44.0199" y2="100.5" /><line stroke="rgb(0%,0%,0%)" x1="135.8278" x2="135.7853" y1="47.3813" y2="47.7855" /><line stroke="rgb(0%,0%,0%)" x1="135.7853" x2="135.5" y1="47.7855" y2="50.5" /><line stroke="rgb(0%,0%,0%)" x1="135.5" x2="135.5425" y1="50.5" y2="50.9042" /><line stroke="rgb(0%,0%,0%)" x1="135.5425" x2="135.8278" y1="50.9042" y2="53.6187" /><line stroke="rgb(0%,0%,0%)" x1="135.8278" x2="135.9534" y1="53.6187" y2="54.0052" /><line stroke="rgb(0%,0%,0%)" x1="135.9534" x2="136.7968" y1="54.0052" y2="56.6011" /><line stroke="rgb(0%,0%,0%)" x1="136.7968" x2="137.0" y1="56.6011" y2="56.953" /><line stroke="rgb(0%,0%,0%)" x1="137.0" x2="138.3647" y1="56.953" y2="59.3168" /><line stroke="rgb(0%,0%,0%)" x1="138.3647" x2="138.6367" y1="59.3168" y2="59.6188" /><line stroke="rgb(0%,0%,0%)" x1="138.6367" x2="140.463" y1="59.6188" y2="61.6472" /><line stroke="rgb(0%,0%,0%)" x1="140.463" x2="140.7918" y1="61.6472" y2="61.8861" /><line stroke="rgb(0%,0%,0%)" x1="140.7918" x2="143.0" y1="61.8861" y2="63.4904" /><line stroke="rgb(0%,0%,0%)" x1="143.0" x2="143.3713" y1="63.4904" y2="63.6557" /><line stroke="rgb(0%,0%,0%)" x1="143.3713" x2="145.8647" y1="63.6557" y2="64.7658" /><line stroke="rgb(0%,0%,0%)" x1="145.8647" x2="146.2623" y1="64.7658" y2="64.8503" /><line stroke="rgb(0%,0%,0%)" x1="146.2623" x2="148.9321" y1="64.8503" y2="65.4178" /><line stroke="rgb(0%,0%,0%)" x1="148.9321" x2="149.3385" y1="65.4178" y2="65.4178" /><line stroke="rgb(0%,0%,0%)" x1="149.3385" x2="152.0679" y1="65.4178" y2="65.4178" /><line stroke="rgb(0%,0%,0%)" x1="152.0679" x2="152.4655" y1="65.4178" y2="65.3333" /><line stroke="rgb(0%,0%,0%)" x1="152.4655" x2="155.1353" y1="65.3333" y2="64.7658" /><line stroke="rgb(0%,0%,0%)" x1="155.1353" x2="155.5065" y1="64.7658" y2="64.6005" /><line stroke="rgb(0%,0%,0%)" x1="155.5065" x2="158.0" y1="64.6005" y2="63.4904" /><line stroke="rgb(0%,0%,0%)" x1="158.0" x2="158.3288" y1="63.4904" y2="63.2515" /><line stroke="rgb(0%,0%,0%)" x1="158.3288" x2="160.537" y1="63.2515" y2="61.6472" /><line stroke="rgb(0%,0%,0%)" x1="160.537" x2="160.8089" y1="61.6472" y2="61.3451" /><line stroke="rgb(0%,0%,0%)" x1="160.8089" x2="162.6353" y1="61.3451" y2="59.3168" /><line stroke="rgb(0%,0%,0%)" x1="162.6353" x2="162.8385" y1="59.3168" y2="58.9648" /><line stroke="rgb(0%,0%,0%)" x1="162.8385" x2="164.2032" y1="58.9648" y2="56.6011" /><line stroke="rgb(0%,0%,0%)" x1="164.2032" x2="164.3288" y1="56.6011" y2="56.2145" /><line stroke="rgb(0%,0%,0%)" x1="164.3288" x2="165.1722" y1="56.2145" y2="53.6187" /><line stroke="rgb(0%,0%,0%)" x1="165.1722" x2="165.2147" y1="53.6187" y2="53.2145" /><line stroke="rgb(0%,0%,0%)" x1="165.2147" x2="165.5" y1="53.2145" y2="50.5" /><line stroke="rgb(0%,0%,0%)" x1="165.5" x2="165.4575" y1="50.5" y2="50.0958" /><line stroke="rgb(0%,0%,0%)" x1="165.4575" x2="165.1722" y1="50.0958" y2="47.3813" /><line stroke="rgb(0%,0%,0%)" x1="165.1722" x2="165.0466" y1="47.3813" y2="46.9948" /><line stroke="rgb(0%,0%,0%)" x1="165.0466" x2="164.2032" y1="46.9948" y2="44.3989" /><line stroke="rgb(0%,0%,0%)" x1="164.2032" x2="164.0" y1="44.3989" y2="44.047" /><line stroke="rgb(0%,0%,0%)" x1="164.0" x2="162.6353" y1="44.047" y2="41.6832" /><line stroke="rgb(0%,0%,0%)" x1="162.6353" x2="162.3633" y1="41.6832" y2="41.3812" /><line stroke="rgb(0%,0%,0%)" x1="162.3633" x2="160.537" y1="41.3812" y2="39.3528" /><line stroke="rgb(0%,0%,0%)" x1="160.537" x2="160.2082" y1="39.3528" y2="39.1139" /><line stroke="rgb(0%,0%,0%)" x1="160.2082" x2="158.0" y1="39.1139" y2="37.5096" /><line stroke="rgb(0%,0%,0%)" x1="158.0" x2="157.6287" y1="37.5096" y2="37.3443" /><line stroke="rgb(0%,0%,0%)" x1="157.6287" x2="155.1353" y1="37.3443" y2="36.2342" /><line stroke="rgb(0%,0%,0%)" x1="155.1353" x2="154.7377" y1="36.2342" y2="36.1497" /><line stroke="rgb(0%,0%,0%)" x1="154.7377" x2="152.0679" y1="36.1497" y2="35.5822" /><line stroke="rgb(0%,0%,0%)" x1="152.0679" x2="151.6615" y1="35.5822" y2="35.5822" /><line stroke="rgb(0%,0%,0%)" x1="151.6615" x2="148.9321" y1="35.5822" y2="35.5822" /><line stroke="rgb(0%,0%,0%)" x1="148.9321" x2="148.5345" y1="35.5822" y2="35.6667" /><line stroke="rgb(0%,0%,0%)" x1="148.5345" x2="145.8647" y1="35.6667" y2="36.2342" /><line stroke="rgb(0%,0%,0%)" x1="145.8647" x2="145.4935" y1="36.2342" y2="36.3995" /><line stroke="rgb(0%,0%,0%)" x1="145.4935" x2="143.0" y1="36.3995" y2="37.5096" /><line stroke="rgb(0%,0%,0%)" x1="143.0" x2="142.6712" y1="37.5096" y2="37.7485" /><line stroke="rgb(0%,0%,0%)" x1="142.6712" x2="140.463" y1="37.7485" y2="39.3528" /><line stroke="rgb(0%,0%,0%)" x1="140.463" x2="140.1911" y1="39.3528" y2="39.6549" /><line stroke="rgb(0%,0%,0%)" x1="140.1911" x2="138.3647" y1="39.6549" y2="41.6832" /><line stroke="rgb(0%,0%,0%)" x1="138.3647" x2="138.1615" y1="41.6832" y2="42.0352" /><line stroke="rgb(0%,0%,0%)" x1="138.1615" x2="136.7968" y1="42.0352" y2="44.3989" /><line stroke="rgb(0%,0%,0%)" x1="136.7968" x2="136.6712" y1="44.3989" y2="44.7855" /><line stroke="rgb(0%,0%,0%)" x1="136.6712" x2="135.8278" y1="44.7855" y2="47.3813" /><line stroke="rgb(0%,0%,0%)" x1="35.8278" x2="35.7853" y1="47.3813" y2="47.7855" /><line stroke="rgb(0%,0%,0%)" x1="35.7853" x2="35.5" y1="47.7855" y2="50.5" /><line stroke="rgb(0%,0%,0%)" x1="35.5" x2="35.5425" y1="50.5" y2="50.9042" /><line stroke="rgb(0%,0%,0%)" x1="35.5425" x2="35.8278" y1="50.9042" y2="53.6187" /><line stroke="rgb(0%,0%,0%)" x1="35.8278" x2="35.9534" y1="53.6187" y2="54.0052" /><line stroke="rgb(0%,0%,0%)" x1="35.9534" x2="36.7968" y1="54.0052" y2="56.6011" /><line stroke="rgb(0%,0%,0%)" x1="36.7968" x2="37.0" y1="56.6011" y2="56.953" /><line stroke="rgb(0%,0%,0%)" x1="37.0" x2="38.3647" y1="56.953" y2="59.3168" /><line stroke="rgb(0%,0%,0%)" x1="38.3647" x2="38.6367" y1="59.3168" y2="59.6188" /><line stroke="rgb(0%,0%,0%)" x1="38.6367" x2="40.463" y1="59.6188" y2="61.6472" /><line stroke="rgb(0%,0%,0%)" x1="40.463" x2="40.7918" y1="61.6472" y2="61.8861" /><line stroke="rgb(0%,0%,0%)" x1="40.7918" x2="43.0" y1="61.8861" y2="63.4904" /><line stroke="rgb(0%,0%,0%)" x1="43.0" x2="43.3713" y1="63.4904" y2="63.6557" /><line stroke="rgb(0%,0%,0%)" x1="43.3713" x2="45.8647" y1="63.6557" y2="64.7658" /><line stroke="rgb(0%,0%,0%)" x1="45.8647" x2="46.2623" y1="64.7658" y2="64.8503" /><line stroke="rgb(0%,0%,0%)" x1="46.2623" x2="48.9321" y1="64.8503" y2="65.4178" /><line stroke="rgb(0%,0%,0%)" x1="48.9321" x2="49.3385" y1="65.4178" y2="65.4178" /><line stroke="rgb(0%,0%,0%)" x1="49.3385" x2="52.0679" y1="65.4178" y2="65.4178" /><line stroke="rgb(0%,0%,0%)" x1="52.0679" x2="52.4655" y1="65.4178" y2="65.3333" /><line stroke="rgb(0%,0%,0%)" x1="52.4655" x2="55.1353" y1="65.3333" y2="64.7658" /><line stroke="rgb(0%,0%,0%)" x1="55.1353" x2="55.5065" y1="64.7658" y2="64.6005" /><line stroke="rgb(0%,0%,0%)" x1="55.5065" x2="58.0" y1="64.6005" y2="63.4904" /><line stroke="rgb(0%,0%,0%)" x1="58.0" x2="58.3288" y1="63.4904" y2="63.2515" /><line stroke="rgb(0%,0%,0%)" x1="58.3288" x2="60.537" y1="63.2515" y2="61.6472" /><line stroke="rgb(0%,0%,0%)" x1="60.537" x2="60.8089" y1="61.6472" y2="61.3451" /><line stroke="rgb(0%,0%,0%)" x1="60.8089" x2="62.6352" y1="61.3451" y2="59.3168" /><line stroke="rgb(0%,0%,0%)" x1="62.6352" x2="62.8385" y1="59.3168" y2="58.9648" /><line stroke="rgb(0%,0%,0%)" x1="62.8385" x2="64.2032" y1="58.9648" y2="56.6011" /><line stroke="rgb(0%,0%,0%)" x1="64.2032" x2="64.3288" y1="56.6011" y2="56.2145" /><line stroke="rgb(0%,0%,0%)" x1="64.3288" x2="65.1722" y1="56.2145" y2="53.6187" /><line stroke="rgb(0%,0%,0%)" x1="65.1722" x2="65.2147" y1="53.6187" y2="53.2145" /><line stroke="rgb(0%,0%,0%)" x1="65.2147" x2="65.5" y1="53.2145" y2="50.5" /><line stroke="rgb(0%,0%,0%)" x1="65.5" x2="65.4575" y1="50.5" y2="50.0958" /><line stroke="rgb(0%,0%,0%)" x1="65.4575" x2="65.1722" y1="50.0958" y2="47.3813" /><line stroke="rgb(0%,0%,0%)" x1="65.1722" x2="65.0466" y1="47.3813" y2="46.9948" /><line stroke="rgb(0%,0%,0%)" x1="65.0466" x2="64.2032" y1="46.9948" y2="44.3989" /><line stroke="rgb(0%,0%,0%)" x1="64.2032" x2="64.0" y1="44.3989" y2="44.047" /><line stroke="rgb(0%,0%,0%)" x1="64.0" x2="62.6352" y1="44.047" y2="41.6832" /><line stroke="rgb(0%,0%,0%)" x1="62.6352" x2="62.3633" y1="41.6832" y2="41.3812" /><line stroke="rgb(0%,0%,0%)" x1="62.3633" x2="60.537" y1="41.3812" y2="39.3528" /><line stroke="rgb(0%,0%,0%)" x1="60.537" x2="60.2082" y1="39.3528" y2="39.1139" /><line stroke="rgb(0%,0%,0%)" x1="60.2082" x2="58.0" y1="39.1139" y2="37.5096" /><line stroke="rgb(0%,0%,0%)" x1="58.0" x2="57.6287" y1="37.5096" y2="37.3443" /><line stroke="rgb(0%,0%,0%)" x1="57.6287" x2="55.1353" y1="37.3443" y2="36.2342" /><line stroke="rgb(0%,0%,0%)" x1="55.1353" x2="54.7377" y1="36.2342" y2="36.1497" /><line stroke="rgb(0%,0%,0%)" x1="54.7377" x2="52.0679" y1="36.1497" y2="35.5822" /><line stroke="rgb(0%,0%,0%)" x1="52.0679" x2="51.6615" y1="35.5822" y2="35.5822" /><line stroke="rgb(0%,0%,0%)" x1="51.6615" x2="48.9321" y1="35.5822" y2="35.5822" /><line stroke="rgb(0%,0%,0%)" x1="48.9321" x2="48.5345" y1="35.5822" y2="35.6667" /><line stroke="rgb(0%,0%,0%)" x1="48.5345" x2="45.8647" y1="35.6667" y2="36.2342" /><line stroke="rgb(0%,0%,0%)" x1="45.8647" x2="45.4935" y1="36.2342" y2="36.3995" /><line stroke="rgb(0%,0%,0%)" x1="45.4935" x2="43.0" y1="36.3995" y2="37.5096" /><line stroke="rgb(0%,0%,0%)" x1="43.0" x2="42.6712" y1="37.5096" y2="37.7485" /><line stroke="rgb(0%,0%,0%)" x1="42.6712" x2="40.463" y1="37.7485" y2="39.3528" /><line stroke="rgb(0%,0%,0%)" x1="40.463" x2="40.1911" y1="39.3528" y2="39.6549" /><line stroke="rgb(0%,0%,0%)" x1="40.1911" x2="38.3647" y1="39.6549" y2="41.6832" /><line stroke="rgb(0%,0%,0%)" x1="38.3647" x2="38.1615" y1="41.6832" y2="42.0352" /><line stroke="rgb(0%,0%,0%)" x1="38.1615" x2="36.7968" y1="42.0352" y2="44.3989" /><line stroke="rgb(0%,0%,0%)" x1="36.7968" x2="36.6712" y1="44.3989" y2="44.7855" /><line stroke="rgb(0%,0%,0%)" x1="36.6712" x2="35.8278" y1="44.7855" y2="47.3813" /></svg>