<?xml version="1.0" encoding="utf-8" ?>
<svg baseProfile="tiny" height="100%" version="1.2" width="100%" xmlns="http://www.w3.org/2000/svg" xmlns:ev="http://www.w3.org/2001/xml-events" xmlns:xlink="http://www.w3.org/1999/xlink"><defs /><line stroke="rgb(0%,0%,0%)" x1="351.9" x2="351.9" y1="0.5" y2="50.1824" /><line stroke="rgb(0%,0%,0%)" x1="351.9" x2="351.9" y1="50.1824" y2="100.5" /><line stroke="rgb(0%,0%,0%)" x1="265.6184" x2="333.6363" y1="100.5" y2="100.5" /><line stroke="rgb(0%,0%,0%)" x1="333.6363" x2="336.0085" y1="100.5" y2="100.5" /><line stroke="rgb(0%,0%,0%)" x1="336.0085" x2="338.7185" y1="100.5" y2="100.5" /><line stroke="rgb(0%,0%,0%)" x1="338.7185" x2="341.7262" y1="100.5" y2="100.5" /><line stroke="rgb(0%,0%,0%)" x1="341.7262" x2="344.9749" y1="100.5" y2="100.5" /><line stroke="rgb(0%,0%,0%)" x1="344.9749" x2="348.3935" y1="100.5" y2="100.5" /><line stroke="rgb(0%,0%,0%)" x1="348.3935" x2="351.9" y1="100.5" y2="100.5" /><line stroke="rgb(0%,0%,0%)" x1="265.6184" x2="116.2023" y1="100.5" y2="100.5" /><line stroke="rgb(0%,0%,0%)" x1="116.2023" x2="0.5" y1="100.5" y2="100.5" /><line stroke="rgb(0%,0%,0%)" x1="0.5" x2="116.2023" y1="0.5" y2="0.5" /><line stroke="rgb(0%,0%,0%)" x1="116.2023" x2="265.6184" y1="0.5" y2="0.5" /><line stroke="rgb(0%,0%,0%)" x1="265.6184" x2="333.6363" y1="0.5" y2="0.5" /><line stroke="rgb(0%,0%,0%)" x1="333.6363" x2="336.0085" y1="0.5" y2="0.5" /><line stroke="rgb(0%,0%,0%)" x1="336.0085" x2="338.7185" y1="0.5" y2="0.5" /><line stroke="rgb(0%,0%,0%)" x1="338.7185" x2="341.7262" y1="0.5" y2="0.5" /><line stroke="rgb(0%,0%,0%)" x1="341.7262" x2="344.9749" y1="0.5" y2="0.5" /><line stroke="rgb(0%,0%,0%)" x1="344.9749" x2="348.3935" y1="0.5" y2="0.5" /><line stroke="rgb(0%,0%,0%)" x1="348.3935" x2="351.9" y1="0.5" y2="0.5" /><line stroke="rgb(0%,0%,0%)" x1="0.5" x2="0.5" y1="0.5" y2="43.0202" /><line stroke="rgb(0%,0%,0%)" x1="0.5" x2="0.5" y1="43.0202" y2="100.5" /><line stroke="rgb(0%,0%,0%)" x1="135.8278" x2="135.7788" y1="47.3813" y2="47.8479" /><line stroke="rgb(0%,0%,0%)" x1="135.7788" x2="135.5" y1="47.8479" y2="50.5" /><line stroke="rgb(0%,0%,0%)" x1="135.5" x2="135.549" y1="50.5" y2="50.9665" /><line stroke="rgb(0%,0%,0%)" x1="135.549" x2="135.8278" y1="50.9665" y2="53.6187" /><line stroke="rgb(0%,0%,0%)" x1="135.8278" x2="135.9727" y1="53.6187" y2="54.0648" /><line stroke="rgb(0%,0%,0%)" x1="135.9727" x2="136.7968" y1="54.0648" y2="56.6011" /><line stroke="rgb(0%,0%,0%)" x1="136.7968" x2="137.0314" y1="56.6011" y2="57.0073" /><line stroke="rgb(0%,0%,0%)" x1="137.0314" x2="138.3647" y1="57.0073" y2="59.3168" /><line stroke="rgb(0%,0%,0%)" x1="138.3647" x2="138.6786" y1="59.3168" y2="59.6654" /><line stroke="rgb(0%,0%,0%)" x1="138.6786" x2="140.463" y1="59.6654" y2="61.6472" /><line stroke="rgb(0%,0%,0%)" x1="140.463" x2="140.8426" y1="61.6472" y2="61.9229" /><line stroke="rgb(0%,0%,0%)" x1="140.8426" x2="143.0" y1="61.9229" y2="63.4904" /><line stroke="rgb(0%,0%,0%)" x1="143.0" x2="143.4285" y1="63.4904" y2="63.6812" /><line stroke="rgb(0%,0%,0%)" x1="143.4285" x2="145.8647" y1="63.6812" y2="64.7658" /><line stroke="rgb(0%,0%,0%)" x1="145.8647" x2="146.3236" y1="64.7658" y2="64.8634" /><line stroke="rgb(0%,0%,0%)" x1="146.3236" x2="148.9321" y1="64.8634" y2="65.4178" /><line stroke="rgb(0%,0%,0%)" x1="148.9321" x2="149.4012" y1="65.4178" y2="65.4178" /><line stroke="rgb(0%,0%,0%)" x1="149.4012" x2="152.0679" y1="65.4178" y2="65.4178" /><line stroke="rgb(0%,0%,0%)" x1="152.0679" x2="152.5268" y1="65.4178" y2="65.3203" /><line stroke="rgb(0%,0%,0%)" x1="152.5268" x2="155.1353" y1="65.3203" y2="64.7658" /><line stroke="rgb(0%,0%,0%)" x1="155.1353" x2="155.5638" y1="64.7658" y2="64.575" /><line stroke="rgb(0%,0%,0%)" x1="155.5638" x2="158.0" y1="64.575" y2="63.4904" /><line stroke="rgb(0%,0%,0%)" x1="158.0" x2="158.3795" y1="63.4904" y2="63.2146" /><line stroke="rgb(0%,0%,0%)" x1="158.3795" x2="160.537" y1="63.2146" y2="61.6472" /><line stroke="rgb(0%,0%,0%)" x1="160.537" x2="160.8509" y1="61.6472" y2="61.2986" /><line stroke="rgb(0%,0%,0%)" x1="160.8509" x2="162.6353" y1="61.2986" y2="59.3168" /><line stroke="rgb(0%,0%,0%)" x1="162.6353" x2="162.8698" y1="59.3168" y2="58.9105" /><line stroke="rgb(0%,0%,0%)" x1="162.8698" x2="164.2032" y1="58.9105" y2="56.6011" /><line stroke="rgb(0%,0%,0%)" x1="164.2032" x2="164.3481" y1="56.6011" y2="56.1549" /><line stroke="rgb(0%,0%,0%)" x1="164.3481" x2="165.1722" y1="56.1549" y2="53.6187" /><line stroke="rgb(0%,0%,0%)" x1="165.1722" x2="165.2212" y1="53.6187" y2="53.1521" /><line stroke="rgb(0%,0%,0%)" x1="165.2212" x2="165.5" y1="53.1521" y2="50.5" /><line stroke="rgb(0%,0%,0%)" x1="165.5" x2="165.451" y1="50.5" y2="50.0335" /><line stroke="rgb(0%,0%,0%)" x1="165.451" x2="165.1722" y1="50.0335" y2="47.3813" /><line stroke="rgb(0%,0%,0%)" x1="165.1722" x2="165.0272" y1="47.3813" y2="46.9352" /><line stroke="rgb(0%,0%,0%)" x1="165.0272" x2="164.2032" y1="46.9352" y2="44.3989" /><line stroke="rgb(0%,0%,0%)" x1="164.2032" x2="163.9686" y1="44.3989" y2="43.9927" /><line stroke="rgb(0%,0%,0%)" x1="163.9686" x2="162.6353" y1="43.9927" y2="41.6832" /><line stroke="rgb(0%,0%,0%)" x1="162.6353" x2="162.3214" y1="41.6832" y2="41.3346" /><line stroke="rgb(0%,0%,0%)" x1="162.3214" x2="160.537" y1="41.3346" y2="39.3528" /><line stroke="rgb(0%,0%,0%)" x1="160.537" x2="160.1574" y1="39.3528" y2="39.0771" /><line stroke="rgb(0%,0%,0%)" x1="160.1574" x2="158.0" y1="39.0771" y2="37.5096" /><line stroke="rgb(0%,0%,0%)" x1="158.0" x2="157.5714" y1="37.5096" y2="37.3188" /><line stroke="rgb(0%,0%,0%)" x1="157.5714" x2="155.1353" y1="37.3188" y2="36.2342" /><line stroke="rgb(0%,0%,0%)" x1="155.1353" x2="154.6764" y1="36.2342" y2="36.1366" /><line stroke="rgb(0%,0%,0%)" x1="154.6764" x2="152.0679" y1="36.1366" y2="35.5822" /><line stroke="rgb(0%,0%,0%)" x1="152.0679" x2="151.5988" y1="35.5822" y2="35.5822" /><line stroke="rgb(0%,0%,0%)" x1="151.5988" x2="148.9321" y1="35.5822" y2="35.5822" /><line stroke="rgb(0%,0%,0%)" x1="148.9321" x2="148.4732" y1="35.5822" y2="35.6797" /><line stroke="rgb(0%,0%,0%)" x1="148.4732" x2="145.8647" y1="35.6797" y2="36.2342" /><line stroke="rgb(0%,0%,0%)" x1="145.8647" x2="145.4362" y1="36.2342" y2="36.425" /><line stroke="rgb(0%,0%,0%)" x1="145.4362" x2="143.0" y1="36.425" y2="37.5096" /><line stroke="rgb(0%,0%,0%)" x1="143.0" x2="142.6205" y1="37.5096" y2="37.7854" /><line stroke="rgb(0%,0%,0%)" x1="142.6205" x2="140.463" y1="37.7854" y2="39.3528" /><line stroke="rgb(0%,0%,0%)" x1="140.463" x2="140.1491" y1="39.3528" y2="39.7014" /><line stroke="rgb(0%,0%,0%)" x1="140.1491" x2="138.3647" y1="39.7014" y2="41.6832" /><line stroke="rgb(0%,0%,0%)" x1="138.3647" x2="138.1302" y1="41.6832" y2="42.0895" /><line stroke="rgb(0%,0%,0%)" x1="138.1302" x2="136.7968" y1="42.0895" y2="44.3989" /><line stroke="rgb(0%,0%,0%)" x1="136.7968" x2="136.6519" y1="44.3989" y2="44.8451" /><line stroke="rgb(0%,0%,0%)" x1="136.6519" x2="135.8278" y1="44.8451" y2="47.3813" /><line stroke="rgb(0%,0%,0%)" x1="35.8278" x2="35.7787" y1="47.3813" y2="47.8479" /><line stroke="rgb(0%,0%,0%)" x1="35.7787" x2="35.5" y1="47.8479" y2="50.5" /><line stroke="rgb(0%,0%,0%)" x1="35.5" x2="35.549" y1="50.5" y2="50.9665" /><line stroke="rgb(0%,0%,0%)" x1="35.549" x2="35.8278" y1="50.9665" y2="53.6187" /><line stroke="rgb(0%,0%,0%)" x1="35.8278" x2="35.9727" y1="53.6187" y2="54.0648" /><line stroke="rgb(0%,0%,0%)" x1="35.9727" x2="36.7968" y1="54.0648" y2="56.6011" /><line stroke="rgb(0%,0%,0%)" x1="36.7968" x2="37.0314" y1="56.6011" y2="57.0073" /><line stroke="rgb(0%,0%,0%)" x1="37.0314" x2="38.3647" y1="57.0073" y2="59.3168" /><line stroke="rgb(0%,0%,0%)" x1="38.3647" x2="38.6786" y1="59.3168" y2="59.6654" /><line stroke="rgb(0%,0%,0%)" x1="38.6786" x2="40.463" y1="59.6654" y2="61.6472" /><line stroke="rgb(0%,0%,0%)" x1="40.463" x2="40.8426" y1="61.6472" y2="61.9229" /><line stroke="rgb(0%,0%,0%)" x1="40.8426" x2="43.0" y1="61.9229" y2="63.4904" /><line stroke="rgb(0%,0%,0%)" x1="43.0" x2="43.4286" y1="63.4904" y2="63.6812" /><line stroke="rgb(0%,0%,0%)" x1="43.4286" x2="45.8647" y1="63.6812" y2="64.7658" /><line stroke="rgb(0%,0%,0%)" x1="45.8647" x2="46.3236" y1="64.7658" y2="64.8634" /><line stroke="rgb(0%,0%,0%)" x1="46.3236" x2="48.9321" y1="64.8634" y2="65.4178" /><line stroke="rgb(0%,0%,0%)" x1="48.9321" x2="49.4012" y1="65.4178" y2="65.4178" /><line stroke="rgb(0%,0%,0%)" x1="49.4012" x2="52.0679" y1="65.4178" y2="65.4178" /><line stroke="rgb(0%,0%,0%)" x1="52.0679" x2="52.5268" y1="65.4178" y2="65.3203" /><line stroke="rgb(0%,0%,0%)" x1="52.5268" x2="55.1353" y1="65.3203" y2="64.7658" /><line stroke="rgb(0%,0%,0%)" x1="55.1353" x2="55.5638" y1="64.7658" y2="64.575" /><line stroke="rgb(0%,0%,0%)" x1="55.5638" x2="58.0" y1="64.575" y2="63.4904" /><line stroke="rgb(0%,0%,0%)" x1="58.0" x2="58.3795" y1="63.4904" y2="63.2146" /><line stroke="rgb(0%,0%,0%)" x1="58.3795" x2="60.537" y1="63.2146" y2="61.6472" /><line stroke="rgb(0%,0%,0%)" x1="60.537" x2="60.8509" y1="61.6472" y2="61.2986" /><line stroke="rgb(0%,0%,0%)" x1="60.8509" x2="62.6352" y1="61.2986" y2="59.3168" /><line stroke="rgb(0%,0%,0%)" x1="62.6352" x2="62.8698" y1="59.3168" y2="58.9105" /><line stroke="rgb(0%,0%,0%)" x1="62.8698" x2="64.2032" y1="58.9105" y2="56.6011" /><line stroke="rgb(0%,0%,0%)" x1="64.2032" x2="64.3481" y1="56.6011" y2="56.1549" /><line stroke="rgb(0%,0%,0%)" x1="64.3481" x2="65.1722" y1="56.1549" y2="53.6187" /><line stroke="rgb(0%,0%,0%)" x1="65.1722" x2="65.2212" y1="53.6187" y2="53.1521" /><line stroke="rgb(0%,0%,0%)" x1="65.2212" x2="65.5" y1="53.1521" y2="50.5" /><line stroke="rgb(0%,0%,0%)" x1="65.5" x2="65.451" y1="50.5" y2="50.0335" /><line stroke="rgb(0%,0%,0%)" x1="65.451" x2="65.1722" y1="50.0335" y2="47.3813" /><line stroke="rgb(0%,0%,0%)" x1="65.1722" x2="65.0272" y1="47.3813" y2="46.9352" /><line stroke="rgb(0%,0%,0%)" x1="65.0272" x2="64.2032" y1="46.9352" y2="44.3989" /><line stroke="rgb(0%,0%,0%)" x1="64.2032" x2="63.9686" y1="44.3989" y2="43.9927" /><line stroke="rgb(0%,0%,0%)" x1="63.9686" x2="62.6352" y1="43.9927" y2="41.6832" /><line stroke="rgb(0%,0%,0%)" x1="62.6352" x2="62.3214" y1="41.6832" y2="41.3346" /><line stroke="rgb(0%,0%,0%)" x1="62.3214" x2="60.537" y1="41.3346" y2="39.3528" /><line stroke="rgb(0%,0%,0%)" x1="60.537" x2="60.1574" y1="39.3528" y2="39.0771" /><line stroke="rgb(0%,0%,0%)" x1="60.1574" x2="58.0" y1="39.0771" y2="37.5096" /><line stroke="rgb(0%,0%,0%)" x1="58.0" x2="57.5714" y1="37.5096" y2="37.3188" /><line stroke="rgb(0%,0%,0%)" x1="57.5714" x2="55.1353" y1="37.3188" y2="36.2342" /><line stroke="rgb(0%,0%,0%)" x1="55.1353" x2="54.6764" y1="36.2342" y2="36.1366" /><line stroke="rgb(0%,0%,0%)" x1="54.6764" x2="52.0679" y1="36.1366" y2="35.5822" /><line stroke="rgb(0%,0%,0%)" x1="52.0679" x2="51.5988" y1="35.5822" y2="35.5822" /><line stroke="rgb(0%,0%,0%)" x1="51.5988" x2="48.9321" y1="35.5822" y2="35.5822" /><line stroke="rgb(0%,0%,0%)" x1="48.9321" x2="48.4732" y1="35.5822" y2="35.6797" /><line stroke="rgb(0%,0%,0%)" x1="48.4732" x2="45.8647" y1="35.6797" y2="36.2342" /><line stroke="rgb(0%,0%,0%)" x1="45.8647" x2="45.4362" y1="36.2342" y2="36.425" /><line stroke="rgb(0%,0%,0%)" x1="45.4362" x2="43.0" y1="36.425" y2="37.5096" /><line stroke="rgb(0%,0%,0%)" x1="43.0" x2="42.6205" y1="37.5096" y2="37.7854" /><line stroke="rgb(0%,0%,0%)" x1="42.6205" x2="40.463" y1="37.7854" y2="39.3528" /><line stroke="rgb(0%,0%,0%)" x1="40.463" x2="40.1491" y1="39.3528" y2="39.7014" /><line stroke="rgb(0%,0%,0%)" x1="40.1491" x2="38.3647" y1="39.7014" y2="41.6832" /><line stroke="rgb(0%,0%,0%)" x1="38.3647" x2="38.1302" y1="41.6832" y2="42.0895" /><line stroke="rgb(0%,0%,0%)" x1="38.1302" x2="36.7968" y1="42.0895" y2="44.3989" /><line stroke="rgb(0%,0%,0%)" x1="36.7968" x2="36.6518" y1="44.3989" y2="44.8451" /><line stroke="rgb(0%,0%,0%)" x1="36.6518" x2="35.8278" y1="44.8451" y2="47.3813" /></svg>