<?xml version="1.0" encoding="utf-8" ?>
<svg baseProfile="tiny" height="100%" version="1.2" width="100%" xmlns="http://www.w3.org/2000/svg" xmlns:ev="http://www.w3.org/2001/xml-events" xmlns:xlink="http://www.w3.org/1999/xlink"><defs /><line stroke="rgb(0%,0%,0%)" x1="351.9" x2="351.9" y1="0.5" y2="51.0464" /><line stroke="rgb(0%,0%,0%)" x1="351.9" x2="351.9" y1="51.0464" y2="100.5" /><line stroke="rgb(0%,0%,0%)" x1="264.1178" x2="333.3187" y1="100.5" y2="100.5" /><line stroke="rgb(0%,0%,0%)" x1="333.3187" x2="335.7321" y1="100.5" y2="100.5" /><line stroke="rgb(0%,0%,0%)" x1="335.7321" x2="338.4893" y1="100.5" y2="100.5" /><line stroke="rgb(0%,0%,0%)" x1="338.4893" x2="341.5492" y1="100.5" y2="100.5" /><line stroke="rgb(0%,0%,0%)" x1="341.5492" x2="344.8545" y1="100.5" y2="100.5" /><line stroke="rgb(0%,0%,0%)" x1="344.8545" x2="348.3325" y1="100.5" y2="100.5" /><line stroke="rgb(0%,0%,0%)" x1="348.3325" x2="351.9" y1="100.5" y2="100.5" /><line stroke="rgb(0%,0%,0%)" x1="264.1178" x2="118.2146" y1="100.5" y2="100.5" /><line stroke="rgb(0%,0%,0%)" x1="118.2146" x2="0.5" y1="100.5" y2="100.5" /><line stroke="rgb(0%,0%,0%)" x1="0.5" x2="118.2146" y1="0.5" y2="0.5" /><line stroke="rgb(0%,0%,0%)" x1="118.2146" x2="264.1178" y1="0.5" y2="0.5" /><line stroke="rgb(0%,0%,0%)" x1="264.1178" x2="333.3187" y1="0.5" y2="0.5" /><line stroke="rgb(0%,0%,0%)" x1="333.3187" x2="335.7321" y1="0.5" y2="0.5" /><line stroke="rgb(0%,0%,0%)" x1="335.7321" x2="338.4893" y1="0.5" y2="0.5" /><line stroke="rgb(0%,0%,0%)" x1="338.4893" x2="341.5492" y1="0.5" y2="0.5" /><line stroke="rgb(0%,0%,0%)" x1="341.5492" x2="344.8545" y1="0.5" y2="0.5" /><line stroke="rgb(0%,0%,0%)" x1="344.8545" x2="348.3325" y1="0.5" y2="0.5" /><line stroke="rgb(0%,0%,0%)" x1="348.3325" x2="351.9" y1="0.5" y2="0.5" /><line stroke="rgb(0%,0%,0%)" x1="0.5" x2="0.5" y1="0.5" y2="42.0206" /><line stroke="rgb(0%,0%,0%)" x1="0.5" x2="0.5" y1="42.0206" y2="100.5" /><line stroke="rgb(0%,0%,0%)" x1="135.8278" x2="135.7722" y1="47.3813" y2="47.9102" /><line stroke="rgb(0%,0%,0%)" x1="135.7722" x2="135.5" y1="47.9102" y2="50.5" /><line stroke="rgb(0%,0%,0%)" x1="135.5" x2="135.5556" y1="50.5" y2="51.0289" /><line stroke="rgb(0%,0%,0%)" x1="135.5556" x2="135.8278" y1="51.0289" y2="53.6187" /><line stroke="rgb(0%,0%,0%)" x1="135.8278" x2="135.9921" y1="53.6187" y2="54.1245" /><line stroke="rgb(0%,0%,0%)" x1="135.9921" x2="136.7968" y1="54.1245" y2="56.6011" /><line stroke="rgb(0%,0%,0%)" x1="136.7968" x2="137.0627" y1="56.6011" y2="57.0616" /><line stroke="rgb(0%,0%,0%)" x1="137.0627" x2="138.3647" y1="57.0616" y2="59.3168" /><line stroke="rgb(0%,0%,0%)" x1="138.3647" x2="138.7206" y1="59.3168" y2="59.712" /><line stroke="rgb(0%,0%,0%)" x1="138.7206" x2="140.463" y1="59.712" y2="61.6472" /><line stroke="rgb(0%,0%,0%)" x1="140.463" x2="140.8933" y1="61.6472" y2="61.9598" /><line stroke="rgb(0%,0%,0%)" x1="140.8933" x2="143.0" y1="61.9598" y2="63.4904" /><line stroke="rgb(0%,0%,0%)" x1="143.0" x2="143.4858" y1="63.4904" y2="63.7067" /><line stroke="rgb(0%,0%,0%)" x1="143.4858" x2="145.8647" y1="63.7067" y2="64.7658" /><line stroke="rgb(0%,0%,0%)" x1="145.8647" x2="146.3849" y1="64.7658" y2="64.8764" /><line stroke="rgb(0%,0%,0%)" x1="146.3849" x2="148.9321" y1="64.8764" y2="65.4178" /><line stroke="rgb(0%,0%,0%)" x1="148.9321" x2="149.4639" y1="65.4178" y2="65.4178" /><line stroke="rgb(0%,0%,0%)" x1="149.4639" x2="152.0679" y1="65.4178" y2="65.4178" /><line stroke="rgb(0%,0%,0%)" x1="152.0679" x2="152.5881" y1="65.4178" y2="65.3073" /><line stroke="rgb(0%,0%,0%)" x1="152.5881" x2="155.1353" y1="65.3073" y2="64.7658" /><line stroke="rgb(0%,0%,0%)" x1="155.1353" x2="155.6211" y1="64.7658" y2="64.5495" /><line stroke="rgb(0%,0%,0%)" x1="155.6211" x2="158.0" y1="64.5495" y2="63.4904" /><line stroke="rgb(0%,0%,0%)" x1="158.0" x2="158.4302" y1="63.4904" y2="63.1778" /><line stroke="rgb(0%,0%,0%)" x1="158.4302" x2="160.537" y1="63.1778" y2="61.6472" /><line stroke="rgb(0%,0%,0%)" x1="160.537" x2="160.8928" y1="61.6472" y2="61.252" /><line stroke="rgb(0%,0%,0%)" x1="160.8928" x2="162.6353" y1="61.252" y2="59.3168" /><line stroke="rgb(0%,0%,0%)" x1="162.6353" x2="162.9012" y1="59.3168" y2="58.8562" /><line stroke="rgb(0%,0%,0%)" x1="162.9012" x2="164.2032" y1="58.8562" y2="56.6011" /><line stroke="rgb(0%,0%,0%)" x1="164.2032" x2="164.3675" y1="56.6011" y2="56.0953" /><line stroke="rgb(0%,0%,0%)" x1="164.3675" x2="165.1722" y1="56.0953" y2="53.6187" /><line stroke="rgb(0%,0%,0%)" x1="165.1722" x2="165.2278" y1="53.6187" y2="53.0898" /><line stroke="rgb(0%,0%,0%)" x1="165.2278" x2="165.5" y1="53.0898" y2="50.5" /><line stroke="rgb(0%,0%,0%)" x1="165.5" x2="165.4444" y1="50.5" y2="49.9711" /><line stroke="rgb(0%,0%,0%)" x1="165.4444" x2="165.1722" y1="49.9711" y2="47.3813" /><line stroke="rgb(0%,0%,0%)" x1="165.1722" x2="165.0079" y1="47.3813" y2="46.8755" /><line stroke="rgb(0%,0%,0%)" x1="165.0079" x2="164.2032" y1="46.8755" y2="44.3989" /><line stroke="rgb(0%,0%,0%)" x1="164.2032" x2="163.9373" y1="44.3989" y2="43.9384" /><line stroke="rgb(0%,0%,0%)" x1="163.9373" x2="162.6353" y1="43.9384" y2="41.6832" /><line stroke="rgb(0%,0%,0%)" x1="162.6353" x2="162.2794" y1="41.6832" y2="41.288" /><line stroke="rgb(0%,0%,0%)" x1="162.2794" x2="160.537" y1="41.288" y2="39.3528" /><line stroke="rgb(0%,0%,0%)" x1="160.537" x2="160.1067" y1="39.3528" y2="39.0402" /><line stroke="rgb(0%,0%,0%)" x1="160.1067" x2="158.0" y1="39.0402" y2="37.5096" /><line stroke="rgb(0%,0%,0%)" x1="158.0" x2="157.5142" y1="37.5096" y2="37.2933" /><line stroke="rgb(0%,0%,0%)" x1="157.5142" x2="155.1353" y1="37.2933" y2="36.2342" /><line stroke="rgb(0%,0%,0%)" x1="155.1353" x2="154.6151" y1="36.2342" y2="36.1236" /><line stroke="rgb(0%,0%,0%)" x1="154.6151" x2="152.0679" y1="36.1236" y2="35.5822" /><line stroke="rgb(0%,0%,0%)" x1="152.0679" x2="151.5361" y1="35.5822" y2="35.5822" /><line stroke="rgb(0%,0%,0%)" x1="151.5361" x2="148.9321" y1="35.5822" y2="35.5822" /><line stroke="rgb(0%,0%,0%)" x1="148.9321" x2="148.4119" y1="35.5822" y2="35.6927" /><line stroke="rgb(0%,0%,0%)" x1="148.4119" x2="145.8647" y1="35.6927" y2="36.2342" /><line stroke="rgb(0%,0%,0%)" x1="145.8647" x2="145.3789" y1="36.2342" y2="36.4505" /><line stroke="rgb(0%,0%,0%)" x1="145.3789" x2="143.0" y1="36.4505" y2="37.5096" /><line stroke="rgb(0%,0%,0%)" x1="143.0" x2="142.5698" y1="37.5096" y2="37.8222" /><line stroke="rgb(0%,0%,0%)" x1="142.5698" x2="140.463" y1="37.8222" y2="39.3528" /><line stroke="rgb(0%,0%,0%)" x1="140.463" x2="140.1072" y1="39.3528" y2="39.748" /><line stroke="rgb(0%,0%,0%)" x1="140.1072" x2="138.3647" y1="39.748" y2="41.6832" /><line stroke="rgb(0%,0%,0%)" x1="138.3647" x2="138.0988" y1="41.6832" y2="42.1438" /><line stroke="rgb(0%,0%,0%)" x1="138.0988" x2="136.7968" y1="42.1438" y2="44.3989" /><line stroke="rgb(0%,0%,0%)" x1="136.7968" x2="136.6325" y1="44.3989" y2="44.9047" /><line stroke="rgb(0%,0%,0%)" x1="136.6325" x2="135.8278" y1="44.9047" y2="47.3813" /><line stroke="rgb(0%,0%,0%)" x1="35.8278" x2="35.7722" y1="47.3813" y2="47.9102" /><line stroke="rgb(0%,0%,0%)" x1="35.7722" x2="35.5" y1="47.9102" y2="50.5" /><line stroke="rgb(0%,0%,0%)" x1="35.5" x2="35.5556" y1="50.5" y2="51.0289" /><line stroke="rgb(0%,0%,0%)" x1="35.5556" x2="35.8278" y1="51.0289" y2="53.6187" /><line stroke="rgb(0%,0%,0%)" x1="35.8278" x2="35.9921" y1="53.6187" y2="54.1245" /><line stroke="rgb(0%,0%,0%)" x1="35.9921" x2="36.7968" y1="54.1245" y2="56.6011" /><line stroke="rgb(0%,0%,0%)" x1="36.7968" x2="37.0627" y1="56.6011" y2="57.0616" /><line stroke="rgb(0%,0%,0%)" x1="37.0627" x2="38.3647" y1="57.0616" y2="59.3168" /><line stroke="rgb(0%,0%,0%)" x1="38.3647" x2="38.7206" y1="59.3168" y2="59.712" /><line stroke="rgb(0%,0%,0%)" x1="38.7206" x2="40.463" y1="59.712" y2="61.6472" /><line stroke="rgb(0%,0%,0%)" x1="40.463" x2="40.8933" y1="61.6472" y2="61.9598" /><line stroke="rgb(0%,0%,0%)" x1="40.8933" x2="43.0" y1="61.9598" y2="63.4904" /><line stroke="rgb(0%,0%,0%)" x1="43.0" x2="43.4858" y1="63.4904" y2="63.7067" /><line stroke="rgb(0%,0%,0%)" x1="43.4858" x2="45.8647" y1="63.7067" y2="64.7658" /><line stroke="rgb(0%,0%,0%)" x1="45.8647" x2="46.3849" y1="64.7658" y2="64.8764" /><line stroke="rgb(0%,0%,0%)" x1="46.3849" x2="48.9321" y1="64.8764" y2="65.4178" /><line stroke="rgb(0%,0%,0%)" x1="48.9321" x2="49.4639" y1="65.4178" y2="65.4178" /><line stroke="rgb(0%,0%,0%)" x1="49.4639" x2="52.0679" y1="65.4178" y2="65.4178" /><line stroke="rgb(0%,0%,0%)" x1="52.0679" x2="52.5881" y1="65.4178" y2="65.3073" /><line stroke="rgb(0%,0%,0%)" x1="52.5881" x2="55.1353" y1="65.3073" y2="64.7658" /><line stroke="rgb(0%,0%,0%)" x1="55.1353" x2="55.6211" y1="64.7658" y2="64.5495" /><line stroke="rgb(0%,0%,0%)" x1="55.6211" x2="58.0" y1="64.5495" y2="63.4904" /><line stroke="rgb(0%,0%,0%)" x1="58.0" x2="58.4302" y1="63.4904" y2="63.1778" /><line stroke="rgb(0%,0%,0%)" x1="58.4302" x2="60.537" y1="63.1778" y2="61.6472" /><line stroke="rgb(0%,0%,0%)" x1="60.537" x2="60.8928" y1="61.6472" y2="61.252" /><line stroke="rgb(0%,0%,0%)" x1="60.8928" x2="62.6352" y1="61.252" y2="59.3168" /><line stroke="rgb(0%,0%,0%)" x1="62.6352" x2="62.9012" y1="59.3168" y2="58.8562" /><line stroke="rgb(0%,0%,0%)" x1="62.9012" x2="64.2032" y1="58.8562" y2="56.6011" /><line stroke="rgb(0%,0%,0%)" x1="64.2032" x2="64.3675" y1="56.6011" y2="56.0953" /><line stroke="rgb(0%,0%,0%)" x1="64.3675" x2="65.1722" y1="56.0953" y2="53.6187" /><line stroke="rgb(0%,0%,0%)" x1="65.1722" x2="65.2278" y1="53.6187" y2="53.0898" /><line stroke="rgb(0%,0%,0%)" x1="65.2278" x2="65.5" y1="53.0898" y2="50.5" /><line stroke="rgb(0%,0%,0%)" x1="65.5" x2="65.4444" y1="50.5" y2="49.9711" /><line stroke="rgb(0%,0%,0%)" x1="65.4444" x2="65.1722" y1="49.9711" y2="47.3813" /><line stroke="rgb(0%,0%,0%)" x1="65.1722" x2="65.0079" y1="47.3813" y2="46.8755" /><line stroke="rgb(0%,0%,0%)" x1="65.0079" x2="64.2032" y1="46.8755" y2="44.3989" /><line stroke="rgb(0%,0%,0%)" x1="64.2032" x2="63.9373" y1="44.3989" y2="43.9384" /><line stroke="rgb(0%,0%,0%)" x1="63.9373" x2="62.6352" y1="43.9384" y2="41.6832" /><line stroke="rgb(0%,0%,0%)" x1="62.6352" x2="62.2794" y1="41.6832" y2="41.288" /><line stroke="rgb(0%,0%,0%)" x1="62.2794" x2="60.537" y1="41.288" y2="39.3528" /><line stroke="rgb(0%,0%,0%)" x1="60.537" x2="60.1067" y1="39.3528" y2="39.0402" /><line stroke="rgb(0%,0%,0%)" x1="60.1067" x2="58.0" y1="39.0402" y2="37.5096" /><line stroke="rgb(0%,0%,0%)" x1="58.0" x2="57.5142" y1="37.5096" y2="37.2933" /><line stroke="rgb(0%,0%,0%)" x1="57.5142" x2="55.1353" y1="37.2933" y2="36.2342" /><line stroke="rgb(0%,0%,0%)" x1="55.1353" x2="54.6151" y1="36.2342" y2="36.1236" /><line stroke="rgb(0%,0%,0%)" x1="54.6151" x2="52.0679" y1="36.1236" y2="35.5822" /><line stroke="rgb(0%,0%,0%)" x1="52.0679" x2="51.5361" y1="35.5822" y2="35.5822" /><line stroke="rgb(0%,0%,0%)" x1="51.5361" x2="48.9321" y1="35.5822" y2="35.5822" /><line stroke="rgb(0%,0%,0%)" x1="48.9321" x2="48.4119" y1="35.5822" y2="35.6927" /><line stroke="rgb(0%,0%,0%)" x1="48.4119" x2="45.8647" y1="35.6927" y2="36.2342" /><line stroke="rgb(0%,0%,0%)" x1="45.8647" x2="45.3789" y1="36.2342" y2="36.4505" /><line stroke="rgb(0%,0%,0%)" x1="45.3789" x2="43.0" y1="36.4505" y2="37.5096" /><line stroke="rgb(0%,0%,0%)" x1="43.0" x2="42.5698" y1="37.5096" y2="37.8222" /><line stroke="rgb(0%,0%,0%)" x1="42.5698" x2="40.463" y1="37.8222" y2="39.3528" /><line stroke="rgb(0%,0%,0%)" x1="40.463" x2="40.1072" y1="39.3528" y2="39.748" /><line stroke="rgb(0%,0%,0%)" x1="40.1072" x2="38.3647" y1="39.748" y2="41.6832" /><line stroke="rgb(0%,0%,0%)" x1="38.3647" x2="38.0988" y1="41.6832" y2="42.1438" /><line stroke="rgb(0%,0%,0%)" x1="38.0988" x2="36.7968" y1="42.1438" y2="44.3989" /><line stroke="rgb(0%,0%,0%)" x1="36.7968" x2="36.6325" y1="44.3989" y2="44.9047" /><line stroke="rgb(0%,0%,0%)" x1="36.6325" x2="35.8278" y1="44.9047" y2="47.3813" /></svg>