<?xml version="1.0" encoding="utf-8" ?>
<svg baseProfile="tiny" height="100%" version="1.2" width="100%" xmlns="http://www.w3.org/2000/svg" xmlns:ev="http://www.w3.org/2001/xml-events" xmlns:xlink="http://www.w3.org/1999/xlink"><defs /><line stroke="rgb(0%,0%,0%)" x1="351.9" x2="351.9" y1="0.5" y2="5.2522" /><line stroke="rgb(0%,0%,0%)" x1="351.9" x2="351.9" y1="5.2522" y2="100.5" /><line stroke="rgb(0%,0%,0%)" x1="343.647" x2="350.153" y1="100.5" y2="100.5" /><line stroke="rgb(0%,0%,0%)" x1="350.153" x2="350.3799" y1="100.5" y2="100.5" /><line stroke="rgb(0%,0%,0%)" x1="350.3799" x2="350.6392" y1="100.5" y2="100.5" /><line stroke="rgb(0%,0%,0%)" x1="350.6392" x2="350.9268" y1="100.5" y2="100.5" /><line stroke="rgb(0%,0%,0%)" x1="350.9268" x2="351.2376" y1="100.5" y2="100.5" /><line stroke="rgb(0%,0%,0%)" x1="351.2376" x2="351.5646" y1="100.5" y2="100.5" /><line stroke="rgb(0%,0%,0%)" x1="351.5646" x2="351.9" y1="100.5" y2="100.5" /><line stroke="rgb(0%,0%,0%)" x1="343.647" x2="11.5672" y1="100.5" y2="100.5" /><line stroke="rgb(0%,0%,0%)" x1="11.5672" x2="0.5" y1="100.5" y2="100.5" /><line stroke="rgb(0%,0%,0%)" x1="0.5" x2="11.5672" y1="0.5" y2="0.5" /><line stroke="rgb(0%,0%,0%)" x1="11.5672" x2="343.647" y1="0.5" y2="0.5" /><line stroke="rgb(0%,0%,0%)" x1="343.647" x2="350.153" y1="0.5" y2="0.5" /><line stroke="rgb(0%,0%,0%)" x1="350.153" x2="350.3799" y1="0.5" y2="0.5" /><line stroke="rgb(0%,0%,0%)" x1="350.3799" x2="350.6392" y1="0.5" y2="0.5" /><line stroke="rgb(0%,0%,0%)" x1="350.6392" x2="350.9268" y1="0.5" y2="0.5" /><line stroke="rgb(0%,0%,0%)" x1="350.9268" x2="351.2376" y1="0.5" y2="0.5" /><line stroke="rgb(0%,0%,0%)" x1="351.2376" x2="351.5646" y1="0.5" y2="0.5" /><line stroke="rgb(0%,0%,0%)" x1="351.5646" x2="351.9" y1="0.5" y2="0.5" /><line stroke="rgb(0%,0%,0%)" x1="0.5" x2="0.5" y1="0.5" y2="95.0019" /><line stroke="rgb(0%,0%,0%)" x1="0.5" x2="0.5" y1="95.0019" y2="100.5" /><line stroke="rgb(0%,0%,0%)" x1="165.1722" x2="165.464" y1="47.3813" y2="50.1571" /><line stroke="rgb(0%,0%,0%)" x1="165.464" x2="165.5" y1="50.1571" y2="50.5" /><line stroke="rgb(0%,0%,0%)" x1="165.5" x2="165.2083" y1="50.5" y2="53.2757" /><line stroke="rgb(0%,0%,0%)" x1="165.2083" x2="165.1722" y1="53.2757" y2="53.6187" /><line stroke="rgb(0%,0%,0%)" x1="165.1722" x2="164.3097" y1="53.6187" y2="56.2731" /><line stroke="rgb(0%,0%,0%)" x1="164.3097" x2="164.2032" y1="56.2731" y2="56.6011" /><line stroke="rgb(0%,0%,0%)" x1="164.2032" x2="162.8077" y1="56.6011" y2="59.0182" /><line stroke="rgb(0%,0%,0%)" x1="162.8077" x2="162.6353" y1="59.0182" y2="59.3168" /><line stroke="rgb(0%,0%,0%)" x1="162.6353" x2="160.7677" y1="59.3168" y2="61.3909" /><line stroke="rgb(0%,0%,0%)" x1="160.7677" x2="160.537" y1="61.3909" y2="61.6472" /><line stroke="rgb(0%,0%,0%)" x1="160.537" x2="158.279" y1="61.6472" y2="63.2877" /><line stroke="rgb(0%,0%,0%)" x1="158.279" x2="158.0" y1="63.2877" y2="63.4904" /><line stroke="rgb(0%,0%,0%)" x1="158.0" x2="155.4503" y1="63.4904" y2="64.6256" /><line stroke="rgb(0%,0%,0%)" x1="155.4503" x2="155.1353" y1="64.6256" y2="64.7658" /><line stroke="rgb(0%,0%,0%)" x1="155.1353" x2="152.4052" y1="64.7658" y2="65.3461" /><line stroke="rgb(0%,0%,0%)" x1="152.4052" x2="152.0679" y1="65.3461" y2="65.4178" /><line stroke="rgb(0%,0%,0%)" x1="152.0679" x2="149.2769" y1="65.4178" y2="65.4178" /><line stroke="rgb(0%,0%,0%)" x1="149.2769" x2="148.9321" y1="65.4178" y2="65.4178" /><line stroke="rgb(0%,0%,0%)" x1="148.9321" x2="146.202" y1="65.4178" y2="64.8375" /><line stroke="rgb(0%,0%,0%)" x1="146.202" x2="145.8647" y1="64.8375" y2="64.7658" /><line stroke="rgb(0%,0%,0%)" x1="145.8647" x2="143.315" y1="64.7658" y2="63.6306" /><line stroke="rgb(0%,0%,0%)" x1="143.315" x2="143.0" y1="63.6306" y2="63.4904" /><line stroke="rgb(0%,0%,0%)" x1="143.0" x2="140.742" y1="63.4904" y2="61.8499" /><line stroke="rgb(0%,0%,0%)" x1="140.742" x2="140.463" y1="61.8499" y2="61.6472" /><line stroke="rgb(0%,0%,0%)" x1="140.463" x2="138.5955" y1="61.6472" y2="59.573" /><line stroke="rgb(0%,0%,0%)" x1="138.5955" x2="138.3647" y1="59.573" y2="59.3168" /><line stroke="rgb(0%,0%,0%)" x1="138.3647" x2="136.9692" y1="59.3168" y2="56.8997" /><line stroke="rgb(0%,0%,0%)" x1="136.9692" x2="136.7968" y1="56.8997" y2="56.6011" /><line stroke="rgb(0%,0%,0%)" x1="136.7968" x2="135.9343" y1="56.6011" y2="53.9466" /><line stroke="rgb(0%,0%,0%)" x1="135.9343" x2="135.8278" y1="53.9466" y2="53.6187" /><line stroke="rgb(0%,0%,0%)" x1="135.8278" x2="135.536" y1="53.6187" y2="50.8429" /><line stroke="rgb(0%,0%,0%)" x1="135.536" x2="135.5" y1="50.8429" y2="50.5" /><line stroke="rgb(0%,0%,0%)" x1="135.5" x2="135.7917" y1="50.5" y2="47.7243" /><line stroke="rgb(0%,0%,0%)" x1="135.7917" x2="135.8278" y1="47.7243" y2="47.3813" /><line stroke="rgb(0%,0%,0%)" x1="135.8278" x2="136.6903" y1="47.3813" y2="44.7269" /><line stroke="rgb(0%,0%,0%)" x1="136.6903" x2="136.7968" y1="44.7269" y2="44.3989" /><line stroke="rgb(0%,0%,0%)" x1="136.7968" x2="138.1923" y1="44.3989" y2="41.9818" /><line stroke="rgb(0%,0%,0%)" x1="138.1923" x2="138.3647" y1="41.9818" y2="41.6832" /><line stroke="rgb(0%,0%,0%)" x1="138.3647" x2="140.2323" y1="41.6832" y2="39.6091" /><line stroke="rgb(0%,0%,0%)" x1="140.2323" x2="140.463" y1="39.6091" y2="39.3528" /><line stroke="rgb(0%,0%,0%)" x1="140.463" x2="142.721" y1="39.3528" y2="37.7123" /><line stroke="rgb(0%,0%,0%)" x1="142.721" x2="143.0" y1="37.7123" y2="37.5096" /><line stroke="rgb(0%,0%,0%)" x1="143.0" x2="145.5497" y1="37.5096" y2="36.3744" /><line stroke="rgb(0%,0%,0%)" x1="145.5497" x2="145.8647" y1="36.3744" y2="36.2342" /><line stroke="rgb(0%,0%,0%)" x1="145.8647" x2="148.5948" y1="36.2342" y2="35.6539" /><line stroke="rgb(0%,0%,0%)" x1="148.5948" x2="148.9321" y1="35.6539" y2="35.5822" /><line stroke="rgb(0%,0%,0%)" x1="148.9321" x2="151.7231" y1="35.5822" y2="35.5822" /><line stroke="rgb(0%,0%,0%)" x1="151.7231" x2="152.0679" y1="35.5822" y2="35.5822" /><line stroke="rgb(0%,0%,0%)" x1="152.0679" x2="154.798" y1="35.5822" y2="36.1625" /><line stroke="rgb(0%,0%,0%)" x1="154.798" x2="155.1353" y1="36.1625" y2="36.2342" /><line stroke="rgb(0%,0%,0%)" x1="155.1353" x2="157.685" y1="36.2342" y2="37.3694" /><line stroke="rgb(0%,0%,0%)" x1="157.685" x2="158.0" y1="37.3694" y2="37.5096" /><line stroke="rgb(0%,0%,0%)" x1="158.0" x2="160.258" y1="37.5096" y2="39.1501" /><line stroke="rgb(0%,0%,0%)" x1="160.258" x2="160.537" y1="39.1501" y2="39.3528" /><line stroke="rgb(0%,0%,0%)" x1="160.537" x2="162.4045" y1="39.3528" y2="41.427" /><line stroke="rgb(0%,0%,0%)" x1="162.4045" x2="162.6353" y1="41.427" y2="41.6832" /><line stroke="rgb(0%,0%,0%)" x1="162.6353" x2="164.0308" y1="41.6832" y2="44.1003" /><line stroke="rgb(0%,0%,0%)" x1="164.0308" x2="164.2032" y1="44.1003" y2="44.3989" /><line stroke="rgb(0%,0%,0%)" x1="164.2032" x2="165.0657" y1="44.3989" y2="47.0534" /><line stroke="rgb(0%,0%,0%)" x1="165.0657" x2="165.1722" y1="47.0534" y2="47.3813" /><line stroke="rgb(0%,0%,0%)" x1="65.1722" x2="65.464" y1="47.3813" y2="50.1571" /><line stroke="rgb(0%,0%,0%)" x1="65.464" x2="65.5" y1="50.1571" y2="50.5" /><line stroke="rgb(0%,0%,0%)" x1="65.5" x2="65.2083" y1="50.5" y2="53.2757" /><line stroke="rgb(0%,0%,0%)" x1="65.2083" x2="65.1722" y1="53.2757" y2="53.6187" /><line stroke="rgb(0%,0%,0%)" x1="65.1722" x2="64.3097" y1="53.6187" y2="56.2731" /><line stroke="rgb(0%,0%,0%)" x1="64.3097" x2="64.2032" y1="56.2731" y2="56.6011" /><line stroke="rgb(0%,0%,0%)" x1="64.2032" x2="62.8077" y1="56.6011" y2="59.0182" /><line stroke="rgb(0%,0%,0%)" x1="62.8077" x2="62.6352" y1="59.0182" y2="59.3168" /><line stroke="rgb(0%,0%,0%)" x1="62.6352" x2="60.7677" y1="59.3168" y2="61.3909" /><line stroke="rgb(0%,0%,0%)" x1="60.7677" x2="60.537" y1="61.3909" y2="61.6472" /><line stroke="rgb(0%,0%,0%)" x1="60.537" x2="58.279" y1="61.6472" y2="63.2877" /><line stroke="rgb(0%,0%,0%)" x1="58.279" x2="58.0" y1="63.2877" y2="63.4904" /><line stroke="rgb(0%,0%,0%)" x1="58.0" x2="55.4503" y1="63.4904" y2="64.6256" /><line stroke="rgb(0%,0%,0%)" x1="55.4503" x2="55.1353" y1="64.6256" y2="64.7658" /><line stroke="rgb(0%,0%,0%)" x1="55.1353" x2="52.4052" y1="64.7658" y2="65.3461" /><line stroke="rgb(0%,0%,0%)" x1="52.4052" x2="52.0679" y1="65.3461" y2="65.4178" /><line stroke="rgb(0%,0%,0%)" x1="52.0679" x2="49.2769" y1="65.4178" y2="65.4178" /><line stroke="rgb(0%,0%,0%)" x1="49.2769" x2="48.9321" y1="65.4178" y2="65.4178" /><line stroke="rgb(0%,0%,0%)" x1="48.9321" x2="46.202" y1="65.4178" y2="64.8375" /><line stroke="rgb(0%,0%,0%)" x1="46.202" x2="45.8647" y1="64.8375" y2="64.7658" /><line stroke="rgb(0%,0%,0%)" x1="45.8647" x2="43.315" y1="64.7658" y2="63.6306" /><line stroke="rgb(0%,0%,0%)" x1="43.315" x2="43.0" y1="63.6306" y2="63.4904" /><line stroke="rgb(0%,0%,0%)" x1="43.0" x2="40.742" y1="63.4904" y2="61.8499" /><line stroke="rgb(0%,0%,0%)" x1="40.742" x2="40.463" y1="61.8499" y2="61.6472" /><line stroke="rgb(0%,0%,0%)" x1="40.463" x2="38.5955" y1="61.6472" y2="59.573" /><line stroke="rgb(0%,0%,0%)" x1="38.5955" x2="38.3647" y1="59.573" y2="59.3168" /><line stroke="rgb(0%,0%,0%)" x1="38.3647" x2="36.9692" y1="59.3168" y2="56.8997" /><line stroke="rgb(0%,0%,0%)" x1="36.9692" x2="36.7968" y1="56.8997" y2="56.6011" /><line stroke="rgb(0%,0%,0%)" x1="36.7968" x2="35.9343" y1="56.6011" y2="53.9466" /><line stroke="rgb(0%,0%,0%)" x1="35.9343" x2="35.8278" y1="53.9466" y2="53.6187" /><line stroke="rgb(0%,0%,0%)" x1="35.8278" x2="35.536" y1="53.6187" y2="50.8429" /><line stroke="rgb(0%,0%,0%)" x1="35.536" x2="35.5" y1="50.8429" y2="50.5" /><line stroke="rgb(0%,0%,0%)" x1="35.5" x2="35.7917" y1="50.5" y2="47.7243" /><line stroke="rgb(0%,0%,0%)" x1="35.7917" x2="35.8278" y1="47.7243" y2="47.3813" /><line stroke="rgb(0%,0%,0%)" x1="35.8278" x2="36.6903" y1="47.3813" y2="44.7269" /><line stroke="rgb(0%,0%,0%)" x1="36.6903" x2="36.7968" y1="44.7269" y2="44.3989" /><line stroke="rgb(0%,0%,0%)" x1="36.7968" x2="38.1923" y1="44.3989" y2="41.9818" /><line stroke="rgb(0%,0%,0%)" x1="38.1923" x2="38.3647" y1="41.9818" y2="41.6832" /><line stroke="rgb(0%,0%,0%)" x1="38.3647" x2="40.2323" y1="41.6832" y2="39.6091" /><line stroke="rgb(0%,0%,0%)" x1="40.2323" x2="40.463" y1="39.6091" y2="39.3528" /><line stroke="rgb(0%,0%,0%)" x1="40.463" x2="42.721" y1="39.3528" y2="37.7123" /><line stroke="rgb(0%,0%,0%)" x1="42.721" x2="43.0" y1="37.7123" y2="37.5096" /><line stroke="rgb(0%,0%,0%)" x1="43.0" x2="45.5497" y1="37.5096" y2="36.3744" /><line stroke="rgb(0%,0%,0%)" x1="45.5497" x2="45.8647" y1="36.3744" y2="36.2342" /><line stroke="rgb(0%,0%,0%)" x1="45.8647" x2="48.5948" y1="36.2342" y2="35.6539" /><line stroke="rgb(0%,0%,0%)" x1="48.5948" x2="48.9321" y1="35.6539" y2="35.5822" /><line stroke="rgb(0%,0%,0%)" x1="48.9321" x2="51.7231" y1="35.5822" y2="35.5822" /><line stroke="rgb(0%,0%,0%)" x1="51.7231" x2="52.0679" y1="35.5822" y2="35.5822" /><line stroke="rgb(0%,0%,0%)" x1="52.0679" x2="54.798" y1="35.5822" y2="36.1625" /><line stroke="rgb(0%,0%,0%)" x1="54.798" x2="55.1353" y1="36.1625" y2="36.2342" /><line stroke="rgb(0%,0%,0%)" x1="55.1353" x2="57.685" y1="36.2342" y2="37.3694" /><line stroke="rgb(0%,0%,0%)" x1="57.685" x2="58.0" y1="37.3694" y2="37.5096" /><line stroke="rgb(0%,0%,0%)" x1="58.0" x2="60.258" y1="37.5096" y2="39.1501" /><line stroke="rgb(0%,0%,0%)" x1="60.258" x2="60.537" y1="39.1501" y2="39.3528" /><line stroke="rgb(0%,0%,0%)" x1="60.537" x2="62.4045" y1="39.3528" y2="41.427" /><line stroke="rgb(0%,0%,0%)" x1="62.4045" x2="62.6352" y1="41.427" y2="41.6832" /><line stroke="rgb(0%,0%,0%)" x1="62.6352" x2="64.0308" y1="41.6832" y2="44.1003" /><line stroke="rgb(0%,0%,0%)" x1="64.0308" x2="64.2032" y1="44.1003" y2="44.3989" /><line stroke="rgb(0%,0%,0%)" x1="64.2032" x2="65.0657" y1="44.3989" y2="47.0534" /><line stroke="rgb(0%,0%,0%)" x1="65.0657" x2="65.1722" y1="47.0534" y2="47.3813" /></svg>