<?xml version="1.0" encoding="utf-8" ?>
<svg baseProfile="tiny" height="100%" version="1.2" width="100%" xmlns="http://www.w3.org/2000/svg" xmlns:ev="http://www.w3.org/2001/xml-events" xmlns:xlink="http://www.w3.org/1999/xlink"><defs /><line stroke="rgb(0%,0%,0%)" x1="351.9" x2="351.9" y1="0.5" y2="51.9105" /><line stroke="rgb(0%,0%,0%)" x1="351.9" x2="351.9" y1="51.9105" y2="100.5" /><line stroke="rgb(0%,0%,0%)" x1="262.6173" x2="333.0011" y1="100.5" y2="100.5" /><line stroke="rgb(0%,0%,0%)" x1="333.0011" x2="335.4557" y1="100.5" y2="100.5" /><line stroke="rgb(0%,0%,0%)" x1="335.4557" x2="338.26" y1="100.5" y2="100.5" /><line stroke="rgb(0%,0%,0%)" x1="338.26" x2="341.3723" y1="100.5" y2="100.5" /><line stroke="rgb(0%,0%,0%)" x1="341.3723" x2="344.734" y1="100.5" y2="100.5" /><line stroke="rgb(0%,0%,0%)" x1="344.734" x2="348.2715" y1="100.5" y2="100.5" /><line stroke="rgb(0%,0%,0%)" x1="348.2715" x2="351.9" y1="100.5" y2="100.5" /><line stroke="rgb(0%,0%,0%)" x1="262.6173" x2="120.2268" y1="100.5" y2="100.5" /><line stroke="rgb(0%,0%,0%)" x1="120.2268" x2="0.5" y1="100.5" y2="100.5" /><line stroke="rgb(0%,0%,0%)" x1="0.5" x2="120.2268" y1="0.5" y2="0.5" /><line stroke="rgb(0%,0%,0%)" x1="120.2268" x2="262.6173" y1="0.5" y2="0.5" /><line stroke="rgb(0%,0%,0%)" x1="262.6173" x2="333.0011" y1="0.5" y2="0.5" /><line stroke="rgb(0%,0%,0%)" x1="333.0011" x2="335.4557" y1="0.5" y2="0.5" /><line stroke="rgb(0%,0%,0%)" x1="335.4557" x2="338.26" y1="0.5" y2="0.5" /><line stroke="rgb(0%,0%,0%)" x1="338.26" x2="341.3723" y1="0.5" y2="0.5" /><line stroke="rgb(0%,0%,0%)" x1="341.3723" x2="344.734" y1="0.5" y2="0.5" /><line stroke="rgb(0%,0%,0%)" x1="344.734" x2="348.2715" y1="0.5" y2="0.5" /><line stroke="rgb(0%,0%,0%)" x1="348.2715" x2="351.9" y1="0.5" y2="0.5" /><line stroke="rgb(0%,0%,0%)" x1="0.5" x2="0.5" y1="0.5" y2="41.0209" /><line stroke="rgb(0%,0%,0%)" x1="0.5" x2="0.5" y1="41.0209" y2="100.5" /><line stroke="rgb(0%,0%,0%)" x1="135.8278" x2="135.7656" y1="47.3813" y2="47.9726" /><line stroke="rgb(0%,0%,0%)" x1="135.7656" x2="135.5" y1="47.9726" y2="50.5" /><line stroke="rgb(0%,0%,0%)" x1="135.5" x2="135.5621" y1="50.5" y2="51.0912" /><line stroke="rgb(0%,0%,0%)" x1="135.5621" x2="135.8278" y1="51.0912" y2="53.6187" /><line stroke="rgb(0%,0%,0%)" x1="135.8278" x2="136.0115" y1="53.6187" y2="54.1841" /><line stroke="rgb(0%,0%,0%)" x1="136.0115" x2="136.7968" y1="54.1841" y2="56.6011" /><line stroke="rgb(0%,0%,0%)" x1="136.7968" x2="137.0941" y1="56.6011" y2="57.1159" /><line stroke="rgb(0%,0%,0%)" x1="137.0941" x2="138.3647" y1="57.1159" y2="59.3168" /><line stroke="rgb(0%,0%,0%)" x1="138.3647" x2="138.7625" y1="59.3168" y2="59.7586" /><line stroke="rgb(0%,0%,0%)" x1="138.7625" x2="140.463" y1="59.7586" y2="61.6472" /><line stroke="rgb(0%,0%,0%)" x1="140.463" x2="140.944" y1="61.6472" y2="61.9966" /><line stroke="rgb(0%,0%,0%)" x1="140.944" x2="143.0" y1="61.9966" y2="63.4904" /><line stroke="rgb(0%,0%,0%)" x1="143.0" x2="143.5431" y1="63.4904" y2="63.7322" /><line stroke="rgb(0%,0%,0%)" x1="143.5431" x2="145.8647" y1="63.7322" y2="64.7658" /><line stroke="rgb(0%,0%,0%)" x1="145.8647" x2="146.4463" y1="64.7658" y2="64.8895" /><line stroke="rgb(0%,0%,0%)" x1="146.4463" x2="148.9321" y1="64.8895" y2="65.4178" /><line stroke="rgb(0%,0%,0%)" x1="148.9321" x2="149.5266" y1="65.4178" y2="65.4178" /><line stroke="rgb(0%,0%,0%)" x1="149.5266" x2="152.0679" y1="65.4178" y2="65.4178" /><line stroke="rgb(0%,0%,0%)" x1="152.0679" x2="152.6494" y1="65.4178" y2="65.2942" /><line stroke="rgb(0%,0%,0%)" x1="152.6494" x2="155.1353" y1="65.2942" y2="64.7658" /><line stroke="rgb(0%,0%,0%)" x1="155.1353" x2="155.6784" y1="64.7658" y2="64.524" /><line stroke="rgb(0%,0%,0%)" x1="155.6784" x2="158.0" y1="64.524" y2="63.4904" /><line stroke="rgb(0%,0%,0%)" x1="158.0" x2="158.481" y1="63.4904" y2="63.1409" /><line stroke="rgb(0%,0%,0%)" x1="158.481" x2="160.537" y1="63.1409" y2="61.6472" /><line stroke="rgb(0%,0%,0%)" x1="160.537" x2="160.9348" y1="61.6472" y2="61.2054" /><line stroke="rgb(0%,0%,0%)" x1="160.9348" x2="162.6353" y1="61.2054" y2="59.3168" /><line stroke="rgb(0%,0%,0%)" x1="162.6353" x2="162.9325" y1="59.3168" y2="58.8019" /><line stroke="rgb(0%,0%,0%)" x1="162.9325" x2="164.2032" y1="58.8019" y2="56.6011" /><line stroke="rgb(0%,0%,0%)" x1="164.2032" x2="164.3869" y1="56.6011" y2="56.0356" /><line stroke="rgb(0%,0%,0%)" x1="164.3869" x2="165.1722" y1="56.0356" y2="53.6187" /><line stroke="rgb(0%,0%,0%)" x1="165.1722" x2="165.2344" y1="53.6187" y2="53.0274" /><line stroke="rgb(0%,0%,0%)" x1="165.2344" x2="165.5" y1="53.0274" y2="50.5" /><line stroke="rgb(0%,0%,0%)" x1="165.5" x2="165.4379" y1="50.5" y2="49.9088" /><line stroke="rgb(0%,0%,0%)" x1="165.4379" x2="165.1722" y1="49.9088" y2="47.3813" /><line stroke="rgb(0%,0%,0%)" x1="165.1722" x2="164.9885" y1="47.3813" y2="46.8159" /><line stroke="rgb(0%,0%,0%)" x1="164.9885" x2="164.2032" y1="46.8159" y2="44.3989" /><line stroke="rgb(0%,0%,0%)" x1="164.2032" x2="163.9059" y1="44.3989" y2="43.8841" /><line stroke="rgb(0%,0%,0%)" x1="163.9059" x2="162.6353" y1="43.8841" y2="41.6832" /><line stroke="rgb(0%,0%,0%)" x1="162.6353" x2="162.2375" y1="41.6832" y2="41.2414" /><line stroke="rgb(0%,0%,0%)" x1="162.2375" x2="160.537" y1="41.2414" y2="39.3528" /><line stroke="rgb(0%,0%,0%)" x1="160.537" x2="160.056" y1="39.3528" y2="39.0034" /><line stroke="rgb(0%,0%,0%)" x1="160.056" x2="158.0" y1="39.0034" y2="37.5096" /><line stroke="rgb(0%,0%,0%)" x1="158.0" x2="157.4569" y1="37.5096" y2="37.2678" /><line stroke="rgb(0%,0%,0%)" x1="157.4569" x2="155.1353" y1="37.2678" y2="36.2342" /><line stroke="rgb(0%,0%,0%)" x1="155.1353" x2="154.5537" y1="36.2342" y2="36.1105" /><line stroke="rgb(0%,0%,0%)" x1="154.5537" x2="152.0679" y1="36.1105" y2="35.5822" /><line stroke="rgb(0%,0%,0%)" x1="152.0679" x2="151.4734" y1="35.5822" y2="35.5822" /><line stroke="rgb(0%,0%,0%)" x1="151.4734" x2="148.9321" y1="35.5822" y2="35.5822" /><line stroke="rgb(0%,0%,0%)" x1="148.9321" x2="148.3506" y1="35.5822" y2="35.7058" /><line stroke="rgb(0%,0%,0%)" x1="148.3506" x2="145.8647" y1="35.7058" y2="36.2342" /><line stroke="rgb(0%,0%,0%)" x1="145.8647" x2="145.3216" y1="36.2342" y2="36.476" /><line stroke="rgb(0%,0%,0%)" x1="145.3216" x2="143.0" y1="36.476" y2="37.5096" /><line stroke="rgb(0%,0%,0%)" x1="143.0" x2="142.519" y1="37.5096" y2="37.8591" /><line stroke="rgb(0%,0%,0%)" x1="142.519" x2="140.463" y1="37.8591" y2="39.3528" /><line stroke="rgb(0%,0%,0%)" x1="140.463" x2="140.0652" y1="39.3528" y2="39.7946" /><line stroke="rgb(0%,0%,0%)" x1="140.0652" x2="138.3647" y1="39.7946" y2="41.6832" /><line stroke="rgb(0%,0%,0%)" x1="138.3647" x2="138.0675" y1="41.6832" y2="42.1981" /><line stroke="rgb(0%,0%,0%)" x1="138.0675" x2="136.7968" y1="42.1981" y2="44.3989" /><line stroke="rgb(0%,0%,0%)" x1="136.7968" x2="136.6131" y1="44.3989" y2="44.9644" /><line stroke="rgb(0%,0%,0%)" x1="136.6131" x2="135.8278" y1="44.9644" y2="47.3813" /><line stroke="rgb(0%,0%,0%)" x1="35.8278" x2="35.7656" y1="47.3813" y2="47.9726" /><line stroke="rgb(0%,0%,0%)" x1="35.7656" x2="35.5" y1="47.9726" y2="50.5" /><line stroke="rgb(0%,0%,0%)" x1="35.5" x2="35.5621" y1="50.5" y2="51.0912" /><line stroke="rgb(0%,0%,0%)" x1="35.5621" x2="35.8278" y1="51.0912" y2="53.6187" /><line stroke="rgb(0%,0%,0%)" x1="35.8278" x2="36.0115" y1="53.6187" y2="54.1841" /><line stroke="rgb(0%,0%,0%)" x1="36.0115" x2="36.7968" y1="54.1841" y2="56.6011" /><line stroke="rgb(0%,0%,0%)" x1="36.7968" x2="37.0941" y1="56.6011" y2="57.1159" /><line stroke="rgb(0%,0%,0%)" x1="37.0941" x2="38.3647" y1="57.1159" y2="59.3168" /><line stroke="rgb(0%,0%,0%)" x1="38.3647" x2="38.7625" y1="59.3168" y2="59.7586" /><line stroke="rgb(0%,0%,0%)" x1="38.7625" x2="40.463" y1="59.7586" y2="61.6472" /><line stroke="rgb(0%,0%,0%)" x1="40.463" x2="40.944" y1="61.6472" y2="61.9966" /><line stroke="rgb(0%,0%,0%)" x1="40.944" x2="43.0" y1="61.9966" y2="63.4904" /><line stroke="rgb(0%,0%,0%)" x1="43.0" x2="43.5431" y1="63.4904" y2="63.7322" /><line stroke="rgb(0%,0%,0%)" x1="43.5431" x2="45.8647" y1="63.7322" y2="64.7658" /><line stroke="rgb(0%,0%,0%)" x1="45.8647" x2="46.4462" y1="64.7658" y2="64.8895" /><line stroke="rgb(0%,0%,0%)" x1="46.4462" x2="48.9321" y1="64.8895" y2="65.4178" /><line stroke="rgb(0%,0%,0%)" x1="48.9321" x2="49.5266" y1="65.4178" y2="65.4178" /><line stroke="rgb(0%,0%,0%)" x1="49.5266" x2="52.0679" y1="65.4178" y2="65.4178" /><line stroke="rgb(0%,0%,0%)" x1="52.0679" x2="52.6494" y1="65.4178" y2="65.2942" /><line stroke="rgb(0%,0%,0%)" x1="52.6494" x2="55.1353" y1="65.2942" y2="64.7658" /><line stroke="rgb(0%,0%,0%)" x1="55.1353" x2="55.6784" y1="64.7658" y2="64.524" /><line stroke="rgb(0%,0%,0%)" x1="55.6784" x2="58.0" y1="64.524" y2="63.4904" /><line stroke="rgb(0%,0%,0%)" x1="58.0" x2="58.481" y1="63.4904" y2="63.1409" /><line stroke="rgb(0%,0%,0%)" x1="58.481" x2="60.537" y1="63.1409" y2="61.6472" /><line stroke="rgb(0%,0%,0%)" x1="60.537" x2="60.9348" y1="61.6472" y2="61.2054" /><line stroke="rgb(0%,0%,0%)" x1="60.9348" x2="62.6352" y1="61.2054" y2="59.3168" /><line stroke="rgb(0%,0%,0%)" x1="62.6352" x2="62.9325" y1="59.3168" y2="58.8019" /><line stroke="rgb(0%,0%,0%)" x1="62.9325" x2="64.2032" y1="58.8019" y2="56.6011" /><line stroke="rgb(0%,0%,0%)" x1="64.2032" x2="64.3869" y1="56.6011" y2="56.0356" /><line stroke="rgb(0%,0%,0%)" x1="64.3869" x2="65.1722" y1="56.0356" y2="53.6187" /><line stroke="rgb(0%,0%,0%)" x1="65.1722" x2="65.2344" y1="53.6187" y2="53.0274" /><line stroke="rgb(0%,0%,0%)" x1="65.2344" x2="65.5" y1="53.0274" y2="50.5" /><line stroke="rgb(0%,0%,0%)" x1="65.5" x2="65.4379" y1="50.5" y2="49.9088" /><line stroke="rgb(0%,0%,0%)" x1="65.4379" x2="65.1722" y1="49.9088" y2="47.3813" /><line stroke="rgb(0%,0%,0%)" x1="65.1722" x2="64.9885" y1="47.3813" y2="46.8159" /><line stroke="rgb(0%,0%,0%)" x1="64.9885" x2="64.2032" y1="46.8159" y2="44.3989" /><line stroke="rgb(0%,0%,0%)" x1="64.2032" x2="63.9059" y1="44.3989" y2="43.8841" /><line stroke="rgb(0%,0%,0%)" x1="63.9059" x2="62.6352" y1="43.8841" y2="41.6832" /><line stroke="rgb(0%,0%,0%)" x1="62.6352" x2="62.2375" y1="41.6832" y2="41.2414" /><line stroke="rgb(0%,0%,0%)" x1="62.2375" x2="60.537" y1="41.2414" y2="39.3528" /><line stroke="rgb(0%,0%,0%)" x1="60.537" x2="60.056" y1="39.3528" y2="39.0034" /><line stroke="rgb(0%,0%,0%)" x1="60.056" x2="58.0" y1="39.0034" y2="37.5096" /><line stroke="rgb(0%,0%,0%)" x1="58.0" x2="57.4569" y1="37.5096" y2="37.2678" /><line stroke="rgb(0%,0%,0%)" x1="57.4569" x2="55.1353" y1="37.2678" y2="36.2342" /><line stroke="rgb(0%,0%,0%)" x1="55.1353" x2="54.5537" y1="36.2342" y2="36.1105" /><line stroke="rgb(0%,0%,0%)" x1="54.5537" x2="52.0679" y1="36.1105" y2="35.5822" /><line stroke="rgb(0%,0%,0%)" x1="52.0679" x2="51.4734" y1="35.5822" y2="35.5822" /><line stroke="rgb(0%,0%,0%)" x1="51.4734" x2="48.9321" y1="35.5822" y2="35.5822" /><line stroke="rgb(0%,0%,0%)" x1="48.9321" x2="48.3506" y1="35.5822" y2="35.7058" /><line stroke="rgb(0%,0%,0%)" x1="48.3506" x2="45.8647" y1="35.7058" y2="36.2342" /><line stroke="rgb(0%,0%,0%)" x1="45.8647" x2="45.3216" y1="36.2342" y2="36.476" /><line stroke="rgb(0%,0%,0%)" x1="45.3216" x2="43.0" y1="36.476" y2="37.5096" /><line stroke="rgb(0%,0%,0%)" x1="43.0" x2="42.519" y1="37.5096" y2="37.8591" /><line stroke="rgb(0%,0%,0%)" x1="42.519" x2="40.463" y1="37.8591" y2="39.3528" /><line stroke="rgb(0%,0%,0%)" x1="40.463" x2="40.0652" y1="39.3528" y2="39.7946" /><line stroke="rgb(0%,0%,0%)" x1="40.0652" x2="38.3647" y1="39.7946" y2="41.6832" /><line stroke="rgb(0%,0%,0%)" x1="38.3647" x2="38.0675" y1="41.6832" y2="42.1981" /><line stroke="rgb(0%,0%,0%)" x1="38.0675" x2="36.7968" y1="42.1981" y2="44.3989" /><line stroke="rgb(0%,0%,0%)" x1="36.7968" x2="36.6131" y1="44.3989" y2="44.9644" /><line stroke="rgb(0%,0%,0%)" x1="36.6131" x2="35.8278" y1="44.9644" y2="47.3813" /></svg>