<?xml version="1.0" encoding="utf-8" ?>
<svg baseProfile="tiny" height="100%" version="1.2" width="100%" xmlns="http://www.w3.org/2000/svg" xmlns:ev="http://www.w3.org/2001/xml-events" xmlns:xlink="http://www.w3.org/1999/xlink"><defs /><line stroke="rgb(0%,0%,0%)" x1="351.9" x2="351.9" y1="0.5" y2="52.7745" /><line stroke="rgb(0%,0%,0%)" x1="351.9" x2="351.9" y1="52.7745" y2="100.5" /><line stroke="rgb(0%,0%,0%)" x1="261.1167" x2="332.6835" y1="100.5" y2="100.5" /><line stroke="rgb(0%,0%,0%)" x1="332.6835" x2="335.1794" y1="100.5" y2="100.5" /><line stroke="rgb(0%,0%,0%)" x1="335.1794" x2="338.0308" y1="100.5" y2="100.5" /><line stroke="rgb(0%,0%,0%)" x1="338.0308" x2="341.1954" y1="100.5" y2="100.5" /><line stroke="rgb(0%,0%,0%)" x1="341.1954" x2="344.6136" y1="100.5" y2="100.5" /><line stroke="rgb(0%,0%,0%)" x1="344.6136" x2="348.2106" y1="100.5" y2="100.5" /><line stroke="rgb(0%,0%,0%)" x1="348.2106" x2="351.9" y1="100.5" y2="100.5" /><line stroke="rgb(0%,0%,0%)" x1="261.1167" x2="122.239" y1="100.5" y2="100.5" /><line stroke="rgb(0%,0%,0%)" x1="122.239" x2="0.5" y1="100.5" y2="100.5" /><line stroke="rgb(0%,0%,0%)" x1="0.5" x2="122.239" y1="0.5" y2="0.5" /><line stroke="rgb(0%,0%,0%)" x1="122.239" x2="261.1167" y1="0.5" y2="0.5" /><line stroke="rgb(0%,0%,0%)" x1="261.1167" x2="332.6835" y1="0.5" y2="0.5" /><line stroke="rgb(0%,0%,0%)" x1="332.6835" x2="335.1794" y1="0.5" y2="0.5" /><line stroke="rgb(0%,0%,0%)" x1="335.1794" x2="338.0308" y1="0.5" y2="0.5" /><line stroke="rgb(0%,0%,0%)" x1="338.0308" x2="341.1954" y1="0.5" y2="0.5" /><line stroke="rgb(0%,0%,0%)" x1="341.1954" x2="344.6136" y1="0.5" y2="0.5" /><line stroke="rgb(0%,0%,0%)" x1="344.6136" x2="348.2106" y1="0.5" y2="0.5" /><line stroke="rgb(0%,0%,0%)" x1="348.2106" x2="351.9" y1="0.5" y2="0.5" /><line stroke="rgb(0%,0%,0%)" x1="0.5" x2="0.5" y1="0.5" y2="40.0213" /><line stroke="rgb(0%,0%,0%)" x1="0.5" x2="0.5" y1="40.0213" y2="100.5" /><line stroke="rgb(0%,0%,0%)" x1="135.8278" x2="135.7591" y1="47.3813" y2="48.0349" /><line stroke="rgb(0%,0%,0%)" x1="135.7591" x2="135.5" y1="48.0349" y2="50.5" /><line stroke="rgb(0%,0%,0%)" x1="135.5" x2="135.5687" y1="50.5" y2="51.1536" /><line stroke="rgb(0%,0%,0%)" x1="135.5687" x2="135.8278" y1="51.1536" y2="53.6187" /><line stroke="rgb(0%,0%,0%)" x1="135.8278" x2="136.0309" y1="53.6187" y2="54.2437" /><line stroke="rgb(0%,0%,0%)" x1="136.0309" x2="136.7968" y1="54.2437" y2="56.6011" /><line stroke="rgb(0%,0%,0%)" x1="136.7968" x2="137.1254" y1="56.6011" y2="57.1702" /><line stroke="rgb(0%,0%,0%)" x1="137.1254" x2="138.3647" y1="57.1702" y2="59.3168" /><line stroke="rgb(0%,0%,0%)" x1="138.3647" x2="138.8045" y1="59.3168" y2="59.8052" /><line stroke="rgb(0%,0%,0%)" x1="138.8045" x2="140.463" y1="59.8052" y2="61.6472" /><line stroke="rgb(0%,0%,0%)" x1="140.463" x2="140.9947" y1="61.6472" y2="62.0335" /><line stroke="rgb(0%,0%,0%)" x1="140.9947" x2="143.0" y1="62.0335" y2="63.4904" /><line stroke="rgb(0%,0%,0%)" x1="143.0" x2="143.6004" y1="63.4904" y2="63.7577" /><line stroke="rgb(0%,0%,0%)" x1="143.6004" x2="145.8647" y1="63.7577" y2="64.7658" /><line stroke="rgb(0%,0%,0%)" x1="145.8647" x2="146.5076" y1="64.7658" y2="64.9025" /><line stroke="rgb(0%,0%,0%)" x1="146.5076" x2="148.9321" y1="64.9025" y2="65.4178" /><line stroke="rgb(0%,0%,0%)" x1="148.9321" x2="149.5893" y1="65.4178" y2="65.4178" /><line stroke="rgb(0%,0%,0%)" x1="149.5893" x2="152.0679" y1="65.4178" y2="65.4178" /><line stroke="rgb(0%,0%,0%)" x1="152.0679" x2="152.7108" y1="65.4178" y2="65.2812" /><line stroke="rgb(0%,0%,0%)" x1="152.7108" x2="155.1353" y1="65.2812" y2="64.7658" /><line stroke="rgb(0%,0%,0%)" x1="155.1353" x2="155.7356" y1="64.7658" y2="64.4985" /><line stroke="rgb(0%,0%,0%)" x1="155.7356" x2="158.0" y1="64.4985" y2="63.4904" /><line stroke="rgb(0%,0%,0%)" x1="158.0" x2="158.5317" y1="63.4904" y2="63.1041" /><line stroke="rgb(0%,0%,0%)" x1="158.5317" x2="160.537" y1="63.1041" y2="61.6472" /><line stroke="rgb(0%,0%,0%)" x1="160.537" x2="160.9767" y1="61.6472" y2="61.1588" /><line stroke="rgb(0%,0%,0%)" x1="160.9767" x2="162.6353" y1="61.1588" y2="59.3168" /><line stroke="rgb(0%,0%,0%)" x1="162.6353" x2="162.9639" y1="59.3168" y2="58.7476" /><line stroke="rgb(0%,0%,0%)" x1="162.9639" x2="164.2032" y1="58.7476" y2="56.6011" /><line stroke="rgb(0%,0%,0%)" x1="164.2032" x2="164.4063" y1="56.6011" y2="55.976" /><line stroke="rgb(0%,0%,0%)" x1="164.4063" x2="165.1722" y1="55.976" y2="53.6187" /><line stroke="rgb(0%,0%,0%)" x1="165.1722" x2="165.2409" y1="53.6187" y2="52.9651" /><line stroke="rgb(0%,0%,0%)" x1="165.2409" x2="165.5" y1="52.9651" y2="50.5" /><line stroke="rgb(0%,0%,0%)" x1="165.5" x2="165.4313" y1="50.5" y2="49.8464" /><line stroke="rgb(0%,0%,0%)" x1="165.4313" x2="165.1722" y1="49.8464" y2="47.3813" /><line stroke="rgb(0%,0%,0%)" x1="165.1722" x2="164.9691" y1="47.3813" y2="46.7563" /><line stroke="rgb(0%,0%,0%)" x1="164.9691" x2="164.2032" y1="46.7563" y2="44.3989" /><line stroke="rgb(0%,0%,0%)" x1="164.2032" x2="163.8746" y1="44.3989" y2="43.8298" /><line stroke="rgb(0%,0%,0%)" x1="163.8746" x2="162.6353" y1="43.8298" y2="41.6832" /><line stroke="rgb(0%,0%,0%)" x1="162.6353" x2="162.1955" y1="41.6832" y2="41.1948" /><line stroke="rgb(0%,0%,0%)" x1="162.1955" x2="160.537" y1="41.1948" y2="39.3528" /><line stroke="rgb(0%,0%,0%)" x1="160.537" x2="160.0053" y1="39.3528" y2="38.9665" /><line stroke="rgb(0%,0%,0%)" x1="160.0053" x2="158.0" y1="38.9665" y2="37.5096" /><line stroke="rgb(0%,0%,0%)" x1="158.0" x2="157.3996" y1="37.5096" y2="37.2423" /><line stroke="rgb(0%,0%,0%)" x1="157.3996" x2="155.1353" y1="37.2423" y2="36.2342" /><line stroke="rgb(0%,0%,0%)" x1="155.1353" x2="154.4924" y1="36.2342" y2="36.0975" /><line stroke="rgb(0%,0%,0%)" x1="154.4924" x2="152.0679" y1="36.0975" y2="35.5822" /><line stroke="rgb(0%,0%,0%)" x1="152.0679" x2="151.4107" y1="35.5822" y2="35.5822" /><line stroke="rgb(0%,0%,0%)" x1="151.4107" x2="148.9321" y1="35.5822" y2="35.5822" /><line stroke="rgb(0%,0%,0%)" x1="148.9321" x2="148.2892" y1="35.5822" y2="35.7188" /><line stroke="rgb(0%,0%,0%)" x1="148.2892" x2="145.8647" y1="35.7188" y2="36.2342" /><line stroke="rgb(0%,0%,0%)" x1="145.8647" x2="145.2644" y1="36.2342" y2="36.5015" /><line stroke="rgb(0%,0%,0%)" x1="145.2644" x2="143.0" y1="36.5015" y2="37.5096" /><line stroke="rgb(0%,0%,0%)" x1="143.0" x2="142.4683" y1="37.5096" y2="37.8959" /><line stroke="rgb(0%,0%,0%)" x1="142.4683" x2="140.463" y1="37.8959" y2="39.3528" /><line stroke="rgb(0%,0%,0%)" x1="140.463" x2="140.0233" y1="39.3528" y2="39.8412" /><line stroke="rgb(0%,0%,0%)" x1="140.0233" x2="138.3647" y1="39.8412" y2="41.6832" /><line stroke="rgb(0%,0%,0%)" x1="138.3647" x2="138.0361" y1="41.6832" y2="42.2524" /><line stroke="rgb(0%,0%,0%)" x1="138.0361" x2="136.7968" y1="42.2524" y2="44.3989" /><line stroke="rgb(0%,0%,0%)" x1="136.7968" x2="136.5937" y1="44.3989" y2="45.024" /><line stroke="rgb(0%,0%,0%)" x1="136.5937" x2="135.8278" y1="45.024" y2="47.3813" /><line stroke="rgb(0%,0%,0%)" x1="35.8278" x2="35.7591" y1="47.3813" y2="48.0349" /><line stroke="rgb(0%,0%,0%)" x1="35.7591" x2="35.5" y1="48.0349" y2="50.5" /><line stroke="rgb(0%,0%,0%)" x1="35.5" x2="35.5687" y1="50.5" y2="51.1536" /><line stroke="rgb(0%,0%,0%)" x1="35.5687" x2="35.8278" y1="51.1536" y2="53.6187" /><line stroke="rgb(0%,0%,0%)" x1="35.8278" x2="36.0309" y1="53.6187" y2="54.2437" /><line stroke="rgb(0%,0%,0%)" x1="36.0309" x2="36.7968" y1="54.2437" y2="56.6011" /><line stroke="rgb(0%,0%,0%)" x1="36.7968" x2="37.1254" y1="56.6011" y2="57.1702" /><line stroke="rgb(0%,0%,0%)" x1="37.1254" x2="38.3647" y1="57.1702" y2="59.3168" /><line stroke="rgb(0%,0%,0%)" x1="38.3647" x2="38.8045" y1="59.3168" y2="59.8052" /><line stroke="rgb(0%,0%,0%)" x1="38.8045" x2="40.463" y1="59.8052" y2="61.6472" /><line stroke="rgb(0%,0%,0%)" x1="40.463" x2="40.9947" y1="61.6472" y2="62.0335" /><line stroke="rgb(0%,0%,0%)" x1="40.9947" x2="43.0" y1="62.0335" y2="63.4904" /><line stroke="rgb(0%,0%,0%)" x1="43.0" x2="43.6004" y1="63.4904" y2="63.7577" /><line stroke="rgb(0%,0%,0%)" x1="43.6004" x2="45.8647" y1="63.7577" y2="64.7658" /><line stroke="rgb(0%,0%,0%)" x1="45.8647" x2="46.5076" y1="64.7658" y2="64.9025" /><line stroke="rgb(0%,0%,0%)" x1="46.5076" x2="48.9321" y1="64.9025" y2="65.4178" /><line stroke="rgb(0%,0%,0%)" x1="48.9321" x2="49.5893" y1="65.4178" y2="65.4178" /><line stroke="rgb(0%,0%,0%)" x1="49.5893" x2="52.0679" y1="65.4178" y2="65.4178" /><line stroke="rgb(0%,0%,0%)" x1="52.0679" x2="52.7108" y1="65.4178" y2="65.2812" /><line stroke="rgb(0%,0%,0%)" x1="52.7108" x2="55.1353" y1="65.2812" y2="64.7658" /><line stroke="rgb(0%,0%,0%)" x1="55.1353" x2="55.7356" y1="64.7658" y2="64.4985" /><line stroke="rgb(0%,0%,0%)" x1="55.7356" x2="58.0" y1="64.4985" y2="63.4904" /><line stroke="rgb(0%,0%,0%)" x1="58.0" x2="58.5317" y1="63.4904" y2="63.1041" /><line stroke="rgb(0%,0%,0%)" x1="58.5317" x2="60.537" y1="63.1041" y2="61.6472" /><line stroke="rgb(0%,0%,0%)" x1="60.537" x2="60.9767" y1="61.6472" y2="61.1588" /><line stroke="rgb(0%,0%,0%)" x1="60.9767" x2="62.6352" y1="61.1588" y2="59.3168" /><line stroke="rgb(0%,0%,0%)" x1="62.6352" x2="62.9638" y1="59.3168" y2="58.7476" /><line stroke="rgb(0%,0%,0%)" x1="62.9638" x2="64.2032" y1="58.7476" y2="56.6011" /><line stroke="rgb(0%,0%,0%)" x1="64.2032" x2="64.4063" y1="56.6011" y2="55.976" /><line stroke="rgb(0%,0%,0%)" x1="64.4063" x2="65.1722" y1="55.976" y2="53.6187" /><line stroke="rgb(0%,0%,0%)" x1="65.1722" x2="65.2409" y1="53.6187" y2="52.9651" /><line stroke="rgb(0%,0%,0%)" x1="65.2409" x2="65.5" y1="52.9651" y2="50.5" /><line stroke="rgb(0%,0%,0%)" x1="65.5" x2="65.4313" y1="50.5" y2="49.8464" /><line stroke="rgb(0%,0%,0%)" x1="65.4313" x2="65.1722" y1="49.8464" y2="47.3813" /><line stroke="rgb(0%,0%,0%)" x1="65.1722" x2="64.9691" y1="47.3813" y2="46.7563" /><line stroke="rgb(0%,0%,0%)" x1="64.9691" x2="64.2032" y1="46.7563" y2="44.3989" /><line stroke="rgb(0%,0%,0%)" x1="64.2032" x2="63.8746" y1="44.3989" y2="43.8298" /><line stroke="rgb(0%,0%,0%)" x1="63.8746" x2="62.6352" y1="43.8298" y2="41.6832" /><line stroke="rgb(0%,0%,0%)" x1="62.6352" x2="62.1955" y1="41.6832" y2="41.1948" /><line stroke="rgb(0%,0%,0%)" x1="62.1955" x2="60.537" y1="41.1948" y2="39.3528" /><line stroke="rgb(0%,0%,0%)" x1="60.537" x2="60.0053" y1="39.3528" y2="38.9665" /><line stroke="rgb(0%,0%,0%)" x1="60.0053" x2="58.0" y1="38.9665" y2="37.5096" /><line stroke="rgb(0%,0%,0%)" x1="58.0" x2="57.3996" y1="37.5096" y2="37.2423" /><line stroke="rgb(0%,0%,0%)" x1="57.3996" x2="55.1353" y1="37.2423" y2="36.2342" /><line stroke="rgb(0%,0%,0%)" x1="55.1353" x2="54.4924" y1="36.2342" y2="36.0975" /><line stroke="rgb(0%,0%,0%)" x1="54.4924" x2="52.0679" y1="36.0975" y2="35.5822" /><line stroke="rgb(0%,0%,0%)" x1="52.0679" x2="51.4107" y1="35.5822" y2="35.5822" /><line stroke="rgb(0%,0%,0%)" x1="51.4107" x2="48.9321" y1="35.5822" y2="35.5822" /><line stroke="rgb(0%,0%,0%)" x1="48.9321" x2="48.2892" y1="35.5822" y2="35.7188" /><line stroke="rgb(0%,0%,0%)" x1="48.2892" x2="45.8647" y1="35.7188" y2="36.2342" /><line stroke="rgb(0%,0%,0%)" x1="45.8647" x2="45.2644" y1="36.2342" y2="36.5015" /><line stroke="rgb(0%,0%,0%)" x1="45.2644" x2="43.0" y1="36.5015" y2="37.5096" /><line stroke="rgb(0%,0%,0%)" x1="43.0" x2="42.4683" y1="37.5096" y2="37.8959" /><line stroke="rgb(0%,0%,0%)" x1="42.4683" x2="40.463" y1="37.8959" y2="39.3528" /><line stroke="rgb(0%,0%,0%)" x1="40.463" x2="40.0233" y1="39.3528" y2="39.8412" /><line stroke="rgb(0%,0%,0%)" x1="40.0233" x2="38.3647" y1="39.8412" y2="41.6832" /><line stroke="rgb(0%,0%,0%)" x1="38.3647" x2="38.0361" y1="41.6832" y2="42.2524" /><line stroke="rgb(0%,0%,0%)" x1="38.0361" x2="36.7968" y1="42.2524" y2="44.3989" /><line stroke="rgb(0%,0%,0%)" x1="36.7968" x2="36.5937" y1="44.3989" y2="45.024" /><line stroke="rgb(0%,0%,0%)" x1="36.5937" x2="35.8278" y1="45.024" y2="47.3813" /></svg>