<?xml version="1.0" encoding="utf-8" ?>
<svg baseProfile="tiny" height="100%" version="1.2" width="100%" xmlns="http://www.w3.org/2000/svg" xmlns:ev="http://www.w3.org/2001/xml-events" xmlns:xlink="http://www.w3.org/1999/xlink"><defs /><line stroke="rgb(0%,0%,0%)" x1="351.9" x2="351.9" y1="0.5" y2="53.6385" /><line stroke="rgb(0%,0%,0%)" x1="351.9" x2="351.9" y1="53.6385" y2="100.5" /><line stroke="rgb(0%,0%,0%)" x1="259.6162" x2="332.3658" y1="100.5" y2="100.5" /><line stroke="rgb(0%,0%,0%)" x1="332.3658" x2="334.903" y1="100.5" y2="100.5" /><line stroke="rgb(0%,0%,0%)" x1="334.903" x2="337.8015" y1="100.5" y2="100.5" /><line stroke="rgb(0%,0%,0%)" x1="337.8015" x2="341.0184" y1="100.5" y2="100.5" /><line stroke="rgb(0%,0%,0%)" x1="341.0184" x2="344.4932" y1="100.5" y2="100.5" /><line stroke="rgb(0%,0%,0%)" x1="344.4932" x2="348.1496" y1="100.5" y2="100.5" /><line stroke="rgb(0%,0%,0%)" x1="348.1496" x2="351.9" y1="100.5" y2="100.5" /><line stroke="rgb(0%,0%,0%)" x1="259.6162" x2="124.2512" y1="100.5" y2="100.5" /><line stroke="rgb(0%,0%,0%)" x1="124.2512" x2="0.5" y1="100.5" y2="100.5" /><line stroke="rgb(0%,0%,0%)" x1="0.5" x2="124.2512" y1="0.5" y2="0.5" /><line stroke="rgb(0%,0%,0%)" x1="124.2512" x2="259.6162" y1="0.5" y2="0.5" /><line stroke="rgb(0%,0%,0%)" x1="259.6162" x2="332.3658" y1="0.5" y2="0.5" /><line stroke="rgb(0%,0%,0%)" x1="332.3658" x2="334.903" y1="0.5" y2="0.5" /><line stroke="rgb(0%,0%,0%)" x1="334.903" x2="337.8015" y1="0.5" y2="0.5" /><line stroke="rgb(0%,0%,0%)" x1="337.8015" x2="341.0184" y1="0.5" y2="0.5" /><line stroke="rgb(0%,0%,0%)" x1="341.0184" x2="344.4932" y1="0.5" y2="0.5" /><line stroke="rgb(0%,0%,0%)" x1="344.4932" x2="348.1496" y1="0.5" y2="0.5" /><line stroke="rgb(0%,0%,0%)" x1="348.1496" x2="351.9" y1="0.5" y2="0.5" /><line stroke="rgb(0%,0%,0%)" x1="0.5" x2="0.5" y1="0.5" y2="39.0216" /><line stroke="rgb(0%,0%,0%)" x1="0.5" x2="0.5" y1="39.0216" y2="100.5" /><line stroke="rgb(0%,0%,0%)" x1="135.8278" x2="135.7525" y1="47.3813" y2="48.0973" /><line stroke="rgb(0%,0%,0%)" x1="135.7525" x2="135.5" y1="48.0973" y2="50.5" /><line stroke="rgb(0%,0%,0%)" x1="135.5" x2="135.5752" y1="50.5" y2="51.2159" /><line stroke="rgb(0%,0%,0%)" x1="135.5752" x2="135.8278" y1="51.2159" y2="53.6187" /><line stroke="rgb(0%,0%,0%)" x1="135.8278" x2="136.0502" y1="53.6187" y2="54.3033" /><line stroke="rgb(0%,0%,0%)" x1="136.0502" x2="136.7968" y1="54.3033" y2="56.6011" /><line stroke="rgb(0%,0%,0%)" x1="136.7968" x2="137.1568" y1="56.6011" y2="57.2245" /><line stroke="rgb(0%,0%,0%)" x1="137.1568" x2="138.3647" y1="57.2245" y2="59.3168" /><line stroke="rgb(0%,0%,0%)" x1="138.3647" x2="138.8464" y1="59.3168" y2="59.8518" /><line stroke="rgb(0%,0%,0%)" x1="138.8464" x2="140.463" y1="59.8518" y2="61.6472" /><line stroke="rgb(0%,0%,0%)" x1="140.463" x2="141.0454" y1="61.6472" y2="62.0703" /><line stroke="rgb(0%,0%,0%)" x1="141.0454" x2="143.0" y1="62.0703" y2="63.4904" /><line stroke="rgb(0%,0%,0%)" x1="143.0" x2="143.6576" y1="63.4904" y2="63.7832" /><line stroke="rgb(0%,0%,0%)" x1="143.6576" x2="145.8647" y1="63.7832" y2="64.7658" /><line stroke="rgb(0%,0%,0%)" x1="145.8647" x2="146.5689" y1="64.7658" y2="64.9155" /><line stroke="rgb(0%,0%,0%)" x1="146.5689" x2="148.9321" y1="64.9155" y2="65.4178" /><line stroke="rgb(0%,0%,0%)" x1="148.9321" x2="149.652" y1="65.4178" y2="65.4178" /><line stroke="rgb(0%,0%,0%)" x1="149.652" x2="152.0679" y1="65.4178" y2="65.4178" /><line stroke="rgb(0%,0%,0%)" x1="152.0679" x2="152.7721" y1="65.4178" y2="65.2682" /><line stroke="rgb(0%,0%,0%)" x1="152.7721" x2="155.1353" y1="65.2682" y2="64.7658" /><line stroke="rgb(0%,0%,0%)" x1="155.1353" x2="155.7929" y1="64.7658" y2="64.473" /><line stroke="rgb(0%,0%,0%)" x1="155.7929" x2="158.0" y1="64.473" y2="63.4904" /><line stroke="rgb(0%,0%,0%)" x1="158.0" x2="158.5824" y1="63.4904" y2="63.0672" /><line stroke="rgb(0%,0%,0%)" x1="158.5824" x2="160.537" y1="63.0672" y2="61.6472" /><line stroke="rgb(0%,0%,0%)" x1="160.537" x2="161.0187" y1="61.6472" y2="61.1122" /><line stroke="rgb(0%,0%,0%)" x1="161.0187" x2="162.6353" y1="61.1122" y2="59.3168" /><line stroke="rgb(0%,0%,0%)" x1="162.6353" x2="162.9952" y1="59.3168" y2="58.6933" /><line stroke="rgb(0%,0%,0%)" x1="162.9952" x2="164.2032" y1="58.6933" y2="56.6011" /><line stroke="rgb(0%,0%,0%)" x1="164.2032" x2="164.4256" y1="56.6011" y2="55.9164" /><line stroke="rgb(0%,0%,0%)" x1="164.4256" x2="165.1722" y1="55.9164" y2="53.6187" /><line stroke="rgb(0%,0%,0%)" x1="165.1722" x2="165.2475" y1="53.6187" y2="52.9027" /><line stroke="rgb(0%,0%,0%)" x1="165.2475" x2="165.5" y1="52.9027" y2="50.5" /><line stroke="rgb(0%,0%,0%)" x1="165.5" x2="165.4247" y1="50.5" y2="49.7841" /><line stroke="rgb(0%,0%,0%)" x1="165.4247" x2="165.1722" y1="49.7841" y2="47.3813" /><line stroke="rgb(0%,0%,0%)" x1="165.1722" x2="164.9498" y1="47.3813" y2="46.6967" /><line stroke="rgb(0%,0%,0%)" x1="164.9498" x2="164.2032" y1="46.6967" y2="44.3989" /><line stroke="rgb(0%,0%,0%)" x1="164.2032" x2="163.8432" y1="44.3989" y2="43.7755" /><line stroke="rgb(0%,0%,0%)" x1="163.8432" x2="162.6353" y1="43.7755" y2="41.6832" /><line stroke="rgb(0%,0%,0%)" x1="162.6353" x2="162.1536" y1="41.6832" y2="41.1482" /><line stroke="rgb(0%,0%,0%)" x1="162.1536" x2="160.537" y1="41.1482" y2="39.3528" /><line stroke="rgb(0%,0%,0%)" x1="160.537" x2="159.9546" y1="39.3528" y2="38.9297" /><line stroke="rgb(0%,0%,0%)" x1="159.9546" x2="158.0" y1="38.9297" y2="37.5096" /><line stroke="rgb(0%,0%,0%)" x1="158.0" x2="157.3423" y1="37.5096" y2="37.2168" /><line stroke="rgb(0%,0%,0%)" x1="157.3423" x2="155.1353" y1="37.2168" y2="36.2342" /><line stroke="rgb(0%,0%,0%)" x1="155.1353" x2="154.4311" y1="36.2342" y2="36.0845" /><line stroke="rgb(0%,0%,0%)" x1="154.4311" x2="152.0679" y1="36.0845" y2="35.5822" /><line stroke="rgb(0%,0%,0%)" x1="152.0679" x2="151.348" y1="35.5822" y2="35.5822" /><line stroke="rgb(0%,0%,0%)" x1="151.348" x2="148.9321" y1="35.5822" y2="35.5822" /><line stroke="rgb(0%,0%,0%)" x1="148.9321" x2="148.2279" y1="35.5822" y2="35.7318" /><line stroke="rgb(0%,0%,0%)" x1="148.2279" x2="145.8647" y1="35.7318" y2="36.2342" /><line stroke="rgb(0%,0%,0%)" x1="145.8647" x2="145.2071" y1="36.2342" y2="36.527" /><line stroke="rgb(0%,0%,0%)" x1="145.2071" x2="143.0" y1="36.527" y2="37.5096" /><line stroke="rgb(0%,0%,0%)" x1="143.0" x2="142.4176" y1="37.5096" y2="37.9328" /><line stroke="rgb(0%,0%,0%)" x1="142.4176" x2="140.463" y1="37.9328" y2="39.3528" /><line stroke="rgb(0%,0%,0%)" x1="140.463" x2="139.9813" y1="39.3528" y2="39.8878" /><line stroke="rgb(0%,0%,0%)" x1="139.9813" x2="138.3647" y1="39.8878" y2="41.6832" /><line stroke="rgb(0%,0%,0%)" x1="138.3647" x2="138.0048" y1="41.6832" y2="42.3067" /><line stroke="rgb(0%,0%,0%)" x1="138.0048" x2="136.7968" y1="42.3067" y2="44.3989" /><line stroke="rgb(0%,0%,0%)" x1="136.7968" x2="136.5744" y1="44.3989" y2="45.0836" /><line stroke="rgb(0%,0%,0%)" x1="136.5744" x2="135.8278" y1="45.0836" y2="47.3813" /><line stroke="rgb(0%,0%,0%)" x1="35.8278" x2="35.7525" y1="47.3813" y2="48.0973" /><line stroke="rgb(0%,0%,0%)" x1="35.7525" x2="35.5" y1="48.0973" y2="50.5" /><line stroke="rgb(0%,0%,0%)" x1="35.5" x2="35.5752" y1="50.5" y2="51.2159" /><line stroke="rgb(0%,0%,0%)" x1="35.5752" x2="35.8278" y1="51.2159" y2="53.6187" /><line stroke="rgb(0%,0%,0%)" x1="35.8278" x2="36.0502" y1="53.6187" y2="54.3033" /><line stroke="rgb(0%,0%,0%)" x1="36.0502" x2="36.7968" y1="54.3033" y2="56.6011" /><line stroke="rgb(0%,0%,0%)" x1="36.7968" x2="37.1568" y1="56.6011" y2="57.2245" /><line stroke="rgb(0%,0%,0%)" x1="37.1568" x2="38.3647" y1="57.2245" y2="59.3168" /><line stroke="rgb(0%,0%,0%)" x1="38.3647" x2="38.8464" y1="59.3168" y2="59.8518" /><line stroke="rgb(0%,0%,0%)" x1="38.8464" x2="40.463" y1="59.8518" y2="61.6472" /><line stroke="rgb(0%,0%,0%)" x1="40.463" x2="41.0454" y1="61.6472" y2="62.0703" /><line stroke="rgb(0%,0%,0%)" x1="41.0454" x2="43.0" y1="62.0703" y2="63.4904" /><line stroke="rgb(0%,0%,0%)" x1="43.0" x2="43.6577" y1="63.4904" y2="63.7832" /><line stroke="rgb(0%,0%,0%)" x1="43.6577" x2="45.8647" y1="63.7832" y2="64.7658" /><line stroke="rgb(0%,0%,0%)" x1="45.8647" x2="46.5689" y1="64.7658" y2="64.9155" /><line stroke="rgb(0%,0%,0%)" x1="46.5689" x2="48.9321" y1="64.9155" y2="65.4178" /><line stroke="rgb(0%,0%,0%)" x1="48.9321" x2="49.652" y1="65.4178" y2="65.4178" /><line stroke="rgb(0%,0%,0%)" x1="49.652" x2="52.0679" y1="65.4178" y2="65.4178" /><line stroke="rgb(0%,0%,0%)" x1="52.0679" x2="52.7721" y1="65.4178" y2="65.2682" /><line stroke="rgb(0%,0%,0%)" x1="52.7721" x2="55.1353" y1="65.2682" y2="64.7658" /><line stroke="rgb(0%,0%,0%)" x1="55.1353" x2="55.7929" y1="64.7658" y2="64.473" /><line stroke="rgb(0%,0%,0%)" x1="55.7929" x2="58.0" y1="64.473" y2="63.4904" /><line stroke="rgb(0%,0%,0%)" x1="58.0" x2="58.5824" y1="63.4904" y2="63.0672" /><line stroke="rgb(0%,0%,0%)" x1="58.5824" x2="60.537" y1="63.0672" y2="61.6472" /><line stroke="rgb(0%,0%,0%)" x1="60.537" x2="61.0187" y1="61.6472" y2="61.1122" /><line stroke="rgb(0%,0%,0%)" x1="61.0187" x2="62.6352" y1="61.1122" y2="59.3168" /><line stroke="rgb(0%,0%,0%)" x1="62.6352" x2="62.9952" y1="59.3168" y2="58.6933" /><line stroke="rgb(0%,0%,0%)" x1="62.9952" x2="64.2032" y1="58.6933" y2="56.6011" /><line stroke="rgb(0%,0%,0%)" x1="64.2032" x2="64.4256" y1="56.6011" y2="55.9164" /><line stroke="rgb(0%,0%,0%)" x1="64.4256" x2="65.1722" y1="55.9164" y2="53.6187" /><line stroke="rgb(0%,0%,0%)" x1="65.1722" x2="65.2475" y1="53.6187" y2="52.9027" /><line stroke="rgb(0%,0%,0%)" x1="65.2475" x2="65.5" y1="52.9027" y2="50.5" /><line stroke="rgb(0%,0%,0%)" x1="65.5" x2="65.4248" y1="50.5" y2="49.7841" /><line stroke="rgb(0%,0%,0%)" x1="65.4248" x2="65.1722" y1="49.7841" y2="47.3813" /><line stroke="rgb(0%,0%,0%)" x1="65.1722" x2="64.9498" y1="47.3813" y2="46.6967" /><line stroke="rgb(0%,0%,0%)" x1="64.9498" x2="64.2032" y1="46.6967" y2="44.3989" /><line stroke="rgb(0%,0%,0%)" x1="64.2032" x2="63.8432" y1="44.3989" y2="43.7755" /><line stroke="rgb(0%,0%,0%)" x1="63.8432" x2="62.6352" y1="43.7755" y2="41.6832" /><line stroke="rgb(0%,0%,0%)" x1="62.6352" x2="62.1536" y1="41.6832" y2="41.1482" /><line stroke="rgb(0%,0%,0%)" x1="62.1536" x2="60.537" y1="41.1482" y2="39.3528" /><line stroke="rgb(0%,0%,0%)" x1="60.537" x2="59.9546" y1="39.3528" y2="38.9297" /><line stroke="rgb(0%,0%,0%)" x1="59.9546" x2="58.0" y1="38.9297" y2="37.5096" /><line stroke="rgb(0%,0%,0%)" x1="58.0" x2="57.3423" y1="37.5096" y2="37.2168" /><line stroke="rgb(0%,0%,0%)" x1="57.3423" x2="55.1353" y1="37.2168" y2="36.2342" /><line stroke="rgb(0%,0%,0%)" x1="55.1353" x2="54.4311" y1="36.2342" y2="36.0845" /><line stroke="rgb(0%,0%,0%)" x1="54.4311" x2="52.0679" y1="36.0845" y2="35.5822" /><line stroke="rgb(0%,0%,0%)" x1="52.0679" x2="51.348" y1="35.5822" y2="35.5822" /><line stroke="rgb(0%,0%,0%)" x1="51.348" x2="48.9321" y1="35.5822" y2="35.5822" /><line stroke="rgb(0%,0%,0%)" x1="48.9321" x2="48.2279" y1="35.5822" y2="35.7318" /><line stroke="rgb(0%,0%,0%)" x1="48.2279" x2="45.8647" y1="35.7318" y2="36.2342" /><line stroke="rgb(0%,0%,0%)" x1="45.8647" x2="45.2071" y1="36.2342" y2="36.527" /><line stroke="rgb(0%,0%,0%)" x1="45.2071" x2="43.0" y1="36.527" y2="37.5096" /><line stroke="rgb(0%,0%,0%)" x1="43.0" x2="42.4176" y1="37.5096" y2="37.9328" /><line stroke="rgb(0%,0%,0%)" x1="42.4176" x2="40.463" y1="37.9328" y2="39.3528" /><line stroke="rgb(0%,0%,0%)" x1="40.463" x2="39.9813" y1="39.3528" y2="39.8878" /><line stroke="rgb(0%,0%,0%)" x1="39.9813" x2="38.3647" y1="39.8878" y2="41.6832" /><line stroke="rgb(0%,0%,0%)" x1="38.3647" x2="38.0048" y1="41.6832" y2="42.3067" /><line stroke="rgb(0%,0%,0%)" x1="38.0048" x2="36.7968" y1="42.3067" y2="44.3989" /><line stroke="rgb(0%,0%,0%)" x1="36.7968" x2="36.5743" y1="44.3989" y2="45.0836" /><line stroke="rgb(0%,0%,0%)" x1="36.5743" x2="35.8278" y1="45.0836" y2="47.3813" /></svg>