<?xml version="1.0" encoding="utf-8" ?>
<svg baseProfile="tiny" height="100%" version="1.2" width="100%" xmlns="http://www.w3.org/2000/svg" xmlns:ev="http://www.w3.org/2001/xml-events" xmlns:xlink="http://www.w3.org/1999/xlink"><defs /><line stroke="rgb(0%,0%,0%)" x1="351.9" x2="351.9" y1="0.5" y2="54.5026" /><line stroke="rgb(0%,0%,0%)" x1="351.9" x2="351.9" y1="54.5026" y2="100.5" /><line stroke="rgb(0%,0%,0%)" x1="258.1157" x2="332.0482" y1="100.5" y2="100.5" /><line stroke="rgb(0%,0%,0%)" x1="332.0482" x2="334.6266" y1="100.5" y2="100.5" /><line stroke="rgb(0%,0%,0%)" x1="334.6266" x2="337.5723" y1="100.5" y2="100.5" /><line stroke="rgb(0%,0%,0%)" x1="337.5723" x2="340.8415" y1="100.5" y2="100.5" /><line stroke="rgb(0%,0%,0%)" x1="340.8415" x2="344.3727" y1="100.5" y2="100.5" /><line stroke="rgb(0%,0%,0%)" x1="344.3727" x2="348.0886" y1="100.5" y2="100.5" /><line stroke="rgb(0%,0%,0%)" x1="348.0886" x2="351.9" y1="100.5" y2="100.5" /><line stroke="rgb(0%,0%,0%)" x1="258.1157" x2="126.2634" y1="100.5" y2="100.5" /><line stroke="rgb(0%,0%,0%)" x1="126.2634" x2="0.5" y1="100.5" y2="100.5" /><line stroke="rgb(0%,0%,0%)" x1="0.5" x2="126.2634" y1="0.5" y2="0.5" /><line stroke="rgb(0%,0%,0%)" x1="126.2634" x2="258.1157" y1="0.5" y2="0.5" /><line stroke="rgb(0%,0%,0%)" x1="258.1157" x2="332.0482" y1="0.5" y2="0.5" /><line stroke="rgb(0%,0%,0%)" x1="332.0482" x2="334.6266" y1="0.5" y2="0.5" /><line stroke="rgb(0%,0%,0%)" x1="334.6266" x2="337.5723" y1="0.5" y2="0.5" /><line stroke="rgb(0%,0%,0%)" x1="337.5723" x2="340.8415" y1="0.5" y2="0.5" /><line stroke="rgb(0%,0%,0%)" x1="340.8415" x2="344.3727" y1="0.5" y2="0.5" /><line stroke="rgb(0%,0%,0%)" x1="344.3727" x2="348.0886" y1="0.5" y2="0.5" /><line stroke="rgb(0%,0%,0%)" x1="348.0886" x2="351.9" y1="0.5" y2="0.5" /><line stroke="rgb(0%,0%,0%)" x1="0.5" x2="0.5" y1="0.5" y2="38.022" /><line stroke="rgb(0%,0%,0%)" x1="0.5" x2="0.5" y1="38.022" y2="100.5" /><line stroke="rgb(0%,0%,0%)" x1="135.8278" x2="135.746" y1="47.3813" y2="48.1596" /><line stroke="rgb(0%,0%,0%)" x1="135.746" x2="135.5" y1="48.1596" y2="50.5" /><line stroke="rgb(0%,0%,0%)" x1="135.5" x2="135.5818" y1="50.5" y2="51.2783" /><line stroke="rgb(0%,0%,0%)" x1="135.5818" x2="135.8278" y1="51.2783" y2="53.6187" /><line stroke="rgb(0%,0%,0%)" x1="135.8278" x2="136.0696" y1="53.6187" y2="54.363" /><line stroke="rgb(0%,0%,0%)" x1="136.0696" x2="136.7968" y1="54.363" y2="56.6011" /><line stroke="rgb(0%,0%,0%)" x1="136.7968" x2="137.1881" y1="56.6011" y2="57.2788" /><line stroke="rgb(0%,0%,0%)" x1="137.1881" x2="138.3647" y1="57.2788" y2="59.3168" /><line stroke="rgb(0%,0%,0%)" x1="138.3647" x2="138.8884" y1="59.3168" y2="59.8984" /><line stroke="rgb(0%,0%,0%)" x1="138.8884" x2="140.463" y1="59.8984" y2="61.6472" /><line stroke="rgb(0%,0%,0%)" x1="140.463" x2="141.0962" y1="61.6472" y2="62.1072" /><line stroke="rgb(0%,0%,0%)" x1="141.0962" x2="143.0" y1="62.1072" y2="63.4904" /><line stroke="rgb(0%,0%,0%)" x1="143.0" x2="143.7149" y1="63.4904" y2="63.8087" /><line stroke="rgb(0%,0%,0%)" x1="143.7149" x2="145.8647" y1="63.8087" y2="64.7658" /><line stroke="rgb(0%,0%,0%)" x1="145.8647" x2="146.6302" y1="64.7658" y2="64.9286" /><line stroke="rgb(0%,0%,0%)" x1="146.6302" x2="148.9321" y1="64.9286" y2="65.4178" /><line stroke="rgb(0%,0%,0%)" x1="148.9321" x2="149.7147" y1="65.4178" y2="65.4178" /><line stroke="rgb(0%,0%,0%)" x1="149.7147" x2="152.0679" y1="65.4178" y2="65.4178" /><line stroke="rgb(0%,0%,0%)" x1="152.0679" x2="152.8334" y1="65.4178" y2="65.2551" /><line stroke="rgb(0%,0%,0%)" x1="152.8334" x2="155.1353" y1="65.2551" y2="64.7658" /><line stroke="rgb(0%,0%,0%)" x1="155.1353" x2="155.8502" y1="64.7658" y2="64.4475" /><line stroke="rgb(0%,0%,0%)" x1="155.8502" x2="158.0" y1="64.4475" y2="63.4904" /><line stroke="rgb(0%,0%,0%)" x1="158.0" x2="158.6331" y1="63.4904" y2="63.0304" /><line stroke="rgb(0%,0%,0%)" x1="158.6331" x2="160.537" y1="63.0304" y2="61.6472" /><line stroke="rgb(0%,0%,0%)" x1="160.537" x2="161.0606" y1="61.6472" y2="61.0656" /><line stroke="rgb(0%,0%,0%)" x1="161.0606" x2="162.6353" y1="61.0656" y2="59.3168" /><line stroke="rgb(0%,0%,0%)" x1="162.6353" x2="163.0265" y1="59.3168" y2="58.639" /><line stroke="rgb(0%,0%,0%)" x1="163.0265" x2="164.2032" y1="58.639" y2="56.6011" /><line stroke="rgb(0%,0%,0%)" x1="164.2032" x2="164.445" y1="56.6011" y2="55.8568" /><line stroke="rgb(0%,0%,0%)" x1="164.445" x2="165.1722" y1="55.8568" y2="53.6187" /><line stroke="rgb(0%,0%,0%)" x1="165.1722" x2="165.254" y1="53.6187" y2="52.8404" /><line stroke="rgb(0%,0%,0%)" x1="165.254" x2="165.5" y1="52.8404" y2="50.5" /><line stroke="rgb(0%,0%,0%)" x1="165.5" x2="165.4182" y1="50.5" y2="49.7217" /><line stroke="rgb(0%,0%,0%)" x1="165.4182" x2="165.1722" y1="49.7217" y2="47.3813" /><line stroke="rgb(0%,0%,0%)" x1="165.1722" x2="164.9304" y1="47.3813" y2="46.637" /><line stroke="rgb(0%,0%,0%)" x1="164.9304" x2="164.2032" y1="46.637" y2="44.3989" /><line stroke="rgb(0%,0%,0%)" x1="164.2032" x2="163.8119" y1="44.3989" y2="43.7212" /><line stroke="rgb(0%,0%,0%)" x1="163.8119" x2="162.6353" y1="43.7212" y2="41.6832" /><line stroke="rgb(0%,0%,0%)" x1="162.6353" x2="162.1116" y1="41.6832" y2="41.1016" /><line stroke="rgb(0%,0%,0%)" x1="162.1116" x2="160.537" y1="41.1016" y2="39.3528" /><line stroke="rgb(0%,0%,0%)" x1="160.537" x2="159.9038" y1="39.3528" y2="38.8928" /><line stroke="rgb(0%,0%,0%)" x1="159.9038" x2="158.0" y1="38.8928" y2="37.5096" /><line stroke="rgb(0%,0%,0%)" x1="158.0" x2="157.2851" y1="37.5096" y2="37.1913" /><line stroke="rgb(0%,0%,0%)" x1="157.2851" x2="155.1353" y1="37.1913" y2="36.2342" /><line stroke="rgb(0%,0%,0%)" x1="155.1353" x2="154.3698" y1="36.2342" y2="36.0714" /><line stroke="rgb(0%,0%,0%)" x1="154.3698" x2="152.0679" y1="36.0714" y2="35.5822" /><line stroke="rgb(0%,0%,0%)" x1="152.0679" x2="151.2853" y1="35.5822" y2="35.5822" /><line stroke="rgb(0%,0%,0%)" x1="151.2853" x2="148.9321" y1="35.5822" y2="35.5822" /><line stroke="rgb(0%,0%,0%)" x1="148.9321" x2="148.1666" y1="35.5822" y2="35.7449" /><line stroke="rgb(0%,0%,0%)" x1="148.1666" x2="145.8647" y1="35.7449" y2="36.2342" /><line stroke="rgb(0%,0%,0%)" x1="145.8647" x2="145.1498" y1="36.2342" y2="36.5525" /><line stroke="rgb(0%,0%,0%)" x1="145.1498" x2="143.0" y1="36.5525" y2="37.5096" /><line stroke="rgb(0%,0%,0%)" x1="143.0" x2="142.3669" y1="37.5096" y2="37.9696" /><line stroke="rgb(0%,0%,0%)" x1="142.3669" x2="140.463" y1="37.9696" y2="39.3528" /><line stroke="rgb(0%,0%,0%)" x1="140.463" x2="139.9394" y1="39.3528" y2="39.9344" /><line stroke="rgb(0%,0%,0%)" x1="139.9394" x2="138.3647" y1="39.9344" y2="41.6832" /><line stroke="rgb(0%,0%,0%)" x1="138.3647" x2="137.9735" y1="41.6832" y2="42.361" /><line stroke="rgb(0%,0%,0%)" x1="137.9735" x2="136.7968" y1="42.361" y2="44.3989" /><line stroke="rgb(0%,0%,0%)" x1="136.7968" x2="136.555" y1="44.3989" y2="45.1432" /><line stroke="rgb(0%,0%,0%)" x1="136.555" x2="135.8278" y1="45.1432" y2="47.3813" /><line stroke="rgb(0%,0%,0%)" x1="35.8278" x2="35.746" y1="47.3813" y2="48.1596" /><line stroke="rgb(0%,0%,0%)" x1="35.746" x2="35.5" y1="48.1596" y2="50.5" /><line stroke="rgb(0%,0%,0%)" x1="35.5" x2="35.5818" y1="50.5" y2="51.2783" /><line stroke="rgb(0%,0%,0%)" x1="35.5818" x2="35.8278" y1="51.2783" y2="53.6187" /><line stroke="rgb(0%,0%,0%)" x1="35.8278" x2="36.0696" y1="53.6187" y2="54.363" /><line stroke="rgb(0%,0%,0%)" x1="36.0696" x2="36.7968" y1="54.363" y2="56.6011" /><line stroke="rgb(0%,0%,0%)" x1="36.7968" x2="37.1881" y1="56.6011" y2="57.2788" /><line stroke="rgb(0%,0%,0%)" x1="37.1881" x2="38.3647" y1="57.2788" y2="59.3168" /><line stroke="rgb(0%,0%,0%)" x1="38.3647" x2="38.8884" y1="59.3168" y2="59.8984" /><line stroke="rgb(0%,0%,0%)" x1="38.8884" x2="40.463" y1="59.8984" y2="61.6472" /><line stroke="rgb(0%,0%,0%)" x1="40.463" x2="41.0962" y1="61.6472" y2="62.1072" /><line stroke="rgb(0%,0%,0%)" x1="41.0962" x2="43.0" y1="62.1072" y2="63.4904" /><line stroke="rgb(0%,0%,0%)" x1="43.0" x2="43.7149" y1="63.4904" y2="63.8087" /><line stroke="rgb(0%,0%,0%)" x1="43.7149" x2="45.8647" y1="63.8087" y2="64.7658" /><line stroke="rgb(0%,0%,0%)" x1="45.8647" x2="46.6302" y1="64.7658" y2="64.9286" /><line stroke="rgb(0%,0%,0%)" x1="46.6302" x2="48.9321" y1="64.9286" y2="65.4178" /><line stroke="rgb(0%,0%,0%)" x1="48.9321" x2="49.7146" y1="65.4178" y2="65.4178" /><line stroke="rgb(0%,0%,0%)" x1="49.7146" x2="52.0679" y1="65.4178" y2="65.4178" /><line stroke="rgb(0%,0%,0%)" x1="52.0679" x2="52.8334" y1="65.4178" y2="65.2551" /><line stroke="rgb(0%,0%,0%)" x1="52.8334" x2="55.1353" y1="65.2551" y2="64.7658" /><line stroke="rgb(0%,0%,0%)" x1="55.1353" x2="55.8502" y1="64.7658" y2="64.4475" /><line stroke="rgb(0%,0%,0%)" x1="55.8502" x2="58.0" y1="64.4475" y2="63.4904" /><line stroke="rgb(0%,0%,0%)" x1="58.0" x2="58.6331" y1="63.4904" y2="63.0304" /><line stroke="rgb(0%,0%,0%)" x1="58.6331" x2="60.537" y1="63.0304" y2="61.6472" /><line stroke="rgb(0%,0%,0%)" x1="60.537" x2="61.0606" y1="61.6472" y2="61.0656" /><line stroke="rgb(0%,0%,0%)" x1="61.0606" x2="62.6352" y1="61.0656" y2="59.3168" /><line stroke="rgb(0%,0%,0%)" x1="62.6352" x2="63.0265" y1="59.3168" y2="58.639" /><line stroke="rgb(0%,0%,0%)" x1="63.0265" x2="64.2032" y1="58.639" y2="56.6011" /><line stroke="rgb(0%,0%,0%)" x1="64.2032" x2="64.445" y1="56.6011" y2="55.8568" /><line stroke="rgb(0%,0%,0%)" x1="64.445" x2="65.1722" y1="55.8568" y2="53.6187" /><line stroke="rgb(0%,0%,0%)" x1="65.1722" x2="65.254" y1="53.6187" y2="52.8404" /><line stroke="rgb(0%,0%,0%)" x1="65.254" x2="65.5" y1="52.8404" y2="50.5" /><line stroke="rgb(0%,0%,0%)" x1="65.5" x2="65.4182" y1="50.5" y2="49.7217" /><line stroke="rgb(0%,0%,0%)" x1="65.4182" x2="65.1722" y1="49.7217" y2="47.3813" /><line stroke="rgb(0%,0%,0%)" x1="65.1722" x2="64.9304" y1="47.3813" y2="46.637" /><line stroke="rgb(0%,0%,0%)" x1="64.9304" x2="64.2032" y1="46.637" y2="44.3989" /><line stroke="rgb(0%,0%,0%)" x1="64.2032" x2="63.8119" y1="44.3989" y2="43.7212" /><line stroke="rgb(0%,0%,0%)" x1="63.8119" x2="62.6352" y1="43.7212" y2="41.6832" /><line stroke="rgb(0%,0%,0%)" x1="62.6352" x2="62.1116" y1="41.6832" y2="41.1016" /><line stroke="rgb(0%,0%,0%)" x1="62.1116" x2="60.537" y1="41.1016" y2="39.3528" /><line stroke="rgb(0%,0%,0%)" x1="60.537" x2="59.9038" y1="39.3528" y2="38.8928" /><line stroke="rgb(0%,0%,0%)" x1="59.9038" x2="58.0" y1="38.8928" y2="37.5096" /><line stroke="rgb(0%,0%,0%)" x1="58.0" x2="57.2851" y1="37.5096" y2="37.1913" /><line stroke="rgb(0%,0%,0%)" x1="57.2851" x2="55.1353" y1="37.1913" y2="36.2342" /><line stroke="rgb(0%,0%,0%)" x1="55.1353" x2="54.3698" y1="36.2342" y2="36.0714" /><line stroke="rgb(0%,0%,0%)" x1="54.3698" x2="52.0679" y1="36.0714" y2="35.5822" /><line stroke="rgb(0%,0%,0%)" x1="52.0679" x2="51.2853" y1="35.5822" y2="35.5822" /><line stroke="rgb(0%,0%,0%)" x1="51.2853" x2="48.9321" y1="35.5822" y2="35.5822" /><line stroke="rgb(0%,0%,0%)" x1="48.9321" x2="48.1666" y1="35.5822" y2="35.7449" /><line stroke="rgb(0%,0%,0%)" x1="48.1666" x2="45.8647" y1="35.7449" y2="36.2342" /><line stroke="rgb(0%,0%,0%)" x1="45.8647" x2="45.1498" y1="36.2342" y2="36.5525" /><line stroke="rgb(0%,0%,0%)" x1="45.1498" x2="43.0" y1="36.5525" y2="37.5096" /><line stroke="rgb(0%,0%,0%)" x1="43.0" x2="42.3669" y1="37.5096" y2="37.9696" /><line stroke="rgb(0%,0%,0%)" x1="42.3669" x2="40.463" y1="37.9696" y2="39.3528" /><line stroke="rgb(0%,0%,0%)" x1="40.463" x2="39.9394" y1="39.3528" y2="39.9344" /><line stroke="rgb(0%,0%,0%)" x1="39.9394" x2="38.3647" y1="39.9344" y2="41.6832" /><line stroke="rgb(0%,0%,0%)" x1="38.3647" x2="37.9734" y1="41.6832" y2="42.361" /><line stroke="rgb(0%,0%,0%)" x1="37.9734" x2="36.7968" y1="42.361" y2="44.3989" /><line stroke="rgb(0%,0%,0%)" x1="36.7968" x2="36.555" y1="44.3989" y2="45.1432" /><line stroke="rgb(0%,0%,0%)" x1="36.555" x2="35.8278" y1="45.1432" y2="47.3813" /></svg>