<?xml version="1.0" encoding="utf-8" ?>
<svg baseProfile="tiny" height="100%" version="1.2" width="100%" xmlns="http://www.w3.org/2000/svg" xmlns:ev="http://www.w3.org/2001/xml-events" xmlns:xlink="http://www.w3.org/1999/xlink"><defs /><line stroke="rgb(0%,0%,0%)" x1="351.9" x2="351.9" y1="0.5" y2="55.3666" /><line stroke="rgb(0%,0%,0%)" x1="351.9" x2="351.9" y1="55.3666" y2="100.5" /><line stroke="rgb(0%,0%,0%)" x1="256.6151" x2="331.7306" y1="100.5" y2="100.5" /><line stroke="rgb(0%,0%,0%)" x1="331.7306" x2="334.3503" y1="100.5" y2="100.5" /><line stroke="rgb(0%,0%,0%)" x1="334.3503" x2="337.3431" y1="100.5" y2="100.5" /><line stroke="rgb(0%,0%,0%)" x1="337.3431" x2="340.6646" y1="100.5" y2="100.5" /><line stroke="rgb(0%,0%,0%)" x1="340.6646" x2="344.2523" y1="100.5" y2="100.5" /><line stroke="rgb(0%,0%,0%)" x1="344.2523" x2="348.0276" y1="100.5" y2="100.5" /><line stroke="rgb(0%,0%,0%)" x1="348.0276" x2="351.9" y1="100.5" y2="100.5" /><line stroke="rgb(0%,0%,0%)" x1="256.6151" x2="128.2756" y1="100.5" y2="100.5" /><line stroke="rgb(0%,0%,0%)" x1="128.2756" x2="0.5" y1="100.5" y2="100.5" /><line stroke="rgb(0%,0%,0%)" x1="0.5" x2="128.2756" y1="0.5" y2="0.5" /><line stroke="rgb(0%,0%,0%)" x1="128.2756" x2="256.6151" y1="0.5" y2="0.5" /><line stroke="rgb(0%,0%,0%)" x1="256.6151" x2="331.7306" y1="0.5" y2="0.5" /><line stroke="rgb(0%,0%,0%)" x1="331.7306" x2="334.3503" y1="0.5" y2="0.5" /><line stroke="rgb(0%,0%,0%)" x1="334.3503" x2="337.3431" y1="0.5" y2="0.5" /><line stroke="rgb(0%,0%,0%)" x1="337.3431" x2="340.6646" y1="0.5" y2="0.5" /><line stroke="rgb(0%,0%,0%)" x1="340.6646" x2="344.2523" y1="0.5" y2="0.5" /><line stroke="rgb(0%,0%,0%)" x1="344.2523" x2="348.0276" y1="0.5" y2="0.5" /><line stroke="rgb(0%,0%,0%)" x1="348.0276" x2="351.9" y1="0.5" y2="0.5" /><line stroke="rgb(0%,0%,0%)" x1="0.5" x2="0.5" y1="0.5" y2="37.0223" /><line stroke="rgb(0%,0%,0%)" x1="0.5" x2="0.5" y1="37.0223" y2="100.5" /><line stroke="rgb(0%,0%,0%)" x1="135.8278" x2="135.7394" y1="47.3813" y2="48.222" /><line stroke="rgb(0%,0%,0%)" x1="135.7394" x2="135.5" y1="48.222" y2="50.5" /><line stroke="rgb(0%,0%,0%)" x1="135.5" x2="135.5884" y1="50.5" y2="51.3406" /><line stroke="rgb(0%,0%,0%)" x1="135.5884" x2="135.8278" y1="51.3406" y2="53.6187" /><line stroke="rgb(0%,0%,0%)" x1="135.8278" x2="136.089" y1="53.6187" y2="54.4226" /><line stroke="rgb(0%,0%,0%)" x1="136.089" x2="136.7968" y1="54.4226" y2="56.6011" /><line stroke="rgb(0%,0%,0%)" x1="136.7968" x2="137.2195" y1="56.6011" y2="57.3331" /><line stroke="rgb(0%,0%,0%)" x1="137.2195" x2="138.3647" y1="57.3331" y2="59.3168" /><line stroke="rgb(0%,0%,0%)" x1="138.3647" x2="138.9303" y1="59.3168" y2="59.9449" /><line stroke="rgb(0%,0%,0%)" x1="138.9303" x2="140.463" y1="59.9449" y2="61.6472" /><line stroke="rgb(0%,0%,0%)" x1="140.463" x2="141.1469" y1="61.6472" y2="62.144" /><line stroke="rgb(0%,0%,0%)" x1="141.1469" x2="143.0" y1="62.144" y2="63.4904" /><line stroke="rgb(0%,0%,0%)" x1="143.0" x2="143.7722" y1="63.4904" y2="63.8342" /><line stroke="rgb(0%,0%,0%)" x1="143.7722" x2="145.8647" y1="63.8342" y2="64.7658" /><line stroke="rgb(0%,0%,0%)" x1="145.8647" x2="146.6916" y1="64.7658" y2="64.9416" /><line stroke="rgb(0%,0%,0%)" x1="146.6916" x2="148.9321" y1="64.9416" y2="65.4178" /><line stroke="rgb(0%,0%,0%)" x1="148.9321" x2="149.7773" y1="65.4178" y2="65.4178" /><line stroke="rgb(0%,0%,0%)" x1="149.7773" x2="152.0679" y1="65.4178" y2="65.4178" /><line stroke="rgb(0%,0%,0%)" x1="152.0679" x2="152.8947" y1="65.4178" y2="65.2421" /><line stroke="rgb(0%,0%,0%)" x1="152.8947" x2="155.1353" y1="65.2421" y2="64.7658" /><line stroke="rgb(0%,0%,0%)" x1="155.1353" x2="155.9075" y1="64.7658" y2="64.422" /><line stroke="rgb(0%,0%,0%)" x1="155.9075" x2="158.0" y1="64.422" y2="63.4904" /><line stroke="rgb(0%,0%,0%)" x1="158.0" x2="158.6838" y1="63.4904" y2="62.9935" /><line stroke="rgb(0%,0%,0%)" x1="158.6838" x2="160.537" y1="62.9935" y2="61.6472" /><line stroke="rgb(0%,0%,0%)" x1="160.537" x2="161.1026" y1="61.6472" y2="61.019" /><line stroke="rgb(0%,0%,0%)" x1="161.1026" x2="162.6353" y1="61.019" y2="59.3168" /><line stroke="rgb(0%,0%,0%)" x1="162.6353" x2="163.0579" y1="59.3168" y2="58.5847" /><line stroke="rgb(0%,0%,0%)" x1="163.0579" x2="164.2032" y1="58.5847" y2="56.6011" /><line stroke="rgb(0%,0%,0%)" x1="164.2032" x2="164.4644" y1="56.6011" y2="55.7971" /><line stroke="rgb(0%,0%,0%)" x1="164.4644" x2="165.1722" y1="55.7971" y2="53.6187" /><line stroke="rgb(0%,0%,0%)" x1="165.1722" x2="165.2606" y1="53.6187" y2="52.778" /><line stroke="rgb(0%,0%,0%)" x1="165.2606" x2="165.5" y1="52.778" y2="50.5" /><line stroke="rgb(0%,0%,0%)" x1="165.5" x2="165.4116" y1="50.5" y2="49.6594" /><line stroke="rgb(0%,0%,0%)" x1="165.4116" x2="165.1722" y1="49.6594" y2="47.3813" /><line stroke="rgb(0%,0%,0%)" x1="165.1722" x2="164.911" y1="47.3813" y2="46.5774" /><line stroke="rgb(0%,0%,0%)" x1="164.911" x2="164.2032" y1="46.5774" y2="44.3989" /><line stroke="rgb(0%,0%,0%)" x1="164.2032" x2="163.7805" y1="44.3989" y2="43.6669" /><line stroke="rgb(0%,0%,0%)" x1="163.7805" x2="162.6353" y1="43.6669" y2="41.6832" /><line stroke="rgb(0%,0%,0%)" x1="162.6353" x2="162.0696" y1="41.6832" y2="41.0551" /><line stroke="rgb(0%,0%,0%)" x1="162.0696" x2="160.537" y1="41.0551" y2="39.3528" /><line stroke="rgb(0%,0%,0%)" x1="160.537" x2="159.8531" y1="39.3528" y2="38.856" /><line stroke="rgb(0%,0%,0%)" x1="159.8531" x2="158.0" y1="38.856" y2="37.5096" /><line stroke="rgb(0%,0%,0%)" x1="158.0" x2="157.2278" y1="37.5096" y2="37.1658" /><line stroke="rgb(0%,0%,0%)" x1="157.2278" x2="155.1353" y1="37.1658" y2="36.2342" /><line stroke="rgb(0%,0%,0%)" x1="155.1353" x2="154.3084" y1="36.2342" y2="36.0584" /><line stroke="rgb(0%,0%,0%)" x1="154.3084" x2="152.0679" y1="36.0584" y2="35.5822" /><line stroke="rgb(0%,0%,0%)" x1="152.0679" x2="151.2226" y1="35.5822" y2="35.5822" /><line stroke="rgb(0%,0%,0%)" x1="151.2226" x2="148.9321" y1="35.5822" y2="35.5822" /><line stroke="rgb(0%,0%,0%)" x1="148.9321" x2="148.1053" y1="35.5822" y2="35.7579" /><line stroke="rgb(0%,0%,0%)" x1="148.1053" x2="145.8647" y1="35.7579" y2="36.2342" /><line stroke="rgb(0%,0%,0%)" x1="145.8647" x2="145.0925" y1="36.2342" y2="36.578" /><line stroke="rgb(0%,0%,0%)" x1="145.0925" x2="143.0" y1="36.578" y2="37.5096" /><line stroke="rgb(0%,0%,0%)" x1="143.0" x2="142.3161" y1="37.5096" y2="38.0065" /><line stroke="rgb(0%,0%,0%)" x1="142.3161" x2="140.463" y1="38.0065" y2="39.3528" /><line stroke="rgb(0%,0%,0%)" x1="140.463" x2="139.8974" y1="39.3528" y2="39.981" /><line stroke="rgb(0%,0%,0%)" x1="139.8974" x2="138.3647" y1="39.981" y2="41.6832" /><line stroke="rgb(0%,0%,0%)" x1="138.3647" x2="137.9421" y1="41.6832" y2="42.4153" /><line stroke="rgb(0%,0%,0%)" x1="137.9421" x2="136.7968" y1="42.4153" y2="44.3989" /><line stroke="rgb(0%,0%,0%)" x1="136.7968" x2="136.5356" y1="44.3989" y2="45.2029" /><line stroke="rgb(0%,0%,0%)" x1="136.5356" x2="135.8278" y1="45.2029" y2="47.3813" /><line stroke="rgb(0%,0%,0%)" x1="35.8278" x2="35.7394" y1="47.3813" y2="48.222" /><line stroke="rgb(0%,0%,0%)" x1="35.7394" x2="35.5" y1="48.222" y2="50.5" /><line stroke="rgb(0%,0%,0%)" x1="35.5" x2="35.5884" y1="50.5" y2="51.3406" /><line stroke="rgb(0%,0%,0%)" x1="35.5884" x2="35.8278" y1="51.3406" y2="53.6187" /><line stroke="rgb(0%,0%,0%)" x1="35.8278" x2="36.089" y1="53.6187" y2="54.4226" /><line stroke="rgb(0%,0%,0%)" x1="36.089" x2="36.7968" y1="54.4226" y2="56.6011" /><line stroke="rgb(0%,0%,0%)" x1="36.7968" x2="37.2194" y1="56.6011" y2="57.3331" /><line stroke="rgb(0%,0%,0%)" x1="37.2194" x2="38.3647" y1="57.3331" y2="59.3168" /><line stroke="rgb(0%,0%,0%)" x1="38.3647" x2="38.9303" y1="59.3168" y2="59.9449" /><line stroke="rgb(0%,0%,0%)" x1="38.9303" x2="40.463" y1="59.9449" y2="61.6472" /><line stroke="rgb(0%,0%,0%)" x1="40.463" x2="41.1469" y1="61.6472" y2="62.144" /><line stroke="rgb(0%,0%,0%)" x1="41.1469" x2="43.0" y1="62.144" y2="63.4904" /><line stroke="rgb(0%,0%,0%)" x1="43.0" x2="43.7722" y1="63.4904" y2="63.8342" /><line stroke="rgb(0%,0%,0%)" x1="43.7722" x2="45.8647" y1="63.8342" y2="64.7658" /><line stroke="rgb(0%,0%,0%)" x1="45.8647" x2="46.6915" y1="64.7658" y2="64.9416" /><line stroke="rgb(0%,0%,0%)" x1="46.6915" x2="48.9321" y1="64.9416" y2="65.4178" /><line stroke="rgb(0%,0%,0%)" x1="48.9321" x2="49.7773" y1="65.4178" y2="65.4178" /><line stroke="rgb(0%,0%,0%)" x1="49.7773" x2="52.0679" y1="65.4178" y2="65.4178" /><line stroke="rgb(0%,0%,0%)" x1="52.0679" x2="52.8947" y1="65.4178" y2="65.2421" /><line stroke="rgb(0%,0%,0%)" x1="52.8947" x2="55.1353" y1="65.2421" y2="64.7658" /><line stroke="rgb(0%,0%,0%)" x1="55.1353" x2="55.9075" y1="64.7658" y2="64.422" /><line stroke="rgb(0%,0%,0%)" x1="55.9075" x2="58.0" y1="64.422" y2="63.4904" /><line stroke="rgb(0%,0%,0%)" x1="58.0" x2="58.6838" y1="63.4904" y2="62.9935" /><line stroke="rgb(0%,0%,0%)" x1="58.6838" x2="60.537" y1="62.9935" y2="61.6472" /><line stroke="rgb(0%,0%,0%)" x1="60.537" x2="61.1026" y1="61.6472" y2="61.019" /><line stroke="rgb(0%,0%,0%)" x1="61.1026" x2="62.6352" y1="61.019" y2="59.3168" /><line stroke="rgb(0%,0%,0%)" x1="62.6352" x2="63.0579" y1="59.3168" y2="58.5847" /><line stroke="rgb(0%,0%,0%)" x1="63.0579" x2="64.2032" y1="58.5847" y2="56.6011" /><line stroke="rgb(0%,0%,0%)" x1="64.2032" x2="64.4644" y1="56.6011" y2="55.7971" /><line stroke="rgb(0%,0%,0%)" x1="64.4644" x2="65.1722" y1="55.7971" y2="53.6187" /><line stroke="rgb(0%,0%,0%)" x1="65.1722" x2="65.2606" y1="53.6187" y2="52.778" /><line stroke="rgb(0%,0%,0%)" x1="65.2606" x2="65.5" y1="52.778" y2="50.5" /><line stroke="rgb(0%,0%,0%)" x1="65.5" x2="65.4116" y1="50.5" y2="49.6594" /><line stroke="rgb(0%,0%,0%)" x1="65.4116" x2="65.1722" y1="49.6594" y2="47.3813" /><line stroke="rgb(0%,0%,0%)" x1="65.1722" x2="64.911" y1="47.3813" y2="46.5774" /><line stroke="rgb(0%,0%,0%)" x1="64.911" x2="64.2032" y1="46.5774" y2="44.3989" /><line stroke="rgb(0%,0%,0%)" x1="64.2032" x2="63.7805" y1="44.3989" y2="43.6669" /><line stroke="rgb(0%,0%,0%)" x1="63.7805" x2="62.6352" y1="43.6669" y2="41.6832" /><line stroke="rgb(0%,0%,0%)" x1="62.6352" x2="62.0696" y1="41.6832" y2="41.0551" /><line stroke="rgb(0%,0%,0%)" x1="62.0696" x2="60.537" y1="41.0551" y2="39.3528" /><line stroke="rgb(0%,0%,0%)" x1="60.537" x2="59.8531" y1="39.3528" y2="38.856" /><line stroke="rgb(0%,0%,0%)" x1="59.8531" x2="58.0" y1="38.856" y2="37.5096" /><line stroke="rgb(0%,0%,0%)" x1="58.0" x2="57.2278" y1="37.5096" y2="37.1658" /><line stroke="rgb(0%,0%,0%)" x1="57.2278" x2="55.1353" y1="37.1658" y2="36.2342" /><line stroke="rgb(0%,0%,0%)" x1="55.1353" x2="54.3084" y1="36.2342" y2="36.0584" /><line stroke="rgb(0%,0%,0%)" x1="54.3084" x2="52.0679" y1="36.0584" y2="35.5822" /><line stroke="rgb(0%,0%,0%)" x1="52.0679" x2="51.2226" y1="35.5822" y2="35.5822" /><line stroke="rgb(0%,0%,0%)" x1="51.2226" x2="48.9321" y1="35.5822" y2="35.5822" /><line stroke="rgb(0%,0%,0%)" x1="48.9321" x2="48.1053" y1="35.5822" y2="35.7579" /><line stroke="rgb(0%,0%,0%)" x1="48.1053" x2="45.8647" y1="35.7579" y2="36.2342" /><line stroke="rgb(0%,0%,0%)" x1="45.8647" x2="45.0925" y1="36.2342" y2="36.578" /><line stroke="rgb(0%,0%,0%)" x1="45.0925" x2="43.0" y1="36.578" y2="37.5096" /><line stroke="rgb(0%,0%,0%)" x1="43.0" x2="42.3162" y1="37.5096" y2="38.0065" /><line stroke="rgb(0%,0%,0%)" x1="42.3162" x2="40.463" y1="38.0065" y2="39.3528" /><line stroke="rgb(0%,0%,0%)" x1="40.463" x2="39.8974" y1="39.3528" y2="39.981" /><line stroke="rgb(0%,0%,0%)" x1="39.8974" x2="38.3647" y1="39.981" y2="41.6832" /><line stroke="rgb(0%,0%,0%)" x1="38.3647" x2="37.9421" y1="41.6832" y2="42.4153" /><line stroke="rgb(0%,0%,0%)" x1="37.9421" x2="36.7968" y1="42.4153" y2="44.3989" /><line stroke="rgb(0%,0%,0%)" x1="36.7968" x2="36.5356" y1="44.3989" y2="45.2029" /><line stroke="rgb(0%,0%,0%)" x1="36.5356" x2="35.8278" y1="45.2029" y2="47.3813" /></svg>