<?xml version="1.0" encoding="utf-8" ?>
<svg baseProfile="tiny" height="100%" version="1.2" width="100%" xmlns="http://www.w3.org/2000/svg" xmlns:ev="http://www.w3.org/2001/xml-events" xmlns:xlink="http://www.w3.org/1999/xlink"><defs /><line stroke="rgb(0%,0%,0%)" x1="351.9" x2="351.9" y1="0.5" y2="56.2307" /><line stroke="rgb(0%,0%,0%)" x1="351.9" x2="351.9" y1="56.2307" y2="100.5" /><line stroke="rgb(0%,0%,0%)" x1="255.1146" x2="331.4129" y1="100.5" y2="100.5" /><line stroke="rgb(0%,0%,0%)" x1="331.4129" x2="334.0739" y1="100.5" y2="100.5" /><line stroke="rgb(0%,0%,0%)" x1="334.0739" x2="337.1138" y1="100.5" y2="100.5" /><line stroke="rgb(0%,0%,0%)" x1="337.1138" x2="340.4876" y1="100.5" y2="100.5" /><line stroke="rgb(0%,0%,0%)" x1="340.4876" x2="344.1318" y1="100.5" y2="100.5" /><line stroke="rgb(0%,0%,0%)" x1="344.1318" x2="347.9666" y1="100.5" y2="100.5" /><line stroke="rgb(0%,0%,0%)" x1="347.9666" x2="351.9" y1="100.5" y2="100.5" /><line stroke="rgb(0%,0%,0%)" x1="255.1146" x2="130.2878" y1="100.5" y2="100.5" /><line stroke="rgb(0%,0%,0%)" x1="130.2878" x2="0.5" y1="100.5" y2="100.5" /><line stroke="rgb(0%,0%,0%)" x1="0.5" x2="130.2878" y1="0.5" y2="0.5" /><line stroke="rgb(0%,0%,0%)" x1="130.2878" x2="255.1146" y1="0.5" y2="0.5" /><line stroke="rgb(0%,0%,0%)" x1="255.1146" x2="331.4129" y1="0.5" y2="0.5" /><line stroke="rgb(0%,0%,0%)" x1="331.4129" x2="334.0739" y1="0.5" y2="0.5" /><line stroke="rgb(0%,0%,0%)" x1="334.0739" x2="337.1138" y1="0.5" y2="0.5" /><line stroke="rgb(0%,0%,0%)" x1="337.1138" x2="340.4876" y1="0.5" y2="0.5" /><line stroke="rgb(0%,0%,0%)" x1="340.4876" x2="344.1318" y1="0.5" y2="0.5" /><line stroke="rgb(0%,0%,0%)" x1="344.1318" x2="347.9666" y1="0.5" y2="0.5" /><line stroke="rgb(0%,0%,0%)" x1="347.9666" x2="351.9" y1="0.5" y2="0.5" /><line stroke="rgb(0%,0%,0%)" x1="0.5" x2="0.5" y1="0.5" y2="36.0227" /><line stroke="rgb(0%,0%,0%)" x1="0.5" x2="0.5" y1="36.0227" y2="100.5" /><line stroke="rgb(0%,0%,0%)" x1="135.8278" x2="135.7329" y1="47.3813" y2="48.2843" /><line stroke="rgb(0%,0%,0%)" x1="135.7329" x2="135.5" y1="48.2843" y2="50.5" /><line stroke="rgb(0%,0%,0%)" x1="135.5" x2="135.5949" y1="50.5" y2="51.403" /><line stroke="rgb(0%,0%,0%)" x1="135.5949" x2="135.8278" y1="51.403" y2="53.6187" /><line stroke="rgb(0%,0%,0%)" x1="135.8278" x2="136.1084" y1="53.6187" y2="54.4822" /><line stroke="rgb(0%,0%,0%)" x1="136.1084" x2="136.7968" y1="54.4822" y2="56.6011" /><line stroke="rgb(0%,0%,0%)" x1="136.7968" x2="137.2508" y1="56.6011" y2="57.3874" /><line stroke="rgb(0%,0%,0%)" x1="137.2508" x2="138.3647" y1="57.3874" y2="59.3168" /><line stroke="rgb(0%,0%,0%)" x1="138.3647" x2="138.9723" y1="59.3168" y2="59.9915" /><line stroke="rgb(0%,0%,0%)" x1="138.9723" x2="140.463" y1="59.9915" y2="61.6472" /><line stroke="rgb(0%,0%,0%)" x1="140.463" x2="141.1976" y1="61.6472" y2="62.1809" /><line stroke="rgb(0%,0%,0%)" x1="141.1976" x2="143.0" y1="62.1809" y2="63.4904" /><line stroke="rgb(0%,0%,0%)" x1="143.0" x2="143.8295" y1="63.4904" y2="63.8597" /><line stroke="rgb(0%,0%,0%)" x1="143.8295" x2="145.8647" y1="63.8597" y2="64.7658" /><line stroke="rgb(0%,0%,0%)" x1="145.8647" x2="146.7529" y1="64.7658" y2="64.9546" /><line stroke="rgb(0%,0%,0%)" x1="146.7529" x2="148.9321" y1="64.9546" y2="65.4178" /><line stroke="rgb(0%,0%,0%)" x1="148.9321" x2="149.84" y1="65.4178" y2="65.4178" /><line stroke="rgb(0%,0%,0%)" x1="149.84" x2="152.0679" y1="65.4178" y2="65.4178" /><line stroke="rgb(0%,0%,0%)" x1="152.0679" x2="152.9561" y1="65.4178" y2="65.229" /><line stroke="rgb(0%,0%,0%)" x1="152.9561" x2="155.1353" y1="65.229" y2="64.7658" /><line stroke="rgb(0%,0%,0%)" x1="155.1353" x2="155.9647" y1="64.7658" y2="64.3965" /><line stroke="rgb(0%,0%,0%)" x1="155.9647" x2="158.0" y1="64.3965" y2="63.4904" /><line stroke="rgb(0%,0%,0%)" x1="158.0" x2="158.7346" y1="63.4904" y2="62.9567" /><line stroke="rgb(0%,0%,0%)" x1="158.7346" x2="160.537" y1="62.9567" y2="61.6472" /><line stroke="rgb(0%,0%,0%)" x1="160.537" x2="161.1445" y1="61.6472" y2="60.9724" /><line stroke="rgb(0%,0%,0%)" x1="161.1445" x2="162.6353" y1="60.9724" y2="59.3168" /><line stroke="rgb(0%,0%,0%)" x1="162.6353" x2="163.0892" y1="59.3168" y2="58.5305" /><line stroke="rgb(0%,0%,0%)" x1="163.0892" x2="164.2032" y1="58.5305" y2="56.6011" /><line stroke="rgb(0%,0%,0%)" x1="164.2032" x2="164.4838" y1="56.6011" y2="55.7375" /><line stroke="rgb(0%,0%,0%)" x1="164.4838" x2="165.1722" y1="55.7375" y2="53.6187" /><line stroke="rgb(0%,0%,0%)" x1="165.1722" x2="165.2671" y1="53.6187" y2="52.7157" /><line stroke="rgb(0%,0%,0%)" x1="165.2671" x2="165.5" y1="52.7157" y2="50.5" /><line stroke="rgb(0%,0%,0%)" x1="165.5" x2="165.4051" y1="50.5" y2="49.597" /><line stroke="rgb(0%,0%,0%)" x1="165.4051" x2="165.1722" y1="49.597" y2="47.3813" /><line stroke="rgb(0%,0%,0%)" x1="165.1722" x2="164.8916" y1="47.3813" y2="46.5178" /><line stroke="rgb(0%,0%,0%)" x1="164.8916" x2="164.2032" y1="46.5178" y2="44.3989" /><line stroke="rgb(0%,0%,0%)" x1="164.2032" x2="163.7492" y1="44.3989" y2="43.6126" /><line stroke="rgb(0%,0%,0%)" x1="163.7492" x2="162.6353" y1="43.6126" y2="41.6832" /><line stroke="rgb(0%,0%,0%)" x1="162.6353" x2="162.0277" y1="41.6832" y2="41.0085" /><line stroke="rgb(0%,0%,0%)" x1="162.0277" x2="160.537" y1="41.0085" y2="39.3528" /><line stroke="rgb(0%,0%,0%)" x1="160.537" x2="159.8024" y1="39.3528" y2="38.8191" /><line stroke="rgb(0%,0%,0%)" x1="159.8024" x2="158.0" y1="38.8191" y2="37.5096" /><line stroke="rgb(0%,0%,0%)" x1="158.0" x2="157.1705" y1="37.5096" y2="37.1403" /><line stroke="rgb(0%,0%,0%)" x1="157.1705" x2="155.1353" y1="37.1403" y2="36.2342" /><line stroke="rgb(0%,0%,0%)" x1="155.1353" x2="154.2471" y1="36.2342" y2="36.0454" /><line stroke="rgb(0%,0%,0%)" x1="154.2471" x2="152.0679" y1="36.0454" y2="35.5822" /><line stroke="rgb(0%,0%,0%)" x1="152.0679" x2="151.16" y1="35.5822" y2="35.5822" /><line stroke="rgb(0%,0%,0%)" x1="151.16" x2="148.9321" y1="35.5822" y2="35.5822" /><line stroke="rgb(0%,0%,0%)" x1="148.9321" x2="148.0439" y1="35.5822" y2="35.7709" /><line stroke="rgb(0%,0%,0%)" x1="148.0439" x2="145.8647" y1="35.7709" y2="36.2342" /><line stroke="rgb(0%,0%,0%)" x1="145.8647" x2="145.0353" y1="36.2342" y2="36.6035" /><line stroke="rgb(0%,0%,0%)" x1="145.0353" x2="143.0" y1="36.6035" y2="37.5096" /><line stroke="rgb(0%,0%,0%)" x1="143.0" x2="142.2654" y1="37.5096" y2="38.0433" /><line stroke="rgb(0%,0%,0%)" x1="142.2654" x2="140.463" y1="38.0433" y2="39.3528" /><line stroke="rgb(0%,0%,0%)" x1="140.463" x2="139.8555" y1="39.3528" y2="40.0276" /><line stroke="rgb(0%,0%,0%)" x1="139.8555" x2="138.3647" y1="40.0276" y2="41.6832" /><line stroke="rgb(0%,0%,0%)" x1="138.3647" x2="137.9108" y1="41.6832" y2="42.4695" /><line stroke="rgb(0%,0%,0%)" x1="137.9108" x2="136.7968" y1="42.4695" y2="44.3989" /><line stroke="rgb(0%,0%,0%)" x1="136.7968" x2="136.5162" y1="44.3989" y2="45.2625" /><line stroke="rgb(0%,0%,0%)" x1="136.5162" x2="135.8278" y1="45.2625" y2="47.3813" /><line stroke="rgb(0%,0%,0%)" x1="35.8278" x2="35.7329" y1="47.3813" y2="48.2843" /><line stroke="rgb(0%,0%,0%)" x1="35.7329" x2="35.5" y1="48.2843" y2="50.5" /><line stroke="rgb(0%,0%,0%)" x1="35.5" x2="35.5949" y1="50.5" y2="51.403" /><line stroke="rgb(0%,0%,0%)" x1="35.5949" x2="35.8278" y1="51.403" y2="53.6187" /><line stroke="rgb(0%,0%,0%)" x1="35.8278" x2="36.1084" y1="53.6187" y2="54.4822" /><line stroke="rgb(0%,0%,0%)" x1="36.1084" x2="36.7968" y1="54.4822" y2="56.6011" /><line stroke="rgb(0%,0%,0%)" x1="36.7968" x2="37.2508" y1="56.6011" y2="57.3874" /><line stroke="rgb(0%,0%,0%)" x1="37.2508" x2="38.3647" y1="57.3874" y2="59.3168" /><line stroke="rgb(0%,0%,0%)" x1="38.3647" x2="38.9723" y1="59.3168" y2="59.9915" /><line stroke="rgb(0%,0%,0%)" x1="38.9723" x2="40.463" y1="59.9915" y2="61.6472" /><line stroke="rgb(0%,0%,0%)" x1="40.463" x2="41.1976" y1="61.6472" y2="62.1809" /><line stroke="rgb(0%,0%,0%)" x1="41.1976" x2="43.0" y1="62.1809" y2="63.4904" /><line stroke="rgb(0%,0%,0%)" x1="43.0" x2="43.8295" y1="63.4904" y2="63.8597" /><line stroke="rgb(0%,0%,0%)" x1="43.8295" x2="45.8647" y1="63.8597" y2="64.7658" /><line stroke="rgb(0%,0%,0%)" x1="45.8647" x2="46.7529" y1="64.7658" y2="64.9546" /><line stroke="rgb(0%,0%,0%)" x1="46.7529" x2="48.9321" y1="64.9546" y2="65.4178" /><line stroke="rgb(0%,0%,0%)" x1="48.9321" x2="49.84" y1="65.4178" y2="65.4178" /><line stroke="rgb(0%,0%,0%)" x1="49.84" x2="52.0679" y1="65.4178" y2="65.4178" /><line stroke="rgb(0%,0%,0%)" x1="52.0679" x2="52.9561" y1="65.4178" y2="65.229" /><line stroke="rgb(0%,0%,0%)" x1="52.9561" x2="55.1353" y1="65.229" y2="64.7658" /><line stroke="rgb(0%,0%,0%)" x1="55.1353" x2="55.9647" y1="64.7658" y2="64.3965" /><line stroke="rgb(0%,0%,0%)" x1="55.9647" x2="58.0" y1="64.3965" y2="63.4904" /><line stroke="rgb(0%,0%,0%)" x1="58.0" x2="58.7346" y1="63.4904" y2="62.9567" /><line stroke="rgb(0%,0%,0%)" x1="58.7346" x2="60.537" y1="62.9567" y2="61.6472" /><line stroke="rgb(0%,0%,0%)" x1="60.537" x2="61.1445" y1="61.6472" y2="60.9724" /><line stroke="rgb(0%,0%,0%)" x1="61.1445" x2="62.6352" y1="60.9724" y2="59.3168" /><line stroke="rgb(0%,0%,0%)" x1="62.6352" x2="63.0892" y1="59.3168" y2="58.5305" /><line stroke="rgb(0%,0%,0%)" x1="63.0892" x2="64.2032" y1="58.5305" y2="56.6011" /><line stroke="rgb(0%,0%,0%)" x1="64.2032" x2="64.4838" y1="56.6011" y2="55.7375" /><line stroke="rgb(0%,0%,0%)" x1="64.4838" x2="65.1722" y1="55.7375" y2="53.6187" /><line stroke="rgb(0%,0%,0%)" x1="65.1722" x2="65.2671" y1="53.6187" y2="52.7157" /><line stroke="rgb(0%,0%,0%)" x1="65.2671" x2="65.5" y1="52.7157" y2="50.5" /><line stroke="rgb(0%,0%,0%)" x1="65.5" x2="65.4051" y1="50.5" y2="49.597" /><line stroke="rgb(0%,0%,0%)" x1="65.4051" x2="65.1722" y1="49.597" y2="47.3813" /><line stroke="rgb(0%,0%,0%)" x1="65.1722" x2="64.8916" y1="47.3813" y2="46.5178" /><line stroke="rgb(0%,0%,0%)" x1="64.8916" x2="64.2032" y1="46.5178" y2="44.3989" /><line stroke="rgb(0%,0%,0%)" x1="64.2032" x2="63.7492" y1="44.3989" y2="43.6126" /><line stroke="rgb(0%,0%,0%)" x1="63.7492" x2="62.6352" y1="43.6126" y2="41.6832" /><line stroke="rgb(0%,0%,0%)" x1="62.6352" x2="62.0277" y1="41.6832" y2="41.0085" /><line stroke="rgb(0%,0%,0%)" x1="62.0277" x2="60.537" y1="41.0085" y2="39.3528" /><line stroke="rgb(0%,0%,0%)" x1="60.537" x2="59.8024" y1="39.3528" y2="38.8191" /><line stroke="rgb(0%,0%,0%)" x1="59.8024" x2="58.0" y1="38.8191" y2="37.5096" /><line stroke="rgb(0%,0%,0%)" x1="58.0" x2="57.1705" y1="37.5096" y2="37.1403" /><line stroke="rgb(0%,0%,0%)" x1="57.1705" x2="55.1353" y1="37.1403" y2="36.2342" /><line stroke="rgb(0%,0%,0%)" x1="55.1353" x2="54.2471" y1="36.2342" y2="36.0454" /><line stroke="rgb(0%,0%,0%)" x1="54.2471" x2="52.0679" y1="36.0454" y2="35.5822" /><line stroke="rgb(0%,0%,0%)" x1="52.0679" x2="51.1599" y1="35.5822" y2="35.5822" /><line stroke="rgb(0%,0%,0%)" x1="51.1599" x2="48.9321" y1="35.5822" y2="35.5822" /><line stroke="rgb(0%,0%,0%)" x1="48.9321" x2="48.0439" y1="35.5822" y2="35.7709" /><line stroke="rgb(0%,0%,0%)" x1="48.0439" x2="45.8647" y1="35.7709" y2="36.2342" /><line stroke="rgb(0%,0%,0%)" x1="45.8647" x2="45.0353" y1="36.2342" y2="36.6035" /><line stroke="rgb(0%,0%,0%)" x1="45.0353" x2="43.0" y1="36.6035" y2="37.5096" /><line stroke="rgb(0%,0%,0%)" x1="43.0" x2="42.2654" y1="37.5096" y2="38.0433" /><line stroke="rgb(0%,0%,0%)" x1="42.2654" x2="40.463" y1="38.0433" y2="39.3528" /><line stroke="rgb(0%,0%,0%)" x1="40.463" x2="39.8555" y1="39.3528" y2="40.0276" /><line stroke="rgb(0%,0%,0%)" x1="39.8555" x2="38.3647" y1="40.0276" y2="41.6832" /><line stroke="rgb(0%,0%,0%)" x1="38.3647" x2="37.9108" y1="41.6832" y2="42.4695" /><line stroke="rgb(0%,0%,0%)" x1="37.9108" x2="36.7968" y1="42.4695" y2="44.3989" /><line stroke="rgb(0%,0%,0%)" x1="36.7968" x2="36.5162" y1="44.3989" y2="45.2625" /><line stroke="rgb(0%,0%,0%)" x1="36.5162" x2="35.8278" y1="45.2625" y2="47.3813" /></svg>