<?xml version="1.0" encoding="utf-8" ?>
<svg baseProfile="tiny" height="100%" version="1.2" width="100%" xmlns="http://www.w3.org/2000/svg" xmlns:ev="http://www.w3.org/2001/xml-events" xmlns:xlink="http://www.w3.org/1999/xlink"><defs /><line stroke="rgb(0%,0%,0%)" x1="351.9" x2="351.9" y1="0.5" y2="57.0947" /><line stroke="rgb(0%,0%,0%)" x1="351.9" x2="351.9" y1="57.0947" y2="100.5" /><line stroke="rgb(0%,0%,0%)" x1="253.614" x2="331.0953" y1="100.5" y2="100.5" /><line stroke="rgb(0%,0%,0%)" x1="331.0953" x2="333.7975" y1="100.5" y2="100.5" /><line stroke="rgb(0%,0%,0%)" x1="333.7975" x2="336.8846" y1="100.5" y2="100.5" /><line stroke="rgb(0%,0%,0%)" x1="336.8846" x2="340.3107" y1="100.5" y2="100.5" /><line stroke="rgb(0%,0%,0%)" x1="340.3107" x2="344.0114" y1="100.5" y2="100.5" /><line stroke="rgb(0%,0%,0%)" x1="344.0114" x2="347.9056" y1="100.5" y2="100.5" /><line stroke="rgb(0%,0%,0%)" x1="347.9056" x2="351.9" y1="100.5" y2="100.5" /><line stroke="rgb(0%,0%,0%)" x1="253.614" x2="132.3001" y1="100.5" y2="100.5" /><line stroke="rgb(0%,0%,0%)" x1="132.3001" x2="0.5" y1="100.5" y2="100.5" /><line stroke="rgb(0%,0%,0%)" x1="0.5" x2="132.3001" y1="0.5" y2="0.5" /><line stroke="rgb(0%,0%,0%)" x1="132.3001" x2="253.614" y1="0.5" y2="0.5" /><line stroke="rgb(0%,0%,0%)" x1="253.614" x2="331.0953" y1="0.5" y2="0.5" /><line stroke="rgb(0%,0%,0%)" x1="331.0953" x2="333.7975" y1="0.5" y2="0.5" /><line stroke="rgb(0%,0%,0%)" x1="333.7975" x2="336.8846" y1="0.5" y2="0.5" /><line stroke="rgb(0%,0%,0%)" x1="336.8846" x2="340.3107" y1="0.5" y2="0.5" /><line stroke="rgb(0%,0%,0%)" x1="340.3107" x2="344.0114" y1="0.5" y2="0.5" /><line stroke="rgb(0%,0%,0%)" x1="344.0114" x2="347.9056" y1="0.5" y2="0.5" /><line stroke="rgb(0%,0%,0%)" x1="347.9056" x2="351.9" y1="0.5" y2="0.5" /><line stroke="rgb(0%,0%,0%)" x1="0.5" x2="0.5" y1="0.5" y2="35.023" /><line stroke="rgb(0%,0%,0%)" x1="0.5" x2="0.5" y1="35.023" y2="100.5" /><line stroke="rgb(0%,0%,0%)" x1="135.8278" x2="135.7263" y1="47.3813" y2="48.3467" /><line stroke="rgb(0%,0%,0%)" x1="135.7263" x2="135.5" y1="48.3467" y2="50.5" /><line stroke="rgb(0%,0%,0%)" x1="135.5" x2="135.6015" y1="50.5" y2="51.4654" /><line stroke="rgb(0%,0%,0%)" x1="135.6015" x2="135.8278" y1="51.4654" y2="53.6187" /><line stroke="rgb(0%,0%,0%)" x1="135.8278" x2="136.1277" y1="53.6187" y2="54.5418" /><line stroke="rgb(0%,0%,0%)" x1="136.1277" x2="136.7968" y1="54.5418" y2="56.6011" /><line stroke="rgb(0%,0%,0%)" x1="136.7968" x2="137.2822" y1="56.6011" y2="57.4417" /><line stroke="rgb(0%,0%,0%)" x1="137.2822" x2="138.3647" y1="57.4417" y2="59.3168" /><line stroke="rgb(0%,0%,0%)" x1="138.3647" x2="139.0142" y1="59.3168" y2="60.0381" /><line stroke="rgb(0%,0%,0%)" x1="139.0142" x2="140.463" y1="60.0381" y2="61.6472" /><line stroke="rgb(0%,0%,0%)" x1="140.463" x2="141.2483" y1="61.6472" y2="62.2177" /><line stroke="rgb(0%,0%,0%)" x1="141.2483" x2="143.0" y1="62.2177" y2="63.4904" /><line stroke="rgb(0%,0%,0%)" x1="143.0" x2="143.8867" y1="63.4904" y2="63.8852" /><line stroke="rgb(0%,0%,0%)" x1="143.8867" x2="145.8647" y1="63.8852" y2="64.7658" /><line stroke="rgb(0%,0%,0%)" x1="145.8647" x2="146.8142" y1="64.7658" y2="64.9677" /><line stroke="rgb(0%,0%,0%)" x1="146.8142" x2="148.9321" y1="64.9677" y2="65.4178" /><line stroke="rgb(0%,0%,0%)" x1="148.9321" x2="149.9027" y1="65.4178" y2="65.4178" /><line stroke="rgb(0%,0%,0%)" x1="149.9027" x2="152.0679" y1="65.4178" y2="65.4178" /><line stroke="rgb(0%,0%,0%)" x1="152.0679" x2="153.0174" y1="65.4178" y2="65.216" /><line stroke="rgb(0%,0%,0%)" x1="153.0174" x2="155.1353" y1="65.216" y2="64.7658" /><line stroke="rgb(0%,0%,0%)" x1="155.1353" x2="156.022" y1="64.7658" y2="64.371" /><line stroke="rgb(0%,0%,0%)" x1="156.022" x2="158.0" y1="64.371" y2="63.4904" /><line stroke="rgb(0%,0%,0%)" x1="158.0" x2="158.7853" y1="63.4904" y2="62.9198" /><line stroke="rgb(0%,0%,0%)" x1="158.7853" x2="160.537" y1="62.9198" y2="61.6472" /><line stroke="rgb(0%,0%,0%)" x1="160.537" x2="161.1865" y1="61.6472" y2="60.9258" /><line stroke="rgb(0%,0%,0%)" x1="161.1865" x2="162.6353" y1="60.9258" y2="59.3168" /><line stroke="rgb(0%,0%,0%)" x1="162.6353" x2="163.1206" y1="59.3168" y2="58.4762" /><line stroke="rgb(0%,0%,0%)" x1="163.1206" x2="164.2032" y1="58.4762" y2="56.6011" /><line stroke="rgb(0%,0%,0%)" x1="164.2032" x2="164.5031" y1="56.6011" y2="55.6779" /><line stroke="rgb(0%,0%,0%)" x1="164.5031" x2="165.1722" y1="55.6779" y2="53.6187" /><line stroke="rgb(0%,0%,0%)" x1="165.1722" x2="165.2737" y1="53.6187" y2="52.6533" /><line stroke="rgb(0%,0%,0%)" x1="165.2737" x2="165.5" y1="52.6533" y2="50.5" /><line stroke="rgb(0%,0%,0%)" x1="165.5" x2="165.3985" y1="50.5" y2="49.5346" /><line stroke="rgb(0%,0%,0%)" x1="165.3985" x2="165.1722" y1="49.5346" y2="47.3813" /><line stroke="rgb(0%,0%,0%)" x1="165.1722" x2="164.8723" y1="47.3813" y2="46.4582" /><line stroke="rgb(0%,0%,0%)" x1="164.8723" x2="164.2032" y1="46.4582" y2="44.3989" /><line stroke="rgb(0%,0%,0%)" x1="164.2032" x2="163.7178" y1="44.3989" y2="43.5583" /><line stroke="rgb(0%,0%,0%)" x1="163.7178" x2="162.6353" y1="43.5583" y2="41.6832" /><line stroke="rgb(0%,0%,0%)" x1="162.6353" x2="161.9857" y1="41.6832" y2="40.9619" /><line stroke="rgb(0%,0%,0%)" x1="161.9857" x2="160.537" y1="40.9619" y2="39.3528" /><line stroke="rgb(0%,0%,0%)" x1="160.537" x2="159.7517" y1="39.3528" y2="38.7823" /><line stroke="rgb(0%,0%,0%)" x1="159.7517" x2="158.0" y1="38.7823" y2="37.5096" /><line stroke="rgb(0%,0%,0%)" x1="158.0" x2="157.1132" y1="37.5096" y2="37.1148" /><line stroke="rgb(0%,0%,0%)" x1="157.1132" x2="155.1353" y1="37.1148" y2="36.2342" /><line stroke="rgb(0%,0%,0%)" x1="155.1353" x2="154.1858" y1="36.2342" y2="36.0323" /><line stroke="rgb(0%,0%,0%)" x1="154.1858" x2="152.0679" y1="36.0323" y2="35.5822" /><line stroke="rgb(0%,0%,0%)" x1="152.0679" x2="151.0973" y1="35.5822" y2="35.5822" /><line stroke="rgb(0%,0%,0%)" x1="151.0973" x2="148.9321" y1="35.5822" y2="35.5822" /><line stroke="rgb(0%,0%,0%)" x1="148.9321" x2="147.9826" y1="35.5822" y2="35.784" /><line stroke="rgb(0%,0%,0%)" x1="147.9826" x2="145.8647" y1="35.784" y2="36.2342" /><line stroke="rgb(0%,0%,0%)" x1="145.8647" x2="144.978" y1="36.2342" y2="36.629" /><line stroke="rgb(0%,0%,0%)" x1="144.978" x2="143.0" y1="36.629" y2="37.5096" /><line stroke="rgb(0%,0%,0%)" x1="143.0" x2="142.2147" y1="37.5096" y2="38.0802" /><line stroke="rgb(0%,0%,0%)" x1="142.2147" x2="140.463" y1="38.0802" y2="39.3528" /><line stroke="rgb(0%,0%,0%)" x1="140.463" x2="139.8135" y1="39.3528" y2="40.0742" /><line stroke="rgb(0%,0%,0%)" x1="139.8135" x2="138.3647" y1="40.0742" y2="41.6832" /><line stroke="rgb(0%,0%,0%)" x1="138.3647" x2="137.8794" y1="41.6832" y2="42.5238" /><line stroke="rgb(0%,0%,0%)" x1="137.8794" x2="136.7968" y1="42.5238" y2="44.3989" /><line stroke="rgb(0%,0%,0%)" x1="136.7968" x2="136.4969" y1="44.3989" y2="45.3221" /><line stroke="rgb(0%,0%,0%)" x1="136.4969" x2="135.8278" y1="45.3221" y2="47.3813" /><line stroke="rgb(0%,0%,0%)" x1="35.8278" x2="35.7263" y1="47.3813" y2="48.3467" /><line stroke="rgb(0%,0%,0%)" x1="35.7263" x2="35.5" y1="48.3467" y2="50.5" /><line stroke="rgb(0%,0%,0%)" x1="35.5" x2="35.6015" y1="50.5" y2="51.4654" /><line stroke="rgb(0%,0%,0%)" x1="35.6015" x2="35.8278" y1="51.4654" y2="53.6187" /><line stroke="rgb(0%,0%,0%)" x1="35.8278" x2="36.1277" y1="53.6187" y2="54.5418" /><line stroke="rgb(0%,0%,0%)" x1="36.1277" x2="36.7968" y1="54.5418" y2="56.6011" /><line stroke="rgb(0%,0%,0%)" x1="36.7968" x2="37.2821" y1="56.6011" y2="57.4417" /><line stroke="rgb(0%,0%,0%)" x1="37.2821" x2="38.3647" y1="57.4417" y2="59.3168" /><line stroke="rgb(0%,0%,0%)" x1="38.3647" x2="39.0142" y1="59.3168" y2="60.0381" /><line stroke="rgb(0%,0%,0%)" x1="39.0142" x2="40.463" y1="60.0381" y2="61.6472" /><line stroke="rgb(0%,0%,0%)" x1="40.463" x2="41.2483" y1="61.6472" y2="62.2177" /><line stroke="rgb(0%,0%,0%)" x1="41.2483" x2="43.0" y1="62.2177" y2="63.4904" /><line stroke="rgb(0%,0%,0%)" x1="43.0" x2="43.8868" y1="63.4904" y2="63.8852" /><line stroke="rgb(0%,0%,0%)" x1="43.8868" x2="45.8647" y1="63.8852" y2="64.7658" /><line stroke="rgb(0%,0%,0%)" x1="45.8647" x2="46.8142" y1="64.7658" y2="64.9677" /><line stroke="rgb(0%,0%,0%)" x1="46.8142" x2="48.9321" y1="64.9677" y2="65.4178" /><line stroke="rgb(0%,0%,0%)" x1="48.9321" x2="49.9027" y1="65.4178" y2="65.4178" /><line stroke="rgb(0%,0%,0%)" x1="49.9027" x2="52.0679" y1="65.4178" y2="65.4178" /><line stroke="rgb(0%,0%,0%)" x1="52.0679" x2="53.0174" y1="65.4178" y2="65.216" /><line stroke="rgb(0%,0%,0%)" x1="53.0174" x2="55.1353" y1="65.216" y2="64.7658" /><line stroke="rgb(0%,0%,0%)" x1="55.1353" x2="56.022" y1="64.7658" y2="64.371" /><line stroke="rgb(0%,0%,0%)" x1="56.022" x2="58.0" y1="64.371" y2="63.4904" /><line stroke="rgb(0%,0%,0%)" x1="58.0" x2="58.7853" y1="63.4904" y2="62.9198" /><line stroke="rgb(0%,0%,0%)" x1="58.7853" x2="60.537" y1="62.9198" y2="61.6472" /><line stroke="rgb(0%,0%,0%)" x1="60.537" x2="61.1865" y1="61.6472" y2="60.9258" /><line stroke="rgb(0%,0%,0%)" x1="61.1865" x2="62.6352" y1="60.9258" y2="59.3168" /><line stroke="rgb(0%,0%,0%)" x1="62.6352" x2="63.1206" y1="59.3168" y2="58.4762" /><line stroke="rgb(0%,0%,0%)" x1="63.1206" x2="64.2032" y1="58.4762" y2="56.6011" /><line stroke="rgb(0%,0%,0%)" x1="64.2032" x2="64.5031" y1="56.6011" y2="55.6779" /><line stroke="rgb(0%,0%,0%)" x1="64.5031" x2="65.1722" y1="55.6779" y2="53.6187" /><line stroke="rgb(0%,0%,0%)" x1="65.1722" x2="65.2737" y1="53.6187" y2="52.6533" /><line stroke="rgb(0%,0%,0%)" x1="65.2737" x2="65.5" y1="52.6533" y2="50.5" /><line stroke="rgb(0%,0%,0%)" x1="65.5" x2="65.3985" y1="50.5" y2="49.5346" /><line stroke="rgb(0%,0%,0%)" x1="65.3985" x2="65.1722" y1="49.5346" y2="47.3813" /><line stroke="rgb(0%,0%,0%)" x1="65.1722" x2="64.8723" y1="47.3813" y2="46.4582" /><line stroke="rgb(0%,0%,0%)" x1="64.8723" x2="64.2032" y1="46.4582" y2="44.3989" /><line stroke="rgb(0%,0%,0%)" x1="64.2032" x2="63.7178" y1="44.3989" y2="43.5583" /><line stroke="rgb(0%,0%,0%)" x1="63.7178" x2="62.6352" y1="43.5583" y2="41.6832" /><line stroke="rgb(0%,0%,0%)" x1="62.6352" x2="61.9857" y1="41.6832" y2="40.9619" /><line stroke="rgb(0%,0%,0%)" x1="61.9857" x2="60.537" y1="40.9619" y2="39.3528" /><line stroke="rgb(0%,0%,0%)" x1="60.537" x2="59.7517" y1="39.3528" y2="38.7823" /><line stroke="rgb(0%,0%,0%)" x1="59.7517" x2="58.0" y1="38.7823" y2="37.5096" /><line stroke="rgb(0%,0%,0%)" x1="58.0" x2="57.1132" y1="37.5096" y2="37.1148" /><line stroke="rgb(0%,0%,0%)" x1="57.1132" x2="55.1353" y1="37.1148" y2="36.2342" /><line stroke="rgb(0%,0%,0%)" x1="55.1353" x2="54.1858" y1="36.2342" y2="36.0323" /><line stroke="rgb(0%,0%,0%)" x1="54.1858" x2="52.0679" y1="36.0323" y2="35.5822" /><line stroke="rgb(0%,0%,0%)" x1="52.0679" x2="51.0972" y1="35.5822" y2="35.5822" /><line stroke="rgb(0%,0%,0%)" x1="51.0972" x2="48.9321" y1="35.5822" y2="35.5822" /><line stroke="rgb(0%,0%,0%)" x1="48.9321" x2="47.9826" y1="35.5822" y2="35.784" /><line stroke="rgb(0%,0%,0%)" x1="47.9826" x2="45.8647" y1="35.784" y2="36.2342" /><line stroke="rgb(0%,0%,0%)" x1="45.8647" x2="44.978" y1="36.2342" y2="36.629" /><line stroke="rgb(0%,0%,0%)" x1="44.978" x2="43.0" y1="36.629" y2="37.5096" /><line stroke="rgb(0%,0%,0%)" x1="43.0" x2="42.2147" y1="37.5096" y2="38.0802" /><line stroke="rgb(0%,0%,0%)" x1="42.2147" x2="40.463" y1="38.0802" y2="39.3528" /><line stroke="rgb(0%,0%,0%)" x1="40.463" x2="39.8135" y1="39.3528" y2="40.0742" /><line stroke="rgb(0%,0%,0%)" x1="39.8135" x2="38.3647" y1="40.0742" y2="41.6832" /><line stroke="rgb(0%,0%,0%)" x1="38.3647" x2="37.8794" y1="41.6832" y2="42.5238" /><line stroke="rgb(0%,0%,0%)" x1="37.8794" x2="36.7968" y1="42.5238" y2="44.3989" /><line stroke="rgb(0%,0%,0%)" x1="36.7968" x2="36.4969" y1="44.3989" y2="45.3221" /><line stroke="rgb(0%,0%,0%)" x1="36.4969" x2="35.8278" y1="45.3221" y2="47.3813" /></svg>