<?xml version="1.0" encoding="utf-8" ?>
<svg baseProfile="tiny" height="100%" version="1.2" width="100%" xmlns="http://www.w3.org/2000/svg" xmlns:ev="http://www.w3.org/2001/xml-events" xmlns:xlink="http://www.w3.org/1999/xlink"><defs /><line stroke="rgb(0%,0%,0%)" x1="351.9" x2="351.9" y1="0.5" y2="57.9588" /><line stroke="rgb(0%,0%,0%)" x1="351.9" x2="351.9" y1="57.9588" y2="100.5" /><line stroke="rgb(0%,0%,0%)" x1="252.1135" x2="330.7777" y1="100.5" y2="100.5" /><line stroke="rgb(0%,0%,0%)" x1="330.7777" x2="333.5211" y1="100.5" y2="100.5" /><line stroke="rgb(0%,0%,0%)" x1="333.5211" x2="336.6553" y1="100.5" y2="100.5" /><line stroke="rgb(0%,0%,0%)" x1="336.6553" x2="340.1338" y1="100.5" y2="100.5" /><line stroke="rgb(0%,0%,0%)" x1="340.1338" x2="343.891" y1="100.5" y2="100.5" /><line stroke="rgb(0%,0%,0%)" x1="343.891" x2="347.8447" y1="100.5" y2="100.5" /><line stroke="rgb(0%,0%,0%)" x1="347.8447" x2="351.9" y1="100.5" y2="100.5" /><line stroke="rgb(0%,0%,0%)" x1="252.1135" x2="134.3123" y1="100.5" y2="100.5" /><line stroke="rgb(0%,0%,0%)" x1="134.3123" x2="0.5" y1="100.5" y2="100.5" /><line stroke="rgb(0%,0%,0%)" x1="0.5" x2="134.3123" y1="0.5" y2="0.5" /><line stroke="rgb(0%,0%,0%)" x1="134.3123" x2="252.1135" y1="0.5" y2="0.5" /><line stroke="rgb(0%,0%,0%)" x1="252.1135" x2="330.7777" y1="0.5" y2="0.5" /><line stroke="rgb(0%,0%,0%)" x1="330.7777" x2="333.5211" y1="0.5" y2="0.5" /><line stroke="rgb(0%,0%,0%)" x1="333.5211" x2="336.6553" y1="0.5" y2="0.5" /><line stroke="rgb(0%,0%,0%)" x1="336.6553" x2="340.1338" y1="0.5" y2="0.5" /><line stroke="rgb(0%,0%,0%)" x1="340.1338" x2="343.891" y1="0.5" y2="0.5" /><line stroke="rgb(0%,0%,0%)" x1="343.891" x2="347.8447" y1="0.5" y2="0.5" /><line stroke="rgb(0%,0%,0%)" x1="347.8447" x2="351.9" y1="0.5" y2="0.5" /><line stroke="rgb(0%,0%,0%)" x1="0.5" x2="0.5" y1="0.5" y2="34.0234" /><line stroke="rgb(0%,0%,0%)" x1="0.5" x2="0.5" y1="34.0234" y2="100.5" /><line stroke="rgb(0%,0%,0%)" x1="135.8278" x2="135.7198" y1="47.3813" y2="48.409" /><line stroke="rgb(0%,0%,0%)" x1="135.7198" x2="135.5" y1="48.409" y2="50.5" /><line stroke="rgb(0%,0%,0%)" x1="135.5" x2="135.608" y1="50.5" y2="51.5277" /><line stroke="rgb(0%,0%,0%)" x1="135.608" x2="135.8278" y1="51.5277" y2="53.6187" /><line stroke="rgb(0%,0%,0%)" x1="135.8278" x2="136.1471" y1="53.6187" y2="54.6015" /><line stroke="rgb(0%,0%,0%)" x1="136.1471" x2="136.7968" y1="54.6015" y2="56.6011" /><line stroke="rgb(0%,0%,0%)" x1="136.7968" x2="137.3135" y1="56.6011" y2="57.496" /><line stroke="rgb(0%,0%,0%)" x1="137.3135" x2="138.3647" y1="57.496" y2="59.3168" /><line stroke="rgb(0%,0%,0%)" x1="138.3647" x2="139.0562" y1="59.3168" y2="60.0847" /><line stroke="rgb(0%,0%,0%)" x1="139.0562" x2="140.463" y1="60.0847" y2="61.6472" /><line stroke="rgb(0%,0%,0%)" x1="140.463" x2="141.299" y1="61.6472" y2="62.2546" /><line stroke="rgb(0%,0%,0%)" x1="141.299" x2="143.0" y1="62.2546" y2="63.4904" /><line stroke="rgb(0%,0%,0%)" x1="143.0" x2="143.944" y1="63.4904" y2="63.9107" /><line stroke="rgb(0%,0%,0%)" x1="143.944" x2="145.8647" y1="63.9107" y2="64.7658" /><line stroke="rgb(0%,0%,0%)" x1="145.8647" x2="146.8755" y1="64.7658" y2="64.9807" /><line stroke="rgb(0%,0%,0%)" x1="146.8755" x2="148.9321" y1="64.9807" y2="65.4178" /><line stroke="rgb(0%,0%,0%)" x1="148.9321" x2="149.9654" y1="65.4178" y2="65.4178" /><line stroke="rgb(0%,0%,0%)" x1="149.9654" x2="152.0679" y1="65.4178" y2="65.4178" /><line stroke="rgb(0%,0%,0%)" x1="152.0679" x2="153.0787" y1="65.4178" y2="65.203" /><line stroke="rgb(0%,0%,0%)" x1="153.0787" x2="155.1353" y1="65.203" y2="64.7658" /><line stroke="rgb(0%,0%,0%)" x1="155.1353" x2="156.0793" y1="64.7658" y2="64.3455" /><line stroke="rgb(0%,0%,0%)" x1="156.0793" x2="158.0" y1="64.3455" y2="63.4904" /><line stroke="rgb(0%,0%,0%)" x1="158.0" x2="158.836" y1="63.4904" y2="62.883" /><line stroke="rgb(0%,0%,0%)" x1="158.836" x2="160.537" y1="62.883" y2="61.6472" /><line stroke="rgb(0%,0%,0%)" x1="160.537" x2="161.2284" y1="61.6472" y2="60.8792" /><line stroke="rgb(0%,0%,0%)" x1="161.2284" x2="162.6353" y1="60.8792" y2="59.3168" /><line stroke="rgb(0%,0%,0%)" x1="162.6353" x2="163.1519" y1="59.3168" y2="58.4219" /><line stroke="rgb(0%,0%,0%)" x1="163.1519" x2="164.2032" y1="58.4219" y2="56.6011" /><line stroke="rgb(0%,0%,0%)" x1="164.2032" x2="164.5225" y1="56.6011" y2="55.6183" /><line stroke="rgb(0%,0%,0%)" x1="164.5225" x2="165.1722" y1="55.6183" y2="53.6187" /><line stroke="rgb(0%,0%,0%)" x1="165.1722" x2="165.2802" y1="53.6187" y2="52.591" /><line stroke="rgb(0%,0%,0%)" x1="165.2802" x2="165.5" y1="52.591" y2="50.5" /><line stroke="rgb(0%,0%,0%)" x1="165.5" x2="165.392" y1="50.5" y2="49.4723" /><line stroke="rgb(0%,0%,0%)" x1="165.392" x2="165.1722" y1="49.4723" y2="47.3813" /><line stroke="rgb(0%,0%,0%)" x1="165.1722" x2="164.8529" y1="47.3813" y2="46.3985" /><line stroke="rgb(0%,0%,0%)" x1="164.8529" x2="164.2032" y1="46.3985" y2="44.3989" /><line stroke="rgb(0%,0%,0%)" x1="164.2032" x2="163.6865" y1="44.3989" y2="43.504" /><line stroke="rgb(0%,0%,0%)" x1="163.6865" x2="162.6353" y1="43.504" y2="41.6832" /><line stroke="rgb(0%,0%,0%)" x1="162.6353" x2="161.9438" y1="41.6832" y2="40.9153" /><line stroke="rgb(0%,0%,0%)" x1="161.9438" x2="160.537" y1="40.9153" y2="39.3528" /><line stroke="rgb(0%,0%,0%)" x1="160.537" x2="159.7009" y1="39.3528" y2="38.7454" /><line stroke="rgb(0%,0%,0%)" x1="159.7009" x2="158.0" y1="38.7454" y2="37.5096" /><line stroke="rgb(0%,0%,0%)" x1="158.0" x2="157.056" y1="37.5096" y2="37.0893" /><line stroke="rgb(0%,0%,0%)" x1="157.056" x2="155.1353" y1="37.0893" y2="36.2342" /><line stroke="rgb(0%,0%,0%)" x1="155.1353" x2="154.1245" y1="36.2342" y2="36.0193" /><line stroke="rgb(0%,0%,0%)" x1="154.1245" x2="152.0679" y1="36.0193" y2="35.5822" /><line stroke="rgb(0%,0%,0%)" x1="152.0679" x2="151.0346" y1="35.5822" y2="35.5822" /><line stroke="rgb(0%,0%,0%)" x1="151.0346" x2="148.9321" y1="35.5822" y2="35.5822" /><line stroke="rgb(0%,0%,0%)" x1="148.9321" x2="147.9213" y1="35.5822" y2="35.797" /><line stroke="rgb(0%,0%,0%)" x1="147.9213" x2="145.8647" y1="35.797" y2="36.2342" /><line stroke="rgb(0%,0%,0%)" x1="145.8647" x2="144.9207" y1="36.2342" y2="36.6545" /><line stroke="rgb(0%,0%,0%)" x1="144.9207" x2="143.0" y1="36.6545" y2="37.5096" /><line stroke="rgb(0%,0%,0%)" x1="143.0" x2="142.164" y1="37.5096" y2="38.117" /><line stroke="rgb(0%,0%,0%)" x1="142.164" x2="140.463" y1="38.117" y2="39.3528" /><line stroke="rgb(0%,0%,0%)" x1="140.463" x2="139.7716" y1="39.3528" y2="40.1208" /><line stroke="rgb(0%,0%,0%)" x1="139.7716" x2="138.3647" y1="40.1208" y2="41.6832" /><line stroke="rgb(0%,0%,0%)" x1="138.3647" x2="137.8481" y1="41.6832" y2="42.5781" /><line stroke="rgb(0%,0%,0%)" x1="137.8481" x2="136.7968" y1="42.5781" y2="44.3989" /><line stroke="rgb(0%,0%,0%)" x1="136.7968" x2="136.4775" y1="44.3989" y2="45.3817" /><line stroke="rgb(0%,0%,0%)" x1="136.4775" x2="135.8278" y1="45.3817" y2="47.3813" /><line stroke="rgb(0%,0%,0%)" x1="35.8278" x2="35.7198" y1="47.3813" y2="48.409" /><line stroke="rgb(0%,0%,0%)" x1="35.7198" x2="35.5" y1="48.409" y2="50.5" /><line stroke="rgb(0%,0%,0%)" x1="35.5" x2="35.608" y1="50.5" y2="51.5277" /><line stroke="rgb(0%,0%,0%)" x1="35.608" x2="35.8278" y1="51.5277" y2="53.6187" /><line stroke="rgb(0%,0%,0%)" x1="35.8278" x2="36.1471" y1="53.6187" y2="54.6015" /><line stroke="rgb(0%,0%,0%)" x1="36.1471" x2="36.7968" y1="54.6015" y2="56.6011" /><line stroke="rgb(0%,0%,0%)" x1="36.7968" x2="37.3135" y1="56.6011" y2="57.496" /><line stroke="rgb(0%,0%,0%)" x1="37.3135" x2="38.3647" y1="57.496" y2="59.3168" /><line stroke="rgb(0%,0%,0%)" x1="38.3647" x2="39.0562" y1="59.3168" y2="60.0847" /><line stroke="rgb(0%,0%,0%)" x1="39.0562" x2="40.463" y1="60.0847" y2="61.6472" /><line stroke="rgb(0%,0%,0%)" x1="40.463" x2="41.299" y1="61.6472" y2="62.2546" /><line stroke="rgb(0%,0%,0%)" x1="41.299" x2="43.0" y1="62.2546" y2="63.4904" /><line stroke="rgb(0%,0%,0%)" x1="43.0" x2="43.944" y1="63.4904" y2="63.9107" /><line stroke="rgb(0%,0%,0%)" x1="43.944" x2="45.8647" y1="63.9107" y2="64.7658" /><line stroke="rgb(0%,0%,0%)" x1="45.8647" x2="46.8755" y1="64.7658" y2="64.9807" /><line stroke="rgb(0%,0%,0%)" x1="46.8755" x2="48.9321" y1="64.9807" y2="65.4178" /><line stroke="rgb(0%,0%,0%)" x1="48.9321" x2="49.9654" y1="65.4178" y2="65.4178" /><line stroke="rgb(0%,0%,0%)" x1="49.9654" x2="52.0679" y1="65.4178" y2="65.4178" /><line stroke="rgb(0%,0%,0%)" x1="52.0679" x2="53.0787" y1="65.4178" y2="65.203" /><line stroke="rgb(0%,0%,0%)" x1="53.0787" x2="55.1353" y1="65.203" y2="64.7658" /><line stroke="rgb(0%,0%,0%)" x1="55.1353" x2="56.0793" y1="64.7658" y2="64.3455" /><line stroke="rgb(0%,0%,0%)" x1="56.0793" x2="58.0" y1="64.3455" y2="63.4904" /><line stroke="rgb(0%,0%,0%)" x1="58.0" x2="58.836" y1="63.4904" y2="62.883" /><line stroke="rgb(0%,0%,0%)" x1="58.836" x2="60.537" y1="62.883" y2="61.6472" /><line stroke="rgb(0%,0%,0%)" x1="60.537" x2="61.2284" y1="61.6472" y2="60.8792" /><line stroke="rgb(0%,0%,0%)" x1="61.2284" x2="62.6352" y1="60.8792" y2="59.3168" /><line stroke="rgb(0%,0%,0%)" x1="62.6352" x2="63.1519" y1="59.3168" y2="58.4219" /><line stroke="rgb(0%,0%,0%)" x1="63.1519" x2="64.2032" y1="58.4219" y2="56.6011" /><line stroke="rgb(0%,0%,0%)" x1="64.2032" x2="64.5225" y1="56.6011" y2="55.6183" /><line stroke="rgb(0%,0%,0%)" x1="64.5225" x2="65.1722" y1="55.6183" y2="53.6187" /><line stroke="rgb(0%,0%,0%)" x1="65.1722" x2="65.2802" y1="53.6187" y2="52.591" /><line stroke="rgb(0%,0%,0%)" x1="65.2802" x2="65.5" y1="52.591" y2="50.5" /><line stroke="rgb(0%,0%,0%)" x1="65.5" x2="65.392" y1="50.5" y2="49.4723" /><line stroke="rgb(0%,0%,0%)" x1="65.392" x2="65.1722" y1="49.4723" y2="47.3813" /><line stroke="rgb(0%,0%,0%)" x1="65.1722" x2="64.8529" y1="47.3813" y2="46.3985" /><line stroke="rgb(0%,0%,0%)" x1="64.8529" x2="64.2032" y1="46.3985" y2="44.3989" /><line stroke="rgb(0%,0%,0%)" x1="64.2032" x2="63.6865" y1="44.3989" y2="43.504" /><line stroke="rgb(0%,0%,0%)" x1="63.6865" x2="62.6352" y1="43.504" y2="41.6832" /><line stroke="rgb(0%,0%,0%)" x1="62.6352" x2="61.9438" y1="41.6832" y2="40.9153" /><line stroke="rgb(0%,0%,0%)" x1="61.9438" x2="60.537" y1="40.9153" y2="39.3528" /><line stroke="rgb(0%,0%,0%)" x1="60.537" x2="59.701" y1="39.3528" y2="38.7454" /><line stroke="rgb(0%,0%,0%)" x1="59.701" x2="58.0" y1="38.7454" y2="37.5096" /><line stroke="rgb(0%,0%,0%)" x1="58.0" x2="57.056" y1="37.5096" y2="37.0893" /><line stroke="rgb(0%,0%,0%)" x1="57.056" x2="55.1353" y1="37.0893" y2="36.2342" /><line stroke="rgb(0%,0%,0%)" x1="55.1353" x2="54.1245" y1="36.2342" y2="36.0193" /><line stroke="rgb(0%,0%,0%)" x1="54.1245" x2="52.0679" y1="36.0193" y2="35.5822" /><line stroke="rgb(0%,0%,0%)" x1="52.0679" x2="51.0346" y1="35.5822" y2="35.5822" /><line stroke="rgb(0%,0%,0%)" x1="51.0346" x2="48.9321" y1="35.5822" y2="35.5822" /><line stroke="rgb(0%,0%,0%)" x1="48.9321" x2="47.9213" y1="35.5822" y2="35.797" /><line stroke="rgb(0%,0%,0%)" x1="47.9213" x2="45.8647" y1="35.797" y2="36.2342" /><line stroke="rgb(0%,0%,0%)" x1="45.8647" x2="44.9207" y1="36.2342" y2="36.6545" /><line stroke="rgb(0%,0%,0%)" x1="44.9207" x2="43.0" y1="36.6545" y2="37.5096" /><line stroke="rgb(0%,0%,0%)" x1="43.0" x2="42.164" y1="37.5096" y2="38.117" /><line stroke="rgb(0%,0%,0%)" x1="42.164" x2="40.463" y1="38.117" y2="39.3528" /><line stroke="rgb(0%,0%,0%)" x1="40.463" x2="39.7716" y1="39.3528" y2="40.1208" /><line stroke="rgb(0%,0%,0%)" x1="39.7716" x2="38.3647" y1="40.1208" y2="41.6832" /><line stroke="rgb(0%,0%,0%)" x1="38.3647" x2="37.8481" y1="41.6832" y2="42.5781" /><line stroke="rgb(0%,0%,0%)" x1="37.8481" x2="36.7968" y1="42.5781" y2="44.3989" /><line stroke="rgb(0%,0%,0%)" x1="36.7968" x2="36.4775" y1="44.3989" y2="45.3817" /><line stroke="rgb(0%,0%,0%)" x1="36.4775" x2="35.8278" y1="45.3817" y2="47.3813" /></svg>