<?xml version="1.0" encoding="utf-8" ?>
<svg baseProfile="tiny" height="100%" version="1.2" width="100%" xmlns="http://www.w3.org/2000/svg" xmlns:ev="http://www.w3.org/2001/xml-events" xmlns:xlink="http://www.w3.org/1999/xlink"><defs /><line stroke="rgb(0%,0%,0%)" x1="351.9" x2="351.9" y1="0.5" y2="58.8228" /><line stroke="rgb(0%,0%,0%)" x1="351.9" x2="351.9" y1="58.8228" y2="100.5" /><line stroke="rgb(0%,0%,0%)" x1="250.6129" x2="330.4601" y1="100.5" y2="100.5" /><line stroke="rgb(0%,0%,0%)" x1="330.4601" x2="333.2448" y1="100.5" y2="100.5" /><line stroke="rgb(0%,0%,0%)" x1="333.2448" x2="336.4261" y1="100.5" y2="100.5" /><line stroke="rgb(0%,0%,0%)" x1="336.4261" x2="339.9568" y1="100.5" y2="100.5" /><line stroke="rgb(0%,0%,0%)" x1="339.9568" x2="343.7705" y1="100.5" y2="100.5" /><line stroke="rgb(0%,0%,0%)" x1="343.7705" x2="347.7837" y1="100.5" y2="100.5" /><line stroke="rgb(0%,0%,0%)" x1="347.7837" x2="351.9" y1="100.5" y2="100.5" /><line stroke="rgb(0%,0%,0%)" x1="250.6129" x2="136.3245" y1="100.5" y2="100.5" /><line stroke="rgb(0%,0%,0%)" x1="136.3245" x2="0.5" y1="100.5" y2="100.5" /><line stroke="rgb(0%,0%,0%)" x1="0.5" x2="136.3245" y1="0.5" y2="0.5" /><line stroke="rgb(0%,0%,0%)" x1="136.3245" x2="250.6129" y1="0.5" y2="0.5" /><line stroke="rgb(0%,0%,0%)" x1="250.6129" x2="330.4601" y1="0.5" y2="0.5" /><line stroke="rgb(0%,0%,0%)" x1="330.4601" x2="333.2448" y1="0.5" y2="0.5" /><line stroke="rgb(0%,0%,0%)" x1="333.2448" x2="336.4261" y1="0.5" y2="0.5" /><line stroke="rgb(0%,0%,0%)" x1="336.4261" x2="339.9568" y1="0.5" y2="0.5" /><line stroke="rgb(0%,0%,0%)" x1="339.9568" x2="343.7705" y1="0.5" y2="0.5" /><line stroke="rgb(0%,0%,0%)" x1="343.7705" x2="347.7837" y1="0.5" y2="0.5" /><line stroke="rgb(0%,0%,0%)" x1="347.7837" x2="351.9" y1="0.5" y2="0.5" /><line stroke="rgb(0%,0%,0%)" x1="0.5" x2="0.5" y1="0.5" y2="33.0237" /><line stroke="rgb(0%,0%,0%)" x1="0.5" x2="0.5" y1="33.0237" y2="100.5" /><line stroke="rgb(0%,0%,0%)" x1="135.8278" x2="135.7132" y1="47.3813" y2="48.4714" /><line stroke="rgb(0%,0%,0%)" x1="135.7132" x2="135.5" y1="48.4714" y2="50.5" /><line stroke="rgb(0%,0%,0%)" x1="135.5" x2="135.6146" y1="50.5" y2="51.5901" /><line stroke="rgb(0%,0%,0%)" x1="135.6146" x2="135.8278" y1="51.5901" y2="53.6187" /><line stroke="rgb(0%,0%,0%)" x1="135.8278" x2="136.1665" y1="53.6187" y2="54.6611" /><line stroke="rgb(0%,0%,0%)" x1="136.1665" x2="136.7968" y1="54.6611" y2="56.6011" /><line stroke="rgb(0%,0%,0%)" x1="136.7968" x2="137.3448" y1="56.6011" y2="57.5503" /><line stroke="rgb(0%,0%,0%)" x1="137.3448" x2="138.3647" y1="57.5503" y2="59.3168" /><line stroke="rgb(0%,0%,0%)" x1="138.3647" x2="139.0981" y1="59.3168" y2="60.1313" /><line stroke="rgb(0%,0%,0%)" x1="139.0981" x2="140.463" y1="60.1313" y2="61.6472" /><line stroke="rgb(0%,0%,0%)" x1="140.463" x2="141.3498" y1="61.6472" y2="62.2914" /><line stroke="rgb(0%,0%,0%)" x1="141.3498" x2="143.0" y1="62.2914" y2="63.4904" /><line stroke="rgb(0%,0%,0%)" x1="143.0" x2="144.0013" y1="63.4904" y2="63.9362" /><line stroke="rgb(0%,0%,0%)" x1="144.0013" x2="145.8647" y1="63.9362" y2="64.7658" /><line stroke="rgb(0%,0%,0%)" x1="145.8647" x2="146.9369" y1="64.7658" y2="64.9937" /><line stroke="rgb(0%,0%,0%)" x1="146.9369" x2="148.9321" y1="64.9937" y2="65.4178" /><line stroke="rgb(0%,0%,0%)" x1="148.9321" x2="150.0281" y1="65.4178" y2="65.4178" /><line stroke="rgb(0%,0%,0%)" x1="150.0281" x2="152.0679" y1="65.4178" y2="65.4178" /><line stroke="rgb(0%,0%,0%)" x1="152.0679" x2="153.14" y1="65.4178" y2="65.1899" /><line stroke="rgb(0%,0%,0%)" x1="153.14" x2="155.1353" y1="65.1899" y2="64.7658" /><line stroke="rgb(0%,0%,0%)" x1="155.1353" x2="156.1366" y1="64.7658" y2="64.32" /><line stroke="rgb(0%,0%,0%)" x1="156.1366" x2="158.0" y1="64.32" y2="63.4904" /><line stroke="rgb(0%,0%,0%)" x1="158.0" x2="158.8867" y1="63.4904" y2="62.8461" /><line stroke="rgb(0%,0%,0%)" x1="158.8867" x2="160.537" y1="62.8461" y2="61.6472" /><line stroke="rgb(0%,0%,0%)" x1="160.537" x2="161.2704" y1="61.6472" y2="60.8326" /><line stroke="rgb(0%,0%,0%)" x1="161.2704" x2="162.6353" y1="60.8326" y2="59.3168" /><line stroke="rgb(0%,0%,0%)" x1="162.6353" x2="163.1833" y1="59.3168" y2="58.3676" /><line stroke="rgb(0%,0%,0%)" x1="163.1833" x2="164.2032" y1="58.3676" y2="56.6011" /><line stroke="rgb(0%,0%,0%)" x1="164.2032" x2="164.5419" y1="56.6011" y2="55.5586" /><line stroke="rgb(0%,0%,0%)" x1="164.5419" x2="165.1722" y1="55.5586" y2="53.6187" /><line stroke="rgb(0%,0%,0%)" x1="165.1722" x2="165.2868" y1="53.6187" y2="52.5286" /><line stroke="rgb(0%,0%,0%)" x1="165.2868" x2="165.5" y1="52.5286" y2="50.5" /><line stroke="rgb(0%,0%,0%)" x1="165.5" x2="165.3854" y1="50.5" y2="49.4099" /><line stroke="rgb(0%,0%,0%)" x1="165.3854" x2="165.1722" y1="49.4099" y2="47.3813" /><line stroke="rgb(0%,0%,0%)" x1="165.1722" x2="164.8335" y1="47.3813" y2="46.3389" /><line stroke="rgb(0%,0%,0%)" x1="164.8335" x2="164.2032" y1="46.3389" y2="44.3989" /><line stroke="rgb(0%,0%,0%)" x1="164.2032" x2="163.6551" y1="44.3989" y2="43.4497" /><line stroke="rgb(0%,0%,0%)" x1="163.6551" x2="162.6353" y1="43.4497" y2="41.6832" /><line stroke="rgb(0%,0%,0%)" x1="162.6353" x2="161.9018" y1="41.6832" y2="40.8687" /><line stroke="rgb(0%,0%,0%)" x1="161.9018" x2="160.537" y1="40.8687" y2="39.3528" /><line stroke="rgb(0%,0%,0%)" x1="160.537" x2="159.6502" y1="39.3528" y2="38.7086" /><line stroke="rgb(0%,0%,0%)" x1="159.6502" x2="158.0" y1="38.7086" y2="37.5096" /><line stroke="rgb(0%,0%,0%)" x1="158.0" x2="156.9987" y1="37.5096" y2="37.0638" /><line stroke="rgb(0%,0%,0%)" x1="156.9987" x2="155.1353" y1="37.0638" y2="36.2342" /><line stroke="rgb(0%,0%,0%)" x1="155.1353" x2="154.0631" y1="36.2342" y2="36.0063" /><line stroke="rgb(0%,0%,0%)" x1="154.0631" x2="152.0679" y1="36.0063" y2="35.5822" /><line stroke="rgb(0%,0%,0%)" x1="152.0679" x2="150.9719" y1="35.5822" y2="35.5822" /><line stroke="rgb(0%,0%,0%)" x1="150.9719" x2="148.9321" y1="35.5822" y2="35.5822" /><line stroke="rgb(0%,0%,0%)" x1="148.9321" x2="147.86" y1="35.5822" y2="35.8101" /><line stroke="rgb(0%,0%,0%)" x1="147.86" x2="145.8647" y1="35.8101" y2="36.2342" /><line stroke="rgb(0%,0%,0%)" x1="145.8647" x2="144.8634" y1="36.2342" y2="36.68" /><line stroke="rgb(0%,0%,0%)" x1="144.8634" x2="143.0" y1="36.68" y2="37.5096" /><line stroke="rgb(0%,0%,0%)" x1="143.0" x2="142.1133" y1="37.5096" y2="38.1539" /><line stroke="rgb(0%,0%,0%)" x1="142.1133" x2="140.463" y1="38.1539" y2="39.3528" /><line stroke="rgb(0%,0%,0%)" x1="140.463" x2="139.7296" y1="39.3528" y2="40.1674" /><line stroke="rgb(0%,0%,0%)" x1="139.7296" x2="138.3647" y1="40.1674" y2="41.6832" /><line stroke="rgb(0%,0%,0%)" x1="138.3647" x2="137.8167" y1="41.6832" y2="42.6324" /><line stroke="rgb(0%,0%,0%)" x1="137.8167" x2="136.7968" y1="42.6324" y2="44.3989" /><line stroke="rgb(0%,0%,0%)" x1="136.7968" x2="136.4581" y1="44.3989" y2="45.4414" /><line stroke="rgb(0%,0%,0%)" x1="136.4581" x2="135.8278" y1="45.4414" y2="47.3813" /><line stroke="rgb(0%,0%,0%)" x1="35.8278" x2="35.7132" y1="47.3813" y2="48.4714" /><line stroke="rgb(0%,0%,0%)" x1="35.7132" x2="35.5" y1="48.4714" y2="50.5" /><line stroke="rgb(0%,0%,0%)" x1="35.5" x2="35.6146" y1="50.5" y2="51.5901" /><line stroke="rgb(0%,0%,0%)" x1="35.6146" x2="35.8278" y1="51.5901" y2="53.6187" /><line stroke="rgb(0%,0%,0%)" x1="35.8278" x2="36.1665" y1="53.6187" y2="54.6611" /><line stroke="rgb(0%,0%,0%)" x1="36.1665" x2="36.7968" y1="54.6611" y2="56.6011" /><line stroke="rgb(0%,0%,0%)" x1="36.7968" x2="37.3448" y1="56.6011" y2="57.5503" /><line stroke="rgb(0%,0%,0%)" x1="37.3448" x2="38.3647" y1="57.5503" y2="59.3168" /><line stroke="rgb(0%,0%,0%)" x1="38.3647" x2="39.0981" y1="59.3168" y2="60.1313" /><line stroke="rgb(0%,0%,0%)" x1="39.0981" x2="40.463" y1="60.1313" y2="61.6472" /><line stroke="rgb(0%,0%,0%)" x1="40.463" x2="41.3498" y1="61.6472" y2="62.2914" /><line stroke="rgb(0%,0%,0%)" x1="41.3498" x2="43.0" y1="62.2914" y2="63.4904" /><line stroke="rgb(0%,0%,0%)" x1="43.0" x2="44.0013" y1="63.4904" y2="63.9362" /><line stroke="rgb(0%,0%,0%)" x1="44.0013" x2="45.8647" y1="63.9362" y2="64.7658" /><line stroke="rgb(0%,0%,0%)" x1="45.8647" x2="46.9368" y1="64.7658" y2="64.9937" /><line stroke="rgb(0%,0%,0%)" x1="46.9368" x2="48.9321" y1="64.9937" y2="65.4178" /><line stroke="rgb(0%,0%,0%)" x1="48.9321" x2="50.0281" y1="65.4178" y2="65.4178" /><line stroke="rgb(0%,0%,0%)" x1="50.0281" x2="52.0679" y1="65.4178" y2="65.4178" /><line stroke="rgb(0%,0%,0%)" x1="52.0679" x2="53.14" y1="65.4178" y2="65.1899" /><line stroke="rgb(0%,0%,0%)" x1="53.14" x2="55.1353" y1="65.1899" y2="64.7658" /><line stroke="rgb(0%,0%,0%)" x1="55.1353" x2="56.1366" y1="64.7658" y2="64.32" /><line stroke="rgb(0%,0%,0%)" x1="56.1366" x2="58.0" y1="64.32" y2="63.4904" /><line stroke="rgb(0%,0%,0%)" x1="58.0" x2="58.8867" y1="63.4904" y2="62.8461" /><line stroke="rgb(0%,0%,0%)" x1="58.8867" x2="60.537" y1="62.8461" y2="61.6472" /><line stroke="rgb(0%,0%,0%)" x1="60.537" x2="61.2704" y1="61.6472" y2="60.8326" /><line stroke="rgb(0%,0%,0%)" x1="61.2704" x2="62.6352" y1="60.8326" y2="59.3168" /><line stroke="rgb(0%,0%,0%)" x1="62.6352" x2="63.1833" y1="59.3168" y2="58.3676" /><line stroke="rgb(0%,0%,0%)" x1="63.1833" x2="64.2032" y1="58.3676" y2="56.6011" /><line stroke="rgb(0%,0%,0%)" x1="64.2032" x2="64.5419" y1="56.6011" y2="55.5586" /><line stroke="rgb(0%,0%,0%)" x1="64.5419" x2="65.1722" y1="55.5586" y2="53.6187" /><line stroke="rgb(0%,0%,0%)" x1="65.1722" x2="65.2868" y1="53.6187" y2="52.5286" /><line stroke="rgb(0%,0%,0%)" x1="65.2868" x2="65.5" y1="52.5286" y2="50.5" /><line stroke="rgb(0%,0%,0%)" x1="65.5" x2="65.3854" y1="50.5" y2="49.4099" /><line stroke="rgb(0%,0%,0%)" x1="65.3854" x2="65.1722" y1="49.4099" y2="47.3813" /><line stroke="rgb(0%,0%,0%)" x1="65.1722" x2="64.8335" y1="47.3813" y2="46.3389" /><line stroke="rgb(0%,0%,0%)" x1="64.8335" x2="64.2032" y1="46.3389" y2="44.3989" /><line stroke="rgb(0%,0%,0%)" x1="64.2032" x2="63.6551" y1="44.3989" y2="43.4497" /><line stroke="rgb(0%,0%,0%)" x1="63.6551" x2="62.6352" y1="43.4497" y2="41.6832" /><line stroke="rgb(0%,0%,0%)" x1="62.6352" x2="61.9018" y1="41.6832" y2="40.8687" /><line stroke="rgb(0%,0%,0%)" x1="61.9018" x2="60.537" y1="40.8687" y2="39.3528" /><line stroke="rgb(0%,0%,0%)" x1="60.537" x2="59.6502" y1="39.3528" y2="38.7086" /><line stroke="rgb(0%,0%,0%)" x1="59.6502" x2="58.0" y1="38.7086" y2="37.5096" /><line stroke="rgb(0%,0%,0%)" x1="58.0" x2="56.9987" y1="37.5096" y2="37.0638" /><line stroke="rgb(0%,0%,0%)" x1="56.9987" x2="55.1353" y1="37.0638" y2="36.2342" /><line stroke="rgb(0%,0%,0%)" x1="55.1353" x2="54.0631" y1="36.2342" y2="36.0063" /><line stroke="rgb(0%,0%,0%)" x1="54.0631" x2="52.0679" y1="36.0063" y2="35.5822" /><line stroke="rgb(0%,0%,0%)" x1="52.0679" x2="50.9719" y1="35.5822" y2="35.5822" /><line stroke="rgb(0%,0%,0%)" x1="50.9719" x2="48.9321" y1="35.5822" y2="35.5822" /><line stroke="rgb(0%,0%,0%)" x1="48.9321" x2="47.86" y1="35.5822" y2="35.8101" /><line stroke="rgb(0%,0%,0%)" x1="47.86" x2="45.8647" y1="35.8101" y2="36.2342" /><line stroke="rgb(0%,0%,0%)" x1="45.8647" x2="44.8634" y1="36.2342" y2="36.68" /><line stroke="rgb(0%,0%,0%)" x1="44.8634" x2="43.0" y1="36.68" y2="37.5096" /><line stroke="rgb(0%,0%,0%)" x1="43.0" x2="42.1133" y1="37.5096" y2="38.1539" /><line stroke="rgb(0%,0%,0%)" x1="42.1133" x2="40.463" y1="38.1539" y2="39.3528" /><line stroke="rgb(0%,0%,0%)" x1="40.463" x2="39.7296" y1="39.3528" y2="40.1674" /><line stroke="rgb(0%,0%,0%)" x1="39.7296" x2="38.3647" y1="40.1674" y2="41.6832" /><line stroke="rgb(0%,0%,0%)" x1="38.3647" x2="37.8167" y1="41.6832" y2="42.6324" /><line stroke="rgb(0%,0%,0%)" x1="37.8167" x2="36.7968" y1="42.6324" y2="44.3989" /><line stroke="rgb(0%,0%,0%)" x1="36.7968" x2="36.4581" y1="44.3989" y2="45.4414" /><line stroke="rgb(0%,0%,0%)" x1="36.4581" x2="35.8278" y1="45.4414" y2="47.3813" /></svg>