<?xml version="1.0" encoding="utf-8" ?>
<svg baseProfile="tiny" height="100%" version="1.2" width="100%" xmlns="http://www.w3.org/2000/svg" xmlns:ev="http://www.w3.org/2001/xml-events" xmlns:xlink="http://www.w3.org/1999/xlink"><defs /><line stroke="rgb(0%,0%,0%)" x1="351.9" x2="351.9" y1="0.5" y2="59.6868" /><line stroke="rgb(0%,0%,0%)" x1="351.9" x2="351.9" y1="59.6868" y2="100.5" /><line stroke="rgb(0%,0%,0%)" x1="249.1124" x2="330.1424" y1="100.5" y2="100.5" /><line stroke="rgb(0%,0%,0%)" x1="330.1424" x2="332.9684" y1="100.5" y2="100.5" /><line stroke="rgb(0%,0%,0%)" x1="332.9684" x2="336.1968" y1="100.5" y2="100.5" /><line stroke="rgb(0%,0%,0%)" x1="336.1968" x2="339.7799" y1="100.5" y2="100.5" /><line stroke="rgb(0%,0%,0%)" x1="339.7799" x2="343.6501" y1="100.5" y2="100.5" /><line stroke="rgb(0%,0%,0%)" x1="343.6501" x2="347.7227" y1="100.5" y2="100.5" /><line stroke="rgb(0%,0%,0%)" x1="347.7227" x2="351.9" y1="100.5" y2="100.5" /><line stroke="rgb(0%,0%,0%)" x1="249.1124" x2="138.3367" y1="100.5" y2="100.5" /><line stroke="rgb(0%,0%,0%)" x1="138.3367" x2="0.5" y1="100.5" y2="100.5" /><line stroke="rgb(0%,0%,0%)" x1="0.5" x2="138.3367" y1="0.5" y2="0.5" /><line stroke="rgb(0%,0%,0%)" x1="138.3367" x2="249.1124" y1="0.5" y2="0.5" /><line stroke="rgb(0%,0%,0%)" x1="249.1124" x2="330.1424" y1="0.5" y2="0.5" /><line stroke="rgb(0%,0%,0%)" x1="330.1424" x2="332.9684" y1="0.5" y2="0.5" /><line stroke="rgb(0%,0%,0%)" x1="332.9684" x2="336.1968" y1="0.5" y2="0.5" /><line stroke="rgb(0%,0%,0%)" x1="336.1968" x2="339.7799" y1="0.5" y2="0.5" /><line stroke="rgb(0%,0%,0%)" x1="339.7799" x2="343.6501" y1="0.5" y2="0.5" /><line stroke="rgb(0%,0%,0%)" x1="343.6501" x2="347.7227" y1="0.5" y2="0.5" /><line stroke="rgb(0%,0%,0%)" x1="347.7227" x2="351.9" y1="0.5" y2="0.5" /><line stroke="rgb(0%,0%,0%)" x1="0.5" x2="0.5" y1="0.5" y2="32.0241" /><line stroke="rgb(0%,0%,0%)" x1="0.5" x2="0.5" y1="32.0241" y2="100.5" /><line stroke="rgb(0%,0%,0%)" x1="135.8278" x2="135.7067" y1="47.3813" y2="48.5337" /><line stroke="rgb(0%,0%,0%)" x1="135.7067" x2="135.5" y1="48.5337" y2="50.5" /><line stroke="rgb(0%,0%,0%)" x1="135.5" x2="135.6211" y1="50.5" y2="51.6524" /><line stroke="rgb(0%,0%,0%)" x1="135.6211" x2="135.8278" y1="51.6524" y2="53.6187" /><line stroke="rgb(0%,0%,0%)" x1="135.8278" x2="136.1859" y1="53.6187" y2="54.7207" /><line stroke="rgb(0%,0%,0%)" x1="136.1859" x2="136.7968" y1="54.7207" y2="56.6011" /><line stroke="rgb(0%,0%,0%)" x1="136.7968" x2="137.3762" y1="56.6011" y2="57.6046" /><line stroke="rgb(0%,0%,0%)" x1="137.3762" x2="138.3647" y1="57.6046" y2="59.3168" /><line stroke="rgb(0%,0%,0%)" x1="138.3647" x2="139.1401" y1="59.3168" y2="60.1779" /><line stroke="rgb(0%,0%,0%)" x1="139.1401" x2="140.463" y1="60.1779" y2="61.6472" /><line stroke="rgb(0%,0%,0%)" x1="140.463" x2="141.4005" y1="61.6472" y2="62.3283" /><line stroke="rgb(0%,0%,0%)" x1="141.4005" x2="143.0" y1="62.3283" y2="63.4904" /><line stroke="rgb(0%,0%,0%)" x1="143.0" x2="144.0586" y1="63.4904" y2="63.9617" /><line stroke="rgb(0%,0%,0%)" x1="144.0586" x2="145.8647" y1="63.9617" y2="64.7658" /><line stroke="rgb(0%,0%,0%)" x1="145.8647" x2="146.9982" y1="64.7658" y2="65.0068" /><line stroke="rgb(0%,0%,0%)" x1="146.9982" x2="148.9321" y1="65.0068" y2="65.4178" /><line stroke="rgb(0%,0%,0%)" x1="148.9321" x2="150.0908" y1="65.4178" y2="65.4178" /><line stroke="rgb(0%,0%,0%)" x1="150.0908" x2="152.0679" y1="65.4178" y2="65.4178" /><line stroke="rgb(0%,0%,0%)" x1="152.0679" x2="153.2014" y1="65.4178" y2="65.1769" /><line stroke="rgb(0%,0%,0%)" x1="153.2014" x2="155.1353" y1="65.1769" y2="64.7658" /><line stroke="rgb(0%,0%,0%)" x1="155.1353" x2="156.1938" y1="64.7658" y2="64.2945" /><line stroke="rgb(0%,0%,0%)" x1="156.1938" x2="158.0" y1="64.2945" y2="63.4904" /><line stroke="rgb(0%,0%,0%)" x1="158.0" x2="158.9374" y1="63.4904" y2="62.8093" /><line stroke="rgb(0%,0%,0%)" x1="158.9374" x2="160.537" y1="62.8093" y2="61.6472" /><line stroke="rgb(0%,0%,0%)" x1="160.537" x2="161.3123" y1="61.6472" y2="60.786" /><line stroke="rgb(0%,0%,0%)" x1="161.3123" x2="162.6353" y1="60.786" y2="59.3168" /><line stroke="rgb(0%,0%,0%)" x1="162.6353" x2="163.2146" y1="59.3168" y2="58.3133" /><line stroke="rgb(0%,0%,0%)" x1="163.2146" x2="164.2032" y1="58.3133" y2="56.6011" /><line stroke="rgb(0%,0%,0%)" x1="164.2032" x2="164.5613" y1="56.6011" y2="55.499" /><line stroke="rgb(0%,0%,0%)" x1="164.5613" x2="165.1722" y1="55.499" y2="53.6187" /><line stroke="rgb(0%,0%,0%)" x1="165.1722" x2="165.2933" y1="53.6187" y2="52.4663" /><line stroke="rgb(0%,0%,0%)" x1="165.2933" x2="165.5" y1="52.4663" y2="50.5" /><line stroke="rgb(0%,0%,0%)" x1="165.5" x2="165.3789" y1="50.5" y2="49.3476" /><line stroke="rgb(0%,0%,0%)" x1="165.3789" x2="165.1722" y1="49.3476" y2="47.3813" /><line stroke="rgb(0%,0%,0%)" x1="165.1722" x2="164.8141" y1="47.3813" y2="46.2793" /><line stroke="rgb(0%,0%,0%)" x1="164.8141" x2="164.2032" y1="46.2793" y2="44.3989" /><line stroke="rgb(0%,0%,0%)" x1="164.2032" x2="163.6238" y1="44.3989" y2="43.3954" /><line stroke="rgb(0%,0%,0%)" x1="163.6238" x2="162.6353" y1="43.3954" y2="41.6832" /><line stroke="rgb(0%,0%,0%)" x1="162.6353" x2="161.8599" y1="41.6832" y2="40.8221" /><line stroke="rgb(0%,0%,0%)" x1="161.8599" x2="160.537" y1="40.8221" y2="39.3528" /><line stroke="rgb(0%,0%,0%)" x1="160.537" x2="159.5995" y1="39.3528" y2="38.6717" /><line stroke="rgb(0%,0%,0%)" x1="159.5995" x2="158.0" y1="38.6717" y2="37.5096" /><line stroke="rgb(0%,0%,0%)" x1="158.0" x2="156.9414" y1="37.5096" y2="37.0383" /><line stroke="rgb(0%,0%,0%)" x1="156.9414" x2="155.1353" y1="37.0383" y2="36.2342" /><line stroke="rgb(0%,0%,0%)" x1="155.1353" x2="154.0018" y1="36.2342" y2="35.9932" /><line stroke="rgb(0%,0%,0%)" x1="154.0018" x2="152.0679" y1="35.9932" y2="35.5822" /><line stroke="rgb(0%,0%,0%)" x1="152.0679" x2="150.9092" y1="35.5822" y2="35.5822" /><line stroke="rgb(0%,0%,0%)" x1="150.9092" x2="148.9321" y1="35.5822" y2="35.5822" /><line stroke="rgb(0%,0%,0%)" x1="148.9321" x2="147.7986" y1="35.5822" y2="35.8231" /><line stroke="rgb(0%,0%,0%)" x1="147.7986" x2="145.8647" y1="35.8231" y2="36.2342" /><line stroke="rgb(0%,0%,0%)" x1="145.8647" x2="144.8062" y1="36.2342" y2="36.7055" /><line stroke="rgb(0%,0%,0%)" x1="144.8062" x2="143.0" y1="36.7055" y2="37.5096" /><line stroke="rgb(0%,0%,0%)" x1="143.0" x2="142.0625" y1="37.5096" y2="38.1907" /><line stroke="rgb(0%,0%,0%)" x1="142.0625" x2="140.463" y1="38.1907" y2="39.3528" /><line stroke="rgb(0%,0%,0%)" x1="140.463" x2="139.6877" y1="39.3528" y2="40.2139" /><line stroke="rgb(0%,0%,0%)" x1="139.6877" x2="138.3647" y1="40.2139" y2="41.6832" /><line stroke="rgb(0%,0%,0%)" x1="138.3647" x2="137.7854" y1="41.6832" y2="42.6867" /><line stroke="rgb(0%,0%,0%)" x1="137.7854" x2="136.7968" y1="42.6867" y2="44.3989" /><line stroke="rgb(0%,0%,0%)" x1="136.7968" x2="136.4387" y1="44.3989" y2="45.501" /><line stroke="rgb(0%,0%,0%)" x1="136.4387" x2="135.8278" y1="45.501" y2="47.3813" /><line stroke="rgb(0%,0%,0%)" x1="35.8278" x2="35.7067" y1="47.3813" y2="48.5337" /><line stroke="rgb(0%,0%,0%)" x1="35.7067" x2="35.5" y1="48.5337" y2="50.5" /><line stroke="rgb(0%,0%,0%)" x1="35.5" x2="35.6211" y1="50.5" y2="51.6524" /><line stroke="rgb(0%,0%,0%)" x1="35.6211" x2="35.8278" y1="51.6524" y2="53.6187" /><line stroke="rgb(0%,0%,0%)" x1="35.8278" x2="36.1859" y1="53.6187" y2="54.7207" /><line stroke="rgb(0%,0%,0%)" x1="36.1859" x2="36.7968" y1="54.7207" y2="56.6011" /><line stroke="rgb(0%,0%,0%)" x1="36.7968" x2="37.3762" y1="56.6011" y2="57.6046" /><line stroke="rgb(0%,0%,0%)" x1="37.3762" x2="38.3647" y1="57.6046" y2="59.3168" /><line stroke="rgb(0%,0%,0%)" x1="38.3647" x2="39.1401" y1="59.3168" y2="60.1779" /><line stroke="rgb(0%,0%,0%)" x1="39.1401" x2="40.463" y1="60.1779" y2="61.6472" /><line stroke="rgb(0%,0%,0%)" x1="40.463" x2="41.4005" y1="61.6472" y2="62.3283" /><line stroke="rgb(0%,0%,0%)" x1="41.4005" x2="43.0" y1="62.3283" y2="63.4904" /><line stroke="rgb(0%,0%,0%)" x1="43.0" x2="44.0586" y1="63.4904" y2="63.9617" /><line stroke="rgb(0%,0%,0%)" x1="44.0586" x2="45.8647" y1="63.9617" y2="64.7658" /><line stroke="rgb(0%,0%,0%)" x1="45.8647" x2="46.9982" y1="64.7658" y2="65.0068" /><line stroke="rgb(0%,0%,0%)" x1="46.9982" x2="48.9321" y1="65.0068" y2="65.4178" /><line stroke="rgb(0%,0%,0%)" x1="48.9321" x2="50.0908" y1="65.4178" y2="65.4178" /><line stroke="rgb(0%,0%,0%)" x1="50.0908" x2="52.0679" y1="65.4178" y2="65.4178" /><line stroke="rgb(0%,0%,0%)" x1="52.0679" x2="53.2014" y1="65.4178" y2="65.1769" /><line stroke="rgb(0%,0%,0%)" x1="53.2014" x2="55.1353" y1="65.1769" y2="64.7658" /><line stroke="rgb(0%,0%,0%)" x1="55.1353" x2="56.1938" y1="64.7658" y2="64.2945" /><line stroke="rgb(0%,0%,0%)" x1="56.1938" x2="58.0" y1="64.2945" y2="63.4904" /><line stroke="rgb(0%,0%,0%)" x1="58.0" x2="58.9375" y1="63.4904" y2="62.8093" /><line stroke="rgb(0%,0%,0%)" x1="58.9375" x2="60.537" y1="62.8093" y2="61.6472" /><line stroke="rgb(0%,0%,0%)" x1="60.537" x2="61.3123" y1="61.6472" y2="60.786" /><line stroke="rgb(0%,0%,0%)" x1="61.3123" x2="62.6352" y1="60.786" y2="59.3168" /><line stroke="rgb(0%,0%,0%)" x1="62.6352" x2="63.2146" y1="59.3168" y2="58.3133" /><line stroke="rgb(0%,0%,0%)" x1="63.2146" x2="64.2032" y1="58.3133" y2="56.6011" /><line stroke="rgb(0%,0%,0%)" x1="64.2032" x2="64.5613" y1="56.6011" y2="55.499" /><line stroke="rgb(0%,0%,0%)" x1="64.5613" x2="65.1722" y1="55.499" y2="53.6187" /><line stroke="rgb(0%,0%,0%)" x1="65.1722" x2="65.2933" y1="53.6187" y2="52.4663" /><line stroke="rgb(0%,0%,0%)" x1="65.2933" x2="65.5" y1="52.4663" y2="50.5" /><line stroke="rgb(0%,0%,0%)" x1="65.5" x2="65.3789" y1="50.5" y2="49.3476" /><line stroke="rgb(0%,0%,0%)" x1="65.3789" x2="65.1722" y1="49.3476" y2="47.3813" /><line stroke="rgb(0%,0%,0%)" x1="65.1722" x2="64.8141" y1="47.3813" y2="46.2793" /><line stroke="rgb(0%,0%,0%)" x1="64.8141" x2="64.2032" y1="46.2793" y2="44.3989" /><line stroke="rgb(0%,0%,0%)" x1="64.2032" x2="63.6238" y1="44.3989" y2="43.3954" /><line stroke="rgb(0%,0%,0%)" x1="63.6238" x2="62.6352" y1="43.3954" y2="41.6832" /><line stroke="rgb(0%,0%,0%)" x1="62.6352" x2="61.8599" y1="41.6832" y2="40.8221" /><line stroke="rgb(0%,0%,0%)" x1="61.8599" x2="60.537" y1="40.8221" y2="39.3528" /><line stroke="rgb(0%,0%,0%)" x1="60.537" x2="59.5995" y1="39.3528" y2="38.6717" /><line stroke="rgb(0%,0%,0%)" x1="59.5995" x2="58.0" y1="38.6717" y2="37.5096" /><line stroke="rgb(0%,0%,0%)" x1="58.0" x2="56.9414" y1="37.5096" y2="37.0383" /><line stroke="rgb(0%,0%,0%)" x1="56.9414" x2="55.1353" y1="37.0383" y2="36.2342" /><line stroke="rgb(0%,0%,0%)" x1="55.1353" x2="54.0018" y1="36.2342" y2="35.9932" /><line stroke="rgb(0%,0%,0%)" x1="54.0018" x2="52.0679" y1="35.9932" y2="35.5822" /><line stroke="rgb(0%,0%,0%)" x1="52.0679" x2="50.9092" y1="35.5822" y2="35.5822" /><line stroke="rgb(0%,0%,0%)" x1="50.9092" x2="48.9321" y1="35.5822" y2="35.5822" /><line stroke="rgb(0%,0%,0%)" x1="48.9321" x2="47.7986" y1="35.5822" y2="35.8231" /><line stroke="rgb(0%,0%,0%)" x1="47.7986" x2="45.8647" y1="35.8231" y2="36.2342" /><line stroke="rgb(0%,0%,0%)" x1="45.8647" x2="44.8062" y1="36.2342" y2="36.7055" /><line stroke="rgb(0%,0%,0%)" x1="44.8062" x2="43.0" y1="36.7055" y2="37.5096" /><line stroke="rgb(0%,0%,0%)" x1="43.0" x2="42.0625" y1="37.5096" y2="38.1907" /><line stroke="rgb(0%,0%,0%)" x1="42.0625" x2="40.463" y1="38.1907" y2="39.3528" /><line stroke="rgb(0%,0%,0%)" x1="40.463" x2="39.6877" y1="39.3528" y2="40.2139" /><line stroke="rgb(0%,0%,0%)" x1="39.6877" x2="38.3647" y1="40.2139" y2="41.6832" /><line stroke="rgb(0%,0%,0%)" x1="38.3647" x2="37.7854" y1="41.6832" y2="42.6867" /><line stroke="rgb(0%,0%,0%)" x1="37.7854" x2="36.7968" y1="42.6867" y2="44.3989" /><line stroke="rgb(0%,0%,0%)" x1="36.7968" x2="36.4387" y1="44.3989" y2="45.501" /><line stroke="rgb(0%,0%,0%)" x1="36.4387" x2="35.8278" y1="45.501" y2="47.3813" /></svg>