<?xml version="1.0" encoding="utf-8" ?>
<svg baseProfile="tiny" height="100%" version="1.2" width="100%" xmlns="http://www.w3.org/2000/svg" xmlns:ev="http://www.w3.org/2001/xml-events" xmlns:xlink="http://www.w3.org/1999/xlink"><defs /><line stroke="rgb(0%,0%,0%)" x1="351.9" x2="351.9" y1="0.5" y2="6.1163" /><line stroke="rgb(0%,0%,0%)" x1="351.9" x2="351.9" y1="6.1163" y2="100.5" /><line stroke="rgb(0%,0%,0%)" x1="342.1464" x2="349.8354" y1="100.5" y2="100.5" /><line stroke="rgb(0%,0%,0%)" x1="349.8354" x2="350.1036" y1="100.5" y2="100.5" /><line stroke="rgb(0%,0%,0%)" x1="350.1036" x2="350.4099" y1="100.5" y2="100.5" /><line stroke="rgb(0%,0%,0%)" x1="350.4099" x2="350.7499" y1="100.5" y2="100.5" /><line stroke="rgb(0%,0%,0%)" x1="350.7499" x2="351.1172" y1="100.5" y2="100.5" /><line stroke="rgb(0%,0%,0%)" x1="351.1172" x2="351.5036" y1="100.5" y2="100.5" /><line stroke="rgb(0%,0%,0%)" x1="351.5036" x2="351.9" y1="100.5" y2="100.5" /><line stroke="rgb(0%,0%,0%)" x1="342.1464" x2="13.5794" y1="100.5" y2="100.5" /><line stroke="rgb(0%,0%,0%)" x1="13.5794" x2="0.5" y1="100.5" y2="100.5" /><line stroke="rgb(0%,0%,0%)" x1="0.5" x2="13.5794" y1="0.5" y2="0.5" /><line stroke="rgb(0%,0%,0%)" x1="13.5794" x2="342.1464" y1="0.5" y2="0.5" /><line stroke="rgb(0%,0%,0%)" x1="342.1464" x2="349.8354" y1="0.5" y2="0.5" /><line stroke="rgb(0%,0%,0%)" x1="349.8354" x2="350.1036" y1="0.5" y2="0.5" /><line stroke="rgb(0%,0%,0%)" x1="350.1036" x2="350.4099" y1="0.5" y2="0.5" /><line stroke="rgb(0%,0%,0%)" x1="350.4099" x2="350.7499" y1="0.5" y2="0.5" /><line stroke="rgb(0%,0%,0%)" x1="350.7499" x2="351.1172" y1="0.5" y2="0.5" /><line stroke="rgb(0%,0%,0%)" x1="351.1172" x2="351.5036" y1="0.5" y2="0.5" /><line stroke="rgb(0%,0%,0%)" x1="351.5036" x2="351.9" y1="0.5" y2="0.5" /><line stroke="rgb(0%,0%,0%)" x1="0.5" x2="0.5" y1="0.5" y2="94.0023" /><line stroke="rgb(0%,0%,0%)" x1="0.5" x2="0.5" y1="94.0023" y2="100.5" /><line stroke="rgb(0%,0%,0%)" x1="165.1722" x2="165.4574" y1="47.3813" y2="50.0947" /><line stroke="rgb(0%,0%,0%)" x1="165.4574" x2="165.5" y1="50.0947" y2="50.5" /><line stroke="rgb(0%,0%,0%)" x1="165.5" x2="165.2148" y1="50.5" y2="53.2134" /><line stroke="rgb(0%,0%,0%)" x1="165.2148" x2="165.1722" y1="53.2134" y2="53.6187" /><line stroke="rgb(0%,0%,0%)" x1="165.1722" x2="164.3291" y1="53.6187" y2="56.2135" /><line stroke="rgb(0%,0%,0%)" x1="164.3291" x2="164.2032" y1="56.2135" y2="56.6011" /><line stroke="rgb(0%,0%,0%)" x1="164.2032" x2="162.839" y1="56.6011" y2="58.9639" /><line stroke="rgb(0%,0%,0%)" x1="162.839" x2="162.6353" y1="58.9639" y2="59.3168" /><line stroke="rgb(0%,0%,0%)" x1="162.6353" x2="160.8096" y1="59.3168" y2="61.3443" /><line stroke="rgb(0%,0%,0%)" x1="160.8096" x2="160.537" y1="61.3443" y2="61.6472" /><line stroke="rgb(0%,0%,0%)" x1="160.537" x2="158.3297" y1="61.6472" y2="63.2508" /><line stroke="rgb(0%,0%,0%)" x1="158.3297" x2="158.0" y1="63.2508" y2="63.4904" /><line stroke="rgb(0%,0%,0%)" x1="158.0" x2="155.5075" y1="63.4904" y2="64.6001" /><line stroke="rgb(0%,0%,0%)" x1="155.5075" x2="155.1353" y1="64.6001" y2="64.7658" /><line stroke="rgb(0%,0%,0%)" x1="155.1353" x2="152.4665" y1="64.7658" y2="65.3331" /><line stroke="rgb(0%,0%,0%)" x1="152.4665" x2="152.0679" y1="65.3331" y2="65.4178" /><line stroke="rgb(0%,0%,0%)" x1="152.0679" x2="149.3396" y1="65.4178" y2="65.4178" /><line stroke="rgb(0%,0%,0%)" x1="149.3396" x2="148.9321" y1="65.4178" y2="65.4178" /><line stroke="rgb(0%,0%,0%)" x1="148.9321" x2="146.2634" y1="65.4178" y2="64.8506" /><line stroke="rgb(0%,0%,0%)" x1="146.2634" x2="145.8647" y1="64.8506" y2="64.7658" /><line stroke="rgb(0%,0%,0%)" x1="145.8647" x2="143.3723" y1="64.7658" y2="63.6561" /><line stroke="rgb(0%,0%,0%)" x1="143.3723" x2="143.0" y1="63.6561" y2="63.4904" /><line stroke="rgb(0%,0%,0%)" x1="143.0" x2="140.7927" y1="63.4904" y2="61.8867" /><line stroke="rgb(0%,0%,0%)" x1="140.7927" x2="140.463" y1="61.8867" y2="61.6472" /><line stroke="rgb(0%,0%,0%)" x1="140.463" x2="138.6374" y1="61.6472" y2="59.6196" /><line stroke="rgb(0%,0%,0%)" x1="138.6374" x2="138.3647" y1="59.6196" y2="59.3168" /><line stroke="rgb(0%,0%,0%)" x1="138.3647" x2="137.0006" y1="59.3168" y2="56.954" /><line stroke="rgb(0%,0%,0%)" x1="137.0006" x2="136.7968" y1="56.954" y2="56.6011" /><line stroke="rgb(0%,0%,0%)" x1="136.7968" x2="135.9537" y1="56.6011" y2="54.0062" /><line stroke="rgb(0%,0%,0%)" x1="135.9537" x2="135.8278" y1="54.0062" y2="53.6187" /><line stroke="rgb(0%,0%,0%)" x1="135.8278" x2="135.5426" y1="53.6187" y2="50.9053" /><line stroke="rgb(0%,0%,0%)" x1="135.5426" x2="135.5" y1="50.9053" y2="50.5" /><line stroke="rgb(0%,0%,0%)" x1="135.5" x2="135.7852" y1="50.5" y2="47.7866" /><line stroke="rgb(0%,0%,0%)" x1="135.7852" x2="135.8278" y1="47.7866" y2="47.3813" /><line stroke="rgb(0%,0%,0%)" x1="135.8278" x2="136.6709" y1="47.3813" y2="44.7865" /><line stroke="rgb(0%,0%,0%)" x1="136.6709" x2="136.7968" y1="44.7865" y2="44.3989" /><line stroke="rgb(0%,0%,0%)" x1="136.7968" x2="138.161" y1="44.3989" y2="42.0361" /><line stroke="rgb(0%,0%,0%)" x1="138.161" x2="138.3647" y1="42.0361" y2="41.6832" /><line stroke="rgb(0%,0%,0%)" x1="138.3647" x2="140.1904" y1="41.6832" y2="39.6557" /><line stroke="rgb(0%,0%,0%)" x1="140.1904" x2="140.463" y1="39.6557" y2="39.3528" /><line stroke="rgb(0%,0%,0%)" x1="140.463" x2="142.6703" y1="39.3528" y2="37.7492" /><line stroke="rgb(0%,0%,0%)" x1="142.6703" x2="143.0" y1="37.7492" y2="37.5096" /><line stroke="rgb(0%,0%,0%)" x1="143.0" x2="145.4925" y1="37.5096" y2="36.3999" /><line stroke="rgb(0%,0%,0%)" x1="145.4925" x2="145.8647" y1="36.3999" y2="36.2342" /><line stroke="rgb(0%,0%,0%)" x1="145.8647" x2="148.5335" y1="36.2342" y2="35.6669" /><line stroke="rgb(0%,0%,0%)" x1="148.5335" x2="148.9321" y1="35.6669" y2="35.5822" /><line stroke="rgb(0%,0%,0%)" x1="148.9321" x2="151.6604" y1="35.5822" y2="35.5822" /><line stroke="rgb(0%,0%,0%)" x1="151.6604" x2="152.0679" y1="35.5822" y2="35.5822" /><line stroke="rgb(0%,0%,0%)" x1="152.0679" x2="154.7366" y1="35.5822" y2="36.1494" /><line stroke="rgb(0%,0%,0%)" x1="154.7366" x2="155.1353" y1="36.1494" y2="36.2342" /><line stroke="rgb(0%,0%,0%)" x1="155.1353" x2="157.6277" y1="36.2342" y2="37.3439" /><line stroke="rgb(0%,0%,0%)" x1="157.6277" x2="158.0" y1="37.3439" y2="37.5096" /><line stroke="rgb(0%,0%,0%)" x1="158.0" x2="160.2073" y1="37.5096" y2="39.1133" /><line stroke="rgb(0%,0%,0%)" x1="160.2073" x2="160.537" y1="39.1133" y2="39.3528" /><line stroke="rgb(0%,0%,0%)" x1="160.537" x2="162.3626" y1="39.3528" y2="41.3804" /><line stroke="rgb(0%,0%,0%)" x1="162.3626" x2="162.6353" y1="41.3804" y2="41.6832" /><line stroke="rgb(0%,0%,0%)" x1="162.6353" x2="163.9994" y1="41.6832" y2="44.046" /><line stroke="rgb(0%,0%,0%)" x1="163.9994" x2="164.2032" y1="44.046" y2="44.3989" /><line stroke="rgb(0%,0%,0%)" x1="164.2032" x2="165.0463" y1="44.3989" y2="46.9938" /><line stroke="rgb(0%,0%,0%)" x1="165.0463" x2="165.1722" y1="46.9938" y2="47.3813" /><line stroke="rgb(0%,0%,0%)" x1="65.1722" x2="65.4574" y1="47.3813" y2="50.0947" /><line stroke="rgb(0%,0%,0%)" x1="65.4574" x2="65.5" y1="50.0947" y2="50.5" /><line stroke="rgb(0%,0%,0%)" x1="65.5" x2="65.2148" y1="50.5" y2="53.2134" /><line stroke="rgb(0%,0%,0%)" x1="65.2148" x2="65.1722" y1="53.2134" y2="53.6187" /><line stroke="rgb(0%,0%,0%)" x1="65.1722" x2="64.3291" y1="53.6187" y2="56.2135" /><line stroke="rgb(0%,0%,0%)" x1="64.3291" x2="64.2032" y1="56.2135" y2="56.6011" /><line stroke="rgb(0%,0%,0%)" x1="64.2032" x2="62.839" y1="56.6011" y2="58.9639" /><line stroke="rgb(0%,0%,0%)" x1="62.839" x2="62.6352" y1="58.9639" y2="59.3168" /><line stroke="rgb(0%,0%,0%)" x1="62.6352" x2="60.8096" y1="59.3168" y2="61.3443" /><line stroke="rgb(0%,0%,0%)" x1="60.8096" x2="60.537" y1="61.3443" y2="61.6472" /><line stroke="rgb(0%,0%,0%)" x1="60.537" x2="58.3297" y1="61.6472" y2="63.2508" /><line stroke="rgb(0%,0%,0%)" x1="58.3297" x2="58.0" y1="63.2508" y2="63.4904" /><line stroke="rgb(0%,0%,0%)" x1="58.0" x2="55.5075" y1="63.4904" y2="64.6001" /><line stroke="rgb(0%,0%,0%)" x1="55.5075" x2="55.1353" y1="64.6001" y2="64.7658" /><line stroke="rgb(0%,0%,0%)" x1="55.1353" x2="52.4665" y1="64.7658" y2="65.3331" /><line stroke="rgb(0%,0%,0%)" x1="52.4665" x2="52.0679" y1="65.3331" y2="65.4178" /><line stroke="rgb(0%,0%,0%)" x1="52.0679" x2="49.3396" y1="65.4178" y2="65.4178" /><line stroke="rgb(0%,0%,0%)" x1="49.3396" x2="48.9321" y1="65.4178" y2="65.4178" /><line stroke="rgb(0%,0%,0%)" x1="48.9321" x2="46.2634" y1="65.4178" y2="64.8506" /><line stroke="rgb(0%,0%,0%)" x1="46.2634" x2="45.8647" y1="64.8506" y2="64.7658" /><line stroke="rgb(0%,0%,0%)" x1="45.8647" x2="43.3723" y1="64.7658" y2="63.6561" /><line stroke="rgb(0%,0%,0%)" x1="43.3723" x2="43.0" y1="63.6561" y2="63.4904" /><line stroke="rgb(0%,0%,0%)" x1="43.0" x2="40.7927" y1="63.4904" y2="61.8867" /><line stroke="rgb(0%,0%,0%)" x1="40.7927" x2="40.463" y1="61.8867" y2="61.6472" /><line stroke="rgb(0%,0%,0%)" x1="40.463" x2="38.6374" y1="61.6472" y2="59.6196" /><line stroke="rgb(0%,0%,0%)" x1="38.6374" x2="38.3647" y1="59.6196" y2="59.3168" /><line stroke="rgb(0%,0%,0%)" x1="38.3647" x2="37.0006" y1="59.3168" y2="56.954" /><line stroke="rgb(0%,0%,0%)" x1="37.0006" x2="36.7968" y1="56.954" y2="56.6011" /><line stroke="rgb(0%,0%,0%)" x1="36.7968" x2="35.9537" y1="56.6011" y2="54.0062" /><line stroke="rgb(0%,0%,0%)" x1="35.9537" x2="35.8278" y1="54.0062" y2="53.6187" /><line stroke="rgb(0%,0%,0%)" x1="35.8278" x2="35.5426" y1="53.6187" y2="50.9053" /><line stroke="rgb(0%,0%,0%)" x1="35.5426" x2="35.5" y1="50.9053" y2="50.5" /><line stroke="rgb(0%,0%,0%)" x1="35.5" x2="35.7852" y1="50.5" y2="47.7866" /><line stroke="rgb(0%,0%,0%)" x1="35.7852" x2="35.8278" y1="47.7866" y2="47.3813" /><line stroke="rgb(0%,0%,0%)" x1="35.8278" x2="36.6709" y1="47.3813" y2="44.7865" /><line stroke="rgb(0%,0%,0%)" x1="36.6709" x2="36.7968" y1="44.7865" y2="44.3989" /><line stroke="rgb(0%,0%,0%)" x1="36.7968" x2="38.161" y1="44.3989" y2="42.0361" /><line stroke="rgb(0%,0%,0%)" x1="38.161" x2="38.3647" y1="42.0361" y2="41.6832" /><line stroke="rgb(0%,0%,0%)" x1="38.3647" x2="40.1904" y1="41.6832" y2="39.6557" /><line stroke="rgb(0%,0%,0%)" x1="40.1904" x2="40.463" y1="39.6557" y2="39.3528" /><line stroke="rgb(0%,0%,0%)" x1="40.463" x2="42.6703" y1="39.3528" y2="37.7492" /><line stroke="rgb(0%,0%,0%)" x1="42.6703" x2="43.0" y1="37.7492" y2="37.5096" /><line stroke="rgb(0%,0%,0%)" x1="43.0" x2="45.4925" y1="37.5096" y2="36.3999" /><line stroke="rgb(0%,0%,0%)" x1="45.4925" x2="45.8647" y1="36.3999" y2="36.2342" /><line stroke="rgb(0%,0%,0%)" x1="45.8647" x2="48.5335" y1="36.2342" y2="35.6669" /><line stroke="rgb(0%,0%,0%)" x1="48.5335" x2="48.9321" y1="35.6669" y2="35.5822" /><line stroke="rgb(0%,0%,0%)" x1="48.9321" x2="51.6604" y1="35.5822" y2="35.5822" /><line stroke="rgb(0%,0%,0%)" x1="51.6604" x2="52.0679" y1="35.5822" y2="35.5822" /><line stroke="rgb(0%,0%,0%)" x1="52.0679" x2="54.7366" y1="35.5822" y2="36.1494" /><line stroke="rgb(0%,0%,0%)" x1="54.7366" x2="55.1353" y1="36.1494" y2="36.2342" /><line stroke="rgb(0%,0%,0%)" x1="55.1353" x2="57.6277" y1="36.2342" y2="37.3439" /><line stroke="rgb(0%,0%,0%)" x1="57.6277" x2="58.0" y1="37.3439" y2="37.5096" /><line stroke="rgb(0%,0%,0%)" x1="58.0" x2="60.2073" y1="37.5096" y2="39.1133" /><line stroke="rgb(0%,0%,0%)" x1="60.2073" x2="60.537" y1="39.1133" y2="39.3528" /><line stroke="rgb(0%,0%,0%)" x1="60.537" x2="62.3626" y1="39.3528" y2="41.3804" /><line stroke="rgb(0%,0%,0%)" x1="62.3626" x2="62.6352" y1="41.3804" y2="41.6832" /><line stroke="rgb(0%,0%,0%)" x1="62.6352" x2="63.9994" y1="41.6832" y2="44.046" /><line stroke="rgb(0%,0%,0%)" x1="63.9994" x2="64.2032" y1="44.046" y2="44.3989" /><line stroke="rgb(0%,0%,0%)" x1="64.2032" x2="65.0463" y1="44.3989" y2="46.9938" /><line stroke="rgb(0%,0%,0%)" x1="65.0463" x2="65.1722" y1="46.9938" y2="47.3813" /></svg>