<?xml version="1.0" encoding="utf-8" ?>
<svg baseProfile="tiny" height="100%" version="1.2" width="100%" xmlns="http://www.w3.org/2000/svg" xmlns:ev="http://www.w3.org/2001/xml-events" xmlns:xlink="http://www.w3.org/1999/xlink"><defs /><line stroke="rgb(0%,0%,0%)" x1="351.9" x2="351.9" y1="0.5" y2="60.5509" /><line stroke="rgb(0%,0%,0%)" x1="351.9" x2="351.9" y1="60.5509" y2="100.5" /><line stroke="rgb(0%,0%,0%)" x1="247.6118" x2="329.8248" y1="100.5" y2="100.5" /><line stroke="rgb(0%,0%,0%)" x1="329.8248" x2="332.692" y1="100.5" y2="100.5" /><line stroke="rgb(0%,0%,0%)" x1="332.692" x2="335.9676" y1="100.5" y2="100.5" /><line stroke="rgb(0%,0%,0%)" x1="335.9676" x2="339.603" y1="100.5" y2="100.5" /><line stroke="rgb(0%,0%,0%)" x1="339.603" x2="343.5297" y1="100.5" y2="100.5" /><line stroke="rgb(0%,0%,0%)" x1="343.5297" x2="347.6617" y1="100.5" y2="100.5" /><line stroke="rgb(0%,0%,0%)" x1="347.6617" x2="351.9" y1="100.5" y2="100.5" /><line stroke="rgb(0%,0%,0%)" x1="247.6118" x2="140.3489" y1="100.5" y2="100.5" /><line stroke="rgb(0%,0%,0%)" x1="140.3489" x2="0.5" y1="100.5" y2="100.5" /><line stroke="rgb(0%,0%,0%)" x1="0.5" x2="140.3489" y1="0.5" y2="0.5" /><line stroke="rgb(0%,0%,0%)" x1="140.3489" x2="247.6118" y1="0.5" y2="0.5" /><line stroke="rgb(0%,0%,0%)" x1="247.6118" x2="329.8248" y1="0.5" y2="0.5" /><line stroke="rgb(0%,0%,0%)" x1="329.8248" x2="332.692" y1="0.5" y2="0.5" /><line stroke="rgb(0%,0%,0%)" x1="332.692" x2="335.9676" y1="0.5" y2="0.5" /><line stroke="rgb(0%,0%,0%)" x1="335.9676" x2="339.603" y1="0.5" y2="0.5" /><line stroke="rgb(0%,0%,0%)" x1="339.603" x2="343.5297" y1="0.5" y2="0.5" /><line stroke="rgb(0%,0%,0%)" x1="343.5297" x2="347.6617" y1="0.5" y2="0.5" /><line stroke="rgb(0%,0%,0%)" x1="347.6617" x2="351.9" y1="0.5" y2="0.5" /><line stroke="rgb(0%,0%,0%)" x1="0.5" x2="0.5" y1="0.5" y2="31.0244" /><line stroke="rgb(0%,0%,0%)" x1="0.5" x2="0.5" y1="31.0244" y2="100.5" /><line stroke="rgb(0%,0%,0%)" x1="135.8278" x2="135.7001" y1="47.3813" y2="48.5961" /><line stroke="rgb(0%,0%,0%)" x1="135.7001" x2="135.5" y1="48.5961" y2="50.5" /><line stroke="rgb(0%,0%,0%)" x1="135.5" x2="135.6277" y1="50.5" y2="51.7148" /><line stroke="rgb(0%,0%,0%)" x1="135.6277" x2="135.8278" y1="51.7148" y2="53.6187" /><line stroke="rgb(0%,0%,0%)" x1="135.8278" x2="136.2052" y1="53.6187" y2="54.7803" /><line stroke="rgb(0%,0%,0%)" x1="136.2052" x2="136.7968" y1="54.7803" y2="56.6011" /><line stroke="rgb(0%,0%,0%)" x1="136.7968" x2="137.4075" y1="56.6011" y2="57.6589" /><line stroke="rgb(0%,0%,0%)" x1="137.4075" x2="138.3647" y1="57.6589" y2="59.3168" /><line stroke="rgb(0%,0%,0%)" x1="138.3647" x2="139.1821" y1="59.3168" y2="60.2245" /><line stroke="rgb(0%,0%,0%)" x1="139.1821" x2="140.463" y1="60.2245" y2="61.6472" /><line stroke="rgb(0%,0%,0%)" x1="140.463" x2="141.4512" y1="61.6472" y2="62.3651" /><line stroke="rgb(0%,0%,0%)" x1="141.4512" x2="143.0" y1="62.3651" y2="63.4904" /><line stroke="rgb(0%,0%,0%)" x1="143.0" x2="144.1158" y1="63.4904" y2="63.9872" /><line stroke="rgb(0%,0%,0%)" x1="144.1158" x2="145.8647" y1="63.9872" y2="64.7658" /><line stroke="rgb(0%,0%,0%)" x1="145.8647" x2="147.0595" y1="64.7658" y2="65.0198" /><line stroke="rgb(0%,0%,0%)" x1="147.0595" x2="148.9321" y1="65.0198" y2="65.4178" /><line stroke="rgb(0%,0%,0%)" x1="148.9321" x2="150.1535" y1="65.4178" y2="65.4178" /><line stroke="rgb(0%,0%,0%)" x1="150.1535" x2="152.0679" y1="65.4178" y2="65.4178" /><line stroke="rgb(0%,0%,0%)" x1="152.0679" x2="153.2627" y1="65.4178" y2="65.1639" /><line stroke="rgb(0%,0%,0%)" x1="153.2627" x2="155.1353" y1="65.1639" y2="64.7658" /><line stroke="rgb(0%,0%,0%)" x1="155.1353" x2="156.2511" y1="64.7658" y2="64.269" /><line stroke="rgb(0%,0%,0%)" x1="156.2511" x2="158.0" y1="64.269" y2="63.4904" /><line stroke="rgb(0%,0%,0%)" x1="158.0" x2="158.9882" y1="63.4904" y2="62.7724" /><line stroke="rgb(0%,0%,0%)" x1="158.9882" x2="160.537" y1="62.7724" y2="61.6472" /><line stroke="rgb(0%,0%,0%)" x1="160.537" x2="161.3543" y1="61.6472" y2="60.7395" /><line stroke="rgb(0%,0%,0%)" x1="161.3543" x2="162.6353" y1="60.7395" y2="59.3168" /><line stroke="rgb(0%,0%,0%)" x1="162.6353" x2="163.246" y1="59.3168" y2="58.259" /><line stroke="rgb(0%,0%,0%)" x1="163.246" x2="164.2032" y1="58.259" y2="56.6011" /><line stroke="rgb(0%,0%,0%)" x1="164.2032" x2="164.5806" y1="56.6011" y2="55.4394" /><line stroke="rgb(0%,0%,0%)" x1="164.5806" x2="165.1722" y1="55.4394" y2="53.6187" /><line stroke="rgb(0%,0%,0%)" x1="165.1722" x2="165.2999" y1="53.6187" y2="52.4039" /><line stroke="rgb(0%,0%,0%)" x1="165.2999" x2="165.5" y1="52.4039" y2="50.5" /><line stroke="rgb(0%,0%,0%)" x1="165.5" x2="165.3723" y1="50.5" y2="49.2852" /><line stroke="rgb(0%,0%,0%)" x1="165.3723" x2="165.1722" y1="49.2852" y2="47.3813" /><line stroke="rgb(0%,0%,0%)" x1="165.1722" x2="164.7948" y1="47.3813" y2="46.2197" /><line stroke="rgb(0%,0%,0%)" x1="164.7948" x2="164.2032" y1="46.2197" y2="44.3989" /><line stroke="rgb(0%,0%,0%)" x1="164.2032" x2="163.5925" y1="44.3989" y2="43.3411" /><line stroke="rgb(0%,0%,0%)" x1="163.5925" x2="162.6353" y1="43.3411" y2="41.6832" /><line stroke="rgb(0%,0%,0%)" x1="162.6353" x2="161.8179" y1="41.6832" y2="40.7755" /><line stroke="rgb(0%,0%,0%)" x1="161.8179" x2="160.537" y1="40.7755" y2="39.3528" /><line stroke="rgb(0%,0%,0%)" x1="160.537" x2="159.5488" y1="39.3528" y2="38.6349" /><line stroke="rgb(0%,0%,0%)" x1="159.5488" x2="158.0" y1="38.6349" y2="37.5096" /><line stroke="rgb(0%,0%,0%)" x1="158.0" x2="156.8841" y1="37.5096" y2="37.0128" /><line stroke="rgb(0%,0%,0%)" x1="156.8841" x2="155.1353" y1="37.0128" y2="36.2342" /><line stroke="rgb(0%,0%,0%)" x1="155.1353" x2="153.9405" y1="36.2342" y2="35.9802" /><line stroke="rgb(0%,0%,0%)" x1="153.9405" x2="152.0679" y1="35.9802" y2="35.5822" /><line stroke="rgb(0%,0%,0%)" x1="152.0679" x2="150.8465" y1="35.5822" y2="35.5822" /><line stroke="rgb(0%,0%,0%)" x1="150.8465" x2="148.9321" y1="35.5822" y2="35.5822" /><line stroke="rgb(0%,0%,0%)" x1="148.9321" x2="147.7373" y1="35.5822" y2="35.8361" /><line stroke="rgb(0%,0%,0%)" x1="147.7373" x2="145.8647" y1="35.8361" y2="36.2342" /><line stroke="rgb(0%,0%,0%)" x1="145.8647" x2="144.7489" y1="36.2342" y2="36.731" /><line stroke="rgb(0%,0%,0%)" x1="144.7489" x2="143.0" y1="36.731" y2="37.5096" /><line stroke="rgb(0%,0%,0%)" x1="143.0" x2="142.0118" y1="37.5096" y2="38.2276" /><line stroke="rgb(0%,0%,0%)" x1="142.0118" x2="140.463" y1="38.2276" y2="39.3528" /><line stroke="rgb(0%,0%,0%)" x1="140.463" x2="139.6457" y1="39.3528" y2="40.2605" /><line stroke="rgb(0%,0%,0%)" x1="139.6457" x2="138.3647" y1="40.2605" y2="41.6832" /><line stroke="rgb(0%,0%,0%)" x1="138.3647" x2="137.754" y1="41.6832" y2="42.741" /><line stroke="rgb(0%,0%,0%)" x1="137.754" x2="136.7968" y1="42.741" y2="44.3989" /><line stroke="rgb(0%,0%,0%)" x1="136.7968" x2="136.4194" y1="44.3989" y2="45.5606" /><line stroke="rgb(0%,0%,0%)" x1="136.4194" x2="135.8278" y1="45.5606" y2="47.3813" /><line stroke="rgb(0%,0%,0%)" x1="35.8278" x2="35.7001" y1="47.3813" y2="48.5961" /><line stroke="rgb(0%,0%,0%)" x1="35.7001" x2="35.5" y1="48.5961" y2="50.5" /><line stroke="rgb(0%,0%,0%)" x1="35.5" x2="35.6277" y1="50.5" y2="51.7148" /><line stroke="rgb(0%,0%,0%)" x1="35.6277" x2="35.8278" y1="51.7148" y2="53.6187" /><line stroke="rgb(0%,0%,0%)" x1="35.8278" x2="36.2052" y1="53.6187" y2="54.7803" /><line stroke="rgb(0%,0%,0%)" x1="36.2052" x2="36.7968" y1="54.7803" y2="56.6011" /><line stroke="rgb(0%,0%,0%)" x1="36.7968" x2="37.4075" y1="56.6011" y2="57.6589" /><line stroke="rgb(0%,0%,0%)" x1="37.4075" x2="38.3647" y1="57.6589" y2="59.3168" /><line stroke="rgb(0%,0%,0%)" x1="38.3647" x2="39.1821" y1="59.3168" y2="60.2245" /><line stroke="rgb(0%,0%,0%)" x1="39.1821" x2="40.463" y1="60.2245" y2="61.6472" /><line stroke="rgb(0%,0%,0%)" x1="40.463" x2="41.4512" y1="61.6472" y2="62.3651" /><line stroke="rgb(0%,0%,0%)" x1="41.4512" x2="43.0" y1="62.3651" y2="63.4904" /><line stroke="rgb(0%,0%,0%)" x1="43.0" x2="44.1158" y1="63.4904" y2="63.9872" /><line stroke="rgb(0%,0%,0%)" x1="44.1158" x2="45.8647" y1="63.9872" y2="64.7658" /><line stroke="rgb(0%,0%,0%)" x1="45.8647" x2="47.0595" y1="64.7658" y2="65.0198" /><line stroke="rgb(0%,0%,0%)" x1="47.0595" x2="48.9321" y1="65.0198" y2="65.4178" /><line stroke="rgb(0%,0%,0%)" x1="48.9321" x2="50.1535" y1="65.4178" y2="65.4178" /><line stroke="rgb(0%,0%,0%)" x1="50.1535" x2="52.0679" y1="65.4178" y2="65.4178" /><line stroke="rgb(0%,0%,0%)" x1="52.0679" x2="53.2627" y1="65.4178" y2="65.1639" /><line stroke="rgb(0%,0%,0%)" x1="53.2627" x2="55.1353" y1="65.1639" y2="64.7658" /><line stroke="rgb(0%,0%,0%)" x1="55.1353" x2="56.2511" y1="64.7658" y2="64.269" /><line stroke="rgb(0%,0%,0%)" x1="56.2511" x2="58.0" y1="64.269" y2="63.4904" /><line stroke="rgb(0%,0%,0%)" x1="58.0" x2="58.9882" y1="63.4904" y2="62.7724" /><line stroke="rgb(0%,0%,0%)" x1="58.9882" x2="60.537" y1="62.7724" y2="61.6472" /><line stroke="rgb(0%,0%,0%)" x1="60.537" x2="61.3543" y1="61.6472" y2="60.7395" /><line stroke="rgb(0%,0%,0%)" x1="61.3543" x2="62.6352" y1="60.7395" y2="59.3168" /><line stroke="rgb(0%,0%,0%)" x1="62.6352" x2="63.246" y1="59.3168" y2="58.259" /><line stroke="rgb(0%,0%,0%)" x1="63.246" x2="64.2032" y1="58.259" y2="56.6011" /><line stroke="rgb(0%,0%,0%)" x1="64.2032" x2="64.5806" y1="56.6011" y2="55.4394" /><line stroke="rgb(0%,0%,0%)" x1="64.5806" x2="65.1722" y1="55.4394" y2="53.6187" /><line stroke="rgb(0%,0%,0%)" x1="65.1722" x2="65.2999" y1="53.6187" y2="52.4039" /><line stroke="rgb(0%,0%,0%)" x1="65.2999" x2="65.5" y1="52.4039" y2="50.5" /><line stroke="rgb(0%,0%,0%)" x1="65.5" x2="65.3723" y1="50.5" y2="49.2852" /><line stroke="rgb(0%,0%,0%)" x1="65.3723" x2="65.1722" y1="49.2852" y2="47.3813" /><line stroke="rgb(0%,0%,0%)" x1="65.1722" x2="64.7948" y1="47.3813" y2="46.2197" /><line stroke="rgb(0%,0%,0%)" x1="64.7948" x2="64.2032" y1="46.2197" y2="44.3989" /><line stroke="rgb(0%,0%,0%)" x1="64.2032" x2="63.5924" y1="44.3989" y2="43.3411" /><line stroke="rgb(0%,0%,0%)" x1="63.5924" x2="62.6352" y1="43.3411" y2="41.6832" /><line stroke="rgb(0%,0%,0%)" x1="62.6352" x2="61.8179" y1="41.6832" y2="40.7755" /><line stroke="rgb(0%,0%,0%)" x1="61.8179" x2="60.537" y1="40.7755" y2="39.3528" /><line stroke="rgb(0%,0%,0%)" x1="60.537" x2="59.5488" y1="39.3528" y2="38.6349" /><line stroke="rgb(0%,0%,0%)" x1="59.5488" x2="58.0" y1="38.6349" y2="37.5096" /><line stroke="rgb(0%,0%,0%)" x1="58.0" x2="56.8842" y1="37.5096" y2="37.0128" /><line stroke="rgb(0%,0%,0%)" x1="56.8842" x2="55.1353" y1="37.0128" y2="36.2342" /><line stroke="rgb(0%,0%,0%)" x1="55.1353" x2="53.9405" y1="36.2342" y2="35.9802" /><line stroke="rgb(0%,0%,0%)" x1="53.9405" x2="52.0679" y1="35.9802" y2="35.5822" /><line stroke="rgb(0%,0%,0%)" x1="52.0679" x2="50.8465" y1="35.5822" y2="35.5822" /><line stroke="rgb(0%,0%,0%)" x1="50.8465" x2="48.9321" y1="35.5822" y2="35.5822" /><line stroke="rgb(0%,0%,0%)" x1="48.9321" x2="47.7373" y1="35.5822" y2="35.8361" /><line stroke="rgb(0%,0%,0%)" x1="47.7373" x2="45.8647" y1="35.8361" y2="36.2342" /><line stroke="rgb(0%,0%,0%)" x1="45.8647" x2="44.7489" y1="36.2342" y2="36.731" /><line stroke="rgb(0%,0%,0%)" x1="44.7489" x2="43.0" y1="36.731" y2="37.5096" /><line stroke="rgb(0%,0%,0%)" x1="43.0" x2="42.0118" y1="37.5096" y2="38.2276" /><line stroke="rgb(0%,0%,0%)" x1="42.0118" x2="40.463" y1="38.2276" y2="39.3528" /><line stroke="rgb(0%,0%,0%)" x1="40.463" x2="39.6457" y1="39.3528" y2="40.2605" /><line stroke="rgb(0%,0%,0%)" x1="39.6457" x2="38.3647" y1="40.2605" y2="41.6832" /><line stroke="rgb(0%,0%,0%)" x1="38.3647" x2="37.754" y1="41.6832" y2="42.741" /><line stroke="rgb(0%,0%,0%)" x1="37.754" x2="36.7968" y1="42.741" y2="44.3989" /><line stroke="rgb(0%,0%,0%)" x1="36.7968" x2="36.4194" y1="44.3989" y2="45.5606" /><line stroke="rgb(0%,0%,0%)" x1="36.4194" x2="35.8278" y1="45.5606" y2="47.3813" /></svg>