<?xml version="1.0" encoding="utf-8" ?>
<svg baseProfile="tiny" height="100%" version="1.2" width="100%" xmlns="http://www.w3.org/2000/svg" xmlns:ev="http://www.w3.org/2001/xml-events" xmlns:xlink="http://www.w3.org/1999/xlink"><defs /><line stroke="rgb(0%,0%,0%)" x1="351.9" x2="351.9" y1="0.5" y2="61.4149" /><line stroke="rgb(0%,0%,0%)" x1="351.9" x2="351.9" y1="61.4149" y2="100.5" /><line stroke="rgb(0%,0%,0%)" x1="246.1113" x2="329.5072" y1="100.5" y2="100.5" /><line stroke="rgb(0%,0%,0%)" x1="329.5072" x2="332.4156" y1="100.5" y2="100.5" /><line stroke="rgb(0%,0%,0%)" x1="332.4156" x2="335.7383" y1="100.5" y2="100.5" /><line stroke="rgb(0%,0%,0%)" x1="335.7383" x2="339.426" y1="100.5" y2="100.5" /><line stroke="rgb(0%,0%,0%)" x1="339.426" x2="343.4092" y1="100.5" y2="100.5" /><line stroke="rgb(0%,0%,0%)" x1="343.4092" x2="347.6007" y1="100.5" y2="100.5" /><line stroke="rgb(0%,0%,0%)" x1="347.6007" x2="351.9" y1="100.5" y2="100.5" /><line stroke="rgb(0%,0%,0%)" x1="246.1113" x2="142.3611" y1="100.5" y2="100.5" /><line stroke="rgb(0%,0%,0%)" x1="142.3611" x2="0.5" y1="100.5" y2="100.5" /><line stroke="rgb(0%,0%,0%)" x1="0.5" x2="142.3611" y1="0.5" y2="0.5" /><line stroke="rgb(0%,0%,0%)" x1="142.3611" x2="246.1113" y1="0.5" y2="0.5" /><line stroke="rgb(0%,0%,0%)" x1="246.1113" x2="329.5072" y1="0.5" y2="0.5" /><line stroke="rgb(0%,0%,0%)" x1="329.5072" x2="332.4156" y1="0.5" y2="0.5" /><line stroke="rgb(0%,0%,0%)" x1="332.4156" x2="335.7383" y1="0.5" y2="0.5" /><line stroke="rgb(0%,0%,0%)" x1="335.7383" x2="339.426" y1="0.5" y2="0.5" /><line stroke="rgb(0%,0%,0%)" x1="339.426" x2="343.4092" y1="0.5" y2="0.5" /><line stroke="rgb(0%,0%,0%)" x1="343.4092" x2="347.6007" y1="0.5" y2="0.5" /><line stroke="rgb(0%,0%,0%)" x1="347.6007" x2="351.9" y1="0.5" y2="0.5" /><line stroke="rgb(0%,0%,0%)" x1="0.5" x2="0.5" y1="0.5" y2="30.0248" /><line stroke="rgb(0%,0%,0%)" x1="0.5" x2="0.5" y1="30.0248" y2="100.5" /><line stroke="rgb(0%,0%,0%)" x1="135.8278" x2="135.6936" y1="47.3813" y2="48.6584" /><line stroke="rgb(0%,0%,0%)" x1="135.6936" x2="135.5" y1="48.6584" y2="50.5" /><line stroke="rgb(0%,0%,0%)" x1="135.5" x2="135.6342" y1="50.5" y2="51.7771" /><line stroke="rgb(0%,0%,0%)" x1="135.6342" x2="135.8278" y1="51.7771" y2="53.6187" /><line stroke="rgb(0%,0%,0%)" x1="135.8278" x2="136.2246" y1="53.6187" y2="54.84" /><line stroke="rgb(0%,0%,0%)" x1="136.2246" x2="136.7968" y1="54.84" y2="56.6011" /><line stroke="rgb(0%,0%,0%)" x1="136.7968" x2="137.4389" y1="56.6011" y2="57.7132" /><line stroke="rgb(0%,0%,0%)" x1="137.4389" x2="138.3647" y1="57.7132" y2="59.3168" /><line stroke="rgb(0%,0%,0%)" x1="138.3647" x2="139.224" y1="59.3168" y2="60.2711" /><line stroke="rgb(0%,0%,0%)" x1="139.224" x2="140.463" y1="60.2711" y2="61.6472" /><line stroke="rgb(0%,0%,0%)" x1="140.463" x2="141.5019" y1="61.6472" y2="62.402" /><line stroke="rgb(0%,0%,0%)" x1="141.5019" x2="143.0" y1="62.402" y2="63.4904" /><line stroke="rgb(0%,0%,0%)" x1="143.0" x2="144.1731" y1="63.4904" y2="64.0127" /><line stroke="rgb(0%,0%,0%)" x1="144.1731" x2="145.8647" y1="64.0127" y2="64.7658" /><line stroke="rgb(0%,0%,0%)" x1="145.8647" x2="147.1208" y1="64.7658" y2="65.0328" /><line stroke="rgb(0%,0%,0%)" x1="147.1208" x2="148.9321" y1="65.0328" y2="65.4178" /><line stroke="rgb(0%,0%,0%)" x1="148.9321" x2="150.2162" y1="65.4178" y2="65.4178" /><line stroke="rgb(0%,0%,0%)" x1="150.2162" x2="152.0679" y1="65.4178" y2="65.4178" /><line stroke="rgb(0%,0%,0%)" x1="152.0679" x2="153.324" y1="65.4178" y2="65.1508" /><line stroke="rgb(0%,0%,0%)" x1="153.324" x2="155.1353" y1="65.1508" y2="64.7658" /><line stroke="rgb(0%,0%,0%)" x1="155.1353" x2="156.3084" y1="64.7658" y2="64.2435" /><line stroke="rgb(0%,0%,0%)" x1="156.3084" x2="158.0" y1="64.2435" y2="63.4904" /><line stroke="rgb(0%,0%,0%)" x1="158.0" x2="159.0389" y1="63.4904" y2="62.7356" /><line stroke="rgb(0%,0%,0%)" x1="159.0389" x2="160.537" y1="62.7356" y2="61.6472" /><line stroke="rgb(0%,0%,0%)" x1="160.537" x2="161.3962" y1="61.6472" y2="60.6929" /><line stroke="rgb(0%,0%,0%)" x1="161.3962" x2="162.6353" y1="60.6929" y2="59.3168" /><line stroke="rgb(0%,0%,0%)" x1="162.6353" x2="163.2773" y1="59.3168" y2="58.2047" /><line stroke="rgb(0%,0%,0%)" x1="163.2773" x2="164.2032" y1="58.2047" y2="56.6011" /><line stroke="rgb(0%,0%,0%)" x1="164.2032" x2="164.6" y1="56.6011" y2="55.3798" /><line stroke="rgb(0%,0%,0%)" x1="164.6" x2="165.1722" y1="55.3798" y2="53.6187" /><line stroke="rgb(0%,0%,0%)" x1="165.1722" x2="165.3064" y1="53.6187" y2="52.3416" /><line stroke="rgb(0%,0%,0%)" x1="165.3064" x2="165.5" y1="52.3416" y2="50.5" /><line stroke="rgb(0%,0%,0%)" x1="165.5" x2="165.3658" y1="50.5" y2="49.2229" /><line stroke="rgb(0%,0%,0%)" x1="165.3658" x2="165.1722" y1="49.2229" y2="47.3813" /><line stroke="rgb(0%,0%,0%)" x1="165.1722" x2="164.7754" y1="47.3813" y2="46.16" /><line stroke="rgb(0%,0%,0%)" x1="164.7754" x2="164.2032" y1="46.16" y2="44.3989" /><line stroke="rgb(0%,0%,0%)" x1="164.2032" x2="163.5611" y1="44.3989" y2="43.2868" /><line stroke="rgb(0%,0%,0%)" x1="163.5611" x2="162.6353" y1="43.2868" y2="41.6832" /><line stroke="rgb(0%,0%,0%)" x1="162.6353" x2="161.776" y1="41.6832" y2="40.7289" /><line stroke="rgb(0%,0%,0%)" x1="161.776" x2="160.537" y1="40.7289" y2="39.3528" /><line stroke="rgb(0%,0%,0%)" x1="160.537" x2="159.4981" y1="39.3528" y2="38.598" /><line stroke="rgb(0%,0%,0%)" x1="159.4981" x2="158.0" y1="38.598" y2="37.5096" /><line stroke="rgb(0%,0%,0%)" x1="158.0" x2="156.8269" y1="37.5096" y2="36.9873" /><line stroke="rgb(0%,0%,0%)" x1="156.8269" x2="155.1353" y1="36.9873" y2="36.2342" /><line stroke="rgb(0%,0%,0%)" x1="155.1353" x2="153.8792" y1="36.2342" y2="35.9672" /><line stroke="rgb(0%,0%,0%)" x1="153.8792" x2="152.0679" y1="35.9672" y2="35.5822" /><line stroke="rgb(0%,0%,0%)" x1="152.0679" x2="150.7838" y1="35.5822" y2="35.5822" /><line stroke="rgb(0%,0%,0%)" x1="150.7838" x2="148.9321" y1="35.5822" y2="35.5822" /><line stroke="rgb(0%,0%,0%)" x1="148.9321" x2="147.676" y1="35.5822" y2="35.8492" /><line stroke="rgb(0%,0%,0%)" x1="147.676" x2="145.8647" y1="35.8492" y2="36.2342" /><line stroke="rgb(0%,0%,0%)" x1="145.8647" x2="144.6916" y1="36.2342" y2="36.7565" /><line stroke="rgb(0%,0%,0%)" x1="144.6916" x2="143.0" y1="36.7565" y2="37.5096" /><line stroke="rgb(0%,0%,0%)" x1="143.0" x2="141.9611" y1="37.5096" y2="38.2644" /><line stroke="rgb(0%,0%,0%)" x1="141.9611" x2="140.463" y1="38.2644" y2="39.3528" /><line stroke="rgb(0%,0%,0%)" x1="140.463" x2="139.6038" y1="39.3528" y2="40.3071" /><line stroke="rgb(0%,0%,0%)" x1="139.6038" x2="138.3647" y1="40.3071" y2="41.6832" /><line stroke="rgb(0%,0%,0%)" x1="138.3647" x2="137.7227" y1="41.6832" y2="42.7953" /><line stroke="rgb(0%,0%,0%)" x1="137.7227" x2="136.7968" y1="42.7953" y2="44.3989" /><line stroke="rgb(0%,0%,0%)" x1="136.7968" x2="136.4" y1="44.3989" y2="45.6202" /><line stroke="rgb(0%,0%,0%)" x1="136.4" x2="135.8278" y1="45.6202" y2="47.3813" /><line stroke="rgb(0%,0%,0%)" x1="35.8278" x2="35.6936" y1="47.3813" y2="48.6584" /><line stroke="rgb(0%,0%,0%)" x1="35.6936" x2="35.5" y1="48.6584" y2="50.5" /><line stroke="rgb(0%,0%,0%)" x1="35.5" x2="35.6342" y1="50.5" y2="51.7771" /><line stroke="rgb(0%,0%,0%)" x1="35.6342" x2="35.8278" y1="51.7771" y2="53.6187" /><line stroke="rgb(0%,0%,0%)" x1="35.8278" x2="36.2246" y1="53.6187" y2="54.84" /><line stroke="rgb(0%,0%,0%)" x1="36.2246" x2="36.7968" y1="54.84" y2="56.6011" /><line stroke="rgb(0%,0%,0%)" x1="36.7968" x2="37.4389" y1="56.6011" y2="57.7132" /><line stroke="rgb(0%,0%,0%)" x1="37.4389" x2="38.3647" y1="57.7132" y2="59.3168" /><line stroke="rgb(0%,0%,0%)" x1="38.3647" x2="39.224" y1="59.3168" y2="60.2711" /><line stroke="rgb(0%,0%,0%)" x1="39.224" x2="40.463" y1="60.2711" y2="61.6472" /><line stroke="rgb(0%,0%,0%)" x1="40.463" x2="41.5019" y1="61.6472" y2="62.402" /><line stroke="rgb(0%,0%,0%)" x1="41.5019" x2="43.0" y1="62.402" y2="63.4904" /><line stroke="rgb(0%,0%,0%)" x1="43.0" x2="44.1731" y1="63.4904" y2="64.0127" /><line stroke="rgb(0%,0%,0%)" x1="44.1731" x2="45.8647" y1="64.0127" y2="64.7658" /><line stroke="rgb(0%,0%,0%)" x1="45.8647" x2="47.1208" y1="64.7658" y2="65.0328" /><line stroke="rgb(0%,0%,0%)" x1="47.1208" x2="48.9321" y1="65.0328" y2="65.4178" /><line stroke="rgb(0%,0%,0%)" x1="48.9321" x2="50.2162" y1="65.4178" y2="65.4178" /><line stroke="rgb(0%,0%,0%)" x1="50.2162" x2="52.0679" y1="65.4178" y2="65.4178" /><line stroke="rgb(0%,0%,0%)" x1="52.0679" x2="53.324" y1="65.4178" y2="65.1508" /><line stroke="rgb(0%,0%,0%)" x1="53.324" x2="55.1353" y1="65.1508" y2="64.7658" /><line stroke="rgb(0%,0%,0%)" x1="55.1353" x2="56.3084" y1="64.7658" y2="64.2435" /><line stroke="rgb(0%,0%,0%)" x1="56.3084" x2="58.0" y1="64.2435" y2="63.4904" /><line stroke="rgb(0%,0%,0%)" x1="58.0" x2="59.0389" y1="63.4904" y2="62.7356" /><line stroke="rgb(0%,0%,0%)" x1="59.0389" x2="60.537" y1="62.7356" y2="61.6472" /><line stroke="rgb(0%,0%,0%)" x1="60.537" x2="61.3962" y1="61.6472" y2="60.6929" /><line stroke="rgb(0%,0%,0%)" x1="61.3962" x2="62.6352" y1="60.6929" y2="59.3168" /><line stroke="rgb(0%,0%,0%)" x1="62.6352" x2="63.2773" y1="59.3168" y2="58.2047" /><line stroke="rgb(0%,0%,0%)" x1="63.2773" x2="64.2032" y1="58.2047" y2="56.6011" /><line stroke="rgb(0%,0%,0%)" x1="64.2032" x2="64.6" y1="56.6011" y2="55.3798" /><line stroke="rgb(0%,0%,0%)" x1="64.6" x2="65.1722" y1="55.3798" y2="53.6187" /><line stroke="rgb(0%,0%,0%)" x1="65.1722" x2="65.3064" y1="53.6187" y2="52.3416" /><line stroke="rgb(0%,0%,0%)" x1="65.3064" x2="65.5" y1="52.3416" y2="50.5" /><line stroke="rgb(0%,0%,0%)" x1="65.5" x2="65.3658" y1="50.5" y2="49.2229" /><line stroke="rgb(0%,0%,0%)" x1="65.3658" x2="65.1722" y1="49.2229" y2="47.3813" /><line stroke="rgb(0%,0%,0%)" x1="65.1722" x2="64.7754" y1="47.3813" y2="46.16" /><line stroke="rgb(0%,0%,0%)" x1="64.7754" x2="64.2032" y1="46.16" y2="44.3989" /><line stroke="rgb(0%,0%,0%)" x1="64.2032" x2="63.5611" y1="44.3989" y2="43.2868" /><line stroke="rgb(0%,0%,0%)" x1="63.5611" x2="62.6352" y1="43.2868" y2="41.6832" /><line stroke="rgb(0%,0%,0%)" x1="62.6352" x2="61.776" y1="41.6832" y2="40.7289" /><line stroke="rgb(0%,0%,0%)" x1="61.776" x2="60.537" y1="40.7289" y2="39.3528" /><line stroke="rgb(0%,0%,0%)" x1="60.537" x2="59.4981" y1="39.3528" y2="38.598" /><line stroke="rgb(0%,0%,0%)" x1="59.4981" x2="58.0" y1="38.598" y2="37.5096" /><line stroke="rgb(0%,0%,0%)" x1="58.0" x2="56.8269" y1="37.5096" y2="36.9873" /><line stroke="rgb(0%,0%,0%)" x1="56.8269" x2="55.1353" y1="36.9873" y2="36.2342" /><line stroke="rgb(0%,0%,0%)" x1="55.1353" x2="53.8792" y1="36.2342" y2="35.9672" /><line stroke="rgb(0%,0%,0%)" x1="53.8792" x2="52.0679" y1="35.9672" y2="35.5822" /><line stroke="rgb(0%,0%,0%)" x1="52.0679" x2="50.7838" y1="35.5822" y2="35.5822" /><line stroke="rgb(0%,0%,0%)" x1="50.7838" x2="48.9321" y1="35.5822" y2="35.5822" /><line stroke="rgb(0%,0%,0%)" x1="48.9321" x2="47.676" y1="35.5822" y2="35.8492" /><line stroke="rgb(0%,0%,0%)" x1="47.676" x2="45.8647" y1="35.8492" y2="36.2342" /><line stroke="rgb(0%,0%,0%)" x1="45.8647" x2="44.6916" y1="36.2342" y2="36.7565" /><line stroke="rgb(0%,0%,0%)" x1="44.6916" x2="43.0" y1="36.7565" y2="37.5096" /><line stroke="rgb(0%,0%,0%)" x1="43.0" x2="41.9611" y1="37.5096" y2="38.2644" /><line stroke="rgb(0%,0%,0%)" x1="41.9611" x2="40.463" y1="38.2644" y2="39.3528" /><line stroke="rgb(0%,0%,0%)" x1="40.463" x2="39.6038" y1="39.3528" y2="40.3071" /><line stroke="rgb(0%,0%,0%)" x1="39.6038" x2="38.3647" y1="40.3071" y2="41.6832" /><line stroke="rgb(0%,0%,0%)" x1="38.3647" x2="37.7227" y1="41.6832" y2="42.7953" /><line stroke="rgb(0%,0%,0%)" x1="37.7227" x2="36.7968" y1="42.7953" y2="44.3989" /><line stroke="rgb(0%,0%,0%)" x1="36.7968" x2="36.4" y1="44.3989" y2="45.6202" /><line stroke="rgb(0%,0%,0%)" x1="36.4" x2="35.8278" y1="45.6202" y2="47.3813" /></svg>