<?xml version="1.0" encoding="utf-8" ?>
<svg baseProfile="tiny" height="100%" version="1.2" width="100%" xmlns="http://www.w3.org/2000/svg" xmlns:ev="http://www.w3.org/2001/xml-events" xmlns:xlink="http://www.w3.org/1999/xlink"><defs /><line stroke="rgb(0%,0%,0%)" x1="351.9" x2="351.9" y1="0.5" y2="62.279" /><line stroke="rgb(0%,0%,0%)" x1="351.9" x2="351.9" y1="62.279" y2="100.5" /><line stroke="rgb(0%,0%,0%)" x1="244.6107" x2="329.1895" y1="100.5" y2="100.5" /><line stroke="rgb(0%,0%,0%)" x1="329.1895" x2="332.1393" y1="100.5" y2="100.5" /><line stroke="rgb(0%,0%,0%)" x1="332.1393" x2="335.5091" y1="100.5" y2="100.5" /><line stroke="rgb(0%,0%,0%)" x1="335.5091" x2="339.2491" y1="100.5" y2="100.5" /><line stroke="rgb(0%,0%,0%)" x1="339.2491" x2="343.2888" y1="100.5" y2="100.5" /><line stroke="rgb(0%,0%,0%)" x1="343.2888" x2="347.5398" y1="100.5" y2="100.5" /><line stroke="rgb(0%,0%,0%)" x1="347.5398" x2="351.9" y1="100.5" y2="100.5" /><line stroke="rgb(0%,0%,0%)" x1="244.6107" x2="144.3733" y1="100.5" y2="100.5" /><line stroke="rgb(0%,0%,0%)" x1="144.3733" x2="0.5" y1="100.5" y2="100.5" /><line stroke="rgb(0%,0%,0%)" x1="0.5" x2="144.3733" y1="0.5" y2="0.5" /><line stroke="rgb(0%,0%,0%)" x1="144.3733" x2="244.6107" y1="0.5" y2="0.5" /><line stroke="rgb(0%,0%,0%)" x1="244.6107" x2="329.1895" y1="0.5" y2="0.5" /><line stroke="rgb(0%,0%,0%)" x1="329.1895" x2="332.1393" y1="0.5" y2="0.5" /><line stroke="rgb(0%,0%,0%)" x1="332.1393" x2="335.5091" y1="0.5" y2="0.5" /><line stroke="rgb(0%,0%,0%)" x1="335.5091" x2="339.2491" y1="0.5" y2="0.5" /><line stroke="rgb(0%,0%,0%)" x1="339.2491" x2="343.2888" y1="0.5" y2="0.5" /><line stroke="rgb(0%,0%,0%)" x1="343.2888" x2="347.5398" y1="0.5" y2="0.5" /><line stroke="rgb(0%,0%,0%)" x1="347.5398" x2="351.9" y1="0.5" y2="0.5" /><line stroke="rgb(0%,0%,0%)" x1="0.5" x2="0.5" y1="0.5" y2="29.0251" /><line stroke="rgb(0%,0%,0%)" x1="0.5" x2="0.5" y1="29.0251" y2="100.5" /><line stroke="rgb(0%,0%,0%)" x1="135.8278" x2="135.687" y1="47.3813" y2="48.7208" /><line stroke="rgb(0%,0%,0%)" x1="135.687" x2="135.5" y1="48.7208" y2="50.5" /><line stroke="rgb(0%,0%,0%)" x1="135.5" x2="135.6408" y1="50.5" y2="51.8395" /><line stroke="rgb(0%,0%,0%)" x1="135.6408" x2="135.8278" y1="51.8395" y2="53.6187" /><line stroke="rgb(0%,0%,0%)" x1="135.8278" x2="136.244" y1="53.6187" y2="54.8996" /><line stroke="rgb(0%,0%,0%)" x1="136.244" x2="136.7968" y1="54.8996" y2="56.6011" /><line stroke="rgb(0%,0%,0%)" x1="136.7968" x2="137.4702" y1="56.6011" y2="57.7674" /><line stroke="rgb(0%,0%,0%)" x1="137.4702" x2="138.3647" y1="57.7674" y2="59.3168" /><line stroke="rgb(0%,0%,0%)" x1="138.3647" x2="139.266" y1="59.3168" y2="60.3177" /><line stroke="rgb(0%,0%,0%)" x1="139.266" x2="140.463" y1="60.3177" y2="61.6472" /><line stroke="rgb(0%,0%,0%)" x1="140.463" x2="141.5527" y1="61.6472" y2="62.4388" /><line stroke="rgb(0%,0%,0%)" x1="141.5527" x2="143.0" y1="62.4388" y2="63.4904" /><line stroke="rgb(0%,0%,0%)" x1="143.0" x2="144.2304" y1="63.4904" y2="64.0382" /><line stroke="rgb(0%,0%,0%)" x1="144.2304" x2="145.8647" y1="64.0382" y2="64.7658" /><line stroke="rgb(0%,0%,0%)" x1="145.8647" x2="147.1821" y1="64.7658" y2="65.0459" /><line stroke="rgb(0%,0%,0%)" x1="147.1821" x2="148.9321" y1="65.0459" y2="65.4178" /><line stroke="rgb(0%,0%,0%)" x1="148.9321" x2="150.2789" y1="65.4178" y2="65.4178" /><line stroke="rgb(0%,0%,0%)" x1="150.2789" x2="152.0679" y1="65.4178" y2="65.4178" /><line stroke="rgb(0%,0%,0%)" x1="152.0679" x2="153.3853" y1="65.4178" y2="65.1378" /><line stroke="rgb(0%,0%,0%)" x1="153.3853" x2="155.1353" y1="65.1378" y2="64.7658" /><line stroke="rgb(0%,0%,0%)" x1="155.1353" x2="156.3657" y1="64.7658" y2="64.218" /><line stroke="rgb(0%,0%,0%)" x1="156.3657" x2="158.0" y1="64.218" y2="63.4904" /><line stroke="rgb(0%,0%,0%)" x1="158.0" x2="159.0896" y1="63.4904" y2="62.6987" /><line stroke="rgb(0%,0%,0%)" x1="159.0896" x2="160.537" y1="62.6987" y2="61.6472" /><line stroke="rgb(0%,0%,0%)" x1="160.537" x2="161.4382" y1="61.6472" y2="60.6463" /><line stroke="rgb(0%,0%,0%)" x1="161.4382" x2="162.6353" y1="60.6463" y2="59.3168" /><line stroke="rgb(0%,0%,0%)" x1="162.6353" x2="163.3087" y1="59.3168" y2="58.1504" /><line stroke="rgb(0%,0%,0%)" x1="163.3087" x2="164.2032" y1="58.1504" y2="56.6011" /><line stroke="rgb(0%,0%,0%)" x1="164.2032" x2="164.6194" y1="56.6011" y2="55.3201" /><line stroke="rgb(0%,0%,0%)" x1="164.6194" x2="165.1722" y1="55.3201" y2="53.6187" /><line stroke="rgb(0%,0%,0%)" x1="165.1722" x2="165.313" y1="53.6187" y2="52.2792" /><line stroke="rgb(0%,0%,0%)" x1="165.313" x2="165.5" y1="52.2792" y2="50.5" /><line stroke="rgb(0%,0%,0%)" x1="165.5" x2="165.3592" y1="50.5" y2="49.1605" /><line stroke="rgb(0%,0%,0%)" x1="165.3592" x2="165.1722" y1="49.1605" y2="47.3813" /><line stroke="rgb(0%,0%,0%)" x1="165.1722" x2="164.756" y1="47.3813" y2="46.1004" /><line stroke="rgb(0%,0%,0%)" x1="164.756" x2="164.2032" y1="46.1004" y2="44.3989" /><line stroke="rgb(0%,0%,0%)" x1="164.2032" x2="163.5298" y1="44.3989" y2="43.2326" /><line stroke="rgb(0%,0%,0%)" x1="163.5298" x2="162.6353" y1="43.2326" y2="41.6832" /><line stroke="rgb(0%,0%,0%)" x1="162.6353" x2="161.734" y1="41.6832" y2="40.6823" /><line stroke="rgb(0%,0%,0%)" x1="161.734" x2="160.537" y1="40.6823" y2="39.3528" /><line stroke="rgb(0%,0%,0%)" x1="160.537" x2="159.4473" y1="39.3528" y2="38.5612" /><line stroke="rgb(0%,0%,0%)" x1="159.4473" x2="158.0" y1="38.5612" y2="37.5096" /><line stroke="rgb(0%,0%,0%)" x1="158.0" x2="156.7696" y1="37.5096" y2="36.9618" /><line stroke="rgb(0%,0%,0%)" x1="156.7696" x2="155.1353" y1="36.9618" y2="36.2342" /><line stroke="rgb(0%,0%,0%)" x1="155.1353" x2="153.8178" y1="36.2342" y2="35.9541" /><line stroke="rgb(0%,0%,0%)" x1="153.8178" x2="152.0679" y1="35.9541" y2="35.5822" /><line stroke="rgb(0%,0%,0%)" x1="152.0679" x2="150.7211" y1="35.5822" y2="35.5822" /><line stroke="rgb(0%,0%,0%)" x1="150.7211" x2="148.9321" y1="35.5822" y2="35.5822" /><line stroke="rgb(0%,0%,0%)" x1="148.9321" x2="147.6147" y1="35.5822" y2="35.8622" /><line stroke="rgb(0%,0%,0%)" x1="147.6147" x2="145.8647" y1="35.8622" y2="36.2342" /><line stroke="rgb(0%,0%,0%)" x1="145.8647" x2="144.6343" y1="36.2342" y2="36.782" /><line stroke="rgb(0%,0%,0%)" x1="144.6343" x2="143.0" y1="36.782" y2="37.5096" /><line stroke="rgb(0%,0%,0%)" x1="143.0" x2="141.9104" y1="37.5096" y2="38.3013" /><line stroke="rgb(0%,0%,0%)" x1="141.9104" x2="140.463" y1="38.3013" y2="39.3528" /><line stroke="rgb(0%,0%,0%)" x1="140.463" x2="139.5618" y1="39.3528" y2="40.3537" /><line stroke="rgb(0%,0%,0%)" x1="139.5618" x2="138.3647" y1="40.3537" y2="41.6832" /><line stroke="rgb(0%,0%,0%)" x1="138.3647" x2="137.6913" y1="41.6832" y2="42.8496" /><line stroke="rgb(0%,0%,0%)" x1="137.6913" x2="136.7968" y1="42.8496" y2="44.3989" /><line stroke="rgb(0%,0%,0%)" x1="136.7968" x2="136.3806" y1="44.3989" y2="45.6799" /><line stroke="rgb(0%,0%,0%)" x1="136.3806" x2="135.8278" y1="45.6799" y2="47.3813" /><line stroke="rgb(0%,0%,0%)" x1="35.8278" x2="35.687" y1="47.3813" y2="48.7208" /><line stroke="rgb(0%,0%,0%)" x1="35.687" x2="35.5" y1="48.7208" y2="50.5" /><line stroke="rgb(0%,0%,0%)" x1="35.5" x2="35.6408" y1="50.5" y2="51.8395" /><line stroke="rgb(0%,0%,0%)" x1="35.6408" x2="35.8278" y1="51.8395" y2="53.6187" /><line stroke="rgb(0%,0%,0%)" x1="35.8278" x2="36.244" y1="53.6187" y2="54.8996" /><line stroke="rgb(0%,0%,0%)" x1="36.244" x2="36.7968" y1="54.8996" y2="56.6011" /><line stroke="rgb(0%,0%,0%)" x1="36.7968" x2="37.4702" y1="56.6011" y2="57.7674" /><line stroke="rgb(0%,0%,0%)" x1="37.4702" x2="38.3647" y1="57.7674" y2="59.3168" /><line stroke="rgb(0%,0%,0%)" x1="38.3647" x2="39.266" y1="59.3168" y2="60.3177" /><line stroke="rgb(0%,0%,0%)" x1="39.266" x2="40.463" y1="60.3177" y2="61.6472" /><line stroke="rgb(0%,0%,0%)" x1="40.463" x2="41.5527" y1="61.6472" y2="62.4388" /><line stroke="rgb(0%,0%,0%)" x1="41.5527" x2="43.0" y1="62.4388" y2="63.4904" /><line stroke="rgb(0%,0%,0%)" x1="43.0" x2="44.2304" y1="63.4904" y2="64.0382" /><line stroke="rgb(0%,0%,0%)" x1="44.2304" x2="45.8647" y1="64.0382" y2="64.7658" /><line stroke="rgb(0%,0%,0%)" x1="45.8647" x2="47.1821" y1="64.7658" y2="65.0459" /><line stroke="rgb(0%,0%,0%)" x1="47.1821" x2="48.9321" y1="65.0459" y2="65.4178" /><line stroke="rgb(0%,0%,0%)" x1="48.9321" x2="50.2789" y1="65.4178" y2="65.4178" /><line stroke="rgb(0%,0%,0%)" x1="50.2789" x2="52.0679" y1="65.4178" y2="65.4178" /><line stroke="rgb(0%,0%,0%)" x1="52.0679" x2="53.3853" y1="65.4178" y2="65.1378" /><line stroke="rgb(0%,0%,0%)" x1="53.3853" x2="55.1353" y1="65.1378" y2="64.7658" /><line stroke="rgb(0%,0%,0%)" x1="55.1353" x2="56.3657" y1="64.7658" y2="64.218" /><line stroke="rgb(0%,0%,0%)" x1="56.3657" x2="58.0" y1="64.218" y2="63.4904" /><line stroke="rgb(0%,0%,0%)" x1="58.0" x2="59.0896" y1="63.4904" y2="62.6987" /><line stroke="rgb(0%,0%,0%)" x1="59.0896" x2="60.537" y1="62.6987" y2="61.6472" /><line stroke="rgb(0%,0%,0%)" x1="60.537" x2="61.4382" y1="61.6472" y2="60.6463" /><line stroke="rgb(0%,0%,0%)" x1="61.4382" x2="62.6352" y1="60.6463" y2="59.3168" /><line stroke="rgb(0%,0%,0%)" x1="62.6352" x2="63.3087" y1="59.3168" y2="58.1504" /><line stroke="rgb(0%,0%,0%)" x1="63.3087" x2="64.2032" y1="58.1504" y2="56.6011" /><line stroke="rgb(0%,0%,0%)" x1="64.2032" x2="64.6194" y1="56.6011" y2="55.3201" /><line stroke="rgb(0%,0%,0%)" x1="64.6194" x2="65.1722" y1="55.3201" y2="53.6187" /><line stroke="rgb(0%,0%,0%)" x1="65.1722" x2="65.313" y1="53.6187" y2="52.2792" /><line stroke="rgb(0%,0%,0%)" x1="65.313" x2="65.5" y1="52.2792" y2="50.5" /><line stroke="rgb(0%,0%,0%)" x1="65.5" x2="65.3592" y1="50.5" y2="49.1605" /><line stroke="rgb(0%,0%,0%)" x1="65.3592" x2="65.1722" y1="49.1605" y2="47.3813" /><line stroke="rgb(0%,0%,0%)" x1="65.1722" x2="64.756" y1="47.3813" y2="46.1004" /><line stroke="rgb(0%,0%,0%)" x1="64.756" x2="64.2032" y1="46.1004" y2="44.3989" /><line stroke="rgb(0%,0%,0%)" x1="64.2032" x2="63.5298" y1="44.3989" y2="43.2326" /><line stroke="rgb(0%,0%,0%)" x1="63.5298" x2="62.6352" y1="43.2326" y2="41.6832" /><line stroke="rgb(0%,0%,0%)" x1="62.6352" x2="61.734" y1="41.6832" y2="40.6823" /><line stroke="rgb(0%,0%,0%)" x1="61.734" x2="60.537" y1="40.6823" y2="39.3528" /><line stroke="rgb(0%,0%,0%)" x1="60.537" x2="59.4473" y1="39.3528" y2="38.5612" /><line stroke="rgb(0%,0%,0%)" x1="59.4473" x2="58.0" y1="38.5612" y2="37.5096" /><line stroke="rgb(0%,0%,0%)" x1="58.0" x2="56.7696" y1="37.5096" y2="36.9618" /><line stroke="rgb(0%,0%,0%)" x1="56.7696" x2="55.1353" y1="36.9618" y2="36.2342" /><line stroke="rgb(0%,0%,0%)" x1="55.1353" x2="53.8178" y1="36.2342" y2="35.9541" /><line stroke="rgb(0%,0%,0%)" x1="53.8178" x2="52.0679" y1="35.9541" y2="35.5822" /><line stroke="rgb(0%,0%,0%)" x1="52.0679" x2="50.7211" y1="35.5822" y2="35.5822" /><line stroke="rgb(0%,0%,0%)" x1="50.7211" x2="48.9321" y1="35.5822" y2="35.5822" /><line stroke="rgb(0%,0%,0%)" x1="48.9321" x2="47.6147" y1="35.5822" y2="35.8622" /><line stroke="rgb(0%,0%,0%)" x1="47.6147" x2="45.8647" y1="35.8622" y2="36.2342" /><line stroke="rgb(0%,0%,0%)" x1="45.8647" x2="44.6343" y1="36.2342" y2="36.782" /><line stroke="rgb(0%,0%,0%)" x1="44.6343" x2="43.0" y1="36.782" y2="37.5096" /><line stroke="rgb(0%,0%,0%)" x1="43.0" x2="41.9104" y1="37.5096" y2="38.3013" /><line stroke="rgb(0%,0%,0%)" x1="41.9104" x2="40.463" y1="38.3013" y2="39.3528" /><line stroke="rgb(0%,0%,0%)" x1="40.463" x2="39.5618" y1="39.3528" y2="40.3537" /><line stroke="rgb(0%,0%,0%)" x1="39.5618" x2="38.3647" y1="40.3537" y2="41.6832" /><line stroke="rgb(0%,0%,0%)" x1="38.3647" x2="37.6913" y1="41.6832" y2="42.8496" /><line stroke="rgb(0%,0%,0%)" x1="37.6913" x2="36.7968" y1="42.8496" y2="44.3989" /><line stroke="rgb(0%,0%,0%)" x1="36.7968" x2="36.3806" y1="44.3989" y2="45.6799" /><line stroke="rgb(0%,0%,0%)" x1="36.3806" x2="35.8278" y1="45.6799" y2="47.3813" /></svg>