<?xml version="1.0" encoding="utf-8" ?>
<svg baseProfile="tiny" height="100%" version="1.2" width="100%" xmlns="http://www.w3.org/2000/svg" xmlns:ev="http://www.w3.org/2001/xml-events" xmlns:xlink="http://www.w3.org/1999/xlink"><defs /><line stroke="rgb(0%,0%,0%)" x1="351.9" x2="351.9" y1="0.5" y2="63.143" /><line stroke="rgb(0%,0%,0%)" x1="351.9" x2="351.9" y1="63.143" y2="100.5" /><line stroke="rgb(0%,0%,0%)" x1="243.1102" x2="328.8719" y1="100.5" y2="100.5" /><line stroke="rgb(0%,0%,0%)" x1="328.8719" x2="331.8629" y1="100.5" y2="100.5" /><line stroke="rgb(0%,0%,0%)" x1="331.8629" x2="335.2799" y1="100.5" y2="100.5" /><line stroke="rgb(0%,0%,0%)" x1="335.2799" x2="339.0721" y1="100.5" y2="100.5" /><line stroke="rgb(0%,0%,0%)" x1="339.0721" x2="343.1684" y1="100.5" y2="100.5" /><line stroke="rgb(0%,0%,0%)" x1="343.1684" x2="347.4788" y1="100.5" y2="100.5" /><line stroke="rgb(0%,0%,0%)" x1="347.4788" x2="351.9" y1="100.5" y2="100.5" /><line stroke="rgb(0%,0%,0%)" x1="243.1102" x2="146.3856" y1="100.5" y2="100.5" /><line stroke="rgb(0%,0%,0%)" x1="146.3856" x2="0.5" y1="100.5" y2="100.5" /><line stroke="rgb(0%,0%,0%)" x1="0.5" x2="146.3856" y1="0.5" y2="0.5" /><line stroke="rgb(0%,0%,0%)" x1="146.3856" x2="243.1102" y1="0.5" y2="0.5" /><line stroke="rgb(0%,0%,0%)" x1="243.1102" x2="328.8719" y1="0.5" y2="0.5" /><line stroke="rgb(0%,0%,0%)" x1="328.8719" x2="331.8629" y1="0.5" y2="0.5" /><line stroke="rgb(0%,0%,0%)" x1="331.8629" x2="335.2799" y1="0.5" y2="0.5" /><line stroke="rgb(0%,0%,0%)" x1="335.2799" x2="339.0721" y1="0.5" y2="0.5" /><line stroke="rgb(0%,0%,0%)" x1="339.0721" x2="343.1684" y1="0.5" y2="0.5" /><line stroke="rgb(0%,0%,0%)" x1="343.1684" x2="347.4788" y1="0.5" y2="0.5" /><line stroke="rgb(0%,0%,0%)" x1="347.4788" x2="351.9" y1="0.5" y2="0.5" /><line stroke="rgb(0%,0%,0%)" x1="0.5" x2="0.5" y1="0.5" y2="28.0255" /><line stroke="rgb(0%,0%,0%)" x1="0.5" x2="0.5" y1="28.0255" y2="100.5" /><line stroke="rgb(0%,0%,0%)" x1="135.8278" x2="135.6805" y1="47.3813" y2="48.7831" /><line stroke="rgb(0%,0%,0%)" x1="135.6805" x2="135.5" y1="48.7831" y2="50.5" /><line stroke="rgb(0%,0%,0%)" x1="135.5" x2="135.6473" y1="50.5" y2="51.9018" /><line stroke="rgb(0%,0%,0%)" x1="135.6473" x2="135.8278" y1="51.9018" y2="53.6187" /><line stroke="rgb(0%,0%,0%)" x1="135.8278" x2="136.2634" y1="53.6187" y2="54.9592" /><line stroke="rgb(0%,0%,0%)" x1="136.2634" x2="136.7968" y1="54.9592" y2="56.6011" /><line stroke="rgb(0%,0%,0%)" x1="136.7968" x2="137.5016" y1="56.6011" y2="57.8217" /><line stroke="rgb(0%,0%,0%)" x1="137.5016" x2="138.3647" y1="57.8217" y2="59.3168" /><line stroke="rgb(0%,0%,0%)" x1="138.3647" x2="139.3079" y1="59.3168" y2="60.3643" /><line stroke="rgb(0%,0%,0%)" x1="139.3079" x2="140.463" y1="60.3643" y2="61.6472" /><line stroke="rgb(0%,0%,0%)" x1="140.463" x2="141.6034" y1="61.6472" y2="62.4757" /><line stroke="rgb(0%,0%,0%)" x1="141.6034" x2="143.0" y1="62.4757" y2="63.4904" /><line stroke="rgb(0%,0%,0%)" x1="143.0" x2="144.2877" y1="63.4904" y2="64.0637" /><line stroke="rgb(0%,0%,0%)" x1="144.2877" x2="145.8647" y1="64.0637" y2="64.7658" /><line stroke="rgb(0%,0%,0%)" x1="145.8647" x2="147.2435" y1="64.7658" y2="65.0589" /><line stroke="rgb(0%,0%,0%)" x1="147.2435" x2="148.9321" y1="65.0589" y2="65.4178" /><line stroke="rgb(0%,0%,0%)" x1="148.9321" x2="150.3416" y1="65.4178" y2="65.4178" /><line stroke="rgb(0%,0%,0%)" x1="150.3416" x2="152.0679" y1="65.4178" y2="65.4178" /><line stroke="rgb(0%,0%,0%)" x1="152.0679" x2="153.4467" y1="65.4178" y2="65.1248" /><line stroke="rgb(0%,0%,0%)" x1="153.4467" x2="155.1353" y1="65.1248" y2="64.7658" /><line stroke="rgb(0%,0%,0%)" x1="155.1353" x2="156.4229" y1="64.7658" y2="64.1925" /><line stroke="rgb(0%,0%,0%)" x1="156.4229" x2="158.0" y1="64.1925" y2="63.4904" /><line stroke="rgb(0%,0%,0%)" x1="158.0" x2="159.1403" y1="63.4904" y2="62.6619" /><line stroke="rgb(0%,0%,0%)" x1="159.1403" x2="160.537" y1="62.6619" y2="61.6472" /><line stroke="rgb(0%,0%,0%)" x1="160.537" x2="161.4801" y1="61.6472" y2="60.5997" /><line stroke="rgb(0%,0%,0%)" x1="161.4801" x2="162.6353" y1="60.5997" y2="59.3168" /><line stroke="rgb(0%,0%,0%)" x1="162.6353" x2="163.34" y1="59.3168" y2="58.0961" /><line stroke="rgb(0%,0%,0%)" x1="163.34" x2="164.2032" y1="58.0961" y2="56.6011" /><line stroke="rgb(0%,0%,0%)" x1="164.2032" x2="164.6388" y1="56.6011" y2="55.2605" /><line stroke="rgb(0%,0%,0%)" x1="164.6388" x2="165.1722" y1="55.2605" y2="53.6187" /><line stroke="rgb(0%,0%,0%)" x1="165.1722" x2="165.3195" y1="53.6187" y2="52.2169" /><line stroke="rgb(0%,0%,0%)" x1="165.3195" x2="165.5" y1="52.2169" y2="50.5" /><line stroke="rgb(0%,0%,0%)" x1="165.5" x2="165.3527" y1="50.5" y2="49.0982" /><line stroke="rgb(0%,0%,0%)" x1="165.3527" x2="165.1722" y1="49.0982" y2="47.3813" /><line stroke="rgb(0%,0%,0%)" x1="165.1722" x2="164.7366" y1="47.3813" y2="46.0408" /><line stroke="rgb(0%,0%,0%)" x1="164.7366" x2="164.2032" y1="46.0408" y2="44.3989" /><line stroke="rgb(0%,0%,0%)" x1="164.2032" x2="163.4984" y1="44.3989" y2="43.1783" /><line stroke="rgb(0%,0%,0%)" x1="163.4984" x2="162.6353" y1="43.1783" y2="41.6832" /><line stroke="rgb(0%,0%,0%)" x1="162.6353" x2="161.6921" y1="41.6832" y2="40.6357" /><line stroke="rgb(0%,0%,0%)" x1="161.6921" x2="160.537" y1="40.6357" y2="39.3528" /><line stroke="rgb(0%,0%,0%)" x1="160.537" x2="159.3966" y1="39.3528" y2="38.5243" /><line stroke="rgb(0%,0%,0%)" x1="159.3966" x2="158.0" y1="38.5243" y2="37.5096" /><line stroke="rgb(0%,0%,0%)" x1="158.0" x2="156.7123" y1="37.5096" y2="36.9363" /><line stroke="rgb(0%,0%,0%)" x1="156.7123" x2="155.1353" y1="36.9363" y2="36.2342" /><line stroke="rgb(0%,0%,0%)" x1="155.1353" x2="153.7565" y1="36.2342" y2="35.9411" /><line stroke="rgb(0%,0%,0%)" x1="153.7565" x2="152.0679" y1="35.9411" y2="35.5822" /><line stroke="rgb(0%,0%,0%)" x1="152.0679" x2="150.6584" y1="35.5822" y2="35.5822" /><line stroke="rgb(0%,0%,0%)" x1="150.6584" x2="148.9321" y1="35.5822" y2="35.5822" /><line stroke="rgb(0%,0%,0%)" x1="148.9321" x2="147.5533" y1="35.5822" y2="35.8752" /><line stroke="rgb(0%,0%,0%)" x1="147.5533" x2="145.8647" y1="35.8752" y2="36.2342" /><line stroke="rgb(0%,0%,0%)" x1="145.8647" x2="144.5771" y1="36.2342" y2="36.8075" /><line stroke="rgb(0%,0%,0%)" x1="144.5771" x2="143.0" y1="36.8075" y2="37.5096" /><line stroke="rgb(0%,0%,0%)" x1="143.0" x2="141.8597" y1="37.5096" y2="38.3381" /><line stroke="rgb(0%,0%,0%)" x1="141.8597" x2="140.463" y1="38.3381" y2="39.3528" /><line stroke="rgb(0%,0%,0%)" x1="140.463" x2="139.5199" y1="39.3528" y2="40.4003" /><line stroke="rgb(0%,0%,0%)" x1="139.5199" x2="138.3647" y1="40.4003" y2="41.6832" /><line stroke="rgb(0%,0%,0%)" x1="138.3647" x2="137.66" y1="41.6832" y2="42.9039" /><line stroke="rgb(0%,0%,0%)" x1="137.66" x2="136.7968" y1="42.9039" y2="44.3989" /><line stroke="rgb(0%,0%,0%)" x1="136.7968" x2="136.3612" y1="44.3989" y2="45.7395" /><line stroke="rgb(0%,0%,0%)" x1="136.3612" x2="135.8278" y1="45.7395" y2="47.3813" /><line stroke="rgb(0%,0%,0%)" x1="35.8278" x2="35.6804" y1="47.3813" y2="48.7831" /><line stroke="rgb(0%,0%,0%)" x1="35.6804" x2="35.5" y1="48.7831" y2="50.5" /><line stroke="rgb(0%,0%,0%)" x1="35.5" x2="35.6473" y1="50.5" y2="51.9018" /><line stroke="rgb(0%,0%,0%)" x1="35.6473" x2="35.8278" y1="51.9018" y2="53.6187" /><line stroke="rgb(0%,0%,0%)" x1="35.8278" x2="36.2633" y1="53.6187" y2="54.9592" /><line stroke="rgb(0%,0%,0%)" x1="36.2633" x2="36.7968" y1="54.9592" y2="56.6011" /><line stroke="rgb(0%,0%,0%)" x1="36.7968" x2="37.5016" y1="56.6011" y2="57.8217" /><line stroke="rgb(0%,0%,0%)" x1="37.5016" x2="38.3647" y1="57.8217" y2="59.3168" /><line stroke="rgb(0%,0%,0%)" x1="38.3647" x2="39.3079" y1="59.3168" y2="60.3643" /><line stroke="rgb(0%,0%,0%)" x1="39.3079" x2="40.463" y1="60.3643" y2="61.6472" /><line stroke="rgb(0%,0%,0%)" x1="40.463" x2="41.6034" y1="61.6472" y2="62.4757" /><line stroke="rgb(0%,0%,0%)" x1="41.6034" x2="43.0" y1="62.4757" y2="63.4904" /><line stroke="rgb(0%,0%,0%)" x1="43.0" x2="44.2877" y1="63.4904" y2="64.0637" /><line stroke="rgb(0%,0%,0%)" x1="44.2877" x2="45.8647" y1="64.0637" y2="64.7658" /><line stroke="rgb(0%,0%,0%)" x1="45.8647" x2="47.2435" y1="64.7658" y2="65.0589" /><line stroke="rgb(0%,0%,0%)" x1="47.2435" x2="48.9321" y1="65.0589" y2="65.4178" /><line stroke="rgb(0%,0%,0%)" x1="48.9321" x2="50.3416" y1="65.4178" y2="65.4178" /><line stroke="rgb(0%,0%,0%)" x1="50.3416" x2="52.0679" y1="65.4178" y2="65.4178" /><line stroke="rgb(0%,0%,0%)" x1="52.0679" x2="53.4467" y1="65.4178" y2="65.1248" /><line stroke="rgb(0%,0%,0%)" x1="53.4467" x2="55.1353" y1="65.1248" y2="64.7658" /><line stroke="rgb(0%,0%,0%)" x1="55.1353" x2="56.4229" y1="64.7658" y2="64.1925" /><line stroke="rgb(0%,0%,0%)" x1="56.4229" x2="58.0" y1="64.1925" y2="63.4904" /><line stroke="rgb(0%,0%,0%)" x1="58.0" x2="59.1403" y1="63.4904" y2="62.6619" /><line stroke="rgb(0%,0%,0%)" x1="59.1403" x2="60.537" y1="62.6619" y2="61.6472" /><line stroke="rgb(0%,0%,0%)" x1="60.537" x2="61.4801" y1="61.6472" y2="60.5997" /><line stroke="rgb(0%,0%,0%)" x1="61.4801" x2="62.6352" y1="60.5997" y2="59.3168" /><line stroke="rgb(0%,0%,0%)" x1="62.6352" x2="63.34" y1="59.3168" y2="58.0961" /><line stroke="rgb(0%,0%,0%)" x1="63.34" x2="64.2032" y1="58.0961" y2="56.6011" /><line stroke="rgb(0%,0%,0%)" x1="64.2032" x2="64.6387" y1="56.6011" y2="55.2605" /><line stroke="rgb(0%,0%,0%)" x1="64.6387" x2="65.1722" y1="55.2605" y2="53.6187" /><line stroke="rgb(0%,0%,0%)" x1="65.1722" x2="65.3195" y1="53.6187" y2="52.2169" /><line stroke="rgb(0%,0%,0%)" x1="65.3195" x2="65.5" y1="52.2169" y2="50.5" /><line stroke="rgb(0%,0%,0%)" x1="65.5" x2="65.3527" y1="50.5" y2="49.0982" /><line stroke="rgb(0%,0%,0%)" x1="65.3527" x2="65.1722" y1="49.0982" y2="47.3813" /><line stroke="rgb(0%,0%,0%)" x1="65.1722" x2="64.7366" y1="47.3813" y2="46.0408" /><line stroke="rgb(0%,0%,0%)" x1="64.7366" x2="64.2032" y1="46.0408" y2="44.3989" /><line stroke="rgb(0%,0%,0%)" x1="64.2032" x2="63.4984" y1="44.3989" y2="43.1783" /><line stroke="rgb(0%,0%,0%)" x1="63.4984" x2="62.6352" y1="43.1783" y2="41.6832" /><line stroke="rgb(0%,0%,0%)" x1="62.6352" x2="61.6921" y1="41.6832" y2="40.6357" /><line stroke="rgb(0%,0%,0%)" x1="61.6921" x2="60.537" y1="40.6357" y2="39.3528" /><line stroke="rgb(0%,0%,0%)" x1="60.537" x2="59.3966" y1="39.3528" y2="38.5243" /><line stroke="rgb(0%,0%,0%)" x1="59.3966" x2="58.0" y1="38.5243" y2="37.5096" /><line stroke="rgb(0%,0%,0%)" x1="58.0" x2="56.7123" y1="37.5096" y2="36.9363" /><line stroke="rgb(0%,0%,0%)" x1="56.7123" x2="55.1353" y1="36.9363" y2="36.2342" /><line stroke="rgb(0%,0%,0%)" x1="55.1353" x2="53.7565" y1="36.2342" y2="35.9411" /><line stroke="rgb(0%,0%,0%)" x1="53.7565" x2="52.0679" y1="35.9411" y2="35.5822" /><line stroke="rgb(0%,0%,0%)" x1="52.0679" x2="50.6584" y1="35.5822" y2="35.5822" /><line stroke="rgb(0%,0%,0%)" x1="50.6584" x2="48.9321" y1="35.5822" y2="35.5822" /><line stroke="rgb(0%,0%,0%)" x1="48.9321" x2="47.5533" y1="35.5822" y2="35.8752" /><line stroke="rgb(0%,0%,0%)" x1="47.5533" x2="45.8647" y1="35.8752" y2="36.2342" /><line stroke="rgb(0%,0%,0%)" x1="45.8647" x2="44.5771" y1="36.2342" y2="36.8075" /><line stroke="rgb(0%,0%,0%)" x1="44.5771" x2="43.0" y1="36.8075" y2="37.5096" /><line stroke="rgb(0%,0%,0%)" x1="43.0" x2="41.8597" y1="37.5096" y2="38.3381" /><line stroke="rgb(0%,0%,0%)" x1="41.8597" x2="40.463" y1="38.3381" y2="39.3528" /><line stroke="rgb(0%,0%,0%)" x1="40.463" x2="39.5199" y1="39.3528" y2="40.4003" /><line stroke="rgb(0%,0%,0%)" x1="39.5199" x2="38.3647" y1="40.4003" y2="41.6832" /><line stroke="rgb(0%,0%,0%)" x1="38.3647" x2="37.66" y1="41.6832" y2="42.9039" /><line stroke="rgb(0%,0%,0%)" x1="37.66" x2="36.7968" y1="42.9039" y2="44.3989" /><line stroke="rgb(0%,0%,0%)" x1="36.7968" x2="36.3612" y1="44.3989" y2="45.7395" /><line stroke="rgb(0%,0%,0%)" x1="36.3612" x2="35.8278" y1="45.7395" y2="47.3813" /></svg>