<?xml version="1.0" encoding="utf-8" ?>
<svg baseProfile="tiny" height="100%" version="1.2" width="100%" xmlns="http://www.w3.org/2000/svg" xmlns:ev="http://www.w3.org/2001/xml-events" xmlns:xlink="http://www.w3.org/1999/xlink"><defs /><line stroke="rgb(0%,0%,0%)" x1="351.9" x2="351.9" y1="0.5" y2="64.007" /><line stroke="rgb(0%,0%,0%)" x1="351.9" x2="351.9" y1="64.007" y2="100.5" /><line stroke="rgb(0%,0%,0%)" x1="241.6096" x2="328.5543" y1="100.5" y2="100.5" /><line stroke="rgb(0%,0%,0%)" x1="328.5543" x2="331.5865" y1="100.5" y2="100.5" /><line stroke="rgb(0%,0%,0%)" x1="331.5865" x2="335.0506" y1="100.5" y2="100.5" /><line stroke="rgb(0%,0%,0%)" x1="335.0506" x2="338.8952" y1="100.5" y2="100.5" /><line stroke="rgb(0%,0%,0%)" x1="338.8952" x2="343.0479" y1="100.5" y2="100.5" /><line stroke="rgb(0%,0%,0%)" x1="343.0479" x2="347.4178" y1="100.5" y2="100.5" /><line stroke="rgb(0%,0%,0%)" x1="347.4178" x2="351.9" y1="100.5" y2="100.5" /><line stroke="rgb(0%,0%,0%)" x1="241.6096" x2="148.3978" y1="100.5" y2="100.5" /><line stroke="rgb(0%,0%,0%)" x1="148.3978" x2="0.5" y1="100.5" y2="100.5" /><line stroke="rgb(0%,0%,0%)" x1="0.5" x2="148.3978" y1="0.5" y2="0.5" /><line stroke="rgb(0%,0%,0%)" x1="148.3978" x2="241.6096" y1="0.5" y2="0.5" /><line stroke="rgb(0%,0%,0%)" x1="241.6096" x2="328.5543" y1="0.5" y2="0.5" /><line stroke="rgb(0%,0%,0%)" x1="328.5543" x2="331.5865" y1="0.5" y2="0.5" /><line stroke="rgb(0%,0%,0%)" x1="331.5865" x2="335.0506" y1="0.5" y2="0.5" /><line stroke="rgb(0%,0%,0%)" x1="335.0506" x2="338.8952" y1="0.5" y2="0.5" /><line stroke="rgb(0%,0%,0%)" x1="338.8952" x2="343.0479" y1="0.5" y2="0.5" /><line stroke="rgb(0%,0%,0%)" x1="343.0479" x2="347.4178" y1="0.5" y2="0.5" /><line stroke="rgb(0%,0%,0%)" x1="347.4178" x2="351.9" y1="0.5" y2="0.5" /><line stroke="rgb(0%,0%,0%)" x1="0.5" x2="0.5" y1="0.5" y2="27.0258" /><line stroke="rgb(0%,0%,0%)" x1="0.5" x2="0.5" y1="27.0258" y2="100.5" /><line stroke="rgb(0%,0%,0%)" x1="135.8278" x2="135.6739" y1="47.3813" y2="48.8455" /><line stroke="rgb(0%,0%,0%)" x1="135.6739" x2="135.5" y1="48.8455" y2="50.5" /><line stroke="rgb(0%,0%,0%)" x1="135.5" x2="135.6539" y1="50.5" y2="51.9642" /><line stroke="rgb(0%,0%,0%)" x1="135.6539" x2="135.8278" y1="51.9642" y2="53.6187" /><line stroke="rgb(0%,0%,0%)" x1="135.8278" x2="136.2827" y1="53.6187" y2="55.0189" /><line stroke="rgb(0%,0%,0%)" x1="136.2827" x2="136.7968" y1="55.0189" y2="56.6011" /><line stroke="rgb(0%,0%,0%)" x1="136.7968" x2="137.5329" y1="56.6011" y2="57.876" /><line stroke="rgb(0%,0%,0%)" x1="137.5329" x2="138.3647" y1="57.876" y2="59.3168" /><line stroke="rgb(0%,0%,0%)" x1="138.3647" x2="139.3499" y1="59.3168" y2="60.4109" /><line stroke="rgb(0%,0%,0%)" x1="139.3499" x2="140.463" y1="60.4109" y2="61.6472" /><line stroke="rgb(0%,0%,0%)" x1="140.463" x2="141.6541" y1="61.6472" y2="62.5125" /><line stroke="rgb(0%,0%,0%)" x1="141.6541" x2="143.0" y1="62.5125" y2="63.4904" /><line stroke="rgb(0%,0%,0%)" x1="143.0" x2="144.3449" y1="63.4904" y2="64.0892" /><line stroke="rgb(0%,0%,0%)" x1="144.3449" x2="145.8647" y1="64.0892" y2="64.7658" /><line stroke="rgb(0%,0%,0%)" x1="145.8647" x2="147.3048" y1="64.7658" y2="65.0719" /><line stroke="rgb(0%,0%,0%)" x1="147.3048" x2="148.9321" y1="65.0719" y2="65.4178" /><line stroke="rgb(0%,0%,0%)" x1="148.9321" x2="150.4043" y1="65.4178" y2="65.4178" /><line stroke="rgb(0%,0%,0%)" x1="150.4043" x2="152.0679" y1="65.4178" y2="65.4178" /><line stroke="rgb(0%,0%,0%)" x1="152.0679" x2="153.508" y1="65.4178" y2="65.1117" /><line stroke="rgb(0%,0%,0%)" x1="153.508" x2="155.1353" y1="65.1117" y2="64.7658" /><line stroke="rgb(0%,0%,0%)" x1="155.1353" x2="156.4802" y1="64.7658" y2="64.167" /><line stroke="rgb(0%,0%,0%)" x1="156.4802" x2="158.0" y1="64.167" y2="63.4904" /><line stroke="rgb(0%,0%,0%)" x1="158.0" x2="159.1911" y1="63.4904" y2="62.625" /><line stroke="rgb(0%,0%,0%)" x1="159.1911" x2="160.537" y1="62.625" y2="61.6472" /><line stroke="rgb(0%,0%,0%)" x1="160.537" x2="161.5221" y1="61.6472" y2="60.5531" /><line stroke="rgb(0%,0%,0%)" x1="161.5221" x2="162.6353" y1="60.5531" y2="59.3168" /><line stroke="rgb(0%,0%,0%)" x1="162.6353" x2="163.3714" y1="59.3168" y2="58.0418" /><line stroke="rgb(0%,0%,0%)" x1="163.3714" x2="164.2032" y1="58.0418" y2="56.6011" /><line stroke="rgb(0%,0%,0%)" x1="164.2032" x2="164.6581" y1="56.6011" y2="55.2009" /><line stroke="rgb(0%,0%,0%)" x1="164.6581" x2="165.1722" y1="55.2009" y2="53.6187" /><line stroke="rgb(0%,0%,0%)" x1="165.1722" x2="165.3261" y1="53.6187" y2="52.1545" /><line stroke="rgb(0%,0%,0%)" x1="165.3261" x2="165.5" y1="52.1545" y2="50.5" /><line stroke="rgb(0%,0%,0%)" x1="165.5" x2="165.3461" y1="50.5" y2="49.0358" /><line stroke="rgb(0%,0%,0%)" x1="165.3461" x2="165.1722" y1="49.0358" y2="47.3813" /><line stroke="rgb(0%,0%,0%)" x1="165.1722" x2="164.7173" y1="47.3813" y2="45.9811" /><line stroke="rgb(0%,0%,0%)" x1="164.7173" x2="164.2032" y1="45.9811" y2="44.3989" /><line stroke="rgb(0%,0%,0%)" x1="164.2032" x2="163.4671" y1="44.3989" y2="43.124" /><line stroke="rgb(0%,0%,0%)" x1="163.4671" x2="162.6353" y1="43.124" y2="41.6832" /><line stroke="rgb(0%,0%,0%)" x1="162.6353" x2="161.6501" y1="41.6832" y2="40.5891" /><line stroke="rgb(0%,0%,0%)" x1="161.6501" x2="160.537" y1="40.5891" y2="39.3528" /><line stroke="rgb(0%,0%,0%)" x1="160.537" x2="159.3459" y1="39.3528" y2="38.4875" /><line stroke="rgb(0%,0%,0%)" x1="159.3459" x2="158.0" y1="38.4875" y2="37.5096" /><line stroke="rgb(0%,0%,0%)" x1="158.0" x2="156.655" y1="37.5096" y2="36.9108" /><line stroke="rgb(0%,0%,0%)" x1="156.655" x2="155.1353" y1="36.9108" y2="36.2342" /><line stroke="rgb(0%,0%,0%)" x1="155.1353" x2="153.6952" y1="36.2342" y2="35.9281" /><line stroke="rgb(0%,0%,0%)" x1="153.6952" x2="152.0679" y1="35.9281" y2="35.5822" /><line stroke="rgb(0%,0%,0%)" x1="152.0679" x2="150.5957" y1="35.5822" y2="35.5822" /><line stroke="rgb(0%,0%,0%)" x1="150.5957" x2="148.9321" y1="35.5822" y2="35.5822" /><line stroke="rgb(0%,0%,0%)" x1="148.9321" x2="147.492" y1="35.5822" y2="35.8883" /><line stroke="rgb(0%,0%,0%)" x1="147.492" x2="145.8647" y1="35.8883" y2="36.2342" /><line stroke="rgb(0%,0%,0%)" x1="145.8647" x2="144.5198" y1="36.2342" y2="36.833" /><line stroke="rgb(0%,0%,0%)" x1="144.5198" x2="143.0" y1="36.833" y2="37.5096" /><line stroke="rgb(0%,0%,0%)" x1="143.0" x2="141.8089" y1="37.5096" y2="38.375" /><line stroke="rgb(0%,0%,0%)" x1="141.8089" x2="140.463" y1="38.375" y2="39.3528" /><line stroke="rgb(0%,0%,0%)" x1="140.463" x2="139.4779" y1="39.3528" y2="40.4469" /><line stroke="rgb(0%,0%,0%)" x1="139.4779" x2="138.3647" y1="40.4469" y2="41.6832" /><line stroke="rgb(0%,0%,0%)" x1="138.3647" x2="137.6286" y1="41.6832" y2="42.9582" /><line stroke="rgb(0%,0%,0%)" x1="137.6286" x2="136.7968" y1="42.9582" y2="44.3989" /><line stroke="rgb(0%,0%,0%)" x1="136.7968" x2="136.3419" y1="44.3989" y2="45.7991" /><line stroke="rgb(0%,0%,0%)" x1="136.3419" x2="135.8278" y1="45.7991" y2="47.3813" /><line stroke="rgb(0%,0%,0%)" x1="35.8278" x2="35.6739" y1="47.3813" y2="48.8455" /><line stroke="rgb(0%,0%,0%)" x1="35.6739" x2="35.5" y1="48.8455" y2="50.5" /><line stroke="rgb(0%,0%,0%)" x1="35.5" x2="35.6539" y1="50.5" y2="51.9642" /><line stroke="rgb(0%,0%,0%)" x1="35.6539" x2="35.8278" y1="51.9642" y2="53.6187" /><line stroke="rgb(0%,0%,0%)" x1="35.8278" x2="36.2827" y1="53.6187" y2="55.0189" /><line stroke="rgb(0%,0%,0%)" x1="36.2827" x2="36.7968" y1="55.0189" y2="56.6011" /><line stroke="rgb(0%,0%,0%)" x1="36.7968" x2="37.5329" y1="56.6011" y2="57.876" /><line stroke="rgb(0%,0%,0%)" x1="37.5329" x2="38.3647" y1="57.876" y2="59.3168" /><line stroke="rgb(0%,0%,0%)" x1="38.3647" x2="39.3499" y1="59.3168" y2="60.4109" /><line stroke="rgb(0%,0%,0%)" x1="39.3499" x2="40.463" y1="60.4109" y2="61.6472" /><line stroke="rgb(0%,0%,0%)" x1="40.463" x2="41.6541" y1="61.6472" y2="62.5125" /><line stroke="rgb(0%,0%,0%)" x1="41.6541" x2="43.0" y1="62.5125" y2="63.4904" /><line stroke="rgb(0%,0%,0%)" x1="43.0" x2="44.3449" y1="63.4904" y2="64.0892" /><line stroke="rgb(0%,0%,0%)" x1="44.3449" x2="45.8647" y1="64.0892" y2="64.7658" /><line stroke="rgb(0%,0%,0%)" x1="45.8647" x2="47.3048" y1="64.7658" y2="65.0719" /><line stroke="rgb(0%,0%,0%)" x1="47.3048" x2="48.9321" y1="65.0719" y2="65.4178" /><line stroke="rgb(0%,0%,0%)" x1="48.9321" x2="50.4043" y1="65.4178" y2="65.4178" /><line stroke="rgb(0%,0%,0%)" x1="50.4043" x2="52.0679" y1="65.4178" y2="65.4178" /><line stroke="rgb(0%,0%,0%)" x1="52.0679" x2="53.508" y1="65.4178" y2="65.1117" /><line stroke="rgb(0%,0%,0%)" x1="53.508" x2="55.1353" y1="65.1117" y2="64.7658" /><line stroke="rgb(0%,0%,0%)" x1="55.1353" x2="56.4802" y1="64.7658" y2="64.167" /><line stroke="rgb(0%,0%,0%)" x1="56.4802" x2="58.0" y1="64.167" y2="63.4904" /><line stroke="rgb(0%,0%,0%)" x1="58.0" x2="59.1911" y1="63.4904" y2="62.625" /><line stroke="rgb(0%,0%,0%)" x1="59.1911" x2="60.537" y1="62.625" y2="61.6472" /><line stroke="rgb(0%,0%,0%)" x1="60.537" x2="61.5221" y1="61.6472" y2="60.5531" /><line stroke="rgb(0%,0%,0%)" x1="61.5221" x2="62.6352" y1="60.5531" y2="59.3168" /><line stroke="rgb(0%,0%,0%)" x1="62.6352" x2="63.3714" y1="59.3168" y2="58.0418" /><line stroke="rgb(0%,0%,0%)" x1="63.3714" x2="64.2032" y1="58.0418" y2="56.6011" /><line stroke="rgb(0%,0%,0%)" x1="64.2032" x2="64.6581" y1="56.6011" y2="55.2009" /><line stroke="rgb(0%,0%,0%)" x1="64.6581" x2="65.1722" y1="55.2009" y2="53.6187" /><line stroke="rgb(0%,0%,0%)" x1="65.1722" x2="65.3261" y1="53.6187" y2="52.1545" /><line stroke="rgb(0%,0%,0%)" x1="65.3261" x2="65.5" y1="52.1545" y2="50.5" /><line stroke="rgb(0%,0%,0%)" x1="65.5" x2="65.3461" y1="50.5" y2="49.0358" /><line stroke="rgb(0%,0%,0%)" x1="65.3461" x2="65.1722" y1="49.0358" y2="47.3813" /><line stroke="rgb(0%,0%,0%)" x1="65.1722" x2="64.7173" y1="47.3813" y2="45.9811" /><line stroke="rgb(0%,0%,0%)" x1="64.7173" x2="64.2032" y1="45.9811" y2="44.3989" /><line stroke="rgb(0%,0%,0%)" x1="64.2032" x2="63.4671" y1="44.3989" y2="43.124" /><line stroke="rgb(0%,0%,0%)" x1="63.4671" x2="62.6352" y1="43.124" y2="41.6832" /><line stroke="rgb(0%,0%,0%)" x1="62.6352" x2="61.6501" y1="41.6832" y2="40.5891" /><line stroke="rgb(0%,0%,0%)" x1="61.6501" x2="60.537" y1="40.5891" y2="39.3528" /><line stroke="rgb(0%,0%,0%)" x1="60.537" x2="59.3459" y1="39.3528" y2="38.4875" /><line stroke="rgb(0%,0%,0%)" x1="59.3459" x2="58.0" y1="38.4875" y2="37.5096" /><line stroke="rgb(0%,0%,0%)" x1="58.0" x2="56.6551" y1="37.5096" y2="36.9108" /><line stroke="rgb(0%,0%,0%)" x1="56.6551" x2="55.1353" y1="36.9108" y2="36.2342" /><line stroke="rgb(0%,0%,0%)" x1="55.1353" x2="53.6952" y1="36.2342" y2="35.9281" /><line stroke="rgb(0%,0%,0%)" x1="53.6952" x2="52.0679" y1="35.9281" y2="35.5822" /><line stroke="rgb(0%,0%,0%)" x1="52.0679" x2="50.5957" y1="35.5822" y2="35.5822" /><line stroke="rgb(0%,0%,0%)" x1="50.5957" x2="48.9321" y1="35.5822" y2="35.5822" /><line stroke="rgb(0%,0%,0%)" x1="48.9321" x2="47.492" y1="35.5822" y2="35.8883" /><line stroke="rgb(0%,0%,0%)" x1="47.492" x2="45.8647" y1="35.8883" y2="36.2342" /><line stroke="rgb(0%,0%,0%)" x1="45.8647" x2="44.5198" y1="36.2342" y2="36.833" /><line stroke="rgb(0%,0%,0%)" x1="44.5198" x2="43.0" y1="36.833" y2="37.5096" /><line stroke="rgb(0%,0%,0%)" x1="43.0" x2="41.8089" y1="37.5096" y2="38.375" /><line stroke="rgb(0%,0%,0%)" x1="41.8089" x2="40.463" y1="38.375" y2="39.3528" /><line stroke="rgb(0%,0%,0%)" x1="40.463" x2="39.4779" y1="39.3528" y2="40.4469" /><line stroke="rgb(0%,0%,0%)" x1="39.4779" x2="38.3647" y1="40.4469" y2="41.6832" /><line stroke="rgb(0%,0%,0%)" x1="38.3647" x2="37.6286" y1="41.6832" y2="42.9582" /><line stroke="rgb(0%,0%,0%)" x1="37.6286" x2="36.7968" y1="42.9582" y2="44.3989" /><line stroke="rgb(0%,0%,0%)" x1="36.7968" x2="36.3419" y1="44.3989" y2="45.7991" /><line stroke="rgb(0%,0%,0%)" x1="36.3419" x2="35.8278" y1="45.7991" y2="47.3813" /></svg>