<?xml version="1.0" encoding="utf-8" ?>
<svg baseProfile="tiny" height="100%" version="1.2" width="100%" xmlns="http://www.w3.org/2000/svg" xmlns:ev="http://www.w3.org/2001/xml-events" xmlns:xlink="http://www.w3.org/1999/xlink"><defs /><line stroke="rgb(0%,0%,0%)" x1="351.9" x2="351.9" y1="0.5" y2="64.8711" /><line stroke="rgb(0%,0%,0%)" x1="351.9" x2="351.9" y1="64.8711" y2="100.5" /><line stroke="rgb(0%,0%,0%)" x1="240.1091" x2="328.2367" y1="100.5" y2="100.5" /><line stroke="rgb(0%,0%,0%)" x1="328.2367" x2="331.3101" y1="100.5" y2="100.5" /><line stroke="rgb(0%,0%,0%)" x1="331.3101" x2="334.8214" y1="100.5" y2="100.5" /><line stroke="rgb(0%,0%,0%)" x1="334.8214" x2="338.7183" y1="100.5" y2="100.5" /><line stroke="rgb(0%,0%,0%)" x1="338.7183" x2="342.9275" y1="100.5" y2="100.5" /><line stroke="rgb(0%,0%,0%)" x1="342.9275" x2="347.3568" y1="100.5" y2="100.5" /><line stroke="rgb(0%,0%,0%)" x1="347.3568" x2="351.9" y1="100.5" y2="100.5" /><line stroke="rgb(0%,0%,0%)" x1="240.1091" x2="150.41" y1="100.5" y2="100.5" /><line stroke="rgb(0%,0%,0%)" x1="150.41" x2="0.5" y1="100.5" y2="100.5" /><line stroke="rgb(0%,0%,0%)" x1="0.5" x2="150.41" y1="0.5" y2="0.5" /><line stroke="rgb(0%,0%,0%)" x1="150.41" x2="240.1091" y1="0.5" y2="0.5" /><line stroke="rgb(0%,0%,0%)" x1="240.1091" x2="328.2367" y1="0.5" y2="0.5" /><line stroke="rgb(0%,0%,0%)" x1="328.2367" x2="331.3101" y1="0.5" y2="0.5" /><line stroke="rgb(0%,0%,0%)" x1="331.3101" x2="334.8214" y1="0.5" y2="0.5" /><line stroke="rgb(0%,0%,0%)" x1="334.8214" x2="338.7183" y1="0.5" y2="0.5" /><line stroke="rgb(0%,0%,0%)" x1="338.7183" x2="342.9275" y1="0.5" y2="0.5" /><line stroke="rgb(0%,0%,0%)" x1="342.9275" x2="347.3568" y1="0.5" y2="0.5" /><line stroke="rgb(0%,0%,0%)" x1="347.3568" x2="351.9" y1="0.5" y2="0.5" /><line stroke="rgb(0%,0%,0%)" x1="0.5" x2="0.5" y1="0.5" y2="26.0262" /><line stroke="rgb(0%,0%,0%)" x1="0.5" x2="0.5" y1="26.0262" y2="100.5" /><line stroke="rgb(0%,0%,0%)" x1="135.8278" x2="135.6673" y1="47.3813" y2="48.9078" /><line stroke="rgb(0%,0%,0%)" x1="135.6673" x2="135.5" y1="48.9078" y2="50.5" /><line stroke="rgb(0%,0%,0%)" x1="135.5" x2="135.6604" y1="50.5" y2="52.0265" /><line stroke="rgb(0%,0%,0%)" x1="135.6604" x2="135.8278" y1="52.0265" y2="53.6187" /><line stroke="rgb(0%,0%,0%)" x1="135.8278" x2="136.3021" y1="53.6187" y2="55.0785" /><line stroke="rgb(0%,0%,0%)" x1="136.3021" x2="136.7968" y1="55.0785" y2="56.6011" /><line stroke="rgb(0%,0%,0%)" x1="136.7968" x2="137.5643" y1="56.6011" y2="57.9303" /><line stroke="rgb(0%,0%,0%)" x1="137.5643" x2="138.3647" y1="57.9303" y2="59.3168" /><line stroke="rgb(0%,0%,0%)" x1="138.3647" x2="139.3918" y1="59.3168" y2="60.4575" /><line stroke="rgb(0%,0%,0%)" x1="139.3918" x2="140.463" y1="60.4575" y2="61.6472" /><line stroke="rgb(0%,0%,0%)" x1="140.463" x2="141.7048" y1="61.6472" y2="62.5494" /><line stroke="rgb(0%,0%,0%)" x1="141.7048" x2="143.0" y1="62.5494" y2="63.4904" /><line stroke="rgb(0%,0%,0%)" x1="143.0" x2="144.4022" y1="63.4904" y2="64.1147" /><line stroke="rgb(0%,0%,0%)" x1="144.4022" x2="145.8647" y1="64.1147" y2="64.7658" /><line stroke="rgb(0%,0%,0%)" x1="145.8647" x2="147.3661" y1="64.7658" y2="65.085" /><line stroke="rgb(0%,0%,0%)" x1="147.3661" x2="148.9321" y1="65.085" y2="65.4178" /><line stroke="rgb(0%,0%,0%)" x1="148.9321" x2="150.467" y1="65.4178" y2="65.4178" /><line stroke="rgb(0%,0%,0%)" x1="150.467" x2="152.0679" y1="65.4178" y2="65.4178" /><line stroke="rgb(0%,0%,0%)" x1="152.0679" x2="153.5693" y1="65.4178" y2="65.0987" /><line stroke="rgb(0%,0%,0%)" x1="153.5693" x2="155.1353" y1="65.0987" y2="64.7658" /><line stroke="rgb(0%,0%,0%)" x1="155.1353" x2="156.5375" y1="64.7658" y2="64.1415" /><line stroke="rgb(0%,0%,0%)" x1="156.5375" x2="158.0" y1="64.1415" y2="63.4904" /><line stroke="rgb(0%,0%,0%)" x1="158.0" x2="159.2418" y1="63.4904" y2="62.5882" /><line stroke="rgb(0%,0%,0%)" x1="159.2418" x2="160.537" y1="62.5882" y2="61.6472" /><line stroke="rgb(0%,0%,0%)" x1="160.537" x2="161.564" y1="61.6472" y2="60.5065" /><line stroke="rgb(0%,0%,0%)" x1="161.564" x2="162.6353" y1="60.5065" y2="59.3168" /><line stroke="rgb(0%,0%,0%)" x1="162.6353" x2="163.4027" y1="59.3168" y2="57.9875" /><line stroke="rgb(0%,0%,0%)" x1="163.4027" x2="164.2032" y1="57.9875" y2="56.6011" /><line stroke="rgb(0%,0%,0%)" x1="164.2032" x2="164.6775" y1="56.6011" y2="55.1413" /><line stroke="rgb(0%,0%,0%)" x1="164.6775" x2="165.1722" y1="55.1413" y2="53.6187" /><line stroke="rgb(0%,0%,0%)" x1="165.1722" x2="165.3327" y1="53.6187" y2="52.0922" /><line stroke="rgb(0%,0%,0%)" x1="165.3327" x2="165.5" y1="52.0922" y2="50.5" /><line stroke="rgb(0%,0%,0%)" x1="165.5" x2="165.3396" y1="50.5" y2="48.9735" /><line stroke="rgb(0%,0%,0%)" x1="165.3396" x2="165.1722" y1="48.9735" y2="47.3813" /><line stroke="rgb(0%,0%,0%)" x1="165.1722" x2="164.6979" y1="47.3813" y2="45.9215" /><line stroke="rgb(0%,0%,0%)" x1="164.6979" x2="164.2032" y1="45.9215" y2="44.3989" /><line stroke="rgb(0%,0%,0%)" x1="164.2032" x2="163.4357" y1="44.3989" y2="43.0697" /><line stroke="rgb(0%,0%,0%)" x1="163.4357" x2="162.6353" y1="43.0697" y2="41.6832" /><line stroke="rgb(0%,0%,0%)" x1="162.6353" x2="161.6082" y1="41.6832" y2="40.5425" /><line stroke="rgb(0%,0%,0%)" x1="161.6082" x2="160.537" y1="40.5425" y2="39.3528" /><line stroke="rgb(0%,0%,0%)" x1="160.537" x2="159.2952" y1="39.3528" y2="38.4506" /><line stroke="rgb(0%,0%,0%)" x1="159.2952" x2="158.0" y1="38.4506" y2="37.5096" /><line stroke="rgb(0%,0%,0%)" x1="158.0" x2="156.5978" y1="37.5096" y2="36.8853" /><line stroke="rgb(0%,0%,0%)" x1="156.5978" x2="155.1353" y1="36.8853" y2="36.2342" /><line stroke="rgb(0%,0%,0%)" x1="155.1353" x2="153.6339" y1="36.2342" y2="35.915" /><line stroke="rgb(0%,0%,0%)" x1="153.6339" x2="152.0679" y1="35.915" y2="35.5822" /><line stroke="rgb(0%,0%,0%)" x1="152.0679" x2="150.533" y1="35.5822" y2="35.5822" /><line stroke="rgb(0%,0%,0%)" x1="150.533" x2="148.9321" y1="35.5822" y2="35.5822" /><line stroke="rgb(0%,0%,0%)" x1="148.9321" x2="147.4307" y1="35.5822" y2="35.9013" /><line stroke="rgb(0%,0%,0%)" x1="147.4307" x2="145.8647" y1="35.9013" y2="36.2342" /><line stroke="rgb(0%,0%,0%)" x1="145.8647" x2="144.4625" y1="36.2342" y2="36.8585" /><line stroke="rgb(0%,0%,0%)" x1="144.4625" x2="143.0" y1="36.8585" y2="37.5096" /><line stroke="rgb(0%,0%,0%)" x1="143.0" x2="141.7582" y1="37.5096" y2="38.4118" /><line stroke="rgb(0%,0%,0%)" x1="141.7582" x2="140.463" y1="38.4118" y2="39.3528" /><line stroke="rgb(0%,0%,0%)" x1="140.463" x2="139.436" y1="39.3528" y2="40.4935" /><line stroke="rgb(0%,0%,0%)" x1="139.436" x2="138.3647" y1="40.4935" y2="41.6832" /><line stroke="rgb(0%,0%,0%)" x1="138.3647" x2="137.5973" y1="41.6832" y2="43.0125" /><line stroke="rgb(0%,0%,0%)" x1="137.5973" x2="136.7968" y1="43.0125" y2="44.3989" /><line stroke="rgb(0%,0%,0%)" x1="136.7968" x2="136.3225" y1="44.3989" y2="45.8587" /><line stroke="rgb(0%,0%,0%)" x1="136.3225" x2="135.8278" y1="45.8587" y2="47.3813" /><line stroke="rgb(0%,0%,0%)" x1="35.8278" x2="35.6673" y1="47.3813" y2="48.9078" /><line stroke="rgb(0%,0%,0%)" x1="35.6673" x2="35.5" y1="48.9078" y2="50.5" /><line stroke="rgb(0%,0%,0%)" x1="35.5" x2="35.6604" y1="50.5" y2="52.0265" /><line stroke="rgb(0%,0%,0%)" x1="35.6604" x2="35.8278" y1="52.0265" y2="53.6187" /><line stroke="rgb(0%,0%,0%)" x1="35.8278" x2="36.3021" y1="53.6187" y2="55.0785" /><line stroke="rgb(0%,0%,0%)" x1="36.3021" x2="36.7968" y1="55.0785" y2="56.6011" /><line stroke="rgb(0%,0%,0%)" x1="36.7968" x2="37.5643" y1="56.6011" y2="57.9303" /><line stroke="rgb(0%,0%,0%)" x1="37.5643" x2="38.3647" y1="57.9303" y2="59.3168" /><line stroke="rgb(0%,0%,0%)" x1="38.3647" x2="39.3918" y1="59.3168" y2="60.4575" /><line stroke="rgb(0%,0%,0%)" x1="39.3918" x2="40.463" y1="60.4575" y2="61.6472" /><line stroke="rgb(0%,0%,0%)" x1="40.463" x2="41.7048" y1="61.6472" y2="62.5494" /><line stroke="rgb(0%,0%,0%)" x1="41.7048" x2="43.0" y1="62.5494" y2="63.4904" /><line stroke="rgb(0%,0%,0%)" x1="43.0" x2="44.4022" y1="63.4904" y2="64.1147" /><line stroke="rgb(0%,0%,0%)" x1="44.4022" x2="45.8647" y1="64.1147" y2="64.7658" /><line stroke="rgb(0%,0%,0%)" x1="45.8647" x2="47.3661" y1="64.7658" y2="65.085" /><line stroke="rgb(0%,0%,0%)" x1="47.3661" x2="48.9321" y1="65.085" y2="65.4178" /><line stroke="rgb(0%,0%,0%)" x1="48.9321" x2="50.467" y1="65.4178" y2="65.4178" /><line stroke="rgb(0%,0%,0%)" x1="50.467" x2="52.0679" y1="65.4178" y2="65.4178" /><line stroke="rgb(0%,0%,0%)" x1="52.0679" x2="53.5693" y1="65.4178" y2="65.0987" /><line stroke="rgb(0%,0%,0%)" x1="53.5693" x2="55.1353" y1="65.0987" y2="64.7658" /><line stroke="rgb(0%,0%,0%)" x1="55.1353" x2="56.5375" y1="64.7658" y2="64.1415" /><line stroke="rgb(0%,0%,0%)" x1="56.5375" x2="58.0" y1="64.1415" y2="63.4904" /><line stroke="rgb(0%,0%,0%)" x1="58.0" x2="59.2418" y1="63.4904" y2="62.5882" /><line stroke="rgb(0%,0%,0%)" x1="59.2418" x2="60.537" y1="62.5882" y2="61.6472" /><line stroke="rgb(0%,0%,0%)" x1="60.537" x2="61.564" y1="61.6472" y2="60.5065" /><line stroke="rgb(0%,0%,0%)" x1="61.564" x2="62.6352" y1="60.5065" y2="59.3168" /><line stroke="rgb(0%,0%,0%)" x1="62.6352" x2="63.4027" y1="59.3168" y2="57.9875" /><line stroke="rgb(0%,0%,0%)" x1="63.4027" x2="64.2032" y1="57.9875" y2="56.6011" /><line stroke="rgb(0%,0%,0%)" x1="64.2032" x2="64.6775" y1="56.6011" y2="55.1413" /><line stroke="rgb(0%,0%,0%)" x1="64.6775" x2="65.1722" y1="55.1413" y2="53.6187" /><line stroke="rgb(0%,0%,0%)" x1="65.1722" x2="65.3327" y1="53.6187" y2="52.0922" /><line stroke="rgb(0%,0%,0%)" x1="65.3327" x2="65.5" y1="52.0922" y2="50.5" /><line stroke="rgb(0%,0%,0%)" x1="65.5" x2="65.3396" y1="50.5" y2="48.9735" /><line stroke="rgb(0%,0%,0%)" x1="65.3396" x2="65.1722" y1="48.9735" y2="47.3813" /><line stroke="rgb(0%,0%,0%)" x1="65.1722" x2="64.6979" y1="47.3813" y2="45.9215" /><line stroke="rgb(0%,0%,0%)" x1="64.6979" x2="64.2032" y1="45.9215" y2="44.3989" /><line stroke="rgb(0%,0%,0%)" x1="64.2032" x2="63.4357" y1="44.3989" y2="43.0697" /><line stroke="rgb(0%,0%,0%)" x1="63.4357" x2="62.6352" y1="43.0697" y2="41.6832" /><line stroke="rgb(0%,0%,0%)" x1="62.6352" x2="61.6082" y1="41.6832" y2="40.5425" /><line stroke="rgb(0%,0%,0%)" x1="61.6082" x2="60.537" y1="40.5425" y2="39.3528" /><line stroke="rgb(0%,0%,0%)" x1="60.537" x2="59.2952" y1="39.3528" y2="38.4506" /><line stroke="rgb(0%,0%,0%)" x1="59.2952" x2="58.0" y1="38.4506" y2="37.5096" /><line stroke="rgb(0%,0%,0%)" x1="58.0" x2="56.5978" y1="37.5096" y2="36.8853" /><line stroke="rgb(0%,0%,0%)" x1="56.5978" x2="55.1353" y1="36.8853" y2="36.2342" /><line stroke="rgb(0%,0%,0%)" x1="55.1353" x2="53.6339" y1="36.2342" y2="35.915" /><line stroke="rgb(0%,0%,0%)" x1="53.6339" x2="52.0679" y1="35.915" y2="35.5822" /><line stroke="rgb(0%,0%,0%)" x1="52.0679" x2="50.533" y1="35.5822" y2="35.5822" /><line stroke="rgb(0%,0%,0%)" x1="50.533" x2="48.9321" y1="35.5822" y2="35.5822" /><line stroke="rgb(0%,0%,0%)" x1="48.9321" x2="47.4307" y1="35.5822" y2="35.9013" /><line stroke="rgb(0%,0%,0%)" x1="47.4307" x2="45.8647" y1="35.9013" y2="36.2342" /><line stroke="rgb(0%,0%,0%)" x1="45.8647" x2="44.4625" y1="36.2342" y2="36.8585" /><line stroke="rgb(0%,0%,0%)" x1="44.4625" x2="43.0" y1="36.8585" y2="37.5096" /><line stroke="rgb(0%,0%,0%)" x1="43.0" x2="41.7582" y1="37.5096" y2="38.4118" /><line stroke="rgb(0%,0%,0%)" x1="41.7582" x2="40.463" y1="38.4118" y2="39.3528" /><line stroke="rgb(0%,0%,0%)" x1="40.463" x2="39.436" y1="39.3528" y2="40.4935" /><line stroke="rgb(0%,0%,0%)" x1="39.436" x2="38.3647" y1="40.4935" y2="41.6832" /><line stroke="rgb(0%,0%,0%)" x1="38.3647" x2="37.5973" y1="41.6832" y2="43.0125" /><line stroke="rgb(0%,0%,0%)" x1="37.5973" x2="36.7968" y1="43.0125" y2="44.3989" /><line stroke="rgb(0%,0%,0%)" x1="36.7968" x2="36.3225" y1="44.3989" y2="45.8587" /><line stroke="rgb(0%,0%,0%)" x1="36.3225" x2="35.8278" y1="45.8587" y2="47.3813" /></svg>