<?xml version="1.0" encoding="utf-8" ?>
<svg baseProfile="tiny" height="100%" version="1.2" width="100%" xmlns="http://www.w3.org/2000/svg" xmlns:ev="http://www.w3.org/2001/xml-events" xmlns:xlink="http://www.w3.org/1999/xlink"><defs /><line stroke="rgb(0%,0%,0%)" x1="351.9" x2="351.9" y1="0.5" y2="65.7351" /><line stroke="rgb(0%,0%,0%)" x1="351.9" x2="351.9" y1="65.7351" y2="100.5" /><line stroke="rgb(0%,0%,0%)" x1="238.6085" x2="327.919" y1="100.5" y2="100.5" /><line stroke="rgb(0%,0%,0%)" x1="327.919" x2="331.0338" y1="100.5" y2="100.5" /><line stroke="rgb(0%,0%,0%)" x1="331.0338" x2="334.5921" y1="100.5" y2="100.5" /><line stroke="rgb(0%,0%,0%)" x1="334.5921" x2="338.5413" y1="100.5" y2="100.5" /><line stroke="rgb(0%,0%,0%)" x1="338.5413" x2="342.807" y1="100.5" y2="100.5" /><line stroke="rgb(0%,0%,0%)" x1="342.807" x2="347.2958" y1="100.5" y2="100.5" /><line stroke="rgb(0%,0%,0%)" x1="347.2958" x2="351.9" y1="100.5" y2="100.5" /><line stroke="rgb(0%,0%,0%)" x1="238.6085" x2="152.4222" y1="100.5" y2="100.5" /><line stroke="rgb(0%,0%,0%)" x1="152.4222" x2="0.5" y1="100.5" y2="100.5" /><line stroke="rgb(0%,0%,0%)" x1="0.5" x2="152.4222" y1="0.5" y2="0.5" /><line stroke="rgb(0%,0%,0%)" x1="152.4222" x2="238.6085" y1="0.5" y2="0.5" /><line stroke="rgb(0%,0%,0%)" x1="238.6085" x2="327.919" y1="0.5" y2="0.5" /><line stroke="rgb(0%,0%,0%)" x1="327.919" x2="331.0338" y1="0.5" y2="0.5" /><line stroke="rgb(0%,0%,0%)" x1="331.0338" x2="334.5921" y1="0.5" y2="0.5" /><line stroke="rgb(0%,0%,0%)" x1="334.5921" x2="338.5413" y1="0.5" y2="0.5" /><line stroke="rgb(0%,0%,0%)" x1="338.5413" x2="342.807" y1="0.5" y2="0.5" /><line stroke="rgb(0%,0%,0%)" x1="342.807" x2="347.2958" y1="0.5" y2="0.5" /><line stroke="rgb(0%,0%,0%)" x1="347.2958" x2="351.9" y1="0.5" y2="0.5" /><line stroke="rgb(0%,0%,0%)" x1="0.5" x2="0.5" y1="0.5" y2="25.0266" /><line stroke="rgb(0%,0%,0%)" x1="0.5" x2="0.5" y1="25.0266" y2="100.5" /><line stroke="rgb(0%,0%,0%)" x1="135.8278" x2="135.6608" y1="47.3813" y2="48.9702" /><line stroke="rgb(0%,0%,0%)" x1="135.6608" x2="135.5" y1="48.9702" y2="50.5" /><line stroke="rgb(0%,0%,0%)" x1="135.5" x2="135.667" y1="50.5" y2="52.0889" /><line stroke="rgb(0%,0%,0%)" x1="135.667" x2="135.8278" y1="52.0889" y2="53.6187" /><line stroke="rgb(0%,0%,0%)" x1="135.8278" x2="136.3215" y1="53.6187" y2="55.1381" /><line stroke="rgb(0%,0%,0%)" x1="136.3215" x2="136.7968" y1="55.1381" y2="56.6011" /><line stroke="rgb(0%,0%,0%)" x1="136.7968" x2="137.5956" y1="56.6011" y2="57.9846" /><line stroke="rgb(0%,0%,0%)" x1="137.5956" x2="138.3647" y1="57.9846" y2="59.3168" /><line stroke="rgb(0%,0%,0%)" x1="138.3647" x2="139.4338" y1="59.3168" y2="60.504" /><line stroke="rgb(0%,0%,0%)" x1="139.4338" x2="140.463" y1="60.504" y2="61.6472" /><line stroke="rgb(0%,0%,0%)" x1="140.463" x2="141.7555" y1="61.6472" y2="62.5862" /><line stroke="rgb(0%,0%,0%)" x1="141.7555" x2="143.0" y1="62.5862" y2="63.4904" /><line stroke="rgb(0%,0%,0%)" x1="143.0" x2="144.4595" y1="63.4904" y2="64.1402" /><line stroke="rgb(0%,0%,0%)" x1="144.4595" x2="145.8647" y1="64.1402" y2="64.7658" /><line stroke="rgb(0%,0%,0%)" x1="145.8647" x2="147.4274" y1="64.7658" y2="65.098" /><line stroke="rgb(0%,0%,0%)" x1="147.4274" x2="148.9321" y1="65.098" y2="65.4178" /><line stroke="rgb(0%,0%,0%)" x1="148.9321" x2="150.5297" y1="65.4178" y2="65.4178" /><line stroke="rgb(0%,0%,0%)" x1="150.5297" x2="152.0679" y1="65.4178" y2="65.4178" /><line stroke="rgb(0%,0%,0%)" x1="152.0679" x2="153.6306" y1="65.4178" y2="65.0857" /><line stroke="rgb(0%,0%,0%)" x1="153.6306" x2="155.1353" y1="65.0857" y2="64.7658" /><line stroke="rgb(0%,0%,0%)" x1="155.1353" x2="156.5948" y1="64.7658" y2="64.116" /><line stroke="rgb(0%,0%,0%)" x1="156.5948" x2="158.0" y1="64.116" y2="63.4904" /><line stroke="rgb(0%,0%,0%)" x1="158.0" x2="159.2925" y1="63.4904" y2="62.5513" /><line stroke="rgb(0%,0%,0%)" x1="159.2925" x2="160.537" y1="62.5513" y2="61.6472" /><line stroke="rgb(0%,0%,0%)" x1="160.537" x2="161.606" y1="61.6472" y2="60.4599" /><line stroke="rgb(0%,0%,0%)" x1="161.606" x2="162.6353" y1="60.4599" y2="59.3168" /><line stroke="rgb(0%,0%,0%)" x1="162.6353" x2="163.4341" y1="59.3168" y2="57.9332" /><line stroke="rgb(0%,0%,0%)" x1="163.4341" x2="164.2032" y1="57.9332" y2="56.6011" /><line stroke="rgb(0%,0%,0%)" x1="164.2032" x2="164.6969" y1="56.6011" y2="55.0816" /><line stroke="rgb(0%,0%,0%)" x1="164.6969" x2="165.1722" y1="55.0816" y2="53.6187" /><line stroke="rgb(0%,0%,0%)" x1="165.1722" x2="165.3392" y1="53.6187" y2="52.0298" /><line stroke="rgb(0%,0%,0%)" x1="165.3392" x2="165.5" y1="52.0298" y2="50.5" /><line stroke="rgb(0%,0%,0%)" x1="165.5" x2="165.333" y1="50.5" y2="48.9111" /><line stroke="rgb(0%,0%,0%)" x1="165.333" x2="165.1722" y1="48.9111" y2="47.3813" /><line stroke="rgb(0%,0%,0%)" x1="165.1722" x2="164.6785" y1="47.3813" y2="45.8619" /><line stroke="rgb(0%,0%,0%)" x1="164.6785" x2="164.2032" y1="45.8619" y2="44.3989" /><line stroke="rgb(0%,0%,0%)" x1="164.2032" x2="163.4044" y1="44.3989" y2="43.0154" /><line stroke="rgb(0%,0%,0%)" x1="163.4044" x2="162.6353" y1="43.0154" y2="41.6832" /><line stroke="rgb(0%,0%,0%)" x1="162.6353" x2="161.5662" y1="41.6832" y2="40.496" /><line stroke="rgb(0%,0%,0%)" x1="161.5662" x2="160.537" y1="40.496" y2="39.3528" /><line stroke="rgb(0%,0%,0%)" x1="160.537" x2="159.2445" y1="39.3528" y2="38.4138" /><line stroke="rgb(0%,0%,0%)" x1="159.2445" x2="158.0" y1="38.4138" y2="37.5096" /><line stroke="rgb(0%,0%,0%)" x1="158.0" x2="156.5405" y1="37.5096" y2="36.8598" /><line stroke="rgb(0%,0%,0%)" x1="156.5405" x2="155.1353" y1="36.8598" y2="36.2342" /><line stroke="rgb(0%,0%,0%)" x1="155.1353" x2="153.5725" y1="36.2342" y2="35.902" /><line stroke="rgb(0%,0%,0%)" x1="153.5725" x2="152.0679" y1="35.902" y2="35.5822" /><line stroke="rgb(0%,0%,0%)" x1="152.0679" x2="150.4703" y1="35.5822" y2="35.5822" /><line stroke="rgb(0%,0%,0%)" x1="150.4703" x2="148.9321" y1="35.5822" y2="35.5822" /><line stroke="rgb(0%,0%,0%)" x1="148.9321" x2="147.3694" y1="35.5822" y2="35.9143" /><line stroke="rgb(0%,0%,0%)" x1="147.3694" x2="145.8647" y1="35.9143" y2="36.2342" /><line stroke="rgb(0%,0%,0%)" x1="145.8647" x2="144.4052" y1="36.2342" y2="36.884" /><line stroke="rgb(0%,0%,0%)" x1="144.4052" x2="143.0" y1="36.884" y2="37.5096" /><line stroke="rgb(0%,0%,0%)" x1="143.0" x2="141.7075" y1="37.5096" y2="38.4487" /><line stroke="rgb(0%,0%,0%)" x1="141.7075" x2="140.463" y1="38.4487" y2="39.3528" /><line stroke="rgb(0%,0%,0%)" x1="140.463" x2="139.394" y1="39.3528" y2="40.5401" /><line stroke="rgb(0%,0%,0%)" x1="139.394" x2="138.3647" y1="40.5401" y2="41.6832" /><line stroke="rgb(0%,0%,0%)" x1="138.3647" x2="137.5659" y1="41.6832" y2="43.0668" /><line stroke="rgb(0%,0%,0%)" x1="137.5659" x2="136.7968" y1="43.0668" y2="44.3989" /><line stroke="rgb(0%,0%,0%)" x1="136.7968" x2="136.3031" y1="44.3989" y2="45.9184" /><line stroke="rgb(0%,0%,0%)" x1="136.3031" x2="135.8278" y1="45.9184" y2="47.3813" /><line stroke="rgb(0%,0%,0%)" x1="35.8278" x2="35.6608" y1="47.3813" y2="48.9702" /><line stroke="rgb(0%,0%,0%)" x1="35.6608" x2="35.5" y1="48.9702" y2="50.5" /><line stroke="rgb(0%,0%,0%)" x1="35.5" x2="35.667" y1="50.5" y2="52.0889" /><line stroke="rgb(0%,0%,0%)" x1="35.667" x2="35.8278" y1="52.0889" y2="53.6187" /><line stroke="rgb(0%,0%,0%)" x1="35.8278" x2="36.3215" y1="53.6187" y2="55.1381" /><line stroke="rgb(0%,0%,0%)" x1="36.3215" x2="36.7968" y1="55.1381" y2="56.6011" /><line stroke="rgb(0%,0%,0%)" x1="36.7968" x2="37.5956" y1="56.6011" y2="57.9846" /><line stroke="rgb(0%,0%,0%)" x1="37.5956" x2="38.3647" y1="57.9846" y2="59.3168" /><line stroke="rgb(0%,0%,0%)" x1="38.3647" x2="39.4338" y1="59.3168" y2="60.504" /><line stroke="rgb(0%,0%,0%)" x1="39.4338" x2="40.463" y1="60.504" y2="61.6472" /><line stroke="rgb(0%,0%,0%)" x1="40.463" x2="41.7555" y1="61.6472" y2="62.5862" /><line stroke="rgb(0%,0%,0%)" x1="41.7555" x2="43.0" y1="62.5862" y2="63.4904" /><line stroke="rgb(0%,0%,0%)" x1="43.0" x2="44.4595" y1="63.4904" y2="64.1402" /><line stroke="rgb(0%,0%,0%)" x1="44.4595" x2="45.8647" y1="64.1402" y2="64.7658" /><line stroke="rgb(0%,0%,0%)" x1="45.8647" x2="47.4274" y1="64.7658" y2="65.098" /><line stroke="rgb(0%,0%,0%)" x1="47.4274" x2="48.9321" y1="65.098" y2="65.4178" /><line stroke="rgb(0%,0%,0%)" x1="48.9321" x2="50.5297" y1="65.4178" y2="65.4178" /><line stroke="rgb(0%,0%,0%)" x1="50.5297" x2="52.0679" y1="65.4178" y2="65.4178" /><line stroke="rgb(0%,0%,0%)" x1="52.0679" x2="53.6306" y1="65.4178" y2="65.0857" /><line stroke="rgb(0%,0%,0%)" x1="53.6306" x2="55.1353" y1="65.0857" y2="64.7658" /><line stroke="rgb(0%,0%,0%)" x1="55.1353" x2="56.5948" y1="64.7658" y2="64.116" /><line stroke="rgb(0%,0%,0%)" x1="56.5948" x2="58.0" y1="64.116" y2="63.4904" /><line stroke="rgb(0%,0%,0%)" x1="58.0" x2="59.2925" y1="63.4904" y2="62.5513" /><line stroke="rgb(0%,0%,0%)" x1="59.2925" x2="60.537" y1="62.5513" y2="61.6472" /><line stroke="rgb(0%,0%,0%)" x1="60.537" x2="61.606" y1="61.6472" y2="60.4599" /><line stroke="rgb(0%,0%,0%)" x1="61.606" x2="62.6352" y1="60.4599" y2="59.3168" /><line stroke="rgb(0%,0%,0%)" x1="62.6352" x2="63.4341" y1="59.3168" y2="57.9332" /><line stroke="rgb(0%,0%,0%)" x1="63.4341" x2="64.2032" y1="57.9332" y2="56.6011" /><line stroke="rgb(0%,0%,0%)" x1="64.2032" x2="64.6969" y1="56.6011" y2="55.0816" /><line stroke="rgb(0%,0%,0%)" x1="64.6969" x2="65.1722" y1="55.0816" y2="53.6187" /><line stroke="rgb(0%,0%,0%)" x1="65.1722" x2="65.3392" y1="53.6187" y2="52.0298" /><line stroke="rgb(0%,0%,0%)" x1="65.3392" x2="65.5" y1="52.0298" y2="50.5" /><line stroke="rgb(0%,0%,0%)" x1="65.5" x2="65.333" y1="50.5" y2="48.9111" /><line stroke="rgb(0%,0%,0%)" x1="65.333" x2="65.1722" y1="48.9111" y2="47.3813" /><line stroke="rgb(0%,0%,0%)" x1="65.1722" x2="64.6785" y1="47.3813" y2="45.8619" /><line stroke="rgb(0%,0%,0%)" x1="64.6785" x2="64.2032" y1="45.8619" y2="44.3989" /><line stroke="rgb(0%,0%,0%)" x1="64.2032" x2="63.4044" y1="44.3989" y2="43.0154" /><line stroke="rgb(0%,0%,0%)" x1="63.4044" x2="62.6352" y1="43.0154" y2="41.6832" /><line stroke="rgb(0%,0%,0%)" x1="62.6352" x2="61.5662" y1="41.6832" y2="40.496" /><line stroke="rgb(0%,0%,0%)" x1="61.5662" x2="60.537" y1="40.496" y2="39.3528" /><line stroke="rgb(0%,0%,0%)" x1="60.537" x2="59.2445" y1="39.3528" y2="38.4138" /><line stroke="rgb(0%,0%,0%)" x1="59.2445" x2="58.0" y1="38.4138" y2="37.5096" /><line stroke="rgb(0%,0%,0%)" x1="58.0" x2="56.5405" y1="37.5096" y2="36.8598" /><line stroke="rgb(0%,0%,0%)" x1="56.5405" x2="55.1353" y1="36.8598" y2="36.2342" /><line stroke="rgb(0%,0%,0%)" x1="55.1353" x2="53.5725" y1="36.2342" y2="35.902" /><line stroke="rgb(0%,0%,0%)" x1="53.5725" x2="52.0679" y1="35.902" y2="35.5822" /><line stroke="rgb(0%,0%,0%)" x1="52.0679" x2="50.4703" y1="35.5822" y2="35.5822" /><line stroke="rgb(0%,0%,0%)" x1="50.4703" x2="48.9321" y1="35.5822" y2="35.5822" /><line stroke="rgb(0%,0%,0%)" x1="48.9321" x2="47.3694" y1="35.5822" y2="35.9143" /><line stroke="rgb(0%,0%,0%)" x1="47.3694" x2="45.8647" y1="35.9143" y2="36.2342" /><line stroke="rgb(0%,0%,0%)" x1="45.8647" x2="44.4052" y1="36.2342" y2="36.884" /><line stroke="rgb(0%,0%,0%)" x1="44.4052" x2="43.0" y1="36.884" y2="37.5096" /><line stroke="rgb(0%,0%,0%)" x1="43.0" x2="41.7075" y1="37.5096" y2="38.4487" /><line stroke="rgb(0%,0%,0%)" x1="41.7075" x2="40.463" y1="38.4487" y2="39.3528" /><line stroke="rgb(0%,0%,0%)" x1="40.463" x2="39.394" y1="39.3528" y2="40.5401" /><line stroke="rgb(0%,0%,0%)" x1="39.394" x2="38.3647" y1="40.5401" y2="41.6832" /><line stroke="rgb(0%,0%,0%)" x1="38.3647" x2="37.5659" y1="41.6832" y2="43.0668" /><line stroke="rgb(0%,0%,0%)" x1="37.5659" x2="36.7968" y1="43.0668" y2="44.3989" /><line stroke="rgb(0%,0%,0%)" x1="36.7968" x2="36.3031" y1="44.3989" y2="45.9184" /><line stroke="rgb(0%,0%,0%)" x1="36.3031" x2="35.8278" y1="45.9184" y2="47.3813" /></svg>