<?xml version="1.0" encoding="utf-8" ?>
<svg baseProfile="tiny" height="100%" version="1.2" width="100%" xmlns="http://www.w3.org/2000/svg" xmlns:ev="http://www.w3.org/2001/xml-events" xmlns:xlink="http://www.w3.org/1999/xlink"><defs /><line stroke="rgb(0%,0%,0%)" x1="351.9" x2="351.9" y1="0.5" y2="66.5992" /><line stroke="rgb(0%,0%,0%)" x1="351.9" x2="351.9" y1="66.5992" y2="100.5" /><line stroke="rgb(0%,0%,0%)" x1="237.108" x2="327.6014" y1="100.5" y2="100.5" /><line stroke="rgb(0%,0%,0%)" x1="327.6014" x2="330.7574" y1="100.5" y2="100.5" /><line stroke="rgb(0%,0%,0%)" x1="330.7574" x2="334.3629" y1="100.5" y2="100.5" /><line stroke="rgb(0%,0%,0%)" x1="334.3629" x2="338.3644" y1="100.5" y2="100.5" /><line stroke="rgb(0%,0%,0%)" x1="338.3644" x2="342.6866" y1="100.5" y2="100.5" /><line stroke="rgb(0%,0%,0%)" x1="342.6866" x2="347.2348" y1="100.5" y2="100.5" /><line stroke="rgb(0%,0%,0%)" x1="347.2348" x2="351.9" y1="100.5" y2="100.5" /><line stroke="rgb(0%,0%,0%)" x1="237.108" x2="154.4344" y1="100.5" y2="100.5" /><line stroke="rgb(0%,0%,0%)" x1="154.4344" x2="0.5" y1="100.5" y2="100.5" /><line stroke="rgb(0%,0%,0%)" x1="0.5" x2="154.4344" y1="0.5" y2="0.5" /><line stroke="rgb(0%,0%,0%)" x1="154.4344" x2="237.108" y1="0.5" y2="0.5" /><line stroke="rgb(0%,0%,0%)" x1="237.108" x2="327.6014" y1="0.5" y2="0.5" /><line stroke="rgb(0%,0%,0%)" x1="327.6014" x2="330.7574" y1="0.5" y2="0.5" /><line stroke="rgb(0%,0%,0%)" x1="330.7574" x2="334.3629" y1="0.5" y2="0.5" /><line stroke="rgb(0%,0%,0%)" x1="334.3629" x2="338.3644" y1="0.5" y2="0.5" /><line stroke="rgb(0%,0%,0%)" x1="338.3644" x2="342.6866" y1="0.5" y2="0.5" /><line stroke="rgb(0%,0%,0%)" x1="342.6866" x2="347.2348" y1="0.5" y2="0.5" /><line stroke="rgb(0%,0%,0%)" x1="347.2348" x2="351.9" y1="0.5" y2="0.5" /><line stroke="rgb(0%,0%,0%)" x1="0.5" x2="0.5" y1="0.5" y2="24.0269" /><line stroke="rgb(0%,0%,0%)" x1="0.5" x2="0.5" y1="24.0269" y2="100.5" /><line stroke="rgb(0%,0%,0%)" x1="135.8278" x2="135.6542" y1="47.3813" y2="49.0325" /><line stroke="rgb(0%,0%,0%)" x1="135.6542" x2="135.5" y1="49.0325" y2="50.5" /><line stroke="rgb(0%,0%,0%)" x1="135.5" x2="135.6736" y1="50.5" y2="52.1512" /><line stroke="rgb(0%,0%,0%)" x1="135.6736" x2="135.8278" y1="52.1512" y2="53.6187" /><line stroke="rgb(0%,0%,0%)" x1="135.8278" x2="136.3409" y1="53.6187" y2="55.1977" /><line stroke="rgb(0%,0%,0%)" x1="136.3409" x2="136.7968" y1="55.1977" y2="56.6011" /><line stroke="rgb(0%,0%,0%)" x1="136.7968" x2="137.627" y1="56.6011" y2="58.0389" /><line stroke="rgb(0%,0%,0%)" x1="137.627" x2="138.3647" y1="58.0389" y2="59.3168" /><line stroke="rgb(0%,0%,0%)" x1="138.3647" x2="139.4757" y1="59.3168" y2="60.5506" /><line stroke="rgb(0%,0%,0%)" x1="139.4757" x2="140.463" y1="60.5506" y2="61.6472" /><line stroke="rgb(0%,0%,0%)" x1="140.463" x2="141.8063" y1="61.6472" y2="62.6231" /><line stroke="rgb(0%,0%,0%)" x1="141.8063" x2="143.0" y1="62.6231" y2="63.4904" /><line stroke="rgb(0%,0%,0%)" x1="143.0" x2="144.5168" y1="63.4904" y2="64.1657" /><line stroke="rgb(0%,0%,0%)" x1="144.5168" x2="145.8647" y1="64.1657" y2="64.7658" /><line stroke="rgb(0%,0%,0%)" x1="145.8647" x2="147.4888" y1="64.7658" y2="65.111" /><line stroke="rgb(0%,0%,0%)" x1="147.4888" x2="148.9321" y1="65.111" y2="65.4178" /><line stroke="rgb(0%,0%,0%)" x1="148.9321" x2="150.5924" y1="65.4178" y2="65.4178" /><line stroke="rgb(0%,0%,0%)" x1="150.5924" x2="152.0679" y1="65.4178" y2="65.4178" /><line stroke="rgb(0%,0%,0%)" x1="152.0679" x2="153.692" y1="65.4178" y2="65.0726" /><line stroke="rgb(0%,0%,0%)" x1="153.692" x2="155.1353" y1="65.0726" y2="64.7658" /><line stroke="rgb(0%,0%,0%)" x1="155.1353" x2="156.652" y1="64.7658" y2="64.0905" /><line stroke="rgb(0%,0%,0%)" x1="156.652" x2="158.0" y1="64.0905" y2="63.4904" /><line stroke="rgb(0%,0%,0%)" x1="158.0" x2="159.3432" y1="63.4904" y2="62.5145" /><line stroke="rgb(0%,0%,0%)" x1="159.3432" x2="160.537" y1="62.5145" y2="61.6472" /><line stroke="rgb(0%,0%,0%)" x1="160.537" x2="161.6479" y1="61.6472" y2="60.4133" /><line stroke="rgb(0%,0%,0%)" x1="161.6479" x2="162.6353" y1="60.4133" y2="59.3168" /><line stroke="rgb(0%,0%,0%)" x1="162.6353" x2="163.4654" y1="59.3168" y2="57.8789" /><line stroke="rgb(0%,0%,0%)" x1="163.4654" x2="164.2032" y1="57.8789" y2="56.6011" /><line stroke="rgb(0%,0%,0%)" x1="164.2032" x2="164.7162" y1="56.6011" y2="55.022" /><line stroke="rgb(0%,0%,0%)" x1="164.7162" x2="165.1722" y1="55.022" y2="53.6187" /><line stroke="rgb(0%,0%,0%)" x1="165.1722" x2="165.3458" y1="53.6187" y2="51.9675" /><line stroke="rgb(0%,0%,0%)" x1="165.3458" x2="165.5" y1="51.9675" y2="50.5" /><line stroke="rgb(0%,0%,0%)" x1="165.5" x2="165.3264" y1="50.5" y2="48.8488" /><line stroke="rgb(0%,0%,0%)" x1="165.3264" x2="165.1722" y1="48.8488" y2="47.3813" /><line stroke="rgb(0%,0%,0%)" x1="165.1722" x2="164.6591" y1="47.3813" y2="45.8023" /><line stroke="rgb(0%,0%,0%)" x1="164.6591" x2="164.2032" y1="45.8023" y2="44.3989" /><line stroke="rgb(0%,0%,0%)" x1="164.2032" x2="163.373" y1="44.3989" y2="42.9611" /><line stroke="rgb(0%,0%,0%)" x1="163.373" x2="162.6353" y1="42.9611" y2="41.6832" /><line stroke="rgb(0%,0%,0%)" x1="162.6353" x2="161.5243" y1="41.6832" y2="40.4494" /><line stroke="rgb(0%,0%,0%)" x1="161.5243" x2="160.537" y1="40.4494" y2="39.3528" /><line stroke="rgb(0%,0%,0%)" x1="160.537" x2="159.1937" y1="39.3528" y2="38.3769" /><line stroke="rgb(0%,0%,0%)" x1="159.1937" x2="158.0" y1="38.3769" y2="37.5096" /><line stroke="rgb(0%,0%,0%)" x1="158.0" x2="156.4832" y1="37.5096" y2="36.8343" /><line stroke="rgb(0%,0%,0%)" x1="156.4832" x2="155.1353" y1="36.8343" y2="36.2342" /><line stroke="rgb(0%,0%,0%)" x1="155.1353" x2="153.5112" y1="36.2342" y2="35.889" /><line stroke="rgb(0%,0%,0%)" x1="153.5112" x2="152.0679" y1="35.889" y2="35.5822" /><line stroke="rgb(0%,0%,0%)" x1="152.0679" x2="150.4076" y1="35.5822" y2="35.5822" /><line stroke="rgb(0%,0%,0%)" x1="150.4076" x2="148.9321" y1="35.5822" y2="35.5822" /><line stroke="rgb(0%,0%,0%)" x1="148.9321" x2="147.308" y1="35.5822" y2="35.9274" /><line stroke="rgb(0%,0%,0%)" x1="147.308" x2="145.8647" y1="35.9274" y2="36.2342" /><line stroke="rgb(0%,0%,0%)" x1="145.8647" x2="144.348" y1="36.2342" y2="36.9095" /><line stroke="rgb(0%,0%,0%)" x1="144.348" x2="143.0" y1="36.9095" y2="37.5096" /><line stroke="rgb(0%,0%,0%)" x1="143.0" x2="141.6568" y1="37.5096" y2="38.4855" /><line stroke="rgb(0%,0%,0%)" x1="141.6568" x2="140.463" y1="38.4855" y2="39.3528" /><line stroke="rgb(0%,0%,0%)" x1="140.463" x2="139.3521" y1="39.3528" y2="40.5867" /><line stroke="rgb(0%,0%,0%)" x1="139.3521" x2="138.3647" y1="40.5867" y2="41.6832" /><line stroke="rgb(0%,0%,0%)" x1="138.3647" x2="137.5346" y1="41.6832" y2="43.1211" /><line stroke="rgb(0%,0%,0%)" x1="137.5346" x2="136.7968" y1="43.1211" y2="44.3989" /><line stroke="rgb(0%,0%,0%)" x1="136.7968" x2="136.2838" y1="44.3989" y2="45.978" /><line stroke="rgb(0%,0%,0%)" x1="136.2838" x2="135.8278" y1="45.978" y2="47.3813" /><line stroke="rgb(0%,0%,0%)" x1="35.8278" x2="35.6542" y1="47.3813" y2="49.0325" /><line stroke="rgb(0%,0%,0%)" x1="35.6542" x2="35.5" y1="49.0325" y2="50.5" /><line stroke="rgb(0%,0%,0%)" x1="35.5" x2="35.6735" y1="50.5" y2="52.1512" /><line stroke="rgb(0%,0%,0%)" x1="35.6735" x2="35.8278" y1="52.1512" y2="53.6187" /><line stroke="rgb(0%,0%,0%)" x1="35.8278" x2="36.3408" y1="53.6187" y2="55.1977" /><line stroke="rgb(0%,0%,0%)" x1="36.3408" x2="36.7968" y1="55.1977" y2="56.6011" /><line stroke="rgb(0%,0%,0%)" x1="36.7968" x2="37.627" y1="56.6011" y2="58.0389" /><line stroke="rgb(0%,0%,0%)" x1="37.627" x2="38.3647" y1="58.0389" y2="59.3168" /><line stroke="rgb(0%,0%,0%)" x1="38.3647" x2="39.4757" y1="59.3168" y2="60.5506" /><line stroke="rgb(0%,0%,0%)" x1="39.4757" x2="40.463" y1="60.5506" y2="61.6472" /><line stroke="rgb(0%,0%,0%)" x1="40.463" x2="41.8063" y1="61.6472" y2="62.6231" /><line stroke="rgb(0%,0%,0%)" x1="41.8063" x2="43.0" y1="62.6231" y2="63.4904" /><line stroke="rgb(0%,0%,0%)" x1="43.0" x2="44.5168" y1="63.4904" y2="64.1657" /><line stroke="rgb(0%,0%,0%)" x1="44.5168" x2="45.8647" y1="64.1657" y2="64.7658" /><line stroke="rgb(0%,0%,0%)" x1="45.8647" x2="47.4888" y1="64.7658" y2="65.111" /><line stroke="rgb(0%,0%,0%)" x1="47.4888" x2="48.9321" y1="65.111" y2="65.4178" /><line stroke="rgb(0%,0%,0%)" x1="48.9321" x2="50.5924" y1="65.4178" y2="65.4178" /><line stroke="rgb(0%,0%,0%)" x1="50.5924" x2="52.0679" y1="65.4178" y2="65.4178" /><line stroke="rgb(0%,0%,0%)" x1="52.0679" x2="53.692" y1="65.4178" y2="65.0726" /><line stroke="rgb(0%,0%,0%)" x1="53.692" x2="55.1353" y1="65.0726" y2="64.7658" /><line stroke="rgb(0%,0%,0%)" x1="55.1353" x2="56.652" y1="64.7658" y2="64.0905" /><line stroke="rgb(0%,0%,0%)" x1="56.652" x2="58.0" y1="64.0905" y2="63.4904" /><line stroke="rgb(0%,0%,0%)" x1="58.0" x2="59.3432" y1="63.4904" y2="62.5145" /><line stroke="rgb(0%,0%,0%)" x1="59.3432" x2="60.537" y1="62.5145" y2="61.6472" /><line stroke="rgb(0%,0%,0%)" x1="60.537" x2="61.6479" y1="61.6472" y2="60.4133" /><line stroke="rgb(0%,0%,0%)" x1="61.6479" x2="62.6352" y1="60.4133" y2="59.3168" /><line stroke="rgb(0%,0%,0%)" x1="62.6352" x2="63.4654" y1="59.3168" y2="57.8789" /><line stroke="rgb(0%,0%,0%)" x1="63.4654" x2="64.2032" y1="57.8789" y2="56.6011" /><line stroke="rgb(0%,0%,0%)" x1="64.2032" x2="64.7162" y1="56.6011" y2="55.022" /><line stroke="rgb(0%,0%,0%)" x1="64.7162" x2="65.1722" y1="55.022" y2="53.6187" /><line stroke="rgb(0%,0%,0%)" x1="65.1722" x2="65.3458" y1="53.6187" y2="51.9675" /><line stroke="rgb(0%,0%,0%)" x1="65.3458" x2="65.5" y1="51.9675" y2="50.5" /><line stroke="rgb(0%,0%,0%)" x1="65.5" x2="65.3264" y1="50.5" y2="48.8488" /><line stroke="rgb(0%,0%,0%)" x1="65.3264" x2="65.1722" y1="48.8488" y2="47.3813" /><line stroke="rgb(0%,0%,0%)" x1="65.1722" x2="64.6591" y1="47.3813" y2="45.8023" /><line stroke="rgb(0%,0%,0%)" x1="64.6591" x2="64.2032" y1="45.8023" y2="44.3989" /><line stroke="rgb(0%,0%,0%)" x1="64.2032" x2="63.373" y1="44.3989" y2="42.9611" /><line stroke="rgb(0%,0%,0%)" x1="63.373" x2="62.6352" y1="42.9611" y2="41.6832" /><line stroke="rgb(0%,0%,0%)" x1="62.6352" x2="61.5243" y1="41.6832" y2="40.4494" /><line stroke="rgb(0%,0%,0%)" x1="61.5243" x2="60.537" y1="40.4494" y2="39.3528" /><line stroke="rgb(0%,0%,0%)" x1="60.537" x2="59.1937" y1="39.3528" y2="38.3769" /><line stroke="rgb(0%,0%,0%)" x1="59.1937" x2="58.0" y1="38.3769" y2="37.5096" /><line stroke="rgb(0%,0%,0%)" x1="58.0" x2="56.4832" y1="37.5096" y2="36.8343" /><line stroke="rgb(0%,0%,0%)" x1="56.4832" x2="55.1353" y1="36.8343" y2="36.2342" /><line stroke="rgb(0%,0%,0%)" x1="55.1353" x2="53.5112" y1="36.2342" y2="35.889" /><line stroke="rgb(0%,0%,0%)" x1="53.5112" x2="52.0679" y1="35.889" y2="35.5822" /><line stroke="rgb(0%,0%,0%)" x1="52.0679" x2="50.4076" y1="35.5822" y2="35.5822" /><line stroke="rgb(0%,0%,0%)" x1="50.4076" x2="48.9321" y1="35.5822" y2="35.5822" /><line stroke="rgb(0%,0%,0%)" x1="48.9321" x2="47.308" y1="35.5822" y2="35.9274" /><line stroke="rgb(0%,0%,0%)" x1="47.308" x2="45.8647" y1="35.9274" y2="36.2342" /><line stroke="rgb(0%,0%,0%)" x1="45.8647" x2="44.348" y1="36.2342" y2="36.9095" /><line stroke="rgb(0%,0%,0%)" x1="44.348" x2="43.0" y1="36.9095" y2="37.5096" /><line stroke="rgb(0%,0%,0%)" x1="43.0" x2="41.6568" y1="37.5096" y2="38.4855" /><line stroke="rgb(0%,0%,0%)" x1="41.6568" x2="40.463" y1="38.4855" y2="39.3528" /><line stroke="rgb(0%,0%,0%)" x1="40.463" x2="39.3521" y1="39.3528" y2="40.5867" /><line stroke="rgb(0%,0%,0%)" x1="39.3521" x2="38.3647" y1="40.5867" y2="41.6832" /><line stroke="rgb(0%,0%,0%)" x1="38.3647" x2="37.5346" y1="41.6832" y2="43.1211" /><line stroke="rgb(0%,0%,0%)" x1="37.5346" x2="36.7968" y1="43.1211" y2="44.3989" /><line stroke="rgb(0%,0%,0%)" x1="36.7968" x2="36.2837" y1="44.3989" y2="45.978" /><line stroke="rgb(0%,0%,0%)" x1="36.2837" x2="35.8278" y1="45.978" y2="47.3813" /></svg>