<?xml version="1.0" encoding="utf-8" ?>
<svg baseProfile="tiny" height="100%" version="1.2" width="100%" xmlns="http://www.w3.org/2000/svg" xmlns:ev="http://www.w3.org/2001/xml-events" xmlns:xlink="http://www.w3.org/1999/xlink"><defs /><line stroke="rgb(0%,0%,0%)" x1="351.9" x2="351.9" y1="0.5" y2="67.4632" /><line stroke="rgb(0%,0%,0%)" x1="351.9" x2="351.9" y1="67.4632" y2="100.5" /><line stroke="rgb(0%,0%,0%)" x1="235.6074" x2="327.2838" y1="100.5" y2="100.5" /><line stroke="rgb(0%,0%,0%)" x1="327.2838" x2="330.481" y1="100.5" y2="100.5" /><line stroke="rgb(0%,0%,0%)" x1="330.481" x2="334.1336" y1="100.5" y2="100.5" /><line stroke="rgb(0%,0%,0%)" x1="334.1336" x2="338.1875" y1="100.5" y2="100.5" /><line stroke="rgb(0%,0%,0%)" x1="338.1875" x2="342.5662" y1="100.5" y2="100.5" /><line stroke="rgb(0%,0%,0%)" x1="342.5662" x2="347.1739" y1="100.5" y2="100.5" /><line stroke="rgb(0%,0%,0%)" x1="347.1739" x2="351.9" y1="100.5" y2="100.5" /><line stroke="rgb(0%,0%,0%)" x1="235.6074" x2="156.4466" y1="100.5" y2="100.5" /><line stroke="rgb(0%,0%,0%)" x1="156.4466" x2="0.5" y1="100.5" y2="100.5" /><line stroke="rgb(0%,0%,0%)" x1="0.5" x2="156.4466" y1="0.5" y2="0.5" /><line stroke="rgb(0%,0%,0%)" x1="156.4466" x2="235.6074" y1="0.5" y2="0.5" /><line stroke="rgb(0%,0%,0%)" x1="235.6074" x2="327.2838" y1="0.5" y2="0.5" /><line stroke="rgb(0%,0%,0%)" x1="327.2838" x2="330.481" y1="0.5" y2="0.5" /><line stroke="rgb(0%,0%,0%)" x1="330.481" x2="334.1336" y1="0.5" y2="0.5" /><line stroke="rgb(0%,0%,0%)" x1="334.1336" x2="338.1875" y1="0.5" y2="0.5" /><line stroke="rgb(0%,0%,0%)" x1="338.1875" x2="342.5662" y1="0.5" y2="0.5" /><line stroke="rgb(0%,0%,0%)" x1="342.5662" x2="347.1739" y1="0.5" y2="0.5" /><line stroke="rgb(0%,0%,0%)" x1="347.1739" x2="351.9" y1="0.5" y2="0.5" /><line stroke="rgb(0%,0%,0%)" x1="0.5" x2="0.5" y1="0.5" y2="23.0273" /><line stroke="rgb(0%,0%,0%)" x1="0.5" x2="0.5" y1="23.0273" y2="100.5" /><line stroke="rgb(0%,0%,0%)" x1="135.8278" x2="135.6477" y1="47.3813" y2="49.0949" /><line stroke="rgb(0%,0%,0%)" x1="135.6477" x2="135.5" y1="49.0949" y2="50.5" /><line stroke="rgb(0%,0%,0%)" x1="135.5" x2="135.6801" y1="50.5" y2="52.2136" /><line stroke="rgb(0%,0%,0%)" x1="135.6801" x2="135.8278" y1="52.2136" y2="53.6187" /><line stroke="rgb(0%,0%,0%)" x1="135.8278" x2="136.3602" y1="53.6187" y2="55.2574" /><line stroke="rgb(0%,0%,0%)" x1="136.3602" x2="136.7968" y1="55.2574" y2="56.6011" /><line stroke="rgb(0%,0%,0%)" x1="136.7968" x2="137.6583" y1="56.6011" y2="58.0932" /><line stroke="rgb(0%,0%,0%)" x1="137.6583" x2="138.3647" y1="58.0932" y2="59.3168" /><line stroke="rgb(0%,0%,0%)" x1="138.3647" x2="139.5177" y1="59.3168" y2="60.5972" /><line stroke="rgb(0%,0%,0%)" x1="139.5177" x2="140.463" y1="60.5972" y2="61.6472" /><line stroke="rgb(0%,0%,0%)" x1="140.463" x2="141.857" y1="61.6472" y2="62.6599" /><line stroke="rgb(0%,0%,0%)" x1="141.857" x2="143.0" y1="62.6599" y2="63.4904" /><line stroke="rgb(0%,0%,0%)" x1="143.0" x2="144.574" y1="63.4904" y2="64.1912" /><line stroke="rgb(0%,0%,0%)" x1="144.574" x2="145.8647" y1="64.1912" y2="64.7658" /><line stroke="rgb(0%,0%,0%)" x1="145.8647" x2="147.5501" y1="64.7658" y2="65.1241" /><line stroke="rgb(0%,0%,0%)" x1="147.5501" x2="148.9321" y1="65.1241" y2="65.4178" /><line stroke="rgb(0%,0%,0%)" x1="148.9321" x2="150.6551" y1="65.4178" y2="65.4178" /><line stroke="rgb(0%,0%,0%)" x1="150.6551" x2="152.0679" y1="65.4178" y2="65.4178" /><line stroke="rgb(0%,0%,0%)" x1="152.0679" x2="153.7533" y1="65.4178" y2="65.0596" /><line stroke="rgb(0%,0%,0%)" x1="153.7533" x2="155.1353" y1="65.0596" y2="64.7658" /><line stroke="rgb(0%,0%,0%)" x1="155.1353" x2="156.7093" y1="64.7658" y2="64.065" /><line stroke="rgb(0%,0%,0%)" x1="156.7093" x2="158.0" y1="64.065" y2="63.4904" /><line stroke="rgb(0%,0%,0%)" x1="158.0" x2="159.3939" y1="63.4904" y2="62.4776" /><line stroke="rgb(0%,0%,0%)" x1="159.3939" x2="160.537" y1="62.4776" y2="61.6472" /><line stroke="rgb(0%,0%,0%)" x1="160.537" x2="161.6899" y1="61.6472" y2="60.3667" /><line stroke="rgb(0%,0%,0%)" x1="161.6899" x2="162.6353" y1="60.3667" y2="59.3168" /><line stroke="rgb(0%,0%,0%)" x1="162.6353" x2="163.4968" y1="59.3168" y2="57.8246" /><line stroke="rgb(0%,0%,0%)" x1="163.4968" x2="164.2032" y1="57.8246" y2="56.6011" /><line stroke="rgb(0%,0%,0%)" x1="164.2032" x2="164.7356" y1="56.6011" y2="54.9624" /><line stroke="rgb(0%,0%,0%)" x1="164.7356" x2="165.1722" y1="54.9624" y2="53.6187" /><line stroke="rgb(0%,0%,0%)" x1="165.1722" x2="165.3523" y1="53.6187" y2="51.9051" /><line stroke="rgb(0%,0%,0%)" x1="165.3523" x2="165.5" y1="51.9051" y2="50.5" /><line stroke="rgb(0%,0%,0%)" x1="165.5" x2="165.3199" y1="50.5" y2="48.7864" /><line stroke="rgb(0%,0%,0%)" x1="165.3199" x2="165.1722" y1="48.7864" y2="47.3813" /><line stroke="rgb(0%,0%,0%)" x1="165.1722" x2="164.6398" y1="47.3813" y2="45.7426" /><line stroke="rgb(0%,0%,0%)" x1="164.6398" x2="164.2032" y1="45.7426" y2="44.3989" /><line stroke="rgb(0%,0%,0%)" x1="164.2032" x2="163.3417" y1="44.3989" y2="42.9068" /><line stroke="rgb(0%,0%,0%)" x1="163.3417" x2="162.6353" y1="42.9068" y2="41.6832" /><line stroke="rgb(0%,0%,0%)" x1="162.6353" x2="161.4823" y1="41.6832" y2="40.4028" /><line stroke="rgb(0%,0%,0%)" x1="161.4823" x2="160.537" y1="40.4028" y2="39.3528" /><line stroke="rgb(0%,0%,0%)" x1="160.537" x2="159.143" y1="39.3528" y2="38.3401" /><line stroke="rgb(0%,0%,0%)" x1="159.143" x2="158.0" y1="38.3401" y2="37.5096" /><line stroke="rgb(0%,0%,0%)" x1="158.0" x2="156.4259" y1="37.5096" y2="36.8088" /><line stroke="rgb(0%,0%,0%)" x1="156.4259" x2="155.1353" y1="36.8088" y2="36.2342" /><line stroke="rgb(0%,0%,0%)" x1="155.1353" x2="153.4499" y1="36.2342" y2="35.8759" /><line stroke="rgb(0%,0%,0%)" x1="153.4499" x2="152.0679" y1="35.8759" y2="35.5822" /><line stroke="rgb(0%,0%,0%)" x1="152.0679" x2="150.3449" y1="35.5822" y2="35.5822" /><line stroke="rgb(0%,0%,0%)" x1="150.3449" x2="148.9321" y1="35.5822" y2="35.5822" /><line stroke="rgb(0%,0%,0%)" x1="148.9321" x2="147.2467" y1="35.5822" y2="35.9404" /><line stroke="rgb(0%,0%,0%)" x1="147.2467" x2="145.8647" y1="35.9404" y2="36.2342" /><line stroke="rgb(0%,0%,0%)" x1="145.8647" x2="144.2907" y1="36.2342" y2="36.935" /><line stroke="rgb(0%,0%,0%)" x1="144.2907" x2="143.0" y1="36.935" y2="37.5096" /><line stroke="rgb(0%,0%,0%)" x1="143.0" x2="141.6061" y1="37.5096" y2="38.5224" /><line stroke="rgb(0%,0%,0%)" x1="141.6061" x2="140.463" y1="38.5224" y2="39.3528" /><line stroke="rgb(0%,0%,0%)" x1="140.463" x2="139.3101" y1="39.3528" y2="40.6333" /><line stroke="rgb(0%,0%,0%)" x1="139.3101" x2="138.3647" y1="40.6333" y2="41.6832" /><line stroke="rgb(0%,0%,0%)" x1="138.3647" x2="137.5032" y1="41.6832" y2="43.1754" /><line stroke="rgb(0%,0%,0%)" x1="137.5032" x2="136.7968" y1="43.1754" y2="44.3989" /><line stroke="rgb(0%,0%,0%)" x1="136.7968" x2="136.2644" y1="44.3989" y2="46.0376" /><line stroke="rgb(0%,0%,0%)" x1="136.2644" x2="135.8278" y1="46.0376" y2="47.3813" /><line stroke="rgb(0%,0%,0%)" x1="35.8278" x2="35.6477" y1="47.3813" y2="49.0949" /><line stroke="rgb(0%,0%,0%)" x1="35.6477" x2="35.5" y1="49.0949" y2="50.5" /><line stroke="rgb(0%,0%,0%)" x1="35.5" x2="35.6801" y1="50.5" y2="52.2136" /><line stroke="rgb(0%,0%,0%)" x1="35.6801" x2="35.8278" y1="52.2136" y2="53.6187" /><line stroke="rgb(0%,0%,0%)" x1="35.8278" x2="36.3602" y1="53.6187" y2="55.2574" /><line stroke="rgb(0%,0%,0%)" x1="36.3602" x2="36.7968" y1="55.2574" y2="56.6011" /><line stroke="rgb(0%,0%,0%)" x1="36.7968" x2="37.6583" y1="56.6011" y2="58.0932" /><line stroke="rgb(0%,0%,0%)" x1="37.6583" x2="38.3647" y1="58.0932" y2="59.3168" /><line stroke="rgb(0%,0%,0%)" x1="38.3647" x2="39.5177" y1="59.3168" y2="60.5972" /><line stroke="rgb(0%,0%,0%)" x1="39.5177" x2="40.463" y1="60.5972" y2="61.6472" /><line stroke="rgb(0%,0%,0%)" x1="40.463" x2="41.857" y1="61.6472" y2="62.6599" /><line stroke="rgb(0%,0%,0%)" x1="41.857" x2="43.0" y1="62.6599" y2="63.4904" /><line stroke="rgb(0%,0%,0%)" x1="43.0" x2="44.574" y1="63.4904" y2="64.1912" /><line stroke="rgb(0%,0%,0%)" x1="44.574" x2="45.8647" y1="64.1912" y2="64.7658" /><line stroke="rgb(0%,0%,0%)" x1="45.8647" x2="47.5501" y1="64.7658" y2="65.1241" /><line stroke="rgb(0%,0%,0%)" x1="47.5501" x2="48.9321" y1="65.1241" y2="65.4178" /><line stroke="rgb(0%,0%,0%)" x1="48.9321" x2="50.6551" y1="65.4178" y2="65.4178" /><line stroke="rgb(0%,0%,0%)" x1="50.6551" x2="52.0679" y1="65.4178" y2="65.4178" /><line stroke="rgb(0%,0%,0%)" x1="52.0679" x2="53.7533" y1="65.4178" y2="65.0596" /><line stroke="rgb(0%,0%,0%)" x1="53.7533" x2="55.1353" y1="65.0596" y2="64.7658" /><line stroke="rgb(0%,0%,0%)" x1="55.1353" x2="56.7093" y1="64.7658" y2="64.065" /><line stroke="rgb(0%,0%,0%)" x1="56.7093" x2="58.0" y1="64.065" y2="63.4904" /><line stroke="rgb(0%,0%,0%)" x1="58.0" x2="59.3939" y1="63.4904" y2="62.4776" /><line stroke="rgb(0%,0%,0%)" x1="59.3939" x2="60.537" y1="62.4776" y2="61.6472" /><line stroke="rgb(0%,0%,0%)" x1="60.537" x2="61.6899" y1="61.6472" y2="60.3667" /><line stroke="rgb(0%,0%,0%)" x1="61.6899" x2="62.6352" y1="60.3667" y2="59.3168" /><line stroke="rgb(0%,0%,0%)" x1="62.6352" x2="63.4968" y1="59.3168" y2="57.8246" /><line stroke="rgb(0%,0%,0%)" x1="63.4968" x2="64.2032" y1="57.8246" y2="56.6011" /><line stroke="rgb(0%,0%,0%)" x1="64.2032" x2="64.7356" y1="56.6011" y2="54.9624" /><line stroke="rgb(0%,0%,0%)" x1="64.7356" x2="65.1722" y1="54.9624" y2="53.6187" /><line stroke="rgb(0%,0%,0%)" x1="65.1722" x2="65.3523" y1="53.6187" y2="51.9051" /><line stroke="rgb(0%,0%,0%)" x1="65.3523" x2="65.5" y1="51.9051" y2="50.5" /><line stroke="rgb(0%,0%,0%)" x1="65.5" x2="65.3199" y1="50.5" y2="48.7864" /><line stroke="rgb(0%,0%,0%)" x1="65.3199" x2="65.1722" y1="48.7864" y2="47.3813" /><line stroke="rgb(0%,0%,0%)" x1="65.1722" x2="64.6398" y1="47.3813" y2="45.7426" /><line stroke="rgb(0%,0%,0%)" x1="64.6398" x2="64.2032" y1="45.7426" y2="44.3989" /><line stroke="rgb(0%,0%,0%)" x1="64.2032" x2="63.3417" y1="44.3989" y2="42.9068" /><line stroke="rgb(0%,0%,0%)" x1="63.3417" x2="62.6352" y1="42.9068" y2="41.6832" /><line stroke="rgb(0%,0%,0%)" x1="62.6352" x2="61.4823" y1="41.6832" y2="40.4028" /><line stroke="rgb(0%,0%,0%)" x1="61.4823" x2="60.537" y1="40.4028" y2="39.3528" /><line stroke="rgb(0%,0%,0%)" x1="60.537" x2="59.143" y1="39.3528" y2="38.3401" /><line stroke="rgb(0%,0%,0%)" x1="59.143" x2="58.0" y1="38.3401" y2="37.5096" /><line stroke="rgb(0%,0%,0%)" x1="58.0" x2="56.426" y1="37.5096" y2="36.8088" /><line stroke="rgb(0%,0%,0%)" x1="56.426" x2="55.1353" y1="36.8088" y2="36.2342" /><line stroke="rgb(0%,0%,0%)" x1="55.1353" x2="53.4499" y1="36.2342" y2="35.8759" /><line stroke="rgb(0%,0%,0%)" x1="53.4499" x2="52.0679" y1="35.8759" y2="35.5822" /><line stroke="rgb(0%,0%,0%)" x1="52.0679" x2="50.3449" y1="35.5822" y2="35.5822" /><line stroke="rgb(0%,0%,0%)" x1="50.3449" x2="48.9321" y1="35.5822" y2="35.5822" /><line stroke="rgb(0%,0%,0%)" x1="48.9321" x2="47.2467" y1="35.5822" y2="35.9404" /><line stroke="rgb(0%,0%,0%)" x1="47.2467" x2="45.8647" y1="35.9404" y2="36.2342" /><line stroke="rgb(0%,0%,0%)" x1="45.8647" x2="44.2907" y1="36.2342" y2="36.935" /><line stroke="rgb(0%,0%,0%)" x1="44.2907" x2="43.0" y1="36.935" y2="37.5096" /><line stroke="rgb(0%,0%,0%)" x1="43.0" x2="41.6061" y1="37.5096" y2="38.5224" /><line stroke="rgb(0%,0%,0%)" x1="41.6061" x2="40.463" y1="38.5224" y2="39.3528" /><line stroke="rgb(0%,0%,0%)" x1="40.463" x2="39.3101" y1="39.3528" y2="40.6333" /><line stroke="rgb(0%,0%,0%)" x1="39.3101" x2="38.3647" y1="40.6333" y2="41.6832" /><line stroke="rgb(0%,0%,0%)" x1="38.3647" x2="37.5032" y1="41.6832" y2="43.1754" /><line stroke="rgb(0%,0%,0%)" x1="37.5032" x2="36.7968" y1="43.1754" y2="44.3989" /><line stroke="rgb(0%,0%,0%)" x1="36.7968" x2="36.2644" y1="44.3989" y2="46.0376" /><line stroke="rgb(0%,0%,0%)" x1="36.2644" x2="35.8278" y1="46.0376" y2="47.3813" /></svg>