<?xml version="1.0" encoding="utf-8" ?>
<svg baseProfile="tiny" height="100%" version="1.2" width="100%" xmlns="http://www.w3.org/2000/svg" xmlns:ev="http://www.w3.org/2001/xml-events" xmlns:xlink="http://www.w3.org/1999/xlink"><defs /><line stroke="rgb(0%,0%,0%)" x1="351.9" x2="351.9" y1="0.5" y2="68.3273" /><line stroke="rgb(0%,0%,0%)" x1="351.9" x2="351.9" y1="68.3273" y2="100.5" /><line stroke="rgb(0%,0%,0%)" x1="234.1069" x2="326.9661" y1="100.5" y2="100.5" /><line stroke="rgb(0%,0%,0%)" x1="326.9661" x2="330.2046" y1="100.5" y2="100.5" /><line stroke="rgb(0%,0%,0%)" x1="330.2046" x2="333.9044" y1="100.5" y2="100.5" /><line stroke="rgb(0%,0%,0%)" x1="333.9044" x2="338.0105" y1="100.5" y2="100.5" /><line stroke="rgb(0%,0%,0%)" x1="338.0105" x2="342.4457" y1="100.5" y2="100.5" /><line stroke="rgb(0%,0%,0%)" x1="342.4457" x2="347.1129" y1="100.5" y2="100.5" /><line stroke="rgb(0%,0%,0%)" x1="347.1129" x2="351.9" y1="100.5" y2="100.5" /><line stroke="rgb(0%,0%,0%)" x1="234.1069" x2="158.4588" y1="100.5" y2="100.5" /><line stroke="rgb(0%,0%,0%)" x1="158.4588" x2="0.5" y1="100.5" y2="100.5" /><line stroke="rgb(0%,0%,0%)" x1="0.5" x2="158.4588" y1="0.5" y2="0.5" /><line stroke="rgb(0%,0%,0%)" x1="158.4588" x2="234.1069" y1="0.5" y2="0.5" /><line stroke="rgb(0%,0%,0%)" x1="234.1069" x2="326.9661" y1="0.5" y2="0.5" /><line stroke="rgb(0%,0%,0%)" x1="326.9661" x2="330.2046" y1="0.5" y2="0.5" /><line stroke="rgb(0%,0%,0%)" x1="330.2046" x2="333.9044" y1="0.5" y2="0.5" /><line stroke="rgb(0%,0%,0%)" x1="333.9044" x2="338.0105" y1="0.5" y2="0.5" /><line stroke="rgb(0%,0%,0%)" x1="338.0105" x2="342.4457" y1="0.5" y2="0.5" /><line stroke="rgb(0%,0%,0%)" x1="342.4457" x2="347.1129" y1="0.5" y2="0.5" /><line stroke="rgb(0%,0%,0%)" x1="347.1129" x2="351.9" y1="0.5" y2="0.5" /><line stroke="rgb(0%,0%,0%)" x1="0.5" x2="0.5" y1="0.5" y2="22.0276" /><line stroke="rgb(0%,0%,0%)" x1="0.5" x2="0.5" y1="22.0276" y2="100.5" /><line stroke="rgb(0%,0%,0%)" x1="135.8278" x2="135.6411" y1="47.3813" y2="49.1572" /><line stroke="rgb(0%,0%,0%)" x1="135.6411" x2="135.5" y1="49.1572" y2="50.5" /><line stroke="rgb(0%,0%,0%)" x1="135.5" x2="135.6867" y1="50.5" y2="52.2759" /><line stroke="rgb(0%,0%,0%)" x1="135.6867" x2="135.8278" y1="52.2759" y2="53.6187" /><line stroke="rgb(0%,0%,0%)" x1="135.8278" x2="136.3796" y1="53.6187" y2="55.317" /><line stroke="rgb(0%,0%,0%)" x1="136.3796" x2="136.7968" y1="55.317" y2="56.6011" /><line stroke="rgb(0%,0%,0%)" x1="136.7968" x2="137.6897" y1="56.6011" y2="58.1475" /><line stroke="rgb(0%,0%,0%)" x1="137.6897" x2="138.3647" y1="58.1475" y2="59.3168" /><line stroke="rgb(0%,0%,0%)" x1="138.3647" x2="139.5596" y1="59.3168" y2="60.6438" /><line stroke="rgb(0%,0%,0%)" x1="139.5596" x2="140.463" y1="60.6438" y2="61.6472" /><line stroke="rgb(0%,0%,0%)" x1="140.463" x2="141.9077" y1="61.6472" y2="62.6968" /><line stroke="rgb(0%,0%,0%)" x1="141.9077" x2="143.0" y1="62.6968" y2="63.4904" /><line stroke="rgb(0%,0%,0%)" x1="143.0" x2="144.6313" y1="63.4904" y2="64.2167" /><line stroke="rgb(0%,0%,0%)" x1="144.6313" x2="145.8647" y1="64.2167" y2="64.7658" /><line stroke="rgb(0%,0%,0%)" x1="145.8647" x2="147.6114" y1="64.7658" y2="65.1371" /><line stroke="rgb(0%,0%,0%)" x1="147.6114" x2="148.9321" y1="65.1371" y2="65.4178" /><line stroke="rgb(0%,0%,0%)" x1="148.9321" x2="150.7178" y1="65.4178" y2="65.4178" /><line stroke="rgb(0%,0%,0%)" x1="150.7178" x2="152.0679" y1="65.4178" y2="65.4178" /><line stroke="rgb(0%,0%,0%)" x1="152.0679" x2="153.8146" y1="65.4178" y2="65.0466" /><line stroke="rgb(0%,0%,0%)" x1="153.8146" x2="155.1353" y1="65.0466" y2="64.7658" /><line stroke="rgb(0%,0%,0%)" x1="155.1353" x2="156.7666" y1="64.7658" y2="64.0395" /><line stroke="rgb(0%,0%,0%)" x1="156.7666" x2="158.0" y1="64.0395" y2="63.4904" /><line stroke="rgb(0%,0%,0%)" x1="158.0" x2="159.4447" y1="63.4904" y2="62.4408" /><line stroke="rgb(0%,0%,0%)" x1="159.4447" x2="160.537" y1="62.4408" y2="61.6472" /><line stroke="rgb(0%,0%,0%)" x1="160.537" x2="161.7318" y1="61.6472" y2="60.3201" /><line stroke="rgb(0%,0%,0%)" x1="161.7318" x2="162.6353" y1="60.3201" y2="59.3168" /><line stroke="rgb(0%,0%,0%)" x1="162.6353" x2="163.5281" y1="59.3168" y2="57.7703" /><line stroke="rgb(0%,0%,0%)" x1="163.5281" x2="164.2032" y1="57.7703" y2="56.6011" /><line stroke="rgb(0%,0%,0%)" x1="164.2032" x2="164.755" y1="56.6011" y2="54.9027" /><line stroke="rgb(0%,0%,0%)" x1="164.755" x2="165.1722" y1="54.9027" y2="53.6187" /><line stroke="rgb(0%,0%,0%)" x1="165.1722" x2="165.3589" y1="53.6187" y2="51.8428" /><line stroke="rgb(0%,0%,0%)" x1="165.3589" x2="165.5" y1="51.8428" y2="50.5" /><line stroke="rgb(0%,0%,0%)" x1="165.5" x2="165.3133" y1="50.5" y2="48.7241" /><line stroke="rgb(0%,0%,0%)" x1="165.3133" x2="165.1722" y1="48.7241" y2="47.3813" /><line stroke="rgb(0%,0%,0%)" x1="165.1722" x2="164.6204" y1="47.3813" y2="45.683" /><line stroke="rgb(0%,0%,0%)" x1="164.6204" x2="164.2032" y1="45.683" y2="44.3989" /><line stroke="rgb(0%,0%,0%)" x1="164.2032" x2="163.3103" y1="44.3989" y2="42.8525" /><line stroke="rgb(0%,0%,0%)" x1="163.3103" x2="162.6353" y1="42.8525" y2="41.6832" /><line stroke="rgb(0%,0%,0%)" x1="162.6353" x2="161.4404" y1="41.6832" y2="40.3562" /><line stroke="rgb(0%,0%,0%)" x1="161.4404" x2="160.537" y1="40.3562" y2="39.3528" /><line stroke="rgb(0%,0%,0%)" x1="160.537" x2="159.0923" y1="39.3528" y2="38.3032" /><line stroke="rgb(0%,0%,0%)" x1="159.0923" x2="158.0" y1="38.3032" y2="37.5096" /><line stroke="rgb(0%,0%,0%)" x1="158.0" x2="156.3687" y1="37.5096" y2="36.7833" /><line stroke="rgb(0%,0%,0%)" x1="156.3687" x2="155.1353" y1="36.7833" y2="36.2342" /><line stroke="rgb(0%,0%,0%)" x1="155.1353" x2="153.3886" y1="36.2342" y2="35.8629" /><line stroke="rgb(0%,0%,0%)" x1="153.3886" x2="152.0679" y1="35.8629" y2="35.5822" /><line stroke="rgb(0%,0%,0%)" x1="152.0679" x2="150.2822" y1="35.5822" y2="35.5822" /><line stroke="rgb(0%,0%,0%)" x1="150.2822" x2="148.9321" y1="35.5822" y2="35.5822" /><line stroke="rgb(0%,0%,0%)" x1="148.9321" x2="147.1854" y1="35.5822" y2="35.9534" /><line stroke="rgb(0%,0%,0%)" x1="147.1854" x2="145.8647" y1="35.9534" y2="36.2342" /><line stroke="rgb(0%,0%,0%)" x1="145.8647" x2="144.2334" y1="36.2342" y2="36.9605" /><line stroke="rgb(0%,0%,0%)" x1="144.2334" x2="143.0" y1="36.9605" y2="37.5096" /><line stroke="rgb(0%,0%,0%)" x1="143.0" x2="141.5553" y1="37.5096" y2="38.5592" /><line stroke="rgb(0%,0%,0%)" x1="141.5553" x2="140.463" y1="38.5592" y2="39.3528" /><line stroke="rgb(0%,0%,0%)" x1="140.463" x2="139.2682" y1="39.3528" y2="40.6799" /><line stroke="rgb(0%,0%,0%)" x1="139.2682" x2="138.3647" y1="40.6799" y2="41.6832" /><line stroke="rgb(0%,0%,0%)" x1="138.3647" x2="137.4719" y1="41.6832" y2="43.2297" /><line stroke="rgb(0%,0%,0%)" x1="137.4719" x2="136.7968" y1="43.2297" y2="44.3989" /><line stroke="rgb(0%,0%,0%)" x1="136.7968" x2="136.245" y1="44.3989" y2="46.0973" /><line stroke="rgb(0%,0%,0%)" x1="136.245" x2="135.8278" y1="46.0973" y2="47.3813" /><line stroke="rgb(0%,0%,0%)" x1="35.8278" x2="35.6411" y1="47.3813" y2="49.1572" /><line stroke="rgb(0%,0%,0%)" x1="35.6411" x2="35.5" y1="49.1572" y2="50.5" /><line stroke="rgb(0%,0%,0%)" x1="35.5" x2="35.6867" y1="50.5" y2="52.2759" /><line stroke="rgb(0%,0%,0%)" x1="35.6867" x2="35.8278" y1="52.2759" y2="53.6187" /><line stroke="rgb(0%,0%,0%)" x1="35.8278" x2="36.3796" y1="53.6187" y2="55.317" /><line stroke="rgb(0%,0%,0%)" x1="36.3796" x2="36.7968" y1="55.317" y2="56.6011" /><line stroke="rgb(0%,0%,0%)" x1="36.7968" x2="37.6897" y1="56.6011" y2="58.1475" /><line stroke="rgb(0%,0%,0%)" x1="37.6897" x2="38.3647" y1="58.1475" y2="59.3168" /><line stroke="rgb(0%,0%,0%)" x1="38.3647" x2="39.5596" y1="59.3168" y2="60.6438" /><line stroke="rgb(0%,0%,0%)" x1="39.5596" x2="40.463" y1="60.6438" y2="61.6472" /><line stroke="rgb(0%,0%,0%)" x1="40.463" x2="41.9077" y1="61.6472" y2="62.6968" /><line stroke="rgb(0%,0%,0%)" x1="41.9077" x2="43.0" y1="62.6968" y2="63.4904" /><line stroke="rgb(0%,0%,0%)" x1="43.0" x2="44.6313" y1="63.4904" y2="64.2167" /><line stroke="rgb(0%,0%,0%)" x1="44.6313" x2="45.8647" y1="64.2167" y2="64.7658" /><line stroke="rgb(0%,0%,0%)" x1="45.8647" x2="47.6114" y1="64.7658" y2="65.1371" /><line stroke="rgb(0%,0%,0%)" x1="47.6114" x2="48.9321" y1="65.1371" y2="65.4178" /><line stroke="rgb(0%,0%,0%)" x1="48.9321" x2="50.7178" y1="65.4178" y2="65.4178" /><line stroke="rgb(0%,0%,0%)" x1="50.7178" x2="52.0679" y1="65.4178" y2="65.4178" /><line stroke="rgb(0%,0%,0%)" x1="52.0679" x2="53.8146" y1="65.4178" y2="65.0466" /><line stroke="rgb(0%,0%,0%)" x1="53.8146" x2="55.1353" y1="65.0466" y2="64.7658" /><line stroke="rgb(0%,0%,0%)" x1="55.1353" x2="56.7666" y1="64.7658" y2="64.0395" /><line stroke="rgb(0%,0%,0%)" x1="56.7666" x2="58.0" y1="64.0395" y2="63.4904" /><line stroke="rgb(0%,0%,0%)" x1="58.0" x2="59.4447" y1="63.4904" y2="62.4408" /><line stroke="rgb(0%,0%,0%)" x1="59.4447" x2="60.537" y1="62.4408" y2="61.6472" /><line stroke="rgb(0%,0%,0%)" x1="60.537" x2="61.7318" y1="61.6472" y2="60.3201" /><line stroke="rgb(0%,0%,0%)" x1="61.7318" x2="62.6352" y1="60.3201" y2="59.3168" /><line stroke="rgb(0%,0%,0%)" x1="62.6352" x2="63.5281" y1="59.3168" y2="57.7703" /><line stroke="rgb(0%,0%,0%)" x1="63.5281" x2="64.2032" y1="57.7703" y2="56.6011" /><line stroke="rgb(0%,0%,0%)" x1="64.2032" x2="64.755" y1="56.6011" y2="54.9027" /><line stroke="rgb(0%,0%,0%)" x1="64.755" x2="65.1722" y1="54.9027" y2="53.6187" /><line stroke="rgb(0%,0%,0%)" x1="65.1722" x2="65.3589" y1="53.6187" y2="51.8428" /><line stroke="rgb(0%,0%,0%)" x1="65.3589" x2="65.5" y1="51.8428" y2="50.5" /><line stroke="rgb(0%,0%,0%)" x1="65.5" x2="65.3133" y1="50.5" y2="48.7241" /><line stroke="rgb(0%,0%,0%)" x1="65.3133" x2="65.1722" y1="48.7241" y2="47.3813" /><line stroke="rgb(0%,0%,0%)" x1="65.1722" x2="64.6204" y1="47.3813" y2="45.683" /><line stroke="rgb(0%,0%,0%)" x1="64.6204" x2="64.2032" y1="45.683" y2="44.3989" /><line stroke="rgb(0%,0%,0%)" x1="64.2032" x2="63.3103" y1="44.3989" y2="42.8525" /><line stroke="rgb(0%,0%,0%)" x1="63.3103" x2="62.6352" y1="42.8525" y2="41.6832" /><line stroke="rgb(0%,0%,0%)" x1="62.6352" x2="61.4404" y1="41.6832" y2="40.3562" /><line stroke="rgb(0%,0%,0%)" x1="61.4404" x2="60.537" y1="40.3562" y2="39.3528" /><line stroke="rgb(0%,0%,0%)" x1="60.537" x2="59.0923" y1="39.3528" y2="38.3032" /><line stroke="rgb(0%,0%,0%)" x1="59.0923" x2="58.0" y1="38.3032" y2="37.5096" /><line stroke="rgb(0%,0%,0%)" x1="58.0" x2="56.3687" y1="37.5096" y2="36.7833" /><line stroke="rgb(0%,0%,0%)" x1="56.3687" x2="55.1353" y1="36.7833" y2="36.2342" /><line stroke="rgb(0%,0%,0%)" x1="55.1353" x2="53.3886" y1="36.2342" y2="35.8629" /><line stroke="rgb(0%,0%,0%)" x1="53.3886" x2="52.0679" y1="35.8629" y2="35.5822" /><line stroke="rgb(0%,0%,0%)" x1="52.0679" x2="50.2822" y1="35.5822" y2="35.5822" /><line stroke="rgb(0%,0%,0%)" x1="50.2822" x2="48.9321" y1="35.5822" y2="35.5822" /><line stroke="rgb(0%,0%,0%)" x1="48.9321" x2="47.1854" y1="35.5822" y2="35.9534" /><line stroke="rgb(0%,0%,0%)" x1="47.1854" x2="45.8647" y1="35.9534" y2="36.2342" /><line stroke="rgb(0%,0%,0%)" x1="45.8647" x2="44.2334" y1="36.2342" y2="36.9605" /><line stroke="rgb(0%,0%,0%)" x1="44.2334" x2="43.0" y1="36.9605" y2="37.5096" /><line stroke="rgb(0%,0%,0%)" x1="43.0" x2="41.5553" y1="37.5096" y2="38.5592" /><line stroke="rgb(0%,0%,0%)" x1="41.5553" x2="40.463" y1="38.5592" y2="39.3528" /><line stroke="rgb(0%,0%,0%)" x1="40.463" x2="39.2682" y1="39.3528" y2="40.6799" /><line stroke="rgb(0%,0%,0%)" x1="39.2682" x2="38.3647" y1="40.6799" y2="41.6832" /><line stroke="rgb(0%,0%,0%)" x1="38.3647" x2="37.4719" y1="41.6832" y2="43.2297" /><line stroke="rgb(0%,0%,0%)" x1="37.4719" x2="36.7968" y1="43.2297" y2="44.3989" /><line stroke="rgb(0%,0%,0%)" x1="36.7968" x2="36.245" y1="44.3989" y2="46.0973" /><line stroke="rgb(0%,0%,0%)" x1="36.245" x2="35.8278" y1="46.0973" y2="47.3813" /></svg>