<?xml version="1.0" encoding="utf-8" ?>
<svg baseProfile="tiny" height="100%" version="1.2" width="100%" xmlns="http://www.w3.org/2000/svg" xmlns:ev="http://www.w3.org/2001/xml-events" xmlns:xlink="http://www.w3.org/1999/xlink"><defs /><line stroke="rgb(0%,0%,0%)" x1="351.9" x2="351.9" y1="0.5" y2="6.9803" /><line stroke="rgb(0%,0%,0%)" x1="351.9" x2="351.9" y1="6.9803" y2="100.5" /><line stroke="rgb(0%,0%,0%)" x1="340.6459" x2="349.5178" y1="100.5" y2="100.5" /><line stroke="rgb(0%,0%,0%)" x1="349.5178" x2="349.8272" y1="100.5" y2="100.5" /><line stroke="rgb(0%,0%,0%)" x1="349.8272" x2="350.1807" y1="100.5" y2="100.5" /><line stroke="rgb(0%,0%,0%)" x1="350.1807" x2="350.573" y1="100.5" y2="100.5" /><line stroke="rgb(0%,0%,0%)" x1="350.573" x2="350.9967" y1="100.5" y2="100.5" /><line stroke="rgb(0%,0%,0%)" x1="350.9967" x2="351.4426" y1="100.5" y2="100.5" /><line stroke="rgb(0%,0%,0%)" x1="351.4426" x2="351.9" y1="100.5" y2="100.5" /><line stroke="rgb(0%,0%,0%)" x1="340.6459" x2="15.5916" y1="100.5" y2="100.5" /><line stroke="rgb(0%,0%,0%)" x1="15.5916" x2="0.5" y1="100.5" y2="100.5" /><line stroke="rgb(0%,0%,0%)" x1="0.5" x2="15.5916" y1="0.5" y2="0.5" /><line stroke="rgb(0%,0%,0%)" x1="15.5916" x2="340.6459" y1="0.5" y2="0.5" /><line stroke="rgb(0%,0%,0%)" x1="340.6459" x2="349.5178" y1="0.5" y2="0.5" /><line stroke="rgb(0%,0%,0%)" x1="349.5178" x2="349.8272" y1="0.5" y2="0.5" /><line stroke="rgb(0%,0%,0%)" x1="349.8272" x2="350.1807" y1="0.5" y2="0.5" /><line stroke="rgb(0%,0%,0%)" x1="350.1807" x2="350.573" y1="0.5" y2="0.5" /><line stroke="rgb(0%,0%,0%)" x1="350.573" x2="350.9967" y1="0.5" y2="0.5" /><line stroke="rgb(0%,0%,0%)" x1="350.9967" x2="351.4426" y1="0.5" y2="0.5" /><line stroke="rgb(0%,0%,0%)" x1="351.4426" x2="351.9" y1="0.5" y2="0.5" /><line stroke="rgb(0%,0%,0%)" x1="0.5" x2="0.5" y1="0.5" y2="93.0026" /><line stroke="rgb(0%,0%,0%)" x1="0.5" x2="0.5" y1="93.0026" y2="100.5" /><line stroke="rgb(0%,0%,0%)" x1="165.1722" x2="165.4508" y1="47.3813" y2="50.0324" /><line stroke="rgb(0%,0%,0%)" x1="165.4508" x2="165.5" y1="50.0324" y2="50.5" /><line stroke="rgb(0%,0%,0%)" x1="165.5" x2="165.2214" y1="50.5" y2="53.151" /><line stroke="rgb(0%,0%,0%)" x1="165.2214" x2="165.1722" y1="53.151" y2="53.6187" /><line stroke="rgb(0%,0%,0%)" x1="165.1722" x2="164.3485" y1="53.6187" y2="56.1539" /><line stroke="rgb(0%,0%,0%)" x1="164.3485" x2="164.2032" y1="56.1539" y2="56.6011" /><line stroke="rgb(0%,0%,0%)" x1="164.2032" x2="162.8704" y1="56.6011" y2="58.9096" /><line stroke="rgb(0%,0%,0%)" x1="162.8704" x2="162.6353" y1="58.9096" y2="59.3168" /><line stroke="rgb(0%,0%,0%)" x1="162.6353" x2="160.8516" y1="59.3168" y2="61.2977" /><line stroke="rgb(0%,0%,0%)" x1="160.8516" x2="160.537" y1="61.2977" y2="61.6472" /><line stroke="rgb(0%,0%,0%)" x1="160.537" x2="158.3804" y1="61.6472" y2="63.214" /><line stroke="rgb(0%,0%,0%)" x1="158.3804" x2="158.0" y1="63.214" y2="63.4904" /><line stroke="rgb(0%,0%,0%)" x1="158.0" x2="155.5648" y1="63.4904" y2="64.5746" /><line stroke="rgb(0%,0%,0%)" x1="155.5648" x2="155.1353" y1="64.5746" y2="64.7658" /><line stroke="rgb(0%,0%,0%)" x1="155.1353" x2="152.5279" y1="64.7658" y2="65.3201" /><line stroke="rgb(0%,0%,0%)" x1="152.5279" x2="152.0679" y1="65.3201" y2="65.4178" /><line stroke="rgb(0%,0%,0%)" x1="152.0679" x2="149.4023" y1="65.4178" y2="65.4178" /><line stroke="rgb(0%,0%,0%)" x1="149.4023" x2="148.9321" y1="65.4178" y2="65.4178" /><line stroke="rgb(0%,0%,0%)" x1="148.9321" x2="146.3247" y1="65.4178" y2="64.8636" /><line stroke="rgb(0%,0%,0%)" x1="146.3247" x2="145.8647" y1="64.8636" y2="64.7658" /><line stroke="rgb(0%,0%,0%)" x1="145.8647" x2="143.4296" y1="64.7658" y2="63.6816" /><line stroke="rgb(0%,0%,0%)" x1="143.4296" x2="143.0" y1="63.6816" y2="63.4904" /><line stroke="rgb(0%,0%,0%)" x1="143.0" x2="140.8434" y1="63.4904" y2="61.9236" /><line stroke="rgb(0%,0%,0%)" x1="140.8434" x2="140.463" y1="61.9236" y2="61.6472" /><line stroke="rgb(0%,0%,0%)" x1="140.463" x2="138.6794" y1="61.6472" y2="59.6662" /><line stroke="rgb(0%,0%,0%)" x1="138.6794" x2="138.3647" y1="59.6662" y2="59.3168" /><line stroke="rgb(0%,0%,0%)" x1="138.3647" x2="137.0319" y1="59.3168" y2="57.0083" /><line stroke="rgb(0%,0%,0%)" x1="137.0319" x2="136.7968" y1="57.0083" y2="56.6011" /><line stroke="rgb(0%,0%,0%)" x1="136.7968" x2="135.9731" y1="56.6011" y2="54.0659" /><line stroke="rgb(0%,0%,0%)" x1="135.9731" x2="135.8278" y1="54.0659" y2="53.6187" /><line stroke="rgb(0%,0%,0%)" x1="135.8278" x2="135.5492" y1="53.6187" y2="50.9676" /><line stroke="rgb(0%,0%,0%)" x1="135.5492" x2="135.5" y1="50.9676" y2="50.5" /><line stroke="rgb(0%,0%,0%)" x1="135.5" x2="135.7786" y1="50.5" y2="47.849" /><line stroke="rgb(0%,0%,0%)" x1="135.7786" x2="135.8278" y1="47.849" y2="47.3813" /><line stroke="rgb(0%,0%,0%)" x1="135.8278" x2="136.6515" y1="47.3813" y2="44.8461" /><line stroke="rgb(0%,0%,0%)" x1="136.6515" x2="136.7968" y1="44.8461" y2="44.3989" /><line stroke="rgb(0%,0%,0%)" x1="136.7968" x2="138.1296" y1="44.3989" y2="42.0904" /><line stroke="rgb(0%,0%,0%)" x1="138.1296" x2="138.3647" y1="42.0904" y2="41.6832" /><line stroke="rgb(0%,0%,0%)" x1="138.3647" x2="140.1484" y1="41.6832" y2="39.7023" /><line stroke="rgb(0%,0%,0%)" x1="140.1484" x2="140.463" y1="39.7023" y2="39.3528" /><line stroke="rgb(0%,0%,0%)" x1="140.463" x2="142.6196" y1="39.3528" y2="37.786" /><line stroke="rgb(0%,0%,0%)" x1="142.6196" x2="143.0" y1="37.786" y2="37.5096" /><line stroke="rgb(0%,0%,0%)" x1="143.0" x2="145.4352" y1="37.5096" y2="36.4254" /><line stroke="rgb(0%,0%,0%)" x1="145.4352" x2="145.8647" y1="36.4254" y2="36.2342" /><line stroke="rgb(0%,0%,0%)" x1="145.8647" x2="148.4721" y1="36.2342" y2="35.6799" /><line stroke="rgb(0%,0%,0%)" x1="148.4721" x2="148.9321" y1="35.6799" y2="35.5822" /><line stroke="rgb(0%,0%,0%)" x1="148.9321" x2="151.5977" y1="35.5822" y2="35.5822" /><line stroke="rgb(0%,0%,0%)" x1="151.5977" x2="152.0679" y1="35.5822" y2="35.5822" /><line stroke="rgb(0%,0%,0%)" x1="152.0679" x2="154.6753" y1="35.5822" y2="36.1364" /><line stroke="rgb(0%,0%,0%)" x1="154.6753" x2="155.1353" y1="36.1364" y2="36.2342" /><line stroke="rgb(0%,0%,0%)" x1="155.1353" x2="157.5704" y1="36.2342" y2="37.3184" /><line stroke="rgb(0%,0%,0%)" x1="157.5704" x2="158.0" y1="37.3184" y2="37.5096" /><line stroke="rgb(0%,0%,0%)" x1="158.0" x2="160.1565" y1="37.5096" y2="39.0764" /><line stroke="rgb(0%,0%,0%)" x1="160.1565" x2="160.537" y1="39.0764" y2="39.3528" /><line stroke="rgb(0%,0%,0%)" x1="160.537" x2="162.3206" y1="39.3528" y2="41.3338" /><line stroke="rgb(0%,0%,0%)" x1="162.3206" x2="162.6353" y1="41.3338" y2="41.6832" /><line stroke="rgb(0%,0%,0%)" x1="162.6353" x2="163.9681" y1="41.6832" y2="43.9917" /><line stroke="rgb(0%,0%,0%)" x1="163.9681" x2="164.2032" y1="43.9917" y2="44.3989" /><line stroke="rgb(0%,0%,0%)" x1="164.2032" x2="165.0269" y1="44.3989" y2="46.9341" /><line stroke="rgb(0%,0%,0%)" x1="165.0269" x2="165.1722" y1="46.9341" y2="47.3813" /><line stroke="rgb(0%,0%,0%)" x1="65.1722" x2="65.4508" y1="47.3813" y2="50.0324" /><line stroke="rgb(0%,0%,0%)" x1="65.4508" x2="65.5" y1="50.0324" y2="50.5" /><line stroke="rgb(0%,0%,0%)" x1="65.5" x2="65.2214" y1="50.5" y2="53.151" /><line stroke="rgb(0%,0%,0%)" x1="65.2214" x2="65.1722" y1="53.151" y2="53.6187" /><line stroke="rgb(0%,0%,0%)" x1="65.1722" x2="64.3485" y1="53.6187" y2="56.1539" /><line stroke="rgb(0%,0%,0%)" x1="64.3485" x2="64.2032" y1="56.1539" y2="56.6011" /><line stroke="rgb(0%,0%,0%)" x1="64.2032" x2="62.8704" y1="56.6011" y2="58.9096" /><line stroke="rgb(0%,0%,0%)" x1="62.8704" x2="62.6352" y1="58.9096" y2="59.3168" /><line stroke="rgb(0%,0%,0%)" x1="62.6352" x2="60.8516" y1="59.3168" y2="61.2977" /><line stroke="rgb(0%,0%,0%)" x1="60.8516" x2="60.537" y1="61.2977" y2="61.6472" /><line stroke="rgb(0%,0%,0%)" x1="60.537" x2="58.3804" y1="61.6472" y2="63.214" /><line stroke="rgb(0%,0%,0%)" x1="58.3804" x2="58.0" y1="63.214" y2="63.4904" /><line stroke="rgb(0%,0%,0%)" x1="58.0" x2="55.5648" y1="63.4904" y2="64.5746" /><line stroke="rgb(0%,0%,0%)" x1="55.5648" x2="55.1353" y1="64.5746" y2="64.7658" /><line stroke="rgb(0%,0%,0%)" x1="55.1353" x2="52.5279" y1="64.7658" y2="65.3201" /><line stroke="rgb(0%,0%,0%)" x1="52.5279" x2="52.0679" y1="65.3201" y2="65.4178" /><line stroke="rgb(0%,0%,0%)" x1="52.0679" x2="49.4023" y1="65.4178" y2="65.4178" /><line stroke="rgb(0%,0%,0%)" x1="49.4023" x2="48.9321" y1="65.4178" y2="65.4178" /><line stroke="rgb(0%,0%,0%)" x1="48.9321" x2="46.3247" y1="65.4178" y2="64.8636" /><line stroke="rgb(0%,0%,0%)" x1="46.3247" x2="45.8647" y1="64.8636" y2="64.7658" /><line stroke="rgb(0%,0%,0%)" x1="45.8647" x2="43.4296" y1="64.7658" y2="63.6816" /><line stroke="rgb(0%,0%,0%)" x1="43.4296" x2="43.0" y1="63.6816" y2="63.4904" /><line stroke="rgb(0%,0%,0%)" x1="43.0" x2="40.8434" y1="63.4904" y2="61.9236" /><line stroke="rgb(0%,0%,0%)" x1="40.8434" x2="40.463" y1="61.9236" y2="61.6472" /><line stroke="rgb(0%,0%,0%)" x1="40.463" x2="38.6794" y1="61.6472" y2="59.6662" /><line stroke="rgb(0%,0%,0%)" x1="38.6794" x2="38.3647" y1="59.6662" y2="59.3168" /><line stroke="rgb(0%,0%,0%)" x1="38.3647" x2="37.0319" y1="59.3168" y2="57.0083" /><line stroke="rgb(0%,0%,0%)" x1="37.0319" x2="36.7968" y1="57.0083" y2="56.6011" /><line stroke="rgb(0%,0%,0%)" x1="36.7968" x2="35.9731" y1="56.6011" y2="54.0659" /><line stroke="rgb(0%,0%,0%)" x1="35.9731" x2="35.8278" y1="54.0659" y2="53.6187" /><line stroke="rgb(0%,0%,0%)" x1="35.8278" x2="35.5491" y1="53.6187" y2="50.9676" /><line stroke="rgb(0%,0%,0%)" x1="35.5491" x2="35.5" y1="50.9676" y2="50.5" /><line stroke="rgb(0%,0%,0%)" x1="35.5" x2="35.7786" y1="50.5" y2="47.849" /><line stroke="rgb(0%,0%,0%)" x1="35.7786" x2="35.8278" y1="47.849" y2="47.3813" /><line stroke="rgb(0%,0%,0%)" x1="35.8278" x2="36.6515" y1="47.3813" y2="44.8461" /><line stroke="rgb(0%,0%,0%)" x1="36.6515" x2="36.7968" y1="44.8461" y2="44.3989" /><line stroke="rgb(0%,0%,0%)" x1="36.7968" x2="38.1296" y1="44.3989" y2="42.0904" /><line stroke="rgb(0%,0%,0%)" x1="38.1296" x2="38.3647" y1="42.0904" y2="41.6832" /><line stroke="rgb(0%,0%,0%)" x1="38.3647" x2="40.1484" y1="41.6832" y2="39.7023" /><line stroke="rgb(0%,0%,0%)" x1="40.1484" x2="40.463" y1="39.7023" y2="39.3528" /><line stroke="rgb(0%,0%,0%)" x1="40.463" x2="42.6196" y1="39.3528" y2="37.786" /><line stroke="rgb(0%,0%,0%)" x1="42.6196" x2="43.0" y1="37.786" y2="37.5096" /><line stroke="rgb(0%,0%,0%)" x1="43.0" x2="45.4352" y1="37.5096" y2="36.4254" /><line stroke="rgb(0%,0%,0%)" x1="45.4352" x2="45.8647" y1="36.4254" y2="36.2342" /><line stroke="rgb(0%,0%,0%)" x1="45.8647" x2="48.4721" y1="36.2342" y2="35.6799" /><line stroke="rgb(0%,0%,0%)" x1="48.4721" x2="48.9321" y1="35.6799" y2="35.5822" /><line stroke="rgb(0%,0%,0%)" x1="48.9321" x2="51.5977" y1="35.5822" y2="35.5822" /><line stroke="rgb(0%,0%,0%)" x1="51.5977" x2="52.0679" y1="35.5822" y2="35.5822" /><line stroke="rgb(0%,0%,0%)" x1="52.0679" x2="54.6753" y1="35.5822" y2="36.1364" /><line stroke="rgb(0%,0%,0%)" x1="54.6753" x2="55.1353" y1="36.1364" y2="36.2342" /><line stroke="rgb(0%,0%,0%)" x1="55.1353" x2="57.5704" y1="36.2342" y2="37.3184" /><line stroke="rgb(0%,0%,0%)" x1="57.5704" x2="58.0" y1="37.3184" y2="37.5096" /><line stroke="rgb(0%,0%,0%)" x1="58.0" x2="60.1566" y1="37.5096" y2="39.0764" /><line stroke="rgb(0%,0%,0%)" x1="60.1566" x2="60.537" y1="39.0764" y2="39.3528" /><line stroke="rgb(0%,0%,0%)" x1="60.537" x2="62.3206" y1="39.3528" y2="41.3338" /><line stroke="rgb(0%,0%,0%)" x1="62.3206" x2="62.6352" y1="41.3338" y2="41.6832" /><line stroke="rgb(0%,0%,0%)" x1="62.6352" x2="63.9681" y1="41.6832" y2="43.9917" /><line stroke="rgb(0%,0%,0%)" x1="63.9681" x2="64.2032" y1="43.9917" y2="44.3989" /><line stroke="rgb(0%,0%,0%)" x1="64.2032" x2="65.0269" y1="44.3989" y2="46.9341" /><line stroke="rgb(0%,0%,0%)" x1="65.0269" x2="65.1722" y1="46.9341" y2="47.3813" /></svg>