<?xml version="1.0" encoding="utf-8" ?>
<svg baseProfile="tiny" height="100%" version="1.2" width="100%" xmlns="http://www.w3.org/2000/svg" xmlns:ev="http://www.w3.org/2001/xml-events" xmlns:xlink="http://www.w3.org/1999/xlink"><defs /><line stroke="rgb(0%,0%,0%)" x1="351.9" x2="351.9" y1="0.5" y2="69.1913" /><line stroke="rgb(0%,0%,0%)" x1="351.9" x2="351.9" y1="69.1913" y2="100.5" /><line stroke="rgb(0%,0%,0%)" x1="232.6063" x2="326.6485" y1="100.5" y2="100.5" /><line stroke="rgb(0%,0%,0%)" x1="326.6485" x2="329.9283" y1="100.5" y2="100.5" /><line stroke="rgb(0%,0%,0%)" x1="329.9283" x2="333.6752" y1="100.5" y2="100.5" /><line stroke="rgb(0%,0%,0%)" x1="333.6752" x2="337.8336" y1="100.5" y2="100.5" /><line stroke="rgb(0%,0%,0%)" x1="337.8336" x2="342.3253" y1="100.5" y2="100.5" /><line stroke="rgb(0%,0%,0%)" x1="342.3253" x2="347.0519" y1="100.5" y2="100.5" /><line stroke="rgb(0%,0%,0%)" x1="347.0519" x2="351.9" y1="100.5" y2="100.5" /><line stroke="rgb(0%,0%,0%)" x1="232.6063" x2="160.4711" y1="100.5" y2="100.5" /><line stroke="rgb(0%,0%,0%)" x1="160.4711" x2="0.5" y1="100.5" y2="100.5" /><line stroke="rgb(0%,0%,0%)" x1="0.5" x2="160.4711" y1="0.5" y2="0.5" /><line stroke="rgb(0%,0%,0%)" x1="160.4711" x2="232.6063" y1="0.5" y2="0.5" /><line stroke="rgb(0%,0%,0%)" x1="232.6063" x2="326.6485" y1="0.5" y2="0.5" /><line stroke="rgb(0%,0%,0%)" x1="326.6485" x2="329.9283" y1="0.5" y2="0.5" /><line stroke="rgb(0%,0%,0%)" x1="329.9283" x2="333.6752" y1="0.5" y2="0.5" /><line stroke="rgb(0%,0%,0%)" x1="333.6752" x2="337.8336" y1="0.5" y2="0.5" /><line stroke="rgb(0%,0%,0%)" x1="337.8336" x2="342.3253" y1="0.5" y2="0.5" /><line stroke="rgb(0%,0%,0%)" x1="342.3253" x2="347.0519" y1="0.5" y2="0.5" /><line stroke="rgb(0%,0%,0%)" x1="347.0519" x2="351.9" y1="0.5" y2="0.5" /><line stroke="rgb(0%,0%,0%)" x1="0.5" x2="0.5" y1="0.5" y2="21.028" /><line stroke="rgb(0%,0%,0%)" x1="0.5" x2="0.5" y1="21.028" y2="100.5" /><line stroke="rgb(0%,0%,0%)" x1="135.8278" x2="135.6346" y1="47.3813" y2="49.2196" /><line stroke="rgb(0%,0%,0%)" x1="135.6346" x2="135.5" y1="49.2196" y2="50.5" /><line stroke="rgb(0%,0%,0%)" x1="135.5" x2="135.6932" y1="50.5" y2="52.3383" /><line stroke="rgb(0%,0%,0%)" x1="135.6932" x2="135.8278" y1="52.3383" y2="53.6187" /><line stroke="rgb(0%,0%,0%)" x1="135.8278" x2="136.399" y1="53.6187" y2="55.3766" /><line stroke="rgb(0%,0%,0%)" x1="136.399" x2="136.7968" y1="55.3766" y2="56.6011" /><line stroke="rgb(0%,0%,0%)" x1="136.7968" x2="137.721" y1="56.6011" y2="58.2018" /><line stroke="rgb(0%,0%,0%)" x1="137.721" x2="138.3647" y1="58.2018" y2="59.3168" /><line stroke="rgb(0%,0%,0%)" x1="138.3647" x2="139.6016" y1="59.3168" y2="60.6904" /><line stroke="rgb(0%,0%,0%)" x1="139.6016" x2="140.463" y1="60.6904" y2="61.6472" /><line stroke="rgb(0%,0%,0%)" x1="140.463" x2="141.9584" y1="61.6472" y2="62.7336" /><line stroke="rgb(0%,0%,0%)" x1="141.9584" x2="143.0" y1="62.7336" y2="63.4904" /><line stroke="rgb(0%,0%,0%)" x1="143.0" x2="144.6886" y1="63.4904" y2="64.2422" /><line stroke="rgb(0%,0%,0%)" x1="144.6886" x2="145.8647" y1="64.2422" y2="64.7658" /><line stroke="rgb(0%,0%,0%)" x1="145.8647" x2="147.6727" y1="64.7658" y2="65.1502" /><line stroke="rgb(0%,0%,0%)" x1="147.6727" x2="148.9321" y1="65.1502" y2="65.4178" /><line stroke="rgb(0%,0%,0%)" x1="148.9321" x2="150.7805" y1="65.4178" y2="65.4178" /><line stroke="rgb(0%,0%,0%)" x1="150.7805" x2="152.0679" y1="65.4178" y2="65.4178" /><line stroke="rgb(0%,0%,0%)" x1="152.0679" x2="153.8759" y1="65.4178" y2="65.0335" /><line stroke="rgb(0%,0%,0%)" x1="153.8759" x2="155.1353" y1="65.0335" y2="64.7658" /><line stroke="rgb(0%,0%,0%)" x1="155.1353" x2="156.8238" y1="64.7658" y2="64.014" /><line stroke="rgb(0%,0%,0%)" x1="156.8238" x2="158.0" y1="64.014" y2="63.4904" /><line stroke="rgb(0%,0%,0%)" x1="158.0" x2="159.4954" y1="63.4904" y2="62.4039" /><line stroke="rgb(0%,0%,0%)" x1="159.4954" x2="160.537" y1="62.4039" y2="61.6472" /><line stroke="rgb(0%,0%,0%)" x1="160.537" x2="161.7738" y1="61.6472" y2="60.2735" /><line stroke="rgb(0%,0%,0%)" x1="161.7738" x2="162.6353" y1="60.2735" y2="59.3168" /><line stroke="rgb(0%,0%,0%)" x1="162.6353" x2="163.5595" y1="59.3168" y2="57.716" /><line stroke="rgb(0%,0%,0%)" x1="163.5595" x2="164.2032" y1="57.716" y2="56.6011" /><line stroke="rgb(0%,0%,0%)" x1="164.2032" x2="164.7744" y1="56.6011" y2="54.8431" /><line stroke="rgb(0%,0%,0%)" x1="164.7744" x2="165.1722" y1="54.8431" y2="53.6187" /><line stroke="rgb(0%,0%,0%)" x1="165.1722" x2="165.3654" y1="53.6187" y2="51.7804" /><line stroke="rgb(0%,0%,0%)" x1="165.3654" x2="165.5" y1="51.7804" y2="50.5" /><line stroke="rgb(0%,0%,0%)" x1="165.5" x2="165.3068" y1="50.5" y2="48.6617" /><line stroke="rgb(0%,0%,0%)" x1="165.3068" x2="165.1722" y1="48.6617" y2="47.3813" /><line stroke="rgb(0%,0%,0%)" x1="165.1722" x2="164.601" y1="47.3813" y2="45.6234" /><line stroke="rgb(0%,0%,0%)" x1="164.601" x2="164.2032" y1="45.6234" y2="44.3989" /><line stroke="rgb(0%,0%,0%)" x1="164.2032" x2="163.279" y1="44.3989" y2="42.7982" /><line stroke="rgb(0%,0%,0%)" x1="163.279" x2="162.6353" y1="42.7982" y2="41.6832" /><line stroke="rgb(0%,0%,0%)" x1="162.6353" x2="161.3984" y1="41.6832" y2="40.3096" /><line stroke="rgb(0%,0%,0%)" x1="161.3984" x2="160.537" y1="40.3096" y2="39.3528" /><line stroke="rgb(0%,0%,0%)" x1="160.537" x2="159.0416" y1="39.3528" y2="38.2664" /><line stroke="rgb(0%,0%,0%)" x1="159.0416" x2="158.0" y1="38.2664" y2="37.5096" /><line stroke="rgb(0%,0%,0%)" x1="158.0" x2="156.3114" y1="37.5096" y2="36.7578" /><line stroke="rgb(0%,0%,0%)" x1="156.3114" x2="155.1353" y1="36.7578" y2="36.2342" /><line stroke="rgb(0%,0%,0%)" x1="155.1353" x2="153.3272" y1="36.2342" y2="35.8498" /><line stroke="rgb(0%,0%,0%)" x1="153.3272" x2="152.0679" y1="35.8498" y2="35.5822" /><line stroke="rgb(0%,0%,0%)" x1="152.0679" x2="150.2195" y1="35.5822" y2="35.5822" /><line stroke="rgb(0%,0%,0%)" x1="150.2195" x2="148.9321" y1="35.5822" y2="35.5822" /><line stroke="rgb(0%,0%,0%)" x1="148.9321" x2="147.1241" y1="35.5822" y2="35.9665" /><line stroke="rgb(0%,0%,0%)" x1="147.1241" x2="145.8647" y1="35.9665" y2="36.2342" /><line stroke="rgb(0%,0%,0%)" x1="145.8647" x2="144.1761" y1="36.2342" y2="36.986" /><line stroke="rgb(0%,0%,0%)" x1="144.1761" x2="143.0" y1="36.986" y2="37.5096" /><line stroke="rgb(0%,0%,0%)" x1="143.0" x2="141.5046" y1="37.5096" y2="38.5961" /><line stroke="rgb(0%,0%,0%)" x1="141.5046" x2="140.463" y1="38.5961" y2="39.3528" /><line stroke="rgb(0%,0%,0%)" x1="140.463" x2="139.2262" y1="39.3528" y2="40.7265" /><line stroke="rgb(0%,0%,0%)" x1="139.2262" x2="138.3647" y1="40.7265" y2="41.6832" /><line stroke="rgb(0%,0%,0%)" x1="138.3647" x2="137.4405" y1="41.6832" y2="43.284" /><line stroke="rgb(0%,0%,0%)" x1="137.4405" x2="136.7968" y1="43.284" y2="44.3989" /><line stroke="rgb(0%,0%,0%)" x1="136.7968" x2="136.2256" y1="44.3989" y2="46.1569" /><line stroke="rgb(0%,0%,0%)" x1="136.2256" x2="135.8278" y1="46.1569" y2="47.3813" /><line stroke="rgb(0%,0%,0%)" x1="35.8278" x2="35.6346" y1="47.3813" y2="49.2196" /><line stroke="rgb(0%,0%,0%)" x1="35.6346" x2="35.5" y1="49.2196" y2="50.5" /><line stroke="rgb(0%,0%,0%)" x1="35.5" x2="35.6932" y1="50.5" y2="52.3383" /><line stroke="rgb(0%,0%,0%)" x1="35.6932" x2="35.8278" y1="52.3383" y2="53.6187" /><line stroke="rgb(0%,0%,0%)" x1="35.8278" x2="36.399" y1="53.6187" y2="55.3766" /><line stroke="rgb(0%,0%,0%)" x1="36.399" x2="36.7968" y1="55.3766" y2="56.6011" /><line stroke="rgb(0%,0%,0%)" x1="36.7968" x2="37.721" y1="56.6011" y2="58.2018" /><line stroke="rgb(0%,0%,0%)" x1="37.721" x2="38.3647" y1="58.2018" y2="59.3168" /><line stroke="rgb(0%,0%,0%)" x1="38.3647" x2="39.6016" y1="59.3168" y2="60.6904" /><line stroke="rgb(0%,0%,0%)" x1="39.6016" x2="40.463" y1="60.6904" y2="61.6472" /><line stroke="rgb(0%,0%,0%)" x1="40.463" x2="41.9584" y1="61.6472" y2="62.7336" /><line stroke="rgb(0%,0%,0%)" x1="41.9584" x2="43.0" y1="62.7336" y2="63.4904" /><line stroke="rgb(0%,0%,0%)" x1="43.0" x2="44.6886" y1="63.4904" y2="64.2422" /><line stroke="rgb(0%,0%,0%)" x1="44.6886" x2="45.8647" y1="64.2422" y2="64.7658" /><line stroke="rgb(0%,0%,0%)" x1="45.8647" x2="47.6727" y1="64.7658" y2="65.1502" /><line stroke="rgb(0%,0%,0%)" x1="47.6727" x2="48.9321" y1="65.1502" y2="65.4178" /><line stroke="rgb(0%,0%,0%)" x1="48.9321" x2="50.7805" y1="65.4178" y2="65.4178" /><line stroke="rgb(0%,0%,0%)" x1="50.7805" x2="52.0679" y1="65.4178" y2="65.4178" /><line stroke="rgb(0%,0%,0%)" x1="52.0679" x2="53.8759" y1="65.4178" y2="65.0335" /><line stroke="rgb(0%,0%,0%)" x1="53.8759" x2="55.1353" y1="65.0335" y2="64.7658" /><line stroke="rgb(0%,0%,0%)" x1="55.1353" x2="56.8239" y1="64.7658" y2="64.014" /><line stroke="rgb(0%,0%,0%)" x1="56.8239" x2="58.0" y1="64.014" y2="63.4904" /><line stroke="rgb(0%,0%,0%)" x1="58.0" x2="59.4954" y1="63.4904" y2="62.4039" /><line stroke="rgb(0%,0%,0%)" x1="59.4954" x2="60.537" y1="62.4039" y2="61.6472" /><line stroke="rgb(0%,0%,0%)" x1="60.537" x2="61.7738" y1="61.6472" y2="60.2735" /><line stroke="rgb(0%,0%,0%)" x1="61.7738" x2="62.6352" y1="60.2735" y2="59.3168" /><line stroke="rgb(0%,0%,0%)" x1="62.6352" x2="63.5594" y1="59.3168" y2="57.716" /><line stroke="rgb(0%,0%,0%)" x1="63.5594" x2="64.2032" y1="57.716" y2="56.6011" /><line stroke="rgb(0%,0%,0%)" x1="64.2032" x2="64.7744" y1="56.6011" y2="54.8431" /><line stroke="rgb(0%,0%,0%)" x1="64.7744" x2="65.1722" y1="54.8431" y2="53.6187" /><line stroke="rgb(0%,0%,0%)" x1="65.1722" x2="65.3654" y1="53.6187" y2="51.7804" /><line stroke="rgb(0%,0%,0%)" x1="65.3654" x2="65.5" y1="51.7804" y2="50.5" /><line stroke="rgb(0%,0%,0%)" x1="65.5" x2="65.3068" y1="50.5" y2="48.6617" /><line stroke="rgb(0%,0%,0%)" x1="65.3068" x2="65.1722" y1="48.6617" y2="47.3813" /><line stroke="rgb(0%,0%,0%)" x1="65.1722" x2="64.601" y1="47.3813" y2="45.6234" /><line stroke="rgb(0%,0%,0%)" x1="64.601" x2="64.2032" y1="45.6234" y2="44.3989" /><line stroke="rgb(0%,0%,0%)" x1="64.2032" x2="63.279" y1="44.3989" y2="42.7982" /><line stroke="rgb(0%,0%,0%)" x1="63.279" x2="62.6352" y1="42.7982" y2="41.6832" /><line stroke="rgb(0%,0%,0%)" x1="62.6352" x2="61.3984" y1="41.6832" y2="40.3096" /><line stroke="rgb(0%,0%,0%)" x1="61.3984" x2="60.537" y1="40.3096" y2="39.3528" /><line stroke="rgb(0%,0%,0%)" x1="60.537" x2="59.0416" y1="39.3528" y2="38.2664" /><line stroke="rgb(0%,0%,0%)" x1="59.0416" x2="58.0" y1="38.2664" y2="37.5096" /><line stroke="rgb(0%,0%,0%)" x1="58.0" x2="56.3114" y1="37.5096" y2="36.7578" /><line stroke="rgb(0%,0%,0%)" x1="56.3114" x2="55.1353" y1="36.7578" y2="36.2342" /><line stroke="rgb(0%,0%,0%)" x1="55.1353" x2="53.3272" y1="36.2342" y2="35.8498" /><line stroke="rgb(0%,0%,0%)" x1="53.3272" x2="52.0679" y1="35.8498" y2="35.5822" /><line stroke="rgb(0%,0%,0%)" x1="52.0679" x2="50.2195" y1="35.5822" y2="35.5822" /><line stroke="rgb(0%,0%,0%)" x1="50.2195" x2="48.9321" y1="35.5822" y2="35.5822" /><line stroke="rgb(0%,0%,0%)" x1="48.9321" x2="47.1241" y1="35.5822" y2="35.9665" /><line stroke="rgb(0%,0%,0%)" x1="47.1241" x2="45.8647" y1="35.9665" y2="36.2342" /><line stroke="rgb(0%,0%,0%)" x1="45.8647" x2="44.1761" y1="36.2342" y2="36.986" /><line stroke="rgb(0%,0%,0%)" x1="44.1761" x2="43.0" y1="36.986" y2="37.5096" /><line stroke="rgb(0%,0%,0%)" x1="43.0" x2="41.5046" y1="37.5096" y2="38.5961" /><line stroke="rgb(0%,0%,0%)" x1="41.5046" x2="40.463" y1="38.5961" y2="39.3528" /><line stroke="rgb(0%,0%,0%)" x1="40.463" x2="39.2262" y1="39.3528" y2="40.7265" /><line stroke="rgb(0%,0%,0%)" x1="39.2262" x2="38.3647" y1="40.7265" y2="41.6832" /><line stroke="rgb(0%,0%,0%)" x1="38.3647" x2="37.4405" y1="41.6832" y2="43.284" /><line stroke="rgb(0%,0%,0%)" x1="37.4405" x2="36.7968" y1="43.284" y2="44.3989" /><line stroke="rgb(0%,0%,0%)" x1="36.7968" x2="36.2256" y1="44.3989" y2="46.1569" /><line stroke="rgb(0%,0%,0%)" x1="36.2256" x2="35.8278" y1="46.1569" y2="47.3813" /></svg>