<?xml version="1.0" encoding="utf-8" ?>
<svg baseProfile="tiny" height="100%" version="1.2" width="100%" xmlns="http://www.w3.org/2000/svg" xmlns:ev="http://www.w3.org/2001/xml-events" xmlns:xlink="http://www.w3.org/1999/xlink"><defs /><line stroke="rgb(0%,0%,0%)" x1="351.9" x2="351.9" y1="0.5" y2="70.0553" /><line stroke="rgb(0%,0%,0%)" x1="351.9" x2="351.9" y1="70.0553" y2="100.5" /><line stroke="rgb(0%,0%,0%)" x1="231.1058" x2="326.3309" y1="100.5" y2="100.5" /><line stroke="rgb(0%,0%,0%)" x1="326.3309" x2="329.6519" y1="100.5" y2="100.5" /><line stroke="rgb(0%,0%,0%)" x1="329.6519" x2="333.4459" y1="100.5" y2="100.5" /><line stroke="rgb(0%,0%,0%)" x1="333.4459" x2="337.6567" y1="100.5" y2="100.5" /><line stroke="rgb(0%,0%,0%)" x1="337.6567" x2="342.2049" y1="100.5" y2="100.5" /><line stroke="rgb(0%,0%,0%)" x1="342.2049" x2="346.9909" y1="100.5" y2="100.5" /><line stroke="rgb(0%,0%,0%)" x1="346.9909" x2="351.9" y1="100.5" y2="100.5" /><line stroke="rgb(0%,0%,0%)" x1="231.1058" x2="162.4833" y1="100.5" y2="100.5" /><line stroke="rgb(0%,0%,0%)" x1="162.4833" x2="0.5" y1="100.5" y2="100.5" /><line stroke="rgb(0%,0%,0%)" x1="0.5" x2="162.4833" y1="0.5" y2="0.5" /><line stroke="rgb(0%,0%,0%)" x1="162.4833" x2="231.1058" y1="0.5" y2="0.5" /><line stroke="rgb(0%,0%,0%)" x1="231.1058" x2="326.3309" y1="0.5" y2="0.5" /><line stroke="rgb(0%,0%,0%)" x1="326.3309" x2="329.6519" y1="0.5" y2="0.5" /><line stroke="rgb(0%,0%,0%)" x1="329.6519" x2="333.4459" y1="0.5" y2="0.5" /><line stroke="rgb(0%,0%,0%)" x1="333.4459" x2="337.6567" y1="0.5" y2="0.5" /><line stroke="rgb(0%,0%,0%)" x1="337.6567" x2="342.2049" y1="0.5" y2="0.5" /><line stroke="rgb(0%,0%,0%)" x1="342.2049" x2="346.9909" y1="0.5" y2="0.5" /><line stroke="rgb(0%,0%,0%)" x1="346.9909" x2="351.9" y1="0.5" y2="0.5" /><line stroke="rgb(0%,0%,0%)" x1="0.5" x2="0.5" y1="0.5" y2="20.0283" /><line stroke="rgb(0%,0%,0%)" x1="0.5" x2="0.5" y1="20.0283" y2="100.5" /><line stroke="rgb(0%,0%,0%)" x1="135.8278" x2="135.628" y1="47.3813" y2="49.2819" /><line stroke="rgb(0%,0%,0%)" x1="135.628" x2="135.5" y1="49.2819" y2="50.5" /><line stroke="rgb(0%,0%,0%)" x1="135.5" x2="135.6998" y1="50.5" y2="52.4006" /><line stroke="rgb(0%,0%,0%)" x1="135.6998" x2="135.8278" y1="52.4006" y2="53.6187" /><line stroke="rgb(0%,0%,0%)" x1="135.8278" x2="136.4183" y1="53.6187" y2="55.4362" /><line stroke="rgb(0%,0%,0%)" x1="136.4183" x2="136.7968" y1="55.4362" y2="56.6011" /><line stroke="rgb(0%,0%,0%)" x1="136.7968" x2="137.7524" y1="56.6011" y2="58.2561" /><line stroke="rgb(0%,0%,0%)" x1="137.7524" x2="138.3647" y1="58.2561" y2="59.3168" /><line stroke="rgb(0%,0%,0%)" x1="138.3647" x2="139.6435" y1="59.3168" y2="60.737" /><line stroke="rgb(0%,0%,0%)" x1="139.6435" x2="140.463" y1="60.737" y2="61.6472" /><line stroke="rgb(0%,0%,0%)" x1="140.463" x2="142.0091" y1="61.6472" y2="62.7705" /><line stroke="rgb(0%,0%,0%)" x1="142.0091" x2="143.0" y1="62.7705" y2="63.4904" /><line stroke="rgb(0%,0%,0%)" x1="143.0" x2="144.7459" y1="63.4904" y2="64.2677" /><line stroke="rgb(0%,0%,0%)" x1="144.7459" x2="145.8647" y1="64.2677" y2="64.7658" /><line stroke="rgb(0%,0%,0%)" x1="145.8647" x2="147.7341" y1="64.7658" y2="65.1632" /><line stroke="rgb(0%,0%,0%)" x1="147.7341" x2="148.9321" y1="65.1632" y2="65.4178" /><line stroke="rgb(0%,0%,0%)" x1="148.9321" x2="150.8432" y1="65.4178" y2="65.4178" /><line stroke="rgb(0%,0%,0%)" x1="150.8432" x2="152.0679" y1="65.4178" y2="65.4178" /><line stroke="rgb(0%,0%,0%)" x1="152.0679" x2="153.9373" y1="65.4178" y2="65.0205" /><line stroke="rgb(0%,0%,0%)" x1="153.9373" x2="155.1353" y1="65.0205" y2="64.7658" /><line stroke="rgb(0%,0%,0%)" x1="155.1353" x2="156.8811" y1="64.7658" y2="63.9885" /><line stroke="rgb(0%,0%,0%)" x1="156.8811" x2="158.0" y1="63.9885" y2="63.4904" /><line stroke="rgb(0%,0%,0%)" x1="158.0" x2="159.5461" y1="63.4904" y2="62.3671" /><line stroke="rgb(0%,0%,0%)" x1="159.5461" x2="160.537" y1="62.3671" y2="61.6472" /><line stroke="rgb(0%,0%,0%)" x1="160.537" x2="161.8157" y1="61.6472" y2="60.227" /><line stroke="rgb(0%,0%,0%)" x1="161.8157" x2="162.6353" y1="60.227" y2="59.3168" /><line stroke="rgb(0%,0%,0%)" x1="162.6353" x2="163.5908" y1="59.3168" y2="57.6617" /><line stroke="rgb(0%,0%,0%)" x1="163.5908" x2="164.2032" y1="57.6617" y2="56.6011" /><line stroke="rgb(0%,0%,0%)" x1="164.2032" x2="164.7937" y1="56.6011" y2="54.7835" /><line stroke="rgb(0%,0%,0%)" x1="164.7937" x2="165.1722" y1="54.7835" y2="53.6187" /><line stroke="rgb(0%,0%,0%)" x1="165.1722" x2="165.372" y1="53.6187" y2="51.7181" /><line stroke="rgb(0%,0%,0%)" x1="165.372" x2="165.5" y1="51.7181" y2="50.5" /><line stroke="rgb(0%,0%,0%)" x1="165.5" x2="165.3002" y1="50.5" y2="48.5994" /><line stroke="rgb(0%,0%,0%)" x1="165.3002" x2="165.1722" y1="48.5994" y2="47.3813" /><line stroke="rgb(0%,0%,0%)" x1="165.1722" x2="164.5817" y1="47.3813" y2="45.5638" /><line stroke="rgb(0%,0%,0%)" x1="164.5817" x2="164.2032" y1="45.5638" y2="44.3989" /><line stroke="rgb(0%,0%,0%)" x1="164.2032" x2="163.2476" y1="44.3989" y2="42.7439" /><line stroke="rgb(0%,0%,0%)" x1="163.2476" x2="162.6353" y1="42.7439" y2="41.6832" /><line stroke="rgb(0%,0%,0%)" x1="162.6353" x2="161.3565" y1="41.6832" y2="40.263" /><line stroke="rgb(0%,0%,0%)" x1="161.3565" x2="160.537" y1="40.263" y2="39.3528" /><line stroke="rgb(0%,0%,0%)" x1="160.537" x2="158.9908" y1="39.3528" y2="38.2295" /><line stroke="rgb(0%,0%,0%)" x1="158.9908" x2="158.0" y1="38.2295" y2="37.5096" /><line stroke="rgb(0%,0%,0%)" x1="158.0" x2="156.2541" y1="37.5096" y2="36.7323" /><line stroke="rgb(0%,0%,0%)" x1="156.2541" x2="155.1353" y1="36.7323" y2="36.2342" /><line stroke="rgb(0%,0%,0%)" x1="155.1353" x2="153.2659" y1="36.2342" y2="35.8368" /><line stroke="rgb(0%,0%,0%)" x1="153.2659" x2="152.0679" y1="35.8368" y2="35.5822" /><line stroke="rgb(0%,0%,0%)" x1="152.0679" x2="150.1568" y1="35.5822" y2="35.5822" /><line stroke="rgb(0%,0%,0%)" x1="150.1568" x2="148.9321" y1="35.5822" y2="35.5822" /><line stroke="rgb(0%,0%,0%)" x1="148.9321" x2="147.0627" y1="35.5822" y2="35.9795" /><line stroke="rgb(0%,0%,0%)" x1="147.0627" x2="145.8647" y1="35.9795" y2="36.2342" /><line stroke="rgb(0%,0%,0%)" x1="145.8647" x2="144.1189" y1="36.2342" y2="37.0115" /><line stroke="rgb(0%,0%,0%)" x1="144.1189" x2="143.0" y1="37.0115" y2="37.5096" /><line stroke="rgb(0%,0%,0%)" x1="143.0" x2="141.4539" y1="37.5096" y2="38.6329" /><line stroke="rgb(0%,0%,0%)" x1="141.4539" x2="140.463" y1="38.6329" y2="39.3528" /><line stroke="rgb(0%,0%,0%)" x1="140.463" x2="139.1843" y1="39.3528" y2="40.773" /><line stroke="rgb(0%,0%,0%)" x1="139.1843" x2="138.3647" y1="40.773" y2="41.6832" /><line stroke="rgb(0%,0%,0%)" x1="138.3647" x2="137.4092" y1="41.6832" y2="43.3383" /><line stroke="rgb(0%,0%,0%)" x1="137.4092" x2="136.7968" y1="43.3383" y2="44.3989" /><line stroke="rgb(0%,0%,0%)" x1="136.7968" x2="136.2063" y1="44.3989" y2="46.2165" /><line stroke="rgb(0%,0%,0%)" x1="136.2063" x2="135.8278" y1="46.2165" y2="47.3813" /><line stroke="rgb(0%,0%,0%)" x1="35.8278" x2="35.628" y1="47.3813" y2="49.2819" /><line stroke="rgb(0%,0%,0%)" x1="35.628" x2="35.5" y1="49.2819" y2="50.5" /><line stroke="rgb(0%,0%,0%)" x1="35.5" x2="35.6998" y1="50.5" y2="52.4006" /><line stroke="rgb(0%,0%,0%)" x1="35.6998" x2="35.8278" y1="52.4006" y2="53.6187" /><line stroke="rgb(0%,0%,0%)" x1="35.8278" x2="36.4183" y1="53.6187" y2="55.4362" /><line stroke="rgb(0%,0%,0%)" x1="36.4183" x2="36.7968" y1="55.4362" y2="56.6011" /><line stroke="rgb(0%,0%,0%)" x1="36.7968" x2="37.7524" y1="56.6011" y2="58.2561" /><line stroke="rgb(0%,0%,0%)" x1="37.7524" x2="38.3647" y1="58.2561" y2="59.3168" /><line stroke="rgb(0%,0%,0%)" x1="38.3647" x2="39.6435" y1="59.3168" y2="60.737" /><line stroke="rgb(0%,0%,0%)" x1="39.6435" x2="40.463" y1="60.737" y2="61.6472" /><line stroke="rgb(0%,0%,0%)" x1="40.463" x2="42.0091" y1="61.6472" y2="62.7705" /><line stroke="rgb(0%,0%,0%)" x1="42.0091" x2="43.0" y1="62.7705" y2="63.4904" /><line stroke="rgb(0%,0%,0%)" x1="43.0" x2="44.7459" y1="63.4904" y2="64.2677" /><line stroke="rgb(0%,0%,0%)" x1="44.7459" x2="45.8647" y1="64.2677" y2="64.7658" /><line stroke="rgb(0%,0%,0%)" x1="45.8647" x2="47.7341" y1="64.7658" y2="65.1632" /><line stroke="rgb(0%,0%,0%)" x1="47.7341" x2="48.9321" y1="65.1632" y2="65.4178" /><line stroke="rgb(0%,0%,0%)" x1="48.9321" x2="50.8432" y1="65.4178" y2="65.4178" /><line stroke="rgb(0%,0%,0%)" x1="50.8432" x2="52.0679" y1="65.4178" y2="65.4178" /><line stroke="rgb(0%,0%,0%)" x1="52.0679" x2="53.9373" y1="65.4178" y2="65.0205" /><line stroke="rgb(0%,0%,0%)" x1="53.9373" x2="55.1353" y1="65.0205" y2="64.7658" /><line stroke="rgb(0%,0%,0%)" x1="55.1353" x2="56.8811" y1="64.7658" y2="63.9885" /><line stroke="rgb(0%,0%,0%)" x1="56.8811" x2="58.0" y1="63.9885" y2="63.4904" /><line stroke="rgb(0%,0%,0%)" x1="58.0" x2="59.5461" y1="63.4904" y2="62.3671" /><line stroke="rgb(0%,0%,0%)" x1="59.5461" x2="60.537" y1="62.3671" y2="61.6472" /><line stroke="rgb(0%,0%,0%)" x1="60.537" x2="61.8157" y1="61.6472" y2="60.227" /><line stroke="rgb(0%,0%,0%)" x1="61.8157" x2="62.6352" y1="60.227" y2="59.3168" /><line stroke="rgb(0%,0%,0%)" x1="62.6352" x2="63.5908" y1="59.3168" y2="57.6617" /><line stroke="rgb(0%,0%,0%)" x1="63.5908" x2="64.2032" y1="57.6617" y2="56.6011" /><line stroke="rgb(0%,0%,0%)" x1="64.2032" x2="64.7937" y1="56.6011" y2="54.7835" /><line stroke="rgb(0%,0%,0%)" x1="64.7937" x2="65.1722" y1="54.7835" y2="53.6187" /><line stroke="rgb(0%,0%,0%)" x1="65.1722" x2="65.372" y1="53.6187" y2="51.7181" /><line stroke="rgb(0%,0%,0%)" x1="65.372" x2="65.5" y1="51.7181" y2="50.5" /><line stroke="rgb(0%,0%,0%)" x1="65.5" x2="65.3002" y1="50.5" y2="48.5994" /><line stroke="rgb(0%,0%,0%)" x1="65.3002" x2="65.1722" y1="48.5994" y2="47.3813" /><line stroke="rgb(0%,0%,0%)" x1="65.1722" x2="64.5816" y1="47.3813" y2="45.5638" /><line stroke="rgb(0%,0%,0%)" x1="64.5816" x2="64.2032" y1="45.5638" y2="44.3989" /><line stroke="rgb(0%,0%,0%)" x1="64.2032" x2="63.2476" y1="44.3989" y2="42.7439" /><line stroke="rgb(0%,0%,0%)" x1="63.2476" x2="62.6352" y1="42.7439" y2="41.6832" /><line stroke="rgb(0%,0%,0%)" x1="62.6352" x2="61.3565" y1="41.6832" y2="40.263" /><line stroke="rgb(0%,0%,0%)" x1="61.3565" x2="60.537" y1="40.263" y2="39.3528" /><line stroke="rgb(0%,0%,0%)" x1="60.537" x2="58.9909" y1="39.3528" y2="38.2295" /><line stroke="rgb(0%,0%,0%)" x1="58.9909" x2="58.0" y1="38.2295" y2="37.5096" /><line stroke="rgb(0%,0%,0%)" x1="58.0" x2="56.2541" y1="37.5096" y2="36.7323" /><line stroke="rgb(0%,0%,0%)" x1="56.2541" x2="55.1353" y1="36.7323" y2="36.2342" /><line stroke="rgb(0%,0%,0%)" x1="55.1353" x2="53.2659" y1="36.2342" y2="35.8368" /><line stroke="rgb(0%,0%,0%)" x1="53.2659" x2="52.0679" y1="35.8368" y2="35.5822" /><line stroke="rgb(0%,0%,0%)" x1="52.0679" x2="50.1568" y1="35.5822" y2="35.5822" /><line stroke="rgb(0%,0%,0%)" x1="50.1568" x2="48.9321" y1="35.5822" y2="35.5822" /><line stroke="rgb(0%,0%,0%)" x1="48.9321" x2="47.0627" y1="35.5822" y2="35.9795" /><line stroke="rgb(0%,0%,0%)" x1="47.0627" x2="45.8647" y1="35.9795" y2="36.2342" /><line stroke="rgb(0%,0%,0%)" x1="45.8647" x2="44.1189" y1="36.2342" y2="37.0115" /><line stroke="rgb(0%,0%,0%)" x1="44.1189" x2="43.0" y1="37.0115" y2="37.5096" /><line stroke="rgb(0%,0%,0%)" x1="43.0" x2="41.4539" y1="37.5096" y2="38.6329" /><line stroke="rgb(0%,0%,0%)" x1="41.4539" x2="40.463" y1="38.6329" y2="39.3528" /><line stroke="rgb(0%,0%,0%)" x1="40.463" x2="39.1843" y1="39.3528" y2="40.773" /><line stroke="rgb(0%,0%,0%)" x1="39.1843" x2="38.3647" y1="40.773" y2="41.6832" /><line stroke="rgb(0%,0%,0%)" x1="38.3647" x2="37.4092" y1="41.6832" y2="43.3383" /><line stroke="rgb(0%,0%,0%)" x1="37.4092" x2="36.7968" y1="43.3383" y2="44.3989" /><line stroke="rgb(0%,0%,0%)" x1="36.7968" x2="36.2062" y1="44.3989" y2="46.2165" /><line stroke="rgb(0%,0%,0%)" x1="36.2062" x2="35.8278" y1="46.2165" y2="47.3813" /></svg>