<?xml version="1.0" encoding="utf-8" ?>
<svg baseProfile="tiny" height="100%" version="1.2" width="100%" xmlns="http://www.w3.org/2000/svg" xmlns:ev="http://www.w3.org/2001/xml-events" xmlns:xlink="http://www.w3.org/1999/xlink"><defs /><line stroke="rgb(0%,0%,0%)" x1="351.9" x2="351.9" y1="0.5" y2="70.9194" /><line stroke="rgb(0%,0%,0%)" x1="351.9" x2="351.9" y1="70.9194" y2="100.5" /><line stroke="rgb(0%,0%,0%)" x1="229.6052" x2="326.0133" y1="100.5" y2="100.5" /><line stroke="rgb(0%,0%,0%)" x1="326.0133" x2="329.3755" y1="100.5" y2="100.5" /><line stroke="rgb(0%,0%,0%)" x1="329.3755" x2="333.2167" y1="100.5" y2="100.5" /><line stroke="rgb(0%,0%,0%)" x1="333.2167" x2="337.4797" y1="100.5" y2="100.5" /><line stroke="rgb(0%,0%,0%)" x1="337.4797" x2="342.0844" y1="100.5" y2="100.5" /><line stroke="rgb(0%,0%,0%)" x1="342.0844" x2="346.9299" y1="100.5" y2="100.5" /><line stroke="rgb(0%,0%,0%)" x1="346.9299" x2="351.9" y1="100.5" y2="100.5" /><line stroke="rgb(0%,0%,0%)" x1="229.6052" x2="164.4955" y1="100.5" y2="100.5" /><line stroke="rgb(0%,0%,0%)" x1="164.4955" x2="0.5" y1="100.5" y2="100.5" /><line stroke="rgb(0%,0%,0%)" x1="0.5" x2="164.4955" y1="0.5" y2="0.5" /><line stroke="rgb(0%,0%,0%)" x1="164.4955" x2="229.6052" y1="0.5" y2="0.5" /><line stroke="rgb(0%,0%,0%)" x1="229.6052" x2="326.0133" y1="0.5" y2="0.5" /><line stroke="rgb(0%,0%,0%)" x1="326.0133" x2="329.3755" y1="0.5" y2="0.5" /><line stroke="rgb(0%,0%,0%)" x1="329.3755" x2="333.2167" y1="0.5" y2="0.5" /><line stroke="rgb(0%,0%,0%)" x1="333.2167" x2="337.4797" y1="0.5" y2="0.5" /><line stroke="rgb(0%,0%,0%)" x1="337.4797" x2="342.0844" y1="0.5" y2="0.5" /><line stroke="rgb(0%,0%,0%)" x1="342.0844" x2="346.9299" y1="0.5" y2="0.5" /><line stroke="rgb(0%,0%,0%)" x1="346.9299" x2="351.9" y1="0.5" y2="0.5" /><line stroke="rgb(0%,0%,0%)" x1="0.5" x2="0.5" y1="0.5" y2="19.0287" /><line stroke="rgb(0%,0%,0%)" x1="0.5" x2="0.5" y1="19.0287" y2="100.5" /><line stroke="rgb(0%,0%,0%)" x1="135.8278" x2="135.6215" y1="47.3813" y2="49.3443" /><line stroke="rgb(0%,0%,0%)" x1="135.6215" x2="135.5" y1="49.3443" y2="50.5" /><line stroke="rgb(0%,0%,0%)" x1="135.5" x2="135.7063" y1="50.5" y2="52.463" /><line stroke="rgb(0%,0%,0%)" x1="135.7063" x2="135.8278" y1="52.463" y2="53.6187" /><line stroke="rgb(0%,0%,0%)" x1="135.8278" x2="136.4377" y1="53.6187" y2="55.4959" /><line stroke="rgb(0%,0%,0%)" x1="136.4377" x2="136.7968" y1="55.4959" y2="56.6011" /><line stroke="rgb(0%,0%,0%)" x1="136.7968" x2="137.7837" y1="56.6011" y2="58.3104" /><line stroke="rgb(0%,0%,0%)" x1="137.7837" x2="138.3647" y1="58.3104" y2="59.3168" /><line stroke="rgb(0%,0%,0%)" x1="138.3647" x2="139.6855" y1="59.3168" y2="60.7836" /><line stroke="rgb(0%,0%,0%)" x1="139.6855" x2="140.463" y1="60.7836" y2="61.6472" /><line stroke="rgb(0%,0%,0%)" x1="140.463" x2="142.0599" y1="61.6472" y2="62.8073" /><line stroke="rgb(0%,0%,0%)" x1="142.0599" x2="143.0" y1="62.8073" y2="63.4904" /><line stroke="rgb(0%,0%,0%)" x1="143.0" x2="144.8031" y1="63.4904" y2="64.2932" /><line stroke="rgb(0%,0%,0%)" x1="144.8031" x2="145.8647" y1="64.2932" y2="64.7658" /><line stroke="rgb(0%,0%,0%)" x1="145.8647" x2="147.7954" y1="64.7658" y2="65.1762" /><line stroke="rgb(0%,0%,0%)" x1="147.7954" x2="148.9321" y1="65.1762" y2="65.4178" /><line stroke="rgb(0%,0%,0%)" x1="148.9321" x2="150.9059" y1="65.4178" y2="65.4178" /><line stroke="rgb(0%,0%,0%)" x1="150.9059" x2="152.0679" y1="65.4178" y2="65.4178" /><line stroke="rgb(0%,0%,0%)" x1="152.0679" x2="153.9986" y1="65.4178" y2="65.0075" /><line stroke="rgb(0%,0%,0%)" x1="153.9986" x2="155.1353" y1="65.0075" y2="64.7658" /><line stroke="rgb(0%,0%,0%)" x1="155.1353" x2="156.9384" y1="64.7658" y2="63.963" /><line stroke="rgb(0%,0%,0%)" x1="156.9384" x2="158.0" y1="63.963" y2="63.4904" /><line stroke="rgb(0%,0%,0%)" x1="158.0" x2="159.5968" y1="63.4904" y2="62.3302" /><line stroke="rgb(0%,0%,0%)" x1="159.5968" x2="160.537" y1="62.3302" y2="61.6472" /><line stroke="rgb(0%,0%,0%)" x1="160.537" x2="161.8577" y1="61.6472" y2="60.1804" /><line stroke="rgb(0%,0%,0%)" x1="161.8577" x2="162.6353" y1="60.1804" y2="59.3168" /><line stroke="rgb(0%,0%,0%)" x1="162.6353" x2="163.6221" y1="59.3168" y2="57.6074" /><line stroke="rgb(0%,0%,0%)" x1="163.6221" x2="164.2032" y1="57.6074" y2="56.6011" /><line stroke="rgb(0%,0%,0%)" x1="164.2032" x2="164.8131" y1="56.6011" y2="54.7239" /><line stroke="rgb(0%,0%,0%)" x1="164.8131" x2="165.1722" y1="54.7239" y2="53.6187" /><line stroke="rgb(0%,0%,0%)" x1="165.1722" x2="165.3785" y1="53.6187" y2="51.6557" /><line stroke="rgb(0%,0%,0%)" x1="165.3785" x2="165.5" y1="51.6557" y2="50.5" /><line stroke="rgb(0%,0%,0%)" x1="165.5" x2="165.2937" y1="50.5" y2="48.537" /><line stroke="rgb(0%,0%,0%)" x1="165.2937" x2="165.1722" y1="48.537" y2="47.3813" /><line stroke="rgb(0%,0%,0%)" x1="165.1722" x2="164.5623" y1="47.3813" y2="45.5041" /><line stroke="rgb(0%,0%,0%)" x1="164.5623" x2="164.2032" y1="45.5041" y2="44.3989" /><line stroke="rgb(0%,0%,0%)" x1="164.2032" x2="163.2163" y1="44.3989" y2="42.6896" /><line stroke="rgb(0%,0%,0%)" x1="163.2163" x2="162.6353" y1="42.6896" y2="41.6832" /><line stroke="rgb(0%,0%,0%)" x1="162.6353" x2="161.3145" y1="41.6832" y2="40.2164" /><line stroke="rgb(0%,0%,0%)" x1="161.3145" x2="160.537" y1="40.2164" y2="39.3528" /><line stroke="rgb(0%,0%,0%)" x1="160.537" x2="158.9401" y1="39.3528" y2="38.1927" /><line stroke="rgb(0%,0%,0%)" x1="158.9401" x2="158.0" y1="38.1927" y2="37.5096" /><line stroke="rgb(0%,0%,0%)" x1="158.0" x2="156.1968" y1="37.5096" y2="36.7068" /><line stroke="rgb(0%,0%,0%)" x1="156.1968" x2="155.1353" y1="36.7068" y2="36.2342" /><line stroke="rgb(0%,0%,0%)" x1="155.1353" x2="153.2046" y1="36.2342" y2="35.8238" /><line stroke="rgb(0%,0%,0%)" x1="153.2046" x2="152.0679" y1="35.8238" y2="35.5822" /><line stroke="rgb(0%,0%,0%)" x1="152.0679" x2="150.0941" y1="35.5822" y2="35.5822" /><line stroke="rgb(0%,0%,0%)" x1="150.0941" x2="148.9321" y1="35.5822" y2="35.5822" /><line stroke="rgb(0%,0%,0%)" x1="148.9321" x2="147.0014" y1="35.5822" y2="35.9925" /><line stroke="rgb(0%,0%,0%)" x1="147.0014" x2="145.8647" y1="35.9925" y2="36.2342" /><line stroke="rgb(0%,0%,0%)" x1="145.8647" x2="144.0616" y1="36.2342" y2="37.037" /><line stroke="rgb(0%,0%,0%)" x1="144.0616" x2="143.0" y1="37.037" y2="37.5096" /><line stroke="rgb(0%,0%,0%)" x1="143.0" x2="141.4032" y1="37.5096" y2="38.6698" /><line stroke="rgb(0%,0%,0%)" x1="141.4032" x2="140.463" y1="38.6698" y2="39.3528" /><line stroke="rgb(0%,0%,0%)" x1="140.463" x2="139.1423" y1="39.3528" y2="40.8196" /><line stroke="rgb(0%,0%,0%)" x1="139.1423" x2="138.3647" y1="40.8196" y2="41.6832" /><line stroke="rgb(0%,0%,0%)" x1="138.3647" x2="137.3778" y1="41.6832" y2="43.3926" /><line stroke="rgb(0%,0%,0%)" x1="137.3778" x2="136.7968" y1="43.3926" y2="44.3989" /><line stroke="rgb(0%,0%,0%)" x1="136.7968" x2="136.1869" y1="44.3989" y2="46.2761" /><line stroke="rgb(0%,0%,0%)" x1="136.1869" x2="135.8278" y1="46.2761" y2="47.3813" /><line stroke="rgb(0%,0%,0%)" x1="35.8278" x2="35.6215" y1="47.3813" y2="49.3443" /><line stroke="rgb(0%,0%,0%)" x1="35.6215" x2="35.5" y1="49.3443" y2="50.5" /><line stroke="rgb(0%,0%,0%)" x1="35.5" x2="35.7063" y1="50.5" y2="52.463" /><line stroke="rgb(0%,0%,0%)" x1="35.7063" x2="35.8278" y1="52.463" y2="53.6187" /><line stroke="rgb(0%,0%,0%)" x1="35.8278" x2="36.4377" y1="53.6187" y2="55.4959" /><line stroke="rgb(0%,0%,0%)" x1="36.4377" x2="36.7968" y1="55.4959" y2="56.6011" /><line stroke="rgb(0%,0%,0%)" x1="36.7968" x2="37.7837" y1="56.6011" y2="58.3104" /><line stroke="rgb(0%,0%,0%)" x1="37.7837" x2="38.3647" y1="58.3104" y2="59.3168" /><line stroke="rgb(0%,0%,0%)" x1="38.3647" x2="39.6855" y1="59.3168" y2="60.7836" /><line stroke="rgb(0%,0%,0%)" x1="39.6855" x2="40.463" y1="60.7836" y2="61.6472" /><line stroke="rgb(0%,0%,0%)" x1="40.463" x2="42.0599" y1="61.6472" y2="62.8073" /><line stroke="rgb(0%,0%,0%)" x1="42.0599" x2="43.0" y1="62.8073" y2="63.4904" /><line stroke="rgb(0%,0%,0%)" x1="43.0" x2="44.8031" y1="63.4904" y2="64.2932" /><line stroke="rgb(0%,0%,0%)" x1="44.8031" x2="45.8647" y1="64.2932" y2="64.7658" /><line stroke="rgb(0%,0%,0%)" x1="45.8647" x2="47.7954" y1="64.7658" y2="65.1762" /><line stroke="rgb(0%,0%,0%)" x1="47.7954" x2="48.9321" y1="65.1762" y2="65.4178" /><line stroke="rgb(0%,0%,0%)" x1="48.9321" x2="50.9059" y1="65.4178" y2="65.4178" /><line stroke="rgb(0%,0%,0%)" x1="50.9059" x2="52.0679" y1="65.4178" y2="65.4178" /><line stroke="rgb(0%,0%,0%)" x1="52.0679" x2="53.9986" y1="65.4178" y2="65.0075" /><line stroke="rgb(0%,0%,0%)" x1="53.9986" x2="55.1353" y1="65.0075" y2="64.7658" /><line stroke="rgb(0%,0%,0%)" x1="55.1353" x2="56.9384" y1="64.7658" y2="63.963" /><line stroke="rgb(0%,0%,0%)" x1="56.9384" x2="58.0" y1="63.963" y2="63.4904" /><line stroke="rgb(0%,0%,0%)" x1="58.0" x2="59.5968" y1="63.4904" y2="62.3302" /><line stroke="rgb(0%,0%,0%)" x1="59.5968" x2="60.537" y1="62.3302" y2="61.6472" /><line stroke="rgb(0%,0%,0%)" x1="60.537" x2="61.8577" y1="61.6472" y2="60.1804" /><line stroke="rgb(0%,0%,0%)" x1="61.8577" x2="62.6352" y1="60.1804" y2="59.3168" /><line stroke="rgb(0%,0%,0%)" x1="62.6352" x2="63.6221" y1="59.3168" y2="57.6074" /><line stroke="rgb(0%,0%,0%)" x1="63.6221" x2="64.2032" y1="57.6074" y2="56.6011" /><line stroke="rgb(0%,0%,0%)" x1="64.2032" x2="64.8131" y1="56.6011" y2="54.7239" /><line stroke="rgb(0%,0%,0%)" x1="64.8131" x2="65.1722" y1="54.7239" y2="53.6187" /><line stroke="rgb(0%,0%,0%)" x1="65.1722" x2="65.3785" y1="53.6187" y2="51.6557" /><line stroke="rgb(0%,0%,0%)" x1="65.3785" x2="65.5" y1="51.6557" y2="50.5" /><line stroke="rgb(0%,0%,0%)" x1="65.5" x2="65.2937" y1="50.5" y2="48.537" /><line stroke="rgb(0%,0%,0%)" x1="65.2937" x2="65.1722" y1="48.537" y2="47.3813" /><line stroke="rgb(0%,0%,0%)" x1="65.1722" x2="64.5623" y1="47.3813" y2="45.5041" /><line stroke="rgb(0%,0%,0%)" x1="64.5623" x2="64.2032" y1="45.5041" y2="44.3989" /><line stroke="rgb(0%,0%,0%)" x1="64.2032" x2="63.2163" y1="44.3989" y2="42.6896" /><line stroke="rgb(0%,0%,0%)" x1="63.2163" x2="62.6352" y1="42.6896" y2="41.6832" /><line stroke="rgb(0%,0%,0%)" x1="62.6352" x2="61.3145" y1="41.6832" y2="40.2164" /><line stroke="rgb(0%,0%,0%)" x1="61.3145" x2="60.537" y1="40.2164" y2="39.3528" /><line stroke="rgb(0%,0%,0%)" x1="60.537" x2="58.9401" y1="39.3528" y2="38.1927" /><line stroke="rgb(0%,0%,0%)" x1="58.9401" x2="58.0" y1="38.1927" y2="37.5096" /><line stroke="rgb(0%,0%,0%)" x1="58.0" x2="56.1969" y1="37.5096" y2="36.7068" /><line stroke="rgb(0%,0%,0%)" x1="56.1969" x2="55.1353" y1="36.7068" y2="36.2342" /><line stroke="rgb(0%,0%,0%)" x1="55.1353" x2="53.2046" y1="36.2342" y2="35.8238" /><line stroke="rgb(0%,0%,0%)" x1="53.2046" x2="52.0679" y1="35.8238" y2="35.5822" /><line stroke="rgb(0%,0%,0%)" x1="52.0679" x2="50.0941" y1="35.5822" y2="35.5822" /><line stroke="rgb(0%,0%,0%)" x1="50.0941" x2="48.9321" y1="35.5822" y2="35.5822" /><line stroke="rgb(0%,0%,0%)" x1="48.9321" x2="47.0014" y1="35.5822" y2="35.9925" /><line stroke="rgb(0%,0%,0%)" x1="47.0014" x2="45.8647" y1="35.9925" y2="36.2342" /><line stroke="rgb(0%,0%,0%)" x1="45.8647" x2="44.0616" y1="36.2342" y2="37.037" /><line stroke="rgb(0%,0%,0%)" x1="44.0616" x2="43.0" y1="37.037" y2="37.5096" /><line stroke="rgb(0%,0%,0%)" x1="43.0" x2="41.4032" y1="37.5096" y2="38.6698" /><line stroke="rgb(0%,0%,0%)" x1="41.4032" x2="40.463" y1="38.6698" y2="39.3528" /><line stroke="rgb(0%,0%,0%)" x1="40.463" x2="39.1423" y1="39.3528" y2="40.8196" /><line stroke="rgb(0%,0%,0%)" x1="39.1423" x2="38.3647" y1="40.8196" y2="41.6832" /><line stroke="rgb(0%,0%,0%)" x1="38.3647" x2="37.3778" y1="41.6832" y2="43.3926" /><line stroke="rgb(0%,0%,0%)" x1="37.3778" x2="36.7968" y1="43.3926" y2="44.3989" /><line stroke="rgb(0%,0%,0%)" x1="36.7968" x2="36.1869" y1="44.3989" y2="46.2761" /><line stroke="rgb(0%,0%,0%)" x1="36.1869" x2="35.8278" y1="46.2761" y2="47.3813" /></svg>