<?xml version="1.0" encoding="utf-8" ?>
<svg baseProfile="tiny" height="100%" version="1.2" width="100%" xmlns="http://www.w3.org/2000/svg" xmlns:ev="http://www.w3.org/2001/xml-events" xmlns:xlink="http://www.w3.org/1999/xlink"><defs /><line stroke="rgb(0%,0%,0%)" x1="351.9" x2="351.9" y1="0.5" y2="71.7834" /><line stroke="rgb(0%,0%,0%)" x1="351.9" x2="351.9" y1="71.7834" y2="100.5" /><line stroke="rgb(0%,0%,0%)" x1="228.1047" x2="325.6956" y1="100.5" y2="100.5" /><line stroke="rgb(0%,0%,0%)" x1="325.6956" x2="329.0991" y1="100.5" y2="100.5" /><line stroke="rgb(0%,0%,0%)" x1="329.0991" x2="332.9874" y1="100.5" y2="100.5" /><line stroke="rgb(0%,0%,0%)" x1="332.9874" x2="337.3028" y1="100.5" y2="100.5" /><line stroke="rgb(0%,0%,0%)" x1="337.3028" x2="341.964" y1="100.5" y2="100.5" /><line stroke="rgb(0%,0%,0%)" x1="341.964" x2="346.8689" y1="100.5" y2="100.5" /><line stroke="rgb(0%,0%,0%)" x1="346.8689" x2="351.9" y1="100.5" y2="100.5" /><line stroke="rgb(0%,0%,0%)" x1="228.1047" x2="166.5077" y1="100.5" y2="100.5" /><line stroke="rgb(0%,0%,0%)" x1="166.5077" x2="0.5" y1="100.5" y2="100.5" /><line stroke="rgb(0%,0%,0%)" x1="0.5" x2="166.5077" y1="0.5" y2="0.5" /><line stroke="rgb(0%,0%,0%)" x1="166.5077" x2="228.1047" y1="0.5" y2="0.5" /><line stroke="rgb(0%,0%,0%)" x1="228.1047" x2="325.6956" y1="0.5" y2="0.5" /><line stroke="rgb(0%,0%,0%)" x1="325.6956" x2="329.0991" y1="0.5" y2="0.5" /><line stroke="rgb(0%,0%,0%)" x1="329.0991" x2="332.9874" y1="0.5" y2="0.5" /><line stroke="rgb(0%,0%,0%)" x1="332.9874" x2="337.3028" y1="0.5" y2="0.5" /><line stroke="rgb(0%,0%,0%)" x1="337.3028" x2="341.964" y1="0.5" y2="0.5" /><line stroke="rgb(0%,0%,0%)" x1="341.964" x2="346.8689" y1="0.5" y2="0.5" /><line stroke="rgb(0%,0%,0%)" x1="346.8689" x2="351.9" y1="0.5" y2="0.5" /><line stroke="rgb(0%,0%,0%)" x1="0.5" x2="0.5" y1="0.5" y2="18.029" /><line stroke="rgb(0%,0%,0%)" x1="0.5" x2="0.5" y1="18.029" y2="100.5" /><line stroke="rgb(0%,0%,0%)" x1="135.8278" x2="135.6149" y1="47.3813" y2="49.4067" /><line stroke="rgb(0%,0%,0%)" x1="135.6149" x2="135.5" y1="49.4067" y2="50.5" /><line stroke="rgb(0%,0%,0%)" x1="135.5" x2="135.7129" y1="50.5" y2="52.5253" /><line stroke="rgb(0%,0%,0%)" x1="135.7129" x2="135.8278" y1="52.5253" y2="53.6187" /><line stroke="rgb(0%,0%,0%)" x1="135.8278" x2="136.4571" y1="53.6187" y2="55.5555" /><line stroke="rgb(0%,0%,0%)" x1="136.4571" x2="136.7968" y1="55.5555" y2="56.6011" /><line stroke="rgb(0%,0%,0%)" x1="136.7968" x2="137.8151" y1="56.6011" y2="58.3647" /><line stroke="rgb(0%,0%,0%)" x1="137.8151" x2="138.3647" y1="58.3647" y2="59.3168" /><line stroke="rgb(0%,0%,0%)" x1="138.3647" x2="139.7274" y1="59.3168" y2="60.8302" /><line stroke="rgb(0%,0%,0%)" x1="139.7274" x2="140.463" y1="60.8302" y2="61.6472" /><line stroke="rgb(0%,0%,0%)" x1="140.463" x2="142.1106" y1="61.6472" y2="62.8442" /><line stroke="rgb(0%,0%,0%)" x1="142.1106" x2="143.0" y1="62.8442" y2="63.4904" /><line stroke="rgb(0%,0%,0%)" x1="143.0" x2="144.8604" y1="63.4904" y2="64.3187" /><line stroke="rgb(0%,0%,0%)" x1="144.8604" x2="145.8647" y1="64.3187" y2="64.7658" /><line stroke="rgb(0%,0%,0%)" x1="145.8647" x2="147.8567" y1="64.7658" y2="65.1893" /><line stroke="rgb(0%,0%,0%)" x1="147.8567" x2="148.9321" y1="65.1893" y2="65.4178" /><line stroke="rgb(0%,0%,0%)" x1="148.9321" x2="150.9686" y1="65.4178" y2="65.4178" /><line stroke="rgb(0%,0%,0%)" x1="150.9686" x2="152.0679" y1="65.4178" y2="65.4178" /><line stroke="rgb(0%,0%,0%)" x1="152.0679" x2="154.0599" y1="65.4178" y2="64.9944" /><line stroke="rgb(0%,0%,0%)" x1="154.0599" x2="155.1353" y1="64.9944" y2="64.7658" /><line stroke="rgb(0%,0%,0%)" x1="155.1353" x2="156.9957" y1="64.7658" y2="63.9375" /><line stroke="rgb(0%,0%,0%)" x1="156.9957" x2="158.0" y1="63.9375" y2="63.4904" /><line stroke="rgb(0%,0%,0%)" x1="158.0" x2="159.6475" y1="63.4904" y2="62.2934" /><line stroke="rgb(0%,0%,0%)" x1="159.6475" x2="160.537" y1="62.2934" y2="61.6472" /><line stroke="rgb(0%,0%,0%)" x1="160.537" x2="161.8996" y1="61.6472" y2="60.1338" /><line stroke="rgb(0%,0%,0%)" x1="161.8996" x2="162.6353" y1="60.1338" y2="59.3168" /><line stroke="rgb(0%,0%,0%)" x1="162.6353" x2="163.6535" y1="59.3168" y2="57.5531" /><line stroke="rgb(0%,0%,0%)" x1="163.6535" x2="164.2032" y1="57.5531" y2="56.6011" /><line stroke="rgb(0%,0%,0%)" x1="164.2032" x2="164.8325" y1="56.6011" y2="54.6642" /><line stroke="rgb(0%,0%,0%)" x1="164.8325" x2="165.1722" y1="54.6642" y2="53.6187" /><line stroke="rgb(0%,0%,0%)" x1="165.1722" x2="165.3851" y1="53.6187" y2="51.5933" /><line stroke="rgb(0%,0%,0%)" x1="165.3851" x2="165.5" y1="51.5933" y2="50.5" /><line stroke="rgb(0%,0%,0%)" x1="165.5" x2="165.2871" y1="50.5" y2="48.4747" /><line stroke="rgb(0%,0%,0%)" x1="165.2871" x2="165.1722" y1="48.4747" y2="47.3813" /><line stroke="rgb(0%,0%,0%)" x1="165.1722" x2="164.5429" y1="47.3813" y2="45.4445" /><line stroke="rgb(0%,0%,0%)" x1="164.5429" x2="164.2032" y1="45.4445" y2="44.3989" /><line stroke="rgb(0%,0%,0%)" x1="164.2032" x2="163.1849" y1="44.3989" y2="42.6353" /><line stroke="rgb(0%,0%,0%)" x1="163.1849" x2="162.6353" y1="42.6353" y2="41.6832" /><line stroke="rgb(0%,0%,0%)" x1="162.6353" x2="161.2726" y1="41.6832" y2="40.1698" /><line stroke="rgb(0%,0%,0%)" x1="161.2726" x2="160.537" y1="40.1698" y2="39.3528" /><line stroke="rgb(0%,0%,0%)" x1="160.537" x2="158.8894" y1="39.3528" y2="38.1558" /><line stroke="rgb(0%,0%,0%)" x1="158.8894" x2="158.0" y1="38.1558" y2="37.5096" /><line stroke="rgb(0%,0%,0%)" x1="158.0" x2="156.1396" y1="37.5096" y2="36.6813" /><line stroke="rgb(0%,0%,0%)" x1="156.1396" x2="155.1353" y1="36.6813" y2="36.2342" /><line stroke="rgb(0%,0%,0%)" x1="155.1353" x2="153.1433" y1="36.2342" y2="35.8107" /><line stroke="rgb(0%,0%,0%)" x1="153.1433" x2="152.0679" y1="35.8107" y2="35.5822" /><line stroke="rgb(0%,0%,0%)" x1="152.0679" x2="150.0314" y1="35.5822" y2="35.5822" /><line stroke="rgb(0%,0%,0%)" x1="150.0314" x2="148.9321" y1="35.5822" y2="35.5822" /><line stroke="rgb(0%,0%,0%)" x1="148.9321" x2="146.9401" y1="35.5822" y2="36.0056" /><line stroke="rgb(0%,0%,0%)" x1="146.9401" x2="145.8647" y1="36.0056" y2="36.2342" /><line stroke="rgb(0%,0%,0%)" x1="145.8647" x2="144.0043" y1="36.2342" y2="37.0625" /><line stroke="rgb(0%,0%,0%)" x1="144.0043" x2="143.0" y1="37.0625" y2="37.5096" /><line stroke="rgb(0%,0%,0%)" x1="143.0" x2="141.3524" y1="37.5096" y2="38.7066" /><line stroke="rgb(0%,0%,0%)" x1="141.3524" x2="140.463" y1="38.7066" y2="39.3528" /><line stroke="rgb(0%,0%,0%)" x1="140.463" x2="139.1004" y1="39.3528" y2="40.8662" /><line stroke="rgb(0%,0%,0%)" x1="139.1004" x2="138.3647" y1="40.8662" y2="41.6832" /><line stroke="rgb(0%,0%,0%)" x1="138.3647" x2="137.3465" y1="41.6832" y2="43.4469" /><line stroke="rgb(0%,0%,0%)" x1="137.3465" x2="136.7968" y1="43.4469" y2="44.3989" /><line stroke="rgb(0%,0%,0%)" x1="136.7968" x2="136.1675" y1="44.3989" y2="46.3358" /><line stroke="rgb(0%,0%,0%)" x1="136.1675" x2="135.8278" y1="46.3358" y2="47.3813" /><line stroke="rgb(0%,0%,0%)" x1="35.8278" x2="35.6149" y1="47.3813" y2="49.4067" /><line stroke="rgb(0%,0%,0%)" x1="35.6149" x2="35.5" y1="49.4067" y2="50.5" /><line stroke="rgb(0%,0%,0%)" x1="35.5" x2="35.7129" y1="50.5" y2="52.5253" /><line stroke="rgb(0%,0%,0%)" x1="35.7129" x2="35.8278" y1="52.5253" y2="53.6187" /><line stroke="rgb(0%,0%,0%)" x1="35.8278" x2="36.4571" y1="53.6187" y2="55.5555" /><line stroke="rgb(0%,0%,0%)" x1="36.4571" x2="36.7968" y1="55.5555" y2="56.6011" /><line stroke="rgb(0%,0%,0%)" x1="36.7968" x2="37.8151" y1="56.6011" y2="58.3647" /><line stroke="rgb(0%,0%,0%)" x1="37.8151" x2="38.3647" y1="58.3647" y2="59.3168" /><line stroke="rgb(0%,0%,0%)" x1="38.3647" x2="39.7274" y1="59.3168" y2="60.8302" /><line stroke="rgb(0%,0%,0%)" x1="39.7274" x2="40.463" y1="60.8302" y2="61.6472" /><line stroke="rgb(0%,0%,0%)" x1="40.463" x2="42.1106" y1="61.6472" y2="62.8442" /><line stroke="rgb(0%,0%,0%)" x1="42.1106" x2="43.0" y1="62.8442" y2="63.4904" /><line stroke="rgb(0%,0%,0%)" x1="43.0" x2="44.8604" y1="63.4904" y2="64.3187" /><line stroke="rgb(0%,0%,0%)" x1="44.8604" x2="45.8647" y1="64.3187" y2="64.7658" /><line stroke="rgb(0%,0%,0%)" x1="45.8647" x2="47.8567" y1="64.7658" y2="65.1893" /><line stroke="rgb(0%,0%,0%)" x1="47.8567" x2="48.9321" y1="65.1893" y2="65.4178" /><line stroke="rgb(0%,0%,0%)" x1="48.9321" x2="50.9685" y1="65.4178" y2="65.4178" /><line stroke="rgb(0%,0%,0%)" x1="50.9685" x2="52.0679" y1="65.4178" y2="65.4178" /><line stroke="rgb(0%,0%,0%)" x1="52.0679" x2="54.0599" y1="65.4178" y2="64.9944" /><line stroke="rgb(0%,0%,0%)" x1="54.0599" x2="55.1353" y1="64.9944" y2="64.7658" /><line stroke="rgb(0%,0%,0%)" x1="55.1353" x2="56.9957" y1="64.7658" y2="63.9375" /><line stroke="rgb(0%,0%,0%)" x1="56.9957" x2="58.0" y1="63.9375" y2="63.4904" /><line stroke="rgb(0%,0%,0%)" x1="58.0" x2="59.6476" y1="63.4904" y2="62.2934" /><line stroke="rgb(0%,0%,0%)" x1="59.6476" x2="60.537" y1="62.2934" y2="61.6472" /><line stroke="rgb(0%,0%,0%)" x1="60.537" x2="61.8996" y1="61.6472" y2="60.1338" /><line stroke="rgb(0%,0%,0%)" x1="61.8996" x2="62.6352" y1="60.1338" y2="59.3168" /><line stroke="rgb(0%,0%,0%)" x1="62.6352" x2="63.6535" y1="59.3168" y2="57.5531" /><line stroke="rgb(0%,0%,0%)" x1="63.6535" x2="64.2032" y1="57.5531" y2="56.6011" /><line stroke="rgb(0%,0%,0%)" x1="64.2032" x2="64.8325" y1="56.6011" y2="54.6642" /><line stroke="rgb(0%,0%,0%)" x1="64.8325" x2="65.1722" y1="54.6642" y2="53.6187" /><line stroke="rgb(0%,0%,0%)" x1="65.1722" x2="65.3851" y1="53.6187" y2="51.5933" /><line stroke="rgb(0%,0%,0%)" x1="65.3851" x2="65.5" y1="51.5933" y2="50.5" /><line stroke="rgb(0%,0%,0%)" x1="65.5" x2="65.2871" y1="50.5" y2="48.4747" /><line stroke="rgb(0%,0%,0%)" x1="65.2871" x2="65.1722" y1="48.4747" y2="47.3813" /><line stroke="rgb(0%,0%,0%)" x1="65.1722" x2="64.5429" y1="47.3813" y2="45.4445" /><line stroke="rgb(0%,0%,0%)" x1="64.5429" x2="64.2032" y1="45.4445" y2="44.3989" /><line stroke="rgb(0%,0%,0%)" x1="64.2032" x2="63.1849" y1="44.3989" y2="42.6353" /><line stroke="rgb(0%,0%,0%)" x1="63.1849" x2="62.6352" y1="42.6353" y2="41.6832" /><line stroke="rgb(0%,0%,0%)" x1="62.6352" x2="61.2726" y1="41.6832" y2="40.1698" /><line stroke="rgb(0%,0%,0%)" x1="61.2726" x2="60.537" y1="40.1698" y2="39.3528" /><line stroke="rgb(0%,0%,0%)" x1="60.537" x2="58.8894" y1="39.3528" y2="38.1558" /><line stroke="rgb(0%,0%,0%)" x1="58.8894" x2="58.0" y1="38.1558" y2="37.5096" /><line stroke="rgb(0%,0%,0%)" x1="58.0" x2="56.1396" y1="37.5096" y2="36.6813" /><line stroke="rgb(0%,0%,0%)" x1="56.1396" x2="55.1353" y1="36.6813" y2="36.2342" /><line stroke="rgb(0%,0%,0%)" x1="55.1353" x2="53.1433" y1="36.2342" y2="35.8107" /><line stroke="rgb(0%,0%,0%)" x1="53.1433" x2="52.0679" y1="35.8107" y2="35.5822" /><line stroke="rgb(0%,0%,0%)" x1="52.0679" x2="50.0314" y1="35.5822" y2="35.5822" /><line stroke="rgb(0%,0%,0%)" x1="50.0314" x2="48.9321" y1="35.5822" y2="35.5822" /><line stroke="rgb(0%,0%,0%)" x1="48.9321" x2="46.9401" y1="35.5822" y2="36.0056" /><line stroke="rgb(0%,0%,0%)" x1="46.9401" x2="45.8647" y1="36.0056" y2="36.2342" /><line stroke="rgb(0%,0%,0%)" x1="45.8647" x2="44.0043" y1="36.2342" y2="37.0625" /><line stroke="rgb(0%,0%,0%)" x1="44.0043" x2="43.0" y1="37.0625" y2="37.5096" /><line stroke="rgb(0%,0%,0%)" x1="43.0" x2="41.3524" y1="37.5096" y2="38.7066" /><line stroke="rgb(0%,0%,0%)" x1="41.3524" x2="40.463" y1="38.7066" y2="39.3528" /><line stroke="rgb(0%,0%,0%)" x1="40.463" x2="39.1004" y1="39.3528" y2="40.8662" /><line stroke="rgb(0%,0%,0%)" x1="39.1004" x2="38.3647" y1="40.8662" y2="41.6832" /><line stroke="rgb(0%,0%,0%)" x1="38.3647" x2="37.3465" y1="41.6832" y2="43.4469" /><line stroke="rgb(0%,0%,0%)" x1="37.3465" x2="36.7968" y1="43.4469" y2="44.3989" /><line stroke="rgb(0%,0%,0%)" x1="36.7968" x2="36.1675" y1="44.3989" y2="46.3358" /><line stroke="rgb(0%,0%,0%)" x1="36.1675" x2="35.8278" y1="46.3358" y2="47.3813" /></svg>