<?xml version="1.0" encoding="utf-8" ?>
<svg baseProfile="tiny" height="100%" version="1.2" width="100%" xmlns="http://www.w3.org/2000/svg" xmlns:ev="http://www.w3.org/2001/xml-events" xmlns:xlink="http://www.w3.org/1999/xlink"><defs /><line stroke="rgb(0%,0%,0%)" x1="351.9" x2="351.9" y1="0.5" y2="72.6475" /><line stroke="rgb(0%,0%,0%)" x1="351.9" x2="351.9" y1="72.6475" y2="100.5" /><line stroke="rgb(0%,0%,0%)" x1="226.6041" x2="325.378" y1="100.5" y2="100.5" /><line stroke="rgb(0%,0%,0%)" x1="325.378" x2="328.8228" y1="100.5" y2="100.5" /><line stroke="rgb(0%,0%,0%)" x1="328.8228" x2="332.7582" y1="100.5" y2="100.5" /><line stroke="rgb(0%,0%,0%)" x1="332.7582" x2="337.1259" y1="100.5" y2="100.5" /><line stroke="rgb(0%,0%,0%)" x1="337.1259" x2="341.8435" y1="100.5" y2="100.5" /><line stroke="rgb(0%,0%,0%)" x1="341.8435" x2="346.808" y1="100.5" y2="100.5" /><line stroke="rgb(0%,0%,0%)" x1="346.808" x2="351.9" y1="100.5" y2="100.5" /><line stroke="rgb(0%,0%,0%)" x1="226.6041" x2="168.5199" y1="100.5" y2="100.5" /><line stroke="rgb(0%,0%,0%)" x1="168.5199" x2="0.5" y1="100.5" y2="100.5" /><line stroke="rgb(0%,0%,0%)" x1="0.5" x2="168.5199" y1="0.5" y2="0.5" /><line stroke="rgb(0%,0%,0%)" x1="168.5199" x2="226.6041" y1="0.5" y2="0.5" /><line stroke="rgb(0%,0%,0%)" x1="226.6041" x2="325.378" y1="0.5" y2="0.5" /><line stroke="rgb(0%,0%,0%)" x1="325.378" x2="328.8228" y1="0.5" y2="0.5" /><line stroke="rgb(0%,0%,0%)" x1="328.8228" x2="332.7582" y1="0.5" y2="0.5" /><line stroke="rgb(0%,0%,0%)" x1="332.7582" x2="337.1259" y1="0.5" y2="0.5" /><line stroke="rgb(0%,0%,0%)" x1="337.1259" x2="341.8435" y1="0.5" y2="0.5" /><line stroke="rgb(0%,0%,0%)" x1="341.8435" x2="346.808" y1="0.5" y2="0.5" /><line stroke="rgb(0%,0%,0%)" x1="346.808" x2="351.9" y1="0.5" y2="0.5" /><line stroke="rgb(0%,0%,0%)" x1="0.5" x2="0.5" y1="0.5" y2="17.0294" /><line stroke="rgb(0%,0%,0%)" x1="0.5" x2="0.5" y1="17.0294" y2="100.5" /><line stroke="rgb(0%,0%,0%)" x1="135.8278" x2="135.6084" y1="47.3813" y2="49.469" /><line stroke="rgb(0%,0%,0%)" x1="135.6084" x2="135.5" y1="49.469" y2="50.5" /><line stroke="rgb(0%,0%,0%)" x1="135.5" x2="135.7194" y1="50.5" y2="52.5877" /><line stroke="rgb(0%,0%,0%)" x1="135.7194" x2="135.8278" y1="52.5877" y2="53.6187" /><line stroke="rgb(0%,0%,0%)" x1="135.8278" x2="136.4765" y1="53.6187" y2="55.6151" /><line stroke="rgb(0%,0%,0%)" x1="136.4765" x2="136.7968" y1="55.6151" y2="56.6011" /><line stroke="rgb(0%,0%,0%)" x1="136.7968" x2="137.8464" y1="56.6011" y2="58.419" /><line stroke="rgb(0%,0%,0%)" x1="137.8464" x2="138.3647" y1="58.419" y2="59.3168" /><line stroke="rgb(0%,0%,0%)" x1="138.3647" x2="139.7694" y1="59.3168" y2="60.8768" /><line stroke="rgb(0%,0%,0%)" x1="139.7694" x2="140.463" y1="60.8768" y2="61.6472" /><line stroke="rgb(0%,0%,0%)" x1="140.463" x2="142.1613" y1="61.6472" y2="62.881" /><line stroke="rgb(0%,0%,0%)" x1="142.1613" x2="143.0" y1="62.881" y2="63.4904" /><line stroke="rgb(0%,0%,0%)" x1="143.0" x2="144.9177" y1="63.4904" y2="64.3442" /><line stroke="rgb(0%,0%,0%)" x1="144.9177" x2="145.8647" y1="64.3442" y2="64.7658" /><line stroke="rgb(0%,0%,0%)" x1="145.8647" x2="147.918" y1="64.7658" y2="65.2023" /><line stroke="rgb(0%,0%,0%)" x1="147.918" x2="148.9321" y1="65.2023" y2="65.4178" /><line stroke="rgb(0%,0%,0%)" x1="148.9321" x2="151.0313" y1="65.4178" y2="65.4178" /><line stroke="rgb(0%,0%,0%)" x1="151.0313" x2="152.0679" y1="65.4178" y2="65.4178" /><line stroke="rgb(0%,0%,0%)" x1="152.0679" x2="154.1212" y1="65.4178" y2="64.9814" /><line stroke="rgb(0%,0%,0%)" x1="154.1212" x2="155.1353" y1="64.9814" y2="64.7658" /><line stroke="rgb(0%,0%,0%)" x1="155.1353" x2="157.0529" y1="64.7658" y2="63.912" /><line stroke="rgb(0%,0%,0%)" x1="157.0529" x2="158.0" y1="63.912" y2="63.4904" /><line stroke="rgb(0%,0%,0%)" x1="158.0" x2="159.6983" y1="63.4904" y2="62.2565" /><line stroke="rgb(0%,0%,0%)" x1="159.6983" x2="160.537" y1="62.2565" y2="61.6472" /><line stroke="rgb(0%,0%,0%)" x1="160.537" x2="161.9416" y1="61.6472" y2="60.0872" /><line stroke="rgb(0%,0%,0%)" x1="161.9416" x2="162.6353" y1="60.0872" y2="59.3168" /><line stroke="rgb(0%,0%,0%)" x1="162.6353" x2="163.6848" y1="59.3168" y2="57.4988" /><line stroke="rgb(0%,0%,0%)" x1="163.6848" x2="164.2032" y1="57.4988" y2="56.6011" /><line stroke="rgb(0%,0%,0%)" x1="164.2032" x2="164.8519" y1="56.6011" y2="54.6046" /><line stroke="rgb(0%,0%,0%)" x1="164.8519" x2="165.1722" y1="54.6046" y2="53.6187" /><line stroke="rgb(0%,0%,0%)" x1="165.1722" x2="165.3916" y1="53.6187" y2="51.531" /><line stroke="rgb(0%,0%,0%)" x1="165.3916" x2="165.5" y1="51.531" y2="50.5" /><line stroke="rgb(0%,0%,0%)" x1="165.5" x2="165.2806" y1="50.5" y2="48.4123" /><line stroke="rgb(0%,0%,0%)" x1="165.2806" x2="165.1722" y1="48.4123" y2="47.3813" /><line stroke="rgb(0%,0%,0%)" x1="165.1722" x2="164.5235" y1="47.3813" y2="45.3849" /><line stroke="rgb(0%,0%,0%)" x1="164.5235" x2="164.2032" y1="45.3849" y2="44.3989" /><line stroke="rgb(0%,0%,0%)" x1="164.2032" x2="163.1536" y1="44.3989" y2="42.581" /><line stroke="rgb(0%,0%,0%)" x1="163.1536" x2="162.6353" y1="42.581" y2="41.6832" /><line stroke="rgb(0%,0%,0%)" x1="162.6353" x2="161.2306" y1="41.6832" y2="40.1232" /><line stroke="rgb(0%,0%,0%)" x1="161.2306" x2="160.537" y1="40.1232" y2="39.3528" /><line stroke="rgb(0%,0%,0%)" x1="160.537" x2="158.8387" y1="39.3528" y2="38.119" /><line stroke="rgb(0%,0%,0%)" x1="158.8387" x2="158.0" y1="38.119" y2="37.5096" /><line stroke="rgb(0%,0%,0%)" x1="158.0" x2="156.0823" y1="37.5096" y2="36.6558" /><line stroke="rgb(0%,0%,0%)" x1="156.0823" x2="155.1353" y1="36.6558" y2="36.2342" /><line stroke="rgb(0%,0%,0%)" x1="155.1353" x2="153.0819" y1="36.2342" y2="35.7977" /><line stroke="rgb(0%,0%,0%)" x1="153.0819" x2="152.0679" y1="35.7977" y2="35.5822" /><line stroke="rgb(0%,0%,0%)" x1="152.0679" x2="149.9687" y1="35.5822" y2="35.5822" /><line stroke="rgb(0%,0%,0%)" x1="149.9687" x2="148.9321" y1="35.5822" y2="35.5822" /><line stroke="rgb(0%,0%,0%)" x1="148.9321" x2="146.8788" y1="35.5822" y2="36.0186" /><line stroke="rgb(0%,0%,0%)" x1="146.8788" x2="145.8647" y1="36.0186" y2="36.2342" /><line stroke="rgb(0%,0%,0%)" x1="145.8647" x2="143.947" y1="36.2342" y2="37.088" /><line stroke="rgb(0%,0%,0%)" x1="143.947" x2="143.0" y1="37.088" y2="37.5096" /><line stroke="rgb(0%,0%,0%)" x1="143.0" x2="141.3017" y1="37.5096" y2="38.7435" /><line stroke="rgb(0%,0%,0%)" x1="141.3017" x2="140.463" y1="38.7435" y2="39.3528" /><line stroke="rgb(0%,0%,0%)" x1="140.463" x2="139.0584" y1="39.3528" y2="40.9128" /><line stroke="rgb(0%,0%,0%)" x1="139.0584" x2="138.3647" y1="40.9128" y2="41.6832" /><line stroke="rgb(0%,0%,0%)" x1="138.3647" x2="137.3152" y1="41.6832" y2="43.5012" /><line stroke="rgb(0%,0%,0%)" x1="137.3152" x2="136.7968" y1="43.5012" y2="44.3989" /><line stroke="rgb(0%,0%,0%)" x1="136.7968" x2="136.1481" y1="44.3989" y2="46.3954" /><line stroke="rgb(0%,0%,0%)" x1="136.1481" x2="135.8278" y1="46.3954" y2="47.3813" /><line stroke="rgb(0%,0%,0%)" x1="35.8278" x2="35.6084" y1="47.3813" y2="49.469" /><line stroke="rgb(0%,0%,0%)" x1="35.6084" x2="35.5" y1="49.469" y2="50.5" /><line stroke="rgb(0%,0%,0%)" x1="35.5" x2="35.7194" y1="50.5" y2="52.5877" /><line stroke="rgb(0%,0%,0%)" x1="35.7194" x2="35.8278" y1="52.5877" y2="53.6187" /><line stroke="rgb(0%,0%,0%)" x1="35.8278" x2="36.4765" y1="53.6187" y2="55.6151" /><line stroke="rgb(0%,0%,0%)" x1="36.4765" x2="36.7968" y1="55.6151" y2="56.6011" /><line stroke="rgb(0%,0%,0%)" x1="36.7968" x2="37.8464" y1="56.6011" y2="58.419" /><line stroke="rgb(0%,0%,0%)" x1="37.8464" x2="38.3647" y1="58.419" y2="59.3168" /><line stroke="rgb(0%,0%,0%)" x1="38.3647" x2="39.7694" y1="59.3168" y2="60.8768" /><line stroke="rgb(0%,0%,0%)" x1="39.7694" x2="40.463" y1="60.8768" y2="61.6472" /><line stroke="rgb(0%,0%,0%)" x1="40.463" x2="42.1613" y1="61.6472" y2="62.881" /><line stroke="rgb(0%,0%,0%)" x1="42.1613" x2="43.0" y1="62.881" y2="63.4904" /><line stroke="rgb(0%,0%,0%)" x1="43.0" x2="44.9177" y1="63.4904" y2="64.3442" /><line stroke="rgb(0%,0%,0%)" x1="44.9177" x2="45.8647" y1="64.3442" y2="64.7658" /><line stroke="rgb(0%,0%,0%)" x1="45.8647" x2="47.918" y1="64.7658" y2="65.2023" /><line stroke="rgb(0%,0%,0%)" x1="47.918" x2="48.9321" y1="65.2023" y2="65.4178" /><line stroke="rgb(0%,0%,0%)" x1="48.9321" x2="51.0312" y1="65.4178" y2="65.4178" /><line stroke="rgb(0%,0%,0%)" x1="51.0312" x2="52.0679" y1="65.4178" y2="65.4178" /><line stroke="rgb(0%,0%,0%)" x1="52.0679" x2="54.1212" y1="65.4178" y2="64.9814" /><line stroke="rgb(0%,0%,0%)" x1="54.1212" x2="55.1353" y1="64.9814" y2="64.7658" /><line stroke="rgb(0%,0%,0%)" x1="55.1353" x2="57.053" y1="64.7658" y2="63.912" /><line stroke="rgb(0%,0%,0%)" x1="57.053" x2="58.0" y1="63.912" y2="63.4904" /><line stroke="rgb(0%,0%,0%)" x1="58.0" x2="59.6983" y1="63.4904" y2="62.2565" /><line stroke="rgb(0%,0%,0%)" x1="59.6983" x2="60.537" y1="62.2565" y2="61.6472" /><line stroke="rgb(0%,0%,0%)" x1="60.537" x2="61.9416" y1="61.6472" y2="60.0872" /><line stroke="rgb(0%,0%,0%)" x1="61.9416" x2="62.6352" y1="60.0872" y2="59.3168" /><line stroke="rgb(0%,0%,0%)" x1="62.6352" x2="63.6848" y1="59.3168" y2="57.4988" /><line stroke="rgb(0%,0%,0%)" x1="63.6848" x2="64.2032" y1="57.4988" y2="56.6011" /><line stroke="rgb(0%,0%,0%)" x1="64.2032" x2="64.8519" y1="56.6011" y2="54.6046" /><line stroke="rgb(0%,0%,0%)" x1="64.8519" x2="65.1722" y1="54.6046" y2="53.6187" /><line stroke="rgb(0%,0%,0%)" x1="65.1722" x2="65.3916" y1="53.6187" y2="51.531" /><line stroke="rgb(0%,0%,0%)" x1="65.3916" x2="65.5" y1="51.531" y2="50.5" /><line stroke="rgb(0%,0%,0%)" x1="65.5" x2="65.2806" y1="50.5" y2="48.4123" /><line stroke="rgb(0%,0%,0%)" x1="65.2806" x2="65.1722" y1="48.4123" y2="47.3813" /><line stroke="rgb(0%,0%,0%)" x1="65.1722" x2="64.5235" y1="47.3813" y2="45.3849" /><line stroke="rgb(0%,0%,0%)" x1="64.5235" x2="64.2032" y1="45.3849" y2="44.3989" /><line stroke="rgb(0%,0%,0%)" x1="64.2032" x2="63.1536" y1="44.3989" y2="42.581" /><line stroke="rgb(0%,0%,0%)" x1="63.1536" x2="62.6352" y1="42.581" y2="41.6832" /><line stroke="rgb(0%,0%,0%)" x1="62.6352" x2="61.2306" y1="41.6832" y2="40.1232" /><line stroke="rgb(0%,0%,0%)" x1="61.2306" x2="60.537" y1="40.1232" y2="39.3528" /><line stroke="rgb(0%,0%,0%)" x1="60.537" x2="58.8387" y1="39.3528" y2="38.119" /><line stroke="rgb(0%,0%,0%)" x1="58.8387" x2="58.0" y1="38.119" y2="37.5096" /><line stroke="rgb(0%,0%,0%)" x1="58.0" x2="56.0823" y1="37.5096" y2="36.6558" /><line stroke="rgb(0%,0%,0%)" x1="56.0823" x2="55.1353" y1="36.6558" y2="36.2342" /><line stroke="rgb(0%,0%,0%)" x1="55.1353" x2="53.0819" y1="36.2342" y2="35.7977" /><line stroke="rgb(0%,0%,0%)" x1="53.0819" x2="52.0679" y1="35.7977" y2="35.5822" /><line stroke="rgb(0%,0%,0%)" x1="52.0679" x2="49.9687" y1="35.5822" y2="35.5822" /><line stroke="rgb(0%,0%,0%)" x1="49.9687" x2="48.9321" y1="35.5822" y2="35.5822" /><line stroke="rgb(0%,0%,0%)" x1="48.9321" x2="46.8788" y1="35.5822" y2="36.0186" /><line stroke="rgb(0%,0%,0%)" x1="46.8788" x2="45.8647" y1="36.0186" y2="36.2342" /><line stroke="rgb(0%,0%,0%)" x1="45.8647" x2="43.947" y1="36.2342" y2="37.088" /><line stroke="rgb(0%,0%,0%)" x1="43.947" x2="43.0" y1="37.088" y2="37.5096" /><line stroke="rgb(0%,0%,0%)" x1="43.0" x2="41.3017" y1="37.5096" y2="38.7435" /><line stroke="rgb(0%,0%,0%)" x1="41.3017" x2="40.463" y1="38.7435" y2="39.3528" /><line stroke="rgb(0%,0%,0%)" x1="40.463" x2="39.0584" y1="39.3528" y2="40.9128" /><line stroke="rgb(0%,0%,0%)" x1="39.0584" x2="38.3647" y1="40.9128" y2="41.6832" /><line stroke="rgb(0%,0%,0%)" x1="38.3647" x2="37.3151" y1="41.6832" y2="43.5012" /><line stroke="rgb(0%,0%,0%)" x1="37.3151" x2="36.7968" y1="43.5012" y2="44.3989" /><line stroke="rgb(0%,0%,0%)" x1="36.7968" x2="36.1481" y1="44.3989" y2="46.3954" /><line stroke="rgb(0%,0%,0%)" x1="36.1481" x2="35.8278" y1="46.3954" y2="47.3813" /></svg>