<?xml version="1.0" encoding="utf-8" ?>
<svg baseProfile="tiny" height="100%" version="1.2" width="100%" xmlns="http://www.w3.org/2000/svg" xmlns:ev="http://www.w3.org/2001/xml-events" xmlns:xlink="http://www.w3.org/1999/xlink"><defs /><line stroke="rgb(0%,0%,0%)" x1="351.9" x2="351.9" y1="0.5" y2="73.5115" /><line stroke="rgb(0%,0%,0%)" x1="351.9" x2="351.9" y1="73.5115" y2="100.5" /><line stroke="rgb(0%,0%,0%)" x1="225.1036" x2="325.0604" y1="100.5" y2="100.5" /><line stroke="rgb(0%,0%,0%)" x1="325.0604" x2="328.5464" y1="100.5" y2="100.5" /><line stroke="rgb(0%,0%,0%)" x1="328.5464" x2="332.5289" y1="100.5" y2="100.5" /><line stroke="rgb(0%,0%,0%)" x1="332.5289" x2="336.9489" y1="100.5" y2="100.5" /><line stroke="rgb(0%,0%,0%)" x1="336.9489" x2="341.7231" y1="100.5" y2="100.5" /><line stroke="rgb(0%,0%,0%)" x1="341.7231" x2="346.747" y1="100.5" y2="100.5" /><line stroke="rgb(0%,0%,0%)" x1="346.747" x2="351.9" y1="100.5" y2="100.5" /><line stroke="rgb(0%,0%,0%)" x1="225.1036" x2="170.5321" y1="100.5" y2="100.5" /><line stroke="rgb(0%,0%,0%)" x1="170.5321" x2="0.5" y1="100.5" y2="100.5" /><line stroke="rgb(0%,0%,0%)" x1="0.5" x2="170.5321" y1="0.5" y2="0.5" /><line stroke="rgb(0%,0%,0%)" x1="170.5321" x2="225.1036" y1="0.5" y2="0.5" /><line stroke="rgb(0%,0%,0%)" x1="225.1036" x2="325.0604" y1="0.5" y2="0.5" /><line stroke="rgb(0%,0%,0%)" x1="325.0604" x2="328.5464" y1="0.5" y2="0.5" /><line stroke="rgb(0%,0%,0%)" x1="328.5464" x2="332.5289" y1="0.5" y2="0.5" /><line stroke="rgb(0%,0%,0%)" x1="332.5289" x2="336.9489" y1="0.5" y2="0.5" /><line stroke="rgb(0%,0%,0%)" x1="336.9489" x2="341.7231" y1="0.5" y2="0.5" /><line stroke="rgb(0%,0%,0%)" x1="341.7231" x2="346.747" y1="0.5" y2="0.5" /><line stroke="rgb(0%,0%,0%)" x1="346.747" x2="351.9" y1="0.5" y2="0.5" /><line stroke="rgb(0%,0%,0%)" x1="0.5" x2="0.5" y1="0.5" y2="16.0297" /><line stroke="rgb(0%,0%,0%)" x1="0.5" x2="0.5" y1="16.0297" y2="100.5" /><line stroke="rgb(0%,0%,0%)" x1="135.8278" x2="135.6018" y1="47.3813" y2="49.5314" /><line stroke="rgb(0%,0%,0%)" x1="135.6018" x2="135.5" y1="49.5314" y2="50.5" /><line stroke="rgb(0%,0%,0%)" x1="135.5" x2="135.726" y1="50.5" y2="52.65" /><line stroke="rgb(0%,0%,0%)" x1="135.726" x2="135.8278" y1="52.65" y2="53.6187" /><line stroke="rgb(0%,0%,0%)" x1="135.8278" x2="136.4958" y1="53.6187" y2="55.6747" /><line stroke="rgb(0%,0%,0%)" x1="136.4958" x2="136.7968" y1="55.6747" y2="56.6011" /><line stroke="rgb(0%,0%,0%)" x1="136.7968" x2="137.8778" y1="56.6011" y2="58.4733" /><line stroke="rgb(0%,0%,0%)" x1="137.8778" x2="138.3647" y1="58.4733" y2="59.3168" /><line stroke="rgb(0%,0%,0%)" x1="138.3647" x2="139.8113" y1="59.3168" y2="60.9234" /><line stroke="rgb(0%,0%,0%)" x1="139.8113" x2="140.463" y1="60.9234" y2="61.6472" /><line stroke="rgb(0%,0%,0%)" x1="140.463" x2="142.212" y1="61.6472" y2="62.9179" /><line stroke="rgb(0%,0%,0%)" x1="142.212" x2="143.0" y1="62.9179" y2="63.4904" /><line stroke="rgb(0%,0%,0%)" x1="143.0" x2="144.975" y1="63.4904" y2="64.3697" /><line stroke="rgb(0%,0%,0%)" x1="144.975" x2="145.8647" y1="64.3697" y2="64.7658" /><line stroke="rgb(0%,0%,0%)" x1="145.8647" x2="147.9794" y1="64.7658" y2="65.2153" /><line stroke="rgb(0%,0%,0%)" x1="147.9794" x2="148.9321" y1="65.2153" y2="65.4178" /><line stroke="rgb(0%,0%,0%)" x1="148.9321" x2="151.0939" y1="65.4178" y2="65.4178" /><line stroke="rgb(0%,0%,0%)" x1="151.0939" x2="152.0679" y1="65.4178" y2="65.4178" /><line stroke="rgb(0%,0%,0%)" x1="152.0679" x2="154.1826" y1="65.4178" y2="64.9683" /><line stroke="rgb(0%,0%,0%)" x1="154.1826" x2="155.1353" y1="64.9683" y2="64.7658" /><line stroke="rgb(0%,0%,0%)" x1="155.1353" x2="157.1102" y1="64.7658" y2="63.8865" /><line stroke="rgb(0%,0%,0%)" x1="157.1102" x2="158.0" y1="63.8865" y2="63.4904" /><line stroke="rgb(0%,0%,0%)" x1="158.0" x2="159.749" y1="63.4904" y2="62.2197" /><line stroke="rgb(0%,0%,0%)" x1="159.749" x2="160.537" y1="62.2197" y2="61.6472" /><line stroke="rgb(0%,0%,0%)" x1="160.537" x2="161.9835" y1="61.6472" y2="60.0406" /><line stroke="rgb(0%,0%,0%)" x1="161.9835" x2="162.6353" y1="60.0406" y2="59.3168" /><line stroke="rgb(0%,0%,0%)" x1="162.6353" x2="163.7162" y1="59.3168" y2="57.4445" /><line stroke="rgb(0%,0%,0%)" x1="163.7162" x2="164.2032" y1="57.4445" y2="56.6011" /><line stroke="rgb(0%,0%,0%)" x1="164.2032" x2="164.8712" y1="56.6011" y2="54.545" /><line stroke="rgb(0%,0%,0%)" x1="164.8712" x2="165.1722" y1="54.545" y2="53.6187" /><line stroke="rgb(0%,0%,0%)" x1="165.1722" x2="165.3982" y1="53.6187" y2="51.4686" /><line stroke="rgb(0%,0%,0%)" x1="165.3982" x2="165.5" y1="51.4686" y2="50.5" /><line stroke="rgb(0%,0%,0%)" x1="165.5" x2="165.274" y1="50.5" y2="48.35" /><line stroke="rgb(0%,0%,0%)" x1="165.274" x2="165.1722" y1="48.35" y2="47.3813" /><line stroke="rgb(0%,0%,0%)" x1="165.1722" x2="164.5042" y1="47.3813" y2="45.3253" /><line stroke="rgb(0%,0%,0%)" x1="164.5042" x2="164.2032" y1="45.3253" y2="44.3989" /><line stroke="rgb(0%,0%,0%)" x1="164.2032" x2="163.1222" y1="44.3989" y2="42.5267" /><line stroke="rgb(0%,0%,0%)" x1="163.1222" x2="162.6353" y1="42.5267" y2="41.6832" /><line stroke="rgb(0%,0%,0%)" x1="162.6353" x2="161.1887" y1="41.6832" y2="40.0766" /><line stroke="rgb(0%,0%,0%)" x1="161.1887" x2="160.537" y1="40.0766" y2="39.3528" /><line stroke="rgb(0%,0%,0%)" x1="160.537" x2="158.788" y1="39.3528" y2="38.0821" /><line stroke="rgb(0%,0%,0%)" x1="158.788" x2="158.0" y1="38.0821" y2="37.5096" /><line stroke="rgb(0%,0%,0%)" x1="158.0" x2="156.025" y1="37.5096" y2="36.6303" /><line stroke="rgb(0%,0%,0%)" x1="156.025" x2="155.1353" y1="36.6303" y2="36.2342" /><line stroke="rgb(0%,0%,0%)" x1="155.1353" x2="153.0206" y1="36.2342" y2="35.7847" /><line stroke="rgb(0%,0%,0%)" x1="153.0206" x2="152.0679" y1="35.7847" y2="35.5822" /><line stroke="rgb(0%,0%,0%)" x1="152.0679" x2="149.906" y1="35.5822" y2="35.5822" /><line stroke="rgb(0%,0%,0%)" x1="149.906" x2="148.9321" y1="35.5822" y2="35.5822" /><line stroke="rgb(0%,0%,0%)" x1="148.9321" x2="146.8174" y1="35.5822" y2="36.0317" /><line stroke="rgb(0%,0%,0%)" x1="146.8174" x2="145.8647" y1="36.0317" y2="36.2342" /><line stroke="rgb(0%,0%,0%)" x1="145.8647" x2="143.8898" y1="36.2342" y2="37.1135" /><line stroke="rgb(0%,0%,0%)" x1="143.8898" x2="143.0" y1="37.1135" y2="37.5096" /><line stroke="rgb(0%,0%,0%)" x1="143.0" x2="141.251" y1="37.5096" y2="38.7803" /><line stroke="rgb(0%,0%,0%)" x1="141.251" x2="140.463" y1="38.7803" y2="39.3528" /><line stroke="rgb(0%,0%,0%)" x1="140.463" x2="139.0165" y1="39.3528" y2="40.9594" /><line stroke="rgb(0%,0%,0%)" x1="139.0165" x2="138.3647" y1="40.9594" y2="41.6832" /><line stroke="rgb(0%,0%,0%)" x1="138.3647" x2="137.2838" y1="41.6832" y2="43.5555" /><line stroke="rgb(0%,0%,0%)" x1="137.2838" x2="136.7968" y1="43.5555" y2="44.3989" /><line stroke="rgb(0%,0%,0%)" x1="136.7968" x2="136.1288" y1="44.3989" y2="46.455" /><line stroke="rgb(0%,0%,0%)" x1="136.1288" x2="135.8278" y1="46.455" y2="47.3813" /><line stroke="rgb(0%,0%,0%)" x1="35.8278" x2="35.6018" y1="47.3813" y2="49.5314" /><line stroke="rgb(0%,0%,0%)" x1="35.6018" x2="35.5" y1="49.5314" y2="50.5" /><line stroke="rgb(0%,0%,0%)" x1="35.5" x2="35.726" y1="50.5" y2="52.65" /><line stroke="rgb(0%,0%,0%)" x1="35.726" x2="35.8278" y1="52.65" y2="53.6187" /><line stroke="rgb(0%,0%,0%)" x1="35.8278" x2="36.4958" y1="53.6187" y2="55.6747" /><line stroke="rgb(0%,0%,0%)" x1="36.4958" x2="36.7968" y1="55.6747" y2="56.6011" /><line stroke="rgb(0%,0%,0%)" x1="36.7968" x2="37.8778" y1="56.6011" y2="58.4733" /><line stroke="rgb(0%,0%,0%)" x1="37.8778" x2="38.3647" y1="58.4733" y2="59.3168" /><line stroke="rgb(0%,0%,0%)" x1="38.3647" x2="39.8113" y1="59.3168" y2="60.9234" /><line stroke="rgb(0%,0%,0%)" x1="39.8113" x2="40.463" y1="60.9234" y2="61.6472" /><line stroke="rgb(0%,0%,0%)" x1="40.463" x2="42.212" y1="61.6472" y2="62.9179" /><line stroke="rgb(0%,0%,0%)" x1="42.212" x2="43.0" y1="62.9179" y2="63.4904" /><line stroke="rgb(0%,0%,0%)" x1="43.0" x2="44.975" y1="63.4904" y2="64.3697" /><line stroke="rgb(0%,0%,0%)" x1="44.975" x2="45.8647" y1="64.3697" y2="64.7658" /><line stroke="rgb(0%,0%,0%)" x1="45.8647" x2="47.9794" y1="64.7658" y2="65.2153" /><line stroke="rgb(0%,0%,0%)" x1="47.9794" x2="48.9321" y1="65.2153" y2="65.4178" /><line stroke="rgb(0%,0%,0%)" x1="48.9321" x2="51.0939" y1="65.4178" y2="65.4178" /><line stroke="rgb(0%,0%,0%)" x1="51.0939" x2="52.0679" y1="65.4178" y2="65.4178" /><line stroke="rgb(0%,0%,0%)" x1="52.0679" x2="54.1826" y1="65.4178" y2="64.9683" /><line stroke="rgb(0%,0%,0%)" x1="54.1826" x2="55.1353" y1="64.9683" y2="64.7658" /><line stroke="rgb(0%,0%,0%)" x1="55.1353" x2="57.1102" y1="64.7658" y2="63.8865" /><line stroke="rgb(0%,0%,0%)" x1="57.1102" x2="58.0" y1="63.8865" y2="63.4904" /><line stroke="rgb(0%,0%,0%)" x1="58.0" x2="59.749" y1="63.4904" y2="62.2197" /><line stroke="rgb(0%,0%,0%)" x1="59.749" x2="60.537" y1="62.2197" y2="61.6472" /><line stroke="rgb(0%,0%,0%)" x1="60.537" x2="61.9835" y1="61.6472" y2="60.0406" /><line stroke="rgb(0%,0%,0%)" x1="61.9835" x2="62.6352" y1="60.0406" y2="59.3168" /><line stroke="rgb(0%,0%,0%)" x1="62.6352" x2="63.7162" y1="59.3168" y2="57.4445" /><line stroke="rgb(0%,0%,0%)" x1="63.7162" x2="64.2032" y1="57.4445" y2="56.6011" /><line stroke="rgb(0%,0%,0%)" x1="64.2032" x2="64.8712" y1="56.6011" y2="54.545" /><line stroke="rgb(0%,0%,0%)" x1="64.8712" x2="65.1722" y1="54.545" y2="53.6187" /><line stroke="rgb(0%,0%,0%)" x1="65.1722" x2="65.3982" y1="53.6187" y2="51.4686" /><line stroke="rgb(0%,0%,0%)" x1="65.3982" x2="65.5" y1="51.4686" y2="50.5" /><line stroke="rgb(0%,0%,0%)" x1="65.5" x2="65.274" y1="50.5" y2="48.35" /><line stroke="rgb(0%,0%,0%)" x1="65.274" x2="65.1722" y1="48.35" y2="47.3813" /><line stroke="rgb(0%,0%,0%)" x1="65.1722" x2="64.5042" y1="47.3813" y2="45.3253" /><line stroke="rgb(0%,0%,0%)" x1="64.5042" x2="64.2032" y1="45.3253" y2="44.3989" /><line stroke="rgb(0%,0%,0%)" x1="64.2032" x2="63.1222" y1="44.3989" y2="42.5267" /><line stroke="rgb(0%,0%,0%)" x1="63.1222" x2="62.6352" y1="42.5267" y2="41.6832" /><line stroke="rgb(0%,0%,0%)" x1="62.6352" x2="61.1887" y1="41.6832" y2="40.0766" /><line stroke="rgb(0%,0%,0%)" x1="61.1887" x2="60.537" y1="40.0766" y2="39.3528" /><line stroke="rgb(0%,0%,0%)" x1="60.537" x2="58.788" y1="39.3528" y2="38.0821" /><line stroke="rgb(0%,0%,0%)" x1="58.788" x2="58.0" y1="38.0821" y2="37.5096" /><line stroke="rgb(0%,0%,0%)" x1="58.0" x2="56.025" y1="37.5096" y2="36.6303" /><line stroke="rgb(0%,0%,0%)" x1="56.025" x2="55.1353" y1="36.6303" y2="36.2342" /><line stroke="rgb(0%,0%,0%)" x1="55.1353" x2="53.0206" y1="36.2342" y2="35.7847" /><line stroke="rgb(0%,0%,0%)" x1="53.0206" x2="52.0679" y1="35.7847" y2="35.5822" /><line stroke="rgb(0%,0%,0%)" x1="52.0679" x2="49.906" y1="35.5822" y2="35.5822" /><line stroke="rgb(0%,0%,0%)" x1="49.906" x2="48.9321" y1="35.5822" y2="35.5822" /><line stroke="rgb(0%,0%,0%)" x1="48.9321" x2="46.8174" y1="35.5822" y2="36.0317" /><line stroke="rgb(0%,0%,0%)" x1="46.8174" x2="45.8647" y1="36.0317" y2="36.2342" /><line stroke="rgb(0%,0%,0%)" x1="45.8647" x2="43.8898" y1="36.2342" y2="37.1135" /><line stroke="rgb(0%,0%,0%)" x1="43.8898" x2="43.0" y1="37.1135" y2="37.5096" /><line stroke="rgb(0%,0%,0%)" x1="43.0" x2="41.251" y1="37.5096" y2="38.7803" /><line stroke="rgb(0%,0%,0%)" x1="41.251" x2="40.463" y1="38.7803" y2="39.3528" /><line stroke="rgb(0%,0%,0%)" x1="40.463" x2="39.0165" y1="39.3528" y2="40.9594" /><line stroke="rgb(0%,0%,0%)" x1="39.0165" x2="38.3647" y1="40.9594" y2="41.6832" /><line stroke="rgb(0%,0%,0%)" x1="38.3647" x2="37.2838" y1="41.6832" y2="43.5555" /><line stroke="rgb(0%,0%,0%)" x1="37.2838" x2="36.7968" y1="43.5555" y2="44.3989" /><line stroke="rgb(0%,0%,0%)" x1="36.7968" x2="36.1288" y1="44.3989" y2="46.455" /><line stroke="rgb(0%,0%,0%)" x1="36.1288" x2="35.8278" y1="46.455" y2="47.3813" /></svg>