<?xml version="1.0" encoding="utf-8" ?>
<svg baseProfile="tiny" height="100%" version="1.2" width="100%" xmlns="http://www.w3.org/2000/svg" xmlns:ev="http://www.w3.org/2001/xml-events" xmlns:xlink="http://www.w3.org/1999/xlink"><defs /><line stroke="rgb(0%,0%,0%)" x1="351.9" x2="351.9" y1="0.5" y2="74.3755" /><line stroke="rgb(0%,0%,0%)" x1="351.9" x2="351.9" y1="74.3755" y2="100.5" /><line stroke="rgb(0%,0%,0%)" x1="223.603" x2="324.7427" y1="100.5" y2="100.5" /><line stroke="rgb(0%,0%,0%)" x1="324.7427" x2="328.27" y1="100.5" y2="100.5" /><line stroke="rgb(0%,0%,0%)" x1="328.27" x2="332.2997" y1="100.5" y2="100.5" /><line stroke="rgb(0%,0%,0%)" x1="332.2997" x2="336.772" y1="100.5" y2="100.5" /><line stroke="rgb(0%,0%,0%)" x1="336.772" x2="341.6027" y1="100.5" y2="100.5" /><line stroke="rgb(0%,0%,0%)" x1="341.6027" x2="346.686" y1="100.5" y2="100.5" /><line stroke="rgb(0%,0%,0%)" x1="346.686" x2="351.9" y1="100.5" y2="100.5" /><line stroke="rgb(0%,0%,0%)" x1="223.603" x2="172.5443" y1="100.5" y2="100.5" /><line stroke="rgb(0%,0%,0%)" x1="172.5443" x2="0.5" y1="100.5" y2="100.5" /><line stroke="rgb(0%,0%,0%)" x1="0.5" x2="172.5443" y1="0.5" y2="0.5" /><line stroke="rgb(0%,0%,0%)" x1="172.5443" x2="223.603" y1="0.5" y2="0.5" /><line stroke="rgb(0%,0%,0%)" x1="223.603" x2="324.7427" y1="0.5" y2="0.5" /><line stroke="rgb(0%,0%,0%)" x1="324.7427" x2="328.27" y1="0.5" y2="0.5" /><line stroke="rgb(0%,0%,0%)" x1="328.27" x2="332.2997" y1="0.5" y2="0.5" /><line stroke="rgb(0%,0%,0%)" x1="332.2997" x2="336.772" y1="0.5" y2="0.5" /><line stroke="rgb(0%,0%,0%)" x1="336.772" x2="341.6027" y1="0.5" y2="0.5" /><line stroke="rgb(0%,0%,0%)" x1="341.6027" x2="346.686" y1="0.5" y2="0.5" /><line stroke="rgb(0%,0%,0%)" x1="346.686" x2="351.9" y1="0.5" y2="0.5" /><line stroke="rgb(0%,0%,0%)" x1="0.5" x2="0.5" y1="0.5" y2="15.0301" /><line stroke="rgb(0%,0%,0%)" x1="0.5" x2="0.5" y1="15.0301" y2="100.5" /><line stroke="rgb(0%,0%,0%)" x1="135.8278" x2="135.5953" y1="47.3813" y2="49.5937" /><line stroke="rgb(0%,0%,0%)" x1="135.5953" x2="135.5" y1="49.5937" y2="50.5" /><line stroke="rgb(0%,0%,0%)" x1="135.5" x2="135.7325" y1="50.5" y2="52.7124" /><line stroke="rgb(0%,0%,0%)" x1="135.7325" x2="135.8278" y1="52.7124" y2="53.6187" /><line stroke="rgb(0%,0%,0%)" x1="135.8278" x2="136.5152" y1="53.6187" y2="55.7344" /><line stroke="rgb(0%,0%,0%)" x1="136.5152" x2="136.7968" y1="55.7344" y2="56.6011" /><line stroke="rgb(0%,0%,0%)" x1="136.7968" x2="137.9091" y1="56.6011" y2="58.5276" /><line stroke="rgb(0%,0%,0%)" x1="137.9091" x2="138.3647" y1="58.5276" y2="59.3168" /><line stroke="rgb(0%,0%,0%)" x1="138.3647" x2="139.8533" y1="59.3168" y2="60.97" /><line stroke="rgb(0%,0%,0%)" x1="139.8533" x2="140.463" y1="60.97" y2="61.6472" /><line stroke="rgb(0%,0%,0%)" x1="140.463" x2="142.2628" y1="61.6472" y2="62.9547" /><line stroke="rgb(0%,0%,0%)" x1="142.2628" x2="143.0" y1="62.9547" y2="63.4904" /><line stroke="rgb(0%,0%,0%)" x1="143.0" x2="145.0322" y1="63.4904" y2="64.3952" /><line stroke="rgb(0%,0%,0%)" x1="145.0322" x2="145.8647" y1="64.3952" y2="64.7658" /><line stroke="rgb(0%,0%,0%)" x1="145.8647" x2="148.0407" y1="64.7658" y2="65.2284" /><line stroke="rgb(0%,0%,0%)" x1="148.0407" x2="148.9321" y1="65.2284" y2="65.4178" /><line stroke="rgb(0%,0%,0%)" x1="148.9321" x2="151.1566" y1="65.4178" y2="65.4178" /><line stroke="rgb(0%,0%,0%)" x1="151.1566" x2="152.0679" y1="65.4178" y2="65.4178" /><line stroke="rgb(0%,0%,0%)" x1="152.0679" x2="154.2439" y1="65.4178" y2="64.9553" /><line stroke="rgb(0%,0%,0%)" x1="154.2439" x2="155.1353" y1="64.9553" y2="64.7658" /><line stroke="rgb(0%,0%,0%)" x1="155.1353" x2="157.1675" y1="64.7658" y2="63.861" /><line stroke="rgb(0%,0%,0%)" x1="157.1675" x2="158.0" y1="63.861" y2="63.4904" /><line stroke="rgb(0%,0%,0%)" x1="158.0" x2="159.7997" y1="63.4904" y2="62.1828" /><line stroke="rgb(0%,0%,0%)" x1="159.7997" x2="160.537" y1="62.1828" y2="61.6472" /><line stroke="rgb(0%,0%,0%)" x1="160.537" x2="162.0255" y1="61.6472" y2="59.994" /><line stroke="rgb(0%,0%,0%)" x1="162.0255" x2="162.6353" y1="59.994" y2="59.3168" /><line stroke="rgb(0%,0%,0%)" x1="162.6353" x2="163.7475" y1="59.3168" y2="57.3902" /><line stroke="rgb(0%,0%,0%)" x1="163.7475" x2="164.2032" y1="57.3902" y2="56.6011" /><line stroke="rgb(0%,0%,0%)" x1="164.2032" x2="164.8906" y1="56.6011" y2="54.4854" /><line stroke="rgb(0%,0%,0%)" x1="164.8906" x2="165.1722" y1="54.4854" y2="53.6187" /><line stroke="rgb(0%,0%,0%)" x1="165.1722" x2="165.4047" y1="53.6187" y2="51.4063" /><line stroke="rgb(0%,0%,0%)" x1="165.4047" x2="165.5" y1="51.4063" y2="50.5" /><line stroke="rgb(0%,0%,0%)" x1="165.5" x2="165.2675" y1="50.5" y2="48.2876" /><line stroke="rgb(0%,0%,0%)" x1="165.2675" x2="165.1722" y1="48.2876" y2="47.3813" /><line stroke="rgb(0%,0%,0%)" x1="165.1722" x2="164.4848" y1="47.3813" y2="45.2656" /><line stroke="rgb(0%,0%,0%)" x1="164.4848" x2="164.2032" y1="45.2656" y2="44.3989" /><line stroke="rgb(0%,0%,0%)" x1="164.2032" x2="163.0909" y1="44.3989" y2="42.4724" /><line stroke="rgb(0%,0%,0%)" x1="163.0909" x2="162.6353" y1="42.4724" y2="41.6832" /><line stroke="rgb(0%,0%,0%)" x1="162.6353" x2="161.1467" y1="41.6832" y2="40.03" /><line stroke="rgb(0%,0%,0%)" x1="161.1467" x2="160.537" y1="40.03" y2="39.3528" /><line stroke="rgb(0%,0%,0%)" x1="160.537" x2="158.7372" y1="39.3528" y2="38.0453" /><line stroke="rgb(0%,0%,0%)" x1="158.7372" x2="158.0" y1="38.0453" y2="37.5096" /><line stroke="rgb(0%,0%,0%)" x1="158.0" x2="155.9678" y1="37.5096" y2="36.6048" /><line stroke="rgb(0%,0%,0%)" x1="155.9678" x2="155.1353" y1="36.6048" y2="36.2342" /><line stroke="rgb(0%,0%,0%)" x1="155.1353" x2="152.9593" y1="36.2342" y2="35.7716" /><line stroke="rgb(0%,0%,0%)" x1="152.9593" x2="152.0679" y1="35.7716" y2="35.5822" /><line stroke="rgb(0%,0%,0%)" x1="152.0679" x2="149.8434" y1="35.5822" y2="35.5822" /><line stroke="rgb(0%,0%,0%)" x1="149.8434" x2="148.9321" y1="35.5822" y2="35.5822" /><line stroke="rgb(0%,0%,0%)" x1="148.9321" x2="146.7561" y1="35.5822" y2="36.0447" /><line stroke="rgb(0%,0%,0%)" x1="146.7561" x2="145.8647" y1="36.0447" y2="36.2342" /><line stroke="rgb(0%,0%,0%)" x1="145.8647" x2="143.8325" y1="36.2342" y2="37.139" /><line stroke="rgb(0%,0%,0%)" x1="143.8325" x2="143.0" y1="37.139" y2="37.5096" /><line stroke="rgb(0%,0%,0%)" x1="143.0" x2="141.2003" y1="37.5096" y2="38.8172" /><line stroke="rgb(0%,0%,0%)" x1="141.2003" x2="140.463" y1="38.8172" y2="39.3528" /><line stroke="rgb(0%,0%,0%)" x1="140.463" x2="138.9745" y1="39.3528" y2="41.006" /><line stroke="rgb(0%,0%,0%)" x1="138.9745" x2="138.3647" y1="41.006" y2="41.6832" /><line stroke="rgb(0%,0%,0%)" x1="138.3647" x2="137.2525" y1="41.6832" y2="43.6098" /><line stroke="rgb(0%,0%,0%)" x1="137.2525" x2="136.7968" y1="43.6098" y2="44.3989" /><line stroke="rgb(0%,0%,0%)" x1="136.7968" x2="136.1094" y1="44.3989" y2="46.5146" /><line stroke="rgb(0%,0%,0%)" x1="136.1094" x2="135.8278" y1="46.5146" y2="47.3813" /><line stroke="rgb(0%,0%,0%)" x1="35.8278" x2="35.5953" y1="47.3813" y2="49.5937" /><line stroke="rgb(0%,0%,0%)" x1="35.5953" x2="35.5" y1="49.5937" y2="50.5" /><line stroke="rgb(0%,0%,0%)" x1="35.5" x2="35.7325" y1="50.5" y2="52.7124" /><line stroke="rgb(0%,0%,0%)" x1="35.7325" x2="35.8278" y1="52.7124" y2="53.6187" /><line stroke="rgb(0%,0%,0%)" x1="35.8278" x2="36.5152" y1="53.6187" y2="55.7344" /><line stroke="rgb(0%,0%,0%)" x1="36.5152" x2="36.7968" y1="55.7344" y2="56.6011" /><line stroke="rgb(0%,0%,0%)" x1="36.7968" x2="37.9091" y1="56.6011" y2="58.5276" /><line stroke="rgb(0%,0%,0%)" x1="37.9091" x2="38.3647" y1="58.5276" y2="59.3168" /><line stroke="rgb(0%,0%,0%)" x1="38.3647" x2="39.8533" y1="59.3168" y2="60.97" /><line stroke="rgb(0%,0%,0%)" x1="39.8533" x2="40.463" y1="60.97" y2="61.6472" /><line stroke="rgb(0%,0%,0%)" x1="40.463" x2="42.2628" y1="61.6472" y2="62.9547" /><line stroke="rgb(0%,0%,0%)" x1="42.2628" x2="43.0" y1="62.9547" y2="63.4904" /><line stroke="rgb(0%,0%,0%)" x1="43.0" x2="45.0322" y1="63.4904" y2="64.3952" /><line stroke="rgb(0%,0%,0%)" x1="45.0322" x2="45.8647" y1="64.3952" y2="64.7658" /><line stroke="rgb(0%,0%,0%)" x1="45.8647" x2="48.0407" y1="64.7658" y2="65.2284" /><line stroke="rgb(0%,0%,0%)" x1="48.0407" x2="48.9321" y1="65.2284" y2="65.4178" /><line stroke="rgb(0%,0%,0%)" x1="48.9321" x2="51.1566" y1="65.4178" y2="65.4178" /><line stroke="rgb(0%,0%,0%)" x1="51.1566" x2="52.0679" y1="65.4178" y2="65.4178" /><line stroke="rgb(0%,0%,0%)" x1="52.0679" x2="54.2439" y1="65.4178" y2="64.9553" /><line stroke="rgb(0%,0%,0%)" x1="54.2439" x2="55.1353" y1="64.9553" y2="64.7658" /><line stroke="rgb(0%,0%,0%)" x1="55.1353" x2="57.1675" y1="64.7658" y2="63.861" /><line stroke="rgb(0%,0%,0%)" x1="57.1675" x2="58.0" y1="63.861" y2="63.4904" /><line stroke="rgb(0%,0%,0%)" x1="58.0" x2="59.7997" y1="63.4904" y2="62.1828" /><line stroke="rgb(0%,0%,0%)" x1="59.7997" x2="60.537" y1="62.1828" y2="61.6472" /><line stroke="rgb(0%,0%,0%)" x1="60.537" x2="62.0255" y1="61.6472" y2="59.994" /><line stroke="rgb(0%,0%,0%)" x1="62.0255" x2="62.6352" y1="59.994" y2="59.3168" /><line stroke="rgb(0%,0%,0%)" x1="62.6352" x2="63.7475" y1="59.3168" y2="57.3902" /><line stroke="rgb(0%,0%,0%)" x1="63.7475" x2="64.2032" y1="57.3902" y2="56.6011" /><line stroke="rgb(0%,0%,0%)" x1="64.2032" x2="64.8906" y1="56.6011" y2="54.4854" /><line stroke="rgb(0%,0%,0%)" x1="64.8906" x2="65.1722" y1="54.4854" y2="53.6187" /><line stroke="rgb(0%,0%,0%)" x1="65.1722" x2="65.4047" y1="53.6187" y2="51.4063" /><line stroke="rgb(0%,0%,0%)" x1="65.4047" x2="65.5" y1="51.4063" y2="50.5" /><line stroke="rgb(0%,0%,0%)" x1="65.5" x2="65.2675" y1="50.5" y2="48.2876" /><line stroke="rgb(0%,0%,0%)" x1="65.2675" x2="65.1722" y1="48.2876" y2="47.3813" /><line stroke="rgb(0%,0%,0%)" x1="65.1722" x2="64.4848" y1="47.3813" y2="45.2656" /><line stroke="rgb(0%,0%,0%)" x1="64.4848" x2="64.2032" y1="45.2656" y2="44.3989" /><line stroke="rgb(0%,0%,0%)" x1="64.2032" x2="63.0909" y1="44.3989" y2="42.4724" /><line stroke="rgb(0%,0%,0%)" x1="63.0909" x2="62.6352" y1="42.4724" y2="41.6832" /><line stroke="rgb(0%,0%,0%)" x1="62.6352" x2="61.1467" y1="41.6832" y2="40.03" /><line stroke="rgb(0%,0%,0%)" x1="61.1467" x2="60.537" y1="40.03" y2="39.3528" /><line stroke="rgb(0%,0%,0%)" x1="60.537" x2="58.7372" y1="39.3528" y2="38.0453" /><line stroke="rgb(0%,0%,0%)" x1="58.7372" x2="58.0" y1="38.0453" y2="37.5096" /><line stroke="rgb(0%,0%,0%)" x1="58.0" x2="55.9678" y1="37.5096" y2="36.6048" /><line stroke="rgb(0%,0%,0%)" x1="55.9678" x2="55.1353" y1="36.6048" y2="36.2342" /><line stroke="rgb(0%,0%,0%)" x1="55.1353" x2="52.9593" y1="36.2342" y2="35.7716" /><line stroke="rgb(0%,0%,0%)" x1="52.9593" x2="52.0679" y1="35.7716" y2="35.5822" /><line stroke="rgb(0%,0%,0%)" x1="52.0679" x2="49.8433" y1="35.5822" y2="35.5822" /><line stroke="rgb(0%,0%,0%)" x1="49.8433" x2="48.9321" y1="35.5822" y2="35.5822" /><line stroke="rgb(0%,0%,0%)" x1="48.9321" x2="46.7561" y1="35.5822" y2="36.0447" /><line stroke="rgb(0%,0%,0%)" x1="46.7561" x2="45.8647" y1="36.0447" y2="36.2342" /><line stroke="rgb(0%,0%,0%)" x1="45.8647" x2="43.8325" y1="36.2342" y2="37.139" /><line stroke="rgb(0%,0%,0%)" x1="43.8325" x2="43.0" y1="37.139" y2="37.5096" /><line stroke="rgb(0%,0%,0%)" x1="43.0" x2="41.2003" y1="37.5096" y2="38.8172" /><line stroke="rgb(0%,0%,0%)" x1="41.2003" x2="40.463" y1="38.8172" y2="39.3528" /><line stroke="rgb(0%,0%,0%)" x1="40.463" x2="38.9745" y1="39.3528" y2="41.006" /><line stroke="rgb(0%,0%,0%)" x1="38.9745" x2="38.3647" y1="41.006" y2="41.6832" /><line stroke="rgb(0%,0%,0%)" x1="38.3647" x2="37.2525" y1="41.6832" y2="43.6098" /><line stroke="rgb(0%,0%,0%)" x1="37.2525" x2="36.7968" y1="43.6098" y2="44.3989" /><line stroke="rgb(0%,0%,0%)" x1="36.7968" x2="36.1094" y1="44.3989" y2="46.5146" /><line stroke="rgb(0%,0%,0%)" x1="36.1094" x2="35.8278" y1="46.5146" y2="47.3813" /></svg>