<?xml version="1.0" encoding="utf-8" ?>
<svg baseProfile="tiny" height="100%" version="1.2" width="100%" xmlns="http://www.w3.org/2000/svg" xmlns:ev="http://www.w3.org/2001/xml-events" xmlns:xlink="http://www.w3.org/1999/xlink"><defs /><line stroke="rgb(0%,0%,0%)" x1="351.9" x2="351.9" y1="0.5" y2="75.2396" /><line stroke="rgb(0%,0%,0%)" x1="351.9" x2="351.9" y1="75.2396" y2="100.5" /><line stroke="rgb(0%,0%,0%)" x1="222.1025" x2="324.4251" y1="100.5" y2="100.5" /><line stroke="rgb(0%,0%,0%)" x1="324.4251" x2="327.9937" y1="100.5" y2="100.5" /><line stroke="rgb(0%,0%,0%)" x1="327.9937" x2="332.0705" y1="100.5" y2="100.5" /><line stroke="rgb(0%,0%,0%)" x1="332.0705" x2="336.595" y1="100.5" y2="100.5" /><line stroke="rgb(0%,0%,0%)" x1="336.595" x2="341.4822" y1="100.5" y2="100.5" /><line stroke="rgb(0%,0%,0%)" x1="341.4822" x2="346.625" y1="100.5" y2="100.5" /><line stroke="rgb(0%,0%,0%)" x1="346.625" x2="351.9" y1="100.5" y2="100.5" /><line stroke="rgb(0%,0%,0%)" x1="222.1025" x2="174.5566" y1="100.5" y2="100.5" /><line stroke="rgb(0%,0%,0%)" x1="174.5566" x2="0.5" y1="100.5" y2="100.5" /><line stroke="rgb(0%,0%,0%)" x1="0.5" x2="174.5566" y1="0.5" y2="0.5" /><line stroke="rgb(0%,0%,0%)" x1="174.5566" x2="222.1025" y1="0.5" y2="0.5" /><line stroke="rgb(0%,0%,0%)" x1="222.1025" x2="324.4251" y1="0.5" y2="0.5" /><line stroke="rgb(0%,0%,0%)" x1="324.4251" x2="327.9937" y1="0.5" y2="0.5" /><line stroke="rgb(0%,0%,0%)" x1="327.9937" x2="332.0705" y1="0.5" y2="0.5" /><line stroke="rgb(0%,0%,0%)" x1="332.0705" x2="336.595" y1="0.5" y2="0.5" /><line stroke="rgb(0%,0%,0%)" x1="336.595" x2="341.4822" y1="0.5" y2="0.5" /><line stroke="rgb(0%,0%,0%)" x1="341.4822" x2="346.625" y1="0.5" y2="0.5" /><line stroke="rgb(0%,0%,0%)" x1="346.625" x2="351.9" y1="0.5" y2="0.5" /><line stroke="rgb(0%,0%,0%)" x1="0.5" x2="0.5" y1="0.5" y2="14.0304" /><line stroke="rgb(0%,0%,0%)" x1="0.5" x2="0.5" y1="14.0304" y2="100.5" /><line stroke="rgb(0%,0%,0%)" x1="135.8278" x2="135.5887" y1="47.3813" y2="49.6561" /><line stroke="rgb(0%,0%,0%)" x1="135.5887" x2="135.5" y1="49.6561" y2="50.5" /><line stroke="rgb(0%,0%,0%)" x1="135.5" x2="135.7391" y1="50.5" y2="52.7747" /><line stroke="rgb(0%,0%,0%)" x1="135.7391" x2="135.8278" y1="52.7747" y2="53.6187" /><line stroke="rgb(0%,0%,0%)" x1="135.8278" x2="136.5346" y1="53.6187" y2="55.794" /><line stroke="rgb(0%,0%,0%)" x1="136.5346" x2="136.7968" y1="55.794" y2="56.6011" /><line stroke="rgb(0%,0%,0%)" x1="136.7968" x2="137.9404" y1="56.6011" y2="58.5819" /><line stroke="rgb(0%,0%,0%)" x1="137.9404" x2="138.3647" y1="58.5819" y2="59.3168" /><line stroke="rgb(0%,0%,0%)" x1="138.3647" x2="139.8952" y1="59.3168" y2="61.0165" /><line stroke="rgb(0%,0%,0%)" x1="139.8952" x2="140.463" y1="61.0165" y2="61.6472" /><line stroke="rgb(0%,0%,0%)" x1="140.463" x2="142.3135" y1="61.6472" y2="62.9916" /><line stroke="rgb(0%,0%,0%)" x1="142.3135" x2="143.0" y1="62.9916" y2="63.4904" /><line stroke="rgb(0%,0%,0%)" x1="143.0" x2="145.0895" y1="63.4904" y2="64.4207" /><line stroke="rgb(0%,0%,0%)" x1="145.0895" x2="145.8647" y1="64.4207" y2="64.7658" /><line stroke="rgb(0%,0%,0%)" x1="145.8647" x2="148.102" y1="64.7658" y2="65.2414" /><line stroke="rgb(0%,0%,0%)" x1="148.102" x2="148.9321" y1="65.2414" y2="65.4178" /><line stroke="rgb(0%,0%,0%)" x1="148.9321" x2="151.2193" y1="65.4178" y2="65.4178" /><line stroke="rgb(0%,0%,0%)" x1="151.2193" x2="152.0679" y1="65.4178" y2="65.4178" /><line stroke="rgb(0%,0%,0%)" x1="152.0679" x2="154.3052" y1="65.4178" y2="64.9423" /><line stroke="rgb(0%,0%,0%)" x1="154.3052" x2="155.1353" y1="64.9423" y2="64.7658" /><line stroke="rgb(0%,0%,0%)" x1="155.1353" x2="157.2248" y1="64.7658" y2="63.8355" /><line stroke="rgb(0%,0%,0%)" x1="157.2248" x2="158.0" y1="63.8355" y2="63.4904" /><line stroke="rgb(0%,0%,0%)" x1="158.0" x2="159.8504" y1="63.4904" y2="62.146" /><line stroke="rgb(0%,0%,0%)" x1="159.8504" x2="160.537" y1="62.146" y2="61.6472" /><line stroke="rgb(0%,0%,0%)" x1="160.537" x2="162.0674" y1="61.6472" y2="59.9474" /><line stroke="rgb(0%,0%,0%)" x1="162.0674" x2="162.6353" y1="59.9474" y2="59.3168" /><line stroke="rgb(0%,0%,0%)" x1="162.6353" x2="163.7789" y1="59.3168" y2="57.336" /><line stroke="rgb(0%,0%,0%)" x1="163.7789" x2="164.2032" y1="57.336" y2="56.6011" /><line stroke="rgb(0%,0%,0%)" x1="164.2032" x2="164.91" y1="56.6011" y2="54.4257" /><line stroke="rgb(0%,0%,0%)" x1="164.91" x2="165.1722" y1="54.4257" y2="53.6187" /><line stroke="rgb(0%,0%,0%)" x1="165.1722" x2="165.4113" y1="53.6187" y2="51.3439" /><line stroke="rgb(0%,0%,0%)" x1="165.4113" x2="165.5" y1="51.3439" y2="50.5" /><line stroke="rgb(0%,0%,0%)" x1="165.5" x2="165.2609" y1="50.5" y2="48.2253" /><line stroke="rgb(0%,0%,0%)" x1="165.2609" x2="165.1722" y1="48.2253" y2="47.3813" /><line stroke="rgb(0%,0%,0%)" x1="165.1722" x2="164.4654" y1="47.3813" y2="45.206" /><line stroke="rgb(0%,0%,0%)" x1="164.4654" x2="164.2032" y1="45.206" y2="44.3989" /><line stroke="rgb(0%,0%,0%)" x1="164.2032" x2="163.0595" y1="44.3989" y2="42.4181" /><line stroke="rgb(0%,0%,0%)" x1="163.0595" x2="162.6353" y1="42.4181" y2="41.6832" /><line stroke="rgb(0%,0%,0%)" x1="162.6353" x2="161.1048" y1="41.6832" y2="39.9835" /><line stroke="rgb(0%,0%,0%)" x1="161.1048" x2="160.537" y1="39.9835" y2="39.3528" /><line stroke="rgb(0%,0%,0%)" x1="160.537" x2="158.6865" y1="39.3528" y2="38.0084" /><line stroke="rgb(0%,0%,0%)" x1="158.6865" x2="158.0" y1="38.0084" y2="37.5096" /><line stroke="rgb(0%,0%,0%)" x1="158.0" x2="155.9105" y1="37.5096" y2="36.5793" /><line stroke="rgb(0%,0%,0%)" x1="155.9105" x2="155.1353" y1="36.5793" y2="36.2342" /><line stroke="rgb(0%,0%,0%)" x1="155.1353" x2="152.898" y1="36.2342" y2="35.7586" /><line stroke="rgb(0%,0%,0%)" x1="152.898" x2="152.0679" y1="35.7586" y2="35.5822" /><line stroke="rgb(0%,0%,0%)" x1="152.0679" x2="149.7807" y1="35.5822" y2="35.5822" /><line stroke="rgb(0%,0%,0%)" x1="149.7807" x2="148.9321" y1="35.5822" y2="35.5822" /><line stroke="rgb(0%,0%,0%)" x1="148.9321" x2="146.6948" y1="35.5822" y2="36.0577" /><line stroke="rgb(0%,0%,0%)" x1="146.6948" x2="145.8647" y1="36.0577" y2="36.2342" /><line stroke="rgb(0%,0%,0%)" x1="145.8647" x2="143.7752" y1="36.2342" y2="37.1645" /><line stroke="rgb(0%,0%,0%)" x1="143.7752" x2="143.0" y1="37.1645" y2="37.5096" /><line stroke="rgb(0%,0%,0%)" x1="143.0" x2="141.1496" y1="37.5096" y2="38.854" /><line stroke="rgb(0%,0%,0%)" x1="141.1496" x2="140.463" y1="38.854" y2="39.3528" /><line stroke="rgb(0%,0%,0%)" x1="140.463" x2="138.9326" y1="39.3528" y2="41.0526" /><line stroke="rgb(0%,0%,0%)" x1="138.9326" x2="138.3647" y1="41.0526" y2="41.6832" /><line stroke="rgb(0%,0%,0%)" x1="138.3647" x2="137.2211" y1="41.6832" y2="43.664" /><line stroke="rgb(0%,0%,0%)" x1="137.2211" x2="136.7968" y1="43.664" y2="44.3989" /><line stroke="rgb(0%,0%,0%)" x1="136.7968" x2="136.09" y1="44.3989" y2="46.5743" /><line stroke="rgb(0%,0%,0%)" x1="136.09" x2="135.8278" y1="46.5743" y2="47.3813" /><line stroke="rgb(0%,0%,0%)" x1="35.8278" x2="35.5887" y1="47.3813" y2="49.6561" /><line stroke="rgb(0%,0%,0%)" x1="35.5887" x2="35.5" y1="49.6561" y2="50.5" /><line stroke="rgb(0%,0%,0%)" x1="35.5" x2="35.7391" y1="50.5" y2="52.7747" /><line stroke="rgb(0%,0%,0%)" x1="35.7391" x2="35.8278" y1="52.7747" y2="53.6187" /><line stroke="rgb(0%,0%,0%)" x1="35.8278" x2="36.5346" y1="53.6187" y2="55.794" /><line stroke="rgb(0%,0%,0%)" x1="36.5346" x2="36.7968" y1="55.794" y2="56.6011" /><line stroke="rgb(0%,0%,0%)" x1="36.7968" x2="37.9404" y1="56.6011" y2="58.5819" /><line stroke="rgb(0%,0%,0%)" x1="37.9404" x2="38.3647" y1="58.5819" y2="59.3168" /><line stroke="rgb(0%,0%,0%)" x1="38.3647" x2="39.8952" y1="59.3168" y2="61.0165" /><line stroke="rgb(0%,0%,0%)" x1="39.8952" x2="40.463" y1="61.0165" y2="61.6472" /><line stroke="rgb(0%,0%,0%)" x1="40.463" x2="42.3135" y1="61.6472" y2="62.9916" /><line stroke="rgb(0%,0%,0%)" x1="42.3135" x2="43.0" y1="62.9916" y2="63.4904" /><line stroke="rgb(0%,0%,0%)" x1="43.0" x2="45.0895" y1="63.4904" y2="64.4207" /><line stroke="rgb(0%,0%,0%)" x1="45.0895" x2="45.8647" y1="64.4207" y2="64.7658" /><line stroke="rgb(0%,0%,0%)" x1="45.8647" x2="48.102" y1="64.7658" y2="65.2414" /><line stroke="rgb(0%,0%,0%)" x1="48.102" x2="48.9321" y1="65.2414" y2="65.4178" /><line stroke="rgb(0%,0%,0%)" x1="48.9321" x2="51.2193" y1="65.4178" y2="65.4178" /><line stroke="rgb(0%,0%,0%)" x1="51.2193" x2="52.0679" y1="65.4178" y2="65.4178" /><line stroke="rgb(0%,0%,0%)" x1="52.0679" x2="54.3052" y1="65.4178" y2="64.9423" /><line stroke="rgb(0%,0%,0%)" x1="54.3052" x2="55.1353" y1="64.9423" y2="64.7658" /><line stroke="rgb(0%,0%,0%)" x1="55.1353" x2="57.2248" y1="64.7658" y2="63.8355" /><line stroke="rgb(0%,0%,0%)" x1="57.2248" x2="58.0" y1="63.8355" y2="63.4904" /><line stroke="rgb(0%,0%,0%)" x1="58.0" x2="59.8504" y1="63.4904" y2="62.146" /><line stroke="rgb(0%,0%,0%)" x1="59.8504" x2="60.537" y1="62.146" y2="61.6472" /><line stroke="rgb(0%,0%,0%)" x1="60.537" x2="62.0674" y1="61.6472" y2="59.9474" /><line stroke="rgb(0%,0%,0%)" x1="62.0674" x2="62.6352" y1="59.9474" y2="59.3168" /><line stroke="rgb(0%,0%,0%)" x1="62.6352" x2="63.7789" y1="59.3168" y2="57.336" /><line stroke="rgb(0%,0%,0%)" x1="63.7789" x2="64.2032" y1="57.336" y2="56.6011" /><line stroke="rgb(0%,0%,0%)" x1="64.2032" x2="64.91" y1="56.6011" y2="54.4257" /><line stroke="rgb(0%,0%,0%)" x1="64.91" x2="65.1722" y1="54.4257" y2="53.6187" /><line stroke="rgb(0%,0%,0%)" x1="65.1722" x2="65.4113" y1="53.6187" y2="51.3439" /><line stroke="rgb(0%,0%,0%)" x1="65.4113" x2="65.5" y1="51.3439" y2="50.5" /><line stroke="rgb(0%,0%,0%)" x1="65.5" x2="65.2609" y1="50.5" y2="48.2253" /><line stroke="rgb(0%,0%,0%)" x1="65.2609" x2="65.1722" y1="48.2253" y2="47.3813" /><line stroke="rgb(0%,0%,0%)" x1="65.1722" x2="64.4654" y1="47.3813" y2="45.206" /><line stroke="rgb(0%,0%,0%)" x1="64.4654" x2="64.2032" y1="45.206" y2="44.3989" /><line stroke="rgb(0%,0%,0%)" x1="64.2032" x2="63.0595" y1="44.3989" y2="42.4181" /><line stroke="rgb(0%,0%,0%)" x1="63.0595" x2="62.6352" y1="42.4181" y2="41.6832" /><line stroke="rgb(0%,0%,0%)" x1="62.6352" x2="61.1048" y1="41.6832" y2="39.9835" /><line stroke="rgb(0%,0%,0%)" x1="61.1048" x2="60.537" y1="39.9835" y2="39.3528" /><line stroke="rgb(0%,0%,0%)" x1="60.537" x2="58.6865" y1="39.3528" y2="38.0084" /><line stroke="rgb(0%,0%,0%)" x1="58.6865" x2="58.0" y1="38.0084" y2="37.5096" /><line stroke="rgb(0%,0%,0%)" x1="58.0" x2="55.9105" y1="37.5096" y2="36.5793" /><line stroke="rgb(0%,0%,0%)" x1="55.9105" x2="55.1353" y1="36.5793" y2="36.2342" /><line stroke="rgb(0%,0%,0%)" x1="55.1353" x2="52.898" y1="36.2342" y2="35.7586" /><line stroke="rgb(0%,0%,0%)" x1="52.898" x2="52.0679" y1="35.7586" y2="35.5822" /><line stroke="rgb(0%,0%,0%)" x1="52.0679" x2="49.7807" y1="35.5822" y2="35.5822" /><line stroke="rgb(0%,0%,0%)" x1="49.7807" x2="48.9321" y1="35.5822" y2="35.5822" /><line stroke="rgb(0%,0%,0%)" x1="48.9321" x2="46.6948" y1="35.5822" y2="36.0577" /><line stroke="rgb(0%,0%,0%)" x1="46.6948" x2="45.8647" y1="36.0577" y2="36.2342" /><line stroke="rgb(0%,0%,0%)" x1="45.8647" x2="43.7752" y1="36.2342" y2="37.1645" /><line stroke="rgb(0%,0%,0%)" x1="43.7752" x2="43.0" y1="37.1645" y2="37.5096" /><line stroke="rgb(0%,0%,0%)" x1="43.0" x2="41.1496" y1="37.5096" y2="38.854" /><line stroke="rgb(0%,0%,0%)" x1="41.1496" x2="40.463" y1="38.854" y2="39.3528" /><line stroke="rgb(0%,0%,0%)" x1="40.463" x2="38.9326" y1="39.3528" y2="41.0526" /><line stroke="rgb(0%,0%,0%)" x1="38.9326" x2="38.3647" y1="41.0526" y2="41.6832" /><line stroke="rgb(0%,0%,0%)" x1="38.3647" x2="37.2211" y1="41.6832" y2="43.664" /><line stroke="rgb(0%,0%,0%)" x1="37.2211" x2="36.7968" y1="43.664" y2="44.3989" /><line stroke="rgb(0%,0%,0%)" x1="36.7968" x2="36.09" y1="44.3989" y2="46.5743" /><line stroke="rgb(0%,0%,0%)" x1="36.09" x2="35.8278" y1="46.5743" y2="47.3813" /></svg>