<?xml version="1.0" encoding="utf-8" ?>
<svg baseProfile="tiny" height="100%" version="1.2" width="100%" xmlns="http://www.w3.org/2000/svg" xmlns:ev="http://www.w3.org/2001/xml-events" xmlns:xlink="http://www.w3.org/1999/xlink"><defs /><line stroke="rgb(0%,0%,0%)" x1="351.9" x2="351.9" y1="0.5" y2="76.1036" /><line stroke="rgb(0%,0%,0%)" x1="351.9" x2="351.9" y1="76.1036" y2="100.5" /><line stroke="rgb(0%,0%,0%)" x1="220.6019" x2="324.1075" y1="100.5" y2="100.5" /><line stroke="rgb(0%,0%,0%)" x1="324.1075" x2="327.7173" y1="100.5" y2="100.5" /><line stroke="rgb(0%,0%,0%)" x1="327.7173" x2="331.8412" y1="100.5" y2="100.5" /><line stroke="rgb(0%,0%,0%)" x1="331.8412" x2="336.4181" y1="100.5" y2="100.5" /><line stroke="rgb(0%,0%,0%)" x1="336.4181" x2="341.3618" y1="100.5" y2="100.5" /><line stroke="rgb(0%,0%,0%)" x1="341.3618" x2="346.564" y1="100.5" y2="100.5" /><line stroke="rgb(0%,0%,0%)" x1="346.564" x2="351.9" y1="100.5" y2="100.5" /><line stroke="rgb(0%,0%,0%)" x1="220.6019" x2="176.5688" y1="100.5" y2="100.5" /><line stroke="rgb(0%,0%,0%)" x1="176.5688" x2="0.5" y1="100.5" y2="100.5" /><line stroke="rgb(0%,0%,0%)" x1="0.5" x2="176.5688" y1="0.5" y2="0.5" /><line stroke="rgb(0%,0%,0%)" x1="176.5688" x2="220.6019" y1="0.5" y2="0.5" /><line stroke="rgb(0%,0%,0%)" x1="220.6019" x2="324.1075" y1="0.5" y2="0.5" /><line stroke="rgb(0%,0%,0%)" x1="324.1075" x2="327.7173" y1="0.5" y2="0.5" /><line stroke="rgb(0%,0%,0%)" x1="327.7173" x2="331.8412" y1="0.5" y2="0.5" /><line stroke="rgb(0%,0%,0%)" x1="331.8412" x2="336.4181" y1="0.5" y2="0.5" /><line stroke="rgb(0%,0%,0%)" x1="336.4181" x2="341.3618" y1="0.5" y2="0.5" /><line stroke="rgb(0%,0%,0%)" x1="341.3618" x2="346.564" y1="0.5" y2="0.5" /><line stroke="rgb(0%,0%,0%)" x1="346.564" x2="351.9" y1="0.5" y2="0.5" /><line stroke="rgb(0%,0%,0%)" x1="0.5" x2="0.5" y1="0.5" y2="13.0308" /><line stroke="rgb(0%,0%,0%)" x1="0.5" x2="0.5" y1="13.0308" y2="100.5" /><line stroke="rgb(0%,0%,0%)" x1="135.8278" x2="135.5821" y1="47.3813" y2="49.7184" /><line stroke="rgb(0%,0%,0%)" x1="135.5821" x2="135.5" y1="49.7184" y2="50.5" /><line stroke="rgb(0%,0%,0%)" x1="135.5" x2="135.7456" y1="50.5" y2="52.8371" /><line stroke="rgb(0%,0%,0%)" x1="135.7456" x2="135.8278" y1="52.8371" y2="53.6187" /><line stroke="rgb(0%,0%,0%)" x1="135.8278" x2="136.554" y1="53.6187" y2="55.8536" /><line stroke="rgb(0%,0%,0%)" x1="136.554" x2="136.7968" y1="55.8536" y2="56.6011" /><line stroke="rgb(0%,0%,0%)" x1="136.7968" x2="137.9718" y1="56.6011" y2="58.6362" /><line stroke="rgb(0%,0%,0%)" x1="137.9718" x2="138.3647" y1="58.6362" y2="59.3168" /><line stroke="rgb(0%,0%,0%)" x1="138.3647" x2="139.9372" y1="59.3168" y2="61.0631" /><line stroke="rgb(0%,0%,0%)" x1="139.9372" x2="140.463" y1="61.0631" y2="61.6472" /><line stroke="rgb(0%,0%,0%)" x1="140.463" x2="142.3642" y1="61.6472" y2="63.0284" /><line stroke="rgb(0%,0%,0%)" x1="142.3642" x2="143.0" y1="63.0284" y2="63.4904" /><line stroke="rgb(0%,0%,0%)" x1="143.0" x2="145.1468" y1="63.4904" y2="64.4462" /><line stroke="rgb(0%,0%,0%)" x1="145.1468" x2="145.8647" y1="64.4462" y2="64.7658" /><line stroke="rgb(0%,0%,0%)" x1="145.8647" x2="148.1633" y1="64.7658" y2="65.2544" /><line stroke="rgb(0%,0%,0%)" x1="148.1633" x2="148.9321" y1="65.2544" y2="65.4178" /><line stroke="rgb(0%,0%,0%)" x1="148.9321" x2="151.282" y1="65.4178" y2="65.4178" /><line stroke="rgb(0%,0%,0%)" x1="151.282" x2="152.0679" y1="65.4178" y2="65.4178" /><line stroke="rgb(0%,0%,0%)" x1="152.0679" x2="154.3665" y1="65.4178" y2="64.9292" /><line stroke="rgb(0%,0%,0%)" x1="154.3665" x2="155.1353" y1="64.9292" y2="64.7658" /><line stroke="rgb(0%,0%,0%)" x1="155.1353" x2="157.282" y1="64.7658" y2="63.81" /><line stroke="rgb(0%,0%,0%)" x1="157.282" x2="158.0" y1="63.81" y2="63.4904" /><line stroke="rgb(0%,0%,0%)" x1="158.0" x2="159.9012" y1="63.4904" y2="62.1091" /><line stroke="rgb(0%,0%,0%)" x1="159.9012" x2="160.537" y1="62.1091" y2="61.6472" /><line stroke="rgb(0%,0%,0%)" x1="160.537" x2="162.1094" y1="61.6472" y2="59.9008" /><line stroke="rgb(0%,0%,0%)" x1="162.1094" x2="162.6353" y1="59.9008" y2="59.3168" /><line stroke="rgb(0%,0%,0%)" x1="162.6353" x2="163.8102" y1="59.3168" y2="57.2817" /><line stroke="rgb(0%,0%,0%)" x1="163.8102" x2="164.2032" y1="57.2817" y2="56.6011" /><line stroke="rgb(0%,0%,0%)" x1="164.2032" x2="164.9294" y1="56.6011" y2="54.3661" /><line stroke="rgb(0%,0%,0%)" x1="164.9294" x2="165.1722" y1="54.3661" y2="53.6187" /><line stroke="rgb(0%,0%,0%)" x1="165.1722" x2="165.4178" y1="53.6187" y2="51.2816" /><line stroke="rgb(0%,0%,0%)" x1="165.4178" x2="165.5" y1="51.2816" y2="50.5" /><line stroke="rgb(0%,0%,0%)" x1="165.5" x2="165.2544" y1="50.5" y2="48.1629" /><line stroke="rgb(0%,0%,0%)" x1="165.2544" x2="165.1722" y1="48.1629" y2="47.3813" /><line stroke="rgb(0%,0%,0%)" x1="165.1722" x2="164.446" y1="47.3813" y2="45.1464" /><line stroke="rgb(0%,0%,0%)" x1="164.446" x2="164.2032" y1="45.1464" y2="44.3989" /><line stroke="rgb(0%,0%,0%)" x1="164.2032" x2="163.0282" y1="44.3989" y2="42.3638" /><line stroke="rgb(0%,0%,0%)" x1="163.0282" x2="162.6353" y1="42.3638" y2="41.6832" /><line stroke="rgb(0%,0%,0%)" x1="162.6353" x2="161.0628" y1="41.6832" y2="39.9369" /><line stroke="rgb(0%,0%,0%)" x1="161.0628" x2="160.537" y1="39.9369" y2="39.3528" /><line stroke="rgb(0%,0%,0%)" x1="160.537" x2="158.6358" y1="39.3528" y2="37.9716" /><line stroke="rgb(0%,0%,0%)" x1="158.6358" x2="158.0" y1="37.9716" y2="37.5096" /><line stroke="rgb(0%,0%,0%)" x1="158.0" x2="155.8532" y1="37.5096" y2="36.5538" /><line stroke="rgb(0%,0%,0%)" x1="155.8532" x2="155.1353" y1="36.5538" y2="36.2342" /><line stroke="rgb(0%,0%,0%)" x1="155.1353" x2="152.8366" y1="36.2342" y2="35.7456" /><line stroke="rgb(0%,0%,0%)" x1="152.8366" x2="152.0679" y1="35.7456" y2="35.5822" /><line stroke="rgb(0%,0%,0%)" x1="152.0679" x2="149.718" y1="35.5822" y2="35.5822" /><line stroke="rgb(0%,0%,0%)" x1="149.718" x2="148.9321" y1="35.5822" y2="35.5822" /><line stroke="rgb(0%,0%,0%)" x1="148.9321" x2="146.6335" y1="35.5822" y2="36.0708" /><line stroke="rgb(0%,0%,0%)" x1="146.6335" x2="145.8647" y1="36.0708" y2="36.2342" /><line stroke="rgb(0%,0%,0%)" x1="145.8647" x2="143.7179" y1="36.2342" y2="37.19" /><line stroke="rgb(0%,0%,0%)" x1="143.7179" x2="143.0" y1="37.19" y2="37.5096" /><line stroke="rgb(0%,0%,0%)" x1="143.0" x2="141.0988" y1="37.5096" y2="38.8909" /><line stroke="rgb(0%,0%,0%)" x1="141.0988" x2="140.463" y1="38.8909" y2="39.3528" /><line stroke="rgb(0%,0%,0%)" x1="140.463" x2="138.8906" y1="39.3528" y2="41.0992" /><line stroke="rgb(0%,0%,0%)" x1="138.8906" x2="138.3647" y1="41.0992" y2="41.6832" /><line stroke="rgb(0%,0%,0%)" x1="138.3647" x2="137.1898" y1="41.6832" y2="43.7183" /><line stroke="rgb(0%,0%,0%)" x1="137.1898" x2="136.7968" y1="43.7183" y2="44.3989" /><line stroke="rgb(0%,0%,0%)" x1="136.7968" x2="136.0706" y1="44.3989" y2="46.6339" /><line stroke="rgb(0%,0%,0%)" x1="136.0706" x2="135.8278" y1="46.6339" y2="47.3813" /><line stroke="rgb(0%,0%,0%)" x1="35.8278" x2="35.5821" y1="47.3813" y2="49.7184" /><line stroke="rgb(0%,0%,0%)" x1="35.5821" x2="35.5" y1="49.7184" y2="50.5" /><line stroke="rgb(0%,0%,0%)" x1="35.5" x2="35.7456" y1="50.5" y2="52.8371" /><line stroke="rgb(0%,0%,0%)" x1="35.7456" x2="35.8278" y1="52.8371" y2="53.6187" /><line stroke="rgb(0%,0%,0%)" x1="35.8278" x2="36.554" y1="53.6187" y2="55.8536" /><line stroke="rgb(0%,0%,0%)" x1="36.554" x2="36.7968" y1="55.8536" y2="56.6011" /><line stroke="rgb(0%,0%,0%)" x1="36.7968" x2="37.9718" y1="56.6011" y2="58.6362" /><line stroke="rgb(0%,0%,0%)" x1="37.9718" x2="38.3647" y1="58.6362" y2="59.3168" /><line stroke="rgb(0%,0%,0%)" x1="38.3647" x2="39.9372" y1="59.3168" y2="61.0631" /><line stroke="rgb(0%,0%,0%)" x1="39.9372" x2="40.463" y1="61.0631" y2="61.6472" /><line stroke="rgb(0%,0%,0%)" x1="40.463" x2="42.3642" y1="61.6472" y2="63.0284" /><line stroke="rgb(0%,0%,0%)" x1="42.3642" x2="43.0" y1="63.0284" y2="63.4904" /><line stroke="rgb(0%,0%,0%)" x1="43.0" x2="45.1468" y1="63.4904" y2="64.4462" /><line stroke="rgb(0%,0%,0%)" x1="45.1468" x2="45.8647" y1="64.4462" y2="64.7658" /><line stroke="rgb(0%,0%,0%)" x1="45.8647" x2="48.1633" y1="64.7658" y2="65.2544" /><line stroke="rgb(0%,0%,0%)" x1="48.1633" x2="48.9321" y1="65.2544" y2="65.4178" /><line stroke="rgb(0%,0%,0%)" x1="48.9321" x2="51.282" y1="65.4178" y2="65.4178" /><line stroke="rgb(0%,0%,0%)" x1="51.282" x2="52.0679" y1="65.4178" y2="65.4178" /><line stroke="rgb(0%,0%,0%)" x1="52.0679" x2="54.3665" y1="65.4178" y2="64.9292" /><line stroke="rgb(0%,0%,0%)" x1="54.3665" x2="55.1353" y1="64.9292" y2="64.7658" /><line stroke="rgb(0%,0%,0%)" x1="55.1353" x2="57.2821" y1="64.7658" y2="63.81" /><line stroke="rgb(0%,0%,0%)" x1="57.2821" x2="58.0" y1="63.81" y2="63.4904" /><line stroke="rgb(0%,0%,0%)" x1="58.0" x2="59.9012" y1="63.4904" y2="62.1091" /><line stroke="rgb(0%,0%,0%)" x1="59.9012" x2="60.537" y1="62.1091" y2="61.6472" /><line stroke="rgb(0%,0%,0%)" x1="60.537" x2="62.1094" y1="61.6472" y2="59.9008" /><line stroke="rgb(0%,0%,0%)" x1="62.1094" x2="62.6352" y1="59.9008" y2="59.3168" /><line stroke="rgb(0%,0%,0%)" x1="62.6352" x2="63.8102" y1="59.3168" y2="57.2817" /><line stroke="rgb(0%,0%,0%)" x1="63.8102" x2="64.2032" y1="57.2817" y2="56.6011" /><line stroke="rgb(0%,0%,0%)" x1="64.2032" x2="64.9294" y1="56.6011" y2="54.3661" /><line stroke="rgb(0%,0%,0%)" x1="64.9294" x2="65.1722" y1="54.3661" y2="53.6187" /><line stroke="rgb(0%,0%,0%)" x1="65.1722" x2="65.4179" y1="53.6187" y2="51.2816" /><line stroke="rgb(0%,0%,0%)" x1="65.4179" x2="65.5" y1="51.2816" y2="50.5" /><line stroke="rgb(0%,0%,0%)" x1="65.5" x2="65.2544" y1="50.5" y2="48.1629" /><line stroke="rgb(0%,0%,0%)" x1="65.2544" x2="65.1722" y1="48.1629" y2="47.3813" /><line stroke="rgb(0%,0%,0%)" x1="65.1722" x2="64.446" y1="47.3813" y2="45.1464" /><line stroke="rgb(0%,0%,0%)" x1="64.446" x2="64.2032" y1="45.1464" y2="44.3989" /><line stroke="rgb(0%,0%,0%)" x1="64.2032" x2="63.0282" y1="44.3989" y2="42.3638" /><line stroke="rgb(0%,0%,0%)" x1="63.0282" x2="62.6352" y1="42.3638" y2="41.6832" /><line stroke="rgb(0%,0%,0%)" x1="62.6352" x2="61.0628" y1="41.6832" y2="39.9369" /><line stroke="rgb(0%,0%,0%)" x1="61.0628" x2="60.537" y1="39.9369" y2="39.3528" /><line stroke="rgb(0%,0%,0%)" x1="60.537" x2="58.6358" y1="39.3528" y2="37.9716" /><line stroke="rgb(0%,0%,0%)" x1="58.6358" x2="58.0" y1="37.9716" y2="37.5096" /><line stroke="rgb(0%,0%,0%)" x1="58.0" x2="55.8532" y1="37.5096" y2="36.5538" /><line stroke="rgb(0%,0%,0%)" x1="55.8532" x2="55.1353" y1="36.5538" y2="36.2342" /><line stroke="rgb(0%,0%,0%)" x1="55.1353" x2="52.8366" y1="36.2342" y2="35.7456" /><line stroke="rgb(0%,0%,0%)" x1="52.8366" x2="52.0679" y1="35.7456" y2="35.5822" /><line stroke="rgb(0%,0%,0%)" x1="52.0679" x2="49.718" y1="35.5822" y2="35.5822" /><line stroke="rgb(0%,0%,0%)" x1="49.718" x2="48.9321" y1="35.5822" y2="35.5822" /><line stroke="rgb(0%,0%,0%)" x1="48.9321" x2="46.6335" y1="35.5822" y2="36.0708" /><line stroke="rgb(0%,0%,0%)" x1="46.6335" x2="45.8647" y1="36.0708" y2="36.2342" /><line stroke="rgb(0%,0%,0%)" x1="45.8647" x2="43.7179" y1="36.2342" y2="37.19" /><line stroke="rgb(0%,0%,0%)" x1="43.7179" x2="43.0" y1="37.19" y2="37.5096" /><line stroke="rgb(0%,0%,0%)" x1="43.0" x2="41.0988" y1="37.5096" y2="38.8909" /><line stroke="rgb(0%,0%,0%)" x1="41.0988" x2="40.463" y1="38.8909" y2="39.3528" /><line stroke="rgb(0%,0%,0%)" x1="40.463" x2="38.8906" y1="39.3528" y2="41.0992" /><line stroke="rgb(0%,0%,0%)" x1="38.8906" x2="38.3647" y1="41.0992" y2="41.6832" /><line stroke="rgb(0%,0%,0%)" x1="38.3647" x2="37.1898" y1="41.6832" y2="43.7183" /><line stroke="rgb(0%,0%,0%)" x1="37.1898" x2="36.7968" y1="43.7183" y2="44.3989" /><line stroke="rgb(0%,0%,0%)" x1="36.7968" x2="36.0706" y1="44.3989" y2="46.6339" /><line stroke="rgb(0%,0%,0%)" x1="36.0706" x2="35.8278" y1="46.6339" y2="47.3813" /></svg>