<?xml version="1.0" encoding="utf-8" ?>
<svg baseProfile="tiny" height="100%" version="1.2" width="100%" xmlns="http://www.w3.org/2000/svg" xmlns:ev="http://www.w3.org/2001/xml-events" xmlns:xlink="http://www.w3.org/1999/xlink"><defs /><line stroke="rgb(0%,0%,0%)" x1="351.9" x2="351.9" y1="0.5" y2="76.9677" /><line stroke="rgb(0%,0%,0%)" x1="351.9" x2="351.9" y1="76.9677" y2="100.5" /><line stroke="rgb(0%,0%,0%)" x1="219.1014" x2="323.7899" y1="100.5" y2="100.5" /><line stroke="rgb(0%,0%,0%)" x1="323.7899" x2="327.4409" y1="100.5" y2="100.5" /><line stroke="rgb(0%,0%,0%)" x1="327.4409" x2="331.612" y1="100.5" y2="100.5" /><line stroke="rgb(0%,0%,0%)" x1="331.612" x2="336.2412" y1="100.5" y2="100.5" /><line stroke="rgb(0%,0%,0%)" x1="336.2412" x2="341.2414" y1="100.5" y2="100.5" /><line stroke="rgb(0%,0%,0%)" x1="341.2414" x2="346.5031" y1="100.5" y2="100.5" /><line stroke="rgb(0%,0%,0%)" x1="346.5031" x2="351.9" y1="100.5" y2="100.5" /><line stroke="rgb(0%,0%,0%)" x1="219.1014" x2="178.581" y1="100.5" y2="100.5" /><line stroke="rgb(0%,0%,0%)" x1="178.581" x2="0.5" y1="100.5" y2="100.5" /><line stroke="rgb(0%,0%,0%)" x1="0.5" x2="178.581" y1="0.5" y2="0.5" /><line stroke="rgb(0%,0%,0%)" x1="178.581" x2="219.1014" y1="0.5" y2="0.5" /><line stroke="rgb(0%,0%,0%)" x1="219.1014" x2="323.7899" y1="0.5" y2="0.5" /><line stroke="rgb(0%,0%,0%)" x1="323.7899" x2="327.4409" y1="0.5" y2="0.5" /><line stroke="rgb(0%,0%,0%)" x1="327.4409" x2="331.612" y1="0.5" y2="0.5" /><line stroke="rgb(0%,0%,0%)" x1="331.612" x2="336.2412" y1="0.5" y2="0.5" /><line stroke="rgb(0%,0%,0%)" x1="336.2412" x2="341.2414" y1="0.5" y2="0.5" /><line stroke="rgb(0%,0%,0%)" x1="341.2414" x2="346.5031" y1="0.5" y2="0.5" /><line stroke="rgb(0%,0%,0%)" x1="346.5031" x2="351.9" y1="0.5" y2="0.5" /><line stroke="rgb(0%,0%,0%)" x1="0.5" x2="0.5" y1="0.5" y2="12.0311" /><line stroke="rgb(0%,0%,0%)" x1="0.5" x2="0.5" y1="12.0311" y2="100.5" /><line stroke="rgb(0%,0%,0%)" x1="135.8278" x2="135.5756" y1="47.3813" y2="49.7808" /><line stroke="rgb(0%,0%,0%)" x1="135.5756" x2="135.5" y1="49.7808" y2="50.5" /><line stroke="rgb(0%,0%,0%)" x1="135.5" x2="135.7522" y1="50.5" y2="52.8994" /><line stroke="rgb(0%,0%,0%)" x1="135.7522" x2="135.8278" y1="52.8994" y2="53.6187" /><line stroke="rgb(0%,0%,0%)" x1="135.8278" x2="136.5733" y1="53.6187" y2="55.9132" /><line stroke="rgb(0%,0%,0%)" x1="136.5733" x2="136.7968" y1="55.9132" y2="56.6011" /><line stroke="rgb(0%,0%,0%)" x1="136.7968" x2="138.0031" y1="56.6011" y2="58.6905" /><line stroke="rgb(0%,0%,0%)" x1="138.0031" x2="138.3647" y1="58.6905" y2="59.3168" /><line stroke="rgb(0%,0%,0%)" x1="138.3647" x2="139.9791" y1="59.3168" y2="61.1097" /><line stroke="rgb(0%,0%,0%)" x1="139.9791" x2="140.463" y1="61.1097" y2="61.6472" /><line stroke="rgb(0%,0%,0%)" x1="140.463" x2="142.4149" y1="61.6472" y2="63.0653" /><line stroke="rgb(0%,0%,0%)" x1="142.4149" x2="143.0" y1="63.0653" y2="63.4904" /><line stroke="rgb(0%,0%,0%)" x1="143.0" x2="145.2041" y1="63.4904" y2="64.4717" /><line stroke="rgb(0%,0%,0%)" x1="145.2041" x2="145.8647" y1="64.4717" y2="64.7658" /><line stroke="rgb(0%,0%,0%)" x1="145.8647" x2="148.2247" y1="64.7658" y2="65.2675" /><line stroke="rgb(0%,0%,0%)" x1="148.2247" x2="148.9321" y1="65.2675" y2="65.4178" /><line stroke="rgb(0%,0%,0%)" x1="148.9321" x2="151.3447" y1="65.4178" y2="65.4178" /><line stroke="rgb(0%,0%,0%)" x1="151.3447" x2="152.0679" y1="65.4178" y2="65.4178" /><line stroke="rgb(0%,0%,0%)" x1="152.0679" x2="154.4279" y1="65.4178" y2="64.9162" /><line stroke="rgb(0%,0%,0%)" x1="154.4279" x2="155.1353" y1="64.9162" y2="64.7658" /><line stroke="rgb(0%,0%,0%)" x1="155.1353" x2="157.3393" y1="64.7658" y2="63.7845" /><line stroke="rgb(0%,0%,0%)" x1="157.3393" x2="158.0" y1="63.7845" y2="63.4904" /><line stroke="rgb(0%,0%,0%)" x1="158.0" x2="159.9519" y1="63.4904" y2="62.0723" /><line stroke="rgb(0%,0%,0%)" x1="159.9519" x2="160.537" y1="62.0723" y2="61.6472" /><line stroke="rgb(0%,0%,0%)" x1="160.537" x2="162.1513" y1="61.6472" y2="59.8542" /><line stroke="rgb(0%,0%,0%)" x1="162.1513" x2="162.6353" y1="59.8542" y2="59.3168" /><line stroke="rgb(0%,0%,0%)" x1="162.6353" x2="163.8416" y1="59.3168" y2="57.2274" /><line stroke="rgb(0%,0%,0%)" x1="163.8416" x2="164.2032" y1="57.2274" y2="56.6011" /><line stroke="rgb(0%,0%,0%)" x1="164.2032" x2="164.9487" y1="56.6011" y2="54.3065" /><line stroke="rgb(0%,0%,0%)" x1="164.9487" x2="165.1722" y1="54.3065" y2="53.6187" /><line stroke="rgb(0%,0%,0%)" x1="165.1722" x2="165.4244" y1="53.6187" y2="51.2192" /><line stroke="rgb(0%,0%,0%)" x1="165.4244" x2="165.5" y1="51.2192" y2="50.5" /><line stroke="rgb(0%,0%,0%)" x1="165.5" x2="165.2478" y1="50.5" y2="48.1006" /><line stroke="rgb(0%,0%,0%)" x1="165.2478" x2="165.1722" y1="48.1006" y2="47.3813" /><line stroke="rgb(0%,0%,0%)" x1="165.1722" x2="164.4267" y1="47.3813" y2="45.0868" /><line stroke="rgb(0%,0%,0%)" x1="164.4267" x2="164.2032" y1="45.0868" y2="44.3989" /><line stroke="rgb(0%,0%,0%)" x1="164.2032" x2="162.9969" y1="44.3989" y2="42.3095" /><line stroke="rgb(0%,0%,0%)" x1="162.9969" x2="162.6353" y1="42.3095" y2="41.6832" /><line stroke="rgb(0%,0%,0%)" x1="162.6353" x2="161.0209" y1="41.6832" y2="39.8903" /><line stroke="rgb(0%,0%,0%)" x1="161.0209" x2="160.537" y1="39.8903" y2="39.3528" /><line stroke="rgb(0%,0%,0%)" x1="160.537" x2="158.5851" y1="39.3528" y2="37.9347" /><line stroke="rgb(0%,0%,0%)" x1="158.5851" x2="158.0" y1="37.9347" y2="37.5096" /><line stroke="rgb(0%,0%,0%)" x1="158.0" x2="155.7959" y1="37.5096" y2="36.5283" /><line stroke="rgb(0%,0%,0%)" x1="155.7959" x2="155.1353" y1="36.5283" y2="36.2342" /><line stroke="rgb(0%,0%,0%)" x1="155.1353" x2="152.7753" y1="36.2342" y2="35.7325" /><line stroke="rgb(0%,0%,0%)" x1="152.7753" x2="152.0679" y1="35.7325" y2="35.5822" /><line stroke="rgb(0%,0%,0%)" x1="152.0679" x2="149.6553" y1="35.5822" y2="35.5822" /><line stroke="rgb(0%,0%,0%)" x1="149.6553" x2="148.9321" y1="35.5822" y2="35.5822" /><line stroke="rgb(0%,0%,0%)" x1="148.9321" x2="146.5721" y1="35.5822" y2="36.0838" /><line stroke="rgb(0%,0%,0%)" x1="146.5721" x2="145.8647" y1="36.0838" y2="36.2342" /><line stroke="rgb(0%,0%,0%)" x1="145.8647" x2="143.6607" y1="36.2342" y2="37.2155" /><line stroke="rgb(0%,0%,0%)" x1="143.6607" x2="143.0" y1="37.2155" y2="37.5096" /><line stroke="rgb(0%,0%,0%)" x1="143.0" x2="141.0481" y1="37.5096" y2="38.9277" /><line stroke="rgb(0%,0%,0%)" x1="141.0481" x2="140.463" y1="38.9277" y2="39.3528" /><line stroke="rgb(0%,0%,0%)" x1="140.463" x2="138.8487" y1="39.3528" y2="41.1458" /><line stroke="rgb(0%,0%,0%)" x1="138.8487" x2="138.3647" y1="41.1458" y2="41.6832" /><line stroke="rgb(0%,0%,0%)" x1="138.3647" x2="137.1584" y1="41.6832" y2="43.7726" /><line stroke="rgb(0%,0%,0%)" x1="137.1584" x2="136.7968" y1="43.7726" y2="44.3989" /><line stroke="rgb(0%,0%,0%)" x1="136.7968" x2="136.0513" y1="44.3989" y2="46.6935" /><line stroke="rgb(0%,0%,0%)" x1="136.0513" x2="135.8278" y1="46.6935" y2="47.3813" /><line stroke="rgb(0%,0%,0%)" x1="35.8278" x2="35.5756" y1="47.3813" y2="49.7808" /><line stroke="rgb(0%,0%,0%)" x1="35.5756" x2="35.5" y1="49.7808" y2="50.5" /><line stroke="rgb(0%,0%,0%)" x1="35.5" x2="35.7522" y1="50.5" y2="52.8994" /><line stroke="rgb(0%,0%,0%)" x1="35.7522" x2="35.8278" y1="52.8994" y2="53.6187" /><line stroke="rgb(0%,0%,0%)" x1="35.8278" x2="36.5733" y1="53.6187" y2="55.9132" /><line stroke="rgb(0%,0%,0%)" x1="36.5733" x2="36.7968" y1="55.9132" y2="56.6011" /><line stroke="rgb(0%,0%,0%)" x1="36.7968" x2="38.0031" y1="56.6011" y2="58.6905" /><line stroke="rgb(0%,0%,0%)" x1="38.0031" x2="38.3647" y1="58.6905" y2="59.3168" /><line stroke="rgb(0%,0%,0%)" x1="38.3647" x2="39.9791" y1="59.3168" y2="61.1097" /><line stroke="rgb(0%,0%,0%)" x1="39.9791" x2="40.463" y1="61.1097" y2="61.6472" /><line stroke="rgb(0%,0%,0%)" x1="40.463" x2="42.4149" y1="61.6472" y2="63.0653" /><line stroke="rgb(0%,0%,0%)" x1="42.4149" x2="43.0" y1="63.0653" y2="63.4904" /><line stroke="rgb(0%,0%,0%)" x1="43.0" x2="45.2041" y1="63.4904" y2="64.4717" /><line stroke="rgb(0%,0%,0%)" x1="45.2041" x2="45.8647" y1="64.4717" y2="64.7658" /><line stroke="rgb(0%,0%,0%)" x1="45.8647" x2="48.2247" y1="64.7658" y2="65.2675" /><line stroke="rgb(0%,0%,0%)" x1="48.2247" x2="48.9321" y1="65.2675" y2="65.4178" /><line stroke="rgb(0%,0%,0%)" x1="48.9321" x2="51.3447" y1="65.4178" y2="65.4178" /><line stroke="rgb(0%,0%,0%)" x1="51.3447" x2="52.0679" y1="65.4178" y2="65.4178" /><line stroke="rgb(0%,0%,0%)" x1="52.0679" x2="54.4279" y1="65.4178" y2="64.9162" /><line stroke="rgb(0%,0%,0%)" x1="54.4279" x2="55.1353" y1="64.9162" y2="64.7658" /><line stroke="rgb(0%,0%,0%)" x1="55.1353" x2="57.3393" y1="64.7658" y2="63.7845" /><line stroke="rgb(0%,0%,0%)" x1="57.3393" x2="58.0" y1="63.7845" y2="63.4904" /><line stroke="rgb(0%,0%,0%)" x1="58.0" x2="59.9519" y1="63.4904" y2="62.0723" /><line stroke="rgb(0%,0%,0%)" x1="59.9519" x2="60.537" y1="62.0723" y2="61.6472" /><line stroke="rgb(0%,0%,0%)" x1="60.537" x2="62.1513" y1="61.6472" y2="59.8542" /><line stroke="rgb(0%,0%,0%)" x1="62.1513" x2="62.6352" y1="59.8542" y2="59.3168" /><line stroke="rgb(0%,0%,0%)" x1="62.6352" x2="63.8416" y1="59.3168" y2="57.2274" /><line stroke="rgb(0%,0%,0%)" x1="63.8416" x2="64.2032" y1="57.2274" y2="56.6011" /><line stroke="rgb(0%,0%,0%)" x1="64.2032" x2="64.9487" y1="56.6011" y2="54.3065" /><line stroke="rgb(0%,0%,0%)" x1="64.9487" x2="65.1722" y1="54.3065" y2="53.6187" /><line stroke="rgb(0%,0%,0%)" x1="65.1722" x2="65.4244" y1="53.6187" y2="51.2192" /><line stroke="rgb(0%,0%,0%)" x1="65.4244" x2="65.5" y1="51.2192" y2="50.5" /><line stroke="rgb(0%,0%,0%)" x1="65.5" x2="65.2478" y1="50.5" y2="48.1006" /><line stroke="rgb(0%,0%,0%)" x1="65.2478" x2="65.1722" y1="48.1006" y2="47.3813" /><line stroke="rgb(0%,0%,0%)" x1="65.1722" x2="64.4267" y1="47.3813" y2="45.0868" /><line stroke="rgb(0%,0%,0%)" x1="64.4267" x2="64.2032" y1="45.0868" y2="44.3989" /><line stroke="rgb(0%,0%,0%)" x1="64.2032" x2="62.9968" y1="44.3989" y2="42.3095" /><line stroke="rgb(0%,0%,0%)" x1="62.9968" x2="62.6352" y1="42.3095" y2="41.6832" /><line stroke="rgb(0%,0%,0%)" x1="62.6352" x2="61.0209" y1="41.6832" y2="39.8903" /><line stroke="rgb(0%,0%,0%)" x1="61.0209" x2="60.537" y1="39.8903" y2="39.3528" /><line stroke="rgb(0%,0%,0%)" x1="60.537" x2="58.5851" y1="39.3528" y2="37.9347" /><line stroke="rgb(0%,0%,0%)" x1="58.5851" x2="58.0" y1="37.9347" y2="37.5096" /><line stroke="rgb(0%,0%,0%)" x1="58.0" x2="55.7959" y1="37.5096" y2="36.5283" /><line stroke="rgb(0%,0%,0%)" x1="55.7959" x2="55.1353" y1="36.5283" y2="36.2342" /><line stroke="rgb(0%,0%,0%)" x1="55.1353" x2="52.7753" y1="36.2342" y2="35.7325" /><line stroke="rgb(0%,0%,0%)" x1="52.7753" x2="52.0679" y1="35.7325" y2="35.5822" /><line stroke="rgb(0%,0%,0%)" x1="52.0679" x2="49.6553" y1="35.5822" y2="35.5822" /><line stroke="rgb(0%,0%,0%)" x1="49.6553" x2="48.9321" y1="35.5822" y2="35.5822" /><line stroke="rgb(0%,0%,0%)" x1="48.9321" x2="46.5721" y1="35.5822" y2="36.0838" /><line stroke="rgb(0%,0%,0%)" x1="46.5721" x2="45.8647" y1="36.0838" y2="36.2342" /><line stroke="rgb(0%,0%,0%)" x1="45.8647" x2="43.6607" y1="36.2342" y2="37.2155" /><line stroke="rgb(0%,0%,0%)" x1="43.6607" x2="43.0" y1="37.2155" y2="37.5096" /><line stroke="rgb(0%,0%,0%)" x1="43.0" x2="41.0481" y1="37.5096" y2="38.9277" /><line stroke="rgb(0%,0%,0%)" x1="41.0481" x2="40.463" y1="38.9277" y2="39.3528" /><line stroke="rgb(0%,0%,0%)" x1="40.463" x2="38.8487" y1="39.3528" y2="41.1458" /><line stroke="rgb(0%,0%,0%)" x1="38.8487" x2="38.3647" y1="41.1458" y2="41.6832" /><line stroke="rgb(0%,0%,0%)" x1="38.3647" x2="37.1584" y1="41.6832" y2="43.7726" /><line stroke="rgb(0%,0%,0%)" x1="37.1584" x2="36.7968" y1="43.7726" y2="44.3989" /><line stroke="rgb(0%,0%,0%)" x1="36.7968" x2="36.0513" y1="44.3989" y2="46.6935" /><line stroke="rgb(0%,0%,0%)" x1="36.0513" x2="35.8278" y1="46.6935" y2="47.3813" /></svg>