<?xml version="1.0" encoding="utf-8" ?>
<svg baseProfile="tiny" height="100%" version="1.2" width="100%" xmlns="http://www.w3.org/2000/svg" xmlns:ev="http://www.w3.org/2001/xml-events" xmlns:xlink="http://www.w3.org/1999/xlink"><defs /><line stroke="rgb(0%,0%,0%)" x1="351.9" x2="351.9" y1="0.5" y2="7.8444" /><line stroke="rgb(0%,0%,0%)" x1="351.9" x2="351.9" y1="7.8444" y2="100.5" /><line stroke="rgb(0%,0%,0%)" x1="339.1453" x2="349.2002" y1="100.5" y2="100.5" /><line stroke="rgb(0%,0%,0%)" x1="349.2002" x2="349.5508" y1="100.5" y2="100.5" /><line stroke="rgb(0%,0%,0%)" x1="349.5508" x2="349.9514" y1="100.5" y2="100.5" /><line stroke="rgb(0%,0%,0%)" x1="349.9514" x2="350.396" y1="100.5" y2="100.5" /><line stroke="rgb(0%,0%,0%)" x1="350.396" x2="350.8763" y1="100.5" y2="100.5" /><line stroke="rgb(0%,0%,0%)" x1="350.8763" x2="351.3816" y1="100.5" y2="100.5" /><line stroke="rgb(0%,0%,0%)" x1="351.3816" x2="351.9" y1="100.5" y2="100.5" /><line stroke="rgb(0%,0%,0%)" x1="339.1453" x2="17.6038" y1="100.5" y2="100.5" /><line stroke="rgb(0%,0%,0%)" x1="17.6038" x2="0.5" y1="100.5" y2="100.5" /><line stroke="rgb(0%,0%,0%)" x1="0.5" x2="17.6038" y1="0.5" y2="0.5" /><line stroke="rgb(0%,0%,0%)" x1="17.6038" x2="339.1453" y1="0.5" y2="0.5" /><line stroke="rgb(0%,0%,0%)" x1="339.1453" x2="349.2002" y1="0.5" y2="0.5" /><line stroke="rgb(0%,0%,0%)" x1="349.2002" x2="349.5508" y1="0.5" y2="0.5" /><line stroke="rgb(0%,0%,0%)" x1="349.5508" x2="349.9514" y1="0.5" y2="0.5" /><line stroke="rgb(0%,0%,0%)" x1="349.9514" x2="350.396" y1="0.5" y2="0.5" /><line stroke="rgb(0%,0%,0%)" x1="350.396" x2="350.8763" y1="0.5" y2="0.5" /><line stroke="rgb(0%,0%,0%)" x1="350.8763" x2="351.3816" y1="0.5" y2="0.5" /><line stroke="rgb(0%,0%,0%)" x1="351.3816" x2="351.9" y1="0.5" y2="0.5" /><line stroke="rgb(0%,0%,0%)" x1="0.5" x2="0.5" y1="0.5" y2="92.003" /><line stroke="rgb(0%,0%,0%)" x1="0.5" x2="0.5" y1="92.003" y2="100.5" /><line stroke="rgb(0%,0%,0%)" x1="165.1722" x2="165.4443" y1="47.3813" y2="49.97" /><line stroke="rgb(0%,0%,0%)" x1="165.4443" x2="165.5" y1="49.97" y2="50.5" /><line stroke="rgb(0%,0%,0%)" x1="165.5" x2="165.2279" y1="50.5" y2="53.0887" /><line stroke="rgb(0%,0%,0%)" x1="165.2279" x2="165.1722" y1="53.0887" y2="53.6187" /><line stroke="rgb(0%,0%,0%)" x1="165.1722" x2="164.3679" y1="53.6187" y2="56.0942" /><line stroke="rgb(0%,0%,0%)" x1="164.3679" x2="164.2032" y1="56.0942" y2="56.6011" /><line stroke="rgb(0%,0%,0%)" x1="164.2032" x2="162.9017" y1="56.6011" y2="58.8553" /><line stroke="rgb(0%,0%,0%)" x1="162.9017" x2="162.6353" y1="58.8553" y2="59.3168" /><line stroke="rgb(0%,0%,0%)" x1="162.6353" x2="160.8935" y1="59.3168" y2="61.2511" /><line stroke="rgb(0%,0%,0%)" x1="160.8935" x2="160.537" y1="61.2511" y2="61.6472" /><line stroke="rgb(0%,0%,0%)" x1="160.537" x2="158.4311" y1="61.6472" y2="63.1771" /><line stroke="rgb(0%,0%,0%)" x1="158.4311" x2="158.0" y1="63.1771" y2="63.4904" /><line stroke="rgb(0%,0%,0%)" x1="158.0" x2="155.6221" y1="63.4904" y2="64.5491" /><line stroke="rgb(0%,0%,0%)" x1="155.6221" x2="155.1353" y1="64.5491" y2="64.7658" /><line stroke="rgb(0%,0%,0%)" x1="155.1353" x2="152.5892" y1="64.7658" y2="65.307" /><line stroke="rgb(0%,0%,0%)" x1="152.5892" x2="152.0679" y1="65.307" y2="65.4178" /><line stroke="rgb(0%,0%,0%)" x1="152.0679" x2="149.465" y1="65.4178" y2="65.4178" /><line stroke="rgb(0%,0%,0%)" x1="149.465" x2="148.9321" y1="65.4178" y2="65.4178" /><line stroke="rgb(0%,0%,0%)" x1="148.9321" x2="146.386" y1="65.4178" y2="64.8766" /><line stroke="rgb(0%,0%,0%)" x1="146.386" x2="145.8647" y1="64.8766" y2="64.7658" /><line stroke="rgb(0%,0%,0%)" x1="145.8647" x2="143.4868" y1="64.7658" y2="63.7071" /><line stroke="rgb(0%,0%,0%)" x1="143.4868" x2="143.0" y1="63.7071" y2="63.4904" /><line stroke="rgb(0%,0%,0%)" x1="143.0" x2="140.8942" y1="63.4904" y2="61.9604" /><line stroke="rgb(0%,0%,0%)" x1="140.8942" x2="140.463" y1="61.9604" y2="61.6472" /><line stroke="rgb(0%,0%,0%)" x1="140.463" x2="138.7213" y1="61.6472" y2="59.7128" /><line stroke="rgb(0%,0%,0%)" x1="138.7213" x2="138.3647" y1="59.7128" y2="59.3168" /><line stroke="rgb(0%,0%,0%)" x1="138.3647" x2="137.0633" y1="59.3168" y2="57.0626" /><line stroke="rgb(0%,0%,0%)" x1="137.0633" x2="136.7968" y1="57.0626" y2="56.6011" /><line stroke="rgb(0%,0%,0%)" x1="136.7968" x2="135.9925" y1="56.6011" y2="54.1255" /><line stroke="rgb(0%,0%,0%)" x1="135.9925" x2="135.8278" y1="54.1255" y2="53.6187" /><line stroke="rgb(0%,0%,0%)" x1="135.8278" x2="135.5557" y1="53.6187" y2="51.03" /><line stroke="rgb(0%,0%,0%)" x1="135.5557" x2="135.5" y1="51.03" y2="50.5" /><line stroke="rgb(0%,0%,0%)" x1="135.5" x2="135.7721" y1="50.5" y2="47.9113" /><line stroke="rgb(0%,0%,0%)" x1="135.7721" x2="135.8278" y1="47.9113" y2="47.3813" /><line stroke="rgb(0%,0%,0%)" x1="135.8278" x2="136.6321" y1="47.3813" y2="44.9058" /><line stroke="rgb(0%,0%,0%)" x1="136.6321" x2="136.7968" y1="44.9058" y2="44.3989" /><line stroke="rgb(0%,0%,0%)" x1="136.7968" x2="138.0983" y1="44.3989" y2="42.1447" /><line stroke="rgb(0%,0%,0%)" x1="138.0983" x2="138.3647" y1="42.1447" y2="41.6832" /><line stroke="rgb(0%,0%,0%)" x1="138.3647" x2="140.1065" y1="41.6832" y2="39.7489" /><line stroke="rgb(0%,0%,0%)" x1="140.1065" x2="140.463" y1="39.7489" y2="39.3528" /><line stroke="rgb(0%,0%,0%)" x1="140.463" x2="142.5689" y1="39.3528" y2="37.8229" /><line stroke="rgb(0%,0%,0%)" x1="142.5689" x2="143.0" y1="37.8229" y2="37.5096" /><line stroke="rgb(0%,0%,0%)" x1="143.0" x2="145.3779" y1="37.5096" y2="36.4509" /><line stroke="rgb(0%,0%,0%)" x1="145.3779" x2="145.8647" y1="36.4509" y2="36.2342" /><line stroke="rgb(0%,0%,0%)" x1="145.8647" x2="148.4108" y1="36.2342" y2="35.693" /><line stroke="rgb(0%,0%,0%)" x1="148.4108" x2="148.9321" y1="35.693" y2="35.5822" /><line stroke="rgb(0%,0%,0%)" x1="148.9321" x2="151.535" y1="35.5822" y2="35.5822" /><line stroke="rgb(0%,0%,0%)" x1="151.535" x2="152.0679" y1="35.5822" y2="35.5822" /><line stroke="rgb(0%,0%,0%)" x1="152.0679" x2="154.614" y1="35.5822" y2="36.1234" /><line stroke="rgb(0%,0%,0%)" x1="154.614" x2="155.1353" y1="36.1234" y2="36.2342" /><line stroke="rgb(0%,0%,0%)" x1="155.1353" x2="157.5132" y1="36.2342" y2="37.2929" /><line stroke="rgb(0%,0%,0%)" x1="157.5132" x2="158.0" y1="37.2929" y2="37.5096" /><line stroke="rgb(0%,0%,0%)" x1="158.0" x2="160.1058" y1="37.5096" y2="39.0396" /><line stroke="rgb(0%,0%,0%)" x1="160.1058" x2="160.537" y1="39.0396" y2="39.3528" /><line stroke="rgb(0%,0%,0%)" x1="160.537" x2="162.2787" y1="39.3528" y2="41.2872" /><line stroke="rgb(0%,0%,0%)" x1="162.2787" x2="162.6353" y1="41.2872" y2="41.6832" /><line stroke="rgb(0%,0%,0%)" x1="162.6353" x2="163.9367" y1="41.6832" y2="43.9374" /><line stroke="rgb(0%,0%,0%)" x1="163.9367" x2="164.2032" y1="43.9374" y2="44.3989" /><line stroke="rgb(0%,0%,0%)" x1="164.2032" x2="165.0075" y1="44.3989" y2="46.8745" /><line stroke="rgb(0%,0%,0%)" x1="165.0075" x2="165.1722" y1="46.8745" y2="47.3813" /><line stroke="rgb(0%,0%,0%)" x1="65.1722" x2="65.4443" y1="47.3813" y2="49.97" /><line stroke="rgb(0%,0%,0%)" x1="65.4443" x2="65.5" y1="49.97" y2="50.5" /><line stroke="rgb(0%,0%,0%)" x1="65.5" x2="65.2279" y1="50.5" y2="53.0887" /><line stroke="rgb(0%,0%,0%)" x1="65.2279" x2="65.1722" y1="53.0887" y2="53.6187" /><line stroke="rgb(0%,0%,0%)" x1="65.1722" x2="64.3679" y1="53.6187" y2="56.0942" /><line stroke="rgb(0%,0%,0%)" x1="64.3679" x2="64.2032" y1="56.0942" y2="56.6011" /><line stroke="rgb(0%,0%,0%)" x1="64.2032" x2="62.9017" y1="56.6011" y2="58.8553" /><line stroke="rgb(0%,0%,0%)" x1="62.9017" x2="62.6352" y1="58.8553" y2="59.3168" /><line stroke="rgb(0%,0%,0%)" x1="62.6352" x2="60.8935" y1="59.3168" y2="61.2511" /><line stroke="rgb(0%,0%,0%)" x1="60.8935" x2="60.537" y1="61.2511" y2="61.6472" /><line stroke="rgb(0%,0%,0%)" x1="60.537" x2="58.4311" y1="61.6472" y2="63.1771" /><line stroke="rgb(0%,0%,0%)" x1="58.4311" x2="58.0" y1="63.1771" y2="63.4904" /><line stroke="rgb(0%,0%,0%)" x1="58.0" x2="55.6221" y1="63.4904" y2="64.5491" /><line stroke="rgb(0%,0%,0%)" x1="55.6221" x2="55.1353" y1="64.5491" y2="64.7658" /><line stroke="rgb(0%,0%,0%)" x1="55.1353" x2="52.5892" y1="64.7658" y2="65.307" /><line stroke="rgb(0%,0%,0%)" x1="52.5892" x2="52.0679" y1="65.307" y2="65.4178" /><line stroke="rgb(0%,0%,0%)" x1="52.0679" x2="49.465" y1="65.4178" y2="65.4178" /><line stroke="rgb(0%,0%,0%)" x1="49.465" x2="48.9321" y1="65.4178" y2="65.4178" /><line stroke="rgb(0%,0%,0%)" x1="48.9321" x2="46.386" y1="65.4178" y2="64.8766" /><line stroke="rgb(0%,0%,0%)" x1="46.386" x2="45.8647" y1="64.8766" y2="64.7658" /><line stroke="rgb(0%,0%,0%)" x1="45.8647" x2="43.4868" y1="64.7658" y2="63.7071" /><line stroke="rgb(0%,0%,0%)" x1="43.4868" x2="43.0" y1="63.7071" y2="63.4904" /><line stroke="rgb(0%,0%,0%)" x1="43.0" x2="40.8942" y1="63.4904" y2="61.9604" /><line stroke="rgb(0%,0%,0%)" x1="40.8942" x2="40.463" y1="61.9604" y2="61.6472" /><line stroke="rgb(0%,0%,0%)" x1="40.463" x2="38.7213" y1="61.6472" y2="59.7128" /><line stroke="rgb(0%,0%,0%)" x1="38.7213" x2="38.3647" y1="59.7128" y2="59.3168" /><line stroke="rgb(0%,0%,0%)" x1="38.3647" x2="37.0633" y1="59.3168" y2="57.0626" /><line stroke="rgb(0%,0%,0%)" x1="37.0633" x2="36.7968" y1="57.0626" y2="56.6011" /><line stroke="rgb(0%,0%,0%)" x1="36.7968" x2="35.9925" y1="56.6011" y2="54.1255" /><line stroke="rgb(0%,0%,0%)" x1="35.9925" x2="35.8278" y1="54.1255" y2="53.6187" /><line stroke="rgb(0%,0%,0%)" x1="35.8278" x2="35.5557" y1="53.6187" y2="51.03" /><line stroke="rgb(0%,0%,0%)" x1="35.5557" x2="35.5" y1="51.03" y2="50.5" /><line stroke="rgb(0%,0%,0%)" x1="35.5" x2="35.7721" y1="50.5" y2="47.9113" /><line stroke="rgb(0%,0%,0%)" x1="35.7721" x2="35.8278" y1="47.9113" y2="47.3813" /><line stroke="rgb(0%,0%,0%)" x1="35.8278" x2="36.6321" y1="47.3813" y2="44.9058" /><line stroke="rgb(0%,0%,0%)" x1="36.6321" x2="36.7968" y1="44.9058" y2="44.3989" /><line stroke="rgb(0%,0%,0%)" x1="36.7968" x2="38.0983" y1="44.3989" y2="42.1447" /><line stroke="rgb(0%,0%,0%)" x1="38.0983" x2="38.3647" y1="42.1447" y2="41.6832" /><line stroke="rgb(0%,0%,0%)" x1="38.3647" x2="40.1065" y1="41.6832" y2="39.7489" /><line stroke="rgb(0%,0%,0%)" x1="40.1065" x2="40.463" y1="39.7489" y2="39.3528" /><line stroke="rgb(0%,0%,0%)" x1="40.463" x2="42.5689" y1="39.3528" y2="37.8229" /><line stroke="rgb(0%,0%,0%)" x1="42.5689" x2="43.0" y1="37.8229" y2="37.5096" /><line stroke="rgb(0%,0%,0%)" x1="43.0" x2="45.3779" y1="37.5096" y2="36.4509" /><line stroke="rgb(0%,0%,0%)" x1="45.3779" x2="45.8647" y1="36.4509" y2="36.2342" /><line stroke="rgb(0%,0%,0%)" x1="45.8647" x2="48.4108" y1="36.2342" y2="35.693" /><line stroke="rgb(0%,0%,0%)" x1="48.4108" x2="48.9321" y1="35.693" y2="35.5822" /><line stroke="rgb(0%,0%,0%)" x1="48.9321" x2="51.535" y1="35.5822" y2="35.5822" /><line stroke="rgb(0%,0%,0%)" x1="51.535" x2="52.0679" y1="35.5822" y2="35.5822" /><line stroke="rgb(0%,0%,0%)" x1="52.0679" x2="54.614" y1="35.5822" y2="36.1234" /><line stroke="rgb(0%,0%,0%)" x1="54.614" x2="55.1353" y1="36.1234" y2="36.2342" /><line stroke="rgb(0%,0%,0%)" x1="55.1353" x2="57.5132" y1="36.2342" y2="37.2929" /><line stroke="rgb(0%,0%,0%)" x1="57.5132" x2="58.0" y1="37.2929" y2="37.5096" /><line stroke="rgb(0%,0%,0%)" x1="58.0" x2="60.1058" y1="37.5096" y2="39.0396" /><line stroke="rgb(0%,0%,0%)" x1="60.1058" x2="60.537" y1="39.0396" y2="39.3528" /><line stroke="rgb(0%,0%,0%)" x1="60.537" x2="62.2787" y1="39.3528" y2="41.2872" /><line stroke="rgb(0%,0%,0%)" x1="62.2787" x2="62.6352" y1="41.2872" y2="41.6832" /><line stroke="rgb(0%,0%,0%)" x1="62.6352" x2="63.9367" y1="41.6832" y2="43.9374" /><line stroke="rgb(0%,0%,0%)" x1="63.9367" x2="64.2032" y1="43.9374" y2="44.3989" /><line stroke="rgb(0%,0%,0%)" x1="64.2032" x2="65.0075" y1="44.3989" y2="46.8745" /><line stroke="rgb(0%,0%,0%)" x1="65.0075" x2="65.1722" y1="46.8745" y2="47.3813" /></svg>