<?xml version="1.0" encoding="utf-8" ?>
<svg baseProfile="tiny" height="100%" version="1.2" width="100%" xmlns="http://www.w3.org/2000/svg" xmlns:ev="http://www.w3.org/2001/xml-events" xmlns:xlink="http://www.w3.org/1999/xlink"><defs /><line stroke="rgb(0%,0%,0%)" x1="351.9" x2="351.9" y1="0.5" y2="77.8317" /><line stroke="rgb(0%,0%,0%)" x1="351.9" x2="351.9" y1="77.8317" y2="100.5" /><line stroke="rgb(0%,0%,0%)" x1="217.6008" x2="323.4722" y1="100.5" y2="100.5" /><line stroke="rgb(0%,0%,0%)" x1="323.4722" x2="327.1645" y1="100.5" y2="100.5" /><line stroke="rgb(0%,0%,0%)" x1="327.1645" x2="331.3827" y1="100.5" y2="100.5" /><line stroke="rgb(0%,0%,0%)" x1="331.3827" x2="336.0642" y1="100.5" y2="100.5" /><line stroke="rgb(0%,0%,0%)" x1="336.0642" x2="341.1209" y1="100.5" y2="100.5" /><line stroke="rgb(0%,0%,0%)" x1="341.1209" x2="346.4421" y1="100.5" y2="100.5" /><line stroke="rgb(0%,0%,0%)" x1="346.4421" x2="351.9" y1="100.5" y2="100.5" /><line stroke="rgb(0%,0%,0%)" x1="217.6008" x2="180.5932" y1="100.5" y2="100.5" /><line stroke="rgb(0%,0%,0%)" x1="180.5932" x2="0.5" y1="100.5" y2="100.5" /><line stroke="rgb(0%,0%,0%)" x1="0.5" x2="180.5932" y1="0.5" y2="0.5" /><line stroke="rgb(0%,0%,0%)" x1="180.5932" x2="217.6008" y1="0.5" y2="0.5" /><line stroke="rgb(0%,0%,0%)" x1="217.6008" x2="323.4722" y1="0.5" y2="0.5" /><line stroke="rgb(0%,0%,0%)" x1="323.4722" x2="327.1645" y1="0.5" y2="0.5" /><line stroke="rgb(0%,0%,0%)" x1="327.1645" x2="331.3827" y1="0.5" y2="0.5" /><line stroke="rgb(0%,0%,0%)" x1="331.3827" x2="336.0642" y1="0.5" y2="0.5" /><line stroke="rgb(0%,0%,0%)" x1="336.0642" x2="341.1209" y1="0.5" y2="0.5" /><line stroke="rgb(0%,0%,0%)" x1="341.1209" x2="346.4421" y1="0.5" y2="0.5" /><line stroke="rgb(0%,0%,0%)" x1="346.4421" x2="351.9" y1="0.5" y2="0.5" /><line stroke="rgb(0%,0%,0%)" x1="0.5" x2="0.5" y1="0.5" y2="11.0315" /><line stroke="rgb(0%,0%,0%)" x1="0.5" x2="0.5" y1="11.0315" y2="100.5" /><line stroke="rgb(0%,0%,0%)" x1="135.8278" x2="135.569" y1="47.3813" y2="49.8431" /><line stroke="rgb(0%,0%,0%)" x1="135.569" x2="135.5" y1="49.8431" y2="50.5" /><line stroke="rgb(0%,0%,0%)" x1="135.5" x2="135.7587" y1="50.5" y2="52.9618" /><line stroke="rgb(0%,0%,0%)" x1="135.7587" x2="135.8278" y1="52.9618" y2="53.6187" /><line stroke="rgb(0%,0%,0%)" x1="135.8278" x2="136.5927" y1="53.6187" y2="55.9729" /><line stroke="rgb(0%,0%,0%)" x1="136.5927" x2="136.7968" y1="55.9729" y2="56.6011" /><line stroke="rgb(0%,0%,0%)" x1="136.7968" x2="138.0345" y1="56.6011" y2="58.7448" /><line stroke="rgb(0%,0%,0%)" x1="138.0345" x2="138.3647" y1="58.7448" y2="59.3168" /><line stroke="rgb(0%,0%,0%)" x1="138.3647" x2="140.0211" y1="59.3168" y2="61.1563" /><line stroke="rgb(0%,0%,0%)" x1="140.0211" x2="140.463" y1="61.1563" y2="61.6472" /><line stroke="rgb(0%,0%,0%)" x1="140.463" x2="142.4656" y1="61.6472" y2="63.1021" /><line stroke="rgb(0%,0%,0%)" x1="142.4656" x2="143.0" y1="63.1021" y2="63.4904" /><line stroke="rgb(0%,0%,0%)" x1="143.0" x2="145.2613" y1="63.4904" y2="64.4972" /><line stroke="rgb(0%,0%,0%)" x1="145.2613" x2="145.8647" y1="64.4972" y2="64.7658" /><line stroke="rgb(0%,0%,0%)" x1="145.8647" x2="148.286" y1="64.7658" y2="65.2805" /><line stroke="rgb(0%,0%,0%)" x1="148.286" x2="148.9321" y1="65.2805" y2="65.4178" /><line stroke="rgb(0%,0%,0%)" x1="148.9321" x2="151.4074" y1="65.4178" y2="65.4178" /><line stroke="rgb(0%,0%,0%)" x1="151.4074" x2="152.0679" y1="65.4178" y2="65.4178" /><line stroke="rgb(0%,0%,0%)" x1="152.0679" x2="154.4892" y1="65.4178" y2="64.9032" /><line stroke="rgb(0%,0%,0%)" x1="154.4892" x2="155.1353" y1="64.9032" y2="64.7658" /><line stroke="rgb(0%,0%,0%)" x1="155.1353" x2="157.3966" y1="64.7658" y2="63.759" /><line stroke="rgb(0%,0%,0%)" x1="157.3966" x2="158.0" y1="63.759" y2="63.4904" /><line stroke="rgb(0%,0%,0%)" x1="158.0" x2="160.0026" y1="63.4904" y2="62.0354" /><line stroke="rgb(0%,0%,0%)" x1="160.0026" x2="160.537" y1="62.0354" y2="61.6472" /><line stroke="rgb(0%,0%,0%)" x1="160.537" x2="162.1933" y1="61.6472" y2="59.8076" /><line stroke="rgb(0%,0%,0%)" x1="162.1933" x2="162.6353" y1="59.8076" y2="59.3168" /><line stroke="rgb(0%,0%,0%)" x1="162.6353" x2="163.8729" y1="59.3168" y2="57.1731" /><line stroke="rgb(0%,0%,0%)" x1="163.8729" x2="164.2032" y1="57.1731" y2="56.6011" /><line stroke="rgb(0%,0%,0%)" x1="164.2032" x2="164.9681" y1="56.6011" y2="54.2469" /><line stroke="rgb(0%,0%,0%)" x1="164.9681" x2="165.1722" y1="54.2469" y2="53.6187" /><line stroke="rgb(0%,0%,0%)" x1="165.1722" x2="165.431" y1="53.6187" y2="51.1569" /><line stroke="rgb(0%,0%,0%)" x1="165.431" x2="165.5" y1="51.1569" y2="50.5" /><line stroke="rgb(0%,0%,0%)" x1="165.5" x2="165.2413" y1="50.5" y2="48.0382" /><line stroke="rgb(0%,0%,0%)" x1="165.2413" x2="165.1722" y1="48.0382" y2="47.3813" /><line stroke="rgb(0%,0%,0%)" x1="165.1722" x2="164.4073" y1="47.3813" y2="45.0271" /><line stroke="rgb(0%,0%,0%)" x1="164.4073" x2="164.2032" y1="45.0271" y2="44.3989" /><line stroke="rgb(0%,0%,0%)" x1="164.2032" x2="162.9655" y1="44.3989" y2="42.2552" /><line stroke="rgb(0%,0%,0%)" x1="162.9655" x2="162.6353" y1="42.2552" y2="41.6832" /><line stroke="rgb(0%,0%,0%)" x1="162.6353" x2="160.9789" y1="41.6832" y2="39.8437" /><line stroke="rgb(0%,0%,0%)" x1="160.9789" x2="160.537" y1="39.8437" y2="39.3528" /><line stroke="rgb(0%,0%,0%)" x1="160.537" x2="158.5344" y1="39.3528" y2="37.8979" /><line stroke="rgb(0%,0%,0%)" x1="158.5344" x2="158.0" y1="37.8979" y2="37.5096" /><line stroke="rgb(0%,0%,0%)" x1="158.0" x2="155.7387" y1="37.5096" y2="36.5028" /><line stroke="rgb(0%,0%,0%)" x1="155.7387" x2="155.1353" y1="36.5028" y2="36.2342" /><line stroke="rgb(0%,0%,0%)" x1="155.1353" x2="152.714" y1="36.2342" y2="35.7195" /><line stroke="rgb(0%,0%,0%)" x1="152.714" x2="152.0679" y1="35.7195" y2="35.5822" /><line stroke="rgb(0%,0%,0%)" x1="152.0679" x2="149.5926" y1="35.5822" y2="35.5822" /><line stroke="rgb(0%,0%,0%)" x1="149.5926" x2="148.9321" y1="35.5822" y2="35.5822" /><line stroke="rgb(0%,0%,0%)" x1="148.9321" x2="146.5108" y1="35.5822" y2="36.0968" /><line stroke="rgb(0%,0%,0%)" x1="146.5108" x2="145.8647" y1="36.0968" y2="36.2342" /><line stroke="rgb(0%,0%,0%)" x1="145.8647" x2="143.6034" y1="36.2342" y2="37.241" /><line stroke="rgb(0%,0%,0%)" x1="143.6034" x2="143.0" y1="37.241" y2="37.5096" /><line stroke="rgb(0%,0%,0%)" x1="143.0" x2="140.9974" y1="37.5096" y2="38.9646" /><line stroke="rgb(0%,0%,0%)" x1="140.9974" x2="140.463" y1="38.9646" y2="39.3528" /><line stroke="rgb(0%,0%,0%)" x1="140.463" x2="138.8067" y1="39.3528" y2="41.1924" /><line stroke="rgb(0%,0%,0%)" x1="138.8067" x2="138.3647" y1="41.1924" y2="41.6832" /><line stroke="rgb(0%,0%,0%)" x1="138.3647" x2="137.1271" y1="41.6832" y2="43.8269" /><line stroke="rgb(0%,0%,0%)" x1="137.1271" x2="136.7968" y1="43.8269" y2="44.3989" /><line stroke="rgb(0%,0%,0%)" x1="136.7968" x2="136.0319" y1="44.3989" y2="46.7531" /><line stroke="rgb(0%,0%,0%)" x1="136.0319" x2="135.8278" y1="46.7531" y2="47.3813" /><line stroke="rgb(0%,0%,0%)" x1="35.8278" x2="35.569" y1="47.3813" y2="49.8431" /><line stroke="rgb(0%,0%,0%)" x1="35.569" x2="35.5" y1="49.8431" y2="50.5" /><line stroke="rgb(0%,0%,0%)" x1="35.5" x2="35.7587" y1="50.5" y2="52.9618" /><line stroke="rgb(0%,0%,0%)" x1="35.7587" x2="35.8278" y1="52.9618" y2="53.6187" /><line stroke="rgb(0%,0%,0%)" x1="35.8278" x2="36.5927" y1="53.6187" y2="55.9729" /><line stroke="rgb(0%,0%,0%)" x1="36.5927" x2="36.7968" y1="55.9729" y2="56.6011" /><line stroke="rgb(0%,0%,0%)" x1="36.7968" x2="38.0345" y1="56.6011" y2="58.7448" /><line stroke="rgb(0%,0%,0%)" x1="38.0345" x2="38.3647" y1="58.7448" y2="59.3168" /><line stroke="rgb(0%,0%,0%)" x1="38.3647" x2="40.0211" y1="59.3168" y2="61.1563" /><line stroke="rgb(0%,0%,0%)" x1="40.0211" x2="40.463" y1="61.1563" y2="61.6472" /><line stroke="rgb(0%,0%,0%)" x1="40.463" x2="42.4656" y1="61.6472" y2="63.1021" /><line stroke="rgb(0%,0%,0%)" x1="42.4656" x2="43.0" y1="63.1021" y2="63.4904" /><line stroke="rgb(0%,0%,0%)" x1="43.0" x2="45.2613" y1="63.4904" y2="64.4972" /><line stroke="rgb(0%,0%,0%)" x1="45.2613" x2="45.8647" y1="64.4972" y2="64.7658" /><line stroke="rgb(0%,0%,0%)" x1="45.8647" x2="48.286" y1="64.7658" y2="65.2805" /><line stroke="rgb(0%,0%,0%)" x1="48.286" x2="48.9321" y1="65.2805" y2="65.4178" /><line stroke="rgb(0%,0%,0%)" x1="48.9321" x2="51.4074" y1="65.4178" y2="65.4178" /><line stroke="rgb(0%,0%,0%)" x1="51.4074" x2="52.0679" y1="65.4178" y2="65.4178" /><line stroke="rgb(0%,0%,0%)" x1="52.0679" x2="54.4892" y1="65.4178" y2="64.9032" /><line stroke="rgb(0%,0%,0%)" x1="54.4892" x2="55.1353" y1="64.9032" y2="64.7658" /><line stroke="rgb(0%,0%,0%)" x1="55.1353" x2="57.3966" y1="64.7658" y2="63.759" /><line stroke="rgb(0%,0%,0%)" x1="57.3966" x2="58.0" y1="63.759" y2="63.4904" /><line stroke="rgb(0%,0%,0%)" x1="58.0" x2="60.0026" y1="63.4904" y2="62.0354" /><line stroke="rgb(0%,0%,0%)" x1="60.0026" x2="60.537" y1="62.0354" y2="61.6472" /><line stroke="rgb(0%,0%,0%)" x1="60.537" x2="62.1933" y1="61.6472" y2="59.8076" /><line stroke="rgb(0%,0%,0%)" x1="62.1933" x2="62.6352" y1="59.8076" y2="59.3168" /><line stroke="rgb(0%,0%,0%)" x1="62.6352" x2="63.8729" y1="59.3168" y2="57.1731" /><line stroke="rgb(0%,0%,0%)" x1="63.8729" x2="64.2032" y1="57.1731" y2="56.6011" /><line stroke="rgb(0%,0%,0%)" x1="64.2032" x2="64.9681" y1="56.6011" y2="54.2469" /><line stroke="rgb(0%,0%,0%)" x1="64.9681" x2="65.1722" y1="54.2469" y2="53.6187" /><line stroke="rgb(0%,0%,0%)" x1="65.1722" x2="65.431" y1="53.6187" y2="51.1569" /><line stroke="rgb(0%,0%,0%)" x1="65.431" x2="65.5" y1="51.1569" y2="50.5" /><line stroke="rgb(0%,0%,0%)" x1="65.5" x2="65.2413" y1="50.5" y2="48.0382" /><line stroke="rgb(0%,0%,0%)" x1="65.2413" x2="65.1722" y1="48.0382" y2="47.3813" /><line stroke="rgb(0%,0%,0%)" x1="65.1722" x2="64.4073" y1="47.3813" y2="45.0271" /><line stroke="rgb(0%,0%,0%)" x1="64.4073" x2="64.2032" y1="45.0271" y2="44.3989" /><line stroke="rgb(0%,0%,0%)" x1="64.2032" x2="62.9655" y1="44.3989" y2="42.2552" /><line stroke="rgb(0%,0%,0%)" x1="62.9655" x2="62.6352" y1="42.2552" y2="41.6832" /><line stroke="rgb(0%,0%,0%)" x1="62.6352" x2="60.9789" y1="41.6832" y2="39.8437" /><line stroke="rgb(0%,0%,0%)" x1="60.9789" x2="60.537" y1="39.8437" y2="39.3528" /><line stroke="rgb(0%,0%,0%)" x1="60.537" x2="58.5344" y1="39.3528" y2="37.8979" /><line stroke="rgb(0%,0%,0%)" x1="58.5344" x2="58.0" y1="37.8979" y2="37.5096" /><line stroke="rgb(0%,0%,0%)" x1="58.0" x2="55.7387" y1="37.5096" y2="36.5028" /><line stroke="rgb(0%,0%,0%)" x1="55.7387" x2="55.1353" y1="36.5028" y2="36.2342" /><line stroke="rgb(0%,0%,0%)" x1="55.1353" x2="52.714" y1="36.2342" y2="35.7195" /><line stroke="rgb(0%,0%,0%)" x1="52.714" x2="52.0679" y1="35.7195" y2="35.5822" /><line stroke="rgb(0%,0%,0%)" x1="52.0679" x2="49.5926" y1="35.5822" y2="35.5822" /><line stroke="rgb(0%,0%,0%)" x1="49.5926" x2="48.9321" y1="35.5822" y2="35.5822" /><line stroke="rgb(0%,0%,0%)" x1="48.9321" x2="46.5108" y1="35.5822" y2="36.0968" /><line stroke="rgb(0%,0%,0%)" x1="46.5108" x2="45.8647" y1="36.0968" y2="36.2342" /><line stroke="rgb(0%,0%,0%)" x1="45.8647" x2="43.6034" y1="36.2342" y2="37.241" /><line stroke="rgb(0%,0%,0%)" x1="43.6034" x2="43.0" y1="37.241" y2="37.5096" /><line stroke="rgb(0%,0%,0%)" x1="43.0" x2="40.9974" y1="37.5096" y2="38.9646" /><line stroke="rgb(0%,0%,0%)" x1="40.9974" x2="40.463" y1="38.9646" y2="39.3528" /><line stroke="rgb(0%,0%,0%)" x1="40.463" x2="38.8067" y1="39.3528" y2="41.1924" /><line stroke="rgb(0%,0%,0%)" x1="38.8067" x2="38.3647" y1="41.1924" y2="41.6832" /><line stroke="rgb(0%,0%,0%)" x1="38.3647" x2="37.1271" y1="41.6832" y2="43.8269" /><line stroke="rgb(0%,0%,0%)" x1="37.1271" x2="36.7968" y1="43.8269" y2="44.3989" /><line stroke="rgb(0%,0%,0%)" x1="36.7968" x2="36.0319" y1="44.3989" y2="46.7531" /><line stroke="rgb(0%,0%,0%)" x1="36.0319" x2="35.8278" y1="46.7531" y2="47.3813" /></svg>