<?xml version="1.0" encoding="utf-8" ?>
<svg baseProfile="tiny" height="100%" version="1.2" width="100%" xmlns="http://www.w3.org/2000/svg" xmlns:ev="http://www.w3.org/2001/xml-events" xmlns:xlink="http://www.w3.org/1999/xlink"><defs /><line stroke="rgb(0%,0%,0%)" x1="351.9" x2="351.9" y1="0.5" y2="78.6958" /><line stroke="rgb(0%,0%,0%)" x1="351.9" x2="351.9" y1="78.6958" y2="100.5" /><line stroke="rgb(0%,0%,0%)" x1="216.1003" x2="323.1546" y1="100.5" y2="100.5" /><line stroke="rgb(0%,0%,0%)" x1="323.1546" x2="326.8882" y1="100.5" y2="100.5" /><line stroke="rgb(0%,0%,0%)" x1="326.8882" x2="331.1535" y1="100.5" y2="100.5" /><line stroke="rgb(0%,0%,0%)" x1="331.1535" x2="335.8873" y1="100.5" y2="100.5" /><line stroke="rgb(0%,0%,0%)" x1="335.8873" x2="341.0005" y1="100.5" y2="100.5" /><line stroke="rgb(0%,0%,0%)" x1="341.0005" x2="346.3811" y1="100.5" y2="100.5" /><line stroke="rgb(0%,0%,0%)" x1="346.3811" x2="351.9" y1="100.5" y2="100.5" /><line stroke="rgb(0%,0%,0%)" x1="216.1003" x2="182.6054" y1="100.5" y2="100.5" /><line stroke="rgb(0%,0%,0%)" x1="182.6054" x2="0.5" y1="100.5" y2="100.5" /><line stroke="rgb(0%,0%,0%)" x1="0.5" x2="182.6054" y1="0.5" y2="0.5" /><line stroke="rgb(0%,0%,0%)" x1="182.6054" x2="216.1003" y1="0.5" y2="0.5" /><line stroke="rgb(0%,0%,0%)" x1="216.1003" x2="323.1546" y1="0.5" y2="0.5" /><line stroke="rgb(0%,0%,0%)" x1="323.1546" x2="326.8882" y1="0.5" y2="0.5" /><line stroke="rgb(0%,0%,0%)" x1="326.8882" x2="331.1535" y1="0.5" y2="0.5" /><line stroke="rgb(0%,0%,0%)" x1="331.1535" x2="335.8873" y1="0.5" y2="0.5" /><line stroke="rgb(0%,0%,0%)" x1="335.8873" x2="341.0005" y1="0.5" y2="0.5" /><line stroke="rgb(0%,0%,0%)" x1="341.0005" x2="346.3811" y1="0.5" y2="0.5" /><line stroke="rgb(0%,0%,0%)" x1="346.3811" x2="351.9" y1="0.5" y2="0.5" /><line stroke="rgb(0%,0%,0%)" x1="0.5" x2="0.5" y1="0.5" y2="10.0318" /><line stroke="rgb(0%,0%,0%)" x1="0.5" x2="0.5" y1="10.0318" y2="100.5" /><line stroke="rgb(0%,0%,0%)" x1="135.8278" x2="135.5625" y1="47.3813" y2="49.9055" /><line stroke="rgb(0%,0%,0%)" x1="135.5625" x2="135.5" y1="49.9055" y2="50.5" /><line stroke="rgb(0%,0%,0%)" x1="135.5" x2="135.7653" y1="50.5" y2="53.0241" /><line stroke="rgb(0%,0%,0%)" x1="135.7653" x2="135.8278" y1="53.0241" y2="53.6187" /><line stroke="rgb(0%,0%,0%)" x1="135.8278" x2="136.6121" y1="53.6187" y2="56.0325" /><line stroke="rgb(0%,0%,0%)" x1="136.6121" x2="136.7968" y1="56.0325" y2="56.6011" /><line stroke="rgb(0%,0%,0%)" x1="136.7968" x2="138.0658" y1="56.6011" y2="58.7991" /><line stroke="rgb(0%,0%,0%)" x1="138.0658" x2="138.3647" y1="58.7991" y2="59.3168" /><line stroke="rgb(0%,0%,0%)" x1="138.3647" x2="140.063" y1="59.3168" y2="61.2029" /><line stroke="rgb(0%,0%,0%)" x1="140.063" x2="140.463" y1="61.2029" y2="61.6472" /><line stroke="rgb(0%,0%,0%)" x1="140.463" x2="142.5164" y1="61.6472" y2="63.139" /><line stroke="rgb(0%,0%,0%)" x1="142.5164" x2="143.0" y1="63.139" y2="63.4904" /><line stroke="rgb(0%,0%,0%)" x1="143.0" x2="145.3186" y1="63.4904" y2="64.5227" /><line stroke="rgb(0%,0%,0%)" x1="145.3186" x2="145.8647" y1="64.5227" y2="64.7658" /><line stroke="rgb(0%,0%,0%)" x1="145.8647" x2="148.3473" y1="64.7658" y2="65.2935" /><line stroke="rgb(0%,0%,0%)" x1="148.3473" x2="148.9321" y1="65.2935" y2="65.4178" /><line stroke="rgb(0%,0%,0%)" x1="148.9321" x2="151.4701" y1="65.4178" y2="65.4178" /><line stroke="rgb(0%,0%,0%)" x1="151.4701" x2="152.0679" y1="65.4178" y2="65.4178" /><line stroke="rgb(0%,0%,0%)" x1="152.0679" x2="154.5505" y1="65.4178" y2="64.8901" /><line stroke="rgb(0%,0%,0%)" x1="154.5505" x2="155.1353" y1="64.8901" y2="64.7658" /><line stroke="rgb(0%,0%,0%)" x1="155.1353" x2="157.4539" y1="64.7658" y2="63.7335" /><line stroke="rgb(0%,0%,0%)" x1="157.4539" x2="158.0" y1="63.7335" y2="63.4904" /><line stroke="rgb(0%,0%,0%)" x1="158.0" x2="160.0533" y1="63.4904" y2="61.9986" /><line stroke="rgb(0%,0%,0%)" x1="160.0533" x2="160.537" y1="61.9986" y2="61.6472" /><line stroke="rgb(0%,0%,0%)" x1="160.537" x2="162.2352" y1="61.6472" y2="59.761" /><line stroke="rgb(0%,0%,0%)" x1="162.2352" x2="162.6353" y1="59.761" y2="59.3168" /><line stroke="rgb(0%,0%,0%)" x1="162.6353" x2="163.9043" y1="59.3168" y2="57.1188" /><line stroke="rgb(0%,0%,0%)" x1="163.9043" x2="164.2032" y1="57.1188" y2="56.6011" /><line stroke="rgb(0%,0%,0%)" x1="164.2032" x2="164.9875" y1="56.6011" y2="54.1872" /><line stroke="rgb(0%,0%,0%)" x1="164.9875" x2="165.1722" y1="54.1872" y2="53.6187" /><line stroke="rgb(0%,0%,0%)" x1="165.1722" x2="165.4375" y1="53.6187" y2="51.0945" /><line stroke="rgb(0%,0%,0%)" x1="165.4375" x2="165.5" y1="51.0945" y2="50.5" /><line stroke="rgb(0%,0%,0%)" x1="165.5" x2="165.2347" y1="50.5" y2="47.9759" /><line stroke="rgb(0%,0%,0%)" x1="165.2347" x2="165.1722" y1="47.9759" y2="47.3813" /><line stroke="rgb(0%,0%,0%)" x1="165.1722" x2="164.3879" y1="47.3813" y2="44.9675" /><line stroke="rgb(0%,0%,0%)" x1="164.3879" x2="164.2032" y1="44.9675" y2="44.3989" /><line stroke="rgb(0%,0%,0%)" x1="164.2032" x2="162.9342" y1="44.3989" y2="42.2009" /><line stroke="rgb(0%,0%,0%)" x1="162.9342" x2="162.6353" y1="42.2009" y2="41.6832" /><line stroke="rgb(0%,0%,0%)" x1="162.6353" x2="160.937" y1="41.6832" y2="39.7971" /><line stroke="rgb(0%,0%,0%)" x1="160.937" x2="160.537" y1="39.7971" y2="39.3528" /><line stroke="rgb(0%,0%,0%)" x1="160.537" x2="158.4836" y1="39.3528" y2="37.861" /><line stroke="rgb(0%,0%,0%)" x1="158.4836" x2="158.0" y1="37.861" y2="37.5096" /><line stroke="rgb(0%,0%,0%)" x1="158.0" x2="155.6814" y1="37.5096" y2="36.4773" /><line stroke="rgb(0%,0%,0%)" x1="155.6814" x2="155.1353" y1="36.4773" y2="36.2342" /><line stroke="rgb(0%,0%,0%)" x1="155.1353" x2="152.6527" y1="36.2342" y2="35.7065" /><line stroke="rgb(0%,0%,0%)" x1="152.6527" x2="152.0679" y1="35.7065" y2="35.5822" /><line stroke="rgb(0%,0%,0%)" x1="152.0679" x2="149.5299" y1="35.5822" y2="35.5822" /><line stroke="rgb(0%,0%,0%)" x1="149.5299" x2="148.9321" y1="35.5822" y2="35.5822" /><line stroke="rgb(0%,0%,0%)" x1="148.9321" x2="146.4495" y1="35.5822" y2="36.1099" /><line stroke="rgb(0%,0%,0%)" x1="146.4495" x2="145.8647" y1="36.1099" y2="36.2342" /><line stroke="rgb(0%,0%,0%)" x1="145.8647" x2="143.5461" y1="36.2342" y2="37.2665" /><line stroke="rgb(0%,0%,0%)" x1="143.5461" x2="143.0" y1="37.2665" y2="37.5096" /><line stroke="rgb(0%,0%,0%)" x1="143.0" x2="140.9467" y1="37.5096" y2="39.0014" /><line stroke="rgb(0%,0%,0%)" x1="140.9467" x2="140.463" y1="39.0014" y2="39.3528" /><line stroke="rgb(0%,0%,0%)" x1="140.463" x2="138.7648" y1="39.3528" y2="41.239" /><line stroke="rgb(0%,0%,0%)" x1="138.7648" x2="138.3647" y1="41.239" y2="41.6832" /><line stroke="rgb(0%,0%,0%)" x1="138.3647" x2="137.0957" y1="41.6832" y2="43.8812" /><line stroke="rgb(0%,0%,0%)" x1="137.0957" x2="136.7968" y1="43.8812" y2="44.3989" /><line stroke="rgb(0%,0%,0%)" x1="136.7968" x2="136.0125" y1="44.3989" y2="46.8128" /><line stroke="rgb(0%,0%,0%)" x1="136.0125" x2="135.8278" y1="46.8128" y2="47.3813" /><line stroke="rgb(0%,0%,0%)" x1="35.8278" x2="35.5625" y1="47.3813" y2="49.9055" /><line stroke="rgb(0%,0%,0%)" x1="35.5625" x2="35.5" y1="49.9055" y2="50.5" /><line stroke="rgb(0%,0%,0%)" x1="35.5" x2="35.7653" y1="50.5" y2="53.0241" /><line stroke="rgb(0%,0%,0%)" x1="35.7653" x2="35.8278" y1="53.0241" y2="53.6187" /><line stroke="rgb(0%,0%,0%)" x1="35.8278" x2="36.6121" y1="53.6187" y2="56.0325" /><line stroke="rgb(0%,0%,0%)" x1="36.6121" x2="36.7968" y1="56.0325" y2="56.6011" /><line stroke="rgb(0%,0%,0%)" x1="36.7968" x2="38.0658" y1="56.6011" y2="58.7991" /><line stroke="rgb(0%,0%,0%)" x1="38.0658" x2="38.3647" y1="58.7991" y2="59.3168" /><line stroke="rgb(0%,0%,0%)" x1="38.3647" x2="40.063" y1="59.3168" y2="61.2029" /><line stroke="rgb(0%,0%,0%)" x1="40.063" x2="40.463" y1="61.2029" y2="61.6472" /><line stroke="rgb(0%,0%,0%)" x1="40.463" x2="42.5164" y1="61.6472" y2="63.139" /><line stroke="rgb(0%,0%,0%)" x1="42.5164" x2="43.0" y1="63.139" y2="63.4904" /><line stroke="rgb(0%,0%,0%)" x1="43.0" x2="45.3186" y1="63.4904" y2="64.5227" /><line stroke="rgb(0%,0%,0%)" x1="45.3186" x2="45.8647" y1="64.5227" y2="64.7658" /><line stroke="rgb(0%,0%,0%)" x1="45.8647" x2="48.3473" y1="64.7658" y2="65.2935" /><line stroke="rgb(0%,0%,0%)" x1="48.3473" x2="48.9321" y1="65.2935" y2="65.4178" /><line stroke="rgb(0%,0%,0%)" x1="48.9321" x2="51.4701" y1="65.4178" y2="65.4178" /><line stroke="rgb(0%,0%,0%)" x1="51.4701" x2="52.0679" y1="65.4178" y2="65.4178" /><line stroke="rgb(0%,0%,0%)" x1="52.0679" x2="54.5505" y1="65.4178" y2="64.8901" /><line stroke="rgb(0%,0%,0%)" x1="54.5505" x2="55.1353" y1="64.8901" y2="64.7658" /><line stroke="rgb(0%,0%,0%)" x1="55.1353" x2="57.4539" y1="64.7658" y2="63.7335" /><line stroke="rgb(0%,0%,0%)" x1="57.4539" x2="58.0" y1="63.7335" y2="63.4904" /><line stroke="rgb(0%,0%,0%)" x1="58.0" x2="60.0533" y1="63.4904" y2="61.9986" /><line stroke="rgb(0%,0%,0%)" x1="60.0533" x2="60.537" y1="61.9986" y2="61.6472" /><line stroke="rgb(0%,0%,0%)" x1="60.537" x2="62.2352" y1="61.6472" y2="59.761" /><line stroke="rgb(0%,0%,0%)" x1="62.2352" x2="62.6352" y1="59.761" y2="59.3168" /><line stroke="rgb(0%,0%,0%)" x1="62.6352" x2="63.9043" y1="59.3168" y2="57.1188" /><line stroke="rgb(0%,0%,0%)" x1="63.9043" x2="64.2032" y1="57.1188" y2="56.6011" /><line stroke="rgb(0%,0%,0%)" x1="64.2032" x2="64.9875" y1="56.6011" y2="54.1872" /><line stroke="rgb(0%,0%,0%)" x1="64.9875" x2="65.1722" y1="54.1872" y2="53.6187" /><line stroke="rgb(0%,0%,0%)" x1="65.1722" x2="65.4375" y1="53.6187" y2="51.0945" /><line stroke="rgb(0%,0%,0%)" x1="65.4375" x2="65.5" y1="51.0945" y2="50.5" /><line stroke="rgb(0%,0%,0%)" x1="65.5" x2="65.2347" y1="50.5" y2="47.9759" /><line stroke="rgb(0%,0%,0%)" x1="65.2347" x2="65.1722" y1="47.9759" y2="47.3813" /><line stroke="rgb(0%,0%,0%)" x1="65.1722" x2="64.3879" y1="47.3813" y2="44.9675" /><line stroke="rgb(0%,0%,0%)" x1="64.3879" x2="64.2032" y1="44.9675" y2="44.3989" /><line stroke="rgb(0%,0%,0%)" x1="64.2032" x2="62.9342" y1="44.3989" y2="42.2009" /><line stroke="rgb(0%,0%,0%)" x1="62.9342" x2="62.6352" y1="42.2009" y2="41.6832" /><line stroke="rgb(0%,0%,0%)" x1="62.6352" x2="60.937" y1="41.6832" y2="39.7971" /><line stroke="rgb(0%,0%,0%)" x1="60.937" x2="60.537" y1="39.7971" y2="39.3528" /><line stroke="rgb(0%,0%,0%)" x1="60.537" x2="58.4836" y1="39.3528" y2="37.861" /><line stroke="rgb(0%,0%,0%)" x1="58.4836" x2="58.0" y1="37.861" y2="37.5096" /><line stroke="rgb(0%,0%,0%)" x1="58.0" x2="55.6814" y1="37.5096" y2="36.4773" /><line stroke="rgb(0%,0%,0%)" x1="55.6814" x2="55.1353" y1="36.4773" y2="36.2342" /><line stroke="rgb(0%,0%,0%)" x1="55.1353" x2="52.6527" y1="36.2342" y2="35.7065" /><line stroke="rgb(0%,0%,0%)" x1="52.6527" x2="52.0679" y1="35.7065" y2="35.5822" /><line stroke="rgb(0%,0%,0%)" x1="52.0679" x2="49.5299" y1="35.5822" y2="35.5822" /><line stroke="rgb(0%,0%,0%)" x1="49.5299" x2="48.9321" y1="35.5822" y2="35.5822" /><line stroke="rgb(0%,0%,0%)" x1="48.9321" x2="46.4495" y1="35.5822" y2="36.1099" /><line stroke="rgb(0%,0%,0%)" x1="46.4495" x2="45.8647" y1="36.1099" y2="36.2342" /><line stroke="rgb(0%,0%,0%)" x1="45.8647" x2="43.5461" y1="36.2342" y2="37.2665" /><line stroke="rgb(0%,0%,0%)" x1="43.5461" x2="43.0" y1="37.2665" y2="37.5096" /><line stroke="rgb(0%,0%,0%)" x1="43.0" x2="40.9467" y1="37.5096" y2="39.0014" /><line stroke="rgb(0%,0%,0%)" x1="40.9467" x2="40.463" y1="39.0014" y2="39.3528" /><line stroke="rgb(0%,0%,0%)" x1="40.463" x2="38.7648" y1="39.3528" y2="41.239" /><line stroke="rgb(0%,0%,0%)" x1="38.7648" x2="38.3647" y1="41.239" y2="41.6832" /><line stroke="rgb(0%,0%,0%)" x1="38.3647" x2="37.0957" y1="41.6832" y2="43.8812" /><line stroke="rgb(0%,0%,0%)" x1="37.0957" x2="36.7968" y1="43.8812" y2="44.3989" /><line stroke="rgb(0%,0%,0%)" x1="36.7968" x2="36.0125" y1="44.3989" y2="46.8128" /><line stroke="rgb(0%,0%,0%)" x1="36.0125" x2="35.8278" y1="46.8128" y2="47.3813" /></svg>