<?xml version="1.0" encoding="utf-8" ?>
<svg baseProfile="tiny" height="100%" version="1.2" width="100%" xmlns="http://www.w3.org/2000/svg" xmlns:ev="http://www.w3.org/2001/xml-events" xmlns:xlink="http://www.w3.org/1999/xlink"><defs /><line stroke="rgb(0%,0%,0%)" x1="351.9" x2="351.9" y1="0.5" y2="79.5598" /><line stroke="rgb(0%,0%,0%)" x1="351.9" x2="351.9" y1="79.5598" y2="100.5" /><line stroke="rgb(0%,0%,0%)" x1="214.5997" x2="322.837" y1="100.5" y2="100.5" /><line stroke="rgb(0%,0%,0%)" x1="322.837" x2="326.6118" y1="100.5" y2="100.5" /><line stroke="rgb(0%,0%,0%)" x1="326.6118" x2="330.9242" y1="100.5" y2="100.5" /><line stroke="rgb(0%,0%,0%)" x1="330.9242" x2="335.7104" y1="100.5" y2="100.5" /><line stroke="rgb(0%,0%,0%)" x1="335.7104" x2="340.8801" y1="100.5" y2="100.5" /><line stroke="rgb(0%,0%,0%)" x1="340.8801" x2="346.3201" y1="100.5" y2="100.5" /><line stroke="rgb(0%,0%,0%)" x1="346.3201" x2="351.9" y1="100.5" y2="100.5" /><line stroke="rgb(0%,0%,0%)" x1="214.5997" x2="184.6176" y1="100.5" y2="100.5" /><line stroke="rgb(0%,0%,0%)" x1="184.6176" x2="0.5" y1="100.5" y2="100.5" /><line stroke="rgb(0%,0%,0%)" x1="0.5" x2="184.6176" y1="0.5" y2="0.5" /><line stroke="rgb(0%,0%,0%)" x1="184.6176" x2="214.5997" y1="0.5" y2="0.5" /><line stroke="rgb(0%,0%,0%)" x1="214.5997" x2="322.837" y1="0.5" y2="0.5" /><line stroke="rgb(0%,0%,0%)" x1="322.837" x2="326.6118" y1="0.5" y2="0.5" /><line stroke="rgb(0%,0%,0%)" x1="326.6118" x2="330.9242" y1="0.5" y2="0.5" /><line stroke="rgb(0%,0%,0%)" x1="330.9242" x2="335.7104" y1="0.5" y2="0.5" /><line stroke="rgb(0%,0%,0%)" x1="335.7104" x2="340.8801" y1="0.5" y2="0.5" /><line stroke="rgb(0%,0%,0%)" x1="340.8801" x2="346.3201" y1="0.5" y2="0.5" /><line stroke="rgb(0%,0%,0%)" x1="346.3201" x2="351.9" y1="0.5" y2="0.5" /><line stroke="rgb(0%,0%,0%)" x1="0.5" x2="0.5" y1="0.5" y2="9.0322" /><line stroke="rgb(0%,0%,0%)" x1="0.5" x2="0.5" y1="9.0322" y2="100.5" /><line stroke="rgb(0%,0%,0%)" x1="135.8278" x2="135.5559" y1="47.3813" y2="49.9678" /><line stroke="rgb(0%,0%,0%)" x1="135.5559" x2="135.5" y1="49.9678" y2="50.5" /><line stroke="rgb(0%,0%,0%)" x1="135.5" x2="135.7719" y1="50.5" y2="53.0865" /><line stroke="rgb(0%,0%,0%)" x1="135.7719" x2="135.8278" y1="53.0865" y2="53.6187" /><line stroke="rgb(0%,0%,0%)" x1="135.8278" x2="136.6315" y1="53.6187" y2="56.0921" /><line stroke="rgb(0%,0%,0%)" x1="136.6315" x2="136.7968" y1="56.0921" y2="56.6011" /><line stroke="rgb(0%,0%,0%)" x1="136.7968" x2="138.0972" y1="56.6011" y2="58.8534" /><line stroke="rgb(0%,0%,0%)" x1="138.0972" x2="138.3647" y1="58.8534" y2="59.3168" /><line stroke="rgb(0%,0%,0%)" x1="138.3647" x2="140.105" y1="59.3168" y2="61.2495" /><line stroke="rgb(0%,0%,0%)" x1="140.105" x2="140.463" y1="61.2495" y2="61.6472" /><line stroke="rgb(0%,0%,0%)" x1="140.463" x2="142.5671" y1="61.6472" y2="63.1758" /><line stroke="rgb(0%,0%,0%)" x1="142.5671" x2="143.0" y1="63.1758" y2="63.4904" /><line stroke="rgb(0%,0%,0%)" x1="143.0" x2="145.3759" y1="63.4904" y2="64.5482" /><line stroke="rgb(0%,0%,0%)" x1="145.3759" x2="145.8647" y1="64.5482" y2="64.7658" /><line stroke="rgb(0%,0%,0%)" x1="145.8647" x2="148.4086" y1="64.7658" y2="65.3066" /><line stroke="rgb(0%,0%,0%)" x1="148.4086" x2="148.9321" y1="65.3066" y2="65.4178" /><line stroke="rgb(0%,0%,0%)" x1="148.9321" x2="151.5328" y1="65.4178" y2="65.4178" /><line stroke="rgb(0%,0%,0%)" x1="151.5328" x2="152.0679" y1="65.4178" y2="65.4178" /><line stroke="rgb(0%,0%,0%)" x1="152.0679" x2="154.6118" y1="65.4178" y2="64.8771" /><line stroke="rgb(0%,0%,0%)" x1="154.6118" x2="155.1353" y1="64.8771" y2="64.7658" /><line stroke="rgb(0%,0%,0%)" x1="155.1353" x2="157.5111" y1="64.7658" y2="63.708" /><line stroke="rgb(0%,0%,0%)" x1="157.5111" x2="158.0" y1="63.708" y2="63.4904" /><line stroke="rgb(0%,0%,0%)" x1="158.0" x2="160.104" y1="63.4904" y2="61.9617" /><line stroke="rgb(0%,0%,0%)" x1="160.104" x2="160.537" y1="61.9617" y2="61.6472" /><line stroke="rgb(0%,0%,0%)" x1="160.537" x2="162.2772" y1="61.6472" y2="59.7144" /><line stroke="rgb(0%,0%,0%)" x1="162.2772" x2="162.6353" y1="59.7144" y2="59.3168" /><line stroke="rgb(0%,0%,0%)" x1="162.6353" x2="163.9356" y1="59.3168" y2="57.0645" /><line stroke="rgb(0%,0%,0%)" x1="163.9356" x2="164.2032" y1="57.0645" y2="56.6011" /><line stroke="rgb(0%,0%,0%)" x1="164.2032" x2="165.0069" y1="56.6011" y2="54.1276" /><line stroke="rgb(0%,0%,0%)" x1="165.0069" x2="165.1722" y1="54.1276" y2="53.6187" /><line stroke="rgb(0%,0%,0%)" x1="165.1722" x2="165.4441" y1="53.6187" y2="51.0322" /><line stroke="rgb(0%,0%,0%)" x1="165.4441" x2="165.5" y1="51.0322" y2="50.5" /><line stroke="rgb(0%,0%,0%)" x1="165.5" x2="165.2281" y1="50.5" y2="47.9135" /><line stroke="rgb(0%,0%,0%)" x1="165.2281" x2="165.1722" y1="47.9135" y2="47.3813" /><line stroke="rgb(0%,0%,0%)" x1="165.1722" x2="164.3685" y1="47.3813" y2="44.9079" /><line stroke="rgb(0%,0%,0%)" x1="164.3685" x2="164.2032" y1="44.9079" y2="44.3989" /><line stroke="rgb(0%,0%,0%)" x1="164.2032" x2="162.9028" y1="44.3989" y2="42.1466" /><line stroke="rgb(0%,0%,0%)" x1="162.9028" x2="162.6353" y1="42.1466" y2="41.6832" /><line stroke="rgb(0%,0%,0%)" x1="162.6353" x2="160.895" y1="41.6832" y2="39.7505" /><line stroke="rgb(0%,0%,0%)" x1="160.895" x2="160.537" y1="39.7505" y2="39.3528" /><line stroke="rgb(0%,0%,0%)" x1="160.537" x2="158.4329" y1="39.3528" y2="37.8242" /><line stroke="rgb(0%,0%,0%)" x1="158.4329" x2="158.0" y1="37.8242" y2="37.5096" /><line stroke="rgb(0%,0%,0%)" x1="158.0" x2="155.6241" y1="37.5096" y2="36.4518" /><line stroke="rgb(0%,0%,0%)" x1="155.6241" x2="155.1353" y1="36.4518" y2="36.2342" /><line stroke="rgb(0%,0%,0%)" x1="155.1353" x2="152.5913" y1="36.2342" y2="35.6934" /><line stroke="rgb(0%,0%,0%)" x1="152.5913" x2="152.0679" y1="35.6934" y2="35.5822" /><line stroke="rgb(0%,0%,0%)" x1="152.0679" x2="149.4672" y1="35.5822" y2="35.5822" /><line stroke="rgb(0%,0%,0%)" x1="149.4672" x2="148.9321" y1="35.5822" y2="35.5822" /><line stroke="rgb(0%,0%,0%)" x1="148.9321" x2="146.3882" y1="35.5822" y2="36.1229" /><line stroke="rgb(0%,0%,0%)" x1="146.3882" x2="145.8647" y1="36.1229" y2="36.2342" /><line stroke="rgb(0%,0%,0%)" x1="145.8647" x2="143.4888" y1="36.2342" y2="37.292" /><line stroke="rgb(0%,0%,0%)" x1="143.4888" x2="143.0" y1="37.292" y2="37.5096" /><line stroke="rgb(0%,0%,0%)" x1="143.0" x2="140.896" y1="37.5096" y2="39.0383" /><line stroke="rgb(0%,0%,0%)" x1="140.896" x2="140.463" y1="39.0383" y2="39.3528" /><line stroke="rgb(0%,0%,0%)" x1="140.463" x2="138.7228" y1="39.3528" y2="41.2856" /><line stroke="rgb(0%,0%,0%)" x1="138.7228" x2="138.3647" y1="41.2856" y2="41.6832" /><line stroke="rgb(0%,0%,0%)" x1="138.3647" x2="137.0644" y1="41.6832" y2="43.9355" /><line stroke="rgb(0%,0%,0%)" x1="137.0644" x2="136.7968" y1="43.9355" y2="44.3989" /><line stroke="rgb(0%,0%,0%)" x1="136.7968" x2="135.9931" y1="44.3989" y2="46.8724" /><line stroke="rgb(0%,0%,0%)" x1="135.9931" x2="135.8278" y1="46.8724" y2="47.3813" /><line stroke="rgb(0%,0%,0%)" x1="35.8278" x2="35.5559" y1="47.3813" y2="49.9678" /><line stroke="rgb(0%,0%,0%)" x1="35.5559" x2="35.5" y1="49.9678" y2="50.5" /><line stroke="rgb(0%,0%,0%)" x1="35.5" x2="35.7718" y1="50.5" y2="53.0865" /><line stroke="rgb(0%,0%,0%)" x1="35.7718" x2="35.8278" y1="53.0865" y2="53.6187" /><line stroke="rgb(0%,0%,0%)" x1="35.8278" x2="36.6314" y1="53.6187" y2="56.0921" /><line stroke="rgb(0%,0%,0%)" x1="36.6314" x2="36.7968" y1="56.0921" y2="56.6011" /><line stroke="rgb(0%,0%,0%)" x1="36.7968" x2="38.0972" y1="56.6011" y2="58.8534" /><line stroke="rgb(0%,0%,0%)" x1="38.0972" x2="38.3647" y1="58.8534" y2="59.3168" /><line stroke="rgb(0%,0%,0%)" x1="38.3647" x2="40.105" y1="59.3168" y2="61.2495" /><line stroke="rgb(0%,0%,0%)" x1="40.105" x2="40.463" y1="61.2495" y2="61.6472" /><line stroke="rgb(0%,0%,0%)" x1="40.463" x2="42.5671" y1="61.6472" y2="63.1758" /><line stroke="rgb(0%,0%,0%)" x1="42.5671" x2="43.0" y1="63.1758" y2="63.4904" /><line stroke="rgb(0%,0%,0%)" x1="43.0" x2="45.3759" y1="63.4904" y2="64.5482" /><line stroke="rgb(0%,0%,0%)" x1="45.3759" x2="45.8647" y1="64.5482" y2="64.7658" /><line stroke="rgb(0%,0%,0%)" x1="45.8647" x2="48.4086" y1="64.7658" y2="65.3066" /><line stroke="rgb(0%,0%,0%)" x1="48.4086" x2="48.9321" y1="65.3066" y2="65.4178" /><line stroke="rgb(0%,0%,0%)" x1="48.9321" x2="51.5328" y1="65.4178" y2="65.4178" /><line stroke="rgb(0%,0%,0%)" x1="51.5328" x2="52.0679" y1="65.4178" y2="65.4178" /><line stroke="rgb(0%,0%,0%)" x1="52.0679" x2="54.6118" y1="65.4178" y2="64.8771" /><line stroke="rgb(0%,0%,0%)" x1="54.6118" x2="55.1353" y1="64.8771" y2="64.7658" /><line stroke="rgb(0%,0%,0%)" x1="55.1353" x2="57.5112" y1="64.7658" y2="63.708" /><line stroke="rgb(0%,0%,0%)" x1="57.5112" x2="58.0" y1="63.708" y2="63.4904" /><line stroke="rgb(0%,0%,0%)" x1="58.0" x2="60.104" y1="63.4904" y2="61.9617" /><line stroke="rgb(0%,0%,0%)" x1="60.104" x2="60.537" y1="61.9617" y2="61.6472" /><line stroke="rgb(0%,0%,0%)" x1="60.537" x2="62.2772" y1="61.6472" y2="59.7144" /><line stroke="rgb(0%,0%,0%)" x1="62.2772" x2="62.6352" y1="59.7144" y2="59.3168" /><line stroke="rgb(0%,0%,0%)" x1="62.6352" x2="63.9356" y1="59.3168" y2="57.0645" /><line stroke="rgb(0%,0%,0%)" x1="63.9356" x2="64.2032" y1="57.0645" y2="56.6011" /><line stroke="rgb(0%,0%,0%)" x1="64.2032" x2="65.0069" y1="56.6011" y2="54.1276" /><line stroke="rgb(0%,0%,0%)" x1="65.0069" x2="65.1722" y1="54.1276" y2="53.6187" /><line stroke="rgb(0%,0%,0%)" x1="65.1722" x2="65.4441" y1="53.6187" y2="51.0322" /><line stroke="rgb(0%,0%,0%)" x1="65.4441" x2="65.5" y1="51.0322" y2="50.5" /><line stroke="rgb(0%,0%,0%)" x1="65.5" x2="65.2281" y1="50.5" y2="47.9135" /><line stroke="rgb(0%,0%,0%)" x1="65.2281" x2="65.1722" y1="47.9135" y2="47.3813" /><line stroke="rgb(0%,0%,0%)" x1="65.1722" x2="64.3685" y1="47.3813" y2="44.9079" /><line stroke="rgb(0%,0%,0%)" x1="64.3685" x2="64.2032" y1="44.9079" y2="44.3989" /><line stroke="rgb(0%,0%,0%)" x1="64.2032" x2="62.9028" y1="44.3989" y2="42.1466" /><line stroke="rgb(0%,0%,0%)" x1="62.9028" x2="62.6352" y1="42.1466" y2="41.6832" /><line stroke="rgb(0%,0%,0%)" x1="62.6352" x2="60.895" y1="41.6832" y2="39.7505" /><line stroke="rgb(0%,0%,0%)" x1="60.895" x2="60.537" y1="39.7505" y2="39.3528" /><line stroke="rgb(0%,0%,0%)" x1="60.537" x2="58.4329" y1="39.3528" y2="37.8242" /><line stroke="rgb(0%,0%,0%)" x1="58.4329" x2="58.0" y1="37.8242" y2="37.5096" /><line stroke="rgb(0%,0%,0%)" x1="58.0" x2="55.6241" y1="37.5096" y2="36.4518" /><line stroke="rgb(0%,0%,0%)" x1="55.6241" x2="55.1353" y1="36.4518" y2="36.2342" /><line stroke="rgb(0%,0%,0%)" x1="55.1353" x2="52.5913" y1="36.2342" y2="35.6934" /><line stroke="rgb(0%,0%,0%)" x1="52.5913" x2="52.0679" y1="35.6934" y2="35.5822" /><line stroke="rgb(0%,0%,0%)" x1="52.0679" x2="49.4672" y1="35.5822" y2="35.5822" /><line stroke="rgb(0%,0%,0%)" x1="49.4672" x2="48.9321" y1="35.5822" y2="35.5822" /><line stroke="rgb(0%,0%,0%)" x1="48.9321" x2="46.3882" y1="35.5822" y2="36.1229" /><line stroke="rgb(0%,0%,0%)" x1="46.3882" x2="45.8647" y1="36.1229" y2="36.2342" /><line stroke="rgb(0%,0%,0%)" x1="45.8647" x2="43.4888" y1="36.2342" y2="37.292" /><line stroke="rgb(0%,0%,0%)" x1="43.4888" x2="43.0" y1="37.292" y2="37.5096" /><line stroke="rgb(0%,0%,0%)" x1="43.0" x2="40.896" y1="37.5096" y2="39.0383" /><line stroke="rgb(0%,0%,0%)" x1="40.896" x2="40.463" y1="39.0383" y2="39.3528" /><line stroke="rgb(0%,0%,0%)" x1="40.463" x2="38.7228" y1="39.3528" y2="41.2856" /><line stroke="rgb(0%,0%,0%)" x1="38.7228" x2="38.3647" y1="41.2856" y2="41.6832" /><line stroke="rgb(0%,0%,0%)" x1="38.3647" x2="37.0644" y1="41.6832" y2="43.9355" /><line stroke="rgb(0%,0%,0%)" x1="37.0644" x2="36.7968" y1="43.9355" y2="44.3989" /><line stroke="rgb(0%,0%,0%)" x1="36.7968" x2="35.9931" y1="44.3989" y2="46.8724" /><line stroke="rgb(0%,0%,0%)" x1="35.9931" x2="35.8278" y1="46.8724" y2="47.3813" /></svg>