<?xml version="1.0" encoding="utf-8" ?>
<svg baseProfile="tiny" height="100%" version="1.2" width="100%" xmlns="http://www.w3.org/2000/svg" xmlns:ev="http://www.w3.org/2001/xml-events" xmlns:xlink="http://www.w3.org/1999/xlink"><defs /><line stroke="rgb(0%,0%,0%)" x1="351.9" x2="351.9" y1="0.5" y2="80.4238" /><line stroke="rgb(0%,0%,0%)" x1="351.9" x2="351.9" y1="80.4238" y2="100.5" /><line stroke="rgb(0%,0%,0%)" x1="213.0992" x2="322.5193" y1="100.5" y2="100.5" /><line stroke="rgb(0%,0%,0%)" x1="322.5193" x2="326.3354" y1="100.5" y2="100.5" /><line stroke="rgb(0%,0%,0%)" x1="326.3354" x2="330.695" y1="100.5" y2="100.5" /><line stroke="rgb(0%,0%,0%)" x1="330.695" x2="335.5334" y1="100.5" y2="100.5" /><line stroke="rgb(0%,0%,0%)" x1="335.5334" x2="340.7596" y1="100.5" y2="100.5" /><line stroke="rgb(0%,0%,0%)" x1="340.7596" x2="346.2591" y1="100.5" y2="100.5" /><line stroke="rgb(0%,0%,0%)" x1="346.2591" x2="351.9" y1="100.5" y2="100.5" /><line stroke="rgb(0%,0%,0%)" x1="213.0992" x2="186.6299" y1="100.5" y2="100.5" /><line stroke="rgb(0%,0%,0%)" x1="186.6299" x2="0.5" y1="100.5" y2="100.5" /><line stroke="rgb(0%,0%,0%)" x1="0.5" x2="186.6299" y1="0.5" y2="0.5" /><line stroke="rgb(0%,0%,0%)" x1="186.6299" x2="213.0992" y1="0.5" y2="0.5" /><line stroke="rgb(0%,0%,0%)" x1="213.0992" x2="322.5193" y1="0.5" y2="0.5" /><line stroke="rgb(0%,0%,0%)" x1="322.5193" x2="326.3354" y1="0.5" y2="0.5" /><line stroke="rgb(0%,0%,0%)" x1="326.3354" x2="330.695" y1="0.5" y2="0.5" /><line stroke="rgb(0%,0%,0%)" x1="330.695" x2="335.5334" y1="0.5" y2="0.5" /><line stroke="rgb(0%,0%,0%)" x1="335.5334" x2="340.7596" y1="0.5" y2="0.5" /><line stroke="rgb(0%,0%,0%)" x1="340.7596" x2="346.2591" y1="0.5" y2="0.5" /><line stroke="rgb(0%,0%,0%)" x1="346.2591" x2="351.9" y1="0.5" y2="0.5" /><line stroke="rgb(0%,0%,0%)" x1="0.5" x2="0.5" y1="0.5" y2="8.0325" /><line stroke="rgb(0%,0%,0%)" x1="0.5" x2="0.5" y1="8.0325" y2="100.5" /><line stroke="rgb(0%,0%,0%)" x1="135.8278" x2="135.5494" y1="47.3813" y2="50.0302" /><line stroke="rgb(0%,0%,0%)" x1="135.5494" x2="135.5" y1="50.0302" y2="50.5" /><line stroke="rgb(0%,0%,0%)" x1="135.5" x2="135.7784" y1="50.5" y2="53.1488" /><line stroke="rgb(0%,0%,0%)" x1="135.7784" x2="135.8278" y1="53.1488" y2="53.6187" /><line stroke="rgb(0%,0%,0%)" x1="135.8278" x2="136.6508" y1="53.6187" y2="56.1518" /><line stroke="rgb(0%,0%,0%)" x1="136.6508" x2="136.7968" y1="56.1518" y2="56.6011" /><line stroke="rgb(0%,0%,0%)" x1="136.7968" x2="138.1285" y1="56.6011" y2="58.9077" /><line stroke="rgb(0%,0%,0%)" x1="138.1285" x2="138.3647" y1="58.9077" y2="59.3168" /><line stroke="rgb(0%,0%,0%)" x1="138.3647" x2="140.1469" y1="59.3168" y2="61.2961" /><line stroke="rgb(0%,0%,0%)" x1="140.1469" x2="140.463" y1="61.2961" y2="61.6472" /><line stroke="rgb(0%,0%,0%)" x1="140.463" x2="142.6178" y1="61.6472" y2="63.2127" /><line stroke="rgb(0%,0%,0%)" x1="142.6178" x2="143.0" y1="63.2127" y2="63.4904" /><line stroke="rgb(0%,0%,0%)" x1="143.0" x2="145.4332" y1="63.4904" y2="64.5737" /><line stroke="rgb(0%,0%,0%)" x1="145.4332" x2="145.8647" y1="64.5737" y2="64.7658" /><line stroke="rgb(0%,0%,0%)" x1="145.8647" x2="148.47" y1="64.7658" y2="65.3196" /><line stroke="rgb(0%,0%,0%)" x1="148.47" x2="148.9321" y1="65.3196" y2="65.4178" /><line stroke="rgb(0%,0%,0%)" x1="148.9321" x2="151.5955" y1="65.4178" y2="65.4178" /><line stroke="rgb(0%,0%,0%)" x1="151.5955" x2="152.0679" y1="65.4178" y2="65.4178" /><line stroke="rgb(0%,0%,0%)" x1="152.0679" x2="154.6732" y1="65.4178" y2="64.8641" /><line stroke="rgb(0%,0%,0%)" x1="154.6732" x2="155.1353" y1="64.8641" y2="64.7658" /><line stroke="rgb(0%,0%,0%)" x1="155.1353" x2="157.5684" y1="64.7658" y2="63.6825" /><line stroke="rgb(0%,0%,0%)" x1="157.5684" x2="158.0" y1="63.6825" y2="63.4904" /><line stroke="rgb(0%,0%,0%)" x1="158.0" x2="160.1548" y1="63.4904" y2="61.9249" /><line stroke="rgb(0%,0%,0%)" x1="160.1548" x2="160.537" y1="61.9249" y2="61.6472" /><line stroke="rgb(0%,0%,0%)" x1="160.537" x2="162.3191" y1="61.6472" y2="59.6679" /><line stroke="rgb(0%,0%,0%)" x1="162.3191" x2="162.6353" y1="59.6679" y2="59.3168" /><line stroke="rgb(0%,0%,0%)" x1="162.6353" x2="163.967" y1="59.3168" y2="57.0102" /><line stroke="rgb(0%,0%,0%)" x1="163.967" x2="164.2032" y1="57.0102" y2="56.6011" /><line stroke="rgb(0%,0%,0%)" x1="164.2032" x2="165.0262" y1="56.6011" y2="54.068" /><line stroke="rgb(0%,0%,0%)" x1="165.0262" x2="165.1722" y1="54.068" y2="53.6187" /><line stroke="rgb(0%,0%,0%)" x1="165.1722" x2="165.4506" y1="53.6187" y2="50.9698" /><line stroke="rgb(0%,0%,0%)" x1="165.4506" x2="165.5" y1="50.9698" y2="50.5" /><line stroke="rgb(0%,0%,0%)" x1="165.5" x2="165.2216" y1="50.5" y2="47.8512" /><line stroke="rgb(0%,0%,0%)" x1="165.2216" x2="165.1722" y1="47.8512" y2="47.3813" /><line stroke="rgb(0%,0%,0%)" x1="165.1722" x2="164.3492" y1="47.3813" y2="44.8482" /><line stroke="rgb(0%,0%,0%)" x1="164.3492" x2="164.2032" y1="44.8482" y2="44.3989" /><line stroke="rgb(0%,0%,0%)" x1="164.2032" x2="162.8715" y1="44.3989" y2="42.0923" /><line stroke="rgb(0%,0%,0%)" x1="162.8715" x2="162.6353" y1="42.0923" y2="41.6832" /><line stroke="rgb(0%,0%,0%)" x1="162.6353" x2="160.8531" y1="41.6832" y2="39.7039" /><line stroke="rgb(0%,0%,0%)" x1="160.8531" x2="160.537" y1="39.7039" y2="39.3528" /><line stroke="rgb(0%,0%,0%)" x1="160.537" x2="158.3822" y1="39.3528" y2="37.7873" /><line stroke="rgb(0%,0%,0%)" x1="158.3822" x2="158.0" y1="37.7873" y2="37.5096" /><line stroke="rgb(0%,0%,0%)" x1="158.0" x2="155.5668" y1="37.5096" y2="36.4263" /><line stroke="rgb(0%,0%,0%)" x1="155.5668" x2="155.1353" y1="36.4263" y2="36.2342" /><line stroke="rgb(0%,0%,0%)" x1="155.1353" x2="152.53" y1="36.2342" y2="35.6804" /><line stroke="rgb(0%,0%,0%)" x1="152.53" x2="152.0679" y1="35.6804" y2="35.5822" /><line stroke="rgb(0%,0%,0%)" x1="152.0679" x2="149.4045" y1="35.5822" y2="35.5822" /><line stroke="rgb(0%,0%,0%)" x1="149.4045" x2="148.9321" y1="35.5822" y2="35.5822" /><line stroke="rgb(0%,0%,0%)" x1="148.9321" x2="146.3268" y1="35.5822" y2="36.1359" /><line stroke="rgb(0%,0%,0%)" x1="146.3268" x2="145.8647" y1="36.1359" y2="36.2342" /><line stroke="rgb(0%,0%,0%)" x1="145.8647" x2="143.4316" y1="36.2342" y2="37.3175" /><line stroke="rgb(0%,0%,0%)" x1="143.4316" x2="143.0" y1="37.3175" y2="37.5096" /><line stroke="rgb(0%,0%,0%)" x1="143.0" x2="140.8452" y1="37.5096" y2="39.0751" /><line stroke="rgb(0%,0%,0%)" x1="140.8452" x2="140.463" y1="39.0751" y2="39.3528" /><line stroke="rgb(0%,0%,0%)" x1="140.463" x2="138.6809" y1="39.3528" y2="41.3321" /><line stroke="rgb(0%,0%,0%)" x1="138.6809" x2="138.3647" y1="41.3321" y2="41.6832" /><line stroke="rgb(0%,0%,0%)" x1="138.3647" x2="137.033" y1="41.6832" y2="43.9898" /><line stroke="rgb(0%,0%,0%)" x1="137.033" x2="136.7968" y1="43.9898" y2="44.3989" /><line stroke="rgb(0%,0%,0%)" x1="136.7968" x2="135.9738" y1="44.3989" y2="46.932" /><line stroke="rgb(0%,0%,0%)" x1="135.9738" x2="135.8278" y1="46.932" y2="47.3813" /><line stroke="rgb(0%,0%,0%)" x1="35.8278" x2="35.5494" y1="47.3813" y2="50.0302" /><line stroke="rgb(0%,0%,0%)" x1="35.5494" x2="35.5" y1="50.0302" y2="50.5" /><line stroke="rgb(0%,0%,0%)" x1="35.5" x2="35.7784" y1="50.5" y2="53.1488" /><line stroke="rgb(0%,0%,0%)" x1="35.7784" x2="35.8278" y1="53.1488" y2="53.6187" /><line stroke="rgb(0%,0%,0%)" x1="35.8278" x2="36.6508" y1="53.6187" y2="56.1518" /><line stroke="rgb(0%,0%,0%)" x1="36.6508" x2="36.7968" y1="56.1518" y2="56.6011" /><line stroke="rgb(0%,0%,0%)" x1="36.7968" x2="38.1285" y1="56.6011" y2="58.9077" /><line stroke="rgb(0%,0%,0%)" x1="38.1285" x2="38.3647" y1="58.9077" y2="59.3168" /><line stroke="rgb(0%,0%,0%)" x1="38.3647" x2="40.1469" y1="59.3168" y2="61.2961" /><line stroke="rgb(0%,0%,0%)" x1="40.1469" x2="40.463" y1="61.2961" y2="61.6472" /><line stroke="rgb(0%,0%,0%)" x1="40.463" x2="42.6178" y1="61.6472" y2="63.2127" /><line stroke="rgb(0%,0%,0%)" x1="42.6178" x2="43.0" y1="63.2127" y2="63.4904" /><line stroke="rgb(0%,0%,0%)" x1="43.0" x2="45.4332" y1="63.4904" y2="64.5737" /><line stroke="rgb(0%,0%,0%)" x1="45.4332" x2="45.8647" y1="64.5737" y2="64.7658" /><line stroke="rgb(0%,0%,0%)" x1="45.8647" x2="48.47" y1="64.7658" y2="65.3196" /><line stroke="rgb(0%,0%,0%)" x1="48.47" x2="48.9321" y1="65.3196" y2="65.4178" /><line stroke="rgb(0%,0%,0%)" x1="48.9321" x2="51.5955" y1="65.4178" y2="65.4178" /><line stroke="rgb(0%,0%,0%)" x1="51.5955" x2="52.0679" y1="65.4178" y2="65.4178" /><line stroke="rgb(0%,0%,0%)" x1="52.0679" x2="54.6732" y1="65.4178" y2="64.8641" /><line stroke="rgb(0%,0%,0%)" x1="54.6732" x2="55.1353" y1="64.8641" y2="64.7658" /><line stroke="rgb(0%,0%,0%)" x1="55.1353" x2="57.5684" y1="64.7658" y2="63.6825" /><line stroke="rgb(0%,0%,0%)" x1="57.5684" x2="58.0" y1="63.6825" y2="63.4904" /><line stroke="rgb(0%,0%,0%)" x1="58.0" x2="60.1548" y1="63.4904" y2="61.9249" /><line stroke="rgb(0%,0%,0%)" x1="60.1548" x2="60.537" y1="61.9249" y2="61.6472" /><line stroke="rgb(0%,0%,0%)" x1="60.537" x2="62.3191" y1="61.6472" y2="59.6679" /><line stroke="rgb(0%,0%,0%)" x1="62.3191" x2="62.6352" y1="59.6679" y2="59.3168" /><line stroke="rgb(0%,0%,0%)" x1="62.6352" x2="63.967" y1="59.3168" y2="57.0102" /><line stroke="rgb(0%,0%,0%)" x1="63.967" x2="64.2032" y1="57.0102" y2="56.6011" /><line stroke="rgb(0%,0%,0%)" x1="64.2032" x2="65.0262" y1="56.6011" y2="54.068" /><line stroke="rgb(0%,0%,0%)" x1="65.0262" x2="65.1722" y1="54.068" y2="53.6187" /><line stroke="rgb(0%,0%,0%)" x1="65.1722" x2="65.4506" y1="53.6187" y2="50.9698" /><line stroke="rgb(0%,0%,0%)" x1="65.4506" x2="65.5" y1="50.9698" y2="50.5" /><line stroke="rgb(0%,0%,0%)" x1="65.5" x2="65.2216" y1="50.5" y2="47.8512" /><line stroke="rgb(0%,0%,0%)" x1="65.2216" x2="65.1722" y1="47.8512" y2="47.3813" /><line stroke="rgb(0%,0%,0%)" x1="65.1722" x2="64.3492" y1="47.3813" y2="44.8482" /><line stroke="rgb(0%,0%,0%)" x1="64.3492" x2="64.2032" y1="44.8482" y2="44.3989" /><line stroke="rgb(0%,0%,0%)" x1="64.2032" x2="62.8715" y1="44.3989" y2="42.0923" /><line stroke="rgb(0%,0%,0%)" x1="62.8715" x2="62.6352" y1="42.0923" y2="41.6832" /><line stroke="rgb(0%,0%,0%)" x1="62.6352" x2="60.8531" y1="41.6832" y2="39.7039" /><line stroke="rgb(0%,0%,0%)" x1="60.8531" x2="60.537" y1="39.7039" y2="39.3528" /><line stroke="rgb(0%,0%,0%)" x1="60.537" x2="58.3822" y1="39.3528" y2="37.7873" /><line stroke="rgb(0%,0%,0%)" x1="58.3822" x2="58.0" y1="37.7873" y2="37.5096" /><line stroke="rgb(0%,0%,0%)" x1="58.0" x2="55.5668" y1="37.5096" y2="36.4263" /><line stroke="rgb(0%,0%,0%)" x1="55.5668" x2="55.1353" y1="36.4263" y2="36.2342" /><line stroke="rgb(0%,0%,0%)" x1="55.1353" x2="52.53" y1="36.2342" y2="35.6804" /><line stroke="rgb(0%,0%,0%)" x1="52.53" x2="52.0679" y1="35.6804" y2="35.5822" /><line stroke="rgb(0%,0%,0%)" x1="52.0679" x2="49.4045" y1="35.5822" y2="35.5822" /><line stroke="rgb(0%,0%,0%)" x1="49.4045" x2="48.9321" y1="35.5822" y2="35.5822" /><line stroke="rgb(0%,0%,0%)" x1="48.9321" x2="46.3268" y1="35.5822" y2="36.1359" /><line stroke="rgb(0%,0%,0%)" x1="46.3268" x2="45.8647" y1="36.1359" y2="36.2342" /><line stroke="rgb(0%,0%,0%)" x1="45.8647" x2="43.4316" y1="36.2342" y2="37.3175" /><line stroke="rgb(0%,0%,0%)" x1="43.4316" x2="43.0" y1="37.3175" y2="37.5096" /><line stroke="rgb(0%,0%,0%)" x1="43.0" x2="40.8452" y1="37.5096" y2="39.0751" /><line stroke="rgb(0%,0%,0%)" x1="40.8452" x2="40.463" y1="39.0751" y2="39.3528" /><line stroke="rgb(0%,0%,0%)" x1="40.463" x2="38.6809" y1="39.3528" y2="41.3321" /><line stroke="rgb(0%,0%,0%)" x1="38.6809" x2="38.3647" y1="41.3321" y2="41.6832" /><line stroke="rgb(0%,0%,0%)" x1="38.3647" x2="37.033" y1="41.6832" y2="43.9898" /><line stroke="rgb(0%,0%,0%)" x1="37.033" x2="36.7968" y1="43.9898" y2="44.3989" /><line stroke="rgb(0%,0%,0%)" x1="36.7968" x2="35.9738" y1="44.3989" y2="46.932" /><line stroke="rgb(0%,0%,0%)" x1="35.9738" x2="35.8278" y1="46.932" y2="47.3813" /></svg>