<?xml version="1.0" encoding="utf-8" ?>
<svg baseProfile="tiny" height="100%" version="1.2" width="100%" xmlns="http://www.w3.org/2000/svg" xmlns:ev="http://www.w3.org/2001/xml-events" xmlns:xlink="http://www.w3.org/1999/xlink"><defs /><line stroke="rgb(0%,0%,0%)" x1="351.9" x2="351.9" y1="0.5" y2="81.2879" /><line stroke="rgb(0%,0%,0%)" x1="351.9" x2="351.9" y1="81.2879" y2="100.5" /><line stroke="rgb(0%,0%,0%)" x1="211.5986" x2="322.2017" y1="100.5" y2="100.5" /><line stroke="rgb(0%,0%,0%)" x1="322.2017" x2="326.059" y1="100.5" y2="100.5" /><line stroke="rgb(0%,0%,0%)" x1="326.059" x2="330.4658" y1="100.5" y2="100.5" /><line stroke="rgb(0%,0%,0%)" x1="330.4658" x2="335.3565" y1="100.5" y2="100.5" /><line stroke="rgb(0%,0%,0%)" x1="335.3565" x2="340.6392" y1="100.5" y2="100.5" /><line stroke="rgb(0%,0%,0%)" x1="340.6392" x2="346.1981" y1="100.5" y2="100.5" /><line stroke="rgb(0%,0%,0%)" x1="346.1981" x2="351.9" y1="100.5" y2="100.5" /><line stroke="rgb(0%,0%,0%)" x1="211.5986" x2="188.6421" y1="100.5" y2="100.5" /><line stroke="rgb(0%,0%,0%)" x1="188.6421" x2="0.5" y1="100.5" y2="100.5" /><line stroke="rgb(0%,0%,0%)" x1="0.5" x2="188.6421" y1="0.5" y2="0.5" /><line stroke="rgb(0%,0%,0%)" x1="188.6421" x2="211.5986" y1="0.5" y2="0.5" /><line stroke="rgb(0%,0%,0%)" x1="211.5986" x2="322.2017" y1="0.5" y2="0.5" /><line stroke="rgb(0%,0%,0%)" x1="322.2017" x2="326.059" y1="0.5" y2="0.5" /><line stroke="rgb(0%,0%,0%)" x1="326.059" x2="330.4658" y1="0.5" y2="0.5" /><line stroke="rgb(0%,0%,0%)" x1="330.4658" x2="335.3565" y1="0.5" y2="0.5" /><line stroke="rgb(0%,0%,0%)" x1="335.3565" x2="340.6392" y1="0.5" y2="0.5" /><line stroke="rgb(0%,0%,0%)" x1="340.6392" x2="346.1981" y1="0.5" y2="0.5" /><line stroke="rgb(0%,0%,0%)" x1="346.1981" x2="351.9" y1="0.5" y2="0.5" /><line stroke="rgb(0%,0%,0%)" x1="0.5" x2="0.5" y1="0.5" y2="7.0329" /><line stroke="rgb(0%,0%,0%)" x1="0.5" x2="0.5" y1="7.0329" y2="100.5" /><line stroke="rgb(0%,0%,0%)" x1="135.8278" x2="135.5428" y1="47.3813" y2="50.0925" /><line stroke="rgb(0%,0%,0%)" x1="135.5428" x2="135.5" y1="50.0925" y2="50.5" /><line stroke="rgb(0%,0%,0%)" x1="135.5" x2="135.785" y1="50.5" y2="53.2112" /><line stroke="rgb(0%,0%,0%)" x1="135.785" x2="135.8278" y1="53.2112" y2="53.6187" /><line stroke="rgb(0%,0%,0%)" x1="135.8278" x2="136.6702" y1="53.6187" y2="56.2114" /><line stroke="rgb(0%,0%,0%)" x1="136.6702" x2="136.7968" y1="56.2114" y2="56.6011" /><line stroke="rgb(0%,0%,0%)" x1="136.7968" x2="138.1599" y1="56.6011" y2="58.962" /><line stroke="rgb(0%,0%,0%)" x1="138.1599" x2="138.3647" y1="58.962" y2="59.3168" /><line stroke="rgb(0%,0%,0%)" x1="138.3647" x2="140.1889" y1="59.3168" y2="61.3427" /><line stroke="rgb(0%,0%,0%)" x1="140.1889" x2="140.463" y1="61.3427" y2="61.6472" /><line stroke="rgb(0%,0%,0%)" x1="140.463" x2="142.6685" y1="61.6472" y2="63.2495" /><line stroke="rgb(0%,0%,0%)" x1="142.6685" x2="143.0" y1="63.2495" y2="63.4904" /><line stroke="rgb(0%,0%,0%)" x1="143.0" x2="145.4904" y1="63.4904" y2="64.5992" /><line stroke="rgb(0%,0%,0%)" x1="145.4904" x2="145.8647" y1="64.5992" y2="64.7658" /><line stroke="rgb(0%,0%,0%)" x1="145.8647" x2="148.5313" y1="64.7658" y2="65.3326" /><line stroke="rgb(0%,0%,0%)" x1="148.5313" x2="148.9321" y1="65.3326" y2="65.4178" /><line stroke="rgb(0%,0%,0%)" x1="148.9321" x2="151.6582" y1="65.4178" y2="65.4178" /><line stroke="rgb(0%,0%,0%)" x1="151.6582" x2="152.0679" y1="65.4178" y2="65.4178" /><line stroke="rgb(0%,0%,0%)" x1="152.0679" x2="154.7345" y1="65.4178" y2="64.851" /><line stroke="rgb(0%,0%,0%)" x1="154.7345" x2="155.1353" y1="64.851" y2="64.7658" /><line stroke="rgb(0%,0%,0%)" x1="155.1353" x2="157.6257" y1="64.7658" y2="63.657" /><line stroke="rgb(0%,0%,0%)" x1="157.6257" x2="158.0" y1="63.657" y2="63.4904" /><line stroke="rgb(0%,0%,0%)" x1="158.0" x2="160.2055" y1="63.4904" y2="61.888" /><line stroke="rgb(0%,0%,0%)" x1="160.2055" x2="160.537" y1="61.888" y2="61.6472" /><line stroke="rgb(0%,0%,0%)" x1="160.537" x2="162.3611" y1="61.6472" y2="59.6213" /><line stroke="rgb(0%,0%,0%)" x1="162.3611" x2="162.6353" y1="59.6213" y2="59.3168" /><line stroke="rgb(0%,0%,0%)" x1="162.6353" x2="163.9983" y1="59.3168" y2="56.9559" /><line stroke="rgb(0%,0%,0%)" x1="163.9983" x2="164.2032" y1="56.9559" y2="56.6011" /><line stroke="rgb(0%,0%,0%)" x1="164.2032" x2="165.0456" y1="56.6011" y2="54.0083" /><line stroke="rgb(0%,0%,0%)" x1="165.0456" x2="165.1722" y1="54.0083" y2="53.6187" /><line stroke="rgb(0%,0%,0%)" x1="165.1722" x2="165.4572" y1="53.6187" y2="50.9075" /><line stroke="rgb(0%,0%,0%)" x1="165.4572" x2="165.5" y1="50.9075" y2="50.5" /><line stroke="rgb(0%,0%,0%)" x1="165.5" x2="165.215" y1="50.5" y2="47.7888" /><line stroke="rgb(0%,0%,0%)" x1="165.215" x2="165.1722" y1="47.7888" y2="47.3813" /><line stroke="rgb(0%,0%,0%)" x1="165.1722" x2="164.3298" y1="47.3813" y2="44.7886" /><line stroke="rgb(0%,0%,0%)" x1="164.3298" x2="164.2032" y1="44.7886" y2="44.3989" /><line stroke="rgb(0%,0%,0%)" x1="164.2032" x2="162.8401" y1="44.3989" y2="42.038" /><line stroke="rgb(0%,0%,0%)" x1="162.8401" x2="162.6353" y1="42.038" y2="41.6832" /><line stroke="rgb(0%,0%,0%)" x1="162.6353" x2="160.8111" y1="41.6832" y2="39.6573" /><line stroke="rgb(0%,0%,0%)" x1="160.8111" x2="160.537" y1="39.6573" y2="39.3528" /><line stroke="rgb(0%,0%,0%)" x1="160.537" x2="158.3315" y1="39.3528" y2="37.7504" /><line stroke="rgb(0%,0%,0%)" x1="158.3315" x2="158.0" y1="37.7504" y2="37.5096" /><line stroke="rgb(0%,0%,0%)" x1="158.0" x2="155.5096" y1="37.5096" y2="36.4008" /><line stroke="rgb(0%,0%,0%)" x1="155.5096" x2="155.1353" y1="36.4008" y2="36.2342" /><line stroke="rgb(0%,0%,0%)" x1="155.1353" x2="152.4687" y1="36.2342" y2="35.6674" /><line stroke="rgb(0%,0%,0%)" x1="152.4687" x2="152.0679" y1="35.6674" y2="35.5822" /><line stroke="rgb(0%,0%,0%)" x1="152.0679" x2="149.3418" y1="35.5822" y2="35.5822" /><line stroke="rgb(0%,0%,0%)" x1="149.3418" x2="148.9321" y1="35.5822" y2="35.5822" /><line stroke="rgb(0%,0%,0%)" x1="148.9321" x2="146.2655" y1="35.5822" y2="36.149" /><line stroke="rgb(0%,0%,0%)" x1="146.2655" x2="145.8647" y1="36.149" y2="36.2342" /><line stroke="rgb(0%,0%,0%)" x1="145.8647" x2="143.3743" y1="36.2342" y2="37.343" /><line stroke="rgb(0%,0%,0%)" x1="143.3743" x2="143.0" y1="37.343" y2="37.5096" /><line stroke="rgb(0%,0%,0%)" x1="143.0" x2="140.7945" y1="37.5096" y2="39.112" /><line stroke="rgb(0%,0%,0%)" x1="140.7945" x2="140.463" y1="39.112" y2="39.3528" /><line stroke="rgb(0%,0%,0%)" x1="140.463" x2="138.6389" y1="39.3528" y2="41.3787" /><line stroke="rgb(0%,0%,0%)" x1="138.6389" x2="138.3647" y1="41.3787" y2="41.6832" /><line stroke="rgb(0%,0%,0%)" x1="138.3647" x2="137.0017" y1="41.6832" y2="44.0441" /><line stroke="rgb(0%,0%,0%)" x1="137.0017" x2="136.7968" y1="44.0441" y2="44.3989" /><line stroke="rgb(0%,0%,0%)" x1="136.7968" x2="135.9544" y1="44.3989" y2="46.9917" /><line stroke="rgb(0%,0%,0%)" x1="135.9544" x2="135.8278" y1="46.9917" y2="47.3813" /><line stroke="rgb(0%,0%,0%)" x1="35.8278" x2="35.5428" y1="47.3813" y2="50.0925" /><line stroke="rgb(0%,0%,0%)" x1="35.5428" x2="35.5" y1="50.0925" y2="50.5" /><line stroke="rgb(0%,0%,0%)" x1="35.5" x2="35.785" y1="50.5" y2="53.2112" /><line stroke="rgb(0%,0%,0%)" x1="35.785" x2="35.8278" y1="53.2112" y2="53.6187" /><line stroke="rgb(0%,0%,0%)" x1="35.8278" x2="36.6702" y1="53.6187" y2="56.2114" /><line stroke="rgb(0%,0%,0%)" x1="36.6702" x2="36.7968" y1="56.2114" y2="56.6011" /><line stroke="rgb(0%,0%,0%)" x1="36.7968" x2="38.1599" y1="56.6011" y2="58.962" /><line stroke="rgb(0%,0%,0%)" x1="38.1599" x2="38.3647" y1="58.962" y2="59.3168" /><line stroke="rgb(0%,0%,0%)" x1="38.3647" x2="40.1889" y1="59.3168" y2="61.3427" /><line stroke="rgb(0%,0%,0%)" x1="40.1889" x2="40.463" y1="61.3427" y2="61.6472" /><line stroke="rgb(0%,0%,0%)" x1="40.463" x2="42.6685" y1="61.6472" y2="63.2495" /><line stroke="rgb(0%,0%,0%)" x1="42.6685" x2="43.0" y1="63.2495" y2="63.4904" /><line stroke="rgb(0%,0%,0%)" x1="43.0" x2="45.4904" y1="63.4904" y2="64.5992" /><line stroke="rgb(0%,0%,0%)" x1="45.4904" x2="45.8647" y1="64.5992" y2="64.7658" /><line stroke="rgb(0%,0%,0%)" x1="45.8647" x2="48.5313" y1="64.7658" y2="65.3326" /><line stroke="rgb(0%,0%,0%)" x1="48.5313" x2="48.9321" y1="65.3326" y2="65.4178" /><line stroke="rgb(0%,0%,0%)" x1="48.9321" x2="51.6582" y1="65.4178" y2="65.4178" /><line stroke="rgb(0%,0%,0%)" x1="51.6582" x2="52.0679" y1="65.4178" y2="65.4178" /><line stroke="rgb(0%,0%,0%)" x1="52.0679" x2="54.7345" y1="65.4178" y2="64.851" /><line stroke="rgb(0%,0%,0%)" x1="54.7345" x2="55.1353" y1="64.851" y2="64.7658" /><line stroke="rgb(0%,0%,0%)" x1="55.1353" x2="57.6257" y1="64.7658" y2="63.657" /><line stroke="rgb(0%,0%,0%)" x1="57.6257" x2="58.0" y1="63.657" y2="63.4904" /><line stroke="rgb(0%,0%,0%)" x1="58.0" x2="60.2055" y1="63.4904" y2="61.888" /><line stroke="rgb(0%,0%,0%)" x1="60.2055" x2="60.537" y1="61.888" y2="61.6472" /><line stroke="rgb(0%,0%,0%)" x1="60.537" x2="62.3611" y1="61.6472" y2="59.6213" /><line stroke="rgb(0%,0%,0%)" x1="62.3611" x2="62.6352" y1="59.6213" y2="59.3168" /><line stroke="rgb(0%,0%,0%)" x1="62.6352" x2="63.9983" y1="59.3168" y2="56.9559" /><line stroke="rgb(0%,0%,0%)" x1="63.9983" x2="64.2032" y1="56.9559" y2="56.6011" /><line stroke="rgb(0%,0%,0%)" x1="64.2032" x2="65.0456" y1="56.6011" y2="54.0083" /><line stroke="rgb(0%,0%,0%)" x1="65.0456" x2="65.1722" y1="54.0083" y2="53.6187" /><line stroke="rgb(0%,0%,0%)" x1="65.1722" x2="65.4572" y1="53.6187" y2="50.9075" /><line stroke="rgb(0%,0%,0%)" x1="65.4572" x2="65.5" y1="50.9075" y2="50.5" /><line stroke="rgb(0%,0%,0%)" x1="65.5" x2="65.215" y1="50.5" y2="47.7888" /><line stroke="rgb(0%,0%,0%)" x1="65.215" x2="65.1722" y1="47.7888" y2="47.3813" /><line stroke="rgb(0%,0%,0%)" x1="65.1722" x2="64.3298" y1="47.3813" y2="44.7886" /><line stroke="rgb(0%,0%,0%)" x1="64.3298" x2="64.2032" y1="44.7886" y2="44.3989" /><line stroke="rgb(0%,0%,0%)" x1="64.2032" x2="62.8401" y1="44.3989" y2="42.038" /><line stroke="rgb(0%,0%,0%)" x1="62.8401" x2="62.6352" y1="42.038" y2="41.6832" /><line stroke="rgb(0%,0%,0%)" x1="62.6352" x2="60.8111" y1="41.6832" y2="39.6573" /><line stroke="rgb(0%,0%,0%)" x1="60.8111" x2="60.537" y1="39.6573" y2="39.3528" /><line stroke="rgb(0%,0%,0%)" x1="60.537" x2="58.3315" y1="39.3528" y2="37.7504" /><line stroke="rgb(0%,0%,0%)" x1="58.3315" x2="58.0" y1="37.7504" y2="37.5096" /><line stroke="rgb(0%,0%,0%)" x1="58.0" x2="55.5096" y1="37.5096" y2="36.4008" /><line stroke="rgb(0%,0%,0%)" x1="55.5096" x2="55.1353" y1="36.4008" y2="36.2342" /><line stroke="rgb(0%,0%,0%)" x1="55.1353" x2="52.4687" y1="36.2342" y2="35.6674" /><line stroke="rgb(0%,0%,0%)" x1="52.4687" x2="52.0679" y1="35.6674" y2="35.5822" /><line stroke="rgb(0%,0%,0%)" x1="52.0679" x2="49.3418" y1="35.5822" y2="35.5822" /><line stroke="rgb(0%,0%,0%)" x1="49.3418" x2="48.9321" y1="35.5822" y2="35.5822" /><line stroke="rgb(0%,0%,0%)" x1="48.9321" x2="46.2655" y1="35.5822" y2="36.149" /><line stroke="rgb(0%,0%,0%)" x1="46.2655" x2="45.8647" y1="36.149" y2="36.2342" /><line stroke="rgb(0%,0%,0%)" x1="45.8647" x2="43.3743" y1="36.2342" y2="37.343" /><line stroke="rgb(0%,0%,0%)" x1="43.3743" x2="43.0" y1="37.343" y2="37.5096" /><line stroke="rgb(0%,0%,0%)" x1="43.0" x2="40.7945" y1="37.5096" y2="39.112" /><line stroke="rgb(0%,0%,0%)" x1="40.7945" x2="40.463" y1="39.112" y2="39.3528" /><line stroke="rgb(0%,0%,0%)" x1="40.463" x2="38.6389" y1="39.3528" y2="41.3787" /><line stroke="rgb(0%,0%,0%)" x1="38.6389" x2="38.3647" y1="41.3787" y2="41.6832" /><line stroke="rgb(0%,0%,0%)" x1="38.3647" x2="37.0017" y1="41.6832" y2="44.0441" /><line stroke="rgb(0%,0%,0%)" x1="37.0017" x2="36.7968" y1="44.0441" y2="44.3989" /><line stroke="rgb(0%,0%,0%)" x1="36.7968" x2="35.9544" y1="44.3989" y2="46.9917" /><line stroke="rgb(0%,0%,0%)" x1="35.9544" x2="35.8278" y1="46.9917" y2="47.3813" /></svg>