<?xml version="1.0" encoding="utf-8" ?>
<svg baseProfile="tiny" height="100%" version="1.2" width="100%" xmlns="http://www.w3.org/2000/svg" xmlns:ev="http://www.w3.org/2001/xml-events" xmlns:xlink="http://www.w3.org/1999/xlink"><defs /><line stroke="rgb(0%,0%,0%)" x1="351.9" x2="351.9" y1="0.5" y2="82.1519" /><line stroke="rgb(0%,0%,0%)" x1="351.9" x2="351.9" y1="82.1519" y2="100.5" /><line stroke="rgb(0%,0%,0%)" x1="210.0981" x2="321.8841" y1="100.5" y2="100.5" /><line stroke="rgb(0%,0%,0%)" x1="321.8841" x2="325.7827" y1="100.5" y2="100.5" /><line stroke="rgb(0%,0%,0%)" x1="325.7827" x2="330.2365" y1="100.5" y2="100.5" /><line stroke="rgb(0%,0%,0%)" x1="330.2365" x2="335.1796" y1="100.5" y2="100.5" /><line stroke="rgb(0%,0%,0%)" x1="335.1796" x2="340.5187" y1="100.5" y2="100.5" /><line stroke="rgb(0%,0%,0%)" x1="340.5187" x2="346.1372" y1="100.5" y2="100.5" /><line stroke="rgb(0%,0%,0%)" x1="346.1372" x2="351.9" y1="100.5" y2="100.5" /><line stroke="rgb(0%,0%,0%)" x1="210.0981" x2="190.6543" y1="100.5" y2="100.5" /><line stroke="rgb(0%,0%,0%)" x1="190.6543" x2="0.5" y1="100.5" y2="100.5" /><line stroke="rgb(0%,0%,0%)" x1="0.5" x2="190.6543" y1="0.5" y2="0.5" /><line stroke="rgb(0%,0%,0%)" x1="190.6543" x2="210.0981" y1="0.5" y2="0.5" /><line stroke="rgb(0%,0%,0%)" x1="210.0981" x2="321.8841" y1="0.5" y2="0.5" /><line stroke="rgb(0%,0%,0%)" x1="321.8841" x2="325.7827" y1="0.5" y2="0.5" /><line stroke="rgb(0%,0%,0%)" x1="325.7827" x2="330.2365" y1="0.5" y2="0.5" /><line stroke="rgb(0%,0%,0%)" x1="330.2365" x2="335.1796" y1="0.5" y2="0.5" /><line stroke="rgb(0%,0%,0%)" x1="335.1796" x2="340.5187" y1="0.5" y2="0.5" /><line stroke="rgb(0%,0%,0%)" x1="340.5187" x2="346.1372" y1="0.5" y2="0.5" /><line stroke="rgb(0%,0%,0%)" x1="346.1372" x2="351.9" y1="0.5" y2="0.5" /><line stroke="rgb(0%,0%,0%)" x1="0.5" x2="0.5" y1="0.5" y2="6.0332" /><line stroke="rgb(0%,0%,0%)" x1="0.5" x2="0.5" y1="6.0332" y2="100.5" /><line stroke="rgb(0%,0%,0%)" x1="135.8278" x2="135.5363" y1="47.3813" y2="50.1549" /><line stroke="rgb(0%,0%,0%)" x1="135.5363" x2="135.5" y1="50.1549" y2="50.5" /><line stroke="rgb(0%,0%,0%)" x1="135.5" x2="135.7915" y1="50.5" y2="53.2735" /><line stroke="rgb(0%,0%,0%)" x1="135.7915" x2="135.8278" y1="53.2735" y2="53.6187" /><line stroke="rgb(0%,0%,0%)" x1="135.8278" x2="136.6896" y1="53.6187" y2="56.271" /><line stroke="rgb(0%,0%,0%)" x1="136.6896" x2="136.7968" y1="56.271" y2="56.6011" /><line stroke="rgb(0%,0%,0%)" x1="136.7968" x2="138.1912" y1="56.6011" y2="59.0162" /><line stroke="rgb(0%,0%,0%)" x1="138.1912" x2="138.3647" y1="59.0162" y2="59.3168" /><line stroke="rgb(0%,0%,0%)" x1="138.3647" x2="140.2308" y1="59.3168" y2="61.3893" /><line stroke="rgb(0%,0%,0%)" x1="140.2308" x2="140.463" y1="61.3893" y2="61.6472" /><line stroke="rgb(0%,0%,0%)" x1="140.463" x2="142.7192" y1="61.6472" y2="63.2864" /><line stroke="rgb(0%,0%,0%)" x1="142.7192" x2="143.0" y1="63.2864" y2="63.4904" /><line stroke="rgb(0%,0%,0%)" x1="143.0" x2="145.5477" y1="63.4904" y2="64.6247" /><line stroke="rgb(0%,0%,0%)" x1="145.5477" x2="145.8647" y1="64.6247" y2="64.7658" /><line stroke="rgb(0%,0%,0%)" x1="145.8647" x2="148.5926" y1="64.7658" y2="65.3457" /><line stroke="rgb(0%,0%,0%)" x1="148.5926" x2="148.9321" y1="65.3457" y2="65.4178" /><line stroke="rgb(0%,0%,0%)" x1="148.9321" x2="151.7209" y1="65.4178" y2="65.4178" /><line stroke="rgb(0%,0%,0%)" x1="151.7209" x2="152.0679" y1="65.4178" y2="65.4178" /><line stroke="rgb(0%,0%,0%)" x1="152.0679" x2="154.7958" y1="65.4178" y2="64.838" /><line stroke="rgb(0%,0%,0%)" x1="154.7958" x2="155.1353" y1="64.838" y2="64.7658" /><line stroke="rgb(0%,0%,0%)" x1="155.1353" x2="157.683" y1="64.7658" y2="63.6315" /><line stroke="rgb(0%,0%,0%)" x1="157.683" x2="158.0" y1="63.6315" y2="63.4904" /><line stroke="rgb(0%,0%,0%)" x1="158.0" x2="160.2562" y1="63.4904" y2="61.8511" /><line stroke="rgb(0%,0%,0%)" x1="160.2562" x2="160.537" y1="61.8511" y2="61.6472" /><line stroke="rgb(0%,0%,0%)" x1="160.537" x2="162.403" y1="61.6472" y2="59.5747" /><line stroke="rgb(0%,0%,0%)" x1="162.403" x2="162.6353" y1="59.5747" y2="59.3168" /><line stroke="rgb(0%,0%,0%)" x1="162.6353" x2="164.0297" y1="59.3168" y2="56.9016" /><line stroke="rgb(0%,0%,0%)" x1="164.0297" x2="164.2032" y1="56.9016" y2="56.6011" /><line stroke="rgb(0%,0%,0%)" x1="164.2032" x2="165.065" y1="56.6011" y2="53.9487" /><line stroke="rgb(0%,0%,0%)" x1="165.065" x2="165.1722" y1="53.9487" y2="53.6187" /><line stroke="rgb(0%,0%,0%)" x1="165.1722" x2="165.4637" y1="53.6187" y2="50.8451" /><line stroke="rgb(0%,0%,0%)" x1="165.4637" x2="165.5" y1="50.8451" y2="50.5" /><line stroke="rgb(0%,0%,0%)" x1="165.5" x2="165.2085" y1="50.5" y2="47.7265" /><line stroke="rgb(0%,0%,0%)" x1="165.2085" x2="165.1722" y1="47.7265" y2="47.3813" /><line stroke="rgb(0%,0%,0%)" x1="165.1722" x2="164.3104" y1="47.3813" y2="44.729" /><line stroke="rgb(0%,0%,0%)" x1="164.3104" x2="164.2032" y1="44.729" y2="44.3989" /><line stroke="rgb(0%,0%,0%)" x1="164.2032" x2="162.8088" y1="44.3989" y2="41.9838" /><line stroke="rgb(0%,0%,0%)" x1="162.8088" x2="162.6353" y1="41.9838" y2="41.6832" /><line stroke="rgb(0%,0%,0%)" x1="162.6353" x2="160.7692" y1="41.6832" y2="39.6107" /><line stroke="rgb(0%,0%,0%)" x1="160.7692" x2="160.537" y1="39.6107" y2="39.3528" /><line stroke="rgb(0%,0%,0%)" x1="160.537" x2="158.2807" y1="39.3528" y2="37.7136" /><line stroke="rgb(0%,0%,0%)" x1="158.2807" x2="158.0" y1="37.7136" y2="37.5096" /><line stroke="rgb(0%,0%,0%)" x1="158.0" x2="155.4523" y1="37.5096" y2="36.3753" /><line stroke="rgb(0%,0%,0%)" x1="155.4523" x2="155.1353" y1="36.3753" y2="36.2342" /><line stroke="rgb(0%,0%,0%)" x1="155.1353" x2="152.4074" y1="36.2342" y2="35.6543" /><line stroke="rgb(0%,0%,0%)" x1="152.4074" x2="152.0679" y1="35.6543" y2="35.5822" /><line stroke="rgb(0%,0%,0%)" x1="152.0679" x2="149.2791" y1="35.5822" y2="35.5822" /><line stroke="rgb(0%,0%,0%)" x1="149.2791" x2="148.9321" y1="35.5822" y2="35.5822" /><line stroke="rgb(0%,0%,0%)" x1="148.9321" x2="146.2042" y1="35.5822" y2="36.162" /><line stroke="rgb(0%,0%,0%)" x1="146.2042" x2="145.8647" y1="36.162" y2="36.2342" /><line stroke="rgb(0%,0%,0%)" x1="145.8647" x2="143.317" y1="36.2342" y2="37.3685" /><line stroke="rgb(0%,0%,0%)" x1="143.317" x2="143.0" y1="37.3685" y2="37.5096" /><line stroke="rgb(0%,0%,0%)" x1="143.0" x2="140.7438" y1="37.5096" y2="39.1488" /><line stroke="rgb(0%,0%,0%)" x1="140.7438" x2="140.463" y1="39.1488" y2="39.3528" /><line stroke="rgb(0%,0%,0%)" x1="140.463" x2="138.5969" y1="39.3528" y2="41.4253" /><line stroke="rgb(0%,0%,0%)" x1="138.5969" x2="138.3647" y1="41.4253" y2="41.6832" /><line stroke="rgb(0%,0%,0%)" x1="138.3647" x2="136.9703" y1="41.6832" y2="44.0984" /><line stroke="rgb(0%,0%,0%)" x1="136.9703" x2="136.7968" y1="44.0984" y2="44.3989" /><line stroke="rgb(0%,0%,0%)" x1="136.7968" x2="135.935" y1="44.3989" y2="47.0513" /><line stroke="rgb(0%,0%,0%)" x1="135.935" x2="135.8278" y1="47.0513" y2="47.3813" /><line stroke="rgb(0%,0%,0%)" x1="35.8278" x2="35.5363" y1="47.3813" y2="50.1549" /><line stroke="rgb(0%,0%,0%)" x1="35.5363" x2="35.5" y1="50.1549" y2="50.5" /><line stroke="rgb(0%,0%,0%)" x1="35.5" x2="35.7915" y1="50.5" y2="53.2735" /><line stroke="rgb(0%,0%,0%)" x1="35.7915" x2="35.8278" y1="53.2735" y2="53.6187" /><line stroke="rgb(0%,0%,0%)" x1="35.8278" x2="36.6896" y1="53.6187" y2="56.271" /><line stroke="rgb(0%,0%,0%)" x1="36.6896" x2="36.7968" y1="56.271" y2="56.6011" /><line stroke="rgb(0%,0%,0%)" x1="36.7968" x2="38.1912" y1="56.6011" y2="59.0162" /><line stroke="rgb(0%,0%,0%)" x1="38.1912" x2="38.3647" y1="59.0162" y2="59.3168" /><line stroke="rgb(0%,0%,0%)" x1="38.3647" x2="40.2308" y1="59.3168" y2="61.3893" /><line stroke="rgb(0%,0%,0%)" x1="40.2308" x2="40.463" y1="61.3893" y2="61.6472" /><line stroke="rgb(0%,0%,0%)" x1="40.463" x2="42.7192" y1="61.6472" y2="63.2864" /><line stroke="rgb(0%,0%,0%)" x1="42.7192" x2="43.0" y1="63.2864" y2="63.4904" /><line stroke="rgb(0%,0%,0%)" x1="43.0" x2="45.5477" y1="63.4904" y2="64.6247" /><line stroke="rgb(0%,0%,0%)" x1="45.5477" x2="45.8647" y1="64.6247" y2="64.7658" /><line stroke="rgb(0%,0%,0%)" x1="45.8647" x2="48.5926" y1="64.7658" y2="65.3457" /><line stroke="rgb(0%,0%,0%)" x1="48.5926" x2="48.9321" y1="65.3457" y2="65.4178" /><line stroke="rgb(0%,0%,0%)" x1="48.9321" x2="51.7209" y1="65.4178" y2="65.4178" /><line stroke="rgb(0%,0%,0%)" x1="51.7209" x2="52.0679" y1="65.4178" y2="65.4178" /><line stroke="rgb(0%,0%,0%)" x1="52.0679" x2="54.7958" y1="65.4178" y2="64.838" /><line stroke="rgb(0%,0%,0%)" x1="54.7958" x2="55.1353" y1="64.838" y2="64.7658" /><line stroke="rgb(0%,0%,0%)" x1="55.1353" x2="57.683" y1="64.7658" y2="63.6315" /><line stroke="rgb(0%,0%,0%)" x1="57.683" x2="58.0" y1="63.6315" y2="63.4904" /><line stroke="rgb(0%,0%,0%)" x1="58.0" x2="60.2562" y1="63.4904" y2="61.8511" /><line stroke="rgb(0%,0%,0%)" x1="60.2562" x2="60.537" y1="61.8511" y2="61.6472" /><line stroke="rgb(0%,0%,0%)" x1="60.537" x2="62.403" y1="61.6472" y2="59.5747" /><line stroke="rgb(0%,0%,0%)" x1="62.403" x2="62.6352" y1="59.5747" y2="59.3168" /><line stroke="rgb(0%,0%,0%)" x1="62.6352" x2="64.0297" y1="59.3168" y2="56.9016" /><line stroke="rgb(0%,0%,0%)" x1="64.0297" x2="64.2032" y1="56.9016" y2="56.6011" /><line stroke="rgb(0%,0%,0%)" x1="64.2032" x2="65.065" y1="56.6011" y2="53.9487" /><line stroke="rgb(0%,0%,0%)" x1="65.065" x2="65.1722" y1="53.9487" y2="53.6187" /><line stroke="rgb(0%,0%,0%)" x1="65.1722" x2="65.4637" y1="53.6187" y2="50.8451" /><line stroke="rgb(0%,0%,0%)" x1="65.4637" x2="65.5" y1="50.8451" y2="50.5" /><line stroke="rgb(0%,0%,0%)" x1="65.5" x2="65.2085" y1="50.5" y2="47.7265" /><line stroke="rgb(0%,0%,0%)" x1="65.2085" x2="65.1722" y1="47.7265" y2="47.3813" /><line stroke="rgb(0%,0%,0%)" x1="65.1722" x2="64.3104" y1="47.3813" y2="44.729" /><line stroke="rgb(0%,0%,0%)" x1="64.3104" x2="64.2032" y1="44.729" y2="44.3989" /><line stroke="rgb(0%,0%,0%)" x1="64.2032" x2="62.8088" y1="44.3989" y2="41.9838" /><line stroke="rgb(0%,0%,0%)" x1="62.8088" x2="62.6352" y1="41.9838" y2="41.6832" /><line stroke="rgb(0%,0%,0%)" x1="62.6352" x2="60.7692" y1="41.6832" y2="39.6107" /><line stroke="rgb(0%,0%,0%)" x1="60.7692" x2="60.537" y1="39.6107" y2="39.3528" /><line stroke="rgb(0%,0%,0%)" x1="60.537" x2="58.2808" y1="39.3528" y2="37.7136" /><line stroke="rgb(0%,0%,0%)" x1="58.2808" x2="58.0" y1="37.7136" y2="37.5096" /><line stroke="rgb(0%,0%,0%)" x1="58.0" x2="55.4523" y1="37.5096" y2="36.3753" /><line stroke="rgb(0%,0%,0%)" x1="55.4523" x2="55.1353" y1="36.3753" y2="36.2342" /><line stroke="rgb(0%,0%,0%)" x1="55.1353" x2="52.4074" y1="36.2342" y2="35.6543" /><line stroke="rgb(0%,0%,0%)" x1="52.4074" x2="52.0679" y1="35.6543" y2="35.5822" /><line stroke="rgb(0%,0%,0%)" x1="52.0679" x2="49.2791" y1="35.5822" y2="35.5822" /><line stroke="rgb(0%,0%,0%)" x1="49.2791" x2="48.9321" y1="35.5822" y2="35.5822" /><line stroke="rgb(0%,0%,0%)" x1="48.9321" x2="46.2042" y1="35.5822" y2="36.162" /><line stroke="rgb(0%,0%,0%)" x1="46.2042" x2="45.8647" y1="36.162" y2="36.2342" /><line stroke="rgb(0%,0%,0%)" x1="45.8647" x2="43.317" y1="36.2342" y2="37.3685" /><line stroke="rgb(0%,0%,0%)" x1="43.317" x2="43.0" y1="37.3685" y2="37.5096" /><line stroke="rgb(0%,0%,0%)" x1="43.0" x2="40.7438" y1="37.5096" y2="39.1488" /><line stroke="rgb(0%,0%,0%)" x1="40.7438" x2="40.463" y1="39.1488" y2="39.3528" /><line stroke="rgb(0%,0%,0%)" x1="40.463" x2="38.5969" y1="39.3528" y2="41.4253" /><line stroke="rgb(0%,0%,0%)" x1="38.5969" x2="38.3647" y1="41.4253" y2="41.6832" /><line stroke="rgb(0%,0%,0%)" x1="38.3647" x2="36.9703" y1="41.6832" y2="44.0984" /><line stroke="rgb(0%,0%,0%)" x1="36.9703" x2="36.7968" y1="44.0984" y2="44.3989" /><line stroke="rgb(0%,0%,0%)" x1="36.7968" x2="35.935" y1="44.3989" y2="47.0513" /><line stroke="rgb(0%,0%,0%)" x1="35.935" x2="35.8278" y1="47.0513" y2="47.3813" /></svg>