<?xml version="1.0" encoding="utf-8" ?>
<svg baseProfile="tiny" height="100%" version="1.2" width="100%" xmlns="http://www.w3.org/2000/svg" xmlns:ev="http://www.w3.org/2001/xml-events" xmlns:xlink="http://www.w3.org/1999/xlink"><defs /><line stroke="rgb(0%,0%,0%)" x1="351.9" x2="351.9" y1="0.5" y2="83.016" /><line stroke="rgb(0%,0%,0%)" x1="351.9" x2="351.9" y1="83.016" y2="100.5" /><line stroke="rgb(0%,0%,0%)" x1="208.5975" x2="321.5665" y1="100.5" y2="100.5" /><line stroke="rgb(0%,0%,0%)" x1="321.5665" x2="325.5063" y1="100.5" y2="100.5" /><line stroke="rgb(0%,0%,0%)" x1="325.5063" x2="330.0073" y1="100.5" y2="100.5" /><line stroke="rgb(0%,0%,0%)" x1="330.0073" x2="335.0026" y1="100.5" y2="100.5" /><line stroke="rgb(0%,0%,0%)" x1="335.0026" x2="340.3983" y1="100.5" y2="100.5" /><line stroke="rgb(0%,0%,0%)" x1="340.3983" x2="346.0762" y1="100.5" y2="100.5" /><line stroke="rgb(0%,0%,0%)" x1="346.0762" x2="351.9" y1="100.5" y2="100.5" /><line stroke="rgb(0%,0%,0%)" x1="208.5975" x2="192.6665" y1="100.5" y2="100.5" /><line stroke="rgb(0%,0%,0%)" x1="192.6665" x2="0.5" y1="100.5" y2="100.5" /><line stroke="rgb(0%,0%,0%)" x1="0.5" x2="192.6665" y1="0.5" y2="0.5" /><line stroke="rgb(0%,0%,0%)" x1="192.6665" x2="208.5975" y1="0.5" y2="0.5" /><line stroke="rgb(0%,0%,0%)" x1="208.5975" x2="321.5665" y1="0.5" y2="0.5" /><line stroke="rgb(0%,0%,0%)" x1="321.5665" x2="325.5063" y1="0.5" y2="0.5" /><line stroke="rgb(0%,0%,0%)" x1="325.5063" x2="330.0073" y1="0.5" y2="0.5" /><line stroke="rgb(0%,0%,0%)" x1="330.0073" x2="335.0026" y1="0.5" y2="0.5" /><line stroke="rgb(0%,0%,0%)" x1="335.0026" x2="340.3983" y1="0.5" y2="0.5" /><line stroke="rgb(0%,0%,0%)" x1="340.3983" x2="346.0762" y1="0.5" y2="0.5" /><line stroke="rgb(0%,0%,0%)" x1="346.0762" x2="351.9" y1="0.5" y2="0.5" /><line stroke="rgb(0%,0%,0%)" x1="0.5" x2="0.5" y1="0.5" y2="5.0336" /><line stroke="rgb(0%,0%,0%)" x1="0.5" x2="0.5" y1="5.0336" y2="100.5" /><line stroke="rgb(0%,0%,0%)" x1="135.8278" x2="135.5297" y1="47.3813" y2="50.2172" /><line stroke="rgb(0%,0%,0%)" x1="135.5297" x2="135.5" y1="50.2172" y2="50.5" /><line stroke="rgb(0%,0%,0%)" x1="135.5" x2="135.7981" y1="50.5" y2="53.3359" /><line stroke="rgb(0%,0%,0%)" x1="135.7981" x2="135.8278" y1="53.3359" y2="53.6187" /><line stroke="rgb(0%,0%,0%)" x1="135.8278" x2="136.709" y1="53.6187" y2="56.3306" /><line stroke="rgb(0%,0%,0%)" x1="136.709" x2="136.7968" y1="56.3306" y2="56.6011" /><line stroke="rgb(0%,0%,0%)" x1="136.7968" x2="138.2226" y1="56.6011" y2="59.0705" /><line stroke="rgb(0%,0%,0%)" x1="138.2226" x2="138.3647" y1="59.0705" y2="59.3168" /><line stroke="rgb(0%,0%,0%)" x1="138.3647" x2="140.2728" y1="59.3168" y2="61.4359" /><line stroke="rgb(0%,0%,0%)" x1="140.2728" x2="140.463" y1="61.4359" y2="61.6472" /><line stroke="rgb(0%,0%,0%)" x1="140.463" x2="142.77" y1="61.6472" y2="63.3233" /><line stroke="rgb(0%,0%,0%)" x1="142.77" x2="143.0" y1="63.3233" y2="63.4904" /><line stroke="rgb(0%,0%,0%)" x1="143.0" x2="145.605" y1="63.4904" y2="64.6502" /><line stroke="rgb(0%,0%,0%)" x1="145.605" x2="145.8647" y1="64.6502" y2="64.7658" /><line stroke="rgb(0%,0%,0%)" x1="145.8647" x2="148.6539" y1="64.7658" y2="65.3587" /><line stroke="rgb(0%,0%,0%)" x1="148.6539" x2="148.9321" y1="65.3587" y2="65.4178" /><line stroke="rgb(0%,0%,0%)" x1="148.9321" x2="151.7836" y1="65.4178" y2="65.4178" /><line stroke="rgb(0%,0%,0%)" x1="151.7836" x2="152.0679" y1="65.4178" y2="65.4178" /><line stroke="rgb(0%,0%,0%)" x1="152.0679" x2="154.8571" y1="65.4178" y2="64.825" /><line stroke="rgb(0%,0%,0%)" x1="154.8571" x2="155.1353" y1="64.825" y2="64.7658" /><line stroke="rgb(0%,0%,0%)" x1="155.1353" x2="157.7402" y1="64.7658" y2="63.606" /><line stroke="rgb(0%,0%,0%)" x1="157.7402" x2="158.0" y1="63.606" y2="63.4904" /><line stroke="rgb(0%,0%,0%)" x1="158.0" x2="160.3069" y1="63.4904" y2="61.8143" /><line stroke="rgb(0%,0%,0%)" x1="160.3069" x2="160.537" y1="61.8143" y2="61.6472" /><line stroke="rgb(0%,0%,0%)" x1="160.537" x2="162.445" y1="61.6472" y2="59.5281" /><line stroke="rgb(0%,0%,0%)" x1="162.445" x2="162.6353" y1="59.5281" y2="59.3168" /><line stroke="rgb(0%,0%,0%)" x1="162.6353" x2="164.061" y1="59.3168" y2="56.8473" /><line stroke="rgb(0%,0%,0%)" x1="164.061" x2="164.2032" y1="56.8473" y2="56.6011" /><line stroke="rgb(0%,0%,0%)" x1="164.2032" x2="165.0843" y1="56.6011" y2="53.8891" /><line stroke="rgb(0%,0%,0%)" x1="165.0843" x2="165.1722" y1="53.8891" y2="53.6187" /><line stroke="rgb(0%,0%,0%)" x1="165.1722" x2="165.4703" y1="53.6187" y2="50.7828" /><line stroke="rgb(0%,0%,0%)" x1="165.4703" x2="165.5" y1="50.7828" y2="50.5" /><line stroke="rgb(0%,0%,0%)" x1="165.5" x2="165.2019" y1="50.5" y2="47.6641" /><line stroke="rgb(0%,0%,0%)" x1="165.2019" x2="165.1722" y1="47.6641" y2="47.3813" /><line stroke="rgb(0%,0%,0%)" x1="165.1722" x2="164.291" y1="47.3813" y2="44.6694" /><line stroke="rgb(0%,0%,0%)" x1="164.291" x2="164.2032" y1="44.6694" y2="44.3989" /><line stroke="rgb(0%,0%,0%)" x1="164.2032" x2="162.7774" y1="44.3989" y2="41.9295" /><line stroke="rgb(0%,0%,0%)" x1="162.7774" x2="162.6353" y1="41.9295" y2="41.6832" /><line stroke="rgb(0%,0%,0%)" x1="162.6353" x2="160.7272" y1="41.6832" y2="39.5641" /><line stroke="rgb(0%,0%,0%)" x1="160.7272" x2="160.537" y1="39.5641" y2="39.3528" /><line stroke="rgb(0%,0%,0%)" x1="160.537" x2="158.23" y1="39.3528" y2="37.6767" /><line stroke="rgb(0%,0%,0%)" x1="158.23" x2="158.0" y1="37.6767" y2="37.5096" /><line stroke="rgb(0%,0%,0%)" x1="158.0" x2="155.395" y1="37.5096" y2="36.3498" /><line stroke="rgb(0%,0%,0%)" x1="155.395" x2="155.1353" y1="36.3498" y2="36.2342" /><line stroke="rgb(0%,0%,0%)" x1="155.1353" x2="152.346" y1="36.2342" y2="35.6413" /><line stroke="rgb(0%,0%,0%)" x1="152.346" x2="152.0679" y1="35.6413" y2="35.5822" /><line stroke="rgb(0%,0%,0%)" x1="152.0679" x2="149.2164" y1="35.5822" y2="35.5822" /><line stroke="rgb(0%,0%,0%)" x1="149.2164" x2="148.9321" y1="35.5822" y2="35.5822" /><line stroke="rgb(0%,0%,0%)" x1="148.9321" x2="146.1429" y1="35.5822" y2="36.175" /><line stroke="rgb(0%,0%,0%)" x1="146.1429" x2="145.8647" y1="36.175" y2="36.2342" /><line stroke="rgb(0%,0%,0%)" x1="145.8647" x2="143.2597" y1="36.2342" y2="37.394" /><line stroke="rgb(0%,0%,0%)" x1="143.2597" x2="143.0" y1="37.394" y2="37.5096" /><line stroke="rgb(0%,0%,0%)" x1="143.0" x2="140.6931" y1="37.5096" y2="39.1857" /><line stroke="rgb(0%,0%,0%)" x1="140.6931" x2="140.463" y1="39.1857" y2="39.3528" /><line stroke="rgb(0%,0%,0%)" x1="140.463" x2="138.555" y1="39.3528" y2="41.4719" /><line stroke="rgb(0%,0%,0%)" x1="138.555" x2="138.3647" y1="41.4719" y2="41.6832" /><line stroke="rgb(0%,0%,0%)" x1="138.3647" x2="136.939" y1="41.6832" y2="44.1527" /><line stroke="rgb(0%,0%,0%)" x1="136.939" x2="136.7968" y1="44.1527" y2="44.3989" /><line stroke="rgb(0%,0%,0%)" x1="136.7968" x2="135.9157" y1="44.3989" y2="47.1109" /><line stroke="rgb(0%,0%,0%)" x1="135.9157" x2="135.8278" y1="47.1109" y2="47.3813" /><line stroke="rgb(0%,0%,0%)" x1="35.8278" x2="35.5297" y1="47.3813" y2="50.2172" /><line stroke="rgb(0%,0%,0%)" x1="35.5297" x2="35.5" y1="50.2172" y2="50.5" /><line stroke="rgb(0%,0%,0%)" x1="35.5" x2="35.7981" y1="50.5" y2="53.3359" /><line stroke="rgb(0%,0%,0%)" x1="35.7981" x2="35.8278" y1="53.3359" y2="53.6187" /><line stroke="rgb(0%,0%,0%)" x1="35.8278" x2="36.7089" y1="53.6187" y2="56.3306" /><line stroke="rgb(0%,0%,0%)" x1="36.7089" x2="36.7968" y1="56.3306" y2="56.6011" /><line stroke="rgb(0%,0%,0%)" x1="36.7968" x2="38.2226" y1="56.6011" y2="59.0705" /><line stroke="rgb(0%,0%,0%)" x1="38.2226" x2="38.3647" y1="59.0705" y2="59.3168" /><line stroke="rgb(0%,0%,0%)" x1="38.3647" x2="40.2728" y1="59.3168" y2="61.4359" /><line stroke="rgb(0%,0%,0%)" x1="40.2728" x2="40.463" y1="61.4359" y2="61.6472" /><line stroke="rgb(0%,0%,0%)" x1="40.463" x2="42.77" y1="61.6472" y2="63.3233" /><line stroke="rgb(0%,0%,0%)" x1="42.77" x2="43.0" y1="63.3233" y2="63.4904" /><line stroke="rgb(0%,0%,0%)" x1="43.0" x2="45.605" y1="63.4904" y2="64.6502" /><line stroke="rgb(0%,0%,0%)" x1="45.605" x2="45.8647" y1="64.6502" y2="64.7658" /><line stroke="rgb(0%,0%,0%)" x1="45.8647" x2="48.6539" y1="64.7658" y2="65.3587" /><line stroke="rgb(0%,0%,0%)" x1="48.6539" x2="48.9321" y1="65.3587" y2="65.4178" /><line stroke="rgb(0%,0%,0%)" x1="48.9321" x2="51.7836" y1="65.4178" y2="65.4178" /><line stroke="rgb(0%,0%,0%)" x1="51.7836" x2="52.0679" y1="65.4178" y2="65.4178" /><line stroke="rgb(0%,0%,0%)" x1="52.0679" x2="54.8571" y1="65.4178" y2="64.825" /><line stroke="rgb(0%,0%,0%)" x1="54.8571" x2="55.1353" y1="64.825" y2="64.7658" /><line stroke="rgb(0%,0%,0%)" x1="55.1353" x2="57.7402" y1="64.7658" y2="63.606" /><line stroke="rgb(0%,0%,0%)" x1="57.7402" x2="58.0" y1="63.606" y2="63.4904" /><line stroke="rgb(0%,0%,0%)" x1="58.0" x2="60.3069" y1="63.4904" y2="61.8143" /><line stroke="rgb(0%,0%,0%)" x1="60.3069" x2="60.537" y1="61.8143" y2="61.6472" /><line stroke="rgb(0%,0%,0%)" x1="60.537" x2="62.445" y1="61.6472" y2="59.5281" /><line stroke="rgb(0%,0%,0%)" x1="62.445" x2="62.6352" y1="59.5281" y2="59.3168" /><line stroke="rgb(0%,0%,0%)" x1="62.6352" x2="64.061" y1="59.3168" y2="56.8473" /><line stroke="rgb(0%,0%,0%)" x1="64.061" x2="64.2032" y1="56.8473" y2="56.6011" /><line stroke="rgb(0%,0%,0%)" x1="64.2032" x2="65.0843" y1="56.6011" y2="53.8891" /><line stroke="rgb(0%,0%,0%)" x1="65.0843" x2="65.1722" y1="53.8891" y2="53.6187" /><line stroke="rgb(0%,0%,0%)" x1="65.1722" x2="65.4703" y1="53.6187" y2="50.7828" /><line stroke="rgb(0%,0%,0%)" x1="65.4703" x2="65.5" y1="50.7828" y2="50.5" /><line stroke="rgb(0%,0%,0%)" x1="65.5" x2="65.2019" y1="50.5" y2="47.6641" /><line stroke="rgb(0%,0%,0%)" x1="65.2019" x2="65.1722" y1="47.6641" y2="47.3813" /><line stroke="rgb(0%,0%,0%)" x1="65.1722" x2="64.291" y1="47.3813" y2="44.6694" /><line stroke="rgb(0%,0%,0%)" x1="64.291" x2="64.2032" y1="44.6694" y2="44.3989" /><line stroke="rgb(0%,0%,0%)" x1="64.2032" x2="62.7774" y1="44.3989" y2="41.9295" /><line stroke="rgb(0%,0%,0%)" x1="62.7774" x2="62.6352" y1="41.9295" y2="41.6832" /><line stroke="rgb(0%,0%,0%)" x1="62.6352" x2="60.7272" y1="41.6832" y2="39.5641" /><line stroke="rgb(0%,0%,0%)" x1="60.7272" x2="60.537" y1="39.5641" y2="39.3528" /><line stroke="rgb(0%,0%,0%)" x1="60.537" x2="58.23" y1="39.3528" y2="37.6767" /><line stroke="rgb(0%,0%,0%)" x1="58.23" x2="58.0" y1="37.6767" y2="37.5096" /><line stroke="rgb(0%,0%,0%)" x1="58.0" x2="55.395" y1="37.5096" y2="36.3498" /><line stroke="rgb(0%,0%,0%)" x1="55.395" x2="55.1353" y1="36.3498" y2="36.2342" /><line stroke="rgb(0%,0%,0%)" x1="55.1353" x2="52.346" y1="36.2342" y2="35.6413" /><line stroke="rgb(0%,0%,0%)" x1="52.346" x2="52.0679" y1="35.6413" y2="35.5822" /><line stroke="rgb(0%,0%,0%)" x1="52.0679" x2="49.2164" y1="35.5822" y2="35.5822" /><line stroke="rgb(0%,0%,0%)" x1="49.2164" x2="48.9321" y1="35.5822" y2="35.5822" /><line stroke="rgb(0%,0%,0%)" x1="48.9321" x2="46.1429" y1="35.5822" y2="36.175" /><line stroke="rgb(0%,0%,0%)" x1="46.1429" x2="45.8647" y1="36.175" y2="36.2342" /><line stroke="rgb(0%,0%,0%)" x1="45.8647" x2="43.2598" y1="36.2342" y2="37.394" /><line stroke="rgb(0%,0%,0%)" x1="43.2598" x2="43.0" y1="37.394" y2="37.5096" /><line stroke="rgb(0%,0%,0%)" x1="43.0" x2="40.6931" y1="37.5096" y2="39.1857" /><line stroke="rgb(0%,0%,0%)" x1="40.6931" x2="40.463" y1="39.1857" y2="39.3528" /><line stroke="rgb(0%,0%,0%)" x1="40.463" x2="38.555" y1="39.3528" y2="41.4719" /><line stroke="rgb(0%,0%,0%)" x1="38.555" x2="38.3647" y1="41.4719" y2="41.6832" /><line stroke="rgb(0%,0%,0%)" x1="38.3647" x2="36.939" y1="41.6832" y2="44.1527" /><line stroke="rgb(0%,0%,0%)" x1="36.939" x2="36.7968" y1="44.1527" y2="44.3989" /><line stroke="rgb(0%,0%,0%)" x1="36.7968" x2="35.9156" y1="44.3989" y2="47.1109" /><line stroke="rgb(0%,0%,0%)" x1="35.9156" x2="35.8278" y1="47.1109" y2="47.3813" /></svg>