<?xml version="1.0" encoding="utf-8" ?>
<svg baseProfile="tiny" height="100%" version="1.2" width="100%" xmlns="http://www.w3.org/2000/svg" xmlns:ev="http://www.w3.org/2001/xml-events" xmlns:xlink="http://www.w3.org/1999/xlink"><defs /><line stroke="rgb(0%,0%,0%)" x1="351.9" x2="351.9" y1="0.5" y2="83.88" /><line stroke="rgb(0%,0%,0%)" x1="351.9" x2="351.9" y1="83.88" y2="100.5" /><line stroke="rgb(0%,0%,0%)" x1="207.097" x2="321.2488" y1="100.5" y2="100.5" /><line stroke="rgb(0%,0%,0%)" x1="321.2488" x2="325.2299" y1="100.5" y2="100.5" /><line stroke="rgb(0%,0%,0%)" x1="325.2299" x2="329.778" y1="100.5" y2="100.5" /><line stroke="rgb(0%,0%,0%)" x1="329.778" x2="334.8257" y1="100.5" y2="100.5" /><line stroke="rgb(0%,0%,0%)" x1="334.8257" x2="340.2779" y1="100.5" y2="100.5" /><line stroke="rgb(0%,0%,0%)" x1="340.2779" x2="346.0152" y1="100.5" y2="100.5" /><line stroke="rgb(0%,0%,0%)" x1="346.0152" x2="351.9" y1="100.5" y2="100.5" /><line stroke="rgb(0%,0%,0%)" x1="207.097" x2="194.6787" y1="100.5" y2="100.5" /><line stroke="rgb(0%,0%,0%)" x1="194.6787" x2="0.5" y1="100.5" y2="100.5" /><line stroke="rgb(0%,0%,0%)" x1="0.5" x2="194.6787" y1="0.5" y2="0.5" /><line stroke="rgb(0%,0%,0%)" x1="194.6787" x2="207.097" y1="0.5" y2="0.5" /><line stroke="rgb(0%,0%,0%)" x1="207.097" x2="321.2488" y1="0.5" y2="0.5" /><line stroke="rgb(0%,0%,0%)" x1="321.2488" x2="325.2299" y1="0.5" y2="0.5" /><line stroke="rgb(0%,0%,0%)" x1="325.2299" x2="329.778" y1="0.5" y2="0.5" /><line stroke="rgb(0%,0%,0%)" x1="329.778" x2="334.8257" y1="0.5" y2="0.5" /><line stroke="rgb(0%,0%,0%)" x1="334.8257" x2="340.2779" y1="0.5" y2="0.5" /><line stroke="rgb(0%,0%,0%)" x1="340.2779" x2="346.0152" y1="0.5" y2="0.5" /><line stroke="rgb(0%,0%,0%)" x1="346.0152" x2="351.9" y1="0.5" y2="0.5" /><line stroke="rgb(0%,0%,0%)" x1="0.5" x2="0.5" y1="0.5" y2="4.0339" /><line stroke="rgb(0%,0%,0%)" x1="0.5" x2="0.5" y1="4.0339" y2="100.5" /><line stroke="rgb(0%,0%,0%)" x1="135.8278" x2="135.5232" y1="47.3813" y2="50.2796" /><line stroke="rgb(0%,0%,0%)" x1="135.5232" x2="135.5" y1="50.2796" y2="50.5" /><line stroke="rgb(0%,0%,0%)" x1="135.5" x2="135.8046" y1="50.5" y2="53.3983" /><line stroke="rgb(0%,0%,0%)" x1="135.8046" x2="135.8278" y1="53.3983" y2="53.6187" /><line stroke="rgb(0%,0%,0%)" x1="135.8278" x2="136.7283" y1="53.6187" y2="56.3903" /><line stroke="rgb(0%,0%,0%)" x1="136.7283" x2="136.7968" y1="56.3903" y2="56.6011" /><line stroke="rgb(0%,0%,0%)" x1="136.7968" x2="138.2539" y1="56.6011" y2="59.1248" /><line stroke="rgb(0%,0%,0%)" x1="138.2539" x2="138.3647" y1="59.1248" y2="59.3168" /><line stroke="rgb(0%,0%,0%)" x1="138.3647" x2="140.3147" y1="59.3168" y2="61.4825" /><line stroke="rgb(0%,0%,0%)" x1="140.3147" x2="140.463" y1="61.4825" y2="61.6472" /><line stroke="rgb(0%,0%,0%)" x1="140.463" x2="142.8207" y1="61.6472" y2="63.3601" /><line stroke="rgb(0%,0%,0%)" x1="142.8207" x2="143.0" y1="63.3601" y2="63.4904" /><line stroke="rgb(0%,0%,0%)" x1="143.0" x2="145.6623" y1="63.4904" y2="64.6757" /><line stroke="rgb(0%,0%,0%)" x1="145.6623" x2="145.8647" y1="64.6757" y2="64.7658" /><line stroke="rgb(0%,0%,0%)" x1="145.8647" x2="148.7153" y1="64.7658" y2="65.3717" /><line stroke="rgb(0%,0%,0%)" x1="148.7153" x2="148.9321" y1="65.3717" y2="65.4178" /><line stroke="rgb(0%,0%,0%)" x1="148.9321" x2="151.8463" y1="65.4178" y2="65.4178" /><line stroke="rgb(0%,0%,0%)" x1="151.8463" x2="152.0679" y1="65.4178" y2="65.4178" /><line stroke="rgb(0%,0%,0%)" x1="152.0679" x2="154.9185" y1="65.4178" y2="64.8119" /><line stroke="rgb(0%,0%,0%)" x1="154.9185" x2="155.1353" y1="64.8119" y2="64.7658" /><line stroke="rgb(0%,0%,0%)" x1="155.1353" x2="157.7975" y1="64.7658" y2="63.5805" /><line stroke="rgb(0%,0%,0%)" x1="157.7975" x2="158.0" y1="63.5805" y2="63.4904" /><line stroke="rgb(0%,0%,0%)" x1="158.0" x2="160.3576" y1="63.4904" y2="61.7774" /><line stroke="rgb(0%,0%,0%)" x1="160.3576" x2="160.537" y1="61.7774" y2="61.6472" /><line stroke="rgb(0%,0%,0%)" x1="160.537" x2="162.4869" y1="61.6472" y2="59.4815" /><line stroke="rgb(0%,0%,0%)" x1="162.4869" x2="162.6353" y1="59.4815" y2="59.3168" /><line stroke="rgb(0%,0%,0%)" x1="162.6353" x2="164.0924" y1="59.3168" y2="56.793" /><line stroke="rgb(0%,0%,0%)" x1="164.0924" x2="164.2032" y1="56.793" y2="56.6011" /><line stroke="rgb(0%,0%,0%)" x1="164.2032" x2="165.1037" y1="56.6011" y2="53.8295" /><line stroke="rgb(0%,0%,0%)" x1="165.1037" x2="165.1722" y1="53.8295" y2="53.6187" /><line stroke="rgb(0%,0%,0%)" x1="165.1722" x2="165.4768" y1="53.6187" y2="50.7204" /><line stroke="rgb(0%,0%,0%)" x1="165.4768" x2="165.5" y1="50.7204" y2="50.5" /><line stroke="rgb(0%,0%,0%)" x1="165.5" x2="165.1954" y1="50.5" y2="47.6017" /><line stroke="rgb(0%,0%,0%)" x1="165.1954" x2="165.1722" y1="47.6017" y2="47.3813" /><line stroke="rgb(0%,0%,0%)" x1="165.1722" x2="164.2717" y1="47.3813" y2="44.6097" /><line stroke="rgb(0%,0%,0%)" x1="164.2717" x2="164.2032" y1="44.6097" y2="44.3989" /><line stroke="rgb(0%,0%,0%)" x1="164.2032" x2="162.7461" y1="44.3989" y2="41.8752" /><line stroke="rgb(0%,0%,0%)" x1="162.7461" x2="162.6353" y1="41.8752" y2="41.6832" /><line stroke="rgb(0%,0%,0%)" x1="162.6353" x2="160.6853" y1="41.6832" y2="39.5175" /><line stroke="rgb(0%,0%,0%)" x1="160.6853" x2="160.537" y1="39.5175" y2="39.3528" /><line stroke="rgb(0%,0%,0%)" x1="160.537" x2="158.1793" y1="39.3528" y2="37.6399" /><line stroke="rgb(0%,0%,0%)" x1="158.1793" x2="158.0" y1="37.6399" y2="37.5096" /><line stroke="rgb(0%,0%,0%)" x1="158.0" x2="155.3377" y1="37.5096" y2="36.3243" /><line stroke="rgb(0%,0%,0%)" x1="155.3377" x2="155.1353" y1="36.3243" y2="36.2342" /><line stroke="rgb(0%,0%,0%)" x1="155.1353" x2="152.2847" y1="36.2342" y2="35.6283" /><line stroke="rgb(0%,0%,0%)" x1="152.2847" x2="152.0679" y1="35.6283" y2="35.5822" /><line stroke="rgb(0%,0%,0%)" x1="152.0679" x2="149.1537" y1="35.5822" y2="35.5822" /><line stroke="rgb(0%,0%,0%)" x1="149.1537" x2="148.9321" y1="35.5822" y2="35.5822" /><line stroke="rgb(0%,0%,0%)" x1="148.9321" x2="146.0815" y1="35.5822" y2="36.1881" /><line stroke="rgb(0%,0%,0%)" x1="146.0815" x2="145.8647" y1="36.1881" y2="36.2342" /><line stroke="rgb(0%,0%,0%)" x1="145.8647" x2="143.2025" y1="36.2342" y2="37.4195" /><line stroke="rgb(0%,0%,0%)" x1="143.2025" x2="143.0" y1="37.4195" y2="37.5096" /><line stroke="rgb(0%,0%,0%)" x1="143.0" x2="140.6423" y1="37.5096" y2="39.2226" /><line stroke="rgb(0%,0%,0%)" x1="140.6423" x2="140.463" y1="39.2226" y2="39.3528" /><line stroke="rgb(0%,0%,0%)" x1="140.463" x2="138.513" y1="39.3528" y2="41.5185" /><line stroke="rgb(0%,0%,0%)" x1="138.513" x2="138.3647" y1="41.5185" y2="41.6832" /><line stroke="rgb(0%,0%,0%)" x1="138.3647" x2="136.9076" y1="41.6832" y2="44.207" /><line stroke="rgb(0%,0%,0%)" x1="136.9076" x2="136.7968" y1="44.207" y2="44.3989" /><line stroke="rgb(0%,0%,0%)" x1="136.7968" x2="135.8963" y1="44.3989" y2="47.1705" /><line stroke="rgb(0%,0%,0%)" x1="135.8963" x2="135.8278" y1="47.1705" y2="47.3813" /><line stroke="rgb(0%,0%,0%)" x1="35.8278" x2="35.5232" y1="47.3813" y2="50.2796" /><line stroke="rgb(0%,0%,0%)" x1="35.5232" x2="35.5" y1="50.2796" y2="50.5" /><line stroke="rgb(0%,0%,0%)" x1="35.5" x2="35.8046" y1="50.5" y2="53.3983" /><line stroke="rgb(0%,0%,0%)" x1="35.8046" x2="35.8278" y1="53.3983" y2="53.6187" /><line stroke="rgb(0%,0%,0%)" x1="35.8278" x2="36.7283" y1="53.6187" y2="56.3903" /><line stroke="rgb(0%,0%,0%)" x1="36.7283" x2="36.7968" y1="56.3903" y2="56.6011" /><line stroke="rgb(0%,0%,0%)" x1="36.7968" x2="38.2539" y1="56.6011" y2="59.1248" /><line stroke="rgb(0%,0%,0%)" x1="38.2539" x2="38.3647" y1="59.1248" y2="59.3168" /><line stroke="rgb(0%,0%,0%)" x1="38.3647" x2="40.3147" y1="59.3168" y2="61.4825" /><line stroke="rgb(0%,0%,0%)" x1="40.3147" x2="40.463" y1="61.4825" y2="61.6472" /><line stroke="rgb(0%,0%,0%)" x1="40.463" x2="42.8207" y1="61.6472" y2="63.3601" /><line stroke="rgb(0%,0%,0%)" x1="42.8207" x2="43.0" y1="63.3601" y2="63.4904" /><line stroke="rgb(0%,0%,0%)" x1="43.0" x2="45.6623" y1="63.4904" y2="64.6757" /><line stroke="rgb(0%,0%,0%)" x1="45.6623" x2="45.8647" y1="64.6757" y2="64.7658" /><line stroke="rgb(0%,0%,0%)" x1="45.8647" x2="48.7153" y1="64.7658" y2="65.3717" /><line stroke="rgb(0%,0%,0%)" x1="48.7153" x2="48.9321" y1="65.3717" y2="65.4178" /><line stroke="rgb(0%,0%,0%)" x1="48.9321" x2="51.8463" y1="65.4178" y2="65.4178" /><line stroke="rgb(0%,0%,0%)" x1="51.8463" x2="52.0679" y1="65.4178" y2="65.4178" /><line stroke="rgb(0%,0%,0%)" x1="52.0679" x2="54.9185" y1="65.4178" y2="64.8119" /><line stroke="rgb(0%,0%,0%)" x1="54.9185" x2="55.1353" y1="64.8119" y2="64.7658" /><line stroke="rgb(0%,0%,0%)" x1="55.1353" x2="57.7975" y1="64.7658" y2="63.5805" /><line stroke="rgb(0%,0%,0%)" x1="57.7975" x2="58.0" y1="63.5805" y2="63.4904" /><line stroke="rgb(0%,0%,0%)" x1="58.0" x2="60.3577" y1="63.4904" y2="61.7774" /><line stroke="rgb(0%,0%,0%)" x1="60.3577" x2="60.537" y1="61.7774" y2="61.6472" /><line stroke="rgb(0%,0%,0%)" x1="60.537" x2="62.4869" y1="61.6472" y2="59.4815" /><line stroke="rgb(0%,0%,0%)" x1="62.4869" x2="62.6352" y1="59.4815" y2="59.3168" /><line stroke="rgb(0%,0%,0%)" x1="62.6352" x2="64.0924" y1="59.3168" y2="56.793" /><line stroke="rgb(0%,0%,0%)" x1="64.0924" x2="64.2032" y1="56.793" y2="56.6011" /><line stroke="rgb(0%,0%,0%)" x1="64.2032" x2="65.1037" y1="56.6011" y2="53.8295" /><line stroke="rgb(0%,0%,0%)" x1="65.1037" x2="65.1722" y1="53.8295" y2="53.6187" /><line stroke="rgb(0%,0%,0%)" x1="65.1722" x2="65.4768" y1="53.6187" y2="50.7204" /><line stroke="rgb(0%,0%,0%)" x1="65.4768" x2="65.5" y1="50.7204" y2="50.5" /><line stroke="rgb(0%,0%,0%)" x1="65.5" x2="65.1954" y1="50.5" y2="47.6017" /><line stroke="rgb(0%,0%,0%)" x1="65.1954" x2="65.1722" y1="47.6017" y2="47.3813" /><line stroke="rgb(0%,0%,0%)" x1="65.1722" x2="64.2717" y1="47.3813" y2="44.6097" /><line stroke="rgb(0%,0%,0%)" x1="64.2717" x2="64.2032" y1="44.6097" y2="44.3989" /><line stroke="rgb(0%,0%,0%)" x1="64.2032" x2="62.7461" y1="44.3989" y2="41.8752" /><line stroke="rgb(0%,0%,0%)" x1="62.7461" x2="62.6352" y1="41.8752" y2="41.6832" /><line stroke="rgb(0%,0%,0%)" x1="62.6352" x2="60.6853" y1="41.6832" y2="39.5175" /><line stroke="rgb(0%,0%,0%)" x1="60.6853" x2="60.537" y1="39.5175" y2="39.3528" /><line stroke="rgb(0%,0%,0%)" x1="60.537" x2="58.1793" y1="39.3528" y2="37.6399" /><line stroke="rgb(0%,0%,0%)" x1="58.1793" x2="58.0" y1="37.6399" y2="37.5096" /><line stroke="rgb(0%,0%,0%)" x1="58.0" x2="55.3377" y1="37.5096" y2="36.3243" /><line stroke="rgb(0%,0%,0%)" x1="55.3377" x2="55.1353" y1="36.3243" y2="36.2342" /><line stroke="rgb(0%,0%,0%)" x1="55.1353" x2="52.2847" y1="36.2342" y2="35.6283" /><line stroke="rgb(0%,0%,0%)" x1="52.2847" x2="52.0679" y1="35.6283" y2="35.5822" /><line stroke="rgb(0%,0%,0%)" x1="52.0679" x2="49.1537" y1="35.5822" y2="35.5822" /><line stroke="rgb(0%,0%,0%)" x1="49.1537" x2="48.9321" y1="35.5822" y2="35.5822" /><line stroke="rgb(0%,0%,0%)" x1="48.9321" x2="46.0815" y1="35.5822" y2="36.1881" /><line stroke="rgb(0%,0%,0%)" x1="46.0815" x2="45.8647" y1="36.1881" y2="36.2342" /><line stroke="rgb(0%,0%,0%)" x1="45.8647" x2="43.2025" y1="36.2342" y2="37.4195" /><line stroke="rgb(0%,0%,0%)" x1="43.2025" x2="43.0" y1="37.4195" y2="37.5096" /><line stroke="rgb(0%,0%,0%)" x1="43.0" x2="40.6423" y1="37.5096" y2="39.2226" /><line stroke="rgb(0%,0%,0%)" x1="40.6423" x2="40.463" y1="39.2226" y2="39.3528" /><line stroke="rgb(0%,0%,0%)" x1="40.463" x2="38.513" y1="39.3528" y2="41.5185" /><line stroke="rgb(0%,0%,0%)" x1="38.513" x2="38.3647" y1="41.5185" y2="41.6832" /><line stroke="rgb(0%,0%,0%)" x1="38.3647" x2="36.9076" y1="41.6832" y2="44.207" /><line stroke="rgb(0%,0%,0%)" x1="36.9076" x2="36.7968" y1="44.207" y2="44.3989" /><line stroke="rgb(0%,0%,0%)" x1="36.7968" x2="35.8963" y1="44.3989" y2="47.1705" /><line stroke="rgb(0%,0%,0%)" x1="35.8963" x2="35.8278" y1="47.1705" y2="47.3813" /></svg>