<?xml version="1.0" encoding="utf-8" ?>
<svg baseProfile="tiny" height="100%" version="1.2" width="100%" xmlns="http://www.w3.org/2000/svg" xmlns:ev="http://www.w3.org/2001/xml-events" xmlns:xlink="http://www.w3.org/1999/xlink"><defs /><line stroke="rgb(0%,0%,0%)" x1="351.9" x2="351.9" y1="0.5" y2="84.744" /><line stroke="rgb(0%,0%,0%)" x1="351.9" x2="351.9" y1="84.744" y2="100.5" /><line stroke="rgb(0%,0%,0%)" x1="205.5964" x2="320.9312" y1="100.5" y2="100.5" /><line stroke="rgb(0%,0%,0%)" x1="320.9312" x2="324.9535" y1="100.5" y2="100.5" /><line stroke="rgb(0%,0%,0%)" x1="324.9535" x2="329.5488" y1="100.5" y2="100.5" /><line stroke="rgb(0%,0%,0%)" x1="329.5488" x2="334.6488" y1="100.5" y2="100.5" /><line stroke="rgb(0%,0%,0%)" x1="334.6488" x2="340.1574" y1="100.5" y2="100.5" /><line stroke="rgb(0%,0%,0%)" x1="340.1574" x2="345.9542" y1="100.5" y2="100.5" /><line stroke="rgb(0%,0%,0%)" x1="345.9542" x2="351.9" y1="100.5" y2="100.5" /><line stroke="rgb(0%,0%,0%)" x1="205.5964" x2="196.6909" y1="100.5" y2="100.5" /><line stroke="rgb(0%,0%,0%)" x1="196.6909" x2="0.5" y1="100.5" y2="100.5" /><line stroke="rgb(0%,0%,0%)" x1="0.5" x2="196.6909" y1="0.5" y2="0.5" /><line stroke="rgb(0%,0%,0%)" x1="196.6909" x2="205.5964" y1="0.5" y2="0.5" /><line stroke="rgb(0%,0%,0%)" x1="205.5964" x2="320.9312" y1="0.5" y2="0.5" /><line stroke="rgb(0%,0%,0%)" x1="320.9312" x2="324.9535" y1="0.5" y2="0.5" /><line stroke="rgb(0%,0%,0%)" x1="324.9535" x2="329.5488" y1="0.5" y2="0.5" /><line stroke="rgb(0%,0%,0%)" x1="329.5488" x2="334.6488" y1="0.5" y2="0.5" /><line stroke="rgb(0%,0%,0%)" x1="334.6488" x2="340.1574" y1="0.5" y2="0.5" /><line stroke="rgb(0%,0%,0%)" x1="340.1574" x2="345.9542" y1="0.5" y2="0.5" /><line stroke="rgb(0%,0%,0%)" x1="345.9542" x2="351.9" y1="0.5" y2="0.5" /><line stroke="rgb(0%,0%,0%)" x1="0.5" x2="0.5" y1="0.5" y2="3.0343" /><line stroke="rgb(0%,0%,0%)" x1="0.5" x2="0.5" y1="3.0343" y2="100.5" /><line stroke="rgb(0%,0%,0%)" x1="135.8278" x2="135.5166" y1="47.3813" y2="50.3419" /><line stroke="rgb(0%,0%,0%)" x1="135.5166" x2="135.5" y1="50.3419" y2="50.5" /><line stroke="rgb(0%,0%,0%)" x1="135.5" x2="135.8112" y1="50.5" y2="53.4606" /><line stroke="rgb(0%,0%,0%)" x1="135.8112" x2="135.8278" y1="53.4606" y2="53.6187" /><line stroke="rgb(0%,0%,0%)" x1="135.8278" x2="136.7477" y1="53.6187" y2="56.4499" /><line stroke="rgb(0%,0%,0%)" x1="136.7477" x2="136.7968" y1="56.4499" y2="56.6011" /><line stroke="rgb(0%,0%,0%)" x1="136.7968" x2="138.2853" y1="56.6011" y2="59.1791" /><line stroke="rgb(0%,0%,0%)" x1="138.2853" x2="138.3647" y1="59.1791" y2="59.3168" /><line stroke="rgb(0%,0%,0%)" x1="138.3647" x2="140.3567" y1="59.3168" y2="61.5291" /><line stroke="rgb(0%,0%,0%)" x1="140.3567" x2="140.463" y1="61.5291" y2="61.6472" /><line stroke="rgb(0%,0%,0%)" x1="140.463" x2="142.8714" y1="61.6472" y2="63.397" /><line stroke="rgb(0%,0%,0%)" x1="142.8714" x2="143.0" y1="63.397" y2="63.4904" /><line stroke="rgb(0%,0%,0%)" x1="143.0" x2="145.7195" y1="63.4904" y2="64.7012" /><line stroke="rgb(0%,0%,0%)" x1="145.7195" x2="145.8647" y1="64.7012" y2="64.7658" /><line stroke="rgb(0%,0%,0%)" x1="145.8647" x2="148.7766" y1="64.7658" y2="65.3848" /><line stroke="rgb(0%,0%,0%)" x1="148.7766" x2="148.9321" y1="65.3848" y2="65.4178" /><line stroke="rgb(0%,0%,0%)" x1="148.9321" x2="151.909" y1="65.4178" y2="65.4178" /><line stroke="rgb(0%,0%,0%)" x1="151.909" x2="152.0679" y1="65.4178" y2="65.4178" /><line stroke="rgb(0%,0%,0%)" x1="152.0679" x2="154.9798" y1="65.4178" y2="64.7989" /><line stroke="rgb(0%,0%,0%)" x1="154.9798" x2="155.1353" y1="64.7989" y2="64.7658" /><line stroke="rgb(0%,0%,0%)" x1="155.1353" x2="157.8548" y1="64.7658" y2="63.555" /><line stroke="rgb(0%,0%,0%)" x1="157.8548" x2="158.0" y1="63.555" y2="63.4904" /><line stroke="rgb(0%,0%,0%)" x1="158.0" x2="160.4084" y1="63.4904" y2="61.7406" /><line stroke="rgb(0%,0%,0%)" x1="160.4084" x2="160.537" y1="61.7406" y2="61.6472" /><line stroke="rgb(0%,0%,0%)" x1="160.537" x2="162.5289" y1="61.6472" y2="59.4349" /><line stroke="rgb(0%,0%,0%)" x1="162.5289" x2="162.6353" y1="59.4349" y2="59.3168" /><line stroke="rgb(0%,0%,0%)" x1="162.6353" x2="164.1237" y1="59.3168" y2="56.7387" /><line stroke="rgb(0%,0%,0%)" x1="164.1237" x2="164.2032" y1="56.7387" y2="56.6011" /><line stroke="rgb(0%,0%,0%)" x1="164.2032" x2="165.1231" y1="56.6011" y2="53.7698" /><line stroke="rgb(0%,0%,0%)" x1="165.1231" x2="165.1722" y1="53.7698" y2="53.6187" /><line stroke="rgb(0%,0%,0%)" x1="165.1722" x2="165.4834" y1="53.6187" y2="50.6581" /><line stroke="rgb(0%,0%,0%)" x1="165.4834" x2="165.5" y1="50.6581" y2="50.5" /><line stroke="rgb(0%,0%,0%)" x1="165.5" x2="165.1888" y1="50.5" y2="47.5394" /><line stroke="rgb(0%,0%,0%)" x1="165.1888" x2="165.1722" y1="47.5394" y2="47.3813" /><line stroke="rgb(0%,0%,0%)" x1="165.1722" x2="164.2523" y1="47.3813" y2="44.5501" /><line stroke="rgb(0%,0%,0%)" x1="164.2523" x2="164.2032" y1="44.5501" y2="44.3989" /><line stroke="rgb(0%,0%,0%)" x1="164.2032" x2="162.7147" y1="44.3989" y2="41.8209" /><line stroke="rgb(0%,0%,0%)" x1="162.7147" x2="162.6353" y1="41.8209" y2="41.6832" /><line stroke="rgb(0%,0%,0%)" x1="162.6353" x2="160.6433" y1="41.6832" y2="39.4709" /><line stroke="rgb(0%,0%,0%)" x1="160.6433" x2="160.537" y1="39.4709" y2="39.3528" /><line stroke="rgb(0%,0%,0%)" x1="160.537" x2="158.1286" y1="39.3528" y2="37.603" /><line stroke="rgb(0%,0%,0%)" x1="158.1286" x2="158.0" y1="37.603" y2="37.5096" /><line stroke="rgb(0%,0%,0%)" x1="158.0" x2="155.2805" y1="37.5096" y2="36.2988" /><line stroke="rgb(0%,0%,0%)" x1="155.2805" x2="155.1353" y1="36.2988" y2="36.2342" /><line stroke="rgb(0%,0%,0%)" x1="155.1353" x2="152.2234" y1="36.2342" y2="35.6152" /><line stroke="rgb(0%,0%,0%)" x1="152.2234" x2="152.0679" y1="35.6152" y2="35.5822" /><line stroke="rgb(0%,0%,0%)" x1="152.0679" x2="149.091" y1="35.5822" y2="35.5822" /><line stroke="rgb(0%,0%,0%)" x1="149.091" x2="148.9321" y1="35.5822" y2="35.5822" /><line stroke="rgb(0%,0%,0%)" x1="148.9321" x2="146.0202" y1="35.5822" y2="36.2011" /><line stroke="rgb(0%,0%,0%)" x1="146.0202" x2="145.8647" y1="36.2011" y2="36.2342" /><line stroke="rgb(0%,0%,0%)" x1="145.8647" x2="143.1452" y1="36.2342" y2="37.445" /><line stroke="rgb(0%,0%,0%)" x1="143.1452" x2="143.0" y1="37.445" y2="37.5096" /><line stroke="rgb(0%,0%,0%)" x1="143.0" x2="140.5916" y1="37.5096" y2="39.2594" /><line stroke="rgb(0%,0%,0%)" x1="140.5916" x2="140.463" y1="39.2594" y2="39.3528" /><line stroke="rgb(0%,0%,0%)" x1="140.463" x2="138.4711" y1="39.3528" y2="41.5651" /><line stroke="rgb(0%,0%,0%)" x1="138.4711" x2="138.3647" y1="41.5651" y2="41.6832" /><line stroke="rgb(0%,0%,0%)" x1="138.3647" x2="136.8763" y1="41.6832" y2="44.2613" /><line stroke="rgb(0%,0%,0%)" x1="136.8763" x2="136.7968" y1="44.2613" y2="44.3989" /><line stroke="rgb(0%,0%,0%)" x1="136.7968" x2="135.8769" y1="44.3989" y2="47.2302" /><line stroke="rgb(0%,0%,0%)" x1="135.8769" x2="135.8278" y1="47.2302" y2="47.3813" /><line stroke="rgb(0%,0%,0%)" x1="35.8278" x2="35.5166" y1="47.3813" y2="50.3419" /><line stroke="rgb(0%,0%,0%)" x1="35.5166" x2="35.5" y1="50.3419" y2="50.5" /><line stroke="rgb(0%,0%,0%)" x1="35.5" x2="35.8112" y1="50.5" y2="53.4606" /><line stroke="rgb(0%,0%,0%)" x1="35.8112" x2="35.8278" y1="53.4606" y2="53.6187" /><line stroke="rgb(0%,0%,0%)" x1="35.8278" x2="36.7477" y1="53.6187" y2="56.4499" /><line stroke="rgb(0%,0%,0%)" x1="36.7477" x2="36.7968" y1="56.4499" y2="56.6011" /><line stroke="rgb(0%,0%,0%)" x1="36.7968" x2="38.2853" y1="56.6011" y2="59.1791" /><line stroke="rgb(0%,0%,0%)" x1="38.2853" x2="38.3647" y1="59.1791" y2="59.3168" /><line stroke="rgb(0%,0%,0%)" x1="38.3647" x2="40.3567" y1="59.3168" y2="61.5291" /><line stroke="rgb(0%,0%,0%)" x1="40.3567" x2="40.463" y1="61.5291" y2="61.6472" /><line stroke="rgb(0%,0%,0%)" x1="40.463" x2="42.8714" y1="61.6472" y2="63.397" /><line stroke="rgb(0%,0%,0%)" x1="42.8714" x2="43.0" y1="63.397" y2="63.4904" /><line stroke="rgb(0%,0%,0%)" x1="43.0" x2="45.7195" y1="63.4904" y2="64.7012" /><line stroke="rgb(0%,0%,0%)" x1="45.7195" x2="45.8647" y1="64.7012" y2="64.7658" /><line stroke="rgb(0%,0%,0%)" x1="45.8647" x2="48.7766" y1="64.7658" y2="65.3848" /><line stroke="rgb(0%,0%,0%)" x1="48.7766" x2="48.9321" y1="65.3848" y2="65.4178" /><line stroke="rgb(0%,0%,0%)" x1="48.9321" x2="51.909" y1="65.4178" y2="65.4178" /><line stroke="rgb(0%,0%,0%)" x1="51.909" x2="52.0679" y1="65.4178" y2="65.4178" /><line stroke="rgb(0%,0%,0%)" x1="52.0679" x2="54.9798" y1="65.4178" y2="64.7989" /><line stroke="rgb(0%,0%,0%)" x1="54.9798" x2="55.1353" y1="64.7989" y2="64.7658" /><line stroke="rgb(0%,0%,0%)" x1="55.1353" x2="57.8548" y1="64.7658" y2="63.555" /><line stroke="rgb(0%,0%,0%)" x1="57.8548" x2="58.0" y1="63.555" y2="63.4904" /><line stroke="rgb(0%,0%,0%)" x1="58.0" x2="60.4084" y1="63.4904" y2="61.7406" /><line stroke="rgb(0%,0%,0%)" x1="60.4084" x2="60.537" y1="61.7406" y2="61.6472" /><line stroke="rgb(0%,0%,0%)" x1="60.537" x2="62.5289" y1="61.6472" y2="59.4349" /><line stroke="rgb(0%,0%,0%)" x1="62.5289" x2="62.6352" y1="59.4349" y2="59.3168" /><line stroke="rgb(0%,0%,0%)" x1="62.6352" x2="64.1237" y1="59.3168" y2="56.7387" /><line stroke="rgb(0%,0%,0%)" x1="64.1237" x2="64.2032" y1="56.7387" y2="56.6011" /><line stroke="rgb(0%,0%,0%)" x1="64.2032" x2="65.1231" y1="56.6011" y2="53.7698" /><line stroke="rgb(0%,0%,0%)" x1="65.1231" x2="65.1722" y1="53.7698" y2="53.6187" /><line stroke="rgb(0%,0%,0%)" x1="65.1722" x2="65.4834" y1="53.6187" y2="50.6581" /><line stroke="rgb(0%,0%,0%)" x1="65.4834" x2="65.5" y1="50.6581" y2="50.5" /><line stroke="rgb(0%,0%,0%)" x1="65.5" x2="65.1888" y1="50.5" y2="47.5394" /><line stroke="rgb(0%,0%,0%)" x1="65.1888" x2="65.1722" y1="47.5394" y2="47.3813" /><line stroke="rgb(0%,0%,0%)" x1="65.1722" x2="64.2523" y1="47.3813" y2="44.5501" /><line stroke="rgb(0%,0%,0%)" x1="64.2523" x2="64.2032" y1="44.5501" y2="44.3989" /><line stroke="rgb(0%,0%,0%)" x1="64.2032" x2="62.7147" y1="44.3989" y2="41.8209" /><line stroke="rgb(0%,0%,0%)" x1="62.7147" x2="62.6352" y1="41.8209" y2="41.6832" /><line stroke="rgb(0%,0%,0%)" x1="62.6352" x2="60.6433" y1="41.6832" y2="39.4709" /><line stroke="rgb(0%,0%,0%)" x1="60.6433" x2="60.537" y1="39.4709" y2="39.3528" /><line stroke="rgb(0%,0%,0%)" x1="60.537" x2="58.1286" y1="39.3528" y2="37.603" /><line stroke="rgb(0%,0%,0%)" x1="58.1286" x2="58.0" y1="37.603" y2="37.5096" /><line stroke="rgb(0%,0%,0%)" x1="58.0" x2="55.2805" y1="37.5096" y2="36.2988" /><line stroke="rgb(0%,0%,0%)" x1="55.2805" x2="55.1353" y1="36.2988" y2="36.2342" /><line stroke="rgb(0%,0%,0%)" x1="55.1353" x2="52.2234" y1="36.2342" y2="35.6152" /><line stroke="rgb(0%,0%,0%)" x1="52.2234" x2="52.0679" y1="35.6152" y2="35.5822" /><line stroke="rgb(0%,0%,0%)" x1="52.0679" x2="49.091" y1="35.5822" y2="35.5822" /><line stroke="rgb(0%,0%,0%)" x1="49.091" x2="48.9321" y1="35.5822" y2="35.5822" /><line stroke="rgb(0%,0%,0%)" x1="48.9321" x2="46.0202" y1="35.5822" y2="36.2011" /><line stroke="rgb(0%,0%,0%)" x1="46.0202" x2="45.8647" y1="36.2011" y2="36.2342" /><line stroke="rgb(0%,0%,0%)" x1="45.8647" x2="43.1452" y1="36.2342" y2="37.445" /><line stroke="rgb(0%,0%,0%)" x1="43.1452" x2="43.0" y1="37.445" y2="37.5096" /><line stroke="rgb(0%,0%,0%)" x1="43.0" x2="40.5916" y1="37.5096" y2="39.2594" /><line stroke="rgb(0%,0%,0%)" x1="40.5916" x2="40.463" y1="39.2594" y2="39.3528" /><line stroke="rgb(0%,0%,0%)" x1="40.463" x2="38.4711" y1="39.3528" y2="41.5651" /><line stroke="rgb(0%,0%,0%)" x1="38.4711" x2="38.3647" y1="41.5651" y2="41.6832" /><line stroke="rgb(0%,0%,0%)" x1="38.3647" x2="36.8763" y1="41.6832" y2="44.2613" /><line stroke="rgb(0%,0%,0%)" x1="36.8763" x2="36.7968" y1="44.2613" y2="44.3989" /><line stroke="rgb(0%,0%,0%)" x1="36.7968" x2="35.8769" y1="44.3989" y2="47.2302" /><line stroke="rgb(0%,0%,0%)" x1="35.8769" x2="35.8278" y1="47.2302" y2="47.3813" /></svg>