<?xml version="1.0" encoding="utf-8" ?>
<svg baseProfile="tiny" height="100%" version="1.2" width="100%" xmlns="http://www.w3.org/2000/svg" xmlns:ev="http://www.w3.org/2001/xml-events" xmlns:xlink="http://www.w3.org/1999/xlink"><defs /><line stroke="rgb(0%,0%,0%)" x1="351.9" x2="351.9" y1="0.5" y2="85.6081" /><line stroke="rgb(0%,0%,0%)" x1="351.9" x2="351.9" y1="85.6081" y2="100.5" /><line stroke="rgb(0%,0%,0%)" x1="204.0959" x2="320.6136" y1="100.5" y2="100.5" /><line stroke="rgb(0%,0%,0%)" x1="320.6136" x2="324.6772" y1="100.5" y2="100.5" /><line stroke="rgb(0%,0%,0%)" x1="324.6772" x2="329.3195" y1="100.5" y2="100.5" /><line stroke="rgb(0%,0%,0%)" x1="329.3195" x2="334.4718" y1="100.5" y2="100.5" /><line stroke="rgb(0%,0%,0%)" x1="334.4718" x2="340.037" y1="100.5" y2="100.5" /><line stroke="rgb(0%,0%,0%)" x1="340.037" x2="345.8932" y1="100.5" y2="100.5" /><line stroke="rgb(0%,0%,0%)" x1="345.8932" x2="351.9" y1="100.5" y2="100.5" /><line stroke="rgb(0%,0%,0%)" x1="204.0959" x2="198.7031" y1="100.5" y2="100.5" /><line stroke="rgb(0%,0%,0%)" x1="198.7031" x2="0.5" y1="100.5" y2="100.5" /><line stroke="rgb(0%,0%,0%)" x1="0.5" x2="198.7031" y1="0.5" y2="0.5" /><line stroke="rgb(0%,0%,0%)" x1="198.7031" x2="204.0959" y1="0.5" y2="0.5" /><line stroke="rgb(0%,0%,0%)" x1="204.0959" x2="320.6136" y1="0.5" y2="0.5" /><line stroke="rgb(0%,0%,0%)" x1="320.6136" x2="324.6772" y1="0.5" y2="0.5" /><line stroke="rgb(0%,0%,0%)" x1="324.6772" x2="329.3195" y1="0.5" y2="0.5" /><line stroke="rgb(0%,0%,0%)" x1="329.3195" x2="334.4718" y1="0.5" y2="0.5" /><line stroke="rgb(0%,0%,0%)" x1="334.4718" x2="340.037" y1="0.5" y2="0.5" /><line stroke="rgb(0%,0%,0%)" x1="340.037" x2="345.8932" y1="0.5" y2="0.5" /><line stroke="rgb(0%,0%,0%)" x1="345.8932" x2="351.9" y1="0.5" y2="0.5" /><line stroke="rgb(0%,0%,0%)" x1="0.5" x2="0.5" y1="0.5" y2="2.0346" /><line stroke="rgb(0%,0%,0%)" x1="0.5" x2="0.5" y1="2.0346" y2="100.5" /><line stroke="rgb(0%,0%,0%)" x1="135.8278" x2="135.5101" y1="47.3813" y2="50.4043" /><line stroke="rgb(0%,0%,0%)" x1="135.5101" x2="135.5" y1="50.4043" y2="50.5" /><line stroke="rgb(0%,0%,0%)" x1="135.5" x2="135.8177" y1="50.5" y2="53.523" /><line stroke="rgb(0%,0%,0%)" x1="135.8177" x2="135.8278" y1="53.523" y2="53.6187" /><line stroke="rgb(0%,0%,0%)" x1="135.8278" x2="136.7671" y1="53.6187" y2="56.5095" /><line stroke="rgb(0%,0%,0%)" x1="136.7671" x2="136.7968" y1="56.5095" y2="56.6011" /><line stroke="rgb(0%,0%,0%)" x1="136.7968" x2="138.3166" y1="56.6011" y2="59.2334" /><line stroke="rgb(0%,0%,0%)" x1="138.3166" x2="138.3647" y1="59.2334" y2="59.3168" /><line stroke="rgb(0%,0%,0%)" x1="138.3647" x2="140.3986" y1="59.3168" y2="61.5756" /><line stroke="rgb(0%,0%,0%)" x1="140.3986" x2="140.463" y1="61.5756" y2="61.6472" /><line stroke="rgb(0%,0%,0%)" x1="140.463" x2="142.9221" y1="61.6472" y2="63.4338" /><line stroke="rgb(0%,0%,0%)" x1="142.9221" x2="143.0" y1="63.4338" y2="63.4904" /><line stroke="rgb(0%,0%,0%)" x1="143.0" x2="145.7768" y1="63.4904" y2="64.7267" /><line stroke="rgb(0%,0%,0%)" x1="145.7768" x2="145.8647" y1="64.7267" y2="64.7658" /><line stroke="rgb(0%,0%,0%)" x1="145.8647" x2="148.8379" y1="64.7658" y2="65.3978" /><line stroke="rgb(0%,0%,0%)" x1="148.8379" x2="148.9321" y1="65.3978" y2="65.4178" /><line stroke="rgb(0%,0%,0%)" x1="148.9321" x2="151.9717" y1="65.4178" y2="65.4178" /><line stroke="rgb(0%,0%,0%)" x1="151.9717" x2="152.0679" y1="65.4178" y2="65.4178" /><line stroke="rgb(0%,0%,0%)" x1="152.0679" x2="155.0411" y1="65.4178" y2="64.7859" /><line stroke="rgb(0%,0%,0%)" x1="155.0411" x2="155.1353" y1="64.7859" y2="64.7658" /><line stroke="rgb(0%,0%,0%)" x1="155.1353" x2="157.9121" y1="64.7658" y2="63.5295" /><line stroke="rgb(0%,0%,0%)" x1="157.9121" x2="158.0" y1="63.5295" y2="63.4904" /><line stroke="rgb(0%,0%,0%)" x1="158.0" x2="160.4591" y1="63.4904" y2="61.7037" /><line stroke="rgb(0%,0%,0%)" x1="160.4591" x2="160.537" y1="61.7037" y2="61.6472" /><line stroke="rgb(0%,0%,0%)" x1="160.537" x2="162.5709" y1="61.6472" y2="59.3883" /><line stroke="rgb(0%,0%,0%)" x1="162.5709" x2="162.6353" y1="59.3883" y2="59.3168" /><line stroke="rgb(0%,0%,0%)" x1="162.6353" x2="164.1551" y1="59.3168" y2="56.6844" /><line stroke="rgb(0%,0%,0%)" x1="164.1551" x2="164.2032" y1="56.6844" y2="56.6011" /><line stroke="rgb(0%,0%,0%)" x1="164.2032" x2="165.1425" y1="56.6011" y2="53.7102" /><line stroke="rgb(0%,0%,0%)" x1="165.1425" x2="165.1722" y1="53.7102" y2="53.6187" /><line stroke="rgb(0%,0%,0%)" x1="165.1722" x2="165.4899" y1="53.6187" y2="50.5957" /><line stroke="rgb(0%,0%,0%)" x1="165.4899" x2="165.5" y1="50.5957" y2="50.5" /><line stroke="rgb(0%,0%,0%)" x1="165.5" x2="165.1823" y1="50.5" y2="47.477" /><line stroke="rgb(0%,0%,0%)" x1="165.1823" x2="165.1722" y1="47.477" y2="47.3813" /><line stroke="rgb(0%,0%,0%)" x1="165.1722" x2="164.2329" y1="47.3813" y2="44.4905" /><line stroke="rgb(0%,0%,0%)" x1="164.2329" x2="164.2032" y1="44.4905" y2="44.3989" /><line stroke="rgb(0%,0%,0%)" x1="164.2032" x2="162.6834" y1="44.3989" y2="41.7666" /><line stroke="rgb(0%,0%,0%)" x1="162.6834" x2="162.6353" y1="41.7666" y2="41.6832" /><line stroke="rgb(0%,0%,0%)" x1="162.6353" x2="160.6014" y1="41.6832" y2="39.4244" /><line stroke="rgb(0%,0%,0%)" x1="160.6014" x2="160.537" y1="39.4244" y2="39.3528" /><line stroke="rgb(0%,0%,0%)" x1="160.537" x2="158.0779" y1="39.3528" y2="37.5662" /><line stroke="rgb(0%,0%,0%)" x1="158.0779" x2="158.0" y1="37.5662" y2="37.5096" /><line stroke="rgb(0%,0%,0%)" x1="158.0" x2="155.2232" y1="37.5096" y2="36.2733" /><line stroke="rgb(0%,0%,0%)" x1="155.2232" x2="155.1353" y1="36.2733" y2="36.2342" /><line stroke="rgb(0%,0%,0%)" x1="155.1353" x2="152.1621" y1="36.2342" y2="35.6022" /><line stroke="rgb(0%,0%,0%)" x1="152.1621" x2="152.0679" y1="35.6022" y2="35.5822" /><line stroke="rgb(0%,0%,0%)" x1="152.0679" x2="149.0283" y1="35.5822" y2="35.5822" /><line stroke="rgb(0%,0%,0%)" x1="149.0283" x2="148.9321" y1="35.5822" y2="35.5822" /><line stroke="rgb(0%,0%,0%)" x1="148.9321" x2="145.9589" y1="35.5822" y2="36.2141" /><line stroke="rgb(0%,0%,0%)" x1="145.9589" x2="145.8647" y1="36.2141" y2="36.2342" /><line stroke="rgb(0%,0%,0%)" x1="145.8647" x2="143.0879" y1="36.2342" y2="37.4705" /><line stroke="rgb(0%,0%,0%)" x1="143.0879" x2="143.0" y1="37.4705" y2="37.5096" /><line stroke="rgb(0%,0%,0%)" x1="143.0" x2="140.5409" y1="37.5096" y2="39.2963" /><line stroke="rgb(0%,0%,0%)" x1="140.5409" x2="140.463" y1="39.2963" y2="39.3528" /><line stroke="rgb(0%,0%,0%)" x1="140.463" x2="138.4291" y1="39.3528" y2="41.6117" /><line stroke="rgb(0%,0%,0%)" x1="138.4291" x2="138.3647" y1="41.6117" y2="41.6832" /><line stroke="rgb(0%,0%,0%)" x1="138.3647" x2="136.8449" y1="41.6832" y2="44.3156" /><line stroke="rgb(0%,0%,0%)" x1="136.8449" x2="136.7968" y1="44.3156" y2="44.3989" /><line stroke="rgb(0%,0%,0%)" x1="136.7968" x2="135.8575" y1="44.3989" y2="47.2898" /><line stroke="rgb(0%,0%,0%)" x1="135.8575" x2="135.8278" y1="47.2898" y2="47.3813" /><line stroke="rgb(0%,0%,0%)" x1="35.8278" x2="35.5101" y1="47.3813" y2="50.4043" /><line stroke="rgb(0%,0%,0%)" x1="35.5101" x2="35.5" y1="50.4043" y2="50.5" /><line stroke="rgb(0%,0%,0%)" x1="35.5" x2="35.8177" y1="50.5" y2="53.523" /><line stroke="rgb(0%,0%,0%)" x1="35.8177" x2="35.8278" y1="53.523" y2="53.6187" /><line stroke="rgb(0%,0%,0%)" x1="35.8278" x2="36.7671" y1="53.6187" y2="56.5095" /><line stroke="rgb(0%,0%,0%)" x1="36.7671" x2="36.7968" y1="56.5095" y2="56.6011" /><line stroke="rgb(0%,0%,0%)" x1="36.7968" x2="38.3166" y1="56.6011" y2="59.2334" /><line stroke="rgb(0%,0%,0%)" x1="38.3166" x2="38.3647" y1="59.2334" y2="59.3168" /><line stroke="rgb(0%,0%,0%)" x1="38.3647" x2="40.3986" y1="59.3168" y2="61.5756" /><line stroke="rgb(0%,0%,0%)" x1="40.3986" x2="40.463" y1="61.5756" y2="61.6472" /><line stroke="rgb(0%,0%,0%)" x1="40.463" x2="42.9221" y1="61.6472" y2="63.4338" /><line stroke="rgb(0%,0%,0%)" x1="42.9221" x2="43.0" y1="63.4338" y2="63.4904" /><line stroke="rgb(0%,0%,0%)" x1="43.0" x2="45.7768" y1="63.4904" y2="64.7267" /><line stroke="rgb(0%,0%,0%)" x1="45.7768" x2="45.8647" y1="64.7267" y2="64.7658" /><line stroke="rgb(0%,0%,0%)" x1="45.8647" x2="48.8379" y1="64.7658" y2="65.3978" /><line stroke="rgb(0%,0%,0%)" x1="48.8379" x2="48.9321" y1="65.3978" y2="65.4178" /><line stroke="rgb(0%,0%,0%)" x1="48.9321" x2="51.9717" y1="65.4178" y2="65.4178" /><line stroke="rgb(0%,0%,0%)" x1="51.9717" x2="52.0679" y1="65.4178" y2="65.4178" /><line stroke="rgb(0%,0%,0%)" x1="52.0679" x2="55.0411" y1="65.4178" y2="64.7859" /><line stroke="rgb(0%,0%,0%)" x1="55.0411" x2="55.1353" y1="64.7859" y2="64.7658" /><line stroke="rgb(0%,0%,0%)" x1="55.1353" x2="57.9121" y1="64.7658" y2="63.5295" /><line stroke="rgb(0%,0%,0%)" x1="57.9121" x2="58.0" y1="63.5295" y2="63.4904" /><line stroke="rgb(0%,0%,0%)" x1="58.0" x2="60.4591" y1="63.4904" y2="61.7037" /><line stroke="rgb(0%,0%,0%)" x1="60.4591" x2="60.537" y1="61.7037" y2="61.6472" /><line stroke="rgb(0%,0%,0%)" x1="60.537" x2="62.5708" y1="61.6472" y2="59.3883" /><line stroke="rgb(0%,0%,0%)" x1="62.5708" x2="62.6352" y1="59.3883" y2="59.3168" /><line stroke="rgb(0%,0%,0%)" x1="62.6352" x2="64.1551" y1="59.3168" y2="56.6844" /><line stroke="rgb(0%,0%,0%)" x1="64.1551" x2="64.2032" y1="56.6844" y2="56.6011" /><line stroke="rgb(0%,0%,0%)" x1="64.2032" x2="65.1425" y1="56.6011" y2="53.7102" /><line stroke="rgb(0%,0%,0%)" x1="65.1425" x2="65.1722" y1="53.7102" y2="53.6187" /><line stroke="rgb(0%,0%,0%)" x1="65.1722" x2="65.4899" y1="53.6187" y2="50.5957" /><line stroke="rgb(0%,0%,0%)" x1="65.4899" x2="65.5" y1="50.5957" y2="50.5" /><line stroke="rgb(0%,0%,0%)" x1="65.5" x2="65.1823" y1="50.5" y2="47.477" /><line stroke="rgb(0%,0%,0%)" x1="65.1823" x2="65.1722" y1="47.477" y2="47.3813" /><line stroke="rgb(0%,0%,0%)" x1="65.1722" x2="64.2329" y1="47.3813" y2="44.4905" /><line stroke="rgb(0%,0%,0%)" x1="64.2329" x2="64.2032" y1="44.4905" y2="44.3989" /><line stroke="rgb(0%,0%,0%)" x1="64.2032" x2="62.6834" y1="44.3989" y2="41.7666" /><line stroke="rgb(0%,0%,0%)" x1="62.6834" x2="62.6352" y1="41.7666" y2="41.6832" /><line stroke="rgb(0%,0%,0%)" x1="62.6352" x2="60.6014" y1="41.6832" y2="39.4244" /><line stroke="rgb(0%,0%,0%)" x1="60.6014" x2="60.537" y1="39.4244" y2="39.3528" /><line stroke="rgb(0%,0%,0%)" x1="60.537" x2="58.0779" y1="39.3528" y2="37.5662" /><line stroke="rgb(0%,0%,0%)" x1="58.0779" x2="58.0" y1="37.5662" y2="37.5096" /><line stroke="rgb(0%,0%,0%)" x1="58.0" x2="55.2232" y1="37.5096" y2="36.2733" /><line stroke="rgb(0%,0%,0%)" x1="55.2232" x2="55.1353" y1="36.2733" y2="36.2342" /><line stroke="rgb(0%,0%,0%)" x1="55.1353" x2="52.1621" y1="36.2342" y2="35.6022" /><line stroke="rgb(0%,0%,0%)" x1="52.1621" x2="52.0679" y1="35.6022" y2="35.5822" /><line stroke="rgb(0%,0%,0%)" x1="52.0679" x2="49.0283" y1="35.5822" y2="35.5822" /><line stroke="rgb(0%,0%,0%)" x1="49.0283" x2="48.9321" y1="35.5822" y2="35.5822" /><line stroke="rgb(0%,0%,0%)" x1="48.9321" x2="45.9589" y1="35.5822" y2="36.2141" /><line stroke="rgb(0%,0%,0%)" x1="45.9589" x2="45.8647" y1="36.2141" y2="36.2342" /><line stroke="rgb(0%,0%,0%)" x1="45.8647" x2="43.0879" y1="36.2342" y2="37.4705" /><line stroke="rgb(0%,0%,0%)" x1="43.0879" x2="43.0" y1="37.4705" y2="37.5096" /><line stroke="rgb(0%,0%,0%)" x1="43.0" x2="40.5409" y1="37.5096" y2="39.2963" /><line stroke="rgb(0%,0%,0%)" x1="40.5409" x2="40.463" y1="39.2963" y2="39.3528" /><line stroke="rgb(0%,0%,0%)" x1="40.463" x2="38.4291" y1="39.3528" y2="41.6117" /><line stroke="rgb(0%,0%,0%)" x1="38.4291" x2="38.3647" y1="41.6117" y2="41.6832" /><line stroke="rgb(0%,0%,0%)" x1="38.3647" x2="36.8449" y1="41.6832" y2="44.3156" /><line stroke="rgb(0%,0%,0%)" x1="36.8449" x2="36.7968" y1="44.3156" y2="44.3989" /><line stroke="rgb(0%,0%,0%)" x1="36.7968" x2="35.8575" y1="44.3989" y2="47.2898" /><line stroke="rgb(0%,0%,0%)" x1="35.8575" x2="35.8278" y1="47.2898" y2="47.3813" /></svg>